<svg version="1.1" xmlns="http://www.w3.org/2000/svg" viewBox="0 0 108.28814535019251 127.12357954545405" width="108.28814535019251" height="127.12357954545405">
  <!-- svg-source:excalidraw -->
  
  <defs>
    <style class="style-fonts">
      @font-face {
        font-family: "Virgil";
        src: url("https://excalidraw.com/Virgil.woff2");
      }
      @font-face {
        font-family: "Cascadia";
        src: url("https://excalidraw.com/Cascadia.woff2");
      }
      @font-face {
        font-family: "Assistant";
        src: url("https://excalidraw.com/Assistant-Regular.woff2");
      }
    </style>
    
  </defs>
  <g stroke-linecap="round" transform="translate(13.026426600192508 24.85274621212193) rotate(0 42.630859375 38.322265625)"><path d="M19.16 0 C35.37 2.62, 46.04 2.99, 66.1 0 C79.16 3.42, 87.58 9.7, 85.26 19.16 C88.78 27.76, 82.6 38.24, 85.26 57.48 C85.8 72.77, 78.11 77.63, 66.1 76.64 C54.03 76.65, 45.89 78.66, 19.16 76.64 C9.55 78.37, 1.34 66.67, 0 57.48 C0.41 49.7, 3.01 39.99, 0 19.16 C3 3.12, 6.58 1.05, 19.16 0" stroke="none" stroke-width="0" fill="#fd7e14"></path><path d="M19.16 0 C38.43 -0.73, 51.95 1.21, 66.1 0 M19.16 0 C37.57 0.54, 55.48 -0.89, 66.1 0 M66.1 0 C80.73 0.45, 85.14 8.13, 85.26 19.16 M66.1 0 C77.26 -1.3, 84.21 7.38, 85.26 19.16 M85.26 19.16 C84.12 31.48, 86.71 43.41, 85.26 57.48 M85.26 19.16 C84.78 33.23, 84.89 45.98, 85.26 57.48 M85.26 57.48 C83.78 71.51, 79.07 77.21, 66.1 76.64 M85.26 57.48 C83.04 68.7, 78.67 75.93, 66.1 76.64 M66.1 76.64 C53.9 77.09, 38.95 74.58, 19.16 76.64 M66.1 76.64 C55.63 76.29, 45.89 77.13, 19.16 76.64 M19.16 76.64 C8.14 78.63, -1.61 70.31, 0 57.48 M19.16 76.64 C4.61 78.89, 1.84 69.11, 0 57.48 M0 57.48 C1.86 49.38, 1.33 43.62, 0 19.16 M0 57.48 C-0.14 48.74, -0.9 39.79, 0 19.16 M0 19.16 C-1.09 8.11, 4.65 0.82, 19.16 0 M0 19.16 C-1.06 8.44, 4.54 0, 19.16 0" stroke="#1e1e1e" stroke-width="2" fill="none"></path></g><g stroke-linecap="round" transform="translate(36.69452640403392 102.14701704545405) rotate(0 19.283203125 7.48828125)"><path d="M3.74 0 C10.27 1.56, 18.86 2.24, 34.82 0 C38.99 2.4, 38.41 2.93, 38.57 3.74 C37.81 4.48, 38.79 7.77, 38.57 11.23 C38.02 14.44, 35.71 16.34, 34.82 14.98 C27.44 16.52, 19.21 16.23, 3.74 14.98 C2.21 12.38, -0.91 13.77, 0 11.23 C0.81 9.08, 0.8 4.53, 0 3.74 C0.14 2.01, 1.13 1.9, 3.74 0" stroke="none" stroke-width="0" fill="#868e96"></path><path d="M3.74 0 C12.71 0.7, 24.45 0.54, 34.82 0 M3.74 0 C13.5 -0.52, 22.98 0.03, 34.82 0 M34.82 0 C37.26 0.87, 37.87 0.68, 38.57 3.74 M34.82 0 C36.79 0.5, 39 0.53, 38.57 3.74 M38.57 3.74 C38.87 6.35, 38.76 9.44, 38.57 11.23 M38.57 3.74 C38.51 6.07, 38.41 8.7, 38.57 11.23 M38.57 11.23 C38.66 14.01, 36.35 14.3, 34.82 14.98 M38.57 11.23 C38.47 13.37, 37.11 14.09, 34.82 14.98 M34.82 14.98 C27.43 14.18, 19.84 14.48, 3.74 14.98 M34.82 14.98 C23.74 15.01, 13.54 15.38, 3.74 14.98 M3.74 14.98 C0.44 15.01, -0.77 14.71, 0 11.23 M3.74 14.98 C2.17 14.4, -1.07 13.84, 0 11.23 M0 11.23 C0.22 8.86, -0.32 5.81, 0 3.74 M0 11.23 C-0.15 8.4, -0.1 5.91, 0 3.74 M0 3.74 C-0.87 1.66, 0.79 0.89, 3.74 0 M0 3.74 C-0.93 1.25, 1.25 -0.91, 3.74 0" stroke="#1e1e1e" stroke-width="2" fill="none"></path></g><g stroke-linecap="round" transform="translate(36.88039879986741 10) rotate(0 19.283203125 7.48828125)"><path d="M3.74 0 C15.1 2.19, 27.71 2.12, 34.82 0 C37.17 1.68, 36.57 3.46, 38.57 3.74 C38.63 6.11, 38.28 7.39, 38.57 11.23 C36.96 15.1, 37 14.33, 34.82 14.98 C27.69 16.46, 16.95 12.62, 3.74 14.98 C0.34 15.02, 2.3 14.03, 0 11.23 C0.73 7.61, -0.03 6.04, 0 3.74 C-0.12 3.15, 0.38 -1.96, 3.74 0" stroke="none" stroke-width="0" fill="#868e96"></path><path d="M3.74 0 C12.88 0.39, 20.45 0.52, 34.82 0 M3.74 0 C15.23 0.25, 25.75 0.57, 34.82 0 M34.82 0 C36.62 -0.57, 38.11 1.68, 38.57 3.74 M34.82 0 C37.75 -0.72, 39.58 0.73, 38.57 3.74 M38.57 3.74 C38.81 5.65, 38.68 7.64, 38.57 11.23 M38.57 3.74 C38.42 6.42, 38.57 8.91, 38.57 11.23 M38.57 11.23 C37.6 13.05, 37.23 14.67, 34.82 14.98 M38.57 11.23 C38.36 12.84, 36.48 15.57, 34.82 14.98 M34.82 14.98 C23.38 14.28, 14.23 14.25, 3.74 14.98 M34.82 14.98 C27.75 15.51, 19.4 15.03, 3.74 14.98 M3.74 14.98 C0.47 15.95, 0.8 13.23, 0 11.23 M3.74 14.98 C0.18 15.09, 0.77 14.82, 0 11.23 M0 11.23 C-0.31 9.12, 0.22 6.84, 0 3.74 M0 11.23 C-0.07 9.25, -0.13 7.02, 0 3.74 M0 3.74 C-0.46 2.14, 0.44 0, 3.74 0 M0 3.74 C0 0.33, 0.56 0.68, 3.74 0" stroke="#343a40" stroke-width="2" fill="none"></path></g><g stroke-linecap="round" transform="translate(13.186373760761398 24.156708609438283) rotate(47.524435689906944 13.974609375 10.47265625)"><path d="M5.24 0 C13.71 2.6, 17.95 1.73, 22.71 0 C23.44 3.07, 25.28 -1.37, 27.95 5.24 C27.58 7.89, 26.81 10.5, 27.95 15.71 C27.51 18.31, 26.31 23.1, 22.71 20.95 C17.61 17.96, 9.07 21.15, 5.24 20.95 C4.93 21.37, 2.37 22.22, 0 15.71 C-0.06 12.3, -0.24 9.17, 0 5.24 C-1.2 -0.97, 2.44 -0.19, 5.24 0" stroke="none" stroke-width="0" fill="#eaddd7"></path><path d="M5.24 0 C11.66 1, 18.96 1.19, 22.71 0 M5.24 0 C8.89 0.72, 12.04 -0.53, 22.71 0 M22.71 0 C25.29 0.87, 28.7 0.49, 27.95 5.24 M22.71 0 C28.23 -1.04, 27.24 3.69, 27.95 5.24 M27.95 5.24 C28.25 7.15, 28.44 9.57, 27.95 15.71 M27.95 5.24 C27.92 8.02, 27.37 10.16, 27.95 15.71 M27.95 15.71 C27.77 18.58, 25.84 19.41, 22.71 20.95 M27.95 15.71 C26.26 20.38, 27.11 20.14, 22.71 20.95 M22.71 20.95 C19.84 19.82, 14.22 20.05, 5.24 20.95 M22.71 20.95 C16.32 21.14, 10.66 21.97, 5.24 20.95 M5.24 20.95 C3.35 19.94, -1.86 19.4, 0 15.71 M5.24 20.95 C3.28 23.12, -0.2 20.78, 0 15.71 M0 15.71 C0.77 11.44, -0.06 6.46, 0 5.24 M0 15.71 C-0.4 13.27, -0.19 10.88, 0 5.24 M0 5.24 C-1.61 1.74, 1.74 -1.59, 5.24 0 M0 5.24 C-1.38 3.11, 3.1 -0.82, 5.24 0" stroke="#1e1e1e" stroke-width="2" fill="none"></path></g><g stroke-linecap="round" transform="translate(28.105044809020228 38.92300118694402) rotate(47.524435689906944 25.4296875 23.859375)"><path d="M34.42 2.31 C39.14 3.65, 43.69 7.56, 46.49 11.77 C49.29 15.97, 51.96 22.66, 51.2 27.54 C50.44 32.42, 46.26 37.78, 41.96 41.05 C37.65 44.33, 30.66 47.1, 25.37 47.17 C20.09 47.25, 14.35 44.72, 10.26 41.52 C6.18 38.31, 1.9 32.93, 0.87 27.92 C-0.16 22.91, 1.52 15.85, 4.09 11.46 C6.67 7.07, 11.16 3.22, 16.34 1.57 C21.53 -0.08, 31.52 1.12, 35.22 1.56 C38.92 2, 38.63 3.64, 38.53 4.22 M27.8 -0.07 C32.91 -0.54, 39.47 1.78, 43.49 5.04 C47.51 8.31, 51.55 14.5, 51.9 19.52 C52.26 24.54, 48.73 30.46, 45.64 35.14 C42.56 39.83, 38.44 45.76, 33.41 47.63 C28.39 49.5, 20.73 48.33, 15.49 46.36 C10.26 44.38, 4.52 40.42, 2 35.76 C-0.51 31.11, -0.92 23.41, 0.39 18.43 C1.71 13.45, 5.42 8.75, 9.9 5.9 C14.39 3.05, 24.43 2.14, 27.3 1.34 C30.17 0.53, 27.53 0.96, 27.12 1.05" stroke="none" stroke-width="0" fill="#eaddd7"></path><path d="M34.72 1.51 C39.97 2.68, 46 7.15, 48.52 11.55 C51.04 15.95, 50.94 22.71, 49.83 27.91 C48.73 33.11, 46.14 39.3, 41.9 42.75 C37.67 46.2, 30 48.79, 24.41 48.59 C18.81 48.4, 12.2 45.21, 8.33 41.59 C4.46 37.96, 1.86 31.88, 1.16 26.83 C0.47 21.78, 1.48 15.62, 4.17 11.31 C6.87 6.99, 11.29 2.16, 17.34 0.95 C23.38 -0.26, 36.03 2.92, 40.44 4.07 C44.85 5.22, 44.02 7.45, 43.81 7.84 M28.86 -0.23 C34.22 0.13, 40.59 2.75, 44.07 6.75 C47.55 10.76, 49.42 18.6, 49.74 23.82 C50.07 29.03, 49.44 34.37, 46.05 38.04 C42.66 41.71, 34.97 44.59, 29.4 45.86 C23.84 47.13, 17.37 47.98, 12.63 45.66 C7.89 43.33, 2.97 36.7, 0.96 31.9 C-1.05 27.1, -1.49 21.32, 0.56 16.85 C2.62 12.38, 8.75 7.87, 13.28 5.11 C17.82 2.34, 25.37 0.77, 27.78 0.28 C30.2 -0.21, 27.41 1.91, 27.76 2.17" stroke="#1e1e1e" stroke-width="2" fill="none"></path></g></svg>