<svg version="1.1" xmlns="http://www.w3.org/2000/svg" viewBox="0 0 105.26171875 129.23744184244413" width="105.26171875" height="129.23744184244413">
  <!-- svg-source:excalidraw -->
  
  <defs>
    <style class="style-fonts">
      @font-face {
        font-family: "Virgil";
        src: url("https://excalidraw.com/Virgil.woff2");
      }
      @font-face {
        font-family: "Cascadia";
        src: url("https://excalidraw.com/Cascadia.woff2");
      }
      @font-face {
        font-family: "Assistant";
        src: url("https://excalidraw.com/Assistant-Regular.woff2");
      }
    </style>
    
  </defs>
  <g stroke-linecap="round" transform="translate(10 26.966608509110188) rotate(0 42.630859375 38.322265625)"><path d="M19.16 0 C32.44 -2.67, 41 -1.21, 66.1 0 C82.09 -2.9, 85.26 6.38, 85.26 19.16 C86.96 26.33, 87.33 36.35, 85.26 57.48 C88.69 72.57, 82.19 76.43, 66.1 76.64 C46.31 74.25, 28.41 77.9, 19.16 76.64 C8.9 75.88, 0.99 68.03, 0 57.48 C0.19 46.13, 2.2 33.62, 0 19.16 C1.72 7.72, 2.8 -1.26, 19.16 0" stroke="none" stroke-width="0" fill="#fd7e14"></path><path d="M19.16 0 C29.8 -1.45, 42.88 0.01, 66.1 0 M19.16 0 C33.93 -0.15, 47.5 0.67, 66.1 0 M66.1 0 C78.24 -1.97, 86.57 7.97, 85.26 19.16 M66.1 0 C79.99 0.05, 86.69 7.64, 85.26 19.16 M85.26 19.16 C85.37 33.33, 86.67 46.34, 85.26 57.48 M85.26 19.16 C85.46 27.86, 85.96 37.36, 85.26 57.48 M85.26 57.48 C84.65 71.95, 77.26 77.77, 66.1 76.64 M85.26 57.48 C84.57 70.79, 78.04 77.59, 66.1 76.64 M66.1 76.64 C54.46 76.49, 40.88 74.36, 19.16 76.64 M66.1 76.64 C55.01 75.73, 43.55 77.01, 19.16 76.64 M19.16 76.64 C7.17 75.95, -1.72 68.47, 0 57.48 M19.16 76.64 C5.1 77.78, -1.36 68.91, 0 57.48 M0 57.48 C1.89 46.14, -0.04 36.46, 0 19.16 M0 57.48 C-1.24 42.34, 0.36 27.94, 0 19.16 M0 19.16 C-0.18 7.76, 8.39 -1.51, 19.16 0 M0 19.16 C0.4 7.9, 6.21 -0.31, 19.16 0" stroke="#1e1e1e" stroke-width="2" fill="none"></path></g><g stroke-linecap="round" transform="translate(33.66809980384164 104.26087934244413) rotate(0 19.283203125 7.48828125)"><path d="M3.74 0 C12.44 -0.85, 21.33 -1.74, 34.82 0 C37.31 0, 36.5 -0.31, 38.57 3.74 C39.3 6.51, 39.55 9.75, 38.57 11.23 C40.96 13.58, 39 12.98, 34.82 14.98 C20.35 15.01, 12.69 14.08, 3.74 14.98 C1.96 13.37, 1.37 13.41, 0 11.23 C0.57 10.03, 0.46 7.47, 0 3.74 C-2.59 0.34, 1.29 2.3, 3.74 0" stroke="none" stroke-width="0" fill="#868e96"></path><path d="M3.74 0 C11.66 -0.03, 17.8 -0.5, 34.82 0 M3.74 0 C14.99 0.45, 25.88 -0.51, 34.82 0 M34.82 0 C37.97 0.79, 39.05 1.27, 38.57 3.74 M34.82 0 C38.03 0.63, 39.41 0.24, 38.57 3.74 M38.57 3.74 C38.9 6.42, 38.36 9.45, 38.57 11.23 M38.57 3.74 C38.74 6.23, 38.52 9.04, 38.57 11.23 M38.57 11.23 C37.76 14.29, 37.02 15.21, 34.82 14.98 M38.57 11.23 C38.15 14.2, 37.03 14.42, 34.82 14.98 M34.82 14.98 C28.08 14.02, 20.09 14.9, 3.74 14.98 M34.82 14.98 C26.09 15.11, 18.29 14.68, 3.74 14.98 M3.74 14.98 C0.39 14.08, -0.56 14.22, 0 11.23 M3.74 14.98 C0.57 14.31, -0.53 14.02, 0 11.23 M0 11.23 C-0.03 8.04, 0.33 5.73, 0 3.74 M0 11.23 C0.16 9.54, 0.02 7.62, 0 3.74 M0 3.74 C1 0.49, 1.42 0.66, 3.74 0 M0 3.74 C-0.09 1.09, 0.29 -0.54, 3.74 0" stroke="#1e1e1e" stroke-width="2" fill="none"></path></g><g stroke-linecap="round" transform="translate(33.85397219967513 12.113862296988259) rotate(0 19.283203125 7.48828125)"><path d="M3.74 0 C12.69 -1.91, 16.99 0.19, 34.82 0 C35.25 -1.56, 40.1 2.78, 38.57 3.74 C39.56 6.35, 39.53 7.65, 38.57 11.23 C40.25 11.74, 39.54 13.05, 34.82 14.98 C30 14.49, 22.26 13.43, 3.74 14.98 C2.62 14.66, -0.64 13.81, 0 11.23 C0.41 8.9, -1.03 5.5, 0 3.74 C0.04 3.55, 1.55 1.72, 3.74 0" stroke="none" stroke-width="0" fill="#868e96"></path><path d="M3.74 0 C10.27 -0.62, 17.39 0.73, 34.82 0 M3.74 0 C13.31 -0.64, 23.52 0.25, 34.82 0 M34.82 0 C37.8 0.02, 39.19 1.79, 38.57 3.74 M34.82 0 C38.16 -1.01, 39.63 1.51, 38.57 3.74 M38.57 3.74 C38.39 5.77, 38.76 8.28, 38.57 11.23 M38.57 3.74 C38.54 5.68, 38.45 7.41, 38.57 11.23 M38.57 11.23 C38.26 13.96, 36.95 15.39, 34.82 14.98 M38.57 11.23 C38.27 13.17, 36.47 15.69, 34.82 14.98 M34.82 14.98 C24.53 14.74, 15.27 14.64, 3.74 14.98 M34.82 14.98 C28.09 14.88, 20.53 14.61, 3.74 14.98 M3.74 14.98 C0.69 15.47, -0.59 13.14, 0 11.23 M3.74 14.98 C0.72 15.27, 1.01 14.87, 0 11.23 M0 11.23 C0.37 9.89, -0.19 7.59, 0 3.74 M0 11.23 C-0.04 9.04, 0.16 6.45, 0 3.74 M0 3.74 C0.17 1.91, 1.17 -0.14, 3.74 0 M0 3.74 C-0.96 0.71, 0.62 0.99, 3.74 0" stroke="#343a40" stroke-width="2" fill="none"></path></g><g stroke-linecap="round" transform="translate(39.196555311685415 13.626040698085376) rotate(269.315648468081 13.974609375 10.47265625)"><path d="M5.24 0 C9.66 0.25, 11.61 -1.64, 22.71 0 C28.33 2.11, 26.67 4.23, 27.95 5.24 C29.87 8.35, 29.35 10.24, 27.95 15.71 C31.02 16.53, 23.09 17.48, 22.71 20.95 C18.07 18.94, 13.36 20.5, 5.24 20.95 C0.85 21.06, 2.16 21.31, 0 15.71 C-1.97 10.99, -0.06 9.25, 0 5.24 C0.42 4.12, 4.77 2.81, 5.24 0" stroke="none" stroke-width="0" fill="#eaddd7"></path><path d="M5.24 0 C11.21 1.34, 15.36 0.47, 22.71 0 M5.24 0 C12.7 0.86, 19.45 0.19, 22.71 0 M22.71 0 C27.44 1.09, 29.41 -0.01, 27.95 5.24 M22.71 0 C28.33 0.51, 27.8 3.75, 27.95 5.24 M27.95 5.24 C28.34 8.04, 27.23 10.97, 27.95 15.71 M27.95 5.24 C27.49 8.2, 27.76 10.69, 27.95 15.71 M27.95 15.71 C27.22 20.02, 25.7 19.98, 22.71 20.95 M27.95 15.71 C26.25 20.64, 26.42 21.59, 22.71 20.95 M22.71 20.95 C18.62 20.61, 14.26 19.65, 5.24 20.95 M22.71 20.95 C15.82 20.1, 9.94 21.32, 5.24 20.95 M5.24 20.95 C0.57 19.78, -0.92 19.71, 0 15.71 M5.24 20.95 C3.76 23.23, -1.85 19.27, 0 15.71 M0 15.71 C-0.63 12.4, 0 11.74, 0 5.24 M0 15.71 C0.53 11.18, 0.1 7.79, 0 5.24 M0 5.24 C-0.16 1.47, 0.08 -0.94, 5.24 0 M0 5.24 C-1.25 3.73, -0.25 0.94, 5.24 0" stroke="#1e1e1e" stroke-width="2" fill="none"></path></g><g stroke-linecap="round" transform="translate(27.73856026785711 38.740472132401806) rotate(269.315648468081 25.4296875 23.859375)"><path d="M36.22 1.47 C41.05 3.52, 47.25 9.99, 49.46 14.59 C51.67 19.2, 51.05 24.21, 49.49 29.12 C47.93 34.03, 44.32 41.01, 40.1 44.08 C35.88 47.15, 29.47 47.93, 24.14 47.54 C18.81 47.15, 12.25 45.29, 8.12 41.72 C3.99 38.14, -0.18 31.37, -0.66 26.09 C-1.13 20.82, 2.04 14.43, 5.27 10.08 C8.5 5.73, 13.15 1.11, 18.73 -0.02 C24.31 -1.16, 34.79 2.39, 38.75 3.27 C42.72 4.15, 42.61 4.9, 42.53 5.25 M36.4 1.14 C41.26 3.11, 45.28 10.11, 47.68 14.87 C50.08 19.64, 51.95 24.93, 50.81 29.73 C49.67 34.52, 45.25 40.51, 40.85 43.65 C36.44 46.79, 29.76 49.1, 24.39 48.57 C19.03 48.04, 12.55 44.48, 8.66 40.48 C4.76 36.47, 1.49 29.83, 1.05 24.56 C0.61 19.29, 3.23 13.08, 6.02 8.87 C8.81 4.66, 12.69 0.23, 17.79 -0.69 C22.89 -1.6, 33.61 2.74, 36.62 3.38 C39.64 4.03, 36.24 2.86, 35.86 3.18" stroke="none" stroke-width="0" fill="#eaddd7"></path><path d="M27.02 0.78 C32.18 1.1, 40.49 4.06, 44.46 7.72 C48.42 11.38, 50.46 17.6, 50.81 22.74 C51.17 27.88, 49.93 34.36, 46.59 38.55 C43.26 42.75, 36.11 46.8, 30.78 47.92 C25.44 49.04, 19.19 47.77, 14.58 45.27 C9.96 42.78, 5.47 37.66, 3.1 32.93 C0.74 28.2, -1.02 21.63, 0.4 16.89 C1.81 12.16, 6.27 6.99, 11.58 4.49 C16.88 2, 28.04 2.18, 32.23 1.92 C36.42 1.66, 36.61 2.83, 36.73 2.93 M31.94 1.56 C37.02 2.43, 43.22 5.54, 46.16 9.83 C49.1 14.13, 50.1 22.07, 49.61 27.34 C49.11 32.61, 47.18 38.26, 43.2 41.48 C39.22 44.7, 31.18 46.45, 25.7 46.65 C20.22 46.85, 14.51 45.71, 10.31 42.67 C6.1 39.63, 1.94 33.19, 0.47 28.43 C-1 23.67, -1.05 18.61, 1.5 14.13 C4.04 9.64, 10.77 3.94, 15.72 1.52 C20.67 -0.9, 28.57 -0.51, 31.2 -0.41 C33.83 -0.3, 31.56 1.68, 31.51 2.14" stroke="#1e1e1e" stroke-width="2" fill="none"></path></g></svg>