<svg version="1.1" xmlns="http://www.w3.org/2000/svg" viewBox="0 0 105.26171875 129.25250880672854" width="105.26171875" height="129.25250880672854">
  <!-- svg-source:excalidraw -->
  
  <defs>
    <style class="style-fonts">
      @font-face {
        font-family: "Virgil";
        src: url("https://excalidraw.com/Virgil.woff2");
      }
      @font-face {
        font-family: "Cascadia";
        src: url("https://excalidraw.com/Cascadia.woff2");
      }
      @font-face {
        font-family: "Assistant";
        src: url("https://excalidraw.com/Assistant-Regular.woff2");
      }
    </style>
    
  </defs>
  <g stroke-linecap="round" transform="translate(10 24.85274621212193) rotate(0 42.630859375 38.322265625)"><path d="M19.16 0 C34.23 0.9, 55 1.27, 66.1 0 C81.25 3.02, 88.07 9.39, 85.26 19.16 C85.13 29.82, 84.1 32.49, 85.26 57.48 C85.96 70.07, 81.01 73.26, 66.1 76.64 C53.92 78.67, 34.81 79.3, 19.16 76.64 C9.71 74.27, -1.08 70.29, 0 57.48 C-1.41 43.67, 2.42 37.31, 0 19.16 C1.53 7.6, 3.5 0.36, 19.16 0" stroke="none" stroke-width="0" fill="#fd7e14"></path><path d="M19.16 0 C32.65 -0.34, 43.52 -1.31, 66.1 0 M19.16 0 C35.2 -0.81, 53.1 -0.44, 66.1 0 M66.1 0 C78.51 -1.54, 83.8 7.41, 85.26 19.16 M66.1 0 C79.78 -0.8, 83.28 4.33, 85.26 19.16 M85.26 19.16 C84.28 27.59, 85.96 39.6, 85.26 57.48 M85.26 19.16 C84.18 35.45, 85.76 49.27, 85.26 57.48 M85.26 57.48 C83.4 70.46, 80.21 78.54, 66.1 76.64 M85.26 57.48 C85.06 71.84, 81.17 74.91, 66.1 76.64 M66.1 76.64 C50.94 74.95, 35.38 75.52, 19.16 76.64 M66.1 76.64 C47.51 77.73, 29.05 76.84, 19.16 76.64 M19.16 76.64 C6.39 75.06, -1.2 71.44, 0 57.48 M19.16 76.64 C7.74 75.83, 1.59 70.44, 0 57.48 M0 57.48 C-0.36 43.64, -1.78 28.91, 0 19.16 M0 57.48 C0.48 49.53, 0.12 40.45, 0 19.16 M0 19.16 C-1.24 7.44, 6.14 -0.5, 19.16 0 M0 19.16 C0.07 7.77, 7.74 2.02, 19.16 0" stroke="#1e1e1e" stroke-width="2" fill="none"></path></g><g stroke-linecap="round" transform="translate(33.86899266098408 102.14701704545587) rotate(0 19.283203125 7.48828125)"><path d="M3.74 0 C12.27 0.3, 17.91 2.18, 34.82 0 C39.35 2.17, 36.21 1.39, 38.57 3.74 C38.24 5.47, 38.75 8.62, 38.57 11.23 C40.11 11.28, 37.76 14.22, 34.82 14.98 C22.35 16.66, 14.5 13.42, 3.74 14.98 C0.47 15, -0.56 11.91, 0 11.23 C0.57 8.68, 0.47 5.81, 0 3.74 C-2.09 1.51, -0.79 1.05, 3.74 0" stroke="none" stroke-width="0" fill="#868e96"></path><path d="M3.74 0 C11.45 -0.7, 20.75 0.14, 34.82 0 M3.74 0 C13.9 -0.05, 24.05 -0.28, 34.82 0 M34.82 0 C36.59 0.51, 38.96 0.9, 38.57 3.74 M34.82 0 C36.33 -1.03, 37.92 1.82, 38.57 3.74 M38.57 3.74 C38.64 5.88, 38.92 7.05, 38.57 11.23 M38.57 3.74 C38.69 5.92, 38.36 8.3, 38.57 11.23 M38.57 11.23 C39.23 14.68, 37.23 15.66, 34.82 14.98 M38.57 11.23 C39.72 12.86, 37.52 15.73, 34.82 14.98 M34.82 14.98 C25.27 14.3, 17.53 13.98, 3.74 14.98 M34.82 14.98 C23.82 15.11, 13.63 14.72, 3.74 14.98 M3.74 14.98 C0.65 15.57, 0.59 13.37, 0 11.23 M3.74 14.98 C2.04 15.07, 1.09 14.47, 0 11.23 M0 11.23 C-0.28 8.62, -0.28 5.04, 0 3.74 M0 11.23 C-0.05 9.76, -0.12 8.28, 0 3.74 M0 3.74 C-0.12 1, 1.28 0.6, 3.74 0 M0 3.74 C0.68 2.26, 1.8 0.43, 3.74 0" stroke="#1e1e1e" stroke-width="2" fill="none"></path></g><g stroke-linecap="round" transform="translate(34.05486505681802 10) rotate(0 19.283203125 7.48828125)"><path d="M3.74 0 C14.83 2.14, 24.52 2.12, 34.82 0 C34.96 0.14, 39.33 1.13, 38.57 3.74 C38.72 6.49, 39.11 8.42, 38.57 11.23 C39.01 12.97, 39.03 16.93, 34.82 14.98 C26.63 13.5, 12.86 15.24, 3.74 14.98 C0.69 13.16, 2.18 12.36, 0 11.23 C0.36 9.97, -0.83 8.15, 0 3.74 C-2.04 2.29, -0.47 1.8, 3.74 0" stroke="none" stroke-width="0" fill="#868e96"></path><path d="M3.74 0 C12.9 0.21, 21.09 -0.85, 34.82 0 M3.74 0 C10.88 -0.34, 17.83 0.3, 34.82 0 M34.82 0 C37.71 -0.35, 37.7 0.35, 38.57 3.74 M34.82 0 C36.67 0.57, 37.89 0.58, 38.57 3.74 M38.57 3.74 C38.95 5.35, 38.59 7.26, 38.57 11.23 M38.57 3.74 C38.42 6.74, 38.72 9.88, 38.57 11.23 M38.57 11.23 C38.48 14.42, 38.32 14.22, 34.82 14.98 M38.57 11.23 C38.76 14.49, 37.23 14.82, 34.82 14.98 M34.82 14.98 C28.94 14.02, 21.75 14.43, 3.74 14.98 M34.82 14.98 C22.73 14.58, 10.33 15.27, 3.74 14.98 M3.74 14.98 C1.84 14.62, 0.69 13.81, 0 11.23 M3.74 14.98 C2.34 15.72, 1.06 13.66, 0 11.23 M0 11.23 C-0.25 8.18, -0.33 5.83, 0 3.74 M0 11.23 C-0.11 8.56, -0.01 5.65, 0 3.74 M0 3.74 C0.03 1.85, 1.84 0.88, 3.74 0 M0 3.74 C0.55 1.67, 0.1 -0.4, 3.74 0" stroke="#343a40" stroke-width="2" fill="none"></path></g><g stroke-linecap="round" transform="translate(39.65972495454207 94.68115560864317) rotate(90.684351531919 13.974609375 10.47265625)"><path d="M5.24 0 C13.14 2.36, 13.28 -0.1, 22.71 0 C27.25 -0.17, 30.58 0.54, 27.95 5.24 C29.1 5.81, 28.31 9.39, 27.95 15.71 C30.31 21.9, 27.67 19.41, 22.71 20.95 C15.51 20.77, 9.51 18.54, 5.24 20.95 C4.76 19.06, -3.15 21.13, 0 15.71 C-1.59 12.42, -1.56 9.5, 0 5.24 C-2.38 4.24, -1.48 -0.37, 5.24 0" stroke="none" stroke-width="0" fill="#eaddd7"></path><path d="M5.24 0 C9.68 -1.71, 11.96 -0.17, 22.71 0 M5.24 0 C9.3 0.58, 14.99 -0.17, 22.71 0 M22.71 0 C24.48 -1.79, 26.83 2.73, 27.95 5.24 M22.71 0 C24.85 -1.34, 26.89 2.33, 27.95 5.24 M27.95 5.24 C28.08 8.48, 29.08 14.19, 27.95 15.71 M27.95 5.24 C28.2 8.35, 27.81 10.83, 27.95 15.71 M27.95 15.71 C29.95 17.69, 26.55 22.26, 22.71 20.95 M27.95 15.71 C27.77 18.89, 24.29 19.87, 22.71 20.95 M22.71 20.95 C19.14 19.98, 15.68 19.39, 5.24 20.95 M22.71 20.95 C16.95 21.32, 12.75 20.5, 5.24 20.95 M5.24 20.95 C3.13 21.1, 1.9 20.49, 0 15.71 M5.24 20.95 C3.86 20.81, 1.49 17.44, 0 15.71 M0 15.71 C-0.93 11.83, 0.81 7.42, 0 5.24 M0 15.71 C0 12.15, 0.08 9.17, 0 5.24 M0 5.24 C1.17 3.5, 2.7 0.74, 5.24 0 M0 5.24 C-2.29 0.94, 1.78 2.04, 5.24 0" stroke="#1e1e1e" stroke-width="2" fill="none"></path></g><g stroke-linecap="round" transform="translate(28.010323660713766 42.94563042432492) rotate(90.684351531919 25.4296875 23.859375)"><path d="M35.97 3.34 C40.64 4.97, 45.84 8.87, 47.99 13.44 C50.14 18.01, 50.16 25.73, 48.86 30.74 C47.56 35.76, 44.53 40.82, 40.2 43.52 C35.87 46.22, 28.31 47.51, 22.87 46.95 C17.43 46.4, 11.39 43.79, 7.54 40.19 C3.7 36.6, 0.13 30.37, -0.2 25.39 C-0.53 20.41, 2.14 14.33, 5.56 10.29 C8.98 6.25, 14.07 1.96, 20.33 1.15 C26.59 0.33, 38.76 3.59, 43.13 5.4 C47.5 7.21, 46.75 11.53, 46.55 12.01 M34.92 -0.07 C39.72 1.09, 44.69 7.19, 47.28 11.97 C49.88 16.76, 51.42 23.86, 50.48 28.65 C49.54 33.44, 45.69 37.54, 41.65 40.71 C37.6 43.87, 31.42 47.58, 26.21 47.64 C20.99 47.69, 14.6 44.29, 10.35 41.02 C6.11 37.75, 1.76 32.61, 0.73 28.02 C-0.3 23.42, 1.46 17.96, 4.15 13.45 C6.84 8.94, 11.82 2.76, 16.89 0.96 C21.95 -0.84, 31.94 2.62, 34.54 2.67 C37.15 2.73, 32.79 1.2, 32.51 1.29" stroke="none" stroke-width="0" fill="#eaddd7"></path><path d="M23.54 -0.71 C28.83 -1.13, 37.02 2.23, 41.42 5.32 C45.81 8.41, 48.96 12.99, 49.91 17.82 C50.85 22.66, 49.47 29.73, 47.09 34.31 C44.72 38.89, 40.64 43.33, 35.66 45.31 C30.68 47.28, 22.44 47.45, 17.21 46.16 C11.97 44.87, 6.91 41.93, 4.24 37.56 C1.58 33.19, 0.54 25.29, 1.21 19.95 C1.88 14.61, 4.04 8.69, 8.27 5.5 C12.51 2.31, 23.59 1.79, 26.62 0.8 C29.65 -0.18, 26.6 -0.79, 26.45 -0.41 M38.53 1.5 C43.35 3.44, 47.27 10.72, 49.12 15.58 C50.97 20.45, 51.47 26.09, 49.61 30.69 C47.75 35.29, 42.67 40.18, 37.98 43.2 C33.29 46.22, 26.87 49.24, 21.45 48.83 C16.04 48.41, 9.17 44.44, 5.49 40.7 C1.8 36.96, -0.41 31.59, -0.66 26.39 C-0.92 21.18, 0.55 13.95, 3.95 9.45 C7.36 4.95, 14.41 0.4, 19.77 -0.59 C25.13 -1.58, 33.15 3, 36.13 3.52 C39.12 4.03, 37.55 2.29, 37.68 2.52" stroke="#1e1e1e" stroke-width="2" fill="none"></path></g></svg>