<svg version="1.1" xmlns="http://www.w3.org/2000/svg" viewBox="0 0 117.68791852678555 127.12357954545405" width="117.68791852678555" height="127.12357954545405">
  <!-- svg-source:excalidraw -->
  
  <defs>
    <style class="style-fonts">
      @font-face {
        font-family: "Virgil";
        src: url("https://excalidraw.com/Virgil.woff2");
      }
      @font-face {
        font-family: "Cascadia";
        src: url("https://excalidraw.com/Cascadia.woff2");
      }
      @font-face {
        font-family: "Assistant";
        src: url("https://excalidraw.com/Assistant-Regular.woff2");
      }
    </style>
    
  </defs>
  <g stroke-linecap="round" transform="translate(10 24.562567640691668) rotate(0 42.630859375 38.322265625)"><path d="M19.16 0 C37.45 -2.11, 59.05 3.57, 66.1 0 C77.07 -3.35, 85.62 8.78, 85.26 19.16 C88.8 31.58, 85.82 51.79, 85.26 57.48 C84.98 69.77, 75.88 74.95, 66.1 76.64 C56.04 74.24, 46.25 73.01, 19.16 76.64 C6.38 76.64, -2.86 68.09, 0 57.48 C2.08 44, 3.02 32.27, 0 19.16 C3.32 6.18, 8.71 -2.76, 19.16 0" stroke="none" stroke-width="0" fill="#fd7e14"></path><path d="M19.16 0 C33.52 2.05, 46.35 1.61, 66.1 0 M19.16 0 C33.55 0.3, 47.53 -0.57, 66.1 0 M66.1 0 C77.55 -1.45, 86.99 6.68, 85.26 19.16 M66.1 0 C76.79 -1.24, 83.74 7.82, 85.26 19.16 M85.26 19.16 C86.98 27.49, 85.19 35.21, 85.26 57.48 M85.26 19.16 C85.73 33.85, 85.21 45.66, 85.26 57.48 M85.26 57.48 C86.57 71.84, 79.85 76.69, 66.1 76.64 M85.26 57.48 C86.69 71.51, 80.55 74.62, 66.1 76.64 M66.1 76.64 C49.42 75.21, 28.11 75.7, 19.16 76.64 M66.1 76.64 C50.87 75.9, 33.57 77.19, 19.16 76.64 M19.16 76.64 C4.77 77.77, -0.6 70.72, 0 57.48 M19.16 76.64 C5.55 77.59, -0.58 69.15, 0 57.48 M0 57.48 C0.32 46.88, -1.59 39.98, 0 19.16 M0 57.48 C-0.66 47.68, 0.46 36.51, 0 19.16 M0 19.16 C-1.72 4.6, 5.26 0.99, 19.16 0 M0 19.16 C-1.36 5.04, 5.33 0.59, 19.16 0" stroke="#1e1e1e" stroke-width="2" fill="none"></path></g><g stroke-linecap="round" transform="translate(33.66809980384164 102.14701704545405) rotate(0 19.283203125 7.48828125)"><path d="M3.74 0 C13.11 2.4, 16.09 -2.11, 34.82 0 C37.58 1.73, 41.03 1.02, 38.57 3.74 C38.83 7.15, 38.59 9.13, 38.57 11.23 C36.41 12.51, 35.91 17.22, 34.82 14.98 C30.52 12.7, 21.57 14.79, 3.74 14.98 C-0.82 13.41, 1.54 15.26, 0 11.23 C0.86 9.88, 0.83 7.22, 0 3.74 C1.68 -0.74, 3.46 -1.93, 3.74 0" stroke="none" stroke-width="0" fill="#868e96"></path><path d="M3.74 0 C11.49 0.48, 17.4 -0.59, 34.82 0 M3.74 0 C12.68 -0.34, 21.89 -0.41, 34.82 0 M34.82 0 C38.18 0.15, 37.66 0.71, 38.57 3.74 M34.82 0 C36.56 0.72, 37.72 1.06, 38.57 3.74 M38.57 3.74 C38.6 5.08, 38.82 7.15, 38.57 11.23 M38.57 3.74 C38.51 5.9, 38.7 8.58, 38.57 11.23 M38.57 11.23 C39.05 13.75, 37.94 15.52, 34.82 14.98 M38.57 11.23 C39.41 12.72, 38.38 15.23, 34.82 14.98 M34.82 14.98 C25.13 14.41, 17 15.24, 3.74 14.98 M34.82 14.98 C27.29 15.33, 19.66 15.19, 3.74 14.98 M3.74 14.98 C0.95 15.21, -0.36 14.14, 0 11.23 M3.74 14.98 C0.96 14.42, -0.85 14.45, 0 11.23 M0 11.23 C-0.26 8.88, -0.13 6.53, 0 3.74 M0 11.23 C0.1 9.5, -0.13 7.73, 0 3.74 M0 3.74 C-0.56 1.74, 0.66 -0.58, 3.74 0 M0 3.74 C-0.53 1.54, 2.25 1.14, 3.74 0" stroke="#1e1e1e" stroke-width="2" fill="none"></path></g><g stroke-linecap="round" transform="translate(33.85397219967513 10) rotate(0 19.283203125 7.48828125)"><path d="M3.74 0 C9.36 -2.74, 17.84 1.41, 34.82 0 C39.78 -0.23, 40.35 3.85, 38.57 3.74 C38.51 5.29, 37.77 6.65, 38.57 11.23 C37.15 15.97, 35.06 16.04, 34.82 14.98 C26.93 14.65, 16.99 13.09, 3.74 14.98 C2.79 16.5, -0.93 15.52, 0 11.23 C0.8 8.87, 0.54 5.88, 0 3.74 C2.22 -0.68, -1 -2.5, 3.74 0" stroke="none" stroke-width="0" fill="#868e96"></path><path d="M3.74 0 C15.74 -0.55, 27.54 -0.19, 34.82 0 M3.74 0 C13.63 -0.27, 24.6 0.16, 34.82 0 M34.82 0 C36.41 -0.54, 37.9 1.87, 38.57 3.74 M34.82 0 C36.47 -0.19, 37.53 2.27, 38.57 3.74 M38.57 3.74 C38.79 6.13, 38.61 8.06, 38.57 11.23 M38.57 3.74 C38.68 6.85, 38.65 9.66, 38.57 11.23 M38.57 11.23 C39.19 14.27, 38.05 14.1, 34.82 14.98 M38.57 11.23 C39.63 13.99, 37.25 15.98, 34.82 14.98 M34.82 14.98 C28.11 15.28, 19.91 15.78, 3.74 14.98 M34.82 14.98 C26.5 15.39, 18.83 15.22, 3.74 14.98 M3.74 14.98 C0.88 15.39, -0.25 13.25, 0 11.23 M3.74 14.98 C0.4 15.69, 0.11 14.05, 0 11.23 M0 11.23 C-0.09 9.64, -0.26 7.91, 0 3.74 M0 11.23 C-0.18 8.43, -0.12 6.06, 0 3.74 M0 3.74 C-0.59 0.66, 0.79 0.26, 3.74 0 M0 3.74 C1.01 2.39, 0.32 0.03, 3.74 0" stroke="#343a40" stroke-width="2" fill="none"></path></g><g stroke-linecap="round" transform="translate(79.73869977678555 52.35810673701235) rotate(0 13.974609375 10.47265625)"><path d="M5.24 0 C12.19 2.39, 21.51 0.02, 22.71 0 C28.68 3.6, 25.24 2.36, 27.95 5.24 C26.37 8.18, 26.91 14.52, 27.95 15.71 C24.82 20.68, 24.54 24.16, 22.71 20.95 C16.38 19.05, 16.9 22.79, 5.24 20.95 C0.46 23.43, 0.28 22.62, 0 15.71 C1.04 10.45, 1.43 6.68, 0 5.24 C-3.11 -1.72, 2.28 2.51, 5.24 0" stroke="none" stroke-width="0" fill="#eaddd7"></path><path d="M5.24 0 C11.5 -0.09, 18.36 -0.98, 22.71 0 M5.24 0 C10.21 0.25, 12.88 -0.35, 22.71 0 M22.71 0 C24.88 1.25, 26.47 1.42, 27.95 5.24 M22.71 0 C24.14 2.05, 27.56 1.74, 27.95 5.24 M27.95 5.24 C28.15 7.92, 29 9.84, 27.95 15.71 M27.95 5.24 C28.27 7.36, 28.34 9.74, 27.95 15.71 M27.95 15.71 C29.41 17.44, 28.06 21.39, 22.71 20.95 M27.95 15.71 C27.8 21.21, 24.59 19.64, 22.71 20.95 M22.71 20.95 C17.18 22.55, 13.04 20.47, 5.24 20.95 M22.71 20.95 C15.73 21.25, 8.96 21.4, 5.24 20.95 M5.24 20.95 C1.24 19.98, -1.48 20.45, 0 15.71 M5.24 20.95 C1.97 21.59, -2.23 17.65, 0 15.71 M0 15.71 C-0.77 11.89, 0.57 10.02, 0 5.24 M0 15.71 C-0.2 13.19, -0.22 9.85, 0 5.24 M0 5.24 C-0.92 2.26, 3.49 1.99, 5.24 0 M0 5.24 C-1.85 1.81, -0.03 2.25, 5.24 0" stroke="#1e1e1e" stroke-width="2" fill="none"></path></g><g stroke-linecap="round" transform="translate(29.939871651785552 38.31904423701235) rotate(0 25.4296875 23.859375)"><path d="M25.97 -0.06 C31.06 0, 38.39 2.79, 42.38 6.15 C46.37 9.52, 49.06 14.94, 49.89 20.11 C50.71 25.28, 50.21 32.88, 47.33 37.16 C44.46 41.44, 38.06 44.43, 32.63 45.78 C27.19 47.14, 19.59 47.23, 14.7 45.3 C9.82 43.37, 5.76 38.72, 3.32 34.2 C0.87 29.67, -1.12 22.88, 0.04 18.14 C1.2 13.4, 5.09 8.83, 10.29 5.74 C15.49 2.66, 27.34 0.42, 31.23 -0.37 C35.11 -1.17, 33.67 0.32, 33.59 0.98 M20.13 2.17 C25.27 0.81, 31.31 1.59, 36.31 3.38 C41.3 5.17, 47.79 8.24, 50.1 12.89 C52.41 17.55, 51.91 26.21, 50.17 31.29 C48.43 36.36, 44.41 40.75, 39.66 43.36 C34.91 45.96, 27.22 47.15, 21.68 46.9 C16.14 46.64, 10.25 45.26, 6.43 41.83 C2.61 38.39, -0.84 31.37, -1.23 26.28 C-1.62 21.19, 0.88 15.55, 4.07 11.29 C7.26 7.03, 15.39 2.62, 17.92 0.74 C20.45 -1.14, 19.1 -0.52, 19.25 0.01" stroke="none" stroke-width="0" fill="#eaddd7"></path><path d="M17.13 1.95 C22.1 0.17, 30.32 -0.78, 35.38 0.94 C40.44 2.66, 44.9 7.68, 47.48 12.25 C50.06 16.82, 52 23.41, 50.86 28.36 C49.73 33.31, 44.97 38.74, 40.68 41.94 C36.39 45.13, 30.55 47.72, 25.13 47.52 C19.72 47.33, 12.24 44.08, 8.19 40.76 C4.13 37.44, 1.47 32.53, 0.79 27.6 C0.12 22.67, 0.48 15.79, 4.16 11.18 C7.83 6.57, 19.37 1.59, 22.85 -0.09 C26.33 -1.76, 25.01 0.61, 25.04 1.14 M26.79 -1.32 C32.04 -1.65, 39.43 2.31, 43.37 6.08 C47.3 9.84, 49.94 16.42, 50.42 21.27 C50.91 26.12, 49.14 30.86, 46.27 35.15 C43.4 39.44, 38.06 45.33, 33.19 47.01 C28.32 48.7, 21.81 47.27, 17.05 45.26 C12.28 43.24, 7.44 38.98, 4.59 34.9 C1.75 30.81, -0.61 25.51, -0.03 20.74 C0.55 15.97, 3.87 9.67, 8.08 6.27 C12.29 2.87, 22.4 1.21, 25.24 0.35 C28.09 -0.51, 25.14 0.88, 25.14 1.1" stroke="#1e1e1e" stroke-width="2" fill="none"></path></g></svg>