<svg version="1.1" xmlns="http://www.w3.org/2000/svg" viewBox="0 0 106.68100249304894 127.12357954545405" width="106.68100249304894" height="127.12357954545405">
  <!-- svg-source:excalidraw -->
  
  <defs>
    <style class="style-fonts">
      @font-face {
        font-family: "Virgil";
        src: url("https://excalidraw.com/Virgil.woff2");
      }
      @font-face {
        font-family: "Cascadia";
        src: url("https://excalidraw.com/Cascadia.woff2");
      }
      @font-face {
        font-family: "Assistant";
        src: url("https://excalidraw.com/Assistant-Regular.woff2");
      }
    </style>
    
  </defs>
  <g stroke-linecap="round" transform="translate(10 24.562567640693487) rotate(0 42.630859375 38.322265625)"><path d="M19.16 0 C38.84 3.67, 50.86 0.69, 66.1 0 C81.25 -0.28, 84.77 3.4, 85.26 19.16 C81.76 30.33, 83.22 41.77, 85.26 57.48 C82.36 70.25, 78.87 73.78, 66.1 76.64 C53.56 79.62, 43.86 80.56, 19.16 76.64 C8.7 79.96, -0.21 72.58, 0 57.48 C-3.7 45.46, -0.05 42.88, 0 19.16 C-0.76 7.37, 4.16 1.89, 19.16 0" stroke="none" stroke-width="0" fill="#fd7e14"></path><path d="M19.16 0 C31.62 -1.04, 44.98 2.01, 66.1 0 M19.16 0 C33.26 0.88, 47.96 0.09, 66.1 0 M66.1 0 C77.08 1.78, 84.92 6.38, 85.26 19.16 M66.1 0 C77.39 1.35, 86.88 6.68, 85.26 19.16 M85.26 19.16 C83.65 32.74, 87.21 44.69, 85.26 57.48 M85.26 19.16 C86.23 29.86, 86.42 42.54, 85.26 57.48 M85.26 57.48 C85.14 72, 77.47 75.51, 66.1 76.64 M85.26 57.48 C84.21 71.25, 79.74 75.21, 66.1 76.64 M66.1 76.64 C49.58 74.89, 30.81 75.9, 19.16 76.64 M66.1 76.64 C50.68 76.36, 35.03 77.46, 19.16 76.64 M19.16 76.64 C6.58 77.21, -1.93 68.91, 0 57.48 M19.16 76.64 C6.18 75.93, -0.42 68.49, 0 57.48 M0 57.48 C-0.89 47.07, -1.99 38.99, 0 19.16 M0 57.48 C-0.23 44.35, 1.1 31.7, 0 19.16 M0 19.16 C-1.61 6.44, 4.84 1.96, 19.16 0 M0 19.16 C1.84 5.24, 4.25 0.23, 19.16 0" stroke="#1e1e1e" stroke-width="2" fill="none"></path></g><g stroke-linecap="round" transform="translate(33.66809980384164 102.14701704545405) rotate(0 19.283203125 7.48828125)"><path d="M3.74 0 C10.84 0.04, 23.56 -0.61, 34.82 0 C36.97 -2.16, 37.35 -0.16, 38.57 3.74 C38.03 7.5, 37.7 9.53, 38.57 11.23 C38.56 11.66, 35.76 16.51, 34.82 14.98 C23.88 17.73, 14.2 17.65, 3.74 14.98 C1.1 16.66, -1.99 15.95, 0 11.23 C0.23 10.22, -0.12 8.12, 0 3.74 C-1.61 2.62, 0.93 -0.64, 3.74 0" stroke="none" stroke-width="0" fill="#868e96"></path><path d="M3.74 0 C10.46 0.97, 18.78 -0.8, 34.82 0 M3.74 0 C11.02 -0.18, 18.58 0.35, 34.82 0 M34.82 0 C37.15 0, 37.92 1.83, 38.57 3.74 M34.82 0 C38.13 0.15, 38.8 2.33, 38.57 3.74 M38.57 3.74 C38.83 5.94, 38.54 8, 38.57 11.23 M38.57 3.74 C38.77 6.44, 38.58 9.22, 38.57 11.23 M38.57 11.23 C37.87 13.16, 36.86 15.41, 34.82 14.98 M38.57 11.23 C39 13.01, 38.33 14.46, 34.82 14.98 M34.82 14.98 C27.02 14.55, 18.32 14.49, 3.74 14.98 M34.82 14.98 C23.85 15.21, 13.67 15.04, 3.74 14.98 M3.74 14.98 C0.28 14.3, -0.09 13.42, 0 11.23 M3.74 14.98 C1.04 14.09, -0.84 14.32, 0 11.23 M0 11.23 C-0.32 8.48, 0.2 5.93, 0 3.74 M0 11.23 C0.18 9.61, -0.13 7.62, 0 3.74 M0 3.74 C-0.77 2.23, 2.05 -0.5, 3.74 0 M0 3.74 C-1.07 1.36, 2.01 1.09, 3.74 0" stroke="#1e1e1e" stroke-width="2" fill="none"></path></g><g stroke-linecap="round" transform="translate(33.85397219967513 10) rotate(0 19.283203125 7.48828125)"><path d="M3.74 0 C17.89 -0.27, 28.25 -2.23, 34.82 0 C36.1 -1.41, 40.81 -1.01, 38.57 3.74 C37.74 6.3, 38.52 8.08, 38.57 11.23 C37 15.27, 38.85 14.05, 34.82 14.98 C25.03 17.76, 11.73 17.04, 3.74 14.98 C-0.74 17.19, -1.93 11.48, 0 11.23 C-0.22 9.97, -0.62 8.69, 0 3.74 C-0.32 0.6, 1.33 1.56, 3.74 0" stroke="none" stroke-width="0" fill="#868e96"></path><path d="M3.74 0 C11.16 -1.04, 17.74 -0.8, 34.82 0 M3.74 0 C14.56 0.47, 26.18 0.02, 34.82 0 M34.82 0 C36.67 0.59, 39.27 1.38, 38.57 3.74 M34.82 0 C37.55 1.09, 38.2 0.11, 38.57 3.74 M38.57 3.74 C38.6 6.71, 38.8 9.49, 38.57 11.23 M38.57 3.74 C38.59 5.5, 38.47 6.81, 38.57 11.23 M38.57 11.23 C38.11 14.16, 37.69 14.35, 34.82 14.98 M38.57 11.23 C39.58 13.21, 36.96 15.95, 34.82 14.98 M34.82 14.98 C28.23 14.57, 21.6 14.68, 3.74 14.98 M34.82 14.98 C27.05 15.21, 18.69 14.74, 3.74 14.98 M3.74 14.98 C1.16 14.67, -0.18 12.96, 0 11.23 M3.74 14.98 C0.4 15.57, 0.45 13.33, 0 11.23 M0 11.23 C0.22 9.41, -0.19 7.86, 0 3.74 M0 11.23 C-0.18 8.8, -0.18 6.54, 0 3.74 M0 3.74 C0.8 0.75, 0.32 0.1, 3.74 0 M0 3.74 C0.77 2.34, 1.15 0.79, 3.74 0" stroke="#343a40" stroke-width="2" fill="none"></path></g><g stroke-linecap="round" transform="translate(65.54540998228754 23.860949680865815) rotate(312.47556431009303 13.974609375 10.47265625)"><path d="M5.24 0 C10.35 -2.59, 14.85 -1.68, 22.71 0 C29.3 -3.12, 29.42 0.08, 27.95 5.24 C27.8 7.82, 26.66 14.5, 27.95 15.71 C30.06 17.92, 28.69 21.23, 22.71 20.95 C15.62 23.27, 6.49 23.92, 5.24 20.95 C-0.93 17.83, -3.46 19.74, 0 15.71 C-1.12 12.83, -0.19 7.5, 0 5.24 C0.11 3.9, 3.86 3.16, 5.24 0" stroke="none" stroke-width="0" fill="#eaddd7"></path><path d="M5.24 0 C11.05 -1, 19.83 -1.13, 22.71 0 M5.24 0 C10.04 -0.16, 14.58 0.36, 22.71 0 M22.71 0 C27.61 0.26, 28.36 3.63, 27.95 5.24 M22.71 0 C25.48 -2.27, 29.45 3.56, 27.95 5.24 M27.95 5.24 C28.52 9.65, 27.03 13.51, 27.95 15.71 M27.95 5.24 C27.58 8.32, 27.7 12.22, 27.95 15.71 M27.95 15.71 C28.7 17.95, 27.96 20.04, 22.71 20.95 M27.95 15.71 C27.24 21.14, 24.35 22.24, 22.71 20.95 M22.71 20.95 C18.72 20.44, 12.44 19.59, 5.24 20.95 M22.71 20.95 C15.53 20.4, 9.97 20.72, 5.24 20.95 M5.24 20.95 C1.38 19.41, -1.47 20.23, 0 15.71 M5.24 20.95 C2.65 20.14, -1.98 17.14, 0 15.71 M0 15.71 C-0.66 12.68, 0.22 11.52, 0 5.24 M0 15.71 C-0.32 12.04, 0.5 7.08, 0 5.24 M0 5.24 C-1.86 1.94, 3.08 1.9, 5.24 0 M0 5.24 C-0.2 3.32, 4.04 -1.73, 5.24 0" stroke="#1e1e1e" stroke-width="2" fill="none"></path></g><g stroke-linecap="round" transform="translate(27.716582684028936 38.54130475837155) rotate(312.47556431009303 25.4296875 23.859375)"><path d="M29.5 -0.1 C34.78 0.59, 42.3 4.33, 45.76 8.34 C49.22 12.34, 50.43 18.57, 50.27 23.92 C50.11 29.28, 48.13 36.68, 44.8 40.47 C41.47 44.25, 35.71 46.14, 30.29 46.64 C24.87 47.14, 16.92 45.87, 12.26 43.48 C7.6 41.1, 4.17 37.19, 2.33 32.33 C0.49 27.46, -0.6 19.06, 1.23 14.28 C3.06 9.49, 7.73 5.78, 13.3 3.61 C18.87 1.43, 30.65 1.15, 34.66 1.21 C38.67 1.28, 37.76 3.56, 37.34 3.98 M32.41 0.58 C37.3 2.11, 43.58 8.22, 46.38 12.82 C49.19 17.41, 50.07 23.1, 49.25 28.15 C48.43 33.21, 45.55 39.91, 41.46 43.17 C37.37 46.43, 30.05 48.03, 24.72 47.71 C19.39 47.39, 13.66 44.3, 9.47 41.24 C5.28 38.18, 0.48 34.26, -0.42 29.35 C-1.33 24.44, 1.09 16.41, 4.04 11.8 C7 7.2, 12.13 3.31, 17.3 1.72 C22.47 0.13, 32.15 2.26, 35.08 2.25 C38.01 2.24, 35.09 1.62, 34.87 1.65" stroke="none" stroke-width="0" fill="#eaddd7"></path><path d="M17.15 1.44 C21.88 -0.56, 28.54 -1.16, 33.64 0.64 C38.75 2.43, 44.94 7.7, 47.78 12.22 C50.62 16.74, 51.46 22.85, 50.69 27.73 C49.91 32.62, 47.4 38.07, 43.11 41.51 C38.82 44.95, 30.43 48.13, 24.95 48.37 C19.48 48.6, 14.34 46.14, 10.27 42.93 C6.19 39.71, 1.6 34.07, 0.5 29.09 C-0.59 24.12, 0.62 17.67, 3.7 13.08 C6.78 8.48, 15.63 3.6, 18.99 1.5 C22.35 -0.6, 23.47 0.36, 23.86 0.48 M18.88 0.01 C24.09 -1.86, 32.17 -1.08, 36.99 1.34 C41.81 3.77, 45.79 9.74, 47.78 14.57 C49.76 19.41, 50.21 25.56, 48.92 30.38 C47.63 35.19, 44.3 40.46, 40.01 43.45 C35.73 46.43, 28.64 48.8, 23.22 48.28 C17.79 47.77, 11.49 43.85, 7.46 40.37 C3.43 36.89, -0.45 32.28, -0.96 27.39 C-1.46 22.5, 1.46 15.6, 4.43 11.02 C7.4 6.45, 14.55 1.62, 16.86 -0.06 C19.18 -1.74, 18.01 0.59, 18.33 0.95" stroke="#1e1e1e" stroke-width="2" fill="none"></path></g></svg>