<svg version="1.1" xmlns="http://www.w3.org/2000/svg" viewBox="0 0 106.68100249304963 127.12357954545405" width="106.68100249304963" height="127.12357954545405">
  <!-- svg-source:excalidraw -->
  
  <defs>
    <style class="style-fonts">
      @font-face {
        font-family: "Virgil";
        src: url("https://excalidraw.com/Virgil.woff2");
      }
      @font-face {
        font-family: "Cascadia";
        src: url("https://excalidraw.com/Cascadia.woff2");
      }
      @font-face {
        font-family: "Assistant";
        src: url("https://excalidraw.com/Assistant-Regular.woff2");
      }
    </style>
    
  </defs>
  <g stroke-linecap="round" transform="translate(11.419283743049636 24.85274621212011) rotate(0 42.630859375 38.322265625)"><path d="M19.16 0 C34.14 0.08, 44.45 0.63, 66.1 0 C81.03 2.11, 88.42 8.11, 85.26 19.16 C84.63 35.27, 85 47.37, 85.26 57.48 C88.29 73.07, 81.87 73.38, 66.1 76.64 C54.4 75.4, 34.71 77.3, 19.16 76.64 C6.2 78.78, -3.39 70.87, 0 57.48 C1.02 45.57, 1.65 40.05, 0 19.16 C-2.38 5.31, 6.42 -0.78, 19.16 0" stroke="none" stroke-width="0" fill="#fd7e14"></path><path d="M19.16 0 C29.84 1.58, 42.11 -0.79, 66.1 0 M19.16 0 C36.9 -0.03, 54.88 0.15, 66.1 0 M66.1 0 C78.37 -0.97, 83.78 7.64, 85.26 19.16 M66.1 0 C79.09 0.65, 83.04 4.83, 85.26 19.16 M85.26 19.16 C83.6 28.85, 86.17 42.27, 85.26 57.48 M85.26 19.16 C84.37 29.82, 84.34 38.9, 85.26 57.48 M85.26 57.48 C84.34 70.77, 80.62 78.63, 66.1 76.64 M85.26 57.48 C83.41 70.32, 77.09 78.89, 66.1 76.64 M66.1 76.64 C48.45 77.54, 32.3 76.03, 19.16 76.64 M66.1 76.64 C48.97 76.95, 31.41 76.16, 19.16 76.64 M19.16 76.64 C4.73 75.71, -1.09 71.98, 0 57.48 M19.16 76.64 C4.39 77.59, -1.06 72.31, 0 57.48 M0 57.48 C-1.59 47.87, 1.18 41.83, 0 19.16 M0 57.48 C0.69 47.99, 0.66 37.16, 0 19.16 M0 19.16 C1.29 4.85, 8.09 -1.48, 19.16 0 M0 19.16 C-1.99 4.17, 6.73 1.61, 19.16 0" stroke="#1e1e1e" stroke-width="2" fill="none"></path></g><g stroke-linecap="round" transform="translate(35.28827640403462 102.14701704545405) rotate(0 19.283203125 7.48828125)"><path d="M3.74 0 C10.5 0.13, 20.11 1.58, 34.82 0 C39.6 1.24, 39.53 -1.35, 38.57 3.74 C38.68 6.37, 39.39 8.47, 38.57 11.23 C40.73 11.37, 37.46 15.74, 34.82 14.98 C23.68 15.34, 16.33 16.38, 3.74 14.98 C-1.2 15.42, -0.76 15.44, 0 11.23 C0.53 9.32, -0.68 5.33, 0 3.74 C0.03 0.69, -0.57 2.18, 3.74 0" stroke="none" stroke-width="0" fill="#868e96"></path><path d="M3.74 0 C13.78 -0.44, 25.56 -0.94, 34.82 0 M3.74 0 C14.63 0.17, 25.76 -0.28, 34.82 0 M34.82 0 C36.58 0.62, 38.66 1.53, 38.57 3.74 M34.82 0 C36.21 -0.78, 38.47 0.89, 38.57 3.74 M38.57 3.74 C38.73 6, 38.41 7.64, 38.57 11.23 M38.57 3.74 C38.44 5.21, 38.46 6.94, 38.57 11.23 M38.57 11.23 C39.44 14.72, 36.51 15.01, 34.82 14.98 M38.57 11.23 C37.68 14.85, 38.24 14.4, 34.82 14.98 M34.82 14.98 C29.34 14.99, 22.65 16.08, 3.74 14.98 M34.82 14.98 C27.8 15.01, 20.44 14.84, 3.74 14.98 M3.74 14.98 C0.7 15.84, -0.87 14.14, 0 11.23 M3.74 14.98 C0.72 16, -0.93 13.73, 0 11.23 M0 11.23 C0.25 9.21, -0.1 7, 0 3.74 M0 11.23 C0.14 8.92, 0.09 6.48, 0 3.74 M0 3.74 C0.85 0.51, 0.38 -0.96, 3.74 0 M0 3.74 C0.17 2.05, 1 0.31, 3.74 0" stroke="#1e1e1e" stroke-width="2" fill="none"></path></g><g stroke-linecap="round" transform="translate(35.47414879986765 10) rotate(0 19.283203125 7.48828125)"><path d="M3.74 0 C14.25 1.51, 23.92 1.23, 34.82 0 C38.28 -2.59, 37.66 1.29, 38.57 3.74 C39.4 7.41, 39.39 8.68, 38.57 11.23 C38.71 14.49, 37.2 16.88, 34.82 14.98 C26.4 16.6, 15.8 15.5, 3.74 14.98 C0.49 16.68, 1.95 14.79, 0 11.23 C-0.7 9.01, -0.05 7.17, 0 3.74 C-1.82 3.43, -0.12 -2.27, 3.74 0" stroke="none" stroke-width="0" fill="#868e96"></path><path d="M3.74 0 C16.64 -0.76, 28.42 -0.25, 34.82 0 M3.74 0 C13.66 -0.31, 23.46 0.25, 34.82 0 M34.82 0 C37.41 0.28, 37.6 0.57, 38.57 3.74 M34.82 0 C37.22 -0.35, 38.36 0.36, 38.57 3.74 M38.57 3.74 C38.46 5.12, 38.25 6.93, 38.57 11.23 M38.57 3.74 C38.46 6.41, 38.71 9.16, 38.57 11.23 M38.57 11.23 C37.76 13.76, 36.54 15.95, 34.82 14.98 M38.57 11.23 C39.49 13.15, 36.25 15.09, 34.82 14.98 M34.82 14.98 C24.12 15.96, 11.29 15.13, 3.74 14.98 M34.82 14.98 C23.04 14.72, 11.81 15.39, 3.74 14.98 M3.74 14.98 C0.38 15.39, -0.46 14.62, 0 11.23 M3.74 14.98 C0.32 14.97, 0 12.82, 0 11.23 M0 11.23 C-0.16 9.69, 0.01 8, 0 3.74 M0 11.23 C0.09 8.36, 0.13 5.64, 0 3.74 M0 3.74 C-0.86 0.29, 1.4 0.7, 3.74 0 M0 3.74 C-0.24 1.56, 0.54 0.6, 3.74 0" stroke="#343a40" stroke-width="2" fill="none"></path></g><g stroke-linecap="round" transform="translate(13.186373760761416 77.88930397172953) rotate(312.47556431009303 13.974609375000004 10.47265625)"><path d="M5.24 0 C13.3 1.32, 17 -3.32, 22.71 0 C24.94 0.06, 31.14 2.17, 27.95 5.24 C29.68 7.36, 28.21 13.45, 27.95 15.71 C27.78 21.83, 25 18.23, 22.71 20.95 C14.17 21.67, 10.63 23.2, 5.24 20.95 C4.44 22.41, -1.53 21.3, 0 15.71 C0.14 11.19, -1.19 9.07, 0 5.24 C-1.89 -1.4, 3.68 1.17, 5.24 0" stroke="none" stroke-width="0" fill="#eaddd7"></path><path d="M5.24 0 C10.92 -0.39, 15.05 -0.5, 22.71 0 M5.24 0 C10.55 0.63, 17.24 0.33, 22.71 0 M22.71 0 C24.27 -1.35, 27.77 1.13, 27.95 5.24 M22.71 0 C25.79 -1.77, 26.26 2.93, 27.95 5.24 M27.95 5.24 C26.97 8.2, 28.43 11.73, 27.95 15.71 M27.95 5.24 C28.36 8.29, 27.48 10.31, 27.95 15.71 M27.95 15.71 C26.4 21.16, 27.81 19.94, 22.71 20.95 M27.95 15.71 C25.81 19.43, 27.73 23.12, 22.71 20.95 M22.71 20.95 C16.31 21.42, 13.68 20.98, 5.24 20.95 M22.71 20.95 C17.23 21.62, 11.94 21.22, 5.24 20.95 M5.24 20.95 C0.82 22.73, -1.61 19.2, 0 15.71 M5.24 20.95 C1.74 19.12, -1.38 20.56, 0 15.71 M0 15.71 C0.12 12.95, 0.71 9.16, 0 5.24 M0 15.71 C0.38 12.24, -0.52 9.04, 0 5.24 M0 5.24 C0.3 3.14, 1.32 0.55, 5.24 0 M0 5.24 C-1.42 2.96, 1.47 -0.57, 5.24 0" stroke="#1e1e1e" stroke-width="2" fill="none"></path></g><g stroke-linecap="round" transform="translate(27.842768023306707 37.022564965653146) rotate(312.47556431009303 25.429687500000007 23.859375)"><path d="M26.01 0.59 C31.26 0.5, 37.32 2.92, 41.41 6.27 C45.5 9.61, 49.43 15.59, 50.55 20.66 C51.66 25.73, 50.85 32.33, 48.1 36.7 C45.35 41.08, 39.43 45.18, 34.08 46.92 C28.72 48.66, 21.21 49.13, 15.97 47.14 C10.74 45.14, 5.43 39.48, 2.67 34.93 C-0.09 30.39, -1.76 24.8, -0.58 19.87 C0.61 14.95, 4.98 8.77, 9.78 5.38 C14.57 1.98, 24.67 0.26, 28.17 -0.51 C31.67 -1.27, 30.9 0.29, 30.77 0.8 M33.66 1.62 C38.3 2.46, 42.47 5.98, 45.3 10.4 C48.14 14.83, 51.09 22.85, 50.68 28.17 C50.28 33.49, 46.68 38.9, 42.89 42.35 C39.1 45.8, 33.2 49, 27.94 48.86 C22.68 48.72, 15.85 44.72, 11.31 41.51 C6.77 38.3, 2.14 34.17, 0.71 29.59 C-0.71 25.02, 0.35 18.87, 2.74 14.06 C5.13 9.25, 9.99 2.91, 15.07 0.73 C20.15 -1.44, 30.13 1.09, 33.23 0.99 C36.33 0.88, 33.81 -0.21, 33.68 0.11" stroke="none" stroke-width="0" fill="#eaddd7"></path><path d="M20.34 -0.34 C25.41 -1.46, 33.74 0.72, 38.6 3.2 C43.47 5.69, 47.86 9.8, 49.54 14.56 C51.23 19.32, 50.64 26.82, 48.71 31.76 C46.79 36.71, 42.71 41.77, 38 44.25 C33.29 46.73, 25.67 47.41, 20.43 46.65 C15.2 45.9, 10.05 43.64, 6.59 39.73 C3.12 35.81, -0.07 28.45, -0.35 23.18 C-0.62 17.91, 0.71 12.06, 4.93 8.1 C9.15 4.14, 21.2 0.75, 24.96 -0.57 C28.73 -1.9, 27.52 -0.49, 27.5 0.15 M36.4 4.35 C41.5 6.27, 48.33 9.82, 50.29 14.36 C52.25 18.89, 49.91 26.36, 48.15 31.57 C46.39 36.78, 44.16 42.8, 39.72 45.62 C35.29 48.44, 26.85 49.67, 21.55 48.49 C16.24 47.31, 11.43 42.38, 7.89 38.54 C4.34 34.71, 0.68 30.44, 0.27 25.48 C-0.15 20.52, 2.27 13.09, 5.41 8.81 C8.55 4.52, 13.88 0.55, 19.11 -0.22 C24.33 -1, 33.92 3.49, 36.74 4.18 C39.56 4.87, 36.19 3.56, 36.01 3.92" stroke="#1e1e1e" stroke-width="2" fill="none"></path></g></svg>