<svg version="1.1" xmlns="http://www.w3.org/2000/svg" viewBox="0 0 116.80622209821377 127.12357954545405" width="116.80622209821377" height="127.12357954545405">
  <!-- svg-source:excalidraw -->
  
  <defs>
    <style class="style-fonts">
      @font-face {
        font-family: "Virgil";
        src: url("https://excalidraw.com/Virgil.woff2");
      }
      @font-face {
        font-family: "Cascadia";
        src: url("https://excalidraw.com/Cascadia.woff2");
      }
      @font-face {
        font-family: "Assistant";
        src: url("https://excalidraw.com/Assistant-Regular.woff2");
      }
    </style>
    
  </defs>
  <g stroke-linecap="round" transform="translate(21.544503348213766 24.85274621212011) rotate(0 42.630859375 38.322265625)"><path d="M19.16 0 C34.81 2.52, 53.3 -3.66, 66.1 0 C75.41 0.54, 87.77 5.63, 85.26 19.16 C84.4 30.82, 84.95 46.41, 85.26 57.48 C87.38 73.42, 80.6 77.98, 66.1 76.64 C59.89 77.08, 49.67 79.68, 19.16 76.64 C9.2 79.64, -3.26 70.45, 0 57.48 C-1.17 42.15, 0.73 32.06, 0 19.16 C2.14 3, 7 -1.05, 19.16 0" stroke="none" stroke-width="0" fill="#fd7e14"></path><path d="M19.16 0 C34.39 1.51, 53.59 -0.47, 66.1 0 M19.16 0 C36.88 0.7, 55.89 -0.36, 66.1 0 M66.1 0 C80.63 -0.9, 84.65 8.08, 85.26 19.16 M66.1 0 C77.02 1.29, 84.57 6.92, 85.26 19.16 M85.26 19.16 C84.45 27.79, 86.67 39.56, 85.26 57.48 M85.26 19.16 C84.8 31.43, 84.71 43.54, 85.26 57.48 M85.26 57.48 C83.8 71.28, 79.66 75.95, 66.1 76.64 M85.26 57.48 C83.28 68.2, 77.58 77.78, 66.1 76.64 M66.1 76.64 C55.3 78.18, 45.46 74.82, 19.16 76.64 M66.1 76.64 C52.69 76.6, 36.74 77.2, 19.16 76.64 M19.16 76.64 C7.72 78.54, -0.18 71.63, 0 57.48 M19.16 76.64 C8.68 74.91, 0.4 71.77, 0 57.48 M0 57.48 C-0.89 45.2, 1.77 33.36, 0 19.16 M0 57.48 C-0.63 44.41, 0.18 30.55, 0 19.16 M0 19.16 C-1.2 7.57, 7.56 -0.71, 19.16 0 M0 19.16 C1.59 6.57, 8.57 1.48, 19.16 0" stroke="#1e1e1e" stroke-width="2" fill="none"></path></g><g stroke-linecap="round" transform="translate(45.41349600919875 102.14701704545405) rotate(0 19.283203125 7.48828125)"><path d="M3.74 0 C13.15 -2.59, 23.91 0.04, 34.82 0 C39.13 -0.55, 39.28 -0.36, 38.57 3.74 C38.58 6.97, 39.13 9.88, 38.57 11.23 C39.81 14.69, 34.73 14.07, 34.82 14.98 C27.16 17.21, 18.11 17.19, 3.74 14.98 C-1.11 15.12, 0.76 13.61, 0 11.23 C0.22 8.39, 0.61 4.73, 0 3.74 C0.44 0.49, 2.96 1.95, 3.74 0" stroke="none" stroke-width="0" fill="#868e96"></path><path d="M3.74 0 C15.56 -0.21, 27.8 -0.84, 34.82 0 M3.74 0 C11.49 -0.38, 19.31 -0.29, 34.82 0 M34.82 0 C37.01 0.84, 37.76 1.81, 38.57 3.74 M34.82 0 C36.97 0.27, 38.15 1.72, 38.57 3.74 M38.57 3.74 C38.78 5.84, 38.65 7.49, 38.57 11.23 M38.57 3.74 C38.53 5.34, 38.43 7.32, 38.57 11.23 M38.57 11.23 C38.96 13.38, 36.46 14.08, 34.82 14.98 M38.57 11.23 C37.92 14.3, 36.64 14.31, 34.82 14.98 M34.82 14.98 C27.92 14.31, 19.05 14.34, 3.74 14.98 M34.82 14.98 C21.99 14.95, 10.43 15.37, 3.74 14.98 M3.74 14.98 C1.16 15.66, 1 12.98, 0 11.23 M3.74 14.98 C1.45 15.73, -0.09 13.57, 0 11.23 M0 11.23 C0.34 9.28, 0.17 7.81, 0 3.74 M0 11.23 C0.03 8.17, -0.08 5.51, 0 3.74 M0 3.74 C0.59 0.89, 1.94 0.08, 3.74 0 M0 3.74 C1.09 1.99, 2.31 -0.07, 3.74 0" stroke="#1e1e1e" stroke-width="2" fill="none"></path></g><g stroke-linecap="round" transform="translate(45.59936840503178 10) rotate(0 19.283203125 7.48828125)"><path d="M3.74 0 C13.22 0.74, 29.5 -0.2, 34.82 0 C38.03 -1.61, 39.93 0.93, 38.57 3.74 C39.14 6.66, 39.04 8.23, 38.57 11.23 C35.97 12.82, 37.36 17.28, 34.82 14.98 C27.16 17.48, 13.09 15.46, 3.74 14.98 C2.01 14.86, 1.9 12.86, 0 11.23 C0.56 8.64, 0.15 7.59, 0 3.74 C1.71 3.2, 2.31 -1.11, 3.74 0" stroke="none" stroke-width="0" fill="#868e96"></path><path d="M3.74 0 C16.82 -0.69, 27.58 -0.45, 34.82 0 M3.74 0 C14.85 -0.13, 24.93 0.52, 34.82 0 M34.82 0 C36.51 0.56, 38.26 1.48, 38.57 3.74 M34.82 0 C36.9 0.47, 38.27 0.69, 38.57 3.74 M38.57 3.74 C38.69 5.08, 38.34 7.1, 38.57 11.23 M38.57 3.74 C38.42 5.86, 38.63 7.71, 38.57 11.23 M38.57 11.23 C37.7 12.83, 36.76 15.47, 34.82 14.98 M38.57 11.23 C37.89 13.06, 36.79 15.27, 34.82 14.98 M34.82 14.98 C22.81 14.08, 11.72 15.65, 3.74 14.98 M34.82 14.98 C27.39 15.47, 19.24 15.34, 3.74 14.98 M3.74 14.98 C2.25 14.22, 0.17 14.39, 0 11.23 M3.74 14.98 C1.16 14.82, -0.96 13.19, 0 11.23 M0 11.23 C0.12 9.22, 0.3 7.25, 0 3.74 M0 11.23 C-0.11 9.1, 0.11 6.68, 0 3.74 M0 3.74 C0.69 1.33, 2.2 0.64, 3.74 0 M0 3.74 C1.06 1.18, 1.99 -0.88, 3.74 0" stroke="#343a40" stroke-width="2" fill="none"></path></g><g stroke-linecap="round" transform="translate(10 53.475852272726115) rotate(0 13.974609375 10.47265625)"><path d="M5.24 0 C11.16 -0.71, 13.56 -1.99, 22.71 0 C28.1 -0.44, 27.06 1.86, 27.95 5.24 C28.96 9.71, 26.18 12.12, 27.95 15.71 C28.01 22.39, 26.63 23.32, 22.71 20.95 C13.15 21.38, 10.21 21.06, 5.24 20.95 C4.38 19.74, -2.72 19.9, 0 15.71 C0.21 12.07, 1.13 10.95, 0 5.24 C1.47 0.21, 3.85 3.33, 5.24 0" stroke="none" stroke-width="0" fill="#eaddd7"></path><path d="M5.24 0 C9.38 -0.68, 16.26 0.78, 22.71 0 M5.24 0 C9.12 0.82, 12.83 0.57, 22.71 0 M22.71 0 C25.6 0.46, 27.22 2.57, 27.95 5.24 M22.71 0 C25.62 -1.11, 26.25 3.18, 27.95 5.24 M27.95 5.24 C27.27 8.39, 27.66 11.53, 27.95 15.71 M27.95 5.24 C28.08 7.39, 27.42 9.44, 27.95 15.71 M27.95 15.71 C26.83 20.19, 25.02 19.78, 22.71 20.95 M27.95 15.71 C26.89 19.79, 28.21 23.23, 22.71 20.95 M22.71 20.95 C20.58 22.21, 14.16 19.18, 5.24 20.95 M22.71 20.95 C17.22 21.71, 12.75 20.45, 5.24 20.95 M5.24 20.95 C2.09 22.26, -0.16 18.93, 0 15.71 M5.24 20.95 C-0.17 19.87, -1.25 21.18, 0 15.71 M0 15.71 C0.89 12.63, -0.04 11.24, 0 5.24 M0 15.71 C0.37 13.21, 0.42 11.13, 0 5.24 M0 5.24 C1.9 3.03, 3.59 -0.12, 5.24 0 M0 5.24 C1.49 -0.02, 3.71 -1.71, 5.24 0" stroke="#1e1e1e" stroke-width="2" fill="none"></path></g><g stroke-linecap="round" transform="translate(36.888671875 39.436789772726115) rotate(0 25.4296875 23.859375)"><path d="M16.03 1.16 C20.78 -1.06, 27.69 -0.95, 32.93 0.48 C38.17 1.92, 44.49 5.46, 47.45 9.78 C50.42 14.1, 51.58 21.32, 50.71 26.43 C49.84 31.55, 46.07 36.84, 42.24 40.48 C38.4 44.11, 33.07 47.7, 27.71 48.25 C22.34 48.81, 14.54 46.76, 10.06 43.8 C5.57 40.85, 1.95 35.43, 0.81 30.5 C-0.32 25.58, 0.39 19.05, 3.26 14.25 C6.12 9.44, 15.15 3.76, 18.01 1.67 C20.87 -0.43, 20.4 1.54, 20.4 1.67 M13.35 3.12 C17.59 0.56, 24.64 0.38, 29.98 1.35 C35.32 2.32, 41.92 4.87, 45.41 8.94 C48.89 13.01, 50.94 20.38, 50.88 25.77 C50.83 31.16, 48.64 37.56, 45.08 41.28 C41.51 44.99, 35.29 47.7, 29.49 48.07 C23.7 48.43, 15.01 46.08, 10.29 43.47 C5.58 40.86, 2.57 37.01, 1.21 32.39 C-0.16 27.76, -0.18 20.49, 2.1 15.74 C4.39 10.99, 12.75 6.21, 14.92 3.88 C17.1 1.55, 15.15 1.54, 15.15 1.77" stroke="none" stroke-width="0" fill="#eaddd7"></path><path d="M29.71 0.11 C35.1 0.43, 42.34 3.99, 45.96 7.95 C49.58 11.91, 51.59 18.67, 51.42 23.86 C51.25 29.04, 48.51 35.18, 44.93 39.06 C41.35 42.94, 35.44 46.39, 29.94 47.15 C24.44 47.91, 16.6 46.18, 11.96 43.63 C7.31 41.08, 3.72 36.7, 2.05 31.83 C0.38 26.97, 0.21 19.26, 1.93 14.45 C3.64 9.64, 7.05 5.17, 12.32 2.96 C17.59 0.75, 29.54 1.25, 33.55 1.17 C37.55 1.08, 36.35 2, 36.35 2.48 M20.18 1.1 C25.29 0.04, 32.52 -0.17, 37.27 2.32 C42.01 4.82, 46.41 10.89, 48.64 16.09 C50.87 21.29, 52.59 28.77, 50.63 33.52 C48.68 38.26, 42.06 42.02, 36.93 44.57 C31.8 47.12, 24.81 49.84, 19.85 48.82 C14.88 47.8, 10.69 42.58, 7.15 38.44 C3.61 34.3, -1.36 28.75, -1.4 24 C-1.43 19.25, 3.24 13.71, 6.95 9.94 C10.67 6.17, 18.28 3.1, 20.89 1.39 C23.5 -0.32, 22.47 -0.68, 22.61 -0.3" stroke="#1e1e1e" stroke-width="2" fill="none"></path></g></svg>