<svg version="1.1" xmlns="http://www.w3.org/2000/svg" viewBox="0 0 107.63022124304871 127.12357954545405" width="107.63022124304871" height="127.12357954545405">
  <!-- svg-source:excalidraw -->
  
  <defs>
    <style class="style-fonts">
      @font-face {
        font-family: "Virgil";
        src: url("https://excalidraw.com/Virgil.woff2");
      }
      @font-face {
        font-family: "Cascadia";
        src: url("https://excalidraw.com/Cascadia.woff2");
      }
      @font-face {
        font-family: "Assistant";
        src: url("https://excalidraw.com/Assistant-Regular.woff2");
      }
    </style>
    
  </defs>
  <g stroke-linecap="round" transform="translate(10 24.85274621212193) rotate(0 42.630859375 38.322265625)"><path d="M19.16 0 C38.2 -0.21, 57.78 -1.25, 66.1 0 C76.15 0.7, 85.07 8.52, 85.26 19.16 C87.74 29.75, 86.85 33.41, 85.26 57.48 C87.36 73.58, 76.5 75.57, 66.1 76.64 C54.99 74.16, 34.69 77.99, 19.16 76.64 C7.56 78.18, 1.21 67.37, 0 57.48 C-1.84 48.1, -2.69 33.35, 0 19.16 C3.32 3.6, 7.31 3.57, 19.16 0" stroke="none" stroke-width="0" fill="#fd7e14"></path><path d="M19.16 0 C28.08 -0.32, 36.7 -1.43, 66.1 0 M19.16 0 C34.79 -0.73, 51.58 0.66, 66.1 0 M66.1 0 C77.7 -1.17, 84.34 6.9, 85.26 19.16 M66.1 0 C80.89 2.29, 83.41 6.45, 85.26 19.16 M85.26 19.16 C84.64 25.83, 85.84 37.55, 85.26 57.48 M85.26 19.16 C86.23 33.54, 85.4 50.08, 85.26 57.48 M85.26 57.48 C85.1 69.99, 77.21 75.71, 66.1 76.64 M85.26 57.48 C84.01 72.24, 76.88 77.59, 66.1 76.64 M66.1 76.64 C54.19 76.27, 40.69 75.06, 19.16 76.64 M66.1 76.64 C49.93 76.56, 33.34 77.12, 19.16 76.64 M19.16 76.64 C8.23 76.53, 1.29 68.72, 0 57.48 M19.16 76.64 C8.35 74.94, -1.99 68.04, 0 57.48 M0 57.48 C0.28 44.18, 0.78 33.11, 0 19.16 M0 57.48 C0.58 47.81, 0.47 36.76, 0 19.16 M0 19.16 C-1.99 5.69, 6.42 1.77, 19.16 0 M0 19.16 C0.27 7.9, 8.32 1.8, 19.16 0" stroke="#1e1e1e" stroke-width="2" fill="none"></path></g><g stroke-linecap="round" transform="translate(33.868992660984986 102.14701704545405) rotate(0 19.283203125 7.48828125)"><path d="M3.74 0 C15.14 -0.85, 20.76 0.52, 34.82 0 C37.18 1.54, 36.12 1.69, 38.57 3.74 C39.03 5.36, 39.2 8.7, 38.57 11.23 C36.85 12.95, 37.34 14.42, 34.82 14.98 C25.4 16.16, 21.36 15.87, 3.74 14.98 C2.12 12.89, 0.26 11.69, 0 11.23 C-0.81 8.58, 0.96 5.38, 0 3.74 C0.66 3.83, 0.77 -1.52, 3.74 0" stroke="none" stroke-width="0" fill="#868e96"></path><path d="M3.74 0 C12.02 -0.7, 22.36 0.42, 34.82 0 M3.74 0 C11.7 0.39, 19.93 -0.15, 34.82 0 M34.82 0 C36.86 0.26, 39.44 2.24, 38.57 3.74 M34.82 0 C36.39 0.03, 37.68 2.37, 38.57 3.74 M38.57 3.74 C38.58 6.84, 38.9 9.41, 38.57 11.23 M38.57 3.74 C38.64 6.63, 38.59 9.24, 38.57 11.23 M38.57 11.23 C37.74 13.26, 36.78 15.84, 34.82 14.98 M38.57 11.23 C37.57 14.2, 36.79 16, 34.82 14.98 M34.82 14.98 C27.21 14.38, 21.77 15.56, 3.74 14.98 M34.82 14.98 C27.08 15.31, 18.85 14.96, 3.74 14.98 M3.74 14.98 C1.89 14.21, 0.85 12.99, 0 11.23 M3.74 14.98 C0.25 13.87, 0.17 14.53, 0 11.23 M0 11.23 C0.19 9.1, -0.1 7.07, 0 3.74 M0 11.23 C0.07 8.61, -0.21 5.78, 0 3.74 M0 3.74 C0.02 2.13, 1.37 0.66, 3.74 0 M0 3.74 C0.97 2.15, 2.21 -1.04, 3.74 0" stroke="#1e1e1e" stroke-width="2" fill="none"></path></g><g stroke-linecap="round" transform="translate(34.05486505681802 10) rotate(0 19.283203125 7.48828125)"><path d="M3.74 0 C10.96 0.64, 21.97 1.68, 34.82 0 C34.87 0.44, 37.81 2.96, 38.57 3.74 C39.17 7.45, 37.96 9.07, 38.57 11.23 C38.59 13.17, 35.5 17.15, 34.82 14.98 C27.98 16.3, 20.31 13.11, 3.74 14.98 C1.51 12.94, 1.05 12.01, 0 11.23 C0.98 7.71, 0.34 6.67, 0 3.74 C-0.48 -0.27, 0.58 -1.43, 3.74 0" stroke="none" stroke-width="0" fill="#868e96"></path><path d="M3.74 0 C13.02 0.51, 20.91 -0.75, 34.82 0 M3.74 0 C9.99 -0.37, 16.59 0.05, 34.82 0 M34.82 0 C38.19 0.99, 37.76 1.28, 38.57 3.74 M34.82 0 C36.43 1.12, 39.49 0.67, 38.57 3.74 M38.57 3.74 C38.92 5.26, 38.83 7.22, 38.57 11.23 M38.57 3.74 C38.56 5.4, 38.42 7.02, 38.57 11.23 M38.57 11.23 C38.02 14.59, 36.45 15.39, 34.82 14.98 M38.57 11.23 C38.03 14.75, 36.39 14.97, 34.82 14.98 M34.82 14.98 C26.09 15.47, 15.82 15.57, 3.74 14.98 M34.82 14.98 C25.72 15.05, 16.01 14.69, 3.74 14.98 M3.74 14.98 C2.1 14.23, -0.86 12.77, 0 11.23 M3.74 14.98 C1.42 15.78, -0.24 14.04, 0 11.23 M0 11.23 C-0.11 9.46, 0.2 7.88, 0 3.74 M0 11.23 C-0.2 8.26, -0.01 5.59, 0 3.74 M0 3.74 C0.12 1.91, 2.09 0.78, 3.74 0 M0 3.74 C0.96 0.21, 1.31 0.34, 3.74 0" stroke="#343a40" stroke-width="2" fill="none"></path></g><g stroke-linecap="round" transform="translate(66.49462873228731 79.49309861458823) rotate(47.524435689906944 13.974609375 10.47265625)"><path d="M5.24 0 C9.73 1.81, 11.6 0.47, 22.71 0 C25.15 2.36, 30.65 3.21, 27.95 5.24 C26.81 7.37, 28.08 10.22, 27.95 15.71 C25.43 22.21, 24.31 17.8, 22.71 20.95 C17.59 18.56, 10.66 18.61, 5.24 20.95 C3.19 18.56, 2.49 15.97, 0 15.71 C0.31 14.54, -0.52 8.54, 0 5.24 C-0.93 -0.23, 1.01 -1.52, 5.24 0" stroke="none" stroke-width="0" fill="#eaddd7"></path><path d="M5.24 0 C8.59 -1.57, 11.59 -1.05, 22.71 0 M5.24 0 C10.94 0.33, 18.21 0.97, 22.71 0 M22.71 0 C24.6 0.06, 26.4 3.7, 27.95 5.24 M22.71 0 C28.05 -1.15, 25.81 1.97, 27.95 5.24 M27.95 5.24 C28.77 10.12, 27.26 13.09, 27.95 15.71 M27.95 5.24 C27.51 8.82, 27.66 13.35, 27.95 15.71 M27.95 15.71 C26.21 20.02, 25.28 22.73, 22.71 20.95 M27.95 15.71 C26.1 19.2, 26.2 19.12, 22.71 20.95 M22.71 20.95 C17.9 22.25, 14.46 22.71, 5.24 20.95 M22.71 20.95 C16.91 20.27, 10.72 20.29, 5.24 20.95 M5.24 20.95 C0.02 19.02, 0.3 20.6, 0 15.71 M5.24 20.95 C1.26 21.57, -1.42 20.41, 0 15.71 M0 15.71 C0.65 13.31, 0.95 10.18, 0 5.24 M0 15.71 C0.11 12.64, 0.17 8.99, 0 5.24 M0 5.24 C1.68 3.31, 3.41 -1.81, 5.24 0 M0 5.24 C0.12 2.42, 1.64 1.68, 5.24 0" stroke="#1e1e1e" stroke-width="2" fill="none"></path></g><g stroke-linecap="round" transform="translate(28.665801434028253 38.2658685370825) rotate(47.524435689906944 25.4296875 23.859375)"><path d="M23.27 0.01 C28.3 -0.7, 34.85 1.12, 39.38 4.09 C43.91 7.07, 48.77 12.86, 50.47 17.84 C52.16 22.83, 51.8 29.61, 49.55 34.02 C47.3 38.43, 42.07 42.13, 36.97 44.3 C31.87 46.46, 24.16 48.08, 18.96 47.03 C13.75 45.99, 8.8 42.02, 5.76 38.02 C2.72 34.03, 0.36 28.04, 0.72 23.06 C1.08 18.08, 3.42 11.94, 7.9 8.14 C12.37 4.33, 23.19 1.28, 27.57 0.23 C31.95 -0.83, 33.95 1.49, 34.18 1.82 M16.94 0.27 C21.63 -1.86, 28.5 -1.26, 33.69 0.78 C38.88 2.81, 45.14 8.15, 48.06 12.47 C50.98 16.78, 52.01 21.59, 51.2 26.69 C50.39 31.79, 47.54 39.65, 43.2 43.07 C38.87 46.5, 30.76 47.4, 25.17 47.26 C19.58 47.12, 13.95 45.13, 9.67 42.25 C5.38 39.36, 0.71 35.1, -0.52 29.93 C-1.76 24.76, -0.63 15.84, 2.26 11.22 C5.16 6.59, 14.42 3.6, 16.86 2.17 C19.29 0.74, 17.06 2.32, 16.88 2.63" stroke="none" stroke-width="0" fill="#eaddd7"></path><path d="M17.8 0.48 C22.64 -0.92, 30.75 0.91, 35.99 2.92 C41.23 4.94, 46.9 8.25, 49.26 12.56 C51.62 16.88, 51.45 23.59, 50.14 28.82 C48.83 34.05, 45.88 40.96, 41.39 43.94 C36.9 46.93, 28.78 47.1, 23.2 46.73 C17.61 46.36, 11.58 45.12, 7.89 41.71 C4.21 38.31, 1.57 31.33, 1.09 26.3 C0.61 21.28, 2.09 15.79, 5.01 11.55 C7.94 7.31, 15.94 2.64, 18.64 0.85 C21.33 -0.93, 20.97 0.64, 21.17 0.86 M18.21 1.27 C23.19 -0.15, 31.21 1.67, 36.1 3.85 C40.99 6.04, 45.27 10.09, 47.55 14.36 C49.84 18.63, 51.31 24.42, 49.8 29.47 C48.3 34.51, 42.94 41.73, 38.54 44.65 C34.14 47.58, 28.5 47.74, 23.41 47.03 C18.32 46.32, 11.66 43.85, 8 40.38 C4.35 36.92, 1.74 31.4, 1.47 26.26 C1.2 21.12, 3.22 14.02, 6.38 9.56 C9.55 5.1, 18.06 1.1, 20.49 -0.5 C22.91 -2.09, 21.19 -0.33, 20.91 0" stroke="#1e1e1e" stroke-width="2" fill="none"></path></g></svg>