<svg version="1.1" xmlns="http://www.w3.org/2000/svg" viewBox="0 0 108.28814535019205 127.12357954545405" width="108.28814535019205" height="127.12357954545405">
  <!-- svg-source:excalidraw -->
  
  <defs>
    <style class="style-fonts">
      @font-face {
        font-family: "Virgil";
        src: url("https://excalidraw.com/Virgil.woff2");
      }
      @font-face {
        font-family: "Cascadia";
        src: url("https://excalidraw.com/Cascadia.woff2");
      }
      @font-face {
        font-family: "Assistant";
        src: url("https://excalidraw.com/Assistant-Regular.woff2");
      }
    </style>
    
  </defs>
  <g stroke-linecap="round" transform="translate(13.026426600192053 24.85274621212011) rotate(0 42.630859375 38.322265625)"><path d="M19.16 0 C41.14 -0.88, 53.87 -1.14, 66.1 0 C76.9 -0.74, 83.74 4.74, 85.26 19.16 C87.58 31.24, 84.36 47.07, 85.26 57.48 C87.16 72.28, 81.02 76.25, 66.1 76.64 C54.37 74.28, 34.35 75.69, 19.16 76.64 C7.7 76.34, 1.67 70.51, 0 57.48 C-1.81 47.86, -2.12 33.12, 0 19.16 C2.85 2.83, 5.15 3.51, 19.16 0" stroke="none" stroke-width="0" fill="#fd7e14"></path><path d="M19.16 0 C31.51 -0.52, 44.01 -1.2, 66.1 0 M19.16 0 C32.63 0.96, 47.9 0.02, 66.1 0 M66.1 0 C80.25 0.16, 87.16 7.67, 85.26 19.16 M66.1 0 C80.99 -0.14, 86.75 4.62, 85.26 19.16 M85.26 19.16 C83.05 34.22, 86.37 48.27, 85.26 57.48 M85.26 19.16 C84.9 31.46, 85.06 44.85, 85.26 57.48 M85.26 57.48 C86.44 72.01, 79.83 77.39, 66.1 76.64 M85.26 57.48 C82.97 69.45, 78.91 78.68, 66.1 76.64 M66.1 76.64 C53.03 78.7, 35.02 77.15, 19.16 76.64 M66.1 76.64 C50.31 76.23, 35.39 76.94, 19.16 76.64 M19.16 76.64 C7.57 74.76, 0.34 69.67, 0 57.48 M19.16 76.64 C7.9 78.37, 0.94 69.28, 0 57.48 M0 57.48 C-0.95 43.77, -0.79 28.62, 0 19.16 M0 57.48 C0.74 43.1, 0.63 28.41, 0 19.16 M0 19.16 C-1.6 6.59, 4.82 0.8, 19.16 0 M0 19.16 C-1.52 7.98, 4.33 -0.24, 19.16 0" stroke="#1e1e1e" stroke-width="2" fill="none"></path></g><g stroke-linecap="round" transform="translate(36.694526404033695 102.14701704545405) rotate(0 19.283203125 7.48828125)"><path d="M3.74 0 C12.35 -0.6, 22.55 -0.46, 34.82 0 C36.22 -1.19, 40.21 2.66, 38.57 3.74 C38.27 6.47, 39.13 9.7, 38.57 11.23 C40.12 13.44, 37.83 14.97, 34.82 14.98 C21.78 13.46, 12.18 14.41, 3.74 14.98 C2.46 15.16, 0.32 13.43, 0 11.23 C-0.54 9.06, 0.82 6.16, 0 3.74 C-0.9 3.78, 3.71 2.24, 3.74 0" stroke="none" stroke-width="0" fill="#868e96"></path><path d="M3.74 0 C11.26 -0.73, 16.99 0.07, 34.82 0 M3.74 0 C10.89 -0.27, 17.8 -0.05, 34.82 0 M34.82 0 C38.27 0.64, 39.49 1.19, 38.57 3.74 M34.82 0 C38.06 -0.88, 39.55 0.39, 38.57 3.74 M38.57 3.74 C38.79 5.26, 38.63 6.71, 38.57 11.23 M38.57 3.74 C38.57 6.5, 38.67 9.19, 38.57 11.23 M38.57 11.23 C39.04 14.1, 36.32 14.63, 34.82 14.98 M38.57 11.23 C38.58 14.75, 37.45 15.74, 34.82 14.98 M34.82 14.98 C21.98 15.16, 11.25 15.06, 3.74 14.98 M34.82 14.98 C23.32 14.83, 11.92 14.39, 3.74 14.98 M3.74 14.98 C1.42 14.68, 0.66 14.48, 0 11.23 M3.74 14.98 C1.72 14.49, 0.67 14.79, 0 11.23 M0 11.23 C-0.07 9.22, 0.32 7.53, 0 3.74 M0 11.23 C0.06 9.7, -0.17 8.07, 0 3.74 M0 3.74 C-0.78 1.65, 0.59 0.69, 3.74 0 M0 3.74 C-1.03 1.13, 2.31 -0.89, 3.74 0" stroke="#1e1e1e" stroke-width="2" fill="none"></path></g><g stroke-linecap="round" transform="translate(36.88039879986718 10) rotate(0 19.283203125 7.48828125)"><path d="M3.74 0 C11.07 -0.43, 20.14 -1.09, 34.82 0 C38.96 1.41, 40.16 2.65, 38.57 3.74 C39.04 6.16, 39.11 7.36, 38.57 11.23 C39.08 13.72, 39.39 17.35, 34.82 14.98 C29.07 14.57, 22.62 14.97, 3.74 14.98 C1.57 14.68, -0.66 12.36, 0 11.23 C0.83 7.54, -0.28 6.71, 0 3.74 C2.47 3.48, 3.38 1.9, 3.74 0" stroke="none" stroke-width="0" fill="#868e96"></path><path d="M3.74 0 C11.63 0.12, 18.72 -0.48, 34.82 0 M3.74 0 C15.25 0.09, 26.54 0.38, 34.82 0 M34.82 0 C38.24 -0.06, 39.21 0.48, 38.57 3.74 M34.82 0 C38.3 -0.85, 37.57 0.14, 38.57 3.74 M38.57 3.74 C38.7 5.87, 38.79 8.41, 38.57 11.23 M38.57 3.74 C38.68 5.97, 38.66 7.94, 38.57 11.23 M38.57 11.23 C37.57 13.38, 37.33 15.86, 34.82 14.98 M38.57 11.23 C38.7 14.49, 38.28 15.87, 34.82 14.98 M34.82 14.98 C23.2 14.94, 11.73 14.65, 3.74 14.98 M34.82 14.98 C28.14 14.5, 20.96 14.82, 3.74 14.98 M3.74 14.98 C1.9 15.73, 0.41 13.3, 0 11.23 M3.74 14.98 C1.92 16.04, -0.76 13.39, 0 11.23 M0 11.23 C0.32 8.78, -0.32 6.93, 0 3.74 M0 11.23 C-0.17 8.76, -0.16 6.33, 0 3.74 M0 3.74 C-0.66 1.94, 0.35 -0.1, 3.74 0 M0 3.74 C1.06 0.36, 1.54 1.14, 3.74 0" stroke="#343a40" stroke-width="2" fill="none"></path></g><g stroke-linecap="round" transform="translate(13.186373760761398 24.156708609438283) rotate(47.524435689906944 13.974609375 10.47265625)"><path d="M5.24 0 C8.7 -1.38, 16.81 1.77, 22.71 0 C28.41 1.95, 26.11 0.47, 27.95 5.24 C29.17 8.19, 28.42 11.55, 27.95 15.71 C30.81 22.49, 23.17 19.22, 22.71 20.95 C19.72 21.14, 14.19 20.55, 5.24 20.95 C0.83 19.05, 2.34 17, 0 15.71 C-0.8 14.53, 1.64 11.3, 0 5.24 C2.95 4.38, 4.57 1.6, 5.24 0" stroke="none" stroke-width="0" fill="#a5d8ff"></path><path d="M5.24 0 C7.68 -1.05, 13.94 1.03, 22.71 0 M5.24 0 C10.69 0.55, 15.28 -0.07, 22.71 0 M22.71 0 C27.5 -1.53, 29.65 0.26, 27.95 5.24 M22.71 0 C24.22 -2.21, 28.29 3.35, 27.95 5.24 M27.95 5.24 C28.53 8.03, 27.72 11.11, 27.95 15.71 M27.95 5.24 C28.26 9.2, 27.49 12.59, 27.95 15.71 M27.95 15.71 C27.98 20.97, 26.44 22.26, 22.71 20.95 M27.95 15.71 C29.88 21, 28.12 18.86, 22.71 20.95 M22.71 20.95 C18.66 20.35, 10.72 21.27, 5.24 20.95 M22.71 20.95 C17.71 20.53, 12.98 21.44, 5.24 20.95 M5.24 20.95 C2.56 20.09, 1.17 21.05, 0 15.71 M5.24 20.95 C0.23 20.26, 0.02 18.7, 0 15.71 M0 15.71 C-1 13.86, 0.25 11.33, 0 5.24 M0 15.71 C-0.33 12.42, -0.26 9.08, 0 5.24 M0 5.24 C-1.79 1.54, 3.59 -1.55, 5.24 0 M0 5.24 C0.59 4.03, 1.32 -1.34, 5.24 0" stroke="#1e1e1e" stroke-width="2" fill="none"></path></g><g stroke-linecap="round" transform="translate(28.10504480902 38.9230011869422) rotate(47.524435689906944 25.4296875 23.859375)"><path d="M16.97 0.59 C21.95 -1.36, 30.44 -0.97, 35.41 1.07 C40.39 3.12, 44.26 8.22, 46.81 12.86 C49.36 17.49, 51.56 24.08, 50.71 28.87 C49.87 33.66, 46.02 38.61, 41.74 41.62 C37.47 44.63, 30.49 47, 25.05 46.93 C19.61 46.86, 13.13 44.56, 9.12 41.18 C5.11 37.81, 1.93 31.45, 1 26.66 C0.07 21.88, -0.25 16.86, 3.55 12.46 C7.34 8.07, 18.88 2.17, 23.76 0.27 C28.65 -1.63, 32.79 0.77, 32.83 1.08 M17.85 1.84 C22.93 0.49, 31.48 1.21, 36.7 3.03 C41.91 4.84, 47.01 8.28, 49.15 12.73 C51.29 17.19, 50.89 24.54, 49.54 29.77 C48.2 34.99, 45.26 41.12, 41.07 44.07 C36.89 47.03, 29.95 48.01, 24.43 47.49 C18.92 46.97, 11.83 44.25, 7.98 40.94 C4.12 37.63, 2.12 32.82, 1.32 27.61 C0.52 22.41, 0.39 14.07, 3.15 9.71 C5.91 5.35, 15.29 2.72, 17.86 1.44 C20.42 0.17, 18.3 1.73, 18.54 2.05" stroke="none" stroke-width="0" fill="#a5d8ff"></path><path d="M32.87 1.97 C38.08 3.13, 44.4 7.5, 47.36 11.73 C50.32 15.95, 51.5 22.28, 50.62 27.34 C49.74 32.41, 46.15 38.87, 42.06 42.11 C37.98 45.36, 31.57 46.65, 26.1 46.82 C20.62 46.98, 13.35 46.06, 9.23 43.11 C5.1 40.15, 2.4 34.19, 1.37 29.09 C0.33 23.98, 0.58 17.02, 3.01 12.47 C5.44 7.93, 10.43 3.49, 15.95 1.8 C21.47 0.12, 32.12 1.81, 36.13 2.36 C40.14 2.91, 40.03 4.67, 40.03 5.1 M30.14 1.74 C35.57 2.59, 41.6 5.79, 45.26 9.71 C48.93 13.64, 52 20.57, 52.12 25.29 C52.24 30.01, 49.72 34.28, 45.98 38.04 C42.23 41.79, 35.25 46.6, 29.65 47.84 C24.06 49.08, 17.19 48.35, 12.4 45.49 C7.62 42.62, 2.69 35.66, 0.94 30.64 C-0.81 25.62, -0.23 20.21, 1.92 15.37 C4.07 10.54, 9.1 4.22, 13.85 1.66 C18.59 -0.91, 27.51 -0.09, 30.37 -0.03 C33.24 0.03, 31.03 1.65, 31.01 2" stroke="#1e1e1e" stroke-width="2" fill="none"></path></g></svg>