<svg version="1.1" xmlns="http://www.w3.org/2000/svg" viewBox="0 0 107.36794445733494 127.12357954545405" width="107.36794445733494" height="127.12357954545405">
  <!-- svg-source:excalidraw -->
  
  <defs>
    <style class="style-fonts">
      @font-face {
        font-family: "Virgil";
        src: url("https://excalidraw.com/Virgil.woff2");
      }
      @font-face {
        font-family: "Cascadia";
        src: url("https://excalidraw.com/Cascadia.woff2");
      }
      @font-face {
        font-family: "Assistant";
        src: url("https://excalidraw.com/Assistant-Regular.woff2");
      }
    </style>
    
  </defs>
  <g stroke-linecap="round" transform="translate(10 24.85274621212011) rotate(0 42.630859375 38.322265625)"><path d="M19.16 0 C40.47 3.71, 57.85 3.24, 66.1 0 C81.51 2.83, 86.86 6.1, 85.26 19.16 C87.87 28.8, 85.96 48.4, 85.26 57.48 C87.53 73.5, 76.49 73.05, 66.1 76.64 C47.63 77.8, 32.03 76.61, 19.16 76.64 C8.76 77.89, -2.56 70.78, 0 57.48 C-2.27 48.23, -1.23 43.94, 0 19.16 C-1.91 4.09, 7.85 0.1, 19.16 0" stroke="none" stroke-width="0" fill="#fd7e14"></path><path d="M19.16 0 C30.33 0.23, 39.28 1.67, 66.1 0 M19.16 0 C36.96 0.72, 54.61 1.16, 66.1 0 M66.1 0 C78.21 -1.51, 85.65 6.28, 85.26 19.16 M66.1 0 C80.24 -2.16, 85.65 5.72, 85.26 19.16 M85.26 19.16 C84.7 34.34, 87.4 45.87, 85.26 57.48 M85.26 19.16 C84.57 30.35, 84.74 38.99, 85.26 57.48 M85.26 57.48 C86.34 70.91, 79.73 77.32, 66.1 76.64 M85.26 57.48 C83.42 70.49, 77.07 77.57, 66.1 76.64 M66.1 76.64 C54.92 78.07, 42.6 76.73, 19.16 76.64 M66.1 76.64 C47.11 75.82, 28.42 75.95, 19.16 76.64 M19.16 76.64 C5.47 77.91, 1.09 71.48, 0 57.48 M19.16 76.64 C7.63 75.47, -0.82 70.3, 0 57.48 M0 57.48 C-0.43 44.36, -0.22 32.04, 0 19.16 M0 57.48 C-0.13 42.85, 0.24 27.96, 0 19.16 M0 19.16 C0.14 6.63, 6.16 -0.51, 19.16 0 M0 19.16 C-1.21 7.88, 4.98 -0.28, 19.16 0" stroke="#1e1e1e" stroke-width="2" fill="none"></path></g><g stroke-linecap="round" transform="translate(33.868992660984986 102.14701704545405) rotate(0 19.283203125 7.48828125)"><path d="M3.74 0 C14.23 1.75, 22.15 1.66, 34.82 0 C38.47 -0.21, 39.73 -1.24, 38.57 3.74 C39.02 7.21, 39.27 10.02, 38.57 11.23 C36.84 11.13, 39.53 15.49, 34.82 14.98 C25.78 14.81, 15.48 15.97, 3.74 14.98 C-0.6 15.35, -2.27 12.88, 0 11.23 C-0.33 10.33, -0.45 7.31, 0 3.74 C1.06 1.32, 2.89 -0.73, 3.74 0" stroke="none" stroke-width="0" fill="#868e96"></path><path d="M3.74 0 C13.78 0.82, 23.27 0.81, 34.82 0 M3.74 0 C10.23 0.32, 16.59 -0.42, 34.82 0 M34.82 0 C37.51 -0.05, 39.16 0.31, 38.57 3.74 M34.82 0 C37.51 -0.34, 39.32 2.11, 38.57 3.74 M38.57 3.74 C38.9 6.05, 38.44 8.85, 38.57 11.23 M38.57 3.74 C38.44 5.67, 38.64 7.97, 38.57 11.23 M38.57 11.23 C38.99 14.07, 36.52 15.08, 34.82 14.98 M38.57 11.23 C37.66 14.19, 36.56 15.77, 34.82 14.98 M34.82 14.98 C27.51 15.37, 22.74 14.93, 3.74 14.98 M34.82 14.98 C27.21 14.68, 19.57 15.21, 3.74 14.98 M3.74 14.98 C1.79 15.59, 0.54 13.22, 0 11.23 M3.74 14.98 C0.84 15, 0.61 14.38, 0 11.23 M0 11.23 C0 8.84, 0.35 5.53, 0 3.74 M0 11.23 C0 9.43, 0.03 7.48, 0 3.74 M0 3.74 C-0.12 0.99, 0.72 0.65, 3.74 0 M0 3.74 C-0.7 1.11, 2.16 -1.14, 3.74 0" stroke="#1e1e1e" stroke-width="2" fill="none"></path></g><g stroke-linecap="round" transform="translate(34.05486505681802 10) rotate(0 19.283203125 7.48828125)"><path d="M3.74 0 C17.92 1.71, 29.44 -0.54, 34.82 0 C38.48 -2.48, 40.14 3.6, 38.57 3.74 C39.22 6.12, 37.96 5.78, 38.57 11.23 C40.77 14.24, 38.33 14.69, 34.82 14.98 C26.5 15.83, 12.89 15.31, 3.74 14.98 C-1.02 14.13, -2.07 11.92, 0 11.23 C-0.48 8.59, 0.44 7.22, 0 3.74 C1.64 0.52, -0.57 1.62, 3.74 0" stroke="none" stroke-width="0" fill="#868e96"></path><path d="M3.74 0 C14.21 0.7, 22.22 -0.08, 34.82 0 M3.74 0 C13.81 -0.49, 24.3 -0.14, 34.82 0 M34.82 0 C37.91 -0.94, 38.74 0.96, 38.57 3.74 M34.82 0 C38.07 0.86, 39.04 0.76, 38.57 3.74 M38.57 3.74 C38.49 6.43, 38.52 8.85, 38.57 11.23 M38.57 3.74 C38.65 6.68, 38.63 9.55, 38.57 11.23 M38.57 11.23 C37.76 13.83, 36.53 15.38, 34.82 14.98 M38.57 11.23 C37.81 14.53, 36.29 14.86, 34.82 14.98 M34.82 14.98 C23.63 14.83, 9.87 14.76, 3.74 14.98 M34.82 14.98 C26.98 15.23, 19.86 15.22, 3.74 14.98 M3.74 14.98 C1.79 14.46, -0.35 13.75, 0 11.23 M3.74 14.98 C1.85 15.62, 0.69 13.6, 0 11.23 M0 11.23 C0.34 8.52, -0.18 6.27, 0 3.74 M0 11.23 C0.02 8.74, -0.02 6.14, 0 3.74 M0 3.74 C-0.53 1.9, 0.64 -0.12, 3.74 0 M0 3.74 C0.91 0.11, 0.85 1.12, 3.74 0" stroke="#343a40" stroke-width="2" fill="none"></path></g><g stroke-linecap="round" transform="translate(66.23235194657354 79.23082182887265) rotate(47.524435689906944 13.974609375 10.47265625)"><path d="M5.24 0 C13.31 -0.5, 19.99 -3.25, 22.71 0 C28.38 3.26, 24.38 3.1, 27.95 5.24 C26.82 7.31, 29.67 13.53, 27.95 15.71 C29.34 18.8, 27.03 23.01, 22.71 20.95 C15.41 21.51, 9.84 20.03, 5.24 20.95 C-1.13 18.45, -1.1 17.75, 0 15.71 C0.87 11.82, 1.29 7.29, 0 5.24 C-2.52 3.99, 4.23 3.44, 5.24 0" stroke="none" stroke-width="0" fill="#a5d8ff"></path><path d="M5.24 0 C10.36 -0.05, 19.17 -0.23, 22.71 0 M5.24 0 C11.93 0.09, 18.8 -0.69, 22.71 0 M22.71 0 C26.54 -0.58, 29.26 3.24, 27.95 5.24 M22.71 0 C27.14 -0.98, 29.29 3.87, 27.95 5.24 M27.95 5.24 C27.69 6.95, 28.8 9.59, 27.95 15.71 M27.95 5.24 C28.23 7.64, 27.59 9.74, 27.95 15.71 M27.95 15.71 C26.38 20, 24.88 22.33, 22.71 20.95 M27.95 15.71 C25.89 18.96, 28.32 19.16, 22.71 20.95 M22.71 20.95 C16.01 20.46, 10.38 20.56, 5.24 20.95 M22.71 20.95 C18.68 21.59, 14.18 20.61, 5.24 20.95 M5.24 20.95 C1.04 20.98, 1.05 20.33, 0 15.71 M5.24 20.95 C3.12 20.69, 0.46 19.19, 0 15.71 M0 15.71 C-0.6 11.26, 0.29 7.67, 0 5.24 M0 15.71 C-0.07 11.95, -0.28 8.79, 0 5.24 M0 5.24 C-1.22 1.51, 3.33 -1.98, 5.24 0 M0 5.24 C-0.79 3.99, 3.93 1.98, 5.24 0" stroke="#1e1e1e" stroke-width="2" fill="none"></path></g><g stroke-linecap="round" transform="translate(28.403524648314487 38.00359175136691) rotate(47.524435689906944 25.4296875 23.859375)"><path d="M32.9 1.85 C38.11 2.81, 44.81 5.97, 47.69 10.05 C50.57 14.14, 50.95 21.15, 50.19 26.35 C49.42 31.55, 46.94 37.68, 43.11 41.25 C39.28 44.81, 32.67 47.5, 27.19 47.76 C21.71 48.01, 14.69 45.96, 10.22 42.78 C5.75 39.6, 1.52 33.73, 0.39 28.67 C-0.74 23.6, 0.94 16.72, 3.44 12.38 C5.94 8.05, 9.73 4.23, 15.41 2.67 C21.09 1.12, 32.75 2.13, 37.51 3.05 C42.27 3.97, 43.87 7.68, 43.96 8.21 M34.42 2.25 C38.93 3.75, 43.34 9.08, 46.23 13.19 C49.12 17.3, 52.46 21.85, 51.75 26.92 C51.05 31.98, 46.31 39.88, 42 43.57 C37.7 47.26, 31.65 49.6, 25.94 49.07 C20.23 48.53, 11.82 43.9, 7.76 40.37 C3.7 36.85, 2.18 32.72, 1.59 27.9 C1 23.07, 1.56 15.7, 4.21 11.41 C6.86 7.12, 12.46 3.63, 17.49 2.16 C22.52 0.69, 31.48 2.77, 34.38 2.57 C37.28 2.37, 34.96 0.97, 34.87 0.96" stroke="none" stroke-width="0" fill="#a5d8ff"></path><path d="M24.09 0.2 C29.12 -0.06, 37.05 2.64, 41.27 5.83 C45.49 9.02, 48.39 14.32, 49.42 19.34 C50.45 24.37, 49.78 31.44, 47.45 35.97 C45.11 40.49, 40.52 44.65, 35.43 46.49 C30.33 48.34, 21.99 48.86, 16.86 47.05 C11.73 45.23, 7.44 40.06, 4.63 35.6 C1.82 31.14, -0.64 25.33, -0.01 20.27 C0.62 15.21, 3.41 8.66, 8.42 5.24 C13.44 1.82, 26.07 0.25, 30.09 -0.25 C34.1 -0.76, 32.65 1.68, 32.5 2.24 M28.52 0.94 C33.71 1.6, 40.32 5.68, 43.82 9.45 C47.32 13.22, 49.09 18.82, 49.51 23.56 C49.94 28.31, 49.58 33.72, 46.39 37.93 C43.2 42.14, 36.01 47.85, 30.38 48.82 C24.74 49.78, 17.43 46.63, 12.57 43.72 C7.71 40.8, 3.1 36.08, 1.2 31.33 C-0.7 26.58, -0.61 19.72, 1.18 15.2 C2.96 10.68, 7.01 6.54, 11.9 4.22 C16.79 1.89, 27.42 1.95, 30.51 1.26 C33.6 0.56, 30.72 -0.2, 30.42 0.04" stroke="#1e1e1e" stroke-width="2" fill="none"></path></g></svg>