<svg version="1.1" xmlns="http://www.w3.org/2000/svg" viewBox="0 0 106.9432792787634 127.12357954545405" width="106.9432792787634" height="127.12357954545405">
  <!-- svg-source:excalidraw -->
  
  <defs>
    <style class="style-fonts">
      @font-face {
        font-family: "Virgil";
        src: url("https://excalidraw.com/Virgil.woff2");
      }
      @font-face {
        font-family: "Cascadia";
        src: url("https://excalidraw.com/Cascadia.woff2");
      }
      @font-face {
        font-family: "Assistant";
        src: url("https://excalidraw.com/Assistant-Regular.woff2");
      }
    </style>
    
  </defs>
  <g stroke-linecap="round" transform="translate(11.681560528763402 24.85274621212011) rotate(0 42.630859375 38.322265625)"><path d="M19.16 0 C36.03 2.7, 56.21 -3.2, 66.1 0 C77.15 -1.62, 86.58 6.08, 85.26 19.16 C84.89 31.52, 83.42 48.06, 85.26 57.48 C83.06 69.83, 81.72 73.09, 66.1 76.64 C56.73 80.4, 43.81 80.27, 19.16 76.64 C7.99 76.36, 1.61 66.82, 0 57.48 C0.73 46.48, 1.64 33.09, 0 19.16 C-2.39 2.79, 9.44 0.71, 19.16 0" stroke="none" stroke-width="0" fill="#fd7e14"></path><path d="M19.16 0 C34.79 -2.13, 51.47 -0.1, 66.1 0 M19.16 0 C35.9 0.4, 53.76 -0.38, 66.1 0 M66.1 0 C78.94 1.2, 86.44 8.14, 85.26 19.16 M66.1 0 C79.97 0.85, 82.97 5.58, 85.26 19.16 M85.26 19.16 C86.92 32.4, 87.16 43.94, 85.26 57.48 M85.26 19.16 C85.24 27.92, 84.95 34.45, 85.26 57.48 M85.26 57.48 C85.65 70.15, 80.06 74.76, 66.1 76.64 M85.26 57.48 C85.65 69.59, 80.38 78.37, 66.1 76.64 M66.1 76.64 C51.95 75.6, 33.51 76.94, 19.16 76.64 M66.1 76.64 C52.51 76.16, 40.5 77.36, 19.16 76.64 M19.16 76.64 C7.24 77.32, -1.6 70.46, 0 57.48 M19.16 76.64 C4.58 77.57, -1.52 71.85, 0 57.48 M0 57.48 C-1.51 49.93, 2.02 40.99, 0 19.16 M0 57.48 C-0.11 47.8, -0.36 39.59, 0 19.16 M0 19.16 C1.09 7.61, 7.47 -1.02, 19.16 0 M0 19.16 C-0.82 6.43, 7.6 1.29, 19.16 0" stroke="#1e1e1e" stroke-width="2" fill="none"></path></g><g stroke-linecap="round" transform="translate(35.550553189748385 102.14701704545405) rotate(0 19.283203125 7.48828125)"><path d="M3.74 0 C16.06 -2.51, 22.38 -1.49, 34.82 0 C38.27 -0.22, 39.77 1.43, 38.57 3.74 C38.04 6.72, 37.96 8.3, 38.57 11.23 C40.62 11.16, 36.42 17.51, 34.82 14.98 C24.45 17.35, 11.43 15.1, 3.74 14.98 C2.41 12.49, 1.57 16.08, 0 11.23 C0.58 10.6, -0.68 7.25, 0 3.74 C2.21 1.76, 2.26 -0.29, 3.74 0" stroke="none" stroke-width="0" fill="#868e96"></path><path d="M3.74 0 C14.76 0.28, 28.39 -0.08, 34.82 0 M3.74 0 C13.86 -0.21, 24.11 0.22, 34.82 0 M34.82 0 C37.91 0.88, 39.04 1.62, 38.57 3.74 M34.82 0 C36.17 -0.4, 38.58 2.27, 38.57 3.74 M38.57 3.74 C38.88 6.39, 38.25 8.43, 38.57 11.23 M38.57 3.74 C38.5 6.07, 38.6 8.66, 38.57 11.23 M38.57 11.23 C39.16 12.79, 37.49 14.68, 34.82 14.98 M38.57 11.23 C39.32 14.59, 37.79 14.49, 34.82 14.98 M34.82 14.98 C23.38 14.88, 12.33 14.18, 3.74 14.98 M34.82 14.98 C23.16 15, 11.18 15.01, 3.74 14.98 M3.74 14.98 C0.45 15.08, -0.78 14.13, 0 11.23 M3.74 14.98 C0.49 15.77, -1.03 13.61, 0 11.23 M0 11.23 C0.4 8.23, -0.19 5.26, 0 3.74 M0 11.23 C-0.08 9.52, 0.11 7.68, 0 3.74 M0 3.74 C0.54 0.74, 0.89 0.02, 3.74 0 M0 3.74 C0.61 1.9, 1.93 -0.13, 3.74 0" stroke="#1e1e1e" stroke-width="2" fill="none"></path></g><g stroke-linecap="round" transform="translate(35.736425585581415 10) rotate(0 19.283203125 7.48828125)"><path d="M3.74 0 C14.3 -0.83, 28.29 0.12, 34.82 0 C38.53 0.18, 38.89 0.95, 38.57 3.74 C37.92 5.68, 39.29 6.9, 38.57 11.23 C37.67 16.26, 39.78 17.21, 34.82 14.98 C24.11 15.09, 12.25 12.81, 3.74 14.98 C2.82 17.33, -2.58 14.71, 0 11.23 C-0.71 7.43, 0.76 5.76, 0 3.74 C1.01 0.96, 1.85 1.49, 3.74 0" stroke="none" stroke-width="0" fill="#868e96"></path><path d="M3.74 0 C11.08 -0.23, 17.29 -0.64, 34.82 0 M3.74 0 C14.72 0.34, 25.95 0.48, 34.82 0 M34.82 0 C37.8 0.37, 37.57 0.9, 38.57 3.74 M34.82 0 C37.34 1.02, 38.7 2.01, 38.57 3.74 M38.57 3.74 C38.26 6.64, 38.7 9.48, 38.57 11.23 M38.57 3.74 C38.59 6.53, 38.66 9.16, 38.57 11.23 M38.57 11.23 C38.74 13.44, 37.98 15.73, 34.82 14.98 M38.57 11.23 C39.04 13.24, 37.99 16.04, 34.82 14.98 M34.82 14.98 C27.34 14.28, 21.12 14.45, 3.74 14.98 M34.82 14.98 C28.43 15.2, 21.21 15.08, 3.74 14.98 M3.74 14.98 C0.46 15.38, -0.66 14.42, 0 11.23 M3.74 14.98 C0.22 14.86, 1.06 12.84, 0 11.23 M0 11.23 C-0.26 8.7, -0.24 6.28, 0 3.74 M0 11.23 C0.12 9.42, 0.12 7.28, 0 3.74 M0 3.74 C-0.35 1.27, 1.77 0.56, 3.74 0 M0 3.74 C0.69 1.12, 1.48 0, 3.74 0" stroke="#343a40" stroke-width="2" fill="none"></path></g><g stroke-linecap="round" transform="translate(13.186373760761416 77.62702718601395) rotate(312.47556431009303 13.974609375000004 10.47265625)"><path d="M5.24 0 C10.16 -0.13, 14.24 0.36, 22.71 0 C26.65 -0.42, 27.03 -0.15, 27.95 5.24 C29.32 7.2, 27.18 14.72, 27.95 15.71 C31.36 22.3, 29.15 23.58, 22.71 20.95 C17.5 17.91, 11.39 23.77, 5.24 20.95 C-1.82 22.3, 2.81 21.47, 0 15.71 C1.73 12, 0.86 7.33, 0 5.24 C0.83 3.81, 1.38 2.38, 5.24 0" stroke="none" stroke-width="0" fill="#a5d8ff"></path><path d="M5.24 0 C11.22 -1.04, 17.16 -0.18, 22.71 0 M5.24 0 C10.56 0.66, 15.27 0.22, 22.71 0 M22.71 0 C24.21 -0.7, 27.98 3.52, 27.95 5.24 M22.71 0 C26.47 1.52, 29.88 3.54, 27.95 5.24 M27.95 5.24 C28.16 9.2, 28.62 12.91, 27.95 15.71 M27.95 5.24 C28.28 7.09, 28.06 9.78, 27.95 15.71 M27.95 15.71 C29.26 20.7, 27.02 20.09, 22.71 20.95 M27.95 15.71 C29.29 21.33, 24.68 20.26, 22.71 20.95 M22.71 20.95 C18.92 19.91, 10.66 21.76, 5.24 20.95 M22.71 20.95 C16.2 21.09, 10.41 21.36, 5.24 20.95 M5.24 20.95 C0.42 22.33, -1.79 18.99, 0 15.71 M5.24 20.95 C3.86 19.16, 0.59 21.48, 0 15.71 M0 15.71 C-0.51 12.55, -0.38 9.33, 0 5.24 M0 15.71 C0.23 11.64, -0.24 8.11, 0 5.24 M0 5.24 C1.05 2.87, 2.94 -0.22, 5.24 0 M0 5.24 C0.46 1.74, 3.57 2.1, 5.24 0" stroke="#1e1e1e" stroke-width="2" fill="none"></path></g><g stroke-linecap="round" transform="translate(28.105044809020473 37.022564965653146) rotate(312.47556431009303 25.429687500000007 23.859375)"><path d="M37.72 2.3 C42.53 4.1, 46.22 9.36, 48.15 14.04 C50.07 18.72, 50.79 25.51, 49.28 30.38 C47.77 35.26, 43.43 40.32, 39.09 43.27 C34.75 46.23, 28.48 48.52, 23.23 48.11 C17.99 47.71, 11.58 44.71, 7.63 40.86 C3.68 37.01, -0.02 30.11, -0.46 25.01 C-0.9 19.91, 1.56 14.19, 4.98 10.23 C8.39 6.28, 14.41 2.36, 20.01 1.27 C25.6 0.18, 35.19 2.92, 38.55 3.68 C41.91 4.44, 40.24 5.65, 40.19 5.82 M19.27 1.38 C24.36 -0.13, 31.92 0.57, 36.8 2.65 C41.67 4.74, 46.5 9.07, 48.54 13.88 C50.58 18.7, 50.7 26.59, 49.05 31.53 C47.4 36.47, 42.83 41.1, 38.63 43.53 C34.42 45.95, 29.18 46.38, 23.83 46.09 C18.48 45.81, 10.26 45.04, 6.53 41.81 C2.81 38.58, 1.54 31.86, 1.48 26.69 C1.41 21.53, 2.98 15.06, 6.16 10.84 C9.35 6.61, 18.37 2.85, 20.58 1.35 C22.79 -0.16, 19.74 1.39, 19.4 1.81" stroke="none" stroke-width="0" fill="#a5d8ff"></path><path d="M24.48 0.63 C29.82 0.11, 37.1 2.38, 41.44 5.16 C45.78 7.94, 49.46 12.4, 50.53 17.3 C51.6 22.19, 50.18 29.77, 47.83 34.53 C45.49 39.29, 41.28 43.69, 36.45 45.86 C31.62 48.03, 24.1 48.91, 18.86 47.57 C13.62 46.24, 8.27 42.25, 5 37.86 C1.73 33.46, -1.28 26.43, -0.74 21.2 C-0.2 15.98, 3.38 10.08, 8.22 6.5 C13.06 2.93, 24.62 0.62, 28.31 -0.25 C32 -1.12, 30.52 0.74, 30.35 1.29 M14.88 3.72 C19.41 1.21, 26.49 -1.22, 31.78 -0.02 C37.07 1.17, 43.62 6.78, 46.63 10.9 C49.63 15.02, 50.27 19.86, 49.83 24.68 C49.4 29.5, 47.76 35.8, 44.03 39.82 C40.3 43.84, 33.01 48.34, 27.46 48.8 C21.92 49.25, 15.04 45.46, 10.78 42.55 C6.52 39.63, 3.26 35.89, 1.91 31.31 C0.56 26.72, 0.87 19.79, 2.67 15.03 C4.46 10.27, 10.98 4.64, 12.7 2.74 C14.41 0.84, 12.73 3.12, 12.95 3.62" stroke="#1e1e1e" stroke-width="2" fill="none"></path></g></svg>