<svg version="1.1" xmlns="http://www.w3.org/2000/svg" viewBox="0 0 105.26171875 129.23744184244413" width="105.26171875" height="129.23744184244413">
  <!-- svg-source:excalidraw -->
  
  <defs>
    <style class="style-fonts">
      @font-face {
        font-family: "Virgil";
        src: url("https://excalidraw.com/Virgil.woff2");
      }
      @font-face {
        font-family: "Cascadia";
        src: url("https://excalidraw.com/Cascadia.woff2");
      }
      @font-face {
        font-family: "Assistant";
        src: url("https://excalidraw.com/Assistant-Regular.woff2");
      }
    </style>
    
  </defs>
  <g stroke-linecap="round" transform="translate(10 26.966608509110188) rotate(0 42.630859375 38.322265625)"><path d="M19.16 0 C35.6 -2.15, 52.77 -1.71, 66.1 0 C81.37 -3.23, 84.89 9.7, 85.26 19.16 C84.77 25.59, 84.51 34.24, 85.26 57.48 C84.53 68.74, 77.23 78.92, 66.1 76.64 C47.63 75.83, 32.91 79, 19.16 76.64 C8.41 78.79, -0.39 70.97, 0 57.48 C-3.58 44.28, -2.17 35.83, 0 19.16 C-0.31 8.06, 6.64 0.44, 19.16 0" stroke="none" stroke-width="0" fill="#fd7e14"></path><path d="M19.16 0 C31.33 -0.13, 47.82 -0.63, 66.1 0 M19.16 0 C32.06 1.08, 45.18 0.63, 66.1 0 M66.1 0 C77.95 1.78, 83.65 6.38, 85.26 19.16 M66.1 0 C78.87 -1.83, 83.88 7.75, 85.26 19.16 M85.26 19.16 C85.28 34.81, 86.41 48.5, 85.26 57.48 M85.26 19.16 C86.36 29.69, 84.65 40.74, 85.26 57.48 M85.26 57.48 C85.56 71.65, 78.45 77.19, 66.1 76.64 M85.26 57.48 C83.84 71.47, 78.6 76.07, 66.1 76.64 M66.1 76.64 C53.63 77.88, 38.39 74.93, 19.16 76.64 M66.1 76.64 C53.78 77.72, 42.06 77.84, 19.16 76.64 M19.16 76.64 C8.05 74.83, 0.11 70.84, 0 57.48 M19.16 76.64 C6.28 78.33, -0.77 68.52, 0 57.48 M0 57.48 C-1.86 45.59, -0.56 34.32, 0 19.16 M0 57.48 C0.43 44.04, -0.82 28.45, 0 19.16 M0 19.16 C0.02 5.96, 4.99 1.68, 19.16 0 M0 19.16 C-1.21 4.38, 7.62 0.75, 19.16 0" stroke="#1e1e1e" stroke-width="2" fill="none"></path></g><g stroke-linecap="round" transform="translate(33.66809980384164 104.26087934244413) rotate(0 19.283203125 7.48828125)"><path d="M3.74 0 C11.62 -1.4, 19.2 -2.01, 34.82 0 C37.05 2.39, 36.55 1.91, 38.57 3.74 C38.3 6.2, 38.35 9.31, 38.57 11.23 C37.38 15.37, 38.73 16.57, 34.82 14.98 C23.87 16.2, 14.28 16.38, 3.74 14.98 C0.96 15.49, -0.01 15.8, 0 11.23 C-0.36 8.66, 0 5.82, 0 3.74 C0.18 1.57, 0.95 -0.66, 3.74 0" stroke="none" stroke-width="0" fill="#868e96"></path><path d="M3.74 0 C16.83 -0.11, 28.47 -0.86, 34.82 0 M3.74 0 C11.17 0.07, 19.24 0.31, 34.82 0 M34.82 0 C36.51 0, 38.57 0.45, 38.57 3.74 M34.82 0 C36.63 0.68, 39.24 0.84, 38.57 3.74 M38.57 3.74 C38.81 6.85, 38.55 9.51, 38.57 11.23 M38.57 3.74 C38.44 5.24, 38.63 7.22, 38.57 11.23 M38.57 11.23 C38.35 14, 36.7 15.5, 34.82 14.98 M38.57 11.23 C38.43 13.44, 37.35 15.67, 34.82 14.98 M34.82 14.98 C24.04 14.05, 12.17 15.07, 3.74 14.98 M34.82 14.98 C23.17 15.47, 11.09 14.63, 3.74 14.98 M3.74 14.98 C1.3 15.27, -0.05 14.46, 0 11.23 M3.74 14.98 C0.86 14.11, 0.22 13.67, 0 11.23 M0 11.23 C-0.07 8.79, 0.32 6, 0 3.74 M0 11.23 C-0.15 9.25, -0.02 7.34, 0 3.74 M0 3.74 C-0.7 2.09, 0.72 -0.87, 3.74 0 M0 3.74 C0.62 1.62, 1.74 0.39, 3.74 0" stroke="#1e1e1e" stroke-width="2" fill="none"></path></g><g stroke-linecap="round" transform="translate(33.85397219967513 12.113862296990078) rotate(0 19.283203125 7.48828125)"><path d="M3.74 0 C12.43 -2.06, 17.25 2.66, 34.82 0 C35.31 0.66, 41.14 0.77, 38.57 3.74 C38.34 5.14, 38.1 7.98, 38.57 11.23 C39.98 15.32, 38.72 13.65, 34.82 14.98 C28.06 16.74, 18.09 15.7, 3.74 14.98 C1.24 17.04, 2.37 11.54, 0 11.23 C-0.04 9.8, 0.11 7.58, 0 3.74 C-0.3 0.59, -0.12 1.69, 3.74 0" stroke="none" stroke-width="0" fill="#868e96"></path><path d="M3.74 0 C13.47 -0.82, 22.99 -0.53, 34.82 0 M3.74 0 C15.51 0.38, 27.34 -0.06, 34.82 0 M34.82 0 C37.32 -0.79, 37.97 1.84, 38.57 3.74 M34.82 0 C37.99 -0.41, 39.36 1.34, 38.57 3.74 M38.57 3.74 C38.57 6.94, 38.3 9.98, 38.57 11.23 M38.57 3.74 C38.56 5.57, 38.49 7.18, 38.57 11.23 M38.57 11.23 C37.95 14.25, 37.2 14.73, 34.82 14.98 M38.57 11.23 C38.6 14.42, 37.99 15.99, 34.82 14.98 M34.82 14.98 C23.66 14.84, 14.09 14.94, 3.74 14.98 M34.82 14.98 C23.87 14.64, 12.1 15.24, 3.74 14.98 M3.74 14.98 C1.2 15.71, -0.33 12.97, 0 11.23 M3.74 14.98 C1.47 14.92, 0.68 12.65, 0 11.23 M0 11.23 C0.29 9.01, -0.15 6.7, 0 3.74 M0 11.23 C0.03 8.25, -0.11 5.51, 0 3.74 M0 3.74 C-0.52 0.37, 1.79 0.33, 3.74 0 M0 3.74 C0.49 1.64, 0.33 0.12, 3.74 0" stroke="#343a40" stroke-width="2" fill="none"></path></g><g stroke-linecap="round" transform="translate(39.196555311685415 13.626040698085376) rotate(269.315648468081 13.974609375 10.47265625)"><path d="M5.24 0 C9 3.18, 10.97 1.08, 22.71 0 C29.77 -0.67, 25.85 0.82, 27.95 5.24 C27.05 9, 28.93 11.52, 27.95 15.71 C29.89 17.36, 24.93 21.01, 22.71 20.95 C16.2 21.76, 10.37 23.63, 5.24 20.95 C5.03 17.91, -1.72 17.58, 0 15.71 C0.15 12.42, -0.2 8.18, 0 5.24 C-1.89 4.09, -0.46 -0.43, 5.24 0" stroke="none" stroke-width="0" fill="#a5d8ff"></path><path d="M5.24 0 C9.52 -0.8, 16.95 -1.37, 22.71 0 M5.24 0 C10.49 -0.16, 17.15 -0.85, 22.71 0 M22.71 0 C25 1.18, 29.12 1.03, 27.95 5.24 M22.71 0 C27.79 0.18, 30.14 3.23, 27.95 5.24 M27.95 5.24 C27.14 10.24, 27.17 12.54, 27.95 15.71 M27.95 5.24 C27.85 7.51, 27.64 9.78, 27.95 15.71 M27.95 15.71 C27.71 18.7, 26.27 22.14, 22.71 20.95 M27.95 15.71 C29.3 21.22, 27.3 21.8, 22.71 20.95 M22.71 20.95 C20.76 21.15, 16.87 22.42, 5.24 20.95 M22.71 20.95 C16.15 21.04, 9.46 21.43, 5.24 20.95 M5.24 20.95 C1.08 19.43, 0.39 19.09, 0 15.71 M5.24 20.95 C3.11 18.78, 0.39 18.53, 0 15.71 M0 15.71 C-0.52 12.49, 0.89 7.36, 0 5.24 M0 15.71 C-0.37 13.32, -0.28 9.59, 0 5.24 M0 5.24 C1.08 2.4, 2.6 0.67, 5.24 0 M0 5.24 C-1.85 1.98, -0.06 0.92, 5.24 0" stroke="#1e1e1e" stroke-width="2" fill="none"></path></g><g stroke-linecap="round" transform="translate(27.73856026785711 38.740472132401806) rotate(269.315648468081 25.4296875 23.859375)"><path d="M32.57 1.7 C37.9 2.87, 44.56 7, 47.51 11.27 C50.45 15.55, 50.88 22.45, 50.24 27.35 C49.61 32.25, 47.66 37.26, 43.7 40.65 C39.73 44.04, 32.09 47.43, 26.46 47.7 C20.83 47.96, 14.07 45.38, 9.91 42.22 C5.75 39.05, 2.82 33.48, 1.49 28.7 C0.15 23.93, -0.49 17.96, 1.9 13.57 C4.29 9.17, 10.03 4.34, 15.82 2.32 C21.6 0.31, 32.7 1.27, 36.61 1.47 C40.52 1.68, 39.44 3.19, 39.27 3.57 M35.44 0.26 C40.71 1.89, 45.34 8.89, 47.8 13.36 C50.26 17.83, 51.27 22.41, 50.21 27.06 C49.15 31.72, 45.61 37.93, 41.44 41.27 C37.27 44.61, 30.69 46.78, 25.19 47.09 C19.69 47.39, 12.45 46.14, 8.45 43.13 C4.45 40.11, 1.92 34.3, 1.21 28.98 C0.5 23.67, 1.7 15.8, 4.18 11.22 C6.67 6.64, 11.02 2.98, 16.14 1.49 C21.25 0, 31.74 2.23, 34.85 2.26 C37.96 2.3, 35.01 1.47, 34.78 1.7" stroke="none" stroke-width="0" fill="#a5d8ff"></path><path d="M15.63 1.41 C20.12 -0.83, 27.09 -0.54, 32.07 0.83 C37.05 2.2, 42.29 5.33, 45.5 9.62 C48.71 13.91, 51.76 21.28, 51.35 26.58 C50.93 31.89, 46.96 37.79, 43.01 41.46 C39.07 45.13, 32.93 48.11, 27.66 48.58 C22.4 49.06, 15.92 47.29, 11.44 44.29 C6.96 41.3, 2.42 35.58, 0.79 30.63 C-0.84 25.67, -1.26 19.7, 1.64 14.58 C4.55 9.46, 14.75 2.23, 18.22 -0.08 C21.69 -2.39, 22.12 0.21, 22.47 0.7 M28.72 -0.15 C34.05 0.23, 40.49 4.67, 44.33 8.75 C48.16 12.82, 51.41 19.23, 51.72 24.28 C52.04 29.33, 49.97 35.32, 46.23 39.05 C42.49 42.78, 34.73 45.45, 29.29 46.66 C23.85 47.86, 18.12 48.42, 13.58 46.28 C9.04 44.15, 3.9 38.61, 2.05 33.85 C0.21 29.09, 0.63 22.98, 2.48 17.72 C4.33 12.46, 8.73 5.14, 13.14 2.3 C17.56 -0.54, 26.38 0.75, 28.98 0.66 C31.58 0.58, 28.92 1.66, 28.76 1.79" stroke="#1e1e1e" stroke-width="2" fill="none"></path></g></svg>