<svg version="1.1" xmlns="http://www.w3.org/2000/svg" viewBox="0 0 105.26171875 128.99023202101296" width="105.26171875" height="128.99023202101296">
  <!-- svg-source:excalidraw -->
  
  <defs>
    <style class="style-fonts">
      @font-face {
        font-family: "Virgil";
        src: url("https://excalidraw.com/Virgil.woff2");
      }
      @font-face {
        font-family: "Cascadia";
        src: url("https://excalidraw.com/Cascadia.woff2");
      }
      @font-face {
        font-family: "Assistant";
        src: url("https://excalidraw.com/Assistant-Regular.woff2");
      }
    </style>
    
  </defs>
  <g stroke-linecap="round" transform="translate(10 24.85274621212011) rotate(0 42.630859375 38.322265625)"><path d="M19.16 0 C33.28 -0.48, 45.61 -1.95, 66.1 0 C81.22 -2.2, 84.83 9.23, 85.26 19.16 C88.44 29.97, 87.97 37.22, 85.26 57.48 C88.09 71.86, 78.59 78.25, 66.1 76.64 C52.94 78.76, 49.72 79.68, 19.16 76.64 C9.63 74.26, -3.6 73.31, 0 57.48 C0.56 47.29, -0.63 35.35, 0 19.16 C1.24 3.82, 6.91 -3.14, 19.16 0" stroke="none" stroke-width="0" fill="#fd7e14"></path><path d="M19.16 0 C29.85 0.12, 42.73 1.23, 66.1 0 M19.16 0 C36.37 -0.52, 55.58 0.71, 66.1 0 M66.1 0 C79.11 1.32, 86.94 7.95, 85.26 19.16 M66.1 0 C80.79 -2.08, 85.39 7.06, 85.26 19.16 M85.26 19.16 C84.03 30.87, 85.44 42.99, 85.26 57.48 M85.26 19.16 C85.98 27.8, 85.73 34.52, 85.26 57.48 M85.26 57.48 C86.43 72.11, 77.55 76.05, 66.1 76.64 M85.26 57.48 C85.29 69.76, 77.27 78.57, 66.1 76.64 M66.1 76.64 C55.13 77.75, 43.54 75.29, 19.16 76.64 M66.1 76.64 C50.89 77.53, 36.1 76.73, 19.16 76.64 M19.16 76.64 C8.23 75.1, 0.51 72.24, 0 57.48 M19.16 76.64 C5.96 75.3, -0.59 68.99, 0 57.48 M0 57.48 C1.43 47.86, 1.39 37.14, 0 19.16 M0 57.48 C0.66 48.51, 0.73 38.3, 0 19.16 M0 19.16 C0.4 6.38, 7.98 1.83, 19.16 0 M0 19.16 C-1.94 5.29, 5.35 0.84, 19.16 0" stroke="#1e1e1e" stroke-width="2" fill="none"></path></g><g stroke-linecap="round" transform="translate(33.86899266098408 102.14701704545405) rotate(0 19.283203125 7.48828125)"><path d="M3.74 0 C12.62 -1.32, 24.51 -1.54, 34.82 0 C37.01 2.06, 36 0.35, 38.57 3.74 C39.46 7.43, 39.42 10.13, 38.57 11.23 C38.36 14.89, 34.83 16.55, 34.82 14.98 C24.71 16.76, 12.88 13.4, 3.74 14.98 C-1.35 17.18, 0.51 14.74, 0 11.23 C-0.12 9.71, 0.31 6.21, 0 3.74 C0.38 -1.02, 0.4 -2.07, 3.74 0" stroke="none" stroke-width="0" fill="#868e96"></path><path d="M3.74 0 C13.29 0.58, 22.51 0.47, 34.82 0 M3.74 0 C14.23 0.5, 24.76 0.38, 34.82 0 M34.82 0 C38.16 0.78, 39.4 0.34, 38.57 3.74 M34.82 0 C37.38 0.34, 38.51 2.09, 38.57 3.74 M38.57 3.74 C38.52 5.96, 38.19 7.8, 38.57 11.23 M38.57 3.74 C38.67 5.69, 38.7 7.97, 38.57 11.23 M38.57 11.23 C37.91 13.43, 37.33 14.76, 34.82 14.98 M38.57 11.23 C37.76 14.69, 36.71 13.97, 34.82 14.98 M34.82 14.98 C24.17 14.24, 12.93 14.26, 3.74 14.98 M34.82 14.98 C23.8 15.03, 14.14 14.7, 3.74 14.98 M3.74 14.98 C1.5 15.97, -0.18 13.15, 0 11.23 M3.74 14.98 C0.95 14.35, -0.24 13.24, 0 11.23 M0 11.23 C0.21 9.53, -0.22 7.29, 0 3.74 M0 11.23 C0.09 8.95, 0.02 6.71, 0 3.74 M0 3.74 C0.8 2.16, 0.41 -0.48, 3.74 0 M0 3.74 C-0.52 1.67, 1.15 0.53, 3.74 0" stroke="#1e1e1e" stroke-width="2" fill="none"></path></g><g stroke-linecap="round" transform="translate(34.05486505681802 10) rotate(0 19.283203125 7.48828125)"><path d="M3.74 0 C14.4 -1.38, 21.36 2.27, 34.82 0 C34.75 -0.9, 41.1 3.71, 38.57 3.74 C39.41 7.07, 38.57 9.96, 38.57 11.23 C36.08 15.3, 39.67 12.4, 34.82 14.98 C26.67 13.51, 11.24 17.44, 3.74 14.98 C1.76 15.98, -0.29 14.33, 0 11.23 C0.35 7.86, 0.15 5.03, 0 3.74 C-0.85 -0.83, -0.56 -0.79, 3.74 0" stroke="none" stroke-width="0" fill="#868e96"></path><path d="M3.74 0 C14.04 0.39, 22.95 -1.09, 34.82 0 M3.74 0 C12.04 0.19, 20.63 0.25, 34.82 0 M34.82 0 C38.15 -0.91, 38.62 1.54, 38.57 3.74 M34.82 0 C37.27 0.84, 38.18 0.38, 38.57 3.74 M38.57 3.74 C38.21 6.2, 38.46 8.77, 38.57 11.23 M38.57 3.74 C38.69 6.72, 38.46 9.3, 38.57 11.23 M38.57 11.23 C38.58 13.51, 36.62 15.81, 34.82 14.98 M38.57 11.23 C37.96 12.72, 37.94 15.35, 34.82 14.98 M34.82 14.98 C24.27 14.07, 13.93 14.19, 3.74 14.98 M34.82 14.98 C23.81 14.57, 12 15.46, 3.74 14.98 M3.74 14.98 C1.06 14.39, -0.26 13.18, 0 11.23 M3.74 14.98 C1.01 14.49, -0.53 14.46, 0 11.23 M0 11.23 C-0.21 8.45, -0.02 6.12, 0 3.74 M0 11.23 C0.01 8.56, 0.13 6.07, 0 3.74 M0 3.74 C-0.84 0.77, 0.8 0.37, 3.74 0 M0 3.74 C-0.1 1.78, 1.33 0.14, 3.74 0" stroke="#343a40" stroke-width="2" fill="none"></path></g><g stroke-linecap="round" transform="translate(39.397448168828305 94.41887882292758) rotate(90.684351531919 13.974609375 10.47265625)"><path d="M5.24 0 C9.18 2.68, 10.78 -0.89, 22.71 0 C29.71 3.41, 31.05 4.69, 27.95 5.24 C27.95 9.99, 26.3 14.2, 27.95 15.71 C31.21 15.63, 27.56 23.76, 22.71 20.95 C13.23 23.41, 10.65 21.96, 5.24 20.95 C1.34 21.77, 2.06 18.83, 0 15.71 C0.21 10.23, -0.68 6.54, 0 5.24 C-2.5 0.65, 0.29 2.76, 5.24 0" stroke="none" stroke-width="0" fill="#a5d8ff"></path><path d="M5.24 0 C12.15 -1.83, 17.16 -0.06, 22.71 0 M5.24 0 C12.76 0.57, 19.54 -0.91, 22.71 0 M22.71 0 C26.31 0.58, 27.86 3.21, 27.95 5.24 M22.71 0 C25.44 -1.74, 28.39 1.62, 27.95 5.24 M27.95 5.24 C27.54 9.69, 28.64 13.19, 27.95 15.71 M27.95 5.24 C27.66 7.78, 28.02 10.52, 27.95 15.71 M27.95 15.71 C26.55 20.87, 25.15 19.2, 22.71 20.95 M27.95 15.71 C29.19 19.95, 27.18 21.72, 22.71 20.95 M22.71 20.95 C19.57 19.65, 16.24 19.24, 5.24 20.95 M22.71 20.95 C17.87 21.68, 12.43 20.3, 5.24 20.95 M5.24 20.95 C1.23 19.85, -0.41 18.36, 0 15.71 M5.24 20.95 C0.69 22.4, 1.25 20.61, 0 15.71 M0 15.71 C0.07 12.55, 0.64 8.92, 0 5.24 M0 15.71 C0.4 13.16, -0.46 9.4, 0 5.24 M0 5.24 C-0.9 2.48, 1.57 0.93, 5.24 0 M0 5.24 C0.16 2.03, 1.48 -0.58, 5.24 0" stroke="#1e1e1e" stroke-width="2" fill="none"></path></g><g stroke-linecap="round" transform="translate(27.748046875 42.68335363860933) rotate(90.684351531919 25.4296875 23.859375)"><path d="M20.27 1.16 C25.05 -0.39, 31.66 -0.08, 36.42 2.23 C41.18 4.53, 46.52 10.16, 48.84 15.02 C51.16 19.88, 51.93 26.55, 50.33 31.39 C48.72 36.22, 43.87 41.22, 39.21 44.04 C34.55 46.87, 27.61 49.13, 22.38 48.34 C17.14 47.56, 11.58 43.26, 7.78 39.32 C3.98 35.38, -0.05 29.68, -0.44 24.7 C-0.83 19.72, 1.66 13.52, 5.46 9.45 C9.26 5.38, 19.22 1.81, 22.36 0.3 C25.5 -1.21, 24.36 0.1, 24.3 0.39 M34.75 -0.23 C39.83 1.31, 43.76 8.08, 46.63 12.91 C49.51 17.74, 52.52 23.75, 51.99 28.74 C51.46 33.73, 47.59 39.6, 43.46 42.87 C39.32 46.14, 32.88 48.33, 27.2 48.38 C21.53 48.43, 14.12 46.31, 9.43 43.16 C4.74 40.01, -0.11 34.83, -0.94 29.46 C-1.76 24.09, 1.53 15.37, 4.47 10.93 C7.42 6.49, 11.73 4.2, 16.74 2.81 C21.74 1.42, 31.9 3.04, 34.51 2.6 C37.12 2.17, 32.49 0.01, 32.41 0.21" stroke="none" stroke-width="0" fill="#a5d8ff"></path><path d="M26.29 0.84 C31.45 0.69, 38.83 3.35, 42.71 6.54 C46.6 9.72, 48.78 15.06, 49.6 19.96 C50.42 24.85, 50.13 31.56, 47.64 35.91 C45.15 40.25, 39.98 44.26, 34.67 46.01 C29.36 47.76, 21.02 48.04, 15.79 46.41 C10.55 44.78, 5.97 40.67, 3.25 36.22 C0.54 31.77, -1.47 24.72, -0.52 19.7 C0.43 14.68, 4.17 9.32, 8.95 6.12 C13.72 2.91, 24.85 1.28, 28.13 0.48 C31.41 -0.32, 28.63 1.09, 28.63 1.31 M20.6 1.52 C25.54 0.33, 32.95 -0.35, 37.91 2.19 C42.87 4.73, 48.37 11.61, 50.34 16.75 C52.32 21.9, 52.07 28.39, 49.74 33.09 C47.41 37.79, 41.47 42.51, 36.38 44.97 C31.29 47.43, 24.51 48.71, 19.21 47.85 C13.9 46.98, 7.97 43.89, 4.55 39.77 C1.13 35.65, -1.87 28.58, -1.34 23.1 C-0.8 17.63, 3.85 10.46, 7.75 6.91 C11.64 3.35, 19.75 2.93, 22.03 1.75 C24.31 0.58, 21.51 -0.14, 21.44 -0.14" stroke="#1e1e1e" stroke-width="2" fill="none"></path></g></svg>