<svg version="1.1" xmlns="http://www.w3.org/2000/svg" viewBox="0 0 117.68791852678555 127.12357954545405" width="117.68791852678555" height="127.12357954545405">
  <!-- svg-source:excalidraw -->
  
  <defs>
    <style class="style-fonts">
      @font-face {
        font-family: "Virgil";
        src: url("https://excalidraw.com/Virgil.woff2");
      }
      @font-face {
        font-family: "Cascadia";
        src: url("https://excalidraw.com/Cascadia.woff2");
      }
      @font-face {
        font-family: "Assistant";
        src: url("https://excalidraw.com/Assistant-Regular.woff2");
      }
    </style>
    
  </defs>
  <g stroke-linecap="round" transform="translate(10 24.562567640691668) rotate(0 42.630859375 38.322265625)"><path d="M19.16 0 C34.98 2.22, 55.59 1.33, 66.1 0 C77.34 2.1, 88.59 4.01, 85.26 19.16 C82.75 32.53, 83.38 36.72, 85.26 57.48 C87.2 71.43, 80.41 77.86, 66.1 76.64 C57.23 73.6, 47.96 72.75, 19.16 76.64 C6.02 79.96, -2.79 71.18, 0 57.48 C-0.8 40.21, -0.61 25.37, 0 19.16 C-1.65 8.66, 8.34 2.2, 19.16 0" stroke="none" stroke-width="0" fill="#fd7e14"></path><path d="M19.16 0 C30.19 -0.92, 38.07 -0.65, 66.1 0 M19.16 0 C33.64 -0.44, 48.95 0.51, 66.1 0 M66.1 0 C80.48 -1, 83.4 6.59, 85.26 19.16 M66.1 0 C80.41 2.18, 85.06 7.97, 85.26 19.16 M85.26 19.16 C86.29 34.33, 84.7 48.15, 85.26 57.48 M85.26 19.16 C84.19 29.27, 84.59 39.45, 85.26 57.48 M85.26 57.48 C83.65 70.25, 78.87 75.06, 66.1 76.64 M85.26 57.48 C83.88 71.62, 80.23 75.83, 66.1 76.64 M66.1 76.64 C50.07 78.93, 31.34 78.38, 19.16 76.64 M66.1 76.64 C54.75 75.33, 45.28 76.99, 19.16 76.64 M19.16 76.64 C5.96 77.19, -1.24 71.31, 0 57.48 M19.16 76.64 C6.11 76.07, 0.07 71.64, 0 57.48 M0 57.48 C0.41 41.74, -1.04 30.02, 0 19.16 M0 57.48 C0.79 43.38, 0.79 26.8, 0 19.16 M0 19.16 C0.11 6.97, 6.29 1.46, 19.16 0 M0 19.16 C-0.77 4.65, 6.83 -0.12, 19.16 0" stroke="#1e1e1e" stroke-width="2" fill="none"></path></g><g stroke-linecap="round" transform="translate(33.66809980384164 102.14701704545405) rotate(0 19.283203125 7.48828125)"><path d="M3.74 0 C15.54 0.8, 22.34 1.25, 34.82 0 C39.72 -1.72, 37.79 1.27, 38.57 3.74 C37.99 4.98, 39.02 8.23, 38.57 11.23 C39.67 14.61, 35.23 15.24, 34.82 14.98 C29.74 12.38, 20.78 17.1, 3.74 14.98 C-0.76 15.64, 2.58 13.25, 0 11.23 C-0.17 9.01, -0.42 8.23, 0 3.74 C1.41 2.84, 2.65 -1.33, 3.74 0" stroke="none" stroke-width="0" fill="#868e96"></path><path d="M3.74 0 C10.74 -0.37, 19.15 0.97, 34.82 0 M3.74 0 C15.77 0.48, 28.97 -0.25, 34.82 0 M34.82 0 C36.39 0.1, 39.23 2.2, 38.57 3.74 M34.82 0 C37.22 0.79, 39.72 0.38, 38.57 3.74 M38.57 3.74 C38.54 5.81, 38.42 8.29, 38.57 11.23 M38.57 3.74 C38.45 6.8, 38.38 9.53, 38.57 11.23 M38.57 11.23 C38.57 12.93, 36.72 15.57, 34.82 14.98 M38.57 11.23 C39.24 13.32, 38.11 15.07, 34.82 14.98 M34.82 14.98 C22.48 15.77, 9.5 15.97, 3.74 14.98 M34.82 14.98 C27.88 15.18, 20.68 14.96, 3.74 14.98 M3.74 14.98 C0.63 15.5, -0.12 13.48, 0 11.23 M3.74 14.98 C1.28 15.67, 0.68 14.74, 0 11.23 M0 11.23 C-0.15 8.63, 0.32 6.07, 0 3.74 M0 11.23 C0.12 8.32, -0.02 5.81, 0 3.74 M0 3.74 C-0.05 1.98, 0.91 -0.76, 3.74 0 M0 3.74 C0.22 1.19, 1.93 -1.08, 3.74 0" stroke="#1e1e1e" stroke-width="2" fill="none"></path></g><g stroke-linecap="round" transform="translate(33.85397219967513 10) rotate(0 19.283203125 7.48828125)"><path d="M3.74 0 C14 1.35, 28.87 -1.88, 34.82 0 C36.54 0.03, 38.01 -0.57, 38.57 3.74 C39.04 6.93, 38.93 9.82, 38.57 11.23 C36.48 13.99, 35.28 16.02, 34.82 14.98 C27.29 17.01, 18.28 15.28, 3.74 14.98 C3.83 14.5, -1.52 13.06, 0 11.23 C-0.43 10.01, 0.55 8.16, 0 3.74 C1.41 -0.08, 0.33 0.05, 3.74 0" stroke="none" stroke-width="0" fill="#868e96"></path><path d="M3.74 0 C11.49 0.95, 19.72 -0.73, 34.82 0 M3.74 0 C13.56 -0.4, 22.1 -0.1, 34.82 0 M34.82 0 C37.98 0.95, 38.48 1.93, 38.57 3.74 M34.82 0 C38.47 -0.87, 38.76 2.01, 38.57 3.74 M38.57 3.74 C38.39 5.73, 38.88 7.79, 38.57 11.23 M38.57 3.74 C38.4 6.3, 38.55 8.7, 38.57 11.23 M38.57 11.23 C37.97 14.32, 37.91 14.62, 34.82 14.98 M38.57 11.23 C39.36 13.82, 38.41 15.72, 34.82 14.98 M34.82 14.98 C21.87 15.93, 9.71 14.21, 3.74 14.98 M34.82 14.98 C28.38 15.22, 21.85 15.35, 3.74 14.98 M3.74 14.98 C1.13 14.73, 0.03 14.33, 0 11.23 M3.74 14.98 C1.92 15.99, 0.55 14.16, 0 11.23 M0 11.23 C0.34 9.78, 0.26 8.55, 0 3.74 M0 11.23 C-0.02 8.46, -0.04 5.71, 0 3.74 M0 3.74 C-0.33 0.49, 1.44 -0.05, 3.74 0 M0 3.74 C0.68 0.17, 1.44 -0.34, 3.74 0" stroke="#343a40" stroke-width="2" fill="none"></path></g><g stroke-linecap="round" transform="translate(79.73869977678555 52.35810673701235) rotate(0 13.974609375 10.47265625)"><path d="M5.24 0 C14.1 -2.26, 16.21 -0.15, 22.71 0 C25.43 -2.51, 30.96 -0.14, 27.95 5.24 C28.85 8.1, 26.54 9.88, 27.95 15.71 C25.13 20.65, 23.82 23.44, 22.71 20.95 C16.6 22.04, 18.48 20.65, 5.24 20.95 C-0.35 20.02, -1.98 18.46, 0 15.71 C1.11 14.16, 1.11 9.34, 0 5.24 C-1.28 1.81, 3.64 2.03, 5.24 0" stroke="none" stroke-width="0" fill="#a5d8ff"></path><path d="M5.24 0 C11.42 -1.56, 14.17 -1.51, 22.71 0 M5.24 0 C11.37 0.17, 19.72 0.92, 22.71 0 M22.71 0 C26.03 1.37, 29.95 0.24, 27.95 5.24 M22.71 0 C26.6 1.52, 27.77 1.43, 27.95 5.24 M27.95 5.24 C28.8 6.6, 28.33 9.29, 27.95 15.71 M27.95 5.24 C27.86 8.9, 27.55 13.7, 27.95 15.71 M27.95 15.71 C29.12 18.49, 27.58 21.1, 22.71 20.95 M27.95 15.71 C30.14 20.68, 28.32 20.81, 22.71 20.95 M22.71 20.95 C15.04 19.58, 8.29 21.35, 5.24 20.95 M22.71 20.95 C15.71 21.45, 9.68 20.78, 5.24 20.95 M5.24 20.95 C1.81 22.14, 1.17 20.96, 0 15.71 M5.24 20.95 C2.85 21.8, -2.29 18.39, 0 15.71 M0 15.71 C0.6 13.43, 0.73 10.26, 0 5.24 M0 15.71 C-0.03 13.9, -0.18 10.93, 0 5.24 M0 5.24 C0.39 1.64, 2.93 -1.88, 5.24 0 M0 5.24 C0.39 1.07, 3.26 1.72, 5.24 0" stroke="#1e1e1e" stroke-width="2" fill="none"></path></g><g stroke-linecap="round" transform="translate(29.939871651785552 38.31904423701235) rotate(0 25.4296875 23.859375)"><path d="M31.1 0.7 C36.3 1.74, 43.42 5.6, 46.81 9.85 C50.2 14.11, 51.84 21.02, 51.47 26.24 C51.1 31.46, 48.62 37.61, 44.59 41.18 C40.57 44.74, 32.81 47.21, 27.31 47.63 C21.81 48.04, 15.87 46.56, 11.61 43.66 C7.35 40.76, 3.46 35.09, 1.75 30.22 C0.05 25.35, -0.67 18.99, 1.39 14.46 C3.45 9.93, 8.13 4.9, 14.11 3.06 C20.1 1.22, 32.44 2.51, 37.31 3.43 C42.18 4.34, 43.25 8.14, 43.32 8.53 M19.07 0.09 C23.92 -1.52, 32.5 -0.24, 37.31 2.43 C42.12 5.1, 46 11.53, 47.93 16.1 C49.85 20.67, 50.21 25.1, 48.85 29.84 C47.5 34.58, 44.16 41.51, 39.78 44.54 C35.41 47.56, 28.35 48.75, 22.61 48 C16.88 47.25, 9.35 43.81, 5.39 40.03 C1.42 36.26, -0.98 30.34, -1.16 25.38 C-1.33 20.42, 1.03 14.44, 4.35 10.27 C7.66 6.11, 15.85 2.12, 18.71 0.38 C21.58 -1.35, 21.17 -0.82, 21.55 -0.16" stroke="none" stroke-width="0" fill="#a5d8ff"></path><path d="M15.33 0.83 C19.86 -1.3, 27.89 0.11, 33.31 1.81 C38.74 3.52, 44.9 6.68, 47.9 11.07 C50.9 15.45, 52.33 23, 51.31 28.11 C50.28 33.21, 45.79 38.46, 41.75 41.71 C37.71 44.97, 32.4 47.6, 27.05 47.62 C21.71 47.65, 14.19 45.09, 9.7 41.87 C5.21 38.66, 1.09 33.35, 0.1 28.35 C-0.88 23.34, 0.71 16.49, 3.8 11.85 C6.89 7.22, 15.65 2.48, 18.62 0.52 C21.6 -1.44, 21.6 -0.37, 21.65 0.09 M16.47 1.32 C21.44 -0.96, 28.71 -0.58, 34 1.19 C39.3 2.95, 45.24 7.65, 48.24 11.92 C51.25 16.18, 52.8 22.06, 52.04 26.78 C51.28 31.5, 47.68 36.93, 43.66 40.23 C39.64 43.53, 33.75 46.38, 27.93 46.58 C22.11 46.77, 13.26 44.14, 8.74 41.41 C4.23 38.68, 1.89 34.85, 0.85 30.17 C-0.19 25.5, 0.2 17.94, 2.5 13.35 C4.81 8.76, 12.48 4.55, 14.67 2.65 C16.85 0.74, 15.28 1.54, 15.61 1.93" stroke="#1e1e1e" stroke-width="2" fill="none"></path></g></svg>