<svg version="1.1" xmlns="http://www.w3.org/2000/svg" viewBox="0 0 116.80622209821377 127.12357954545405" width="116.80622209821377" height="127.12357954545405">
  <!-- svg-source:excalidraw -->
  
  <defs>
    <style class="style-fonts">
      @font-face {
        font-family: "Virgil";
        src: url("https://excalidraw.com/Virgil.woff2");
      }
      @font-face {
        font-family: "Cascadia";
        src: url("https://excalidraw.com/Cascadia.woff2");
      }
      @font-face {
        font-family: "Assistant";
        src: url("https://excalidraw.com/Assistant-Regular.woff2");
      }
    </style>
    
  </defs>
  <g stroke-linecap="round" transform="translate(21.544503348213766 24.85274621212011) rotate(0 42.630859375 38.322265625)"><path d="M19.16 0 C33.3 1.49, 41.19 -1.73, 66.1 0 C78.94 1.9, 87.29 8.53, 85.26 19.16 C88.26 33.52, 82.37 39.59, 85.26 57.48 C83.64 71.57, 78.57 78.32, 66.1 76.64 C50.78 74.66, 39.63 74.34, 19.16 76.64 C5.96 79.49, -3.56 69.02, 0 57.48 C2.3 44.89, 2.17 28.61, 0 19.16 C-0.29 8, 2.95 2.18, 19.16 0" stroke="none" stroke-width="0" fill="#fd7e14"></path><path d="M19.16 0 C29.71 1.1, 41.84 1.63, 66.1 0 M19.16 0 C36.91 -0.74, 54.22 -0.71, 66.1 0 M66.1 0 C77.15 -1.92, 85.56 7.78, 85.26 19.16 M66.1 0 C78.39 0.63, 83.84 7.6, 85.26 19.16 M85.26 19.16 C86.37 31.37, 86.92 42.18, 85.26 57.48 M85.26 19.16 C84.9 32.96, 85 45.66, 85.26 57.48 M85.26 57.48 C86.94 71.82, 80.54 74.83, 66.1 76.64 M85.26 57.48 C85.39 70.93, 78.77 78.33, 66.1 76.64 M66.1 76.64 C53.48 77.92, 39.19 77.07, 19.16 76.64 M66.1 76.64 C53.8 76.57, 41.26 77.92, 19.16 76.64 M19.16 76.64 C5.07 76.05, 0.02 69.83, 0 57.48 M19.16 76.64 C4.78 78.57, -1.21 68.25, 0 57.48 M0 57.48 C0.55 42.32, 0.08 28.8, 0 19.16 M0 57.48 C-0.64 44.34, 1.17 30.63, 0 19.16 M0 19.16 C0.51 8.37, 6.02 -1.17, 19.16 0 M0 19.16 C-0.59 5.12, 5.92 -0.97, 19.16 0" stroke="#1e1e1e" stroke-width="2" fill="none"></path></g><g stroke-linecap="round" transform="translate(45.41349600919875 102.14701704545405) rotate(0 19.283203125 7.48828125)"><path d="M3.74 0 C13.42 -1.14, 25.82 1.15, 34.82 0 C38.78 1.55, 38.28 1.76, 38.57 3.74 C37.82 5.52, 38.2 8.59, 38.57 11.23 C38.34 14.94, 37.5 15.3, 34.82 14.98 C27.55 13.17, 16.58 16.82, 3.74 14.98 C-1.32 14.08, 2.54 16.19, 0 11.23 C0.68 8.77, -0.16 5.89, 0 3.74 C-2.48 2.82, 3.6 -2.58, 3.74 0" stroke="none" stroke-width="0" fill="#868e96"></path><path d="M3.74 0 C14.97 0.84, 26.69 0.81, 34.82 0 M3.74 0 C13.31 -0.25, 21.59 -0.36, 34.82 0 M34.82 0 C37.47 0.7, 38.35 1.52, 38.57 3.74 M34.82 0 C36.61 0.6, 38.43 0.96, 38.57 3.74 M38.57 3.74 C38.92 6.19, 38.73 7.91, 38.57 11.23 M38.57 3.74 C38.59 5.85, 38.72 7.86, 38.57 11.23 M38.57 11.23 C39.4 12.82, 37.37 15.27, 34.82 14.98 M38.57 11.23 C38.51 14.57, 36.93 14.11, 34.82 14.98 M34.82 14.98 C23.96 15.24, 14.68 15.73, 3.74 14.98 M34.82 14.98 C23.46 15.37, 11.19 14.76, 3.74 14.98 M3.74 14.98 C1.26 14.76, -0.7 14.57, 0 11.23 M3.74 14.98 C0.64 13.97, 0.62 14.1, 0 11.23 M0 11.23 C0.02 8.37, 0.14 5.85, 0 3.74 M0 11.23 C0.21 8.32, 0.08 5.89, 0 3.74 M0 3.74 C-0.18 0.67, 0.99 -0.55, 3.74 0 M0 3.74 C-0.24 0.76, 0.72 0.73, 3.74 0" stroke="#1e1e1e" stroke-width="2" fill="none"></path></g><g stroke-linecap="round" transform="translate(45.59936840503178 10) rotate(0 19.283203125 7.48828125)"><path d="M3.74 0 C14.8 1.51, 27.21 1.69, 34.82 0 C37.03 0.52, 38.56 3.32, 38.57 3.74 C38.05 7.03, 38.4 10.06, 38.57 11.23 C38.75 14.05, 37.02 14.32, 34.82 14.98 C26.82 16.79, 16.87 13.83, 3.74 14.98 C3.78 17.44, 2.24 15.86, 0 11.23 C-0.15 8.87, -1.01 6.23, 0 3.74 C2.36 -1.33, 2.23 2.03, 3.74 0" stroke="none" stroke-width="0" fill="#868e96"></path><path d="M3.74 0 C15.86 0.77, 26.62 0.5, 34.82 0 M3.74 0 C10.25 -0.37, 17.7 0.46, 34.82 0 M34.82 0 C37.11 0.27, 37.95 1.77, 38.57 3.74 M34.82 0 C37.18 -0.28, 38.6 1.94, 38.57 3.74 M38.57 3.74 C38.74 6.06, 38.47 9.12, 38.57 11.23 M38.57 3.74 C38.73 6.8, 38.73 9.39, 38.57 11.23 M38.57 11.23 C38.62 14.02, 37.27 15.71, 34.82 14.98 M38.57 11.23 C38.18 12.86, 37.54 14.92, 34.82 14.98 M34.82 14.98 C23.36 15.66, 13.24 15.41, 3.74 14.98 M34.82 14.98 C26.49 14.97, 18.83 15.01, 3.74 14.98 M3.74 14.98 C0.55 15.81, -0.52 12.85, 0 11.23 M3.74 14.98 C1.87 15.35, 0.49 14.12, 0 11.23 M0 11.23 C0.15 9.34, 0.26 7.61, 0 3.74 M0 11.23 C0.01 9.25, -0.07 6.79, 0 3.74 M0 3.74 C-0.26 0.7, 1.04 -0.42, 3.74 0 M0 3.74 C-0.53 1.98, 1.87 0.7, 3.74 0" stroke="#343a40" stroke-width="2" fill="none"></path></g><g stroke-linecap="round" transform="translate(10 53.475852272726115) rotate(0 13.974609375 10.47265625)"><path d="M5.24 0 C11.63 1.71, 14.14 0.46, 22.71 0 C26.19 2.86, 31.24 -1.29, 27.95 5.24 C27.7 8.75, 27.99 10.75, 27.95 15.71 C27.53 18.29, 24.31 23.29, 22.71 20.95 C15.43 20.11, 17.43 24.18, 5.24 20.95 C4.84 23.89, 2.64 22.03, 0 15.71 C-1.79 13.24, 1.72 6.63, 0 5.24 C1.35 4.56, 4.01 3.24, 5.24 0" stroke="none" stroke-width="0" fill="#a5d8ff"></path><path d="M5.24 0 C12.04 0.97, 17.71 1.33, 22.71 0 M5.24 0 C9.31 0.78, 12.94 0.41, 22.71 0 M22.71 0 C24.97 1.05, 27.71 1.25, 27.95 5.24 M22.71 0 C26.27 1.38, 29.3 3.76, 27.95 5.24 M27.95 5.24 C27.62 8.9, 28.91 12.65, 27.95 15.71 M27.95 5.24 C28.47 8.59, 28.07 13.05, 27.95 15.71 M27.95 15.71 C27.86 20.66, 25.54 19.43, 22.71 20.95 M27.95 15.71 C28.39 19.08, 27.57 18.78, 22.71 20.95 M22.71 20.95 C18.48 21.77, 10.89 22.08, 5.24 20.95 M22.71 20.95 C15.86 20.7, 8.39 21.62, 5.24 20.95 M5.24 20.95 C0.7 19.2, 1.08 19.85, 0 15.71 M5.24 20.95 C2.73 21.72, -1.85 19.43, 0 15.71 M0 15.71 C0.68 12.45, -0.15 12.03, 0 5.24 M0 15.71 C-0.12 13.07, -0.16 10.76, 0 5.24 M0 5.24 C-0.41 0.9, 0.83 1.26, 5.24 0 M0 5.24 C1.25 3.15, 2.99 -1.18, 5.24 0" stroke="#1e1e1e" stroke-width="2" fill="none"></path></g><g stroke-linecap="round" transform="translate(36.888671875 39.436789772726115) rotate(0 25.4296875 23.859375)"><path d="M30.91 -0.24 C36.04 0.51, 42.49 4.55, 45.93 8.58 C49.36 12.6, 51.83 18.51, 51.53 23.88 C51.24 29.25, 48.07 36.83, 44.16 40.81 C40.26 44.79, 33.32 47.24, 28.1 47.75 C22.89 48.26, 17.45 46.67, 12.87 43.86 C8.29 41.05, 2.56 35.76, 0.63 30.89 C-1.29 26.02, -0.75 19.4, 1.34 14.64 C3.42 9.87, 7.28 4.29, 13.15 2.3 C19.01 0.3, 31.91 2.11, 36.52 2.66 C41.14 3.2, 41.19 5.36, 40.82 5.58 M26.56 -0.16 C31.66 -0.56, 38.07 2.14, 42.26 5.72 C46.45 9.3, 51.07 16.38, 51.71 21.31 C52.34 26.23, 49.15 31, 46.07 35.27 C42.99 39.53, 38.17 44.97, 33.22 46.9 C28.28 48.84, 21.35 48.75, 16.38 46.9 C11.41 45.04, 6.08 40.41, 3.39 35.78 C0.7 31.15, -0.59 24.01, 0.26 19.11 C1.1 14.22, 4.4 9.63, 8.48 6.41 C12.56 3.2, 21.69 1.06, 24.75 -0.18 C27.81 -1.41, 26.79 -1.67, 26.85 -1" stroke="none" stroke-width="0" fill="#a5d8ff"></path><path d="M34.98 2.28 C40.07 4.12, 46.51 8.86, 49.07 13.35 C51.62 17.83, 51.72 24.22, 50.33 29.19 C48.95 34.15, 45.27 40.06, 40.75 43.14 C36.23 46.23, 28.64 47.95, 23.22 47.68 C17.8 47.4, 11.93 44.99, 8.23 41.49 C4.53 37.98, 1.57 32.01, 1 26.66 C0.43 21.3, 1.95 13.67, 4.82 9.37 C7.7 5.08, 12.66 1.96, 18.25 0.89 C23.84 -0.18, 34.85 2.3, 38.36 2.97 C41.88 3.63, 39.56 4.43, 39.34 4.9 M14.23 3.51 C18.64 0.84, 25.75 -1.46, 31.1 -0.42 C36.44 0.62, 42.87 5.68, 46.3 9.77 C49.73 13.86, 52.08 19.09, 51.69 24.13 C51.3 29.17, 47.74 35.91, 43.96 40.01 C40.19 44.1, 34.42 48.22, 29.06 48.71 C23.7 49.21, 16.34 45.81, 11.81 42.99 C7.27 40.17, 3.62 36.69, 1.86 31.81 C0.09 26.92, -0.86 18.65, 1.21 13.69 C3.29 8.74, 12.27 3.68, 14.31 2.08 C16.36 0.48, 13.42 3.9, 13.47 4.09" stroke="#1e1e1e" stroke-width="2" fill="none"></path></g></svg>