<svg version="1.1" xmlns="http://www.w3.org/2000/svg" viewBox="0 0 106.68100249304894 127.12357954545405" width="106.68100249304894" height="127.12357954545405">
  <!-- svg-source:excalidraw -->
  
  <defs>
    <style class="style-fonts">
      @font-face {
        font-family: "Virgil";
        src: url("https://excalidraw.com/Virgil.woff2");
      }
      @font-face {
        font-family: "Cascadia";
        src: url("https://excalidraw.com/Cascadia.woff2");
      }
      @font-face {
        font-family: "Assistant";
        src: url("https://excalidraw.com/Assistant-Regular.woff2");
      }
    </style>
    
  </defs>
  <g stroke-linecap="round" transform="translate(10 24.562567640691668) rotate(0 42.630859375 38.322265625)"><path d="M19.16 0 C29.37 -2.52, 44.14 -1.9, 66.1 0 C75.73 1.94, 86.43 7.92, 85.26 19.16 C81.89 33.4, 82.33 47.23, 85.26 57.48 C82.03 69.89, 82.19 73.86, 66.1 76.64 C48.72 75.56, 33.57 75.75, 19.16 76.64 C4.87 75, 2.28 72.21, 0 57.48 C-1.65 43.71, 1.52 31.83, 0 19.16 C2.15 5.99, 7.1 -0.01, 19.16 0" stroke="none" stroke-width="0" fill="#fd7e14"></path><path d="M19.16 0 C31.42 1.97, 38.78 -1.5, 66.1 0 M19.16 0 C33.62 0.24, 49.26 -1.2, 66.1 0 M66.1 0 C79.22 1.32, 85.1 6.12, 85.26 19.16 M66.1 0 C76.96 -1.08, 84.01 8.37, 85.26 19.16 M85.26 19.16 C87.2 25.72, 85.42 35.5, 85.26 57.48 M85.26 19.16 C85.62 27.26, 85.72 36.14, 85.26 57.48 M85.26 57.48 C87.16 71.54, 80.72 76.53, 66.1 76.64 M85.26 57.48 C86.75 68.49, 80.84 74.94, 66.1 76.64 M66.1 76.64 C57.47 76.29, 46.6 75.48, 19.16 76.64 M66.1 76.64 C49.58 77.13, 33.59 77.41, 19.16 76.64 M19.16 76.64 C7.34 77.39, -1.99 69.56, 0 57.48 M19.16 76.64 C6.42 78.68, 0.27 71.77, 0 57.48 M0 57.48 C-2.11 42.88, 0.28 27.96, 0 19.16 M0 57.48 C0.32 43.13, 0.72 27.94, 0 19.16 M0 19.16 C0.34 5.8, 7.7 1.5, 19.16 0 M0 19.16 C0.94 5.41, 7.73 2.13, 19.16 0" stroke="#1e1e1e" stroke-width="2" fill="none"></path></g><g stroke-linecap="round" transform="translate(33.66809980384164 102.14701704545405) rotate(0 19.283203125 7.48828125)"><path d="M3.74 0 C15.28 -1.08, 20.18 1.68, 34.82 0 C38.16 1.11, 39.44 -0.84, 38.57 3.74 C37.85 6.74, 37.62 8.29, 38.57 11.23 C40.96 11.72, 37.98 17.55, 34.82 14.98 C24.65 14.34, 16.23 13.68, 3.74 14.98 C2.89 16.39, 1.59 15.13, 0 11.23 C0.55 9.92, 0.62 7.4, 0 3.74 C0.52 1.24, 3.32 2.37, 3.74 0" stroke="none" stroke-width="0" fill="#868e96"></path><path d="M3.74 0 C10.16 -1.06, 17.68 0.54, 34.82 0 M3.74 0 C16.51 -0.48, 28.37 0.22, 34.82 0 M34.82 0 C37.24 -0.14, 37.74 0.78, 38.57 3.74 M34.82 0 C36.69 0.99, 37.57 1.72, 38.57 3.74 M38.57 3.74 C38.6 5.64, 38.3 7.32, 38.57 11.23 M38.57 3.74 C38.72 6.45, 38.77 9.24, 38.57 11.23 M38.57 11.23 C39.49 13.67, 37.96 14.21, 34.82 14.98 M38.57 11.23 C39.55 12.87, 36.32 13.87, 34.82 14.98 M34.82 14.98 C25.31 14.33, 15.78 14.82, 3.74 14.98 M34.82 14.98 C26.56 15.51, 17.95 15.26, 3.74 14.98 M3.74 14.98 C0.25 14.63, 0.02 14.61, 0 11.23 M3.74 14.98 C1.38 15.74, 0.97 14.63, 0 11.23 M0 11.23 C0.14 8.34, 0.31 5.37, 0 3.74 M0 11.23 C0.1 9.38, 0.02 7.82, 0 3.74 M0 3.74 C0.66 2, 1.66 -0.43, 3.74 0 M0 3.74 C0.67 2.31, 0.49 -0.34, 3.74 0" stroke="#1e1e1e" stroke-width="2" fill="none"></path></g><g stroke-linecap="round" transform="translate(33.85397219967513 10) rotate(0 19.283203125 7.48828125)"><path d="M3.74 0 C8.62 1.61, 18.89 1.32, 34.82 0 C38.2 -2.09, 38.83 -0.79, 38.57 3.74 C37.63 6.19, 39.4 8.09, 38.57 11.23 C39.23 16.31, 36.84 13.46, 34.82 14.98 C25.2 13.7, 19.42 16.31, 3.74 14.98 C2.84 16.38, -1.33 12.81, 0 11.23 C0.53 8.87, 0.14 6.71, 0 3.74 C2.07 3.62, -0.94 -1.24, 3.74 0" stroke="none" stroke-width="0" fill="#868e96"></path><path d="M3.74 0 C15.66 0.81, 28.32 0.06, 34.82 0 M3.74 0 C15.29 0.45, 26.62 0.05, 34.82 0 M34.82 0 C36.49 -0.47, 38.02 2.11, 38.57 3.74 M34.82 0 C36.32 0.47, 38.03 2.27, 38.57 3.74 M38.57 3.74 C38.27 5.16, 38.79 7.25, 38.57 11.23 M38.57 3.74 C38.77 5.84, 38.76 7.69, 38.57 11.23 M38.57 11.23 C39.21 12.96, 38.17 14.23, 34.82 14.98 M38.57 11.23 C37.57 12.62, 37.49 15.78, 34.82 14.98 M34.82 14.98 C26.68 14.76, 17.24 14.91, 3.74 14.98 M34.82 14.98 C23.87 15.3, 11.95 14.94, 3.74 14.98 M3.74 14.98 C1.26 15.86, 0.12 14.39, 0 11.23 M3.74 14.98 C2.21 15.87, 0.96 12.69, 0 11.23 M0 11.23 C0.26 8.82, -0.29 6.73, 0 3.74 M0 11.23 C0.01 8.97, 0.1 6.96, 0 3.74 M0 3.74 C0.41 0.82, 1.83 0.92, 3.74 0 M0 3.74 C-0.76 0.9, 1.26 -0.25, 3.74 0" stroke="#343a40" stroke-width="2" fill="none"></path></g><g stroke-linecap="round" transform="translate(65.54540998228754 23.860949680865815) rotate(312.47556431009303 13.974609375 10.47265625)"><path d="M5.24 0 C10.58 1.17, 14.95 -2.69, 22.71 0 C26.56 -2.82, 29.4 -0.64, 27.95 5.24 C29.52 7.64, 28.26 14.84, 27.95 15.71 C27.28 17.1, 25.27 18.97, 22.71 20.95 C19.82 22.51, 14.87 22.5, 5.24 20.95 C-0.1 19.67, 0.07 21.1, 0 15.71 C0.26 11.97, 1.39 9.97, 0 5.24 C-3.03 0.02, 0.12 1.32, 5.24 0" stroke="none" stroke-width="0" fill="#a5d8ff"></path><path d="M5.24 0 C10.51 -0.27, 13.67 1.63, 22.71 0 M5.24 0 C9.09 -0.23, 12.36 -0.53, 22.71 0 M22.71 0 C25.12 1.72, 26.21 2.57, 27.95 5.24 M22.71 0 C25.14 2.05, 26.1 1.74, 27.95 5.24 M27.95 5.24 C28.49 8.99, 27.49 12.24, 27.95 15.71 M27.95 5.24 C28.53 8.43, 28.39 11.28, 27.95 15.71 M27.95 15.71 C29.65 17.72, 24.48 19.02, 22.71 20.95 M27.95 15.71 C28.29 20.81, 25.72 21.57, 22.71 20.95 M22.71 20.95 C18.12 20.98, 15.43 21.95, 5.24 20.95 M22.71 20.95 C15.06 20.7, 9.17 21.78, 5.24 20.95 M5.24 20.95 C1.98 22.26, 1.68 20.76, 0 15.71 M5.24 20.95 C3.66 18.86, 0.12 19.87, 0 15.71 M0 15.71 C-0.87 12.82, -0.13 10.14, 0 5.24 M0 15.71 C0.33 13.95, 0.2 11.17, 0 5.24 M0 5.24 C1.17 3.59, 0.42 -0.6, 5.24 0 M0 5.24 C0.02 1.25, 0.14 1.93, 5.24 0" stroke="#1e1e1e" stroke-width="2" fill="none"></path></g><g stroke-linecap="round" transform="translate(27.716582684028936 38.54130475837155) rotate(312.47556431009303 25.4296875 23.859375)"><path d="M36.01 1.99 C41.15 3.61, 46.76 8.38, 48.99 13.01 C51.22 17.64, 50.8 24.65, 49.36 29.77 C47.93 34.89, 44.81 40.71, 40.37 43.72 C35.94 46.73, 28.25 48.17, 22.78 47.83 C17.3 47.5, 11.16 45.22, 7.52 41.72 C3.87 38.22, 1.5 31.91, 0.9 26.82 C0.29 21.72, 0.82 15.57, 3.89 11.15 C6.95 6.73, 12.96 1.16, 19.28 0.28 C25.61 -0.6, 37.31 4.11, 41.83 5.87 C46.34 7.63, 46.49 10.63, 46.4 10.84 M15.3 2.75 C19.52 0.36, 25.83 -0.38, 30.79 0.96 C35.75 2.29, 41.91 6.43, 45.07 10.76 C48.24 15.09, 50.27 21.99, 49.77 26.96 C49.27 31.92, 45.54 37.31, 42.08 40.56 C38.63 43.81, 34.19 45.74, 29.05 46.46 C23.91 47.19, 15.99 47.78, 11.24 44.9 C6.5 42.02, 2.14 34.5, 0.59 29.18 C-0.95 23.86, -0.31 17.57, 1.99 12.97 C4.28 8.38, 12.32 3.17, 14.36 1.61 C16.39 0.05, 13.83 3.01, 14.19 3.63" stroke="none" stroke-width="0" fill="#a5d8ff"></path><path d="M38.27 2.84 C43.07 4.73, 47.18 9.65, 48.97 14.33 C50.77 19.01, 50.63 26.1, 49.06 30.93 C47.49 35.77, 44.04 40.69, 39.53 43.36 C35.03 46.04, 27.41 47.74, 22.03 46.99 C16.65 46.23, 10.91 42.59, 7.24 38.83 C3.57 35.07, 0.42 29.51, 0.01 24.43 C-0.41 19.36, 1.27 12.26, 4.77 8.37 C8.27 4.47, 14.88 1.39, 21 1.06 C27.13 0.72, 37.5 4.79, 41.52 6.35 C45.54 7.91, 45.25 10.06, 45.14 10.41 M25.96 -1.1 C30.75 -1.6, 35.8 0.17, 39.9 3.7 C44 7.23, 49.29 14.76, 50.56 20.07 C51.82 25.39, 50.28 31.13, 47.5 35.59 C44.72 40.04, 38.94 45.06, 33.9 46.82 C28.86 48.58, 22.27 47.73, 17.26 46.14 C12.25 44.55, 6.52 41.36, 3.84 37.29 C1.15 33.22, 0.25 26.84, 1.15 21.73 C2.05 16.61, 5.56 10.3, 9.24 6.6 C12.91 2.89, 20.61 0.28, 23.19 -0.52 C25.77 -1.31, 24.43 1.16, 24.72 1.81" stroke="#1e1e1e" stroke-width="2" fill="none"></path></g></svg>