<svg version="1.1" xmlns="http://www.w3.org/2000/svg" viewBox="0 0 107.17653820733494 127.12357954545405" width="107.17653820733494" height="127.12357954545405">
  <!-- svg-source:excalidraw -->
  
  <defs>
    <style class="style-fonts">
      @font-face {
        font-family: "Virgil";
        src: url("https://excalidraw.com/Virgil.woff2");
      }
      @font-face {
        font-family: "Cascadia";
        src: url("https://excalidraw.com/Cascadia.woff2");
      }
      @font-face {
        font-family: "Assistant";
        src: url("https://excalidraw.com/Assistant-Regular.woff2");
      }
    </style>
    
  </defs>
  <g stroke-linecap="round" transform="translate(10 24.85274621212102) rotate(0 42.630859375 38.322265625)"><path d="M19.16 0 C34.6 -1.07, 57.71 -0.13, 66.1 0 C79.17 1.28, 87.08 4.29, 85.26 19.16 C82.77 29.07, 83.36 38.27, 85.26 57.48 C84.33 67.81, 79.27 76.69, 66.1 76.64 C55.36 80.08, 40.55 77.25, 19.16 76.64 C6.75 74.8, 1.72 72.94, 0 57.48 C-1.91 41.47, -1.49 29.37, 0 19.16 C-3.07 3.52, 8.66 -2.96, 19.16 0" stroke="none" stroke-width="0" fill="#7950f2"></path><path d="M19.16 0 C31.49 1.95, 43.67 -0.74, 66.1 0 M19.16 0 C34.91 -0.73, 49.03 0.34, 66.1 0 M66.1 0 C79.45 -1.43, 86.78 6.91, 85.26 19.16 M66.1 0 C79.08 -1.68, 84.83 5.38, 85.26 19.16 M85.26 19.16 C84.1 34.1, 85.73 48.78, 85.26 57.48 M85.26 19.16 C85.27 32.11, 84.63 46.82, 85.26 57.48 M85.26 57.48 C85.51 70.84, 77.38 76.53, 66.1 76.64 M85.26 57.48 C83.91 71.63, 79.17 74.84, 66.1 76.64 M66.1 76.64 C49.55 75.84, 36.19 78.12, 19.16 76.64 M66.1 76.64 C53.8 77, 42.43 76.29, 19.16 76.64 M19.16 76.64 C7.87 74.93, 1.16 69.1, 0 57.48 M19.16 76.64 C4.16 77, 0.72 71.05, 0 57.48 M0 57.48 C1.42 47.75, -1.55 34.05, 0 19.16 M0 57.48 C-1.03 48.27, 0.57 40.2, 0 19.16 M0 19.16 C0.07 6.01, 6.44 -1.51, 19.16 0 M0 19.16 C-1.85 7.58, 4.38 2.25, 19.16 0" stroke="#1e1e1e" stroke-width="2" fill="none"></path></g><g stroke-linecap="round" transform="translate(33.86899266098453 102.14701704545405) rotate(0 19.283203125 7.48828125)"><path d="M3.74 0 C17.87 0.52, 28.53 0.95, 34.82 0 C38.63 -1.52, 38.2 3.62, 38.57 3.74 C37.8 4.95, 38.23 7.02, 38.57 11.23 C38.85 13.76, 36.13 17.5, 34.82 14.98 C21.61 15.19, 11.09 13.95, 3.74 14.98 C2.49 16.91, 2.16 13.14, 0 11.23 C-0.39 9.43, -0.77 6.17, 0 3.74 C1.64 -0.89, 1.11 -0.41, 3.74 0" stroke="none" stroke-width="0" fill="#868e96"></path><path d="M3.74 0 C12.31 -0.61, 19.7 -0.64, 34.82 0 M3.74 0 C12.2 0.23, 20.59 -0.22, 34.82 0 M34.82 0 C38.08 0.26, 38.66 0.52, 38.57 3.74 M34.82 0 C37.1 -0.5, 39.37 1.59, 38.57 3.74 M38.57 3.74 C38.61 6.94, 38.74 9.4, 38.57 11.23 M38.57 3.74 C38.51 5.61, 38.6 7.26, 38.57 11.23 M38.57 11.23 C37.82 13.67, 36.73 15.57, 34.82 14.98 M38.57 11.23 C38.71 12.83, 37.58 14.54, 34.82 14.98 M34.82 14.98 C25.56 15.64, 15.46 14.31, 3.74 14.98 M34.82 14.98 C23.4 14.62, 11.86 14.55, 3.74 14.98 M3.74 14.98 C1.83 14.4, -0.97 13.88, 0 11.23 M3.74 14.98 C1.61 15.37, 0 14.63, 0 11.23 M0 11.23 C-0.27 9.48, -0.27 8.21, 0 3.74 M0 11.23 C0.19 8.48, 0.03 5.41, 0 3.74 M0 3.74 C0.03 0.49, 0.45 0.52, 3.74 0 M0 3.74 C-1 2.37, 2.21 0.8, 3.74 0" stroke="#1e1e1e" stroke-width="2" fill="none"></path></g><g stroke-linecap="round" transform="translate(34.05486505681802 10) rotate(0 19.283203125 7.48828125)"><path d="M3.74 0 C13.05 0.85, 23.24 -1.59, 34.82 0 C36.95 2.37, 37.6 -1, 38.57 3.74 C38.25 5.11, 38.61 7.81, 38.57 11.23 C37.38 16.25, 39.56 15.84, 34.82 14.98 C23.42 13.63, 12.74 16.9, 3.74 14.98 C3.41 14.39, -0.35 12.24, 0 11.23 C-0.79 8.49, 0.66 6.49, 0 3.74 C-0.14 0.84, 3.28 0.5, 3.74 0" stroke="none" stroke-width="0" fill="#868e96"></path><path d="M3.74 0 C15.93 -0.43, 27.48 0.99, 34.82 0 M3.74 0 C10.48 -0.39, 17.32 0.1, 34.82 0 M34.82 0 C37.41 -0.73, 38.38 0.81, 38.57 3.74 M34.82 0 C38.12 0.34, 39.66 0.51, 38.57 3.74 M38.57 3.74 C38.77 6.03, 38.32 8.91, 38.57 11.23 M38.57 3.74 C38.58 5.65, 38.41 7.44, 38.57 11.23 M38.57 11.23 C37.98 14.32, 37.44 14.19, 34.82 14.98 M38.57 11.23 C38.83 13.3, 37.37 14.17, 34.82 14.98 M34.82 14.98 C26.36 14.49, 19.51 14.87, 3.74 14.98 M34.82 14.98 C25.87 14.44, 16.46 14.58, 3.74 14.98 M3.74 14.98 C0.28 15.13, 0.31 14.07, 0 11.23 M3.74 14.98 C1.24 15.88, -0.89 14.72, 0 11.23 M0 11.23 C-0.22 8.64, 0.35 5.16, 0 3.74 M0 11.23 C-0.03 9.09, -0.03 6.88, 0 3.74 M0 3.74 C-0.8 1.77, 0.38 0.98, 3.74 0 M0 3.74 C0.96 2.05, 2.34 -0.82, 3.74 0" stroke="#343a40" stroke-width="2" fill="none"></path></g><g stroke-linecap="round" transform="translate(66.04094569657354 80.73361200744512) rotate(47.524435689906944 13.974609375 10.47265625)"><path d="M5.24 0 C12.39 -1.95, 15.93 2.76, 22.71 0 C24.87 -3.12, 26.9 -0.78, 27.95 5.24 C28.11 7.59, 27.04 11.72, 27.95 15.71 C31.05 20.4, 28.91 19.27, 22.71 20.95 C19.04 23.13, 14.97 20.08, 5.24 20.95 C1.26 18.88, -1.32 17.56, 0 15.71 C1.35 10.65, 0.06 8.4, 0 5.24 C2.82 2.44, 4.51 -2.02, 5.24 0" stroke="none" stroke-width="0" fill="#d0bfff"></path><path d="M5.24 0 C9.1 1.69, 12.52 0.45, 22.71 0 M5.24 0 C11.48 0.35, 16.48 -0.51, 22.71 0 M22.71 0 C25.83 -0.87, 29.35 2.34, 27.95 5.24 M22.71 0 C28.38 -1.47, 28.83 2.15, 27.95 5.24 M27.95 5.24 C27.28 9.32, 27.46 12.46, 27.95 15.71 M27.95 5.24 C27.57 9.09, 27.65 13.31, 27.95 15.71 M27.95 15.71 C28.2 17.63, 26.66 20.19, 22.71 20.95 M27.95 15.71 C28.05 17.59, 25.25 21.41, 22.71 20.95 M22.71 20.95 C17.52 20.46, 9.7 21.69, 5.24 20.95 M22.71 20.95 C19.22 20.29, 13.86 20.93, 5.24 20.95 M5.24 20.95 C2.37 21.64, -0.01 20.77, 0 15.71 M5.24 20.95 C-0.04 22.93, 2.01 17.77, 0 15.71 M0 15.71 C0.97 12.06, -0.13 10.85, 0 5.24 M0 15.71 C0.01 11.36, -0.42 8.06, 0 5.24 M0 5.24 C-1.75 3.7, 3.41 1.39, 5.24 0 M0 5.24 C2.19 0.11, 1.57 1.63, 5.24 0" stroke="#1e1e1e" stroke-width="2" fill="none"></path></g><g stroke-linecap="round" transform="translate(28.212118398314487 39.50638192993938) rotate(47.524435689906944 25.4296875 23.859375)"><path d="M15.17 1.54 C19.59 -0.59, 27.1 0.47, 32.54 1.95 C37.97 3.43, 44.82 6.07, 47.8 10.41 C50.78 14.74, 51.19 22.76, 50.44 27.96 C49.69 33.15, 47.34 38.26, 43.31 41.56 C39.28 44.85, 31.94 47.67, 26.24 47.73 C20.54 47.79, 13.3 45.2, 9.11 41.92 C4.92 38.64, 1.96 32.77, 1.1 28.05 C0.23 23.33, 0.43 18.05, 3.9 13.59 C7.37 9.13, 18.2 3.48, 21.9 1.29 C25.6 -0.91, 26 0.17, 26.07 0.44 M25.6 -0.19 C30.93 -0.51, 39.98 2.27, 43.94 5.67 C47.89 9.08, 49.02 15.29, 49.34 20.25 C49.66 25.22, 48.62 31.24, 45.86 35.46 C43.09 39.68, 37.73 43.83, 32.75 45.58 C27.76 47.32, 21.01 47.48, 15.92 45.94 C10.83 44.41, 4.56 40.83, 2.22 36.38 C-0.12 31.93, 0.41 24.6, 1.88 19.25 C3.35 13.9, 6.94 7.45, 11.03 4.27 C15.12 1.09, 23.98 0.68, 26.43 0.17 C28.87 -0.34, 25.51 0.64, 25.69 1.22" stroke="none" stroke-width="0" fill="#d0bfff"></path><path d="M27.35 0.89 C32.55 1.06, 40.19 3.85, 43.97 7.36 C47.76 10.88, 49.8 16.79, 50.07 21.99 C50.34 27.19, 48.61 34.24, 45.58 38.57 C42.55 42.89, 37.22 46.77, 31.9 47.95 C26.58 49.14, 18.58 47.99, 13.66 45.7 C8.74 43.41, 4.41 39.06, 2.38 34.22 C0.36 29.37, 0.14 21.61, 1.5 16.63 C2.85 11.65, 5.94 7.14, 10.51 4.35 C15.07 1.57, 25.42 0.46, 28.9 -0.08 C32.37 -0.62, 31.29 0.79, 31.36 1.12 M24.9 -1.17 C30.27 -1.85, 37.31 1.39, 41.56 4.59 C45.81 7.78, 49.47 12.85, 50.41 18 C51.34 23.15, 49.6 30.94, 47.18 35.5 C44.76 40.07, 41 43.38, 35.89 45.4 C30.78 47.42, 21.92 49.14, 16.51 47.63 C11.1 46.13, 6.03 41.09, 3.45 36.37 C0.86 31.65, -0.03 24.59, 1 19.32 C2.03 14.05, 5.55 8.1, 9.65 4.74 C13.74 1.38, 23.3 -0.19, 25.57 -0.86 C27.85 -1.53, 23.32 0.09, 23.27 0.72" stroke="#1e1e1e" stroke-width="2" fill="none"></path></g></svg>