<svg version="1.1" xmlns="http://www.w3.org/2000/svg" viewBox="0 0 108.08725249304905 127.12357954545405" width="108.08725249304905" height="127.12357954545405">
  <!-- svg-source:excalidraw -->
  
  <defs>
    <style class="style-fonts">
      @font-face {
        font-family: "Virgil";
        src: url("https://excalidraw.com/Virgil.woff2");
      }
      @font-face {
        font-family: "Cascadia";
        src: url("https://excalidraw.com/Cascadia.woff2");
      }
      @font-face {
        font-family: "Assistant";
        src: url("https://excalidraw.com/Assistant-Regular.woff2");
      }
    </style>
    
  </defs>
  <g stroke-linecap="round" transform="translate(12.82553374304905 24.85274621212102) rotate(0 42.630859375 38.322265625)"><path d="M19.16 0 C31.44 1.89, 45.89 -2.87, 66.1 0 C81.59 2.06, 85.53 9.72, 85.26 19.16 C85.17 25.8, 82.42 38.23, 85.26 57.48 C87.53 67.11, 76.94 80.13, 66.1 76.64 C55.03 77.75, 44.58 77.73, 19.16 76.64 C3.91 76.27, -2.23 69.76, 0 57.48 C-1.97 40.92, -3.45 26.26, 0 19.16 C-2.7 8.57, 8.26 -0.25, 19.16 0" stroke="none" stroke-width="0" fill="#7950f2"></path><path d="M19.16 0 C36.06 1.75, 57.26 -1.33, 66.1 0 M19.16 0 C32.41 -0.56, 45.61 -1.12, 66.1 0 M66.1 0 C77.27 1.03, 83.52 8.34, 85.26 19.16 M66.1 0 C80.79 1.6, 87.45 4.75, 85.26 19.16 M85.26 19.16 C85.7 31.08, 86.54 40.42, 85.26 57.48 M85.26 19.16 C84.75 29.83, 84.91 40.29, 85.26 57.48 M85.26 57.48 C84.74 68.9, 79.1 76.67, 66.1 76.64 M85.26 57.48 C84.21 72.49, 80.85 77.41, 66.1 76.64 M66.1 76.64 C48.69 75.6, 31.83 78.12, 19.16 76.64 M66.1 76.64 C47.54 76.21, 29.67 76.93, 19.16 76.64 M19.16 76.64 C4.68 75.05, 1.26 68.61, 0 57.48 M19.16 76.64 C6.26 76.28, 1.8 70.7, 0 57.48 M0 57.48 C-0.12 41.98, -0.84 30.16, 0 19.16 M0 57.48 C-0.66 49.04, 0.14 41.97, 0 19.16 M0 19.16 C-0.77 5.9, 8.32 1.89, 19.16 0 M0 19.16 C-0.11 6.67, 6 -1.29, 19.16 0" stroke="#1e1e1e" stroke-width="2" fill="none"></path></g><g stroke-linecap="round" transform="translate(36.69452640403358 102.14701704545405) rotate(0 19.283203125 7.48828125)"><path d="M3.74 0 C11.29 -2.57, 20.86 1.33, 34.82 0 C37.51 2.41, 36.64 -0.6, 38.57 3.74 C37.94 6.2, 39.19 6.86, 38.57 11.23 C37.17 16.25, 35.76 14.29, 34.82 14.98 C25.46 15.71, 12.82 14.8, 3.74 14.98 C-0.36 14.62, 2.32 13.67, 0 11.23 C-0.88 9.19, -0.68 8.49, 0 3.74 C1.35 1.07, -0.29 0.06, 3.74 0" stroke="none" stroke-width="0" fill="#868e96"></path><path d="M3.74 0 C13.19 -0.85, 20.72 0.75, 34.82 0 M3.74 0 C15.5 -0.35, 26.83 0.29, 34.82 0 M34.82 0 C36.45 0.98, 39.4 1.95, 38.57 3.74 M34.82 0 C38.41 -0.82, 38.48 2.06, 38.57 3.74 M38.57 3.74 C38.76 5.91, 38.52 8.86, 38.57 11.23 M38.57 3.74 C38.4 5.57, 38.49 7.55, 38.57 11.23 M38.57 11.23 C38.68 13.74, 36.86 15.95, 34.82 14.98 M38.57 11.23 C39.56 14.11, 38.18 14.44, 34.82 14.98 M34.82 14.98 C26.09 15.64, 17.22 14.67, 3.74 14.98 M34.82 14.98 C25.69 15.09, 16.59 14.52, 3.74 14.98 M3.74 14.98 C1.88 14.15, -0.05 13.57, 0 11.23 M3.74 14.98 C2.15 15.2, 0.88 13.08, 0 11.23 M0 11.23 C-0.19 9.54, -0.32 7.57, 0 3.74 M0 11.23 C0.1 9.86, -0.06 8.16, 0 3.74 M0 3.74 C0.97 2.19, 1.2 0.12, 3.74 0 M0 3.74 C-0.19 0.6, 1.08 0.23, 3.74 0" stroke="#1e1e1e" stroke-width="2" fill="none"></path></g><g stroke-linecap="round" transform="translate(36.880398799867066 10) rotate(0 19.283203125 7.48828125)"><path d="M3.74 0 C16.25 1.86, 25.03 2.79, 34.82 0 C35.39 -1.85, 37.65 1.54, 38.57 3.74 C39.12 4.72, 37.98 8.34, 38.57 11.23 C37.01 13.04, 37.97 15.12, 34.82 14.98 C22.94 14.8, 13.03 14.71, 3.74 14.98 C3.57 14.92, -2.02 12.3, 0 11.23 C-0.64 9.92, 0.6 7.36, 0 3.74 C-1.53 1.31, 3.28 -2.17, 3.74 0" stroke="none" stroke-width="0" fill="#868e96"></path><path d="M3.74 0 C15.42 0.99, 28.25 0.15, 34.82 0 M3.74 0 C12.08 0.38, 20.78 0.61, 34.82 0 M34.82 0 C38.15 0.7, 39.52 0.54, 38.57 3.74 M34.82 0 C37.23 0.82, 38.78 1.34, 38.57 3.74 M38.57 3.74 C38.53 6.6, 38.45 8.44, 38.57 11.23 M38.57 3.74 C38.49 5.65, 38.56 7.8, 38.57 11.23 M38.57 11.23 C38.11 14.7, 38.18 15.31, 34.82 14.98 M38.57 11.23 C39.43 13.19, 37.28 15.09, 34.82 14.98 M34.82 14.98 C27.92 14.87, 19.22 14.52, 3.74 14.98 M34.82 14.98 C26.22 14.63, 18.78 14.62, 3.74 14.98 M3.74 14.98 C1.19 14.82, 0.78 13.92, 0 11.23 M3.74 14.98 C2.13 14.33, -0.4 13.53, 0 11.23 M0 11.23 C-0.31 9.69, -0.35 7.4, 0 3.74 M0 11.23 C-0.09 9.17, 0.16 7.38, 0 3.74 M0 3.74 C-0.05 1.37, 1.08 -0.56, 3.74 0 M0 3.74 C-0.17 1.48, 0.6 -0.35, 3.74 0" stroke="#343a40" stroke-width="2" fill="none"></path></g><g stroke-linecap="round" transform="translate(13.186373760761398 25.082489859438283) rotate(47.524435689906944 13.974609375 10.47265625)"><path d="M5.24 0 C9.09 2.74, 10.14 -2.42, 22.71 0 C24.94 0.4, 25.93 -0.6, 27.95 5.24 C27.05 10.72, 26.94 12.05, 27.95 15.71 C28.86 19.4, 27.1 21.97, 22.71 20.95 C15.1 20.48, 14.19 20.84, 5.24 20.95 C-1.05 18.96, -1.65 15.74, 0 15.71 C1.12 12.84, -0.97 10.28, 0 5.24 C2.81 -1.25, 1.71 1.14, 5.24 0" stroke="none" stroke-width="0" fill="#d0bfff"></path><path d="M5.24 0 C10.58 -0.09, 12.87 -0.1, 22.71 0 M5.24 0 C8.4 0.76, 13.81 0.52, 22.71 0 M22.71 0 C28.11 -1.42, 27.8 3.16, 27.95 5.24 M22.71 0 C26.63 0.19, 28.77 2.91, 27.95 5.24 M27.95 5.24 C27.55 6.86, 27.63 9.56, 27.95 15.71 M27.95 5.24 C27.98 7.57, 27.68 10.4, 27.95 15.71 M27.95 15.71 C29.67 19.87, 27.71 20.01, 22.71 20.95 M27.95 15.71 C27.87 19.43, 25.03 22.05, 22.71 20.95 M22.71 20.95 C15.93 19.9, 8.98 20.11, 5.24 20.95 M22.71 20.95 C17.41 20.09, 10.96 20.67, 5.24 20.95 M5.24 20.95 C3.31 21.33, 1.54 18.08, 0 15.71 M5.24 20.95 C0.94 20.56, -1.22 17.99, 0 15.71 M0 15.71 C-0.93 11.38, -0.23 8.26, 0 5.24 M0 15.71 C0.55 12.27, 0.02 7.9, 0 5.24 M0 5.24 C-0.33 0.62, 1.45 0.4, 5.24 0 M0 5.24 C-1.29 1.04, 2.65 -0.03, 5.24 0" stroke="#1e1e1e" stroke-width="2" fill="none"></path></g><g stroke-linecap="round" transform="translate(28.105044809020228 39.53628243694311) rotate(47.524435689906944 25.4296875 23.859375)"><path d="M20.45 1.15 C25.37 0.22, 32.59 1.63, 37.24 3.99 C41.88 6.35, 46.37 10.57, 48.33 15.31 C50.3 20.05, 50.6 27.64, 49.03 32.44 C47.46 37.24, 43.64 41.47, 38.94 44.12 C34.23 46.77, 26.14 49.15, 20.81 48.33 C15.47 47.5, 10.37 43.28, 6.92 39.18 C3.47 35.08, 0.38 28.86, 0.12 23.73 C-0.14 18.6, 1.44 12.44, 5.36 8.4 C9.29 4.37, 20.28 0.76, 23.66 -0.49 C27.04 -1.74, 25.64 0.54, 25.64 0.88 M36.18 0.56 C40.79 1.96, 44.34 7.44, 46.73 11.98 C49.12 16.52, 51.59 22.6, 50.51 27.81 C49.43 33.03, 44.39 40.19, 40.25 43.29 C36.11 46.39, 31.09 46.42, 25.67 46.4 C20.25 46.38, 12.12 46.4, 7.74 43.16 C3.36 39.92, -0.02 32.24, -0.62 26.95 C-1.22 21.67, 1.08 15.66, 4.15 11.45 C7.21 7.23, 12.6 3.45, 17.77 1.65 C22.94 -0.15, 32.37 0.72, 35.15 0.64 C37.93 0.57, 34.69 0.42, 34.44 1.19" stroke="none" stroke-width="0" fill="#d0bfff"></path><path d="M26.31 -0.87 C31.78 -0.83, 38.87 2.99, 43.03 6.64 C47.18 10.28, 50.64 16.11, 51.23 21 C51.82 25.9, 49.35 31.74, 46.56 36.01 C43.77 40.27, 39.51 44.83, 34.5 46.58 C29.48 48.33, 21.6 48.46, 16.48 46.52 C11.35 44.57, 6.43 39.28, 3.73 34.91 C1.04 30.54, -0.57 25.36, 0.31 20.3 C1.19 15.23, 4.28 7.96, 8.99 4.5 C13.7 1.04, 24.91 0.1, 28.58 -0.48 C32.24 -1.07, 31.1 0.46, 30.98 0.99 M26.89 0.5 C32.37 -0.13, 39.11 1.73, 43.03 4.99 C46.96 8.24, 49.85 14.75, 50.45 20.02 C51.04 25.3, 49.16 32.05, 46.6 36.64 C44.04 41.24, 40.15 46.02, 35.09 47.58 C30.02 49.14, 21.67 48.1, 16.24 46.02 C10.8 43.94, 5.21 39.42, 2.46 35.1 C-0.29 30.78, -1.18 25.22, -0.27 20.08 C0.64 14.95, 3.47 7.84, 7.93 4.29 C12.4 0.73, 23.62 -0.56, 26.55 -1.23 C29.48 -1.91, 25.48 -0.41, 25.51 0.24" stroke="#1e1e1e" stroke-width="2" fill="none"></path></g></svg>