<svg version="1.1" xmlns="http://www.w3.org/2000/svg" viewBox="0 0 106.88189535019194 127.12357954545405" width="106.88189535019194" height="127.12357954545405">
  <!-- svg-source:excalidraw -->
  
  <defs>
    <style class="style-fonts">
      @font-face {
        font-family: "Virgil";
        src: url("https://excalidraw.com/Virgil.woff2");
      }
      @font-face {
        font-family: "Cascadia";
        src: url("https://excalidraw.com/Cascadia.woff2");
      }
      @font-face {
        font-family: "Assistant";
        src: url("https://excalidraw.com/Assistant-Regular.woff2");
      }
    </style>
    
  </defs>
  <g stroke-linecap="round" transform="translate(10 24.85274621212102) rotate(0 42.63085937500006 38.322265625)"><path d="M19.16 0 C30.86 -1.16, 46.46 -2.58, 66.1 0 C76.01 2.27, 82.3 6.19, 85.26 19.16 C88.57 28.03, 84.53 40.34, 85.26 57.48 C83.36 68.36, 81.69 73.49, 66.1 76.64 C47.11 77.97, 33.07 74.95, 19.16 76.64 C5.51 80.12, 3.4 70.09, 0 57.48 C-0.42 46.24, -1.91 32.44, 0 19.16 C1.41 6.34, 3.04 2.71, 19.16 0" stroke="none" stroke-width="0" fill="#7950f2"></path><path d="M19.16 0 C32.04 -1.55, 43.65 -1.23, 66.1 0 M19.16 0 C36.26 -0.01, 52.96 -0.33, 66.1 0 M66.1 0 C78.05 0.41, 86.71 5.53, 85.26 19.16 M66.1 0 C77.49 1.73, 84.76 6.39, 85.26 19.16 M85.26 19.16 C83.27 33.68, 83.83 43.94, 85.26 57.48 M85.26 19.16 C85.38 32.03, 84.6 44.2, 85.26 57.48 M85.26 57.48 C87.01 69.01, 78.4 75.36, 66.1 76.64 M85.26 57.48 C87.14 72.25, 77.22 76.22, 66.1 76.64 M66.1 76.64 C47.5 76.72, 28.15 75.06, 19.16 76.64 M66.1 76.64 C50.43 77.8, 34.04 76.39, 19.16 76.64 M19.16 76.64 C6.24 78.06, 0.37 70.42, 0 57.48 M19.16 76.64 C7.2 77.8, -1.34 69.93, 0 57.48 M0 57.48 C-0.44 41.08, -1.42 26.97, 0 19.16 M0 57.48 C-0.5 49.56, 0.82 40.04, 0 19.16 M0 19.16 C1.51 5.46, 6.32 0.2, 19.16 0 M0 19.16 C-1.18 7.49, 8.1 1.91, 19.16 0" stroke="#1e1e1e" stroke-width="2" fill="none"></path></g><g stroke-linecap="round" transform="translate(33.86899266098453 102.14701704545405) rotate(0 19.283203125000057 7.48828125)"><path d="M3.74 0 C12.19 -2.03, 16.76 1.83, 34.82 0 C35.18 -0.14, 38.16 3.28, 38.57 3.74 C38.3 5.97, 38.13 8.01, 38.57 11.23 C40.6 11.45, 39.42 12.43, 34.82 14.98 C28.57 14.15, 17.73 17.67, 3.74 14.98 C3.7 14.86, 0.32 13.3, 0 11.23 C-0.53 9.11, 0.4 7.57, 0 3.74 C-2.42 3.21, 2.73 0.19, 3.74 0" stroke="none" stroke-width="0" fill="#868e96"></path><path d="M3.74 0 C13.4 -0.47, 23.76 0.24, 34.82 0 M3.74 0 C10.65 -0.29, 17.31 0.16, 34.82 0 M34.82 0 C38.04 -0.43, 37.96 2, 38.57 3.74 M34.82 0 C37.07 0, 39.12 0.43, 38.57 3.74 M38.57 3.74 C38.32 6.18, 38.59 9.46, 38.57 11.23 M38.57 3.74 C38.42 6.41, 38.73 8.64, 38.57 11.23 M38.57 11.23 C38.33 13.08, 38.14 15.84, 34.82 14.98 M38.57 11.23 C37.74 13.51, 38.33 15.87, 34.82 14.98 M34.82 14.98 C24.63 14.18, 16.47 14.11, 3.74 14.98 M34.82 14.98 C22.94 14.73, 10.07 15.44, 3.74 14.98 M3.74 14.98 C1.44 15.06, 0.36 14.23, 0 11.23 M3.74 14.98 C0.58 14.81, 1.05 13.3, 0 11.23 M0 11.23 C-0.28 9.54, -0.24 8.08, 0 3.74 M0 11.23 C0.18 9.04, 0.16 6.63, 0 3.74 M0 3.74 C-0.03 1.35, 0.74 0.48, 3.74 0 M0 3.74 C0.86 2.2, 0.99 -0.16, 3.74 0" stroke="#1e1e1e" stroke-width="2" fill="none"></path></g><g stroke-linecap="round" transform="translate(34.05486505681802 10) rotate(0 19.283203125000057 7.48828125)"><path d="M3.74 0 C9.58 1.99, 17.41 0.2, 34.82 0 C36.91 2.04, 39.07 3.25, 38.57 3.74 C38.02 5.06, 39.29 6.54, 38.57 11.23 C40.67 11.19, 36.4 14.18, 34.82 14.98 C23.46 17.33, 15.83 14.7, 3.74 14.98 C1.57 14.54, -1.46 13.34, 0 11.23 C0.44 8.82, -0.85 7.17, 0 3.74 C1.49 1.44, 3.66 -1.93, 3.74 0" stroke="none" stroke-width="0" fill="#868e96"></path><path d="M3.74 0 C11.34 0.22, 16.97 0.32, 34.82 0 M3.74 0 C11.69 0.21, 20.41 -0.1, 34.82 0 M34.82 0 C36.72 0.75, 38.35 1.25, 38.57 3.74 M34.82 0 C37.88 -0.82, 39.42 0.26, 38.57 3.74 M38.57 3.74 C38.6 6.54, 38.67 9.1, 38.57 11.23 M38.57 3.74 C38.7 6.46, 38.49 9.29, 38.57 11.23 M38.57 11.23 C39.38 14.59, 36.6 14.79, 34.82 14.98 M38.57 11.23 C39.58 14.62, 37.36 14.76, 34.82 14.98 M34.82 14.98 C25.93 13.98, 16.98 15.69, 3.74 14.98 M34.82 14.98 C23.29 15.22, 11.93 14.91, 3.74 14.98 M3.74 14.98 C1.6 15.48, -0.58 13.59, 0 11.23 M3.74 14.98 C2.3 14.55, -1 13.39, 0 11.23 M0 11.23 C-0.23 9.55, 0.03 7.62, 0 3.74 M0 11.23 C0.11 8.17, -0.04 5.31, 0 3.74 M0 3.74 C-0.51 1.73, 1.99 0.83, 3.74 0 M0 3.74 C-0.26 1.09, 0.59 -0.42, 3.74 0" stroke="#343a40" stroke-width="2" fill="none"></path></g><g stroke-linecap="round" transform="translate(65.74630283943054 24.66954343086536) rotate(312.47556431009303 13.974609375 10.47265625)"><path d="M5.24 0 C12.77 -0.45, 14.76 -0.83, 22.71 0 C24.18 -0.53, 28.67 -0.28, 27.95 5.24 C26.27 9.48, 29.1 11.02, 27.95 15.71 C31.29 16.53, 23.64 19.68, 22.71 20.95 C18.81 22.72, 9.09 19.05, 5.24 20.95 C5.23 18.79, -0.95 20.11, 0 15.71 C0.41 11.21, -0.24 8.14, 0 5.24 C-0.5 4.96, 1.67 -2.79, 5.24 0" stroke="none" stroke-width="0" fill="#d0bfff"></path><path d="M5.24 0 C9.39 -0.06, 13.71 -1.41, 22.71 0 M5.24 0 C11.78 -0.45, 19.45 0.86, 22.71 0 M22.71 0 C24.76 -0.37, 29.71 3.3, 27.95 5.24 M22.71 0 C26.29 -0.44, 28.01 0.01, 27.95 5.24 M27.95 5.24 C29.03 8.41, 28.73 10.84, 27.95 15.71 M27.95 5.24 C28.04 7.68, 28.13 10.29, 27.95 15.71 M27.95 15.71 C26.78 18.92, 28.03 20.2, 22.71 20.95 M27.95 15.71 C25.96 18.53, 24.59 19.15, 22.71 20.95 M22.71 20.95 C17.95 20.17, 14.83 22.47, 5.24 20.95 M22.71 20.95 C16.86 20.95, 10.61 21.28, 5.24 20.95 M5.24 20.95 C3.23 22.61, -0.45 18.93, 0 15.71 M5.24 20.95 C0.43 20.1, -1.05 20, 0 15.71 M0 15.71 C-0.78 13.4, -0.08 12.03, 0 5.24 M0 15.71 C-0.26 12.28, -0.36 8.75, 0 5.24 M0 5.24 C1.56 -0.01, 3.36 -1.96, 5.24 0 M0 5.24 C-0.81 1.04, 2.78 1.74, 5.24 0" stroke="#1e1e1e" stroke-width="2" fill="none"></path></g><g stroke-linecap="round" transform="translate(27.91747554117171 39.1233360083711) rotate(312.47556431009303 25.4296875 23.859375)"><path d="M18.59 0.12 C23.4 -1.36, 30.01 0.45, 34.81 2.63 C39.61 4.8, 44.85 8.59, 47.38 13.19 C49.91 17.8, 51.1 25.14, 49.99 30.25 C48.88 35.36, 45.17 40.99, 40.72 43.83 C36.26 46.68, 28.77 47.86, 23.27 47.32 C17.78 46.78, 11.67 43.95, 7.73 40.61 C3.79 37.27, 0.36 32.16, -0.37 27.3 C-1.1 22.45, -0.05 16.02, 3.37 11.47 C6.79 6.92, 16.73 1.75, 20.12 0 C23.52 -1.75, 23.37 0.58, 23.73 0.96 M22.26 0.36 C27.07 -0.91, 34.48 0.2, 39.03 3.01 C43.57 5.81, 48.03 12.23, 49.52 17.18 C51.02 22.13, 49.99 28.07, 48 32.72 C46.01 37.37, 42.52 42.51, 37.57 45.1 C32.62 47.68, 23.59 49.37, 18.32 48.24 C13.06 47.11, 8.8 42.79, 5.98 38.33 C3.17 33.88, 1.46 26.71, 1.43 21.5 C1.39 16.29, 2.25 10.76, 5.76 7.06 C9.27 3.37, 19.88 0.28, 22.49 -0.66 C25.1 -1.61, 21.23 1.07, 21.41 1.39" stroke="none" stroke-width="0" fill="#d0bfff"></path><path d="M15.17 1.54 C19.59 -0.59, 27.1 0.47, 32.54 1.95 C37.97 3.43, 44.82 6.07, 47.8 10.41 C50.78 14.74, 51.19 22.76, 50.44 27.96 C49.69 33.15, 47.34 38.26, 43.31 41.56 C39.28 44.85, 31.94 47.67, 26.24 47.73 C20.54 47.79, 13.3 45.2, 9.11 41.92 C4.92 38.64, 1.96 32.77, 1.1 28.05 C0.23 23.33, 0.43 18.05, 3.9 13.59 C7.37 9.13, 18.2 3.48, 21.9 1.29 C25.6 -0.91, 26 0.17, 26.07 0.44 M25.6 -0.19 C30.93 -0.51, 39.98 2.27, 43.94 5.67 C47.89 9.08, 49.02 15.29, 49.34 20.25 C49.66 25.22, 48.62 31.24, 45.86 35.46 C43.09 39.68, 37.73 43.83, 32.75 45.58 C27.76 47.32, 21.01 47.48, 15.92 45.94 C10.83 44.41, 4.56 40.83, 2.22 36.38 C-0.12 31.93, 0.41 24.6, 1.88 19.25 C3.35 13.9, 6.94 7.45, 11.03 4.27 C15.12 1.09, 23.98 0.68, 26.43 0.17 C28.87 -0.34, 25.51 0.64, 25.69 1.22" stroke="#1e1e1e" stroke-width="2" fill="none"></path></g></svg>