<svg version="1.1" xmlns="http://www.w3.org/2000/svg" viewBox="0 0 105.26171875 128.65541059244413" width="105.26171875" height="128.65541059244413">
  <!-- svg-source:excalidraw -->
  
  <defs>
    <style class="style-fonts">
      @font-face {
        font-family: "Virgil";
        src: url("https://excalidraw.com/Virgil.woff2");
      }
      @font-face {
        font-family: "Cascadia";
        src: url("https://excalidraw.com/Cascadia.woff2");
      }
      @font-face {
        font-family: "Assistant";
        src: url("https://excalidraw.com/Assistant-Regular.woff2");
      }
    </style>
    
  </defs>
  <g stroke-linecap="round" transform="translate(10 26.384577259110188) rotate(0 42.630859375 38.322265625)"><path d="M19.16 0 C29.17 -3.89, 40.8 -3.3, 66.1 0 C76.07 -0.93, 82.81 6.78, 85.26 19.16 C88.05 31.91, 87.66 40.58, 85.26 57.48 C85.14 70.62, 77.03 78.37, 66.1 76.64 C48.04 74.39, 29.62 74.81, 19.16 76.64 C7.64 73.58, -2.87 72.53, 0 57.48 C2.86 49.83, 2.81 38.78, 0 19.16 C-1.27 5.78, 4.48 -1.9, 19.16 0" stroke="none" stroke-width="0" fill="#7950f2"></path><path d="M19.16 0 C37.94 0.48, 54.52 1.42, 66.1 0 M19.16 0 C34.28 -0.09, 50.48 0.64, 66.1 0 M66.1 0 C80.77 -1.28, 86.03 6.74, 85.26 19.16 M66.1 0 C80.34 1.19, 83.72 4.81, 85.26 19.16 M85.26 19.16 C86.47 31.93, 85.64 42.7, 85.26 57.48 M85.26 19.16 C85.16 29.66, 85.27 41.34, 85.26 57.48 M85.26 57.48 C85.35 68.86, 78.05 77.05, 66.1 76.64 M85.26 57.48 C86.93 69.28, 77.49 78.38, 66.1 76.64 M66.1 76.64 C51.63 78.35, 38.28 78.03, 19.16 76.64 M66.1 76.64 C55.05 77.06, 43.37 77.5, 19.16 76.64 M19.16 76.64 C4.83 78.37, 1.75 69.01, 0 57.48 M19.16 76.64 C5.84 75.16, 1.88 72.25, 0 57.48 M0 57.48 C1.63 48.82, -0.31 40.07, 0 19.16 M0 57.48 C-0.56 49.86, 1.14 40.98, 0 19.16 M0 19.16 C1.91 4.96, 6.24 1.42, 19.16 0 M0 19.16 C0.43 6.58, 7.2 1.16, 19.16 0" stroke="#1e1e1e" stroke-width="2" fill="none"></path></g><g stroke-linecap="round" transform="translate(33.86899266098453 103.67884809244413) rotate(0 19.283203125 7.48828125)"><path d="M3.74 0 C15.15 -1.48, 26.04 -0.32, 34.82 0 C35.55 0.29, 38.6 0.06, 38.57 3.74 C39.38 6.26, 38.62 9.79, 38.57 11.23 C37.24 14.97, 39.25 17.14, 34.82 14.98 C25.24 13.56, 18.48 12.53, 3.74 14.98 C-0.82 16.62, -2.14 13.59, 0 11.23 C0.67 8.56, -0.42 6.81, 0 3.74 C-1.38 -0.12, 3.28 -2.28, 3.74 0" stroke="none" stroke-width="0" fill="#868e96"></path><path d="M3.74 0 C13 0.71, 23.95 0.05, 34.82 0 M3.74 0 C11.15 0.22, 18.34 -0.25, 34.82 0 M34.82 0 C37.7 0.18, 39.2 1.76, 38.57 3.74 M34.82 0 C36.55 -0.79, 38.87 0.65, 38.57 3.74 M38.57 3.74 C38.7 5.43, 38.57 7.45, 38.57 11.23 M38.57 3.74 C38.61 6.37, 38.58 9, 38.57 11.23 M38.57 11.23 C38.15 13.93, 38.04 14.55, 34.82 14.98 M38.57 11.23 C37.87 14.6, 37.07 14.98, 34.82 14.98 M34.82 14.98 C23.13 15.67, 12.58 14.12, 3.74 14.98 M34.82 14.98 C25.02 15.42, 14.83 15.46, 3.74 14.98 M3.74 14.98 C2.12 14.35, -0.24 13.08, 0 11.23 M3.74 14.98 C2.19 15.97, -0.83 13.51, 0 11.23 M0 11.23 C-0.1 8.34, -0.31 5.12, 0 3.74 M0 11.23 C0.19 8.73, 0.21 5.83, 0 3.74 M0 3.74 C-0.07 1.96, 1.44 0.08, 3.74 0 M0 3.74 C0.41 1.83, 0.58 -0.16, 3.74 0" stroke="#1e1e1e" stroke-width="2" fill="none"></path></g><g stroke-linecap="round" transform="translate(34.05486505681802 11.531831046989168) rotate(0 19.283203125 7.48828125)"><path d="M3.74 0 C8.35 -0.39, 15.24 0.57, 34.82 0 C37.35 -1.19, 41.09 3.49, 38.57 3.74 C38.61 6.34, 38.14 9.2, 38.57 11.23 C40.5 15.89, 36.73 14.63, 34.82 14.98 C28.18 12.58, 17.67 16.44, 3.74 14.98 C-0.89 14.84, -0.41 15.77, 0 11.23 C-0.42 8.68, -0.59 5.94, 0 3.74 C2.03 -1.03, 3.35 -2.54, 3.74 0" stroke="none" stroke-width="0" fill="#868e96"></path><path d="M3.74 0 C14.22 -0.03, 23.45 -0.3, 34.82 0 M3.74 0 C12.18 -0.37, 19.87 0.04, 34.82 0 M34.82 0 C37.95 0.52, 37.9 0.56, 38.57 3.74 M34.82 0 C37.62 -0.6, 38.13 2.06, 38.57 3.74 M38.57 3.74 C38.56 5.86, 38.8 8.47, 38.57 11.23 M38.57 3.74 C38.58 5.27, 38.5 7.1, 38.57 11.23 M38.57 11.23 C39.29 13.3, 36.72 15.73, 34.82 14.98 M38.57 11.23 C38.31 13.73, 37.88 14.16, 34.82 14.98 M34.82 14.98 C22.62 14.1, 11.73 15.38, 3.74 14.98 M34.82 14.98 C24.04 15.53, 14.46 14.79, 3.74 14.98 M3.74 14.98 C1.01 14.33, 0.82 14.59, 0 11.23 M3.74 14.98 C0.42 14.76, 1.01 14.62, 0 11.23 M0 11.23 C-0.28 8.66, 0.2 6.36, 0 3.74 M0 11.23 C0.15 8.12, -0.05 5.41, 0 3.74 M0 3.74 C0.19 1.33, 1.6 0.5, 3.74 0 M0 3.74 C-0.67 1.09, 2.3 -0.43, 3.74 0" stroke="#343a40" stroke-width="2" fill="none"></path></g><g stroke-linecap="round" transform="translate(39.397448168828305 13.626040698085376) rotate(269.315648468081 13.974609375 10.47265625)"><path d="M5.24 0 C8.77 -1.36, 17.49 1.16, 22.71 0 C28.93 -1.39, 27.07 5.22, 27.95 5.24 C27.63 8.31, 27.66 13.88, 27.95 15.71 C25.93 18.1, 27.62 20.9, 22.71 20.95 C19.33 24.04, 13.14 18.88, 5.24 20.95 C0.48 21.34, -2.02 16.85, 0 15.71 C-1.13 13.88, -1.25 7.9, 0 5.24 C0.91 1.95, 2.64 1.03, 5.24 0" stroke="none" stroke-width="0" fill="#d0bfff"></path><path d="M5.24 0 C8.86 1.21, 13.46 0.93, 22.71 0 M5.24 0 C9.74 0.28, 13.69 0.66, 22.71 0 M22.71 0 C24.65 1.72, 29.7 0.5, 27.95 5.24 M22.71 0 C25.66 -1.48, 29.83 3.73, 27.95 5.24 M27.95 5.24 C28.75 7.66, 27.73 10.04, 27.95 15.71 M27.95 5.24 C27.41 8.1, 28.3 10.3, 27.95 15.71 M27.95 15.71 C29.86 17.78, 26.05 22.36, 22.71 20.95 M27.95 15.71 C28.38 19.39, 27.02 22.11, 22.71 20.95 M22.71 20.95 C17.84 19.59, 13.76 19.88, 5.24 20.95 M22.71 20.95 C18.93 20.84, 14.55 21.67, 5.24 20.95 M5.24 20.95 C3.47 21.61, 1.51 18.27, 0 15.71 M5.24 20.95 C1.67 21.18, -1.18 20.3, 0 15.71 M0 15.71 C-0.23 11.19, -0.47 7.39, 0 5.24 M0 15.71 C0.42 11.77, 0.06 8.61, 0 5.24 M0 5.24 C1.57 2.13, 3.28 -1.12, 5.24 0 M0 5.24 C-0.81 1.36, 0.53 -1.21, 5.24 0" stroke="#1e1e1e" stroke-width="2" fill="none"></path></g><g stroke-linecap="round" transform="translate(27.748046875 38.588128382401806) rotate(269.315648468081 25.4296875 23.859375)"><path d="M25.46 0.75 C30.76 0.41, 38.13 2.09, 42.26 5.09 C46.4 8.09, 49.42 13.75, 50.26 18.73 C51.1 23.71, 49.86 30.54, 47.3 34.97 C44.74 39.39, 40.05 43.27, 34.89 45.28 C29.73 47.29, 21.7 48.58, 16.36 47.05 C11.01 45.52, 5.51 40.45, 2.81 36.09 C0.11 31.74, -0.87 25.82, 0.16 20.91 C1.18 16, 4.42 10.15, 8.94 6.62 C13.46 3.1, 23.69 0.78, 27.26 -0.25 C30.84 -1.28, 30.4 -0.14, 30.36 0.44 M14.11 1.79 C18.57 -0.11, 27.38 0.61, 32.64 1.94 C37.89 3.27, 42.39 5.54, 45.65 9.77 C48.91 14, 52.59 22.12, 52.22 27.31 C51.84 32.49, 47.51 37.63, 43.38 40.88 C39.25 44.13, 32.9 46.31, 27.45 46.78 C22 47.26, 15.23 46.59, 10.66 43.73 C6.1 40.87, 1.32 34.61, 0.04 29.62 C-1.25 24.63, 0.75 18.17, 2.95 13.8 C5.15 9.43, 11.11 5.22, 13.24 3.39 C15.37 1.55, 15.06 2.81, 15.71 2.8" stroke="none" stroke-width="0" fill="#d0bfff"></path><path d="M32.84 1.3 C38.05 2.56, 43.89 6.63, 47 10.71 C50.11 14.8, 52.02 20.59, 51.48 25.82 C50.94 31.04, 47.96 38.46, 43.77 42.06 C39.58 45.67, 32.01 47.14, 26.32 47.44 C20.63 47.73, 13.76 46.96, 9.63 43.84 C5.5 40.71, 2.75 33.64, 1.56 28.68 C0.37 23.72, 0.08 18.51, 2.5 14.07 C4.92 9.62, 10.88 4.11, 16.1 2 C21.32 -0.1, 30.79 1.51, 33.83 1.43 C36.88 1.35, 34.4 1.3, 34.38 1.52 M38.79 1.72 C43.29 3.74, 47.04 11.04, 48.89 15.98 C50.74 20.92, 51.47 26.54, 49.9 31.35 C48.32 36.16, 44.25 42.19, 39.44 44.85 C34.63 47.5, 26.28 48.2, 21.02 47.28 C15.76 46.35, 11.62 43.11, 7.9 39.27 C4.19 35.43, -0.69 29.47, -1.28 24.26 C-1.88 19.05, 0.83 12.13, 4.33 8 C7.84 3.88, 14.22 0.37, 19.75 -0.5 C25.28 -1.36, 34.75 1.95, 37.53 2.81 C40.31 3.67, 36.45 4.24, 36.44 4.67" stroke="#1e1e1e" stroke-width="2" fill="none"></path></g></svg>