<svg version="1.1" xmlns="http://www.w3.org/2000/svg" viewBox="0 0 116.80622209821433 127.12357954545496" width="116.80622209821433" height="127.12357954545496">
  <!-- svg-source:excalidraw -->
  
  <defs>
    <style class="style-fonts">
      @font-face {
        font-family: "Virgil";
        src: url("https://excalidraw.com/Virgil.woff2");
      }
      @font-face {
        font-family: "Cascadia";
        src: url("https://excalidraw.com/Cascadia.woff2");
      }
      @font-face {
        font-family: "Assistant";
        src: url("https://excalidraw.com/Assistant-Regular.woff2");
      }
    </style>
    
  </defs>
  <g stroke-linecap="round" transform="translate(21.544503348214334 24.85274621212102) rotate(0 42.630859375 38.322265625)"><path d="M19.16 0 C34.8 3.11, 49.99 -0.38, 66.1 0 C78.39 -2.06, 83.94 4.74, 85.26 19.16 C86.95 29.03, 84.48 44.26, 85.26 57.48 C88.08 70.95, 81.64 74.62, 66.1 76.64 C51.77 79.01, 38.09 79.11, 19.16 76.64 C2.87 75.38, -1.11 71.88, 0 57.48 C3.74 46.48, 0.1 29.12, 0 19.16 C-0.6 4.37, 5.85 0.72, 19.16 0" stroke="none" stroke-width="0" fill="#7950f2"></path><path d="M19.16 0 C34.86 0.85, 52.26 -0.44, 66.1 0 M19.16 0 C35.8 -0.19, 53.35 0.46, 66.1 0 M66.1 0 C79.13 -1.57, 85.72 5.63, 85.26 19.16 M66.1 0 C78.98 -1.61, 84.31 6.85, 85.26 19.16 M85.26 19.16 C86.61 33, 85.1 48.68, 85.26 57.48 M85.26 19.16 C86.12 27.36, 84.58 36.87, 85.26 57.48 M85.26 57.48 C85.88 70.95, 78.87 78.21, 66.1 76.64 M85.26 57.48 C83.47 72.24, 80.89 75.21, 66.1 76.64 M66.1 76.64 C54.87 75.59, 39.8 78.79, 19.16 76.64 M66.1 76.64 C48.39 75.8, 29.82 77.07, 19.16 76.64 M19.16 76.64 C4.64 78.6, 1.67 71.65, 0 57.48 M19.16 76.64 C8.58 75.01, -0.17 71.89, 0 57.48 M0 57.48 C0.98 44.1, -0.31 34.88, 0 19.16 M0 57.48 C-0.37 46.63, 0.07 36.66, 0 19.16 M0 19.16 C0.22 6.41, 5.47 1.94, 19.16 0 M0 19.16 C1.98 7.15, 8.12 -1.07, 19.16 0" stroke="#1e1e1e" stroke-width="2" fill="none"></path></g><g stroke-linecap="round" transform="translate(45.413496009198866 102.14701704545496) rotate(0 19.283203125 7.48828125)"><path d="M3.74 0 C13.64 -0.89, 18.86 -1.79, 34.82 0 C36.36 -1.19, 39.47 -0.97, 38.57 3.74 C38.58 5.24, 39.39 7.23, 38.57 11.23 C40.57 12.27, 36.4 14.54, 34.82 14.98 C24.86 17.4, 16.92 14.38, 3.74 14.98 C0.45 16.15, 1.97 12.72, 0 11.23 C-0.14 9.29, -0.26 6.56, 0 3.74 C-0.39 1.77, -0.21 -0.8, 3.74 0" stroke="none" stroke-width="0" fill="#868e96"></path><path d="M3.74 0 C10.46 -0.42, 18.92 0.08, 34.82 0 M3.74 0 C13.68 0.31, 24.26 -0.38, 34.82 0 M34.82 0 C37.55 -0.38, 38.61 0.55, 38.57 3.74 M34.82 0 C36.84 0.23, 39.4 0.76, 38.57 3.74 M38.57 3.74 C38.59 5.72, 38.33 7.61, 38.57 11.23 M38.57 3.74 C38.41 5.38, 38.65 7.02, 38.57 11.23 M38.57 11.23 C38.56 14.51, 36.54 15.84, 34.82 14.98 M38.57 11.23 C39.57 13.01, 37.04 14.24, 34.82 14.98 M34.82 14.98 C22.77 15.75, 11.87 14.9, 3.74 14.98 M34.82 14.98 C25.69 15.12, 16.92 15.35, 3.74 14.98 M3.74 14.98 C2.08 15.67, 0.95 13.02, 0 11.23 M3.74 14.98 C1.16 15.79, 0.22 13.82, 0 11.23 M0 11.23 C-0.07 9.06, -0.16 5.88, 0 3.74 M0 11.23 C-0.02 9.08, 0.05 7.18, 0 3.74 M0 3.74 C-0.46 2.22, 2.11 0.33, 3.74 0 M0 3.74 C0.87 0.71, 1.21 0.12, 3.74 0" stroke="#1e1e1e" stroke-width="2" fill="none"></path></g><g stroke-linecap="round" transform="translate(45.59936840503235 10) rotate(0 19.283203125 7.48828125)"><path d="M3.74 0 C15.03 -1.4, 26.06 -1.1, 34.82 0 C38.22 -2.22, 36.5 2.89, 38.57 3.74 C39.32 5.56, 39.31 6.46, 38.57 11.23 C37.65 13.29, 35.94 13.6, 34.82 14.98 C20.53 14.39, 10.52 16.47, 3.74 14.98 C3.22 13.97, -0.64 16.24, 0 11.23 C-0.16 7.73, -0.14 5.52, 0 3.74 C-1.46 0.45, 2.27 -0.03, 3.74 0" stroke="none" stroke-width="0" fill="#868e96"></path><path d="M3.74 0 C14.6 0.18, 24.33 -0.69, 34.82 0 M3.74 0 C12.95 -0.48, 22.15 -0.28, 34.82 0 M34.82 0 C37.36 -0.7, 38.15 1.45, 38.57 3.74 M34.82 0 C38.15 -0.49, 37.87 2.12, 38.57 3.74 M38.57 3.74 C38.3 6.1, 38.25 8.13, 38.57 11.23 M38.57 3.74 C38.59 5.62, 38.53 7.52, 38.57 11.23 M38.57 11.23 C37.79 14.59, 38.19 14.35, 34.82 14.98 M38.57 11.23 C38.29 12.99, 38.26 15.97, 34.82 14.98 M34.82 14.98 C28.52 15.15, 20.46 15.14, 3.74 14.98 M34.82 14.98 C27.41 15.55, 21.29 15.41, 3.74 14.98 M3.74 14.98 C2.2 14.26, -0.07 14.44, 0 11.23 M3.74 14.98 C1.46 15.07, 0.41 14.31, 0 11.23 M0 11.23 C-0.13 9.1, -0.1 7.35, 0 3.74 M0 11.23 C0.03 9.57, -0.08 8.09, 0 3.74 M0 3.74 C0.86 1.58, 2 -0.47, 3.74 0 M0 3.74 C-0.04 1.36, 0.66 0.55, 3.74 0" stroke="#343a40" stroke-width="2" fill="none"></path></g><g stroke-linecap="round" transform="translate(10 53.819602272727025) rotate(0 13.974609375 10.47265625)"><path d="M5.24 0 C10.08 -1.35, 17.93 -1.91, 22.71 0 C24.3 2.81, 24.79 4.66, 27.95 5.24 C28.73 8.78, 27.15 9.01, 27.95 15.71 C31.43 22.6, 26.04 21.39, 22.71 20.95 C18.39 19.13, 11.84 22.14, 5.24 20.95 C1.7 17.6, 2.71 21.26, 0 15.71 C-1.52 11.83, 0.03 8.21, 0 5.24 C-2.35 3.5, 4.01 -3.15, 5.24 0" stroke="none" stroke-width="0" fill="#d0bfff"></path><path d="M5.24 0 C10.91 1.34, 15.14 -0.98, 22.71 0 M5.24 0 C12.22 -0.62, 19.01 -0.75, 22.71 0 M22.71 0 C27.36 -1.16, 26.01 2.05, 27.95 5.24 M22.71 0 C26.92 0.8, 27.94 3.55, 27.95 5.24 M27.95 5.24 C27.39 7.31, 27.37 10.75, 27.95 15.71 M27.95 5.24 C28.34 9.69, 27.89 13.23, 27.95 15.71 M27.95 15.71 C28.01 17.69, 24.6 21.98, 22.71 20.95 M27.95 15.71 C25.94 21.45, 28.12 22.55, 22.71 20.95 M22.71 20.95 C17.04 21.26, 9.04 21.55, 5.24 20.95 M22.71 20.95 C17.39 20.6, 9.71 20.67, 5.24 20.95 M5.24 20.95 C0.34 19.39, -0.52 17.84, 0 15.71 M5.24 20.95 C2 20.98, -1.05 21.43, 0 15.71 M0 15.71 C-0.52 11.63, 0.07 7.09, 0 5.24 M0 15.71 C-0.2 12, -0.38 8.23, 0 5.24 M0 5.24 C-0.91 2.44, 0.04 -1.59, 5.24 0 M0 5.24 C1.45 -0.15, 1.62 -0.36, 5.24 0" stroke="#1e1e1e" stroke-width="2" fill="none"></path></g><g stroke-linecap="round" transform="translate(36.888671875 39.780539772727025) rotate(0 25.4296875 23.859375)"><path d="M27.8 0.9 C33.04 1.06, 39.42 3.86, 43.16 7.21 C46.89 10.55, 49.6 16.12, 50.21 20.98 C50.82 25.85, 49.64 31.99, 46.82 36.4 C44 40.81, 38.37 45.91, 33.28 47.44 C28.18 48.97, 21.37 47.8, 16.26 45.57 C11.15 43.34, 5.27 38.66, 2.61 34.06 C-0.05 29.46, -1.02 23, 0.3 17.97 C1.62 12.95, 5.97 6.77, 10.53 3.91 C15.09 1.05, 24.55 1.32, 27.66 0.8 C30.76 0.28, 29.09 0.39, 29.15 0.81 M27.34 -0.14 C32.2 0.03, 38.67 2.87, 42.77 6.34 C46.88 9.81, 51.19 15.69, 51.95 20.67 C52.72 25.66, 50.79 31.94, 47.35 36.25 C43.9 40.55, 36.63 44.78, 31.27 46.5 C25.9 48.21, 20.08 48.72, 15.16 46.53 C10.23 44.35, 3.84 37.99, 1.71 33.39 C-0.42 28.78, 0.83 23.73, 2.37 18.9 C3.91 14.07, 6.75 7.65, 10.96 4.38 C15.16 1.11, 24.84 -0.15, 27.62 -0.73 C30.39 -1.31, 27.74 0.43, 27.6 0.89" stroke="none" stroke-width="0" fill="#d0bfff"></path><path d="M17.88 1.56 C22.48 -0.01, 29.66 0.6, 34.54 2.59 C39.43 4.58, 44.66 9.25, 47.17 13.5 C49.69 17.76, 50.69 23.21, 49.66 28.15 C48.62 33.09, 45.17 39.9, 40.99 43.16 C36.8 46.41, 29.9 48.11, 24.57 47.69 C19.23 47.26, 12.88 43.93, 8.96 40.61 C5.04 37.29, 1.99 32.74, 1.07 27.75 C0.14 22.77, 0.24 15.14, 3.41 10.72 C6.59 6.3, 16.58 3.04, 20.11 1.22 C23.65 -0.6, 24.45 -0.59, 24.6 -0.19 M35.13 0.66 C39.83 2.4, 44.44 8.59, 46.75 13.55 C49.05 18.51, 49.72 25.38, 48.96 30.42 C48.21 35.46, 46.08 41.09, 42.22 43.79 C38.37 46.49, 31.5 46.84, 25.83 46.63 C20.16 46.43, 12.41 45.81, 8.19 42.56 C3.97 39.32, 1.13 32.29, 0.51 27.17 C-0.11 22.05, 1.75 16.23, 4.47 11.86 C7.19 7.48, 11.5 2.69, 16.83 0.91 C22.16 -0.86, 33.67 1.08, 36.46 1.23 C39.25 1.38, 34.16 1.53, 33.6 1.79" stroke="#1e1e1e" stroke-width="2" fill="none"></path></g></svg>