<svg version="1.1" xmlns="http://www.w3.org/2000/svg" viewBox="0 0 105.26171875 129.26924987815607" width="105.26171875" height="129.26924987815607">
  <!-- svg-source:excalidraw -->
  
  <defs>
    <style class="style-fonts">
      @font-face {
        font-family: "Virgil";
        src: url("https://excalidraw.com/Virgil.woff2");
      }
      @font-face {
        font-family: "Cascadia";
        src: url("https://excalidraw.com/Cascadia.woff2");
      }
      @font-face {
        font-family: "Assistant";
        src: url("https://excalidraw.com/Assistant-Regular.woff2");
      }
    </style>
    
  </defs>
  <g stroke-linecap="round" transform="translate(10 24.85274621212102) rotate(0 42.630859375 38.322265625)"><path d="M19.16 0 C32.3 1.98, 41.36 -0.85, 66.1 0 C79.24 -1.84, 86.98 9.07, 85.26 19.16 C83.04 32.52, 83.46 49.78, 85.26 57.48 C82.19 67.39, 81.15 73.68, 66.1 76.64 C52.96 80.08, 36.42 76.04, 19.16 76.64 C5.78 74.74, -1.9 73.07, 0 57.48 C-1.83 48.24, 1.06 43.94, 0 19.16 C-1.39 5.51, 9.86 3.4, 19.16 0" stroke="none" stroke-width="0" fill="#7950f2"></path><path d="M19.16 0 C35.25 0.32, 54.24 0.83, 66.1 0 M19.16 0 C35.93 -0.2, 51.79 1.03, 66.1 0 M66.1 0 C79.13 0.58, 83.77 6.27, 85.26 19.16 M66.1 0 C77.52 1.37, 85.55 4.58, 85.26 19.16 M85.26 19.16 C83.72 30.71, 85.52 45.36, 85.26 57.48 M85.26 19.16 C84.81 29.02, 85.52 38.18, 85.26 57.48 M85.26 57.48 C86.74 68.54, 80.03 75.49, 66.1 76.64 M85.26 57.48 C83.04 70.61, 79.59 77.44, 66.1 76.64 M66.1 76.64 C53.76 78.03, 36.73 75.8, 19.16 76.64 M66.1 76.64 C54.32 76.86, 44.86 77.83, 19.16 76.64 M19.16 76.64 C6.46 76.27, 0.06 68.75, 0 57.48 M19.16 76.64 C4.54 77.83, -2.01 72.5, 0 57.48 M0 57.48 C-1.69 42.64, 1.15 28.47, 0 19.16 M0 57.48 C-0.72 45.53, 0.78 33.49, 0 19.16 M0 19.16 C-1.73 5.81, 4.98 -1.56, 19.16 0 M0 19.16 C-0.6 4.82, 6.64 0.03, 19.16 0" stroke="#1e1e1e" stroke-width="2" fill="none"></path></g><g stroke-linecap="round" transform="translate(33.86899266098453 102.14701704545496) rotate(0 19.283203125 7.48828125)"><path d="M3.74 0 C14.53 -0.4, 28.01 -1.63, 34.82 0 C38.56 1.94, 40.73 0.66, 38.57 3.74 C38.07 6.23, 37.68 7.26, 38.57 11.23 C40.21 11.59, 37.18 14.57, 34.82 14.98 C21.6 14.37, 10.87 13.91, 3.74 14.98 C-0.12 17.01, -2.28 15.83, 0 11.23 C0.47 10.46, -0.34 7.97, 0 3.74 C2.51 3.7, 1.13 0.32, 3.74 0" stroke="none" stroke-width="0" fill="#868e96"></path><path d="M3.74 0 C16.19 0.58, 28.8 -0.73, 34.82 0 M3.74 0 C10.74 0.43, 18.19 0.23, 34.82 0 M34.82 0 C36.57 -0.06, 37.98 1.84, 38.57 3.74 M34.82 0 C37.46 -0.9, 38.83 0.82, 38.57 3.74 M38.57 3.74 C38.62 6.3, 38.38 8.08, 38.57 11.23 M38.57 3.74 C38.65 6.42, 38.7 9.21, 38.57 11.23 M38.57 11.23 C39.15 13.15, 36.35 15.13, 34.82 14.98 M38.57 11.23 C38.92 14.13, 37.31 15.88, 34.82 14.98 M34.82 14.98 C27.29 14.87, 20.36 15.93, 3.74 14.98 M34.82 14.98 C23.25 15.34, 10.82 14.85, 3.74 14.98 M3.74 14.98 C1.28 14.22, -0.8 14.25, 0 11.23 M3.74 14.98 C0.24 16.1, 0.96 14.53, 0 11.23 M0 11.23 C0.29 8.34, 0.06 5.44, 0 3.74 M0 11.23 C0.19 8.54, -0.14 5.93, 0 3.74 M0 3.74 C-0.7 0.47, 0.99 -0.68, 3.74 0 M0 3.74 C0.13 1.26, 0.72 1.12, 3.74 0" stroke="#1e1e1e" stroke-width="2" fill="none"></path></g><g stroke-linecap="round" transform="translate(34.05486505681802 10) rotate(0 19.283203125 7.48828125)"><path d="M3.74 0 C15.67 -1.32, 28.31 1.95, 34.82 0 C39.48 -0.59, 38.22 -0.24, 38.57 3.74 C37.69 4.94, 39.14 6.88, 38.57 11.23 C38.43 13.32, 39.36 15.48, 34.82 14.98 C22.67 13.46, 10.02 16.87, 3.74 14.98 C-1.03 17.08, -2.54 12.81, 0 11.23 C-0.42 8.98, 0.9 8.12, 0 3.74 C-0.12 1.57, 0.82 -1.46, 3.74 0" stroke="none" stroke-width="0" fill="#868e96"></path><path d="M3.74 0 C14.78 -0.77, 24.09 0.17, 34.82 0 M3.74 0 C11.51 0.04, 18.77 -0.14, 34.82 0 M34.82 0 C36.73 0.59, 38.69 0.46, 38.57 3.74 M34.82 0 C37.58 -0.43, 38.62 0.44, 38.57 3.74 M38.57 3.74 C38.41 5.45, 38.86 7.53, 38.57 11.23 M38.57 3.74 C38.72 5.83, 38.69 8.13, 38.57 11.23 M38.57 11.23 C37.6 13.88, 37.63 15.32, 34.82 14.98 M38.57 11.23 C38.56 14.63, 36.42 15.97, 34.82 14.98 M34.82 14.98 C22.14 15.76, 11.61 14.22, 3.74 14.98 M34.82 14.98 C26.1 15, 17.35 14.72, 3.74 14.98 M3.74 14.98 C0.45 15.49, -0.87 14.71, 0 11.23 M3.74 14.98 C2.21 15.78, 1.1 12.91, 0 11.23 M0 11.23 C0 9.17, 0.16 6.63, 0 3.74 M0 11.23 C-0.2 9.04, -0.17 6.81, 0 3.74 M0 3.74 C-0.26 0.57, 1.36 0.01, 3.74 0 M0 3.74 C-0.53 2.36, 2.24 0.38, 3.74 0" stroke="#343a40" stroke-width="2" fill="none"></path></g><g stroke-linecap="round" transform="translate(39.397448168828305 94.6978966800707) rotate(90.684351531919 13.974609375 10.47265625)"><path d="M5.24 0 C12.25 -1.36, 13.72 2.9, 22.71 0 C29.6 -0.16, 28.39 1.15, 27.95 5.24 C26.86 7.21, 28.66 10.32, 27.95 15.71 C24.6 21.91, 28.26 21.21, 22.71 20.95 C14.74 21.07, 7.22 18.67, 5.24 20.95 C3.5 23.21, -3.15 17.26, 0 15.71 C0.59 11.66, 0.58 7.93, 0 5.24 C0.87 -0.73, 1.37 -2.23, 5.24 0" stroke="none" stroke-width="0" fill="#d0bfff"></path><path d="M5.24 0 C10.76 -1.79, 18.58 0.44, 22.71 0 M5.24 0 C10.4 0.62, 17.69 -0.68, 22.71 0 M22.71 0 C25.73 -1.29, 29.58 3.47, 27.95 5.24 M22.71 0 C24.55 -0.43, 29.98 3.54, 27.95 5.24 M27.95 5.24 C27.14 7.58, 28.47 10.68, 27.95 15.71 M27.95 5.24 C28.54 9.03, 28 13.94, 27.95 15.71 M27.95 15.71 C28.32 19.36, 26.91 21.95, 22.71 20.95 M27.95 15.71 C26.61 18.88, 28.3 20.09, 22.71 20.95 M22.71 20.95 C17.62 20.37, 14.06 21.02, 5.24 20.95 M22.71 20.95 C18.2 21.41, 12.84 20.71, 5.24 20.95 M5.24 20.95 C1.68 21.15, -1.02 20.16, 0 15.71 M5.24 20.95 C3.46 22.86, -0.52 18.89, 0 15.71 M0 15.71 C0.4 12.27, -0.8 11.29, 0 5.24 M0 15.71 C0.42 13.53, 0.41 10.86, 0 5.24 M0 5.24 C-0.7 1.41, 0.69 -1.06, 5.24 0 M0 5.24 C1.8 -0.27, 3.61 -2.25, 5.24 0" stroke="#1e1e1e" stroke-width="2" fill="none"></path></g><g stroke-linecap="round" transform="translate(27.748046875 42.96237149575336) rotate(90.684351531919 25.4296875 23.859375)"><path d="M34.54 1.06 C39.28 2.51, 44.68 7.52, 47.37 11.96 C50.07 16.39, 51.85 22.5, 50.71 27.69 C49.57 32.89, 44.97 39.79, 40.52 43.12 C36.07 46.45, 29.36 47.75, 24.02 47.66 C18.68 47.57, 12.4 45.8, 8.48 42.56 C4.56 39.32, 1.37 33.47, 0.48 28.23 C-0.41 22.98, 0.37 15.69, 3.15 11.1 C5.92 6.52, 11.38 1.92, 17.12 0.73 C22.86 -0.46, 33.76 3.02, 37.59 3.96 C41.42 4.91, 40.36 6.22, 40.08 6.38 M20.95 -0.09 C26.15 -1.08, 35.3 2.12, 40.04 4.86 C44.79 7.6, 47.96 11.89, 49.43 16.35 C50.91 20.81, 50.89 26.85, 48.89 31.64 C46.9 36.43, 42.34 42.54, 37.47 45.07 C32.59 47.59, 24.87 47.85, 19.66 46.81 C14.45 45.76, 9.71 42.52, 6.21 38.8 C2.7 35.08, -1.55 29.59, -1.39 24.5 C-1.23 19.41, 3.1 12.48, 7.15 8.26 C11.2 4.04, 20.69 0.51, 22.92 -0.83 C25.15 -2.17, 20.68 -0.21, 20.54 0.23" stroke="none" stroke-width="0" fill="#d0bfff"></path><path d="M30.15 -0.49 C35.4 0.11, 42.11 5.11, 45.46 9.05 C48.8 13, 50.38 18.07, 50.23 23.17 C50.08 28.27, 47.75 35.77, 44.57 39.66 C41.4 43.56, 36.46 45.56, 31.18 46.55 C25.91 47.55, 17.73 47.97, 12.95 45.63 C8.17 43.28, 4.44 37.39, 2.48 32.48 C0.52 27.57, -0.33 21.13, 1.18 16.15 C2.69 11.18, 6.36 5.34, 11.54 2.62 C16.73 -0.09, 28.41 -0.13, 32.31 -0.11 C36.21 -0.1, 35.03 2.04, 34.95 2.73 M16.85 1.62 C21.69 -0.41, 29.56 0.48, 34.5 2.14 C39.44 3.8, 43.59 7.39, 46.49 11.58 C49.39 15.77, 52.85 22.28, 51.87 27.28 C50.89 32.29, 45.16 38.38, 40.61 41.59 C36.06 44.81, 29.85 46.61, 24.55 46.55 C19.25 46.49, 12.82 44.28, 8.83 41.22 C4.84 38.16, 1.61 32.8, 0.58 28.18 C-0.45 23.57, -0.24 17.89, 2.64 13.53 C5.51 9.16, 15.32 4.04, 17.86 2 C20.4 -0.05, 17.95 0.93, 17.87 1.24" stroke="#1e1e1e" stroke-width="2" fill="none"></path></g></svg>