<svg version="1.1" xmlns="http://www.w3.org/2000/svg" viewBox="0 0 117.88881138392867 127.12357954545496" width="117.88881138392867" height="127.12357954545496">
  <!-- svg-source:excalidraw -->
  
  <defs>
    <style class="style-fonts">
      @font-face {
        font-family: "Virgil";
        src: url("https://excalidraw.com/Virgil.woff2");
      }
      @font-face {
        font-family: "Cascadia";
        src: url("https://excalidraw.com/Cascadia.woff2");
      }
      @font-face {
        font-family: "Assistant";
        src: url("https://excalidraw.com/Assistant-Regular.woff2");
      }
    </style>
    
  </defs>
  <g stroke-linecap="round" transform="translate(10 24.85274621212102) rotate(0 42.630859375 38.322265625)"><path d="M19.16 0 C27.5 0.62, 40.78 -1.43, 66.1 0 C82.37 3.1, 86.46 9.1, 85.26 19.16 C83.4 30.6, 87.92 41.58, 85.26 57.48 C84.45 69.77, 76.81 75.32, 66.1 76.64 C51.3 78.2, 39.26 75.73, 19.16 76.64 C5.82 79.46, 0.69 73.03, 0 57.48 C-1.66 46.24, 3.06 35.64, 0 19.16 C2.91 2.87, 5.12 -1.11, 19.16 0" stroke="none" stroke-width="0" fill="#7950f2"></path><path d="M19.16 0 C35.34 -0.41, 53.57 1.35, 66.1 0 M19.16 0 C35.03 0.48, 50.76 0.82, 66.1 0 M66.1 0 C77.53 -1.37, 85.79 5.34, 85.26 19.16 M66.1 0 C78 1.62, 85.55 7.06, 85.26 19.16 M85.26 19.16 C86.43 28.05, 83.67 36.89, 85.26 57.48 M85.26 19.16 C84.86 29.42, 86 38.84, 85.26 57.48 M85.26 57.48 C84.06 71.77, 78.44 76.65, 66.1 76.64 M85.26 57.48 C86.38 68.63, 80.58 74.67, 66.1 76.64 M66.1 76.64 C49.61 76.81, 33.2 76.18, 19.16 76.64 M66.1 76.64 C49.21 76.42, 30.33 76.4, 19.16 76.64 M19.16 76.64 C8.02 78.37, -1.44 69.89, 0 57.48 M19.16 76.64 C8.41 78.44, 0.08 69.82, 0 57.48 M0 57.48 C1.32 44.13, 2.24 35.94, 0 19.16 M0 57.48 C-0.44 44.02, -0.18 29.23, 0 19.16 M0 19.16 C0.71 7.4, 5.22 -0.28, 19.16 0 M0 19.16 C2.1 5.53, 4.4 -0.67, 19.16 0" stroke="#1e1e1e" stroke-width="2" fill="none"></path></g><g stroke-linecap="round" transform="translate(33.86899266098453 102.14701704545496) rotate(0 19.283203125 7.48828125)"><path d="M3.74 0 C12.3 -1.23, 23.3 2.19, 34.82 0 C38.19 1.96, 37.35 1.16, 38.57 3.74 C39.24 6.88, 38.3 8.26, 38.57 11.23 C37.08 12.77, 36.13 15.88, 34.82 14.98 C26.01 15.09, 21.07 17.27, 3.74 14.98 C1.75 16.98, -1.46 12.81, 0 11.23 C0.81 8.26, 0.84 6.04, 0 3.74 C-0.92 0.45, 2.42 1.97, 3.74 0" stroke="none" stroke-width="0" fill="#868e96"></path><path d="M3.74 0 C12.91 0.73, 23.26 0.98, 34.82 0 M3.74 0 C11.4 0.23, 18.09 -0.37, 34.82 0 M34.82 0 C37.58 -0.52, 38.19 1.95, 38.57 3.74 M34.82 0 C37.46 0.33, 37.71 1.18, 38.57 3.74 M38.57 3.74 C38.29 5.64, 38.45 7.37, 38.57 11.23 M38.57 3.74 C38.69 5.39, 38.44 7.33, 38.57 11.23 M38.57 11.23 C38.35 13.73, 37.8 14.27, 34.82 14.98 M38.57 11.23 C39.42 12.74, 37.98 14.31, 34.82 14.98 M34.82 14.98 C28.85 15.02, 22.98 14.25, 3.74 14.98 M34.82 14.98 C22.7 14.56, 11.23 15.31, 3.74 14.98 M3.74 14.98 C0.53 14.79, 0.88 14.51, 0 11.23 M3.74 14.98 C1.29 14.76, 0.03 12.86, 0 11.23 M0 11.23 C0.35 9.9, 0.24 8.3, 0 3.74 M0 11.23 C0.04 9.53, 0.07 7.9, 0 3.74 M0 3.74 C-0.58 1.11, 2.16 -0.37, 3.74 0 M0 3.74 C-1 0.91, 0.44 -0.9, 3.74 0" stroke="#1e1e1e" stroke-width="2" fill="none"></path></g><g stroke-linecap="round" transform="translate(34.05486505681802 10) rotate(0 19.283203125 7.48828125)"><path d="M3.74 0 C15.93 2.42, 23.94 2.14, 34.82 0 C36.11 -0.09, 38.83 -0.08, 38.57 3.74 C38.42 6.22, 38.08 8.6, 38.57 11.23 C37.38 14.63, 35.1 12.91, 34.82 14.98 C23.13 16.99, 12.75 16.95, 3.74 14.98 C-0.21 14.06, -0.44 12.35, 0 11.23 C0.71 8.43, -0.42 7.23, 0 3.74 C1.17 3.22, 0.24 -0.64, 3.74 0" stroke="none" stroke-width="0" fill="#868e96"></path><path d="M3.74 0 C12.79 0.84, 20.6 0.28, 34.82 0 M3.74 0 C13.28 -0.42, 23.63 -0.34, 34.82 0 M34.82 0 C36.94 0.7, 38.69 1.54, 38.57 3.74 M34.82 0 C36.46 -0.07, 37.89 1.93, 38.57 3.74 M38.57 3.74 C38.4 6.1, 38.28 8.27, 38.57 11.23 M38.57 3.74 C38.48 6.28, 38.55 8.54, 38.57 11.23 M38.57 11.23 C39.05 13.02, 38.06 14.12, 34.82 14.98 M38.57 11.23 C39.23 13.06, 36.21 15.15, 34.82 14.98 M34.82 14.98 C25.32 14.2, 15.1 15.85, 3.74 14.98 M34.82 14.98 C27.85 15.31, 19.69 14.78, 3.74 14.98 M3.74 14.98 C2.13 15.76, 0.04 13.54, 0 11.23 M3.74 14.98 C1.28 14.11, -0.92 14.32, 0 11.23 M0 11.23 C0.22 10, -0.3 8.02, 0 3.74 M0 11.23 C0.06 8.55, -0.12 5.65, 0 3.74 M0 3.74 C0.91 0.88, 0.38 -0.29, 3.74 0 M0 3.74 C-0.81 0.35, 0.95 -0.78, 3.74 0" stroke="#343a40" stroke-width="2" fill="none"></path></g><g stroke-linecap="round" transform="translate(79.93959263392867 53.16670048701326) rotate(0 13.974609375 10.47265625)"><path d="M5.24 0 C8.2 2.63, 11.73 2.71, 22.71 0 C22.68 -1.27, 26.84 3.37, 27.95 5.24 C29.7 10.95, 27.79 13.34, 27.95 15.71 C27.35 17.18, 25.67 21.67, 22.71 20.95 C18.41 18.15, 16.56 22.87, 5.24 20.95 C2.01 24.28, -2.67 16.64, 0 15.71 C-1.25 13.86, 1.17 8.51, 0 5.24 C-1.93 5.23, -0.41 -0.95, 5.24 0" stroke="none" stroke-width="0" fill="#d0bfff"></path><path d="M5.24 0 C13.06 -0.28, 18.26 0.95, 22.71 0 M5.24 0 C9.75 -0.36, 12.4 0.28, 22.71 0 M22.71 0 C26.83 0.69, 27.94 3.32, 27.95 5.24 M22.71 0 C24.42 1.98, 29.96 0.31, 27.95 5.24 M27.95 5.24 C28.79 7.37, 27.69 11.94, 27.95 15.71 M27.95 5.24 C27.97 8.8, 27.53 13.42, 27.95 15.71 M27.95 15.71 C26.2 21.15, 27.87 22.34, 22.71 20.95 M27.95 15.71 C30.14 17.56, 26.03 22.58, 22.71 20.95 M22.71 20.95 C18.02 19.99, 11.33 22.6, 5.24 20.95 M22.71 20.95 C17.51 20.21, 13.3 20.3, 5.24 20.95 M5.24 20.95 C1.97 20.97, -0.91 21.14, 0 15.71 M5.24 20.95 C3.73 21.71, 1.73 18.13, 0 15.71 M0 15.71 C0.49 13.38, 0.86 9.26, 0 5.24 M0 15.71 C-0.18 12.89, -0.39 9.29, 0 5.24 M0 5.24 C1.26 0.1, 1.64 -0.31, 5.24 0 M0 5.24 C1.8 2.19, 3.51 -1.29, 5.24 0" stroke="#1e1e1e" stroke-width="2" fill="none"></path></g><g stroke-linecap="round" transform="translate(30.14076450892867 39.12763798701326) rotate(0 25.4296875 23.859375)"><path d="M35.57 2.14 C40.38 3.68, 46.03 8.39, 48.51 13.14 C51 17.89, 51.77 25.65, 50.51 30.64 C49.25 35.64, 45.52 40.36, 40.97 43.1 C36.42 45.83, 28.86 47.52, 23.23 47.07 C17.6 46.61, 10.98 44.01, 7.19 40.37 C3.39 36.73, 1.04 30.14, 0.46 25.23 C-0.12 20.32, 0.81 14.99, 3.72 10.92 C6.62 6.85, 11.81 1.73, 17.88 0.8 C23.95 -0.14, 35.82 3.98, 40.14 5.29 C44.46 6.6, 44.13 8.52, 43.82 8.65 M24.46 -1.23 C29.92 -2.06, 37.12 -0.2, 41.29 2.89 C45.46 5.97, 48.18 11.91, 49.48 17.29 C50.79 22.66, 51.45 30.5, 49.12 35.14 C46.8 39.78, 40.35 42.95, 35.53 45.14 C30.72 47.34, 25.4 49.55, 20.23 48.31 C15.05 47.06, 7.89 42.25, 4.49 37.68 C1.09 33.1, -0.61 25.95, -0.15 20.87 C0.32 15.8, 3.51 10.78, 7.28 7.24 C11.04 3.7, 19.67 0.74, 22.44 -0.37 C25.21 -1.49, 23.97 -0.12, 23.92 0.54" stroke="none" stroke-width="0" fill="#d0bfff"></path><path d="M30.68 1.28 C35.81 1.86, 42.02 4.75, 45.4 8.84 C48.78 12.92, 51.17 20.53, 50.95 25.8 C50.74 31.06, 47.77 36.9, 44.1 40.4 C40.42 43.9, 34.25 46.12, 28.91 46.81 C23.58 47.5, 16.86 47.3, 12.11 44.54 C7.35 41.77, 2.13 35.16, 0.37 30.24 C-1.39 25.31, -0.92 19.76, 1.54 15.01 C3.99 10.25, 9.62 3.8, 15.11 1.71 C20.6 -0.37, 30.62 2.23, 34.46 2.5 C38.3 2.78, 38.29 3.14, 38.14 3.37 M14.74 3.15 C19.84 1.12, 29.06 1.07, 34.69 2.26 C40.32 3.45, 45.88 5.92, 48.51 10.27 C51.14 14.63, 51.46 23.13, 50.48 28.39 C49.49 33.65, 46.57 38.47, 42.61 41.81 C38.64 45.16, 32.33 48.37, 26.69 48.47 C21.05 48.56, 12.91 45.75, 8.77 42.36 C4.64 38.97, 3.06 33.16, 1.89 28.12 C0.72 23.07, -0.43 16.69, 1.75 12.09 C3.94 7.49, 12.65 2.34, 15 0.51 C17.35 -1.32, 15.49 0.54, 15.85 1.11" stroke="#1e1e1e" stroke-width="2" fill="none"></path></g></svg>