<svg version="1.1" xmlns="http://www.w3.org/2000/svg" viewBox="0 0 106.94327927876338 127.12357954545496" width="106.94327927876338" height="127.12357954545496">
  <!-- svg-source:excalidraw -->
  
  <defs>
    <style class="style-fonts">
      @font-face {
        font-family: "Virgil";
        src: url("https://excalidraw.com/Virgil.woff2");
      }
      @font-face {
        font-family: "Cascadia";
        src: url("https://excalidraw.com/Cascadia.woff2");
      }
      @font-face {
        font-family: "Assistant";
        src: url("https://excalidraw.com/Assistant-Regular.woff2");
      }
    </style>
    
  </defs>
  <g stroke-linecap="round" transform="translate(11.681560528763384 24.85274621212102) rotate(0 42.630859375 38.322265625)"><path d="M19.16 0 C26.28 -0.73, 38.76 2.29, 66.1 0 C79.57 2.77, 83.24 5.12, 85.26 19.16 C87.71 26.85, 87.81 37.34, 85.26 57.48 C83.99 69.15, 80.49 79.37, 66.1 76.64 C57.23 77.3, 42.01 76.86, 19.16 76.64 C4.37 76.11, 0.72 68.24, 0 57.48 C-3.62 49.87, 1.79 37.11, 0 19.16 C3.34 3.72, 3.82 -1.27, 19.16 0" stroke="none" stroke-width="0" fill="#7950f2"></path><path d="M19.16 0 C28.91 0.4, 41.05 0.03, 66.1 0 M19.16 0 C30.69 -0.52, 40.16 0.66, 66.1 0 M66.1 0 C78.44 0, 86.23 4.97, 85.26 19.16 M66.1 0 C80.58 -1.97, 86.59 5.05, 85.26 19.16 M85.26 19.16 C86.01 26.94, 86.89 33.18, 85.26 57.48 M85.26 19.16 C85.36 33.31, 86.41 49.62, 85.26 57.48 M85.26 57.48 C83.82 69.89, 80.64 78.2, 66.1 76.64 M85.26 57.48 C85.35 69.82, 78.94 74.91, 66.1 76.64 M66.1 76.64 C57.74 77.9, 46.87 78.14, 19.16 76.64 M66.1 76.64 C55.55 77.06, 44.97 77.48, 19.16 76.64 M19.16 76.64 C5.22 76.36, 1.83 69.51, 0 57.48 M19.16 76.64 C4.4 75.98, -1.62 68.46, 0 57.48 M0 57.48 C0.29 46.06, 2.2 38.2, 0 19.16 M0 57.48 C-0.32 44.81, -0.8 32.41, 0 19.16 M0 19.16 C1.49 8.05, 5.94 -0.27, 19.16 0 M0 19.16 C-1.32 5.54, 5.34 0.8, 19.16 0" stroke="#1e1e1e" stroke-width="2" fill="none"></path></g><g stroke-linecap="round" transform="translate(35.550553189747916 102.14701704545496) rotate(0 19.283203125 7.48828125)"><path d="M3.74 0 C14.62 2.06, 26.82 2.02, 34.82 0 C35.86 -0.92, 38.13 -0.13, 38.57 3.74 C39.43 4.64, 38.3 7.15, 38.57 11.23 C39.74 15.7, 36.31 14.34, 34.82 14.98 C22.82 14.53, 8.72 14.57, 3.74 14.98 C1.77 13.52, -0.8 14.75, 0 11.23 C0.65 9.07, 0.99 6.04, 0 3.74 C-1.85 0.33, 1.54 -1.46, 3.74 0" stroke="none" stroke-width="0" fill="#868e96"></path><path d="M3.74 0 C13.08 0.01, 22.48 -0.45, 34.82 0 M3.74 0 C13.4 0.44, 23.55 0.07, 34.82 0 M34.82 0 C37.8 -0.71, 39.31 0.39, 38.57 3.74 M34.82 0 C37.98 -0.67, 37.45 1.43, 38.57 3.74 M38.57 3.74 C38.87 5.93, 38.9 9.03, 38.57 11.23 M38.57 3.74 C38.71 5.69, 38.42 7.27, 38.57 11.23 M38.57 11.23 C39.45 14.51, 37.35 14.79, 34.82 14.98 M38.57 11.23 C38.6 12.86, 36.4 15.57, 34.82 14.98 M34.82 14.98 C28.91 16.06, 20.89 15.03, 3.74 14.98 M34.82 14.98 C23.47 15.24, 11.48 14.92, 3.74 14.98 M3.74 14.98 C2.16 14.61, -0.87 13.44, 0 11.23 M3.74 14.98 C0.44 14.08, -0.3 12.95, 0 11.23 M0 11.23 C0.36 9.23, 0.12 6.86, 0 3.74 M0 11.23 C-0.09 9.42, 0.14 7.59, 0 3.74 M0 3.74 C-0.23 1.11, 0.68 -0.37, 3.74 0 M0 3.74 C-0.52 1.65, 0.27 -0.92, 3.74 0" stroke="#1e1e1e" stroke-width="2" fill="none"></path></g><g stroke-linecap="round" transform="translate(35.7364255855814 10) rotate(0 19.283203125 7.48828125)"><path d="M3.74 0 C13.4 1.68, 20.59 -1.23, 34.82 0 C36.88 -1.38, 37.19 3.28, 38.57 3.74 C38.3 5.03, 39.08 7.66, 38.57 11.23 C37.56 13.09, 39.83 17.43, 34.82 14.98 C24.18 14.52, 16.98 13.45, 3.74 14.98 C0.45 16, -0.03 11.31, 0 11.23 C0.85 7.7, -0.75 5.27, 0 3.74 C0.29 -0.21, -0.45 1.27, 3.74 0" stroke="none" stroke-width="0" fill="#868e96"></path><path d="M3.74 0 C13.08 -0.42, 24.02 0.72, 34.82 0 M3.74 0 C11.63 -0.12, 19.98 -0.47, 34.82 0 M34.82 0 C38.06 -0.86, 39.15 0.67, 38.57 3.74 M34.82 0 C36.21 0.18, 38.92 1.65, 38.57 3.74 M38.57 3.74 C38.92 6.31, 38.36 8.14, 38.57 11.23 M38.57 3.74 C38.46 5.47, 38.76 7.42, 38.57 11.23 M38.57 11.23 C38.6 13.54, 37.35 14.22, 34.82 14.98 M38.57 11.23 C37.64 14.32, 36.31 16.1, 34.82 14.98 M34.82 14.98 C22.19 15.05, 11.7 15.31, 3.74 14.98 M34.82 14.98 C24.95 14.98, 16.12 14.87, 3.74 14.98 M3.74 14.98 C0.38 14.69, -0.7 12.95, 0 11.23 M3.74 14.98 C0.95 14.19, 0.13 13.74, 0 11.23 M0 11.23 C0.09 9.61, -0.21 7.41, 0 3.74 M0 11.23 C0.16 9.07, -0.02 6.56, 0 3.74 M0 3.74 C-0.57 0.88, 0.79 0.35, 3.74 0 M0 3.74 C-0.98 0.33, 1.97 -0.95, 3.74 0" stroke="#343a40" stroke-width="2" fill="none"></path></g><g stroke-linecap="round" transform="translate(13.186373760761398 78.24979504315706) rotate(312.47556431009303 13.974609375 10.47265625)"><path d="M5.24 0 C8.64 -0.41, 16.2 -1.71, 22.71 0 C25.1 1.41, 27.9 -1.6, 27.95 5.24 C29.8 7.77, 26.71 12.44, 27.95 15.71 C28.35 17.18, 23.85 22.7, 22.71 20.95 C19.42 18.9, 9.19 21.57, 5.24 20.95 C1.95 21.84, 1.03 20.07, 0 15.71 C-0.24 14.97, -0.02 9.4, 0 5.24 C-1.98 0.1, -1.72 -1.4, 5.24 0" stroke="none" stroke-width="0" fill="#d0bfff"></path><path d="M5.24 0 C11.98 1.66, 14.62 -0.28, 22.71 0 M5.24 0 C8.72 -0.31, 14.24 0.53, 22.71 0 M22.71 0 C26.28 -0.38, 28.01 0.23, 27.95 5.24 M22.71 0 C24.36 1.19, 25.94 3.99, 27.95 5.24 M27.95 5.24 C27.28 9.17, 28.77 13.46, 27.95 15.71 M27.95 5.24 C27.68 8.39, 28.46 11.5, 27.95 15.71 M27.95 15.71 C26.22 18.62, 24.8 19.39, 22.71 20.95 M27.95 15.71 C27.35 17.64, 26.46 20.98, 22.71 20.95 M22.71 20.95 C18.85 22.41, 13.01 21.03, 5.24 20.95 M22.71 20.95 C17.94 21.76, 11.67 20.91, 5.24 20.95 M5.24 20.95 C0.6 20.21, -0.91 19.9, 0 15.71 M5.24 20.95 C-0.22 19.11, 1.45 17.31, 0 15.71 M0 15.71 C0.22 13.43, -0.57 9.17, 0 5.24 M0 15.71 C0.46 12.29, 0.48 9.27, 0 5.24 M0 5.24 C-0.71 1.13, 2.65 1.52, 5.24 0 M0 5.24 C-0.89 1.18, 3.97 2.17, 5.24 0" stroke="#1e1e1e" stroke-width="2" fill="none"></path></g><g stroke-linecap="round" transform="translate(28.105044809020228 37.022564965653146) rotate(312.47556431009303 25.4296875 23.859375)"><path d="M14.09 2.08 C18.78 -0.18, 26.68 0.15, 32.1 1.66 C37.52 3.17, 43.59 7.11, 46.6 11.14 C49.61 15.17, 50.77 20.96, 50.18 25.83 C49.59 30.7, 46.95 36.6, 43.06 40.37 C39.17 44.14, 32.41 47.81, 26.86 48.43 C21.31 49.05, 14.26 47.24, 9.76 44.07 C5.25 40.91, 1.09 34.46, -0.18 29.45 C-1.44 24.44, -1.03 18.82, 2.18 14.01 C5.4 9.19, 15.84 2.61, 19.1 0.56 C22.36 -1.5, 21.6 1.23, 21.74 1.67 M26.77 0.35 C31.86 0.41, 38.02 2.63, 42.1 6.1 C46.19 9.57, 50.77 15.81, 51.29 21.15 C51.81 26.5, 48.2 33.89, 45.23 38.17 C42.27 42.45, 38.26 45.78, 33.5 46.85 C28.73 47.93, 21.98 46.77, 16.67 44.62 C11.35 42.47, 4.23 38.5, 1.6 33.97 C-1.04 29.43, -0.42 22.2, 0.87 17.44 C2.16 12.68, 4.82 8.52, 9.34 5.4 C13.85 2.29, 25.14 -0.69, 27.94 -1.27 C30.75 -1.84, 26.49 1.43, 26.16 1.98" stroke="none" stroke-width="0" fill="#d0bfff"></path><path d="M23.27 -0.55 C28.45 -1.42, 34.61 1.85, 39.16 4.77 C43.7 7.69, 48.97 12.24, 50.55 16.99 C52.13 21.74, 51.02 28.72, 48.62 33.28 C46.22 37.84, 40.9 42.19, 36.15 44.35 C31.41 46.51, 25.17 47.11, 20.15 46.22 C15.14 45.33, 9.29 42.78, 6.05 39 C2.82 35.21, 0.72 28.75, 0.74 23.49 C0.76 18.24, 2.06 11.34, 6.17 7.46 C10.29 3.58, 21.95 1.29, 25.44 0.2 C28.92 -0.9, 27.13 0.61, 27.1 0.88 M22.34 -0.38 C27.07 -1.13, 34.74 0.47, 39.31 3.38 C43.87 6.28, 48.19 11.89, 49.71 17.05 C51.24 22.21, 50.89 29.31, 48.46 34.32 C46.03 39.33, 39.89 44.94, 35.11 47.1 C30.32 49.27, 24.67 49.06, 19.73 47.3 C14.79 45.54, 8.76 40.81, 5.49 36.52 C2.21 32.22, -0.16 26.39, 0.08 21.54 C0.33 16.69, 2.87 10.8, 6.98 7.43 C11.09 4.06, 22.03 2.49, 24.75 1.31 C27.48 0.12, 23.63 0.24, 23.33 0.33" stroke="#1e1e1e" stroke-width="2" fill="none"></path></g></svg>