<svg version="1.1" xmlns="http://www.w3.org/2000/svg" viewBox="0 0 105.26171875 140.8422378015016" width="105.26171875" height="140.8422378015016">
  <!-- svg-source:excalidraw -->
  
  <defs>
    <style class="style-fonts">
      @font-face {
        font-family: "Virgil";
        src: url("https://excalidraw.com/Virgil.woff2");
      }
      @font-face {
        font-family: "Cascadia";
        src: url("https://excalidraw.com/Cascadia.woff2");
      }
      @font-face {
        font-family: "Assistant";
        src: url("https://excalidraw.com/Assistant-Regular.woff2");
      }
    </style>
    
  </defs>
  <g stroke-linecap="round" transform="translate(34.05486505681802 109.06643921733757) rotate(22.461246866865288 19.283203125 7.48828125)"><path d="M3.74 0 C12.8 -2.17, 18.46 1.34, 34.82 0 C38.15 0.1, 38.26 1.49, 38.57 3.74 C38.67 6.35, 38.31 8.88, 38.57 11.23 C38.74 15.51, 36.21 16.15, 34.82 14.98 C28.19 15.23, 16.41 15.56, 3.74 14.98 C-1.33 12.7, 0.66 15.61, 0 11.23 C0.12 9.13, -0.68 6.54, 0 3.74 C2.06 0.93, -0.28 -2.09, 3.74 0" stroke="none" stroke-width="0" fill="#868e96"></path><path d="M3.74 0 C12.87 -0.76, 22.57 -0.92, 34.82 0 M3.74 0 C12.14 -0.33, 20.4 -0.09, 34.82 0 M34.82 0 C38.11 0.79, 37.71 0.61, 38.57 3.74 M34.82 0 C37.28 -0.84, 39.42 0.23, 38.57 3.74 M38.57 3.74 C38.67 5.76, 38.3 8.6, 38.57 11.23 M38.57 3.74 C38.74 5.65, 38.78 7.89, 38.57 11.23 M38.57 11.23 C38.02 14.65, 37.09 15.22, 34.82 14.98 M38.57 11.23 C38.59 14.44, 38.21 16.13, 34.82 14.98 M34.82 14.98 C24.32 15.72, 14.67 14.22, 3.74 14.98 M34.82 14.98 C23.97 15.3, 13.07 14.66, 3.74 14.98 M3.74 14.98 C2.12 14.42, -0.87 13.59, 0 11.23 M3.74 14.98 C2.31 14.27, 0.86 12.6, 0 11.23 M0 11.23 C0.1 9.02, -0.35 6.94, 0 3.74 M0 11.23 C-0.06 9.02, -0.09 6.53, 0 3.74 M0 3.74 C0.59 0.8, 1.77 0.5, 3.74 0 M0 3.74 C-0.74 2.2, 0.4 0.35, 3.74 0" stroke="#1e1e1e" stroke-width="2" fill="none"></path></g><g stroke-linecap="round" transform="translate(33.868992660984986 16.919422171883525) rotate(22.923355211056883 19.283203125 7.48828125)"><path d="M3.74 0 C8.92 1.43, 18.58 0.48, 34.82 0 C37.01 0.24, 39.73 -1.01, 38.57 3.74 C38.41 5.89, 38.65 8.76, 38.57 11.23 C37.45 14.91, 36.15 13.16, 34.82 14.98 C20.31 15.2, 8.32 12.69, 3.74 14.98 C1.91 16.86, -0.9 14.56, 0 11.23 C-0.67 8.5, 0.75 7.09, 0 3.74 C-1.53 -0.84, 3.84 -0.98, 3.74 0" stroke="none" stroke-width="0" fill="#868e96"></path><path d="M3.74 0 C15.9 -0.68, 27.85 0.39, 34.82 0 M3.74 0 C11.52 -0.06, 19.09 0.52, 34.82 0 M34.82 0 C36.46 -0.64, 38.54 0.52, 38.57 3.74 M34.82 0 C38.17 -1.01, 38.76 2, 38.57 3.74 M38.57 3.74 C38.29 5.5, 38.46 7.32, 38.57 11.23 M38.57 3.74 C38.78 6.54, 38.49 9.3, 38.57 11.23 M38.57 11.23 C38.34 13.97, 37.34 15.6, 34.82 14.98 M38.57 11.23 C39.46 14.88, 37.56 15.68, 34.82 14.98 M34.82 14.98 C25.08 14.32, 16.29 15.37, 3.74 14.98 M34.82 14.98 C23.21 14.6, 11.5 14.76, 3.74 14.98 M3.74 14.98 C0.38 14.84, 0.93 13.12, 0 11.23 M3.74 14.98 C2.1 13.85, -0.01 13.95, 0 11.23 M0 11.23 C-0.35 9.17, 0.06 6.98, 0 3.74 M0 11.23 C-0.07 9.39, 0.12 7.33, 0 3.74 M0 3.74 C0.52 1.75, 0.6 0.83, 3.74 0 M0 3.74 C-0.85 1.59, 0.86 0.35, 3.74 0" stroke="#1e1e1e" stroke-width="2" fill="none"></path></g><g stroke-linecap="round" transform="translate(10 32.545724255215646) rotate(0 42.630859375 38.322265625)"><path d="M19.16 0 C29.93 -0.2, 37.97 -0.01, 66.1 0 C80.48 -3.13, 84.91 7.09, 85.26 19.16 C85.38 33.24, 83.6 44.01, 85.26 57.48 C83.64 67.74, 81.93 78.43, 66.1 76.64 C48.6 73.58, 39.16 79.33, 19.16 76.64 C5.15 77.8, -1.12 70.83, 0 57.48 C3.31 46.02, -1.65 32.53, 0 19.16 C3.59 5.04, 7.53 3.45, 19.16 0" stroke="none" stroke-width="0" fill="#7950f2"></path><path d="M19.16 0 C29.64 0.95, 40.4 1.25, 66.1 0 M19.16 0 C30.11 0.96, 38.63 -0.47, 66.1 0 M66.1 0 C78.81 -1.46, 86.75 4.62, 85.26 19.16 M66.1 0 C79.26 1.49, 83.41 6.87, 85.26 19.16 M85.26 19.16 C84.36 28.59, 86.16 36.48, 85.26 57.48 M85.26 19.16 C85.09 29.3, 85.41 37.83, 85.26 57.48 M85.26 57.48 C85.3 71.5, 80.43 78.64, 66.1 76.64 M85.26 57.48 C85.74 71.67, 79.03 75.42, 66.1 76.64 M66.1 76.64 C49.67 76.84, 32.71 76.92, 19.16 76.64 M66.1 76.64 C51.06 75.67, 33.4 76.09, 19.16 76.64 M19.16 76.64 C8.24 75.42, 1.49 68.29, 0 57.48 M19.16 76.64 C6.36 77.09, -0.02 70.94, 0 57.48 M0 57.48 C0.72 46.99, -0.55 33.71, 0 19.16 M0 57.48 C0.74 41.98, 0.67 27.87, 0 19.16 M0 19.16 C-1.29 8.04, 4.91 0.6, 19.16 0 M0 19.16 C-0.78 7.09, 4.67 0.69, 19.16 0" stroke="#1e1e1e" stroke-width="2" fill="none"></path></g><g stroke-linecap="round" transform="translate(40.63070709740077 21.99483342197982) rotate(269.315648468081 13.974609375 10.47265625)"><path d="M5.24 0 C7.3 -2.78, 16.41 2.25, 22.71 0 C24.96 1.16, 26.83 2.32, 27.95 5.24 C29.31 8.02, 26.72 9.75, 27.95 15.71 C31.54 17.85, 27.35 24.39, 22.71 20.95 C18.13 19.39, 8.76 20.72, 5.24 20.95 C2.48 19.61, 1.84 18.1, 0 15.71 C-0.04 12.84, -0.41 7.68, 0 5.24 C0.72 -0.13, 3.87 -1.88, 5.24 0" stroke="none" stroke-width="0" fill="#ffd8a8"></path><path d="M5.24 0 C8.3 1.31, 13.45 1.33, 22.71 0 M5.24 0 C8.96 0.71, 13.44 0.11, 22.71 0 M22.71 0 C26.24 1.24, 29.5 3.74, 27.95 5.24 M22.71 0 C26.68 1.41, 28.11 0.52, 27.95 5.24 M27.95 5.24 C28.5 9.44, 28.79 13.38, 27.95 15.71 M27.95 5.24 C28.46 8.5, 27.55 12.27, 27.95 15.71 M27.95 15.71 C29.8 17.98, 27.69 18.98, 22.71 20.95 M27.95 15.71 C27.92 19.65, 26.18 21.62, 22.71 20.95 M22.71 20.95 C17.69 22.1, 11.24 20.72, 5.24 20.95 M22.71 20.95 C16.36 20.61, 9.43 21.44, 5.24 20.95 M5.24 20.95 C0.45 22.6, -1.48 19.8, 0 15.71 M5.24 20.95 C0.96 21.65, -1.72 19.89, 0 15.71 M0 15.71 C0.41 13.6, -0.05 11.51, 0 5.24 M0 15.71 C0.19 12.11, 0 8.47, 0 5.24 M0 5.24 C0.14 3.12, 0.89 0.91, 5.24 0 M0 5.24 C-1.03 0.14, 3.7 1.14, 5.24 0" stroke="#1e1e1e" stroke-width="2" fill="none"></path></g><g stroke-linecap="round" transform="translate(28.981305803573377 46.95692110629625) rotate(269.315648468081 25.4296875 23.859375)"><path d="M21.44 -0.61 C26.31 -1.54, 32.84 0.91, 37.55 3.66 C42.26 6.4, 47.75 11.08, 49.69 15.84 C51.63 20.61, 51.03 27.57, 49.17 32.22 C47.3 36.86, 43.21 41.16, 38.49 43.71 C33.76 46.26, 26.23 48.33, 20.8 47.53 C15.37 46.73, 9.37 42.88, 5.9 38.93 C2.43 34.97, -0.17 28.97, -0.03 23.81 C0.1 18.66, 2.6 12.05, 6.71 8.01 C10.83 3.97, 21.34 0.68, 24.64 -0.42 C27.94 -1.52, 26.49 0.92, 26.52 1.39 M12.13 3.2 C16.7 0.8, 26.11 -0.92, 31.74 -0.01 C37.37 0.9, 42.69 4.58, 45.91 8.66 C49.14 12.73, 51.51 19.45, 51.09 24.45 C50.66 29.45, 46.84 34.87, 43.36 38.68 C39.88 42.49, 35.59 46.59, 30.22 47.3 C24.84 48, 15.7 45.68, 11.13 42.92 C6.55 40.16, 4.23 35.14, 2.76 30.72 C1.29 26.31, 0.49 21.1, 2.31 16.41 C4.12 11.72, 11.94 4.72, 13.65 2.6 C15.37 0.47, 12.53 3.52, 12.59 3.68" stroke="none" stroke-width="0" fill="#ffd8a8"></path><path d="M35.75 1.28 C40.91 2.66, 46.47 8.01, 48.92 12.64 C51.38 17.27, 51.73 23.91, 50.49 29.07 C49.26 34.22, 45.71 40.44, 41.51 43.58 C37.31 46.72, 30.74 48.25, 25.29 47.9 C19.85 47.56, 13.11 44.87, 8.84 41.5 C4.57 38.13, 0.52 32.89, -0.32 27.68 C-1.16 22.47, 0.68 14.63, 3.79 10.25 C6.91 5.86, 12.01 2.19, 18.35 1.38 C24.7 0.56, 37.29 3.84, 41.85 5.33 C46.42 6.83, 46.3 9.95, 45.76 10.36 M19.81 0.01 C25.1 -1.84, 32.15 -1.69, 36.89 0.59 C41.63 2.87, 46.07 8.78, 48.27 13.69 C50.47 18.61, 51.39 25.39, 50.09 30.08 C48.79 34.76, 44.74 38.81, 40.46 41.79 C36.17 44.76, 29.68 48.18, 24.38 47.93 C19.08 47.69, 12.76 43.71, 8.68 40.34 C4.59 36.98, 0.69 32.63, -0.12 27.75 C-0.94 22.86, 0.53 15.62, 3.77 11.03 C7.01 6.45, 16.71 1.73, 19.31 0.25 C21.9 -1.23, 19.54 1.43, 19.34 2.13" stroke="#1e1e1e" stroke-width="2" fill="none"></path></g></svg>