<svg version="1.1" xmlns="http://www.w3.org/2000/svg" viewBox="0 0 116.9010881696413 140.8422378015016" width="116.9010881696413" height="140.8422378015016">
  <!-- svg-source:excalidraw -->
  
  <defs>
    <style class="style-fonts">
      @font-face {
        font-family: "Virgil";
        src: url("https://excalidraw.com/Virgil.woff2");
      }
      @font-face {
        font-family: "Cascadia";
        src: url("https://excalidraw.com/Cascadia.woff2");
      }
      @font-face {
        font-family: "Assistant";
        src: url("https://excalidraw.com/Assistant-Regular.woff2");
      }
    </style>
    
  </defs>
  <g stroke-linecap="round" transform="translate(45.694234476459314 109.06643921733757) rotate(22.461246866865288 19.283203125 7.48828125)"><path d="M3.74 0 C13.42 1.69, 20.13 1.51, 34.82 0 C38.62 -1.68, 40.72 -0.68, 38.57 3.74 C37.81 6.51, 37.61 8, 38.57 11.23 C39.61 14.56, 37.42 14.67, 34.82 14.98 C24.96 15.13, 15.69 14.15, 3.74 14.98 C1.17 15.15, 1.79 12.62, 0 11.23 C0.87 9.13, 0.01 5.11, 0 3.74 C0.24 -1.33, -1.02 0.66, 3.74 0" stroke="none" stroke-width="0" fill="#868e96"></path><path d="M3.74 0 C14.2 -0.56, 25.97 -0.43, 34.82 0 M3.74 0 C12.38 -0.11, 21.2 -0.56, 34.82 0 M34.82 0 C38.26 -0.32, 37.96 1.17, 38.57 3.74 M34.82 0 C36.43 -0.42, 38.9 0.56, 38.57 3.74 M38.57 3.74 C38.4 6.62, 38.83 8.58, 38.57 11.23 M38.57 3.74 C38.7 5.34, 38.6 7.4, 38.57 11.23 M38.57 11.23 C37.76 13.94, 36.37 14.21, 34.82 14.98 M38.57 11.23 C38.9 13.38, 38.21 15.66, 34.82 14.98 M34.82 14.98 C23.61 14.58, 12.2 14.9, 3.74 14.98 M34.82 14.98 C25.14 15.57, 14.78 15.38, 3.74 14.98 M3.74 14.98 C1.32 14.44, 0.73 13.52, 0 11.23 M3.74 14.98 C0.36 15.6, 0.32 14.67, 0 11.23 M0 11.23 C-0.35 9.08, -0.22 5.94, 0 3.74 M0 11.23 C0.1 8.9, -0.04 6.98, 0 3.74 M0 3.74 C-0.01 1.54, 1.3 -0.92, 3.74 0 M0 3.74 C0.56 1.46, 1.95 -0.52, 3.74 0" stroke="#1e1e1e" stroke-width="2" fill="none"></path></g><g stroke-linecap="round" transform="translate(45.508362080626284 16.919422171883525) rotate(22.923355211056883 19.283203125 7.48828125)"><path d="M3.74 0 C10.7 1.11, 21.3 -1.92, 34.82 0 C39.47 -1.92, 39.35 0.37, 38.57 3.74 C37.57 5.54, 38.88 9.01, 38.57 11.23 C38.66 13.42, 37.56 16.14, 34.82 14.98 C28.28 14.58, 21.49 15.23, 3.74 14.98 C3.03 13.86, 1.18 12.56, 0 11.23 C-0.11 8.55, 0.01 6.82, 0 3.74 C-2.27 1.91, 3.13 -0.9, 3.74 0" stroke="none" stroke-width="0" fill="#868e96"></path><path d="M3.74 0 C14.94 -0.26, 26.5 0.46, 34.82 0 M3.74 0 C15.97 -0.42, 28.62 -0.17, 34.82 0 M34.82 0 C36.71 -0.08, 37.8 0.88, 38.57 3.74 M34.82 0 C37.66 -0.68, 39.07 0.29, 38.57 3.74 M38.57 3.74 C38.85 6.12, 38.31 9.13, 38.57 11.23 M38.57 3.74 C38.63 5.56, 38.44 7.18, 38.57 11.23 M38.57 11.23 C37.62 12.96, 37.61 14.67, 34.82 14.98 M38.57 11.23 C39.46 14.41, 38.22 14.29, 34.82 14.98 M34.82 14.98 C23.38 14.67, 10.33 14.91, 3.74 14.98 M34.82 14.98 C23.68 15.44, 12.36 14.86, 3.74 14.98 M3.74 14.98 C1.98 14.77, -0.77 14.27, 0 11.23 M3.74 14.98 C1.57 15.92, 0.36 14.18, 0 11.23 M0 11.23 C-0.18 8.27, -0.02 6.3, 0 3.74 M0 11.23 C-0.03 9.48, -0.03 7.71, 0 3.74 M0 3.74 C0.06 0.33, 1.73 0.18, 3.74 0 M0 3.74 C0.7 0.73, 1.05 1.07, 3.74 0" stroke="#1e1e1e" stroke-width="2" fill="none"></path></g><g stroke-linecap="round" transform="translate(21.639369419641298 32.545724255215646) rotate(0 42.630859375 38.322265625)"><path d="M19.16 0 C37.82 -2.77, 55.85 -3.1, 66.1 0 C79.96 -1.22, 86.36 3.7, 85.26 19.16 C86.05 32.97, 84.74 44.04, 85.26 57.48 C85.59 71.87, 75.75 76.3, 66.1 76.64 C50.99 76.74, 38.58 74.95, 19.16 76.64 C8.02 75.03, -2.52 73.31, 0 57.48 C0.35 40.51, -3.12 31.59, 0 19.16 C2.61 5.15, 7.54 -1.12, 19.16 0" stroke="none" stroke-width="0" fill="#7950f2"></path><path d="M19.16 0 C30.72 0.93, 44.9 -0.18, 66.1 0 M19.16 0 C34.46 0.07, 47.28 0.31, 66.1 0 M66.1 0 C77.33 -0.74, 85.85 5.2, 85.26 19.16 M66.1 0 C79.89 -1.92, 86.64 5.54, 85.26 19.16 M85.26 19.16 C84.28 33.62, 84.1 49.69, 85.26 57.48 M85.26 19.16 C84.52 27.49, 84.38 34.64, 85.26 57.48 M85.26 57.48 C85.84 69.65, 80.43 77.83, 66.1 76.64 M85.26 57.48 C87.07 68.89, 81.13 77.94, 66.1 76.64 M66.1 76.64 C55.08 76.58, 44.32 78.09, 19.16 76.64 M66.1 76.64 C47.4 76.4, 29.29 76.73, 19.16 76.64 M19.16 76.64 C4.85 77.73, 0.56 71.9, 0 57.48 M19.16 76.64 C7.11 77.54, 1.21 68.22, 0 57.48 M0 57.48 C-0.06 44.49, -1.01 29.29, 0 19.16 M0 57.48 C0 50.05, 0.06 41.11, 0 19.16 M0 19.16 C0.97 6.75, 7.61 -0.9, 19.16 0 M0 19.16 C-0.4 8.52, 5.5 0.8, 19.16 0" stroke="#1e1e1e" stroke-width="2" fill="none"></path></g><g stroke-linecap="round" transform="translate(10 59.76933318646752) rotate(0 13.974609375 10.47265625)"><path d="M5.24 0 C10.66 -2.16, 14.53 2.44, 22.71 0 C25.77 -2.11, 25.06 5.34, 27.95 5.24 C28.28 7.71, 26.65 11.28, 27.95 15.71 C26.43 15.81, 26.21 21.68, 22.71 20.95 C18.02 22.79, 11.13 20.97, 5.24 20.95 C2.2 20.38, -3.45 19.92, 0 15.71 C-0.42 13.3, -1.75 12.17, 0 5.24 C0.28 2.89, 0.72 -2.39, 5.24 0" stroke="none" stroke-width="0" fill="#ffd8a8"></path><path d="M5.24 0 C13.81 -0.3, 19.56 0.13, 22.71 0 M5.24 0 C11.75 0.36, 17.95 -0.64, 22.71 0 M22.71 0 C27.67 -0.41, 26.41 2.83, 27.95 5.24 M22.71 0 C26.85 1.89, 28.68 2.65, 27.95 5.24 M27.95 5.24 C27.27 8.02, 27.71 13.59, 27.95 15.71 M27.95 5.24 C28.02 7.84, 28.02 10.39, 27.95 15.71 M27.95 15.71 C28.06 17.37, 27.17 21.31, 22.71 20.95 M27.95 15.71 C29.35 18.16, 25.8 23.08, 22.71 20.95 M22.71 20.95 C17.36 21.96, 14.45 19.92, 5.24 20.95 M22.71 20.95 C15.73 21.26, 8.68 21.26, 5.24 20.95 M5.24 20.95 C-0.16 19.54, 0.8 19.84, 0 15.71 M5.24 20.95 C1.83 20.68, 0.21 20.23, 0 15.71 M0 15.71 C0.04 13.29, -0.02 11.32, 0 5.24 M0 15.71 C-0.19 11.48, 0.49 8.25, 0 5.24 M0 5.24 C-0.07 -0.22, 1.93 -1.98, 5.24 0 M0 5.24 C-2.01 2.33, 3.41 -0.79, 5.24 0" stroke="#1e1e1e" stroke-width="2" fill="none"></path></g><g stroke-linecap="round" transform="translate(36.888671875 45.73027068646752) rotate(0 25.4296875 23.859375)"><path d="M26.36 -0.86 C31.54 -1.06, 38.01 2.6, 42.04 6.07 C46.08 9.54, 49.73 14.95, 50.58 19.98 C51.44 25.01, 49.88 31.91, 47.18 36.24 C44.47 40.58, 39.44 44.43, 34.36 46 C29.29 47.57, 22.05 47.3, 16.74 45.67 C11.42 44.05, 5.1 40.65, 2.47 36.25 C-0.16 31.84, -0.03 24.38, 0.97 19.24 C1.97 14.1, 3.64 8.64, 8.47 5.39 C13.31 2.13, 25.42 0.06, 29.98 -0.3 C34.55 -0.66, 35.85 2.66, 35.87 3.24 M20.48 -0.81 C25.7 -1.87, 35.05 0.62, 39.74 3.24 C44.43 5.86, 46.79 10.14, 48.6 14.92 C50.42 19.69, 52.39 26.67, 50.66 31.88 C48.92 37.09, 43.19 43.65, 38.21 46.18 C33.22 48.71, 26.37 48.2, 20.76 47.05 C15.15 45.9, 8.13 43.46, 4.56 39.29 C1 35.11, -0.91 27.13, -0.63 22 C-0.35 16.87, 2.67 11.98, 6.26 8.49 C9.86 5, 18.46 2.35, 20.93 1.05 C23.4 -0.24, 20.79 0.64, 21.11 0.71" stroke="none" stroke-width="0" fill="#ffd8a8"></path><path d="M26.66 0.21 C31.83 -0.17, 38.68 2.38, 42.56 5.79 C46.45 9.2, 49.22 15.76, 49.98 20.66 C50.74 25.56, 49.72 30.87, 47.13 35.2 C44.55 39.53, 39.42 44.74, 34.46 46.63 C29.49 48.52, 22.47 48.27, 17.34 46.52 C12.21 44.77, 6.65 40.49, 3.69 36.13 C0.72 31.77, -1.29 25.64, -0.46 20.38 C0.38 15.12, 3.74 7.77, 8.7 4.58 C13.66 1.39, 25.37 1.6, 29.33 1.23 C33.28 0.85, 32.62 2.1, 32.41 2.33 M27.98 -1.26 C33.28 -1.12, 40.36 3.66, 44.31 7.43 C48.27 11.19, 51.44 16.05, 51.7 21.33 C51.95 26.62, 49.27 34.77, 45.85 39.13 C42.44 43.49, 36.28 46.55, 31.19 47.48 C26.11 48.41, 20.04 46.88, 15.35 44.71 C10.66 42.54, 5.62 38.82, 3.06 34.48 C0.5 30.15, -1.18 23.68, -0.04 18.7 C1.11 13.73, 5.37 7.66, 9.94 4.63 C14.51 1.61, 24.59 1.17, 27.38 0.57 C30.18 -0.03, 26.92 0.9, 26.72 1.04" stroke="#1e1e1e" stroke-width="2" fill="none"></path></g></svg>