<svg version="1.1" xmlns="http://www.w3.org/2000/svg" viewBox="0 0 108.91314535019092 140.8422378015016" width="108.91314535019092" height="140.8422378015016">
  <!-- svg-source:excalidraw -->
  
  <defs>
    <style class="style-fonts">
      @font-face {
        font-family: "Virgil";
        src: url("https://excalidraw.com/Virgil.woff2");
      }
      @font-face {
        font-family: "Cascadia";
        src: url("https://excalidraw.com/Cascadia.woff2");
      }
      @font-face {
        font-family: "Assistant";
        src: url("https://excalidraw.com/Assistant-Regular.woff2");
      }
    </style>
    
  </defs>
  <g stroke-linecap="round" transform="translate(37.70629165700893 109.06643921733757) rotate(22.461246866865288 19.283203125 7.48828125)"><path d="M3.74 0 C16.83 -1.66, 26.41 -0.62, 34.82 0 C38.11 -1.94, 39.35 -1.23, 38.57 3.74 C38.64 5.35, 38.69 7.62, 38.57 11.23 C36.31 13.48, 37.83 15.05, 34.82 14.98 C27.85 13.89, 18.48 13.84, 3.74 14.98 C-0.57 17.18, 1.29 13.64, 0 11.23 C-0.86 9.97, 0.7 7.88, 0 3.74 C0.83 0.44, 1.66 -0.32, 3.74 0" stroke="none" stroke-width="0" fill="#868e96"></path><path d="M3.74 0 C12.98 -0.23, 20.42 -0.02, 34.82 0 M3.74 0 C10.18 0.01, 16.85 -0.13, 34.82 0 M34.82 0 C37.61 -0.59, 39.01 0.41, 38.57 3.74 M34.82 0 C38.01 -0.43, 39.47 2.15, 38.57 3.74 M38.57 3.74 C38.27 5.63, 38.21 7.02, 38.57 11.23 M38.57 3.74 C38.36 6.33, 38.59 9.15, 38.57 11.23 M38.57 11.23 C39.34 14.32, 38.11 14.38, 34.82 14.98 M38.57 11.23 C39.69 14.37, 36.69 16.04, 34.82 14.98 M34.82 14.98 C26.82 15.76, 18.57 15.19, 3.74 14.98 M34.82 14.98 C23.96 14.79, 11.98 15.16, 3.74 14.98 M3.74 14.98 C1.53 15.8, 0.32 14.12, 0 11.23 M3.74 14.98 C1.85 13.96, 1 13.09, 0 11.23 M0 11.23 C-0.22 9.91, -0.36 8.03, 0 3.74 M0 11.23 C0.01 8.67, 0.09 6.48, 0 3.74 M0 3.74 C0.61 0.8, 1.07 0.93, 3.74 0 M0 3.74 C-0.44 1.65, 1.93 -0.52, 3.74 0" stroke="#1e1e1e" stroke-width="2" fill="none"></path></g><g stroke-linecap="round" transform="translate(37.5204192611759 16.919422171883525) rotate(22.923355211056883 19.283203125 7.48828125)"><path d="M3.74 0 C11.84 -0.58, 19.16 -1.64, 34.82 0 C38.1 -2.47, 36.74 2.29, 38.57 3.74 C38.66 6.67, 37.72 8.62, 38.57 11.23 C39.07 13.81, 36.85 14.89, 34.82 14.98 C26.46 13.64, 13.93 17.01, 3.74 14.98 C2.54 14.89, -2.55 13.97, 0 11.23 C0.79 9.39, 0.4 7.92, 0 3.74 C0.42 0.93, -0.5 -1.91, 3.74 0" stroke="none" stroke-width="0" fill="#868e96"></path><path d="M3.74 0 C14.33 0.07, 23.96 0.96, 34.82 0 M3.74 0 C11.68 -0.17, 20.53 -0.28, 34.82 0 M34.82 0 C37.76 -0.84, 39.17 0.88, 38.57 3.74 M34.82 0 C38.23 0.9, 37.58 0.51, 38.57 3.74 M38.57 3.74 C38.21 6.03, 38.78 7.89, 38.57 11.23 M38.57 3.74 C38.58 6.09, 38.68 8.66, 38.57 11.23 M38.57 11.23 C39.35 13.13, 38.3 15.54, 34.82 14.98 M38.57 11.23 C37.94 14.79, 37.06 15.25, 34.82 14.98 M34.82 14.98 C26.44 15.31, 16.68 15.17, 3.74 14.98 M34.82 14.98 C26.77 15.22, 19.63 15.36, 3.74 14.98 M3.74 14.98 C1.56 15.37, 0.53 12.84, 0 11.23 M3.74 14.98 C2.25 14.33, -1 13.57, 0 11.23 M0 11.23 C-0.35 8.29, 0.1 5.35, 0 3.74 M0 11.23 C0.09 8.8, 0.11 6.21, 0 3.74 M0 3.74 C-0.18 2.18, 0.86 0.35, 3.74 0 M0 3.74 C0.68 0.73, 1.85 0.58, 3.74 0" stroke="#1e1e1e" stroke-width="2" fill="none"></path></g><g stroke-linecap="round" transform="translate(13.651426600190916 32.545724255215646) rotate(0 42.630859375 38.322265625)"><path d="M19.16 0 C30.87 -2.4, 41.47 -3.14, 66.1 0 C76.35 1.44, 86.42 6.52, 85.26 19.16 C82.2 29.86, 86.03 41.36, 85.26 57.48 C84.61 70.14, 79.12 79.12, 66.1 76.64 C51.51 79.32, 43.74 76.15, 19.16 76.64 C2.85 76.97, -3.57 67.11, 0 57.48 C0.66 43.89, 0.08 32.1, 0 19.16 C-2.41 3.74, 9.24 -0.44, 19.16 0" stroke="none" stroke-width="0" fill="#7950f2"></path><path d="M19.16 0 C30.8 1.86, 45.12 -1.24, 66.1 0 M19.16 0 C33.16 -0.42, 47.01 -0.66, 66.1 0 M66.1 0 C80.08 -0.74, 86.84 7.96, 85.26 19.16 M66.1 0 C76.91 -1.48, 85.19 4.7, 85.26 19.16 M85.26 19.16 C86.22 31.9, 85.35 45.96, 85.26 57.48 M85.26 19.16 C86.15 28.32, 86.16 35.69, 85.26 57.48 M85.26 57.48 C87.22 71.38, 77.78 78.49, 66.1 76.64 M85.26 57.48 C84.75 70.81, 78.92 78.07, 66.1 76.64 M66.1 76.64 C49.6 76.88, 29.59 78.21, 19.16 76.64 M66.1 76.64 C53.26 77.72, 40.17 77.29, 19.16 76.64 M19.16 76.64 C7.44 74.88, 1.75 69.14, 0 57.48 M19.16 76.64 C4.39 76.33, 2.13 68.85, 0 57.48 M0 57.48 C0.76 43.11, 0.97 28.89, 0 19.16 M0 57.48 C0.42 49.05, -0.36 42.45, 0 19.16 M0 19.16 C-0.77 7.08, 7.57 -0.9, 19.16 0 M0 19.16 C1.2 7.54, 4.9 1.9, 19.16 0" stroke="#1e1e1e" stroke-width="2" fill="none"></path></g><g stroke-linecap="round" transform="translate(13.186373760761398 31.768827916034752) rotate(47.524435689906944 13.974609375 10.47265625)"><path d="M5.24 0 C7.87 0.78, 11.69 0.27, 22.71 0 C25.76 -2.41, 25.31 4.59, 27.95 5.24 C29.72 7.54, 28.44 13.07, 27.95 15.71 C28.47 18.67, 23.6 21.99, 22.71 20.95 C18.85 19.78, 15.31 19.99, 5.24 20.95 C1.63 23.17, -2.74 19.34, 0 15.71 C0.41 11.45, 1.14 8.18, 0 5.24 C-0.59 2.09, -1.38 3.16, 5.24 0" stroke="none" stroke-width="0" fill="#ffd8a8"></path><path d="M5.24 0 C10.8 1.57, 19.43 -1.1, 22.71 0 M5.24 0 C12.11 0.5, 19.63 0.83, 22.71 0 M22.71 0 C26.62 1.23, 28.09 0.68, 27.95 5.24 M22.71 0 C27.89 -0.47, 26.18 2.99, 27.95 5.24 M27.95 5.24 C28.45 9.22, 27.11 13.02, 27.95 15.71 M27.95 5.24 C28.34 7.47, 28.25 9.84, 27.95 15.71 M27.95 15.71 C27.93 19.59, 26.19 21.53, 22.71 20.95 M27.95 15.71 C28.08 17.09, 27.32 21.37, 22.71 20.95 M22.71 20.95 C18.03 20.24, 10.7 21.95, 5.24 20.95 M22.71 20.95 C17.69 21.76, 13.15 21.3, 5.24 20.95 M5.24 20.95 C1.07 21.56, -1.49 19.8, 0 15.71 M5.24 20.95 C-0.44 19.33, 0.92 19.94, 0 15.71 M0 15.71 C0.48 11.62, -0.09 9.55, 0 5.24 M0 15.71 C0.05 12.9, -0.21 9.6, 0 5.24 M0 5.24 C-0.9 0.35, 3.44 0.99, 5.24 0 M0 5.24 C-0.08 -0.51, 1.96 -2.28, 5.24 0" stroke="#1e1e1e" stroke-width="2" fill="none"></path></g><g stroke-linecap="round" transform="translate(28.105044809020455 46.22262049353867) rotate(47.524435689906944 25.4296875 23.859375)"><path d="M14.11 2.69 C18.66 0.14, 25.59 -0.3, 30.92 0.68 C36.26 1.66, 42.82 4.46, 46.12 8.55 C49.42 12.64, 51.06 19.98, 50.73 25.2 C50.4 30.42, 47.82 36.14, 44.13 39.87 C40.45 43.61, 33.9 46.99, 28.61 47.6 C23.31 48.2, 16.86 46.35, 12.36 43.5 C7.86 40.65, 3.44 35.16, 1.6 30.49 C-0.25 25.82, -1.3 20.32, 1.28 15.48 C3.86 10.64, 14.19 3.84, 17.08 1.46 C19.97 -0.92, 18.74 0.98, 18.64 1.21 M29.13 -0.28 C34.17 0.09, 40.9 3.84, 44.35 7.49 C47.8 11.14, 49.41 16.52, 49.82 21.63 C50.24 26.73, 50.13 34.08, 46.85 38.13 C43.57 42.18, 35.41 44.87, 30.15 45.93 C24.89 46.99, 19.89 46.41, 15.27 44.5 C10.66 42.6, 4.77 39.17, 2.45 34.51 C0.13 29.85, 0.01 21.6, 1.36 16.55 C2.72 11.5, 6.16 7.18, 10.6 4.22 C15.04 1.26, 25.02 -0.68, 28.02 -1.22 C31.02 -1.76, 28.63 0.21, 28.59 0.97" stroke="none" stroke-width="0" fill="#ffd8a8"></path><path d="M18.79 0.91 C23.63 -0.53, 31.42 0.75, 36.51 2.89 C41.6 5.02, 46.98 9.23, 49.34 13.72 C51.7 18.21, 52.29 24.78, 50.69 29.82 C49.08 34.86, 44.3 41.12, 39.74 43.97 C35.18 46.81, 28.57 47.34, 23.32 46.88 C18.07 46.42, 11.94 44.6, 8.21 41.22 C4.48 37.83, 1.52 31.59, 0.95 26.55 C0.38 21.5, 0.86 15.22, 4.81 10.94 C8.76 6.66, 20.15 2.61, 24.66 0.87 C29.16 -0.86, 31.71 0.13, 31.83 0.54 M17.76 1.4 C22.41 -0.04, 30.1 0.58, 35.15 2.26 C40.2 3.94, 45.43 6.96, 48.07 11.47 C50.71 15.97, 52.02 24.19, 50.98 29.3 C49.94 34.4, 46.31 38.81, 41.83 42.11 C37.34 45.41, 29.75 49.11, 24.06 49.09 C18.37 49.07, 11.5 45.77, 7.67 41.97 C3.85 38.17, 1.59 31.33, 1.1 26.3 C0.62 21.27, 2.14 15.78, 4.76 11.79 C7.38 7.8, 14.8 3.98, 16.81 2.35 C18.82 0.72, 16.62 1.76, 16.82 2.01" stroke="#1e1e1e" stroke-width="2" fill="none"></path></g></svg>