<svg version="1.1" xmlns="http://www.w3.org/2000/svg" viewBox="0 0 108.67877035019364 140.8422378015016" width="108.67877035019364" height="140.8422378015016">
  <!-- svg-source:excalidraw -->
  
  <defs>
    <style class="style-fonts">
      @font-face {
        font-family: "Virgil";
        src: url("https://excalidraw.com/Virgil.woff2");
      }
      @font-face {
        font-family: "Cascadia";
        src: url("https://excalidraw.com/Cascadia.woff2");
      }
      @font-face {
        font-family: "Assistant";
        src: url("https://excalidraw.com/Assistant-Regular.woff2");
      }
    </style>
    
  </defs>
  <g stroke-linecap="round" transform="translate(34.05486505681802 109.06643921733757) rotate(22.461246866865288 19.283203125 7.48828125)"><path d="M3.74 0 C14.01 0.22, 26.05 -2.27, 34.82 0 C37.07 0.51, 38.64 0.78, 38.57 3.74 C38.16 6.41, 38.14 7.51, 38.57 11.23 C40.77 15.02, 37.23 12.42, 34.82 14.98 C25.88 16.51, 14.71 15.46, 3.74 14.98 C0.44 15.39, -0.32 11.98, 0 11.23 C-0.65 8.75, 0.89 7.47, 0 3.74 C0.83 3.74, 1.62 -0.39, 3.74 0" stroke="none" stroke-width="0" fill="#868e96"></path><path d="M3.74 0 C10.08 0.4, 16.77 0.56, 34.82 0 M3.74 0 C11.49 -0.44, 20.07 -0.49, 34.82 0 M34.82 0 C38.06 -0.88, 38.74 1.9, 38.57 3.74 M34.82 0 C36.39 0.24, 37.48 0.37, 38.57 3.74 M38.57 3.74 C38.78 6.5, 38.33 9.03, 38.57 11.23 M38.57 3.74 C38.5 6.46, 38.55 9.2, 38.57 11.23 M38.57 11.23 C39.34 14.73, 37.53 15.59, 34.82 14.98 M38.57 11.23 C38.65 13.11, 38.16 14.74, 34.82 14.98 M34.82 14.98 C28.72 15.34, 21.36 15.55, 3.74 14.98 M34.82 14.98 C27.81 14.82, 22.13 14.58, 3.74 14.98 M3.74 14.98 C1.99 13.99, -0.01 13.92, 0 11.23 M3.74 14.98 C1.24 15.32, 0.06 12.67, 0 11.23 M0 11.23 C-0.18 8.56, 0.34 5.87, 0 3.74 M0 11.23 C0.08 8.82, -0.14 6.38, 0 3.74 M0 3.74 C-0.74 1.55, 0.91 0.31, 3.74 0 M0 3.74 C-0.86 1.59, 0.15 -0.81, 3.74 0" stroke="#1e1e1e" stroke-width="2" fill="none"></path></g><g stroke-linecap="round" transform="translate(33.868992660984986 16.919422171883525) rotate(22.923355211056883 19.283203125 7.48828125)"><path d="M3.74 0 C14.35 -2.3, 22.37 0.47, 34.82 0 C37.4 -0.47, 38.48 1.43, 38.57 3.74 C38.09 5.82, 39.35 9.75, 38.57 11.23 C38.48 11.17, 37.56 12.4, 34.82 14.98 C27.32 16.1, 20.8 15.68, 3.74 14.98 C0.93 13.23, -1.91 15.79, 0 11.23 C1.03 8.71, 0.37 7.85, 0 3.74 C0.38 0.86, -0.63 0.76, 3.74 0" stroke="none" stroke-width="0" fill="#868e96"></path><path d="M3.74 0 C13.14 0.53, 23.84 0.72, 34.82 0 M3.74 0 C15.5 -0.27, 27.65 -0.34, 34.82 0 M34.82 0 C37.49 0.65, 37.76 1.46, 38.57 3.74 M34.82 0 C36.23 -0.88, 38.9 0.9, 38.57 3.74 M38.57 3.74 C38.37 6.94, 38.8 9.2, 38.57 11.23 M38.57 3.74 C38.56 6.8, 38.7 9.81, 38.57 11.23 M38.57 11.23 C38.78 14.34, 37.39 14.44, 34.82 14.98 M38.57 11.23 C39.41 13.49, 36.43 15.6, 34.82 14.98 M34.82 14.98 C25.02 15.55, 13.56 15.9, 3.74 14.98 M34.82 14.98 C27.7 14.65, 20.02 14.46, 3.74 14.98 M3.74 14.98 C1.24 15.17, -0.01 14.02, 0 11.23 M3.74 14.98 C1.31 13.92, 0.56 13.94, 0 11.23 M0 11.23 C0.36 8.39, 0.15 6.05, 0 3.74 M0 11.23 C-0.14 9.48, -0.16 7.47, 0 3.74 M0 3.74 C-0.34 1.55, 0.5 0.3, 3.74 0 M0 3.74 C-1.09 0.44, 1.71 0.37, 3.74 0" stroke="#1e1e1e" stroke-width="2" fill="none"></path></g><g stroke-linecap="round" transform="translate(10 32.545724255215646) rotate(0 42.630859375 38.322265625)"><path d="M19.16 0 C33.32 1.44, 48.29 0.08, 66.1 0 C78.76 0.25, 87.73 4.85, 85.26 19.16 C88.01 34.18, 84.83 42.09, 85.26 57.48 C85.59 66.68, 75.73 77.56, 66.1 76.64 C47.5 77.49, 30.69 74.5, 19.16 76.64 C3.74 79.49, -0.44 68.14, 0 57.48 C0.46 52.51, -0.17 40.11, 0 19.16 C-2.6 7.43, 4.87 -3.39, 19.16 0" stroke="none" stroke-width="0" fill="#7950f2"></path><path d="M19.16 0 C34.58 1.3, 53.05 -1.99, 66.1 0 M19.16 0 C30.97 -0.54, 41.46 0.99, 66.1 0 M66.1 0 C77.27 0.42, 83.37 4.86, 85.26 19.16 M66.1 0 C79.53 -0.7, 87.05 7.75, 85.26 19.16 M85.26 19.16 C86.16 32.58, 86.88 47.74, 85.26 57.48 M85.26 19.16 C86.04 32.58, 85.48 44.62, 85.26 57.48 M85.26 57.48 C85.4 69.19, 80.34 76.24, 66.1 76.64 M85.26 57.48 C83.49 71.51, 79.52 78.54, 66.1 76.64 M66.1 76.64 C48.77 78.64, 33.85 75.16, 19.16 76.64 M66.1 76.64 C53.41 75.37, 39.21 76.55, 19.16 76.64 M19.16 76.64 C6.37 77.23, 0.11 68.42, 0 57.48 M19.16 76.64 C7.5 77.06, 1.4 69.22, 0 57.48 M0 57.48 C0.34 47.84, -1.26 36.88, 0 19.16 M0 57.48 C-0.49 44.37, -0.09 30.96, 0 19.16 M0 19.16 C-1.49 6.99, 4.48 -1.4, 19.16 0 M0 19.16 C0.92 7.13, 6.47 -0.27, 19.16 0" stroke="#1e1e1e" stroke-width="2" fill="none"></path></g><g stroke-linecap="round" transform="translate(67.54317783943225 30.81458684460722) rotate(312.47556431009303 13.974609375 10.47265625)"><path d="M5.24 0 C11.26 -0.37, 11.06 0.02, 22.71 0 C22.63 -3.15, 28.86 4.35, 27.95 5.24 C28.31 7.79, 26.75 9.41, 27.95 15.71 C30.8 18.76, 24.09 18.05, 22.71 20.95 C18.74 21.5, 8.27 18.77, 5.24 20.95 C2.79 19.42, -3.39 19.21, 0 15.71 C-0.51 12.3, 1.24 7.57, 0 5.24 C0.14 2.2, 1.18 -3.45, 5.24 0" stroke="none" stroke-width="0" fill="#ffd8a8"></path><path d="M5.24 0 C11.14 -1.51, 14.97 0.64, 22.71 0 M5.24 0 C10.64 -0.62, 15.52 0.39, 22.71 0 M22.71 0 C25.11 1.85, 27.5 2.23, 27.95 5.24 M22.71 0 C26.24 1.43, 29.73 4.04, 27.95 5.24 M27.95 5.24 C27.45 9.36, 27.8 11.15, 27.95 15.71 M27.95 5.24 C28.14 9.15, 28.25 12.19, 27.95 15.71 M27.95 15.71 C29.69 18.08, 24.47 20.67, 22.71 20.95 M27.95 15.71 C30.08 17.79, 27.92 18.68, 22.71 20.95 M22.71 20.95 C18.01 21.04, 10.67 21.79, 5.24 20.95 M22.71 20.95 C17 21.68, 11.25 21.17, 5.24 20.95 M5.24 20.95 C2.93 20.05, 1.04 20.2, 0 15.71 M5.24 20.95 C0.26 22.85, -1.7 19.89, 0 15.71 M0 15.71 C0.28 11.93, -0.77 10.56, 0 5.24 M0 15.71 C0.04 12.46, -0.46 8.7, 0 5.24 M0 5.24 C0.39 1.81, 1.38 -0.06, 5.24 0 M0 5.24 C0.16 3.32, 0.76 1.04, 5.24 0" stroke="#1e1e1e" stroke-width="2" fill="none"></path></g><g stroke-linecap="round" transform="translate(29.71435054117319 45.26837942211296) rotate(312.47556431009303 25.4296875 23.859375)"><path d="M17.65 0.9 C22.37 -0.94, 29.97 -0.86, 35.04 0.91 C40.11 2.68, 45.64 6.83, 48.07 11.51 C50.51 16.2, 50.73 23.83, 49.65 29.01 C48.57 34.18, 45.76 39.43, 41.59 42.56 C37.43 45.7, 30.08 48.08, 24.66 47.8 C19.23 47.52, 13.12 44.24, 9.04 40.87 C4.96 37.5, 1.06 32.53, 0.18 27.59 C-0.69 22.65, -0.05 15.79, 3.77 11.22 C7.59 6.65, 18.79 1.99, 23.1 0.17 C27.42 -1.66, 29.54 -0.02, 29.66 0.29 M16.66 -0.03 C21.22 -2.35, 29.33 -2.11, 34.24 -0.06 C39.15 1.99, 43.24 7.7, 46.13 12.29 C49.02 16.88, 52.21 22.57, 51.56 27.46 C50.92 32.36, 46.59 38.31, 42.28 41.65 C37.96 45, 31.39 47.64, 25.69 47.54 C20 47.44, 12.12 44.33, 8.1 41.05 C4.08 37.77, 2.51 32.89, 1.58 27.84 C0.65 22.79, -0.26 15.24, 2.51 10.75 C5.29 6.25, 15.73 2.12, 18.21 0.88 C20.68 -0.35, 17.43 2.9, 17.36 3.33" stroke="none" stroke-width="0" fill="#ffd8a8"></path><path d="M29.66 1.03 C34.78 1.46, 40.17 5.35, 43.8 8.94 C47.42 12.53, 50.99 17.66, 51.41 22.57 C51.83 27.48, 49.76 34.29, 46.33 38.4 C42.91 42.51, 36.25 46.02, 30.86 47.23 C25.48 48.44, 18.7 48.04, 14.03 45.66 C9.35 43.27, 4.84 37.79, 2.81 32.92 C0.79 28.06, 0.44 21.24, 1.89 16.47 C3.34 11.7, 6.81 7.11, 11.5 4.31 C16.2 1.51, 26.67 0.15, 30.06 -0.34 C33.46 -0.82, 31.79 0.85, 31.88 1.42 M31.68 -0.38 C36.47 0.45, 40.52 4.73, 43.95 8.71 C47.38 12.68, 51.95 18.55, 52.24 23.45 C52.53 28.34, 49.5 34.05, 45.68 38.1 C41.85 42.15, 34.87 46.63, 29.3 47.73 C23.73 48.83, 16.88 47.64, 12.24 44.71 C7.6 41.78, 3.07 35.04, 1.44 30.17 C-0.19 25.3, 0.34 20.15, 2.45 15.5 C4.56 10.85, 9.49 4.55, 14.1 2.27 C18.71 0, 27.51 1.99, 30.11 1.85 C32.71 1.71, 29.59 1.4, 29.69 1.44" stroke="#1e1e1e" stroke-width="2" fill="none"></path></g></svg>