<svg version="1.1" xmlns="http://www.w3.org/2000/svg" viewBox="0 0 114.98702566964403 140.8422378015016" width="114.98702566964403" height="140.8422378015016">
  <!-- svg-source:excalidraw -->
  
  <defs>
    <style class="style-fonts">
      @font-face {
        font-family: "Virgil";
        src: url("https://excalidraw.com/Virgil.woff2");
      }
      @font-face {
        font-family: "Cascadia";
        src: url("https://excalidraw.com/Cascadia.woff2");
      }
      @font-face {
        font-family: "Assistant";
        src: url("https://excalidraw.com/Assistant-Regular.woff2");
      }
    </style>
    
  </defs>
  <g stroke-linecap="round" transform="translate(34.05486505681802 109.06643921733757) rotate(22.461246866865288 19.283203125 7.48828125)"><path d="M3.74 0 C10.45 -0.55, 16.91 0.1, 34.82 0 C39.1 -1.11, 39.74 0.08, 38.57 3.74 C38.62 4.51, 38.74 6.22, 38.57 11.23 C36.29 14.39, 39.2 14.08, 34.82 14.98 C24.18 13.3, 12.27 17.1, 3.74 14.98 C0.93 13.45, -2.09 16.32, 0 11.23 C0.11 9.12, -0.74 7.58, 0 3.74 C-1.1 -1.2, 1.25 0.53, 3.74 0" stroke="none" stroke-width="0" fill="#868e96"></path><path d="M3.74 0 C15.72 -0.98, 25.48 -0.15, 34.82 0 M3.74 0 C10.88 0.46, 17.44 0.24, 34.82 0 M34.82 0 C36.37 -0.77, 38.85 0.95, 38.57 3.74 M34.82 0 C38.21 0.68, 39.47 0.56, 38.57 3.74 M38.57 3.74 C38.93 6.64, 38.68 9.71, 38.57 11.23 M38.57 3.74 C38.63 6.57, 38.61 9.07, 38.57 11.23 M38.57 11.23 C39.3 13.52, 36.55 15.52, 34.82 14.98 M38.57 11.23 C38.89 14.67, 37.68 15.43, 34.82 14.98 M34.82 14.98 C23.31 14.24, 12.77 16.04, 3.74 14.98 M34.82 14.98 C27.39 14.92, 19.97 14.97, 3.74 14.98 M3.74 14.98 C1.3 14.06, 0.48 13.91, 0 11.23 M3.74 14.98 C1.95 14.46, -0.2 14.8, 0 11.23 M0 11.23 C-0.18 9.47, 0.17 7.07, 0 3.74 M0 11.23 C-0.04 8.42, -0.11 5.56, 0 3.74 M0 3.74 C-0.95 0.55, 1.65 0.32, 3.74 0 M0 3.74 C0.04 1.11, 1.35 0.51, 3.74 0" stroke="#1e1e1e" stroke-width="2" fill="none"></path></g><g stroke-linecap="round" transform="translate(33.868992660984986 16.919422171883525) rotate(22.923355211056883 19.283203125 7.48828125)"><path d="M3.74 0 C13.59 0.25, 25.39 -1.04, 34.82 0 C38.5 -1.17, 36.75 3.46, 38.57 3.74 C38.65 5.4, 37.71 9.23, 38.57 11.23 C40.45 12.83, 38.15 14.17, 34.82 14.98 C23.09 16.76, 14.87 13.18, 3.74 14.98 C-0.84 17.57, -0.98 14.56, 0 11.23 C-0.72 8.55, -0.43 4.39, 0 3.74 C0.01 1.78, 0.29 1.33, 3.74 0" stroke="none" stroke-width="0" fill="#868e96"></path><path d="M3.74 0 C14.88 0.1, 26.56 0.88, 34.82 0 M3.74 0 C9.93 0, 16.44 -0.48, 34.82 0 M34.82 0 C37.61 -0.3, 39.34 1.84, 38.57 3.74 M34.82 0 C38.22 -0.69, 39.69 1.89, 38.57 3.74 M38.57 3.74 C38.69 5.59, 38.83 7.71, 38.57 11.23 M38.57 3.74 C38.59 6.64, 38.71 9.69, 38.57 11.23 M38.57 11.23 C37.8 14.27, 37.6 15.8, 34.82 14.98 M38.57 11.23 C38.93 14.18, 37.92 13.96, 34.82 14.98 M34.82 14.98 C22.65 15.77, 10.14 15.59, 3.74 14.98 M34.82 14.98 C28.55 15.15, 22.32 14.55, 3.74 14.98 M3.74 14.98 C1.73 15.16, 0.61 13.28, 0 11.23 M3.74 14.98 C1.05 16.05, -0.44 14.13, 0 11.23 M0 11.23 C0.2 8.3, 0.33 5.58, 0 3.74 M0 11.23 C-0.13 8.82, -0.17 6.16, 0 3.74 M0 3.74 C0.4 1.57, 1.29 -0.12, 3.74 0 M0 3.74 C0.11 1.76, 0.25 -0.11, 3.74 0" stroke="#1e1e1e" stroke-width="2" fill="none"></path></g><g stroke-linecap="round" transform="translate(10 32.545724255215646) rotate(0 42.630859375 38.322265625)"><path d="M19.16 0 C34.86 -1.6, 47.25 -1.67, 66.1 0 C76.35 3.06, 87.05 6.27, 85.26 19.16 C82.18 27.81, 87.93 33.39, 85.26 57.48 C86.42 69.14, 79.45 76.21, 66.1 76.64 C54.73 75.2, 41.34 80.91, 19.16 76.64 C5.04 77.79, 3.45 70.78, 0 57.48 C-1.02 43.17, 0.51 36.36, 0 19.16 C-1.33 8.22, 5.29 -0.11, 19.16 0" stroke="none" stroke-width="0" fill="#7950f2"></path><path d="M19.16 0 C27.77 1.5, 37.54 0.35, 66.1 0 M19.16 0 C35.35 -0.86, 53.71 -0.4, 66.1 0 M66.1 0 C80.43 1.19, 86.84 5.19, 85.26 19.16 M66.1 0 C81.13 1.29, 84 8.51, 85.26 19.16 M85.26 19.16 C86.59 31.35, 87.35 40.85, 85.26 57.48 M85.26 19.16 C86.02 32.8, 84.52 47.4, 85.26 57.48 M85.26 57.48 C85.82 71.9, 79.51 77.43, 66.1 76.64 M85.26 57.48 C86.47 68.22, 80.88 75.36, 66.1 76.64 M66.1 76.64 C54.87 78.57, 44.11 77.06, 19.16 76.64 M66.1 76.64 C51.16 75.87, 36.6 76.97, 19.16 76.64 M19.16 76.64 C7.61 75.74, -0.35 72.12, 0 57.48 M19.16 76.64 C5.5 77.44, 1.36 69.22, 0 57.48 M0 57.48 C1.46 42.51, 0.41 29.82, 0 19.16 M0 57.48 C-0.66 44.11, 0.69 32.47, 0 19.16 M0 19.16 C0.08 6.15, 6.57 0.89, 19.16 0 M0 19.16 C-2 6.16, 6.84 0.07, 19.16 0" stroke="#1e1e1e" stroke-width="2" fill="none"></path></g><g stroke-linecap="round" transform="translate(77.03780691964403 58.64210104360882) rotate(0 13.974609375 10.47265625)"><path d="M5.24 0 C12.02 -1.28, 13.76 2.81, 22.71 0 C27.99 -0.12, 24.41 2.07, 27.95 5.24 C29.15 6.69, 28.39 8.85, 27.95 15.71 C28.52 18.76, 23.79 18.3, 22.71 20.95 C13.56 23.9, 8.28 21.76, 5.24 20.95 C5.19 21.47, -0.53 16.6, 0 15.71 C0.08 12.65, -0.62 9.78, 0 5.24 C-1.1 1.63, 3.97 -2.74, 5.24 0" stroke="none" stroke-width="0" fill="#ffd8a8"></path><path d="M5.24 0 C8.89 0.17, 16.75 -1.54, 22.71 0 M5.24 0 C11.1 -0.13, 17.14 0.65, 22.71 0 M22.71 0 C27.78 -1.19, 29.91 2.87, 27.95 5.24 M22.71 0 C24.94 2.13, 27.43 2.3, 27.95 5.24 M27.95 5.24 C29.06 8.62, 28.66 11.63, 27.95 15.71 M27.95 5.24 C27.62 8.1, 28.17 10.83, 27.95 15.71 M27.95 15.71 C28.58 19.98, 27.26 19.18, 22.71 20.95 M27.95 15.71 C29.96 17.92, 24.21 20.63, 22.71 20.95 M22.71 20.95 C14.13 21.05, 9.33 21.06, 5.24 20.95 M22.71 20.95 C17.38 20.94, 11.73 20.39, 5.24 20.95 M5.24 20.95 C1.39 22.8, -0.77 19.89, 0 15.71 M5.24 20.95 C3.11 19.91, 1.2 20.35, 0 15.71 M0 15.71 C0.23 12.89, 0.23 10, 0 5.24 M0 15.71 C0.31 12.42, 0.12 8.73, 0 5.24 M0 5.24 C0.18 2.64, 0.01 -0.19, 5.24 0 M0 5.24 C0.45 1.81, 1.33 -0.07, 5.24 0" stroke="#1e1e1e" stroke-width="2" fill="none"></path></g><g stroke-linecap="round" transform="translate(27.238978794644026 44.60303854360882) rotate(0 25.4296875 23.859375)"><path d="M33.34 0.39 C38.6 1.3, 44.63 5.77, 47.57 10.11 C50.51 14.44, 51.72 21.33, 50.97 26.4 C50.23 31.48, 47.08 37.16, 43.1 40.55 C39.11 43.93, 32.7 46.27, 27.09 46.73 C21.48 47.2, 13.79 46.24, 9.44 43.33 C5.09 40.42, 2.11 34.32, 0.98 29.29 C-0.15 24.26, 0.15 17.85, 2.64 13.14 C5.13 8.43, 10.31 2.81, 15.92 1.04 C21.52 -0.73, 32.35 1.97, 36.27 2.51 C40.18 3.06, 39.56 3.95, 39.39 4.29 M33.32 0.34 C38.62 1.7, 45.8 8.22, 48.65 12.56 C51.51 16.9, 51.55 21.73, 50.45 26.39 C49.34 31.06, 46.39 36.94, 42.02 40.56 C37.66 44.18, 29.55 47.91, 24.26 48.1 C18.97 48.29, 14.18 45.11, 10.28 41.71 C6.39 38.3, 2.01 32.64, 0.89 27.67 C-0.22 22.7, 1.12 16.41, 3.57 11.87 C6.02 7.32, 10.32 2.16, 15.59 0.38 C20.86 -1.39, 32.29 1.17, 35.18 1.21 C38.07 1.25, 33.03 0.33, 32.94 0.64" stroke="none" stroke-width="0" fill="#ffd8a8"></path><path d="M14.71 2.19 C19.26 0.3, 27.1 0.24, 32.54 1.82 C37.98 3.39, 44.42 7.32, 47.34 11.64 C50.26 15.95, 50.74 22.87, 50.08 27.73 C49.41 32.58, 47.08 37.46, 43.35 40.75 C39.62 44.04, 33.2 47.09, 27.71 47.46 C22.21 47.83, 14.79 45.85, 10.38 42.94 C5.98 40.04, 2.38 34.97, 1.28 30.02 C0.17 25.07, 0.39 18.18, 3.76 13.25 C7.13 8.33, 17.79 2.46, 21.49 0.45 C25.19 -1.55, 26.01 0.98, 25.95 1.23 M32.72 1.46 C37.85 2.04, 43.96 5.06, 47.19 9.03 C50.41 13.01, 52.92 20.05, 52.05 25.33 C51.17 30.6, 45.81 37.12, 41.94 40.68 C38.06 44.25, 33.82 46.54, 28.79 46.73 C23.77 46.92, 16.43 44.57, 11.76 41.8 C7.1 39.03, 2.34 34.74, 0.79 30.11 C-0.76 25.48, 0.11 18.9, 2.47 14.01 C4.84 9.12, 9.9 2.91, 14.99 0.77 C20.07 -1.38, 29.97 1.17, 32.97 1.15 C35.98 1.13, 33.3 0.08, 33.02 0.65" stroke="#1e1e1e" stroke-width="2" fill="none"></path></g></svg>