<svg version="1.1" xmlns="http://www.w3.org/2000/svg" viewBox="0 0 107.08836856447897 140.8422378015016" width="107.08836856447897" height="140.8422378015016">
  <!-- svg-source:excalidraw -->
  
  <defs>
    <style class="style-fonts">
      @font-face {
        font-family: "Virgil";
        src: url("https://excalidraw.com/Virgil.woff2");
      }
      @font-face {
        font-family: "Cascadia";
        src: url("https://excalidraw.com/Cascadia.woff2");
      }
      @font-face {
        font-family: "Assistant";
        src: url("https://excalidraw.com/Assistant-Regular.woff2");
      }
    </style>
    
  </defs>
  <g stroke-linecap="round" transform="translate(34.05486505681802 109.06643921733757) rotate(22.461246866865288 19.283203125 7.48828125)"><path d="M3.74 0 C15.42 2.76, 26.23 2.29, 34.82 0 C34.76 -0.03, 39.07 1.22, 38.57 3.74 C39.04 6.39, 39.17 8.24, 38.57 11.23 C38.11 16.14, 36.32 15.88, 34.82 14.98 C24.96 13.51, 14.65 13.26, 3.74 14.98 C2.03 14.09, 0.79 11.79, 0 11.23 C0.48 9.07, 0.13 6.17, 0 3.74 C0.24 2.41, -1.01 -0.25, 3.74 0" stroke="none" stroke-width="0" fill="#868e96"></path><path d="M3.74 0 C11.66 0.34, 20.15 -0.76, 34.82 0 M3.74 0 C15.57 0.02, 26.34 0.19, 34.82 0 M34.82 0 C37.03 0.36, 39.18 2.05, 38.57 3.74 M34.82 0 C38.03 -0.18, 39.36 0.33, 38.57 3.74 M38.57 3.74 C38.48 5.79, 38.9 7.49, 38.57 11.23 M38.57 3.74 C38.74 5.98, 38.45 8.31, 38.57 11.23 M38.57 11.23 C37.8 13.36, 37.61 14.38, 34.82 14.98 M38.57 11.23 C39.07 12.77, 38.01 14.55, 34.82 14.98 M34.82 14.98 C22.4 14.81, 10.54 15.59, 3.74 14.98 M34.82 14.98 C27.84 15.18, 21.18 14.69, 3.74 14.98 M3.74 14.98 C1.53 14.67, 0.78 14.32, 0 11.23 M3.74 14.98 C2.15 14.29, 1.13 14.37, 0 11.23 M0 11.23 C0.06 9.4, 0.2 7.85, 0 3.74 M0 11.23 C0.01 8.14, 0.13 5.21, 0 3.74 M0 3.74 C-0.77 1.79, 1.53 0.82, 3.74 0 M0 3.74 C0.36 1.7, 1.85 -1.02, 3.74 0" stroke="#1e1e1e" stroke-width="2" fill="none"></path></g><g stroke-linecap="round" transform="translate(33.868992660984986 16.919422171883525) rotate(22.923355211056883 19.283203125 7.48828125)"><path d="M3.74 0 C8.78 1.56, 14.44 -0.4, 34.82 0 C37.82 -0.02, 39.33 1.39, 38.57 3.74 C39.21 4.86, 38.44 7.77, 38.57 11.23 C37.56 14.63, 38.86 13.81, 34.82 14.98 C26.03 12.79, 13.72 13.83, 3.74 14.98 C2.04 13.03, 0.78 11.26, 0 11.23 C0 9.4, 0.05 8.23, 0 3.74 C-2.26 1, 1.76 0.08, 3.74 0" stroke="none" stroke-width="0" fill="#868e96"></path><path d="M3.74 0 C11.44 -0.86, 21.05 -0.56, 34.82 0 M3.74 0 C13.42 0.2, 23.31 0.16, 34.82 0 M34.82 0 C37.93 0.8, 39.19 1.09, 38.57 3.74 M34.82 0 C38.12 -0.92, 38.04 0.92, 38.57 3.74 M38.57 3.74 C38.91 5.68, 38.58 7.76, 38.57 11.23 M38.57 3.74 C38.49 5.35, 38.46 6.93, 38.57 11.23 M38.57 11.23 C38.86 13.13, 37.76 14.14, 34.82 14.98 M38.57 11.23 C39.26 13.3, 38.23 15.88, 34.82 14.98 M34.82 14.98 C27.42 15.72, 20.6 15.14, 3.74 14.98 M34.82 14.98 C23.01 14.63, 12.28 14.86, 3.74 14.98 M3.74 14.98 C2.03 15.57, 0.79 13.13, 0 11.23 M3.74 14.98 C2.37 15.62, -0.63 14.79, 0 11.23 M0 11.23 C0.22 9.44, 0.36 7.15, 0 3.74 M0 11.23 C0.13 8.49, -0.15 5.92, 0 3.74 M0 3.74 C0.28 2.07, 1.56 0.39, 3.74 0 M0 3.74 C0.6 0.23, 2.25 -0.64, 3.74 0" stroke="#1e1e1e" stroke-width="2" fill="none"></path></g><g stroke-linecap="round" transform="translate(10 32.545724255215646) rotate(0 42.630859375 38.322265625)"><path d="M19.16 0 C34.05 -0.67, 56.71 -0.66, 66.1 0 C79.94 0.2, 81.96 8.13, 85.26 19.16 C85.05 34.7, 84.3 44.8, 85.26 57.48 C87.39 68.64, 80.75 78.45, 66.1 76.64 C56.14 74.8, 45.11 73.33, 19.16 76.64 C7.47 73.22, -2.53 71.7, 0 57.48 C0.3 46.37, -3.15 31.68, 0 19.16 C0.7 6.5, 5.73 -0.11, 19.16 0" stroke="none" stroke-width="0" fill="#7950f2"></path><path d="M19.16 0 C35.94 -0.65, 50.42 2.13, 66.1 0 M19.16 0 C33.43 0.16, 48.91 0.6, 66.1 0 M66.1 0 C80.12 -0.32, 86.65 4.79, 85.26 19.16 M66.1 0 C77.83 -0.65, 84.51 5.94, 85.26 19.16 M85.26 19.16 C85.74 32.22, 83.96 46.99, 85.26 57.48 M85.26 19.16 C84.26 29.05, 85.32 39.08, 85.26 57.48 M85.26 57.48 C86.15 68.59, 80.08 75.9, 66.1 76.64 M85.26 57.48 C87.08 72.07, 76.91 75.17, 66.1 76.64 M66.1 76.64 C50.4 77.33, 39.52 75.38, 19.16 76.64 M66.1 76.64 C51.31 75.98, 36.73 76.88, 19.16 76.64 M19.16 76.64 C7.96 75.45, 1.96 71.38, 0 57.48 M19.16 76.64 C5.13 78.77, -0.52 70.81, 0 57.48 M0 57.48 C1.76 46.34, 0.99 34.49, 0 19.16 M0 57.48 C-1.05 48.57, 0 39.4, 0 19.16 M0 19.16 C0.63 7.17, 7.44 -1.77, 19.16 0 M0 19.16 C2.01 5.1, 4.39 -0.32, 19.16 0" stroke="#1e1e1e" stroke-width="2" fill="none"></path></g><g stroke-linecap="round" transform="translate(65.95277605371757 87.12363309975535) rotate(47.524435689906944 13.974609375 10.47265625)"><path d="M5.24 0 C10.57 -2.32, 17.75 -1.37, 22.71 0 C22.81 0.01, 28.68 0.41, 27.95 5.24 C29.06 7.48, 27.96 12.83, 27.95 15.71 C27.39 15.75, 26.93 19.07, 22.71 20.95 C16.74 18.16, 12.92 21.14, 5.24 20.95 C2.89 19.92, -2.39 21.18, 0 15.71 C0.76 13.28, 0.01 11.14, 0 5.24 C-3.26 5.1, -1.64 -1.92, 5.24 0" stroke="none" stroke-width="0" fill="#ffd8a8"></path><path d="M5.24 0 C10.24 -1.47, 16.91 0.36, 22.71 0 M5.24 0 C12.38 -0.84, 19.36 -0.56, 22.71 0 M22.71 0 C24.47 -0.27, 29.8 0.52, 27.95 5.24 M22.71 0 C27.92 -2.26, 27.92 2.19, 27.95 5.24 M27.95 5.24 C27.02 8.88, 28.17 12.14, 27.95 15.71 M27.95 5.24 C27.73 8.09, 28.24 10.34, 27.95 15.71 M27.95 15.71 C28.99 20.2, 24.91 22.6, 22.71 20.95 M27.95 15.71 C26.25 19.89, 25.42 21.65, 22.71 20.95 M22.71 20.95 C17.55 21.48, 15.4 20.84, 5.24 20.95 M22.71 20.95 C16.92 20.94, 12.81 21.05, 5.24 20.95 M5.24 20.95 C1.38 20.88, 0.14 20.57, 0 15.71 M5.24 20.95 C0.76 21.99, -1.03 17.59, 0 15.71 M0 15.71 C-1.08 11.77, -1.09 6.73, 0 5.24 M0 15.71 C0.09 12.14, 0.01 8.83, 0 5.24 M0 5.24 C-1.34 0.28, 3.33 -0.24, 5.24 0 M0 5.24 C-1.35 -0.1, 4.04 -0.86, 5.24 0" stroke="#1e1e1e" stroke-width="2" fill="none"></path></g><g stroke-linecap="round" transform="translate(28.123948755458514 45.896403022249615) rotate(47.524435689906944 25.4296875 23.859375)"><path d="M19.33 1.39 C24.33 0.13, 32.99 0.46, 37.76 2.71 C42.54 4.96, 46.17 10.32, 47.98 14.91 C49.8 19.5, 50.11 25.28, 48.66 30.26 C47.2 35.23, 43.76 41.83, 39.26 44.76 C34.76 47.69, 27.15 48.61, 21.66 47.82 C16.17 47.04, 9.92 44.01, 6.3 40.06 C2.67 36.12, 0.18 29.13, -0.1 24.13 C-0.39 19.13, 0.34 14.17, 4.59 10.05 C8.84 5.93, 21.15 0.75, 25.4 -0.59 C29.65 -1.92, 30.14 1.5, 30.09 2.05 M36.06 3.12 C40.66 4.89, 46.01 8.59, 48.28 13.29 C50.55 17.99, 51.31 26.07, 49.69 31.31 C48.07 36.56, 43.23 42.04, 38.56 44.73 C33.89 47.43, 26.84 48.45, 21.68 47.47 C16.52 46.49, 11.23 42.58, 7.63 38.86 C4.03 35.13, 0.52 30.27, 0.08 25.11 C-0.35 19.96, 1.65 12.14, 5 7.92 C8.36 3.7, 14.7 0.79, 20.2 -0.21 C25.71 -1.21, 35.29 1.32, 38.03 1.9 C40.78 2.48, 37.23 2.55, 36.67 3.25" stroke="none" stroke-width="0" fill="#ffd8a8"></path><path d="M29.36 0.76 C34.24 1.22, 39.95 5.2, 43.44 8.76 C46.93 12.33, 49.97 17.04, 50.29 22.16 C50.6 27.27, 48.7 35.17, 45.33 39.47 C41.97 43.77, 35.58 47.03, 30.11 47.94 C24.64 48.85, 17.19 47.44, 12.51 44.92 C7.83 42.39, 3.88 37.52, 2.05 32.79 C0.22 28.06, 0.04 21.32, 1.54 16.54 C3.04 11.77, 5.88 6.62, 11.03 4.11 C16.19 1.6, 28.51 1.81, 32.49 1.5 C36.46 1.18, 34.85 2, 34.86 2.22 M30.59 1.11 C35.43 1.96, 40.72 5.87, 43.91 9.73 C47.11 13.6, 49.66 19.29, 49.75 24.27 C49.84 29.25, 47.92 35.7, 44.43 39.62 C40.93 43.55, 34.28 47.16, 28.76 47.8 C23.25 48.45, 15.76 46.03, 11.32 43.49 C6.89 40.94, 3.77 37.19, 2.15 32.54 C0.52 27.88, -0.2 20.33, 1.58 15.56 C3.35 10.78, 8.33 6.44, 12.82 3.89 C17.3 1.33, 25.64 0.71, 28.5 0.21 C31.37 -0.29, 29.91 0.46, 30.01 0.87" stroke="#1e1e1e" stroke-width="2" fill="none"></path></g></svg>