<svg version="1.1" xmlns="http://www.w3.org/2000/svg" viewBox="0 0 105.26171875 140.8422378015016" width="105.26171875" height="140.8422378015016">
  <!-- svg-source:excalidraw -->
  
  <defs>
    <style class="style-fonts">
      @font-face {
        font-family: "Virgil";
        src: url("https://excalidraw.com/Virgil.woff2");
      }
      @font-face {
        font-family: "Cascadia";
        src: url("https://excalidraw.com/Cascadia.woff2");
      }
      @font-face {
        font-family: "Assistant";
        src: url("https://excalidraw.com/Assistant-Regular.woff2");
      }
    </style>
    
  </defs>
  <g stroke-linecap="round" transform="translate(34.05486505681802 109.06643921733757) rotate(22.461246866865288 19.283203125 7.48828125)"><path d="M3.74 0 C15.89 -0.02, 27.79 0.15, 34.82 0 C34.93 1.26, 39.04 2.83, 38.57 3.74 C38.17 5.99, 39.13 7.12, 38.57 11.23 C39.92 15.03, 35.64 17.13, 34.82 14.98 C28.59 12.9, 21.56 12.37, 3.74 14.98 C-0.58 16.02, 0.84 13.83, 0 11.23 C-0.85 8.98, 0.18 6.94, 0 3.74 C-0.47 1.17, 1.43 1.79, 3.74 0" stroke="none" stroke-width="0" fill="#868e96"></path><path d="M3.74 0 C10.71 0.96, 17.43 -0.27, 34.82 0 M3.74 0 C14.71 0.35, 25.38 -0.14, 34.82 0 M34.82 0 C38.01 -0.8, 38.11 0.97, 38.57 3.74 M34.82 0 C36.94 -0.22, 39.01 2.31, 38.57 3.74 M38.57 3.74 C38.26 6.22, 38.45 7.76, 38.57 11.23 M38.57 3.74 C38.59 5.82, 38.62 7.96, 38.57 11.23 M38.57 11.23 C39.17 13.36, 38.11 15.76, 34.82 14.98 M38.57 11.23 C37.58 12.99, 37.28 14.14, 34.82 14.98 M34.82 14.98 C23.84 14.2, 11.76 14.06, 3.74 14.98 M34.82 14.98 C28.27 15.23, 21.33 14.63, 3.74 14.98 M3.74 14.98 C2.23 15.54, -0.55 14.65, 0 11.23 M3.74 14.98 C0.99 15.25, 0.02 14.44, 0 11.23 M0 11.23 C0.19 8.43, -0.24 5.85, 0 3.74 M0 11.23 C0.08 9.29, 0.09 7.12, 0 3.74 M0 3.74 C0.53 0.36, 2.12 -0.56, 3.74 0 M0 3.74 C-1 1.09, 2.31 -0.7, 3.74 0" stroke="#1e1e1e" stroke-width="2" fill="none"></path></g><g stroke-linecap="round" transform="translate(33.868992660985896 16.919422171883525) rotate(22.923355211056883 19.283203125 7.48828125)"><path d="M3.74 0 C13.8 0.15, 19.93 1.26, 34.82 0 C37.79 1.59, 37.39 0.79, 38.57 3.74 C39.1 6.25, 39.04 10.12, 38.57 11.23 C36.88 15.88, 35.4 15.76, 34.82 14.98 C27.34 12.2, 16.46 15.72, 3.74 14.98 C2.08 15.07, -0.3 13.97, 0 11.23 C0.27 8.68, -0.09 6.04, 0 3.74 C0.18 3.03, 0.14 1.18, 3.74 0" stroke="none" stroke-width="0" fill="#868e96"></path><path d="M3.74 0 C11.56 -0.49, 19.61 -0.43, 34.82 0 M3.74 0 C14.5 -0.2, 24.98 -0.52, 34.82 0 M34.82 0 C36.86 -0.28, 38.24 1.05, 38.57 3.74 M34.82 0 C37.76 1.07, 38.38 1.32, 38.57 3.74 M38.57 3.74 C38.41 5.79, 38.51 8.01, 38.57 11.23 M38.57 3.74 C38.66 5.56, 38.69 7.61, 38.57 11.23 M38.57 11.23 C39.36 14.51, 36.46 14.33, 34.82 14.98 M38.57 11.23 C38.53 12.89, 38.17 13.96, 34.82 14.98 M34.82 14.98 C25.19 13.91, 14.36 15.14, 3.74 14.98 M34.82 14.98 C26.83 14.77, 18.55 15.35, 3.74 14.98 M3.74 14.98 C0.7 15.9, -0.22 13.97, 0 11.23 M3.74 14.98 C1.27 15.69, 0.89 14.88, 0 11.23 M0 11.23 C-0.22 9.1, -0.1 6.14, 0 3.74 M0 11.23 C0.05 8.65, 0.09 5.76, 0 3.74 M0 3.74 C0.87 0.69, 0.38 -0.14, 3.74 0 M0 3.74 C1.06 0.55, 2.1 -1.13, 3.74 0" stroke="#1e1e1e" stroke-width="2" fill="none"></path></g><g stroke-linecap="round" transform="translate(10 32.545724255215646) rotate(0 42.630859375 38.322265625)"><path d="M19.16 0 C29.9 1.7, 47.9 2.15, 66.1 0 C77.25 -0.63, 88.61 5, 85.26 19.16 C87.54 33.79, 83.34 47.78, 85.26 57.48 C82.6 71.34, 77.65 77.74, 66.1 76.64 C53 77.28, 46.11 75.98, 19.16 76.64 C5.96 76.97, 1.61 67.13, 0 57.48 C-0.79 46.24, 0.11 37.71, 0 19.16 C-1.54 8.02, 4.77 -2.52, 19.16 0" stroke="none" stroke-width="0" fill="#7950f2"></path><path d="M19.16 0 C38.22 -0.42, 56.27 1.4, 66.1 0 M19.16 0 C37.7 -0.72, 54.41 -0.21, 66.1 0 M66.1 0 C78.22 -0.39, 86.03 8.24, 85.26 19.16 M66.1 0 C78.49 0.14, 85.36 4.48, 85.26 19.16 M85.26 19.16 C84.98 32.71, 84.4 49.92, 85.26 57.48 M85.26 19.16 C86.03 28.01, 86.22 38.38, 85.26 57.48 M85.26 57.48 C83.55 68.97, 78.81 75.18, 66.1 76.64 M85.26 57.48 C86.97 68.23, 79.26 78.14, 66.1 76.64 M66.1 76.64 C54.26 76.77, 44.88 77.76, 19.16 76.64 M66.1 76.64 C50.21 76.93, 31.82 77.29, 19.16 76.64 M19.16 76.64 C5.94 77.13, 0.04 71.5, 0 57.48 M19.16 76.64 C8.17 78.94, 0.48 71.67, 0 57.48 M0 57.48 C-0.2 44.18, 1.29 34.52, 0 19.16 M0 57.48 C0.4 41.95, 0.75 27.63, 0 19.16 M0 19.16 C-1.73 6.11, 8.24 -1.22, 19.16 0 M0 19.16 C1.71 4.12, 6.36 0.45, 19.16 0" stroke="#1e1e1e" stroke-width="2" fill="none"></path></g><g stroke-linecap="round" transform="translate(38.649680311687916 96.89204723666899) rotate(90.684351531919 13.974609375 10.47265625)"><path d="M5.24 0 C8.27 0.69, 16.68 0.14, 22.71 0 C25.67 -2.6, 29 0.22, 27.95 5.24 C27.25 8.35, 27.37 9.49, 27.95 15.71 C30.17 16.46, 26.34 21.4, 22.71 20.95 C16.1 22.87, 11.13 20.49, 5.24 20.95 C2.09 17.82, 3.16 19.48, 0 15.71 C1.09 11.75, -0.72 8.21, 0 5.24 C1.3 2.59, 1.62 2.24, 5.24 0" stroke="none" stroke-width="0" fill="#ffd8a8"></path><path d="M5.24 0 C12.91 0.08, 17.5 1.24, 22.71 0 M5.24 0 C10.37 0.62, 15.28 0.25, 22.71 0 M22.71 0 C27.26 -1.77, 29.69 0.63, 27.95 5.24 M22.71 0 C24.21 -0.32, 30.08 0.34, 27.95 5.24 M27.95 5.24 C28.05 9.15, 28.15 13.14, 27.95 15.71 M27.95 5.24 C28.32 7.18, 27.91 10.09, 27.95 15.71 M27.95 15.71 C27.18 19.89, 27.39 20.05, 22.71 20.95 M27.95 15.71 C29.15 20.35, 24.72 22.85, 22.71 20.95 M22.71 20.95 C19.3 19.58, 15.34 19.22, 5.24 20.95 M22.71 20.95 C18.73 20.9, 14.76 21.39, 5.24 20.95 M5.24 20.95 C0.01 20.75, 0.39 19.26, 0 15.71 M5.24 20.95 C1.33 20.87, 0.16 20.78, 0 15.71 M0 15.71 C-0.78 13.9, 0.47 10.29, 0 5.24 M0 15.71 C-0.47 13.73, 0.37 11.3, 0 5.24 M0 5.24 C0.64 1.12, 2.07 -0.24, 5.24 0 M0 5.24 C-1.54 0.06, 3.57 -0.28, 5.24 0" stroke="#1e1e1e" stroke-width="2" fill="none"></path></g><g stroke-linecap="round" transform="translate(27.00027901785961 45.15652205235165) rotate(90.684351531919 25.4296875 23.859375)"><path d="M23.81 -0.33 C29.02 -1.16, 36.15 0.69, 40.4 3.82 C44.64 6.95, 47.83 13.45, 49.27 18.45 C50.71 23.46, 51.34 29.32, 49.01 33.84 C46.68 38.35, 40.45 43.5, 35.27 45.54 C30.09 47.58, 23 47.25, 17.94 46.05 C12.88 44.85, 7.94 42.31, 4.9 38.34 C1.87 34.36, -0.62 27.37, -0.26 22.18 C0.11 16.99, 2.55 11.01, 7.08 7.21 C11.6 3.4, 23.07 0.28, 26.9 -0.62 C30.73 -1.52, 30.06 1.4, 30.03 1.81 M15.97 3.34 C20.39 1.21, 28.13 -0.51, 33.08 0.82 C38.03 2.15, 42.84 7.21, 45.67 11.3 C48.5 15.39, 50.52 20.3, 50.04 25.35 C49.56 30.4, 46.75 37.76, 42.78 41.61 C38.81 45.46, 31.73 48.24, 26.21 48.45 C20.69 48.66, 13.78 46.26, 9.67 42.87 C5.57 39.48, 2.72 33.03, 1.58 28.09 C0.44 23.15, 0.55 17.82, 2.83 13.22 C5.11 8.61, 13.06 2.4, 15.25 0.46 C17.45 -1.48, 15.64 1.08, 15.99 1.56" stroke="none" stroke-width="0" fill="#ffd8a8"></path><path d="M35.07 1.86 C40.19 3.49, 45.87 8.09, 48.49 12.6 C51.11 17.11, 52.11 23.82, 50.79 28.93 C49.46 34.04, 44.95 40.28, 40.56 43.27 C36.17 46.25, 29.76 46.93, 24.44 46.85 C19.12 46.77, 12.74 45.88, 8.62 42.8 C4.5 39.72, 0.7 33.55, -0.3 28.35 C-1.29 23.14, -0.3 16.08, 2.64 11.57 C5.58 7.06, 11.64 2.82, 17.33 1.29 C23.03 -0.23, 33.5 1.95, 36.82 2.45 C40.14 2.94, 37.46 3.8, 37.26 4.25 M19.15 1.13 C24.31 -0.6, 32.8 -0.43, 37.88 1.93 C42.96 4.3, 47.81 10.28, 49.63 15.3 C51.44 20.33, 50.68 27.25, 48.77 32.09 C46.86 36.93, 42.65 41.68, 38.15 44.33 C33.66 46.98, 27.21 48.62, 21.8 48 C16.39 47.37, 9.56 44.56, 5.7 40.57 C1.83 36.58, -1.4 29.14, -1.39 24.04 C-1.39 18.94, 2.2 13.9, 5.73 9.97 C9.26 6.03, 17.41 1.8, 19.78 0.43 C22.16 -0.94, 20.11 1.35, 19.98 1.74" stroke="#1e1e1e" stroke-width="2" fill="none"></path></g></svg>