<svg version="1.1" xmlns="http://www.w3.org/2000/svg" viewBox="0 0 106.89305606447624 140.8422378015016" width="106.89305606447624" height="140.8422378015016">
  <!-- svg-source:excalidraw -->
  
  <defs>
    <style class="style-fonts">
      @font-face {
        font-family: "Virgil";
        src: url("https://excalidraw.com/Virgil.woff2");
      }
      @font-face {
        font-family: "Cascadia";
        src: url("https://excalidraw.com/Cascadia.woff2");
      }
      @font-face {
        font-family: "Assistant";
        src: url("https://excalidraw.com/Assistant-Regular.woff2");
      }
    </style>
    
  </defs>
  <g stroke-linecap="round" transform="translate(35.68620237129426 109.06643921733757) rotate(22.461246866865288 19.283203125 7.48828125)"><path d="M3.74 0 C13.72 1.39, 21.56 -0.65, 34.82 0 C39.73 -1, 39.47 2.79, 38.57 3.74 C37.99 6.46, 37.9 7.86, 38.57 11.23 C37.68 14.52, 35.38 15.76, 34.82 14.98 C29.29 15.24, 21.78 15.38, 3.74 14.98 C2.41 12.72, -0.25 14.24, 0 11.23 C0.08 9.63, -0.4 7.14, 0 3.74 C-1.17 -0.57, 3.46 1.29, 3.74 0" stroke="none" stroke-width="0" fill="#868e96"></path><path d="M3.74 0 C12.34 0.66, 21.01 0.67, 34.82 0 M3.74 0 C12.35 -0.02, 21.24 0.03, 34.82 0 M34.82 0 C37.7 0.93, 38.4 1.31, 38.57 3.74 M34.82 0 C37.37 -0.95, 39.64 0.88, 38.57 3.74 M38.57 3.74 C38.43 5.64, 38.34 7.49, 38.57 11.23 M38.57 3.74 C38.74 5.51, 38.43 6.87, 38.57 11.23 M38.57 11.23 C38.54 13, 38.06 14.1, 34.82 14.98 M38.57 11.23 C38.76 14.48, 36.39 15.22, 34.82 14.98 M34.82 14.98 C28.14 15.8, 22.65 15.81, 3.74 14.98 M34.82 14.98 C27.08 15.53, 19.77 15.18, 3.74 14.98 M3.74 14.98 C1.27 15.6, 0.78 14.73, 0 11.23 M3.74 14.98 C1.49 15.68, 0.08 13.11, 0 11.23 M0 11.23 C0.21 8.54, 0.32 5.76, 0 3.74 M0 11.23 C0.14 8.59, -0.18 6.13, 0 3.74 M0 3.74 C0.93 0.64, 1.99 -0.98, 3.74 0 M0 3.74 C-0.01 1.47, 1.24 0.34, 3.74 0" stroke="#1e1e1e" stroke-width="2" fill="none"></path></g><g stroke-linecap="round" transform="translate(35.50032997546032 16.919422171883525) rotate(22.923355211056883 19.283203125 7.48828125)"><path d="M3.74 0 C13.4 -0.7, 27.82 -1.25, 34.82 0 C38.22 1.54, 37.4 2.6, 38.57 3.74 C37.78 6.66, 38.17 9.28, 38.57 11.23 C36.62 14.51, 34.85 13.15, 34.82 14.98 C23.95 15.23, 14.84 12.73, 3.74 14.98 C1 15.48, 0.08 13.26, 0 11.23 C-0.42 9.45, -0.44 6.11, 0 3.74 C2.21 2.54, 1.16 -2.55, 3.74 0" stroke="none" stroke-width="0" fill="#868e96"></path><path d="M3.74 0 C12.96 0.53, 20.42 0.6, 34.82 0 M3.74 0 C10.42 -0.05, 17.62 0.51, 34.82 0 M34.82 0 C37.15 0.06, 38.61 0.42, 38.57 3.74 M34.82 0 C38.4 -0.37, 37.86 1.15, 38.57 3.74 M38.57 3.74 C38.33 5.58, 38.24 7.31, 38.57 11.23 M38.57 3.74 C38.44 5.59, 38.59 7.55, 38.57 11.23 M38.57 11.23 C39.31 12.85, 37.49 15.63, 34.82 14.98 M38.57 11.23 C37.64 13.97, 36.23 14.1, 34.82 14.98 M34.82 14.98 C25.2 15.89, 13.8 16.08, 3.74 14.98 M34.82 14.98 C23.64 15.24, 12.69 15.43, 3.74 14.98 M3.74 14.98 C2.02 15.98, 0.21 14.34, 0 11.23 M3.74 14.98 C1.33 14.36, 0.84 13.49, 0 11.23 M0 11.23 C0.29 9.68, 0.13 8.09, 0 3.74 M0 11.23 C-0.2 9.62, 0.14 7.95, 0 3.74 M0 3.74 C0.74 0.26, 1.24 0.19, 3.74 0 M0 3.74 C-0.01 1.59, 1.31 -1.05, 3.74 0" stroke="#1e1e1e" stroke-width="2" fill="none"></path></g><g stroke-linecap="round" transform="translate(11.63133731447624 32.545724255215646) rotate(0 42.630859375 38.322265625)"><path d="M19.16 0 C39.45 -1.24, 54.29 2.28, 66.1 0 C77.26 1.87, 87.06 4.06, 85.26 19.16 C83.53 34.93, 82.06 49.58, 85.26 57.48 C81.84 67.73, 80.32 77.8, 66.1 76.64 C53.45 73.6, 37.23 77.42, 19.16 76.64 C6.5 75.99, -0.11 70.5, 0 57.48 C-1.32 40.83, 3.35 31.02, 0 19.16 C-0.12 2.85, 6.72 -3.57, 19.16 0" stroke="none" stroke-width="0" fill="#7950f2"></path><path d="M19.16 0 C35.82 1.09, 51.51 -1.2, 66.1 0 M19.16 0 C32.3 1.02, 44.51 0.15, 66.1 0 M66.1 0 C78.96 -1.66, 87.14 5.74, 85.26 19.16 M66.1 0 C77.47 -0.19, 83.49 5.54, 85.26 19.16 M85.26 19.16 C83.36 32.98, 84.29 45.98, 85.26 57.48 M85.26 19.16 C84.9 32.94, 85.68 47.3, 85.26 57.48 M85.26 57.48 C85.6 71.56, 77.27 77.07, 66.1 76.64 M85.26 57.48 C83.09 68.5, 79.53 75.95, 66.1 76.64 M66.1 76.64 C47.17 78.97, 31.75 75.92, 19.16 76.64 M66.1 76.64 C47.69 77.38, 30.03 77.76, 19.16 76.64 M19.16 76.64 C6.8 77.87, 0.14 69.19, 0 57.48 M19.16 76.64 C8.07 76.17, -1.77 71.51, 0 57.48 M0 57.48 C0.47 45.97, -2.08 34.1, 0 19.16 M0 57.48 C1.26 47.52, 1.08 37.79, 0 19.16 M0 19.16 C-0.02 6.78, 6.37 0.59, 19.16 0 M0 19.16 C0.13 4.28, 7.5 0.42, 19.16 0" stroke="#1e1e1e" stroke-width="2" fill="none"></path></g><g stroke-linecap="round" transform="translate(13.186373760761398 88.17832059975444) rotate(312.47556431009303 13.974609375 10.47265625)"><path d="M5.24 0 C8.92 -2.1, 10.85 2.89, 22.71 0 C24.85 1.15, 31.4 2.27, 27.95 5.24 C27.02 6.45, 27.82 11.59, 27.95 15.71 C26.62 21.04, 25.11 20.83, 22.71 20.95 C16.78 20.46, 7.05 21.59, 5.24 20.95 C-0.13 23.07, -1.88 18.61, 0 15.71 C0.31 13.06, -0.37 7.97, 0 5.24 C1.98 0.81, 0.26 -1.05, 5.24 0" stroke="none" stroke-width="0" fill="#ffd8a8"></path><path d="M5.24 0 C11.17 1.35, 16.68 0.36, 22.71 0 M5.24 0 C12.19 -0.09, 17.19 0.57, 22.71 0 M22.71 0 C26.76 1.64, 28.58 2.53, 27.95 5.24 M22.71 0 C27.41 -2.03, 29.96 0.46, 27.95 5.24 M27.95 5.24 C27.29 8.25, 26.9 9.69, 27.95 15.71 M27.95 5.24 C27.98 8.1, 28.2 12.02, 27.95 15.71 M27.95 15.71 C29.17 18.3, 25.85 22.8, 22.71 20.95 M27.95 15.71 C27.06 20, 27.56 19.91, 22.71 20.95 M22.71 20.95 C18.01 19.54, 10.93 20.24, 5.24 20.95 M22.71 20.95 C16.11 20.38, 11.51 21.28, 5.24 20.95 M5.24 20.95 C1.82 20.71, 0.18 20.09, 0 15.71 M5.24 20.95 C-0.25 20.72, 0.45 19.27, 0 15.71 M0 15.71 C0.72 12.31, 0.48 9.33, 0 5.24 M0 15.71 C-0.11 12.79, -0.04 10.37, 0 5.24 M0 5.24 C-1.75 2.25, 3.19 -0.69, 5.24 0 M0 5.24 C0.74 1.03, 2.11 -0.28, 5.24 0" stroke="#1e1e1e" stroke-width="2" fill="none"></path></g><g stroke-linecap="round" transform="translate(28.105044809020455 46.951090522250524) rotate(312.47556431009303 25.4296875 23.859375)"><path d="M14.76 2.03 C19.33 -0.31, 26.66 -0.4, 32.03 0.89 C37.4 2.19, 43.78 5.68, 46.98 9.79 C50.17 13.89, 51.93 20.23, 51.21 25.54 C50.49 30.84, 46.53 37.94, 42.67 41.61 C38.82 45.29, 33.57 47.29, 28.09 47.6 C22.61 47.91, 14.52 46.55, 9.82 43.47 C5.11 40.39, 1.05 33.95, -0.14 29.11 C-1.33 24.28, -0.53 19.14, 2.66 14.46 C5.85 9.77, 15.47 3.31, 19.02 1.01 C22.56 -1.29, 23.8 0.44, 23.93 0.66 M15.42 0.39 C20.19 -1.71, 29.81 -1.37, 35.19 0.73 C40.57 2.83, 45.1 8.56, 47.7 13 C50.29 17.43, 51.87 22.47, 50.77 27.35 C49.66 32.24, 45.29 39.14, 41.04 42.29 C36.79 45.45, 30.52 46.23, 25.26 46.3 C19.99 46.37, 13.67 45.57, 9.44 42.72 C5.22 39.86, 1.03 34.27, -0.08 29.19 C-1.2 24.12, -0.16 17.05, 2.72 12.26 C5.61 7.47, 14.93 2.12, 17.23 0.45 C19.53 -1.22, 16.58 1.9, 16.54 2.22" stroke="none" stroke-width="0" fill="#ffd8a8"></path><path d="M27.55 0.86 C32.59 0.93, 39.55 2.91, 43.51 6.51 C47.48 10.11, 50.79 17.19, 51.34 22.47 C51.89 27.75, 50.06 34.02, 46.83 38.19 C43.6 42.37, 37.55 46.2, 31.98 47.53 C26.41 48.87, 18.46 48.65, 13.4 46.18 C8.35 43.71, 3.74 37.36, 1.64 32.7 C-0.45 28.04, -0.65 22.86, 0.85 18.21 C2.34 13.57, 4.89 7.5, 10.59 4.83 C16.29 2.15, 29.69 1.83, 35.04 2.16 C40.4 2.49, 42.67 6.45, 42.71 6.83 M15.09 1.79 C19.42 -0.45, 26.16 0.66, 31.2 2.08 C36.24 3.49, 41.94 6.49, 45.35 10.26 C48.77 14.04, 51.82 19.6, 51.69 24.74 C51.57 29.88, 48.66 37.09, 44.59 41.1 C40.51 45.12, 32.97 48.31, 27.24 48.82 C21.51 49.32, 14.66 47.12, 10.2 44.15 C5.75 41.19, 2.04 35.91, 0.51 31 C-1.02 26.1, -1.01 19.64, 1.03 14.71 C3.07 9.78, 10.42 3.3, 12.75 1.41 C15.07 -0.48, 14.57 2.87, 15 3.37" stroke="#1e1e1e" stroke-width="2" fill="none"></path></g></svg>