<svg version="1.1" xmlns="http://www.w3.org/2000/svg" viewBox="0 0 105.26171875 140.84223780150387" width="105.26171875" height="140.84223780150387">
  <!-- svg-source:excalidraw -->
  
  <defs>
    <style class="style-fonts">
      @font-face {
        font-family: "Virgil";
        src: url("https://excalidraw.com/Virgil.woff2");
      }
      @font-face {
        font-family: "Cascadia";
        src: url("https://excalidraw.com/Cascadia.woff2");
      }
      @font-face {
        font-family: "Assistant";
        src: url("https://excalidraw.com/Assistant-Regular.woff2");
      }
    </style>
    
  </defs>
  <g stroke-linecap="round" transform="translate(32.64044744318198 109.0664392173394) rotate(337.5387531331347 19.283203125 7.48828125)"><path d="M3.74 0 C16.55 -0.18, 24.07 1.39, 34.82 0 C36.2 -1.37, 36.3 3.62, 38.57 3.74 C37.69 5.83, 38.63 10.52, 38.57 11.23 C36.32 12.82, 36.71 15.01, 34.82 14.98 C26.53 17.19, 21.35 14.15, 3.74 14.98 C3.58 16.79, -1.35 13.2, 0 11.23 C-0.18 8.41, -0.28 5.36, 0 3.74 C2.09 -1.32, 3.77 -1.04, 3.74 0" stroke="none" stroke-width="0" fill="#868e96"></path><path d="M3.74 0 C15.2 0.92, 26.07 0.32, 34.82 0 M3.74 0 C10.96 -0.3, 17.73 -0.26, 34.82 0 M34.82 0 C38.31 0.32, 38.46 2.1, 38.57 3.74 M34.82 0 C37.04 -0.2, 39.69 1.28, 38.57 3.74 M38.57 3.74 C38.87 6.19, 38.61 8.95, 38.57 11.23 M38.57 3.74 C38.65 5.75, 38.6 8.26, 38.57 11.23 M38.57 11.23 C38.73 13.29, 37.72 15.12, 34.82 14.98 M38.57 11.23 C37.53 13.57, 37.54 15.45, 34.82 14.98 M34.82 14.98 C23.16 14.41, 12.74 14.37, 3.74 14.98 M34.82 14.98 C27.59 14.77, 21.34 14.65, 3.74 14.98 M3.74 14.98 C1.2 15.24, 0.08 14.72, 0 11.23 M3.74 14.98 C0.28 15.04, -0.65 13.49, 0 11.23 M0 11.23 C0.24 9.66, 0.02 7.71, 0 3.74 M0 11.23 C0.15 8.73, -0.15 5.73, 0 3.74 M0 3.74 C-0.82 0.38, 1.72 -0.77, 3.74 0 M0 3.74 C-0.28 0.44, 0.57 -1.14, 3.74 0" stroke="#1e1e1e" stroke-width="2" fill="none"></path></g><g stroke-linecap="round" transform="translate(32.82631983901592 16.919422171883525) rotate(337.0766447889431 19.283203125 7.48828125)"><path d="M3.74 0 C12.98 1.48, 22.28 -1.35, 34.82 0 C35.05 2.38, 40.96 3.44, 38.57 3.74 C38.45 7.29, 37.63 8.69, 38.57 11.23 C37.96 13.76, 34.84 15.46, 34.82 14.98 C27.57 14.91, 24.14 17.19, 3.74 14.98 C-0.1 14.45, 2.43 14.73, 0 11.23 C-0.23 9.01, 0.8 5.79, 0 3.74 C2.53 0.21, 2.42 2.29, 3.74 0" stroke="none" stroke-width="0" fill="#868e96"></path><path d="M3.74 0 C10.77 0.12, 18.72 0.44, 34.82 0 M3.74 0 C15.5 -0.06, 28.59 0.21, 34.82 0 M34.82 0 C37.21 0.85, 38.33 1.07, 38.57 3.74 M34.82 0 C38.44 0.03, 39.08 0.19, 38.57 3.74 M38.57 3.74 C38.68 6.52, 38.56 8.98, 38.57 11.23 M38.57 3.74 C38.65 5.87, 38.62 7.57, 38.57 11.23 M38.57 11.23 C38.97 13.87, 36.42 14.84, 34.82 14.98 M38.57 11.23 C38.79 14.2, 37.89 14.37, 34.82 14.98 M34.82 14.98 C26.03 14.33, 17.22 15.08, 3.74 14.98 M34.82 14.98 C24.9 14.52, 14.28 15.03, 3.74 14.98 M3.74 14.98 C1.33 15.97, -0.84 13.79, 0 11.23 M3.74 14.98 C0.6 14.74, -0.69 14.49, 0 11.23 M0 11.23 C0.02 8.46, 0.19 5.25, 0 3.74 M0 11.23 C-0.21 9, -0.18 6.92, 0 3.74 M0 3.74 C0.47 0.48, 1 -0.7, 3.74 0 M0 3.74 C-0.68 0.11, 1.67 -0.8, 3.74 0" stroke="#1e1e1e" stroke-width="2" fill="none"></path></g><g stroke-linecap="round" transform="translate(10 32.545724255215646) rotate(0 42.630859375 38.322265625)"><path d="M19.16 0 C31.49 -2.37, 43.77 2.82, 66.1 0 C82.19 3.04, 87.18 2.84, 85.26 19.16 C82.14 26.07, 84.41 35.54, 85.26 57.48 C81.84 70.92, 75.62 73.98, 66.1 76.64 C50.6 79.01, 26.76 75.76, 19.16 76.64 C9.75 78.02, -0.03 69.72, 0 57.48 C3.07 41.94, 3.67 32.08, 0 19.16 C1.63 9.56, 5.4 -3.45, 19.16 0" stroke="none" stroke-width="0" fill="#a18072"></path><path d="M19.16 0 C35.86 1.03, 57.12 -0.07, 66.1 0 M19.16 0 C32.73 0.42, 44.21 0.96, 66.1 0 M66.1 0 C78.4 -0.35, 87.22 6.44, 85.26 19.16 M66.1 0 C79.91 -2.12, 86.75 8.48, 85.26 19.16 M85.26 19.16 C85.13 28.09, 84.55 40.5, 85.26 57.48 M85.26 19.16 C85.55 26.93, 85.78 35.71, 85.26 57.48 M85.26 57.48 C83.46 69.98, 79.26 77.46, 66.1 76.64 M85.26 57.48 C86.4 69.04, 78.2 74.79, 66.1 76.64 M66.1 76.64 C52.89 76.75, 43.39 75.11, 19.16 76.64 M66.1 76.64 C54.33 76.56, 42.74 77.28, 19.16 76.64 M19.16 76.64 C4.7 76.76, -1.13 69.85, 0 57.48 M19.16 76.64 C5.01 78.16, 1.82 71.91, 0 57.48 M0 57.48 C1.09 42.02, -0.5 31.1, 0 19.16 M0 57.48 C-0.45 41.57, 0.85 26.61, 0 19.16 M0 19.16 C-0.49 4.99, 5.2 -1.99, 19.16 0 M0 19.16 C0.84 4.78, 6.76 2.08, 19.16 0" stroke="#1e1e1e" stroke-width="2" fill="none"></path></g><g stroke-linecap="round" transform="translate(36.68179290260014 21.99483342198164) rotate(90.684351531919 13.974609375 10.47265625)"><path d="M5.24 0 C15.04 2.25, 17.56 -0.58, 22.71 0 C29.56 1.38, 27.92 1.21, 27.95 5.24 C29.41 6.65, 29.73 11.03, 27.95 15.71 C29.58 22.38, 25.22 17.49, 22.71 20.95 C16.17 20.91, 12.07 20.75, 5.24 20.95 C1.93 18.66, -0.47 16.03, 0 15.71 C-1.29 13.48, -1.77 8.3, 0 5.24 C2.68 -0.41, 1.37 -0.29, 5.24 0" stroke="none" stroke-width="0" fill="#fcc2d7"></path><path d="M5.24 0 C9.66 -1.06, 13.77 0.96, 22.71 0 M5.24 0 C9.12 -0.54, 13.07 -0.04, 22.71 0 M22.71 0 C24.4 -0.28, 28.34 2.56, 27.95 5.24 M22.71 0 C27.34 -1.21, 27.28 -0.11, 27.95 5.24 M27.95 5.24 C27.1 8.03, 28.23 9.77, 27.95 15.71 M27.95 5.24 C28 7.99, 28.07 10.99, 27.95 15.71 M27.95 15.71 C26.26 19.32, 25.07 20.54, 22.71 20.95 M27.95 15.71 C26.57 20.72, 28.02 22.6, 22.71 20.95 M22.71 20.95 C17.4 19.56, 9.69 22.11, 5.24 20.95 M22.71 20.95 C15.13 20.05, 9.4 20.13, 5.24 20.95 M5.24 20.95 C1.26 19.55, -1.19 17.21, 0 15.71 M5.24 20.95 C2.58 19.34, 0.37 21.28, 0 15.71 M0 15.71 C-0.43 12.06, -0.89 10.47, 0 5.24 M0 15.71 C-0.61 11.15, -0.1 7.98, 0 5.24 M0 5.24 C-1.72 1.04, 1.28 0.03, 5.24 0 M0 5.24 C-2.19 2.17, -0.34 -1.71, 5.24 0" stroke="#1e1e1e" stroke-width="2" fill="none"></path></g><g stroke-linecap="round" transform="translate(25.421037946427532 46.95692110629625) rotate(90.684351531919 25.4296875 23.859375)"><path d="M30.94 0.35 C36.17 1, 41.56 5.36, 44.81 9.22 C48.05 13.08, 50.58 18.34, 50.43 23.51 C50.28 28.68, 47.22 36.13, 43.92 40.25 C40.61 44.37, 35.72 47.7, 30.58 48.23 C25.44 48.76, 18.08 46.18, 13.08 43.45 C8.09 40.71, 2.36 36.63, 0.6 31.83 C-1.16 27.03, 0.54 19.49, 2.53 14.67 C4.51 9.84, 7.8 5.39, 12.53 2.88 C17.26 0.37, 27.71 0.04, 30.93 -0.39 C34.15 -0.82, 32.07 -0.4, 31.85 0.32 M22.87 -0.54 C27.94 -1.52, 33.99 2.17, 38.54 4.99 C43.09 7.81, 48.46 11.75, 50.17 16.41 C51.88 21.07, 51 28.17, 48.81 32.93 C46.62 37.68, 41.62 42.79, 37.05 44.92 C32.48 47.05, 26.44 46.88, 21.42 45.73 C16.39 44.57, 10.35 41.55, 6.89 38 C3.44 34.45, 0.83 29.67, 0.69 24.42 C0.56 19.17, 2.41 10.33, 6.07 6.51 C9.74 2.68, 20.02 2.43, 22.7 1.45 C25.38 0.46, 22.23 0.24, 22.14 0.58" stroke="none" stroke-width="0" fill="#fcc2d7"></path><path d="M33.38 1.09 C38.52 2.15, 43.16 6.86, 46.08 10.92 C48.99 14.98, 51.38 20.4, 50.86 25.45 C50.34 30.5, 46.83 37.43, 42.95 41.22 C39.08 45, 33.11 47.88, 27.61 48.15 C22.11 48.43, 14.57 46.04, 9.96 42.87 C5.34 39.7, 1.24 34.12, -0.05 29.12 C-1.35 24.11, -0.19 17.32, 2.2 12.84 C4.59 8.36, 8.9 4.24, 14.31 2.25 C19.72 0.25, 31.13 0.7, 34.66 0.88 C38.19 1.07, 35.83 2.91, 35.5 3.38 M27.56 0.3 C32.57 0.35, 39.65 3.56, 43.38 7.49 C47.11 11.42, 49.38 18.54, 49.94 23.88 C50.5 29.22, 49.77 35.61, 46.74 39.52 C43.71 43.43, 37.25 46.3, 31.77 47.36 C26.3 48.41, 19.08 48.31, 13.9 45.84 C8.72 43.38, 2.64 37.22, 0.69 32.58 C-1.27 27.94, 0.56 23.02, 2.18 18.01 C3.79 12.99, 6.13 5.66, 10.36 2.48 C14.6 -0.7, 24.41 -0.59, 27.59 -1.08 C30.78 -1.57, 29.38 -0.9, 29.47 -0.47" stroke="#1e1e1e" stroke-width="2" fill="none"></path></g></svg>