<svg version="1.1" xmlns="http://www.w3.org/2000/svg" viewBox="0 0 109.0303328501941 140.84223780150387" width="109.0303328501941" height="140.84223780150387">
  <!-- svg-source:excalidraw -->
  
  <defs>
    <style class="style-fonts">
      @font-face {
        font-family: "Virgil";
        src: url("https://excalidraw.com/Virgil.woff2");
      }
      @font-face {
        font-family: "Cascadia";
        src: url("https://excalidraw.com/Cascadia.woff2");
      }
      @font-face {
        font-family: "Assistant";
        src: url("https://excalidraw.com/Assistant-Regular.woff2");
      }
    </style>
    
  </defs>
  <g stroke-linecap="round" transform="translate(36.05749904337608 109.0664392173394) rotate(337.5387531331347 19.283203125 7.48828125)"><path d="M3.74 0 C12.54 2.59, 28.27 2.41, 34.82 0 C38.7 -2.57, 36.31 1.19, 38.57 3.74 C38.26 6.7, 37.56 9.81, 38.57 11.23 C36.21 11.8, 39.9 14.24, 34.82 14.98 C24.7 14.73, 19.71 16.26, 3.74 14.98 C1.22 14.59, 0.33 13.07, 0 11.23 C0.87 8.58, 0.36 7.57, 0 3.74 C-0.71 -1.24, 2.77 2.09, 3.74 0" stroke="none" stroke-width="0" fill="#868e96"></path><path d="M3.74 0 C14.75 -0.06, 23.61 -0.92, 34.82 0 M3.74 0 C12.3 0.38, 20.85 -0.14, 34.82 0 M34.82 0 C38.3 0.03, 39.01 0.33, 38.57 3.74 M34.82 0 C38.06 1.05, 38.15 1.48, 38.57 3.74 M38.57 3.74 C38.41 6.28, 38.24 8.52, 38.57 11.23 M38.57 3.74 C38.65 6.72, 38.4 9.62, 38.57 11.23 M38.57 11.23 C38.76 14.14, 37.81 14.45, 34.82 14.98 M38.57 11.23 C38.23 12.8, 36.72 14.55, 34.82 14.98 M34.82 14.98 C27.55 14.37, 19.17 15.69, 3.74 14.98 M34.82 14.98 C27.87 15.51, 20.41 15.05, 3.74 14.98 M3.74 14.98 C0.68 14.77, -0.6 14.39, 0 11.23 M3.74 14.98 C2.16 15.8, 0.7 13.87, 0 11.23 M0 11.23 C-0.11 9.09, 0.33 6.09, 0 3.74 M0 11.23 C0.12 9.45, -0.01 7.82, 0 3.74 M0 3.74 C-0.59 0.26, 1.61 -0.7, 3.74 0 M0 3.74 C0.19 2.29, 1.2 -0.26, 3.74 0" stroke="#1e1e1e" stroke-width="2" fill="none"></path></g><g stroke-linecap="round" transform="translate(36.24337143920911 16.919422171883525) rotate(337.0766447889431 19.283203125 7.48828125)"><path d="M3.74 0 C13.83 1.83, 20.51 -2.93, 34.82 0 C35.06 -0.06, 40.98 -0.99, 38.57 3.74 C37.62 5.91, 37.66 6.99, 38.57 11.23 C41.14 12.99, 36.85 17.31, 34.82 14.98 C25.75 15.89, 11.81 14.51, 3.74 14.98 C1.58 14.32, 0.04 15.82, 0 11.23 C0.35 10.59, -0.36 7.29, 0 3.74 C1.52 3.34, 1.67 -0.23, 3.74 0" stroke="none" stroke-width="0" fill="#868e96"></path><path d="M3.74 0 C14.53 -0.83, 25.73 0.99, 34.82 0 M3.74 0 C13.93 -0.22, 24.84 -0.12, 34.82 0 M34.82 0 C37.77 -0.92, 39.21 2.16, 38.57 3.74 M34.82 0 C36.9 0.24, 38.69 1.13, 38.57 3.74 M38.57 3.74 C38.23 5.66, 38.9 7.41, 38.57 11.23 M38.57 3.74 C38.41 5.64, 38.62 7.66, 38.57 11.23 M38.57 11.23 C39.06 13.2, 37.03 14.17, 34.82 14.98 M38.57 11.23 C37.97 13.3, 36.67 14.09, 34.82 14.98 M34.82 14.98 C24.43 15.57, 14.29 14.83, 3.74 14.98 M34.82 14.98 C24.24 15.16, 14.23 15.03, 3.74 14.98 M3.74 14.98 C0.65 15.64, 0.79 14.45, 0 11.23 M3.74 14.98 C1.95 15.12, 0.22 14.38, 0 11.23 M0 11.23 C0.36 9.23, -0.29 7.65, 0 3.74 M0 11.23 C-0.06 9.5, -0.13 7.85, 0 3.74 M0 3.74 C0.36 0.55, 1.41 0.9, 3.74 0 M0 3.74 C-0.05 0.99, 1.89 -0.49, 3.74 0" stroke="#1e1e1e" stroke-width="2" fill="none"></path></g><g stroke-linecap="round" transform="translate(13.7686141001941 32.194161755215646) rotate(0 42.630859375 38.322265625)"><path d="M19.16 0 C39.45 -4.27, 52.77 -0.79, 66.1 0 C82.21 -3.1, 84 5.55, 85.26 19.16 C81.35 28.04, 88.17 41.23, 85.26 57.48 C84.62 73.49, 81.39 74.78, 66.1 76.64 C52.94 76.43, 40.31 76.06, 19.16 76.64 C6.45 79.53, -3.56 73.75, 0 57.48 C-1.3 44.07, 1.8 40.45, 0 19.16 C0.59 6.08, 6.28 2.16, 19.16 0" stroke="none" stroke-width="0" fill="#a18072"></path><path d="M19.16 0 C32.9 2.37, 48.19 0.17, 66.1 0 M19.16 0 C38.23 0.11, 55.8 -0.84, 66.1 0 M66.1 0 C80.17 1.82, 84.54 6.8, 85.26 19.16 M66.1 0 C79.13 -0.24, 83.9 5.48, 85.26 19.16 M85.26 19.16 C86.82 33.13, 84.06 47.23, 85.26 57.48 M85.26 19.16 C85.11 31.62, 85.41 42.73, 85.26 57.48 M85.26 57.48 C84.68 68.64, 77.84 75.9, 66.1 76.64 M85.26 57.48 C83.97 68.48, 79.3 77.34, 66.1 76.64 M66.1 76.64 C53.5 76.88, 44.43 77.14, 19.16 76.64 M66.1 76.64 C46.81 76.47, 28.05 77.33, 19.16 76.64 M19.16 76.64 C7.97 78.08, 1.23 70.51, 0 57.48 M19.16 76.64 C6.82 77.96, -1.87 69.73, 0 57.48 M0 57.48 C-1.97 41.85, -2.08 30.45, 0 19.16 M0 57.48 C-0.5 47.95, 0.46 39.69, 0 19.16 M0 19.16 C0.32 8.2, 6.3 -0.45, 19.16 0 M0 19.16 C1.29 5.4, 5.18 -2.01, 19.16 0" stroke="#1e1e1e" stroke-width="2" fill="none"></path></g><g stroke-linecap="round" transform="translate(13.186373760761853 30.81458684460904) rotate(47.524435689906944 13.974609375 10.47265625)"><path d="M5.24 0 C6.48 3.4, 11.5 -0.28, 22.71 0 C29.44 2.51, 26.08 1.01, 27.95 5.24 C27.74 9.59, 27.54 13.51, 27.95 15.71 C30.84 15.64, 29.7 19.5, 22.71 20.95 C13.66 22.7, 13.17 21.38, 5.24 20.95 C1.43 20.84, 2.16 18.92, 0 15.71 C-1.54 13.56, 1.07 11.14, 0 5.24 C-2.29 4.61, -1.46 0.08, 5.24 0" stroke="none" stroke-width="0" fill="#fcc2d7"></path><path d="M5.24 0 C12.85 -0.74, 17.65 0.08, 22.71 0 M5.24 0 C10.78 -0.68, 15.63 0.89, 22.71 0 M22.71 0 C26.54 -0.87, 28.75 2.03, 27.95 5.24 M22.71 0 C24.13 -0.32, 28.39 2.68, 27.95 5.24 M27.95 5.24 C27.05 8.35, 27.5 11.96, 27.95 15.71 M27.95 5.24 C27.64 7.3, 28.33 9.5, 27.95 15.71 M27.95 15.71 C27.86 19.74, 26.37 22.92, 22.71 20.95 M27.95 15.71 C26.01 19.34, 24.9 20.48, 22.71 20.95 M22.71 20.95 C19.77 22.15, 14.53 21.42, 5.24 20.95 M22.71 20.95 C17.04 21.72, 9.37 20.2, 5.24 20.95 M5.24 20.95 C0.1 19.22, 0.95 17.66, 0 15.71 M5.24 20.95 C1.19 19.34, -1.36 16.92, 0 15.71 M0 15.71 C1.02 12.14, -0.16 9.25, 0 5.24 M0 15.71 C0.53 13.5, 0.5 10.6, 0 5.24 M0 5.24 C-1.97 0.01, 1.7 1.85, 5.24 0 M0 5.24 C-1.98 0.94, 1.21 0.03, 5.24 0" stroke="#1e1e1e" stroke-width="2" fill="none"></path></g><g stroke-linecap="round" transform="translate(28.10504480902091 45.26837942211296) rotate(47.524435689906944 25.4296875 23.859375)"><path d="M21.35 0.54 C26.45 -0.23, 33.7 1.3, 38.59 4.02 C43.47 6.73, 48.99 11.89, 50.66 16.85 C52.33 21.8, 50.96 29.13, 48.61 33.75 C46.26 38.38, 41.5 42.22, 36.54 44.6 C31.57 46.97, 23.91 48.94, 18.83 48.02 C13.74 47.1, 9.08 43.46, 6.03 39.06 C2.99 34.65, 0.58 26.86, 0.57 21.61 C0.56 16.37, 1.91 11.3, 5.97 7.56 C10.03 3.82, 21.69 0.4, 24.9 -0.82 C28.12 -2.04, 25.4 -0.14, 25.27 0.25 M29.27 -0.32 C34.63 0.23, 39.48 4.85, 43.24 8.43 C47 12, 51.38 16.03, 51.82 21.13 C52.26 26.23, 49.1 34.75, 45.88 39.05 C42.65 43.35, 37.71 45.83, 32.45 46.92 C27.2 48.02, 19.42 47.8, 14.34 45.62 C9.25 43.44, 3.98 38.78, 1.94 33.85 C-0.09 28.93, 0.36 21.11, 2.11 16.08 C3.85 11.04, 8.02 6.08, 12.41 3.64 C16.81 1.2, 25.98 2.18, 28.46 1.43 C30.95 0.68, 27.33 -1.24, 27.32 -0.86" stroke="none" stroke-width="0" fill="#fcc2d7"></path><path d="M26.44 0.59 C31.5 0.71, 37.77 3.34, 41.97 6.77 C46.16 10.2, 50.9 16.1, 51.62 21.19 C52.34 26.28, 49.4 33.21, 46.28 37.31 C43.17 41.41, 38.1 44.35, 32.94 45.79 C27.77 47.24, 20.25 47.77, 15.28 45.99 C10.32 44.21, 5.67 39.76, 3.15 35.12 C0.62 30.48, -0.9 23.28, 0.14 18.13 C1.18 12.99, 4.41 7.29, 9.38 4.25 C14.35 1.21, 26.05 0.27, 29.95 -0.12 C33.85 -0.5, 32.75 1.56, 32.78 1.94 M19.04 1.15 C23.83 0.08, 31.84 1.67, 36.55 3.83 C41.26 5.99, 45.24 9.74, 47.32 14.1 C49.41 18.45, 50.48 24.9, 49.07 29.98 C47.67 35.05, 43.05 41.42, 38.89 44.54 C34.74 47.66, 29.25 49.32, 24.13 48.68 C19.01 48.05, 12.14 44.43, 8.18 40.73 C4.21 37.04, 1.13 31.72, 0.36 26.54 C-0.41 21.35, 0.25 13.69, 3.54 9.62 C6.83 5.56, 17.72 3.74, 20.09 2.14 C22.46 0.54, 18.03 0.06, 17.77 0" stroke="#1e1e1e" stroke-width="2" fill="none"></path></g></svg>