<svg version="1.1" xmlns="http://www.w3.org/2000/svg" viewBox="0 0 107.08836856448033 140.84223780150387" width="107.08836856448033" height="140.84223780150387">
  <!-- svg-source:excalidraw -->
  
  <defs>
    <style class="style-fonts">
      @font-face {
        font-family: "Virgil";
        src: url("https://excalidraw.com/Virgil.woff2");
      }
      @font-face {
        font-family: "Cascadia";
        src: url("https://excalidraw.com/Cascadia.woff2");
      }
      @font-face {
        font-family: "Assistant";
        src: url("https://excalidraw.com/Assistant-Regular.woff2");
      }
    </style>
    
  </defs>
  <g stroke-linecap="round" transform="translate(34.46709725766232 109.0664392173394) rotate(337.5387531331347 19.283203125 7.48828125)"><path d="M3.74 0 C13.61 0.35, 25.81 -1.08, 34.82 0 C36.32 -1.76, 37.66 -0.63, 38.57 3.74 C39.42 5.29, 39.37 7.43, 38.57 11.23 C40.71 14.29, 37.7 13.36, 34.82 14.98 C28.47 14.89, 21.62 15.59, 3.74 14.98 C1.82 13.72, 2.31 12.7, 0 11.23 C-1.03 10.15, -0.84 7.34, 0 3.74 C2.43 2.27, 2.97 0.43, 3.74 0" stroke="none" stroke-width="0" fill="#868e96"></path><path d="M3.74 0 C12.75 -0.78, 20.96 -0.03, 34.82 0 M3.74 0 C10.3 0.53, 16.16 -0.29, 34.82 0 M34.82 0 C37.52 -0.33, 38.14 1.43, 38.57 3.74 M34.82 0 C36.32 0.66, 37.86 0.31, 38.57 3.74 M38.57 3.74 C38.73 6.53, 38.64 9.18, 38.57 11.23 M38.57 3.74 C38.77 6.4, 38.47 8.86, 38.57 11.23 M38.57 11.23 C39.55 13.41, 38.27 15.73, 34.82 14.98 M38.57 11.23 C39.16 14.17, 37.58 15.93, 34.82 14.98 M34.82 14.98 C24.82 15, 17.34 15.81, 3.74 14.98 M34.82 14.98 C23.53 15.01, 13.32 14.55, 3.74 14.98 M3.74 14.98 C0.61 14.25, 0.42 14.11, 0 11.23 M3.74 14.98 C0.83 14.47, -0.74 13.42, 0 11.23 M0 11.23 C-0.21 9.52, -0.1 7.67, 0 3.74 M0 11.23 C0.06 8.39, -0.08 5.95, 0 3.74 M0 3.74 C-0.98 1.33, 0.34 0.59, 3.74 0 M0 3.74 C-0.47 1.78, 0.64 1.12, 3.74 0" stroke="#1e1e1e" stroke-width="2" fill="none"></path></g><g stroke-linecap="round" transform="translate(34.65296965349444 16.919422171883525) rotate(337.0766447889431 19.283203125 7.48828125)"><path d="M3.74 0 C15.52 -0.83, 26.98 -1.87, 34.82 0 C36.41 -1.88, 37.61 1.11, 38.57 3.74 C39.46 6.05, 39.45 9.08, 38.57 11.23 C38.95 12.11, 35.76 15.33, 34.82 14.98 C25.55 15.33, 13.39 13.67, 3.74 14.98 C3.56 13.95, -1.67 15.15, 0 11.23 C-0.69 8.13, 1.01 6.12, 0 3.74 C1.72 1.68, -0.12 2.14, 3.74 0" stroke="none" stroke-width="0" fill="#868e96"></path><path d="M3.74 0 C14.25 0.16, 24.64 0.42, 34.82 0 M3.74 0 C10.3 -0.54, 17.57 -0.29, 34.82 0 M34.82 0 C36.9 0.18, 37.7 1.82, 38.57 3.74 M34.82 0 C36.61 -0.94, 39.49 1.53, 38.57 3.74 M38.57 3.74 C38.64 5.59, 38.71 8.25, 38.57 11.23 M38.57 3.74 C38.47 5.78, 38.79 7.56, 38.57 11.23 M38.57 11.23 C39.52 14.48, 37.84 15.36, 34.82 14.98 M38.57 11.23 C38.83 14.68, 37.22 15.46, 34.82 14.98 M34.82 14.98 C27.06 15.87, 18.56 14.37, 3.74 14.98 M34.82 14.98 C25.63 14.54, 15.41 14.62, 3.74 14.98 M3.74 14.98 C1.67 15.35, -0.36 13.29, 0 11.23 M3.74 14.98 C0.51 14.67, -0.53 12.63, 0 11.23 M0 11.23 C-0.11 9.36, 0.25 6.62, 0 3.74 M0 11.23 C-0.12 9.09, -0.19 6.75, 0 3.74 M0 3.74 C-0.91 1.84, 0.84 0.46, 3.74 0 M0 3.74 C-0.61 2.37, 1.94 0.93, 3.74 0" stroke="#1e1e1e" stroke-width="2" fill="none"></path></g><g stroke-linecap="round" transform="translate(11.826649814480334 32.545724255215646) rotate(0 42.630859375 38.322265625)"><path d="M19.16 0 C33.16 -2.2, 48.65 -2.36, 66.1 0 C77.56 -0.19, 86.8 9.55, 85.26 19.16 C88.8 29.77, 86.36 36.59, 85.26 57.48 C83.11 70.75, 80.82 78.18, 66.1 76.64 C53.37 75.03, 42.25 75.35, 19.16 76.64 C4.07 78.61, 2.41 66.66, 0 57.48 C3.92 44.71, 2.94 29.69, 0 19.16 C-1.89 9.36, 6.92 1.53, 19.16 0" stroke="none" stroke-width="0" fill="#a18072"></path><path d="M19.16 0 C28.07 0.59, 39.21 0.76, 66.1 0 M19.16 0 C37.25 0.06, 54.51 0.57, 66.1 0 M66.1 0 C77.14 1.15, 84.03 4.75, 85.26 19.16 M66.1 0 C80.72 0.56, 84.82 7.32, 85.26 19.16 M85.26 19.16 C86.02 31.62, 84.5 42.64, 85.26 57.48 M85.26 19.16 C85.99 33.28, 85.96 48.79, 85.26 57.48 M85.26 57.48 C86.3 71.02, 79.34 78.3, 66.1 76.64 M85.26 57.48 C85.06 71.23, 78.18 74.47, 66.1 76.64 M66.1 76.64 C52.72 75.82, 37.42 75.6, 19.16 76.64 M66.1 76.64 C51.13 75.51, 37.85 76.61, 19.16 76.64 M19.16 76.64 C5.66 75.77, -1.29 69.73, 0 57.48 M19.16 76.64 C5.33 74.45, -0.4 68.73, 0 57.48 M0 57.48 C1.34 41.99, 0.15 30.74, 0 19.16 M0 57.48 C-0.75 49.14, -0.68 41.22, 0 19.16 M0 19.16 C-0.81 7.31, 5.32 1.95, 19.16 0 M0 19.16 C1.39 8.25, 8.45 -1.18, 19.16 0" stroke="#1e1e1e" stroke-width="2" fill="none"></path></g><g stroke-linecap="round" transform="translate(13.186373760761853 87.12363309975717) rotate(312.47556431009303 13.974609375 10.47265625)"><path d="M5.24 0 C10.96 -1.57, 18.1 -1.29, 22.71 0 C23.89 1.96, 30.36 -1.85, 27.95 5.24 C29.56 9.86, 29.05 13.3, 27.95 15.71 C26.06 22.17, 26.74 22.48, 22.71 20.95 C16.81 21.22, 17.7 20.45, 5.24 20.95 C0.24 23.71, -1.68 16.99, 0 15.71 C-0.71 11.28, -0.15 9.32, 0 5.24 C1.57 4.26, 4.36 2.7, 5.24 0" stroke="none" stroke-width="0" fill="#fcc2d7"></path><path d="M5.24 0 C10.79 1.53, 14.4 1.69, 22.71 0 M5.24 0 C12.68 -0.37, 19.24 0.57, 22.71 0 M22.71 0 C27.24 0.76, 28.41 3.4, 27.95 5.24 M22.71 0 C26 0.97, 27.26 -0.43, 27.95 5.24 M27.95 5.24 C28.56 7.8, 28.09 10.91, 27.95 15.71 M27.95 5.24 C27.69 8.06, 28.25 11.83, 27.95 15.71 M27.95 15.71 C27.23 18.32, 24.91 20.41, 22.71 20.95 M27.95 15.71 C26.9 17, 25.81 19.42, 22.71 20.95 M22.71 20.95 C17.61 19.31, 10.41 21.27, 5.24 20.95 M22.71 20.95 C18.01 21.12, 14.23 21.56, 5.24 20.95 M5.24 20.95 C0.93 21.87, -1.06 21.15, 0 15.71 M5.24 20.95 C3.13 22.81, 2.06 18.02, 0 15.71 M0 15.71 C-0.39 11.57, -0.35 8.09, 0 5.24 M0 15.71 C0.47 12.72, 0.44 10.05, 0 5.24 M0 5.24 C1.65 2.17, 2.04 -1.25, 5.24 0 M0 5.24 C-1.38 2.06, 2.99 0.98, 5.24 0" stroke="#1e1e1e" stroke-width="2" fill="none"></path></g><g stroke-linecap="round" transform="translate(28.10504480902091 45.896403022249615) rotate(312.47556431009303 25.4296875 23.859375)"><path d="M32.48 1.36 C37.36 2.31, 43.74 6.55, 46.7 10.69 C49.67 14.84, 51 21.22, 50.27 26.22 C49.54 31.21, 46.33 37.1, 42.33 40.67 C38.32 44.24, 31.57 47.13, 26.26 47.64 C20.95 48.15, 14.79 46.67, 10.44 43.72 C6.1 40.77, 1.5 34.93, 0.19 29.94 C-1.12 24.94, -0.04 18.4, 2.57 13.74 C5.17 9.08, 10.13 3.92, 15.83 1.99 C21.53 0.07, 32.53 1.5, 36.75 2.2 C40.97 2.89, 41.18 5.73, 41.16 6.16 M33 2.64 C37.86 3.72, 43.58 6.29, 46.64 10.62 C49.7 14.94, 52.37 23.22, 51.36 28.61 C50.36 33.99, 45.06 39.84, 40.6 42.93 C36.15 46.02, 29.61 47.15, 24.65 47.16 C19.68 47.17, 14.68 46.07, 10.81 42.98 C6.95 39.9, 2.86 33.56, 1.46 28.65 C0.06 23.74, -0.11 17.92, 2.41 13.52 C4.92 9.11, 11.54 4.34, 16.55 2.22 C21.57 0.1, 29.71 1.04, 32.5 0.8 C35.29 0.55, 33.2 0.09, 33.3 0.76" stroke="none" stroke-width="0" fill="#fcc2d7"></path><path d="M37.02 3.37 C41.64 5.48, 46.03 10.45, 48.31 15.03 C50.58 19.62, 52.02 26.08, 50.65 30.88 C49.28 35.67, 44.6 41.05, 40.1 43.82 C35.61 46.6, 29.1 48.11, 23.69 47.51 C18.27 46.9, 11.72 43.83, 7.62 40.19 C3.53 36.55, -0.51 30.58, -0.88 25.68 C-1.24 20.78, 2 15.04, 5.43 10.78 C8.86 6.52, 14.07 1.4, 19.71 0.11 C25.35 -1.18, 35.64 1.98, 39.25 3.06 C42.87 4.14, 41.78 6.23, 41.4 6.58 M15.9 0.88 C20.36 -1.28, 27.75 -0.62, 32.86 0.94 C37.98 2.5, 43.71 5.95, 46.61 10.24 C49.51 14.54, 50.9 21.53, 50.27 26.72 C49.63 31.91, 46.72 37.75, 42.8 41.4 C38.87 45.05, 32.55 48.46, 26.72 48.61 C20.89 48.77, 12.17 45.92, 7.83 42.33 C3.48 38.74, 1.54 31.97, 0.63 27.09 C-0.29 22.21, -0.05 17.3, 2.34 13.06 C4.73 8.83, 12.81 3.36, 14.96 1.66 C17.12 -0.03, 14.95 2.4, 15.25 2.87" stroke="#1e1e1e" stroke-width="2" fill="none"></path></g></svg>