<svg version="1.1" xmlns="http://www.w3.org/2000/svg" viewBox="0 0 105.26171875000045 140.84223780150387" width="105.26171875000045" height="140.84223780150387">
  <!-- svg-source:excalidraw -->
  
  <defs>
    <style class="style-fonts">
      @font-face {
        font-family: "Virgil";
        src: url("https://excalidraw.com/Virgil.woff2");
      }
      @font-face {
        font-family: "Cascadia";
        src: url("https://excalidraw.com/Cascadia.woff2");
      }
      @font-face {
        font-family: "Assistant";
        src: url("https://excalidraw.com/Assistant-Regular.woff2");
      }
    </style>
    
  </defs>
  <g stroke-linecap="round" transform="translate(32.64044744318153 109.0664392173394) rotate(337.5387531331347 19.283203125 7.48828125)"><path d="M3.74 0 C11.3 -1.6, 19.72 0.14, 34.82 0 C38.43 2.28, 37.44 3.41, 38.57 3.74 C38.79 5.18, 38.06 7.97, 38.57 11.23 C39.97 14.84, 37.01 16.7, 34.82 14.98 C27.34 13.75, 13.55 16.2, 3.74 14.98 C2.99 12.38, 1.83 11.63, 0 11.23 C0.55 9.42, -0.6 8.09, 0 3.74 C0.39 2.36, -0.87 -0.88, 3.74 0" stroke="none" stroke-width="0" fill="#868e96"></path><path d="M3.74 0 C12.43 0.34, 23.5 -0.66, 34.82 0 M3.74 0 C10.29 0.14, 16.82 0.34, 34.82 0 M34.82 0 C36.7 -0.82, 39.37 1.49, 38.57 3.74 M34.82 0 C37.1 0.47, 38.37 1.44, 38.57 3.74 M38.57 3.74 C38.42 5.82, 38.87 6.97, 38.57 11.23 M38.57 3.74 C38.78 6.52, 38.7 9.09, 38.57 11.23 M38.57 11.23 C38.8 14.55, 37.23 15.4, 34.82 14.98 M38.57 11.23 C38.22 12.64, 37.4 15.69, 34.82 14.98 M34.82 14.98 C22.84 14.15, 10.77 15.59, 3.74 14.98 M34.82 14.98 C28.45 15.05, 21.48 14.64, 3.74 14.98 M3.74 14.98 C0.6 14.71, -0.46 12.77, 0 11.23 M3.74 14.98 C1.05 14.21, 0.6 13.31, 0 11.23 M0 11.23 C-0.02 8.54, -0.32 5.53, 0 3.74 M0 11.23 C-0.13 8.66, -0.04 5.95, 0 3.74 M0 3.74 C-0.53 2.23, 1.85 0.81, 3.74 0 M0 3.74 C1.03 0.66, 1.56 -0.15, 3.74 0" stroke="#1e1e1e" stroke-width="2" fill="none"></path></g><g stroke-linecap="round" transform="translate(32.82631983901365 16.919422171883525) rotate(337.0766447889431 19.283203125 7.48828125)"><path d="M3.74 0 C10.01 0.16, 19.29 2.57, 34.82 0 C36.19 2.16, 37.87 3.39, 38.57 3.74 C38 6.28, 39.11 8.97, 38.57 11.23 C38.26 15.46, 37.71 15.55, 34.82 14.98 C25.33 16.24, 20.92 12.22, 3.74 14.98 C3.08 12.88, -0.96 16.15, 0 11.23 C-0.58 9.49, 0.08 6.56, 0 3.74 C-2.12 0.37, 0.8 -1.73, 3.74 0" stroke="none" stroke-width="0" fill="#868e96"></path><path d="M3.74 0 C14.83 -0.67, 23.48 0.14, 34.82 0 M3.74 0 C11.6 0.26, 20.02 -0.44, 34.82 0 M34.82 0 C38.12 0.24, 38.37 1.65, 38.57 3.74 M34.82 0 C37.12 0.19, 37.79 1.65, 38.57 3.74 M38.57 3.74 C38.84 6.35, 38.75 9.82, 38.57 11.23 M38.57 3.74 C38.7 5.82, 38.65 7.91, 38.57 11.23 M38.57 11.23 C38.48 14.15, 37.02 14.03, 34.82 14.98 M38.57 11.23 C38.65 14.45, 38.33 15.57, 34.82 14.98 M34.82 14.98 C27.48 15.58, 19.14 14.23, 3.74 14.98 M34.82 14.98 C27.56 14.82, 20.34 14.9, 3.74 14.98 M3.74 14.98 C0.79 14.02, -0.17 13.07, 0 11.23 M3.74 14.98 C1.85 14.56, 0.75 14.42, 0 11.23 M0 11.23 C-0.3 9.51, 0.22 7.87, 0 3.74 M0 11.23 C-0.04 9.01, -0.07 6.8, 0 3.74 M0 3.74 C0.6 2.06, 2.15 -0.51, 3.74 0 M0 3.74 C0.32 1.1, 0.93 -0.44, 3.74 0" stroke="#1e1e1e" stroke-width="2" fill="none"></path></g><g stroke-linecap="round" transform="translate(10 32.545724255215646) rotate(0 42.63085937500023 38.322265625)"><path d="M19.16 0 C31.39 3.21, 38.99 3.04, 66.1 0 C77.92 2.97, 86.03 6.91, 85.26 19.16 C86.79 29.81, 84.42 39.77, 85.26 57.48 C85.81 71.05, 77.13 79.84, 66.1 76.64 C56.29 73.51, 44.18 74.2, 19.16 76.64 C5.06 80, 1.42 72.64, 0 57.48 C0.9 46.89, -2.57 32.01, 0 19.16 C-0.62 4, 6.77 3, 19.16 0" stroke="none" stroke-width="0" fill="#a18072"></path><path d="M19.16 0 C33.43 0.69, 50.34 -0.56, 66.1 0 M19.16 0 C33.46 -1.09, 49.8 -0.02, 66.1 0 M66.1 0 C78.49 0.81, 84.92 6.72, 85.26 19.16 M66.1 0 C77.32 0.8, 87.13 5.43, 85.26 19.16 M85.26 19.16 C86.6 36.09, 84.92 50.96, 85.26 57.48 M85.26 19.16 C85.69 34.37, 85.37 48.34, 85.26 57.48 M85.26 57.48 C84.66 68.37, 79.02 77.89, 66.1 76.64 M85.26 57.48 C87.28 71.45, 77.45 76.81, 66.1 76.64 M66.1 76.64 C53.67 75.71, 43.33 77.83, 19.16 76.64 M66.1 76.64 C49.6 76.17, 33.94 75.48, 19.16 76.64 M19.16 76.64 C6.04 75.32, 1.04 69.53, 0 57.48 M19.16 76.64 C7.89 78.02, -2.3 70.26, 0 57.48 M0 57.48 C1.48 43.55, 0.47 31.72, 0 19.16 M0 57.48 C-0.38 44.71, 0.76 30.79, 0 19.16 M0 19.16 C1.8 5.36, 6.94 -0.26, 19.16 0 M0 19.16 C-0.64 5.51, 4.83 -0.8, 19.16 0" stroke="#1e1e1e" stroke-width="2" fill="none"></path></g><g stroke-linecap="round" transform="translate(38.66281968831163 96.8920472366708) rotate(269.315648468081 13.974609375 10.47265625)"><path d="M5.24 0 C10.78 -0.54, 15.72 0.31, 22.71 0 C27 -1.74, 31.15 0.32, 27.95 5.24 C26.17 9.03, 26.53 9.48, 27.95 15.71 C31.31 20.62, 28.59 21.54, 22.71 20.95 C19.73 18.43, 13 20.45, 5.24 20.95 C-0.64 21.33, 3 18.69, 0 15.71 C-1.3 14.17, -1.69 8.84, 0 5.24 C-1.65 0.53, 1.16 2.28, 5.24 0" stroke="none" stroke-width="0" fill="#fcc2d7"></path><path d="M5.24 0 C12.59 -0.27, 18.81 -1.15, 22.71 0 M5.24 0 C11.88 0.74, 16.36 0.53, 22.71 0 M22.71 0 C28.18 -0.64, 29.86 3.25, 27.95 5.24 M22.71 0 C27.4 0.88, 28.48 3.65, 27.95 5.24 M27.95 5.24 C27 8.36, 28.65 12.26, 27.95 15.71 M27.95 5.24 C27.5 8.95, 28.26 12.14, 27.95 15.71 M27.95 15.71 C26.68 17.75, 27.05 21.7, 22.71 20.95 M27.95 15.71 C27.12 18.19, 24.72 20.33, 22.71 20.95 M22.71 20.95 C17.11 21.83, 13.19 22.06, 5.24 20.95 M22.71 20.95 C16.53 20.25, 9.6 21.46, 5.24 20.95 M5.24 20.95 C-0.22 21.11, -1.83 20.38, 0 15.71 M5.24 20.95 C0.81 22, -1.22 21.45, 0 15.71 M0 15.71 C-0.62 12.22, -0.22 7.87, 0 5.24 M0 15.71 C-0.31 12.78, 0.04 10.45, 0 5.24 M0 5.24 C1.76 0.88, 3.41 -0.53, 5.24 0 M0 5.24 C1.9 2.24, 2.08 -1.43, 5.24 0" stroke="#1e1e1e" stroke-width="2" fill="none"></path></g><g stroke-linecap="round" transform="translate(27.402064732139024 45.15652205235256) rotate(269.315648468081 25.4296875 23.859375)"><path d="M21.29 1.09 C26.35 0.05, 33.78 1.39, 38.33 3.77 C42.87 6.14, 46.71 10.79, 48.56 15.35 C50.41 19.9, 51.13 26.42, 49.43 31.11 C47.73 35.8, 43.05 40.9, 38.38 43.5 C33.7 46.11, 26.76 47.38, 21.37 46.74 C15.98 46.1, 9.54 43.21, 6.05 39.65 C2.56 36.1, 0.6 30.37, 0.44 25.41 C0.27 20.45, 1.27 13.96, 5.06 9.88 C8.86 5.79, 19.57 2.43, 23.2 0.9 C26.83 -0.64, 26.87 0.49, 26.84 0.65 M27 1.05 C32.09 1.03, 39.47 3.4, 43.3 7.01 C47.14 10.61, 49.55 17.8, 49.99 22.67 C50.43 27.54, 48.72 32.03, 45.93 36.21 C43.15 40.4, 38.67 46.04, 33.29 47.79 C27.9 49.54, 18.93 49.06, 13.61 46.72 C8.3 44.39, 3.29 38.46, 1.37 33.79 C-0.54 29.12, 0.47 23.53, 2.15 18.7 C3.83 13.88, 7.41 7.72, 11.45 4.82 C15.49 1.92, 23.73 1.9, 26.39 1.29 C29.04 0.69, 27.46 1.07, 27.36 1.17" stroke="none" stroke-width="0" fill="#fcc2d7"></path><path d="M16.57 2.25 C21.42 0.11, 29.89 -0.96, 35.15 0.86 C40.4 2.67, 45.61 8.41, 48.11 13.14 C50.6 17.86, 51.07 24.26, 50.11 29.2 C49.14 34.15, 46.41 39.69, 42.32 42.82 C38.23 45.94, 30.98 48.1, 25.54 47.95 C20.11 47.79, 13.83 45.3, 9.7 41.89 C5.57 38.47, 1.95 32.47, 0.76 27.45 C-0.42 22.44, -0.81 16.14, 2.6 11.78 C6 7.43, 17.5 3.3, 21.2 1.32 C24.9 -0.67, 24.82 -0.24, 24.81 -0.12 M25.17 -1.08 C30.28 -0.93, 38.79 3.11, 42.93 6.57 C47.08 10.03, 49.51 14.8, 50.04 19.7 C50.57 24.59, 49.01 31.72, 46.13 35.95 C43.26 40.17, 37.84 43.54, 32.79 45.06 C27.74 46.58, 20.65 46.79, 15.83 45.06 C11.01 43.33, 6.24 38.86, 3.85 34.68 C1.46 30.5, 0.78 24.9, 1.49 19.98 C2.21 15.06, 3.98 8.71, 8.12 5.18 C12.25 1.65, 23.46 -0.56, 26.3 -1.19 C29.15 -1.83, 25.48 0.75, 25.19 1.37" stroke="#1e1e1e" stroke-width="2" fill="none"></path></g></svg>