<svg version="1.1" xmlns="http://www.w3.org/2000/svg" viewBox="0 0 115.33858816964403 140.84223780150387" width="115.33858816964403" height="140.84223780150387">
  <!-- svg-source:excalidraw -->
  
  <defs>
    <style class="style-fonts">
      @font-face {
        font-family: "Virgil";
        src: url("https://excalidraw.com/Virgil.woff2");
      }
      @font-face {
        font-family: "Cascadia";
        src: url("https://excalidraw.com/Cascadia.woff2");
      }
      @font-face {
        font-family: "Assistant";
        src: url("https://excalidraw.com/Assistant-Regular.woff2");
      }
    </style>
    
  </defs>
  <g stroke-linecap="round" transform="translate(42.36575436282601 109.0664392173394) rotate(337.5387531331347 19.283203125 7.48828125)"><path d="M3.74 0 C13.43 0.34, 30.05 -1.84, 34.82 0 C36.41 -0.6, 38.6 -1.23, 38.57 3.74 C39.44 5.85, 38.3 9.39, 38.57 11.23 C40.38 12.38, 36.79 17.4, 34.82 14.98 C24.64 14.26, 13.84 17, 3.74 14.98 C-1.32 17.5, -1.04 14.91, 0 11.23 C0.6 9.11, 0.19 5.33, 0 3.74 C-0.07 2.81, 1.04 0.13, 3.74 0" stroke="none" stroke-width="0" fill="#868e96"></path><path d="M3.74 0 C10.81 -0.26, 18.1 -0.39, 34.82 0 M3.74 0 C12.75 -0.46, 21.63 0.45, 34.82 0 M34.82 0 C36.96 0.21, 38.68 1.14, 38.57 3.74 M34.82 0 C36.64 -0.45, 39.21 0.26, 38.57 3.74 M38.57 3.74 C38.44 6.37, 38.66 8.37, 38.57 11.23 M38.57 3.74 C38.67 5.79, 38.52 7.87, 38.57 11.23 M38.57 11.23 C38.05 13.35, 36.76 14.2, 34.82 14.98 M38.57 11.23 C38.78 14.08, 36.59 14.4, 34.82 14.98 M34.82 14.98 C23.62 15.05, 12.88 14.13, 3.74 14.98 M34.82 14.98 C25.02 15.27, 16.2 15.3, 3.74 14.98 M3.74 14.98 C1.86 15.1, 0.19 14.3, 0 11.23 M3.74 14.98 C0.32 14.71, 0.75 14.8, 0 11.23 M0 11.23 C-0.29 9.9, -0.26 8.12, 0 3.74 M0 11.23 C0.09 9.38, 0.05 7.96, 0 3.74 M0 3.74 C-0.04 1.02, 1.81 -0.43, 3.74 0 M0 3.74 C-0.6 0.25, 2.3 1.06, 3.74 0" stroke="#1e1e1e" stroke-width="2" fill="none"></path></g><g stroke-linecap="round" transform="translate(42.55162675865904 16.919422171883525) rotate(337.0766447889431 19.283203125 7.48828125)"><path d="M3.74 0 C12.41 -2.23, 15.35 -0.59, 34.82 0 C37.35 -2.47, 39.05 -1.11, 38.57 3.74 C38.49 6.31, 39.34 6.62, 38.57 11.23 C38.04 16.15, 38.32 14.95, 34.82 14.98 C26.01 16.96, 14.53 17.4, 3.74 14.98 C0.21 16.15, 2.29 13.02, 0 11.23 C0.1 9.62, -0.08 8.76, 0 3.74 C-0.2 1.38, -0.4 -0.34, 3.74 0" stroke="none" stroke-width="0" fill="#868e96"></path><path d="M3.74 0 C17 -0.22, 28.37 0.99, 34.82 0 M3.74 0 C13.47 0.6, 22.37 0.25, 34.82 0 M34.82 0 C37.43 -0.1, 37.97 0.85, 38.57 3.74 M34.82 0 C37.96 -0.99, 38.93 2.33, 38.57 3.74 M38.57 3.74 C38.6 5.78, 38.5 8.56, 38.57 11.23 M38.57 3.74 C38.53 6.14, 38.49 8.78, 38.57 11.23 M38.57 11.23 C38 12.95, 37.5 15.28, 34.82 14.98 M38.57 11.23 C37.84 13.15, 38.11 14.12, 34.82 14.98 M34.82 14.98 C26.63 14.15, 16.52 14.42, 3.74 14.98 M34.82 14.98 C26.53 15.44, 17.75 15.14, 3.74 14.98 M3.74 14.98 C1.44 15.55, -0.81 13.5, 0 11.23 M3.74 14.98 C2 16.04, -1.13 12.8, 0 11.23 M0 11.23 C-0.26 9.51, -0.23 7.75, 0 3.74 M0 11.23 C0.02 9.9, -0.02 8.18, 0 3.74 M0 3.74 C0.56 0.82, 0.72 -0.87, 3.74 0 M0 3.74 C1.05 2.31, 2.22 0.61, 3.74 0" stroke="#1e1e1e" stroke-width="2" fill="none"></path></g><g stroke-linecap="round" transform="translate(20.076869419644026 32.194161755215646) rotate(0 42.630859375 38.322265625)"><path d="M19.16 0 C31.88 -0.11, 47.16 -2.7, 66.1 0 C79.54 -3.26, 82.59 9.96, 85.26 19.16 C87.65 27.7, 84.4 43.33, 85.26 57.48 C86.64 70.22, 78.34 77.1, 66.1 76.64 C49.65 80.82, 38.87 78.95, 19.16 76.64 C9.56 75.66, -3.45 72.37, 0 57.48 C-0.22 45.07, -0.4 28.52, 0 19.16 C-2.29 5.92, 3.22 2, 19.16 0" stroke="none" stroke-width="0" fill="#a18072"></path><path d="M19.16 0 C32.39 2.07, 46.37 1.01, 66.1 0 M19.16 0 C28.56 -0.22, 38.79 -0.53, 66.1 0 M66.1 0 C77.69 -0.79, 86.38 4.67, 85.26 19.16 M66.1 0 C79.59 2.17, 85.65 5.39, 85.26 19.16 M85.26 19.16 C85.03 32.57, 86.13 46.2, 85.26 57.48 M85.26 19.16 C84.63 28.26, 84.59 37.34, 85.26 57.48 M85.26 57.48 C85.63 70.86, 77.61 75.64, 66.1 76.64 M85.26 57.48 C86.85 68.54, 78.77 77.26, 66.1 76.64 M66.1 76.64 C51.74 75.12, 36.74 75.05, 19.16 76.64 M66.1 76.64 C49.54 77.11, 31.94 77.55, 19.16 76.64 M19.16 76.64 C4.76 76.19, 1.3 72.11, 0 57.48 M19.16 76.64 C4.13 74.78, -1.89 68.27, 0 57.48 M0 57.48 C-1.1 42.99, -1.69 31.6, 0 19.16 M0 57.48 C-0.11 48.44, 0.5 39.42, 0 19.16 M0 19.16 C-1.05 4.64, 8.21 1.84, 19.16 0 M0 19.16 C1.94 7.61, 4.12 -2, 19.16 0" stroke="#1e1e1e" stroke-width="2" fill="none"></path></g><g stroke-linecap="round" transform="translate(10 58.64210104361064) rotate(0 13.974609375 10.47265625)"><path d="M5.24 0 C9.01 -2.92, 13.29 -2.77, 22.71 0 C23.53 3.57, 26.92 1.1, 27.95 5.24 C27.7 11.08, 28.8 13.38, 27.95 15.71 C27.41 19.66, 25.29 21.01, 22.71 20.95 C14.81 22.67, 12.2 20.39, 5.24 20.95 C-1.71 23.05, 2.89 19.79, 0 15.71 C-0.14 12.75, -1.19 9.36, 0 5.24 C-3.17 3.75, 3.56 3.49, 5.24 0" stroke="none" stroke-width="0" fill="#fcc2d7"></path><path d="M5.24 0 C10.11 0.61, 13.28 0.96, 22.71 0 M5.24 0 C12.16 -0.13, 18.38 -0.38, 22.71 0 M22.71 0 C27.32 -1.72, 28.57 3.63, 27.95 5.24 M22.71 0 C26.59 -1, 28.87 2.08, 27.95 5.24 M27.95 5.24 C28.36 7.95, 27.38 9.32, 27.95 15.71 M27.95 5.24 C27.6 7.13, 27.99 9.99, 27.95 15.71 M27.95 15.71 C26.68 18.2, 27.58 19.45, 22.71 20.95 M27.95 15.71 C27.85 19.82, 26.4 23.22, 22.71 20.95 M22.71 20.95 C18.59 19.8, 16.33 22.23, 5.24 20.95 M22.71 20.95 C16.38 21.47, 9 20.77, 5.24 20.95 M5.24 20.95 C3.05 22.8, -1.96 17.58, 0 15.71 M5.24 20.95 C-0.15 18.96, 1.09 17.43, 0 15.71 M0 15.71 C-0.97 13.2, -0.66 10.1, 0 5.24 M0 15.71 C0.3 11.4, -0.27 7.07, 0 5.24 M0 5.24 C1.83 3.59, 3.43 1.07, 5.24 0 M0 5.24 C-2.27 -0.25, 1.69 2.13, 5.24 0" stroke="#1e1e1e" stroke-width="2" fill="none"></path></g><g stroke-linecap="round" transform="translate(36.888671875 44.60303854361064) rotate(0 25.4296875 23.859375)"><path d="M14.48 1.75 C19.12 -0.65, 26.72 -1.17, 31.91 0.38 C37.1 1.92, 42.6 6.64, 45.62 11.02 C48.63 15.4, 50.29 21.67, 50 26.68 C49.71 31.69, 47.74 37.5, 43.87 41.09 C40.01 44.69, 32.46 47.99, 26.8 48.23 C21.14 48.47, 14.41 45.51, 9.91 42.54 C5.42 39.56, 0.9 35.13, -0.16 30.38 C-1.22 25.64, 0.74 19.06, 3.57 14.1 C6.4 9.13, 14.66 2.67, 16.84 0.6 C19.03 -1.47, 16.46 1.26, 16.68 1.66 M19.57 0.64 C24.44 -0.69, 31.56 -0.36, 36.77 2.08 C41.98 4.51, 48.76 10.04, 50.81 15.25 C52.86 20.47, 51 28.6, 49.06 33.35 C47.13 38.1, 43.93 41.17, 39.21 43.73 C34.49 46.3, 26.17 49.52, 20.73 48.76 C15.28 48, 10.03 43.31, 6.54 39.2 C3.05 35.08, -0.06 29.17, -0.22 24.07 C-0.39 18.96, 1.82 12.76, 5.56 8.56 C9.29 4.37, 19.37 0.27, 22.2 -1.12 C25.03 -2.51, 22.55 -0.63, 22.54 0.23" stroke="none" stroke-width="0" fill="#fcc2d7"></path><path d="M33.72 1.35 C38.57 2.57, 44.27 6.38, 47.02 10.82 C49.76 15.25, 51.12 22.76, 50.18 27.96 C49.25 33.17, 45.27 38.73, 41.41 42.05 C37.54 45.37, 32.39 47.73, 27.02 47.88 C21.64 48.02, 13.54 46.28, 9.15 42.92 C4.76 39.56, 1.68 32.74, 0.65 27.7 C-0.38 22.65, 0.3 16.91, 2.95 12.65 C5.6 8.39, 11.35 4.04, 16.54 2.15 C21.72 0.26, 31.05 1.35, 34.07 1.31 C37.08 1.27, 34.77 1.61, 34.64 1.93 M14.87 1.02 C19.67 -1.36, 28.9 -1.74, 34.24 0.02 C39.57 1.77, 44.13 6.79, 46.88 11.55 C49.63 16.31, 51.69 23.57, 50.75 28.58 C49.81 33.59, 45.44 38.49, 41.25 41.62 C37.05 44.76, 30.94 47.05, 25.56 47.4 C20.17 47.74, 12.91 46.6, 8.95 43.7 C4.98 40.8, 2.61 35.11, 1.76 29.98 C0.91 24.85, 1.46 17.48, 3.85 12.92 C6.24 8.36, 14.28 4.47, 16.11 2.62 C17.93 0.78, 14.52 1.41, 14.8 1.87" stroke="#1e1e1e" stroke-width="2" fill="none"></path></g></svg>