<svg version="1.1" xmlns="http://www.w3.org/2000/svg" viewBox="0 0 108.56158285019228 140.84223780150023" width="108.56158285019228" height="140.84223780150023">
  <!-- svg-source:excalidraw -->
  
  <defs>
    <style class="style-fonts">
      @font-face {
        font-family: "Virgil";
        src: url("https://excalidraw.com/Virgil.woff2");
      }
      @font-face {
        font-family: "Cascadia";
        src: url("https://excalidraw.com/Cascadia.woff2");
      }
      @font-face {
        font-family: "Assistant";
        src: url("https://excalidraw.com/Assistant-Regular.woff2");
      }
    </style>
    
  </defs>
  <g stroke-linecap="round" transform="translate(32.28888494318198 109.06643921733576) rotate(337.5387531331347 19.283203125 7.48828125)"><path d="M3.74 0 C12.72 -1.44, 22.75 1.04, 34.82 0 C35.5 0.42, 40.92 1.13, 38.57 3.74 C38.11 4.97, 39.51 8.8, 38.57 11.23 C40.76 15.11, 34.75 12.72, 34.82 14.98 C24.66 14.02, 16.35 12.15, 3.74 14.98 C1.73 12.62, -1.93 16.31, 0 11.23 C0.7 8.69, -0.18 8.07, 0 3.74 C1 1.22, 0.86 0.33, 3.74 0" stroke="none" stroke-width="0" fill="#868e96"></path><path d="M3.74 0 C10.85 -0.8, 17.06 0.74, 34.82 0 M3.74 0 C11.27 -0.38, 18.07 -0.32, 34.82 0 M34.82 0 C37.89 0.92, 38.59 0.93, 38.57 3.74 M34.82 0 C36.37 -0.26, 39.7 1.61, 38.57 3.74 M38.57 3.74 C38.53 6.28, 38.61 8.24, 38.57 11.23 M38.57 3.74 C38.52 5.34, 38.61 6.84, 38.57 11.23 M38.57 11.23 C37.97 13.33, 37.88 14.12, 34.82 14.98 M38.57 11.23 C38.93 14.81, 37.51 14.48, 34.82 14.98 M34.82 14.98 C24.12 15.03, 14.1 15.33, 3.74 14.98 M34.82 14.98 C26.88 14.66, 19.17 14.46, 3.74 14.98 M3.74 14.98 C1.43 15.28, -0.63 13.23, 0 11.23 M3.74 14.98 C2.04 14.12, -0.05 14.04, 0 11.23 M0 11.23 C-0.01 8.71, -0.11 6.39, 0 3.74 M0 11.23 C0.09 8.52, 0.01 5.86, 0 3.74 M0 3.74 C-0.81 1.02, 1.9 0.93, 3.74 0 M0 3.74 C-1.13 0.32, 0.3 -0.99, 3.74 0" stroke="#1e1e1e" stroke-width="2" fill="none"></path></g><g stroke-linecap="round" transform="translate(32.47475733901592 16.919422171883525) rotate(337.0766447889431 19.283203125 7.48828125)"><path d="M3.74 0 C9.73 1.19, 19.06 0.66, 34.82 0 C39.67 -0.11, 37.98 2.71, 38.57 3.74 C39.4 6.57, 39.34 8.11, 38.57 11.23 C36 11.47, 37.26 17.39, 34.82 14.98 C28.21 12.41, 22.02 12.53, 3.74 14.98 C-0.68 17.55, -0.74 13.26, 0 11.23 C-0.27 9.22, 0.31 5.38, 0 3.74 C-0.39 1.58, 0.59 0.04, 3.74 0" stroke="none" stroke-width="0" fill="#868e96"></path><path d="M3.74 0 C13.12 0.85, 21.12 -0.35, 34.82 0 M3.74 0 C12.86 -0.22, 22.01 0.58, 34.82 0 M34.82 0 C37.34 -0.32, 37.74 1.02, 38.57 3.74 M34.82 0 C38.46 0.36, 38.44 2.23, 38.57 3.74 M38.57 3.74 C38.57 5.98, 38.21 8.12, 38.57 11.23 M38.57 3.74 C38.57 6.65, 38.44 9.52, 38.57 11.23 M38.57 11.23 C39.12 12.87, 37.63 15.92, 34.82 14.98 M38.57 11.23 C38.76 13.23, 37.78 15.14, 34.82 14.98 M34.82 14.98 C28.71 15.5, 21.26 14.71, 3.74 14.98 M34.82 14.98 C27.73 14.53, 21.29 15.07, 3.74 14.98 M3.74 14.98 C0.61 14.47, 0.69 12.98, 0 11.23 M3.74 14.98 C1.2 15.28, 0.1 14.87, 0 11.23 M0 11.23 C-0.08 9.39, 0.24 8.3, 0 3.74 M0 11.23 C0.01 8.55, -0.17 5.62, 0 3.74 M0 3.74 C0.65 2.18, 0.27 -0.81, 3.74 0 M0 3.74 C-0.95 0.25, 1.79 -0.89, 3.74 0" stroke="#1e1e1e" stroke-width="2" fill="none"></path></g><g stroke-linecap="round" transform="translate(10 32.194161755215646) rotate(0 42.630859375 38.322265625)"><path d="M19.16 0 C27.94 0.27, 45.01 -0.47, 66.1 0 C78.06 2.02, 83.72 4.49, 85.26 19.16 C88.93 29.24, 82.34 32.34, 85.26 57.48 C85.18 73.59, 75.77 75.38, 66.1 76.64 C53.78 72.58, 37.45 79.41, 19.16 76.64 C5.36 76, 3.24 72.77, 0 57.48 C1.52 47.94, -0.4 38.92, 0 19.16 C-0.91 6.45, 9.28 -3.56, 19.16 0" stroke="none" stroke-width="0" fill="#a18072"></path><path d="M19.16 0 C28.01 -1.3, 39.5 1.36, 66.1 0 M19.16 0 C30.05 1.24, 39.82 0, 66.1 0 M66.1 0 C77.22 -0.46, 87.24 7.02, 85.26 19.16 M66.1 0 C78.63 1.97, 84.71 5.99, 85.26 19.16 M85.26 19.16 C83.43 35.7, 87.09 48.92, 85.26 57.48 M85.26 19.16 C84.71 31.05, 85.86 42.87, 85.26 57.48 M85.26 57.48 C85.89 72.14, 79.21 75.78, 66.1 76.64 M85.26 57.48 C86.18 70.59, 76.8 76.32, 66.1 76.64 M66.1 76.64 C50.06 76.29, 34.51 75.84, 19.16 76.64 M66.1 76.64 C53.96 76.58, 40.81 75.78, 19.16 76.64 M19.16 76.64 C7.77 75.15, -0.09 70.79, 0 57.48 M19.16 76.64 C6.58 78.92, -1.94 70.39, 0 57.48 M0 57.48 C1.4 49.74, 1.52 40.05, 0 19.16 M0 57.48 C-0.88 45.28, 0.58 34.47, 0 19.16 M0 19.16 C-1.96 4.77, 4.74 -1.73, 19.16 0 M0 19.16 C1.09 4.62, 5.83 -1.61, 19.16 0" stroke="#1e1e1e" stroke-width="2" fill="none"></path></g><g stroke-linecap="round" transform="translate(67.42599033943043 31.768827916032933) rotate(312.47556431009303 13.974609375 10.47265625)"><path d="M5.24 0 C14.63 1.27, 18.13 -0.4, 22.71 0 C26.66 -0.91, 28.01 4.64, 27.95 5.24 C28.99 9.01, 27.62 7.64, 27.95 15.71 C30.06 22.09, 26.79 20.63, 22.71 20.95 C17.68 18.92, 11.92 18.15, 5.24 20.95 C3.75 22.76, 3.49 16.91, 0 15.71 C1.57 10.61, -0.03 7.61, 0 5.24 C3.02 -0.88, 0.11 -2.45, 5.24 0" stroke="none" stroke-width="0" fill="#fcc2d7"></path><path d="M5.24 0 C7.94 0.45, 15.3 0.19, 22.71 0 M5.24 0 C8.93 -0.15, 14.37 0.33, 22.71 0 M22.71 0 C27.19 -1.05, 27.36 0.13, 27.95 5.24 M22.71 0 C25.02 -0.86, 26.66 -0.04, 27.95 5.24 M27.95 5.24 C27.45 9.29, 27.2 11.86, 27.95 15.71 M27.95 5.24 C27.52 8.69, 27.66 11.97, 27.95 15.71 M27.95 15.71 C26.75 20.52, 27.79 22.38, 22.71 20.95 M27.95 15.71 C29.36 19.49, 26.64 22.26, 22.71 20.95 M22.71 20.95 C20.51 19.34, 13.65 19.62, 5.24 20.95 M22.71 20.95 C18.77 20.2, 14.73 19.94, 5.24 20.95 M5.24 20.95 C2.47 19.55, 0.32 21.01, 0 15.71 M5.24 20.95 C1.64 20.43, 1.29 18.21, 0 15.71 M0 15.71 C1.06 14, 0.65 9.49, 0 5.24 M0 15.71 C-0.45 13.29, -0.12 11.25, 0 5.24 M0 5.24 C-1.9 2.12, -0.07 -1.48, 5.24 0 M0 5.24 C2.28 1.09, 1.33 2.07, 5.24 0" stroke="#1e1e1e" stroke-width="2" fill="none"></path></g><g stroke-linecap="round" transform="translate(29.59716304117137 46.22262049353685) rotate(312.47556431009303 25.4296875 23.859375)"><path d="M24.44 -0.52 C29.5 -0.87, 36 2.74, 40.47 6.16 C44.95 9.59, 49.99 15.35, 51.29 20.05 C52.59 24.74, 51.18 30.01, 48.26 34.35 C45.34 38.68, 38.79 44.2, 33.78 46.07 C28.77 47.95, 23.26 47.27, 18.19 45.59 C13.11 43.91, 6.32 40.39, 3.34 36.01 C0.36 31.62, -0.61 24.45, 0.31 19.28 C1.23 14.12, 3.82 7.96, 8.85 5.02 C13.87 2.07, 25.82 1.96, 30.45 1.61 C35.08 1.26, 36.45 2.59, 36.63 2.93 M19.48 0.78 C24.42 -0.96, 31.24 0.27, 36.01 2.45 C40.78 4.63, 45.59 9.49, 48.12 13.85 C50.65 18.21, 52.3 23.78, 51.18 28.61 C50.06 33.44, 45.98 39.45, 41.42 42.84 C36.86 46.23, 29.57 49.54, 23.83 48.95 C18.09 48.35, 10.8 42.89, 6.99 39.25 C3.18 35.61, 1.32 31.96, 0.97 27.09 C0.62 22.21, 1.9 14.23, 4.88 10 C7.86 5.77, 16.52 3.14, 18.86 1.7 C21.2 0.26, 18.96 1.13, 18.92 1.34" stroke="none" stroke-width="0" fill="#fcc2d7"></path><path d="M27.7 -0.82 C32.93 -0.75, 39.29 3.29, 43.2 7.12 C47.11 10.95, 50.73 17.18, 51.16 22.19 C51.59 27.2, 49.1 33.15, 45.79 37.18 C42.48 41.21, 36.53 45.07, 31.29 46.37 C26.06 47.66, 19.33 46.98, 14.39 44.96 C9.45 42.93, 3.86 38.84, 1.65 34.21 C-0.56 29.57, -0.29 21.99, 1.14 17.13 C2.58 12.28, 4.87 7.67, 10.27 5.05 C15.66 2.44, 28.49 1.45, 33.49 1.43 C38.49 1.42, 40.11 4.73, 40.25 4.96 M25.28 1 C30.81 1.07, 39.16 3.86, 43.53 7.12 C47.9 10.39, 50.87 15.58, 51.51 20.6 C52.15 25.62, 50.57 32.99, 47.35 37.25 C44.13 41.51, 37.26 44.47, 32.2 46.17 C27.14 47.86, 22.11 49.46, 17.01 47.42 C11.9 45.39, 4.52 38.91, 1.57 33.96 C-1.38 29.01, -2.18 22.72, -0.71 17.73 C0.76 12.73, 5.95 7.11, 10.37 3.98 C14.8 0.85, 23.33 -0.21, 25.82 -1.04 C28.3 -1.87, 25.14 -1.4, 25.28 -1" stroke="#1e1e1e" stroke-width="2" fill="none"></path></g></svg>