<svg version="1.1" xmlns="http://www.w3.org/2000/svg" viewBox="0 0 116.9010881696413 140.84223780150387" width="116.9010881696413" height="140.84223780150387">
  <!-- svg-source:excalidraw -->
  
  <defs>
    <style class="style-fonts">
      @font-face {
        font-family: "Virgil";
        src: url("https://excalidraw.com/Virgil.woff2");
      }
      @font-face {
        font-family: "Cascadia";
        src: url("https://excalidraw.com/Cascadia.woff2");
      }
      @font-face {
        font-family: "Assistant";
        src: url("https://excalidraw.com/Assistant-Regular.woff2");
      }
    </style>
    
  </defs>
  <g stroke-linecap="round" transform="translate(32.64044744318198 109.0664392173394) rotate(337.5387531331347 19.283203125 7.48828125)"><path d="M3.74 0 C12.98 -1.75, 24.18 1.63, 34.82 0 C35.32 -0.63, 36.75 -0.29, 38.57 3.74 C38.76 6.13, 38.56 6.53, 38.57 11.23 C40.02 12.61, 35.95 12.71, 34.82 14.98 C24.05 12.75, 8.24 15.26, 3.74 14.98 C3.66 12.73, -0.91 13.13, 0 11.23 C-0.79 8.25, 1.06 6.44, 0 3.74 C-0.46 3.58, 3.06 -1.35, 3.74 0" stroke="none" stroke-width="0" fill="#868e96"></path><path d="M3.74 0 C12.98 0.03, 22.87 -0.99, 34.82 0 M3.74 0 C15.28 0.07, 27.99 -0.45, 34.82 0 M34.82 0 C36.84 -0.11, 39.41 0.45, 38.57 3.74 M34.82 0 C37.6 -0.79, 39.23 2.3, 38.57 3.74 M38.57 3.74 C38.47 6.38, 38.67 8.23, 38.57 11.23 M38.57 3.74 C38.74 6.64, 38.64 9.34, 38.57 11.23 M38.57 11.23 C39.21 14.64, 36.96 15.18, 34.82 14.98 M38.57 11.23 C38.69 13.61, 36.64 14.52, 34.82 14.98 M34.82 14.98 C24.71 15.19, 12.27 15.42, 3.74 14.98 M34.82 14.98 C25.15 15.16, 15.53 14.69, 3.74 14.98 M3.74 14.98 C0.96 14.17, -0.52 13.35, 0 11.23 M3.74 14.98 C0.6 14.09, 0.21 14.08, 0 11.23 M0 11.23 C-0.26 9.44, 0.12 7.72, 0 3.74 M0 11.23 C-0.07 8.21, -0.08 5.38, 0 3.74 M0 3.74 C0.79 1.97, 1.86 0.12, 3.74 0 M0 3.74 C0.22 1.9, 0.32 -0.26, 3.74 0" stroke="#1e1e1e" stroke-width="2" fill="none"></path></g><g stroke-linecap="round" transform="translate(32.826319839014104 16.919422171883525) rotate(337.0766447889431 19.283203125 7.48828125)"><path d="M3.74 0 C7.77 1.56, 14.29 -0.3, 34.82 0 C35.5 -1.54, 35.98 2.19, 38.57 3.74 C38.54 5.25, 39.13 6.77, 38.57 11.23 C37.2 11.46, 39.69 17.37, 34.82 14.98 C20.62 14.52, 13.34 12.34, 3.74 14.98 C0.34 14.37, 0.03 11.25, 0 11.23 C1.05 8.57, -0.09 7.34, 0 3.74 C1.82 -0.1, 0.72 2.43, 3.74 0" stroke="none" stroke-width="0" fill="#868e96"></path><path d="M3.74 0 C15.12 -0.93, 26.54 -0.11, 34.82 0 M3.74 0 C15.35 -0.41, 25.99 -0.11, 34.82 0 M34.82 0 C38.17 -0.8, 38.81 0.57, 38.57 3.74 M34.82 0 C37.98 1.05, 38.6 0.88, 38.57 3.74 M38.57 3.74 C38.68 5.33, 38.88 6.91, 38.57 11.23 M38.57 3.74 C38.69 5.69, 38.72 8.15, 38.57 11.23 M38.57 11.23 C38.2 13.93, 37.43 14.87, 34.82 14.98 M38.57 11.23 C37.88 13.28, 37.96 13.99, 34.82 14.98 M34.82 14.98 C24.09 15.4, 14.38 14.1, 3.74 14.98 M34.82 14.98 C26.18 14.78, 16.91 14.64, 3.74 14.98 M3.74 14.98 C0.73 14.6, -0.56 12.95, 0 11.23 M3.74 14.98 C1.46 15.32, -0.73 13.15, 0 11.23 M0 11.23 C0.13 8.5, 0.4 5.39, 0 3.74 M0 11.23 C-0.09 9.07, 0.17 6.79, 0 3.74 M0 3.74 C0.61 1.37, 1.44 0.57, 3.74 0 M0 3.74 C-0.93 0.99, 2 1.07, 3.74 0" stroke="#1e1e1e" stroke-width="2" fill="none"></path></g><g stroke-linecap="round" transform="translate(10 32.545724255215646) rotate(0 42.630859375 38.322265625)"><path d="M19.16 0 C26.6 -1.28, 37.08 -2.53, 66.1 0 C75.3 1.31, 82.75 6.97, 85.26 19.16 C87.25 32.58, 83.34 45.95, 85.26 57.48 C88.55 73.57, 81.92 78.56, 66.1 76.64 C59.99 73.52, 45.94 75.79, 19.16 76.64 C6.43 73.22, 0.67 67, 0 57.48 C-1.33 52.06, 1.83 38.31, 0 19.16 C-0.73 9.75, 7.77 -0.03, 19.16 0" stroke="none" stroke-width="0" fill="#a18072"></path><path d="M19.16 0 C35.46 0.25, 49.62 -1.19, 66.1 0 M19.16 0 C34.34 0.23, 51.33 -0.47, 66.1 0 M66.1 0 C79.37 -1.37, 86.41 8.22, 85.26 19.16 M66.1 0 C78.93 -0.74, 83.36 5.86, 85.26 19.16 M85.26 19.16 C87.09 33.97, 85.03 51.69, 85.26 57.48 M85.26 19.16 C86.08 31.66, 85.07 42.56, 85.26 57.48 M85.26 57.48 C85.48 70.05, 77.69 75.86, 66.1 76.64 M85.26 57.48 C86.55 68.28, 79.59 78.81, 66.1 76.64 M66.1 76.64 C51.52 75.03, 36.08 77.22, 19.16 76.64 M66.1 76.64 C49.81 75.59, 33.6 76.02, 19.16 76.64 M19.16 76.64 C5.26 75.09, 0.37 70.86, 0 57.48 M19.16 76.64 C4.93 75.49, 1.59 68.54, 0 57.48 M0 57.48 C1.88 44.47, 0.02 33.71, 0 19.16 M0 57.48 C1.02 47.49, 0.84 36.18, 0 19.16 M0 19.16 C0.38 7.53, 4.76 -0.46, 19.16 0 M0 19.16 C1.5 8.52, 4.13 -1.86, 19.16 0" stroke="#1e1e1e" stroke-width="2" fill="none"></path></g><g stroke-linecap="round" transform="translate(78.9518694196413 59.76933318646934) rotate(0 13.974609375 10.47265625)"><path d="M5.24 0 C11.55 -0.75, 17.12 2.57, 22.71 0 C22.64 3.5, 26.51 3.37, 27.95 5.24 C29 10.82, 28.21 13.2, 27.95 15.71 C27.85 21.36, 25.92 21.13, 22.71 20.95 C20.33 22.25, 17.5 18.67, 5.24 20.95 C4.61 17.74, 0.08 21.88, 0 15.71 C1.6 11.82, -0.84 9.4, 0 5.24 C-1.08 3.8, 0.81 -1.29, 5.24 0" stroke="none" stroke-width="0" fill="#fcc2d7"></path><path d="M5.24 0 C10.27 0.67, 17.07 -1.61, 22.71 0 M5.24 0 C10.66 -0.53, 14.97 -0.78, 22.71 0 M22.71 0 C25.17 -0.75, 26.82 0.2, 27.95 5.24 M22.71 0 C26.63 0.69, 26.49 0.59, 27.95 5.24 M27.95 5.24 C28.15 9.19, 28.91 12.08, 27.95 15.71 M27.95 5.24 C27.58 8.79, 28.3 12.02, 27.95 15.71 M27.95 15.71 C29.17 19.45, 26.58 22.09, 22.71 20.95 M27.95 15.71 C26.08 18.68, 27.7 23.08, 22.71 20.95 M22.71 20.95 C17.67 21.63, 14.31 20.38, 5.24 20.95 M22.71 20.95 C19.01 20.16, 14.81 21.56, 5.24 20.95 M5.24 20.95 C1.66 20.49, 1.12 18.34, 0 15.71 M5.24 20.95 C0.54 18.94, 2.1 21.32, 0 15.71 M0 15.71 C-0.97 11.66, 0.92 6.75, 0 5.24 M0 15.71 C-0.47 13.03, -0.45 9.77, 0 5.24 M0 5.24 C1.98 1.18, 1.39 1.8, 5.24 0 M0 5.24 C1.61 0.55, 1.28 2.15, 5.24 0" stroke="#1e1e1e" stroke-width="2" fill="none"></path></g><g stroke-linecap="round" transform="translate(29.153041294641298 45.73027068646934) rotate(0 25.4296875 23.859375)"><path d="M19.74 1.66 C24.89 -0.21, 32.04 -0.77, 36.69 1.24 C41.33 3.25, 45.22 9.08, 47.6 13.73 C49.97 18.38, 52.25 24.24, 50.93 29.15 C49.61 34.05, 44.3 40.24, 39.69 43.16 C35.07 46.08, 28.59 47.23, 23.25 46.68 C17.91 46.13, 11.64 43.13, 7.65 39.84 C3.67 36.56, -0.08 31.93, -0.64 26.96 C-1.2 21.98, 0.44 14.35, 4.3 10.02 C8.15 5.69, 19.22 2.59, 22.49 0.97 C25.76 -0.65, 23.85 -0.05, 23.92 0.29 M24.93 0.03 C30.35 -0.58, 38.39 0.86, 42.89 4.03 C47.39 7.19, 51.03 13.51, 51.91 19.01 C52.79 24.51, 51.2 32.72, 48.19 37.02 C45.18 41.32, 38.9 43.05, 33.83 44.8 C28.75 46.55, 22.74 49.03, 17.72 47.52 C12.7 46.01, 6.61 40.22, 3.71 35.75 C0.81 31.29, -0.54 25.73, 0.32 20.73 C1.18 15.72, 4.87 9.22, 8.88 5.73 C12.88 2.24, 21.84 0.54, 24.36 -0.19 C26.88 -0.93, 23.71 0.64, 23.99 1.31" stroke="none" stroke-width="0" fill="#fcc2d7"></path><path d="M14.74 2.88 C19.19 0.41, 26.03 -0.65, 31.11 0.43 C36.19 1.51, 42.01 5.27, 45.23 9.36 C48.45 13.46, 50.81 19.8, 50.42 25.02 C50.03 30.23, 46.59 37, 42.91 40.66 C39.22 44.31, 33.71 46.35, 28.33 46.96 C22.96 47.57, 15.34 47.07, 10.66 44.3 C5.97 41.53, 1.58 35.36, 0.22 30.34 C-1.14 25.32, -0.73 19.24, 2.49 14.19 C5.72 9.14, 16.12 2.4, 19.57 0.04 C23.01 -2.32, 23.23 -0.41, 23.15 0.02 M34.58 1.47 C39.44 2.72, 45.03 8.1, 47.49 12.39 C49.95 16.68, 50.06 22.07, 49.34 27.21 C48.61 32.35, 47.27 40.01, 43.12 43.23 C38.98 46.45, 30.26 46.85, 24.45 46.5 C18.63 46.15, 12.1 44.33, 8.23 41.13 C4.35 37.93, 2.09 32.27, 1.18 27.3 C0.28 22.32, 0.43 15.81, 2.8 11.28 C5.17 6.75, 10.15 1.95, 15.38 0.11 C20.62 -1.73, 31.15 -0.26, 34.21 0.24 C37.27 0.73, 33.98 2.6, 33.74 3.09" stroke="#1e1e1e" stroke-width="2" fill="none"></path></g></svg>