<svg version="1.1" xmlns="http://www.w3.org/2000/svg" viewBox="0 0 106.89305606447624 140.84223780150387" width="106.89305606447624" height="140.84223780150387">
  <!-- svg-source:excalidraw -->
  
  <defs>
    <style class="style-fonts">
      @font-face {
        font-family: "Virgil";
        src: url("https://excalidraw.com/Virgil.woff2");
      }
      @font-face {
        font-family: "Cascadia";
        src: url("https://excalidraw.com/Cascadia.woff2");
      }
      @font-face {
        font-family: "Assistant";
        src: url("https://excalidraw.com/Assistant-Regular.woff2");
      }
    </style>
    
  </defs>
  <g stroke-linecap="round" transform="translate(32.64044744318198 109.0664392173394) rotate(337.5387531331347 19.283203125 7.48828125)"><path d="M3.74 0 C11.78 1.81, 21.37 1.79, 34.82 0 C37.88 0.38, 36.95 -0.31, 38.57 3.74 C38.5 6.74, 38.77 8.66, 38.57 11.23 C37.31 16.04, 36.29 13.3, 34.82 14.98 C25.63 12.47, 11.83 17, 3.74 14.98 C2.27 16.7, 0.43 12.36, 0 11.23 C-0.81 8.04, -0.18 4.86, 0 3.74 C0.28 3.41, 0.88 -1.08, 3.74 0" stroke="none" stroke-width="0" fill="#868e96"></path><path d="M3.74 0 C10.84 -0.45, 18.78 -0.9, 34.82 0 M3.74 0 C15.25 0.25, 25.86 0.33, 34.82 0 M34.82 0 C37.15 0.17, 37.89 1.6, 38.57 3.74 M34.82 0 C38.25 -0.48, 39.6 2.13, 38.57 3.74 M38.57 3.74 C38.47 5.85, 38.87 7.43, 38.57 11.23 M38.57 3.74 C38.56 6.36, 38.52 8.63, 38.57 11.23 M38.57 11.23 C38.64 14.35, 38.2 15.49, 34.82 14.98 M38.57 11.23 C37.85 13.81, 36.48 15.04, 34.82 14.98 M34.82 14.98 C22.56 15.3, 12.12 14.52, 3.74 14.98 M34.82 14.98 C26.64 14.46, 18.82 14.6, 3.74 14.98 M3.74 14.98 C1.77 14.61, 0.65 14.33, 0 11.23 M3.74 14.98 C0.1 14.98, 0.14 12.81, 0 11.23 M0 11.23 C0.01 9.1, 0.2 7.5, 0 3.74 M0 11.23 C0.13 8.79, 0.19 5.95, 0 3.74 M0 3.74 C0.28 1.12, 0.97 -0.38, 3.74 0 M0 3.74 C-0.78 0.85, 0.42 -0.42, 3.74 0" stroke="#1e1e1e" stroke-width="2" fill="none"></path></g><g stroke-linecap="round" transform="translate(32.82631983901592 16.919422171883525) rotate(337.0766447889431 19.283203125 7.48828125)"><path d="M3.74 0 C15.1 1.81, 28.41 0.04, 34.82 0 C35.7 -1.55, 38.92 2.65, 38.57 3.74 C38.7 6.52, 38.08 9.74, 38.57 11.23 C37.54 12.05, 38.74 16.72, 34.82 14.98 C27.65 17.08, 23.41 16.37, 3.74 14.98 C1.68 13.61, 2.14 14.12, 0 11.23 C-0.09 8.02, 0.18 6.91, 0 3.74 C-0.37 0.16, 3.24 -1.21, 3.74 0" stroke="none" stroke-width="0" fill="#868e96"></path><path d="M3.74 0 C13.88 -0.8, 24.23 -0.55, 34.82 0 M3.74 0 C10.42 0.17, 17.21 0.04, 34.82 0 M34.82 0 C36.64 0.35, 39.38 0.83, 38.57 3.74 M34.82 0 C38.35 0.88, 37.8 1.85, 38.57 3.74 M38.57 3.74 C38.84 6.93, 38.7 9.8, 38.57 11.23 M38.57 3.74 C38.51 6.43, 38.58 9.59, 38.57 11.23 M38.57 11.23 C39.44 14.25, 36.7 15.05, 34.82 14.98 M38.57 11.23 C37.73 13.79, 38.14 13.96, 34.82 14.98 M34.82 14.98 C27.84 14.68, 19.67 14.4, 3.74 14.98 M34.82 14.98 C26.24 14.5, 18.09 14.65, 3.74 14.98 M3.74 14.98 C1.9 15.58, -1 13.73, 0 11.23 M3.74 14.98 C1.39 14.05, -0.7 14.4, 0 11.23 M0 11.23 C0.22 9.57, 0.17 8.01, 0 3.74 M0 11.23 C0.15 8.16, 0.03 5.25, 0 3.74 M0 3.74 C-0.28 0.87, 0.57 -0.35, 3.74 0 M0 3.74 C-0.83 0.83, 1.19 0.49, 3.74 0" stroke="#1e1e1e" stroke-width="2" fill="none"></path></g><g stroke-linecap="round" transform="translate(10 32.545724255215646) rotate(0 42.630859375 38.322265625)"><path d="M19.16 0 C37.92 -0.17, 52.9 -2.85, 66.1 0 C79.37 1.94, 86.8 5.96, 85.26 19.16 C83.63 36.4, 83.94 44.93, 85.26 57.48 C87.23 72.67, 75.28 79.18, 66.1 76.64 C57.23 79.82, 46.12 75.54, 19.16 76.64 C9.36 77.18, 1.53 67.32, 0 57.48 C0.5 50.28, -0.39 35.58, 0 19.16 C2.76 4.71, 4.18 2.23, 19.16 0" stroke="none" stroke-width="0" fill="#a18072"></path><path d="M19.16 0 C32.41 -0.82, 41.72 2.01, 66.1 0 M19.16 0 C34.22 -0.03, 48.95 0.16, 66.1 0 M66.1 0 C80.5 -0.83, 87.06 7.92, 85.26 19.16 M66.1 0 C77.33 1.2, 87.53 5.65, 85.26 19.16 M85.26 19.16 C86.31 34.77, 87.2 49.28, 85.26 57.48 M85.26 19.16 C85.22 32.9, 86.03 45.91, 85.26 57.48 M85.26 57.48 C84.02 70.4, 77.42 76.75, 66.1 76.64 M85.26 57.48 C86.9 68.23, 77.42 74.98, 66.1 76.64 M66.1 76.64 C49.15 75.18, 33.42 75.56, 19.16 76.64 M66.1 76.64 C57.03 75.97, 47.56 76.93, 19.16 76.64 M19.16 76.64 C4.39 76.65, 0.25 68.65, 0 57.48 M19.16 76.64 C4.99 77.99, -2.26 70.45, 0 57.48 M0 57.48 C0.7 48.42, 1.73 42.7, 0 19.16 M0 57.48 C-0.07 42.76, -0.62 27.91, 0 19.16 M0 19.16 C-1.35 5.69, 4.94 -0.73, 19.16 0 M0 19.16 C-0.12 7.37, 8.41 -1, 19.16 0" stroke="#1e1e1e" stroke-width="2" fill="none"></path></g><g stroke-linecap="round" transform="translate(65.75746355371484 88.17832059975353) rotate(47.524435689906944 13.974609375 10.47265625)"><path d="M5.24 0 C9.96 -1.93, 19.04 1.65, 22.71 0 C27.74 -0.43, 30.34 2.29, 27.95 5.24 C27.11 7.39, 28.89 13.24, 27.95 15.71 C24.35 21.73, 23.29 19.62, 22.71 20.95 C16.36 19.5, 11.56 21.62, 5.24 20.95 C3.28 18.01, -1.22 18.58, 0 15.71 C-0.29 12.48, 1.43 9.94, 0 5.24 C-2.21 3.98, -1.21 -2.79, 5.24 0" stroke="none" stroke-width="0" fill="#fcc2d7"></path><path d="M5.24 0 C7.53 1.51, 13.11 -0.23, 22.71 0 M5.24 0 C10.6 0.28, 17.85 -0.39, 22.71 0 M22.71 0 C28 1.53, 26.61 2.79, 27.95 5.24 M22.71 0 C28.48 -0.73, 30.14 3.48, 27.95 5.24 M27.95 5.24 C28.85 8.83, 28.43 12.29, 27.95 15.71 M27.95 5.24 C28.42 7.66, 27.63 9.58, 27.95 15.71 M27.95 15.71 C26.49 19.31, 27.63 19.18, 22.71 20.95 M27.95 15.71 C26.49 17.54, 27.18 21.81, 22.71 20.95 M22.71 20.95 C17.64 20.03, 11.82 20.53, 5.24 20.95 M22.71 20.95 C19.2 21.4, 13.67 20.88, 5.24 20.95 M5.24 20.95 C1.99 19.34, -1.22 20.37, 0 15.71 M5.24 20.95 C-0.52 21.13, -2.1 20.55, 0 15.71 M0 15.71 C0.98 13.62, 0.8 11.21, 0 5.24 M0 15.71 C-0.17 12.9, -0.38 10.32, 0 5.24 M0 5.24 C-1.44 1.01, 1.64 0.85, 5.24 0 M0 5.24 C2.02 0.75, 3.66 -0.61, 5.24 0" stroke="#1e1e1e" stroke-width="2" fill="none"></path></g><g stroke-linecap="round" transform="translate(27.928636255455785 46.951090522249615) rotate(47.524435689906944 25.4296875 23.859375)"><path d="M14.01 2.42 C18.48 -0.08, 25.7 -1.24, 31.1 -0.03 C36.5 1.19, 42.97 5.46, 46.4 9.72 C49.82 13.97, 52.08 20.46, 51.66 25.52 C51.23 30.57, 47.66 36.43, 43.87 40.05 C40.08 43.66, 34.29 46.63, 28.92 47.2 C23.54 47.77, 16.3 46.22, 11.64 43.45 C6.97 40.68, 2.62 35.33, 0.92 30.58 C-0.78 25.83, -1.28 19.66, 1.46 14.94 C4.19 10.22, 14.21 4.45, 17.34 2.25 C20.48 0.05, 20.24 1.37, 20.27 1.73 M27.25 0.34 C32.53 0.82, 40.68 4.15, 44.57 7.97 C48.47 11.79, 50.35 18.2, 50.62 23.25 C50.89 28.3, 49.5 34.08, 46.2 38.26 C42.89 42.44, 36.22 47.35, 30.8 48.36 C25.37 49.37, 18.27 46.62, 13.63 44.31 C9 42.01, 5.35 38.85, 2.99 34.52 C0.64 30.18, -1.67 23.45, -0.5 18.28 C0.68 13.11, 5.04 6.42, 10.05 3.49 C15.06 0.57, 26.37 1.17, 29.55 0.73 C32.72 0.29, 29.5 0.36, 29.09 0.86" stroke="none" stroke-width="0" fill="#fcc2d7"></path><path d="M23.13 -0.56 C28.25 -1.17, 35.77 1.84, 40.16 4.99 C44.56 8.15, 47.98 13.68, 49.51 18.36 C51.04 23.04, 51.45 28.4, 49.35 33.06 C47.25 37.73, 42.02 43.9, 36.92 46.37 C31.82 48.85, 24 49.27, 18.77 47.92 C13.53 46.56, 8.54 42.53, 5.49 38.25 C2.44 33.97, 0.02 27.44, 0.46 22.24 C0.89 17.04, 3.36 10.79, 8.1 7.06 C12.84 3.34, 24.8 0.74, 28.91 -0.13 C33.02 -0.99, 32.77 1.28, 32.75 1.87 M30.83 0.87 C36.25 1.58, 44.11 4.8, 47.28 8.78 C50.44 12.76, 50.35 19.36, 49.82 24.77 C49.29 30.18, 47.88 37.54, 44.11 41.24 C40.34 44.94, 32.89 46.66, 27.19 46.96 C21.5 47.26, 14.45 46.1, 9.95 43.05 C5.45 40.01, 1.51 33.71, 0.2 28.68 C-1.11 23.65, -0.44 17.35, 2.09 12.86 C4.62 8.36, 10.25 3.58, 15.38 1.72 C20.52 -0.14, 30.42 1.77, 32.9 1.69 C35.39 1.61, 30.54 1.22, 30.3 1.26" stroke="#1e1e1e" stroke-width="2" fill="none"></path></g></svg>