<svg version="1.1" xmlns="http://www.w3.org/2000/svg" viewBox="0 0 116.80622209821377 127.12357954545405" width="116.80622209821377" height="127.12357954545405">
  <!-- svg-source:excalidraw -->
  
  <defs>
    <style class="style-fonts">
      @font-face {
        font-family: "Virgil";
        src: url("https://excalidraw.com/Virgil.woff2");
      }
      @font-face {
        font-family: "Cascadia";
        src: url("https://excalidraw.com/Cascadia.woff2");
      }
      @font-face {
        font-family: "Assistant";
        src: url("https://excalidraw.com/Assistant-Regular.woff2");
      }
    </style>
    
  </defs>
  <g stroke-linecap="round" transform="translate(21.544503348213766 24.85274621212011) rotate(0 42.630859375 38.322265625)"><path d="M19.16 0 C32.04 -0.08, 47.26 0.19, 66.1 0 C78.58 -1.21, 85.42 5.56, 85.26 19.16 C86.92 29.86, 88.83 39.19, 85.26 57.48 C87.57 72.75, 77.49 80.19, 66.1 76.64 C51.39 75, 45.92 77.36, 19.16 76.64 C4.04 73.74, -3.35 72.02, 0 57.48 C1.91 44.25, -3.61 34.37, 0 19.16 C-2.22 5.35, 6.66 -2.88, 19.16 0" stroke="none" stroke-width="0" fill="#fd7e14"></path><path d="M19.16 0 C36.31 -1.28, 54.45 -0.23, 66.1 0 M19.16 0 C32.76 0.59, 44.79 0.9, 66.1 0 M66.1 0 C77.75 -1.57, 84.57 7.46, 85.26 19.16 M66.1 0 C80.03 0.12, 83.53 5.43, 85.26 19.16 M85.26 19.16 C86.44 35.42, 86.36 46.2, 85.26 57.48 M85.26 19.16 C85.07 26.96, 84.15 35.66, 85.26 57.48 M85.26 57.48 C85.68 70.03, 78.86 75.38, 66.1 76.64 M85.26 57.48 C86 69.57, 80.21 77.35, 66.1 76.64 M66.1 76.64 C51.16 74.55, 39.32 75.18, 19.16 76.64 M66.1 76.64 C54.4 75.79, 42.28 76.26, 19.16 76.64 M19.16 76.64 C7.17 74.95, -0.25 71.21, 0 57.48 M19.16 76.64 C7.78 77.62, 1.81 71, 0 57.48 M0 57.48 C-2.03 43.2, -2.23 33.65, 0 19.16 M0 57.48 C0.43 43.51, 0.45 29.93, 0 19.16 M0 19.16 C0.83 7.18, 6.88 1.39, 19.16 0 M0 19.16 C0.89 6.27, 7.6 -0.7, 19.16 0" stroke="#1e1e1e" stroke-width="2" fill="none"></path></g><g stroke-linecap="round" transform="translate(45.41349600919875 102.14701704545405) rotate(0 19.283203125 7.48828125)"><path d="M3.74 0 C14.41 0.57, 27.34 -0.94, 34.82 0 C37.43 -0.6, 37.87 3.45, 38.57 3.74 C39.4 5.77, 39.22 8.97, 38.57 11.23 C37.57 16.29, 36.03 14.96, 34.82 14.98 C27.54 15.23, 13.72 12.68, 3.74 14.98 C-1.17 16.25, 0.23 16.25, 0 11.23 C-0.87 8.72, -0.67 5.62, 0 3.74 C0.2 -0.84, 1.11 -0.59, 3.74 0" stroke="none" stroke-width="0" fill="#868e96"></path><path d="M3.74 0 C11.5 -0.18, 17.06 0.37, 34.82 0 M3.74 0 C13.67 0.39, 23.31 -0.5, 34.82 0 M34.82 0 C36.97 0.54, 39.07 1.3, 38.57 3.74 M34.82 0 C36.45 -0.48, 39.45 1.82, 38.57 3.74 M38.57 3.74 C38.75 5.47, 38.29 7.69, 38.57 11.23 M38.57 3.74 C38.39 6.21, 38.61 8.85, 38.57 11.23 M38.57 11.23 C38.56 13.1, 37.64 14.68, 34.82 14.98 M38.57 11.23 C39.23 14.08, 37.13 13.91, 34.82 14.98 M34.82 14.98 C28.42 14.34, 21.64 14.51, 3.74 14.98 M34.82 14.98 C25.95 14.72, 17.76 14.44, 3.74 14.98 M3.74 14.98 C1.12 15.45, 0.61 14.15, 0 11.23 M3.74 14.98 C2.15 15.35, 0.41 14.78, 0 11.23 M0 11.23 C-0.32 9.95, 0.21 8.31, 0 3.74 M0 11.23 C0.12 8.88, 0.05 6.97, 0 3.74 M0 3.74 C0.25 1.94, 1.63 -0.05, 3.74 0 M0 3.74 C0.61 0.9, 1.45 -0.18, 3.74 0" stroke="#1e1e1e" stroke-width="2" fill="none"></path></g><g stroke-linecap="round" transform="translate(45.59936840503178 10) rotate(0 19.283203125 7.48828125)"><path d="M3.74 0 C13.39 -0.97, 23.57 -0.7, 34.82 0 C36.62 2.21, 38.67 2.03, 38.57 3.74 C39.27 6.71, 38.27 9.29, 38.57 11.23 C37.28 13.71, 37.64 12.85, 34.82 14.98 C25.31 12.95, 16.77 16.32, 3.74 14.98 C1.48 17.5, 1.46 15.59, 0 11.23 C-0.52 8.99, 0.15 6.54, 0 3.74 C-0.14 0.66, 0.73 -0.99, 3.74 0" stroke="none" stroke-width="0" fill="#868e96"></path><path d="M3.74 0 C10.22 0.28, 17.43 0.84, 34.82 0 M3.74 0 C14.91 -0.55, 26.46 0.11, 34.82 0 M34.82 0 C37.82 0.05, 37.81 0.83, 38.57 3.74 M34.82 0 C38.2 0.57, 38.29 1.82, 38.57 3.74 M38.57 3.74 C38.29 6.49, 38.74 9.6, 38.57 11.23 M38.57 3.74 C38.57 5.45, 38.53 7.07, 38.57 11.23 M38.57 11.23 C38.89 13.43, 37.9 15.28, 34.82 14.98 M38.57 11.23 C38.38 12.67, 36.21 14.05, 34.82 14.98 M34.82 14.98 C27.54 14.56, 21.07 14.87, 3.74 14.98 M34.82 14.98 C28.01 14.51, 20.75 15.17, 3.74 14.98 M3.74 14.98 C1.86 15.4, 0.78 14.05, 0 11.23 M3.74 14.98 C1.65 16.03, -0.94 12.76, 0 11.23 M0 11.23 C0.21 9.88, 0 8.11, 0 3.74 M0 11.23 C0.05 9.57, 0.02 7.88, 0 3.74 M0 3.74 C0.39 1.2, 1.77 -0.3, 3.74 0 M0 3.74 C0.2 1.06, 2.2 -0.65, 3.74 0" stroke="#343a40" stroke-width="2" fill="none"></path></g><g stroke-linecap="round" transform="translate(10 53.475852272726115) rotate(0 13.974609375 10.47265625)"><path d="M5.24 0 C11.05 -0.62, 15.75 2.78, 22.71 0 C26.35 1.08, 28.18 4.73, 27.95 5.24 C27.34 9.97, 27.14 10.97, 27.95 15.71 C28.39 16.25, 24.46 24.3, 22.71 20.95 C14.24 22.24, 11.91 23.74, 5.24 20.95 C3.77 23.52, -1.39 16.26, 0 15.71 C0.26 10.89, 0.01 8.67, 0 5.24 C-0.72 0.38, 4.46 2.81, 5.24 0" stroke="none" stroke-width="0" fill="#d0bfff"></path><path d="M5.24 0 C10.28 1.34, 15.84 -0.02, 22.71 0 M5.24 0 C11.92 0.61, 19.64 0.18, 22.71 0 M22.71 0 C24.7 -0.83, 29.48 2.73, 27.95 5.24 M22.71 0 C25.65 1.13, 30.04 2.79, 27.95 5.24 M27.95 5.24 C28.31 7.41, 27.14 8.62, 27.95 15.71 M27.95 5.24 C27.97 7.52, 28.14 10.32, 27.95 15.71 M27.95 15.71 C29.11 19.81, 25.88 19.1, 22.71 20.95 M27.95 15.71 C25.74 17.34, 24.31 20.78, 22.71 20.95 M22.71 20.95 C17.96 20.83, 12.69 20.04, 5.24 20.95 M22.71 20.95 C17.84 21.21, 13.72 21.17, 5.24 20.95 M5.24 20.95 C3.32 21.6, 0.71 21.03, 0 15.71 M5.24 20.95 C-0.12 19.02, -1.65 17.04, 0 15.71 M0 15.71 C-0.16 12.41, -0.76 8.32, 0 5.24 M0 15.71 C0.09 13.95, 0.16 11.43, 0 5.24 M0 5.24 C1.05 1.14, 2.1 -0.32, 5.24 0 M0 5.24 C1.91 0.45, 2.14 -1.09, 5.24 0" stroke="#1e1e1e" stroke-width="2" fill="none"></path></g><g stroke-linecap="round" transform="translate(36.888671875 39.436789772726115) rotate(0 25.4296875 23.859375)"><path d="M14.44 2.88 C19.28 0.96, 27.85 0.51, 33.21 1.95 C38.57 3.4, 43.78 7.3, 46.58 11.55 C49.38 15.8, 50.79 22.44, 50.01 27.46 C49.23 32.47, 45.69 38.23, 41.9 41.64 C38.11 45.05, 32.45 47.64, 27.29 47.93 C22.12 48.22, 15.37 46.38, 10.93 43.37 C6.48 40.36, 2.05 34.88, 0.63 29.87 C-0.79 24.86, -1.12 18.12, 2.41 13.31 C5.94 8.51, 17.53 3.12, 21.83 1.05 C26.14 -1.03, 28.23 0.57, 28.23 0.86 M24.06 -0.38 C29.51 -0.88, 37.81 1.83, 42.25 5.04 C46.69 8.25, 49.57 13.95, 50.72 18.87 C51.88 23.79, 51.64 29.88, 49.19 34.56 C46.74 39.25, 41.39 44.72, 36.04 46.97 C30.7 49.22, 22.6 49.8, 17.13 48.07 C11.65 46.34, 5.98 41.37, 3.2 36.6 C0.41 31.83, -0.32 24.27, 0.41 19.44 C1.14 14.61, 3.54 11.01, 7.58 7.61 C11.63 4.21, 22.06 0.46, 24.66 -0.96 C27.27 -2.38, 23.12 -1.48, 23.21 -0.9" stroke="none" stroke-width="0" fill="#d0bfff"></path><path d="M24.77 -0.34 C29.87 -0.45, 38.11 2.92, 42.41 6.16 C46.7 9.4, 49.78 13.99, 50.54 19.08 C51.31 24.16, 49.65 32.16, 46.97 36.66 C44.3 41.16, 39.48 44.33, 34.51 46.08 C29.53 47.83, 22.23 49.03, 17.11 47.15 C11.99 45.26, 6.71 39.44, 3.8 34.77 C0.88 30.1, -1.34 23.99, -0.37 19.12 C0.59 14.24, 4.22 8.69, 9.6 5.51 C14.98 2.33, 27.11 0.24, 31.89 0.04 C36.67 -0.16, 38.31 3.8, 38.29 4.33 M18.39 1.64 C23.09 -0.31, 29.99 -1.29, 34.66 0.33 C39.33 1.96, 44.01 6.68, 46.42 11.4 C48.82 16.12, 50.09 23.59, 49.08 28.67 C48.07 33.74, 44.53 38.74, 40.37 41.86 C36.2 44.98, 29.41 47.6, 24.09 47.37 C18.76 47.15, 12.5 43.93, 8.41 40.51 C4.31 37.08, 0.19 31.9, -0.47 26.82 C-1.14 21.73, 1.46 14.14, 4.43 9.99 C7.39 5.83, 14.98 3.18, 17.34 1.9 C19.7 0.61, 18.23 1.93, 18.59 2.27" stroke="#1e1e1e" stroke-width="2" fill="none"></path></g></svg>