<svg version="1.1" xmlns="http://www.w3.org/2000/svg" viewBox="0 0 106.68100249304894 127.12357954545405" width="106.68100249304894" height="127.12357954545405">
  <!-- svg-source:excalidraw -->
  
  <defs>
    <style class="style-fonts">
      @font-face {
        font-family: "Virgil";
        src: url("https://excalidraw.com/Virgil.woff2");
      }
      @font-face {
        font-family: "Cascadia";
        src: url("https://excalidraw.com/Cascadia.woff2");
      }
      @font-face {
        font-family: "Assistant";
        src: url("https://excalidraw.com/Assistant-Regular.woff2");
      }
    </style>
    
  </defs>
  <g stroke-linecap="round" transform="translate(10 24.562567640692578) rotate(0 42.630859375 38.322265625)"><path d="M19.16 0 C36.8 2.29, 52.55 2.93, 66.1 0 C80.04 1.27, 88.56 3.46, 85.26 19.16 C88.13 29.13, 88.17 35.34, 85.26 57.48 C88.11 67.82, 81.8 73.16, 66.1 76.64 C52.57 78.24, 33.84 78.75, 19.16 76.64 C5.29 77.28, -0.57 73.25, 0 57.48 C0.77 47.85, -1.33 38.96, 0 19.16 C-0.83 5.42, 9.44 0.15, 19.16 0" stroke="none" stroke-width="0" fill="#fd7e14"></path><path d="M19.16 0 C31.23 -0.44, 48.52 0.18, 66.1 0 M19.16 0 C37.06 -0.06, 53.1 -0.03, 66.1 0 M66.1 0 C77.08 1.93, 86.32 4.67, 85.26 19.16 M66.1 0 C79.78 0.27, 85.66 6.77, 85.26 19.16 M85.26 19.16 C85.79 29.33, 86.61 43.8, 85.26 57.48 M85.26 19.16 C84.66 33.44, 84.65 48.22, 85.26 57.48 M85.26 57.48 C84.65 69.71, 79.35 77.03, 66.1 76.64 M85.26 57.48 C87.07 71.83, 78.9 78.93, 66.1 76.64 M66.1 76.64 C55.74 77.49, 43.34 74.98, 19.16 76.64 M66.1 76.64 C53.73 77.37, 42.76 77.33, 19.16 76.64 M19.16 76.64 C4.55 75.08, -0.97 71.1, 0 57.48 M19.16 76.64 C6.38 75.04, -2.13 69.11, 0 57.48 M0 57.48 C-1.22 45.82, -0.55 34.03, 0 19.16 M0 57.48 C-0.9 44, -0.76 32.07, 0 19.16 M0 19.16 C-1.01 5.36, 5.71 -0.45, 19.16 0 M0 19.16 C-0.07 4.67, 5.27 -0.63, 19.16 0" stroke="#1e1e1e" stroke-width="2" fill="none"></path></g><g stroke-linecap="round" transform="translate(33.66809980384164 102.14701704545405) rotate(0 19.283203125 7.48828125)"><path d="M3.74 0 C13.79 1.8, 22.47 0.67, 34.82 0 C39.7 -2.11, 36.39 -0.62, 38.57 3.74 C39.58 5.18, 39.43 6.17, 38.57 11.23 C40.68 11.21, 38.4 16, 34.82 14.98 C24.59 16.5, 13.85 15.59, 3.74 14.98 C0.83 17.14, -1.46 14.17, 0 11.23 C-0.35 9.39, -0.25 7.19, 0 3.74 C2.21 1.35, 2.03 0.17, 3.74 0" stroke="none" stroke-width="0" fill="#868e96"></path><path d="M3.74 0 C11.84 -0.01, 18.85 0.88, 34.82 0 M3.74 0 C11.98 -0.04, 20.51 0.51, 34.82 0 M34.82 0 C37.85 -0.86, 38.96 1.37, 38.57 3.74 M34.82 0 C37.52 0.19, 38.75 2.28, 38.57 3.74 M38.57 3.74 C38.76 5.79, 38.82 7.88, 38.57 11.23 M38.57 3.74 C38.38 5.97, 38.48 7.78, 38.57 11.23 M38.57 11.23 C38.8 13.92, 38.11 15.66, 34.82 14.98 M38.57 11.23 C38.58 14.87, 36.67 14.08, 34.82 14.98 M34.82 14.98 C26.62 14.3, 17.9 15.82, 3.74 14.98 M34.82 14.98 C24.42 15.28, 12.64 14.66, 3.74 14.98 M3.74 14.98 C0.76 15.4, 0 13.03, 0 11.23 M3.74 14.98 C0.18 14.4, 0.24 13.6, 0 11.23 M0 11.23 C-0.09 9.21, 0.14 6.69, 0 3.74 M0 11.23 C-0.12 9.66, -0.06 8.03, 0 3.74 M0 3.74 C-0.34 1.02, 1.22 -0.75, 3.74 0 M0 3.74 C-0.56 0.93, 1.7 -0.98, 3.74 0" stroke="#1e1e1e" stroke-width="2" fill="none"></path></g><g stroke-linecap="round" transform="translate(33.85397219967513 10) rotate(0 19.283203125 7.48828125)"><path d="M3.74 0 C15.8 0.6, 28.55 -2.43, 34.82 0 C35.14 -1.87, 36.13 3.68, 38.57 3.74 C39.43 5.68, 39.45 8, 38.57 11.23 C39.65 14.75, 37.96 16.79, 34.82 14.98 C23.51 15.65, 13.37 17.35, 3.74 14.98 C-0.21 15.42, -1.24 14.37, 0 11.23 C-0.19 8.79, 0.86 6.9, 0 3.74 C0.78 1.41, 3.4 -0.66, 3.74 0" stroke="none" stroke-width="0" fill="#868e96"></path><path d="M3.74 0 C12.59 0.83, 19.81 0.57, 34.82 0 M3.74 0 C12.09 0.5, 21.59 -0.41, 34.82 0 M34.82 0 C37.71 0.12, 38.74 1.41, 38.57 3.74 M34.82 0 C37.5 1.03, 38.13 1.35, 38.57 3.74 M38.57 3.74 C38.83 5.47, 38.48 6.48, 38.57 11.23 M38.57 3.74 C38.48 6.11, 38.58 8.62, 38.57 11.23 M38.57 11.23 C39.35 14.41, 37.33 15.97, 34.82 14.98 M38.57 11.23 C37.92 12.83, 36.92 15.59, 34.82 14.98 M34.82 14.98 C23.52 15.63, 13.54 14.62, 3.74 14.98 M34.82 14.98 C23.51 14.66, 12.87 15.26, 3.74 14.98 M3.74 14.98 C1.25 14.28, -0.92 13.23, 0 11.23 M3.74 14.98 C1.49 14.85, -0.01 13, 0 11.23 M0 11.23 C0.13 8.68, -0.33 5.9, 0 3.74 M0 11.23 C-0.06 9.5, -0.03 7.91, 0 3.74 M0 3.74 C-0.03 0.5, 0.76 -0.28, 3.74 0 M0 3.74 C0.45 0.27, 1.11 0.55, 3.74 0" stroke="#343a40" stroke-width="2" fill="none"></path></g><g stroke-linecap="round" transform="translate(65.54540998228754 23.860949680865815) rotate(312.47556431009303 13.974609375 10.47265625)"><path d="M5.24 0 C14.73 -2.67, 15.83 -2.37, 22.71 0 C22.83 3.37, 29.64 5.15, 27.95 5.24 C29.63 6.44, 28.88 12.04, 27.95 15.71 C28.84 21.71, 27.59 20.76, 22.71 20.95 C16.05 23.61, 8.62 21.54, 5.24 20.95 C0.03 21.84, -0.29 17.99, 0 15.71 C1.64 12.6, 0.61 9.45, 0 5.24 C2.99 0.83, 4.05 2.49, 5.24 0" stroke="none" stroke-width="0" fill="#d0bfff"></path><path d="M5.24 0 C9.96 0.83, 15.19 -1.45, 22.71 0 M5.24 0 C10.7 -0.92, 15.59 -0.07, 22.71 0 M22.71 0 C26.55 0.33, 28.27 3.54, 27.95 5.24 M22.71 0 C25.34 0.21, 25.72 2.9, 27.95 5.24 M27.95 5.24 C27.73 7.75, 28.26 11.1, 27.95 15.71 M27.95 5.24 C28.04 9.49, 28.33 13.89, 27.95 15.71 M27.95 15.71 C27.97 21.19, 25.07 19.38, 22.71 20.95 M27.95 15.71 C27.16 20.43, 27.36 21.06, 22.71 20.95 M22.71 20.95 C19.65 20.66, 15.72 22.67, 5.24 20.95 M22.71 20.95 C16.25 21.18, 10.65 20.2, 5.24 20.95 M5.24 20.95 C-0.1 19.94, 0.42 18.97, 0 15.71 M5.24 20.95 C1.73 19.49, 0.74 18.51, 0 15.71 M0 15.71 C-1 10.95, -0.88 7.35, 0 5.24 M0 15.71 C-0.12 12.52, 0.04 9.18, 0 5.24 M0 5.24 C-0.97 1.19, 2.53 -1.7, 5.24 0 M0 5.24 C-0.28 2.84, 3.14 0.98, 5.24 0" stroke="#1e1e1e" stroke-width="2" fill="none"></path></g><g stroke-linecap="round" transform="translate(27.716582684028936 38.54130475837155) rotate(312.47556431009303 25.4296875 23.859375)"><path d="M25.07 0.58 C30.4 0.18, 37.95 2.36, 42.03 5.38 C46.11 8.4, 48.76 13.77, 49.54 18.7 C50.31 23.62, 49.24 30.4, 46.67 34.91 C44.1 39.42, 39.18 43.91, 34.12 45.75 C29.05 47.59, 21.43 47.62, 16.28 45.96 C11.13 44.3, 5.99 40.25, 3.22 35.81 C0.44 31.36, -1.29 24.26, -0.37 19.29 C0.55 14.32, 4.03 9.21, 8.76 6.01 C13.49 2.81, 24.03 0.77, 28 0.09 C31.98 -0.58, 32.46 1.4, 32.61 1.95 M28.32 -0.94 C33.22 -0.92, 39.64 2.69, 43.63 6.9 C47.62 11.1, 51.78 18.96, 52.26 24.27 C52.74 29.59, 50.01 35.14, 46.53 38.81 C43.04 42.48, 36.72 45.56, 31.33 46.29 C25.94 47.02, 19.04 45.45, 14.2 43.21 C9.36 40.98, 4.33 37.25, 2.26 32.88 C0.2 28.52, 0.01 21.95, 1.8 17.01 C3.6 12.08, 8.27 6.12, 13.03 3.26 C17.78 0.4, 27.55 0.31, 30.33 -0.14 C33.12 -0.59, 29.72 0.22, 29.72 0.55" stroke="none" stroke-width="0" fill="#d0bfff"></path><path d="M17.11 2.17 C21.69 0.33, 27.65 0.07, 32.68 1.64 C37.7 3.21, 44.24 7.28, 47.25 11.6 C50.26 15.92, 51.42 22.62, 50.74 27.58 C50.05 32.55, 47.24 38.19, 43.15 41.38 C39.05 44.57, 31.66 46.52, 26.14 46.74 C20.63 46.97, 14.23 45.66, 10.07 42.72 C5.9 39.79, 2.37 34.32, 1.17 29.13 C-0.04 23.95, -0.3 16.52, 2.83 11.63 C5.95 6.74, 16.33 1.68, 19.92 -0.21 C23.5 -2.11, 24.34 -0.32, 24.35 0.25 M27.9 1.6 C32.75 1.4, 39.01 2.44, 42.73 5.97 C46.46 9.51, 49.58 17.5, 50.27 22.81 C50.96 28.11, 50.15 33.88, 46.88 37.81 C43.61 41.73, 35.86 44.95, 30.65 46.34 C25.44 47.73, 20.4 48.1, 15.62 46.13 C10.83 44.15, 4.14 39.14, 1.92 34.48 C-0.3 29.81, 1 23.39, 2.29 18.14 C3.58 12.9, 5.52 5.91, 9.66 3.01 C13.81 0.11, 24.13 1.33, 27.15 0.75 C30.18 0.17, 27.98 -0.63, 27.83 -0.46" stroke="#1e1e1e" stroke-width="2" fill="none"></path></g></svg>