<svg version="1.1" xmlns="http://www.w3.org/2000/svg" viewBox="0 0 105.26171875 127.84067844958543" width="105.26171875" height="127.84067844958543">
  <!-- svg-source:excalidraw -->
  
  <defs>
    <style class="style-fonts">
      @font-face {
        font-family: "Virgil";
        src: url("https://excalidraw.com/Virgil.woff2");
      }
      @font-face {
        font-family: "Cascadia";
        src: url("https://excalidraw.com/Cascadia.woff2");
      }
      @font-face {
        font-family: "Assistant";
        src: url("https://excalidraw.com/Assistant-Regular.woff2");
      }
    </style>
    
  </defs>
  <g stroke-linecap="round" transform="translate(10 24.85274621212102) rotate(0 42.630859375 38.322265625)"><path d="M19.16 0 C31.41 0.86, 40.77 -1.33, 66.1 0 C82.23 0.62, 82.91 3.48, 85.26 19.16 C89.09 29.12, 88.17 33.63, 85.26 57.48 C82.32 70.83, 76.66 75.6, 66.1 76.64 C50.84 75.88, 35.85 79.31, 19.16 76.64 C9.2 78.13, -0.17 66.89, 0 57.48 C-3.35 46.96, 0.26 37.74, 0 19.16 C-0.83 3.59, 8.97 2.24, 19.16 0" stroke="none" stroke-width="0" fill="#fd7e14"></path><path d="M19.16 0 C30.69 -0.84, 41.23 1.46, 66.1 0 M19.16 0 C34.88 0.79, 51.57 -0.33, 66.1 0 M66.1 0 C77.02 -1, 85.68 6.16, 85.26 19.16 M66.1 0 C78.86 -1.45, 86 5.7, 85.26 19.16 M85.26 19.16 C83.53 30.95, 83.76 44.94, 85.26 57.48 M85.26 19.16 C84.73 30.16, 85.04 40.87, 85.26 57.48 M85.26 57.48 C84.29 69.71, 79.66 74.95, 66.1 76.64 M85.26 57.48 C84.98 71.35, 80.27 77.62, 66.1 76.64 M66.1 76.64 C50.17 75.18, 28.89 75.37, 19.16 76.64 M66.1 76.64 C57.37 76.76, 47.53 76.19, 19.16 76.64 M19.16 76.64 C8.01 74.71, 0.83 71.05, 0 57.48 M19.16 76.64 C6.96 78.25, 0.89 70.14, 0 57.48 M0 57.48 C-0.2 45.63, -1.01 30.8, 0 19.16 M0 57.48 C-0.43 47.85, -0.32 37.87, 0 19.16 M0 19.16 C1.7 6.47, 6.99 0.13, 19.16 0 M0 19.16 C1.91 5.8, 7.86 1.59, 19.16 0" stroke="#1e1e1e" stroke-width="2" fill="none"></path></g><g stroke-linecap="round" transform="translate(33.86899266098453 102.14701704545496) rotate(0 19.283203125 7.48828125)"><path d="M3.74 0 C9.4 -1.31, 21.74 0.4, 34.82 0 C35.62 -2.1, 36.15 2.52, 38.57 3.74 C39.36 5.68, 37.87 8.53, 38.57 11.23 C36.97 12.98, 37.52 12.89, 34.82 14.98 C24.68 16.85, 18.54 15.97, 3.74 14.98 C1.13 12.54, -1.79 13.39, 0 11.23 C0.14 8.95, -0.13 7, 0 3.74 C1.86 2.87, -0.8 -0.72, 3.74 0" stroke="none" stroke-width="0" fill="#868e96"></path><path d="M3.74 0 C15.95 0.95, 27.61 -0.88, 34.82 0 M3.74 0 C10.64 -0.41, 17.07 -0.32, 34.82 0 M34.82 0 C37.53 -0.11, 38.56 0.62, 38.57 3.74 M34.82 0 C37.69 -0.34, 39.23 1.6, 38.57 3.74 M38.57 3.74 C38.23 5.56, 38.51 7.8, 38.57 11.23 M38.57 3.74 C38.55 5.47, 38.46 7.42, 38.57 11.23 M38.57 11.23 C38.96 12.88, 37.2 15.45, 34.82 14.98 M38.57 11.23 C39.26 14.22, 38.22 15.35, 34.82 14.98 M34.82 14.98 C23.56 14.13, 13.04 15.79, 3.74 14.98 M34.82 14.98 C24.44 14.62, 13.67 14.48, 3.74 14.98 M3.74 14.98 C1.66 15.37, 0.25 14.42, 0 11.23 M3.74 14.98 C1.69 14.92, 0.61 13.38, 0 11.23 M0 11.23 C-0.2 8.92, -0.17 6.57, 0 3.74 M0 11.23 C-0.03 9, 0.17 6.87, 0 3.74 M0 3.74 C0.3 1.31, 2.08 -0.25, 3.74 0 M0 3.74 C0.74 2.04, 0.81 1.13, 3.74 0" stroke="#1e1e1e" stroke-width="2" fill="none"></path></g><g stroke-linecap="round" transform="translate(34.05486505681802 10) rotate(0 19.283203125 7.48828125)"><path d="M3.74 0 C15.87 0.64, 21.45 -1.9, 34.82 0 C34.9 1.28, 38.8 3.77, 38.57 3.74 C37.84 6.57, 38.04 8.8, 38.57 11.23 C38.77 11.65, 37.18 14.39, 34.82 14.98 C28.15 16.35, 17.29 12.85, 3.74 14.98 C-0.54 14.64, -1.76 11.25, 0 11.23 C-0.23 8.58, 0.69 8.04, 0 3.74 C-2.05 0.53, 0.1 -0.59, 3.74 0" stroke="none" stroke-width="0" fill="#868e96"></path><path d="M3.74 0 C12.77 -1.06, 20.11 -0.63, 34.82 0 M3.74 0 C13.92 -0.14, 25.13 0.05, 34.82 0 M34.82 0 C37.31 -0.63, 38.89 0.95, 38.57 3.74 M34.82 0 C37.98 0.35, 38.38 0.19, 38.57 3.74 M38.57 3.74 C38.51 5.08, 38.34 6.67, 38.57 11.23 M38.57 3.74 C38.47 5.77, 38.64 7.74, 38.57 11.23 M38.57 11.23 C38.44 14.2, 37.93 15.4, 34.82 14.98 M38.57 11.23 C39.47 14.1, 37.72 16.03, 34.82 14.98 M34.82 14.98 C27.09 15.8, 21.7 15.81, 3.74 14.98 M34.82 14.98 C26.24 14.39, 17.05 15.07, 3.74 14.98 M3.74 14.98 C1.5 15.67, 0.39 13.68, 0 11.23 M3.74 14.98 C1.85 14.63, 0.2 13.54, 0 11.23 M0 11.23 C-0.16 8.46, -0.01 5.37, 0 3.74 M0 11.23 C0.17 8.96, 0.06 6.68, 0 3.74 M0 3.74 C0.83 0.99, 1.89 0.69, 3.74 0 M0 3.74 C-0.44 2.38, 0.68 -0.01, 3.74 0" stroke="#343a40" stroke-width="2" fill="none"></path></g><g stroke-linecap="round" transform="translate(39.397448168828305 93.26932525150005) rotate(90.684351531919 13.974609375 10.47265625)"><path d="M5.24 0 C7.58 -2.59, 11.1 1.49, 22.71 0 C26.53 3.49, 29.97 4.32, 27.95 5.24 C26.64 7.43, 27.94 9.2, 27.95 15.71 C27.76 18.38, 25.49 19.58, 22.71 20.95 C16.01 18.13, 7.43 20.67, 5.24 20.95 C-0.7 17.51, -1.66 19.37, 0 15.71 C1.4 14.33, -1.44 10.08, 0 5.24 C-1.58 0.93, 2.67 -0.03, 5.24 0" stroke="none" stroke-width="0" fill="#d0bfff"></path><path d="M5.24 0 C10.7 -0.69, 19.64 0.16, 22.71 0 M5.24 0 C9.44 -0.01, 13.28 -0.47, 22.71 0 M22.71 0 C26.85 -0.6, 29.11 2.36, 27.95 5.24 M22.71 0 C25.83 -2.13, 25.74 -0.12, 27.95 5.24 M27.95 5.24 C27.4 7.16, 27.71 9.76, 27.95 15.71 M27.95 5.24 C28.1 7.15, 27.83 10.21, 27.95 15.71 M27.95 15.71 C29.16 20.05, 27.77 21.6, 22.71 20.95 M27.95 15.71 C28.76 21.31, 24.33 19.02, 22.71 20.95 M22.71 20.95 C19.55 22.76, 14.55 22.49, 5.24 20.95 M22.71 20.95 C19.02 21.12, 14.81 21.38, 5.24 20.95 M5.24 20.95 C2.52 20.84, 1.05 18.59, 0 15.71 M5.24 20.95 C2.15 20.58, 1.91 17.91, 0 15.71 M0 15.71 C-0.03 12.04, 0.1 8.83, 0 5.24 M0 15.71 C0.07 12.88, 0.35 9.85, 0 5.24 M0 5.24 C1.28 3.13, 0.98 1.97, 5.24 0 M0 5.24 C-1.14 1.73, 2.03 -1.88, 5.24 0" stroke="#1e1e1e" stroke-width="2" fill="none"></path></g><g stroke-linecap="round" transform="translate(27.748046875 41.5338000671818) rotate(90.684351531919 25.4296875 23.859375)"><path d="M27.1 0.26 C32.23 0.29, 39.01 3.71, 42.94 7.24 C46.88 10.78, 50.12 16.44, 50.68 21.46 C51.24 26.47, 49.46 32.94, 46.3 37.33 C43.14 41.71, 37 46.35, 31.73 47.76 C26.47 49.17, 19.59 47.94, 14.71 45.78 C9.83 43.61, 4.79 39.34, 2.44 34.76 C0.09 30.18, -0.9 23.45, 0.62 18.31 C2.13 13.17, 6.34 6.97, 11.55 3.92 C16.75 0.88, 28.13 0.38, 31.84 0.05 C35.54 -0.27, 34.17 1.56, 33.78 1.95 M35.64 1.14 C40.49 3.24, 46.92 9.48, 49.52 14.55 C52.12 19.62, 52.75 26.77, 51.24 31.55 C49.74 36.33, 45.47 40.51, 40.47 43.22 C35.47 45.92, 26.99 48.36, 21.25 47.79 C15.5 47.22, 9.52 43.75, 6.01 39.8 C2.49 35.84, 0.33 29.13, 0.16 24.04 C-0.02 18.95, 1.77 13.26, 4.95 9.27 C8.14 5.27, 13.77 1, 19.27 0.07 C24.77 -0.85, 34.98 3.24, 37.98 3.71 C40.97 4.18, 37.85 2.91, 37.24 2.9" stroke="none" stroke-width="0" fill="#d0bfff"></path><path d="M24.91 0.21 C30.18 0.06, 37.49 2.26, 41.65 5.57 C45.8 8.87, 48.92 14.89, 49.84 20.02 C50.76 25.15, 49.73 32, 47.16 36.35 C44.6 40.7, 39.67 44.62, 34.45 46.11 C29.23 47.61, 21.13 47.18, 15.83 45.32 C10.52 43.47, 5.19 39.33, 2.61 34.98 C0.02 30.63, -0.68 24.18, 0.31 19.23 C1.3 14.27, 3.79 8.42, 8.56 5.25 C13.32 2.09, 25.03 0.93, 28.93 0.22 C32.82 -0.48, 31.99 0.53, 31.92 1 M15.87 2.75 C20.68 0.44, 28.3 -0.13, 33.48 1.38 C38.67 2.88, 44.29 7.85, 46.96 11.79 C49.64 15.72, 50.32 20.34, 49.51 24.97 C48.71 29.59, 45.58 35.63, 42.11 39.53 C38.65 43.42, 33.76 47.76, 28.74 48.35 C23.73 48.95, 16.47 46.35, 12.01 43.08 C7.55 39.81, 3.35 33.91, 1.97 28.74 C0.59 23.57, 1.46 16.4, 3.73 12.06 C6 7.73, 13.62 4.12, 15.59 2.71 C17.55 1.3, 15.38 3.34, 15.54 3.59" stroke="#1e1e1e" stroke-width="2" fill="none"></path></g></svg>