<svg version="1.1" xmlns="http://www.w3.org/2000/svg" viewBox="0 0 105.26171875 129.23744184244413" width="105.26171875" height="129.23744184244413">
  <!-- svg-source:excalidraw -->
  
  <defs>
    <style class="style-fonts">
      @font-face {
        font-family: "Virgil";
        src: url("https://excalidraw.com/Virgil.woff2");
      }
      @font-face {
        font-family: "Cascadia";
        src: url("https://excalidraw.com/Cascadia.woff2");
      }
      @font-face {
        font-family: "Assistant";
        src: url("https://excalidraw.com/Assistant-Regular.woff2");
      }
    </style>
    
  </defs>
  <g stroke-linecap="round" transform="translate(10 26.67642993768176) rotate(0 42.630859375 38.322265625)"><path d="M19.16 0 C26.05 3.98, 41.38 4.01, 66.1 0 C78.49 2.84, 82.82 9.31, 85.26 19.16 C86.44 29.45, 86.94 34.55, 85.26 57.48 C87.16 69.17, 79.51 76.07, 66.1 76.64 C46.41 77.68, 29.85 75.58, 19.16 76.64 C6.55 75.82, -0.96 73.31, 0 57.48 C2.78 44.91, 2.1 36.67, 0 19.16 C-1.38 9.93, 4.61 -0.03, 19.16 0" stroke="none" stroke-width="0" fill="#fd7e14"></path><path d="M19.16 0 C35.57 -1.45, 54.46 1.41, 66.1 0 M19.16 0 C29.38 0.11, 39.41 0.84, 66.1 0 M66.1 0 C78.12 0.18, 83.33 7.39, 85.26 19.16 M66.1 0 C79.37 1.53, 86.54 5.76, 85.26 19.16 M85.26 19.16 C87.28 26.92, 84.81 36.39, 85.26 57.48 M85.26 19.16 C85.57 32.39, 85 42.85, 85.26 57.48 M85.26 57.48 C84.57 71.33, 79.88 76.75, 66.1 76.64 M85.26 57.48 C83.53 69.3, 80.64 77.78, 66.1 76.64 M66.1 76.64 C54.05 75.23, 38.63 76.1, 19.16 76.64 M66.1 76.64 C49.11 75.82, 34.17 76.2, 19.16 76.64 M19.16 76.64 C6.38 75.38, 0.64 69.66, 0 57.48 M19.16 76.64 C7.72 77.35, -0.37 68.13, 0 57.48 M0 57.48 C0.17 48.66, -0.72 41.18, 0 19.16 M0 57.48 C-0.47 46.57, 0.41 35.35, 0 19.16 M0 19.16 C-0.25 7.34, 7.6 0.85, 19.16 0 M0 19.16 C1.81 7.13, 7.2 2.11, 19.16 0" stroke="#1e1e1e" stroke-width="2" fill="none"></path></g><g stroke-linecap="round" transform="translate(33.66809980384164 104.26087934244414) rotate(0 19.283203125 7.48828125)"><path d="M3.74 0 C12.05 2.08, 17.64 1.68, 34.82 0 C35.56 2.11, 36.05 2.33, 38.57 3.74 C38.97 6.24, 39.1 8.53, 38.57 11.23 C39.02 13.31, 39.48 13.52, 34.82 14.98 C24.76 14.2, 15.22 14.48, 3.74 14.98 C0.55 17.18, 0.11 14.51, 0 11.23 C0.54 9.61, -0.46 7.6, 0 3.74 C-1.28 1.23, 1.57 -2.13, 3.74 0" stroke="none" stroke-width="0" fill="#868e96"></path><path d="M3.74 0 C11.71 0.67, 16.89 0.53, 34.82 0 M3.74 0 C13.51 0.42, 22.94 0.02, 34.82 0 M34.82 0 C36.35 0.5, 38.78 1.91, 38.57 3.74 M34.82 0 C37.96 -0.31, 37.63 1.52, 38.57 3.74 M38.57 3.74 C38.5 5.46, 38.67 7.29, 38.57 11.23 M38.57 3.74 C38.46 6.35, 38.5 9.36, 38.57 11.23 M38.57 11.23 C39.07 13.78, 36.56 14.56, 34.82 14.98 M38.57 11.23 C39.45 14.3, 37.04 15.54, 34.82 14.98 M34.82 14.98 C21.89 14.35, 10.95 14.83, 3.74 14.98 M34.82 14.98 C27.77 14.84, 20.51 14.58, 3.74 14.98 M3.74 14.98 C1.57 14.68, 0.58 14.04, 0 11.23 M3.74 14.98 C1.06 13.91, -1.11 12.8, 0 11.23 M0 11.23 C-0.19 9.47, -0.08 7.96, 0 3.74 M0 11.23 C0.09 9.39, 0 7.94, 0 3.74 M0 3.74 C0.61 1.67, 2.03 0.32, 3.74 0 M0 3.74 C0.41 2.3, 0.31 -0.96, 3.74 0" stroke="#1e1e1e" stroke-width="2" fill="none"></path></g><g stroke-linecap="round" transform="translate(33.85397219967513 12.113862296989183) rotate(0 19.283203125 7.48828125)"><path d="M3.74 0 C15.7 1.67, 26.44 1.73, 34.82 0 C34.8 1.08, 39.59 1.89, 38.57 3.74 C39.12 6.22, 38.77 9.12, 38.57 11.23 C40.73 12.27, 37.76 13.74, 34.82 14.98 C24.85 14.24, 13.94 17.05, 3.74 14.98 C1.35 15.75, 0.17 15.89, 0 11.23 C-0.44 10.14, -0.54 7.11, 0 3.74 C0.32 -0.88, -0.01 2.42, 3.74 0" stroke="none" stroke-width="0" fill="#868e96"></path><path d="M3.74 0 C9.41 0.31, 16.92 0.09, 34.82 0 M3.74 0 C13.39 -0.09, 22.93 0.11, 34.82 0 M34.82 0 C37.53 0.67, 39.12 0.97, 38.57 3.74 M34.82 0 C36.38 0.27, 37.61 2.36, 38.57 3.74 M38.57 3.74 C38.63 6.06, 38.81 7.78, 38.57 11.23 M38.57 3.74 C38.48 6.84, 38.64 9.74, 38.57 11.23 M38.57 11.23 C37.81 13.31, 38.09 15.47, 34.82 14.98 M38.57 11.23 C38.29 14.3, 38.36 15.5, 34.82 14.98 M34.82 14.98 C28.78 14.9, 21.19 13.98, 3.74 14.98 M34.82 14.98 C27.05 14.64, 19.45 14.81, 3.74 14.98 M3.74 14.98 C1.83 15.28, -0.16 12.8, 0 11.23 M3.74 14.98 C0.14 14.05, -0.95 13.65, 0 11.23 M0 11.23 C-0.06 9.35, -0.26 7.32, 0 3.74 M0 11.23 C-0.04 9.28, 0.1 7.23, 0 3.74 M0 3.74 C0.78 1.57, 1.6 0.92, 3.74 0 M0 3.74 C-0.94 0.28, 0.42 -1.08, 3.74 0" stroke="#343a40" stroke-width="2" fill="none"></path></g><g stroke-linecap="round" transform="translate(39.196555311685415 13.62604069808539) rotate(269.315648468081 13.974609375 10.47265625)"><path d="M5.24 0 C10 2.31, 15.98 1.06, 22.71 0 C27.62 0.89, 30.46 3.13, 27.95 5.24 C28.38 8.02, 29.61 10.35, 27.95 15.71 C28.57 17.49, 27.09 20.65, 22.71 20.95 C17.22 23.54, 13.53 21.81, 5.24 20.95 C1.97 23.93, -0.92 21.51, 0 15.71 C-0.86 11.83, 0.3 6.43, 0 5.24 C-1.74 5.1, 2.36 -2.35, 5.24 0" stroke="none" stroke-width="0" fill="#d0bfff"></path><path d="M5.24 0 C11.61 0.24, 17.86 0.21, 22.71 0 M5.24 0 C11.2 0.42, 19.04 0.57, 22.71 0 M22.71 0 C27.31 -0.55, 26.32 2.21, 27.95 5.24 M22.71 0 C24.3 2.21, 27.24 1.12, 27.95 5.24 M27.95 5.24 C28.68 8.64, 29.01 11.42, 27.95 15.71 M27.95 5.24 C28.18 7.58, 27.52 9.66, 27.95 15.71 M27.95 15.71 C29.48 20.19, 25.72 21.93, 22.71 20.95 M27.95 15.71 C30.04 20.24, 24.09 19.15, 22.71 20.95 M22.71 20.95 C17.1 19.33, 13.06 21.31, 5.24 20.95 M22.71 20.95 C17.95 20.57, 13.13 21.1, 5.24 20.95 M5.24 20.95 C1.42 19.1, -1.92 17.58, 0 15.71 M5.24 20.95 C-0.15 20.78, -1.16 18.02, 0 15.71 M0 15.71 C-0.76 12.42, -0.27 10.55, 0 5.24 M0 15.71 C0.33 13.68, 0.42 11.37, 0 5.24 M0 5.24 C0.71 3.58, 0.12 -1.68, 5.24 0 M0 5.24 C-1.65 -0.41, 3.9 1.08, 5.24 0" stroke="#1e1e1e" stroke-width="2" fill="none"></path></g><g stroke-linecap="round" transform="translate(27.73856026785711 38.74047213240182) rotate(269.315648468081 25.4296875 23.859375)"><path d="M14.74 1.65 C19.33 -0.49, 27.21 -0.48, 32.4 0.94 C37.58 2.36, 42.87 5.85, 45.87 10.18 C48.88 14.51, 51.05 21.78, 50.42 26.92 C49.8 32.06, 45.93 37.46, 42.11 41.02 C38.29 44.58, 32.72 47.81, 27.49 48.28 C22.27 48.75, 15.16 46.92, 10.75 43.84 C6.35 40.76, 2.23 35.05, 1.04 29.81 C-0.16 24.58, 1.16 17.25, 3.57 12.43 C5.98 7.6, 13.31 2.5, 15.49 0.86 C17.66 -0.77, 16.26 1.96, 16.63 2.61 M25.29 -1.42 C30.35 -1.71, 37.12 1.89, 41.34 5.38 C45.55 8.87, 49.35 14.64, 50.57 19.51 C51.8 24.38, 51.08 30.28, 48.68 34.59 C46.28 38.9, 41.25 43.38, 36.18 45.36 C31.11 47.33, 23.42 48, 18.28 46.44 C13.15 44.89, 8.34 40.4, 5.36 36.03 C2.39 31.67, -0.07 25.22, 0.44 20.26 C0.96 15.31, 4.58 9.67, 8.44 6.31 C12.29 2.95, 21.02 1.13, 23.57 0.1 C26.12 -0.93, 23.44 -0.29, 23.76 0.11" stroke="none" stroke-width="0" fill="#d0bfff"></path><path d="M27.54 -0.89 C32.66 -0.71, 39.79 3.23, 43.77 7.07 C47.75 10.91, 51.02 17.23, 51.41 22.15 C51.8 27.07, 49.26 32.6, 46.1 36.58 C42.94 40.56, 37.48 44.58, 32.44 46.03 C27.39 47.47, 20.87 47.2, 15.83 45.25 C10.79 43.31, 4.67 38.78, 2.2 34.35 C-0.27 29.92, -0.52 23.64, 1.01 18.65 C2.54 13.67, 6.09 7.51, 11.36 4.43 C16.64 1.35, 28.75 0.55, 32.64 0.16 C36.53 -0.23, 34.86 1.55, 34.68 2.11 M27.23 0.75 C32.54 0.8, 37.79 3.34, 41.9 6.72 C46.02 10.09, 51.3 16.26, 51.94 20.99 C52.58 25.73, 48.94 30.78, 45.74 35.14 C42.55 39.49, 37.72 45.47, 32.79 47.11 C27.85 48.76, 21.31 47.12, 16.13 45.02 C10.95 42.92, 4.25 38.85, 1.7 34.51 C-0.85 30.17, -0.49 23.99, 0.82 18.95 C2.14 13.91, 5.29 7.48, 9.58 4.25 C13.87 1.02, 23.66 0.11, 26.56 -0.44 C29.45 -0.99, 27.06 0.7, 26.93 0.94" stroke="#1e1e1e" stroke-width="2" fill="none"></path></g></svg>