<svg version="1.1" xmlns="http://www.w3.org/2000/svg" viewBox="0 0 117.68791852678555 127.12357954545405" width="117.68791852678555" height="127.12357954545405">
  <!-- svg-source:excalidraw -->
  
  <defs>
    <style class="style-fonts">
      @font-face {
        font-family: "Virgil";
        src: url("https://excalidraw.com/Virgil.woff2");
      }
      @font-face {
        font-family: "Cascadia";
        src: url("https://excalidraw.com/Cascadia.woff2");
      }
      @font-face {
        font-family: "Assistant";
        src: url("https://excalidraw.com/Assistant-Regular.woff2");
      }
    </style>
    
  </defs>
  <g stroke-linecap="round" transform="translate(10 24.562567640691668) rotate(0 42.630859375 38.322265625)"><path d="M19.16 0 C27.53 -0.8, 38.79 0.31, 66.1 0 C76.19 -1.75, 84.27 7.8, 85.26 19.16 C87.36 28.93, 88 36.82, 85.26 57.48 C86.53 73.56, 75.95 73.63, 66.1 76.64 C57.08 80.84, 44.31 80.28, 19.16 76.64 C3.95 79.57, -3.48 71.75, 0 57.48 C1.22 44.29, 1.72 30.37, 0 19.16 C0.63 5.81, 9.38 -2.02, 19.16 0" stroke="none" stroke-width="0" fill="#fd7e14"></path><path d="M19.16 0 C34.7 2.06, 45.12 0.02, 66.1 0 M19.16 0 C32.72 -0.3, 45.72 -1.02, 66.1 0 M66.1 0 C78.12 1.79, 85.13 7.78, 85.26 19.16 M66.1 0 C80.77 -0.53, 86.54 5.99, 85.26 19.16 M85.26 19.16 C87.14 28.85, 83.49 37.21, 85.26 57.48 M85.26 19.16 C85.49 32.01, 84.95 43.15, 85.26 57.48 M85.26 57.48 C83.33 71.26, 79.3 77.98, 66.1 76.64 M85.26 57.48 C86.54 69.63, 77 77.18, 66.1 76.64 M66.1 76.64 C55.37 76.97, 46.1 78.08, 19.16 76.64 M66.1 76.64 C48.25 76.33, 31.19 77.65, 19.16 76.64 M19.16 76.64 C7.39 76.75, -1.51 69.42, 0 57.48 M19.16 76.64 C8.15 77.78, -0.55 71.39, 0 57.48 M0 57.48 C-1.74 41.53, 0.67 27.53, 0 19.16 M0 57.48 C0.57 48.55, 0.35 39.21, 0 19.16 M0 19.16 C0.64 5.79, 7.54 0.61, 19.16 0 M0 19.16 C-0.37 4.26, 4.18 -1.86, 19.16 0" stroke="#1e1e1e" stroke-width="2" fill="none"></path></g><g stroke-linecap="round" transform="translate(33.66809980384164 102.14701704545405) rotate(0 19.283203125 7.48828125)"><path d="M3.74 0 C10.91 0.05, 17.31 -1.12, 34.82 0 C36.6 1.02, 36.36 0.93, 38.57 3.74 C39.39 6.66, 38.97 9.84, 38.57 11.23 C36.45 11.55, 35.45 12.54, 34.82 14.98 C22.31 17.41, 8.6 17.47, 3.74 14.98 C-1.27 16.06, 1.03 14.37, 0 11.23 C0.48 8.17, 0.13 5.54, 0 3.74 C2.16 -0.21, 1.69 -1.24, 3.74 0" stroke="none" stroke-width="0" fill="#868e96"></path><path d="M3.74 0 C11.49 -0.19, 21 -0.45, 34.82 0 M3.74 0 C13.8 -0.41, 24.36 0.47, 34.82 0 M34.82 0 C37.25 0.69, 39.39 1.02, 38.57 3.74 M34.82 0 C37.96 -0.2, 37.71 1.09, 38.57 3.74 M38.57 3.74 C38.28 5.46, 38.65 6.96, 38.57 11.23 M38.57 3.74 C38.5 6.13, 38.39 8.58, 38.57 11.23 M38.57 11.23 C38.78 14.39, 37.87 14.7, 34.82 14.98 M38.57 11.23 C37.63 14, 36.37 16.08, 34.82 14.98 M34.82 14.98 C26.65 15.8, 18.77 15.02, 3.74 14.98 M34.82 14.98 C22.24 15.12, 10.25 14.88, 3.74 14.98 M3.74 14.98 C0.49 14.56, 0.77 14.22, 0 11.23 M3.74 14.98 C0.97 15.54, 1.04 14.25, 0 11.23 M0 11.23 C0.19 9.67, -0.23 7.77, 0 3.74 M0 11.23 C-0.01 9.24, 0.05 7.43, 0 3.74 M0 3.74 C0.58 1.55, 1.09 -0.92, 3.74 0 M0 3.74 C-1.11 0.32, 0.3 -0.08, 3.74 0" stroke="#1e1e1e" stroke-width="2" fill="none"></path></g><g stroke-linecap="round" transform="translate(33.85397219967513 10) rotate(0 19.283203125 7.48828125)"><path d="M3.74 0 C10.07 -1.25, 19.56 1.04, 34.82 0 C35.11 -0.32, 39.8 2.83, 38.57 3.74 C38.99 7.2, 37.85 8.06, 38.57 11.23 C36.7 11.29, 39.75 16.2, 34.82 14.98 C20.8 17.41, 7.78 16.38, 3.74 14.98 C2.27 15.62, 1.81 14.73, 0 11.23 C0.12 8.87, 0.76 6.27, 0 3.74 C0.45 0.01, 1.89 -0.21, 3.74 0" stroke="none" stroke-width="0" fill="#868e96"></path><path d="M3.74 0 C16.02 -0.29, 28.85 -0.06, 34.82 0 M3.74 0 C12.46 0.58, 21.53 0.48, 34.82 0 M34.82 0 C38.14 -0.23, 39.12 1.08, 38.57 3.74 M34.82 0 C36.46 -0.16, 37.53 2.36, 38.57 3.74 M38.57 3.74 C38.58 6.45, 38.6 9.09, 38.57 11.23 M38.57 3.74 C38.37 6.76, 38.59 9.7, 38.57 11.23 M38.57 11.23 C39.12 13.45, 36.5 15.21, 34.82 14.98 M38.57 11.23 C37.61 14.84, 36.96 14.66, 34.82 14.98 M34.82 14.98 C25.45 15.11, 15.7 14.53, 3.74 14.98 M34.82 14.98 C28.18 15.09, 20.66 14.85, 3.74 14.98 M3.74 14.98 C2.02 15.47, -0.24 14.22, 0 11.23 M3.74 14.98 C2.29 15.5, -1.06 12.83, 0 11.23 M0 11.23 C-0.28 9, -0.2 7.55, 0 3.74 M0 11.23 C0.06 9.02, 0.11 6.97, 0 3.74 M0 3.74 C-0.16 0.32, 0.29 -0.81, 3.74 0 M0 3.74 C-0.95 1.17, 0.67 -0.59, 3.74 0" stroke="#343a40" stroke-width="2" fill="none"></path></g><g stroke-linecap="round" transform="translate(79.73869977678555 52.35810673701235) rotate(0 13.974609375 10.47265625)"><path d="M5.24 0 C9.56 1.39, 12.94 -0.24, 22.71 0 C27.92 2.19, 29.48 4.57, 27.95 5.24 C26.48 7.14, 26.66 10.43, 27.95 15.71 C31.32 20.89, 29.61 20.56, 22.71 20.95 C13.04 22.51, 10.71 21.98, 5.24 20.95 C4.25 22.33, -0.19 21.1, 0 15.71 C1.53 11.83, 0.29 9.16, 0 5.24 C0.89 1.46, 0.53 0.16, 5.24 0" stroke="none" stroke-width="0" fill="#d0bfff"></path><path d="M5.24 0 C11.01 -0.06, 15.35 -1.14, 22.71 0 M5.24 0 C8.92 0.45, 13.45 -0.36, 22.71 0 M22.71 0 C27.31 -0.34, 26.45 1.47, 27.95 5.24 M22.71 0 C24.14 2.22, 29.16 -0.23, 27.95 5.24 M27.95 5.24 C28.13 8.96, 28.9 11.95, 27.95 15.71 M27.95 5.24 C27.96 8.82, 28.14 11.57, 27.95 15.71 M27.95 15.71 C26.32 19.67, 24.55 22.87, 22.71 20.95 M27.95 15.71 C27.24 18.58, 26.75 21.39, 22.71 20.95 M22.71 20.95 C17.83 19.96, 8.1 20.34, 5.24 20.95 M22.71 20.95 C15.87 20.59, 11.02 21.39, 5.24 20.95 M5.24 20.95 C1.26 21.93, 1.82 20.1, 0 15.71 M5.24 20.95 C-0.37 19.15, -1.12 20.17, 0 15.71 M0 15.71 C-0.45 12.79, -0.05 9.42, 0 5.24 M0 15.71 C0.27 13.39, -0.12 10.27, 0 5.24 M0 5.24 C-1.92 0.13, 0.1 -0.14, 5.24 0 M0 5.24 C-1.16 0.56, 0.96 -0.51, 5.24 0" stroke="#1e1e1e" stroke-width="2" fill="none"></path></g><g stroke-linecap="round" transform="translate(29.939871651785552 38.31904423701235) rotate(0 25.4296875 23.859375)"><path d="M14.57 2.48 C19.07 -0.02, 25.59 -1.49, 30.73 -0.25 C35.87 0.99, 42.08 5.66, 45.41 9.93 C48.74 14.2, 51.06 20.25, 50.69 25.37 C50.32 30.49, 46.99 36.85, 43.2 40.65 C39.41 44.45, 33.2 47.67, 27.94 48.15 C22.68 48.64, 16.28 46.65, 11.64 43.56 C7 40.47, 1.82 34.63, 0.1 29.61 C-1.62 24.6, -2.02 18.4, 1.33 13.46 C4.68 8.53, 16.06 2.2, 20.21 -0.01 C24.36 -2.23, 26.16 -0.3, 26.22 0.17 M16.76 0.36 C21.56 -1.5, 28.16 0.01, 33.38 1.97 C38.59 3.92, 45 7.76, 48.06 12.08 C51.12 16.41, 52.63 22.76, 51.75 27.94 C50.86 33.11, 47.25 40.06, 42.76 43.15 C38.27 46.23, 30.52 46.8, 24.81 46.45 C19.09 46.11, 12.29 43.95, 8.47 41.09 C4.65 38.22, 2.56 34.06, 1.9 29.26 C1.24 24.45, 1.96 17.03, 4.53 12.26 C7.11 7.49, 15.18 2.56, 17.36 0.62 C19.53 -1.32, 17.52 -0.01, 17.58 0.63" stroke="none" stroke-width="0" fill="#d0bfff"></path><path d="M17.82 1.31 C22.85 -0.4, 30.09 0.44, 35.01 2.33 C39.93 4.22, 44.78 8.46, 47.32 12.65 C49.87 16.84, 51.24 22.66, 50.27 27.44 C49.29 32.23, 45.49 37.89, 41.48 41.36 C37.47 44.83, 31.76 48.07, 26.19 48.25 C20.62 48.42, 12.36 45.78, 8.07 42.41 C3.78 39.03, 1.2 33.07, 0.47 27.99 C-0.26 22.91, 0.28 16.56, 3.67 11.92 C7.06 7.29, 17.57 2.24, 20.82 0.19 C24.06 -1.86, 23.12 -0.87, 23.14 -0.38 M32.52 1.66 C37.17 3.27, 43.07 8.78, 46 13.04 C48.93 17.3, 50.67 22.36, 50.08 27.21 C49.49 32.07, 46.29 38.59, 42.44 42.18 C38.6 45.76, 32.53 48.46, 27.02 48.74 C21.52 49.02, 13.98 47.46, 9.42 43.87 C4.85 40.29, 0.74 32.34, -0.39 27.21 C-1.51 22.08, -0.23 17.33, 2.69 13.07 C5.6 8.81, 12.11 3.71, 17.1 1.65 C22.09 -0.41, 29.67 0.54, 32.61 0.68 C35.54 0.83, 34.73 1.9, 34.72 2.5" stroke="#1e1e1e" stroke-width="2" fill="none"></path></g></svg>