<svg version="1.1" xmlns="http://www.w3.org/2000/svg" viewBox="0 0 107.36794445733494 127.12357954545405" width="107.36794445733494" height="127.12357954545405">
  <!-- svg-source:excalidraw -->
  
  <defs>
    <style class="style-fonts">
      @font-face {
        font-family: "Virgil";
        src: url("https://excalidraw.com/Virgil.woff2");
      }
      @font-face {
        font-family: "Cascadia";
        src: url("https://excalidraw.com/Cascadia.woff2");
      }
      @font-face {
        font-family: "Assistant";
        src: url("https://excalidraw.com/Assistant-Regular.woff2");
      }
    </style>
    
  </defs>
  <g stroke-linecap="round" transform="translate(10 23.42417478354946) rotate(0 42.630859375 38.322265625)"><path d="M19.16 0 C29.78 3.08, 41.77 2.16, 66.1 0 C77.48 -2.94, 85.83 4.17, 85.26 19.16 C85.12 28.73, 84.6 38.57, 85.26 57.48 C87.97 73.07, 80.36 76.48, 66.1 76.64 C53.97 73.1, 45.06 76.71, 19.16 76.64 C4.38 75.81, -2.79 72.84, 0 57.48 C-1.04 42.78, 1.47 29.68, 0 19.16 C0.59 7.79, 8.9 2.07, 19.16 0" stroke="none" stroke-width="0" fill="#fd7e14"></path><path d="M19.16 0 C29.56 -1.85, 41.75 0.42, 66.1 0 M19.16 0 C33.03 0, 46.83 0.6, 66.1 0 M66.1 0 C78.55 -1.85, 83.34 4.77, 85.26 19.16 M66.1 0 C76.98 -0.16, 84.1 5.2, 85.26 19.16 M85.26 19.16 C83.69 28.39, 84.63 40.34, 85.26 57.48 M85.26 19.16 C85.82 27.83, 86 35.98, 85.26 57.48 M85.26 57.48 C85.97 72.09, 77.25 74.97, 66.1 76.64 M85.26 57.48 C83.61 68.1, 81.03 77.72, 66.1 76.64 M66.1 76.64 C46.22 78.64, 27.12 77.85, 19.16 76.64 M66.1 76.64 C50.55 76.92, 34.76 76.67, 19.16 76.64 M19.16 76.64 C6.74 76.33, 1.66 69.13, 0 57.48 M19.16 76.64 C6.78 75.55, 0.57 70.07, 0 57.48 M0 57.48 C-0.55 48.97, 0.06 37.67, 0 19.16 M0 57.48 C0.32 46.44, -0.7 34.99, 0 19.16 M0 19.16 C-0.99 6.37, 6.63 -1.64, 19.16 0 M0 19.16 C-1.11 8.53, 6.78 -1.5, 19.16 0" stroke="#1e1e1e" stroke-width="2" fill="none"></path></g><g stroke-linecap="round" transform="translate(33.868992660984986 102.14701704545405) rotate(0 19.283203125 7.48828125)"><path d="M3.74 0 C16.05 1.47, 24.44 -2.52, 34.82 0 C37.73 -1.6, 37.81 1.45, 38.57 3.74 C38.37 5.02, 39.29 7.8, 38.57 11.23 C39.64 13.61, 34.89 13.19, 34.82 14.98 C24.7 14.71, 15.53 13.99, 3.74 14.98 C-0.77 16.84, 1.62 11.68, 0 11.23 C0.29 9.19, 0.2 7.53, 0 3.74 C1.81 2.74, 1.31 1.47, 3.74 0" stroke="none" stroke-width="0" fill="#868e96"></path><path d="M3.74 0 C12.56 0.35, 22.27 0.14, 34.82 0 M3.74 0 C11.39 0.2, 18.38 -0.42, 34.82 0 M34.82 0 C36.36 -0.81, 37.74 1.18, 38.57 3.74 M34.82 0 C36.74 -0.59, 38.18 0.99, 38.57 3.74 M38.57 3.74 C38.44 6.11, 38.22 8.14, 38.57 11.23 M38.57 3.74 C38.74 6.41, 38.66 9.12, 38.57 11.23 M38.57 11.23 C37.75 12.89, 36.6 14.04, 34.82 14.98 M38.57 11.23 C39.64 14.27, 38.41 14.85, 34.82 14.98 M34.82 14.98 C22.08 15.52, 11.66 15.35, 3.74 14.98 M34.82 14.98 C23.6 14.82, 11.94 14.89, 3.74 14.98 M3.74 14.98 C2.08 14.41, 0.17 13.25, 0 11.23 M3.74 14.98 C1.53 14.88, -0.39 13.78, 0 11.23 M0 11.23 C0.03 9.27, 0.03 7.39, 0 3.74 M0 11.23 C-0.1 9.36, -0.12 7.12, 0 3.74 M0 3.74 C0.12 0.43, 0.76 0.93, 3.74 0 M0 3.74 C0.2 0.5, 0.32 -1.07, 3.74 0" stroke="#1e1e1e" stroke-width="2" fill="none"></path></g><g stroke-linecap="round" transform="translate(34.05486505681802 10) rotate(0 19.283203125 7.48828125)"><path d="M3.74 0 C15.07 -2.41, 28.83 -1.89, 34.82 0 C36.57 0.2, 36.48 1.11, 38.57 3.74 C39.28 6.58, 38.95 7.85, 38.57 11.23 C36.13 11.94, 36.98 13.21, 34.82 14.98 C27.01 14.39, 20.09 16.86, 3.74 14.98 C2.87 12.92, -0.72 12.58, 0 11.23 C0.13 9.54, 0.65 7.64, 0 3.74 C0.06 2.72, -0.75 -1.02, 3.74 0" stroke="none" stroke-width="0" fill="#868e96"></path><path d="M3.74 0 C10.08 -0.04, 16.01 0.29, 34.82 0 M3.74 0 C12.06 -0.51, 20.05 -0.45, 34.82 0 M34.82 0 C36.5 -0.07, 38.06 0.73, 38.57 3.74 M34.82 0 C36.93 -0.26, 38.53 0.39, 38.57 3.74 M38.57 3.74 C38.24 5.58, 38.73 7.74, 38.57 11.23 M38.57 3.74 C38.66 6.48, 38.44 8.72, 38.57 11.23 M38.57 11.23 C37.85 12.79, 38.25 15.45, 34.82 14.98 M38.57 11.23 C39.65 13.61, 38.23 14.2, 34.82 14.98 M34.82 14.98 C23.37 15.29, 11.82 15.43, 3.74 14.98 M34.82 14.98 C25.75 14.85, 16.92 14.65, 3.74 14.98 M3.74 14.98 C1.42 14.5, 0.25 13.65, 0 11.23 M3.74 14.98 C0.86 15.03, -0.26 13.42, 0 11.23 M0 11.23 C0.02 8.66, -0.1 5.71, 0 3.74 M0 11.23 C-0.08 8.47, 0.04 5.55, 0 3.74 M0 3.74 C-0.48 2.18, 1.42 -0.65, 3.74 0 M0 3.74 C-0.93 0.18, 1.81 0.1, 3.74 0" stroke="#343a40" stroke-width="2" fill="none"></path></g><g stroke-linecap="round" transform="translate(66.23235194657354 80.65939325744512) rotate(47.524435689906944 13.974609375 10.47265625)"><path d="M5.24 0 C12.23 -1.68, 17.31 0.5, 22.71 0 C23.32 -0.19, 27.13 1.03, 27.95 5.24 C28.87 7.89, 26.33 9.43, 27.95 15.71 C27.48 16.76, 22.77 19.29, 22.71 20.95 C14.95 23.13, 14.02 18.39, 5.24 20.95 C0.75 19.36, -0.81 20.13, 0 15.71 C1.28 13.66, 0.01 10.51, 0 5.24 C-2.77 0.33, 3.67 3.54, 5.24 0" stroke="none" stroke-width="0" fill="#d0bfff"></path><path d="M5.24 0 C9.74 0.56, 15.94 1.01, 22.71 0 M5.24 0 C10.17 -0.55, 16.07 0.1, 22.71 0 M22.71 0 C25.19 -1.03, 27.27 1.3, 27.95 5.24 M22.71 0 C26.13 -1.71, 26.83 1.11, 27.95 5.24 M27.95 5.24 C28.36 9.43, 28.3 13.17, 27.95 15.71 M27.95 5.24 C27.56 8.28, 27.61 11.71, 27.95 15.71 M27.95 15.71 C29.82 20.14, 28.1 20.73, 22.71 20.95 M27.95 15.71 C29.77 17.64, 28.07 18.72, 22.71 20.95 M22.71 20.95 C17.96 21.66, 10.68 21.91, 5.24 20.95 M22.71 20.95 C18.73 20.43, 13.44 20.5, 5.24 20.95 M5.24 20.95 C2.24 20.78, -0.67 19.29, 0 15.71 M5.24 20.95 C1.22 20.33, 1.95 19.29, 0 15.71 M0 15.71 C-0.27 12.92, 0.72 8.4, 0 5.24 M0 15.71 C0.12 11.11, -0.2 7.85, 0 5.24 M0 5.24 C0.34 0.44, 0.13 -1.86, 5.24 0 M0 5.24 C1.13 1.95, 3.98 1.29, 5.24 0" stroke="#1e1e1e" stroke-width="2" fill="none"></path></g><g stroke-linecap="round" transform="translate(28.403524648314487 38.00359175136873) rotate(47.524435689906944 25.4296875 23.859375)"><path d="M22.56 0.46 C27.72 -0.41, 35 1.9, 39.5 4.77 C44 7.65, 47.89 12.99, 49.55 17.69 C51.21 22.39, 51.42 28.46, 49.46 32.96 C47.5 37.46, 42.78 42.33, 37.79 44.7 C32.8 47.08, 25.12 48.37, 19.52 47.19 C13.92 46, 7.28 41.69, 4.19 37.59 C1.1 33.5, 0.62 27.76, 0.98 22.61 C1.33 17.45, 2.34 10.34, 6.31 6.65 C10.27 2.97, 21.01 1.32, 24.78 0.49 C28.55 -0.34, 28.68 1.23, 28.92 1.67 M19.62 0.01 C24.86 -1.46, 32.93 -0.71, 37.84 1.77 C42.75 4.26, 47.19 10.06, 49.08 14.94 C50.97 19.81, 50.75 25.94, 49.19 31.03 C47.62 36.11, 44.2 42.74, 39.69 45.46 C35.17 48.19, 27.91 48.52, 22.11 47.36 C16.3 46.2, 8.57 42.52, 4.86 38.51 C1.14 34.5, -0.08 28.35, -0.19 23.29 C-0.3 18.24, 0.75 12.13, 4.21 8.18 C7.68 4.23, 17.93 1.01, 20.61 -0.39 C23.29 -1.8, 20.04 -0.94, 20.29 -0.25" stroke="none" stroke-width="0" fill="#d0bfff"></path><path d="M31.76 0.03 C36.63 1.01, 42.7 5.55, 45.84 9.9 C48.99 14.24, 51.2 20.93, 50.62 26.09 C50.05 31.25, 46.38 37.26, 42.39 40.85 C38.41 44.44, 32.2 47.36, 26.72 47.64 C21.25 47.93, 13.91 45.51, 9.53 42.53 C5.15 39.56, 1.7 34.7, 0.42 29.79 C-0.86 24.88, -0.72 17.6, 1.84 13.06 C4.4 8.52, 10.11 4.29, 15.8 2.57 C21.49 0.86, 32.22 2.51, 35.98 2.76 C39.74 3, 38.43 3.94, 38.35 4.03 M16.48 2.77 C21.5 0.72, 28.65 -0.36, 33.85 0.76 C39.05 1.88, 44.68 5.47, 47.69 9.5 C50.71 13.52, 52.6 19.54, 51.94 24.89 C51.28 30.25, 47.78 37.64, 43.72 41.61 C39.66 45.58, 33.02 48.46, 27.58 48.7 C22.14 48.95, 15.41 46.34, 11.07 43.09 C6.73 39.83, 2.92 34.17, 1.55 29.18 C0.17 24.2, 0.37 17.83, 2.83 13.17 C5.3 8.51, 14.21 3.12, 16.33 1.22 C18.44 -0.67, 15.52 1.3, 15.54 1.79" stroke="#1e1e1e" stroke-width="2" fill="none"></path></g></svg>