<svg version="1.1" xmlns="http://www.w3.org/2000/svg" viewBox="0 0 108.08725249304916 127.12357954545405" width="108.08725249304916" height="127.12357954545405">
  <!-- svg-source:excalidraw -->
  
  <defs>
    <style class="style-fonts">
      @font-face {
        font-family: "Virgil";
        src: url("https://excalidraw.com/Virgil.woff2");
      }
      @font-face {
        font-family: "Cascadia";
        src: url("https://excalidraw.com/Cascadia.woff2");
      }
      @font-face {
        font-family: "Assistant";
        src: url("https://excalidraw.com/Assistant-Regular.woff2");
      }
    </style>
    
  </defs>
  <g stroke-linecap="round" transform="translate(12.825533743049164 24.85274621212102) rotate(0 42.630859375 38.322265625)"><path d="M19.16 0 C38.48 0.54, 57.46 1.04, 66.1 0 C78.69 1.9, 84.17 7.02, 85.26 19.16 C86.45 28.33, 86.73 40.64, 85.26 57.48 C84.05 70.42, 78.05 75.68, 66.1 76.64 C48.26 79.88, 29.05 79.2, 19.16 76.64 C8.88 75.26, 3.55 68.48, 0 57.48 C-1.83 49.37, 0.53 32.2, 0 19.16 C-2.91 3.04, 8.15 0.32, 19.16 0" stroke="none" stroke-width="0" fill="#fd7e14"></path><path d="M19.16 0 C35.86 -0.83, 49.15 -2.01, 66.1 0 M19.16 0 C36.15 -0.59, 51.21 -0.08, 66.1 0 M66.1 0 C77.22 1.93, 84.65 5.84, 85.26 19.16 M66.1 0 C79.42 0.44, 87.07 7.96, 85.26 19.16 M85.26 19.16 C84.08 30.01, 86.72 43.24, 85.26 57.48 M85.26 19.16 C85.74 31.35, 84.73 43.04, 85.26 57.48 M85.26 57.48 C87.08 71.16, 77.04 75.08, 66.1 76.64 M85.26 57.48 C84.14 71.23, 78.87 75.04, 66.1 76.64 M66.1 76.64 C56.13 76.73, 45.36 77.39, 19.16 76.64 M66.1 76.64 C53.26 75.86, 39.78 75.98, 19.16 76.64 M19.16 76.64 C4.74 76.5, -1.01 69.23, 0 57.48 M19.16 76.64 C5.61 76.13, -0.07 68.54, 0 57.48 M0 57.48 C-1.59 47.6, 1.06 39.42, 0 19.16 M0 57.48 C0.05 45.28, -1.11 30.4, 0 19.16 M0 19.16 C-1.44 4.51, 8.26 0.94, 19.16 0 M0 19.16 C2.18 6.14, 8.2 -1.56, 19.16 0" stroke="#1e1e1e" stroke-width="2" fill="none"></path></g><g stroke-linecap="round" transform="translate(36.694526404033695 102.14701704545405) rotate(0 19.283203125 7.48828125)"><path d="M3.74 0 C16.17 0.9, 24.84 1.27, 34.82 0 C36.53 0.46, 38.15 3.41, 38.57 3.74 C38.82 5.49, 38.26 7.44, 38.57 11.23 C37.97 13.03, 39.52 15.08, 34.82 14.98 C23.91 16.98, 16.12 14.31, 3.74 14.98 C3.81 13.69, -0.02 14.05, 0 11.23 C0.21 8.96, -0.74 7.06, 0 3.74 C1.28 1.48, 3.77 1.46, 3.74 0" stroke="none" stroke-width="0" fill="#868e96"></path><path d="M3.74 0 C13.65 -0.91, 23.88 0.27, 34.82 0 M3.74 0 C14.73 0.16, 26.11 0.52, 34.82 0 M34.82 0 C37.01 -0.27, 38.8 1.44, 38.57 3.74 M34.82 0 C38.22 0.78, 38.58 2.39, 38.57 3.74 M38.57 3.74 C38.74 5.76, 38.56 7.11, 38.57 11.23 M38.57 3.74 C38.55 5.77, 38.77 7.7, 38.57 11.23 M38.57 11.23 C37.65 12.95, 36.83 15.4, 34.82 14.98 M38.57 11.23 C38.56 12.93, 36.25 14.4, 34.82 14.98 M34.82 14.98 C24.21 15.3, 14.56 15.55, 3.74 14.98 M34.82 14.98 C24.07 14.43, 13.86 14.8, 3.74 14.98 M3.74 14.98 C0.74 14.46, -0.34 13.5, 0 11.23 M3.74 14.98 C1.21 14.12, -0.56 13.41, 0 11.23 M0 11.23 C0.21 8.92, 0.19 6.44, 0 3.74 M0 11.23 C-0.17 8.59, -0.15 6.08, 0 3.74 M0 3.74 C0.94 1.72, 2.19 -0.11, 3.74 0 M0 3.74 C0.91 0.47, 2.18 -1.11, 3.74 0" stroke="#1e1e1e" stroke-width="2" fill="none"></path></g><g stroke-linecap="round" transform="translate(36.88039879986718 10) rotate(0 19.283203125 7.48828125)"><path d="M3.74 0 C13.7 1.21, 23.14 0.3, 34.82 0 C36.9 2.16, 37.11 1.69, 38.57 3.74 C38.26 5.68, 38.37 7.26, 38.57 11.23 C40.77 13.83, 38.1 15.14, 34.82 14.98 C24.72 14.24, 13.58 13.95, 3.74 14.98 C1.23 15.29, -2.13 12.47, 0 11.23 C-0.8 7.38, 0.46 5.43, 0 3.74 C2.52 2.71, 3.11 -1.01, 3.74 0" stroke="none" stroke-width="0" fill="#868e96"></path><path d="M3.74 0 C12.4 0.36, 20.72 0.7, 34.82 0 M3.74 0 C11.8 0.45, 20.53 -0.17, 34.82 0 M34.82 0 C37.56 0.19, 39.35 1.93, 38.57 3.74 M34.82 0 C37.33 1.14, 37.92 0.35, 38.57 3.74 M38.57 3.74 C38.61 5.45, 38.43 8.01, 38.57 11.23 M38.57 3.74 C38.73 6.45, 38.39 8.83, 38.57 11.23 M38.57 11.23 C38.08 14.15, 37.32 14.28, 34.82 14.98 M38.57 11.23 C37.5 13.15, 37.56 14.85, 34.82 14.98 M34.82 14.98 C25.22 15.61, 16.51 14.86, 3.74 14.98 M34.82 14.98 C27.96 14.82, 21.67 14.59, 3.74 14.98 M3.74 14.98 C0.91 14.75, -0.03 12.98, 0 11.23 M3.74 14.98 C0.69 14.66, 0.45 12.75, 0 11.23 M0 11.23 C0.14 9.37, 0.1 7.06, 0 3.74 M0 11.23 C-0.1 8.12, 0.21 5.46, 0 3.74 M0 3.74 C0.95 1.14, 2.04 -0.68, 3.74 0 M0 3.74 C0.93 0.13, 1.73 0.45, 3.74 0" stroke="#343a40" stroke-width="2" fill="none"></path></g><g stroke-linecap="round" transform="translate(13.186373760761398 24.156708609438283) rotate(47.524435689906944 13.974609375 10.47265625)"><path d="M5.24 0 C10.2 0.39, 16.57 2.45, 22.71 0 C24.18 0.62, 26.24 2.64, 27.95 5.24 C27.45 7.79, 29.49 11.43, 27.95 15.71 C29.03 19.43, 29.19 20.03, 22.71 20.95 C19.45 19.27, 9.96 21.21, 5.24 20.95 C-1.2 19.2, 3.35 19.82, 0 15.71 C1.08 13.42, 1.98 11.85, 0 5.24 C2.57 0.35, -1.2 0.57, 5.24 0" stroke="none" stroke-width="0" fill="#d0bfff"></path><path d="M5.24 0 C9.95 0.93, 11.86 -1.46, 22.71 0 M5.24 0 C10.62 -0.41, 16.74 0, 22.71 0 M22.71 0 C27.78 1.36, 27.97 3.73, 27.95 5.24 M22.71 0 C24.91 -1.8, 27.16 2.98, 27.95 5.24 M27.95 5.24 C27.52 9.71, 28.47 12.32, 27.95 15.71 M27.95 5.24 C27.56 8.48, 27.79 12.77, 27.95 15.71 M27.95 15.71 C27.95 17.8, 24.35 19.94, 22.71 20.95 M27.95 15.71 C28.43 18.94, 26.19 19.49, 22.71 20.95 M22.71 20.95 C17.44 20.76, 9.49 19.37, 5.24 20.95 M22.71 20.95 C18.44 20.48, 14.76 20.74, 5.24 20.95 M5.24 20.95 C1.68 19.45, -0.97 18.65, 0 15.71 M5.24 20.95 C2.65 18.99, -0.28 20.29, 0 15.71 M0 15.71 C0.3 12.3, 0.91 7.3, 0 5.24 M0 15.71 C0.57 13.69, 0.57 11.13, 0 5.24 M0 5.24 C1.58 0.39, 3.37 -1.94, 5.24 0 M0 5.24 C0.96 2.65, 2.31 1.6, 5.24 0" stroke="#1e1e1e" stroke-width="2" fill="none"></path></g><g stroke-linecap="round" transform="translate(28.10504480902 38.92300118694311) rotate(47.524435689906944 25.4296875 23.859375)"><path d="M30.88 1.07 C36.23 1.87, 42.31 5.77, 45.69 9.72 C49.08 13.66, 51.22 19.9, 51.18 24.74 C51.14 29.59, 49.25 35.12, 45.46 38.79 C41.67 42.45, 34.14 45.66, 28.45 46.72 C22.75 47.79, 15.73 47.56, 11.29 45.19 C6.85 42.81, 3.43 37.33, 1.81 32.47 C0.2 27.6, -0.16 20.78, 1.63 15.99 C3.41 11.21, 7.52 6.18, 12.53 3.75 C17.55 1.32, 27.95 1.63, 31.71 1.41 C35.48 1.18, 34.95 2.03, 35.1 2.41 M25.03 -0.23 C30.27 -0.73, 38.24 1.24, 42.51 4.34 C46.77 7.45, 49.67 13.26, 50.61 18.39 C51.55 23.52, 50.88 30.5, 48.15 35.12 C45.42 39.75, 39.43 44.3, 34.25 46.13 C29.06 47.95, 21.89 47.71, 17.02 46.08 C12.15 44.46, 7.73 40.66, 5.02 36.39 C2.31 32.11, -0.07 25.56, 0.73 20.43 C1.53 15.3, 5.66 8.84, 9.82 5.61 C13.99 2.38, 23.33 1.65, 25.72 1.05 C28.12 0.44, 24.47 1.74, 24.2 1.96" stroke="none" stroke-width="0" fill="#d0bfff"></path><path d="M16.33 1.64 C20.87 -0.38, 27.37 -0.41, 32.46 1.24 C37.55 2.89, 43.72 7.31, 46.87 11.54 C50.03 15.78, 51.87 21.79, 51.37 26.65 C50.87 31.5, 48.08 37.21, 43.87 40.65 C39.66 44.1, 31.63 46.86, 26.12 47.33 C20.6 47.81, 15.01 46.62, 10.77 43.5 C6.54 40.37, 2.15 33.53, 0.73 28.6 C-0.68 23.67, -0.76 18.57, 2.29 13.91 C5.34 9.26, 15.67 2.7, 19.02 0.66 C22.37 -1.39, 22.27 1.35, 22.37 1.62 M15.73 0.76 C20.28 -1.61, 26.48 -1.33, 31.73 0.36 C36.97 2.06, 44.06 6.62, 47.21 10.9 C50.36 15.18, 51.32 21.04, 50.63 26.06 C49.94 31.08, 46.94 37.34, 43.06 41.03 C39.19 44.71, 32.93 48.1, 27.37 48.16 C21.8 48.22, 14.38 44.78, 9.68 41.38 C4.97 37.98, 0.49 32.55, -0.85 27.77 C-2.18 22.99, -0.98 17.16, 1.66 12.7 C4.29 8.25, 12.68 2.83, 14.97 1.03 C17.27 -0.77, 15.14 1.6, 15.42 1.91" stroke="#1e1e1e" stroke-width="2" fill="none"></path></g></svg>