<svg version="1.1" xmlns="http://www.w3.org/2000/svg" viewBox="0 0 106.9432792787634 127.12357954545405" width="106.9432792787634" height="127.12357954545405">
  <!-- svg-source:excalidraw -->
  
  <defs>
    <style class="style-fonts">
      @font-face {
        font-family: "Virgil";
        src: url("https://excalidraw.com/Virgil.woff2");
      }
      @font-face {
        font-family: "Cascadia";
        src: url("https://excalidraw.com/Cascadia.woff2");
      }
      @font-face {
        font-family: "Assistant";
        src: url("https://excalidraw.com/Assistant-Regular.woff2");
      }
    </style>
    
  </defs>
  <g stroke-linecap="round" transform="translate(11.681560528763402 24.85274621212011) rotate(0 42.630859375 38.322265625)"><path d="M19.16 0 C32.31 0.36, 45.4 2.27, 66.1 0 C77.96 2.31, 87.75 5, 85.26 19.16 C85.36 31.49, 83.18 53.06, 85.26 57.48 C85.88 67.91, 75.97 73.29, 66.1 76.64 C51.74 80.04, 31.94 74.52, 19.16 76.64 C6.96 74.43, -1.04 70.53, 0 57.48 C-0.68 47.69, 2.75 43.44, 0 19.16 C1.48 6.22, 3.02 -2.47, 19.16 0" stroke="none" stroke-width="0" fill="#fd7e14"></path><path d="M19.16 0 C38.93 -1.13, 53.16 -0.69, 66.1 0 M19.16 0 C35.01 -0.44, 53.13 0.47, 66.1 0 M66.1 0 C78.39 0.99, 87.08 7.29, 85.26 19.16 M66.1 0 C76.76 -1.8, 84.14 7.36, 85.26 19.16 M85.26 19.16 C83.99 31.07, 84.77 42.13, 85.26 57.48 M85.26 19.16 C85.96 28.54, 85.22 36.38, 85.26 57.48 M85.26 57.48 C83.34 68.64, 77.23 76.5, 66.1 76.64 M85.26 57.48 C84.1 69.08, 78.09 76.13, 66.1 76.64 M66.1 76.64 C51.62 77.2, 36.54 76.17, 19.16 76.64 M66.1 76.64 C50.57 77.17, 33.82 77.76, 19.16 76.64 M19.16 76.64 C4.76 74.97, -1.44 68.38, 0 57.48 M19.16 76.64 C8.54 77.72, 2.18 70.01, 0 57.48 M0 57.48 C-1.68 43.79, 1.05 28.93, 0 19.16 M0 57.48 C0.38 43.02, 0.03 28.99, 0 19.16 M0 19.16 C1.66 5.26, 6.73 -0.95, 19.16 0 M0 19.16 C0.57 6.2, 5.61 0.1, 19.16 0" stroke="#1e1e1e" stroke-width="2" fill="none"></path></g><g stroke-linecap="round" transform="translate(35.550553189748385 102.14701704545405) rotate(0 19.283203125 7.48828125)"><path d="M3.74 0 C15.87 2.04, 27 1.54, 34.82 0 C39.12 -1, 41.13 -0.04, 38.57 3.74 C38.11 6.89, 38.74 7.59, 38.57 11.23 C36.47 11.31, 38.59 15.21, 34.82 14.98 C21.48 13.14, 10.56 13.67, 3.74 14.98 C0.5 15.18, -2.08 13.59, 0 11.23 C0.75 9.92, 0.42 7.04, 0 3.74 C-2.43 -0.54, 0.91 -1.76, 3.74 0" stroke="none" stroke-width="0" fill="#868e96"></path><path d="M3.74 0 C12.31 -0.26, 22.99 0.59, 34.82 0 M3.74 0 C13.61 0.31, 22.59 0.31, 34.82 0 M34.82 0 C38.23 0.45, 37.65 0.47, 38.57 3.74 M34.82 0 C36.76 0.49, 38.56 0.45, 38.57 3.74 M38.57 3.74 C38.5 5.3, 38.31 6.97, 38.57 11.23 M38.57 3.74 C38.56 5.59, 38.41 7.64, 38.57 11.23 M38.57 11.23 C37.74 13.66, 36.81 14.46, 34.82 14.98 M38.57 11.23 C38.18 13.47, 37.28 14.12, 34.82 14.98 M34.82 14.98 C26.16 14.91, 19.66 15.65, 3.74 14.98 M34.82 14.98 C24.36 15.49, 13.13 14.61, 3.74 14.98 M3.74 14.98 C0.53 14.04, 0.94 14.2, 0 11.23 M3.74 14.98 C2.34 14.85, 0.91 12.95, 0 11.23 M0 11.23 C0.18 8.47, 0.3 5.67, 0 3.74 M0 11.23 C0.01 9, 0.14 6.71, 0 3.74 M0 3.74 C0.17 0.77, 1.5 -0.08, 3.74 0 M0 3.74 C-0.39 1.3, 0.98 -0.31, 3.74 0" stroke="#1e1e1e" stroke-width="2" fill="none"></path></g><g stroke-linecap="round" transform="translate(35.736425585581415 10) rotate(0 19.283203125 7.48828125)"><path d="M3.74 0 C13.34 1.33, 26.05 -1.34, 34.82 0 C39.88 -1.28, 38.55 1.57, 38.57 3.74 C38.69 4.74, 37.73 6.11, 38.57 11.23 C39.84 13.96, 39.84 16.44, 34.82 14.98 C23.69 13.05, 10.98 14.85, 3.74 14.98 C-0.84 14.84, -0.59 13.21, 0 11.23 C0.33 9.23, -0.98 6.64, 0 3.74 C-0.34 -0.52, -1.23 -1.2, 3.74 0" stroke="none" stroke-width="0" fill="#868e96"></path><path d="M3.74 0 C11.85 0.56, 18.93 -0.7, 34.82 0 M3.74 0 C11.65 0.17, 20.26 0.15, 34.82 0 M34.82 0 C36.4 -0.78, 38.08 1.67, 38.57 3.74 M34.82 0 C37.32 -0.8, 37.5 0.67, 38.57 3.74 M38.57 3.74 C38.33 6.27, 38.45 8.77, 38.57 11.23 M38.57 3.74 C38.38 6.07, 38.41 8.68, 38.57 11.23 M38.57 11.23 C38.06 13.21, 36.98 14.75, 34.82 14.98 M38.57 11.23 C38.53 12.87, 36.76 14.66, 34.82 14.98 M34.82 14.98 C24.75 15.56, 14.15 15.74, 3.74 14.98 M34.82 14.98 C24.08 14.7, 13.8 14.65, 3.74 14.98 M3.74 14.98 C2.18 15.45, 0.95 13.62, 0 11.23 M3.74 14.98 C2.16 14.2, 0.93 12.62, 0 11.23 M0 11.23 C0.25 8.82, -0.03 6.31, 0 3.74 M0 11.23 C0.15 9.11, 0.03 7.1, 0 3.74 M0 3.74 C0.25 1.17, 0.91 0.04, 3.74 0 M0 3.74 C-0.26 0.94, 2.22 0.05, 3.74 0" stroke="#343a40" stroke-width="2" fill="none"></path></g><g stroke-linecap="round" transform="translate(13.186373760761416 77.90604504315706) rotate(312.47556431009303 13.974609375000004 10.47265625)"><path d="M5.24 0 C14.11 -1.41, 21.72 -1.75, 22.71 0 C26.18 0.44, 25 0, 27.95 5.24 C26.46 7.6, 28.91 13.64, 27.95 15.71 C31.44 21.22, 28.78 19.55, 22.71 20.95 C17.99 20.99, 12.56 20.58, 5.24 20.95 C0.93 20.23, -1.37 21.91, 0 15.71 C-1.84 10.45, -0.32 6.51, 0 5.24 C-3.44 0.09, 1.92 -2.01, 5.24 0" stroke="none" stroke-width="0" fill="#d0bfff"></path><path d="M5.24 0 C9.97 -1.41, 13.79 1.25, 22.71 0 M5.24 0 C12.14 0.31, 16.65 -0.77, 22.71 0 M22.71 0 C25.23 0.85, 27.95 0.35, 27.95 5.24 M22.71 0 C24.08 -1.15, 28.43 1.48, 27.95 5.24 M27.95 5.24 C27.57 8.98, 28.2 11.34, 27.95 15.71 M27.95 5.24 C27.42 7.37, 27.58 9.32, 27.95 15.71 M27.95 15.71 C27.27 18.75, 26.14 19.45, 22.71 20.95 M27.95 15.71 C26.83 18.57, 27.11 18.99, 22.71 20.95 M22.71 20.95 C18.43 22.42, 13.23 21.67, 5.24 20.95 M22.71 20.95 C15.24 19.98, 9.84 21.21, 5.24 20.95 M5.24 20.95 C3.64 20.73, 1.58 17.85, 0 15.71 M5.24 20.95 C3.61 18.72, 0.96 20.11, 0 15.71 M0 15.71 C-0.13 12.86, -0.39 9.09, 0 5.24 M0 15.71 C0 12.49, 0.04 9.72, 0 5.24 M0 5.24 C-0.67 1.83, 1.29 -0.54, 5.24 0 M0 5.24 C1.95 1.84, 2.43 0.15, 5.24 0" stroke="#1e1e1e" stroke-width="2" fill="none"></path></g><g stroke-linecap="round" transform="translate(28.105044809020473 37.022564965653146) rotate(312.47556431009303 25.429687500000007 23.859375)"><path d="M35.87 2.19 C41.03 3.82, 46.46 8.9, 48.84 13.51 C51.21 18.13, 51.55 24.92, 50.13 29.86 C48.71 34.8, 44.72 40.05, 40.33 43.16 C35.95 46.27, 29.3 48.8, 23.82 48.51 C18.34 48.22, 11.46 45, 7.44 41.4 C3.42 37.8, 0.26 32.06, -0.3 26.9 C-0.86 21.74, 1.01 14.79, 4.09 10.43 C7.16 6.08, 12.65 1.91, 18.15 0.78 C23.65 -0.35, 33.63 3.02, 37.09 3.64 C40.55 4.25, 39.07 4.13, 38.93 4.48 M21.62 1.67 C26.43 0.58, 33.72 1.46, 38.43 3.77 C43.14 6.08, 48.27 10.42, 49.89 15.54 C51.51 20.65, 50.25 29.71, 48.16 34.47 C46.07 39.22, 42.27 42.2, 37.35 44.08 C32.42 45.96, 23.86 46.68, 18.63 45.74 C13.39 44.8, 8.79 42.15, 5.94 38.45 C3.08 34.76, 1.17 28.8, 1.48 23.58 C1.8 18.35, 4.57 10.95, 7.82 7.1 C11.06 3.24, 18.72 1.57, 20.98 0.43 C23.23 -0.71, 21.07 0.08, 21.34 0.23" stroke="none" stroke-width="0" fill="#d0bfff"></path><path d="M35.44 2.64 C40.36 4.07, 45.99 7.45, 48.33 11.73 C50.68 16.02, 50.66 23.17, 49.52 28.33 C48.39 33.48, 45.79 39.58, 41.51 42.66 C37.23 45.73, 29.45 46.92, 23.85 46.78 C18.25 46.64, 11.87 45.07, 7.92 41.8 C3.96 38.54, 0.92 32.22, 0.13 27.18 C-0.65 22.14, 0.37 15.78, 3.23 11.54 C6.09 7.3, 11.65 3.29, 17.27 1.75 C22.89 0.21, 33.65 2.12, 36.95 2.28 C40.26 2.45, 37.47 2.47, 37.1 2.72 M24.02 -0.32 C29.3 -0.85, 36.77 0.8, 41.03 3.94 C45.29 7.07, 48.33 13.5, 49.57 18.48 C50.82 23.45, 50.94 29.08, 48.48 33.78 C46.01 38.48, 39.78 44.46, 34.78 46.69 C29.78 48.93, 23.45 48.81, 18.49 47.19 C13.53 45.57, 8 41.21, 5.05 37 C2.09 32.79, 0.42 27.27, 0.78 21.92 C1.13 16.57, 3.41 8.76, 7.19 4.88 C10.97 0.99, 20.33 -0.78, 23.46 -1.39 C26.58 -2.01, 25.52 0.59, 25.96 1.19" stroke="#1e1e1e" stroke-width="2" fill="none"></path></g></svg>