<svg version="1.1" xmlns="http://www.w3.org/2000/svg" viewBox="0 0 116.80622209821377 127.12357954545405" width="116.80622209821377" height="127.12357954545405">
  <!-- svg-source:excalidraw -->
  
  <defs>
    <style class="style-fonts">
      @font-face {
        font-family: "Virgil";
        src: url("https://excalidraw.com/Virgil.woff2");
      }
      @font-face {
        font-family: "Cascadia";
        src: url("https://excalidraw.com/Cascadia.woff2");
      }
      @font-face {
        font-family: "Assistant";
        src: url("https://excalidraw.com/Assistant-Regular.woff2");
      }
    </style>
    
  </defs>
  <g stroke-linecap="round" transform="translate(21.544503348213766 24.85274621212011) rotate(0 42.630859375 38.322265625)"><path d="M19.16 0 C31.48 0.86, 45.46 1.18, 66.1 0 C78.68 2.7, 83.16 7.37, 85.26 19.16 C85.96 33.97, 87.66 47.67, 85.26 57.48 C88.57 72.69, 77.47 74.38, 66.1 76.64 C47.06 79.01, 29 75.39, 19.16 76.64 C5.68 77.06, 1.15 68.81, 0 57.48 C3.33 50.77, 1.06 37.49, 0 19.16 C-0.1 7.94, 3.35 0.92, 19.16 0" stroke="none" stroke-width="0" fill="#e64980"></path><path d="M19.16 0 C33.91 -0.14, 47.54 -0.49, 66.1 0 M19.16 0 C36.65 -0.04, 52.6 0.83, 66.1 0 M66.1 0 C78.74 0.07, 86.21 5.43, 85.26 19.16 M66.1 0 C77.99 0.4, 83.97 8.32, 85.26 19.16 M85.26 19.16 C85.03 29.49, 83.25 36.6, 85.26 57.48 M85.26 19.16 C84.88 27.43, 85.73 35.11, 85.26 57.48 M85.26 57.48 C84.82 68.37, 78.14 76.1, 66.1 76.64 M85.26 57.48 C86.84 72.14, 76.78 76.25, 66.1 76.64 M66.1 76.64 C51.31 75.45, 31.99 75.32, 19.16 76.64 M66.1 76.64 C49.6 77.23, 34.33 75.88, 19.16 76.64 M19.16 76.64 C6.11 76.25, -1.38 70.84, 0 57.48 M19.16 76.64 C7.92 74.91, 1.9 68.29, 0 57.48 M0 57.48 C-0.65 44.12, -1.33 32.2, 0 19.16 M0 57.48 C0.24 45.84, -0.6 35.78, 0 19.16 M0 19.16 C0.85 8.17, 7.78 -0.33, 19.16 0 M0 19.16 C-1.72 5.33, 7.35 -0.53, 19.16 0" stroke="#1e1e1e" stroke-width="2" fill="none"></path></g><g stroke-linecap="round" transform="translate(45.41349600919875 102.14701704545405) rotate(0 19.283203125 7.48828125)"><path d="M3.74 0 C11.31 0.85, 23.39 1.84, 34.82 0 C35.8 0.71, 40.35 2.66, 38.57 3.74 C39.12 5.56, 39.47 7.91, 38.57 11.23 C37.55 12.09, 39.32 14.93, 34.82 14.98 C23.02 14.05, 13.17 15.51, 3.74 14.98 C2.08 13.93, -1.4 14.14, 0 11.23 C0.22 7.95, -0.12 5.7, 0 3.74 C-2.2 1.91, 3.55 -0.43, 3.74 0" stroke="none" stroke-width="0" fill="#868e96"></path><path d="M3.74 0 C12.85 -0.3, 21.08 0.62, 34.82 0 M3.74 0 C12.33 0.4, 21.74 0.03, 34.82 0 M34.82 0 C37.79 -0.48, 38.18 1.42, 38.57 3.74 M34.82 0 C36.67 0.97, 37.95 0.21, 38.57 3.74 M38.57 3.74 C38.26 6.34, 38.22 9.63, 38.57 11.23 M38.57 3.74 C38.6 6.27, 38.5 8.56, 38.57 11.23 M38.57 11.23 C38.2 13.46, 38 15.79, 34.82 14.98 M38.57 11.23 C37.52 13.53, 37.87 14.9, 34.82 14.98 M34.82 14.98 C24.23 14.18, 15.57 14.34, 3.74 14.98 M34.82 14.98 C24.95 14.59, 14.21 14.95, 3.74 14.98 M3.74 14.98 C0.56 15.27, 0.67 12.97, 0 11.23 M3.74 14.98 C2.2 13.99, 0.27 12.65, 0 11.23 M0 11.23 C-0.3 9.58, -0.06 8.24, 0 3.74 M0 11.23 C-0.1 8.18, 0.06 5.41, 0 3.74 M0 3.74 C0.7 1.08, 0.5 -0.46, 3.74 0 M0 3.74 C0.48 0.98, 1.42 -0.22, 3.74 0" stroke="#1e1e1e" stroke-width="2" fill="none"></path></g><g stroke-linecap="round" transform="translate(45.59936840503178 10) rotate(0 19.283203125 7.48828125)"><path d="M3.74 0 C13.8 1.8, 22.63 0.56, 34.82 0 C39.11 1.41, 36.86 1.48, 38.57 3.74 C39.51 6.79, 38.24 7.91, 38.57 11.23 C40.57 13.68, 38.36 14.01, 34.82 14.98 C23.24 15.1, 13.51 13.75, 3.74 14.98 C-0.15 15.39, 2.53 16.21, 0 11.23 C-0.06 8.84, -0.85 5.86, 0 3.74 C2.3 0.82, 1.5 0.19, 3.74 0" stroke="none" stroke-width="0" fill="#868e96"></path><path d="M3.74 0 C13.27 0.65, 21.38 0.39, 34.82 0 M3.74 0 C12.78 -0.1, 22.12 -0.36, 34.82 0 M34.82 0 C36.93 0.17, 38.01 2.09, 38.57 3.74 M34.82 0 C36.7 -1.04, 39.51 1.31, 38.57 3.74 M38.57 3.74 C38.18 6.5, 38.66 8.7, 38.57 11.23 M38.57 3.74 C38.54 6.09, 38.51 8.73, 38.57 11.23 M38.57 11.23 C39.25 14.55, 36.41 14.8, 34.82 14.98 M38.57 11.23 C39.12 13.65, 37.52 15.86, 34.82 14.98 M34.82 14.98 C27.94 14.33, 20.43 14.65, 3.74 14.98 M34.82 14.98 C24.05 14.74, 13.07 14.98, 3.74 14.98 M3.74 14.98 C1.91 14.22, 0.83 12.87, 0 11.23 M3.74 14.98 C1.52 13.9, -1.05 13.15, 0 11.23 M0 11.23 C-0.05 9.48, 0.41 7.61, 0 3.74 M0 11.23 C0.1 9.87, 0.15 8.14, 0 3.74 M0 3.74 C-0.75 0.79, 1.67 -0.23, 3.74 0 M0 3.74 C0.17 1.03, 1.46 -0.78, 3.74 0" stroke="#343a40" stroke-width="2" fill="none"></path></g><g stroke-linecap="round" transform="translate(10 53.475852272726115) rotate(0 13.974609375 10.47265625)"><path d="M5.24 0 C9.29 0.63, 19.18 1.47, 22.71 0 C23.84 0.32, 28.62 3.77, 27.95 5.24 C27.39 7.26, 29.57 11.63, 27.95 15.71 C29.4 17.86, 28.23 19.24, 22.71 20.95 C19.25 19.71, 12.09 21.48, 5.24 20.95 C5.25 24.39, 2.72 20.37, 0 15.71 C-1.59 13.38, 1.67 9.77, 0 5.24 C0.35 2, 1.2 3.25, 5.24 0" stroke="none" stroke-width="0" fill="#eaddd7"></path><path d="M5.24 0 C9.75 0.5, 14.46 -1.59, 22.71 0 M5.24 0 C12.26 -0.42, 18.11 0.15, 22.71 0 M22.71 0 C25.08 1.68, 26.87 -0.06, 27.95 5.24 M22.71 0 C28.08 0.13, 28.98 -0.17, 27.95 5.24 M27.95 5.24 C28.2 7.05, 28.23 10.33, 27.95 15.71 M27.95 5.24 C27.73 8.38, 28.29 12.24, 27.95 15.71 M27.95 15.71 C26.13 18.86, 27.16 20.81, 22.71 20.95 M27.95 15.71 C28.35 20.97, 24.74 19.27, 22.71 20.95 M22.71 20.95 C19.23 20.48, 15.46 22.25, 5.24 20.95 M22.71 20.95 C18.45 21.16, 15.98 20.25, 5.24 20.95 M5.24 20.95 C3.4 19.23, 0.47 17.33, 0 15.71 M5.24 20.95 C-0.35 19.79, -1.11 17.26, 0 15.71 M0 15.71 C1.07 13.22, -0.98 9.45, 0 5.24 M0 15.71 C0.32 12.83, -0.44 9.88, 0 5.24 M0 5.24 C0.84 1.28, 2.04 -0.38, 5.24 0 M0 5.24 C0.42 0.18, 2.39 -2.06, 5.24 0" stroke="#1e1e1e" stroke-width="2" fill="none"></path></g><g stroke-linecap="round" transform="translate(36.888671875 39.436789772726115) rotate(0 25.4296875 23.859375)"><path d="M13.42 2.18 C17.98 -0.08, 25.76 -0.27, 31.35 1.07 C36.95 2.4, 43.91 6.21, 46.99 10.2 C50.07 14.2, 50.44 19.93, 49.84 25.04 C49.25 30.15, 46.88 36.97, 43.4 40.84 C39.93 44.72, 34.39 47.94, 29 48.28 C23.61 48.63, 15.81 45.8, 11.06 42.9 C6.32 40, 2.05 35.64, 0.53 30.87 C-0.98 26.11, -0.46 19.1, 1.96 14.32 C4.38 9.53, 12.76 4.18, 15.06 2.18 C17.36 0.18, 15.7 1.94, 15.75 2.34 M25.14 1.04 C30.26 0.58, 37.83 1.13, 42.05 4.18 C46.27 7.23, 49.38 14.16, 50.48 19.35 C51.57 24.54, 51.02 30.7, 48.63 35.32 C46.25 39.94, 41.46 45.36, 36.16 47.06 C30.85 48.77, 22.01 47.34, 16.81 45.55 C11.6 43.76, 7.57 40.62, 4.92 36.33 C2.27 32.03, 0.13 24.98, 0.88 19.81 C1.62 14.63, 5.53 8.65, 9.4 5.3 C13.26 1.95, 21.48 0.44, 24.07 -0.28 C26.65 -1.01, 24.9 0.65, 24.92 0.97" stroke="none" stroke-width="0" fill="#eaddd7"></path><path d="M15 2.59 C19.37 0.26, 26.56 -0.7, 31.83 0.51 C37.1 1.72, 43.32 5.65, 46.61 9.85 C49.9 14.05, 52.3 20.37, 51.58 25.69 C50.86 31.01, 46.32 38.02, 42.29 41.75 C38.26 45.49, 32.81 47.97, 27.39 48.1 C21.97 48.23, 14.35 45.51, 9.76 42.53 C5.17 39.54, 1 35.14, -0.15 30.21 C-1.3 25.29, -0.32 17.8, 2.85 12.96 C6.02 8.12, 15.6 3.28, 18.85 1.2 C22.1 -0.89, 22.47 0.18, 22.36 0.45 M20.61 -0.04 C25.64 -1.22, 34.81 0.61, 39.7 3.57 C44.58 6.52, 48.51 13.01, 49.9 17.72 C51.29 22.42, 50.3 27.12, 48.02 31.78 C45.74 36.44, 41.03 43.03, 36.24 45.67 C31.44 48.31, 24.46 48.72, 19.25 47.64 C14.05 46.55, 8.02 43.49, 5.01 39.15 C2.01 34.81, 0.99 26.85, 1.22 21.58 C1.45 16.31, 3.1 11.02, 6.39 7.54 C9.67 4.05, 18.17 1.98, 20.94 0.66 C23.72 -0.67, 22.61 -0.55, 23.05 -0.44" stroke="#1e1e1e" stroke-width="2" fill="none"></path></g></svg>