<svg version="1.1" xmlns="http://www.w3.org/2000/svg" viewBox="0 0 117.88881138392856 127.12357954545405" width="117.88881138392856" height="127.12357954545405">
  <!-- svg-source:excalidraw -->
  
  <defs>
    <style class="style-fonts">
      @font-face {
        font-family: "Virgil";
        src: url("https://excalidraw.com/Virgil.woff2");
      }
      @font-face {
        font-family: "Cascadia";
        src: url("https://excalidraw.com/Cascadia.woff2");
      }
      @font-face {
        font-family: "Assistant";
        src: url("https://excalidraw.com/Assistant-Regular.woff2");
      }
    </style>
    
  </defs>
  <g stroke-linecap="round" transform="translate(10 24.85274621212011) rotate(0 42.63085937500006 38.322265625)"><path d="M19.16 0 C31.95 -1.34, 42.45 -0.18, 66.1 0 C80.47 2.89, 81.99 5.89, 85.26 19.16 C87.19 27.18, 87.76 37.56, 85.26 57.48 C86.11 66.89, 75.6 74.84, 66.1 76.64 C53.53 77.75, 46.07 77.81, 19.16 76.64 C2.95 74.97, -1.2 71.78, 0 57.48 C-3.17 40.93, 1.03 26.83, 0 19.16 C0.52 5.71, 7.05 -2.45, 19.16 0" stroke="none" stroke-width="0" fill="#e64980"></path><path d="M19.16 0 C31.97 -1.48, 47.31 -0.6, 66.1 0 M19.16 0 C37.07 -0.76, 56.2 -0.77, 66.1 0 M66.1 0 C80.71 1.36, 86.75 5.97, 85.26 19.16 M66.1 0 C77.45 0.04, 84.46 7.17, 85.26 19.16 M85.26 19.16 C86.12 32.73, 84.74 43.54, 85.26 57.48 M85.26 19.16 C84.97 29.74, 84.72 41.59, 85.26 57.48 M85.26 57.48 C84.2 70.6, 76.88 76.57, 66.1 76.64 M85.26 57.48 C84.94 69.87, 78.15 78.17, 66.1 76.64 M66.1 76.64 C54.01 77.69, 39.11 77.18, 19.16 76.64 M66.1 76.64 C52.34 77.04, 39.19 76.53, 19.16 76.64 M19.16 76.64 C5.62 76.99, -1.12 71.94, 0 57.48 M19.16 76.64 C5.15 74.57, 1.88 70.38, 0 57.48 M0 57.48 C-1.56 45.19, 0.99 29.95, 0 19.16 M0 57.48 C-0.33 43.64, -0.48 31.42, 0 19.16 M0 19.16 C1.37 8.02, 4.57 -0.34, 19.16 0 M0 19.16 C1.1 6.23, 6.78 1.77, 19.16 0" stroke="#1e1e1e" stroke-width="2" fill="none"></path></g><g stroke-linecap="round" transform="translate(33.86899266098453 102.14701704545405) rotate(0 19.283203125000057 7.48828125)"><path d="M3.74 0 C11.68 -0.34, 19.18 2.3, 34.82 0 C34.96 -0.36, 38.05 -0.55, 38.57 3.74 C39.43 5.37, 38.86 7.76, 38.57 11.23 C36.2 12.42, 36.06 12.78, 34.82 14.98 C28.85 16.11, 15.2 13.91, 3.74 14.98 C0.38 16.08, 2.31 15.54, 0 11.23 C0.48 8.88, 0.21 6.8, 0 3.74 C0.48 -0.52, 1.98 -2.33, 3.74 0" stroke="none" stroke-width="0" fill="#868e96"></path><path d="M3.74 0 C11.36 -0.32, 19.11 -0.54, 34.82 0 M3.74 0 C14.25 -0.22, 24.65 0.44, 34.82 0 M34.82 0 C38.06 -0.21, 37.95 1.26, 38.57 3.74 M34.82 0 C36.92 0.39, 38.65 1.5, 38.57 3.74 M38.57 3.74 C38.47 5.41, 38.55 7.01, 38.57 11.23 M38.57 3.74 C38.39 6.38, 38.45 8.99, 38.57 11.23 M38.57 11.23 C37.57 13.69, 37.18 14.81, 34.82 14.98 M38.57 11.23 C38.2 14.49, 37.15 15.85, 34.82 14.98 M34.82 14.98 C26.39 15.41, 18.08 14.22, 3.74 14.98 M34.82 14.98 C23.32 14.74, 11.14 15.07, 3.74 14.98 M3.74 14.98 C0.69 15.82, -0.54 12.83, 0 11.23 M3.74 14.98 C2.19 15.04, 0.51 12.77, 0 11.23 M0 11.23 C0.16 9.31, 0.17 7.91, 0 3.74 M0 11.23 C-0.06 8.83, 0.14 6.68, 0 3.74 M0 3.74 C-0.91 1.08, 1.73 -0.07, 3.74 0 M0 3.74 C0.2 2.13, 0.52 -0.84, 3.74 0" stroke="#1e1e1e" stroke-width="2" fill="none"></path></g><g stroke-linecap="round" transform="translate(34.05486505681802 10) rotate(0 19.283203125000057 7.48828125)"><path d="M3.74 0 C12.56 2.17, 16.7 -0.27, 34.82 0 C36.8 -1.79, 39.32 2.98, 38.57 3.74 C38.88 4.52, 37.76 6.62, 38.57 11.23 C37.31 11.53, 36.69 14.43, 34.82 14.98 C21.89 13.92, 13.05 16.23, 3.74 14.98 C3.56 16.79, -0.43 11.79, 0 11.23 C0.1 9.15, 0.14 6.76, 0 3.74 C0.73 -1.08, 2.21 -0.14, 3.74 0" stroke="none" stroke-width="0" fill="#868e96"></path><path d="M3.74 0 C11.17 -0.61, 17.11 -0.26, 34.82 0 M3.74 0 C11.6 0.44, 18.91 -0.01, 34.82 0 M34.82 0 C36.7 0.02, 38.22 1.59, 38.57 3.74 M34.82 0 C37.4 0.25, 37.43 1.7, 38.57 3.74 M38.57 3.74 C38.52 6.93, 38.74 9.38, 38.57 11.23 M38.57 3.74 C38.44 5.61, 38.35 7.4, 38.57 11.23 M38.57 11.23 C38.43 13.56, 37 15.64, 34.82 14.98 M38.57 11.23 C38.4 14.6, 36.95 15.73, 34.82 14.98 M34.82 14.98 C23.56 14.18, 13.23 14.96, 3.74 14.98 M34.82 14.98 C25.2 14.99, 15.68 15.32, 3.74 14.98 M3.74 14.98 C0.71 14.08, 0.82 13.78, 0 11.23 M3.74 14.98 C1.76 14.02, -0.82 12.65, 0 11.23 M0 11.23 C0.12 8.75, 0.04 5.97, 0 3.74 M0 11.23 C0.14 9.85, -0.16 8.12, 0 3.74 M0 3.74 C0.48 1.18, 1.42 0.77, 3.74 0 M0 3.74 C-0.73 0.41, 0.44 0.54, 3.74 0" stroke="#343a40" stroke-width="2" fill="none"></path></g><g stroke-linecap="round" transform="translate(79.93959263392856 52.35810673701235) rotate(0 13.974609375 10.47265625)"><path d="M5.24 0 C7.25 -0.68, 14.35 -2.42, 22.71 0 C27.25 2.4, 25.23 4.72, 27.95 5.24 C26.28 6.54, 27.08 8.14, 27.95 15.71 C27.08 18.44, 27.51 24.54, 22.71 20.95 C15.76 22.13, 13.7 22.99, 5.24 20.95 C1.16 18.26, -1.65 20.71, 0 15.71 C0.32 11.53, 0.5 8.22, 0 5.24 C1.34 1.55, 4.45 -2.1, 5.24 0" stroke="none" stroke-width="0" fill="#eaddd7"></path><path d="M5.24 0 C10.19 -0.45, 13.04 1.11, 22.71 0 M5.24 0 C10.02 -0.3, 12.97 -0.1, 22.71 0 M22.71 0 C25.51 0.68, 28.09 2.18, 27.95 5.24 M22.71 0 C23.92 0.89, 30.02 1.06, 27.95 5.24 M27.95 5.24 C28.44 8.24, 27.36 11.56, 27.95 15.71 M27.95 5.24 C27.37 8.54, 27.82 11.79, 27.95 15.71 M27.95 15.71 C27.32 20.52, 25.91 22.47, 22.71 20.95 M27.95 15.71 C27.22 20.7, 27.58 20.72, 22.71 20.95 M22.71 20.95 C18.23 20.68, 11.08 21.63, 5.24 20.95 M22.71 20.95 C17.82 21.71, 13.43 20.19, 5.24 20.95 M5.24 20.95 C3.38 21.05, 0.89 17.54, 0 15.71 M5.24 20.95 C0.11 18.79, 1.06 19.97, 0 15.71 M0 15.71 C0.11 12.92, -1.03 10.2, 0 5.24 M0 15.71 C-0.55 12.76, 0.18 9.96, 0 5.24 M0 5.24 C0.35 3.28, 0.47 -1.46, 5.24 0 M0 5.24 C-1.62 2.82, 0.51 0.7, 5.24 0" stroke="#1e1e1e" stroke-width="2" fill="none"></path></g><g stroke-linecap="round" transform="translate(30.14076450892844 38.31904423701235) rotate(0 25.429687500000057 23.859375)"><path d="M16.92 0.94 C21.88 -1.07, 29.25 -0.1, 34.34 1.68 C39.44 3.45, 44.98 7.28, 47.51 11.58 C50.05 15.88, 50.54 22.3, 49.55 27.49 C48.57 32.68, 45.48 39.51, 41.62 42.73 C37.76 45.95, 31.84 46.81, 26.4 46.81 C20.97 46.8, 13.38 45.79, 9.03 42.71 C4.69 39.63, 1.17 33.54, 0.34 28.32 C-0.48 23.11, 1.29 16.08, 4.1 11.42 C6.91 6.76, 14.58 2.15, 17.22 0.35 C19.85 -1.45, 19.62 0.16, 19.92 0.62 M30.83 0.29 C35.58 1.36, 41.13 5.92, 44.63 9.85 C48.13 13.78, 51.71 19.04, 51.83 23.86 C51.95 28.68, 49.15 35.06, 45.35 38.77 C41.54 42.48, 34.84 45.39, 29 46.13 C23.16 46.86, 15.08 45.92, 10.32 43.18 C5.55 40.44, 1.87 34.48, 0.42 29.67 C-1.03 24.87, -0.71 18.58, 1.61 14.32 C3.93 10.07, 9.33 6.68, 14.33 4.15 C19.32 1.62, 28.96 -0.25, 31.61 -0.85 C34.26 -1.44, 30.31 -0.3, 30.23 0.55" stroke="none" stroke-width="0" fill="#eaddd7"></path><path d="M33.24 1.7 C38.37 2.52, 43.46 5.93, 46.37 10 C49.29 14.07, 51.23 20.93, 50.72 26.13 C50.22 31.32, 47.25 37.75, 43.34 41.18 C39.44 44.6, 32.72 46.21, 27.29 46.68 C21.86 47.15, 15.24 46.78, 10.77 43.99 C6.29 41.2, 1.8 34.94, 0.42 29.94 C-0.95 24.94, -0.01 18.74, 2.54 13.99 C5.08 9.24, 10.5 3.67, 15.69 1.45 C20.87 -0.77, 30.31 0.57, 33.66 0.65 C37.01 0.74, 35.81 1.65, 35.78 1.99 M24.5 1 C29.67 0.84, 36.97 3.24, 41.2 6.45 C45.44 9.66, 48.68 15.47, 49.91 20.27 C51.14 25.08, 51.05 30.98, 48.57 35.27 C46.1 39.56, 40.52 43.95, 35.07 46.01 C29.62 48.06, 21.14 49.22, 15.89 47.59 C10.63 45.96, 6.02 40.9, 3.54 36.21 C1.06 31.51, 0.25 24.43, 1.02 19.42 C1.79 14.4, 4.31 9.15, 8.16 6.12 C12.01 3.09, 21.46 2.43, 24.13 1.27 C26.8 0.1, 23.82 -1.07, 24.17 -0.87" stroke="#1e1e1e" stroke-width="2" fill="none"></path></g></svg>