<svg version="1.1" xmlns="http://www.w3.org/2000/svg" viewBox="0 0 108.08725249304916 127.12357954545405" width="108.08725249304916" height="127.12357954545405">
  <!-- svg-source:excalidraw -->
  
  <defs>
    <style class="style-fonts">
      @font-face {
        font-family: "Virgil";
        src: url("https://excalidraw.com/Virgil.woff2");
      }
      @font-face {
        font-family: "Cascadia";
        src: url("https://excalidraw.com/Cascadia.woff2");
      }
      @font-face {
        font-family: "Assistant";
        src: url("https://excalidraw.com/Assistant-Regular.woff2");
      }
    </style>
    
  </defs>
  <g stroke-linecap="round" transform="translate(12.825533743049164 24.85274621212102) rotate(0 42.630859375 38.322265625)"><path d="M19.16 0 C34.26 2.15, 42.37 -3.05, 66.1 0 C77.23 1.51, 84.43 6.91, 85.26 19.16 C86.41 26.71, 86.73 40.51, 85.26 57.48 C87.96 68.16, 79.86 79.12, 66.1 76.64 C50.14 78.74, 33.08 80.02, 19.16 76.64 C8.82 75.24, -2.26 73.03, 0 57.48 C1.75 44.35, -1.88 33.92, 0 19.16 C0.42 7.54, 4.94 -1.94, 19.16 0" stroke="none" stroke-width="0" fill="#e64980"></path><path d="M19.16 0 C35.41 -1.36, 54.21 -0.8, 66.1 0 M19.16 0 C33.92 -0.15, 48.64 0.68, 66.1 0 M66.1 0 C78.58 1.52, 84.62 7.69, 85.26 19.16 M66.1 0 C80.25 -0.23, 86.05 6.2, 85.26 19.16 M85.26 19.16 C85.63 28.36, 84.6 34.88, 85.26 57.48 M85.26 19.16 C84.51 30.42, 85.86 43.54, 85.26 57.48 M85.26 57.48 C86.16 68.59, 77.45 74.77, 66.1 76.64 M85.26 57.48 C86.32 71.03, 77.6 77.49, 66.1 76.64 M66.1 76.64 C48.77 75.8, 34.68 77.91, 19.16 76.64 M66.1 76.64 C48.66 76.49, 30.44 77.33, 19.16 76.64 M19.16 76.64 C5.11 75.19, -1.41 71.2, 0 57.48 M19.16 76.64 C5.15 77.35, -0.49 71.28, 0 57.48 M0 57.48 C-0.05 41.53, 0.93 29.68, 0 19.16 M0 57.48 C-0.08 47.95, -1.23 39.78, 0 19.16 M0 19.16 C-0.97 4.7, 5.9 -0.42, 19.16 0 M0 19.16 C0.84 8.68, 7.26 -2.2, 19.16 0" stroke="#1e1e1e" stroke-width="2" fill="none"></path></g><g stroke-linecap="round" transform="translate(36.694526404033695 102.14701704545405) rotate(0 19.283203125 7.48828125)"><path d="M3.74 0 C13.96 -2.22, 23.83 0.81, 34.82 0 C36.72 0.38, 38.08 1.73, 38.57 3.74 C38.96 5.43, 39.32 6.65, 38.57 11.23 C39.28 15.52, 38.73 13.27, 34.82 14.98 C25.4 17.59, 17.38 14.19, 3.74 14.98 C-0.39 16.98, -0.05 14.77, 0 11.23 C-0.49 9.07, 0.06 7.61, 0 3.74 C-1.05 -0.15, 1.66 2.53, 3.74 0" stroke="none" stroke-width="0" fill="#868e96"></path><path d="M3.74 0 C11.49 -0.4, 19.08 -0.87, 34.82 0 M3.74 0 C12.8 0.36, 22.1 0.41, 34.82 0 M34.82 0 C37 0.65, 39.16 1.15, 38.57 3.74 M34.82 0 C37.71 -0.09, 37.59 2.14, 38.57 3.74 M38.57 3.74 C38.39 5.8, 38.63 7.93, 38.57 11.23 M38.57 3.74 C38.7 6.63, 38.63 9.34, 38.57 11.23 M38.57 11.23 C37.86 12.79, 37.78 15.31, 34.82 14.98 M38.57 11.23 C37.93 14.15, 37.65 15.14, 34.82 14.98 M34.82 14.98 C25.92 15.61, 18.37 14.01, 3.74 14.98 M34.82 14.98 C26.12 15.35, 16.93 14.6, 3.74 14.98 M3.74 14.98 C0.55 15.45, -0.54 14.03, 0 11.23 M3.74 14.98 C1 15.49, 0.92 12.68, 0 11.23 M0 11.23 C0.12 9.34, -0.28 7.25, 0 3.74 M0 11.23 C-0.18 9.53, -0.1 7.86, 0 3.74 M0 3.74 C-0.24 1.04, 1.61 1, 3.74 0 M0 3.74 C0.44 0.15, 0.71 -0.38, 3.74 0" stroke="#1e1e1e" stroke-width="2" fill="none"></path></g><g stroke-linecap="round" transform="translate(36.88039879986718 10) rotate(0 19.283203125 7.48828125)"><path d="M3.74 0 C14.04 1.39, 26.12 0.68, 34.82 0 C36.83 0.48, 36.8 1.98, 38.57 3.74 C39.33 4.75, 38.87 7.56, 38.57 11.23 C39.98 12.02, 37.55 15.46, 34.82 14.98 C25.51 14.33, 11.05 17.35, 3.74 14.98 C1.2 16.02, -0.97 15.19, 0 11.23 C0.16 9.65, -0.35 6.93, 0 3.74 C0.41 3.78, 3.73 1.96, 3.74 0" stroke="none" stroke-width="0" fill="#868e96"></path><path d="M3.74 0 C10.71 -0.92, 17.3 -0.06, 34.82 0 M3.74 0 C12.47 0.28, 21.18 0.22, 34.82 0 M34.82 0 C37.92 -0.1, 38.91 1.17, 38.57 3.74 M34.82 0 C36.34 0.9, 38.49 1.29, 38.57 3.74 M38.57 3.74 C38.61 6.14, 38.86 8.75, 38.57 11.23 M38.57 3.74 C38.68 5.16, 38.46 6.71, 38.57 11.23 M38.57 11.23 C39.03 14.06, 36.76 15.34, 34.82 14.98 M38.57 11.23 C38.9 13.89, 37.06 13.89, 34.82 14.98 M34.82 14.98 C27.46 14.17, 18.3 15.56, 3.74 14.98 M34.82 14.98 C25.4 14.73, 16.25 15.33, 3.74 14.98 M3.74 14.98 C0.71 15.28, -0.22 14.17, 0 11.23 M3.74 14.98 C2.17 13.93, -0.16 13.5, 0 11.23 M0 11.23 C-0.29 9.81, -0.33 7.86, 0 3.74 M0 11.23 C-0.06 9.53, -0.01 8.1, 0 3.74 M0 3.74 C0.36 2.25, 1.63 -0.96, 3.74 0 M0 3.74 C-0.53 0.87, 1.73 1.02, 3.74 0" stroke="#343a40" stroke-width="2" fill="none"></path></g><g stroke-linecap="round" transform="translate(13.186373760761398 24.156708609438283) rotate(47.524435689906944 13.974609375 10.47265625)"><path d="M5.24 0 C8.44 0.33, 12.52 0.45, 22.71 0 C23.76 1.02, 24.72 3.08, 27.95 5.24 C28.61 9.62, 29.11 10.16, 27.95 15.71 C28.27 19.87, 28.22 21.19, 22.71 20.95 C13.89 23.25, 8.96 22.09, 5.24 20.95 C0.41 22.97, -1.71 17.6, 0 15.71 C-0.78 11.76, 0.28 11.67, 0 5.24 C3.44 4.46, 2.92 -1.13, 5.24 0" stroke="none" stroke-width="0" fill="#eaddd7"></path><path d="M5.24 0 C9.49 -0.07, 13.58 -0.38, 22.71 0 M5.24 0 C11.36 0.44, 18.56 -0.22, 22.71 0 M22.71 0 C26.89 -0.16, 26.25 3.3, 27.95 5.24 M22.71 0 C26.05 0.08, 29.04 0.64, 27.95 5.24 M27.95 5.24 C28.85 7.41, 27.02 11.57, 27.95 15.71 M27.95 5.24 C27.62 7.94, 28.24 11.81, 27.95 15.71 M27.95 15.71 C26.84 19.93, 26.78 21.23, 22.71 20.95 M27.95 15.71 C27.44 17.03, 25.35 20.32, 22.71 20.95 M22.71 20.95 C15.97 21.62, 9.71 21.09, 5.24 20.95 M22.71 20.95 C15.51 21.23, 9.07 21.08, 5.24 20.95 M5.24 20.95 C1.32 21.83, 1.6 17.38, 0 15.71 M5.24 20.95 C1.43 20.49, -1.59 19.87, 0 15.71 M0 15.71 C-0.82 12.12, -0.9 7.08, 0 5.24 M0 15.71 C-0.08 12.98, 0.24 11, 0 5.24 M0 5.24 C0.76 -0.16, 0.82 -0.66, 5.24 0 M0 5.24 C0.97 3.79, 3.35 -0.38, 5.24 0" stroke="#1e1e1e" stroke-width="2" fill="none"></path></g><g stroke-linecap="round" transform="translate(28.10504480902 38.92300118694311) rotate(47.524435689906944 25.4296875 23.859375)"><path d="M23.98 0.72 C29.03 0.34, 35.44 2.46, 39.65 5.4 C43.86 8.34, 47.98 13.68, 49.26 18.36 C50.54 23.03, 49.67 28.97, 47.34 33.44 C45 37.91, 40.2 43, 35.24 45.19 C30.27 47.37, 22.73 47.82, 17.54 46.54 C12.35 45.27, 6.85 41.68, 4.12 37.54 C1.38 33.4, 0.69 26.93, 1.14 21.71 C1.59 16.49, 2.93 9.76, 6.84 6.21 C10.74 2.66, 21.22 1.26, 24.59 0.43 C27.96 -0.41, 27 0.98, 27.03 1.18 M19.88 0.34 C24.79 -1.17, 32.31 -0.58, 37.2 1.56 C42.1 3.69, 47.06 8.29, 49.24 13.15 C51.43 18.01, 51.79 25.74, 50.32 30.71 C48.86 35.68, 45.04 39.99, 40.45 42.97 C35.86 45.95, 28.25 49.21, 22.79 48.58 C17.33 47.95, 11.45 43.04, 7.68 39.18 C3.91 35.32, 0.46 30.36, 0.17 25.44 C-0.12 20.51, 2.45 13.61, 5.93 9.64 C9.41 5.67, 18.83 3.22, 21.04 1.64 C23.25 0.05, 19.13 -0.07, 19.19 0.14" stroke="none" stroke-width="0" fill="#eaddd7"></path><path d="M22.2 -0.02 C27.25 -0.96, 34.64 1.26, 39.16 4 C43.69 6.74, 47.71 11.83, 49.37 16.42 C51.02 21.01, 50.9 26.84, 49.09 31.55 C47.29 36.25, 43.3 41.95, 38.55 44.65 C33.81 47.36, 26.19 48.78, 20.63 47.76 C15.07 46.73, 8.61 42.65, 5.2 38.5 C1.79 34.36, -0.13 28.04, 0.18 22.9 C0.49 17.76, 3.19 11.36, 7.07 7.68 C10.95 4, 20.09 1.95, 23.46 0.84 C26.84 -0.28, 27.3 0.85, 27.32 0.99 M13.11 3.12 C17.54 0.61, 26.26 0, 31.65 0.84 C37.04 1.67, 42.34 4.15, 45.45 8.13 C48.55 12.12, 50.34 19.22, 50.27 24.76 C50.19 30.31, 48.87 37.65, 45.01 41.4 C41.15 45.16, 32.56 46.9, 27.1 47.29 C21.63 47.68, 16.53 46.29, 12.24 43.73 C7.95 41.17, 3.21 36.98, 1.35 31.93 C-0.51 26.87, -0.83 18.16, 1.09 13.39 C3.02 8.61, 10.85 4.93, 12.89 3.28 C14.94 1.62, 13.06 3.11, 13.37 3.45" stroke="#1e1e1e" stroke-width="2" fill="none"></path></g></svg>