<svg version="1.1" xmlns="http://www.w3.org/2000/svg" viewBox="0 0 106.88189535019183 127.12357954545405" width="106.88189535019183" height="127.12357954545405">
  <!-- svg-source:excalidraw -->
  
  <defs>
    <style class="style-fonts">
      @font-face {
        font-family: "Virgil";
        src: url("https://excalidraw.com/Virgil.woff2");
      }
      @font-face {
        font-family: "Cascadia";
        src: url("https://excalidraw.com/Cascadia.woff2");
      }
      @font-face {
        font-family: "Assistant";
        src: url("https://excalidraw.com/Assistant-Regular.woff2");
      }
    </style>
    
  </defs>
  <g stroke-linecap="round" transform="translate(10 24.85274621212102) rotate(0 42.630859375 38.322265625)"><path d="M19.16 0 C33.64 2.98, 43.32 3.55, 66.1 0 C75.79 0.85, 81.9 3.11, 85.26 19.16 C84.05 27.98, 86.24 41.9, 85.26 57.48 C86.63 66.82, 77.2 75.45, 66.1 76.64 C49.45 74.54, 32.32 78.75, 19.16 76.64 C5.55 77.17, -0.68 70.92, 0 57.48 C1.14 48.39, 2.51 37.6, 0 19.16 C0.99 8.86, 8.34 -2.37, 19.16 0" stroke="none" stroke-width="0" fill="#e64980"></path><path d="M19.16 0 C30.44 1.57, 45.61 1.22, 66.1 0 M19.16 0 C31.91 0.33, 45.43 0.21, 66.1 0 M66.1 0 C76.89 0.78, 87.06 5.79, 85.26 19.16 M66.1 0 C79.86 -0.22, 86.87 7.49, 85.26 19.16 M85.26 19.16 C85.39 27.45, 85.4 35.86, 85.26 57.48 M85.26 19.16 C84.89 31.18, 85.06 42.64, 85.26 57.48 M85.26 57.48 C84.62 71.56, 80.07 76.45, 66.1 76.64 M85.26 57.48 C86.05 70.07, 76.92 78.44, 66.1 76.64 M66.1 76.64 C51.37 76.1, 38.9 75.75, 19.16 76.64 M66.1 76.64 C48.88 76.28, 30.48 75.39, 19.16 76.64 M19.16 76.64 C4.97 74.77, 0.92 70.93, 0 57.48 M19.16 76.64 C5.11 77.49, 0.66 70.58, 0 57.48 M0 57.48 C-0.18 48.21, 2 34.37, 0 19.16 M0 57.48 C-0.01 47.41, -0.82 35.08, 0 19.16 M0 19.16 C-1.41 7.33, 5.31 0.61, 19.16 0 M0 19.16 C-0.49 7.41, 8.23 -2.09, 19.16 0" stroke="#1e1e1e" stroke-width="2" fill="none"></path></g><g stroke-linecap="round" transform="translate(33.86899266098453 102.14701704545405) rotate(0 19.283203125 7.48828125)"><path d="M3.74 0 C8.96 1.88, 15.88 0.34, 34.82 0 C34.89 -2.36, 37.26 -0.01, 38.57 3.74 C38.9 6.33, 38.91 6.04, 38.57 11.23 C37.36 12.86, 38.42 17.29, 34.82 14.98 C22.14 15.77, 11.24 15.05, 3.74 14.98 C0.76 15.45, -1.77 14.46, 0 11.23 C0.69 9.09, 0.23 8.75, 0 3.74 C1.41 -0.46, 1.48 0.49, 3.74 0" stroke="none" stroke-width="0" fill="#868e96"></path><path d="M3.74 0 C15.52 0.6, 25.72 -0.76, 34.82 0 M3.74 0 C13.15 0.06, 22 0.14, 34.82 0 M34.82 0 C38.22 -0.3, 38.99 1.15, 38.57 3.74 M34.82 0 C38.12 0.55, 37.92 0.61, 38.57 3.74 M38.57 3.74 C38.64 5.01, 38.56 6.97, 38.57 11.23 M38.57 3.74 C38.53 6.01, 38.49 8.11, 38.57 11.23 M38.57 11.23 C39.16 13.63, 37.66 14.89, 34.82 14.98 M38.57 11.23 C37.59 14.62, 37.24 15.02, 34.82 14.98 M34.82 14.98 C24.19 14.36, 14.06 14.38, 3.74 14.98 M34.82 14.98 C28.52 14.57, 21.42 14.52, 3.74 14.98 M3.74 14.98 C1.71 15.31, -0.55 14.09, 0 11.23 M3.74 14.98 C1.58 15.14, -0.26 12.64, 0 11.23 M0 11.23 C0.32 8.92, -0.05 7.47, 0 3.74 M0 11.23 C-0.13 8.9, -0.14 6.93, 0 3.74 M0 3.74 C-0.54 1.55, 1.03 0.44, 3.74 0 M0 3.74 C0.92 0.2, 1.09 -0.23, 3.74 0" stroke="#1e1e1e" stroke-width="2" fill="none"></path></g><g stroke-linecap="round" transform="translate(34.05486505681802 10) rotate(0 19.283203125 7.48828125)"><path d="M3.74 0 C12.91 0.28, 24.1 -2.7, 34.82 0 C36.01 -1.26, 36.37 0.62, 38.57 3.74 C38.97 4.9, 38.15 7.6, 38.57 11.23 C39.67 16.04, 39.13 14.55, 34.82 14.98 C27.22 15.53, 20.33 15.62, 3.74 14.98 C-0.52 15.71, -2.33 14.69, 0 11.23 C0.19 9.7, 0.46 6.18, 0 3.74 C0.23 1.73, 2.71 0.17, 3.74 0" stroke="none" stroke-width="0" fill="#868e96"></path><path d="M3.74 0 C15.71 -0.74, 28.11 -0.46, 34.82 0 M3.74 0 C13.63 0.16, 24.95 -0.18, 34.82 0 M34.82 0 C37.75 -0.1, 39.26 1.73, 38.57 3.74 M34.82 0 C36.67 -0.64, 37.63 1.44, 38.57 3.74 M38.57 3.74 C38.56 5.54, 38.51 7.33, 38.57 11.23 M38.57 3.74 C38.5 6.61, 38.67 9.21, 38.57 11.23 M38.57 11.23 C38.91 13.65, 36.47 15.76, 34.82 14.98 M38.57 11.23 C38.49 13.77, 37.87 14.43, 34.82 14.98 M34.82 14.98 C27.54 14.35, 17.66 15.71, 3.74 14.98 M34.82 14.98 C24.97 14.38, 16.07 15.01, 3.74 14.98 M3.74 14.98 C0.69 15.34, 0.29 13.87, 0 11.23 M3.74 14.98 C0.99 13.89, -0.42 13.42, 0 11.23 M0 11.23 C-0.09 8.65, -0.06 5.78, 0 3.74 M0 11.23 C-0.11 8.5, -0.08 5.65, 0 3.74 M0 3.74 C-0.22 1.69, 2.05 -0.91, 3.74 0 M0 3.74 C-0.16 1.02, 0.45 0.33, 3.74 0" stroke="#343a40" stroke-width="2" fill="none"></path></g><g stroke-linecap="round" transform="translate(65.74630283943043 23.860949680865815) rotate(312.47556431009303 13.974609375 10.47265625)"><path d="M5.24 0 C8.98 -2.93, 17.03 -1.59, 22.71 0 C23.16 -0.87, 27.19 3.05, 27.95 5.24 C27.14 8.8, 28.82 15.29, 27.95 15.71 C30.46 18.61, 23.51 19.3, 22.71 20.95 C16.14 21.57, 8.62 21.88, 5.24 20.95 C-1.48 22.28, -0.2 21.9, 0 15.71 C0.97 11.94, 0.12 11, 0 5.24 C2.02 1.99, 5.05 2.44, 5.24 0" stroke="none" stroke-width="0" fill="#eaddd7"></path><path d="M5.24 0 C11.81 -0.5, 18.91 0.23, 22.71 0 M5.24 0 C11.64 -0.33, 16.85 -0.15, 22.71 0 M22.71 0 C27.6 0.96, 26.83 0.64, 27.95 5.24 M22.71 0 C24.33 0.39, 26.73 2.14, 27.95 5.24 M27.95 5.24 C27.77 7, 28.64 9.28, 27.95 15.71 M27.95 5.24 C28.23 9.12, 28.1 13.07, 27.95 15.71 M27.95 15.71 C26.25 20.76, 26.07 21.01, 22.71 20.95 M27.95 15.71 C29.04 18.1, 25.32 21.34, 22.71 20.95 M22.71 20.95 C16.88 22.28, 14.28 21.63, 5.24 20.95 M22.71 20.95 C19.32 21.07, 14.65 21.1, 5.24 20.95 M5.24 20.95 C2.32 21.23, -0.44 17.31, 0 15.71 M5.24 20.95 C0.9 20.32, 1.58 21.08, 0 15.71 M0 15.71 C-0.05 13.7, 0.82 10.67, 0 5.24 M0 15.71 C-0.21 13.49, -0.04 11.18, 0 5.24 M0 5.24 C1.6 -0.07, 1.47 -0.4, 5.24 0 M0 5.24 C-1.59 2.41, 3.28 -1.74, 5.24 0" stroke="#1e1e1e" stroke-width="2" fill="none"></path></g><g stroke-linecap="round" transform="translate(27.917475541171825 38.54130475837155) rotate(312.47556431009303 25.4296875 23.859375)"><path d="M21.58 -0.51 C26.62 -1.73, 33.15 0.86, 37.75 3.56 C42.35 6.25, 47.1 11.05, 49.17 15.65 C51.24 20.25, 52.1 26.48, 50.18 31.16 C48.26 35.83, 42.38 41.08, 37.64 43.7 C32.9 46.32, 26.94 47.62, 21.73 46.86 C16.53 46.1, 9.97 42.82, 6.42 39.16 C2.87 35.5, 0.7 30, 0.45 24.9 C0.19 19.8, 1.36 12.79, 4.88 8.57 C8.4 4.35, 18.53 0.78, 21.57 -0.44 C24.61 -1.66, 23.15 0.63, 23.12 1.27 M13.51 1.4 C17.91 -0.87, 26.07 -1.84, 31.49 -0.4 C36.91 1.04, 42.72 5.35, 46.02 10.02 C49.32 14.69, 51.65 22.73, 51.29 27.63 C50.92 32.54, 47.92 36.19, 43.83 39.44 C39.74 42.69, 32.16 46.28, 26.74 47.15 C21.32 48.01, 15.45 47.55, 11.3 44.62 C7.16 41.7, 3.52 34.88, 1.86 29.6 C0.2 24.31, -0.92 17.54, 1.35 12.91 C3.63 8.28, 13.18 3.57, 15.51 1.8 C17.83 0.04, 15.19 2.05, 15.3 2.3" stroke="none" stroke-width="0" fill="#eaddd7"></path><path d="M26.7 0.92 C31.8 1.02, 38.17 3.17, 42.14 6.55 C46.11 9.94, 49.63 16.33, 50.52 21.23 C51.41 26.13, 50.44 31.85, 47.48 35.94 C44.52 40.02, 37.98 44.15, 32.74 45.74 C27.51 47.32, 21.01 47.4, 16.08 45.45 C11.15 43.51, 5.75 38.52, 3.15 34.07 C0.56 29.62, -0.56 23.65, 0.52 18.77 C1.59 13.88, 4.55 7.83, 9.6 4.75 C14.64 1.66, 26.64 0.81, 30.78 0.26 C34.92 -0.28, 34.49 0.95, 34.41 1.47 M22.89 1.2 C27.94 0.68, 36.01 2.12, 40.69 4.89 C45.36 7.67, 49.8 12.81, 50.94 17.83 C52.07 22.85, 50.23 30.13, 47.48 35.01 C44.74 39.89, 39.52 45.39, 34.46 47.11 C29.4 48.83, 21.99 47.01, 17.12 45.31 C12.26 43.6, 8 41.16, 5.29 36.88 C2.58 32.61, 0.57 24.96, 0.87 19.64 C1.16 14.32, 3.07 8.15, 7.07 4.96 C11.07 1.78, 22.14 1.18, 24.85 0.53 C27.57 -0.12, 23.38 0.71, 23.36 1.05" stroke="#1e1e1e" stroke-width="2" fill="none"></path></g></svg>