<svg version="1.1" xmlns="http://www.w3.org/2000/svg" viewBox="0 0 105.26171875 129.23744184244413" width="105.26171875" height="129.23744184244413">
  <!-- svg-source:excalidraw -->
  
  <defs>
    <style class="style-fonts">
      @font-face {
        font-family: "Virgil";
        src: url("https://excalidraw.com/Virgil.woff2");
      }
      @font-face {
        font-family: "Cascadia";
        src: url("https://excalidraw.com/Cascadia.woff2");
      }
      @font-face {
        font-family: "Assistant";
        src: url("https://excalidraw.com/Assistant-Regular.woff2");
      }
    </style>
    
  </defs>
  <g stroke-linecap="round" transform="translate(10 26.966608509110188) rotate(0 42.630859375 38.322265625)"><path d="M19.16 0 C25.94 -0.47, 38.03 1.72, 66.1 0 C82.47 1.37, 81.82 4.71, 85.26 19.16 C88.06 28.8, 82.86 37.96, 85.26 57.48 C86.77 69.42, 79.4 75.97, 66.1 76.64 C47.93 78.22, 36.01 79.58, 19.16 76.64 C4.29 77.63, 2.48 72.21, 0 57.48 C1.96 48.75, 3.24 41.97, 0 19.16 C-1.4 4.12, 9.16 -0.06, 19.16 0" stroke="none" stroke-width="0" fill="#e64980"></path><path d="M19.16 0 C32.04 -2.02, 44.84 1.77, 66.1 0 M19.16 0 C32.53 0.53, 43.95 -0.51, 66.1 0 M66.1 0 C77.25 0.34, 84.2 6.73, 85.26 19.16 M66.1 0 C76.58 -0.08, 84.94 6, 85.26 19.16 M85.26 19.16 C87.04 28.81, 86.82 40.93, 85.26 57.48 M85.26 19.16 C84.55 31.06, 85.33 41.43, 85.26 57.48 M85.26 57.48 C86.21 69.3, 78.11 76.99, 66.1 76.64 M85.26 57.48 C83.97 72.19, 77.63 74.57, 66.1 76.64 M66.1 76.64 C46.52 75.43, 28.4 77.77, 19.16 76.64 M66.1 76.64 C50.74 76.96, 34.58 75.87, 19.16 76.64 M19.16 76.64 C5.65 76.1, 1.37 71.89, 0 57.48 M19.16 76.64 C4.29 76.25, 1.1 70.1, 0 57.48 M0 57.48 C-1.75 43.92, 0.64 32.09, 0 19.16 M0 57.48 C0.88 43.91, -0.05 31.96, 0 19.16 M0 19.16 C-1.38 6.97, 7.72 -1.51, 19.16 0 M0 19.16 C1.9 4.42, 6.93 -2.15, 19.16 0" stroke="#1e1e1e" stroke-width="2" fill="none"></path></g><g stroke-linecap="round" transform="translate(33.86899266098453 104.26087934244413) rotate(0 19.283203125 7.48828125)"><path d="M3.74 0 C11.02 1.04, 21.98 1.09, 34.82 0 C34.84 -1.21, 37.7 2.35, 38.57 3.74 C37.91 6.21, 39.04 9.34, 38.57 11.23 C38.95 13.24, 37.8 13.21, 34.82 14.98 C24.48 17.08, 12.9 15.84, 3.74 14.98 C3.04 16.39, -1.71 13.96, 0 11.23 C0.84 9.5, -0.43 5.85, 0 3.74 C2 1.2, 2.29 -0.97, 3.74 0" stroke="none" stroke-width="0" fill="#868e96"></path><path d="M3.74 0 C13.67 1.06, 22.52 0.58, 34.82 0 M3.74 0 C12.49 -0.35, 21.39 0.01, 34.82 0 M34.82 0 C36.79 0.17, 37.57 1.21, 38.57 3.74 M34.82 0 C37.16 -0.19, 38.2 2.01, 38.57 3.74 M38.57 3.74 C38.84 6.11, 38.56 8.15, 38.57 11.23 M38.57 3.74 C38.52 5.94, 38.62 8.02, 38.57 11.23 M38.57 11.23 C38.18 13.9, 36.76 15.82, 34.82 14.98 M38.57 11.23 C37.95 12.69, 38.26 15.04, 34.82 14.98 M34.82 14.98 C23.17 15.33, 13.73 14.31, 3.74 14.98 M34.82 14.98 C24.25 14.53, 13.72 14.86, 3.74 14.98 M3.74 14.98 C1.93 15.79, -0.91 13.56, 0 11.23 M3.74 14.98 C1.8 14.9, 0.2 14.61, 0 11.23 M0 11.23 C0.2 9.26, 0.14 7.61, 0 3.74 M0 11.23 C-0.06 8.62, -0.16 6.13, 0 3.74 M0 3.74 C0.67 0.49, 2.07 -0.86, 3.74 0 M0 3.74 C0.27 0.17, 0.2 -0.58, 3.74 0" stroke="#1e1e1e" stroke-width="2" fill="none"></path></g><g stroke-linecap="round" transform="translate(34.05486505681802 12.113862296989168) rotate(0 19.283203125 7.48828125)"><path d="M3.74 0 C14.91 0.84, 18.4 -1.36, 34.82 0 C36.45 1.1, 40.88 3.06, 38.57 3.74 C38.9 5.64, 38.64 7.81, 38.57 11.23 C39.04 11.96, 38.05 12.65, 34.82 14.98 C22.83 15.99, 15.65 16.69, 3.74 14.98 C-0.46 15.21, 0.49 15.19, 0 11.23 C-0.47 8.32, 0.66 6.62, 0 3.74 C1.04 0.28, 2.71 -1.23, 3.74 0" stroke="none" stroke-width="0" fill="#868e96"></path><path d="M3.74 0 C9.68 0.29, 16.13 0.56, 34.82 0 M3.74 0 C14.16 0.17, 25.12 0.17, 34.82 0 M34.82 0 C36.32 -0.04, 38.43 1.08, 38.57 3.74 M34.82 0 C36.96 0.76, 38.4 2.12, 38.57 3.74 M38.57 3.74 C38.55 5.88, 38.56 7.44, 38.57 11.23 M38.57 3.74 C38.65 6.48, 38.49 9.44, 38.57 11.23 M38.57 11.23 C38.01 14.57, 36.78 14.08, 34.82 14.98 M38.57 11.23 C39.51 13.79, 37.83 14.02, 34.82 14.98 M34.82 14.98 C28.04 14.49, 20.96 15.34, 3.74 14.98 M34.82 14.98 C24.88 14.69, 15.64 15.24, 3.74 14.98 M3.74 14.98 C0.34 14.8, 0.48 13.66, 0 11.23 M3.74 14.98 C1.45 15.86, -0.73 12.89, 0 11.23 M0 11.23 C0.1 9.43, 0.15 8.09, 0 3.74 M0 11.23 C-0.12 9.72, 0.13 7.96, 0 3.74 M0 3.74 C0.83 0.39, 1.48 -0.93, 3.74 0 M0 3.74 C-1.05 0.67, 0.69 -0.97, 3.74 0" stroke="#343a40" stroke-width="2" fill="none"></path></g><g stroke-linecap="round" transform="translate(39.397448168828305 13.626040698085376) rotate(269.315648468081 13.974609375 10.47265625)"><path d="M5.24 0 C8.11 -1.58, 15.95 1.21, 22.71 0 C29.41 2.51, 27.36 -0.94, 27.95 5.24 C28.3 7.54, 28.37 9.28, 27.95 15.71 C28.97 15.97, 27.54 20.75, 22.71 20.95 C18.32 22.74, 7.53 21.31, 5.24 20.95 C2.42 22.97, 0.24 22.5, 0 15.71 C1.53 11.83, 0.83 7.31, 0 5.24 C2.03 0.04, 0.15 -0.7, 5.24 0" stroke="none" stroke-width="0" fill="#eaddd7"></path><path d="M5.24 0 C11.89 1.14, 19.71 -1.06, 22.71 0 M5.24 0 C9.05 0.12, 12.92 -0.06, 22.71 0 M22.71 0 C25.93 -0.34, 27.32 3.07, 27.95 5.24 M22.71 0 C25.87 1.75, 27.22 3.25, 27.95 5.24 M27.95 5.24 C27.85 8.12, 28.75 12.7, 27.95 15.71 M27.95 5.24 C27.8 8.51, 27.71 12.03, 27.95 15.71 M27.95 15.71 C26.87 17.4, 27.84 21.05, 22.71 20.95 M27.95 15.71 C28.98 17.29, 24.57 18.79, 22.71 20.95 M22.71 20.95 C17.3 21.35, 10.86 20.46, 5.24 20.95 M22.71 20.95 C19.72 21.61, 14.74 20.75, 5.24 20.95 M5.24 20.95 C2.7 20.81, 0.35 20.74, 0 15.71 M5.24 20.95 C0.28 19.27, -1.62 20.28, 0 15.71 M0 15.71 C0.43 13.97, -0.98 10.41, 0 5.24 M0 15.71 C0.42 12.38, 0.5 9.39, 0 5.24 M0 5.24 C0.47 -0.12, -0.07 -1, 5.24 0 M0 5.24 C-1.11 -0.2, 1.19 -0.49, 5.24 0" stroke="#1e1e1e" stroke-width="2" fill="none"></path></g><g stroke-linecap="round" transform="translate(27.939453125 38.740472132401806) rotate(269.315648468081 25.4296875 23.859375)"><path d="M17.95 0.66 C22.93 -1.07, 30.11 -0.63, 35.17 1.49 C40.22 3.61, 45.91 8.86, 48.28 13.38 C50.66 17.9, 50.64 23.84, 49.42 28.59 C48.2 33.35, 45.05 38.62, 40.97 41.91 C36.88 45.21, 30.47 48.28, 24.93 48.37 C19.39 48.47, 11.99 45.95, 7.73 42.48 C3.48 39, 0.21 32.86, -0.59 27.51 C-1.4 22.16, -1.03 15.04, 2.88 10.39 C6.78 5.73, 18.59 1.24, 22.85 -0.4 C27.1 -2.05, 28.33 -0.03, 28.41 0.51 M36.9 2.41 C41.61 4.93, 47.46 11.68, 49.74 16.48 C52.02 21.28, 52.61 26.71, 50.58 31.22 C48.55 35.73, 42.28 40.89, 37.57 43.53 C32.85 46.18, 27.43 47.8, 22.27 47.1 C17.1 46.41, 10.24 43.31, 6.58 39.36 C2.91 35.42, 0.38 28.72, 0.28 23.43 C0.18 18.14, 2.53 11.48, 5.97 7.64 C9.42 3.8, 15.49 1.32, 20.95 0.39 C26.41 -0.54, 35.92 1.37, 38.72 2.03 C41.52 2.69, 38.02 4.03, 37.76 4.36" stroke="none" stroke-width="0" fill="#eaddd7"></path><path d="M18.56 0.4 C23.56 -1.26, 30.97 -1.09, 35.91 1.05 C40.86 3.19, 45.9 8.53, 48.23 13.23 C50.57 17.94, 51.14 24.32, 49.94 29.28 C48.75 34.24, 45.32 39.99, 41.07 43 C36.82 46.01, 29.89 47.57, 24.45 47.34 C19.01 47.12, 12.51 45.08, 8.44 41.64 C4.37 38.21, 0.74 32.06, 0.04 26.73 C-0.66 21.41, 0.04 14.16, 4.25 9.7 C8.45 5.23, 20.89 1.32, 25.28 -0.05 C29.68 -1.42, 30.8 1.11, 30.6 1.46 M26.83 -1.26 C32.36 -1.34, 40.53 3.43, 44.63 7.06 C48.73 10.69, 51.34 15.68, 51.43 20.52 C51.53 25.37, 48.32 31.65, 45.2 36.13 C42.08 40.61, 37.94 45.75, 32.71 47.4 C27.49 49.05, 18.84 48.24, 13.86 46.04 C8.88 43.83, 5.04 39.12, 2.82 34.16 C0.6 29.2, -0.71 21.32, 0.53 16.28 C1.77 11.23, 5.59 6.41, 10.28 3.91 C14.97 1.42, 26.01 1.92, 28.66 1.31 C31.32 0.71, 26.31 0.13, 26.22 0.31" stroke="#1e1e1e" stroke-width="2" fill="none"></path></g></svg>