<svg version="1.1" xmlns="http://www.w3.org/2000/svg" viewBox="0 0 106.68100249304918 127.12357954545405" width="106.68100249304918" height="127.12357954545405">
  <!-- svg-source:excalidraw -->
  
  <defs>
    <style class="style-fonts">
      @font-face {
        font-family: "Virgil";
        src: url("https://excalidraw.com/Virgil.woff2");
      }
      @font-face {
        font-family: "Cascadia";
        src: url("https://excalidraw.com/Cascadia.woff2");
      }
      @font-face {
        font-family: "Assistant";
        src: url("https://excalidraw.com/Assistant-Regular.woff2");
      }
    </style>
    
  </defs>
  <g stroke-linecap="round" transform="translate(11.419283743049178 24.85274621212011) rotate(0 42.630859375 38.322265625)"><path d="M19.16 0 C32.16 -0.14, 50.57 1.56, 66.1 0 C79.12 3.3, 87.7 4.98, 85.26 19.16 C87.24 26.91, 87.82 35.63, 85.26 57.48 C83.66 69.55, 79.29 77.79, 66.1 76.64 C57.41 80.22, 44.44 77.95, 19.16 76.64 C5.26 76.54, 1.56 67.22, 0 57.48 C-0.26 45.26, -1.16 35.77, 0 19.16 C-1.79 6.8, 9.68 0.58, 19.16 0" stroke="none" stroke-width="0" fill="#e64980"></path><path d="M19.16 0 C36.42 0.27, 50.63 1.35, 66.1 0 M19.16 0 C30.43 0.76, 42.29 -0.98, 66.1 0 M66.1 0 C80.51 0.11, 86.16 4.72, 85.26 19.16 M66.1 0 C77.24 -2.16, 86.32 7.16, 85.26 19.16 M85.26 19.16 C85.68 28.09, 83.51 37.17, 85.26 57.48 M85.26 19.16 C84.61 29.44, 86 40, 85.26 57.48 M85.26 57.48 C85.61 71.79, 77.6 75.19, 66.1 76.64 M85.26 57.48 C83.65 71.34, 77.64 77.35, 66.1 76.64 M66.1 76.64 C51.21 76.75, 39.56 75.64, 19.16 76.64 M66.1 76.64 C51.49 75.43, 35.45 75.36, 19.16 76.64 M19.16 76.64 C4.57 75.64, -0.97 68.57, 0 57.48 M19.16 76.64 C5.83 76.16, 0.84 72.55, 0 57.48 M0 57.48 C-0.3 45.37, 2.15 32.97, 0 19.16 M0 57.48 C0.71 46.38, 0.43 35.56, 0 19.16 M0 19.16 C0.37 5.03, 6.95 -1.79, 19.16 0 M0 19.16 C0.85 6.26, 8.11 -1.34, 19.16 0" stroke="#1e1e1e" stroke-width="2" fill="none"></path></g><g stroke-linecap="round" transform="translate(35.288276404034164 102.14701704545405) rotate(0 19.283203125 7.48828125)"><path d="M3.74 0 C15.24 1.42, 25.94 2.35, 34.82 0 C39.08 -1.01, 36.93 3.25, 38.57 3.74 C39.15 5.52, 38.17 8.02, 38.57 11.23 C38.87 14.56, 36.27 13.58, 34.82 14.98 C26.97 16.21, 14.37 15.29, 3.74 14.98 C2.37 12.78, 0.67 16.03, 0 11.23 C-0.16 9.99, -0.49 7.1, 0 3.74 C2.38 1.66, 2.89 2.5, 3.74 0" stroke="none" stroke-width="0" fill="#868e96"></path><path d="M3.74 0 C10.47 0.49, 16.64 -0.37, 34.82 0 M3.74 0 C13.34 -0.58, 23.88 -0.1, 34.82 0 M34.82 0 C37.77 -0.83, 37.86 0.31, 38.57 3.74 M34.82 0 C37.85 0.38, 37.93 1.67, 38.57 3.74 M38.57 3.74 C38.22 6.07, 38.47 8.93, 38.57 11.23 M38.57 3.74 C38.62 6.59, 38.56 9.6, 38.57 11.23 M38.57 11.23 C37.93 13, 36.62 15.45, 34.82 14.98 M38.57 11.23 C37.95 14.08, 37.07 15.49, 34.82 14.98 M34.82 14.98 C22.81 14.27, 11.48 15.62, 3.74 14.98 M34.82 14.98 C27.97 14.38, 20.42 14.59, 3.74 14.98 M3.74 14.98 C0.76 14.13, -0.24 13.52, 0 11.23 M3.74 14.98 C1.67 16.12, 0.44 12.63, 0 11.23 M0 11.23 C0.35 9.6, -0.05 7.16, 0 3.74 M0 11.23 C0.01 9.29, 0.02 7.3, 0 3.74 M0 3.74 C0.28 0.35, 1.62 -0.05, 3.74 0 M0 3.74 C0.86 0.58, 1.56 0.79, 3.74 0" stroke="#1e1e1e" stroke-width="2" fill="none"></path></g><g stroke-linecap="round" transform="translate(35.474148799867194 10) rotate(0 19.283203125 7.48828125)"><path d="M3.74 0 C13.52 2.16, 24.7 -1.24, 34.82 0 C35.68 2, 38.52 2.29, 38.57 3.74 C38.19 5.52, 38.73 7.99, 38.57 11.23 C37.52 12.33, 37.73 17.51, 34.82 14.98 C21.71 15.03, 11.35 12.91, 3.74 14.98 C1.91 17.28, -0.43 13.98, 0 11.23 C-0.47 9.04, 0.91 6.79, 0 3.74 C1.64 3.75, 1.38 1.91, 3.74 0" stroke="none" stroke-width="0" fill="#868e96"></path><path d="M3.74 0 C12.38 -0.46, 22.16 -0.64, 34.82 0 M3.74 0 C16.09 0.17, 27.85 -0.28, 34.82 0 M34.82 0 C36.61 -0.94, 39.03 1.58, 38.57 3.74 M34.82 0 C36.68 0.42, 38.9 1.41, 38.57 3.74 M38.57 3.74 C38.43 6.08, 38.84 7.56, 38.57 11.23 M38.57 3.74 C38.62 6.01, 38.47 7.84, 38.57 11.23 M38.57 11.23 C37.86 14.2, 36.78 15.28, 34.82 14.98 M38.57 11.23 C38.32 14.24, 38.24 13.93, 34.82 14.98 M34.82 14.98 C26.21 15.54, 16.27 15.69, 3.74 14.98 M34.82 14.98 C27.7 14.58, 21.25 14.41, 3.74 14.98 M3.74 14.98 C1.01 14.77, 0.36 14.73, 0 11.23 M3.74 14.98 C1.69 13.88, -0.53 13.35, 0 11.23 M0 11.23 C-0.09 8.39, -0.2 6.26, 0 3.74 M0 11.23 C0.03 9.03, 0.05 6.92, 0 3.74 M0 3.74 C0.37 1.19, 2 -0.58, 3.74 0 M0 3.74 C0.32 2.04, 1.87 -0.76, 3.74 0" stroke="#343a40" stroke-width="2" fill="none"></path></g><g stroke-linecap="round" transform="translate(13.186373760761413 77.88930397172862) rotate(312.47556431009303 13.974609375 10.47265625)"><path d="M5.24 0 C13.59 -1.52, 15.71 2.14, 22.71 0 C26.14 1.45, 26.61 3.77, 27.95 5.24 C28.08 8.48, 27.11 9.51, 27.95 15.71 C28.52 22.7, 29.65 23.66, 22.71 20.95 C18.26 18.28, 11.9 23.72, 5.24 20.95 C1.15 21.29, 0.26 18.65, 0 15.71 C1.82 11.92, 1.28 9.35, 0 5.24 C0.19 4.39, 0.47 2.83, 5.24 0" stroke="none" stroke-width="0" fill="#eaddd7"></path><path d="M5.24 0 C11.61 -0.91, 18.86 -0.88, 22.71 0 M5.24 0 C9.3 -0.74, 11.95 -0.83, 22.71 0 M22.71 0 C27.12 0.67, 26.84 2.48, 27.95 5.24 M22.71 0 C26.87 0.32, 27.44 -0.43, 27.95 5.24 M27.95 5.24 C28.78 7.04, 27.74 11.25, 27.95 15.71 M27.95 5.24 C27.63 7.92, 27.6 11.62, 27.95 15.71 M27.95 15.71 C26.88 19.81, 25.77 21.83, 22.71 20.95 M27.95 15.71 C29.79 17.11, 25.89 20.49, 22.71 20.95 M22.71 20.95 C17.35 22.5, 13.14 21.47, 5.24 20.95 M22.71 20.95 C18.68 20.12, 15.28 20.67, 5.24 20.95 M5.24 20.95 C2.47 22.94, 0.76 17.29, 0 15.71 M5.24 20.95 C0.68 20.18, 0.97 21.25, 0 15.71 M0 15.71 C-0.46 12.28, -0.23 8.12, 0 5.24 M0 15.71 C0.13 12.29, 0.18 9.79, 0 5.24 M0 5.24 C1.5 0.58, 2.29 1.38, 5.24 0 M0 5.24 C1.25 0.23, 1.95 0.43, 5.24 0" stroke="#1e1e1e" stroke-width="2" fill="none"></path></g><g stroke-linecap="round" transform="translate(27.84276802330625 37.022564965653146) rotate(312.47556431009303 25.4296875 23.859375)"><path d="M20.46 1.34 C25.45 -0.27, 32.04 -0.46, 36.68 1.79 C41.33 4.04, 46.18 9.99, 48.32 14.83 C50.47 19.68, 51.08 25.99, 49.56 30.85 C48.04 35.71, 43.84 41.15, 39.21 43.98 C34.58 46.81, 27.32 48.4, 21.79 47.84 C16.26 47.28, 9.67 44.24, 6.03 40.6 C2.4 36.96, 0.25 31.11, -0.01 25.99 C-0.28 20.87, 0.9 14.05, 4.45 9.88 C8 5.71, 18.5 2.49, 21.26 0.98 C24.02 -0.53, 21.01 0.44, 21.01 0.83 M25.7 -0.93 C30.85 -1.24, 39.33 2.6, 43.58 6.08 C47.83 9.56, 50.5 15, 51.21 19.95 C51.92 24.9, 50.95 31.38, 47.86 35.77 C44.76 40.15, 37.94 44.46, 32.65 46.25 C27.36 48.03, 21.15 48.47, 16.11 46.47 C11.06 44.48, 4.94 38.63, 2.39 34.28 C-0.17 29.93, -0.68 25.07, 0.79 20.39 C2.25 15.71, 6.85 9.68, 11.18 6.21 C15.51 2.73, 24.27 0.39, 26.77 -0.46 C29.28 -1.3, 26.53 0.6, 26.22 1.14" stroke="none" stroke-width="0" fill="#eaddd7"></path><path d="M18.71 1.31 C23.63 -0.53, 30.37 -0.68, 35.17 1.45 C39.96 3.57, 44.92 9.43, 47.46 14.07 C49.99 18.71, 51.53 24.38, 50.38 29.3 C49.23 34.22, 45.01 40.57, 40.54 43.59 C36.07 46.61, 29.2 47.94, 23.55 47.42 C17.9 46.91, 10.59 43.93, 6.64 40.49 C2.69 37.06, 0.07 31.99, -0.16 26.81 C-0.38 21.63, 1.47 13.79, 5.3 9.42 C9.13 5.05, 19.16 2.04, 22.82 0.59 C26.49 -0.86, 27.1 0.51, 27.3 0.72 M15.56 2.02 C20.4 0, 27.95 0.61, 33.44 1.98 C38.92 3.35, 45.64 6.03, 48.46 10.25 C51.27 14.48, 51.57 22, 50.33 27.34 C49.1 32.69, 44.96 39.13, 41.04 42.33 C37.12 45.54, 31.89 46.79, 26.82 46.58 C21.75 46.37, 14.96 44.36, 10.62 41.09 C6.29 37.82, 2.27 31.89, 0.81 26.96 C-0.65 22.03, -0.62 15.94, 1.85 11.5 C4.32 7.05, 13.25 1.93, 15.64 0.3 C18.03 -1.33, 15.82 0.86, 16.18 1.7" stroke="#1e1e1e" stroke-width="2" fill="none"></path></g></svg>