<svg version="1.1" xmlns="http://www.w3.org/2000/svg" viewBox="0 0 107.63022124304919 127.12357954545405" width="107.63022124304919" height="127.12357954545405">
  <!-- svg-source:excalidraw -->
  
  <defs>
    <style class="style-fonts">
      @font-face {
        font-family: "Virgil";
        src: url("https://excalidraw.com/Virgil.woff2");
      }
      @font-face {
        font-family: "Cascadia";
        src: url("https://excalidraw.com/Cascadia.woff2");
      }
      @font-face {
        font-family: "Assistant";
        src: url("https://excalidraw.com/Assistant-Regular.woff2");
      }
    </style>
    
  </defs>
  <g stroke-linecap="round" transform="translate(10 24.85274621212102) rotate(0 42.630859375 38.322265625)"><path d="M19.16 0 C31.85 0.91, 51.92 3.78, 66.1 0 C81.59 1.17, 84.13 6.28, 85.26 19.16 C87.86 31.72, 85.03 45.72, 85.26 57.48 C84.71 73.5, 77.08 77.06, 66.1 76.64 C51.19 77.36, 31.98 75.9, 19.16 76.64 C9.22 73.49, 1.23 68.9, 0 57.48 C2.01 48.51, 0.36 41.26, 0 19.16 C-2.6 5.37, 3.64 -2.01, 19.16 0" stroke="none" stroke-width="0" fill="#e64980"></path><path d="M19.16 0 C36.13 0.84, 51.92 -0.18, 66.1 0 M19.16 0 C29.49 0.94, 37.54 -0.04, 66.1 0 M66.1 0 C79.83 -0.14, 85.61 7.92, 85.26 19.16 M66.1 0 C77.41 -1.68, 83.65 7.47, 85.26 19.16 M85.26 19.16 C86.27 30.21, 83.56 37.77, 85.26 57.48 M85.26 19.16 C85.66 29.14, 85.82 39.78, 85.26 57.48 M85.26 57.48 C85.73 68.39, 77.06 75.64, 66.1 76.64 M85.26 57.48 C84.15 68.32, 78.32 76.16, 66.1 76.64 M66.1 76.64 C48.4 75.89, 33.86 77.67, 19.16 76.64 M66.1 76.64 C47.09 76.11, 30 76.34, 19.16 76.64 M19.16 76.64 C6.68 76.27, 0.37 68.9, 0 57.48 M19.16 76.64 C7.04 74.58, 0.85 70.13, 0 57.48 M0 57.48 C1.6 44.2, -1.09 28.92, 0 19.16 M0 57.48 C0.7 45.95, -0.61 32.43, 0 19.16 M0 19.16 C1.54 6.35, 7.19 -0.74, 19.16 0 M0 19.16 C1.29 5.3, 5.37 -0.45, 19.16 0" stroke="#1e1e1e" stroke-width="2" fill="none"></path></g><g stroke-linecap="round" transform="translate(33.868992660984986 102.14701704545405) rotate(0 19.283203125 7.48828125)"><path d="M3.74 0 C14.34 2.42, 21.85 0.78, 34.82 0 C36.5 -0.08, 39.69 -0.95, 38.57 3.74 C38.75 6.25, 38.5 9.5, 38.57 11.23 C37.27 14.03, 39.7 15.39, 34.82 14.98 C25.45 14.08, 14.31 12.72, 3.74 14.98 C2.14 14, -1.69 13.49, 0 11.23 C0.03 10, -0.76 7.52, 0 3.74 C-1.98 -0.2, 0.28 -2.54, 3.74 0" stroke="none" stroke-width="0" fill="#868e96"></path><path d="M3.74 0 C11.48 -0.27, 18 -0.41, 34.82 0 M3.74 0 C11.77 -0.21, 20.94 -0.16, 34.82 0 M34.82 0 C37.49 0.77, 37.93 0.52, 38.57 3.74 M34.82 0 C36.51 0.54, 37.95 1.6, 38.57 3.74 M38.57 3.74 C38.24 5.78, 38.51 7.66, 38.57 11.23 M38.57 3.74 C38.75 6.05, 38.64 8.5, 38.57 11.23 M38.57 11.23 C37.66 13.23, 36.84 14.13, 34.82 14.98 M38.57 11.23 C38.29 13.49, 37.74 16.12, 34.82 14.98 M34.82 14.98 C23.98 15.33, 14.7 15.6, 3.74 14.98 M34.82 14.98 C26.22 14.79, 17.26 14.81, 3.74 14.98 M3.74 14.98 C1.43 14.3, 0.28 12.83, 0 11.23 M3.74 14.98 C1.68 14.91, 0.86 13.06, 0 11.23 M0 11.23 C-0.27 8.81, 0.04 6.54, 0 3.74 M0 11.23 C-0.11 8.82, 0.11 6.64, 0 3.74 M0 3.74 C0.4 0.88, 1.81 -0.47, 3.74 0 M0 3.74 C-0.51 1.02, 1.38 0.37, 3.74 0" stroke="#1e1e1e" stroke-width="2" fill="none"></path></g><g stroke-linecap="round" transform="translate(34.05486505681802 10) rotate(0 19.283203125 7.48828125)"><path d="M3.74 0 C15.52 0.46, 22.56 -0.46, 34.82 0 C38.44 -2.2, 39.23 3.55, 38.57 3.74 C38.43 6.75, 38.09 8.1, 38.57 11.23 C40.95 14.15, 38.96 17.48, 34.82 14.98 C27.38 12.55, 16.74 13.85, 3.74 14.98 C-0.44 14.73, -1.84 15.13, 0 11.23 C-0.71 8.7, -0.75 6.18, 0 3.74 C-0.96 -1.3, 3.5 0.6, 3.74 0" stroke="none" stroke-width="0" fill="#868e96"></path><path d="M3.74 0 C13.02 -0.33, 23.91 0.72, 34.82 0 M3.74 0 C15.84 -0.01, 27.55 0.41, 34.82 0 M34.82 0 C36.68 -0.73, 37.86 1.72, 38.57 3.74 M34.82 0 C36.7 0.35, 38.32 1.76, 38.57 3.74 M38.57 3.74 C38.46 6.33, 38.64 9.69, 38.57 11.23 M38.57 3.74 C38.64 5.25, 38.43 7.01, 38.57 11.23 M38.57 11.23 C38.08 12.88, 37.08 14.77, 34.82 14.98 M38.57 11.23 C38.98 14.88, 37.76 13.88, 34.82 14.98 M34.82 14.98 C27.83 15.74, 18.9 14.3, 3.74 14.98 M34.82 14.98 C26.99 14.85, 19.11 14.6, 3.74 14.98 M3.74 14.98 C1.53 14.08, 0.37 13.67, 0 11.23 M3.74 14.98 C2.11 14.31, 0.32 14.52, 0 11.23 M0 11.23 C0.09 8.79, 0.05 6.27, 0 3.74 M0 11.23 C0.16 8.48, 0.09 5.66, 0 3.74 M0 3.74 C0.56 0.77, 0.8 -0.2, 3.74 0 M0 3.74 C0.13 1.62, 0.78 -0.62, 3.74 0" stroke="#343a40" stroke-width="2" fill="none"></path></g><g stroke-linecap="round" transform="translate(66.49462873228777 79.49309861458823) rotate(47.524435689906944 13.974609375 10.47265625)"><path d="M5.24 0 C11.16 -0.19, 20.42 -2.76, 22.71 0 C27.13 3.19, 27.36 2.09, 27.95 5.24 C26.98 8.67, 29.65 11.97, 27.95 15.71 C30.22 22.67, 26.39 23.59, 22.71 20.95 C19.16 19.49, 11.42 20.38, 5.24 20.95 C-0.8 22.89, 0.03 19.49, 0 15.71 C-1.3 11, -0.56 6.55, 0 5.24 C3.12 2.57, 2.79 0.21, 5.24 0" stroke="none" stroke-width="0" fill="#eaddd7"></path><path d="M5.24 0 C9.61 1.26, 16.37 -1.53, 22.71 0 M5.24 0 C10.33 0.68, 14.57 -0.62, 22.71 0 M22.71 0 C24.8 0.94, 26.88 2.35, 27.95 5.24 M22.71 0 C25.71 1.02, 29.79 -0.34, 27.95 5.24 M27.95 5.24 C28.23 8.93, 27.14 12.1, 27.95 15.71 M27.95 5.24 C27.5 7.22, 27.72 9.29, 27.95 15.71 M27.95 15.71 C27.46 18.78, 26.93 22.94, 22.71 20.95 M27.95 15.71 C28.82 17, 25.13 20.18, 22.71 20.95 M22.71 20.95 C16.45 19.76, 9.95 21.8, 5.24 20.95 M22.71 20.95 C18.04 20.32, 13.28 20.13, 5.24 20.95 M5.24 20.95 C2.49 20.84, 1.5 18.03, 0 15.71 M5.24 20.95 C2.38 22.53, 1.25 17.69, 0 15.71 M0 15.71 C0.05 13.44, 0.69 8.83, 0 5.24 M0 15.71 C0.13 13.03, 0.21 10.49, 0 5.24 M0 5.24 C-0.89 1.35, 1.98 0.64, 5.24 0 M0 5.24 C-0.93 0.51, 2.11 2.24, 5.24 0" stroke="#1e1e1e" stroke-width="2" fill="none"></path></g><g stroke-linecap="round" transform="translate(28.665801434028708 38.2658685370825) rotate(47.524435689906944 25.4296875 23.859375)"><path d="M28.25 0.31 C33.34 0.68, 40.7 4.48, 44.47 8.41 C48.25 12.34, 50.62 18.94, 50.91 23.89 C51.19 28.84, 49.64 34.1, 46.18 38.11 C42.72 42.12, 35.59 46.75, 30.15 47.96 C24.71 49.16, 18.3 47.78, 13.53 45.36 C8.75 42.93, 3.63 38.29, 1.5 33.41 C-0.63 28.54, -0.95 21.04, 0.75 16.1 C2.45 11.16, 6.56 6.42, 11.71 3.77 C16.85 1.13, 28.07 0.55, 31.6 0.24 C35.13 -0.08, 32.88 1.26, 32.89 1.87 M34.76 2.33 C39.4 3.98, 43.72 8.56, 46.54 12.91 C49.36 17.25, 52.53 23.46, 51.66 28.42 C50.8 33.38, 45.89 39.23, 41.36 42.67 C36.83 46.11, 30.07 49.2, 24.48 49.06 C18.88 48.93, 11.6 45.45, 7.79 41.87 C3.98 38.28, 2.16 32.42, 1.64 27.57 C1.13 22.73, 2.08 17, 4.72 12.79 C7.36 8.58, 12.57 3.97, 17.49 2.32 C22.42 0.66, 31.64 2.81, 34.27 2.86 C36.91 2.91, 33.46 2.63, 33.3 2.64" stroke="none" stroke-width="0" fill="#eaddd7"></path><path d="M14.17 2.6 C18.84 0.01, 27.13 -1.02, 32.31 0.06 C37.49 1.15, 42.09 4.95, 45.25 9.1 C48.41 13.25, 51.47 19.77, 51.27 24.95 C51.07 30.13, 47.84 36.28, 44.06 40.19 C40.27 44.1, 34.19 47.83, 28.57 48.39 C22.95 48.94, 14.97 46.63, 10.34 43.53 C5.71 40.42, 2.11 34.56, 0.8 29.78 C-0.51 25.01, -0.81 19.63, 2.47 14.86 C5.75 10.09, 16.29 3.48, 20.5 1.15 C24.7 -1.18, 27.65 0.79, 27.69 0.9 M18.76 0.43 C23.9 -0.61, 31.91 1.82, 36.98 3.84 C42.04 5.87, 47.12 8.26, 49.16 12.58 C51.21 16.91, 50.68 24.41, 49.22 29.79 C47.76 35.17, 44.63 41.96, 40.42 44.89 C36.21 47.82, 29.69 48.2, 23.98 47.36 C18.26 46.52, 10.01 43.53, 6.13 39.86 C2.25 36.19, 0.9 30.36, 0.7 25.33 C0.51 20.3, 1.86 13.94, 4.98 9.68 C8.09 5.41, 16.95 1.36, 19.39 -0.27 C21.84 -1.91, 19.52 -0.68, 19.67 -0.14" stroke="#1e1e1e" stroke-width="2" fill="none"></path></g></svg>