<svg version="1.1" xmlns="http://www.w3.org/2000/svg" viewBox="0 0 105.26171875 129.25250880672763" width="105.26171875" height="129.25250880672763">
  <!-- svg-source:excalidraw -->
  
  <defs>
    <style class="style-fonts">
      @font-face {
        font-family: "Virgil";
        src: url("https://excalidraw.com/Virgil.woff2");
      }
      @font-face {
        font-family: "Cascadia";
        src: url("https://excalidraw.com/Cascadia.woff2");
      }
      @font-face {
        font-family: "Assistant";
        src: url("https://excalidraw.com/Assistant-Regular.woff2");
      }
    </style>
    
  </defs>
  <g stroke-linecap="round" transform="translate(10 24.85274621212102) rotate(0 42.630859375 38.322265625)"><path d="M19.16 0 C31.35 0.8, 42.32 1.37, 66.1 0 C77.17 -1.6, 84.56 6.81, 85.26 19.16 C85.56 35.38, 88.43 47.32, 85.26 57.48 C86.43 69.13, 78.77 78.2, 66.1 76.64 C55.39 77.74, 46.12 76.84, 19.16 76.64 C9.63 74.85, 0.41 73.55, 0 57.48 C-0.25 48.02, -1.71 36.09, 0 19.16 C-3.16 7.62, 5.03 -2.34, 19.16 0" stroke="none" stroke-width="0" fill="#e64980"></path><path d="M19.16 0 C28.81 1.89, 42.17 1.15, 66.1 0 M19.16 0 C29.8 0.77, 38.96 0.81, 66.1 0 M66.1 0 C79.45 0.28, 84.82 4.5, 85.26 19.16 M66.1 0 C78.03 -0.63, 86.84 8.27, 85.26 19.16 M85.26 19.16 C85.06 27.51, 86.73 33.9, 85.26 57.48 M85.26 19.16 C84.46 28.17, 84.78 37.01, 85.26 57.48 M85.26 57.48 C86.87 68.44, 78.6 76.25, 66.1 76.64 M85.26 57.48 C83.67 70.92, 80.41 74.91, 66.1 76.64 M66.1 76.64 C46.28 74.94, 29.19 75.79, 19.16 76.64 M66.1 76.64 C56.34 77.54, 46.24 75.59, 19.16 76.64 M19.16 76.64 C5.46 75.98, 0.85 72.04, 0 57.48 M19.16 76.64 C7.99 76.27, -1.72 69.2, 0 57.48 M0 57.48 C-0.29 44.74, -1.27 31.84, 0 19.16 M0 57.48 C0.61 48.84, 0.13 42.05, 0 19.16 M0 19.16 C1.09 5.07, 6.56 0.37, 19.16 0 M0 19.16 C1.29 6.54, 8.5 1.56, 19.16 0" stroke="#1e1e1e" stroke-width="2" fill="none"></path></g><g stroke-linecap="round" transform="translate(33.86899266098453 102.14701704545496) rotate(0 19.283203125 7.48828125)"><path d="M3.74 0 C14.5 1.3, 25.95 -1.32, 34.82 0 C36.81 0.3, 39.4 0.2, 38.57 3.74 C39.51 6.32, 38.9 7.13, 38.57 11.23 C38.49 14.85, 35.12 15.64, 34.82 14.98 C22.93 14.62, 13.02 13.72, 3.74 14.98 C1.55 17.36, 0.42 15.37, 0 11.23 C-0.35 9.03, -0.86 5.63, 0 3.74 C-0.98 -0.44, 1 -1.84, 3.74 0" stroke="none" stroke-width="0" fill="#868e96"></path><path d="M3.74 0 C11.45 0.32, 18.21 -0.84, 34.82 0 M3.74 0 C9.88 0.13, 16.71 0.02, 34.82 0 M34.82 0 C37.1 -0.95, 38.2 0.98, 38.57 3.74 M34.82 0 C38.11 0.94, 37.52 1.05, 38.57 3.74 M38.57 3.74 C38.85 6.11, 38.29 8.69, 38.57 11.23 M38.57 3.74 C38.51 6.43, 38.7 8.77, 38.57 11.23 M38.57 11.23 C38.43 13.53, 36.63 15.27, 34.82 14.98 M38.57 11.23 C39.33 12.86, 38.27 13.99, 34.82 14.98 M34.82 14.98 C24.27 14.35, 13.87 14.59, 3.74 14.98 M34.82 14.98 C26.35 14.65, 17.26 14.97, 3.74 14.98 M3.74 14.98 C1.67 15.87, 0.7 13.56, 0 11.23 M3.74 14.98 C0.39 14.45, 0.48 13.46, 0 11.23 M0 11.23 C-0.25 8.98, -0.33 6.66, 0 3.74 M0 11.23 C0.02 9.16, 0.07 6.7, 0 3.74 M0 3.74 C0.09 1.44, 1.81 0.07, 3.74 0 M0 3.74 C1.06 2.03, 0.8 -0.72, 3.74 0" stroke="#1e1e1e" stroke-width="2" fill="none"></path></g><g stroke-linecap="round" transform="translate(34.05486505681802 10) rotate(0 19.283203125 7.48828125)"><path d="M3.74 0 C13.08 -1.38, 24.38 0.07, 34.82 0 C38.15 -1.05, 37.17 1.66, 38.57 3.74 C38.98 6.41, 38.63 10.11, 38.57 11.23 C36.37 14.39, 39.62 14.55, 34.82 14.98 C27.54 13.62, 15.87 17.3, 3.74 14.98 C1.66 16.61, 2.5 13.86, 0 11.23 C-0.82 8.77, -0.33 5.01, 0 3.74 C-0.24 -0.59, 2.65 0.02, 3.74 0" stroke="none" stroke-width="0" fill="#868e96"></path><path d="M3.74 0 C14.77 -0.78, 26.53 0.39, 34.82 0 M3.74 0 C14.25 0.01, 24.36 -0.53, 34.82 0 M34.82 0 C36.95 -0.27, 39.25 2.06, 38.57 3.74 M34.82 0 C36.27 -0.2, 39.12 1.17, 38.57 3.74 M38.57 3.74 C38.32 5.86, 38.77 8.3, 38.57 11.23 M38.57 3.74 C38.71 6.05, 38.53 8.66, 38.57 11.23 M38.57 11.23 C37.88 14.02, 37.98 14.22, 34.82 14.98 M38.57 11.23 C39.52 12.74, 37.59 13.9, 34.82 14.98 M34.82 14.98 C27.48 14.66, 21.61 15.26, 3.74 14.98 M34.82 14.98 C22.17 14.66, 10.19 15.27, 3.74 14.98 M3.74 14.98 C1.94 14.81, -0.75 13.27, 0 11.23 M3.74 14.98 C1.73 14.71, 0.17 13.51, 0 11.23 M0 11.23 C-0.31 8.99, 0 6.75, 0 3.74 M0 11.23 C0.09 9.3, 0.01 7.65, 0 3.74 M0 3.74 C0.56 1.32, 2.17 0.68, 3.74 0 M0 3.74 C-0.45 0.53, 2.13 -0.02, 3.74 0" stroke="#343a40" stroke-width="2" fill="none"></path></g><g stroke-linecap="round" transform="translate(39.659724954542526 94.68115560864226) rotate(90.684351531919 13.974609375 10.47265625)"><path d="M5.24 0 C10.85 0.51, 18.69 -1.13, 22.71 0 C24.27 0.57, 31.45 5.19, 27.95 5.24 C27.96 9.98, 26.42 13.58, 27.95 15.71 C31.13 18.61, 26.55 21.2, 22.71 20.95 C18.1 23.67, 13.26 22.77, 5.24 20.95 C5.21 21.13, 2.64 17.93, 0 15.71 C-0.54 10.52, -0.01 6.45, 0 5.24 C1.94 1.78, 2.04 1.78, 5.24 0" stroke="none" stroke-width="0" fill="#eaddd7"></path><path d="M5.24 0 C9.62 0.93, 17.87 -0.85, 22.71 0 M5.24 0 C10.92 -0.85, 16.68 -0.26, 22.71 0 M22.71 0 C27.58 1.63, 26.13 1.4, 27.95 5.24 M22.71 0 C27.3 -0.16, 28.35 3.51, 27.95 5.24 M27.95 5.24 C28.36 7.15, 28.19 9.96, 27.95 15.71 M27.95 5.24 C27.96 8.74, 27.67 12.6, 27.95 15.71 M27.95 15.71 C29.28 17.69, 27.85 19.23, 22.71 20.95 M27.95 15.71 C28.49 17.05, 24.11 19.79, 22.71 20.95 M22.71 20.95 C17.95 21.54, 15.66 21.57, 5.24 20.95 M22.71 20.95 C19.51 21.67, 16.17 20.74, 5.24 20.95 M5.24 20.95 C0.25 20.03, 0.84 18.74, 0 15.71 M5.24 20.95 C2.08 20.51, 0.42 17.64, 0 15.71 M0 15.71 C0.04 13.06, -0.52 9.12, 0 5.24 M0 15.71 C-0.01 11.95, 0.24 8.02, 0 5.24 M0 5.24 C1.84 3.1, 0.96 -1.26, 5.24 0 M0 5.24 C1.77 1.71, 2.67 -0.86, 5.24 0" stroke="#1e1e1e" stroke-width="2" fill="none"></path></g><g stroke-linecap="round" transform="translate(28.01032366071422 42.94563042432492) rotate(90.684351531919 25.4296875 23.859375)"><path d="M26.6 0.35 C31.67 0.43, 38.24 3.48, 42.25 7.12 C46.27 10.76, 50.07 17.12, 50.67 22.19 C51.28 27.26, 48.82 33.34, 45.88 37.54 C42.95 41.73, 38.31 45.99, 33.05 47.36 C27.8 48.72, 19.41 47.81, 14.36 45.72 C9.3 43.62, 4.98 39.28, 2.73 34.81 C0.47 30.35, -0.57 24.05, 0.84 18.93 C2.26 13.82, 6.37 7.07, 11.22 4.12 C16.08 1.18, 26.24 1.59, 29.98 1.27 C33.72 0.95, 33.7 1.84, 33.66 2.2 M19.63 1.15 C24.59 -0.38, 31.24 -0.75, 36.13 1.68 C41.03 4.12, 46.45 10.76, 48.97 15.77 C51.49 20.78, 52.76 27.15, 51.26 31.73 C49.76 36.31, 44.77 40.52, 39.99 43.26 C35.2 46.01, 28.26 48.65, 22.55 48.22 C16.84 47.79, 9.27 44.55, 5.75 40.7 C2.22 36.84, 1.48 30.26, 1.38 25.11 C1.27 19.96, 2.13 13.65, 5.11 9.81 C8.08 5.96, 16.94 3.44, 19.22 2.02 C21.51 0.6, 18.46 1.1, 18.82 1.3" stroke="none" stroke-width="0" fill="#eaddd7"></path><path d="M18.61 0.69 C23.28 -1.04, 29.97 -0.53, 34.87 1.71 C39.78 3.95, 45.36 9.62, 48.03 14.13 C50.71 18.64, 52.22 23.84, 50.91 28.77 C49.6 33.69, 44.73 40.49, 40.17 43.67 C35.6 46.84, 28.82 48.38, 23.54 47.83 C18.26 47.28, 12.52 44.06, 8.5 40.35 C4.48 36.65, 0.01 30.67, -0.59 25.61 C-1.2 20.54, 0.75 14.24, 4.84 9.94 C8.93 5.65, 19.87 1.25, 23.94 -0.16 C28.01 -1.56, 29.43 1.09, 29.26 1.5 M23.92 -1.02 C29.42 -2.09, 36.62 0.03, 41.01 2.87 C45.4 5.71, 49.23 11.01, 50.27 16.02 C51.31 21.03, 49.66 28.26, 47.24 32.94 C44.81 37.62, 40.46 41.81, 35.72 44.1 C30.97 46.39, 23.84 47.46, 18.77 46.66 C13.7 45.85, 8.34 43.61, 5.31 39.27 C2.29 34.93, 0.44 26.05, 0.64 20.62 C0.85 15.19, 2.73 9.88, 6.54 6.69 C10.36 3.49, 20.64 2.51, 23.55 1.45 C26.47 0.4, 24.27 0.29, 24.02 0.35" stroke="#1e1e1e" stroke-width="2" fill="none"></path></g></svg>