<svg version="1.1" xmlns="http://www.w3.org/2000/svg" viewBox="0 0 105.26171875 140.8422378015016" width="105.26171875" height="140.8422378015016">
  <!-- svg-source:excalidraw -->
  
  <defs>
    <style class="style-fonts">
      @font-face {
        font-family: "Virgil";
        src: url("https://excalidraw.com/Virgil.woff2");
      }
      @font-face {
        font-family: "Cascadia";
        src: url("https://excalidraw.com/Cascadia.woff2");
      }
      @font-face {
        font-family: "Assistant";
        src: url("https://excalidraw.com/Assistant-Regular.woff2");
      }
    </style>
    
  </defs>
  <g stroke-linecap="round" transform="translate(34.05486505681802 109.06643921733757) rotate(22.461246866865288 19.283203125 7.48828125)"><path d="M3.74 0 C16.43 -2.19, 26.68 1.48, 34.82 0 C34.97 -1.09, 36.33 2.36, 38.57 3.74 C39.61 5.71, 38.46 6.92, 38.57 11.23 C38.23 12.39, 39.78 15.9, 34.82 14.98 C27.24 17.14, 13.94 16.42, 3.74 14.98 C1.76 12.95, -2.24 11.33, 0 11.23 C-0.23 9.34, -0.1 5.7, 0 3.74 C2.05 -1.08, 2.65 -1.24, 3.74 0" stroke="none" stroke-width="0" fill="#868e96"></path><path d="M3.74 0 C13.36 -0.17, 22.68 0.56, 34.82 0 M3.74 0 C13.79 0.42, 23.49 -0.17, 34.82 0 M34.82 0 C37.18 0.36, 39.05 0.61, 38.57 3.74 M34.82 0 C36.83 -0.08, 37.45 2.09, 38.57 3.74 M38.57 3.74 C38.92 6.6, 38.73 8.89, 38.57 11.23 M38.57 3.74 C38.66 6.27, 38.44 8.74, 38.57 11.23 M38.57 11.23 C38.85 14.35, 38.08 14.82, 34.82 14.98 M38.57 11.23 C39.39 14.83, 36.57 14.72, 34.82 14.98 M34.82 14.98 C25.36 15.42, 15.46 15.77, 3.74 14.98 M34.82 14.98 C23.93 15.38, 12.54 15.33, 3.74 14.98 M3.74 14.98 C2.08 15.53, 0.57 13.37, 0 11.23 M3.74 14.98 C0.13 15.21, -0.6 14.78, 0 11.23 M0 11.23 C-0.21 8.81, -0.04 5.36, 0 3.74 M0 11.23 C-0.14 9.08, 0.18 7.16, 0 3.74 M0 3.74 C0.27 0.3, 0.39 -0.98, 3.74 0 M0 3.74 C-0.27 0.34, 0.45 -0.13, 3.74 0" stroke="#1e1e1e" stroke-width="2" fill="none"></path></g><g stroke-linecap="round" transform="translate(33.868992660985896 16.919422171883525) rotate(22.923355211056883 19.283203125 7.48828125)"><path d="M3.74 0 C15.42 2.1, 25.15 -0.8, 34.82 0 C35.08 1.12, 37.59 3.14, 38.57 3.74 C38.49 5.23, 38.54 7.72, 38.57 11.23 C41.02 14.65, 37.31 13.93, 34.82 14.98 C22.73 16.68, 15.67 13.28, 3.74 14.98 C-1 12.58, 2 15.4, 0 11.23 C-0.02 9.15, 0.78 5.96, 0 3.74 C1.4 0.01, 3.69 0.83, 3.74 0" stroke="none" stroke-width="0" fill="#868e96"></path><path d="M3.74 0 C12.13 0.55, 21.06 0.83, 34.82 0 M3.74 0 C10.37 -0.39, 17.37 0.09, 34.82 0 M34.82 0 C37.8 -0.64, 38.14 1.18, 38.57 3.74 M34.82 0 C36.2 0.84, 39.19 1.22, 38.57 3.74 M38.57 3.74 C38.77 6.28, 38.69 9.44, 38.57 11.23 M38.57 3.74 C38.42 5.8, 38.63 7.69, 38.57 11.23 M38.57 11.23 C39.33 13.57, 38.04 15.94, 34.82 14.98 M38.57 11.23 C37.82 13.47, 37.31 15.92, 34.82 14.98 M34.82 14.98 C24.35 15.81, 15.96 14.35, 3.74 14.98 M34.82 14.98 C25.42 15.45, 16.49 15.38, 3.74 14.98 M3.74 14.98 C1.82 14.62, -0.97 13.93, 0 11.23 M3.74 14.98 C0.65 16.03, 0.78 12.96, 0 11.23 M0 11.23 C-0.05 8.7, -0.1 6.63, 0 3.74 M0 11.23 C0.18 8.33, 0.09 5.39, 0 3.74 M0 3.74 C-0.86 0.27, 1.02 -0.79, 3.74 0 M0 3.74 C-0.8 1.12, 2.08 -0.74, 3.74 0" stroke="#1e1e1e" stroke-width="2" fill="none"></path></g><g stroke-linecap="round" transform="translate(10 32.545724255215646) rotate(0 42.630859375 38.322265625)"><path d="M19.16 0 C26.64 -2.09, 37.51 0.96, 66.1 0 C77.53 2.62, 85.23 9.98, 85.26 19.16 C84.68 28.81, 88.54 43.44, 85.26 57.48 C85.25 68.81, 79.47 79.03, 66.1 76.64 C48.94 74.29, 27.26 73.78, 19.16 76.64 C9.16 78.96, -0.23 69.65, 0 57.48 C2.86 39.09, 1.97 25.43, 0 19.16 C3.38 7.54, 3.66 1, 19.16 0" stroke="none" stroke-width="0" fill="#7950f2"></path><path d="M19.16 0 C32.7 1.36, 43.8 -0.01, 66.1 0 M19.16 0 C35.9 0.64, 53.39 -0.36, 66.1 0 M66.1 0 C78.02 -0.14, 83.32 7.84, 85.26 19.16 M66.1 0 C80.11 -0.05, 86.63 8.58, 85.26 19.16 M85.26 19.16 C85.91 34.37, 84.54 46.96, 85.26 57.48 M85.26 19.16 C85.22 33.4, 85.7 46.23, 85.26 57.48 M85.26 57.48 C86.7 72.18, 77.58 76.2, 66.1 76.64 M85.26 57.48 C85.25 72.15, 79.17 76.28, 66.1 76.64 M66.1 76.64 C51.19 75.63, 33.99 77.92, 19.16 76.64 M66.1 76.64 C49.11 77.53, 31.05 76.62, 19.16 76.64 M19.16 76.64 C4.44 77.05, -1.05 72.09, 0 57.48 M19.16 76.64 C7.94 75.11, -0.27 68.84, 0 57.48 M0 57.48 C-0.58 41.07, 1.63 25.9, 0 19.16 M0 57.48 C-0.03 48.18, -1.16 39.8, 0 19.16 M0 19.16 C-0.46 4.82, 5 -0.22, 19.16 0 M0 19.16 C1.66 4.9, 8.28 0.99, 19.16 0" stroke="#1e1e1e" stroke-width="2" fill="none"></path></g><g stroke-linecap="round" transform="translate(38.649680311687916 96.89204723666899) rotate(90.684351531919 13.974609375 10.47265625)"><path d="M5.24 0 C13.17 2.85, 14.44 -2.56, 22.71 0 C28.66 -3.11, 31.19 4.06, 27.95 5.24 C26.87 9.23, 27.81 11.08, 27.95 15.71 C26.11 21.55, 27.96 19.48, 22.71 20.95 C16.04 19.44, 7.19 23.43, 5.24 20.95 C0.27 17.35, -2.11 20.18, 0 15.71 C-0.62 13.25, -2.05 10.29, 0 5.24 C1.22 0.43, 1.62 -1.27, 5.24 0" stroke="none" stroke-width="0" fill="#fcc2d7"></path><path d="M5.24 0 C10.59 1.56, 17.77 -1.7, 22.71 0 M5.24 0 C9.11 -0.85, 15.29 -0.46, 22.71 0 M22.71 0 C26.75 -1.9, 26.23 -0.21, 27.95 5.24 M22.71 0 C25.67 -1.81, 26.36 1.49, 27.95 5.24 M27.95 5.24 C28.33 8.39, 27.8 13.76, 27.95 15.71 M27.95 5.24 C28.13 7.24, 28.29 9.63, 27.95 15.71 M27.95 15.71 C29.95 19.2, 25.85 19.39, 22.71 20.95 M27.95 15.71 C27.65 18.02, 28.38 21.76, 22.71 20.95 M22.71 20.95 C18.64 22.38, 10.72 21.9, 5.24 20.95 M22.71 20.95 C16.32 21.47, 12.1 20.74, 5.24 20.95 M5.24 20.95 C1.41 22.86, -0.08 19.43, 0 15.71 M5.24 20.95 C3.56 18.89, 1.24 18.1, 0 15.71 M0 15.71 C0.26 10.81, -0.58 6.83, 0 5.24 M0 15.71 C-0.05 12.62, 0.14 9.89, 0 5.24 M0 5.24 C-0.21 3.31, 1.19 1.68, 5.24 0 M0 5.24 C0.74 2.69, -0.25 1.91, 5.24 0" stroke="#1e1e1e" stroke-width="2" fill="none"></path></g><g stroke-linecap="round" transform="translate(27.00027901785961 45.15652205235165) rotate(90.684351531919 25.4296875 23.859375)"><path d="M34.71 2.77 C39.82 4.13, 45.68 7.85, 48.32 12.11 C50.96 16.36, 51.85 23.29, 50.53 28.31 C49.2 33.33, 44.78 39.03, 40.37 42.21 C35.95 45.39, 29.38 47.55, 24.06 47.4 C18.74 47.25, 12.48 44.66, 8.45 41.28 C4.41 37.91, 0.59 32.23, -0.16 27.17 C-0.91 22.1, 0.82 15.3, 3.95 10.91 C7.07 6.52, 12.68 2.01, 18.59 0.82 C24.5 -0.37, 35.55 3.06, 39.41 3.76 C43.27 4.45, 41.97 4.63, 41.75 4.99 M38.53 1.36 C43 3.34, 46.09 10.54, 47.73 15.71 C49.38 20.87, 49.67 27.57, 48.4 32.34 C47.13 37.11, 44.54 41.66, 40.11 44.33 C35.67 46.99, 27.47 48.94, 21.77 48.3 C16.07 47.66, 9.54 44.51, 5.9 40.49 C2.27 36.47, 0.2 29.21, -0.04 24.19 C-0.29 19.17, 1.01 14.39, 4.46 10.35 C7.9 6.32, 15.02 1.05, 20.61 -0.03 C26.19 -1.12, 35.12 3.37, 37.96 3.85 C40.81 4.34, 38.15 2.97, 37.68 2.88" stroke="none" stroke-width="0" fill="#fcc2d7"></path><path d="M14.2 1.91 C18.53 -0.39, 24.67 0.06, 29.82 1.3 C34.96 2.55, 41.7 5.64, 45.05 9.38 C48.39 13.13, 50.17 18.73, 49.9 23.76 C49.63 28.78, 47.01 35.7, 43.4 39.53 C39.8 43.37, 33.51 45.9, 28.26 46.78 C23.02 47.67, 16.52 47.3, 11.91 44.86 C7.31 42.41, 2.23 37.22, 0.62 32.13 C-0.99 27.03, -0.48 19.3, 2.25 14.28 C4.98 9.26, 14.03 4.33, 17.02 2.02 C20 -0.29, 20.15 0.09, 20.16 0.42 M22.19 0.42 C26.99 -0.98, 33.13 -0.49, 37.6 1.88 C42.07 4.25, 46.81 9.58, 49.02 14.64 C51.23 19.71, 52.62 27.41, 50.85 32.26 C49.08 37.12, 43.3 41.08, 38.42 43.77 C33.54 46.46, 26.75 49.34, 21.58 48.4 C16.4 47.46, 10.83 42.11, 7.37 38.12 C3.91 34.13, 1.26 29.57, 0.8 24.46 C0.33 19.35, 1.49 11.28, 4.58 7.46 C7.66 3.65, 16.45 2.68, 19.31 1.57 C22.18 0.46, 21.49 0.35, 21.76 0.79" stroke="#1e1e1e" stroke-width="2" fill="none"></path></g></svg>