<svg version="1.1" xmlns="http://www.w3.org/2000/svg" viewBox="0 0 108.91314535019092 140.8422378015016" width="108.91314535019092" height="140.8422378015016">
  <!-- svg-source:excalidraw -->
  
  <defs>
    <style class="style-fonts">
      @font-face {
        font-family: "Virgil";
        src: url("https://excalidraw.com/Virgil.woff2");
      }
      @font-face {
        font-family: "Cascadia";
        src: url("https://excalidraw.com/Cascadia.woff2");
      }
      @font-face {
        font-family: "Assistant";
        src: url("https://excalidraw.com/Assistant-Regular.woff2");
      }
    </style>
    
  </defs>
  <g stroke-linecap="round" transform="translate(37.70629165700893 109.06643921733757) rotate(22.461246866865288 19.283203125 7.48828125)"><path d="M3.74 0 C13.59 -0.39, 20.55 0.04, 34.82 0 C39.04 2.1, 36.31 2.63, 38.57 3.74 C37.59 6.89, 39.12 8.47, 38.57 11.23 C38.12 16.22, 37.21 15.27, 34.82 14.98 C21.81 17.64, 12.11 13.22, 3.74 14.98 C1.97 13.05, -1.36 12.18, 0 11.23 C-0.12 8.8, 0.24 7.04, 0 3.74 C-0.28 3.29, 0.53 2.19, 3.74 0" stroke="none" stroke-width="0" fill="#868e96"></path><path d="M3.74 0 C12.47 0.69, 19.72 0.75, 34.82 0 M3.74 0 C15.82 0.05, 28.74 -0.29, 34.82 0 M34.82 0 C37.67 0.55, 37.73 2.02, 38.57 3.74 M34.82 0 C37.64 0.72, 39.44 1.07, 38.57 3.74 M38.57 3.74 C38.52 6.53, 38.91 9.36, 38.57 11.23 M38.57 3.74 C38.73 5.98, 38.45 8, 38.57 11.23 M38.57 11.23 C39.02 14.52, 37.25 15.68, 34.82 14.98 M38.57 11.23 C39.52 14.37, 37.98 14.56, 34.82 14.98 M34.82 14.98 C29.43 15.57, 21.55 14.78, 3.74 14.98 M34.82 14.98 C26.92 14.79, 19.62 15.34, 3.74 14.98 M3.74 14.98 C0.33 14.16, 0.8 13.36, 0 11.23 M3.74 14.98 C1.56 13.89, -0.99 12.6, 0 11.23 M0 11.23 C-0.01 9.43, -0.21 7.39, 0 3.74 M0 11.23 C0.16 8.5, -0.05 5.94, 0 3.74 M0 3.74 C0.43 0.87, 1.98 -0.01, 3.74 0 M0 3.74 C1.15 1.25, 1.04 -0.89, 3.74 0" stroke="#1e1e1e" stroke-width="2" fill="none"></path></g><g stroke-linecap="round" transform="translate(37.5204192611759 16.919422171883525) rotate(22.923355211056883 19.283203125 7.48828125)"><path d="M3.74 0 C14.96 0.43, 29.99 2.1, 34.82 0 C35.06 1.38, 39.08 -0.78, 38.57 3.74 C39.1 5.28, 38.31 7.88, 38.57 11.23 C38.46 14.03, 39.37 12.65, 34.82 14.98 C24.65 13.38, 13.54 13.43, 3.74 14.98 C-0.11 13.43, -0.61 12.96, 0 11.23 C0.23 8.77, -0.09 7.17, 0 3.74 C-0.72 3.44, 2.09 1.07, 3.74 0" stroke="none" stroke-width="0" fill="#868e96"></path><path d="M3.74 0 C10.03 0.51, 17.32 0.45, 34.82 0 M3.74 0 C14.88 -0.26, 25.36 0.24, 34.82 0 M34.82 0 C36.48 0.77, 38.85 1.87, 38.57 3.74 M34.82 0 C38.2 -0.18, 39.39 2.35, 38.57 3.74 M38.57 3.74 C38.87 5.55, 38.5 7.43, 38.57 11.23 M38.57 3.74 C38.47 5.43, 38.68 7.25, 38.57 11.23 M38.57 11.23 C38.5 14.44, 38.15 15.53, 34.82 14.98 M38.57 11.23 C39.23 13.32, 36.2 15.21, 34.82 14.98 M34.82 14.98 C26.46 14.97, 18.81 15.96, 3.74 14.98 M34.82 14.98 C25.69 15.32, 16.86 14.52, 3.74 14.98 M3.74 14.98 C2.04 14.6, 0.27 12.78, 0 11.23 M3.74 14.98 C0.26 13.85, -0.27 12.82, 0 11.23 M0 11.23 C-0.24 9.81, 0.16 7.51, 0 3.74 M0 11.23 C-0.1 8.88, 0.05 6.79, 0 3.74 M0 3.74 C0.73 1.24, 2.25 0, 3.74 0 M0 3.74 C-0.2 0.35, 1.1 -0.59, 3.74 0" stroke="#1e1e1e" stroke-width="2" fill="none"></path></g><g stroke-linecap="round" transform="translate(13.651426600190916 32.545724255215646) rotate(0 42.630859375 38.322265625)"><path d="M19.16 0 C35.61 2.77, 44.16 1.77, 66.1 0 C79.59 -2.8, 82.15 3.07, 85.26 19.16 C85.09 37.06, 85.56 48.47, 85.26 57.48 C88.1 67.04, 80.82 74.93, 66.1 76.64 C48.61 73.34, 27.23 73.86, 19.16 76.64 C5.54 75.58, 0.79 69.72, 0 57.48 C-0.53 50.23, -1.15 40.37, 0 19.16 C1.17 7.87, 3.26 2.99, 19.16 0" stroke="none" stroke-width="0" fill="#7950f2"></path><path d="M19.16 0 C37.68 0.79, 53.29 -1.13, 66.1 0 M19.16 0 C34.71 0.76, 48.73 0.98, 66.1 0 M66.1 0 C79.44 1.25, 86.79 6.07, 85.26 19.16 M66.1 0 C80.53 2.21, 83.77 5.87, 85.26 19.16 M85.26 19.16 C85.26 31.48, 84.06 43.65, 85.26 57.48 M85.26 19.16 C85.45 33.67, 84.93 47.3, 85.26 57.48 M85.26 57.48 C86.92 71.37, 80.02 75.93, 66.1 76.64 M85.26 57.48 C83.03 70.73, 77.67 78.75, 66.1 76.64 M66.1 76.64 C47.61 78.35, 31.21 74.62, 19.16 76.64 M66.1 76.64 C52.62 76.19, 41.78 76.64, 19.16 76.64 M19.16 76.64 C6.94 74.75, -1.72 68.3, 0 57.48 M19.16 76.64 C5.85 74.84, -1.59 70, 0 57.48 M0 57.48 C1.1 41.79, 0.09 30.34, 0 19.16 M0 57.48 C0.59 49.07, 0.89 41.39, 0 19.16 M0 19.16 C2 6.39, 6.03 -1.55, 19.16 0 M0 19.16 C-0.3 5.2, 8.56 0.81, 19.16 0" stroke="#1e1e1e" stroke-width="2" fill="none"></path></g><g stroke-linecap="round" transform="translate(13.186373760761398 31.768827916034752) rotate(47.524435689906944 13.974609375 10.47265625)"><path d="M5.24 0 C10.06 -0.4, 17.67 -0.94, 22.71 0 C29.23 1.17, 29.43 -1.38, 27.95 5.24 C28.66 10.42, 29.8 11.62, 27.95 15.71 C25.14 21.66, 23.09 24.19, 22.71 20.95 C17.98 19.15, 10.97 20.71, 5.24 20.95 C-0.08 19.11, 2.35 20.96, 0 15.71 C0.89 12.72, -1.11 8.43, 0 5.24 C2.66 0.27, -1.85 -2.11, 5.24 0" stroke="none" stroke-width="0" fill="#fcc2d7"></path><path d="M5.24 0 C12.51 1.46, 18.29 1.01, 22.71 0 M5.24 0 C9.4 0.76, 15.06 -0.62, 22.71 0 M22.71 0 C25.97 -1.23, 29.71 1.38, 27.95 5.24 M22.71 0 C23.94 -0.75, 26.18 3.54, 27.95 5.24 M27.95 5.24 C27.47 7.7, 26.87 8.7, 27.95 15.71 M27.95 5.24 C27.56 7.3, 28.3 9.13, 27.95 15.71 M27.95 15.71 C29.59 20.06, 24.77 20.79, 22.71 20.95 M27.95 15.71 C29.55 17.13, 25.24 18.97, 22.71 20.95 M22.71 20.95 C16.7 22.82, 10.73 20.76, 5.24 20.95 M22.71 20.95 C19.65 21.16, 14.94 20.5, 5.24 20.95 M5.24 20.95 C2.07 22.27, 1.61 17.46, 0 15.71 M5.24 20.95 C2.97 21.4, -1.79 17.21, 0 15.71 M0 15.71 C-0.15 13.35, 0.92 11.31, 0 5.24 M0 15.71 C0.2 12.2, 0.41 9.35, 0 5.24 M0 5.24 C-1.52 2.3, 0.27 -1.04, 5.24 0 M0 5.24 C-1.37 1.2, 1.07 0.5, 5.24 0" stroke="#1e1e1e" stroke-width="2" fill="none"></path></g><g stroke-linecap="round" transform="translate(28.105044809020455 46.22262049353867) rotate(47.524435689906944 25.4296875 23.859375)"><path d="M31.23 -0.09 C36.41 1.13, 43.84 6.56, 47.08 10.88 C50.32 15.21, 51.15 20.87, 50.69 25.85 C50.23 30.83, 48.14 36.98, 44.31 40.75 C40.47 44.51, 33.41 47.9, 27.67 48.42 C21.94 48.95, 14.43 46.82, 9.88 43.9 C5.33 40.98, 1.56 36.06, 0.37 30.9 C-0.82 25.74, 0.29 17.85, 2.74 12.94 C5.18 8.04, 10.01 3.52, 15.04 1.46 C20.07 -0.59, 29.68 0.56, 32.89 0.61 C36.1 0.67, 34.3 1.34, 34.29 1.8 M20.58 1.59 C25.48 0.61, 32.63 1.91, 37.48 4.33 C42.34 6.74, 47.94 11.29, 49.71 16.07 C51.49 20.85, 49.9 28.06, 48.12 33.02 C46.33 37.98, 43.4 43.27, 39.02 45.82 C34.63 48.37, 27.04 49.62, 21.8 48.34 C16.55 47.05, 11.37 41.95, 7.54 38.09 C3.72 34.22, -0.66 29.82, -1.17 25.15 C-1.68 20.48, 0.66 14.14, 4.47 10.08 C8.28 6.02, 19.04 2.18, 21.7 0.78 C24.36 -0.62, 20.65 1.25, 20.43 1.66" stroke="none" stroke-width="0" fill="#fcc2d7"></path><path d="M32.83 0.45 C38.1 1.81, 44.67 7.02, 47.54 11.35 C50.4 15.68, 50.9 21.31, 50.03 26.42 C49.17 31.54, 46.2 38.66, 42.33 42.03 C38.47 45.41, 32.21 46.65, 26.82 46.69 C21.43 46.73, 14.22 45.31, 10 42.28 C5.78 39.25, 2.85 33.24, 1.49 28.53 C0.13 23.82, -0.39 18.41, 1.84 14.03 C4.08 9.65, 8.9 4.15, 14.9 2.26 C20.9 0.37, 33.21 1.8, 37.83 2.69 C42.45 3.59, 42.84 7.28, 42.64 7.64 M25.26 0.68 C30.05 0.25, 35.27 1.92, 39.6 4.65 C43.93 7.38, 49.92 12.29, 51.24 17.07 C52.55 21.86, 50.02 28.65, 47.49 33.34 C44.97 38.04, 40.8 43.01, 36.08 45.23 C31.35 47.46, 24.23 48.07, 19.16 46.68 C14.08 45.3, 8.85 41.38, 5.64 36.91 C2.43 32.44, -0.45 25.06, -0.09 19.85 C0.28 14.65, 3.59 8.9, 7.84 5.68 C12.1 2.47, 22.74 1.53, 25.44 0.57 C28.15 -0.39, 24.22 -0.56, 24.05 -0.09" stroke="#1e1e1e" stroke-width="2" fill="none"></path></g></svg>