<svg version="1.1" xmlns="http://www.w3.org/2000/svg" viewBox="0 0 108.67877035019364 140.8422378015016" width="108.67877035019364" height="140.8422378015016">
  <!-- svg-source:excalidraw -->
  
  <defs>
    <style class="style-fonts">
      @font-face {
        font-family: "Virgil";
        src: url("https://excalidraw.com/Virgil.woff2");
      }
      @font-face {
        font-family: "Cascadia";
        src: url("https://excalidraw.com/Cascadia.woff2");
      }
      @font-face {
        font-family: "Assistant";
        src: url("https://excalidraw.com/Assistant-Regular.woff2");
      }
    </style>
    
  </defs>
  <g stroke-linecap="round" transform="translate(34.05486505681802 109.06643921733757) rotate(22.461246866865288 19.283203125 7.48828125)"><path d="M3.74 0 C12.65 2.05, 17.39 -0.07, 34.82 0 C39.81 -0.11, 38.86 3.3, 38.57 3.74 C39.53 5.63, 37.88 7.17, 38.57 11.23 C36.64 12.37, 35.77 14.36, 34.82 14.98 C25.45 15.48, 17.88 14.64, 3.74 14.98 C3.29 14.26, 2.19 14.57, 0 11.23 C0.49 9.61, 0.41 6.73, 0 3.74 C2.44 -1.02, -0.78 1.78, 3.74 0" stroke="none" stroke-width="0" fill="#868e96"></path><path d="M3.74 0 C16.19 -0.89, 28.31 0.23, 34.82 0 M3.74 0 C15.37 0.5, 25.96 -0.09, 34.82 0 M34.82 0 C37.31 0.82, 38.69 1.09, 38.57 3.74 M34.82 0 C37.81 -0.87, 39.45 1.91, 38.57 3.74 M38.57 3.74 C38.86 5.45, 38.83 7.51, 38.57 11.23 M38.57 3.74 C38.41 6.45, 38.49 9.24, 38.57 11.23 M38.57 11.23 C39.24 13.06, 37.2 14.36, 34.82 14.98 M38.57 11.23 C39.58 13.52, 36.19 14.6, 34.82 14.98 M34.82 14.98 C27.08 15.63, 20.6 15.11, 3.74 14.98 M34.82 14.98 C28.33 14.43, 21.72 14.77, 3.74 14.98 M3.74 14.98 C1.97 14.33, 0.82 14.16, 0 11.23 M3.74 14.98 C0.43 14.89, 0.8 12.69, 0 11.23 M0 11.23 C-0.11 9.57, 0.03 7.74, 0 3.74 M0 11.23 C-0.02 8.89, 0.18 6.8, 0 3.74 M0 3.74 C0 0.85, 1.41 0.66, 3.74 0 M0 3.74 C0.93 0.25, 1.86 0.23, 3.74 0" stroke="#1e1e1e" stroke-width="2" fill="none"></path></g><g stroke-linecap="round" transform="translate(33.868992660984986 16.919422171883525) rotate(22.923355211056883 19.283203125 7.48828125)"><path d="M3.74 0 C10.04 -0.7, 19.16 -0.37, 34.82 0 C37.62 2.05, 36.24 2.65, 38.57 3.74 C37.92 5.9, 37.94 7.01, 38.57 11.23 C37.02 13.12, 36.55 15.55, 34.82 14.98 C25.83 14.79, 19.14 14.34, 3.74 14.98 C3.44 15.82, 1.07 11.47, 0 11.23 C0.29 8.97, 0.87 4.64, 0 3.74 C-2.03 3.02, -1 2.34, 3.74 0" stroke="none" stroke-width="0" fill="#868e96"></path><path d="M3.74 0 C14.92 0.41, 25.18 0.89, 34.82 0 M3.74 0 C12.26 -0.26, 21.42 0.26, 34.82 0 M34.82 0 C37.45 -0.16, 38.99 0.49, 38.57 3.74 M34.82 0 C38.21 0.67, 37.77 1.27, 38.57 3.74 M38.57 3.74 C38.86 6.64, 38.81 9.13, 38.57 11.23 M38.57 3.74 C38.43 5.89, 38.66 7.58, 38.57 11.23 M38.57 11.23 C38.45 13.11, 38.2 14.79, 34.82 14.98 M38.57 11.23 C37.43 13.36, 36.43 15.87, 34.82 14.98 M34.82 14.98 C27.98 15.37, 20.93 14.24, 3.74 14.98 M34.82 14.98 C28.19 14.8, 22.62 14.53, 3.74 14.98 M3.74 14.98 C2.07 15.41, -0.72 13.65, 0 11.23 M3.74 14.98 C2.05 13.94, -0.48 12.74, 0 11.23 M0 11.23 C0.01 9.04, 0.01 6.03, 0 3.74 M0 11.23 C0.18 9.63, 0 7.83, 0 3.74 M0 3.74 C0.16 1.91, 2.05 -0.87, 3.74 0 M0 3.74 C0.61 1.48, 0.35 -0.99, 3.74 0" stroke="#1e1e1e" stroke-width="2" fill="none"></path></g><g stroke-linecap="round" transform="translate(10 32.545724255215646) rotate(0 42.630859375 38.322265625)"><path d="M19.16 0 C39.71 0, 53.78 2.98, 66.1 0 C75.65 1.94, 83.54 9.77, 85.26 19.16 C82.08 30.01, 82.59 43.76, 85.26 57.48 C84.2 71.05, 78.34 75.31, 66.1 76.64 C53.82 75.56, 38.92 77.72, 19.16 76.64 C7.87 73.51, 2.99 71.76, 0 57.48 C3.15 39.18, -3.04 29.63, 0 19.16 C-3.11 9.63, 8.7 0.89, 19.16 0" stroke="none" stroke-width="0" fill="#7950f2"></path><path d="M19.16 0 C30.55 1.39, 39.12 1.3, 66.1 0 M19.16 0 C37.75 0.93, 56.47 -0.05, 66.1 0 M66.1 0 C79.72 -1.52, 86.81 7.55, 85.26 19.16 M66.1 0 C77.29 0.04, 86.31 8.22, 85.26 19.16 M85.26 19.16 C86.65 31.56, 84.82 39.72, 85.26 57.48 M85.26 19.16 C85.74 30.77, 84.94 43.1, 85.26 57.48 M85.26 57.48 C87.02 69.89, 76.91 76, 66.1 76.64 M85.26 57.48 C83.49 72.05, 76.76 74.76, 66.1 76.64 M66.1 76.64 C46.39 75.06, 28.51 76.31, 19.16 76.64 M66.1 76.64 C56.43 75.95, 46.14 77.02, 19.16 76.64 M19.16 76.64 C4.96 76.49, 1.39 68.45, 0 57.48 M19.16 76.64 C5.42 74.67, 0.99 69.4, 0 57.48 M0 57.48 C0.01 42.84, -1.55 28.65, 0 19.16 M0 57.48 C-0.37 47.56, -0.2 39.1, 0 19.16 M0 19.16 C1.61 4.65, 7.45 0.4, 19.16 0 M0 19.16 C-1.79 4.4, 4.27 1.77, 19.16 0" stroke="#1e1e1e" stroke-width="2" fill="none"></path></g><g stroke-linecap="round" transform="translate(67.54317783943225 30.81458684460722) rotate(312.47556431009303 13.974609375 10.47265625)"><path d="M5.24 0 C7.51 -1.64, 12.33 -0.69, 22.71 0 C26.99 -0.53, 26.61 2.53, 27.95 5.24 C27.41 9.91, 28.54 12.19, 27.95 15.71 C24.82 22.19, 27.71 24.39, 22.71 20.95 C14.13 18.79, 13.2 18.52, 5.24 20.95 C4.99 23.26, 0.89 18.24, 0 15.71 C0.01 11.07, -0.86 9.56, 0 5.24 C1.76 0.28, 3.76 2.84, 5.24 0" stroke="none" stroke-width="0" fill="#fcc2d7"></path><path d="M5.24 0 C9.38 1.27, 17.18 -1.28, 22.71 0 M5.24 0 C10.45 0.48, 16.5 0.35, 22.71 0 M22.71 0 C27.35 -0.72, 26.01 2.15, 27.95 5.24 M22.71 0 C25 2.1, 29.51 0.21, 27.95 5.24 M27.95 5.24 C27.69 7.23, 27.55 10.47, 27.95 15.71 M27.95 5.24 C28.27 9, 28 12.66, 27.95 15.71 M27.95 15.71 C26.23 17.24, 25.74 19.37, 22.71 20.95 M27.95 15.71 C26.36 18.95, 27.87 19.46, 22.71 20.95 M22.71 20.95 C15.9 22.04, 7.78 20.09, 5.24 20.95 M22.71 20.95 C19.61 20.87, 16.1 20.88, 5.24 20.95 M5.24 20.95 C1.39 19.39, -0.26 18.17, 0 15.71 M5.24 20.95 C3.92 21.76, -0.01 18.28, 0 15.71 M0 15.71 C-0.98 12.95, 0.14 8.27, 0 5.24 M0 15.71 C0.43 13.44, 0.01 11.73, 0 5.24 M0 5.24 C-0.08 1.97, 3.32 -1.79, 5.24 0 M0 5.24 C1.24 0.65, 3.91 0.74, 5.24 0" stroke="#1e1e1e" stroke-width="2" fill="none"></path></g><g stroke-linecap="round" transform="translate(29.71435054117319 45.26837942211296) rotate(312.47556431009303 25.4296875 23.859375)"><path d="M36.6 2.78 C41.41 4.85, 47.47 10.6, 49.51 15.37 C51.56 20.14, 50.55 26.77, 48.87 31.39 C47.19 36.02, 44.02 40.57, 39.45 43.11 C34.88 45.64, 26.75 47.01, 21.44 46.62 C16.12 46.22, 11.16 44.37, 7.58 40.75 C4 37.14, 0.22 30.13, -0.03 24.91 C-0.28 19.69, 2.78 13.36, 6.1 9.44 C9.41 5.52, 14.55 2.28, 19.85 1.39 C25.16 0.51, 34.61 3.35, 37.93 4.12 C41.26 4.89, 39.8 5.89, 39.78 6.01 M28.07 -0.12 C33.35 0.44, 40.12 4.45, 43.88 8.22 C47.64 11.98, 50.3 17.42, 50.62 22.46 C50.94 27.51, 49.14 34.15, 45.8 38.47 C42.46 42.79, 36.02 47.09, 30.56 48.37 C25.11 49.66, 17.78 48.68, 13.08 46.19 C8.38 43.7, 4.53 38.16, 2.34 33.42 C0.15 28.68, -1.77 22.47, -0.06 17.74 C1.64 13.01, 7.65 7.82, 12.58 5.06 C17.5 2.3, 26.51 2.11, 29.47 1.17 C32.42 0.22, 30.64 -1.02, 30.3 -0.61" stroke="none" stroke-width="0" fill="#fcc2d7"></path><path d="M17.62 1.34 C22.49 -0.52, 29.85 0.42, 34.92 2.3 C40 4.17, 45.53 8.45, 48.06 12.58 C50.59 16.72, 51.12 22.27, 50.1 27.12 C49.07 31.97, 45.88 38.13, 41.91 41.67 C37.93 45.22, 31.84 48.35, 26.25 48.4 C20.65 48.44, 12.76 45.23, 8.34 41.96 C3.93 38.69, 0.6 33.98, -0.25 28.79 C-1.09 23.61, -0.61 15.78, 3.27 10.87 C7.15 5.95, 18.47 1.13, 23.04 -0.69 C27.62 -2.51, 30.79 -0.71, 30.75 -0.05 M19.44 -1.06 C24.34 -2.21, 32.75 -0.84, 37.54 1.88 C42.33 4.6, 46.02 10.46, 48.19 15.28 C50.35 20.1, 51.93 25.83, 50.51 30.79 C49.08 35.75, 44.68 42.28, 39.63 45.03 C34.58 47.78, 25.64 48.45, 20.23 47.29 C14.82 46.12, 10.66 42.13, 7.18 38.05 C3.71 33.98, -0.5 27.82, -0.63 22.84 C-0.76 17.86, 2.67 11.91, 6.41 8.17 C10.15 4.43, 19.17 1.61, 21.82 0.4 C24.47 -0.82, 22.47 0.68, 22.32 0.88" stroke="#1e1e1e" stroke-width="2" fill="none"></path></g></svg>