<svg version="1.1" xmlns="http://www.w3.org/2000/svg" viewBox="0 0 116.9010881696413 140.8422378015016" width="116.9010881696413" height="140.8422378015016">
  <!-- svg-source:excalidraw -->
  
  <defs>
    <style class="style-fonts">
      @font-face {
        font-family: "Virgil";
        src: url("https://excalidraw.com/Virgil.woff2");
      }
      @font-face {
        font-family: "Cascadia";
        src: url("https://excalidraw.com/Cascadia.woff2");
      }
      @font-face {
        font-family: "Assistant";
        src: url("https://excalidraw.com/Assistant-Regular.woff2");
      }
    </style>
    
  </defs>
  <g stroke-linecap="round" transform="translate(45.694234476459314 109.06643921733757) rotate(22.461246866865288 19.283203125 7.48828125)"><path d="M3.74 0 C15.34 -0.87, 24.9 -0.74, 34.82 0 C35.98 2.46, 39.49 1.24, 38.57 3.74 C39.37 4.84, 39.1 7.83, 38.57 11.23 C36.54 11.48, 34.92 16.98, 34.82 14.98 C25.99 14.8, 12.47 16.96, 3.74 14.98 C-1.08 16.38, -1.24 16.17, 0 11.23 C-0.65 8.24, -0.51 6.03, 0 3.74 C-0.77 1.82, 0.86 -0.97, 3.74 0" stroke="none" stroke-width="0" fill="#868e96"></path><path d="M3.74 0 C12.04 0.51, 18.97 -0.4, 34.82 0 M3.74 0 C13.12 -0.12, 22.26 0.36, 34.82 0 M34.82 0 C37.85 0.45, 38.14 1.49, 38.57 3.74 M34.82 0 C38.27 -0.51, 38.97 1.88, 38.57 3.74 M38.57 3.74 C38.83 5.65, 38.54 7.25, 38.57 11.23 M38.57 3.74 C38.54 6.86, 38.57 9.65, 38.57 11.23 M38.57 11.23 C38.99 12.97, 38.09 15.56, 34.82 14.98 M38.57 11.23 C37.77 13.75, 37.84 15.89, 34.82 14.98 M34.82 14.98 C26.25 15.68, 16.21 14.13, 3.74 14.98 M34.82 14.98 C25.2 14.79, 14.85 14.81, 3.74 14.98 M3.74 14.98 C2.13 14.79, -0.98 13.4, 0 11.23 M3.74 14.98 C0.36 15.87, -1.05 12.79, 0 11.23 M0 11.23 C-0.34 8.07, -0.35 5.46, 0 3.74 M0 11.23 C0.16 9.45, 0.18 8, 0 3.74 M0 3.74 C-0.72 1.17, 1.94 -0.9, 3.74 0 M0 3.74 C-0.48 0.26, 1.74 -0.43, 3.74 0" stroke="#1e1e1e" stroke-width="2" fill="none"></path></g><g stroke-linecap="round" transform="translate(45.508362080626284 16.919422171883525) rotate(22.923355211056883 19.283203125 7.48828125)"><path d="M3.74 0 C14.15 -0.26, 27.26 2.53, 34.82 0 C38.24 -0.01, 37.52 1.67, 38.57 3.74 C39.16 6.68, 37.89 8.39, 38.57 11.23 C36.17 15.73, 38.99 14.81, 34.82 14.98 C26.32 17.01, 14.9 16.36, 3.74 14.98 C0.01 17.42, 0.83 11.76, 0 11.23 C-0.51 8.55, -0.21 6.54, 0 3.74 C-0.38 0.28, 1.81 -0.13, 3.74 0" stroke="none" stroke-width="0" fill="#868e96"></path><path d="M3.74 0 C12 -0.5, 21.48 -1.04, 34.82 0 M3.74 0 C15.63 0.48, 27.19 0.23, 34.82 0 M34.82 0 C36.89 0.24, 39.39 0.8, 38.57 3.74 M34.82 0 C37.72 0.63, 37.6 2.14, 38.57 3.74 M38.57 3.74 C38.53 6.47, 38.95 8.41, 38.57 11.23 M38.57 3.74 C38.59 5.79, 38.65 7.76, 38.57 11.23 M38.57 11.23 C39.34 14.31, 36.63 14.99, 34.82 14.98 M38.57 11.23 C39.09 14.64, 37.25 15.79, 34.82 14.98 M34.82 14.98 C22.57 14.09, 11.24 14.54, 3.74 14.98 M34.82 14.98 C22.6 14.57, 10.93 14.78, 3.74 14.98 M3.74 14.98 C0.26 14.65, -0.77 14.51, 0 11.23 M3.74 14.98 C0.19 14.03, 0.92 13.3, 0 11.23 M0 11.23 C-0.33 8.69, -0.26 6.07, 0 3.74 M0 11.23 C0.13 9.15, -0.16 6.89, 0 3.74 M0 3.74 C0.7 0.35, 0.83 -0.86, 3.74 0 M0 3.74 C0.49 0.82, 2.09 -0.01, 3.74 0" stroke="#1e1e1e" stroke-width="2" fill="none"></path></g><g stroke-linecap="round" transform="translate(21.639369419641298 32.545724255215646) rotate(0 42.630859375 38.322265625)"><path d="M19.16 0 C30.55 3.51, 46.93 0.09, 66.1 0 C77.43 0.59, 87.65 9.29, 85.26 19.16 C82.83 24.22, 82.31 38.27, 85.26 57.48 C87.58 70.03, 78.26 80.09, 66.1 76.64 C48.99 79.25, 36.6 80.69, 19.16 76.64 C7.54 73.91, 1 67.59, 0 57.48 C-0.65 48.78, -0.12 37.15, 0 19.16 C0.78 6.21, 6.01 2.82, 19.16 0" stroke="none" stroke-width="0" fill="#7950f2"></path><path d="M19.16 0 C35.39 -1.74, 53.35 1.28, 66.1 0 M19.16 0 C33.68 0, 46.69 -0.21, 66.1 0 M66.1 0 C80.53 -0.89, 85.96 7.49, 85.26 19.16 M66.1 0 C76.94 1.78, 85.91 7.83, 85.26 19.16 M85.26 19.16 C87.12 32.28, 84.75 47.99, 85.26 57.48 M85.26 19.16 C85.73 33.05, 86.08 49.04, 85.26 57.48 M85.26 57.48 C83.88 70.29, 79.78 78.23, 66.1 76.64 M85.26 57.48 C85.12 71.88, 80.78 77.93, 66.1 76.64 M66.1 76.64 C49.73 75.14, 34.37 77.54, 19.16 76.64 M66.1 76.64 C56.03 76.17, 43.21 76.03, 19.16 76.64 M19.16 76.64 C4.84 78.21, -1.83 68.62, 0 57.48 M19.16 76.64 C8.22 75.79, 0.63 68.08, 0 57.48 M0 57.48 C-1.2 47.89, 0.15 42.52, 0 19.16 M0 57.48 C-1.03 48.39, 0.38 38.54, 0 19.16 M0 19.16 C-0.84 4.67, 7.25 -0.75, 19.16 0 M0 19.16 C1.67 6.37, 8.68 0, 19.16 0" stroke="#1e1e1e" stroke-width="2" fill="none"></path></g><g stroke-linecap="round" transform="translate(10 59.76933318646752) rotate(0 13.974609375 10.47265625)"><path d="M5.24 0 C12.94 1.11, 16.65 -2.65, 22.71 0 C29.2 1.51, 31.39 2.96, 27.95 5.24 C26.66 10.32, 26.5 14.52, 27.95 15.71 C30.27 20.09, 25.25 22.82, 22.71 20.95 C16.83 19.32, 16.18 22.47, 5.24 20.95 C0.28 22.96, 2.84 21.1, 0 15.71 C1.49 11.94, -1.78 8.62, 0 5.24 C0.98 -0.55, 5.09 2.85, 5.24 0" stroke="none" stroke-width="0" fill="#fcc2d7"></path><path d="M5.24 0 C11.3 -1.8, 18.97 -1.01, 22.71 0 M5.24 0 C11.98 -0.42, 19.69 -0.04, 22.71 0 M22.71 0 C24.24 -0.65, 26.41 3.31, 27.95 5.24 M22.71 0 C24.09 -1.89, 29.78 0.89, 27.95 5.24 M27.95 5.24 C26.82 8.42, 27.03 11.37, 27.95 15.71 M27.95 5.24 C28.46 8.49, 27.65 11.25, 27.95 15.71 M27.95 15.71 C29.34 17.4, 25.37 19.23, 22.71 20.95 M27.95 15.71 C28.94 18.34, 27.88 20.92, 22.71 20.95 M22.71 20.95 C14.37 20.69, 7.84 22.57, 5.24 20.95 M22.71 20.95 C16.99 21.45, 11.69 20.12, 5.24 20.95 M5.24 20.95 C2.81 21.34, -1.56 17.47, 0 15.71 M5.24 20.95 C-0.37 22.72, 1.48 19.05, 0 15.71 M0 15.71 C0.02 13.57, -1.04 10.35, 0 5.24 M0 15.71 C-0.5 13.21, -0.49 10.15, 0 5.24 M0 5.24 C-1.19 1.27, 1.16 0.44, 5.24 0 M0 5.24 C-0.34 0.89, 2.25 -0.11, 5.24 0" stroke="#1e1e1e" stroke-width="2" fill="none"></path></g><g stroke-linecap="round" transform="translate(36.888671875 45.73027068646752) rotate(0 25.4296875 23.859375)"><path d="M14.07 2.31 C18.59 -0.23, 27.05 -0.73, 32.38 0.63 C37.7 1.99, 43.09 6.28, 46.02 10.49 C48.94 14.71, 50.36 20.78, 49.91 25.91 C49.47 31.03, 46.92 37.77, 43.36 41.26 C39.81 44.74, 33.86 46.52, 28.58 46.81 C23.29 47.1, 16.31 45.79, 11.63 42.99 C6.95 40.18, 2.13 34.82, 0.51 29.99 C-1.11 25.16, -0.58 18.69, 1.89 14.01 C4.37 9.32, 13.01 3.84, 15.36 1.89 C17.7 -0.06, 15.85 1.93, 15.97 2.3 M35.64 2.43 C40.4 4, 44.14 9.41, 46.68 14.08 C49.22 18.75, 51.76 25.51, 50.89 30.45 C50.01 35.39, 45.61 41.06, 41.42 43.72 C37.23 46.37, 31.46 46.59, 25.74 46.39 C20.02 46.18, 11.56 45.49, 7.09 42.48 C2.62 39.47, -0.72 33.51, -1.08 28.34 C-1.44 23.16, 1.87 15.83, 4.94 11.42 C8.02 7.01, 12.47 3.41, 17.37 1.89 C22.27 0.37, 31.42 2.35, 34.33 2.29 C37.25 2.22, 35.04 1.04, 34.88 1.49" stroke="none" stroke-width="0" fill="#fcc2d7"></path><path d="M18.19 0.69 C22.85 -0.82, 30.55 1.1, 35.57 3.12 C40.59 5.14, 45.95 8.44, 48.3 12.8 C50.65 17.16, 50.92 24.32, 49.67 29.27 C48.42 34.22, 45.34 39.3, 40.79 42.49 C36.24 45.68, 28.01 48.67, 22.39 48.42 C16.77 48.17, 10.94 44.89, 7.07 41 C3.2 37.11, -0.28 30.25, -0.85 25.07 C-1.43 19.9, 0.06 14.18, 3.62 9.94 C7.19 5.69, 17.19 1.07, 20.55 -0.38 C23.91 -1.83, 23.68 0.6, 23.77 1.24 M31.88 -0.81 C37.08 -0.27, 41.65 3.8, 44.92 7.97 C48.18 12.15, 51.41 18.92, 51.48 24.24 C51.55 29.57, 48.86 36.02, 45.34 39.9 C41.82 43.77, 35.97 47.01, 30.35 47.51 C24.72 48, 16.47 45.73, 11.58 42.87 C6.7 40.01, 2.39 34.94, 1.01 30.35 C-0.36 25.77, 1.22 20.05, 3.31 15.35 C5.41 10.64, 8.96 4.44, 13.59 2.14 C18.22 -0.16, 28.02 1.95, 31.08 1.54 C34.14 1.14, 31.94 -0.56, 31.94 -0.29" stroke="#1e1e1e" stroke-width="2" fill="none"></path></g></svg>