<svg version="1.1" xmlns="http://www.w3.org/2000/svg" viewBox="0 0 105.26171875 140.8422378015016" width="105.26171875" height="140.8422378015016">
  <!-- svg-source:excalidraw -->
  
  <defs>
    <style class="style-fonts">
      @font-face {
        font-family: "Virgil";
        src: url("https://excalidraw.com/Virgil.woff2");
      }
      @font-face {
        font-family: "Cascadia";
        src: url("https://excalidraw.com/Cascadia.woff2");
      }
      @font-face {
        font-family: "Assistant";
        src: url("https://excalidraw.com/Assistant-Regular.woff2");
      }
    </style>
    
  </defs>
  <g stroke-linecap="round" transform="translate(34.05486505681802 109.06643921733757) rotate(22.461246866865288 19.283203125 7.48828125)"><path d="M3.74 0 C11.32 1.05, 23.93 -2.35, 34.82 0 C35.07 -2.39, 40.57 2.92, 38.57 3.74 C38.51 6.05, 39.32 7.27, 38.57 11.23 C39.97 12.49, 39.76 15.81, 34.82 14.98 C26.5 13.13, 20.28 13.91, 3.74 14.98 C1.82 14.59, -0.97 14.29, 0 11.23 C-0.26 9.84, 0.33 7.21, 0 3.74 C-2.26 3.41, 2.34 2.48, 3.74 0" stroke="none" stroke-width="0" fill="#868e96"></path><path d="M3.74 0 C15.37 -0.51, 26.33 0.74, 34.82 0 M3.74 0 C11.27 0.3, 19.77 0.23, 34.82 0 M34.82 0 C38.08 -0.16, 39.28 2.21, 38.57 3.74 M34.82 0 C36.57 -0.26, 38.56 2.19, 38.57 3.74 M38.57 3.74 C38.28 6.37, 38.78 8.17, 38.57 11.23 M38.57 3.74 C38.57 6.13, 38.74 8.37, 38.57 11.23 M38.57 11.23 C39.14 13.37, 36.35 15.18, 34.82 14.98 M38.57 11.23 C37.96 14.78, 38.1 14.21, 34.82 14.98 M34.82 14.98 C25.68 14.13, 16.58 14.34, 3.74 14.98 M34.82 14.98 C23.47 14.66, 11.46 14.38, 3.74 14.98 M3.74 14.98 C0.39 14, -0.23 12.94, 0 11.23 M3.74 14.98 C0.45 14.85, 0.83 12.98, 0 11.23 M0 11.23 C-0.04 8.63, -0.35 5.35, 0 3.74 M0 11.23 C0.12 9.63, 0.17 8.03, 0 3.74 M0 3.74 C-0.18 0.47, 1.12 -0.51, 3.74 0 M0 3.74 C1.09 1.66, 1.24 -0.46, 3.74 0" stroke="#1e1e1e" stroke-width="2" fill="none"></path></g><g stroke-linecap="round" transform="translate(33.868992660984986 16.919422171883525) rotate(22.923355211056883 19.283203125 7.48828125)"><path d="M3.74 0 C16.09 -2.24, 25.16 -2.61, 34.82 0 C39.32 1.67, 38.4 0.81, 38.57 3.74 C39.33 5.84, 39.09 9.21, 38.57 11.23 C41.01 14.56, 35.35 15.7, 34.82 14.98 C27.19 13.97, 21.34 14.35, 3.74 14.98 C0.28 15.54, -0.13 13.45, 0 11.23 C0.34 8.8, -0.82 6.37, 0 3.74 C1.09 3.73, 2.12 1.62, 3.74 0" stroke="none" stroke-width="0" fill="#868e96"></path><path d="M3.74 0 C14.97 0.89, 25.28 0.41, 34.82 0 M3.74 0 C14.92 0.19, 26.2 -0.2, 34.82 0 M34.82 0 C38.04 0.96, 37.92 1.02, 38.57 3.74 M34.82 0 C37.31 0.95, 38.71 1.07, 38.57 3.74 M38.57 3.74 C38.75 6.05, 38.54 9.04, 38.57 11.23 M38.57 3.74 C38.72 6.69, 38.67 9.36, 38.57 11.23 M38.57 11.23 C37.59 13.93, 36.8 15.89, 34.82 14.98 M38.57 11.23 C39.35 12.96, 37.18 14.27, 34.82 14.98 M34.82 14.98 C22.44 14.05, 11.48 13.91, 3.74 14.98 M34.82 14.98 C28.18 14.44, 20.84 14.43, 3.74 14.98 M3.74 14.98 C1.02 14.19, -0.69 13.62, 0 11.23 M3.74 14.98 C2.08 14.23, 0.94 14.22, 0 11.23 M0 11.23 C-0.33 9.37, -0.32 7.97, 0 3.74 M0 11.23 C0.16 9.27, -0.06 7.15, 0 3.74 M0 3.74 C-0.13 0.73, 2.19 0.35, 3.74 0 M0 3.74 C0 0.79, 1.44 0.76, 3.74 0" stroke="#1e1e1e" stroke-width="2" fill="none"></path></g><g stroke-linecap="round" transform="translate(10 32.545724255215646) rotate(0 42.630859375 38.322265625)"><path d="M19.16 0 C32.63 -2.66, 55.08 2.97, 66.1 0 C78.64 -0.61, 88.71 6.24, 85.26 19.16 C87.75 29.38, 89.19 44.18, 85.26 57.48 C82.53 71.26, 76.21 74.77, 66.1 76.64 C55.61 75.86, 42.19 77.18, 19.16 76.64 C6.21 76.26, 2.82 69.26, 0 57.48 C-3.35 45.75, 1.28 31.48, 0 19.16 C1.21 8.63, 9.77 -3.14, 19.16 0" stroke="none" stroke-width="0" fill="#7950f2"></path><path d="M19.16 0 C30.36 0.31, 44.44 -2.07, 66.1 0 M19.16 0 C37.63 -0.45, 55.3 0.67, 66.1 0 M66.1 0 C77.58 -0.45, 85.25 8.03, 85.26 19.16 M66.1 0 C79.17 -0.37, 86.24 4.64, 85.26 19.16 M85.26 19.16 C85.52 34.52, 87.07 47.94, 85.26 57.48 M85.26 19.16 C86.15 33.01, 84.61 47.77, 85.26 57.48 M85.26 57.48 C84.22 72.09, 80.23 75.31, 66.1 76.64 M85.26 57.48 C84.99 68.84, 80.9 76.22, 66.1 76.64 M66.1 76.64 C58.2 74.45, 45.53 77.87, 19.16 76.64 M66.1 76.64 C52.91 75.22, 41.2 75.41, 19.16 76.64 M19.16 76.64 C5 76.42, 1.45 68.96, 0 57.48 M19.16 76.64 C8.28 77.63, -1.65 70.08, 0 57.48 M0 57.48 C-1.37 44.17, -0.4 30.61, 0 19.16 M0 57.48 C-0.56 45.25, -0.51 34.05, 0 19.16 M0 19.16 C1.89 7.09, 6.38 -0.8, 19.16 0 M0 19.16 C0.38 7.91, 8.24 -2, 19.16 0" stroke="#1e1e1e" stroke-width="2" fill="none"></path></g><g stroke-linecap="round" transform="translate(40.63070709740077 21.99483342197982) rotate(269.315648468081 13.974609375 10.47265625)"><path d="M5.24 0 C10.13 -0.37, 12.47 0.78, 22.71 0 C26.02 -0.38, 30.77 0.75, 27.95 5.24 C26.37 10.83, 28.8 15.08, 27.95 15.71 C29.16 21.44, 29.59 17.8, 22.71 20.95 C21.67 22.7, 15.73 19.84, 5.24 20.95 C3.62 18.99, 1.13 19.03, 0 15.71 C1.02 12.33, 1.15 11.97, 0 5.24 C1.9 1.23, -0.17 -3.52, 5.24 0" stroke="none" stroke-width="0" fill="#fcc2d7"></path><path d="M5.24 0 C11.86 0.91, 19.81 0.01, 22.71 0 M5.24 0 C12.22 -0.41, 17.34 0.08, 22.71 0 M22.71 0 C25.16 1.83, 29.3 0.41, 27.95 5.24 M22.71 0 C25.94 -1.42, 29.97 1.32, 27.95 5.24 M27.95 5.24 C28.73 6.39, 27.06 10.29, 27.95 15.71 M27.95 5.24 C27.53 7.48, 27.86 10.33, 27.95 15.71 M27.95 15.71 C26.56 18.98, 27.65 19.65, 22.71 20.95 M27.95 15.71 C29.84 20.19, 24.56 20.77, 22.71 20.95 M22.71 20.95 C14.75 21.62, 9.14 22.14, 5.24 20.95 M22.71 20.95 C17.33 20.27, 12.15 20.5, 5.24 20.95 M5.24 20.95 C3.64 21.65, -0.01 18.4, 0 15.71 M5.24 20.95 C2.12 22.47, 1.86 17.2, 0 15.71 M0 15.71 C-0.92 11.05, 0.79 8.99, 0 5.24 M0 15.71 C0 12.69, 0.43 9.09, 0 5.24 M0 5.24 C1.08 0.79, 3.63 0.64, 5.24 0 M0 5.24 C-1.74 2.39, 0.04 -1.2, 5.24 0" stroke="#1e1e1e" stroke-width="2" fill="none"></path></g><g stroke-linecap="round" transform="translate(28.981305803573377 46.95692110629625) rotate(269.315648468081 25.4296875 23.859375)"><path d="M26.65 0.61 C31.75 0.44, 39.64 2.77, 43.52 6.12 C47.39 9.48, 49.29 15.41, 49.89 20.74 C50.49 26.06, 50.08 33.76, 47.11 38.09 C44.14 42.41, 37.3 45.47, 32.08 46.7 C26.85 47.94, 20.68 47.47, 15.76 45.49 C10.84 43.52, 5.19 39.37, 2.55 34.84 C-0.08 30.32, -1.35 23.26, -0.06 18.34 C1.22 13.42, 5.2 8.45, 10.26 5.33 C15.32 2.21, 26.58 0.41, 30.29 -0.37 C34 -1.16, 32.74 0.21, 32.53 0.63 M22.22 -0.39 C27.45 -1.33, 35.13 0.74, 39.7 3.83 C44.27 6.93, 48.18 13.04, 49.62 18.16 C51.07 23.28, 50.42 29.94, 48.38 34.54 C46.33 39.15, 42.37 43.49, 37.36 45.78 C32.34 48.08, 23.57 49.37, 18.29 48.33 C13.01 47.29, 8.64 43.71, 5.68 39.57 C2.72 35.42, 0.11 29, 0.55 23.44 C0.99 17.88, 4.86 9.91, 8.32 6.2 C11.77 2.49, 19.13 1.89, 21.27 1.19 C23.42 0.49, 20.8 1.7, 21.21 1.99" stroke="none" stroke-width="0" fill="#fcc2d7"></path><path d="M25.18 0.59 C30.16 -0.17, 36.57 1.15, 40.79 4.13 C45.01 7.11, 49.2 13.17, 50.52 18.45 C51.85 23.73, 51.48 31.23, 48.76 35.8 C46.04 40.38, 39.53 43.96, 34.22 45.89 C28.9 47.83, 21.98 49.15, 16.88 47.41 C11.78 45.67, 6.46 40.08, 3.64 35.46 C0.81 30.84, -1 24.74, -0.07 19.69 C0.87 14.65, 4.16 8.2, 9.25 5.16 C14.35 2.12, 25.88 1.7, 30.5 1.45 C35.12 1.19, 37.11 3.5, 36.99 3.61 M12.44 2.64 C17.09 0.12, 26.07 -1.65, 31.78 -0.45 C37.49 0.74, 43.69 5.63, 46.69 9.8 C49.69 13.97, 49.99 19.78, 49.77 24.56 C49.55 29.34, 48.95 34.85, 45.39 38.46 C41.82 42.07, 33.82 45.35, 28.36 46.19 C22.9 47.04, 16.95 46.03, 12.61 43.54 C8.28 41.05, 3.89 36, 2.34 31.23 C0.8 26.47, 1.53 19.87, 3.34 14.94 C5.15 10.01, 11.51 3.72, 13.21 1.64 C14.9 -0.45, 13.04 1.82, 13.52 2.45" stroke="#1e1e1e" stroke-width="2" fill="none"></path></g></svg>