<svg version="1.1" xmlns="http://www.w3.org/2000/svg" viewBox="0 0 106.89305606447624 140.8422378015016" width="106.89305606447624" height="140.8422378015016">
  <!-- svg-source:excalidraw -->
  
  <defs>
    <style class="style-fonts">
      @font-face {
        font-family: "Virgil";
        src: url("https://excalidraw.com/Virgil.woff2");
      }
      @font-face {
        font-family: "Cascadia";
        src: url("https://excalidraw.com/Cascadia.woff2");
      }
      @font-face {
        font-family: "Assistant";
        src: url("https://excalidraw.com/Assistant-Regular.woff2");
      }
    </style>
    
  </defs>
  <g stroke-linecap="round" transform="translate(35.68620237129426 109.06643921733757) rotate(22.461246866865288 19.283203125 7.48828125)"><path d="M3.74 0 C13 1.28, 25.75 2.06, 34.82 0 C37.29 2.6, 38.57 0.78, 38.57 3.74 C39.47 5.75, 38.55 6.68, 38.57 11.23 C38.99 15.45, 39.42 12.72, 34.82 14.98 C21.61 12.27, 14.88 16.34, 3.74 14.98 C1.08 14.53, 2.49 13.62, 0 11.23 C0.45 8.44, 0.84 6.88, 0 3.74 C-1.97 1.97, -0.68 -1.36, 3.74 0" stroke="none" stroke-width="0" fill="#868e96"></path><path d="M3.74 0 C13.88 -0.01, 26.21 -0.57, 34.82 0 M3.74 0 C11.47 -0.38, 18.49 -0.09, 34.82 0 M34.82 0 C36.35 0.73, 39.11 1.23, 38.57 3.74 M34.82 0 C38 1.1, 39.18 1.76, 38.57 3.74 M38.57 3.74 C38.41 5.8, 38.78 7.29, 38.57 11.23 M38.57 3.74 C38.72 6.54, 38.71 9.57, 38.57 11.23 M38.57 11.23 C37.92 13.5, 37.31 15.8, 34.82 14.98 M38.57 11.23 C38.71 13.55, 37.81 14.11, 34.82 14.98 M34.82 14.98 C23.12 15.32, 12.17 14.81, 3.74 14.98 M34.82 14.98 C23.59 14.88, 11.3 15.17, 3.74 14.98 M3.74 14.98 C0.73 15.89, 0.68 13.06, 0 11.23 M3.74 14.98 C1.11 14.27, 1.01 13.52, 0 11.23 M0 11.23 C0.3 9.38, -0.29 8.51, 0 3.74 M0 11.23 C-0.17 9.08, -0.05 7.15, 0 3.74 M0 3.74 C-0.69 1.14, 1.97 -0.65, 3.74 0 M0 3.74 C0.94 1.74, 0.43 -0.09, 3.74 0" stroke="#1e1e1e" stroke-width="2" fill="none"></path></g><g stroke-linecap="round" transform="translate(35.50032997546032 16.919422171883525) rotate(22.923355211056883 19.283203125 7.48828125)"><path d="M3.74 0 C10.79 1.72, 19.77 2.42, 34.82 0 C37.32 -0.46, 36.55 0.91, 38.57 3.74 C38.65 5.21, 38.82 8.11, 38.57 11.23 C40.66 11.47, 38.7 15.49, 34.82 14.98 C29.92 16.28, 20.85 14.16, 3.74 14.98 C3.74 14.87, 0.3 15.78, 0 11.23 C0.86 9.97, -0.79 8.35, 0 3.74 C-1.92 -0.11, -0.3 -0.61, 3.74 0" stroke="none" stroke-width="0" fill="#868e96"></path><path d="M3.74 0 C16.16 -0.47, 26.79 -0.15, 34.82 0 M3.74 0 C13.98 0.07, 24.16 0.46, 34.82 0 M34.82 0 C37.86 -0.02, 39.16 2.2, 38.57 3.74 M34.82 0 C37.94 0.52, 38.08 1.52, 38.57 3.74 M38.57 3.74 C38.76 6.3, 38.84 9.58, 38.57 11.23 M38.57 3.74 C38.73 6.64, 38.47 9.13, 38.57 11.23 M38.57 11.23 C38.56 14.55, 37.45 14.82, 34.82 14.98 M38.57 11.23 C39.05 12.86, 38.21 15.64, 34.82 14.98 M34.82 14.98 C28.44 14.98, 21.17 15.87, 3.74 14.98 M34.82 14.98 C23.28 15.02, 12.45 15.38, 3.74 14.98 M3.74 14.98 C1.93 14.31, -0.12 13.11, 0 11.23 M3.74 14.98 C2.26 14.76, -1.13 13.36, 0 11.23 M0 11.23 C-0.34 9.86, -0.17 8, 0 3.74 M0 11.23 C-0.01 9.55, -0.1 8.14, 0 3.74 M0 3.74 C0.72 0.6, 2.07 0.43, 3.74 0 M0 3.74 C-0.82 1.16, 2.05 -1.04, 3.74 0" stroke="#1e1e1e" stroke-width="2" fill="none"></path></g><g stroke-linecap="round" transform="translate(11.63133731447624 32.545724255215646) rotate(0 42.630859375 38.322265625)"><path d="M19.16 0 C35.22 2.98, 51.36 -1.26, 66.1 0 C76.08 -0.46, 83.41 9.79, 85.26 19.16 C85.85 34.4, 88.16 41.74, 85.26 57.48 C87.17 70.97, 76.07 73.54, 66.1 76.64 C56.11 76.58, 50.03 77.04, 19.16 76.64 C6.8 79.48, -3.22 72.2, 0 57.48 C-3.38 48.82, -3.31 36.27, 0 19.16 C-2.15 5.54, 5.33 0.79, 19.16 0" stroke="none" stroke-width="0" fill="#7950f2"></path><path d="M19.16 0 C32.6 -0.06, 49.13 1.18, 66.1 0 M19.16 0 C29.26 0.76, 41.84 0.01, 66.1 0 M66.1 0 C80.06 1.91, 86.33 7.29, 85.26 19.16 M66.1 0 C77.9 0.55, 87.17 5.36, 85.26 19.16 M85.26 19.16 C87.02 32.56, 86.72 46.35, 85.26 57.48 M85.26 19.16 C84.89 29.83, 85.53 41.78, 85.26 57.48 M85.26 57.48 C85.52 69.94, 79.72 75.13, 66.1 76.64 M85.26 57.48 C87.04 71.59, 77.29 76.68, 66.1 76.64 M66.1 76.64 C51.3 78.27, 34.79 77.76, 19.16 76.64 M66.1 76.64 C53.18 77.65, 41.98 76.07, 19.16 76.64 M19.16 76.64 C6.15 75.41, 1.76 69.89, 0 57.48 M19.16 76.64 C4.12 75.9, -1.77 72.05, 0 57.48 M0 57.48 C-0.43 50.05, -1.58 39.8, 0 19.16 M0 57.48 C-0.6 49.63, 0.81 41.35, 0 19.16 M0 19.16 C1.64 7.24, 4.96 -0.15, 19.16 0 M0 19.16 C1.6 4.31, 5.42 -1.98, 19.16 0" stroke="#1e1e1e" stroke-width="2" fill="none"></path></g><g stroke-linecap="round" transform="translate(13.186373760761398 88.17832059975444) rotate(312.47556431009303 13.974609375 10.47265625)"><path d="M5.24 0 C13.66 1.59, 19.86 1.33, 22.71 0 C28.45 3.38, 24.8 -1.06, 27.95 5.24 C29 9.56, 27.28 13.93, 27.95 15.71 C25.99 20.33, 26.03 19.12, 22.71 20.95 C17.08 22.86, 16.49 22.76, 5.24 20.95 C1.23 19.03, -3.52 21.86, 0 15.71 C0.7 11.79, 1.94 11.78, 0 5.24 C-0.85 1.78, -1.84 -0.9, 5.24 0" stroke="none" stroke-width="0" fill="#fcc2d7"></path><path d="M5.24 0 C10.38 1.27, 11.16 -0.11, 22.71 0 M5.24 0 C8.54 -0.25, 12.9 0.71, 22.71 0 M22.71 0 C24.37 -1.64, 29.54 1, 27.95 5.24 M22.71 0 C26.84 -2.18, 25.97 -0.51, 27.95 5.24 M27.95 5.24 C27.75 8.89, 27.19 11.89, 27.95 15.71 M27.95 5.24 C28.24 8.35, 27.66 11.97, 27.95 15.71 M27.95 15.71 C28.81 18.45, 27.66 20.93, 22.71 20.95 M27.95 15.71 C30.25 19.2, 25.79 19.16, 22.71 20.95 M22.71 20.95 C18.31 21.1, 11.98 21.4, 5.24 20.95 M22.71 20.95 C16.77 20.97, 9.23 20.04, 5.24 20.95 M5.24 20.95 C-0.1 22.49, 1.29 19.07, 0 15.71 M5.24 20.95 C1.35 23.15, -0.09 19.46, 0 15.71 M0 15.71 C-0.41 12.73, 0.43 6.98, 0 5.24 M0 15.71 C-0.23 12.15, -0.08 8.96, 0 5.24 M0 5.24 C-0.3 1, 2.18 -0.1, 5.24 0 M0 5.24 C-0.24 3.55, 1.11 1.94, 5.24 0" stroke="#1e1e1e" stroke-width="2" fill="none"></path></g><g stroke-linecap="round" transform="translate(28.105044809020455 46.951090522250524) rotate(312.47556431009303 25.4296875 23.859375)"><path d="M23.39 0.87 C28.21 0.25, 34.81 1.92, 39.17 4.89 C43.53 7.85, 47.93 13.95, 49.53 18.68 C51.13 23.4, 50.96 28.89, 48.77 33.23 C46.58 37.58, 41.49 42.59, 36.4 44.77 C31.32 46.94, 23.61 47.56, 18.27 46.3 C12.92 45.03, 7.32 41.32, 4.33 37.2 C1.34 33.08, -0.14 26.58, 0.32 21.58 C0.79 16.57, 2.61 10.77, 7.12 7.17 C11.63 3.57, 23.21 1.02, 27.4 -0.03 C31.59 -1.08, 32.12 0.42, 32.24 0.89 M31.26 1.94 C36.69 2.58, 42.42 6.48, 45.92 10.04 C49.42 13.6, 52.71 18.17, 52.26 23.3 C51.81 28.42, 47.3 36.53, 43.22 40.79 C39.13 45.04, 32.8 48.21, 27.76 48.83 C22.72 49.45, 17.48 47.3, 13 44.51 C8.51 41.72, 2.87 36.93, 0.87 32.09 C-1.13 27.25, -1.08 20.48, 1 15.47 C3.08 10.47, 8.53 4.4, 13.34 2.07 C18.15 -0.26, 26.88 1.77, 29.86 1.48 C32.85 1.2, 31.08 -0.06, 31.26 0.36" stroke="none" stroke-width="0" fill="#fcc2d7"></path><path d="M23.76 -0.94 C28.96 -1.81, 35.76 0.88, 40.29 3.95 C44.82 7.01, 49.78 12.2, 50.95 17.44 C52.13 22.67, 49.97 30.59, 47.34 35.36 C44.7 40.13, 40.16 44.29, 35.13 46.04 C30.11 47.79, 22.51 47.41, 17.19 45.86 C11.87 44.31, 6.17 40.98, 3.21 36.74 C0.24 32.5, -1.39 25.32, -0.61 20.4 C0.16 15.48, 3.53 10.49, 7.87 7.23 C12.2 3.97, 21.94 2.05, 25.38 0.83 C28.81 -0.4, 28.39 -0.49, 28.47 -0.11 M14.99 1.82 C19.8 -0.36, 27.32 -0.63, 32.75 0.71 C38.17 2.06, 44.58 5.94, 47.54 9.89 C50.51 13.85, 51.2 19.46, 50.52 24.43 C49.85 29.4, 46.99 35.76, 43.48 39.71 C39.96 43.66, 34.82 47.58, 29.43 48.13 C24.04 48.67, 15.85 45.79, 11.14 43 C6.44 40.21, 2.49 36.4, 1.21 31.36 C-0.07 26.33, 1.12 17.57, 3.44 12.79 C5.76 8.01, 13.48 4.56, 15.14 2.68 C16.81 0.8, 13.58 1.02, 13.4 1.52" stroke="#1e1e1e" stroke-width="2" fill="none"></path></g></svg>