<svg version="1.1" xmlns="http://www.w3.org/2000/svg" viewBox="0 0 107.08836856447897 140.8422378015016" width="107.08836856447897" height="140.8422378015016">
  <!-- svg-source:excalidraw -->
  
  <defs>
    <style class="style-fonts">
      @font-face {
        font-family: "Virgil";
        src: url("https://excalidraw.com/Virgil.woff2");
      }
      @font-face {
        font-family: "Cascadia";
        src: url("https://excalidraw.com/Cascadia.woff2");
      }
      @font-face {
        font-family: "Assistant";
        src: url("https://excalidraw.com/Assistant-Regular.woff2");
      }
    </style>
    
  </defs>
  <g stroke-linecap="round" transform="translate(34.05486505681802 109.06643921733757) rotate(22.461246866865288 19.283203125 7.48828125)"><path d="M3.74 0 C8.36 -1.71, 16.76 1.97, 34.82 0 C35.64 2.14, 39.68 -0.61, 38.57 3.74 C38.23 5.1, 39.05 7.76, 38.57 11.23 C40.46 13.7, 39.92 14.98, 34.82 14.98 C24.71 17.38, 18.2 14.91, 3.74 14.98 C0.21 15.4, 1.72 15.83, 0 11.23 C-0.81 8.8, -0.95 8.79, 0 3.74 C1.67 1.08, 0.81 2.49, 3.74 0" stroke="none" stroke-width="0" fill="#868e96"></path><path d="M3.74 0 C12.36 -0.05, 20.57 0.05, 34.82 0 M3.74 0 C13.52 -0.09, 23.75 0.1, 34.82 0 M34.82 0 C38.12 -0.8, 38.68 1.84, 38.57 3.74 M34.82 0 C36.8 -0.68, 38.41 1.67, 38.57 3.74 M38.57 3.74 C38.52 5.99, 38.82 9.17, 38.57 11.23 M38.57 3.74 C38.69 6.06, 38.51 8.25, 38.57 11.23 M38.57 11.23 C39.39 13.28, 37.67 15.53, 34.82 14.98 M38.57 11.23 C37.6 14.62, 37.64 15.7, 34.82 14.98 M34.82 14.98 C24.09 14.44, 11.21 15.08, 3.74 14.98 M34.82 14.98 C23.15 14.57, 11.45 15.24, 3.74 14.98 M3.74 14.98 C0.56 14.99, 0.45 14.52, 0 11.23 M3.74 14.98 C1.17 15.79, 0.95 14.37, 0 11.23 M0 11.23 C0.09 8.36, 0.36 6.13, 0 3.74 M0 11.23 C0.17 9.45, -0.18 7.68, 0 3.74 M0 3.74 C-0.77 2.03, 0.33 -0.82, 3.74 0 M0 3.74 C0.92 0.82, 1.56 -1.09, 3.74 0" stroke="#1e1e1e" stroke-width="2" fill="none"></path></g><g stroke-linecap="round" transform="translate(33.868992660984986 16.919422171883525) rotate(22.923355211056883 19.283203125 7.48828125)"><path d="M3.74 0 C12.06 2.16, 19.27 2.42, 34.82 0 C38.43 -1.86, 38.37 3.06, 38.57 3.74 C38.94 4.95, 39.23 6.88, 38.57 11.23 C41.16 13.73, 36.86 12.96, 34.82 14.98 C26.82 15.35, 15.93 15.79, 3.74 14.98 C2.97 17.07, -2.26 15.11, 0 11.23 C-0.82 9.59, 0.7 6.38, 0 3.74 C-0.44 3.74, 1.14 0.3, 3.74 0" stroke="none" stroke-width="0" fill="#868e96"></path><path d="M3.74 0 C12.85 0.08, 23.57 -0.24, 34.82 0 M3.74 0 C13.54 0.13, 23.21 -0.37, 34.82 0 M34.82 0 C37.43 0.59, 38.12 0.65, 38.57 3.74 M34.82 0 C37.16 0.42, 39.13 0.51, 38.57 3.74 M38.57 3.74 C38.84 5.87, 38.56 7.82, 38.57 11.23 M38.57 3.74 C38.51 6.75, 38.74 9.58, 38.57 11.23 M38.57 11.23 C38.92 14.28, 36.48 15.75, 34.82 14.98 M38.57 11.23 C38.89 14.45, 38.2 14.8, 34.82 14.98 M34.82 14.98 C23.04 14.87, 12.54 15, 3.74 14.98 M34.82 14.98 C26.38 15.15, 16.82 14.87, 3.74 14.98 M3.74 14.98 C1.7 15.77, -0.06 14.44, 0 11.23 M3.74 14.98 C2.2 15.62, 0.66 13.32, 0 11.23 M0 11.23 C0.33 9.97, -0.26 8.15, 0 3.74 M0 11.23 C-0.22 9.39, -0.18 7.81, 0 3.74 M0 3.74 C-0.92 0.43, 2.04 -0.37, 3.74 0 M0 3.74 C0.32 0.16, 0.26 -1.13, 3.74 0" stroke="#1e1e1e" stroke-width="2" fill="none"></path></g><g stroke-linecap="round" transform="translate(10 32.545724255215646) rotate(0 42.630859375 38.322265625)"><path d="M19.16 0 C27.66 2.35, 42.36 -3.19, 66.1 0 C78.6 2.51, 82.02 4.88, 85.26 19.16 C88.18 27.33, 89.15 35.57, 85.26 57.48 C84.62 67.46, 78.41 74.79, 66.1 76.64 C46.14 77.23, 31.45 79.55, 19.16 76.64 C3.26 78.55, 0.71 67.46, 0 57.48 C2.95 49.06, 0.02 44.55, 0 19.16 C-0.15 6.8, 9.22 -3.22, 19.16 0" stroke="none" stroke-width="0" fill="#7950f2"></path><path d="M19.16 0 C33.46 -0.53, 47.19 -0.44, 66.1 0 M19.16 0 C33.29 -0.9, 45.94 0.49, 66.1 0 M66.1 0 C77.98 -1.19, 84.99 7.11, 85.26 19.16 M66.1 0 C79.99 -1.48, 84.28 6.23, 85.26 19.16 M85.26 19.16 C85.5 28.13, 87.45 35.8, 85.26 57.48 M85.26 19.16 C85.93 31.93, 85.45 46.15, 85.26 57.48 M85.26 57.48 C83.58 71.8, 79.44 77.9, 66.1 76.64 M85.26 57.48 C87.02 69.9, 80.53 78.85, 66.1 76.64 M66.1 76.64 C56.71 76.9, 43.7 77.49, 19.16 76.64 M66.1 76.64 C54.89 76.93, 45.51 77.71, 19.16 76.64 M19.16 76.64 C6.26 78.06, 1.66 71.37, 0 57.48 M19.16 76.64 C7.71 75.82, -2.24 70.73, 0 57.48 M0 57.48 C-1.68 47.76, -1.58 40.26, 0 19.16 M0 57.48 C-0.39 47.47, -0.54 35.08, 0 19.16 M0 19.16 C1.59 5.64, 6.94 -1.9, 19.16 0 M0 19.16 C-1.98 4.14, 5.85 -1.81, 19.16 0" stroke="#1e1e1e" stroke-width="2" fill="none"></path></g><g stroke-linecap="round" transform="translate(65.95277605371757 87.12363309975535) rotate(47.524435689906944 13.974609375 10.47265625)"><path d="M5.24 0 C14.27 -2.48, 21.84 2.27, 22.71 0 C27.09 -0.96, 29.82 -0.21, 27.95 5.24 C26.98 9.94, 28.86 11.41, 27.95 15.71 C29.96 22.04, 28.11 20.43, 22.71 20.95 C17.11 18.04, 12.24 22.03, 5.24 20.95 C-0.55 24.29, 2.85 18.35, 0 15.71 C0.83 11.87, 0.12 8.74, 0 5.24 C2.16 3.91, 3.67 -1.41, 5.24 0" stroke="none" stroke-width="0" fill="#fcc2d7"></path><path d="M5.24 0 C11.45 -1.18, 20.17 -1.43, 22.71 0 M5.24 0 C9.29 -0.76, 12.11 -0.79, 22.71 0 M22.71 0 C25.74 -1.57, 26.56 1.52, 27.95 5.24 M22.71 0 C27.87 -1.49, 29.84 2.73, 27.95 5.24 M27.95 5.24 C27 7.19, 27.04 10.47, 27.95 15.71 M27.95 5.24 C28.55 7.99, 27.93 10.33, 27.95 15.71 M27.95 15.71 C27.69 18.17, 28.09 21.65, 22.71 20.95 M27.95 15.71 C27.94 18.28, 26.58 22.47, 22.71 20.95 M22.71 20.95 C16.41 19.68, 7.9 19.43, 5.24 20.95 M22.71 20.95 C15.98 21.77, 9.5 21.03, 5.24 20.95 M5.24 20.95 C3.32 19.16, 1.08 18.25, 0 15.71 M5.24 20.95 C3.91 21.68, -1.74 19.84, 0 15.71 M0 15.71 C-0.19 13.03, 0.28 10.82, 0 5.24 M0 15.71 C-0.08 13.37, -0.17 10.64, 0 5.24 M0 5.24 C0.65 2.57, 0.01 1.66, 5.24 0 M0 5.24 C0.96 3.94, 2.52 1.43, 5.24 0" stroke="#1e1e1e" stroke-width="2" fill="none"></path></g><g stroke-linecap="round" transform="translate(28.123948755458514 45.896403022249615) rotate(47.524435689906944 25.4296875 23.859375)"><path d="M37.22 1.85 C41.85 3.8, 46.25 9.14, 48.3 13.91 C50.35 18.69, 50.99 25.55, 49.52 30.51 C48.06 35.48, 44.11 40.83, 39.53 43.71 C34.94 46.58, 27.44 48.37, 21.99 47.76 C16.54 47.15, 10.33 43.86, 6.8 40.05 C3.28 36.23, 0.96 29.89, 0.82 24.86 C0.68 19.83, 2.73 14.03, 5.94 9.85 C9.15 5.66, 14.4 0.68, 20.09 -0.25 C25.78 -1.18, 36.42 3.21, 40.08 4.25 C43.74 5.29, 42.3 5.58, 42.03 6 M13.38 3.59 C18.28 1.15, 27.55 -0.04, 32.97 1.18 C38.38 2.41, 43.02 6.74, 45.86 10.95 C48.69 15.15, 50.37 21.57, 49.95 26.4 C49.53 31.24, 47.19 36.26, 43.35 39.96 C39.5 43.66, 32.18 48.13, 26.89 48.6 C21.6 49.08, 15.78 45.69, 11.59 42.8 C7.39 39.9, 3.11 36.1, 1.71 31.23 C0.31 26.36, 1.14 18.65, 3.17 13.57 C5.2 8.49, 11.74 2.69, 13.88 0.77 C16.01 -1.15, 15.93 1.6, 15.99 2.06" stroke="none" stroke-width="0" fill="#fcc2d7"></path><path d="M13.8 2.74 C18.27 0.04, 25.32 -1.31, 30.51 -0.18 C35.7 0.95, 41.7 5.36, 44.95 9.51 C48.2 13.66, 50.23 19.45, 50.02 24.71 C49.81 29.97, 47.44 37.12, 43.7 41.07 C39.96 45.02, 32.89 48.08, 27.57 48.4 C22.24 48.72, 16.18 45.85, 11.74 42.99 C7.3 40.13, 2.69 36.1, 0.94 31.25 C-0.81 26.39, -1.4 18.79, 1.25 13.84 C3.89 8.9, 13.52 3.62, 16.83 1.56 C20.14 -0.5, 20.82 1.03, 21.09 1.5 M25.26 -0.77 C30.72 -0.79, 39.01 2.81, 43.21 6.13 C47.41 9.45, 49.73 14.03, 50.47 19.14 C51.22 24.25, 50.21 32.5, 47.69 36.8 C45.16 41.11, 40.34 43.36, 35.31 44.98 C30.28 46.61, 23.02 48.32, 17.5 46.57 C11.99 44.82, 5.31 38.76, 2.23 34.47 C-0.86 30.19, -2.3 25.68, -0.99 20.85 C0.32 16.01, 5.7 8.71, 10.07 5.47 C14.43 2.24, 22.65 2.24, 25.2 1.44 C27.75 0.63, 25.15 0.71, 25.39 0.65" stroke="#1e1e1e" stroke-width="2" fill="none"></path></g></svg>