<svg version="1.1" xmlns="http://www.w3.org/2000/svg" viewBox="0 0 114.98702566964403 140.8422378015016" width="114.98702566964403" height="140.8422378015016">
  <!-- svg-source:excalidraw -->
  
  <defs>
    <style class="style-fonts">
      @font-face {
        font-family: "Virgil";
        src: url("https://excalidraw.com/Virgil.woff2");
      }
      @font-face {
        font-family: "Cascadia";
        src: url("https://excalidraw.com/Cascadia.woff2");
      }
      @font-face {
        font-family: "Assistant";
        src: url("https://excalidraw.com/Assistant-Regular.woff2");
      }
    </style>
    
  </defs>
  <g stroke-linecap="round" transform="translate(34.05486505681802 109.06643921733757) rotate(22.461246866865288 19.283203125 7.48828125)"><path d="M3.74 0 C12.84 2.06, 19.01 1.42, 34.82 0 C36.08 2.44, 39.4 -0.72, 38.57 3.74 C37.91 5.97, 38.21 8.87, 38.57 11.23 C38.18 12.76, 37.88 14.85, 34.82 14.98 C28.02 15.71, 17.9 12.6, 3.74 14.98 C3.41 16.06, 2.48 14.6, 0 11.23 C-0.85 9.18, -0.93 6.68, 0 3.74 C1.67 1.89, 0.56 1.35, 3.74 0" stroke="none" stroke-width="0" fill="#868e96"></path><path d="M3.74 0 C13.78 0.6, 25.1 -0.77, 34.82 0 M3.74 0 C12.43 -0.21, 21.21 -0.51, 34.82 0 M34.82 0 C38.09 0.58, 37.88 1.26, 38.57 3.74 M34.82 0 C37.84 0.91, 38.49 2.06, 38.57 3.74 M38.57 3.74 C38.45 6.25, 38.66 9.28, 38.57 11.23 M38.57 3.74 C38.57 6.56, 38.76 9.57, 38.57 11.23 M38.57 11.23 C37.58 13.4, 36.55 15.76, 34.82 14.98 M38.57 11.23 C37.51 12.79, 38.23 14.55, 34.82 14.98 M34.82 14.98 C23.67 14.61, 13.68 14.15, 3.74 14.98 M34.82 14.98 C26.25 15.09, 16.5 14.84, 3.74 14.98 M3.74 14.98 C1.94 14.07, -0.42 12.87, 0 11.23 M3.74 14.98 C1.74 14.55, 0.84 13.72, 0 11.23 M0 11.23 C-0.29 8.19, -0.19 5.6, 0 3.74 M0 11.23 C0.03 8.85, 0.15 6.05, 0 3.74 M0 3.74 C0.53 1.45, 0.47 -0.86, 3.74 0 M0 3.74 C-1.06 2.13, 1.99 -0.07, 3.74 0" stroke="#1e1e1e" stroke-width="2" fill="none"></path></g><g stroke-linecap="round" transform="translate(33.868992660984986 16.919422171883525) rotate(22.923355211056883 19.283203125 7.48828125)"><path d="M3.74 0 C10.61 1.09, 20.9 2.13, 34.82 0 C38.15 -1.97, 39.29 -0.68, 38.57 3.74 C38.22 5.81, 38.36 7.09, 38.57 11.23 C39.13 13.6, 37.04 17.02, 34.82 14.98 C27.43 12.85, 20.06 16.2, 3.74 14.98 C3.73 15.85, 1.62 16.17, 0 11.23 C-0.77 10.52, 0.7 8.29, 0 3.74 C-0.69 2.6, -0.17 0.82, 3.74 0" stroke="none" stroke-width="0" fill="#868e96"></path><path d="M3.74 0 C16.4 -0.76, 26.91 -0.12, 34.82 0 M3.74 0 C15.84 -0.35, 27.89 0.31, 34.82 0 M34.82 0 C36.63 0.02, 39.02 2.04, 38.57 3.74 M34.82 0 C37.25 0.81, 39.52 1.89, 38.57 3.74 M38.57 3.74 C38.63 6.22, 38.9 9.35, 38.57 11.23 M38.57 3.74 C38.73 5.46, 38.38 7.18, 38.57 11.23 M38.57 11.23 C37.8 14.51, 36.4 14.16, 34.82 14.98 M38.57 11.23 C39.48 13.3, 37.63 13.89, 34.82 14.98 M34.82 14.98 C27.38 14.25, 21.4 15.66, 3.74 14.98 M34.82 14.98 C27.15 15, 20.54 14.59, 3.74 14.98 M3.74 14.98 C0.83 14.12, 0.43 13.35, 0 11.23 M3.74 14.98 C2.09 14.97, 1.15 13.73, 0 11.23 M0 11.23 C-0.16 9.47, 0.16 7, 0 3.74 M0 11.23 C0.14 9.12, 0.09 7.38, 0 3.74 M0 3.74 C-0.78 0.38, 0.33 0.77, 3.74 0 M0 3.74 C0.74 1.17, 1.05 1.1, 3.74 0" stroke="#1e1e1e" stroke-width="2" fill="none"></path></g><g stroke-linecap="round" transform="translate(10 32.545724255215646) rotate(0 42.630859375 38.322265625)"><path d="M19.16 0 C35.22 2.93, 55.87 -3.19, 66.1 0 C79.88 -2.66, 83.38 4.24, 85.26 19.16 C84.53 28.42, 85.84 40.17, 85.26 57.48 C84.88 73.08, 77.88 79.68, 66.1 76.64 C53.49 77.42, 38.34 77.12, 19.16 76.64 C8.63 80.03, -3.14 67.45, 0 57.48 C2.91 44.26, -0.36 31.13, 0 19.16 C-1.96 7.52, 6.22 -1.82, 19.16 0" stroke="none" stroke-width="0" fill="#7950f2"></path><path d="M19.16 0 C36.16 0.29, 55.71 0.56, 66.1 0 M19.16 0 C33.27 0.94, 45.14 0.37, 66.1 0 M66.1 0 C79.78 1.59, 85.13 7.8, 85.26 19.16 M66.1 0 C80.78 1.28, 86.58 5.56, 85.26 19.16 M85.26 19.16 C87.17 28.29, 84.01 34.47, 85.26 57.48 M85.26 19.16 C84.62 27.97, 84.83 38.22, 85.26 57.48 M85.26 57.48 C83.43 68.62, 80.47 75.9, 66.1 76.64 M85.26 57.48 C85.89 68.08, 76.9 74.39, 66.1 76.64 M66.1 76.64 C52.89 77.76, 38.82 77.96, 19.16 76.64 M66.1 76.64 C50.7 75.71, 33.5 75.75, 19.16 76.64 M19.16 76.64 C7.25 75.9, 1.46 70.24, 0 57.48 M19.16 76.64 C8.68 76.65, -0.41 68.47, 0 57.48 M0 57.48 C0.91 46.47, -0.61 35.8, 0 19.16 M0 57.48 C0.22 43.64, -1.09 28.54, 0 19.16 M0 19.16 C-1.84 7.93, 7.67 -0.13, 19.16 0 M0 19.16 C-0.39 8.59, 6.29 0.26, 19.16 0" stroke="#1e1e1e" stroke-width="2" fill="none"></path></g><g stroke-linecap="round" transform="translate(77.03780691964403 58.64210104360882) rotate(0 13.974609375 10.47265625)"><path d="M5.24 0 C12.43 -2.68, 18.49 -2.62, 22.71 0 C24.33 -2.15, 27.1 0.69, 27.95 5.24 C28.33 8.51, 27.72 13.46, 27.95 15.71 C26.95 22.23, 27.37 22.43, 22.71 20.95 C22 22.14, 17.22 24.03, 5.24 20.95 C-1.4 18.14, 2.46 16.09, 0 15.71 C-0.62 12.61, -1.15 8.13, 0 5.24 C-0.17 -0.08, -0.09 2.35, 5.24 0" stroke="none" stroke-width="0" fill="#fcc2d7"></path><path d="M5.24 0 C10.78 0.22, 13.18 0.74, 22.71 0 M5.24 0 C8.55 -0.09, 13.47 0.59, 22.71 0 M22.71 0 C26.08 1.41, 29.6 2.86, 27.95 5.24 M22.71 0 C27.52 -0.82, 25.71 2.21, 27.95 5.24 M27.95 5.24 C27.35 7.71, 27.4 11.35, 27.95 15.71 M27.95 5.24 C27.44 8.59, 27.37 10.7, 27.95 15.71 M27.95 15.71 C29.54 18.46, 26.75 19.05, 22.71 20.95 M27.95 15.71 C25.97 16.95, 25.67 19.14, 22.71 20.95 M22.71 20.95 C17.55 22.51, 15.4 19.82, 5.24 20.95 M22.71 20.95 C17.24 20.04, 12.87 20.46, 5.24 20.95 M5.24 20.95 C3.2 20.93, 2 19.2, 0 15.71 M5.24 20.95 C1.34 19.16, -0.3 18.02, 0 15.71 M0 15.71 C-0.46 11.75, 0.66 8.29, 0 5.24 M0 15.71 C-0.46 13.03, -0.54 11.65, 0 5.24 M0 5.24 C1.29 1.62, 1.41 1.92, 5.24 0 M0 5.24 C-0.09 2.01, 3.56 -2.06, 5.24 0" stroke="#1e1e1e" stroke-width="2" fill="none"></path></g><g stroke-linecap="round" transform="translate(27.238978794644026 44.60303854360882) rotate(0 25.4296875 23.859375)"><path d="M22.65 1.04 C27.97 0.32, 35.84 1.49, 40.33 4.29 C44.82 7.08, 48.11 12.74, 49.58 17.81 C51.05 22.88, 51.53 30.01, 49.16 34.71 C46.79 39.41, 40.36 44.09, 35.35 46 C30.34 47.9, 24.35 47.69, 19.09 46.14 C13.83 44.58, 6.8 40.6, 3.76 36.66 C0.72 32.71, 0.26 27.43, 0.86 22.47 C1.46 17.5, 2.66 10.58, 7.35 6.85 C12.04 3.12, 24.77 0.85, 29.01 0.09 C33.25 -0.68, 33.15 1.79, 32.8 2.28 M18.28 1.09 C22.81 -0.56, 30.67 -0.45, 35.6 1.69 C40.52 3.83, 45.53 9.06, 47.83 13.93 C50.12 18.79, 50.81 26.02, 49.39 30.9 C47.97 35.77, 43.71 40.39, 39.31 43.16 C34.9 45.93, 28.36 47.77, 22.95 47.5 C17.55 47.22, 10.76 44.99, 6.88 41.51 C2.99 38.04, -0.12 31.84, -0.36 26.65 C-0.61 21.45, 2.35 14.46, 5.43 10.34 C8.51 6.22, 15.66 3.22, 18.12 1.92 C20.57 0.63, 19.77 2.24, 20.17 2.57" stroke="none" stroke-width="0" fill="#fcc2d7"></path><path d="M31.36 -0.16 C36.61 0.51, 42.14 5.53, 45.52 9.67 C48.9 13.81, 51.72 19.51, 51.64 24.69 C51.55 29.86, 48.69 36.8, 44.99 40.69 C41.3 44.59, 35.04 47.67, 29.47 48.07 C23.89 48.47, 16.22 45.99, 11.54 43.09 C6.87 40.19, 2.89 35.25, 1.43 30.66 C-0.03 26.06, 0.88 20.21, 2.79 15.55 C4.7 10.88, 7.79 4.87, 12.88 2.65 C17.96 0.43, 29.37 2.36, 33.3 2.25 C37.24 2.14, 36.6 1.92, 36.51 2.02 M36.3 1.24 C41.51 2.77, 46.26 6.99, 48.37 11.37 C50.48 15.75, 50.27 22.47, 48.98 27.5 C47.69 32.53, 44.88 38.24, 40.61 41.58 C36.34 44.91, 28.55 47.71, 23.34 47.53 C18.14 47.36, 13.02 43.83, 9.38 40.52 C5.73 37.21, 2.54 32.6, 1.46 27.67 C0.37 22.75, -0.01 15.62, 2.88 10.97 C5.76 6.32, 13.5 1.51, 18.77 -0.23 C24.04 -1.98, 31.68 0.19, 34.48 0.51 C37.28 0.82, 35.43 1.09, 35.56 1.67" stroke="#1e1e1e" stroke-width="2" fill="none"></path></g></svg>