<svg version="1.1" xmlns="http://www.w3.org/2000/svg" viewBox="0 0 115.33858816964312 140.84223780150387" width="115.33858816964312" height="140.84223780150387">
  <!-- svg-source:excalidraw -->
  
  <defs>
    <style class="style-fonts">
      @font-face {
        font-family: "Virgil";
        src: url("https://excalidraw.com/Virgil.woff2");
      }
      @font-face {
        font-family: "Cascadia";
        src: url("https://excalidraw.com/Cascadia.woff2");
      }
      @font-face {
        font-family: "Assistant";
        src: url("https://excalidraw.com/Assistant-Regular.woff2");
      }
    </style>
    
  </defs>
  <g stroke-linecap="round" transform="translate(42.3657543628251 109.0664392173394) rotate(337.5387531331347 19.283203125 7.48828125)"><path d="M3.74 0 C13.02 -0.9, 26.23 2.57, 34.82 0 C36.48 0.69, 38.46 2.33, 38.57 3.74 C37.84 6.15, 38.37 9.24, 38.57 11.23 C38.47 11.6, 38.1 14.95, 34.82 14.98 C26.28 15.49, 13.41 14.03, 3.74 14.98 C-0.49 13.86, -0.25 11.26, 0 11.23 C-0.37 8.79, -0.18 6.3, 0 3.74 C2.2 2.14, 2.16 0.53, 3.74 0" stroke="none" stroke-width="0" fill="#868e96"></path><path d="M3.74 0 C14.21 -0.62, 22.96 -0.96, 34.82 0 M3.74 0 C13.16 -0.26, 22.23 -0.36, 34.82 0 M34.82 0 C36.87 0.34, 38.71 0.75, 38.57 3.74 M34.82 0 C37.72 -0.31, 39.09 2.06, 38.57 3.74 M38.57 3.74 C38.41 6.26, 38.59 8.46, 38.57 11.23 M38.57 3.74 C38.58 6.14, 38.71 8.89, 38.57 11.23 M38.57 11.23 C37.72 14.04, 37.15 15.87, 34.82 14.98 M38.57 11.23 C38.78 14.06, 37.72 14.69, 34.82 14.98 M34.82 14.98 C25.23 14.6, 14.04 14.27, 3.74 14.98 M34.82 14.98 C25.4 14.82, 15.47 14.98, 3.74 14.98 M3.74 14.98 C0.94 14.57, 0.3 14.68, 0 11.23 M3.74 14.98 C0.14 16.06, 0.81 13.89, 0 11.23 M0 11.23 C0.36 9.46, -0.18 7.75, 0 3.74 M0 11.23 C0.1 9.75, 0.01 8.02, 0 3.74 M0 3.74 C0.99 1.97, 1.12 0.55, 3.74 0 M0 3.74 C-0.73 2.17, 2.03 0.08, 3.74 0" stroke="#1e1e1e" stroke-width="2" fill="none"></path></g><g stroke-linecap="round" transform="translate(42.55162675865904 16.919422171883525) rotate(337.0766447889431 19.283203125 7.48828125)"><path d="M3.74 0 C11.09 2.44, 16.77 0.88, 34.82 0 C37.21 1.08, 40.61 3.04, 38.57 3.74 C38.23 5.16, 38.45 6.12, 38.57 11.23 C39.35 13.7, 37.4 15.23, 34.82 14.98 C22.01 13.97, 12.6 13.92, 3.74 14.98 C1 12.51, 0.52 11.18, 0 11.23 C-0.23 9.58, 0.87 8.54, 0 3.74 C0.91 1.78, 3.4 2.37, 3.74 0" stroke="none" stroke-width="0" fill="#868e96"></path><path d="M3.74 0 C15.11 -0.75, 27.36 1.01, 34.82 0 M3.74 0 C10.23 -0.37, 16.78 0.29, 34.82 0 M34.82 0 C37.46 -0.5, 38.92 0.98, 38.57 3.74 M34.82 0 C37.84 0.81, 38.82 2.37, 38.57 3.74 M38.57 3.74 C38.53 5.8, 38.72 8.13, 38.57 11.23 M38.57 3.74 C38.71 5.81, 38.41 7.98, 38.57 11.23 M38.57 11.23 C38.4 14.62, 37.5 15.26, 34.82 14.98 M38.57 11.23 C38.97 13.45, 37.66 15.67, 34.82 14.98 M34.82 14.98 C25.73 14.24, 17.25 15.28, 3.74 14.98 M34.82 14.98 C25.64 14.95, 16.76 14.73, 3.74 14.98 M3.74 14.98 C1.55 15.93, -0.96 14.67, 0 11.23 M3.74 14.98 C2.06 15.14, -0.85 12.93, 0 11.23 M0 11.23 C-0.24 8.26, -0.32 5.32, 0 3.74 M0 11.23 C-0.02 8.76, 0.17 6.19, 0 3.74 M0 3.74 C-0.13 1.79, 0.61 0.8, 3.74 0 M0 3.74 C0.78 1.33, 1.88 0.37, 3.74 0" stroke="#1e1e1e" stroke-width="2" fill="none"></path></g><g stroke-linecap="round" transform="translate(20.076869419643117 32.194161755215646) rotate(0 42.630859375 38.322265625)"><path d="M19.16 0 C29.9 0.22, 42.8 0.76, 66.1 0 C81.71 2.48, 82.1 3.44, 85.26 19.16 C84.94 26.04, 86.17 38.76, 85.26 57.48 C85.37 70.6, 79.94 77.86, 66.1 76.64 C48.89 74.76, 36.17 72.89, 19.16 76.64 C7.11 73.12, -3.53 68.55, 0 57.48 C3.25 47.41, 1.46 35.6, 0 19.16 C2.99 9.67, 6.79 -3.29, 19.16 0" stroke="none" stroke-width="0" fill="#a18072"></path><path d="M19.16 0 C30.92 2.25, 40.95 0.79, 66.1 0 M19.16 0 C29.07 0.81, 40.02 -0.04, 66.1 0 M66.1 0 C79.57 -0.54, 86.18 7.79, 85.26 19.16 M66.1 0 C79.39 2.25, 85.03 5.19, 85.26 19.16 M85.26 19.16 C86.15 31.91, 84.82 44.37, 85.26 57.48 M85.26 19.16 C84.71 27.19, 85.39 35.48, 85.26 57.48 M85.26 57.48 C85.63 70.83, 79.58 76.15, 66.1 76.64 M85.26 57.48 C85.95 71.65, 78.51 78.17, 66.1 76.64 M66.1 76.64 C53.82 77.04, 40.99 76.87, 19.16 76.64 M66.1 76.64 C53.01 76.26, 40.84 77.61, 19.16 76.64 M19.16 76.64 C4.46 78.54, 1.42 70.54, 0 57.48 M19.16 76.64 C4.69 75.04, 1.93 72.28, 0 57.48 M0 57.48 C-1.35 45.89, 1.12 36.95, 0 19.16 M0 57.48 C1.01 42.97, -0.11 27.56, 0 19.16 M0 19.16 C-1.28 7.98, 7.75 0.15, 19.16 0 M0 19.16 C1.27 7.12, 4.62 -1.56, 19.16 0" stroke="#1e1e1e" stroke-width="2" fill="none"></path></g><g stroke-linecap="round" transform="translate(10 58.64210104361064) rotate(0 13.974609375 10.47265625)"><path d="M5.24 0 C11.87 1.22, 21.23 2.09, 22.71 0 C23.04 -2.94, 26.37 0.78, 27.95 5.24 C28.51 8.17, 28 11.32, 27.95 15.71 C29.01 20.42, 26.75 17.38, 22.71 20.95 C17.88 17.83, 14.29 17.73, 5.24 20.95 C-1.79 19.24, -0.18 18.17, 0 15.71 C0.5 13.1, 1.4 11.44, 0 5.24 C0.41 -1.54, 2.74 -0.17, 5.24 0" stroke="none" stroke-width="0" fill="#a5d8ff"></path><path d="M5.24 0 C7.51 0.19, 11.43 -0.66, 22.71 0 M5.24 0 C8.87 -0.5, 12.55 -0.3, 22.71 0 M22.71 0 C27.12 1.4, 28.4 3.7, 27.95 5.24 M22.71 0 C25.98 -1.2, 28.58 1.64, 27.95 5.24 M27.95 5.24 C27.77 8.11, 26.96 11.68, 27.95 15.71 M27.95 5.24 C27.77 8.72, 27.96 11.42, 27.95 15.71 M27.95 15.71 C28.65 18.71, 26.81 22.16, 22.71 20.95 M27.95 15.71 C27.58 20.72, 25.4 20.33, 22.71 20.95 M22.71 20.95 C18.46 21.48, 14.14 20.21, 5.24 20.95 M22.71 20.95 C17.66 21.71, 11.25 21.7, 5.24 20.95 M5.24 20.95 C3.16 21.22, -1.47 17.81, 0 15.71 M5.24 20.95 C3.68 22.97, -0.46 17.95, 0 15.71 M0 15.71 C0.56 13.31, 1.1 9.92, 0 5.24 M0 15.71 C-0.17 12.2, -0.44 8.54, 0 5.24 M0 5.24 C1.36 1.89, 2.85 0.64, 5.24 0 M0 5.24 C-1.77 0.19, 0.67 0.37, 5.24 0" stroke="#1e1e1e" stroke-width="2" fill="none"></path></g><g stroke-linecap="round" transform="translate(36.888671875 44.60303854361064) rotate(0 25.4296875 23.859375)"><path d="M35.25 1.82 C39.83 3.48, 44.97 8.27, 47.52 12.98 C50.07 17.7, 51.58 25.08, 50.55 30.11 C49.52 35.13, 45.71 40.05, 41.33 43.14 C36.95 46.23, 29.73 49.03, 24.25 48.65 C18.78 48.28, 12.39 44.71, 8.47 40.88 C4.54 37.05, 1.23 30.64, 0.68 25.69 C0.13 20.74, 2.19 15.21, 5.16 11.18 C8.13 7.14, 13.15 3.02, 18.52 1.47 C23.89 -0.08, 34.24 1.58, 37.38 1.87 C40.52 2.16, 37.57 2.59, 37.35 3.22 M21.98 1.49 C27.14 0.2, 35.11 -0.27, 39.48 2.04 C43.85 4.35, 46.66 10.35, 48.22 15.35 C49.77 20.35, 50.54 27.37, 48.8 32.05 C47.06 36.74, 42.4 40.92, 37.78 43.46 C33.17 46, 26.46 48.01, 21.13 47.28 C15.79 46.55, 9.22 42.96, 5.77 39.09 C2.33 35.21, 0.34 29.42, 0.45 24.04 C0.55 18.66, 3.02 10.91, 6.4 6.79 C9.79 2.67, 18.34 0.33, 20.74 -0.7 C23.14 -1.72, 20.86 0.03, 20.8 0.64" stroke="none" stroke-width="0" fill="#a5d8ff"></path><path d="M22.19 0.38 C27.35 -0.47, 33.84 1.2, 38.37 3.95 C42.89 6.71, 47.44 12.07, 49.33 16.91 C51.22 21.75, 51.55 28.33, 49.72 32.99 C47.9 37.64, 43.39 42.39, 38.38 44.81 C33.37 47.23, 25.16 48.57, 19.66 47.48 C14.16 46.39, 8.57 42.33, 5.37 38.27 C2.17 34.22, 0.31 28.21, 0.47 23.16 C0.62 18.11, 2.65 11.69, 6.29 7.97 C9.94 4.25, 19.28 2.24, 22.35 0.85 C25.42 -0.54, 24.46 -0.6, 24.72 -0.36 M36.92 1.97 C41.76 3.87, 46.9 10.01, 49.03 14.89 C51.16 19.77, 51.31 26.54, 49.69 31.25 C48.07 35.96, 43.91 40.39, 39.29 43.13 C34.66 45.88, 27.19 48.18, 21.94 47.72 C16.7 47.26, 11.39 44.13, 7.81 40.39 C4.24 36.65, 1.11 30.35, 0.48 25.29 C-0.14 20.24, 1.03 14.24, 4.05 10.04 C7.08 5.85, 13.16 1.19, 18.62 0.14 C24.09 -0.9, 34.16 3.09, 36.85 3.76 C39.53 4.44, 34.82 4.03, 34.74 4.18" stroke="#1e1e1e" stroke-width="2" fill="none"></path></g></svg>