<svg version="1.1" xmlns="http://www.w3.org/2000/svg" viewBox="0 0 107.08836856448033 140.84223780150023" width="107.08836856448033" height="140.84223780150023">
  <!-- svg-source:excalidraw -->
  
  <defs>
    <style class="style-fonts">
      @font-face {
        font-family: "Virgil";
        src: url("https://excalidraw.com/Virgil.woff2");
      }
      @font-face {
        font-family: "Cascadia";
        src: url("https://excalidraw.com/Cascadia.woff2");
      }
      @font-face {
        font-family: "Assistant";
        src: url("https://excalidraw.com/Assistant-Regular.woff2");
      }
    </style>
    
  </defs>
  <g stroke-linecap="round" transform="translate(34.46709725766232 109.06643921733576) rotate(337.5387531331347 19.283203125 7.48828125)"><path d="M3.74 0 C10.54 -1.19, 18.56 -1.8, 34.82 0 C38.66 1.8, 37.14 0.15, 38.57 3.74 C38.23 5.76, 39.49 8.61, 38.57 11.23 C36.6 11.25, 37.14 16.07, 34.82 14.98 C22.21 15.8, 8.17 16.5, 3.74 14.98 C0.36 14.53, -1.21 11.2, 0 11.23 C0.1 8.56, 0.58 8.1, 0 3.74 C-1.45 3.34, 0.41 -0.02, 3.74 0" stroke="none" stroke-width="0" fill="#868e96"></path><path d="M3.74 0 C15.73 -0.32, 27.59 -0.72, 34.82 0 M3.74 0 C11.96 0.27, 20.67 -0.16, 34.82 0 M34.82 0 C38.15 -0.27, 39.39 1.46, 38.57 3.74 M34.82 0 C37.49 -0.72, 37.88 1.41, 38.57 3.74 M38.57 3.74 C38.83 6.45, 38.66 8.87, 38.57 11.23 M38.57 3.74 C38.65 6.78, 38.36 9.7, 38.57 11.23 M38.57 11.23 C37.76 13.36, 38.25 15.37, 34.82 14.98 M38.57 11.23 C39.33 13.92, 36.71 15.93, 34.82 14.98 M34.82 14.98 C24.7 14.68, 14.59 14.96, 3.74 14.98 M34.82 14.98 C23.29 14.68, 10.69 15.22, 3.74 14.98 M3.74 14.98 C0.43 14.2, -0.46 13.39, 0 11.23 M3.74 14.98 C1.06 15.71, 0.5 14.53, 0 11.23 M0 11.23 C-0.22 8.56, -0.09 5.58, 0 3.74 M0 11.23 C0.07 8.62, -0.05 6.02, 0 3.74 M0 3.74 C0.13 0.49, 1.38 -0.56, 3.74 0 M0 3.74 C1.02 2.17, 1.04 -0.83, 3.74 0" stroke="#1e1e1e" stroke-width="2" fill="none"></path></g><g stroke-linecap="round" transform="translate(34.65296965349444 16.919422171883525) rotate(337.0766447889431 19.283203125 7.48828125)"><path d="M3.74 0 C13.41 -1.34, 28.7 1.93, 34.82 0 C35.9 -1.1, 38.28 3.26, 38.57 3.74 C39.38 5.8, 37.79 5.86, 38.57 11.23 C38.39 14.82, 39.66 13.41, 34.82 14.98 C23.5 16.69, 16.08 14.67, 3.74 14.98 C0.04 12.45, -0.87 11.48, 0 11.23 C0.49 9.49, -0.55 6.81, 0 3.74 C-0.84 1.23, -0.98 0.43, 3.74 0" stroke="none" stroke-width="0" fill="#868e96"></path><path d="M3.74 0 C13.54 -0.63, 23.75 -0.68, 34.82 0 M3.74 0 C12.37 -0.28, 20.53 -0.2, 34.82 0 M34.82 0 C38.14 0.21, 38.71 0.63, 38.57 3.74 M34.82 0 C36.63 0.16, 39.19 1.74, 38.57 3.74 M38.57 3.74 C38.67 5.72, 38.92 7.91, 38.57 11.23 M38.57 3.74 C38.4 5.64, 38.44 7.2, 38.57 11.23 M38.57 11.23 C39.5 14.12, 37.98 15.14, 34.82 14.98 M38.57 11.23 C37.96 14.68, 37.49 15.47, 34.82 14.98 M34.82 14.98 C27.37 15.06, 22.08 14.81, 3.74 14.98 M34.82 14.98 C26.49 15.21, 18.36 14.52, 3.74 14.98 M3.74 14.98 C0.79 14.64, -0.16 14.36, 0 11.23 M3.74 14.98 C1.75 15.78, 0.84 14.59, 0 11.23 M0 11.23 C-0.04 8.79, 0.21 6.69, 0 3.74 M0 11.23 C-0.05 8.73, 0.01 5.99, 0 3.74 M0 3.74 C0.13 0.69, 2.13 0.8, 3.74 0 M0 3.74 C-0.21 0.42, 0.93 0.38, 3.74 0" stroke="#1e1e1e" stroke-width="2" fill="none"></path></g><g stroke-linecap="round" transform="translate(11.826649814480334 32.545724255215646) rotate(0 42.630859375 38.322265625)"><path d="M19.16 0 C33.54 2.97, 42.23 -1.04, 66.1 0 C78.48 2.79, 81.77 4.85, 85.26 19.16 C83.15 26.66, 85.62 42.52, 85.26 57.48 C88.51 68.09, 78.41 75.97, 66.1 76.64 C49.21 76.54, 33.09 73.66, 19.16 76.64 C5.19 73.54, 1.72 70.33, 0 57.48 C-2.37 51.55, -1.52 39.8, 0 19.16 C-3.09 6.99, 9.46 1.13, 19.16 0" stroke="none" stroke-width="0" fill="#a18072"></path><path d="M19.16 0 C31.25 -1.13, 44 0.21, 66.1 0 M19.16 0 C36.08 -0.06, 52.15 0.42, 66.1 0 M66.1 0 C79.17 -1.25, 84.07 6.66, 85.26 19.16 M66.1 0 C80.12 0.98, 84.99 7.91, 85.26 19.16 M85.26 19.16 C87.12 30.45, 84.06 44.41, 85.26 57.48 M85.26 19.16 C84.07 32.85, 85.81 47.68, 85.26 57.48 M85.26 57.48 C86.59 70.59, 77.82 78.29, 66.1 76.64 M85.26 57.48 C85.6 71.24, 77 75.87, 66.1 76.64 M66.1 76.64 C54.5 76.41, 38.72 78.23, 19.16 76.64 M66.1 76.64 C53.38 76.16, 41.85 76.6, 19.16 76.64 M19.16 76.64 C6.06 77.91, 0.87 71.66, 0 57.48 M19.16 76.64 C8.06 78.37, 0.39 69.06, 0 57.48 M0 57.48 C1.09 45.87, 0.88 33.05, 0 19.16 M0 57.48 C0.2 44.9, 0.19 33.27, 0 19.16 M0 19.16 C1.77 7.98, 6.03 -1.44, 19.16 0 M0 19.16 C-0.63 7.14, 8.22 -1.49, 19.16 0" stroke="#1e1e1e" stroke-width="2" fill="none"></path></g><g stroke-linecap="round" transform="translate(13.186373760761853 87.12363309975353) rotate(312.47556431009303 13.974609375 10.47265625)"><path d="M5.24 0 C10 -0.73, 15.44 -3.25, 22.71 0 C25.01 -3.11, 29.67 1.81, 27.95 5.24 C26.99 9.17, 27.44 10.05, 27.95 15.71 C24.86 19.8, 29.28 22.08, 22.71 20.95 C19.51 23.05, 10.21 22.49, 5.24 20.95 C5.19 17.93, 3.29 22.29, 0 15.71 C1.88 13.3, -0.94 11.19, 0 5.24 C1.15 3.44, 4.35 -0.29, 5.24 0" stroke="none" stroke-width="0" fill="#a5d8ff"></path><path d="M5.24 0 C12.3 -0.61, 15.13 1.04, 22.71 0 M5.24 0 C10.94 -0.45, 18.88 0.22, 22.71 0 M22.71 0 C27.53 0.33, 26.9 3.4, 27.95 5.24 M22.71 0 C26.55 0.98, 26.07 0.97, 27.95 5.24 M27.95 5.24 C28.75 8.05, 27.44 11.96, 27.95 15.71 M27.95 5.24 C27.45 7.48, 27.64 10.37, 27.95 15.71 M27.95 15.71 C27.63 20.47, 27.07 22.34, 22.71 20.95 M27.95 15.71 C29.62 20.93, 26.59 19.74, 22.71 20.95 M22.71 20.95 C17.83 21.84, 11.86 21.71, 5.24 20.95 M22.71 20.95 C17.44 20.33, 12.04 20.5, 5.24 20.95 M5.24 20.95 C3.51 22.54, -0.36 17.76, 0 15.71 M5.24 20.95 C1.12 21.7, 1.84 17.71, 0 15.71 M0 15.71 C0.63 13.64, -0.49 9.68, 0 5.24 M0 15.71 C-0.3 12.6, 0.38 9.95, 0 5.24 M0 5.24 C-1.51 -0.16, 1.61 0.84, 5.24 0 M0 5.24 C2.08 0.36, 1.45 -0.43, 5.24 0" stroke="#1e1e1e" stroke-width="2" fill="none"></path></g><g stroke-linecap="round" transform="translate(28.10504480902091 45.896403022249615) rotate(312.47556431009303 25.4296875 23.859375)"><path d="M21.33 -0.11 C26.22 -1.3, 33.35 0.2, 38.15 3.1 C42.96 5.99, 48.44 12.36, 50.16 17.25 C51.87 22.14, 50.59 27.7, 48.43 32.45 C46.27 37.19, 42.07 43.35, 37.18 45.74 C32.3 48.12, 24.43 47.82, 19.09 46.75 C13.76 45.69, 8.28 43.46, 5.19 39.36 C2.1 35.27, 0.5 27.46, 0.57 22.19 C0.64 16.93, 1.74 11.31, 5.63 7.77 C9.53 4.23, 20.8 2.21, 23.95 0.97 C27.09 -0.27, 24.56 0.05, 24.49 0.35 M13.86 1.79 C17.96 -0.64, 24.82 -1.27, 29.95 0.17 C35.07 1.6, 41.12 6.39, 44.6 10.41 C48.08 14.43, 50.84 19.1, 50.84 24.31 C50.84 29.51, 48.51 37.55, 44.61 41.63 C40.71 45.71, 33.05 48.43, 27.43 48.78 C21.81 49.12, 15.49 46.71, 10.88 43.72 C6.26 40.74, 0.99 35.68, -0.25 30.85 C-1.5 26.03, 1.02 19.47, 3.4 14.79 C5.79 10.1, 12.29 4.55, 14.05 2.73 C15.81 0.91, 13.58 3.71, 13.95 3.85" stroke="none" stroke-width="0" fill="#a5d8ff"></path><path d="M32.98 0.07 C37.88 1.41, 43.03 6.86, 46.05 11.32 C49.07 15.79, 51.58 22.02, 51.13 26.86 C50.68 31.71, 47.2 36.9, 43.38 40.39 C39.55 43.88, 33.58 47.46, 28.19 47.8 C22.8 48.14, 15.66 45.47, 11.04 42.44 C6.42 39.4, 1.99 34.41, 0.46 29.61 C-1.08 24.81, -0.71 18.25, 1.84 13.64 C4.39 9.04, 10.5 3.91, 15.77 1.98 C21.04 0.06, 30.28 2.16, 33.44 2.11 C36.6 2.07, 34.69 1.62, 34.72 1.73 M15.59 2.72 C20.48 0.86, 28.46 0.6, 33.87 2.19 C39.27 3.79, 45.21 8.26, 48.04 12.28 C50.88 16.3, 51.72 21.49, 50.87 26.32 C50.03 31.16, 47.09 37.6, 42.97 41.29 C38.84 44.98, 31.51 48.13, 26.13 48.47 C20.74 48.81, 14.78 46.56, 10.63 43.32 C6.49 40.08, 2.58 34.06, 1.26 29.02 C-0.06 23.99, 0.23 17.84, 2.69 13.11 C5.15 8.38, 13.78 2.59, 16.03 0.63 C18.29 -1.33, 15.87 0.61, 16.21 1.37" stroke="#1e1e1e" stroke-width="2" fill="none"></path></g></svg>