<svg version="1.1" xmlns="http://www.w3.org/2000/svg" viewBox="0 0 106.89305606447624 140.84223780150387" width="106.89305606447624" height="140.84223780150387">
  <!-- svg-source:excalidraw -->
  
  <defs>
    <style class="style-fonts">
      @font-face {
        font-family: "Virgil";
        src: url("https://excalidraw.com/Virgil.woff2");
      }
      @font-face {
        font-family: "Cascadia";
        src: url("https://excalidraw.com/Cascadia.woff2");
      }
      @font-face {
        font-family: "Assistant";
        src: url("https://excalidraw.com/Assistant-Regular.woff2");
      }
    </style>
    
  </defs>
  <g stroke-linecap="round" transform="translate(32.64044744318198 109.0664392173394) rotate(337.5387531331347 19.283203125 7.48828125)"><path d="M3.74 0 C15.09 2.45, 28.65 -1.79, 34.82 0 C34.84 -0.18, 39.66 3.59, 38.57 3.74 C38.88 4.64, 39.14 7, 38.57 11.23 C38.12 12.52, 34.79 14.11, 34.82 14.98 C26.37 16.31, 23.83 13.53, 3.74 14.98 C3.34 14.14, -0.02 11.5, 0 11.23 C-0.13 9.01, -0.34 7.1, 0 3.74 C1.8 -0.55, 2.6 2.48, 3.74 0" stroke="none" stroke-width="0" fill="#868e96"></path><path d="M3.74 0 C15.53 0.69, 28.06 0.02, 34.82 0 M3.74 0 C11.4 0.19, 18.46 0.31, 34.82 0 M34.82 0 C37.47 0.22, 38.08 2.14, 38.57 3.74 M34.82 0 C36.86 -0.74, 39.19 2.02, 38.57 3.74 M38.57 3.74 C38.45 5.59, 38.74 6.99, 38.57 11.23 M38.57 3.74 C38.57 6.19, 38.39 8.42, 38.57 11.23 M38.57 11.23 C38.39 13.06, 37.42 15.81, 34.82 14.98 M38.57 11.23 C38.4 13.25, 38.2 14.44, 34.82 14.98 M34.82 14.98 C26.63 14.39, 19.65 14.69, 3.74 14.98 M34.82 14.98 C23.89 15.46, 12.32 14.82, 3.74 14.98 M3.74 14.98 C1.56 14.81, -0.18 14.24, 0 11.23 M3.74 14.98 C1.86 15.44, 0.53 13.83, 0 11.23 M0 11.23 C-0.29 9.16, -0.22 7.32, 0 3.74 M0 11.23 C-0.04 8.45, 0.16 5.42, 0 3.74 M0 3.74 C-0.33 0.43, 0.68 0.52, 3.74 0 M0 3.74 C0.8 0.62, 0.76 -0.13, 3.74 0" stroke="#1e1e1e" stroke-width="2" fill="none"></path></g><g stroke-linecap="round" transform="translate(32.82631983901592 16.919422171883525) rotate(337.0766447889431 19.283203125 7.48828125)"><path d="M3.74 0 C13.18 -2.32, 17.26 -0.53, 34.82 0 C38.41 2.35, 37 0.92, 38.57 3.74 C39.19 5.52, 38.43 7.5, 38.57 11.23 C36.04 12.86, 35.07 16.22, 34.82 14.98 C27.73 13.73, 18.15 14.34, 3.74 14.98 C1.23 12.74, 0.43 15.95, 0 11.23 C-0.25 9.36, 0.68 5.59, 0 3.74 C1.35 3.73, -0.93 2.38, 3.74 0" stroke="none" stroke-width="0" fill="#868e96"></path><path d="M3.74 0 C15.87 0.02, 26.94 -0.73, 34.82 0 M3.74 0 C13.44 0.27, 23.32 0.04, 34.82 0 M34.82 0 C36.83 0.89, 38.17 0.6, 38.57 3.74 M34.82 0 C37.95 0.77, 37.42 2.06, 38.57 3.74 M38.57 3.74 C38.7 5.63, 38.61 6.83, 38.57 11.23 M38.57 3.74 C38.42 6.54, 38.54 9.35, 38.57 11.23 M38.57 11.23 C38.67 14.56, 37.18 14.56, 34.82 14.98 M38.57 11.23 C39.45 13.19, 36.61 15.69, 34.82 14.98 M34.82 14.98 C27.71 14.74, 21.91 15.34, 3.74 14.98 M34.82 14.98 C23.41 14.83, 11.98 15.01, 3.74 14.98 M3.74 14.98 C1.07 15.49, 0.53 14.14, 0 11.23 M3.74 14.98 C1.78 15.08, -0.19 14.03, 0 11.23 M0 11.23 C-0.18 9.22, 0.33 6.47, 0 3.74 M0 11.23 C0.16 9.41, -0.05 7.67, 0 3.74 M0 3.74 C-0.57 1.77, 1.94 -0.55, 3.74 0 M0 3.74 C-0.49 1.12, 2.14 -1.11, 3.74 0" stroke="#1e1e1e" stroke-width="2" fill="none"></path></g><g stroke-linecap="round" transform="translate(10 32.545724255215646) rotate(0 42.630859375 38.322265625)"><path d="M19.16 0 C33.92 0.39, 57.06 3.89, 66.1 0 C76.71 -0.46, 84.58 7.6, 85.26 19.16 C85.06 25.45, 82.18 33.89, 85.26 57.48 C82.15 71.97, 78.94 74.14, 66.1 76.64 C52.52 75.01, 33.13 73.08, 19.16 76.64 C6.99 79.72, 1.13 70.09, 0 57.48 C2.68 42.89, 2.05 36.72, 0 19.16 C-3.01 9.68, 9.48 -1.38, 19.16 0" stroke="none" stroke-width="0" fill="#a18072"></path><path d="M19.16 0 C35.87 -1.26, 55.34 1.01, 66.1 0 M19.16 0 C35.4 -0.09, 50.85 0.58, 66.1 0 M66.1 0 C78.08 -1.29, 86.35 7.73, 85.26 19.16 M66.1 0 C76.58 1.62, 83.4 5.54, 85.26 19.16 M85.26 19.16 C85.74 33.18, 87.06 49.6, 85.26 57.48 M85.26 19.16 C84.78 31.63, 85.05 46.25, 85.26 57.48 M85.26 57.48 C84.98 69.42, 80.41 75.71, 66.1 76.64 M85.26 57.48 C83.85 71.68, 76.99 74.86, 66.1 76.64 M66.1 76.64 C55.44 77.44, 43.65 78.02, 19.16 76.64 M66.1 76.64 C48.8 76.23, 30.7 76.91, 19.16 76.64 M19.16 76.64 C7.45 77.46, 0.92 70.43, 0 57.48 M19.16 76.64 C6 77.24, 0.31 68.52, 0 57.48 M0 57.48 C1.81 45.14, -1.23 32.96, 0 19.16 M0 57.48 C-0.64 43.9, -0.87 32.49, 0 19.16 M0 19.16 C1.38 5.29, 5.54 -0.22, 19.16 0 M0 19.16 C1.78 4.16, 5.4 -0.35, 19.16 0" stroke="#1e1e1e" stroke-width="2" fill="none"></path></g><g stroke-linecap="round" transform="translate(65.75746355371484 88.17832059975717) rotate(47.524435689906944 13.974609375 10.47265625)"><path d="M5.24 0 C10.49 2.86, 11.19 -0.38, 22.71 0 C25.53 1.21, 24.63 3.93, 27.95 5.24 C26.09 7.39, 26.29 11.7, 27.95 15.71 C28.02 16.69, 28.04 24.12, 22.71 20.95 C18.42 18.14, 14.71 23.53, 5.24 20.95 C2.88 20.78, 0.57 18.26, 0 15.71 C0.85 13.72, -1.71 9.84, 0 5.24 C3.09 0.37, -1.32 0.14, 5.24 0" stroke="none" stroke-width="0" fill="#a5d8ff"></path><path d="M5.24 0 C10.97 1.05, 16.98 -0.1, 22.71 0 M5.24 0 C11.22 0.74, 17.7 -0.6, 22.71 0 M22.71 0 C27.29 1.34, 25.95 3.15, 27.95 5.24 M22.71 0 C24.34 -0.85, 30.09 2.65, 27.95 5.24 M27.95 5.24 C28.83 9.23, 28.41 12.05, 27.95 15.71 M27.95 5.24 C27.99 8.46, 27.86 10.59, 27.95 15.71 M27.95 15.71 C29.48 18.27, 24.98 22.18, 22.71 20.95 M27.95 15.71 C26.06 17.42, 25.15 20.17, 22.71 20.95 M22.71 20.95 C18.98 22.29, 14.1 21.31, 5.24 20.95 M22.71 20.95 C18.23 21.36, 14.52 21.27, 5.24 20.95 M5.24 20.95 C2.66 21.12, -0.34 19.72, 0 15.71 M5.24 20.95 C2.06 19.21, 0.29 17.92, 0 15.71 M0 15.71 C-0.84 11.36, 0.26 8.41, 0 5.24 M0 15.71 C-0.26 13.52, 0.4 10.49, 0 5.24 M0 5.24 C-0.85 1.52, 3.3 -1.94, 5.24 0 M0 5.24 C-0.98 1.4, 3.76 1.27, 5.24 0" stroke="#1e1e1e" stroke-width="2" fill="none"></path></g><g stroke-linecap="round" transform="translate(27.928636255455785 46.95109052225325) rotate(47.524435689906944 25.4296875 23.859375)"><path d="M26.59 0.94 C32.03 0.91, 39.95 3.13, 43.85 6.48 C47.75 9.83, 49.49 15.79, 49.99 21.04 C50.5 26.28, 49.9 33.72, 46.87 37.95 C43.85 42.19, 37.27 45.25, 31.85 46.45 C26.42 47.64, 19.11 47.01, 14.32 45.11 C9.53 43.21, 5.47 39.63, 3.12 35.06 C0.76 30.5, -1.01 22.67, 0.19 17.72 C1.4 12.77, 5.34 8.29, 10.32 5.37 C15.31 2.44, 26.06 0.56, 30.09 0.16 C34.12 -0.23, 34.33 2.68, 34.49 3.01 M15.13 1.75 C19.57 -0.9, 25.67 -0.74, 30.84 0.3 C36.02 1.35, 42.69 4, 46.17 8.03 C49.66 12.06, 52.13 19.26, 51.74 24.48 C51.35 29.71, 47.94 35.59, 43.85 39.35 C39.76 43.11, 32.77 46.15, 27.19 47.03 C21.61 47.91, 14.72 47.5, 10.39 44.65 C6.05 41.79, 2.45 34.68, 1.17 29.9 C-0.1 25.12, 0.78 20.3, 2.74 15.96 C4.7 11.62, 11.14 6.01, 12.94 3.86 C14.74 1.71, 13.41 2.87, 13.53 3.06" stroke="none" stroke-width="0" fill="#a5d8ff"></path><path d="M24.14 -0.44 C29.33 -1.12, 37.25 1.09, 41.48 4.31 C45.71 7.53, 48.3 14, 49.52 18.88 C50.75 23.75, 51.05 29.2, 48.84 33.54 C46.62 37.89, 41.4 42.6, 36.23 44.95 C31.06 47.3, 23.07 48.87, 17.79 47.66 C12.52 46.44, 7.5 42.17, 4.59 37.65 C1.68 33.14, -0.37 25.75, 0.33 20.59 C1.03 15.43, 3.83 10.18, 8.78 6.67 C13.73 3.16, 25.75 0.28, 30.04 -0.49 C34.34 -1.26, 34.82 1.52, 34.57 2.06 M36.87 1.34 C41.62 3.29, 45.34 9.77, 47.34 14.28 C49.34 18.79, 50.15 23.69, 48.89 28.42 C47.62 33.14, 43.97 39.26, 39.74 42.62 C35.5 45.99, 28.69 48.7, 23.47 48.62 C18.26 48.53, 12.17 45.62, 8.46 42.11 C4.75 38.6, 1.88 32.92, 1.24 27.54 C0.59 22.15, 1.63 14.25, 4.57 9.78 C7.5 5.31, 13.68 1.85, 18.82 0.69 C23.97 -0.47, 32.53 2.41, 35.45 2.81 C38.36 3.21, 36.32 2.83, 36.31 3.09" stroke="#1e1e1e" stroke-width="2" fill="none"></path></g></svg>