<svg version="1.1" xmlns="http://www.w3.org/2000/svg" viewBox="0 0 108.91314535019046 140.84223780150387" width="108.91314535019046" height="140.84223780150387">
  <!-- svg-source:excalidraw -->
  
  <defs>
    <style class="style-fonts">
      @font-face {
        font-family: "Virgil";
        src: url("https://excalidraw.com/Virgil.woff2");
      }
      @font-face {
        font-family: "Cascadia";
        src: url("https://excalidraw.com/Cascadia.woff2");
      }
      @font-face {
        font-family: "Assistant";
        src: url("https://excalidraw.com/Assistant-Regular.woff2");
      }
    </style>
    
  </defs>
  <g stroke-linecap="round" transform="translate(32.64044744318198 109.0664392173394) rotate(337.5387531331347 19.283203125 7.48828125)"><path d="M3.74 0 C10.42 -1.03, 22.32 1.28, 34.82 0 C39.86 -0.11, 40.19 3.83, 38.57 3.74 C37.93 7.31, 39.22 9.39, 38.57 11.23 C40 14.56, 35.32 13.22, 34.82 14.98 C26.11 16.02, 18.97 16.41, 3.74 14.98 C3.29 16.77, -2.29 11.6, 0 11.23 C-0.01 8.52, 0.32 7.39, 0 3.74 C0.08 1.5, 2.02 0.88, 3.74 0" stroke="none" stroke-width="0" fill="#868e96"></path><path d="M3.74 0 C16.2 0.8, 27.99 -0.52, 34.82 0 M3.74 0 C10.91 0.39, 19.01 0.27, 34.82 0 M34.82 0 C36.92 0.78, 38.49 1.58, 38.57 3.74 M34.82 0 C37.51 0.81, 39.49 1.98, 38.57 3.74 M38.57 3.74 C38.55 5.97, 38.23 7.57, 38.57 11.23 M38.57 3.74 C38.47 5.46, 38.58 6.95, 38.57 11.23 M38.57 11.23 C38.92 13.46, 37.78 15.68, 34.82 14.98 M38.57 11.23 C38.82 14.85, 37.2 14.38, 34.82 14.98 M34.82 14.98 C25.09 15.03, 14.25 14.98, 3.74 14.98 M34.82 14.98 C28.14 15.12, 22.23 15.4, 3.74 14.98 M3.74 14.98 C1.43 15.26, 0.35 13.48, 0 11.23 M3.74 14.98 C1.59 15.67, -0.18 14.49, 0 11.23 M0 11.23 C0.04 9.38, -0.03 7.37, 0 3.74 M0 11.23 C-0.04 9.12, 0.07 7.33, 0 3.74 M0 3.74 C-0.96 2.19, 1.96 0.14, 3.74 0 M0 3.74 C-0.85 0.45, 2.21 1.01, 3.74 0" stroke="#1e1e1e" stroke-width="2" fill="none"></path></g><g stroke-linecap="round" transform="translate(32.826319839014104 16.919422171883525) rotate(337.0766447889431 19.283203125 7.48828125)"><path d="M3.74 0 C13.45 1.36, 23.33 0.07, 34.82 0 C38.94 2.58, 40.44 0.92, 38.57 3.74 C39.17 6.47, 39.04 9.37, 38.57 11.23 C36.57 11.97, 36.11 15.39, 34.82 14.98 C22.69 16.16, 12.83 16.88, 3.74 14.98 C-1.04 12.85, -1.14 13.03, 0 11.23 C0.3 9.11, 0.03 7.1, 0 3.74 C0.77 2.13, 1.64 -2.57, 3.74 0" stroke="none" stroke-width="0" fill="#868e96"></path><path d="M3.74 0 C13.77 -0.6, 23.93 0.28, 34.82 0 M3.74 0 C13.39 0.15, 21.97 0.27, 34.82 0 M34.82 0 C37.24 0.33, 38.73 1.95, 38.57 3.74 M34.82 0 C38.24 0.74, 38 0.73, 38.57 3.74 M38.57 3.74 C38.24 5.44, 38.27 6.89, 38.57 11.23 M38.57 3.74 C38.58 5.15, 38.61 6.7, 38.57 11.23 M38.57 11.23 C39.02 14.43, 37.54 15.95, 34.82 14.98 M38.57 11.23 C38.45 13.13, 37.64 14.92, 34.82 14.98 M34.82 14.98 C26.23 15.04, 17.08 15.76, 3.74 14.98 M34.82 14.98 C25.79 15.47, 17.02 15.17, 3.74 14.98 M3.74 14.98 C1.6 14.73, 0.3 14.33, 0 11.23 M3.74 14.98 C1.06 15.74, -0.4 13.42, 0 11.23 M0 11.23 C-0.05 9.6, -0.11 7.59, 0 3.74 M0 11.23 C0.07 9.14, -0.17 6.86, 0 3.74 M0 3.74 C0.71 1.39, 0.51 -0.7, 3.74 0 M0 3.74 C0.97 2.26, 1.02 -0.63, 3.74 0" stroke="#1e1e1e" stroke-width="2" fill="none"></path></g><g stroke-linecap="round" transform="translate(10 32.545724255215646) rotate(0 42.630859375 38.322265625)"><path d="M19.16 0 C34.7 -0.53, 45.46 3.19, 66.1 0 C81.47 -0.45, 87.23 4.09, 85.26 19.16 C87.71 34.87, 82.96 45.84, 85.26 57.48 C83.58 70.83, 82 75.49, 66.1 76.64 C53.6 79.48, 32.27 74.05, 19.16 76.64 C4.81 75.68, -0.65 70.12, 0 57.48 C-0.1 49.46, 0.86 41.97, 0 19.16 C0.55 2.83, 4.91 -2.41, 19.16 0" stroke="none" stroke-width="0" fill="#a18072"></path><path d="M19.16 0 C36.01 1.04, 55.25 -0.78, 66.1 0 M19.16 0 C36.44 0.54, 54.45 0.08, 66.1 0 M66.1 0 C79.2 1.4, 86.86 7.67, 85.26 19.16 M66.1 0 C77.74 -1.03, 83.35 6.38, 85.26 19.16 M85.26 19.16 C83.34 33.65, 82.94 48.37, 85.26 57.48 M85.26 19.16 C85.67 31.68, 85.77 45.45, 85.26 57.48 M85.26 57.48 C85.71 72.21, 78.68 75.6, 66.1 76.64 M85.26 57.48 C85.9 70.15, 78.17 77.68, 66.1 76.64 M66.1 76.64 C49.58 78.2, 36.77 74.97, 19.16 76.64 M66.1 76.64 C50.72 77.35, 35.32 76.82, 19.16 76.64 M19.16 76.64 C6.99 77.86, -0.32 71.58, 0 57.48 M19.16 76.64 C5.58 76.03, -1.58 70.43, 0 57.48 M0 57.48 C-0.51 43.7, 0.12 31.12, 0 19.16 M0 57.48 C-1.08 48.49, 0.59 37.75, 0 19.16 M0 19.16 C-1.47 4.99, 8.07 1.76, 19.16 0 M0 19.16 C-0.46 5.13, 5.8 -1.79, 19.16 0" stroke="#1e1e1e" stroke-width="2" fill="none"></path></g><g stroke-linecap="round" transform="translate(67.77755283942861 31.76882791603657) rotate(312.47556431009303 13.974609375 10.47265625)"><path d="M5.24 0 C10.38 0, 15.89 0.83, 22.71 0 C27.42 0.55, 24.39 0.27, 27.95 5.24 C26.08 8.06, 26.02 8.27, 27.95 15.71 C26.24 19.02, 25.17 20.44, 22.71 20.95 C16.63 23.66, 12.14 21.41, 5.24 20.95 C-1.54 21.94, -0.17 18.02, 0 15.71 C0.35 14.56, -0.59 10.68, 0 5.24 C0.98 -0.6, -1.24 -2.34, 5.24 0" stroke="none" stroke-width="0" fill="#a5d8ff"></path><path d="M5.24 0 C12.32 0.31, 18.65 -0.25, 22.71 0 M5.24 0 C9.3 0.4, 13.99 -0.18, 22.71 0 M22.71 0 C26.3 -1.97, 29.48 1.5, 27.95 5.24 M22.71 0 C24.26 0.73, 27.57 3.8, 27.95 5.24 M27.95 5.24 C27.72 8.89, 28.61 11.74, 27.95 15.71 M27.95 5.24 C27.55 9.11, 28.1 12.85, 27.95 15.71 M27.95 15.71 C28.49 18.65, 25.29 21.02, 22.71 20.95 M27.95 15.71 C27.24 18.26, 26.89 23.14, 22.71 20.95 M22.71 20.95 C19.39 19.78, 14.37 22.54, 5.24 20.95 M22.71 20.95 C15.71 20.17, 8.77 21.25, 5.24 20.95 M5.24 20.95 C2.65 22.9, -0.08 20.45, 0 15.71 M5.24 20.95 C4.03 22.6, -0.29 20.45, 0 15.71 M0 15.71 C-0.01 13.81, 0.25 9.96, 0 5.24 M0 15.71 C0.5 13.11, 0.19 10.82, 0 5.24 M0 5.24 C0.83 3.32, 3.13 -1.76, 5.24 0 M0 5.24 C-1.88 0.74, 1.13 -0.42, 5.24 0" stroke="#1e1e1e" stroke-width="2" fill="none"></path></g><g stroke-linecap="round" transform="translate(29.94872554116955 46.22262049354049) rotate(312.47556431009303 25.4296875 23.859375)"><path d="M38.08 2.24 C42.8 4.42, 47.95 10.81, 49.88 15.76 C51.8 20.72, 51.43 27.34, 49.63 31.95 C47.83 36.56, 43.83 40.91, 39.07 43.42 C34.3 45.92, 26.44 47.47, 21.03 46.99 C15.61 46.52, 10.12 44.26, 6.57 40.56 C3.01 36.86, -0.13 29.97, -0.31 24.78 C-0.5 19.6, 1.89 13.38, 5.47 9.45 C9.04 5.51, 15.21 1.96, 21.11 1.18 C27.02 0.39, 36.99 3.44, 40.88 4.75 C44.78 6.06, 44.65 8.6, 44.49 9.04 M15.37 2.11 C19.99 -0.01, 27.88 0.31, 33.13 1.5 C38.39 2.69, 44.06 5.22, 46.89 9.24 C49.71 13.25, 50.85 20.29, 50.08 25.59 C49.31 30.9, 46.35 37.32, 42.26 41.05 C38.17 44.78, 31.1 47.9, 25.52 47.98 C19.94 48.06, 13.06 44.65, 8.8 41.54 C4.54 38.43, 1.07 34.08, -0.02 29.32 C-1.11 24.56, -0.51 17.44, 2.26 12.97 C5.03 8.5, 14.3 4.19, 16.6 2.48 C18.9 0.77, 15.89 2.2, 16.05 2.71" stroke="none" stroke-width="0" fill="#a5d8ff"></path><path d="M24.12 -0.27 C29.44 -0.85, 36.93 1.8, 41.24 4.94 C45.56 8.09, 49.04 13.51, 50.01 18.61 C50.98 23.7, 49.54 31.12, 47.07 35.52 C44.6 39.92, 39.98 43.17, 35.18 45 C30.38 46.83, 23.28 47.83, 18.24 46.49 C13.21 45.16, 7.92 41.19, 4.96 36.98 C2 32.77, -0.01 26.29, 0.48 21.24 C0.97 16.18, 2.73 10.14, 7.89 6.67 C13.06 3.19, 26.52 1.04, 31.47 0.39 C36.43 -0.26, 37.85 2.48, 37.62 2.78 M26.81 -0.4 C31.79 -0.48, 37.93 2.84, 41.82 6.24 C45.71 9.64, 49.23 14.71, 50.16 20.01 C51.09 25.3, 50.46 33.33, 47.4 38 C44.33 42.66, 36.85 46.63, 31.77 47.99 C26.68 49.35, 21.88 48.5, 16.89 46.16 C11.9 43.82, 4.34 38.28, 1.83 33.95 C-0.68 29.61, 0.55 25.1, 1.83 20.14 C3.12 15.18, 5.51 7.74, 9.54 4.19 C13.57 0.64, 23.32 -0.65, 26.02 -1.15 C28.71 -1.65, 25.56 0.34, 25.73 1.18" stroke="#1e1e1e" stroke-width="2" fill="none"></path></g></svg>