<svg version="1.1" xmlns="http://www.w3.org/2000/svg" viewBox="0 0 105.26171875000045 140.84223780150387" width="105.26171875000045" height="140.84223780150387">
  <!-- svg-source:excalidraw -->
  
  <defs>
    <style class="style-fonts">
      @font-face {
        font-family: "Virgil";
        src: url("https://excalidraw.com/Virgil.woff2");
      }
      @font-face {
        font-family: "Cascadia";
        src: url("https://excalidraw.com/Cascadia.woff2");
      }
      @font-face {
        font-family: "Assistant";
        src: url("https://excalidraw.com/Assistant-Regular.woff2");
      }
    </style>
    
  </defs>
  <g stroke-linecap="round" transform="translate(32.64044744318153 109.0664392173394) rotate(337.5387531331347 19.283203125 7.48828125)"><path d="M3.74 0 C9.88 -1.38, 18.57 1.74, 34.82 0 C34.8 -1.11, 38.18 3.52, 38.57 3.74 C38.43 6.81, 39.37 8.48, 38.57 11.23 C38.23 13.24, 38.2 12.58, 34.82 14.98 C22.4 12.38, 11.54 12.66, 3.74 14.98 C2.49 15.03, -1.81 15.05, 0 11.23 C-0.26 8.32, -0.78 5.58, 0 3.74 C2.22 2.07, 1.13 0.41, 3.74 0" stroke="none" stroke-width="0" fill="#868e96"></path><path d="M3.74 0 C10.6 0.06, 18.61 0.99, 34.82 0 M3.74 0 C12.13 0.15, 19.77 -0.27, 34.82 0 M34.82 0 C36.72 0.14, 39.11 1.68, 38.57 3.74 M34.82 0 C37.18 0.76, 38.74 1.5, 38.57 3.74 M38.57 3.74 C38.36 5.83, 38.85 7.14, 38.57 11.23 M38.57 3.74 C38.71 6.59, 38.66 9.32, 38.57 11.23 M38.57 11.23 C38.04 14.55, 37.47 15.4, 34.82 14.98 M38.57 11.23 C37.63 13.34, 37.12 14.21, 34.82 14.98 M34.82 14.98 C24.75 15.72, 15.05 14.34, 3.74 14.98 M34.82 14.98 C23.34 14.69, 12.24 15.17, 3.74 14.98 M3.74 14.98 C1.68 15.68, 0.73 14.48, 0 11.23 M3.74 14.98 C1.44 14.38, 0.35 13.54, 0 11.23 M0 11.23 C0.13 9.29, 0.01 6.95, 0 3.74 M0 11.23 C0.02 8.69, 0.16 6.5, 0 3.74 M0 3.74 C-0.18 0.53, 0.98 0.33, 3.74 0 M0 3.74 C0.92 0.5, 0.86 -0.95, 3.74 0" stroke="#1e1e1e" stroke-width="2" fill="none"></path></g><g stroke-linecap="round" transform="translate(32.82631983901365 16.919422171883525) rotate(337.0766447889431 19.283203125 7.48828125)"><path d="M3.74 0 C14.93 2.19, 24.17 -0.94, 34.82 0 C36.93 2.28, 40 -0.71, 38.57 3.74 C39.44 4.69, 38.44 6.63, 38.57 11.23 C39.44 11.33, 38.89 14.09, 34.82 14.98 C25.17 12.34, 18.48 14.63, 3.74 14.98 C-0.56 16.3, 2.29 12.27, 0 11.23 C-0.8 8.55, 0.86 5.84, 0 3.74 C-0.12 1.66, 0.57 1.62, 3.74 0" stroke="none" stroke-width="0" fill="#868e96"></path><path d="M3.74 0 C11.25 0.89, 17.47 0.84, 34.82 0 M3.74 0 C12.31 -0.34, 20.44 0.04, 34.82 0 M34.82 0 C37.86 0.43, 38.45 1.91, 38.57 3.74 M34.82 0 C37.49 0.25, 38.01 2.27, 38.57 3.74 M38.57 3.74 C38.79 5.32, 38.81 7.34, 38.57 11.23 M38.57 3.74 C38.73 5.75, 38.5 7.84, 38.57 11.23 M38.57 11.23 C38.72 14.15, 36.5 14.64, 34.82 14.98 M38.57 11.23 C38.37 12.97, 37.44 15.93, 34.82 14.98 M34.82 14.98 C25.47 14.48, 17.68 14.27, 3.74 14.98 M34.82 14.98 C27.82 15.24, 21.21 15.27, 3.74 14.98 M3.74 14.98 C1.97 15.73, 0.17 13.21, 0 11.23 M3.74 14.98 C1.6 14.79, -0.21 14.32, 0 11.23 M0 11.23 C0.02 8.53, 0.08 5.99, 0 3.74 M0 11.23 C0.16 9.7, -0.04 7.74, 0 3.74 M0 3.74 C-0.27 1.58, 2.05 -0.65, 3.74 0 M0 3.74 C-0.38 0.3, 0.59 0.6, 3.74 0" stroke="#1e1e1e" stroke-width="2" fill="none"></path></g><g stroke-linecap="round" transform="translate(10 32.545724255215646) rotate(0 42.63085937500023 38.322265625)"><path d="M19.16 0 C27.77 -2.19, 42.81 2.49, 66.1 0 C80.86 -2.72, 81.83 6.14, 85.26 19.16 C85.42 31.6, 87.1 42.07, 85.26 57.48 C87.44 69.03, 78.26 74.97, 66.1 76.64 C58.29 75.98, 44.55 77.75, 19.16 76.64 C9.56 74.63, 2.89 69.09, 0 57.48 C3.66 47.15, 0.43 35.12, 0 19.16 C-0.94 8.63, 8.89 -2.49, 19.16 0" stroke="none" stroke-width="0" fill="#a18072"></path><path d="M19.16 0 C32.13 1.25, 46.3 1.24, 66.1 0 M19.16 0 C33.65 0.43, 49.88 0.72, 66.1 0 M66.1 0 C78.64 1.33, 85.57 6.83, 85.26 19.16 M66.1 0 C77.76 2.04, 84.35 4.91, 85.26 19.16 M85.26 19.16 C86.92 31.13, 84.78 48.2, 85.26 57.48 M85.26 19.16 C84.99 32.99, 85.66 45.6, 85.26 57.48 M85.26 57.48 C83.63 69.58, 78.53 75.32, 66.1 76.64 M85.26 57.48 C85.51 72.17, 78.55 75.69, 66.1 76.64 M66.1 76.64 C49.66 74.71, 29.19 75.44, 19.16 76.64 M66.1 76.64 C54.03 77.64, 41.82 77.69, 19.16 76.64 M19.16 76.64 C6.72 75.6, 0.62 69.93, 0 57.48 M19.16 76.64 C5.97 77.82, 1.22 71.19, 0 57.48 M0 57.48 C0.48 44.5, -1.55 31.23, 0 19.16 M0 57.48 C-0.52 47.4, -0.61 39.1, 0 19.16 M0 19.16 C1.6 5.09, 5.72 -1.65, 19.16 0 M0 19.16 C-1.31 7.58, 7.98 -1.26, 19.16 0" stroke="#1e1e1e" stroke-width="2" fill="none"></path></g><g stroke-linecap="round" transform="translate(38.66281968831163 96.8920472366708) rotate(269.315648468081 13.974609375 10.47265625)"><path d="M5.24 0 C11.46 1.1, 15.98 1.95, 22.71 0 C24.98 -0.62, 26.27 -1.75, 27.95 5.24 C27.82 6.72, 28.75 12.49, 27.95 15.71 C25.94 22.09, 25.04 20.92, 22.71 20.95 C19.96 21.07, 15.73 20.39, 5.24 20.95 C3.99 23.44, -2.49 21.07, 0 15.71 C1.78 10.84, -1.45 7.5, 0 5.24 C3.29 2.38, -0.36 1.83, 5.24 0" stroke="none" stroke-width="0" fill="#a5d8ff"></path><path d="M5.24 0 C12.58 0.29, 17.99 -0.82, 22.71 0 M5.24 0 C12.51 0.7, 17.95 0.73, 22.71 0 M22.71 0 C24.59 -0.74, 29.81 2.53, 27.95 5.24 M22.71 0 C27.73 0.38, 26.74 3.64, 27.95 5.24 M27.95 5.24 C27.64 8.35, 27.3 11.94, 27.95 15.71 M27.95 5.24 C28.34 9.01, 27.61 13.59, 27.95 15.71 M27.95 15.71 C26.31 17.65, 25.29 20.27, 22.71 20.95 M27.95 15.71 C27.58 20.66, 27.2 22.55, 22.71 20.95 M22.71 20.95 C15.29 21.51, 9.4 20.66, 5.24 20.95 M22.71 20.95 C16.97 21.09, 10.29 21.24, 5.24 20.95 M5.24 20.95 C2.02 19.43, 0.26 18.08, 0 15.71 M5.24 20.95 C3.78 22.78, -0.41 17.54, 0 15.71 M0 15.71 C-0.71 12.5, -0.9 9.4, 0 5.24 M0 15.71 C-0.29 11.97, 0.33 7.83, 0 5.24 M0 5.24 C-0.85 1.45, 3.5 1.1, 5.24 0 M0 5.24 C-1.74 -0.44, 1.59 0.97, 5.24 0" stroke="#1e1e1e" stroke-width="2" fill="none"></path></g><g stroke-linecap="round" transform="translate(27.402064732139024 45.15652205235256) rotate(269.315648468081 25.4296875 23.859375)"><path d="M35.59 2.02 C40.33 3.99, 46.58 10.07, 48.87 14.7 C51.15 19.34, 50.94 25.14, 49.31 29.84 C47.67 34.54, 43.36 39.84, 39.07 42.92 C34.78 46, 28.96 48.76, 23.58 48.31 C18.2 47.86, 10.73 43.83, 6.79 40.21 C2.86 36.58, 0.49 31.67, -0.03 26.57 C-0.54 21.48, 0.57 13.78, 3.72 9.63 C6.86 5.48, 13 2.84, 18.85 1.65 C24.69 0.46, 35.44 1.98, 38.76 2.48 C42.08 2.97, 39 4.01, 38.77 4.63 M18.39 -0.31 C23.42 -2.08, 31.27 -0.75, 36.17 1.34 C41.07 3.43, 45.68 7.69, 47.78 12.23 C49.88 16.78, 50.15 23.4, 48.78 28.62 C47.4 33.85, 43.62 40.56, 39.53 43.56 C35.44 46.57, 29.34 46.79, 24.24 46.65 C19.14 46.5, 13.08 45.8, 8.93 42.7 C4.79 39.61, 0.26 33.37, -0.64 28.08 C-1.53 22.79, 0.68 15.4, 3.56 10.94 C6.43 6.48, 13.97 2.81, 16.6 1.32 C19.23 -0.17, 18.99 1.62, 19.32 2" stroke="none" stroke-width="0" fill="#a5d8ff"></path><path d="M18.7 1.24 C23.61 -0.32, 32.19 -0.58, 37.3 1.44 C42.42 3.47, 47.36 8.4, 49.39 13.4 C51.42 18.4, 51.05 26.27, 49.49 31.43 C47.92 36.58, 44.43 41.73, 39.99 44.34 C35.55 46.94, 28.22 47.69, 22.87 47.06 C17.53 46.42, 11.65 44.27, 7.92 40.54 C4.19 36.8, 1.04 29.8, 0.48 24.65 C-0.08 19.49, 0.8 13.69, 4.56 9.61 C8.31 5.53, 18.96 1.69, 23 0.16 C27.05 -1.36, 28.75 -0.05, 28.83 0.46 M18.33 -0.52 C23.33 -2.17, 31.12 -0.61, 36.15 2.03 C41.18 4.68, 46.15 10.4, 48.54 15.36 C50.92 20.31, 51.79 26.82, 50.45 31.75 C49.11 36.67, 45.12 42.41, 40.5 44.92 C35.88 47.42, 28.25 47.6, 22.73 46.77 C17.22 45.95, 11.22 43.45, 7.4 39.99 C3.57 36.53, 0.03 30.98, -0.23 26.02 C-0.49 21.06, 2.41 14.43, 5.83 10.23 C9.24 6.02, 17.98 2.23, 20.25 0.77 C22.52 -0.68, 19.41 1.32, 19.43 1.5" stroke="#1e1e1e" stroke-width="2" fill="none"></path></g></svg>