<svg version="1.1" xmlns="http://www.w3.org/2000/svg" viewBox="0 0 105.26171875 140.84223780150387" width="105.26171875" height="140.84223780150387">
  <!-- svg-source:excalidraw -->
  
  <defs>
    <style class="style-fonts">
      @font-face {
        font-family: "Virgil";
        src: url("https://excalidraw.com/Virgil.woff2");
      }
      @font-face {
        font-family: "Cascadia";
        src: url("https://excalidraw.com/Cascadia.woff2");
      }
      @font-face {
        font-family: "Assistant";
        src: url("https://excalidraw.com/Assistant-Regular.woff2");
      }
    </style>
    
  </defs>
  <g stroke-linecap="round" transform="translate(32.64044744318198 109.0664392173394) rotate(337.5387531331347 19.283203125 7.48828125)"><path d="M3.74 0 C16.1 2.6, 27.09 -0.31, 34.82 0 C38.74 -1.66, 40.64 3.01, 38.57 3.74 C37.87 5.39, 38.17 8.5, 38.57 11.23 C40.82 12.89, 38.01 14.87, 34.82 14.98 C21.92 13.13, 12.45 14.56, 3.74 14.98 C0.78 14.88, -2.12 14.51, 0 11.23 C0.28 9.32, 0.14 5.79, 0 3.74 C-1.06 -0.49, 0.13 -0.25, 3.74 0" stroke="none" stroke-width="0" fill="#868e96"></path><path d="M3.74 0 C11.58 -0.56, 20.25 0.8, 34.82 0 M3.74 0 C14.67 0.04, 25.76 0.23, 34.82 0 M34.82 0 C38.12 0.64, 38.07 0.8, 38.57 3.74 M34.82 0 C36.36 0, 39.63 0.25, 38.57 3.74 M38.57 3.74 C38.16 5.97, 38.66 8.59, 38.57 11.23 M38.57 3.74 C38.67 5.75, 38.62 7.67, 38.57 11.23 M38.57 11.23 C38.47 13.21, 37.59 14.93, 34.82 14.98 M38.57 11.23 C38.22 14.25, 37.43 14.73, 34.82 14.98 M34.82 14.98 C25.23 14.25, 16.19 14.93, 3.74 14.98 M34.82 14.98 C22.9 14.9, 10.78 15.32, 3.74 14.98 M3.74 14.98 C1.09 15.64, -0.35 13.46, 0 11.23 M3.74 14.98 C0.46 15.06, 0.41 13.59, 0 11.23 M0 11.23 C0.02 8.67, -0.14 6.44, 0 3.74 M0 11.23 C0.17 8.3, -0.1 5.18, 0 3.74 M0 3.74 C0.84 2.13, 1.05 -0.54, 3.74 0 M0 3.74 C-0.3 0.35, 0.74 0.52, 3.74 0" stroke="#1e1e1e" stroke-width="2" fill="none"></path></g><g stroke-linecap="round" transform="translate(32.826319839014104 16.919422171883525) rotate(337.0766447889431 19.283203125 7.48828125)"><path d="M3.74 0 C14.81 -0.73, 23.55 -2.06, 34.82 0 C39.4 1.77, 38.76 2.68, 38.57 3.74 C38.04 6.39, 39.34 8.4, 38.57 11.23 C39.26 13.62, 38.4 17.02, 34.82 14.98 C22.21 13.95, 11.42 14.55, 3.74 14.98 C-0.88 15.76, -0.02 13.81, 0 11.23 C0.12 7.95, -0.43 5.94, 0 3.74 C-1.11 1, -1.22 0.52, 3.74 0" stroke="none" stroke-width="0" fill="#868e96"></path><path d="M3.74 0 C15.1 0.94, 25.46 -0.32, 34.82 0 M3.74 0 C15.58 0.3, 27.66 0.27, 34.82 0 M34.82 0 C36.82 -0.45, 37.74 1.24, 38.57 3.74 M34.82 0 C38.39 -1, 38.8 0.34, 38.57 3.74 M38.57 3.74 C38.66 5.83, 38.34 7.94, 38.57 11.23 M38.57 3.74 C38.63 5.97, 38.56 7.73, 38.57 11.23 M38.57 11.23 C38.84 13.68, 37.01 15.43, 34.82 14.98 M38.57 11.23 C38.68 13.48, 37.38 13.84, 34.82 14.98 M34.82 14.98 C23.44 14.68, 12.31 15.03, 3.74 14.98 M34.82 14.98 C24.76 15.24, 14.32 15.27, 3.74 14.98 M3.74 14.98 C0.9 14.71, -0.69 13.8, 0 11.23 M3.74 14.98 C1.66 14.84, 0.31 13.41, 0 11.23 M0 11.23 C-0.15 9.44, 0.36 7.06, 0 3.74 M0 11.23 C-0.16 8.15, 0.13 5.49, 0 3.74 M0 3.74 C-0.2 0.7, 0.99 -0.78, 3.74 0 M0 3.74 C-0.5 1.77, 1.77 1.12, 3.74 0" stroke="#1e1e1e" stroke-width="2" fill="none"></path></g><g stroke-linecap="round" transform="translate(10 32.545724255215646) rotate(0 42.630859375 38.322265625)"><path d="M19.16 0 C39.86 -2.19, 59.52 2.55, 66.1 0 C79.14 1.98, 86.42 3.62, 85.26 19.16 C88.06 26.91, 85.9 36.82, 85.26 57.48 C86.76 73.09, 81.36 73.48, 66.1 76.64 C55.21 76.28, 42.67 77.51, 19.16 76.64 C6.35 76.75, 0.34 71.32, 0 57.48 C-1.58 42.28, -1.65 31.55, 0 19.16 C-3.41 7.11, 2.86 -3.53, 19.16 0" stroke="none" stroke-width="0" fill="#a18072"></path><path d="M19.16 0 C31.96 -1.2, 44.21 -0.55, 66.1 0 M19.16 0 C35.59 0.31, 49.93 -0.78, 66.1 0 M66.1 0 C77.21 -0.01, 87.12 4.65, 85.26 19.16 M66.1 0 C79.34 -1.82, 84.61 4.1, 85.26 19.16 M85.26 19.16 C84.39 29.63, 84.85 39.61, 85.26 57.48 M85.26 19.16 C85.25 32.83, 85.62 47.49, 85.26 57.48 M85.26 57.48 C84.65 71.16, 79.07 76.22, 66.1 76.64 M85.26 57.48 C85.38 67.99, 80.64 76.37, 66.1 76.64 M66.1 76.64 C57.78 76.93, 46.46 77.27, 19.16 76.64 M66.1 76.64 C53.01 77.59, 39.89 76.66, 19.16 76.64 M19.16 76.64 C5.02 76.8, 0.72 70.02, 0 57.48 M19.16 76.64 C7.01 76.01, -1.05 70.35, 0 57.48 M0 57.48 C2.06 45.25, 2.05 38.27, 0 19.16 M0 57.48 C1.12 46.33, 0.08 32.87, 0 19.16 M0 19.16 C-0.51 4.83, 5.51 0.91, 19.16 0 M0 19.16 C1.04 8.63, 6.29 1.43, 19.16 0" stroke="#1e1e1e" stroke-width="2" fill="none"></path></g><g stroke-linecap="round" transform="translate(36.68179290259832 21.99483342198164) rotate(90.684351531919 13.974609375 10.47265625)"><path d="M5.24 0 C8.48 -0.04, 10.29 1.04, 22.71 0 C26.17 0.11, 28.29 2.81, 27.95 5.24 C27.21 7.47, 27.17 12.05, 27.95 15.71 C24.54 19.92, 22.68 17.41, 22.71 20.95 C17.86 23.52, 14.96 21.95, 5.24 20.95 C2.48 23.93, 3.28 19.61, 0 15.71 C-0.67 13.17, -0.11 10.44, 0 5.24 C0.65 5.18, 0.61 1.66, 5.24 0" stroke="none" stroke-width="0" fill="#a5d8ff"></path><path d="M5.24 0 C8.81 0.59, 13.67 0.77, 22.71 0 M5.24 0 C11.62 -0.63, 18.42 -0.21, 22.71 0 M22.71 0 C25.6 0.9, 28.15 1.32, 27.95 5.24 M22.71 0 C26.32 -2.27, 29.71 1.47, 27.95 5.24 M27.95 5.24 C28.92 7.68, 28.28 10.11, 27.95 15.71 M27.95 5.24 C27.9 8.47, 27.8 10.87, 27.95 15.71 M27.95 15.71 C26.58 19.35, 26.92 20.71, 22.71 20.95 M27.95 15.71 C28.57 18.56, 25.15 21.03, 22.71 20.95 M22.71 20.95 C19.67 19.32, 14.96 22.24, 5.24 20.95 M22.71 20.95 C17.96 21.59, 11.56 20.35, 5.24 20.95 M5.24 20.95 C1.23 19.39, -0.88 20.11, 0 15.71 M5.24 20.95 C2.79 23.19, -0.09 20.63, 0 15.71 M0 15.71 C0.5 10.86, 0.76 8.06, 0 5.24 M0 15.71 C-0.46 12.14, -0.3 9.36, 0 5.24 M0 5.24 C1.74 1.1, 2.28 -0.08, 5.24 0 M0 5.24 C0.96 3.55, 3.33 -2.02, 5.24 0" stroke="#1e1e1e" stroke-width="2" fill="none"></path></g><g stroke-linecap="round" transform="translate(25.421037946425713 46.95692110629625) rotate(90.684351531919 25.4296875 23.859375)"><path d="M31.78 1.6 C36.85 2.39, 43.2 5.57, 46.46 9.38 C49.73 13.19, 51.64 19.23, 51.37 24.47 C51.1 29.71, 48.62 36.88, 44.82 40.81 C41.03 44.75, 34.09 47.71, 28.6 48.09 C23.11 48.47, 16.59 46.05, 11.9 43.1 C7.2 40.14, 2.05 34.98, 0.43 30.37 C-1.19 25.75, -0.01 19.99, 2.18 15.4 C4.37 10.82, 8.12 5.08, 13.57 2.87 C19.01 0.65, 30.62 1.86, 34.84 2.13 C39.07 2.39, 39.22 4.27, 38.92 4.43 M19.84 -0.65 C24.96 -1.97, 32.75 0.09, 37.6 2.67 C42.45 5.25, 46.87 10.04, 48.96 14.85 C51.05 19.66, 51.74 26.91, 50.13 31.52 C48.53 36.12, 44.11 39.98, 39.34 42.48 C34.58 44.98, 27.07 46.95, 21.52 46.51 C15.98 46.08, 9.88 43.4, 6.06 39.85 C2.24 36.31, -1.02 30.56, -1.4 25.23 C-1.78 19.9, 0.34 12, 3.77 7.88 C7.2 3.76, 16.55 1.67, 19.19 0.5 C21.82 -0.68, 19.16 0.34, 19.58 0.83" stroke="none" stroke-width="0" fill="#a5d8ff"></path><path d="M32.17 0.52 C37.08 1.34, 42.14 5.76, 45.24 9.81 C48.35 13.87, 50.91 19.77, 50.78 24.85 C50.64 29.92, 48.2 36.47, 44.45 40.26 C40.7 44.05, 33.92 46.87, 28.27 47.6 C22.62 48.32, 15.1 47.55, 10.55 44.61 C6 41.67, 2.34 34.99, 0.98 29.95 C-0.39 24.9, 0.05 18.86, 2.36 14.33 C4.66 9.8, 9.46 4.85, 14.82 2.76 C20.18 0.68, 30.87 1.72, 34.51 1.82 C38.15 1.93, 36.74 3.11, 36.64 3.4 M32.67 1.41 C37.85 2.74, 44.71 7.09, 47.76 11.38 C50.81 15.68, 52.01 22.08, 50.96 27.17 C49.9 32.26, 45.69 38.59, 41.43 41.92 C37.18 45.24, 30.68 46.79, 25.42 47.11 C20.16 47.42, 14.28 46.71, 9.88 43.84 C5.48 40.96, -0.03 35.06, -0.97 29.84 C-1.91 24.62, 1.55 17.39, 4.25 12.51 C6.94 7.63, 10.08 2.19, 15.2 0.54 C20.32 -1.11, 31.95 2.55, 34.96 2.62 C37.96 2.68, 33.64 0.97, 33.23 0.93" stroke="#1e1e1e" stroke-width="2" fill="none"></path></g></svg>