<svg version="1.1" xmlns="http://www.w3.org/2000/svg" viewBox="0 0 116.9010881696413 140.84223780150387" width="116.9010881696413" height="140.84223780150387">
  <!-- svg-source:excalidraw -->
  
  <defs>
    <style class="style-fonts">
      @font-face {
        font-family: "Virgil";
        src: url("https://excalidraw.com/Virgil.woff2");
      }
      @font-face {
        font-family: "Cascadia";
        src: url("https://excalidraw.com/Cascadia.woff2");
      }
      @font-face {
        font-family: "Assistant";
        src: url("https://excalidraw.com/Assistant-Regular.woff2");
      }
    </style>
    
  </defs>
  <g stroke-linecap="round" transform="translate(32.64044744318198 109.0664392173394) rotate(337.5387531331347 19.283203125 7.48828125)"><path d="M3.74 0 C13.46 2.48, 29.08 -0.23, 34.82 0 C35.9 -0.67, 36.54 0.11, 38.57 3.74 C38.57 6.94, 39.58 9.62, 38.57 11.23 C38.24 15.15, 35.66 17.05, 34.82 14.98 C24.22 13.2, 10.19 13.99, 3.74 14.98 C1.67 17.23, -0.84 14.42, 0 11.23 C0.63 8.16, -0.84 6.37, 0 3.74 C-0.7 0.78, 1.15 -2.12, 3.74 0" stroke="none" stroke-width="0" fill="#868e96"></path><path d="M3.74 0 C13.55 0.43, 21.78 0.81, 34.82 0 M3.74 0 C12.8 -0.21, 20.77 -0.33, 34.82 0 M34.82 0 C37.73 -0.04, 38.07 2.01, 38.57 3.74 M34.82 0 C38.31 0.61, 38.11 2.15, 38.57 3.74 M38.57 3.74 C38.84 6.23, 38.82 7.94, 38.57 11.23 M38.57 3.74 C38.71 5.49, 38.57 7.42, 38.57 11.23 M38.57 11.23 C38.28 12.73, 36.87 15.32, 34.82 14.98 M38.57 11.23 C38.73 13.15, 37.72 14.66, 34.82 14.98 M34.82 14.98 C25.06 14.91, 12.81 15.29, 3.74 14.98 M34.82 14.98 C25.69 14.94, 16.49 14.55, 3.74 14.98 M3.74 14.98 C2.01 14.86, -0.85 14.04, 0 11.23 M3.74 14.98 C1.06 16, 0.21 14.06, 0 11.23 M0 11.23 C0.24 8.66, 0.26 6.08, 0 3.74 M0 11.23 C0.09 9.16, 0.08 7.09, 0 3.74 M0 3.74 C-0.46 1.29, 0.94 -0.41, 3.74 0 M0 3.74 C0.34 2.34, 0.14 1.09, 3.74 0" stroke="#1e1e1e" stroke-width="2" fill="none"></path></g><g stroke-linecap="round" transform="translate(32.82631983901592 16.919422171883525) rotate(337.0766447889431 19.283203125 7.48828125)"><path d="M3.74 0 C13.07 -0.86, 16.39 -1.01, 34.82 0 C35.3 -1.14, 39.75 2.43, 38.57 3.74 C39.53 7.42, 38.44 10.23, 38.57 11.23 C36.91 15.81, 39.09 15.17, 34.82 14.98 C22.03 13.45, 13.17 16.92, 3.74 14.98 C0.41 15.67, -0.11 14.81, 0 11.23 C-0.86 7.97, -0.33 5.39, 0 3.74 C-0.1 -0.88, 2.03 -0.02, 3.74 0" stroke="none" stroke-width="0" fill="#868e96"></path><path d="M3.74 0 C16.44 0.87, 28.32 0.26, 34.82 0 M3.74 0 C13.28 -0.25, 23.48 0.04, 34.82 0 M34.82 0 C36.82 0.77, 39.43 1.78, 38.57 3.74 M34.82 0 C36.86 0.9, 38.48 1.63, 38.57 3.74 M38.57 3.74 C38.83 5.93, 38.43 8.17, 38.57 11.23 M38.57 3.74 C38.64 5.84, 38.55 8.05, 38.57 11.23 M38.57 11.23 C38.12 14.07, 37.46 14.47, 34.82 14.98 M38.57 11.23 C38.97 13.42, 37.84 15.78, 34.82 14.98 M34.82 14.98 C24.28 15.24, 14.74 14.66, 3.74 14.98 M34.82 14.98 C24.12 14.45, 13.75 14.88, 3.74 14.98 M3.74 14.98 C0.4 15.29, -0.16 14.62, 0 11.23 M3.74 14.98 C1.46 15.3, 0.4 13.45, 0 11.23 M0 11.23 C0.23 8.63, -0.12 6.03, 0 3.74 M0 11.23 C0.04 8.88, -0.1 6.63, 0 3.74 M0 3.74 C-0.31 0.84, 1.55 0.95, 3.74 0 M0 3.74 C-1.11 2.34, 2.06 0.16, 3.74 0" stroke="#1e1e1e" stroke-width="2" fill="none"></path></g><g stroke-linecap="round" transform="translate(10 32.545724255215646) rotate(0 42.630859375 38.322265625)"><path d="M19.16 0 C35.22 -0.75, 52.41 -1.4, 66.1 0 C80.51 1.63, 88.77 6.24, 85.26 19.16 C85.49 35.01, 83.65 49.81, 85.26 57.48 C87.71 70.52, 80.86 77.8, 66.1 76.64 C56.21 79.37, 44 77.21, 19.16 76.64 C6.24 78.14, 2.83 72.74, 0 57.48 C-0.4 48.7, 0.43 38.29, 0 19.16 C1.09 6.35, 6.5 0.34, 19.16 0" stroke="none" stroke-width="0" fill="#a18072"></path><path d="M19.16 0 C35.52 0.24, 53.05 1.25, 66.1 0 M19.16 0 C31.9 0.25, 43.33 1.05, 66.1 0 M66.1 0 C80.6 1.06, 84.46 7.95, 85.26 19.16 M66.1 0 C78.7 0.76, 85.64 8, 85.26 19.16 M85.26 19.16 C84.61 32.06, 85.5 50.14, 85.26 57.48 M85.26 19.16 C85.06 26.34, 84.89 35.85, 85.26 57.48 M85.26 57.48 C85.55 69.25, 79.57 76.1, 66.1 76.64 M85.26 57.48 C86.31 71.87, 79.39 78.89, 66.1 76.64 M66.1 76.64 C52.39 76.17, 39.77 76.97, 19.16 76.64 M66.1 76.64 C53.78 76.06, 39.08 76.5, 19.16 76.64 M19.16 76.64 C6.06 78.43, 0.37 70.83, 0 57.48 M19.16 76.64 C7.19 76.08, 0.69 71.65, 0 57.48 M0 57.48 C-0.79 45.23, -0.1 36.43, 0 19.16 M0 57.48 C-0.56 46.48, -0.41 34.99, 0 19.16 M0 19.16 C0.6 8.29, 4.46 1.89, 19.16 0 M0 19.16 C1.63 6.71, 4.69 -1.6, 19.16 0" stroke="#1e1e1e" stroke-width="2" fill="none"></path></g><g stroke-linecap="round" transform="translate(78.9518694196413 59.76933318646934) rotate(0 13.974609375 10.47265625)"><path d="M5.24 0 C11.6 0.38, 12.72 -1.38, 22.71 0 C23.79 -1.54, 27.6 -1.67, 27.95 5.24 C26.87 8.5, 27.22 11.68, 27.95 15.71 C31 20.44, 27.46 21.68, 22.71 20.95 C13.15 21.85, 9.18 19.95, 5.24 20.95 C1.07 20.84, -1.71 19.85, 0 15.71 C0.57 10.34, -1.5 6.2, 0 5.24 C-3.34 -1.53, -1.25 -1.6, 5.24 0" stroke="none" stroke-width="0" fill="#a5d8ff"></path><path d="M5.24 0 C9.96 0.5, 16.42 -0.51, 22.71 0 M5.24 0 C11.31 -0.83, 17.97 -0.07, 22.71 0 M22.71 0 C24.51 0.63, 27.62 3.53, 27.95 5.24 M22.71 0 C26.63 0.66, 28.76 1.18, 27.95 5.24 M27.95 5.24 C28.71 8.33, 27.73 11.43, 27.95 15.71 M27.95 5.24 C28.13 8.31, 27.75 11.7, 27.95 15.71 M27.95 15.71 C27.33 18.39, 26.8 22.85, 22.71 20.95 M27.95 15.71 C25.74 21.38, 27.83 21.27, 22.71 20.95 M22.71 20.95 C20.3 20.74, 13.85 20.64, 5.24 20.95 M22.71 20.95 C19.23 21.88, 14.91 21.57, 5.24 20.95 M5.24 20.95 C3.73 22.39, -0.25 20.29, 0 15.71 M5.24 20.95 C0.28 22.78, 1.56 19.37, 0 15.71 M0 15.71 C-0.74 11.5, 0.13 9.18, 0 5.24 M0 15.71 C0.19 13.32, 0.33 9.64, 0 5.24 M0 5.24 C-1.64 0.87, 1.21 -0.36, 5.24 0 M0 5.24 C-0.09 -0.13, 2.44 -0.02, 5.24 0" stroke="#1e1e1e" stroke-width="2" fill="none"></path></g><g stroke-linecap="round" transform="translate(29.153041294641298 45.73027068646934) rotate(0 25.4296875 23.859375)"><path d="M17.52 1.76 C22.26 -0.3, 30.22 -0.8, 35.16 0.92 C40.1 2.65, 44.59 7.31, 47.15 12.09 C49.7 16.86, 51.54 24.44, 50.49 29.57 C49.44 34.7, 45.17 39.76, 40.86 42.85 C36.55 45.95, 29.89 48.21, 24.63 48.12 C19.37 48.04, 13.5 45.97, 9.29 42.36 C5.09 38.75, 0.38 31.7, -0.61 26.48 C-1.6 21.26, -0.39 15.43, 3.36 11.05 C7.11 6.66, 18.12 1.88, 21.89 0.17 C25.65 -1.54, 25.87 0.41, 25.96 0.81 M26.88 -1.46 C31.88 -1.78, 38.22 1.64, 42.08 5.33 C45.93 9.03, 49.46 15.41, 50.01 20.7 C50.57 25.99, 48.48 32.99, 45.4 37.07 C42.31 41.14, 36.59 43.72, 31.5 45.17 C26.42 46.63, 19.74 47.56, 14.89 45.79 C10.04 44.02, 4.56 39.02, 2.39 34.58 C0.23 30.13, 0.54 24.01, 1.9 19.11 C3.26 14.21, 6.23 8.13, 10.56 5.17 C14.89 2.22, 25.19 2.4, 27.89 1.4 C30.6 0.39, 26.95 -1.02, 26.79 -0.87" stroke="none" stroke-width="0" fill="#a5d8ff"></path><path d="M21.36 0.32 C26.19 -0.6, 32.98 1.73, 37.65 4.23 C42.32 6.74, 47.43 10.67, 49.39 15.36 C51.36 20.04, 51.25 27.42, 49.44 32.36 C47.63 37.29, 43.32 42.43, 38.54 44.97 C33.76 47.51, 26.27 48.59, 20.74 47.61 C15.21 46.63, 8.7 43.16, 5.34 39.08 C1.99 35.01, 0.34 28.38, 0.61 23.17 C0.89 17.95, 2.91 11.74, 6.98 7.77 C11.06 3.79, 21.38 0.43, 25.07 -0.68 C28.76 -1.8, 29.08 0.52, 29.11 1.08 M21.45 -0.38 C26.72 -1.13, 34.92 2.02, 39.37 5.07 C43.83 8.12, 46.4 13.27, 48.18 17.93 C49.96 22.59, 52.05 28.7, 50.06 33.03 C48.07 37.36, 41.02 41.31, 36.24 43.89 C31.46 46.47, 26.57 49.54, 21.38 48.51 C16.18 47.48, 8.7 42.16, 5.07 37.71 C1.45 33.27, -0.51 26.69, -0.37 21.84 C-0.23 16.98, 2.06 11.92, 5.89 8.56 C9.72 5.2, 19.93 2.85, 22.6 1.69 C25.27 0.54, 21.73 1.31, 21.92 1.64" stroke="#1e1e1e" stroke-width="2" fill="none"></path></g></svg>