<svg version="1.1" xmlns="http://www.w3.org/2000/svg" viewBox="0 0 109.0303328501941 140.84223780150387" width="109.0303328501941" height="140.84223780150387">
  <!-- svg-source:excalidraw -->
  
  <defs>
    <style class="style-fonts">
      @font-face {
        font-family: "Virgil";
        src: url("https://excalidraw.com/Virgil.woff2");
      }
      @font-face {
        font-family: "Cascadia";
        src: url("https://excalidraw.com/Cascadia.woff2");
      }
      @font-face {
        font-family: "Assistant";
        src: url("https://excalidraw.com/Assistant-Regular.woff2");
      }
    </style>
    
  </defs>
  <g stroke-linecap="round" transform="translate(36.05749904337608 109.0664392173394) rotate(337.5387531331347 19.283203125 7.48828125)"><path d="M3.74 0 C14.75 2.02, 21.8 1.69, 34.82 0 C38.15 -2, 36.81 0.04, 38.57 3.74 C38.91 6.07, 39.06 9.24, 38.57 11.23 C40.36 11.44, 35.19 13.84, 34.82 14.98 C24.21 15.75, 17.82 15.04, 3.74 14.98 C1.5 15.74, 0.88 14.12, 0 11.23 C-0.38 9.63, -0.88 8.42, 0 3.74 C-2.55 -1.3, 0.02 -0.13, 3.74 0" stroke="none" stroke-width="0" fill="#868e96"></path><path d="M3.74 0 C16.53 -0.01, 28.07 0.23, 34.82 0 M3.74 0 C15 -0.32, 26.34 -0.1, 34.82 0 M34.82 0 C38.25 -0.87, 38.77 0.45, 38.57 3.74 M34.82 0 C36.99 -1.14, 38.05 1.64, 38.57 3.74 M38.57 3.74 C38.45 6.27, 38.81 8.53, 38.57 11.23 M38.57 3.74 C38.61 6.71, 38.51 9.79, 38.57 11.23 M38.57 11.23 C38.67 13.52, 37.37 13.99, 34.82 14.98 M38.57 11.23 C39.45 13.59, 36.34 15.34, 34.82 14.98 M34.82 14.98 C26.3 15.36, 16.95 15.31, 3.74 14.98 M34.82 14.98 C23.44 14.95, 12.07 15.12, 3.74 14.98 M3.74 14.98 C1.61 14.86, 0.27 13.45, 0 11.23 M3.74 14.98 C0.72 15.02, -0.36 13.26, 0 11.23 M0 11.23 C0.32 9.03, 0.02 6.02, 0 3.74 M0 11.23 C-0.07 9.41, -0.08 7.64, 0 3.74 M0 3.74 C-0.44 1.7, 1.7 0.98, 3.74 0 M0 3.74 C-0.05 1.96, 2.39 0.83, 3.74 0" stroke="#1e1e1e" stroke-width="2" fill="none"></path></g><g stroke-linecap="round" transform="translate(36.24337143921002 16.919422171883525) rotate(337.0766447889431 19.283203125 7.48828125)"><path d="M3.74 0 C11.27 1.16, 19.26 -2.27, 34.82 0 C35.56 -1.21, 38.98 3.5, 38.57 3.74 C39 6.52, 39.26 6.9, 38.57 11.23 C36.44 12.59, 36.62 14.51, 34.82 14.98 C25.59 15.18, 16.66 15.87, 3.74 14.98 C2.13 15.37, -2.57 12.66, 0 11.23 C-0.88 9.68, -0.91 6.79, 0 3.74 C-1.23 1.12, 0.5 -0.36, 3.74 0" stroke="none" stroke-width="0" fill="#868e96"></path><path d="M3.74 0 C12.16 0.17, 20.61 0.81, 34.82 0 M3.74 0 C14.64 0.07, 26.83 -0.36, 34.82 0 M34.82 0 C37.52 -0.79, 38.28 0.25, 38.57 3.74 M34.82 0 C36.8 0.39, 38.73 0.67, 38.57 3.74 M38.57 3.74 C38.82 6.34, 38.92 8.72, 38.57 11.23 M38.57 3.74 C38.52 5.68, 38.6 7.42, 38.57 11.23 M38.57 11.23 C38.62 12.74, 38.08 14.86, 34.82 14.98 M38.57 11.23 C37.59 14.09, 37.13 16, 34.82 14.98 M34.82 14.98 C24.68 15.33, 15.64 14.87, 3.74 14.98 M34.82 14.98 C23.1 14.97, 12.24 14.88, 3.74 14.98 M3.74 14.98 C1.52 14.7, -0.46 13.77, 0 11.23 M3.74 14.98 C0.89 14.51, 0.34 14.82, 0 11.23 M0 11.23 C0.02 9.43, -0.3 8.49, 0 3.74 M0 11.23 C-0.04 8.18, -0.07 5.51, 0 3.74 M0 3.74 C0.45 2.22, 1.21 0.62, 3.74 0 M0 3.74 C1.14 2.08, 1.1 0.63, 3.74 0" stroke="#1e1e1e" stroke-width="2" fill="none"></path></g><g stroke-linecap="round" transform="translate(13.7686141001941 32.194161755215646) rotate(0 42.630859375 38.322265625)"><path d="M19.16 0 C37.59 -3.24, 51.27 -2.15, 66.1 0 C79.45 3.12, 84.1 7.34, 85.26 19.16 C88.03 27.33, 82.6 40.26, 85.26 57.48 C84.3 69.61, 78.74 73.7, 66.1 76.64 C50.94 77.73, 36.32 77.22, 19.16 76.64 C2.83 75.17, -2.41 68.71, 0 57.48 C-2.87 42.82, -1.05 35.05, 0 19.16 C-1.03 5.88, 9.43 1.24, 19.16 0" stroke="none" stroke-width="0" fill="#a18072"></path><path d="M19.16 0 C34.3 1.52, 47.9 -1.07, 66.1 0 M19.16 0 C32.07 -0.86, 43.33 -0.79, 66.1 0 M66.1 0 C78.31 -1.99, 84.36 7.06, 85.26 19.16 M66.1 0 C79.2 -1.16, 86.06 5.76, 85.26 19.16 M85.26 19.16 C87.49 32.21, 84.49 46.21, 85.26 57.48 M85.26 19.16 C85.24 30.27, 85.19 40.81, 85.26 57.48 M85.26 57.48 C86.79 70.02, 77.18 77.28, 66.1 76.64 M85.26 57.48 C84.88 72.31, 79.3 77.3, 66.1 76.64 M66.1 76.64 C51.58 76.47, 35.97 76.08, 19.16 76.64 M66.1 76.64 C53.64 76.56, 40.73 76.4, 19.16 76.64 M19.16 76.64 C5.47 76.72, -0.62 69.44, 0 57.48 M19.16 76.64 C7.07 78.84, -2.21 72.43, 0 57.48 M0 57.48 C-1.45 44.95, 1.71 28.66, 0 19.16 M0 57.48 C-0.34 48.53, 0.55 39.64, 0 19.16 M0 19.16 C-0.08 7.63, 8.37 1.44, 19.16 0 M0 19.16 C-0.29 7.64, 4.92 1.84, 19.16 0" stroke="#1e1e1e" stroke-width="2" fill="none"></path></g><g stroke-linecap="round" transform="translate(13.186373760761853 30.81458684460904) rotate(47.524435689906944 13.974609375 10.47265625)"><path d="M5.24 0 C8.44 -2.79, 15.79 -1.06, 22.71 0 C25.55 -0.14, 25.01 2.83, 27.95 5.24 C28.51 9.01, 28.24 9.64, 27.95 15.71 C26.48 16.79, 24.66 20.6, 22.71 20.95 C16.04 19.15, 15.39 19.73, 5.24 20.95 C1.24 23.99, 1.24 20.46, 0 15.71 C0.06 10.63, 0.36 8.91, 0 5.24 C-1.18 1.07, 1.64 -1.71, 5.24 0" stroke="none" stroke-width="0" fill="#a5d8ff"></path><path d="M5.24 0 C9.09 -0.74, 17.02 0.3, 22.71 0 M5.24 0 C10 0.66, 14.16 0.9, 22.71 0 M22.71 0 C26.01 -1.04, 28.5 1.65, 27.95 5.24 M22.71 0 C25.5 1.04, 28.18 1.26, 27.95 5.24 M27.95 5.24 C27.72 7.54, 28.18 11.45, 27.95 15.71 M27.95 5.24 C28.15 9.18, 28.13 13.71, 27.95 15.71 M27.95 15.71 C27.63 20.52, 25.5 20.41, 22.71 20.95 M27.95 15.71 C26.37 19.38, 27.03 20.67, 22.71 20.95 M22.71 20.95 C17.06 20.33, 10.57 21.39, 5.24 20.95 M22.71 20.95 C16.42 21.23, 8.25 20.5, 5.24 20.95 M5.24 20.95 C3.43 22.71, -0.4 18.11, 0 15.71 M5.24 20.95 C1.15 19.16, -1.01 20.25, 0 15.71 M0 15.71 C0.55 13.13, 0.65 8.34, 0 5.24 M0 15.71 C0.42 12.03, 0.36 8.45, 0 5.24 M0 5.24 C-1.54 0.39, 0.81 0.32, 5.24 0 M0 5.24 C2 1.01, 2.36 -0.1, 5.24 0" stroke="#1e1e1e" stroke-width="2" fill="none"></path></g><g stroke-linecap="round" transform="translate(28.10504480902091 45.26837942211296) rotate(47.524435689906944 25.4296875 23.859375)"><path d="M22.63 0.65 C28.01 -0.21, 35.51 0.88, 40.12 3.73 C44.74 6.57, 48.74 12.87, 50.32 17.73 C51.91 22.6, 51.73 28.47, 49.62 32.92 C47.51 37.37, 42.49 41.93, 37.66 44.41 C32.83 46.9, 26.06 48.74, 20.66 47.82 C15.27 46.9, 8.68 43.19, 5.29 38.89 C1.9 34.58, 0.22 27.27, 0.35 21.99 C0.47 16.71, 2.05 10.75, 6.05 7.23 C10.04 3.71, 21.01 1.98, 24.3 0.9 C27.59 -0.18, 25.8 0.43, 25.78 0.75 M33.95 1.16 C38.61 2.92, 44.88 8.14, 47.59 12.58 C50.3 17.02, 51.24 22.78, 50.2 27.81 C49.16 32.84, 45.66 39.44, 41.35 42.78 C37.05 46.12, 29.8 47.98, 24.35 47.84 C18.91 47.7, 12.67 45.68, 8.68 41.95 C4.7 38.22, 1.33 30.8, 0.44 25.48 C-0.44 20.16, 0.59 14.11, 3.38 10.02 C6.16 5.94, 12.09 2.27, 17.15 0.96 C22.21 -0.36, 31.02 2.15, 33.75 2.12 C36.48 2.09, 33.55 0.48, 33.51 0.79" stroke="none" stroke-width="0" fill="#a5d8ff"></path><path d="M26.97 0.52 C32.36 0.54, 39.7 3.48, 43.82 6.94 C47.94 10.41, 51.34 16.21, 51.7 21.3 C52.06 26.39, 49.19 33.31, 45.97 37.51 C42.75 41.71, 37.44 45.13, 32.36 46.5 C27.28 47.87, 20.51 47.77, 15.51 45.74 C10.5 43.71, 4.97 38.82, 2.35 34.34 C-0.28 29.85, -1.56 23.93, -0.22 18.82 C1.12 13.71, 5.16 6.76, 10.39 3.69 C15.62 0.62, 27.05 0.64, 31.16 0.38 C35.28 0.13, 35.15 1.67, 35.06 2.15 M22.08 1.17 C27.01 0.06, 34.3 0.8, 38.74 3.44 C43.18 6.07, 46.94 12.06, 48.72 16.98 C50.49 21.91, 51.27 28.37, 49.38 32.99 C47.5 37.61, 42.45 42.33, 37.4 44.7 C32.34 47.06, 24.49 48.35, 19.04 47.17 C13.58 45.99, 7.76 41.47, 4.67 37.62 C1.57 33.77, 0.36 28.82, 0.48 24.05 C0.6 19.29, 1.56 12.96, 5.38 9.02 C9.19 5.07, 20.73 1.96, 23.38 0.39 C26.03 -1.18, 21.19 -0.97, 21.27 -0.39" stroke="#1e1e1e" stroke-width="2" fill="none"></path></g></svg>