<svg version="1.1" xmlns="http://www.w3.org/2000/svg" viewBox="0 0 107.56883731447809 127.12357954545405" width="107.56883731447809" height="127.12357954545405">
  <!-- svg-source:excalidraw -->
  
  <defs>
    <style class="style-fonts">
      @font-face {
        font-family: "Virgil";
        src: url("https://excalidraw.com/Virgil.woff2");
      }
      @font-face {
        font-family: "Cascadia";
        src: url("https://excalidraw.com/Cascadia.woff2");
      }
      @font-face {
        font-family: "Assistant";
        src: url("https://excalidraw.com/Assistant-Regular.woff2");
      }
    </style>
    
  </defs>
  <g stroke-linecap="round" transform="translate(10 24.85274621212102) rotate(0 42.630859375 38.322265625)"><path d="M19.16 0 C34.45 -3.86, 43.24 1.14, 66.1 0 C78.63 0.62, 88.03 4.1, 85.26 19.16 C82.85 28.96, 84 38.17, 85.26 57.48 C88.15 66.99, 78.38 75.93, 66.1 76.64 C52.54 80.18, 41.33 78.06, 19.16 76.64 C3.02 73.37, -1.81 68.52, 0 57.48 C1.48 52.81, 1.54 37.52, 0 19.16 C-1.67 5.19, 7.91 3.21, 19.16 0" stroke="none" stroke-width="0" fill="#e64980"></path><path d="M19.16 0 C33.69 0.71, 45.3 -0.74, 66.1 0 M19.16 0 C34.3 0.33, 48.92 -0.14, 66.1 0 M66.1 0 C77.08 0.74, 84.35 8.16, 85.26 19.16 M66.1 0 C77.32 0.67, 84.51 4.96, 85.26 19.16 M85.26 19.16 C86.38 34.32, 84.6 45.27, 85.26 57.48 M85.26 19.16 C85.2 30.94, 84.14 42.67, 85.26 57.48 M85.26 57.48 C87.06 69.66, 79.73 76.45, 66.1 76.64 M85.26 57.48 C86.87 71.37, 77.58 75.37, 66.1 76.64 M66.1 76.64 C56.18 74.4, 45.5 76.12, 19.16 76.64 M66.1 76.64 C52.67 77.72, 39.21 77.61, 19.16 76.64 M19.16 76.64 C7.58 76.45, 0.69 70.09, 0 57.48 M19.16 76.64 C4.44 78.44, -0.15 70.34, 0 57.48 M0 57.48 C0.53 43.04, 1.87 29.77, 0 19.16 M0 57.48 C0.13 48.61, -1.02 40.46, 0 19.16 M0 19.16 C0.92 7.05, 5.28 0.73, 19.16 0 M0 19.16 C0.66 6.71, 5.88 -2.17, 19.16 0" stroke="#1e1e1e" stroke-width="2" fill="none"></path></g><g stroke-linecap="round" transform="translate(33.868992660984986 102.14701704545405) rotate(0 19.283203125 7.48828125)"><path d="M3.74 0 C14.75 1.61, 26.48 0.82, 34.82 0 C39.32 -1.65, 36.67 -0.58, 38.57 3.74 C38.3 6.77, 39.3 8.06, 38.57 11.23 C38.21 13.21, 35.52 15.73, 34.82 14.98 C21.2 15.92, 9.6 12.95, 3.74 14.98 C-0.06 13.72, -2.19 13.1, 0 11.23 C0.33 8.21, -0.49 6.73, 0 3.74 C1.1 3.56, 3.06 -0.43, 3.74 0" stroke="none" stroke-width="0" fill="#868e96"></path><path d="M3.74 0 C13.52 -0.38, 23.94 0.68, 34.82 0 M3.74 0 C10.69 -0.23, 17.85 0.18, 34.82 0 M34.82 0 C36.86 0.88, 37.89 1.54, 38.57 3.74 M34.82 0 C36.94 -0.71, 39.22 0.52, 38.57 3.74 M38.57 3.74 C38.51 6.45, 38.6 9.48, 38.57 11.23 M38.57 3.74 C38.38 6.32, 38.74 8.69, 38.57 11.23 M38.57 11.23 C38.99 13.63, 38.02 15.46, 34.82 14.98 M38.57 11.23 C37.92 13.09, 36.38 15.17, 34.82 14.98 M34.82 14.98 C27.11 14.68, 19.3 14.51, 3.74 14.98 M34.82 14.98 C23.28 15.42, 12.36 15.04, 3.74 14.98 M3.74 14.98 C1.59 14.89, -0.85 14.51, 0 11.23 M3.74 14.98 C1.17 15.02, 0.55 13.18, 0 11.23 M0 11.23 C0.31 9.07, -0.34 7.62, 0 3.74 M0 11.23 C-0.15 8.77, 0.07 6.72, 0 3.74 M0 3.74 C-0.55 1.61, 1.54 0.14, 3.74 0 M0 3.74 C-0.26 0.16, 0.82 -0.31, 3.74 0" stroke="#1e1e1e" stroke-width="2" fill="none"></path></g><g stroke-linecap="round" transform="translate(34.05486505681802 10) rotate(0 19.283203125 7.48828125)"><path d="M3.74 0 C10.06 0.26, 18.73 -1.85, 34.82 0 C35.42 -1.83, 39.79 -0.15, 38.57 3.74 C39.33 5.34, 38.41 8.5, 38.57 11.23 C36.77 14.48, 39.05 13.01, 34.82 14.98 C20.51 12.71, 9.74 13.82, 3.74 14.98 C-0.95 14.35, -0.55 14.67, 0 11.23 C-0.49 7.92, 0.37 6.11, 0 3.74 C1.81 0.82, -0.69 -1.19, 3.74 0" stroke="none" stroke-width="0" fill="#868e96"></path><path d="M3.74 0 C14.57 0.8, 24.25 -0.03, 34.82 0 M3.74 0 C12.69 0.26, 22.3 0.51, 34.82 0 M34.82 0 C36.64 0.29, 38.24 0.63, 38.57 3.74 M34.82 0 C37.97 -0.73, 39.62 2.03, 38.57 3.74 M38.57 3.74 C38.56 6.42, 38.69 9.38, 38.57 11.23 M38.57 3.74 C38.7 6.1, 38.61 8.54, 38.57 11.23 M38.57 11.23 C39.26 14.21, 36.76 14.42, 34.82 14.98 M38.57 11.23 C37.63 13.92, 36.71 15.18, 34.82 14.98 M34.82 14.98 C28.43 14.64, 23.04 14.81, 3.74 14.98 M34.82 14.98 C23.43 15.03, 11.62 15.04, 3.74 14.98 M3.74 14.98 C0.4 15.76, -0.07 13.76, 0 11.23 M3.74 14.98 C1.79 14.43, -0.44 13.93, 0 11.23 M0 11.23 C-0.37 9.71, -0.01 7.75, 0 3.74 M0 11.23 C0.11 9.67, -0.08 8.05, 0 3.74 M0 3.74 C0.29 1.39, 1.03 -0.95, 3.74 0 M0 3.74 C-0.42 0.93, 2.04 0.94, 3.74 0" stroke="#343a40" stroke-width="2" fill="none"></path></g><g stroke-linecap="round" transform="translate(66.43324480371666 79.23082182887447) rotate(47.524435689906944 13.974609375 10.47265625)"><path d="M5.24 0 C13.73 -2.06, 15.1 -2.26, 22.71 0 C27.89 -1.93, 29.05 0.97, 27.95 5.24 C27.84 8.47, 26.8 13, 27.95 15.71 C30.35 16.48, 29.17 17.86, 22.71 20.95 C15.48 19.14, 8.75 19.9, 5.24 20.95 C0.99 22.25, 3.59 20.57, 0 15.71 C0.88 15.25, 1.4 11.12, 0 5.24 C-2.69 0.1, 3.26 -0.84, 5.24 0" stroke="none" stroke-width="0" fill="#ffd8a8"></path><path d="M5.24 0 C8.77 -0.27, 14.65 -1.3, 22.71 0 M5.24 0 C9.3 0.71, 13.57 0.19, 22.71 0 M22.71 0 C25.55 -1.24, 29.09 0.48, 27.95 5.24 M22.71 0 C28.31 1.56, 29.66 1.26, 27.95 5.24 M27.95 5.24 C28.31 7.8, 28.18 9.18, 27.95 15.71 M27.95 5.24 C28.27 8.74, 28.41 12.59, 27.95 15.71 M27.95 15.71 C26.83 18.1, 24.58 21.28, 22.71 20.95 M27.95 15.71 C26.73 19.6, 23.91 20.86, 22.71 20.95 M22.71 20.95 C18.87 20.63, 14.04 20.33, 5.24 20.95 M22.71 20.95 C16.63 20.86, 9.21 21.61, 5.24 20.95 M5.24 20.95 C1.61 21.01, 0.95 18.24, 0 15.71 M5.24 20.95 C0.86 21.34, -1.29 21.14, 0 15.71 M0 15.71 C0.15 13.6, -0.78 9.81, 0 5.24 M0 15.71 C-0.34 13.74, 0.1 11.46, 0 5.24 M0 5.24 C-0.44 -0.15, 1.01 -0.54, 5.24 0 M0 5.24 C1.58 3.62, -0.35 -0.4, 5.24 0" stroke="#1e1e1e" stroke-width="2" fill="none"></path></g><g stroke-linecap="round" transform="translate(28.604417505457604 38.00359175136873) rotate(47.524435689906944 25.4296875 23.859375000000004)"><path d="M21.42 -0.1 C26.26 -1.1, 32.22 1.16, 36.85 3.81 C41.49 6.45, 47.26 11.24, 49.22 15.75 C51.19 20.27, 50.58 26.08, 48.64 30.91 C46.71 35.75, 42.07 42.11, 37.59 44.77 C33.12 47.43, 26.95 47.7, 21.79 46.87 C16.62 46.04, 10.21 43.61, 6.61 39.8 C3 36, 0.46 29.28, 0.14 24.06 C-0.17 18.84, 0.93 12.36, 4.72 8.48 C8.51 4.6, 19.24 2.27, 22.88 0.78 C26.52 -0.7, 26.51 -0.79, 26.56 -0.43 M23.6 -1.08 C28.54 -1.63, 35.72 2.36, 40.04 5.77 C44.36 9.17, 48.25 14.37, 49.5 19.36 C50.75 24.36, 49.78 31.52, 47.56 35.73 C45.33 39.94, 41.18 42.87, 36.15 44.62 C31.12 46.38, 22.91 47.53, 17.36 46.25 C11.8 44.97, 5.51 41.41, 2.82 36.93 C0.14 32.45, 0.11 24.75, 1.25 19.4 C2.39 14.05, 5.72 8.3, 9.66 4.84 C13.6 1.38, 22.65 -0.54, 24.9 -1.39 C27.16 -2.24, 23.37 -0.68, 23.2 -0.26" stroke="none" stroke-width="0" fill="#ffd8a8"></path><path d="M17.45 0.87 C22.45 -0.98, 30.27 -0.96, 35.35 0.88 C40.43 2.72, 45.51 7.23, 47.92 11.9 C50.33 16.57, 50.96 23.68, 49.79 28.91 C48.61 34.13, 44.87 40.01, 40.86 43.27 C36.86 46.53, 31.13 48.79, 25.75 48.46 C20.37 48.13, 12.83 44.82, 8.6 41.3 C4.36 37.77, 1.12 32.25, 0.34 27.32 C-0.44 22.39, 0.54 16.35, 3.93 11.71 C7.32 7.06, 17.26 1.18, 20.66 -0.53 C24.06 -2.24, 24.34 0.79, 24.33 1.42 M23.37 -0.8 C28.15 -1.42, 35.26 1.85, 39.61 5.12 C43.95 8.4, 48.28 13.92, 49.44 18.86 C50.59 23.79, 48.94 30.28, 46.54 34.73 C44.14 39.19, 39.9 43.46, 35.05 45.61 C30.2 47.76, 22.62 48.92, 17.41 47.64 C12.21 46.35, 6.77 42.21, 3.82 37.9 C0.87 33.6, -1.15 27.11, -0.27 21.82 C0.6 16.54, 4.9 9.84, 9.07 6.19 C13.24 2.53, 22.42 0.66, 24.73 -0.1 C27.05 -0.85, 23.05 1.25, 22.97 1.67" stroke="#1e1e1e" stroke-width="2" fill="none"></path></g></svg>