<svg version="1.1" xmlns="http://www.w3.org/2000/svg" viewBox="0 0 108.08725249304916 127.12357954545405" width="108.08725249304916" height="127.12357954545405">
  <!-- svg-source:excalidraw -->
  
  <defs>
    <style class="style-fonts">
      @font-face {
        font-family: "Virgil";
        src: url("https://excalidraw.com/Virgil.woff2");
      }
      @font-face {
        font-family: "Cascadia";
        src: url("https://excalidraw.com/Cascadia.woff2");
      }
      @font-face {
        font-family: "Assistant";
        src: url("https://excalidraw.com/Assistant-Regular.woff2");
      }
    </style>
    
  </defs>
  <g stroke-linecap="round" transform="translate(12.825533743049164 24.85274621212102) rotate(0 42.630859375 38.322265625)"><path d="M19.16 0 C27.95 -1.02, 40.34 -0.41, 66.1 0 C81.61 -1.15, 87.61 8.54, 85.26 19.16 C82.45 33.08, 85.26 41.52, 85.26 57.48 C86.97 68.53, 77.49 77.27, 66.1 76.64 C51.41 79.13, 43.4 77.8, 19.16 76.64 C3.39 74.09, -3.37 71.91, 0 57.48 C1.42 45.21, -0.42 28.53, 0 19.16 C-1.33 5.41, 8.86 2.94, 19.16 0" stroke="none" stroke-width="0" fill="#e64980"></path><path d="M19.16 0 C34.98 -0.76, 45.32 -2.08, 66.1 0 M19.16 0 C35.39 0.83, 52.32 -0.94, 66.1 0 M66.1 0 C79.77 1.21, 86.97 7.25, 85.26 19.16 M66.1 0 C77.74 1.21, 85.56 6.55, 85.26 19.16 M85.26 19.16 C85.11 26.66, 86.4 36.85, 85.26 57.48 M85.26 19.16 C85.53 27.56, 85.32 34.08, 85.26 57.48 M85.26 57.48 C84.15 72.01, 77.33 75.37, 66.1 76.64 M85.26 57.48 C84.87 70.4, 79.36 78.08, 66.1 76.64 M66.1 76.64 C50.6 77.99, 32.83 76.33, 19.16 76.64 M66.1 76.64 C51.02 76.81, 37.27 77.32, 19.16 76.64 M19.16 76.64 C5.03 77.22, -0.66 69.02, 0 57.48 M19.16 76.64 C7.7 75.19, 2.11 71.82, 0 57.48 M0 57.48 C0.11 42.44, 0.76 28.93, 0 19.16 M0 57.48 C1.28 44.86, 0.81 32.74, 0 19.16 M0 19.16 C1.4 7.35, 5.26 -1.1, 19.16 0 M0 19.16 C-1.87 6.78, 5.17 0.4, 19.16 0" stroke="#1e1e1e" stroke-width="2" fill="none"></path></g><g stroke-linecap="round" transform="translate(36.694526404033695 102.14701704545405) rotate(0 19.283203125 7.48828125)"><path d="M3.74 0 C14.36 -0.25, 23.5 -0.7, 34.82 0 C39.01 1.56, 38.31 2.14, 38.57 3.74 C38.42 5.96, 38.95 7.65, 38.57 11.23 C37.57 14.18, 35.86 17.17, 34.82 14.98 C27.32 16.47, 17.36 13.46, 3.74 14.98 C-1.19 16.17, 0.87 12.29, 0 11.23 C-0.24 7.79, -0.39 5.93, 0 3.74 C1.78 3.37, -1.12 -0.45, 3.74 0" stroke="none" stroke-width="0" fill="#868e96"></path><path d="M3.74 0 C14.59 -0.83, 27.54 0.49, 34.82 0 M3.74 0 C13.77 -0.54, 24.64 0.15, 34.82 0 M34.82 0 C38.17 0.43, 38.07 1.78, 38.57 3.74 M34.82 0 C37.47 0.08, 37.92 1.72, 38.57 3.74 M38.57 3.74 C38.74 5.3, 38.2 6.93, 38.57 11.23 M38.57 3.74 C38.66 5.57, 38.48 7.84, 38.57 11.23 M38.57 11.23 C37.8 13.09, 37.15 15.04, 34.82 14.98 M38.57 11.23 C38.81 14.45, 37.78 14.74, 34.82 14.98 M34.82 14.98 C25.83 15.01, 18.18 14.42, 3.74 14.98 M34.82 14.98 C26.66 15.48, 18.61 15.18, 3.74 14.98 M3.74 14.98 C0.92 14.36, 0.57 13.1, 0 11.23 M3.74 14.98 C2.3 15.76, 0.85 13.49, 0 11.23 M0 11.23 C0.13 9.48, 0.08 7.3, 0 3.74 M0 11.23 C0.05 8.68, 0.1 6.25, 0 3.74 M0 3.74 C-0.56 0.7, 0.43 0.17, 3.74 0 M0 3.74 C-0.61 1.45, 0.1 -0.04, 3.74 0" stroke="#1e1e1e" stroke-width="2" fill="none"></path></g><g stroke-linecap="round" transform="translate(36.88039879986718 10) rotate(0 19.283203125 7.48828125)"><path d="M3.74 0 C14.07 -0.77, 22.13 1.62, 34.82 0 C37.06 0.9, 38.35 -0.96, 38.57 3.74 C39.02 6.11, 38.19 9.57, 38.57 11.23 C37.11 15.92, 35.92 12.63, 34.82 14.98 C20.8 13.31, 8.66 16.35, 3.74 14.98 C2.12 13.53, 0.95 14.48, 0 11.23 C-0.34 8.62, 0.69 7.32, 0 3.74 C-2.37 0.8, 2.49 -0.18, 3.74 0" stroke="none" stroke-width="0" fill="#868e96"></path><path d="M3.74 0 C13.01 0.59, 21.41 -0.53, 34.82 0 M3.74 0 C16.34 0.42, 28.92 0.34, 34.82 0 M34.82 0 C36.83 0.53, 38.7 1.32, 38.57 3.74 M34.82 0 C36.67 0.47, 37.8 1.07, 38.57 3.74 M38.57 3.74 C38.23 4.99, 38.44 7.08, 38.57 11.23 M38.57 3.74 C38.48 6.57, 38.44 8.96, 38.57 11.23 M38.57 11.23 C38.39 13.79, 37.53 15.6, 34.82 14.98 M38.57 11.23 C39.03 13.5, 36.95 15.25, 34.82 14.98 M34.82 14.98 C23.2 14.29, 11.09 14.07, 3.74 14.98 M34.82 14.98 C24 15.26, 13.7 14.8, 3.74 14.98 M3.74 14.98 C1.82 14.34, 0.92 14.41, 0 11.23 M3.74 14.98 C2.1 14.74, -0.71 13.75, 0 11.23 M0 11.23 C0.07 8.87, 0.13 7.6, 0 3.74 M0 11.23 C0.11 9.3, -0.12 7.09, 0 3.74 M0 3.74 C-0.81 1.42, 0.72 0.17, 3.74 0 M0 3.74 C-1.15 1.21, 1.09 -0.19, 3.74 0" stroke="#343a40" stroke-width="2" fill="none"></path></g><g stroke-linecap="round" transform="translate(13.186373760761398 24.156708609438283) rotate(47.524435689906944 13.974609375 10.47265625)"><path d="M5.24 0 C12.28 1.98, 14.9 1.18, 22.71 0 C25.91 -3.05, 30.75 1.51, 27.95 5.24 C27.31 8.74, 26.98 13.18, 27.95 15.71 C26.01 15.96, 29.14 21.14, 22.71 20.95 C13.74 22.17, 11.71 18.98, 5.24 20.95 C3.06 21.99, 0.51 18.4, 0 15.71 C1.36 15.1, -1.65 11.08, 0 5.24 C1.72 1.5, 2.37 2.77, 5.24 0" stroke="none" stroke-width="0" fill="#ffd8a8"></path><path d="M5.24 0 C9.54 -1.25, 14.41 -1.17, 22.71 0 M5.24 0 C9.86 0.27, 12.56 0.36, 22.71 0 M22.71 0 C26.46 0.15, 26.82 2.56, 27.95 5.24 M22.71 0 C24.67 -0.35, 25.83 2.88, 27.95 5.24 M27.95 5.24 C27.45 8.47, 28.44 10.87, 27.95 15.71 M27.95 5.24 C27.49 7.25, 27.8 9.95, 27.95 15.71 M27.95 15.71 C28.37 20.45, 27.01 20.54, 22.71 20.95 M27.95 15.71 C27.22 19.76, 27.92 19.43, 22.71 20.95 M22.71 20.95 C16.83 19.26, 13.16 20.03, 5.24 20.95 M22.71 20.95 C15.64 20.45, 9.63 20.44, 5.24 20.95 M5.24 20.95 C3.58 22.31, 1.49 18.78, 0 15.71 M5.24 20.95 C0.32 20.98, -0.8 19.98, 0 15.71 M0 15.71 C0.38 13.44, -0.34 9.73, 0 5.24 M0 15.71 C-0.37 12.38, -0.5 9.71, 0 5.24 M0 5.24 C-1.06 2.09, -0.25 -0.07, 5.24 0 M0 5.24 C-0.32 1.36, 1.02 1.52, 5.24 0" stroke="#1e1e1e" stroke-width="2" fill="none"></path></g><g stroke-linecap="round" transform="translate(28.10504480902 38.92300118694311) rotate(47.524435689906944 25.4296875 23.859375)"><path d="M18.01 1.21 C22.87 -0.67, 30.21 -1.29, 35.27 0.78 C40.32 2.85, 45.87 8.88, 48.32 13.64 C50.77 18.4, 51.22 24.38, 49.98 29.34 C48.75 34.3, 45.09 40.45, 40.91 43.42 C36.73 46.38, 30.44 47.59, 24.92 47.14 C19.4 46.69, 11.87 44.14, 7.79 40.71 C3.7 37.28, 1.02 31.65, 0.4 26.56 C-0.21 21.46, 0.61 14.53, 4.09 10.14 C7.57 5.74, 17.83 1.83, 21.3 0.17 C24.77 -1.49, 24.75 -0.23, 24.93 0.16 M35.77 1.56 C40.86 2.89, 46.14 7.73, 48.36 12.46 C50.57 17.18, 50.27 24.87, 49.05 29.91 C47.83 34.94, 45.01 39.81, 41.06 42.66 C37.11 45.51, 30.87 47.11, 25.35 46.99 C19.82 46.86, 12.23 44.98, 7.91 41.91 C3.58 38.83, 0.24 33.86, -0.58 28.53 C-1.4 23.2, -0.21 14.48, 3.01 9.94 C6.22 5.39, 13.29 2.86, 18.71 1.28 C24.13 -0.3, 33.06 0.55, 35.54 0.46 C38.03 0.37, 33.77 0.08, 33.62 0.74" stroke="none" stroke-width="0" fill="#ffd8a8"></path><path d="M18.21 2.01 C23.23 0.07, 30.38 -0.54, 35.42 1.26 C40.45 3.06, 45.93 8.31, 48.43 12.81 C50.92 17.32, 51.53 23.42, 50.37 28.29 C49.21 33.15, 45.8 38.93, 41.47 42.01 C37.13 45.09, 29.79 46.94, 24.36 46.78 C18.92 46.62, 13.06 44.48, 8.88 41.07 C4.7 37.66, 0.18 31.2, -0.71 26.32 C-1.61 21.44, -0.36 16.07, 3.5 11.78 C7.36 7.49, 18.78 2.58, 22.45 0.6 C26.12 -1.37, 25.39 -0.27, 25.5 -0.06 M17.78 2.14 C22.74 0.26, 30.53 -0.4, 35.46 1.4 C40.39 3.19, 44.69 8.54, 47.35 12.93 C50.02 17.32, 52.5 22.78, 51.44 27.73 C50.39 32.68, 45.68 39.41, 41.05 42.63 C36.42 45.85, 29.3 47.11, 23.65 47.04 C18 46.97, 11.16 45.29, 7.15 42.22 C3.14 39.15, 0.3 33.69, -0.42 28.61 C-1.15 23.53, -0.11 16.46, 2.79 11.74 C5.69 7.01, 14.36 2.11, 16.98 0.27 C19.59 -1.57, 18.04 0, 18.48 0.7" stroke="#1e1e1e" stroke-width="2" fill="none"></path></g></svg>