<svg version="1.1" xmlns="http://www.w3.org/2000/svg" viewBox="0 0 105.26171875 129.23744184244413" width="105.26171875" height="129.23744184244413">
  <!-- svg-source:excalidraw -->
  
  <defs>
    <style class="style-fonts">
      @font-face {
        font-family: "Virgil";
        src: url("https://excalidraw.com/Virgil.woff2");
      }
      @font-face {
        font-family: "Cascadia";
        src: url("https://excalidraw.com/Cascadia.woff2");
      }
      @font-face {
        font-family: "Assistant";
        src: url("https://excalidraw.com/Assistant-Regular.woff2");
      }
    </style>
    
  </defs>
  <g stroke-linecap="round" transform="translate(10 26.966608509110188) rotate(0 42.630859375 38.322265625)"><path d="M19.16 0 C36.99 -2.61, 49.36 -3.52, 66.1 0 C79.48 -1.91, 85.89 2.79, 85.26 19.16 C84.03 32.9, 84.64 44.62, 85.26 57.48 C84.11 72.61, 81.03 76.29, 66.1 76.64 C53.21 75.69, 34.83 77.64, 19.16 76.64 C4.66 75.26, 0.63 68.24, 0 57.48 C3.31 42.96, 1.98 25.04, 0 19.16 C-2.56 3.01, 8.04 1.2, 19.16 0" stroke="none" stroke-width="0" fill="#e64980"></path><path d="M19.16 0 C31.14 0.94, 43.11 1.03, 66.1 0 M19.16 0 C35.1 -1.09, 51.89 0.86, 66.1 0 M66.1 0 C78.45 -1.52, 83.53 7.58, 85.26 19.16 M66.1 0 C79.93 0.75, 83.73 8.64, 85.26 19.16 M85.26 19.16 C86.17 29.97, 85.82 36.37, 85.26 57.48 M85.26 19.16 C84.75 33.09, 84.64 46.04, 85.26 57.48 M85.26 57.48 C83.42 71.24, 77.88 74.74, 66.1 76.64 M85.26 57.48 C83.36 69.39, 80.23 77.93, 66.1 76.64 M66.1 76.64 C52.03 74.84, 33.18 76.04, 19.16 76.64 M66.1 76.64 C52.12 76.74, 37.02 77.18, 19.16 76.64 M19.16 76.64 C7.88 75.33, -0.16 70.3, 0 57.48 M19.16 76.64 C4.85 75.62, -2.06 71.11, 0 57.48 M0 57.48 C0.24 47.09, -1.58 39.13, 0 19.16 M0 57.48 C0.39 48.2, -0.97 39.36, 0 19.16 M0 19.16 C-0.7 7.07, 6.53 0.43, 19.16 0 M0 19.16 C-2.28 7.28, 8.46 -0.69, 19.16 0" stroke="#1e1e1e" stroke-width="2" fill="none"></path></g><g stroke-linecap="round" transform="translate(33.86899266098453 104.26087934244413) rotate(0 19.283203125 7.48828125)"><path d="M3.74 0 C13.8 -1.89, 27.17 -1.15, 34.82 0 C37.77 -2.59, 38.47 0.89, 38.57 3.74 C38.39 6.6, 38.23 8.62, 38.57 11.23 C40.12 13.47, 38.21 14.76, 34.82 14.98 C28.23 16.19, 20.2 13.95, 3.74 14.98 C1.7 13.52, 2.19 12.33, 0 11.23 C0.36 8.85, -0.77 7.18, 0 3.74 C1.2 2.12, -0.19 0.95, 3.74 0" stroke="none" stroke-width="0" fill="#868e96"></path><path d="M3.74 0 C11.07 0.37, 20.43 0.86, 34.82 0 M3.74 0 C14.3 0.64, 24.02 -0.23, 34.82 0 M34.82 0 C36.45 0.6, 39.03 1.57, 38.57 3.74 M34.82 0 C36.55 1.13, 37.85 0.35, 38.57 3.74 M38.57 3.74 C38.75 6.14, 38.79 8.96, 38.57 11.23 M38.57 3.74 C38.42 6.02, 38.37 8.44, 38.57 11.23 M38.57 11.23 C38.07 12.77, 36.49 14.6, 34.82 14.98 M38.57 11.23 C39.24 14.37, 37.75 14.1, 34.82 14.98 M34.82 14.98 C26.59 14.68, 19.69 15.07, 3.74 14.98 M34.82 14.98 C23.4 15.07, 12.66 14.62, 3.74 14.98 M3.74 14.98 C1.17 15, -0.67 13.28, 0 11.23 M3.74 14.98 C0.22 15.4, -0.53 14.75, 0 11.23 M0 11.23 C-0.24 9.71, -0.25 8.1, 0 3.74 M0 11.23 C-0.14 8.48, -0.09 5.78, 0 3.74 M0 3.74 C0.07 1.46, 0.26 0.39, 3.74 0 M0 3.74 C1.04 0.9, 1.74 -0.11, 3.74 0" stroke="#1e1e1e" stroke-width="2" fill="none"></path></g><g stroke-linecap="round" transform="translate(34.05486505681802 12.113862296989168) rotate(0 19.283203125 7.48828125)"><path d="M3.74 0 C11.76 -1.05, 19.35 -2.27, 34.82 0 C37.23 -0.36, 38.13 0.43, 38.57 3.74 C38.24 7.12, 39.13 9.13, 38.57 11.23 C39.46 13.51, 35.11 17, 34.82 14.98 C24.46 14.17, 17.04 13.71, 3.74 14.98 C3.44 13.57, -2.34 15.85, 0 11.23 C-0.74 8.03, 0.4 6.98, 0 3.74 C-1.44 2.2, 2 0.37, 3.74 0" stroke="none" stroke-width="0" fill="#868e96"></path><path d="M3.74 0 C14.66 0.85, 25.03 -0.12, 34.82 0 M3.74 0 C9.99 -0.53, 16.02 0.15, 34.82 0 M34.82 0 C37.78 0.33, 37.9 2.23, 38.57 3.74 M34.82 0 C36.6 -0.9, 39.08 1.94, 38.57 3.74 M38.57 3.74 C38.78 6.68, 38.61 9.31, 38.57 11.23 M38.57 3.74 C38.37 6.39, 38.45 8.67, 38.57 11.23 M38.57 11.23 C37.74 13.35, 37.91 15.54, 34.82 14.98 M38.57 11.23 C38.99 12.85, 36.68 15.98, 34.82 14.98 M34.82 14.98 C27.96 15.16, 21.59 15.35, 3.74 14.98 M34.82 14.98 C26.5 14.69, 17.39 15.03, 3.74 14.98 M3.74 14.98 C0.58 14.53, -0.9 14.1, 0 11.23 M3.74 14.98 C0.72 15.99, -0.78 14.06, 0 11.23 M0 11.23 C-0.21 9.57, 0.28 7.51, 0 3.74 M0 11.23 C-0.04 9.21, 0.04 7.09, 0 3.74 M0 3.74 C-0.99 1.64, 2.15 -0.3, 3.74 0 M0 3.74 C0.49 1.14, 2.05 0.55, 3.74 0" stroke="#343a40" stroke-width="2" fill="none"></path></g><g stroke-linecap="round" transform="translate(39.397448168828305 13.626040698085376) rotate(269.315648468081 13.974609375 10.47265625)"><path d="M5.24 0 C9.6 -2.97, 12.77 -0.27, 22.71 0 C25.59 -1.14, 30.33 1.22, 27.95 5.24 C29.02 8.99, 28.54 12.96, 27.95 15.71 C24.9 22, 25.97 21.07, 22.71 20.95 C17.19 19.06, 13.21 19.13, 5.24 20.95 C-1.5 23.88, 0.2 20.81, 0 15.71 C1 14.07, -0.91 11.86, 0 5.24 C1.04 2.25, 0.95 -3.4, 5.24 0" stroke="none" stroke-width="0" fill="#ffd8a8"></path><path d="M5.24 0 C11.71 -0.25, 15.54 1.12, 22.71 0 M5.24 0 C11.45 0.66, 19.58 0.42, 22.71 0 M22.71 0 C24.87 1.96, 26.7 0.18, 27.95 5.24 M22.71 0 C27.24 1.39, 29.91 2.74, 27.95 5.24 M27.95 5.24 C28.08 7.27, 28.43 9.79, 27.95 15.71 M27.95 5.24 C27.59 7.72, 27.42 11, 27.95 15.71 M27.95 15.71 C29.13 20.32, 26.95 19.42, 22.71 20.95 M27.95 15.71 C26.67 21.21, 24.43 19.48, 22.71 20.95 M22.71 20.95 C18.86 21.69, 12.48 20.43, 5.24 20.95 M22.71 20.95 C16.98 20.85, 10.8 20.44, 5.24 20.95 M5.24 20.95 C-0.05 21.69, -0.92 20.97, 0 15.71 M5.24 20.95 C0.19 21.61, -0.75 17.78, 0 15.71 M0 15.71 C0.78 12.75, -0.15 7.58, 0 5.24 M0 15.71 C0.07 12.66, -0.48 9.59, 0 5.24 M0 5.24 C1.8 1.15, 2.6 -0.19, 5.24 0 M0 5.24 C1.6 2.85, 0.45 -1.27, 5.24 0" stroke="#1e1e1e" stroke-width="2" fill="none"></path></g><g stroke-linecap="round" transform="translate(27.939453125 38.740472132401806) rotate(269.315648468081 25.4296875 23.859375)"><path d="M16.35 1.93 C20.97 0.23, 28.42 0.61, 33.73 2.44 C39.05 4.26, 45.51 8.68, 48.26 12.88 C51.01 17.08, 51.33 22.77, 50.22 27.62 C49.11 32.46, 45.71 38.58, 41.6 41.94 C37.48 45.3, 30.93 47.95, 25.51 47.79 C20.1 47.63, 13.24 44.18, 9.11 40.99 C4.97 37.8, 1.71 33.47, 0.73 28.67 C-0.25 23.86, -0.22 16.77, 3.24 12.15 C6.69 7.54, 17.56 3.01, 21.49 0.97 C25.41 -1.06, 26.8 -0.21, 26.79 -0.07 M26.08 0.03 C31.36 0.05, 39.12 2.91, 43.15 6.69 C47.19 10.47, 49.8 17.38, 50.28 22.71 C50.77 28.03, 49.19 34.44, 46.08 38.63 C42.97 42.83, 36.67 46.75, 31.6 47.87 C26.53 48.99, 20.42 47.69, 15.64 45.36 C10.86 43.03, 5.61 38.29, 2.93 33.88 C0.25 29.47, -1.72 23.83, -0.42 18.92 C0.87 14, 5.9 7.66, 10.69 4.4 C15.47 1.15, 25.58 -0.04, 28.29 -0.63 C31 -1.23, 27.25 0.09, 26.96 0.82" stroke="none" stroke-width="0" fill="#ffd8a8"></path><path d="M33.77 0.71 C38.66 2.28, 45.44 8.24, 48.26 12.74 C51.09 17.25, 51.69 22.9, 50.72 27.73 C49.75 32.57, 46.84 38.36, 42.42 41.77 C38.01 45.17, 29.73 48, 24.22 48.16 C18.7 48.32, 13.27 46.24, 9.36 42.73 C5.45 39.22, 1.61 32.28, 0.75 27.11 C-0.12 21.94, 1.41 16.1, 4.15 11.71 C6.9 7.31, 11.93 2.48, 17.21 0.74 C22.5 -1, 32.74 1.08, 35.87 1.27 C39 1.45, 36.16 1.44, 36 1.83 M14.64 3.51 C19.39 0.91, 26.53 -1.76, 31.56 -0.56 C36.59 0.63, 41.8 6.61, 44.82 10.7 C47.83 14.8, 49.83 19.11, 49.68 24.01 C49.52 28.92, 47.32 36.05, 43.87 40.12 C40.42 44.2, 34.25 47.88, 28.99 48.46 C23.73 49.05, 17.03 46.5, 12.31 43.64 C7.59 40.79, 2.22 36.32, 0.68 31.33 C-0.86 26.34, 0.92 18.45, 3.08 13.68 C5.24 8.91, 11.98 4.57, 13.63 2.7 C15.28 0.82, 12.99 1.98, 12.98 2.42" stroke="#1e1e1e" stroke-width="2" fill="none"></path></g></svg>