<svg version="1.1" xmlns="http://www.w3.org/2000/svg" viewBox="0 0 106.74238642162028 127.12357954545405" width="106.74238642162028" height="127.12357954545405">
  <!-- svg-source:excalidraw -->
  
  <defs>
    <style class="style-fonts">
      @font-face {
        font-family: "Virgil";
        src: url("https://excalidraw.com/Virgil.woff2");
      }
      @font-face {
        font-family: "Cascadia";
        src: url("https://excalidraw.com/Cascadia.woff2");
      }
      @font-face {
        font-family: "Assistant";
        src: url("https://excalidraw.com/Assistant-Regular.woff2");
      }
    </style>
    
  </defs>
  <g stroke-linecap="round" transform="translate(11.480667671620282 24.85274621212011) rotate(0 42.630859375 38.322265625)"><path d="M19.16 0 C34.47 -1.47, 40.47 3.41, 66.1 0 C79.07 1.61, 82.27 3.83, 85.26 19.16 C83.58 28.38, 86.62 35.48, 85.26 57.48 C84.46 66.85, 77.55 75.66, 66.1 76.64 C48.18 77.59, 31.24 76.5, 19.16 76.64 C9.15 74.35, -2.62 67.73, 0 57.48 C-0.4 45.79, 3.26 27.63, 0 19.16 C-0.49 5.68, 3.9 1.04, 19.16 0" stroke="none" stroke-width="0" fill="#e64980"></path><path d="M19.16 0 C34.66 -1.07, 48.23 -1.58, 66.1 0 M19.16 0 C34.72 0.07, 52.53 1.01, 66.1 0 M66.1 0 C79.62 -1.53, 84.15 8.14, 85.26 19.16 M66.1 0 C77.1 -1.46, 84.87 6.53, 85.26 19.16 M85.26 19.16 C85.1 30.83, 85.98 45.26, 85.26 57.48 M85.26 19.16 C84.56 27.69, 84.33 37.48, 85.26 57.48 M85.26 57.48 C84.35 72.03, 77.52 77.22, 66.1 76.64 M85.26 57.48 C84.51 68.83, 80.18 75.19, 66.1 76.64 M66.1 76.64 C47.29 75.75, 29.36 76.3, 19.16 76.64 M66.1 76.64 C49.43 77.13, 35.65 76.45, 19.16 76.64 M19.16 76.64 C7.24 76.45, 1.4 71.22, 0 57.48 M19.16 76.64 C5.1 75.37, -1.87 70.65, 0 57.48 M0 57.48 C-0.14 47.74, -0.41 37.92, 0 19.16 M0 57.48 C-0.26 44.1, 0.65 29.31, 0 19.16 M0 19.16 C0.69 6.22, 4.69 1.56, 19.16 0 M0 19.16 C-0.15 6.47, 7.48 -1.1, 19.16 0" stroke="#1e1e1e" stroke-width="2" fill="none"></path></g><g stroke-linecap="round" transform="translate(35.34966033260527 102.14701704545405) rotate(0 19.283203125 7.48828125)"><path d="M3.74 0 C8.98 2.34, 19.05 1.38, 34.82 0 C35.16 -1.85, 36.13 2.44, 38.57 3.74 C38.79 6.38, 38.3 7.82, 38.57 11.23 C37.61 13.02, 39.1 17.1, 34.82 14.98 C28.15 15.62, 23.84 13.52, 3.74 14.98 C-0.65 13.15, 1.22 12.33, 0 11.23 C0.8 7.87, -0.11 6.09, 0 3.74 C-1.79 2, 2.98 -1.96, 3.74 0" stroke="none" stroke-width="0" fill="#868e96"></path><path d="M3.74 0 C11.17 -0.82, 19.39 -0.39, 34.82 0 M3.74 0 C10.4 0.34, 16.65 -0.32, 34.82 0 M34.82 0 C36.76 0.87, 37.8 0.61, 38.57 3.74 M34.82 0 C37.12 0.07, 38.81 1.97, 38.57 3.74 M38.57 3.74 C38.65 6.57, 38.31 8.81, 38.57 11.23 M38.57 3.74 C38.37 6.08, 38.46 8.44, 38.57 11.23 M38.57 11.23 C37.89 14.02, 36.99 14.36, 34.82 14.98 M38.57 11.23 C39.22 13, 38.37 15.76, 34.82 14.98 M34.82 14.98 C23.2 14.53, 11.89 14.95, 3.74 14.98 M34.82 14.98 C25.28 14.89, 15.04 14.99, 3.74 14.98 M3.74 14.98 C1.95 15.46, -0.56 13.18, 0 11.23 M3.74 14.98 C0.31 15.17, -0.61 13.93, 0 11.23 M0 11.23 C-0.06 9.62, 0.25 8.18, 0 3.74 M0 11.23 C0.12 8.4, 0.08 5.58, 0 3.74 M0 3.74 C-0.85 2.03, 1.18 0.03, 3.74 0 M0 3.74 C0.55 0.7, 0.81 0.2, 3.74 0" stroke="#1e1e1e" stroke-width="2" fill="none"></path></g><g stroke-linecap="round" transform="translate(35.5355327284383 10) rotate(0 19.283203125 7.48828125)"><path d="M3.74 0 C11.53 0.83, 16.88 -2.18, 34.82 0 C34.88 1.2, 39.43 -0.19, 38.57 3.74 C38.38 5.34, 38.24 8.52, 38.57 11.23 C40.35 15.85, 34.95 14.53, 34.82 14.98 C26.01 13.39, 11.31 13.22, 3.74 14.98 C2.47 13.58, 0.79 13.17, 0 11.23 C-0.21 8.46, -0.75 6.36, 0 3.74 C1.73 -0.72, 3.39 -2.23, 3.74 0" stroke="none" stroke-width="0" fill="#868e96"></path><path d="M3.74 0 C11.48 -0.35, 17.28 -0.68, 34.82 0 M3.74 0 C12.08 -0.47, 19.77 0.35, 34.82 0 M34.82 0 C36.55 -0.64, 38.39 1.31, 38.57 3.74 M34.82 0 C37.56 0.72, 39.03 1.02, 38.57 3.74 M38.57 3.74 C38.33 5.72, 38.58 7.51, 38.57 11.23 M38.57 3.74 C38.45 5.82, 38.41 7.62, 38.57 11.23 M38.57 11.23 C38.24 13.11, 37.89 14.34, 34.82 14.98 M38.57 11.23 C39.62 14.51, 38.17 14.74, 34.82 14.98 M34.82 14.98 C27.77 14.99, 20.25 13.93, 3.74 14.98 M34.82 14.98 C24.5 14.88, 14.11 15.17, 3.74 14.98 M3.74 14.98 C0.69 14.42, -0.81 13.9, 0 11.23 M3.74 14.98 C0.64 15.18, -1.15 13.69, 0 11.23 M0 11.23 C0.25 9.04, 0.29 6.83, 0 3.74 M0 11.23 C0.04 8.48, -0.18 5.91, 0 3.74 M0 3.74 C-0.07 1.28, 1.72 -0.48, 3.74 0 M0 3.74 C-0.44 1.45, 0.6 0.97, 3.74 0" stroke="#343a40" stroke-width="2" fill="none"></path></g><g stroke-linecap="round" transform="translate(13.186373760761413 77.62702718601486) rotate(312.47556431009303 13.974609375 10.47265625)"><path d="M5.24 0 C9.29 -2.38, 15.63 1.31, 22.71 0 C27.41 -2, 29.26 2.79, 27.95 5.24 C27.21 8.01, 29.2 13.35, 27.95 15.71 C24.67 18.58, 27.92 20.7, 22.71 20.95 C14.88 18.54, 13.1 19.06, 5.24 20.95 C2.84 20.17, 1.6 22.09, 0 15.71 C-1.27 14.06, 1.28 9.9, 0 5.24 C2.97 -1.34, 2.59 -3.36, 5.24 0" stroke="none" stroke-width="0" fill="#ffd8a8"></path><path d="M5.24 0 C7.2 -1.36, 11.84 1.12, 22.71 0 M5.24 0 C10.97 0.9, 17.01 -0.42, 22.71 0 M22.71 0 C25.86 0.13, 28.37 3, 27.95 5.24 M22.71 0 C27.13 -0.46, 27.22 2.3, 27.95 5.24 M27.95 5.24 C27.9 8.46, 27.41 12.14, 27.95 15.71 M27.95 5.24 C27.55 8.92, 27.73 11.97, 27.95 15.71 M27.95 15.71 C29.09 17.93, 28.04 22.31, 22.71 20.95 M27.95 15.71 C29.66 18.72, 24.78 20.98, 22.71 20.95 M22.71 20.95 C18.46 19.22, 14.12 22.53, 5.24 20.95 M22.71 20.95 C18.6 21.35, 12.79 20.45, 5.24 20.95 M5.24 20.95 C0.12 21.28, -1.06 19.55, 0 15.71 M5.24 20.95 C-0.55 20.86, -0.32 18.81, 0 15.71 M0 15.71 C0.73 12.56, 0.61 10.71, 0 5.24 M0 15.71 C-0.48 13.08, -0.07 9.65, 0 5.24 M0 5.24 C0.95 0.79, 0.98 0.35, 5.24 0 M0 5.24 C-1.29 3.68, 0.51 -2.07, 5.24 0" stroke="#1e1e1e" stroke-width="2" fill="none"></path></g><g stroke-linecap="round" transform="translate(28.10504480902047 37.022564965653146) rotate(312.47556431009303 25.4296875 23.859375000000004)"><path d="M13.09 2.59 C17.6 0, 25.63 -0.69, 31.12 0.32 C36.62 1.34, 42.67 4.54, 46.07 8.66 C49.46 12.78, 51.78 19.82, 51.5 25.04 C51.23 30.27, 48.13 36.39, 44.4 39.98 C40.68 43.58, 34.39 45.91, 29.15 46.6 C23.91 47.3, 17.59 46.6, 12.96 44.16 C8.33 41.71, 3.31 36.84, 1.36 31.94 C-0.59 27.04, -1.22 19.91, 1.28 14.77 C3.77 9.62, 13.17 3.44, 16.32 1.09 C19.46 -1.27, 20.17 0.06, 20.14 0.66 M25.06 -1.4 C30.24 -1.28, 38.88 2.79, 42.99 6.51 C47.11 10.23, 49 15.9, 49.75 20.91 C50.51 25.92, 50.3 32.53, 47.53 36.56 C44.76 40.59, 38.47 43.56, 33.14 45.08 C27.8 46.59, 20.37 47.08, 15.53 45.64 C10.69 44.2, 6.83 40.92, 4.1 36.45 C1.37 31.98, -1.89 24.05, -0.85 18.82 C0.19 13.59, 5.8 8.01, 10.34 5.07 C14.88 2.12, 23.91 2.11, 26.38 1.16 C28.85 0.22, 25.39 -0.93, 25.16 -0.61" stroke="none" stroke-width="0" fill="#ffd8a8"></path><path d="M32.05 0.47 C37.15 1.4, 44.61 5.71, 47.6 10.05 C50.6 14.4, 50.83 21.31, 50.04 26.55 C49.25 31.79, 46.64 37.9, 42.87 41.49 C39.11 45.08, 32.92 47.9, 27.44 48.09 C21.95 48.28, 14.39 45.64, 9.96 42.62 C5.54 39.61, 2.22 34.96, 0.9 30.02 C-0.41 25.08, -0.34 17.78, 2.09 12.99 C4.52 8.19, 10.13 3.29, 15.47 1.25 C20.81 -0.8, 30.63 0.53, 34.13 0.7 C37.62 0.87, 36.37 1.85, 36.44 2.26 M29.95 -0.7 C35.43 0.02, 42.12 5.08, 45.79 9 C49.46 12.93, 52.18 17.89, 51.96 22.83 C51.74 27.78, 48.11 34.52, 44.46 38.67 C40.81 42.82, 35.23 46.64, 30.07 47.73 C24.91 48.82, 18.44 47.6, 13.48 45.19 C8.52 42.78, 2.12 38.15, 0.32 33.27 C-1.49 28.39, 0.57 20.9, 2.64 15.92 C4.7 10.95, 8.12 5.91, 12.7 3.42 C17.29 0.93, 27.56 1.56, 30.14 0.97 C32.72 0.38, 28.62 -0.42, 28.18 -0.11" stroke="#1e1e1e" stroke-width="2" fill="none"></path></g></svg>