<svg version="1.1" xmlns="http://www.w3.org/2000/svg" viewBox="0 0 116.6053292410711 127.12357954545405" width="116.6053292410711" height="127.12357954545405">
  <!-- svg-source:excalidraw -->
  
  <defs>
    <style class="style-fonts">
      @font-face {
        font-family: "Virgil";
        src: url("https://excalidraw.com/Virgil.woff2");
      }
      @font-face {
        font-family: "Cascadia";
        src: url("https://excalidraw.com/Cascadia.woff2");
      }
      @font-face {
        font-family: "Assistant";
        src: url("https://excalidraw.com/Assistant-Regular.woff2");
      }
    </style>
    
  </defs>
  <g stroke-linecap="round" transform="translate(21.343610491071104 24.85274621212011) rotate(0 42.630859375 38.322265625)"><path d="M19.16 0 C35.76 -3.35, 55.75 -0.53, 66.1 0 C79 1.71, 83.54 5, 85.26 19.16 C82.93 28.08, 87.81 43.68, 85.26 57.48 C86.87 67.26, 76.32 73.27, 66.1 76.64 C51.18 77.22, 34.13 75.38, 19.16 76.64 C2.98 75.32, -0.98 72.73, 0 57.48 C2.35 42.61, 1.25 31, 0 19.16 C-2.29 3.76, 3.86 1.69, 19.16 0" stroke="none" stroke-width="0" fill="#e64980"></path><path d="M19.16 0 C28.55 1.19, 42.27 2, 66.1 0 M19.16 0 C35.39 -0.17, 50.81 0.16, 66.1 0 M66.1 0 C77.54 -0.31, 83.42 7.37, 85.26 19.16 M66.1 0 C77.73 -2.19, 83.36 5.52, 85.26 19.16 M85.26 19.16 C83.95 31.81, 87.23 45.13, 85.26 57.48 M85.26 19.16 C85.41 28.84, 85.6 37.07, 85.26 57.48 M85.26 57.48 C84.62 70.74, 80.37 75.33, 66.1 76.64 M85.26 57.48 C85.08 70.31, 77.33 75.62, 66.1 76.64 M66.1 76.64 C58 75.07, 46.93 75.77, 19.16 76.64 M66.1 76.64 C55.84 77.03, 44.49 76.14, 19.16 76.64 M19.16 76.64 C5.15 76.68, -0.7 70.94, 0 57.48 M19.16 76.64 C6.55 77.14, -2.28 71.15, 0 57.48 M0 57.48 C-0.08 43.93, 1.08 26.46, 0 19.16 M0 57.48 C-0.22 48.28, -0.69 38.69, 0 19.16 M0 19.16 C-0.28 6.05, 5.76 1.32, 19.16 0 M0 19.16 C-0.34 8.14, 5.65 1.5, 19.16 0" stroke="#1e1e1e" stroke-width="2" fill="none"></path></g><g stroke-linecap="round" transform="translate(45.21260315205609 102.14701704545405) rotate(0 19.283203125 7.48828125)"><path d="M3.74 0 C16.16 0.17, 24.62 1.58, 34.82 0 C36.07 -1, 39.02 -0.21, 38.57 3.74 C39.31 6.67, 38.95 8.69, 38.57 11.23 C36.72 11.29, 38.51 15.84, 34.82 14.98 C27.59 14.52, 17.17 14.13, 3.74 14.98 C0.54 16.76, 2.12 11.36, 0 11.23 C0.12 9.86, -0.67 6.29, 0 3.74 C-1.83 2.47, -0.15 0.79, 3.74 0" stroke="none" stroke-width="0" fill="#868e96"></path><path d="M3.74 0 C11.73 0.78, 18.93 -0.56, 34.82 0 M3.74 0 C14.43 0.19, 25.34 -0.09, 34.82 0 M34.82 0 C36.4 0.49, 38.07 0.29, 38.57 3.74 M34.82 0 C36.37 -0.43, 39.24 1.89, 38.57 3.74 M38.57 3.74 C38.87 5.98, 38.3 8.73, 38.57 11.23 M38.57 3.74 C38.65 6, 38.51 8.38, 38.57 11.23 M38.57 11.23 C39.31 13.07, 37.24 15, 34.82 14.98 M38.57 11.23 C37.8 13.22, 36.29 15.4, 34.82 14.98 M34.82 14.98 C27.21 14.54, 18.4 15.44, 3.74 14.98 M34.82 14.98 C27.84 14.98, 19.8 15.09, 3.74 14.98 M3.74 14.98 C0.9 15.32, 0.07 13.94, 0 11.23 M3.74 14.98 C0.11 15.42, 1.04 13.38, 0 11.23 M0 11.23 C0.18 8.46, -0.2 5.79, 0 3.74 M0 11.23 C-0.17 8.85, -0.01 6.45, 0 3.74 M0 3.74 C-0.32 1.91, 1.1 0.76, 3.74 0 M0 3.74 C-0.37 2, 1.94 -0.11, 3.74 0" stroke="#1e1e1e" stroke-width="2" fill="none"></path></g><g stroke-linecap="round" transform="translate(45.39847554788912 10) rotate(0 19.283203125 7.48828125)"><path d="M3.74 0 C10.52 1.26, 15.87 -0.97, 34.82 0 C37.77 -1.46, 40.76 -0.15, 38.57 3.74 C39.08 4.51, 37.95 5.98, 38.57 11.23 C39.76 14.6, 35.88 15.93, 34.82 14.98 C22.14 13.93, 13.67 16.67, 3.74 14.98 C3.37 12.61, -0.45 14.97, 0 11.23 C-0.64 8.33, -0.7 7.3, 0 3.74 C-1.39 2.04, 0.69 1.16, 3.74 0" stroke="none" stroke-width="0" fill="#868e96"></path><path d="M3.74 0 C14.89 -0.63, 25.71 0, 34.82 0 M3.74 0 C12.96 -0.14, 22.38 0.18, 34.82 0 M34.82 0 C36.82 -0.95, 37.74 0.87, 38.57 3.74 M34.82 0 C38 0.65, 38.99 0.37, 38.57 3.74 M38.57 3.74 C38.36 5.51, 38.62 7.48, 38.57 11.23 M38.57 3.74 C38.52 6.5, 38.72 9.05, 38.57 11.23 M38.57 11.23 C38.49 13.75, 36.65 14.53, 34.82 14.98 M38.57 11.23 C37.54 14.16, 36.79 15.99, 34.82 14.98 M34.82 14.98 C26.99 15.49, 19.76 15.84, 3.74 14.98 M34.82 14.98 C23.07 14.95, 11.77 15.11, 3.74 14.98 M3.74 14.98 C1.32 15.19, -0.99 14.12, 0 11.23 M3.74 14.98 C2.28 14.63, 0.49 13.62, 0 11.23 M0 11.23 C-0.22 8.16, 0.05 5.5, 0 3.74 M0 11.23 C0.01 8.82, -0.02 6.6, 0 3.74 M0 3.74 C-0.15 2.01, 0.93 0.65, 3.74 0 M0 3.74 C0.69 1.13, 1.64 -0.09, 3.74 0" stroke="#343a40" stroke-width="2" fill="none"></path></g><g stroke-linecap="round" transform="translate(10 53.475852272726115) rotate(0 13.974609375 10.47265625)"><path d="M5.24 0 C8.86 -1.36, 16.04 -1.91, 22.71 0 C29.24 -1.94, 24.71 4.68, 27.95 5.24 C26.69 6.67, 28.9 12.26, 27.95 15.71 C25.95 20.52, 27.24 21.45, 22.71 20.95 C17 22.99, 15.57 17.96, 5.24 20.95 C1.13 22.67, -0.25 19.82, 0 15.71 C-1.2 12.65, -0.89 8.39, 0 5.24 C-0.77 3.35, 4.63 -3.27, 5.24 0" stroke="none" stroke-width="0" fill="#ffd8a8"></path><path d="M5.24 0 C12.9 0.31, 18.84 -0.9, 22.71 0 M5.24 0 C10.39 0.46, 16.71 -0.81, 22.71 0 M22.71 0 C24.55 -0.75, 29.13 2.87, 27.95 5.24 M22.71 0 C27.06 -1.76, 26.67 3.76, 27.95 5.24 M27.95 5.24 C27.95 7.79, 28.54 10.33, 27.95 15.71 M27.95 5.24 C28.31 7.82, 27.87 11.11, 27.95 15.71 M27.95 15.71 C26.61 18.31, 24.41 21.69, 22.71 20.95 M27.95 15.71 C26.9 21.24, 24.64 21.61, 22.71 20.95 M22.71 20.95 C16.94 22.65, 14.56 22.34, 5.24 20.95 M22.71 20.95 C17.53 21.25, 13.02 21.14, 5.24 20.95 M5.24 20.95 C-0.24 21.72, 1.8 18.6, 0 15.71 M5.24 20.95 C2.73 20.73, 1.6 20.31, 0 15.71 M0 15.71 C0.23 12.6, 0.24 9.56, 0 5.24 M0 15.71 C-0.15 12.95, -0.06 9.9, 0 5.24 M0 5.24 C-0.64 3.05, 2.94 -0.2, 5.24 0 M0 5.24 C0.79 1.56, -0.21 1.79, 5.24 0" stroke="#1e1e1e" stroke-width="2" fill="none"></path></g><g stroke-linecap="round" transform="translate(36.888671875 39.436789772726115) rotate(0 25.4296875 23.859375)"><path d="M31.31 -0.02 C36.36 0.47, 41.71 4.4, 44.99 8.44 C48.27 12.49, 51.1 19.2, 51.01 24.27 C50.91 29.35, 48.12 35.06, 44.42 38.91 C40.72 42.76, 34.27 46.56, 28.82 47.36 C23.36 48.16, 16.18 46.45, 11.68 43.72 C7.19 40.99, 3.38 35.85, 1.87 30.98 C0.37 26.11, 0.59 19.11, 2.66 14.5 C4.72 9.89, 8.99 5.45, 14.25 3.34 C19.5 1.23, 30.35 1.98, 34.18 1.83 C38.01 1.69, 37.22 2.15, 37.22 2.45 M25.29 0.26 C30.22 0.37, 37.19 4.03, 41.27 7.11 C45.34 10.2, 48.54 13.92, 49.74 18.77 C50.93 23.62, 51.01 31.83, 48.45 36.23 C45.89 40.63, 39.92 43.75, 34.38 45.17 C28.85 46.59, 20.34 46.27, 15.25 44.73 C10.17 43.19, 6.48 40.08, 3.88 35.93 C1.28 31.79, -1.36 24.93, -0.37 19.86 C0.63 14.79, 5.54 9.08, 9.86 5.53 C14.17 1.98, 22.96 -0.5, 25.54 -1.41 C28.11 -2.32, 25.09 -0.77, 25.31 0.07" stroke="none" stroke-width="0" fill="#ffd8a8"></path><path d="M18.22 0.02 C23.12 -1.6, 31.37 -0.54, 36.22 1.55 C41.07 3.63, 45.06 7.76, 47.31 12.53 C49.56 17.3, 50.79 25.01, 49.74 30.18 C48.68 35.34, 45.44 40.68, 40.98 43.51 C36.51 46.33, 28.33 47.65, 22.94 47.11 C17.56 46.57, 12.58 43.76, 8.68 40.28 C4.77 36.8, 0.22 31.15, -0.49 26.23 C-1.21 21.31, 0.49 15.04, 4.38 10.77 C8.27 6.49, 19.25 2.36, 22.84 0.6 C26.43 -1.17, 25.93 -0.28, 25.92 0.17 M16.21 0.61 C20.8 -1.16, 28.13 -0.01, 33.26 2.17 C38.4 4.34, 44.33 9.22, 47.02 13.68 C49.7 18.13, 50.38 24.27, 49.36 28.91 C48.34 33.55, 44.82 38.54, 40.89 41.51 C36.96 44.49, 30.91 46.54, 25.77 46.76 C20.63 46.99, 14.13 46.1, 10.07 42.84 C6.01 39.59, 2.64 32.43, 1.42 27.21 C0.2 22, 0.19 15.78, 2.74 11.54 C5.28 7.3, 14.24 3.37, 16.69 1.79 C19.15 0.21, 17.51 1.67, 17.48 2.06" stroke="#1e1e1e" stroke-width="2" fill="none"></path></g></svg>