<svg version="1.1" xmlns="http://www.w3.org/2000/svg" viewBox="0 0 105.26171875 127.84067844958544" width="105.26171875" height="127.84067844958544">
  <!-- svg-source:excalidraw -->
  
  <defs>
    <style class="style-fonts">
      @font-face {
        font-family: "Virgil";
        src: url("https://excalidraw.com/Virgil.woff2");
      }
      @font-face {
        font-family: "Cascadia";
        src: url("https://excalidraw.com/Cascadia.woff2");
      }
      @font-face {
        font-family: "Assistant";
        src: url("https://excalidraw.com/Assistant-Regular.woff2");
      }
    </style>
    
  </defs>
  <g stroke-linecap="round" transform="translate(10 24.85274621212102) rotate(0 42.630859375 38.322265625)"><path d="M19.16 0 C31.11 -2.39, 41.97 0.65, 66.1 0 C79.38 -0.8, 81.86 5.06, 85.26 19.16 C82.46 28.99, 87.46 39.82, 85.26 57.48 C85.88 73.02, 76.58 74.02, 66.1 76.64 C56.41 75.42, 46.13 79.08, 19.16 76.64 C3.12 76.15, -0.71 67.77, 0 57.48 C2.51 41.8, 0.39 28.91, 0 19.16 C-3.27 4.58, 4.65 -3.04, 19.16 0" stroke="none" stroke-width="0" fill="#e64980"></path><path d="M19.16 0 C30.48 0.47, 38.03 -1.39, 66.1 0 M19.16 0 C37.18 0.36, 55.75 0.92, 66.1 0 M66.1 0 C79.68 -0.4, 84.62 6.87, 85.26 19.16 M66.1 0 C80.59 -1.51, 85.08 6.44, 85.26 19.16 M85.26 19.16 C85.83 27.18, 86.86 35.67, 85.26 57.48 M85.26 19.16 C85.7 31.13, 86.05 45.05, 85.26 57.48 M85.26 57.48 C86.75 69.84, 77.63 76.68, 66.1 76.64 M85.26 57.48 C84.46 71.04, 79.03 77.14, 66.1 76.64 M66.1 76.64 C56.08 77.92, 47.06 78.46, 19.16 76.64 M66.1 76.64 C48.94 76.55, 32.89 76.56, 19.16 76.64 M19.16 76.64 C4.39 76.57, -0.28 69.92, 0 57.48 M19.16 76.64 C5.66 78.17, -0.34 72.01, 0 57.48 M0 57.48 C-0.45 47.9, -0.41 35.24, 0 19.16 M0 57.48 C0.5 42.52, -0.36 28.69, 0 19.16 M0 19.16 C-1.12 8.07, 5.31 -1.8, 19.16 0 M0 19.16 C1.88 6.51, 7.42 -1.91, 19.16 0" stroke="#1e1e1e" stroke-width="2" fill="none"></path></g><g stroke-linecap="round" transform="translate(33.86899266098408 102.14701704545496) rotate(0 19.283203125 7.48828125)"><path d="M3.74 0 C15.45 0.98, 25.62 -0.35, 34.82 0 C34.86 -0.96, 37.86 3.03, 38.57 3.74 C38.94 6.53, 38.65 10.21, 38.57 11.23 C36.91 11.83, 35.49 16.2, 34.82 14.98 C28.32 16.98, 17.15 14.53, 3.74 14.98 C0.73 13.18, 0.75 15.46, 0 11.23 C0.15 8.64, -0.97 7.38, 0 3.74 C-1.26 -0.95, 0.62 -0.55, 3.74 0" stroke="none" stroke-width="0" fill="#868e96"></path><path d="M3.74 0 C14.14 -0.61, 26.93 -0.83, 34.82 0 M3.74 0 C11.19 0.3, 18.63 -0.11, 34.82 0 M34.82 0 C37 0.24, 39.31 0.59, 38.57 3.74 M34.82 0 C37.23 0.03, 37.8 0.74, 38.57 3.74 M38.57 3.74 C38.91 5.07, 38.69 6.77, 38.57 11.23 M38.57 3.74 C38.76 5.65, 38.73 7.27, 38.57 11.23 M38.57 11.23 C37.95 13.75, 36.97 15.32, 34.82 14.98 M38.57 11.23 C38.65 13.98, 36.18 15.42, 34.82 14.98 M34.82 14.98 C22.6 15.74, 11.05 14.48, 3.74 14.98 M34.82 14.98 C26.95 15.09, 19.11 14.98, 3.74 14.98 M3.74 14.98 C1.11 14.81, -0.32 14.39, 0 11.23 M3.74 14.98 C1.08 15.85, -0.37 14.48, 0 11.23 M0 11.23 C-0.03 8.22, 0.3 5.82, 0 3.74 M0 11.23 C-0.09 8.99, -0.12 6.85, 0 3.74 M0 3.74 C-0.54 0.35, 2.06 0.05, 3.74 0 M0 3.74 C0.51 0.29, 0.43 -1.08, 3.74 0" stroke="#1e1e1e" stroke-width="2" fill="none"></path></g><g stroke-linecap="round" transform="translate(34.05486505681802 10) rotate(0 19.283203125 7.48828125)"><path d="M3.74 0 C11.71 -0.69, 16.49 -1.08, 34.82 0 C36.61 1.78, 40.69 -1.12, 38.57 3.74 C38.78 6.61, 37.99 7.27, 38.57 11.23 C36.74 14.95, 35.92 15.77, 34.82 14.98 C23.81 14.94, 17 13.51, 3.74 14.98 C2 16.71, -1.96 15.87, 0 11.23 C-0.91 9.14, -0.49 7.2, 0 3.74 C-0.63 0.7, 2.19 2.59, 3.74 0" stroke="none" stroke-width="0" fill="#868e96"></path><path d="M3.74 0 C15.1 -0.68, 24.06 -0.09, 34.82 0 M3.74 0 C13.47 -0.2, 22.63 0.02, 34.82 0 M34.82 0 C38.06 -0.66, 38.49 1.27, 38.57 3.74 M34.82 0 C36.55 -0.51, 37.54 1.68, 38.57 3.74 M38.57 3.74 C38.71 5.53, 38.37 7.76, 38.57 11.23 M38.57 3.74 C38.74 5.48, 38.48 7.29, 38.57 11.23 M38.57 11.23 C38.22 14.07, 37.39 15.19, 34.82 14.98 M38.57 11.23 C37.43 14.18, 38.35 14.63, 34.82 14.98 M34.82 14.98 C24.65 14.52, 12.96 14.27, 3.74 14.98 M34.82 14.98 C24.47 14.99, 15.05 14.92, 3.74 14.98 M3.74 14.98 C0.93 15.64, -0.15 14.49, 0 11.23 M3.74 14.98 C0.88 15.73, 0.69 13.61, 0 11.23 M0 11.23 C0.29 8.7, 0.02 6.4, 0 3.74 M0 11.23 C-0.09 9.5, -0.09 7.29, 0 3.74 M0 3.74 C0.82 1.3, 1.7 -0.83, 3.74 0 M0 3.74 C-0.82 0.17, 1.78 0.38, 3.74 0" stroke="#343a40" stroke-width="2" fill="none"></path></g><g stroke-linecap="round" transform="translate(39.59834102597142 93.26932525150005) rotate(90.684351531919 13.974609375 10.47265625)"><path d="M5.24 0 C8.01 -1.09, 15.88 2.23, 22.71 0 C29.14 -3.28, 27.33 3.47, 27.95 5.24 C26.78 6.93, 26.66 12.26, 27.95 15.71 C26.02 20.3, 25.43 22.55, 22.71 20.95 C15.45 18.73, 10.33 23, 5.24 20.95 C-0.98 23.92, -3.08 20.05, 0 15.71 C-0.74 11.95, -0.29 10.98, 0 5.24 C1.31 5.34, 3.11 -3.44, 5.24 0" stroke="none" stroke-width="0" fill="#ffd8a8"></path><path d="M5.24 0 C8.4 -0.17, 13.89 0.5, 22.71 0 M5.24 0 C11.29 0.25, 18.56 -0.54, 22.71 0 M22.71 0 C26.04 0.04, 26.61 0.85, 27.95 5.24 M22.71 0 C24.14 0.86, 26.9 3.78, 27.95 5.24 M27.95 5.24 C27.33 8.26, 27.32 11.06, 27.95 15.71 M27.95 5.24 C27.7 9.1, 27.85 13.12, 27.95 15.71 M27.95 15.71 C28.09 19.63, 24.22 21.72, 22.71 20.95 M27.95 15.71 C30.02 18.51, 27.19 20.73, 22.71 20.95 M22.71 20.95 C15.29 19.43, 10.08 19.92, 5.24 20.95 M22.71 20.95 C17.04 20.79, 11.34 21.52, 5.24 20.95 M5.24 20.95 C1.45 22.47, -0.64 20.5, 0 15.71 M5.24 20.95 C3.12 20.72, 0.79 19.01, 0 15.71 M0 15.71 C-0.05 13.95, -0.58 10.8, 0 5.24 M0 15.71 C-0.22 11.91, 0.49 9.09, 0 5.24 M0 5.24 C0.89 0.08, 0.32 -1.87, 5.24 0 M0 5.24 C1.06 2.51, 0.47 0.84, 5.24 0" stroke="#1e1e1e" stroke-width="2" fill="none"></path></g><g stroke-linecap="round" transform="translate(27.948939732143117 41.53380006718271) rotate(90.684351531919 25.4296875 23.859375)"><path d="M32.84 0.21 C38.03 1.28, 44.6 6.33, 47.57 10.85 C50.55 15.36, 51.58 22.28, 50.7 27.3 C49.81 32.32, 46.22 37.66, 42.25 40.97 C38.27 44.27, 32.09 46.9, 26.87 47.13 C21.65 47.36, 15.44 45.2, 10.92 42.34 C6.39 39.48, 1.08 34.8, -0.26 29.98 C-1.61 25.16, 0.36 18.22, 2.86 13.42 C5.35 8.62, 9.16 2.87, 14.72 1.16 C20.28 -0.55, 31.84 2.54, 36.23 3.15 C40.61 3.76, 41.02 4.51, 41.04 4.83 M26.66 -0.35 C32.08 0.13, 40.35 4.35, 44.13 7.93 C47.92 11.51, 48.84 16.26, 49.35 21.12 C49.87 25.98, 50 32.64, 47.22 37.11 C44.44 41.58, 38.2 46.71, 32.69 47.95 C27.17 49.19, 19.32 46.71, 14.12 44.56 C8.93 42.4, 3.88 39.35, 1.51 35.01 C-0.85 30.67, -1.49 23.5, -0.05 18.53 C1.4 13.57, 5.43 8.52, 10.17 5.22 C14.91 1.91, 25.62 -0.47, 28.42 -1.3 C31.22 -2.13, 27.38 -0.46, 26.97 0.24" stroke="none" stroke-width="0" fill="#ffd8a8"></path><path d="M27.89 -0.19 C33.01 0.08, 40.26 4.32, 43.97 8.04 C47.68 11.75, 49.8 17.26, 50.14 22.12 C50.48 26.99, 49.19 33.22, 46.02 37.22 C42.85 41.22, 36.36 44.84, 31.13 46.12 C25.9 47.39, 19.32 47.05, 14.65 44.84 C9.97 42.64, 5.31 37.53, 3.08 32.88 C0.85 28.23, 0.02 21.65, 1.28 16.95 C2.53 12.24, 5.66 7.2, 10.6 4.64 C15.53 2.09, 26.76 1.91, 30.88 1.61 C35 1.32, 35.35 2.75, 35.32 2.88 M25.74 0.33 C30.76 0.07, 36.1 3.1, 40.45 6.29 C44.8 9.48, 50.6 14.54, 51.86 19.46 C53.12 24.38, 50.8 31.22, 47.99 35.82 C45.17 40.42, 40.36 45.47, 34.98 47.07 C29.59 48.66, 21.17 47.25, 15.69 45.38 C10.21 43.52, 4.76 40.14, 2.08 35.87 C-0.6 31.6, -1.31 24.86, -0.37 19.78 C0.57 14.7, 3.45 8.74, 7.75 5.4 C12.05 2.06, 22.53 0.4, 25.43 -0.25 C28.33 -0.91, 25.17 0.84, 25.16 1.47" stroke="#1e1e1e" stroke-width="2" fill="none"></path></g></svg>