<svg version="1.1" xmlns="http://www.w3.org/2000/svg" viewBox="0 0 106.88189535019183 127.12357954545405" width="106.88189535019183" height="127.12357954545405">
  <!-- svg-source:excalidraw -->
  
  <defs>
    <style class="style-fonts">
      @font-face {
        font-family: "Virgil";
        src: url("https://excalidraw.com/Virgil.woff2");
      }
      @font-face {
        font-family: "Cascadia";
        src: url("https://excalidraw.com/Cascadia.woff2");
      }
      @font-face {
        font-family: "Assistant";
        src: url("https://excalidraw.com/Assistant-Regular.woff2");
      }
    </style>
    
  </defs>
  <g stroke-linecap="round" transform="translate(10 24.85274621212102) rotate(0 42.630859375 38.322265625)"><path d="M19.16 0 C31.56 0.54, 42.28 -3.28, 66.1 0 C80.27 3.24, 84.18 7.93, 85.26 19.16 C83.72 28.3, 82.81 42.03, 85.26 57.48 C83.36 70.88, 75.28 76.52, 66.1 76.64 C55.06 75.85, 41.98 75.23, 19.16 76.64 C8.74 78.8, -0.36 71.5, 0 57.48 C0.35 46.43, 2.3 33.4, 0 19.16 C-1.38 7.01, 4.37 3.03, 19.16 0" stroke="none" stroke-width="0" fill="#e64980"></path><path d="M19.16 0 C28.32 0.56, 39.51 -1.09, 66.1 0 M19.16 0 C31.63 -1.19, 44.26 -0.63, 66.1 0 M66.1 0 C79.64 -1.62, 86.11 7.2, 85.26 19.16 M66.1 0 C80.98 0.64, 85.14 4.19, 85.26 19.16 M85.26 19.16 C84.13 31.73, 86.84 48.69, 85.26 57.48 M85.26 19.16 C84.38 31.13, 85.46 45.26, 85.26 57.48 M85.26 57.48 C86.97 71.12, 77.89 77.7, 66.1 76.64 M85.26 57.48 C85.56 70.43, 77.58 77.58, 66.1 76.64 M66.1 76.64 C56.14 75.22, 42.3 74.56, 19.16 76.64 M66.1 76.64 C54.16 76.14, 40.92 77.78, 19.16 76.64 M19.16 76.64 C4.85 75.37, -0.34 70.38, 0 57.48 M19.16 76.64 C6.87 78.08, 0.93 69.79, 0 57.48 M0 57.48 C-1.41 47.04, -0.05 35.59, 0 19.16 M0 57.48 C-0.11 48.58, -0.33 38.2, 0 19.16 M0 19.16 C-0.66 5.15, 7.52 -1.27, 19.16 0 M0 19.16 C2.11 7.95, 8.1 -0.48, 19.16 0" stroke="#1e1e1e" stroke-width="2" fill="none"></path></g><g stroke-linecap="round" transform="translate(33.86899266098453 102.14701704545405) rotate(0 19.283203125 7.48828125)"><path d="M3.74 0 C12.55 -2.61, 21.24 2.32, 34.82 0 C36.54 1.11, 38.32 3.06, 38.57 3.74 C37.72 6.52, 38 9.13, 38.57 11.23 C35.97 13.64, 36.96 14.54, 34.82 14.98 C28.46 14.09, 19.83 16.47, 3.74 14.98 C0.99 15.87, -0.21 11.52, 0 11.23 C0.47 7.94, -0.37 5.74, 0 3.74 C-1.46 3.44, -0.15 -2.34, 3.74 0" stroke="none" stroke-width="0" fill="#868e96"></path><path d="M3.74 0 C13.51 -0.59, 21.99 0.79, 34.82 0 M3.74 0 C14.36 -0.05, 25.54 -0.26, 34.82 0 M34.82 0 C37.74 0.41, 39.48 1.53, 38.57 3.74 M34.82 0 C37.26 -1.1, 39.41 2.39, 38.57 3.74 M38.57 3.74 C38.76 6.01, 38.66 7.67, 38.57 11.23 M38.57 3.74 C38.63 6.84, 38.7 9.79, 38.57 11.23 M38.57 11.23 C38.07 14.26, 37.45 15.05, 34.82 14.98 M38.57 11.23 C37.92 14.2, 36.55 14.8, 34.82 14.98 M34.82 14.98 C27.41 14.07, 21.53 15.49, 3.74 14.98 M34.82 14.98 C23.48 15.3, 12.3 14.54, 3.74 14.98 M3.74 14.98 C1.08 15.04, 0.21 14.35, 0 11.23 M3.74 14.98 C1.71 14.74, -0.37 14.01, 0 11.23 M0 11.23 C0.03 8.18, -0.14 5.29, 0 3.74 M0 11.23 C-0.11 8.76, -0.04 6.07, 0 3.74 M0 3.74 C0.57 0.61, 2.17 0.68, 3.74 0 M0 3.74 C0.85 1.01, 0.53 0.02, 3.74 0" stroke="#1e1e1e" stroke-width="2" fill="none"></path></g><g stroke-linecap="round" transform="translate(34.05486505681802 10) rotate(0 19.283203125 7.48828125)"><path d="M3.74 0 C14.29 2.74, 22.04 1.51, 34.82 0 C37.07 1.81, 39.82 -0.21, 38.57 3.74 C37.97 5.75, 37.52 7.38, 38.57 11.23 C38.2 13.29, 36.5 16.7, 34.82 14.98 C27.65 16.4, 16.83 15.74, 3.74 14.98 C1.03 12.77, 2.03 13.56, 0 11.23 C-0.42 9.13, -0.59 7.51, 0 3.74 C-1.4 -1.09, 3.37 0.14, 3.74 0" stroke="none" stroke-width="0" fill="#868e96"></path><path d="M3.74 0 C13.64 0.92, 24.57 -0.19, 34.82 0 M3.74 0 C10.24 -0.34, 16.58 0.27, 34.82 0 M34.82 0 C38.23 0.28, 38.51 0.29, 38.57 3.74 M34.82 0 C38.16 1.14, 38.32 0.38, 38.57 3.74 M38.57 3.74 C38.71 5.09, 38.96 6.71, 38.57 11.23 M38.57 3.74 C38.74 5.49, 38.49 7.16, 38.57 11.23 M38.57 11.23 C38.7 13.8, 36.76 15.38, 34.82 14.98 M38.57 11.23 C37.8 13.55, 36.26 15.54, 34.82 14.98 M34.82 14.98 C26.67 15.44, 19.83 15.22, 3.74 14.98 M34.82 14.98 C27.49 14.79, 20.83 15.14, 3.74 14.98 M3.74 14.98 C1.46 15.6, 0.4 13.53, 0 11.23 M3.74 14.98 C0.88 15.25, 0.86 12.97, 0 11.23 M0 11.23 C-0.17 8.71, 0.14 6.69, 0 3.74 M0 11.23 C-0.04 8.21, 0.13 5.3, 0 3.74 M0 3.74 C0.92 1.93, 1.99 -0.21, 3.74 0 M0 3.74 C-0.71 1.27, 0.85 0.39, 3.74 0" stroke="#343a40" stroke-width="2" fill="none"></path></g><g stroke-linecap="round" transform="translate(65.74630283943043 23.860949680865815) rotate(312.47556431009303 13.974609375 10.47265625)"><path d="M5.24 0 C7.8 1.06, 11.95 1.91, 22.71 0 C27.94 -2.02, 25.96 -1.18, 27.95 5.24 C25.97 8.49, 27.59 11.55, 27.95 15.71 C26.81 21.58, 25.68 23.68, 22.71 20.95 C17.71 22.22, 13.08 18.46, 5.24 20.95 C4.55 20.71, 0.12 20.91, 0 15.71 C-0.99 14.66, -0.94 8.73, 0 5.24 C2.94 1.94, 3.36 -2.99, 5.24 0" stroke="none" stroke-width="0" fill="#ffd8a8"></path><path d="M5.24 0 C10.36 -0.63, 12.12 -0.81, 22.71 0 M5.24 0 C10.15 0.5, 15.12 0.39, 22.71 0 M22.71 0 C26.1 -1.91, 29.41 3.72, 27.95 5.24 M22.71 0 C25.72 -1.74, 25.96 3.12, 27.95 5.24 M27.95 5.24 C29.01 8.2, 27.16 12.95, 27.95 15.71 M27.95 5.24 C27.78 9.29, 28.11 12.82, 27.95 15.71 M27.95 15.71 C26.82 20.01, 24.87 20.64, 22.71 20.95 M27.95 15.71 C25.83 20.33, 25.06 18.75, 22.71 20.95 M22.71 20.95 C19.9 21.7, 13.78 20.08, 5.24 20.95 M22.71 20.95 C15.79 20.89, 9.35 21.38, 5.24 20.95 M5.24 20.95 C2.55 20.54, -0.64 19.68, 0 15.71 M5.24 20.95 C3.46 19.43, -0.19 19.25, 0 15.71 M0 15.71 C0.44 12.79, 0.97 10.12, 0 5.24 M0 15.71 C0.33 11.93, 0.51 9.18, 0 5.24 M0 5.24 C1.49 1.33, 0.5 0.03, 5.24 0 M0 5.24 C-0.8 2.53, 1.9 0.5, 5.24 0" stroke="#1e1e1e" stroke-width="2" fill="none"></path></g><g stroke-linecap="round" transform="translate(27.917475541171825 38.54130475837155) rotate(312.47556431009303 25.4296875 23.859375)"><path d="M34.72 0.97 C39.69 2.32, 44.63 7.01, 47.3 11.53 C49.97 16.05, 51.58 23.05, 50.73 28.1 C49.88 33.15, 46.46 38.6, 42.19 41.82 C37.92 45.03, 30.81 47.3, 25.11 47.38 C19.42 47.47, 12.25 45.51, 8.01 42.34 C3.76 39.16, 0.26 33.38, -0.34 28.36 C-0.95 23.33, 1.49 16.81, 4.4 12.19 C7.3 7.56, 11.49 2.2, 17.09 0.63 C22.7 -0.94, 34.02 1.96, 38.02 2.77 C42.01 3.58, 41.25 5.24, 41.07 5.48 M30.98 0.31 C36.08 1.14, 43.11 5.75, 46.28 9.61 C49.45 13.48, 50.5 18.47, 50.01 23.51 C49.53 28.54, 46.94 35.78, 43.36 39.81 C39.78 43.84, 33.98 46.96, 28.55 47.69 C23.12 48.43, 15.35 46.96, 10.78 44.23 C6.22 41.5, 2.75 35.98, 1.16 31.32 C-0.43 26.66, -0.73 20.78, 1.24 16.25 C3.2 11.71, 8.16 6.57, 12.94 4.1 C17.71 1.63, 26.83 1.98, 29.86 1.43 C32.9 0.87, 31.06 0.56, 31.14 0.77" stroke="none" stroke-width="0" fill="#ffd8a8"></path><path d="M19.8 0.86 C24.96 -0.27, 33.26 1.52, 38.2 3.93 C43.14 6.33, 47.74 10.55, 49.46 15.29 C51.18 20.04, 50.17 27.59, 48.51 32.39 C46.84 37.2, 44.12 41.76, 39.48 44.12 C34.84 46.48, 26.1 47.25, 20.66 46.55 C15.21 45.86, 10.2 43.78, 6.81 39.95 C3.42 36.12, 0.35 28.87, 0.33 23.57 C0.31 18.28, 3.26 12, 6.67 8.19 C10.08 4.38, 18.03 1.84, 20.78 0.73 C23.53 -0.39, 22.9 1.25, 23.17 1.49 M31.22 1.44 C36.1 2.35, 42.26 5.77, 45.29 9.98 C48.31 14.2, 49.82 21.83, 49.38 26.72 C48.93 31.62, 46.47 35.94, 42.63 39.33 C38.79 42.72, 31.51 46.25, 26.35 47.07 C21.2 47.88, 15.84 47.26, 11.69 44.22 C7.53 41.18, 3.1 33.71, 1.41 28.84 C-0.28 23.98, -0.46 19.64, 1.57 15.04 C3.6 10.45, 8.53 3.61, 13.57 1.26 C18.61 -1.09, 28.69 0.76, 31.8 0.92 C34.91 1.08, 32.21 1.91, 32.24 2.22" stroke="#1e1e1e" stroke-width="2" fill="none"></path></g></svg>