<svg version="1.1" xmlns="http://www.w3.org/2000/svg" viewBox="0 0 117.88881138392833 127.12357954545405" width="117.88881138392833" height="127.12357954545405">
  <!-- svg-source:excalidraw -->
  
  <defs>
    <style class="style-fonts">
      @font-face {
        font-family: "Virgil";
        src: url("https://excalidraw.com/Virgil.woff2");
      }
      @font-face {
        font-family: "Cascadia";
        src: url("https://excalidraw.com/Cascadia.woff2");
      }
      @font-face {
        font-family: "Assistant";
        src: url("https://excalidraw.com/Assistant-Regular.woff2");
      }
    </style>
    
  </defs>
  <g stroke-linecap="round" transform="translate(10 24.85274621212011) rotate(0 42.63085937499994 38.322265625)"><path d="M19.16 0 C27.83 2.32, 38.68 3.58, 66.1 0 C81.32 2.68, 84.51 4.15, 85.26 19.16 C85.27 31.5, 81.45 43.68, 85.26 57.48 C88.51 69.18, 80.42 76.3, 66.1 76.64 C46.76 73.24, 32 74.26, 19.16 76.64 C7.01 73.05, -0.13 69.76, 0 57.48 C-0.31 49.37, -0.93 38.14, 0 19.16 C2.15 6.03, 7.63 -0.3, 19.16 0" stroke="none" stroke-width="0" fill="#e64980"></path><path d="M19.16 0 C28.64 1.39, 40.24 -1.41, 66.1 0 M19.16 0 C31.15 0.61, 45 -0.36, 66.1 0 M66.1 0 C79.42 0.99, 84.17 5.82, 85.26 19.16 M66.1 0 C80.79 1.1, 84.63 4.16, 85.26 19.16 M85.26 19.16 C83.48 30.05, 85.92 41.07, 85.26 57.48 M85.26 19.16 C85.97 32.71, 85.03 43.53, 85.26 57.48 M85.26 57.48 C83.53 71.45, 79.79 77.3, 66.1 76.64 M85.26 57.48 C83.73 72.51, 77.44 74.85, 66.1 76.64 M66.1 76.64 C50.77 76.06, 34.78 77.3, 19.16 76.64 M66.1 76.64 C51.01 76.68, 36.33 77.33, 19.16 76.64 M19.16 76.64 C5.39 74.74, -1.65 69.5, 0 57.48 M19.16 76.64 C7.74 77.93, 0.85 68.5, 0 57.48 M0 57.48 C-1.61 47.77, -0.21 39.17, 0 19.16 M0 57.48 C-0.47 43.83, 0.59 29.04, 0 19.16 M0 19.16 C-0.16 6.43, 5.05 -0.89, 19.16 0 M0 19.16 C-2.06 7.24, 5.33 2.04, 19.16 0" stroke="#1e1e1e" stroke-width="2" fill="none"></path></g><g stroke-linecap="round" transform="translate(33.86899266098453 102.14701704545405) rotate(0 19.283203124999943 7.48828125)"><path d="M3.74 0 C10.4 2.15, 22.12 1.7, 34.82 0 C36.77 -1.61, 38.61 0.34, 38.57 3.74 C37.61 6.62, 39.45 8.45, 38.57 11.23 C39.68 13.48, 39.13 16.23, 34.82 14.98 C27.68 13.27, 20.12 12.05, 3.74 14.98 C1.15 14.62, -0.44 12.91, 0 11.23 C-0.3 9.13, 0.6 5.65, 0 3.74 C0.9 1.03, -0.96 2.03, 3.74 0" stroke="none" stroke-width="0" fill="#868e96"></path><path d="M3.74 0 C12.82 -0.88, 20.06 -0.47, 34.82 0 M3.74 0 C13.7 -0.24, 23.8 0.14, 34.82 0 M34.82 0 C36.77 -0.29, 39.4 1.72, 38.57 3.74 M34.82 0 C37 -1.12, 38.13 0.79, 38.57 3.74 M38.57 3.74 C38.69 6.62, 38.64 8.79, 38.57 11.23 M38.57 3.74 C38.55 5.13, 38.43 6.92, 38.57 11.23 M38.57 11.23 C39.03 14.05, 36.65 15.96, 34.82 14.98 M38.57 11.23 C37.85 12.83, 37.83 15.67, 34.82 14.98 M34.82 14.98 C23.37 15.03, 10.94 14.34, 3.74 14.98 M34.82 14.98 C23.77 15.2, 13.39 14.48, 3.74 14.98 M3.74 14.98 C0.42 14.6, 0.59 14.29, 0 11.23 M3.74 14.98 C1.68 14.1, -0.64 14.73, 0 11.23 M0 11.23 C0.05 9.64, 0.26 8.04, 0 3.74 M0 11.23 C0.15 9.01, 0 7.05, 0 3.74 M0 3.74 C-0.67 0.8, 0.35 0.37, 3.74 0 M0 3.74 C-0.53 2.27, 0.47 0.33, 3.74 0" stroke="#1e1e1e" stroke-width="2" fill="none"></path></g><g stroke-linecap="round" transform="translate(34.05486505681802 10) rotate(0 19.283203124999943 7.48828125)"><path d="M3.74 0 C16.6 1.56, 25.38 -1.98, 34.82 0 C37.36 -0.9, 39.45 1.43, 38.57 3.74 C39.35 5.86, 38.89 8.47, 38.57 11.23 C40.38 14.98, 35.86 13.54, 34.82 14.98 C28.48 12.17, 21.14 14.4, 3.74 14.98 C0.81 14.16, 1.72 13.35, 0 11.23 C0.61 8.32, 0.37 5.52, 0 3.74 C-2.21 3.27, 1.08 0.09, 3.74 0" stroke="none" stroke-width="0" fill="#868e96"></path><path d="M3.74 0 C14.73 -0.25, 26.41 -0.82, 34.82 0 M3.74 0 C15.41 0.29, 26.53 -0.1, 34.82 0 M34.82 0 C38.15 0.48, 38.29 0.28, 38.57 3.74 M34.82 0 C36.88 -0.46, 39 0.31, 38.57 3.74 M38.57 3.74 C38.69 6.29, 38.22 9.15, 38.57 11.23 M38.57 3.74 C38.4 6.84, 38.64 9.78, 38.57 11.23 M38.57 11.23 C37.9 14.71, 36.69 14.19, 34.82 14.98 M38.57 11.23 C39.08 14.42, 38.3 15.47, 34.82 14.98 M34.82 14.98 C27.1 14.43, 19.65 14.33, 3.74 14.98 M34.82 14.98 C25.73 14.58, 16.72 14.86, 3.74 14.98 M3.74 14.98 C1.84 15.54, 0.37 12.97, 0 11.23 M3.74 14.98 C0.61 15.98, -0.89 13, 0 11.23 M0 11.23 C0.23 9.27, -0.08 6.88, 0 3.74 M0 11.23 C-0.04 8.81, -0.15 6.29, 0 3.74 M0 3.74 C-0.9 1.62, 0.79 0.88, 3.74 0 M0 3.74 C-0.78 1.58, 0.87 -0.71, 3.74 0" stroke="#343a40" stroke-width="2" fill="none"></path></g><g stroke-linecap="round" transform="translate(79.93959263392833 52.35810673701235) rotate(0 13.974609375 10.47265625)"><path d="M5.24 0 C11.42 -2.19, 18.98 -1.33, 22.71 0 C27.43 0.25, 28.73 -1.83, 27.95 5.24 C28.93 8.61, 29.43 13.24, 27.95 15.71 C25.93 17.21, 23.28 21.55, 22.71 20.95 C18.28 20.19, 13.54 19.64, 5.24 20.95 C4.13 20.42, 2.74 18.05, 0 15.71 C0.54 11.73, -1.71 9.53, 0 5.24 C-0.24 1.87, 3.46 -1.73, 5.24 0" stroke="none" stroke-width="0" fill="#ffd8a8"></path><path d="M5.24 0 C9.47 -1.57, 14.22 0.03, 22.71 0 M5.24 0 C9.55 -0.34, 15.54 0.33, 22.71 0 M22.71 0 C25.65 -1.94, 27.19 0.94, 27.95 5.24 M22.71 0 C27.08 -1.87, 28.93 2.68, 27.95 5.24 M27.95 5.24 C26.98 10.1, 29.01 13.22, 27.95 15.71 M27.95 5.24 C28.1 7.76, 27.51 10.45, 27.95 15.71 M27.95 15.71 C26.7 17.64, 27.1 22.15, 22.71 20.95 M27.95 15.71 C29.91 20.19, 25.07 22.16, 22.71 20.95 M22.71 20.95 C17.96 19.68, 11.51 19.24, 5.24 20.95 M22.71 20.95 C15.89 20.45, 11.02 21.27, 5.24 20.95 M5.24 20.95 C2.49 19.42, -1.11 20.95, 0 15.71 M5.24 20.95 C-0.03 19.48, -0.4 19.35, 0 15.71 M0 15.71 C-0.28 12.01, 0.19 9.77, 0 5.24 M0 15.71 C-0.34 13.02, -0.46 11, 0 5.24 M0 5.24 C-0.92 3.52, 0.39 0.58, 5.24 0 M0 5.24 C-0.75 0.32, 3.05 -1.46, 5.24 0" stroke="#1e1e1e" stroke-width="2" fill="none"></path></g><g stroke-linecap="round" transform="translate(30.14076450892844 38.31904423701235) rotate(0 25.429687499999943 23.859375)"><path d="M15.94 1.96 C20.82 -0.05, 28.74 0.08, 33.88 1.56 C39.02 3.05, 43.95 6.48, 46.78 10.87 C49.61 15.26, 51.69 22.79, 50.86 27.9 C50.03 33, 45.89 38.3, 41.81 41.49 C37.73 44.68, 31.78 46.98, 26.37 47.03 C20.96 47.08, 13.59 44.89, 9.35 41.78 C5.11 38.68, 1.85 33.35, 0.93 28.39 C0.02 23.43, 0.59 16.71, 3.85 12.01 C7.1 7.31, 17.09 2.01, 20.46 0.19 C23.82 -1.64, 24.08 0.46, 24.02 1.06 M32.98 1.39 C37.7 2.86, 43.88 7.8, 46.82 12.25 C49.75 16.71, 51.67 23.06, 50.62 28.12 C49.56 33.17, 44.4 39.39, 40.46 42.58 C36.53 45.77, 32.1 47.34, 27.01 47.27 C21.92 47.19, 14.16 45.19, 9.9 42.13 C5.65 39.07, 2.72 34.08, 1.47 28.94 C0.23 23.79, 0.15 15.82, 2.45 11.29 C4.76 6.76, 10.19 3.38, 15.3 1.77 C20.41 0.16, 30.29 1.63, 33.12 1.63 C35.94 1.63, 32.29 1.47, 32.25 1.76" stroke="none" stroke-width="0" fill="#ffd8a8"></path><path d="M25.68 -0.55 C30.85 -0.8, 37.1 2.98, 41.3 6.27 C45.51 9.56, 50.02 14.39, 50.91 19.22 C51.79 24.04, 49.43 30.65, 46.6 35.21 C43.78 39.77, 39.03 44.65, 33.95 46.58 C28.88 48.51, 21.15 48.4, 16.15 46.78 C11.15 45.17, 6.52 41.38, 3.94 36.9 C1.35 32.42, -0.04 24.96, 0.62 19.89 C1.29 14.81, 3.14 9.78, 7.94 6.46 C12.75 3.14, 25.66 0.98, 29.47 -0.04 C33.29 -1.06, 30.96 -0.17, 30.85 0.34 M28.62 -0.86 C34.06 -0.46, 41.48 5.04, 45.4 9.22 C49.32 13.4, 52.31 19.14, 52.14 24.23 C51.97 29.33, 47.99 35.92, 44.35 39.78 C40.72 43.64, 35.69 46.5, 30.32 47.42 C24.95 48.33, 17.07 47.83, 12.12 45.27 C7.17 42.7, 2.64 36.81, 0.63 32.04 C-1.38 27.28, -1.79 21.71, 0.05 16.69 C1.9 11.67, 7.01 4.73, 11.72 1.9 C16.43 -0.92, 25.21 -0.2, 28.32 -0.25 C31.43 -0.29, 30.13 1.33, 30.36 1.63" stroke="#1e1e1e" stroke-width="2" fill="none"></path></g></svg>