<svg version="1.1" xmlns="http://www.w3.org/2000/svg" viewBox="0 0 106.89305606447624 140.8422378015016" width="106.89305606447624" height="140.8422378015016">
  <!-- svg-source:excalidraw -->
  
  <defs>
    <style class="style-fonts">
      @font-face {
        font-family: "Virgil";
        src: url("https://excalidraw.com/Virgil.woff2");
      }
      @font-face {
        font-family: "Cascadia";
        src: url("https://excalidraw.com/Cascadia.woff2");
      }
      @font-face {
        font-family: "Assistant";
        src: url("https://excalidraw.com/Assistant-Regular.woff2");
      }
    </style>
    
  </defs>
  <g stroke-linecap="round" transform="translate(32.64044744318198 109.06643921733757) rotate(337.5387531331347 19.283203125 7.48828125)"><path d="M3.74 0 C12.65 1.51, 19.99 -2.15, 34.82 0 C35.39 0.09, 36.94 -0.11, 38.57 3.74 C37.84 5.32, 38.26 9.15, 38.57 11.23 C40.2 14.51, 37 14.4, 34.82 14.98 C24.53 16.89, 16.47 14.03, 3.74 14.98 C0.05 13.41, -0.68 11.51, 0 11.23 C-0.17 8.95, 0.39 7.48, 0 3.74 C0.67 -0.01, -0.67 -1.14, 3.74 0" stroke="none" stroke-width="0" fill="#868e96"></path><path d="M3.74 0 C13.53 1.03, 22.06 -0.67, 34.82 0 M3.74 0 C12.78 0.15, 22.53 -0.2, 34.82 0 M34.82 0 C36.35 0.37, 37.9 2.04, 38.57 3.74 M34.82 0 C38.08 0.89, 37.95 0.69, 38.57 3.74 M38.57 3.74 C38.69 6.23, 38.58 8.7, 38.57 11.23 M38.57 3.74 C38.53 6.62, 38.7 9.57, 38.57 11.23 M38.57 11.23 C38.9 14.41, 37.06 15.36, 34.82 14.98 M38.57 11.23 C39.63 13.68, 36.89 15.13, 34.82 14.98 M34.82 14.98 C22.47 15.54, 11.27 14.76, 3.74 14.98 M34.82 14.98 C24.95 14.84, 16.5 14.77, 3.74 14.98 M3.74 14.98 C0.76 15.65, -0.69 14.18, 0 11.23 M3.74 14.98 C1.57 15.04, -0.98 13.16, 0 11.23 M0 11.23 C0.2 8.73, 0 6.94, 0 3.74 M0 11.23 C-0.17 8.84, 0.15 6.8, 0 3.74 M0 3.74 C-0.83 2.04, 0.4 0.37, 3.74 0 M0 3.74 C0.27 1.18, 2.23 -0.46, 3.74 0" stroke="#1e1e1e" stroke-width="2" fill="none"></path></g><g stroke-linecap="round" transform="translate(32.82631983901592 16.919422171883525) rotate(337.0766447889431 19.283203125 7.48828125)"><path d="M3.74 0 C8.44 -2.72, 14.41 -0.08, 34.82 0 C35.69 -1.36, 38.84 0.16, 38.57 3.74 C38.23 7.1, 39.11 9.25, 38.57 11.23 C38.25 13.15, 37.1 17.53, 34.82 14.98 C27.65 14.69, 19.71 13.75, 3.74 14.98 C0.56 12.76, -0.5 15.74, 0 11.23 C0.47 9.4, 0.26 6.18, 0 3.74 C-1.92 0.1, -0.72 0.96, 3.74 0" stroke="none" stroke-width="0" fill="#868e96"></path><path d="M3.74 0 C13.02 -0.85, 21.21 0.14, 34.82 0 M3.74 0 C14.83 -0.2, 24.63 0.12, 34.82 0 M34.82 0 C36.65 0.79, 39.23 2.02, 38.57 3.74 M34.82 0 C36.7 -0.56, 38.73 1.99, 38.57 3.74 M38.57 3.74 C38.57 6.64, 38.91 9.18, 38.57 11.23 M38.57 3.74 C38.67 6.52, 38.62 9.47, 38.57 11.23 M38.57 11.23 C38.31 14.11, 38.25 14.94, 34.82 14.98 M38.57 11.23 C38.14 13.88, 38.09 14.27, 34.82 14.98 M34.82 14.98 C23.29 14.76, 13.29 15.15, 3.74 14.98 M34.82 14.98 C28.15 14.87, 20.27 15.31, 3.74 14.98 M3.74 14.98 C0.56 15.43, 0.28 13.79, 0 11.23 M3.74 14.98 C0.27 14.4, -0.13 14.79, 0 11.23 M0 11.23 C0.01 9.6, -0.01 7.87, 0 3.74 M0 11.23 C0.19 9.56, -0.12 7.82, 0 3.74 M0 3.74 C-0.85 1.61, 1.49 -0.06, 3.74 0 M0 3.74 C0.99 0.79, 1.1 1.07, 3.74 0" stroke="#1e1e1e" stroke-width="2" fill="none"></path></g><g stroke-linecap="round" transform="translate(10 32.545724255215646) rotate(0 42.630859375 38.322265625)"><path d="M19.16 0 C32.59 0.96, 49.11 -1.05, 66.1 0 C79.26 -1.51, 87.01 3.84, 85.26 19.16 C87.33 28.78, 84.63 35.43, 85.26 57.48 C84.96 73.79, 76.13 74.95, 66.1 76.64 C46.36 74.26, 28.98 73.37, 19.16 76.64 C5.69 79.43, 0.2 69.89, 0 57.48 C0.6 44.97, -2.98 34.36, 0 19.16 C-2.72 7.72, 6.95 -0.37, 19.16 0" stroke="none" stroke-width="0" fill="#7950f2"></path><path d="M19.16 0 C37.84 0.92, 57.57 -0.29, 66.1 0 M19.16 0 C34.34 0.5, 50.79 0.92, 66.1 0 M66.1 0 C80.19 1.54, 84.19 5.41, 85.26 19.16 M66.1 0 C79.21 1.48, 86.49 6.99, 85.26 19.16 M85.26 19.16 C87.06 32.75, 86.73 44.25, 85.26 57.48 M85.26 19.16 C85.84 30.45, 85.24 40.76, 85.26 57.48 M85.26 57.48 C87.12 70.18, 78.13 76.91, 66.1 76.64 M85.26 57.48 C86.8 68.85, 79.95 74.45, 66.1 76.64 M66.1 76.64 C49.77 76.7, 31.94 74.64, 19.16 76.64 M66.1 76.64 C51.77 77.22, 37.74 77, 19.16 76.64 M19.16 76.64 C6.95 76.76, -1.71 69.26, 0 57.48 M19.16 76.64 C6.14 78.78, -1.75 71.71, 0 57.48 M0 57.48 C0.02 49.35, -1.29 39.44, 0 19.16 M0 57.48 C-1.14 49.21, -1.16 39.73, 0 19.16 M0 19.16 C0.47 6.26, 8.1 -0.79, 19.16 0 M0 19.16 C-0.3 8.53, 4.15 -0.01, 19.16 0" stroke="#1e1e1e" stroke-width="2" fill="none"></path></g><g stroke-linecap="round" transform="translate(65.75746355371484 88.17832059975535) rotate(47.524435689906944 13.974609375 10.47265625)"><path d="M5.24 0 C6.8 -1.66, 12.64 -1.33, 22.71 0 C27.95 -2.55, 25.17 0.74, 27.95 5.24 C27.84 8.76, 27.91 14.98, 27.95 15.71 C25.21 17.5, 29.27 20.64, 22.71 20.95 C17.07 18.07, 12.48 23.19, 5.24 20.95 C1.94 20.58, -0.68 20.92, 0 15.71 C-1.44 11.25, -1.48 9.14, 0 5.24 C0.56 1.37, 0.42 1.11, 5.24 0" stroke="none" stroke-width="0" fill="#ffd8a8"></path><path d="M5.24 0 C10.02 -0.59, 14.05 1.35, 22.71 0 M5.24 0 C9.42 0.62, 15.34 0.61, 22.71 0 M22.71 0 C25.13 -0.98, 28.24 3.03, 27.95 5.24 M22.71 0 C27.44 0.61, 28.75 1.69, 27.95 5.24 M27.95 5.24 C28.82 8.77, 27.8 13.56, 27.95 15.71 M27.95 5.24 C27.85 8.47, 28.47 11.28, 27.95 15.71 M27.95 15.71 C27.2 19.46, 27.54 19.72, 22.71 20.95 M27.95 15.71 C29.03 17.01, 27.33 19.22, 22.71 20.95 M22.71 20.95 C16.75 19.33, 13.14 22.64, 5.24 20.95 M22.71 20.95 C17.23 21.46, 13.19 21.11, 5.24 20.95 M5.24 20.95 C0.04 19.95, -0.22 21.05, 0 15.71 M5.24 20.95 C-0.01 22.4, -2.04 19.43, 0 15.71 M0 15.71 C-0.66 11.47, -0.67 10.03, 0 5.24 M0 15.71 C-0.36 12.19, 0.21 8.26, 0 5.24 M0 5.24 C1.72 0.95, 1.49 1.87, 5.24 0 M0 5.24 C-2.24 1.73, 2.73 -1.42, 5.24 0" stroke="#1e1e1e" stroke-width="2" fill="none"></path></g><g stroke-linecap="round" transform="translate(27.928636255455785 46.951090522251434) rotate(47.524435689906944 25.4296875 23.859375)"><path d="M16.06 1.83 C20.65 -0.12, 28.32 -0.25, 33.38 1.17 C38.44 2.59, 43.64 5.86, 46.4 10.34 C49.17 14.81, 50.55 22.97, 49.97 28.04 C49.39 33.12, 46.76 37.66, 42.94 40.8 C39.12 43.93, 32.52 46.51, 27.04 46.86 C21.57 47.2, 14.51 45.73, 10.09 42.86 C5.66 39.99, 1.73 34.68, 0.48 29.62 C-0.77 24.55, -1.05 17.53, 2.61 12.48 C6.27 7.43, 18.33 1.23, 22.42 -0.69 C26.51 -2.6, 27.36 0.57, 27.17 0.96 M15.44 1.78 C20.04 0.01, 27.88 0.57, 32.99 2 C38.1 3.43, 43.26 5.89, 46.12 10.34 C48.97 14.78, 50.64 23.34, 50.14 28.66 C49.65 33.98, 47.19 39.14, 43.13 42.26 C39.07 45.38, 31.41 47.1, 25.79 47.38 C20.16 47.66, 13.78 47.19, 9.38 43.93 C4.97 40.66, 0.17 33.07, -0.66 27.79 C-1.48 22.51, 1.67 16.72, 4.42 12.24 C7.18 7.77, 14.01 2.69, 15.86 0.93 C17.71 -0.84, 15.51 1.23, 15.51 1.67" stroke="none" stroke-width="0" fill="#ffd8a8"></path><path d="M35.74 1.23 C40.81 3.12, 46.34 9.11, 48.88 13.69 C51.42 18.27, 52.42 23.8, 50.98 28.69 C49.54 33.59, 44.61 39.81, 40.24 43.06 C35.87 46.32, 30.05 48.46, 24.74 48.22 C19.42 47.99, 12.44 45.12, 8.35 41.65 C4.25 38.19, 0.72 32.49, 0.16 27.42 C-0.39 22.36, 1.91 15.69, 5.01 11.24 C8.1 6.8, 13.11 1.91, 18.74 0.75 C24.37 -0.4, 34.93 3.33, 38.79 4.32 C42.65 5.32, 41.95 6.52, 41.87 6.71 M29.72 0.63 C34.79 1.12, 42.55 4.22, 46.19 7.93 C49.83 11.63, 51.7 17.76, 51.56 22.84 C51.42 27.92, 49.12 34.28, 45.36 38.38 C41.6 42.49, 34.46 46.65, 28.98 47.46 C23.5 48.28, 17.32 45.92, 12.48 43.27 C7.65 40.62, 1.55 36.26, -0.01 31.55 C-1.57 26.84, 1.06 19.6, 3.13 15 C5.19 10.41, 8.01 6.32, 12.36 4.01 C16.71 1.69, 26.2 1.62, 29.24 1.12 C32.28 0.62, 30.72 0.84, 30.6 0.99" stroke="#1e1e1e" stroke-width="2" fill="none"></path></g></svg>