<svg version="1.1" xmlns="http://www.w3.org/2000/svg" viewBox="0 0 105.26171875 140.8422378015016" width="105.26171875" height="140.8422378015016">
  <!-- svg-source:excalidraw -->
  
  <defs>
    <style class="style-fonts">
      @font-face {
        font-family: "Virgil";
        src: url("https://excalidraw.com/Virgil.woff2");
      }
      @font-face {
        font-family: "Cascadia";
        src: url("https://excalidraw.com/Cascadia.woff2");
      }
      @font-face {
        font-family: "Assistant";
        src: url("https://excalidraw.com/Assistant-Regular.woff2");
      }
    </style>
    
  </defs>
  <g stroke-linecap="round" transform="translate(32.64044744318198 109.06643921733757) rotate(337.5387531331347 19.283203125 7.48828125)"><path d="M3.74 0 C8.81 0.68, 19.32 0.81, 34.82 0 C39.15 2.31, 36.21 0.78, 38.57 3.74 C39.33 7.09, 38.37 8.75, 38.57 11.23 C41.13 11.23, 35.1 12.63, 34.82 14.98 C27.39 13.16, 13.08 13.51, 3.74 14.98 C1.74 15.1, -2.09 11.18, 0 11.23 C0.4 7.87, 0.83 6.39, 0 3.74 C-1.08 0.7, 1.87 -1.71, 3.74 0" stroke="none" stroke-width="0" fill="#868e96"></path><path d="M3.74 0 C14.62 -0.76, 26.36 -0.44, 34.82 0 M3.74 0 C13.46 0.52, 23.71 -0.34, 34.82 0 M34.82 0 C38.01 0.9, 39.16 2.15, 38.57 3.74 M34.82 0 C37.62 1.13, 38.79 1.44, 38.57 3.74 M38.57 3.74 C38.87 5.12, 38.72 6.74, 38.57 11.23 M38.57 3.74 C38.62 6.41, 38.64 8.75, 38.57 11.23 M38.57 11.23 C38.07 12.83, 38.15 15.96, 34.82 14.98 M38.57 11.23 C37.45 13.19, 38.04 15.6, 34.82 14.98 M34.82 14.98 C26.79 14.2, 19.55 14.92, 3.74 14.98 M34.82 14.98 C28.13 14.45, 21.36 14.81, 3.74 14.98 M3.74 14.98 C2.01 15.86, -0.08 12.93, 0 11.23 M3.74 14.98 C1.18 15.16, -1.05 13.84, 0 11.23 M0 11.23 C-0.1 9.85, 0.2 7.78, 0 3.74 M0 11.23 C-0.12 9.11, 0.11 7.43, 0 3.74 M0 3.74 C-0.88 1.51, 1.01 -0.25, 3.74 0 M0 3.74 C0.06 1.04, 2.07 0.16, 3.74 0" stroke="#1e1e1e" stroke-width="2" fill="none"></path></g><g stroke-linecap="round" transform="translate(32.82631983901592 16.919422171883525) rotate(337.0766447889431 19.283203125 7.48828125)"><path d="M3.74 0 C15.06 0.68, 23.95 2.21, 34.82 0 C34.96 -0.46, 39.68 -0.33, 38.57 3.74 C38.51 5.54, 39.61 6.66, 38.57 11.23 C36.35 11.38, 37.57 15.98, 34.82 14.98 C23.37 13.28, 17.39 14.82, 3.74 14.98 C-0.85 12.43, 1.78 16.19, 0 11.23 C0.87 9.64, -0.45 6.5, 0 3.74 C0.62 -0.46, 3.12 2.44, 3.74 0" stroke="none" stroke-width="0" fill="#868e96"></path><path d="M3.74 0 C11.72 -0.37, 20.39 0.85, 34.82 0 M3.74 0 C11.11 -0.57, 19.05 0.32, 34.82 0 M34.82 0 C37.91 0.9, 38.83 2.23, 38.57 3.74 M34.82 0 C37.54 0.19, 37.53 0.84, 38.57 3.74 M38.57 3.74 C38.77 5.36, 38.75 7.26, 38.57 11.23 M38.57 3.74 C38.65 6.62, 38.48 9.47, 38.57 11.23 M38.57 11.23 C39.4 14.71, 36.35 14.51, 34.82 14.98 M38.57 11.23 C39.29 14.35, 36.75 14.2, 34.82 14.98 M34.82 14.98 C27.69 14.91, 19.01 14.46, 3.74 14.98 M34.82 14.98 C25.58 14.68, 17.49 15.26, 3.74 14.98 M3.74 14.98 C1.17 14.18, -0.06 13.89, 0 11.23 M3.74 14.98 C0.2 15.09, -0.96 12.84, 0 11.23 M0 11.23 C0.19 8.07, -0.12 5.28, 0 3.74 M0 11.23 C0.13 9.73, -0.14 7.94, 0 3.74 M0 3.74 C-0.23 1, 1.3 -0.18, 3.74 0 M0 3.74 C0.82 1.41, 0.29 -0.45, 3.74 0" stroke="#1e1e1e" stroke-width="2" fill="none"></path></g><g stroke-linecap="round" transform="translate(10 32.545724255215646) rotate(0 42.630859375 38.322265625)"><path d="M19.16 0 C36.98 2.95, 46.46 -0.9, 66.1 0 C80.42 -2.19, 83.71 9.44, 85.26 19.16 C88.71 30.25, 82.09 45, 85.26 57.48 C85.61 71.64, 78.45 79.69, 66.1 76.64 C55.89 76.35, 41.44 72.66, 19.16 76.64 C8.85 80.05, 0.09 72.06, 0 57.48 C-2.15 47.63, 0.21 36.92, 0 19.16 C2.6 9.77, 3.83 0.37, 19.16 0" stroke="none" stroke-width="0" fill="#7950f2"></path><path d="M19.16 0 C29.87 1.68, 38.47 -1.06, 66.1 0 M19.16 0 C37.91 1.31, 55.87 1.31, 66.1 0 M66.1 0 C79.4 1.96, 85.65 6.72, 85.26 19.16 M66.1 0 C76.8 -0.81, 83.77 8.36, 85.26 19.16 M85.26 19.16 C86.22 28.64, 87.31 38.82, 85.26 57.48 M85.26 19.16 C84.91 32.37, 86.24 48.36, 85.26 57.48 M85.26 57.48 C83.32 69.33, 80.12 77.73, 66.1 76.64 M85.26 57.48 C84.13 68.71, 77.5 76.1, 66.1 76.64 M66.1 76.64 C53.44 75.84, 44.06 76.04, 19.16 76.64 M66.1 76.64 C57.47 77.39, 47.24 75.71, 19.16 76.64 M19.16 76.64 C6.27 76.96, -1.82 70.45, 0 57.48 M19.16 76.64 C4.47 74.87, 2.17 69.49, 0 57.48 M0 57.48 C-0.88 43.24, -1.71 28.16, 0 19.16 M0 57.48 C-1.1 49.03, -0.46 39.79, 0 19.16 M0 19.16 C0.1 6.02, 7.81 0.28, 19.16 0 M0 19.16 C-1.92 5.49, 6.29 -1.46, 19.16 0" stroke="#1e1e1e" stroke-width="2" fill="none"></path></g><g stroke-linecap="round" transform="translate(36.68179290260014 21.99483342197982) rotate(90.684351531919 13.974609375 10.47265625)"><path d="M5.24 0 C9.88 0.32, 10.81 -2.91, 22.71 0 C28.66 3.4, 28.04 3.55, 27.95 5.24 C27.34 7.33, 28.58 8.97, 27.95 15.71 C30.54 22.58, 23.65 21.32, 22.71 20.95 C17.52 23.41, 14.65 20.36, 5.24 20.95 C3.16 19.06, 0.69 21.25, 0 15.71 C-0.76 14.05, 1.34 9.51, 0 5.24 C-1.43 5.31, 3.66 3.57, 5.24 0" stroke="none" stroke-width="0" fill="#ffd8a8"></path><path d="M5.24 0 C10.27 0.03, 15.55 0.61, 22.71 0 M5.24 0 C11.23 -0.71, 18.83 0.93, 22.71 0 M22.71 0 C24.26 -0.93, 29.2 2.83, 27.95 5.24 M22.71 0 C25.07 -1.54, 26.57 1.21, 27.95 5.24 M27.95 5.24 C27.04 7.23, 27.83 9.76, 27.95 15.71 M27.95 5.24 C28.27 7.79, 27.83 9.01, 27.95 15.71 M27.95 15.71 C27.83 19.52, 24.38 21.14, 22.71 20.95 M27.95 15.71 C26.03 17.42, 28.37 20.17, 22.71 20.95 M22.71 20.95 C15.71 20.63, 8.6 19.7, 5.24 20.95 M22.71 20.95 C17.97 21.33, 14.56 20.88, 5.24 20.95 M5.24 20.95 C1.85 20.58, 1.42 19.48, 0 15.71 M5.24 20.95 C-0.18 20.05, -0.1 17.74, 0 15.71 M0 15.71 C0.65 13.23, -1.04 8.7, 0 5.24 M0 15.71 C0.51 12.53, -0.01 8.46, 0 5.24 M0 5.24 C1.97 -0.18, 0.04 -1.81, 5.24 0 M0 5.24 C0.22 2.63, 1.47 1.94, 5.24 0" stroke="#1e1e1e" stroke-width="2" fill="none"></path></g><g stroke-linecap="round" transform="translate(25.421037946427532 46.95692110629625) rotate(90.684351531919 25.4296875 23.859375)"><path d="M14.46 2.31 C19.26 0.12, 27.81 -0.29, 33.27 1.23 C38.73 2.75, 44.47 7.26, 47.22 11.42 C49.98 15.58, 50.43 21.36, 49.81 26.19 C49.19 31.02, 47.36 36.71, 43.51 40.43 C39.67 44.15, 32.13 48.08, 26.76 48.51 C21.38 48.94, 15.62 46, 11.27 43.01 C6.91 40.03, 2.23 35.68, 0.62 30.6 C-0.99 25.52, -1.43 17.52, 1.62 12.53 C4.67 7.55, 15.01 2.71, 18.94 0.68 C22.87 -1.35, 24.82 0.11, 25.2 0.37 M13.75 1.49 C18.09 -0.9, 23.92 0.28, 29.46 1.59 C35 2.9, 43.33 5.64, 47.02 9.37 C50.71 13.1, 51.82 18.68, 51.59 23.96 C51.35 29.23, 49.51 37.14, 45.6 41.02 C41.69 44.89, 33.71 46.87, 28.13 47.2 C22.55 47.53, 16.44 45.46, 12.13 43 C7.82 40.54, 4.14 37.13, 2.26 32.45 C0.38 27.76, -1.07 19.76, 0.87 14.89 C2.81 10.01, 11.75 5.12, 13.88 3.18 C16.01 1.24, 13.29 2.75, 13.65 3.25" stroke="none" stroke-width="0" fill="#ffd8a8"></path><path d="M28.98 -0.21 C33.88 0.31, 39.89 5.23, 43.7 9.01 C47.51 12.78, 51.66 17.36, 51.84 22.44 C52.01 27.51, 48.25 35.41, 44.75 39.47 C41.26 43.53, 36.25 46, 30.86 46.78 C25.48 47.56, 17.36 46.65, 12.46 44.15 C7.56 41.64, 3.26 36.42, 1.47 31.76 C-0.33 27.1, 0.04 20.95, 1.7 16.16 C3.35 11.37, 5.86 5.46, 11.4 3.01 C16.95 0.57, 30.36 1.3, 34.97 1.49 C39.57 1.68, 39.22 3.6, 39.04 4.15 M36.2 2.52 C40.81 4.55, 45.08 9.62, 47.16 14.03 C49.25 18.44, 49.68 24.16, 48.71 28.99 C47.74 33.81, 45.44 39.75, 41.33 42.97 C37.22 46.19, 29.87 48.79, 24.07 48.31 C18.27 47.84, 10.56 44.06, 6.54 40.12 C2.51 36.18, 0.38 29.86, -0.1 24.67 C-0.57 19.49, 0.36 12.75, 3.68 8.99 C7 5.23, 14.62 3.16, 19.83 2.11 C25.05 1.06, 32.32 2.64, 34.97 2.68 C37.62 2.72, 35.67 2.09, 35.72 2.34" stroke="#1e1e1e" stroke-width="2" fill="none"></path></g></svg>