<svg version="1.1" xmlns="http://www.w3.org/2000/svg" viewBox="0 0 108.91314535019228 140.8422378015016" width="108.91314535019228" height="140.8422378015016">
  <!-- svg-source:excalidraw -->
  
  <defs>
    <style class="style-fonts">
      @font-face {
        font-family: "Virgil";
        src: url("https://excalidraw.com/Virgil.woff2");
      }
      @font-face {
        font-family: "Cascadia";
        src: url("https://excalidraw.com/Cascadia.woff2");
      }
      @font-face {
        font-family: "Assistant";
        src: url("https://excalidraw.com/Assistant-Regular.woff2");
      }
    </style>
    
  </defs>
  <g stroke-linecap="round" transform="translate(32.64044744318198 109.06643921733757) rotate(337.5387531331347 19.283203125 7.48828125)"><path d="M3.74 0 C11.86 1.83, 21.3 -2.2, 34.82 0 C36.31 -0.11, 36.91 1.91, 38.57 3.74 C39.46 5.72, 38.42 9.88, 38.57 11.23 C36.99 12.61, 39.52 17.04, 34.82 14.98 C23.44 13.16, 14.7 15.63, 3.74 14.98 C2.25 14.67, 2.2 11.96, 0 11.23 C0.1 8.92, -0.9 8.84, 0 3.74 C2.46 1.31, 2.55 -1.63, 3.74 0" stroke="none" stroke-width="0" fill="#868e96"></path><path d="M3.74 0 C14.12 0.62, 24.85 0.76, 34.82 0 M3.74 0 C14.89 -0.03, 26.6 0.2, 34.82 0 M34.82 0 C38.04 -0.59, 37.92 2.1, 38.57 3.74 M34.82 0 C37.06 -1, 39.36 2.29, 38.57 3.74 M38.57 3.74 C38.97 6.51, 38.66 8.79, 38.57 11.23 M38.57 3.74 C38.45 5.81, 38.47 7.79, 38.57 11.23 M38.57 11.23 C38.54 14.66, 37.63 15.66, 34.82 14.98 M38.57 11.23 C39.02 13.28, 36.74 13.95, 34.82 14.98 M34.82 14.98 C22.46 15.45, 11.56 14.33, 3.74 14.98 M34.82 14.98 C27.24 15.1, 20.37 14.49, 3.74 14.98 M3.74 14.98 C0.84 14.83, -0.31 12.73, 0 11.23 M3.74 14.98 C0.37 14.64, 0.88 14.74, 0 11.23 M0 11.23 C0.09 8.7, 0.07 6.55, 0 3.74 M0 11.23 C0.09 9.65, -0.14 7.83, 0 3.74 M0 3.74 C-0.12 0.48, 0.59 -0.72, 3.74 0 M0 3.74 C0.67 2.26, 0.24 0.3, 3.74 0" stroke="#1e1e1e" stroke-width="2" fill="none"></path></g><g stroke-linecap="round" transform="translate(32.82631983901592 16.919422171883525) rotate(337.0766447889431 19.283203125 7.48828125)"><path d="M3.74 0 C13.59 -2.46, 21.69 -0.4, 34.82 0 C35.67 0.66, 40.7 2.04, 38.57 3.74 C38.48 6.94, 38.06 8.87, 38.57 11.23 C40.77 15.8, 36.95 14.63, 34.82 14.98 C20.09 14.88, 11.06 14.33, 3.74 14.98 C3.45 13.2, -2.5 12.31, 0 11.23 C-0.96 9.51, 0.92 6.48, 0 3.74 C1.3 -0.38, 3.7 1.8, 3.74 0" stroke="none" stroke-width="0" fill="#868e96"></path><path d="M3.74 0 C12.37 0.59, 19.89 -0.44, 34.82 0 M3.74 0 C11.12 0.15, 19.36 -0.26, 34.82 0 M34.82 0 C36.67 0.85, 38.34 0.38, 38.57 3.74 M34.82 0 C38.11 1.04, 39.25 2.28, 38.57 3.74 M38.57 3.74 C38.66 5.85, 38.47 8.38, 38.57 11.23 M38.57 3.74 C38.48 6.71, 38.54 9.69, 38.57 11.23 M38.57 11.23 C38.88 14.41, 37.72 14.59, 34.82 14.98 M38.57 11.23 C37.99 12.7, 38.27 16.11, 34.82 14.98 M34.82 14.98 C29.06 14.58, 21.54 14.47, 3.74 14.98 M34.82 14.98 C26.25 14.58, 17.43 14.95, 3.74 14.98 M3.74 14.98 C0.94 13.98, -0.77 13.44, 0 11.23 M3.74 14.98 C2.12 15.99, -0.09 12.81, 0 11.23 M0 11.23 C0.03 8.72, -0.3 7.18, 0 3.74 M0 11.23 C-0.13 9.17, -0.05 7.1, 0 3.74 M0 3.74 C-0.66 0.52, 1.83 0.88, 3.74 0 M0 3.74 C-1.01 1.55, 0.98 -0.29, 3.74 0" stroke="#1e1e1e" stroke-width="2" fill="none"></path></g><g stroke-linecap="round" transform="translate(10 32.545724255215646) rotate(0 42.630859375 38.322265625)"><path d="M19.16 0 C35.19 0.55, 51.72 1.63, 66.1 0 C81.82 1.09, 87.8 9.59, 85.26 19.16 C82.95 25.62, 88.19 38.06, 85.26 57.48 C84.75 69.78, 82.42 73.19, 66.1 76.64 C57.41 76.3, 48.99 74.27, 19.16 76.64 C2.93 74.68, 0.68 70.42, 0 57.48 C4.08 49.17, 2.48 38.41, 0 19.16 C3.4 8.88, 4.89 -0.76, 19.16 0" stroke="none" stroke-width="0" fill="#7950f2"></path><path d="M19.16 0 C37.23 -1.04, 51.34 -1.95, 66.1 0 M19.16 0 C32.85 -0.7, 44.46 0.74, 66.1 0 M66.1 0 C78.42 -1.74, 86.64 8.2, 85.26 19.16 M66.1 0 C80.24 2.07, 85.86 8.65, 85.26 19.16 M85.26 19.16 C84.62 30.1, 87.04 42.59, 85.26 57.48 M85.26 19.16 C85.09 33.34, 85.43 46.32, 85.26 57.48 M85.26 57.48 C86.06 69.48, 77.87 74.85, 66.1 76.64 M85.26 57.48 C87.17 72.52, 76.64 75.58, 66.1 76.64 M66.1 76.64 C47.74 75.21, 31.6 75.05, 19.16 76.64 M66.1 76.64 C50.08 76.07, 34.57 75.22, 19.16 76.64 M19.16 76.64 C4.85 76.06, 1.52 72.02, 0 57.48 M19.16 76.64 C6.21 74.81, -0.14 70.62, 0 57.48 M0 57.48 C-1.58 51.36, -0.71 42.77, 0 19.16 M0 57.48 C0.09 43.44, -0.45 30.21, 0 19.16 M0 19.16 C1.16 8.16, 4.63 0.53, 19.16 0 M0 19.16 C-0.54 5.81, 6.5 -0.42, 19.16 0" stroke="#1e1e1e" stroke-width="2" fill="none"></path></g><g stroke-linecap="round" transform="translate(67.77755283943043 31.768827916034752) rotate(312.47556431009303 13.974609375 10.47265625)"><path d="M5.24 0 C12.71 3.28, 15.96 1.88, 22.71 0 C23.95 3.4, 30.45 0.25, 27.95 5.24 C29.35 9.93, 26.66 11.27, 27.95 15.71 C28.42 20.36, 25.57 21.26, 22.71 20.95 C17.31 19.25, 10.03 22.68, 5.24 20.95 C-1.48 19.78, -3.27 17.63, 0 15.71 C-0.88 14.14, 0.87 10.69, 0 5.24 C-0.94 2.66, -1.69 1.13, 5.24 0" stroke="none" stroke-width="0" fill="#ffd8a8"></path><path d="M5.24 0 C11.63 0.64, 14.96 -0.93, 22.71 0 M5.24 0 C8.07 -0.58, 13.14 0.3, 22.71 0 M22.71 0 C25.22 -1.34, 26.75 1.28, 27.95 5.24 M22.71 0 C24.63 0.75, 28.04 -0.32, 27.95 5.24 M27.95 5.24 C26.89 7.14, 27.63 11.45, 27.95 15.71 M27.95 5.24 C27.91 9.39, 27.46 13.42, 27.95 15.71 M27.95 15.71 C26.28 17.65, 28.09 20.27, 22.71 20.95 M27.95 15.71 C29.45 20.27, 24.94 20.13, 22.71 20.95 M22.71 20.95 C16.42 21.84, 14.2 19.29, 5.24 20.95 M22.71 20.95 C17.05 20.74, 11.92 21.02, 5.24 20.95 M5.24 20.95 C0.07 20.17, -0.09 17.93, 0 15.71 M5.24 20.95 C2.33 22.83, 0.7 20.82, 0 15.71 M0 15.71 C0.55 11, -0.36 8.45, 0 5.24 M0 15.71 C0.53 11.23, -0.43 7.29, 0 5.24 M0 5.24 C0.19 2.52, 1.51 1.69, 5.24 0 M0 5.24 C-1.57 -0.46, 0.49 0.43, 5.24 0" stroke="#1e1e1e" stroke-width="2" fill="none"></path></g><g stroke-linecap="round" transform="translate(29.94872554117137 46.22262049353867) rotate(312.47556431009303 25.4296875 23.859375)"><path d="M29.38 1.08 C34.26 1.32, 39.57 4, 43.22 7.51 C46.87 11.02, 50.93 16.86, 51.26 22.14 C51.6 27.42, 48.46 35.03, 45.22 39.17 C41.98 43.32, 37.07 45.85, 31.8 47 C26.54 48.14, 18.76 48.51, 13.62 46.04 C8.49 43.58, 3.23 37.07, 1.01 32.2 C-1.22 27.34, -1.6 21.61, 0.25 16.85 C2.1 12.09, 6.91 6.5, 12.09 3.66 C17.27 0.82, 28.15 0.27, 31.33 -0.21 C34.51 -0.68, 31.37 0.28, 31.17 0.79 M16.88 1.95 C21.89 -0.56, 28.37 -1.56, 33.58 0.09 C38.8 1.75, 45.41 7.49, 48.16 11.88 C50.9 16.27, 50.88 21.68, 50.05 26.42 C49.22 31.16, 46.85 36.52, 43.16 40.3 C39.46 44.08, 33.55 48.63, 27.88 49.09 C22.2 49.56, 13.59 46.31, 9.09 43.09 C4.58 39.86, 1.96 34.72, 0.86 29.74 C-0.24 24.76, -0.14 17.6, 2.49 13.19 C5.13 8.78, 14.51 4.99, 16.66 3.29 C18.82 1.58, 15.57 2.76, 15.41 2.94" stroke="none" stroke-width="0" fill="#ffd8a8"></path><path d="M20.11 -0.23 C25.11 -1.76, 31.13 0.68, 35.97 2.98 C40.81 5.27, 46.93 9.08, 49.14 13.53 C51.35 17.98, 50.85 24.8, 49.25 29.69 C47.65 34.58, 43.88 39.88, 39.55 42.87 C35.21 45.86, 28.79 48.1, 23.25 47.64 C17.72 47.18, 10.24 43.84, 6.35 40.13 C2.46 36.41, 0.35 30.52, -0.08 25.36 C-0.51 20.2, 0.15 13.25, 3.76 9.19 C7.38 5.13, 17.97 2.45, 21.62 0.99 C25.26 -0.47, 25.65 0.15, 25.63 0.41 M26.21 -1.08 C31.86 -1.11, 40.44 2.46, 44.69 6.36 C48.95 10.26, 51.58 17.21, 51.73 22.3 C51.87 27.38, 48.83 32.97, 45.54 36.87 C42.26 40.77, 37.29 44.44, 32.01 45.71 C26.73 46.98, 18.65 46.18, 13.87 44.47 C9.09 42.76, 5.73 39.8, 3.33 35.43 C0.94 31.06, -1.67 23.48, -0.5 18.25 C0.67 13.02, 5.67 7.11, 10.34 4.04 C15.01 0.96, 24.51 0.35, 27.53 -0.2 C30.56 -0.75, 28.74 0.42, 28.49 0.76" stroke="#1e1e1e" stroke-width="2" fill="none"></path></g></svg>