<svg version="1.1" xmlns="http://www.w3.org/2000/svg" viewBox="0 0 107.08836856448033 140.8422378015016" width="107.08836856448033" height="140.8422378015016">
  <!-- svg-source:excalidraw -->
  
  <defs>
    <style class="style-fonts">
      @font-face {
        font-family: "Virgil";
        src: url("https://excalidraw.com/Virgil.woff2");
      }
      @font-face {
        font-family: "Cascadia";
        src: url("https://excalidraw.com/Cascadia.woff2");
      }
      @font-face {
        font-family: "Assistant";
        src: url("https://excalidraw.com/Assistant-Regular.woff2");
      }
    </style>
    
  </defs>
  <g stroke-linecap="round" transform="translate(34.46709725766232 109.06643921733757) rotate(337.5387531331347 19.283203125 7.48828125)"><path d="M3.74 0 C11.58 -2.49, 18.65 -2.53, 34.82 0 C38.27 0.62, 38.4 3.48, 38.57 3.74 C37.61 5.69, 38.97 7.04, 38.57 11.23 C36.02 11.8, 37.41 13.35, 34.82 14.98 C28.38 12.97, 17.42 14.08, 3.74 14.98 C3.25 16.61, 0.78 13.41, 0 11.23 C-0.73 8.69, 0.84 6.99, 0 3.74 C-0.64 0.05, -0.32 -0.68, 3.74 0" stroke="none" stroke-width="0" fill="#868e96"></path><path d="M3.74 0 C14.05 0.69, 25.44 -0.37, 34.82 0 M3.74 0 C12.06 -0.5, 20.86 -0.07, 34.82 0 M34.82 0 C37.14 0.89, 39.56 1.77, 38.57 3.74 M34.82 0 C36.52 -0.05, 38.91 1.75, 38.57 3.74 M38.57 3.74 C38.48 5.4, 38.72 7.52, 38.57 11.23 M38.57 3.74 C38.49 6.49, 38.62 9.54, 38.57 11.23 M38.57 11.23 C39.1 13.99, 37.67 14.95, 34.82 14.98 M38.57 11.23 C39.33 14.77, 37.76 15.83, 34.82 14.98 M34.82 14.98 C26.28 15.41, 18.64 14.81, 3.74 14.98 M34.82 14.98 C24.12 15.04, 14.13 14.67, 3.74 14.98 M3.74 14.98 C1.72 14.02, 0.49 12.98, 0 11.23 M3.74 14.98 C0.92 15.01, 0.11 12.93, 0 11.23 M0 11.23 C-0.08 9.5, 0.25 7.88, 0 3.74 M0 11.23 C-0.17 8.55, -0.03 6.23, 0 3.74 M0 3.74 C-0.76 1.88, 0.36 0.1, 3.74 0 M0 3.74 C0.13 1.28, 1.23 -0.72, 3.74 0" stroke="#1e1e1e" stroke-width="2" fill="none"></path></g><g stroke-linecap="round" transform="translate(34.65296965349444 16.919422171883525) rotate(337.0766447889431 19.283203125 7.48828125)"><path d="M3.74 0 C17.62 -1.87, 28.34 0.95, 34.82 0 C37.16 2.23, 37.54 0.91, 38.57 3.74 C38.89 6.09, 37.52 8.91, 38.57 11.23 C38.66 12.1, 35.96 15.25, 34.82 14.98 C24.79 13.97, 20.78 16.32, 3.74 14.98 C2.03 14.66, -0.58 13.51, 0 11.23 C0.9 8.17, -0.16 4.82, 0 3.74 C-1.57 0.56, -0.97 -0.5, 3.74 0" stroke="none" stroke-width="0" fill="#868e96"></path><path d="M3.74 0 C13.97 -0.45, 23.53 0.5, 34.82 0 M3.74 0 C14.86 0.15, 26.02 0.57, 34.82 0 M34.82 0 C38.32 0.52, 37.87 1.21, 38.57 3.74 M34.82 0 C37.66 0.5, 38.21 1.75, 38.57 3.74 M38.57 3.74 C38.7 6.34, 38.85 9.69, 38.57 11.23 M38.57 3.74 C38.57 6.69, 38.65 9.44, 38.57 11.23 M38.57 11.23 C38.91 13.7, 37.98 15.88, 34.82 14.98 M38.57 11.23 C39 14.58, 36.99 14.71, 34.82 14.98 M34.82 14.98 C24.23 14.77, 12.65 15.96, 3.74 14.98 M34.82 14.98 C25.96 14.69, 16.66 14.52, 3.74 14.98 M3.74 14.98 C1.74 14.23, -0.29 13.75, 0 11.23 M3.74 14.98 C1.36 14.17, -1.07 13.67, 0 11.23 M0 11.23 C0.26 8.01, 0.18 5.41, 0 3.74 M0 11.23 C0.01 9.12, -0.11 6.77, 0 3.74 M0 3.74 C-0.89 1.35, 1.36 0.03, 3.74 0 M0 3.74 C-0.02 0.53, 0.18 -0.73, 3.74 0" stroke="#1e1e1e" stroke-width="2" fill="none"></path></g><g stroke-linecap="round" transform="translate(11.826649814480334 32.545724255215646) rotate(0 42.630859375 38.322265625)"><path d="M19.16 0 C30.65 1.57, 39.28 3.81, 66.1 0 C77.45 -0.46, 88.62 2.88, 85.26 19.16 C82.04 27.97, 85.69 39.86, 85.26 57.48 C83.38 70.64, 77.37 78.39, 66.1 76.64 C58.12 78.67, 45.66 75.97, 19.16 76.64 C5.58 76.35, 3.53 67.52, 0 57.48 C-1.47 46.14, -2.76 37.15, 0 19.16 C-3.07 5.69, 9.17 0.2, 19.16 0" stroke="none" stroke-width="0" fill="#7950f2"></path><path d="M19.16 0 C36.17 1.38, 55.33 -0.95, 66.1 0 M19.16 0 C29.2 0.86, 40.6 0.49, 66.1 0 M66.1 0 C77.48 -0.09, 85.85 7.26, 85.26 19.16 M66.1 0 C78.16 1.01, 87.11 5.76, 85.26 19.16 M85.26 19.16 C86.98 28.28, 86.95 33.69, 85.26 57.48 M85.26 19.16 C85.85 29.05, 85.67 38.38, 85.26 57.48 M85.26 57.48 C86.58 72.06, 79.64 78.12, 66.1 76.64 M85.26 57.48 C84.6 69.72, 80.32 76.4, 66.1 76.64 M66.1 76.64 C51.22 78.38, 34.72 75.77, 19.16 76.64 M66.1 76.64 C51.88 75.4, 37.2 75.61, 19.16 76.64 M19.16 76.64 C5.81 76.7, 0.2 68.86, 0 57.48 M19.16 76.64 C4.24 76.52, 2.21 69.78, 0 57.48 M0 57.48 C0.65 48.43, -0.14 36.55, 0 19.16 M0 57.48 C-0.72 48.53, -0.85 38.41, 0 19.16 M0 19.16 C0.22 6.45, 6.35 -1.25, 19.16 0 M0 19.16 C-2.14 4.93, 8.24 1.24, 19.16 0" stroke="#1e1e1e" stroke-width="2" fill="none"></path></g><g stroke-linecap="round" transform="translate(13.186373760761853 87.12363309975535) rotate(312.47556431009303 13.974609375 10.47265625)"><path d="M5.24 0 C11.67 2.07, 14.19 -0.29, 22.71 0 C25.4 -0.3, 31.48 -0.99, 27.95 5.24 C27.65 7.02, 26.97 10.04, 27.95 15.71 C24.88 18.51, 28.99 21.14, 22.71 20.95 C19.12 21.91, 11.06 18.78, 5.24 20.95 C0.16 18.22, 1.33 19.76, 0 15.71 C-0.98 10.84, 1.91 11.06, 0 5.24 C-1.14 3.51, 3.83 -1.45, 5.24 0" stroke="none" stroke-width="0" fill="#ffd8a8"></path><path d="M5.24 0 C10.17 1.27, 13.7 -0.82, 22.71 0 M5.24 0 C10.09 0.12, 14.32 -0.14, 22.71 0 M22.71 0 C27.53 1.8, 28.71 3.22, 27.95 5.24 M22.71 0 C25.55 -0.53, 29.4 1.5, 27.95 5.24 M27.95 5.24 C28.42 9.7, 27.98 11.83, 27.95 15.71 M27.95 5.24 C28.26 8.02, 28.28 11.4, 27.95 15.71 M27.95 15.71 C27.37 19.25, 26.4 19.55, 22.71 20.95 M27.95 15.71 C25.8 19.08, 28.41 20.47, 22.71 20.95 M22.71 20.95 C19.12 21.32, 14.04 19.33, 5.24 20.95 M22.71 20.95 C17.67 21.66, 13.19 21.19, 5.24 20.95 M5.24 20.95 C1.97 21.01, -0.04 17.95, 0 15.71 M5.24 20.95 C-0.4 19.48, 1.85 20.44, 0 15.71 M0 15.71 C0.3 13.69, -0.15 12.07, 0 5.24 M0 15.71 C-0.5 12.98, 0.24 9.93, 0 5.24 M0 5.24 C-1.96 0.26, 1.82 -1.25, 5.24 0 M0 5.24 C-1.2 1.99, 0.78 1.12, 5.24 0" stroke="#1e1e1e" stroke-width="2" fill="none"></path></g><g stroke-linecap="round" transform="translate(28.10504480902091 45.896403022249615) rotate(312.47556431009303 25.4296875 23.859375)"><path d="M14.54 1.71 C19.26 -1.02, 26.8 -1.56, 32.07 -0.21 C37.34 1.15, 43.07 5.45, 46.18 9.84 C49.3 14.22, 51.2 21.05, 50.75 26.09 C50.31 31.13, 47.11 36.68, 43.54 40.09 C39.97 43.51, 34.68 45.89, 29.33 46.58 C23.98 47.27, 16.27 47.04, 11.46 44.23 C6.65 41.42, 2.14 34.7, 0.46 29.74 C-1.23 24.77, -1.1 19.2, 1.33 14.46 C3.77 9.72, 12.35 3.49, 15.09 1.29 C17.82 -0.92, 17.39 0.9, 17.74 1.23 M16.8 2.2 C21.51 -0.16, 28.05 -0.92, 33.06 0.82 C38.06 2.56, 44.11 8.38, 46.84 12.65 C49.58 16.91, 49.99 21.63, 49.48 26.43 C48.96 31.22, 47.68 38, 43.76 41.43 C39.85 44.86, 31.81 46.87, 26 47.01 C20.19 47.16, 13.36 45.37, 8.91 42.3 C4.46 39.22, 0.09 33.5, -0.71 28.58 C-1.51 23.66, 1.38 17.3, 4.11 12.78 C6.85 8.26, 13.6 3.12, 15.7 1.47 C17.81 -0.18, 16.51 2.61, 16.76 2.9" stroke="none" stroke-width="0" fill="#ffd8a8"></path><path d="M19.32 1.39 C24.35 -0.16, 31.44 0.36, 36.28 2.51 C41.12 4.66, 45.93 9.66, 48.37 14.29 C50.82 18.91, 52.19 25.46, 50.94 30.25 C49.7 35.04, 45.53 40.02, 40.9 43.02 C36.27 46.02, 28.73 48.58, 23.16 48.27 C17.59 47.96, 11.2 44.92, 7.47 41.18 C3.74 37.45, 1.23 30.84, 0.8 25.85 C0.37 20.85, 0.73 15.61, 4.88 11.24 C9.03 6.87, 21.06 1.14, 25.71 -0.37 C30.36 -1.89, 32.88 1.61, 32.78 2.15 M13.32 2.7 C17.67 0.21, 26 -1.57, 31.15 -0.47 C36.31 0.64, 40.73 5.12, 44.25 9.31 C47.77 13.5, 52.41 19.37, 52.27 24.66 C52.13 29.95, 47.5 37.12, 43.39 41.04 C39.28 44.97, 32.85 47.71, 27.64 48.21 C22.43 48.7, 16.75 47.03, 12.12 44.03 C7.5 41.03, 1.59 34.88, -0.13 30.22 C-1.85 25.55, -0.32 20.49, 1.8 16.05 C3.92 11.62, 10.8 5.75, 12.61 3.61 C14.42 1.47, 12.24 3.03, 12.66 3.24" stroke="#1e1e1e" stroke-width="2" fill="none"></path></g></svg>