<svg version="1.1" xmlns="http://www.w3.org/2000/svg" viewBox="0 0 105.26171875 140.8422378015016" width="105.26171875" height="140.8422378015016">
  <!-- svg-source:excalidraw -->
  
  <defs>
    <style class="style-fonts">
      @font-face {
        font-family: "Virgil";
        src: url("https://excalidraw.com/Virgil.woff2");
      }
      @font-face {
        font-family: "Cascadia";
        src: url("https://excalidraw.com/Cascadia.woff2");
      }
      @font-face {
        font-family: "Assistant";
        src: url("https://excalidraw.com/Assistant-Regular.woff2");
      }
    </style>
    
  </defs>
  <g stroke-linecap="round" transform="translate(32.64044744318198 109.06643921733757) rotate(337.5387531331347 19.283203125 7.48828125)"><path d="M3.74 0 C10.27 2.14, 16.09 -0.43, 34.82 0 C39.75 -2.53, 38.55 2.37, 38.57 3.74 C38.51 4.92, 37.96 7.42, 38.57 11.23 C37.48 14.99, 35.48 12.97, 34.82 14.98 C27.14 14.91, 17.32 15.02, 3.74 14.98 C3.8 13, -1.22 15.95, 0 11.23 C-0.56 8.79, -0.81 6.68, 0 3.74 C2.01 1.39, 0.98 -0.49, 3.74 0" stroke="none" stroke-width="0" fill="#868e96"></path><path d="M3.74 0 C12.63 -0.65, 19.5 -0.23, 34.82 0 M3.74 0 C13.72 0.12, 22.35 -0.16, 34.82 0 M34.82 0 C37.61 0.44, 38.26 1.69, 38.57 3.74 M34.82 0 C38.24 -0.31, 37.46 1.68, 38.57 3.74 M38.57 3.74 C38.88 5.29, 38.41 7.29, 38.57 11.23 M38.57 3.74 C38.65 6.47, 38.71 9.37, 38.57 11.23 M38.57 11.23 C38.95 14.47, 37.03 14.74, 34.82 14.98 M38.57 11.23 C39.29 13.61, 37.7 15.76, 34.82 14.98 M34.82 14.98 C26.27 14.75, 17.93 15.79, 3.74 14.98 M34.82 14.98 C27.64 14.45, 19.82 14.84, 3.74 14.98 M3.74 14.98 C1.35 14.28, -0.93 13.68, 0 11.23 M3.74 14.98 C2.35 14.74, -0.56 14.51, 0 11.23 M0 11.23 C0 9.18, -0.2 7.73, 0 3.74 M0 11.23 C-0.14 8.31, 0.05 5.36, 0 3.74 M0 3.74 C-0.02 0.62, 0.32 -0.64, 3.74 0 M0 3.74 C0.92 1.87, 0.29 0.91, 3.74 0" stroke="#1e1e1e" stroke-width="2" fill="none"></path></g><g stroke-linecap="round" transform="translate(32.826319839014104 16.919422171883525) rotate(337.0766447889431 19.283203125 7.48828125)"><path d="M3.74 0 C12.77 -0.68, 26.29 -2.88, 34.82 0 C37.3 1.12, 36.96 -1.3, 38.57 3.74 C38.06 5.54, 38.16 7.6, 38.57 11.23 C36.73 11.72, 36.6 16.98, 34.82 14.98 C22.96 14.71, 14.82 12.95, 3.74 14.98 C0.02 17.19, -0.22 13.09, 0 11.23 C-0.77 9.14, 0.81 7.48, 0 3.74 C-0.26 0.76, 2.49 1.22, 3.74 0" stroke="none" stroke-width="0" fill="#868e96"></path><path d="M3.74 0 C14.14 -0.05, 26.24 -0.1, 34.82 0 M3.74 0 C15.47 -0.1, 28.05 0.14, 34.82 0 M34.82 0 C37.01 0.44, 39.37 0.98, 38.57 3.74 M34.82 0 C36.21 0.43, 37.8 2.16, 38.57 3.74 M38.57 3.74 C38.41 6.54, 38.84 9.42, 38.57 11.23 M38.57 3.74 C38.7 6.36, 38.65 8.77, 38.57 11.23 M38.57 11.23 C38.28 13.5, 37.95 14.87, 34.82 14.98 M38.57 11.23 C38.95 14.52, 37.02 15.42, 34.82 14.98 M34.82 14.98 C22.74 15.59, 9.79 15.39, 3.74 14.98 M34.82 14.98 C28.32 14.87, 22.15 14.51, 3.74 14.98 M3.74 14.98 C0.31 14.92, 0.96 13.52, 0 11.23 M3.74 14.98 C0.68 15.75, -0.79 14.25, 0 11.23 M0 11.23 C-0.19 8.73, 0.34 6.03, 0 3.74 M0 11.23 C0.05 8.52, 0.03 5.68, 0 3.74 M0 3.74 C-0.93 0.61, 2.05 0.54, 3.74 0 M0 3.74 C-0.96 2.15, 0.27 0.42, 3.74 0" stroke="#1e1e1e" stroke-width="2" fill="none"></path></g><g stroke-linecap="round" transform="translate(10 32.545724255215646) rotate(0 42.630859375 38.322265625)"><path d="M19.16 0 C40.63 -3.4, 55.36 1.66, 66.1 0 C76.65 -3.52, 82.6 6.52, 85.26 19.16 C83.4 30.01, 82.35 34.59, 85.26 57.48 C84.26 73.03, 81.14 77.72, 66.1 76.64 C56.12 73.83, 37.38 79.65, 19.16 76.64 C6.09 75.76, -1.65 68.08, 0 57.48 C3.37 47.19, 0.22 35.83, 0 19.16 C1.72 8.07, 7.32 -1.75, 19.16 0" stroke="none" stroke-width="0" fill="#7950f2"></path><path d="M19.16 0 C30.74 -0.3, 43.9 2.06, 66.1 0 M19.16 0 C35.97 0.46, 51.87 0.46, 66.1 0 M66.1 0 C80.48 -0.55, 83.33 7.13, 85.26 19.16 M66.1 0 C77.34 1.82, 86.78 8.16, 85.26 19.16 M85.26 19.16 C86.36 29.67, 85.6 38.73, 85.26 57.48 M85.26 19.16 C85.9 31.3, 85.23 41.72, 85.26 57.48 M85.26 57.48 C86.52 70.05, 79.54 78.01, 66.1 76.64 M85.26 57.48 C84.66 71.14, 81.01 76.55, 66.1 76.64 M66.1 76.64 C52.55 77.89, 39.54 77.94, 19.16 76.64 M66.1 76.64 C55.64 75.96, 44.05 76.6, 19.16 76.64 M19.16 76.64 C8.31 76.23, -0.98 71.61, 0 57.48 M19.16 76.64 C4.8 77.69, 0.65 70.39, 0 57.48 M0 57.48 C2.04 47.73, 1.45 39.25, 0 19.16 M0 57.48 C-0.06 44.98, -0.97 33.1, 0 19.16 M0 19.16 C1.61 7.47, 4.72 1.58, 19.16 0 M0 19.16 C-1.95 7.23, 6.93 -0.14, 19.16 0" stroke="#1e1e1e" stroke-width="2" fill="none"></path></g><g stroke-linecap="round" transform="translate(38.662819688312084 96.89204723666899) rotate(269.315648468081 13.974609375 10.47265625)"><path d="M5.24 0 C11.09 -2.1, 11.47 -0.74, 22.71 0 C28.98 2.26, 29.03 1.31, 27.95 5.24 C26.5 7.26, 29.54 10.89, 27.95 15.71 C27.07 17.55, 24.03 20, 22.71 20.95 C19.13 20.87, 14.61 22.69, 5.24 20.95 C3.43 21.88, -1.75 16.55, 0 15.71 C0.44 12.83, -0.55 10.93, 0 5.24 C-2 -1.76, 5.25 2.7, 5.24 0" stroke="none" stroke-width="0" fill="#ffd8a8"></path><path d="M5.24 0 C9.46 -1.83, 15.29 -1.31, 22.71 0 M5.24 0 C11.39 -0.56, 18.61 0.43, 22.71 0 M22.71 0 C27.27 0.53, 28.64 1.69, 27.95 5.24 M22.71 0 C27.72 2.08, 28.83 3.45, 27.95 5.24 M27.95 5.24 C27.82 8.43, 28.64 10.65, 27.95 15.71 M27.95 5.24 C27.85 8.85, 28.4 12, 27.95 15.71 M27.95 15.71 C28.89 17.29, 27.18 19.44, 22.71 20.95 M27.95 15.71 C27.29 19.26, 26.43 19.34, 22.71 20.95 M22.71 20.95 C18.74 20.25, 16.67 19.91, 5.24 20.95 M22.71 20.95 C15.93 20.52, 10.54 21.77, 5.24 20.95 M5.24 20.95 C0.22 22.21, -1.78 19.4, 0 15.71 M5.24 20.95 C2 21.01, -0.04 17.76, 0 15.71 M0 15.71 C0.63 12.67, 0.89 10.49, 0 5.24 M0 15.71 C0.42 11.98, -0.09 9.15, 0 5.24 M0 5.24 C-1.95 1.73, 2.61 -1.23, 5.24 0 M0 5.24 C-2.25 0.04, 1.83 -1.44, 5.24 0" stroke="#1e1e1e" stroke-width="2" fill="none"></path></g><g stroke-linecap="round" transform="translate(27.40206473213948 45.15652205235256) rotate(269.315648468081 25.4296875 23.859375)"><path d="M26.23 -0.89 C31.31 -0.79, 38.04 3.76, 42.21 7.27 C46.37 10.79, 50.34 15.41, 51.22 20.21 C52.1 25.01, 50.51 31.62, 47.49 36.08 C44.48 40.54, 38.5 45.18, 33.14 46.94 C27.78 48.7, 20.48 48.72, 15.34 46.65 C10.21 44.57, 4.62 39.35, 2.33 34.48 C0.04 29.61, 0.3 22.32, 1.61 17.43 C2.92 12.55, 5.67 8.2, 10.2 5.18 C14.72 2.16, 25.28 -0.04, 28.74 -0.69 C32.2 -1.35, 31.01 0.79, 30.95 1.26 M25.73 -1.12 C30.95 -1.1, 38.06 3.83, 42.38 7.58 C46.69 11.34, 50.92 16.6, 51.62 21.43 C52.31 26.25, 49.71 32.09, 46.56 36.54 C43.41 41, 38.09 46.73, 32.71 48.15 C27.34 49.58, 19.11 47.37, 14.33 45.11 C9.55 42.84, 6.38 39.1, 4.04 34.54 C1.7 29.99, -0.58 22.8, 0.29 17.78 C1.16 12.75, 5.04 7.4, 9.24 4.39 C13.45 1.39, 22.4 0.38, 25.51 -0.25 C28.62 -0.89, 27.76 0.2, 27.92 0.59" stroke="none" stroke-width="0" fill="#ffd8a8"></path><path d="M17.87 0.78 C22.45 -1.19, 28.94 -0.29, 34.01 1.71 C39.08 3.72, 45.51 8.29, 48.29 12.79 C51.06 17.29, 51.81 23.67, 50.67 28.71 C49.52 33.75, 45.57 39.8, 41.45 43.03 C37.32 46.26, 31.26 48.33, 25.94 48.1 C20.62 47.86, 13.83 44.92, 9.52 41.61 C5.22 38.31, 1.09 33.21, 0.09 28.27 C-0.91 23.32, 0.11 16.6, 3.5 11.95 C6.9 7.29, 17.22 2.07, 20.46 0.34 C23.7 -1.39, 22.98 1.19, 22.95 1.56 M27.79 -1.38 C32.93 -1.4, 40 1.72, 43.75 5.49 C47.49 9.27, 49.78 16.2, 50.28 21.29 C50.77 26.39, 49.91 31.83, 46.72 36.06 C43.54 40.3, 36.17 45.13, 31.15 46.68 C26.14 48.24, 21.51 47.27, 16.63 45.39 C11.76 43.52, 4.71 39.85, 1.89 35.43 C-0.93 31.01, -1.8 24, -0.31 18.88 C1.18 13.76, 6.46 7.97, 10.81 4.71 C15.16 1.45, 23.13 -0.23, 25.81 -0.7 C28.49 -1.16, 26.89 1.24, 26.89 1.92" stroke="#1e1e1e" stroke-width="2" fill="none"></path></g></svg>