<svg version="1.1" xmlns="http://www.w3.org/2000/svg" viewBox="0 0 108.6787703501941 140.8422378015016" width="108.6787703501941" height="140.8422378015016">
  <!-- svg-source:excalidraw -->
  
  <defs>
    <style class="style-fonts">
      @font-face {
        font-family: "Virgil";
        src: url("https://excalidraw.com/Virgil.woff2");
      }
      @font-face {
        font-family: "Cascadia";
        src: url("https://excalidraw.com/Cascadia.woff2");
      }
      @font-face {
        font-family: "Assistant";
        src: url("https://excalidraw.com/Assistant-Regular.woff2");
      }
    </style>
    
  </defs>
  <g stroke-linecap="round" transform="translate(36.05749904337608 109.06643921733757) rotate(337.5387531331347 19.283203125 7.48828125)"><path d="M3.74 0 C11.65 -0.82, 25.39 -1.94, 34.82 0 C36.2 2.21, 40.63 0.88, 38.57 3.74 C37.83 5.01, 38.76 8.41, 38.57 11.23 C38.26 15.93, 35.55 12.48, 34.82 14.98 C25.1 12.45, 21.34 17.45, 3.74 14.98 C1.31 16.28, -1.63 16.18, 0 11.23 C0.27 7.83, 0.74 6.62, 0 3.74 C-1.85 1.52, 1.59 0.84, 3.74 0" stroke="none" stroke-width="0" fill="#868e96"></path><path d="M3.74 0 C10.93 -0.76, 20.15 -0.34, 34.82 0 M3.74 0 C10.67 0.31, 17.12 0.35, 34.82 0 M34.82 0 C37.51 0.16, 37.66 0.9, 38.57 3.74 M34.82 0 C36.57 0.98, 37.97 1.77, 38.57 3.74 M38.57 3.74 C38.93 5.82, 38.84 7.82, 38.57 11.23 M38.57 3.74 C38.7 5.88, 38.37 7.57, 38.57 11.23 M38.57 11.23 C39.19 14.27, 36.83 14.31, 34.82 14.98 M38.57 11.23 C37.88 13.46, 36.53 15.35, 34.82 14.98 M34.82 14.98 C25.23 14.6, 14.94 14.15, 3.74 14.98 M34.82 14.98 C26.36 14.71, 17.95 15.19, 3.74 14.98 M3.74 14.98 C0.34 15.07, -0.83 12.96, 0 11.23 M3.74 14.98 C2.33 14.59, 0.75 14.26, 0 11.23 M0 11.23 C-0.27 9.15, -0.26 7.78, 0 3.74 M0 11.23 C-0.01 8.28, 0.04 5.38, 0 3.74 M0 3.74 C0.71 1.39, 0.41 -0.39, 3.74 0 M0 3.74 C-0.05 0.52, 1.54 0.94, 3.74 0" stroke="#1e1e1e" stroke-width="2" fill="none"></path></g><g stroke-linecap="round" transform="translate(36.243371439208204 16.919422171883525) rotate(337.0766447889431 19.283203125 7.48828125)"><path d="M3.74 0 C16.95 -1.51, 26.8 2.28, 34.82 0 C39.39 -0.37, 38.22 3.81, 38.57 3.74 C38.58 5.65, 38.37 7.62, 38.57 11.23 C36.79 11.23, 35.9 15.46, 34.82 14.98 C27.13 17.04, 15.95 15.88, 3.74 14.98 C-0.38 17.43, 1.8 12.65, 0 11.23 C0.68 10.06, -0.71 7.16, 0 3.74 C0.34 2.09, 0.79 0.23, 3.74 0" stroke="none" stroke-width="0" fill="#868e96"></path><path d="M3.74 0 C16.16 -0.13, 26 0.79, 34.82 0 M3.74 0 C16.01 0.35, 28.11 -0.06, 34.82 0 M34.82 0 C36.41 -0.35, 37.92 2.1, 38.57 3.74 M34.82 0 C36.72 0.52, 38.13 1.7, 38.57 3.74 M38.57 3.74 C38.86 6.12, 38.46 8.02, 38.57 11.23 M38.57 3.74 C38.42 5.23, 38.71 7, 38.57 11.23 M38.57 11.23 C38.08 13.06, 36.72 14.74, 34.82 14.98 M38.57 11.23 C37.78 14.1, 37.36 13.95, 34.82 14.98 M34.82 14.98 C25.78 14.16, 18.45 15.69, 3.74 14.98 M34.82 14.98 C22.73 14.93, 10.24 14.9, 3.74 14.98 M3.74 14.98 C0.41 14.2, 0.94 13.39, 0 11.23 M3.74 14.98 C2 15.51, -0.63 13.32, 0 11.23 M0 11.23 C-0.24 9.29, 0.36 6.59, 0 3.74 M0 11.23 C0.02 8.75, 0.14 6.37, 0 3.74 M0 3.74 C-0.84 0.86, 1.2 -0.64, 3.74 0 M0 3.74 C0.29 2.19, 1.6 0.81, 3.74 0" stroke="#1e1e1e" stroke-width="2" fill="none"></path></g><g stroke-linecap="round" transform="translate(13.4170516001941 32.545724255215646) rotate(0 42.630859375 38.322265625)"><path d="M19.16 0 C30.85 3.57, 48.52 0.01, 66.1 0 C78.4 3.54, 81.8 3.32, 85.26 19.16 C84.91 30.24, 82.87 31.77, 85.26 57.48 C83.3 70.93, 79.04 73.74, 66.1 76.64 C56.71 79.25, 44.88 80.84, 19.16 76.64 C8.88 75.14, -0.76 71.12, 0 57.48 C-3.05 48.88, -0.02 40.69, 0 19.16 C-0.64 6.7, 9.27 3.3, 19.16 0" stroke="none" stroke-width="0" fill="#7950f2"></path><path d="M19.16 0 C28.47 1.48, 43.07 1.29, 66.1 0 M19.16 0 C37.66 -0.3, 54.88 -0.81, 66.1 0 M66.1 0 C77.58 1.71, 84.23 7.3, 85.26 19.16 M66.1 0 C78 0.91, 85.21 8.54, 85.26 19.16 M85.26 19.16 C84.74 30.85, 83.73 46.2, 85.26 57.48 M85.26 19.16 C85.51 34.97, 84.4 49.02, 85.26 57.48 M85.26 57.48 C84.06 69.79, 77.51 77.3, 66.1 76.64 M85.26 57.48 C85.35 68.2, 77.93 76.3, 66.1 76.64 M66.1 76.64 C52.91 77.81, 42.64 76.13, 19.16 76.64 M66.1 76.64 C54.86 76.82, 44.61 75.95, 19.16 76.64 M19.16 76.64 C8.27 75.97, 1.31 71.19, 0 57.48 M19.16 76.64 C5.12 75.83, -0.28 68.49, 0 57.48 M0 57.48 C2.05 46.75, 0.81 39.07, 0 19.16 M0 57.48 C0.69 47.09, -0.86 36.04, 0 19.16 M0 19.16 C-0.09 5.12, 6.9 1.64, 19.16 0 M0 19.16 C0.7 8.01, 8.43 -2.09, 19.16 0" stroke="#1e1e1e" stroke-width="2" fill="none"></path></g><g stroke-linecap="round" transform="translate(13.186373760761853 30.81458684460722) rotate(47.524435689906944 13.974609375 10.47265625)"><path d="M5.24 0 C13.31 -2.11, 13.04 -1.68, 22.71 0 C26.88 0.17, 25.05 -1.78, 27.95 5.24 C29.07 7.91, 29.91 14.26, 27.95 15.71 C26.45 18.44, 27.07 18.58, 22.71 20.95 C16.53 21.14, 10.72 20.17, 5.24 20.95 C2.06 23.83, 3.3 18.59, 0 15.71 C1.17 10.47, -0.51 6.89, 0 5.24 C-1.57 2.78, 4.19 -3.41, 5.24 0" stroke="none" stroke-width="0" fill="#ffd8a8"></path><path d="M5.24 0 C10.4 -0.79, 13.36 -0.55, 22.71 0 M5.24 0 C11.44 0.43, 17.45 -0.5, 22.71 0 M22.71 0 C25.2 -1.79, 29.61 3.71, 27.95 5.24 M22.71 0 C23.97 -1.07, 29.39 3, 27.95 5.24 M27.95 5.24 C27.63 7.15, 28.22 10.53, 27.95 15.71 M27.95 5.24 C27.74 6.92, 27.5 9.49, 27.95 15.71 M27.95 15.71 C29.47 20.96, 26.05 19.35, 22.71 20.95 M27.95 15.71 C27.81 19.57, 24.11 21.17, 22.71 20.95 M22.71 20.95 C18.34 22.25, 15.95 20.15, 5.24 20.95 M22.71 20.95 C17.51 20.18, 13.97 21.58, 5.24 20.95 M5.24 20.95 C-0.01 21.48, -0.47 18.69, 0 15.71 M5.24 20.95 C1.86 20.52, 1.64 19.52, 0 15.71 M0 15.71 C-0.63 13.71, 0.9 11.5, 0 5.24 M0 15.71 C-0.19 12.05, -0.41 7.72, 0 5.24 M0 5.24 C1.7 3.34, 1.46 -0.26, 5.24 0 M0 5.24 C2.26 -0.46, -0.22 -2.08, 5.24 0" stroke="#1e1e1e" stroke-width="2" fill="none"></path></g><g stroke-linecap="round" transform="translate(28.10504480902091 45.26837942211296) rotate(47.524435689906944 25.4296875 23.859375)"><path d="M26.21 -0.83 C31.36 -1.14, 37.92 2.37, 41.87 5.93 C45.83 9.5, 48.93 15.45, 49.94 20.57 C50.95 25.68, 50.56 32.14, 47.94 36.61 C45.32 41.08, 39.68 45.82, 34.22 47.37 C28.77 48.91, 20.34 48.01, 15.22 45.89 C10.11 43.77, 6.05 38.98, 3.52 34.66 C1 30.34, -1.07 24.91, 0.07 19.97 C1.22 15.04, 5.63 8.19, 10.38 5.06 C15.13 1.93, 25.27 1.98, 28.58 1.18 C31.89 0.38, 30.41 0.01, 30.23 0.26 M29.28 -1 C34.31 -0.53, 40.78 5.12, 44.39 9.14 C47.99 13.15, 51.13 17.85, 50.92 23.08 C50.72 28.32, 46.49 36.49, 43.14 40.55 C39.79 44.61, 35.82 47, 30.81 47.47 C25.8 47.94, 17.74 45.83, 13.07 43.36 C8.4 40.89, 4.8 37.38, 2.8 32.65 C0.8 27.92, -0.71 20.09, 1.07 14.98 C2.85 9.87, 8.42 4.19, 13.48 2 C18.53 -0.19, 28.77 2.01, 31.38 1.85 C33.99 1.7, 29.37 0.83, 29.14 1.06" stroke="none" stroke-width="0" fill="#ffd8a8"></path><path d="M21.58 0.74 C26.65 -0.41, 33.97 1.07, 38.5 3.42 C43.04 5.78, 47.13 10.02, 48.81 14.87 C50.48 19.72, 50.11 27.77, 48.55 32.52 C47 37.27, 44.06 40.79, 39.45 43.37 C34.84 45.96, 26.37 48.77, 20.92 48.04 C15.46 47.31, 10.33 43.04, 6.73 38.97 C3.14 34.9, -0.46 28.75, -0.67 23.61 C-0.88 18.46, 1.25 12.03, 5.48 8.11 C9.71 4.18, 21.09 1.38, 24.71 0.06 C28.33 -1.26, 27.25 -0.14, 27.19 0.2 M14.38 4.24 C18.94 1.52, 25.19 -1.56, 30.32 -0.73 C35.46 0.09, 42.01 4.98, 45.2 9.2 C48.4 13.42, 49.81 19.7, 49.49 24.57 C49.17 29.45, 46.4 34.74, 43.27 38.47 C40.13 42.2, 35.68 45.87, 30.66 46.95 C25.65 48.02, 18.2 47.59, 13.17 44.93 C8.15 42.26, 2.44 36.11, 0.51 30.95 C-1.43 25.8, -0.4 18.87, 1.56 14.02 C3.52 9.16, 10.12 3.39, 12.25 1.83 C14.39 0.27, 14.21 4.07, 14.35 4.66" stroke="#1e1e1e" stroke-width="2" fill="none"></path></g></svg>