<svg version="1.1" xmlns="http://www.w3.org/2000/svg" viewBox="0 0 114.98702566964403 140.8422378015016" width="114.98702566964403" height="140.8422378015016">
  <!-- svg-source:excalidraw -->
  
  <defs>
    <style class="style-fonts">
      @font-face {
        font-family: "Virgil";
        src: url("https://excalidraw.com/Virgil.woff2");
      }
      @font-face {
        font-family: "Cascadia";
        src: url("https://excalidraw.com/Cascadia.woff2");
      }
      @font-face {
        font-family: "Assistant";
        src: url("https://excalidraw.com/Assistant-Regular.woff2");
      }
    </style>
    
  </defs>
  <g stroke-linecap="round" transform="translate(42.36575436282601 109.06643921733757) rotate(337.5387531331347 19.283203125 7.48828125)"><path d="M3.74 0 C13.25 -0.71, 18.27 2.22, 34.82 0 C34.82 -2.22, 36.22 1.5, 38.57 3.74 C37.89 5.34, 38.02 9, 38.57 11.23 C38.69 11.63, 34.77 16.75, 34.82 14.98 C20.93 17.64, 12.1 14.1, 3.74 14.98 C0.7 15.6, -1.71 15.6, 0 11.23 C0.2 8.6, -0.1 5.42, 0 3.74 C2.08 3.63, 0.81 1.02, 3.74 0" stroke="none" stroke-width="0" fill="#868e96"></path><path d="M3.74 0 C13.27 0.49, 21.89 0.15, 34.82 0 M3.74 0 C15.67 -0.2, 28.17 0.4, 34.82 0 M34.82 0 C36.8 0.45, 38.19 1.64, 38.57 3.74 M34.82 0 C37.29 1.08, 38.92 2.03, 38.57 3.74 M38.57 3.74 C38.22 6.6, 38.92 8.47, 38.57 11.23 M38.57 3.74 C38.5 5.52, 38.48 7.5, 38.57 11.23 M38.57 11.23 C37.88 14.05, 37.36 14.08, 34.82 14.98 M38.57 11.23 C38.09 13.56, 36.96 13.83, 34.82 14.98 M34.82 14.98 C28.77 15.02, 20.15 15.03, 3.74 14.98 M34.82 14.98 C24.59 14.61, 15.65 14.82, 3.74 14.98 M3.74 14.98 C1.9 15.44, -0.55 13.38, 0 11.23 M3.74 14.98 C1.11 14.1, -0.76 12.9, 0 11.23 M0 11.23 C0.07 8.47, -0.13 5.89, 0 3.74 M0 11.23 C-0.18 9.05, -0.03 6.9, 0 3.74 M0 3.74 C0.26 2.07, 1.55 0.7, 3.74 0 M0 3.74 C1.02 0.2, 1.04 0.49, 3.74 0" stroke="#1e1e1e" stroke-width="2" fill="none"></path></g><g stroke-linecap="round" transform="translate(42.55162675865904 16.919422171883525) rotate(337.0766447889431 19.283203125 7.48828125)"><path d="M3.74 0 C15.36 2.62, 25.17 -2.16, 34.82 0 C34.97 0.25, 39.57 0.94, 38.57 3.74 C37.97 6.81, 38.55 8.72, 38.57 11.23 C36.02 15.5, 39.78 15.04, 34.82 14.98 C25.75 14.27, 12.52 15.98, 3.74 14.98 C-0.46 16.85, 2.44 11.88, 0 11.23 C-0.18 8.99, 0.77 7.48, 0 3.74 C-0.44 2.27, -0.11 0.5, 3.74 0" stroke="none" stroke-width="0" fill="#868e96"></path><path d="M3.74 0 C16.1 0.17, 27.64 0.1, 34.82 0 M3.74 0 C13.26 0.48, 23.16 0.28, 34.82 0 M34.82 0 C36.94 0.39, 38.54 2.18, 38.57 3.74 M34.82 0 C37.68 0.78, 39.02 0.8, 38.57 3.74 M38.57 3.74 C38.9 5.25, 38.36 7.72, 38.57 11.23 M38.57 3.74 C38.44 6.35, 38.42 9.11, 38.57 11.23 M38.57 11.23 C38.6 12.83, 36.91 14.83, 34.82 14.98 M38.57 11.23 C38.21 12.58, 36.44 14.64, 34.82 14.98 M34.82 14.98 C22.33 14.9, 11.6 14.05, 3.74 14.98 M34.82 14.98 C25.67 14.69, 15.89 15.09, 3.74 14.98 M3.74 14.98 C0.7 14.62, -0.12 12.96, 0 11.23 M3.74 14.98 C0.49 14.14, 0.67 14.75, 0 11.23 M0 11.23 C-0.1 9.66, -0.08 8.32, 0 3.74 M0 11.23 C0.02 8.76, 0.08 6.68, 0 3.74 M0 3.74 C0.3 1.95, 2.14 -0.91, 3.74 0 M0 3.74 C-0.2 1.74, 0.55 -0.5, 3.74 0" stroke="#1e1e1e" stroke-width="2" fill="none"></path></g><g stroke-linecap="round" transform="translate(19.725306919644026 32.545724255215646) rotate(0 42.630859375 38.322265625)"><path d="M19.16 0 C29.12 -3.9, 42.75 -0.48, 66.1 0 C80.26 -0.42, 88.3 3.93, 85.26 19.16 C85.05 24.08, 81.36 37.25, 85.26 57.48 C88.67 70.35, 80.68 74.39, 66.1 76.64 C46.83 77.15, 26.7 78.89, 19.16 76.64 C9.77 74.09, 0.37 70.73, 0 57.48 C3 48.05, -0.49 33.44, 0 19.16 C-1.88 7.07, 8.44 -3.22, 19.16 0" stroke="none" stroke-width="0" fill="#7950f2"></path><path d="M19.16 0 C37.99 0.26, 53.22 -1.93, 66.1 0 M19.16 0 C31.08 0.05, 43.65 -0.01, 66.1 0 M66.1 0 C78.83 1.87, 85.88 7.75, 85.26 19.16 M66.1 0 C79.79 -0.9, 84.11 4.33, 85.26 19.16 M85.26 19.16 C84.71 35.09, 86.73 47.53, 85.26 57.48 M85.26 19.16 C84.35 28.41, 85.07 36.11, 85.26 57.48 M85.26 57.48 C84.44 69.96, 78.25 74.65, 66.1 76.64 M85.26 57.48 C83.5 69.59, 80.63 78.67, 66.1 76.64 M66.1 76.64 C52.71 74.8, 38.87 74.95, 19.16 76.64 M66.1 76.64 C56.3 76.95, 44.64 76.13, 19.16 76.64 M19.16 76.64 C6.14 75.11, -1.32 68.81, 0 57.48 M19.16 76.64 C7.72 78.68, -2.02 70.87, 0 57.48 M0 57.48 C-0.27 48.31, 0.38 34.61, 0 19.16 M0 57.48 C0.27 48.3, 0.32 38.18, 0 19.16 M0 19.16 C1.78 4.57, 6.03 0.86, 19.16 0 M0 19.16 C-1.4 5.39, 8.34 1.83, 19.16 0" stroke="#1e1e1e" stroke-width="2" fill="none"></path></g><g stroke-linecap="round" transform="translate(10 58.64210104360882) rotate(0 13.974609375 10.47265625)"><path d="M5.24 0 C9.36 0.57, 20.38 -0.1, 22.71 0 C29.25 -2.45, 24.49 -0.22, 27.95 5.24 C26.11 9.86, 29.74 11.96, 27.95 15.71 C29.75 16.95, 29.6 23.44, 22.71 20.95 C16.13 23.29, 16.64 18.79, 5.24 20.95 C2.12 21.42, 1.16 18.56, 0 15.71 C-0.47 13.22, -1.14 9.6, 0 5.24 C2.05 -1.48, 0.58 -3.27, 5.24 0" stroke="none" stroke-width="0" fill="#ffd8a8"></path><path d="M5.24 0 C11.22 -1.61, 16.02 -1.16, 22.71 0 M5.24 0 C11.65 0.27, 18.7 0.74, 22.71 0 M22.71 0 C26.83 1.36, 28.74 0.97, 27.95 5.24 M22.71 0 C25.05 -2.06, 29.86 4.01, 27.95 5.24 M27.95 5.24 C28.47 6.85, 27.2 8.86, 27.95 15.71 M27.95 5.24 C27.9 7.66, 27.66 10.95, 27.95 15.71 M27.95 15.71 C27.32 17.2, 24.67 20.37, 22.71 20.95 M27.95 15.71 C29.7 21.23, 26.02 19.11, 22.71 20.95 M22.71 20.95 C17.75 19.33, 11.09 22.44, 5.24 20.95 M22.71 20.95 C17.57 20.72, 13.29 20.36, 5.24 20.95 M5.24 20.95 C0.43 19.5, 1.16 20.97, 0 15.71 M5.24 20.95 C-0.28 21.56, -0.54 18.62, 0 15.71 M0 15.71 C0.17 11.64, -0.39 9.27, 0 5.24 M0 15.71 C0.13 13.6, 0.44 10.28, 0 5.24 M0 5.24 C-0.36 2.6, 0.53 -0.86, 5.24 0 M0 5.24 C1.95 3.58, 1.42 -0.3, 5.24 0" stroke="#1e1e1e" stroke-width="2" fill="none"></path></g><g stroke-linecap="round" transform="translate(36.888671875 44.60303854360882) rotate(0 25.4296875 23.859375)"><path d="M14.35 2.32 C18.82 0.14, 26.41 0.35, 31.74 1.5 C37.07 2.66, 43.24 5.22, 46.35 9.27 C49.46 13.32, 50.97 20.54, 50.38 25.81 C49.8 31.09, 46.48 37.24, 42.84 40.93 C39.2 44.61, 33.76 47.35, 28.55 47.92 C23.35 48.49, 16.38 47.34, 11.62 44.34 C6.86 41.34, 1.46 35.12, -0.02 29.94 C-1.49 24.75, -0.76 18.05, 2.77 13.24 C6.31 8.44, 16.7 3.23, 21.18 1.12 C25.67 -1, 29.56 0.14, 29.67 0.56 M13.83 3.28 C18.45 1.2, 25.63 1.06, 30.75 1.83 C35.88 2.6, 41.37 4, 44.58 7.89 C47.79 11.78, 50.07 20.03, 50.02 25.18 C49.96 30.32, 48.04 34.87, 44.25 38.77 C40.46 42.66, 32.46 47.66, 27.28 48.54 C22.11 49.41, 17.41 47.1, 13.19 44.02 C8.96 40.95, 3.57 34.81, 1.93 30.1 C0.29 25.39, 1.5 20.39, 3.35 15.77 C5.21 11.15, 11.24 4.66, 13.06 2.38 C14.88 0.11, 13.8 1.5, 14.28 2.14" stroke="none" stroke-width="0" fill="#ffd8a8"></path><path d="M17.8 0.86 C22.53 -0.89, 29.98 -0.35, 35.13 1.63 C40.28 3.62, 46.05 8.21, 48.7 12.77 C51.36 17.33, 52.34 24.12, 51.03 29 C49.73 33.87, 45.41 38.76, 40.88 42.02 C36.36 45.28, 29.1 48.75, 23.89 48.54 C18.67 48.33, 13.59 44.19, 9.58 40.77 C5.57 37.35, 0.7 33, -0.18 28.03 C-1.07 23.05, 1.18 15.56, 4.28 10.92 C7.38 6.27, 15.69 1.94, 18.43 0.15 C21.18 -1.64, 20.48 -0.32, 20.75 0.17 M13.94 0.86 C18.37 -1.56, 25.02 -1.43, 30.57 0.31 C36.11 2.04, 43.88 7.24, 47.23 11.26 C50.58 15.29, 51.28 19.54, 50.67 24.45 C50.05 29.37, 47.55 36.88, 43.53 40.77 C39.52 44.65, 32.2 47.47, 26.58 47.75 C20.97 48.02, 13.88 45.4, 9.84 42.41 C5.81 39.42, 3.46 34.42, 2.36 29.81 C1.26 25.19, 1.37 19.39, 3.24 14.73 C5.11 10.07, 11.71 4.01, 13.58 1.83 C15.45 -0.35, 14.29 1.37, 14.44 1.64" stroke="#1e1e1e" stroke-width="2" fill="none"></path></g></svg>