<svg version="1.1" xmlns="http://www.w3.org/2000/svg" viewBox="0 0 116.9010881696413 140.8422378015016" width="116.9010881696413" height="140.8422378015016">
  <!-- svg-source:excalidraw -->
  
  <defs>
    <style class="style-fonts">
      @font-face {
        font-family: "Virgil";
        src: url("https://excalidraw.com/Virgil.woff2");
      }
      @font-face {
        font-family: "Cascadia";
        src: url("https://excalidraw.com/Cascadia.woff2");
      }
      @font-face {
        font-family: "Assistant";
        src: url("https://excalidraw.com/Assistant-Regular.woff2");
      }
    </style>
    
  </defs>
  <g stroke-linecap="round" transform="translate(32.64044744318198 109.06643921733757) rotate(337.5387531331347 19.283203125 7.48828125)"><path d="M3.74 0 C13.32 -2.52, 18.99 -0.84, 34.82 0 C36.66 0.13, 38.09 3.1, 38.57 3.74 C38.44 5.48, 38.73 9.24, 38.57 11.23 C39.35 15.56, 39.63 12.62, 34.82 14.98 C24.93 16.94, 19.35 14.36, 3.74 14.98 C0.9 17.54, -2.5 11.51, 0 11.23 C-0.12 10.49, -0.67 7.16, 0 3.74 C-1.42 1.74, 1.37 -2.09, 3.74 0" stroke="none" stroke-width="0" fill="#868e96"></path><path d="M3.74 0 C12.99 -0.21, 23.24 0.4, 34.82 0 M3.74 0 C13.21 0.41, 22.46 0.32, 34.82 0 M34.82 0 C36.96 -0.55, 37.75 1.01, 38.57 3.74 M34.82 0 C36.75 0.26, 39.4 0.57, 38.57 3.74 M38.57 3.74 C38.27 5.76, 38.94 7.49, 38.57 11.23 M38.57 3.74 C38.61 6.7, 38.41 9.52, 38.57 11.23 M38.57 11.23 C37.92 14.58, 36.8 15.43, 34.82 14.98 M38.57 11.23 C38.13 14.18, 37.29 16.05, 34.82 14.98 M34.82 14.98 C24.14 14.54, 13.35 15.87, 3.74 14.98 M34.82 14.98 C22.75 15.18, 9.81 14.57, 3.74 14.98 M3.74 14.98 C0.65 14.74, -0.68 14.05, 0 11.23 M3.74 14.98 C1.29 13.95, -0.47 13.56, 0 11.23 M0 11.23 C-0.07 9.51, 0.37 7.18, 0 3.74 M0 11.23 C-0.17 9.6, -0.15 7.79, 0 3.74 M0 3.74 C0.94 0.91, 1.9 0.46, 3.74 0 M0 3.74 C-0.63 0.84, 1.11 -0.88, 3.74 0" stroke="#1e1e1e" stroke-width="2" fill="none"></path></g><g stroke-linecap="round" transform="translate(32.826319839014104 16.919422171883525) rotate(337.0766447889431 19.283203125 7.48828125)"><path d="M3.74 0 C15.56 -0.25, 25.33 0.49, 34.82 0 C36.84 1.85, 38.93 -0.93, 38.57 3.74 C38.81 6.5, 38.86 8.34, 38.57 11.23 C40.88 11.37, 36.86 16.09, 34.82 14.98 C29.45 14.95, 19.61 17.88, 3.74 14.98 C-1.25 12.76, -2.35 13.98, 0 11.23 C-0.65 7.76, -0.52 6.35, 0 3.74 C0.12 -0.85, -1.3 1.78, 3.74 0" stroke="none" stroke-width="0" fill="#868e96"></path><path d="M3.74 0 C11.08 0.3, 16.53 -0.46, 34.82 0 M3.74 0 C14.26 0.22, 23.92 -0.41, 34.82 0 M34.82 0 C36.5 -0.24, 38.07 1.48, 38.57 3.74 M34.82 0 C38.15 -0.68, 37.82 2.22, 38.57 3.74 M38.57 3.74 C38.87 6.04, 38.87 8, 38.57 11.23 M38.57 3.74 C38.4 6.66, 38.45 9.87, 38.57 11.23 M38.57 11.23 C38.05 14.18, 36.94 15.37, 34.82 14.98 M38.57 11.23 C38.54 14.8, 37.68 15.76, 34.82 14.98 M34.82 14.98 C23.37 15.73, 14.69 13.93, 3.74 14.98 M34.82 14.98 C26.7 14.73, 18.76 14.94, 3.74 14.98 M3.74 14.98 C0.56 15.3, 0.04 12.83, 0 11.23 M3.74 14.98 C0.77 14.8, -0.36 12.58, 0 11.23 M0 11.23 C0.34 9.53, -0.29 7.87, 0 3.74 M0 11.23 C-0.12 8.72, 0.21 6.44, 0 3.74 M0 3.74 C0.65 1.71, 0.7 -0.35, 3.74 0 M0 3.74 C-0.14 0.37, 0.49 -0.83, 3.74 0" stroke="#1e1e1e" stroke-width="2" fill="none"></path></g><g stroke-linecap="round" transform="translate(10 32.545724255215646) rotate(0 42.630859375 38.322265625)"><path d="M19.16 0 C28.2 0.38, 38.4 2.76, 66.1 0 C79.38 -3.01, 83.86 6.23, 85.26 19.16 C86.53 30.76, 88.64 34.01, 85.26 57.48 C84.62 71.8, 76.69 75.09, 66.1 76.64 C47.56 80.07, 26.51 73.46, 19.16 76.64 C3.14 76.99, 1.39 69.83, 0 57.48 C-1.49 43.42, 0.64 25.11, 0 19.16 C-3.53 8.85, 9.79 0.09, 19.16 0" stroke="none" stroke-width="0" fill="#7950f2"></path><path d="M19.16 0 C31.51 -1.15, 44.58 0.97, 66.1 0 M19.16 0 C37.14 -0.88, 55.01 -0.57, 66.1 0 M66.1 0 C77.88 0.46, 86.7 5.2, 85.26 19.16 M66.1 0 C77.39 1.95, 84.74 4.39, 85.26 19.16 M85.26 19.16 C87.41 33.81, 87.57 47.8, 85.26 57.48 M85.26 19.16 C84.27 32.14, 84.4 43.87, 85.26 57.48 M85.26 57.48 C84.51 71.05, 78.83 78.52, 66.1 76.64 M85.26 57.48 C85.98 71.83, 79.79 75.75, 66.1 76.64 M66.1 76.64 C56.34 75.09, 41.71 78.28, 19.16 76.64 M66.1 76.64 C48.86 76.09, 32.14 76.65, 19.16 76.64 M19.16 76.64 C6.46 74.85, -0.82 69.96, 0 57.48 M19.16 76.64 C5.67 74.35, -1.76 69.59, 0 57.48 M0 57.48 C-1.94 42.95, -0.02 26.84, 0 19.16 M0 57.48 C1.26 45.28, 0.97 34.2, 0 19.16 M0 19.16 C-1.1 5.68, 6.14 -1.53, 19.16 0 M0 19.16 C-1.51 4.72, 7.72 2.03, 19.16 0" stroke="#1e1e1e" stroke-width="2" fill="none"></path></g><g stroke-linecap="round" transform="translate(78.9518694196413 59.76933318646752) rotate(0 13.974609375 10.47265625)"><path d="M5.24 0 C10.16 2.81, 21.21 -1.47, 22.71 0 C25.45 0.86, 25.58 4.34, 27.95 5.24 C28.06 9.97, 27.48 13.65, 27.95 15.71 C30.83 22.5, 25.59 22.36, 22.71 20.95 C15.57 20.1, 11.2 19.75, 5.24 20.95 C2.78 23.39, -3.41 17.77, 0 15.71 C-0.59 12.01, -1.9 7.94, 0 5.24 C1.06 2.08, 4.64 -0.34, 5.24 0" stroke="none" stroke-width="0" fill="#ffd8a8"></path><path d="M5.24 0 C9.61 1.54, 18.83 -1.61, 22.71 0 M5.24 0 C9.24 -0.68, 13.57 -0.3, 22.71 0 M22.71 0 C24.83 0.65, 28.03 -0.05, 27.95 5.24 M22.71 0 C25.26 -0.35, 27.23 -0.55, 27.95 5.24 M27.95 5.24 C28.84 7.49, 27.08 9.85, 27.95 15.71 M27.95 5.24 C27.42 8.14, 28.35 11.68, 27.95 15.71 M27.95 15.71 C29.26 20.13, 25.1 20.24, 22.71 20.95 M27.95 15.71 C27.67 17.44, 24.69 19.28, 22.71 20.95 M22.71 20.95 C16.92 20.38, 9.76 20.88, 5.24 20.95 M22.71 20.95 C17.06 20.63, 12.83 20.41, 5.24 20.95 M5.24 20.95 C2.26 22.58, 0.61 20.61, 0 15.71 M5.24 20.95 C3.79 18.86, -0.41 20.19, 0 15.71 M0 15.71 C0.88 13.06, -0.09 11.73, 0 5.24 M0 15.71 C0.14 13.77, 0.03 11.88, 0 5.24 M0 5.24 C-1.36 -0.18, 0.65 0.38, 5.24 0 M0 5.24 C0.11 -0.11, -0.51 1.57, 5.24 0" stroke="#1e1e1e" stroke-width="2" fill="none"></path></g><g stroke-linecap="round" transform="translate(29.153041294641298 45.73027068646752) rotate(0 25.4296875 23.859375)"><path d="M36.8 1.71 C41.69 3.7, 45.81 10.08, 48.13 14.81 C50.46 19.54, 52.14 25.14, 50.73 30.09 C49.33 35.04, 44.49 41.72, 39.71 44.5 C34.93 47.28, 27.59 47.39, 22.04 46.76 C16.49 46.12, 9.99 44.21, 6.39 40.68 C2.8 37.16, 0.6 30.85, 0.46 25.62 C0.33 20.39, 2.63 13.56, 5.57 9.33 C8.51 5.09, 12.07 0.87, 18.09 0.22 C24.12 -0.43, 37.3 4, 41.71 5.43 C46.12 6.86, 44.72 8.36, 44.54 8.82 M27.17 1.04 C32.12 0.9, 37.45 2.47, 41.4 5.46 C45.35 8.46, 49.72 13.7, 50.89 19.03 C52.05 24.37, 51.39 32.88, 48.37 37.46 C45.35 42.05, 38.05 45, 32.76 46.54 C27.46 48.07, 21.59 48.47, 16.62 46.66 C11.66 44.84, 5.48 39.97, 2.98 35.65 C0.48 31.34, 0.63 25.74, 1.65 20.79 C2.66 15.85, 5.19 9.4, 9.08 5.98 C12.97 2.56, 22.05 1.43, 24.97 0.29 C27.89 -0.85, 26.56 -0.99, 26.6 -0.86" stroke="none" stroke-width="0" fill="#ffd8a8"></path><path d="M14.1 2.27 C18.49 -0.47, 24.92 -1.11, 30.12 -0.06 C35.32 0.98, 41.77 4.4, 45.28 8.54 C48.79 12.69, 51.48 19.65, 51.17 24.8 C50.85 29.95, 47.12 35.73, 43.38 39.46 C39.64 43.2, 34.16 46.55, 28.74 47.18 C23.33 47.82, 15.53 45.83, 10.89 43.29 C6.26 40.75, 2.29 36.68, 0.93 31.93 C-0.42 27.17, -0.53 20.06, 2.76 14.78 C6.05 9.49, 16.14 2.71, 20.66 0.23 C25.17 -2.25, 29.64 -0.35, 29.85 -0.09 M16.83 2.46 C21.13 0.34, 27.41 -0.64, 32.4 0.62 C37.4 1.88, 43.91 5.78, 46.78 10.02 C49.65 14.25, 50.2 20.56, 49.63 26.04 C49.06 31.51, 47.45 39.2, 43.36 42.88 C39.26 46.56, 30.71 48.19, 25.06 48.1 C19.41 48.01, 13.54 45.57, 9.47 42.32 C5.4 39.07, 1.55 33.5, 0.64 28.6 C-0.26 23.7, 1.69 17.49, 4.02 12.92 C6.34 8.35, 12.6 3.12, 14.59 1.18 C16.58 -0.77, 15.54 0.58, 15.97 1.25" stroke="#1e1e1e" stroke-width="2" fill="none"></path></g></svg>