<svg version="1.1" xmlns="http://www.w3.org/2000/svg" viewBox="0 0 105.26171875 127.84067844958372" width="105.26171875" height="127.84067844958372">
  <!-- svg-source:excalidraw -->
  
  <defs>
    <style class="style-fonts">
      @font-face {
        font-family: "Virgil";
        src: url("https://excalidraw.com/Virgil.woff2");
      }
      @font-face {
        font-family: "Cascadia";
        src: url("https://excalidraw.com/Cascadia.woff2");
      }
      @font-face {
        font-family: "Assistant";
        src: url("https://excalidraw.com/Assistant-Regular.woff2");
      }
    </style>
    
  </defs>
  <g stroke-linecap="round" transform="translate(10 24.222165854976993) rotate(0 42.630859375 38.322265625)"><path d="M19.16 0 C34.2 -2.25, 44.16 1.97, 66.1 0 C80.91 -0.13, 84.83 8.92, 85.26 19.16 C83.58 29.59, 83.28 37.28, 85.26 57.48 C83.42 69.68, 77.15 74.78, 66.1 76.64 C52.56 78, 38.9 78.03, 19.16 76.64 C8.84 77.27, -2.25 73.07, 0 57.48 C0.96 46.36, 1.8 33.74, 0 19.16 C-3.21 8.45, 6.52 1.14, 19.16 0" stroke="none" stroke-width="0" fill="#228be6"></path><path d="M19.16 0 C30.48 -1.29, 39.36 -0.87, 66.1 0 M19.16 0 C29.35 -1.07, 41.34 0.47, 66.1 0 M66.1 0 C79.38 -1.24, 85.01 5.93, 85.26 19.16 M66.1 0 C77.63 1.38, 85.72 5.14, 85.26 19.16 M85.26 19.16 C86.39 33.04, 86.35 43.95, 85.26 57.48 M85.26 19.16 C84.14 30.43, 84.78 41.39, 85.26 57.48 M85.26 57.48 C85.27 72.12, 78.26 77.47, 66.1 76.64 M85.26 57.48 C87.25 69.24, 78.17 77.6, 66.1 76.64 M66.1 76.64 C52.79 78.77, 41.61 77.53, 19.16 76.64 M66.1 76.64 C50.81 76.62, 33.83 76.48, 19.16 76.64 M19.16 76.64 C7.66 75.91, 0.43 70.07, 0 57.48 M19.16 76.64 C5.43 78.38, 1.58 71.2, 0 57.48 M0 57.48 C1.42 47.94, 1.65 35.53, 0 19.16 M0 57.48 C-0.39 43.42, -0.27 29.98, 0 19.16 M0 19.16 C0.95 8.36, 7.2 -0.14, 19.16 0 M0 19.16 C1.88 6.3, 4.55 0.51, 19.16 0" stroke="#1e1e1e" stroke-width="2" fill="none"></path></g><g stroke-linecap="round" transform="translate(33.86899266098453 102.14701704545405) rotate(0 19.283203125 7.48828125)"><path d="M3.74 0 C12.11 1.82, 25.55 0.13, 34.82 0 C37.01 1.83, 36.83 1.51, 38.57 3.74 C37.96 6.65, 38.02 9.27, 38.57 11.23 C37.32 12.38, 36.19 17.3, 34.82 14.98 C20.38 15.48, 12.22 15.49, 3.74 14.98 C-0.37 17.01, -0.38 13.72, 0 11.23 C0.46 7.95, -0.89 6.24, 0 3.74 C0.09 2.07, 0.69 -2.34, 3.74 0" stroke="none" stroke-width="0" fill="#868e96"></path><path d="M3.74 0 C12.56 -0.34, 21.47 0.47, 34.82 0 M3.74 0 C15.99 0.55, 28.14 -0.21, 34.82 0 M34.82 0 C37.19 -0.23, 38.03 1.85, 38.57 3.74 M34.82 0 C37.55 -0.62, 38.7 0.62, 38.57 3.74 M38.57 3.74 C38.84 5.49, 38.54 6.63, 38.57 11.23 M38.57 3.74 C38.5 6.17, 38.54 8.67, 38.57 11.23 M38.57 11.23 C38.26 14.14, 38.18 14.54, 34.82 14.98 M38.57 11.23 C38.21 14.21, 36.79 14.64, 34.82 14.98 M34.82 14.98 C22.13 15.32, 10.47 14.64, 3.74 14.98 M34.82 14.98 C26.72 15.04, 19.52 14.82, 3.74 14.98 M3.74 14.98 C1.46 14.88, -0.42 14.48, 0 11.23 M3.74 14.98 C2.04 15.45, 0 13.66, 0 11.23 M0 11.23 C0.28 9.51, 0.22 7.07, 0 3.74 M0 11.23 C-0.09 9.62, 0.12 7.99, 0 3.74 M0 3.74 C0.41 1.18, 2.06 -0.04, 3.74 0 M0 3.74 C-0.92 1.5, 1.17 -0.19, 3.74 0" stroke="#1e1e1e" stroke-width="2" fill="none"></path></g><g stroke-linecap="round" transform="translate(34.05486505681802 10) rotate(0 19.283203125 7.48828125)"><path d="M3.74 0 C12.8 -0.34, 18.6 1.58, 34.82 0 C35.58 0.26, 40.63 -0.02, 38.57 3.74 C38.01 6.15, 38.04 8.35, 38.57 11.23 C37.44 16.05, 39.71 13.89, 34.82 14.98 C26.77 15.5, 13.56 17.08, 3.74 14.98 C0.87 14.97, 1.84 14.42, 0 11.23 C-0.92 9.58, -0.01 7.12, 0 3.74 C-0.56 -1.09, -0.19 -2.37, 3.74 0" stroke="none" stroke-width="0" fill="#868e96"></path><path d="M3.74 0 C10.37 0.43, 19.23 -0.71, 34.82 0 M3.74 0 C11.19 -0.45, 18.32 -0.25, 34.82 0 M34.82 0 C36.78 0.6, 38.76 0.71, 38.57 3.74 M34.82 0 C37.45 -0.63, 37.54 2.02, 38.57 3.74 M38.57 3.74 C38.54 6.45, 38.66 9.38, 38.57 11.23 M38.57 3.74 C38.56 6.38, 38.5 8.74, 38.57 11.23 M38.57 11.23 C39.43 13.29, 37.01 15.39, 34.82 14.98 M38.57 11.23 C38.04 13.39, 38.44 14.17, 34.82 14.98 M34.82 14.98 C23.28 14.54, 10.5 15.57, 3.74 14.98 M34.82 14.98 C25.18 14.8, 15 14.94, 3.74 14.98 M3.74 14.98 C0.83 15.73, 0.69 14.14, 0 11.23 M3.74 14.98 C1.25 14.9, -0.52 14.53, 0 11.23 M0 11.23 C0.22 7.91, -0.3 5.01, 0 3.74 M0 11.23 C0.11 9.21, 0.1 6.81, 0 3.74 M0 3.74 C0.82 1.21, 0.45 0.22, 3.74 0 M0 3.74 C-0.08 1.05, 1.56 0.41, 3.74 0" stroke="#343a40" stroke-width="2" fill="none"></path></g><g stroke-linecap="round" transform="translate(39.397448168828305 93.26932525149823) rotate(90.684351531919 13.974609375 10.47265625)"><path d="M5.24 0 C11.17 2.23, 15.76 0.33, 22.71 0 C29.07 -1.75, 29.44 -0.31, 27.95 5.24 C26.95 7.47, 27.03 13.35, 27.95 15.71 C31.26 17.7, 26.78 17.82, 22.71 20.95 C15.21 23.46, 11.19 20.99, 5.24 20.95 C4.3 21.9, -0.18 21, 0 15.71 C0.24 13.7, -0.24 8.81, 0 5.24 C-1.99 -1.53, 0.84 -1.17, 5.24 0" stroke="none" stroke-width="0" fill="#fcc2d7"></path><path d="M5.24 0 C11.28 -1.43, 13.03 0.34, 22.71 0 M5.24 0 C11.94 -0.09, 18.39 0.63, 22.71 0 M22.71 0 C26.6 -1.08, 28.18 0.65, 27.95 5.24 M22.71 0 C24.14 1.54, 30.19 3.24, 27.95 5.24 M27.95 5.24 C28.12 7.98, 28.24 12.28, 27.95 15.71 M27.95 5.24 C27.79 8.86, 28.4 11.83, 27.95 15.71 M27.95 15.71 C27.33 20.03, 25.28 20.36, 22.71 20.95 M27.95 15.71 C30.2 17.59, 28.12 20.19, 22.71 20.95 M22.71 20.95 C16.24 21.83, 11.84 19.83, 5.24 20.95 M22.71 20.95 C17.55 20.8, 11.65 21.54, 5.24 20.95 M5.24 20.95 C3.12 21.76, 0 19.07, 0 15.71 M5.24 20.95 C0.71 22.55, 2.23 21.07, 0 15.71 M0 15.71 C-0.82 11.26, -0.13 7.7, 0 5.24 M0 15.71 C0.16 11.99, 0.38 8.33, 0 5.24 M0 5.24 C-1.6 2.19, 1.6 -0.34, 5.24 0 M0 5.24 C0.62 2.57, 0.46 -1.59, 5.24 0" stroke="#1e1e1e" stroke-width="2" fill="none"></path></g><g stroke-linecap="round" transform="translate(27.748046875 41.5338000671818) rotate(90.684351531919 25.4296875 23.859375)"><path d="M20.57 1.11 C25.53 -0.58, 33.07 -0.43, 37.67 1.69 C42.26 3.81, 46.14 9.07, 48.14 13.83 C50.14 18.59, 51.08 25.16, 49.68 30.25 C48.28 35.34, 44.16 41.42, 39.76 44.37 C35.36 47.32, 28.78 48.52, 23.27 47.94 C17.77 47.37, 10.61 44.86, 6.73 40.92 C2.85 36.97, 0.22 29.52, -0.01 24.27 C-0.23 19.02, 1.55 13.38, 5.37 9.4 C9.19 5.41, 19.34 1.95, 22.92 0.37 C26.49 -1.2, 26.85 -0.52, 26.8 -0.06 M33.58 -0.05 C38.68 1.24, 43.98 7.26, 46.71 11.78 C49.45 16.3, 50.74 22.16, 49.98 27.06 C49.22 31.96, 46.11 37.79, 42.17 41.19 C38.23 44.58, 31.76 47.23, 26.35 47.43 C20.93 47.62, 14.07 45.09, 9.69 42.34 C5.31 39.58, 1.03 35.83, 0.08 30.89 C-0.87 25.95, 1.44 17.72, 3.99 12.7 C6.55 7.67, 10.61 2.52, 15.41 0.73 C20.21 -1.06, 29.91 2.01, 32.78 1.97 C35.65 1.93, 32.61 0.29, 32.65 0.47" stroke="none" stroke-width="0" fill="#fcc2d7"></path><path d="M27.75 0.03 C32.74 0.16, 39.74 3.17, 43.69 6.94 C47.63 10.71, 51.15 17.45, 51.42 22.66 C51.68 27.87, 48.74 34.29, 45.29 38.21 C41.85 42.13, 35.86 44.85, 30.76 46.18 C25.66 47.5, 19.37 48.23, 14.7 46.16 C10.03 44.1, 5.03 38.76, 2.74 33.79 C0.44 28.81, -0.55 21.43, 0.93 16.32 C2.41 11.2, 6.76 5.78, 11.62 3.08 C16.48 0.39, 26.81 0.48, 30.1 0.15 C33.4 -0.18, 31.35 0.73, 31.39 1.1 M30.2 1.13 C35 1.87, 41.05 4.94, 44.74 8.69 C48.43 12.43, 52.17 18.49, 52.31 23.59 C52.46 28.69, 49.45 35.21, 45.62 39.29 C41.79 43.37, 35.07 47.36, 29.35 48.04 C23.63 48.72, 15.85 46.13, 11.31 43.39 C6.77 40.65, 3.82 36.32, 2.1 31.6 C0.37 26.88, -1.11 19.95, 0.94 15.06 C2.99 10.18, 9.39 4.72, 14.39 2.27 C19.4 -0.18, 28.39 0.4, 30.98 0.37 C33.57 0.34, 29.9 1.59, 29.93 2.11" stroke="#1e1e1e" stroke-width="2" fill="none"></path></g></svg>