<svg version="1.1" xmlns="http://www.w3.org/2000/svg" viewBox="0 0 106.94327927876338 127.12357954545405" width="106.94327927876338" height="127.12357954545405">
  <!-- svg-source:excalidraw -->
  
  <defs>
    <style class="style-fonts">
      @font-face {
        font-family: "Virgil";
        src: url("https://excalidraw.com/Virgil.woff2");
      }
      @font-face {
        font-family: "Cascadia";
        src: url("https://excalidraw.com/Cascadia.woff2");
      }
      @font-face {
        font-family: "Assistant";
        src: url("https://excalidraw.com/Assistant-Regular.woff2");
      }
    </style>
    
  </defs>
  <g stroke-linecap="round" transform="translate(11.681560528763384 24.534665854976993) rotate(0 42.630859375 38.322265625)"><path d="M19.16 0 C33.84 1.06, 41.18 2.54, 66.1 0 C78.74 -2.88, 86.06 6.13, 85.26 19.16 C83.43 27.52, 87.65 42.89, 85.26 57.48 C85.13 69.83, 81.41 74.24, 66.1 76.64 C53.04 74.18, 37.24 74.4, 19.16 76.64 C5.81 74.92, -1.86 68.69, 0 57.48 C-0.06 39.44, -0.03 30.09, 0 19.16 C0.63 4.14, 9.2 -0.52, 19.16 0" stroke="none" stroke-width="0" fill="#228be6"></path><path d="M19.16 0 C31.62 -2.11, 44.04 -0.28, 66.1 0 M19.16 0 C29.26 -0.81, 40.86 -0.03, 66.1 0 M66.1 0 C77.57 -0.76, 84.37 5.06, 85.26 19.16 M66.1 0 C79.71 2.08, 83.46 4.9, 85.26 19.16 M85.26 19.16 C84.37 31.29, 85.15 42.85, 85.26 57.48 M85.26 19.16 C85.45 32.41, 84.44 47.42, 85.26 57.48 M85.26 57.48 C87.21 71.56, 79.81 76.38, 66.1 76.64 M85.26 57.48 C83.63 70.65, 76.92 77.3, 66.1 76.64 M66.1 76.64 C54.86 76.03, 40.73 78.37, 19.16 76.64 M66.1 76.64 C53.63 76.55, 43.05 76.14, 19.16 76.64 M19.16 76.64 C8.06 75.99, 0.43 71.01, 0 57.48 M19.16 76.64 C5.32 75.53, 1.28 70.73, 0 57.48 M0 57.48 C-0.76 48.68, -0.21 38.18, 0 19.16 M0 57.48 C-0.27 43.04, -0.71 29.41, 0 19.16 M0 19.16 C1.94 8.02, 7.41 1.31, 19.16 0 M0 19.16 C-2.13 4.74, 4.68 -0.13, 19.16 0" stroke="#1e1e1e" stroke-width="2" fill="none"></path></g><g stroke-linecap="round" transform="translate(35.55055318974837 102.14701704545405) rotate(0 19.283203125 7.48828125)"><path d="M3.74 0 C14.36 1.96, 25.25 -2.24, 34.82 0 C37.9 -0.19, 38.13 1.95, 38.57 3.74 C39.11 6.81, 38.48 8.66, 38.57 11.23 C40.4 11.99, 37.58 17.04, 34.82 14.98 C27.19 13.42, 18.78 13.5, 3.74 14.98 C-0.1 13.85, 2.32 16.12, 0 11.23 C0.15 9.96, 0.15 6.76, 0 3.74 C2.03 0.87, 1.24 1.84, 3.74 0" stroke="none" stroke-width="0" fill="#868e96"></path><path d="M3.74 0 C15.35 0.2, 27.19 -0.26, 34.82 0 M3.74 0 C15.99 0.27, 27.95 -0.13, 34.82 0 M34.82 0 C36.87 -0.66, 38.93 2.15, 38.57 3.74 M34.82 0 C36.42 -0.74, 38.83 2.28, 38.57 3.74 M38.57 3.74 C38.46 5.98, 38.77 8.69, 38.57 11.23 M38.57 3.74 C38.4 5.71, 38.75 7.55, 38.57 11.23 M38.57 11.23 C39.03 13.6, 36.61 15.15, 34.82 14.98 M38.57 11.23 C37.59 14.06, 37.08 15.27, 34.82 14.98 M34.82 14.98 C25.89 15.79, 15.7 14.62, 3.74 14.98 M34.82 14.98 C24.7 14.58, 14.01 14.77, 3.74 14.98 M3.74 14.98 C1.46 15.35, -0.47 13.24, 0 11.23 M3.74 14.98 C1.89 15.21, -0.68 13.8, 0 11.23 M0 11.23 C-0.02 8.35, 0.3 6.04, 0 3.74 M0 11.23 C-0.08 8.81, 0.18 6.28, 0 3.74 M0 3.74 C0.51 1.9, 0.32 -0.71, 3.74 0 M0 3.74 C-0.85 1.18, 0.53 0.59, 3.74 0" stroke="#1e1e1e" stroke-width="2" fill="none"></path></g><g stroke-linecap="round" transform="translate(35.7364255855814 10) rotate(0 19.283203125 7.48828125)"><path d="M3.74 0 C14.23 -2.41, 25.49 -0.52, 34.82 0 C36.88 0.7, 39.5 -0.21, 38.57 3.74 C38.59 5.36, 39.31 6.55, 38.57 11.23 C38.83 15.8, 36.05 16.06, 34.82 14.98 C26.85 13.52, 18.37 13.64, 3.74 14.98 C3.57 17.37, -1.09 14.14, 0 11.23 C0.15 9.03, 0.74 7.9, 0 3.74 C-0.01 3.09, 1.94 -0.13, 3.74 0" stroke="none" stroke-width="0" fill="#868e96"></path><path d="M3.74 0 C9.75 -0.41, 18.07 -0.78, 34.82 0 M3.74 0 C11.61 -0.26, 19.91 -0.4, 34.82 0 M34.82 0 C37.68 0.9, 37.78 0.6, 38.57 3.74 M34.82 0 C37.58 1.03, 38.86 0.54, 38.57 3.74 M38.57 3.74 C38.78 5.97, 38.36 8.09, 38.57 11.23 M38.57 3.74 C38.72 5.7, 38.62 7.39, 38.57 11.23 M38.57 11.23 C37.86 13.9, 36.47 15.26, 34.82 14.98 M38.57 11.23 C38.33 14.02, 37.33 16.05, 34.82 14.98 M34.82 14.98 C26.02 14.8, 18.51 14.65, 3.74 14.98 M34.82 14.98 C26.82 14.7, 18.1 15.06, 3.74 14.98 M3.74 14.98 C0.78 14.49, 0.56 13.94, 0 11.23 M3.74 14.98 C0.57 15.05, 0.73 13.31, 0 11.23 M0 11.23 C0.29 9.08, 0.16 6.42, 0 3.74 M0 11.23 C0.2 9.19, 0.11 6.96, 0 3.74 M0 3.74 C-0.92 0.53, 0.51 -0.06, 3.74 0 M0 3.74 C-0.72 1.84, 1.79 1.13, 3.74 0" stroke="#343a40" stroke-width="2" fill="none"></path></g><g stroke-linecap="round" transform="translate(13.186373760761398 77.90604504315706) rotate(312.47556431009303 13.974609375 10.47265625)"><path d="M5.24 0 C12.61 0.02, 18.04 1.1, 22.71 0 C27.5 -2.02, 25.46 3.95, 27.95 5.24 C29.27 7.71, 28.13 14.2, 27.95 15.71 C26.2 20.69, 24.15 21.19, 22.71 20.95 C16.73 19.43, 16.82 23.69, 5.24 20.95 C0.24 21.52, -3.12 19.8, 0 15.71 C1.44 11.58, -0.04 9.34, 0 5.24 C0.96 1.57, 3.54 -1.86, 5.24 0" stroke="none" stroke-width="0" fill="#fcc2d7"></path><path d="M5.24 0 C12.25 -1.27, 15.33 0, 22.71 0 M5.24 0 C10.82 -0.51, 17.5 0.86, 22.71 0 M22.71 0 C24.64 -1.29, 28.41 3.54, 27.95 5.24 M22.71 0 C26.79 -1.42, 27.66 1.22, 27.95 5.24 M27.95 5.24 C27.45 7.93, 27.44 9.45, 27.95 15.71 M27.95 5.24 C28.3 9.01, 27.68 13.01, 27.95 15.71 M27.95 15.71 C26.25 19.77, 25.78 21.46, 22.71 20.95 M27.95 15.71 C27.96 21.34, 25.49 21.9, 22.71 20.95 M22.71 20.95 C16.69 20.09, 8.7 22.6, 5.24 20.95 M22.71 20.95 C18.88 21.22, 14.26 20.46, 5.24 20.95 M5.24 20.95 C2.86 21.36, -1.18 19.32, 0 15.71 M5.24 20.95 C3.21 20.1, 0.49 18.98, 0 15.71 M0 15.71 C0.35 13, -0.15 9.83, 0 5.24 M0 15.71 C0.17 12.18, -0.59 7.59, 0 5.24 M0 5.24 C-1.48 1.63, 0.49 1.03, 5.24 0 M0 5.24 C1.09 4.01, 2.68 -0.17, 5.24 0" stroke="#1e1e1e" stroke-width="2" fill="none"></path></g><g stroke-linecap="round" transform="translate(28.105044809020455 37.022564965653146) rotate(312.47556431009303 25.4296875 23.859375)"><path d="M33.31 0.79 C38.52 2.1, 44.87 7.58, 47.81 12 C50.76 16.42, 51.92 22.42, 51 27.29 C50.08 32.16, 46.31 37.65, 42.29 41.22 C38.27 44.78, 32.19 48.36, 26.89 48.68 C21.59 48.99, 14.77 46.58, 10.49 43.1 C6.21 39.62, 2.55 32.99, 1.19 27.78 C-0.18 22.57, -0.14 16.27, 2.32 11.81 C4.78 7.36, 10.25 2.59, 15.96 1.07 C21.68 -0.46, 32.7 2.13, 36.6 2.67 C40.49 3.2, 39.62 3.86, 39.34 4.28 M24.84 -0.25 C30.28 -0.61, 37.69 2.75, 41.81 5.83 C45.93 8.91, 48.41 13.17, 49.54 18.23 C50.68 23.3, 51.11 31.63, 48.61 36.24 C46.1 40.86, 39.59 44.41, 34.53 45.94 C29.47 47.47, 23.36 46.86, 18.24 45.43 C13.12 44, 6.91 41.48, 3.8 37.37 C0.69 33.27, -1.1 26.02, -0.42 20.79 C0.25 15.55, 3.76 9.48, 7.86 5.98 C11.96 2.48, 21.45 0.81, 24.18 -0.24 C26.91 -1.28, 24.21 -0.96, 24.24 -0.29" stroke="none" stroke-width="0" fill="#fcc2d7"></path><path d="M24.52 -0.44 C29.5 -0.68, 36.24 2.48, 40.7 5.63 C45.16 8.78, 50.22 13.45, 51.28 18.44 C52.34 23.43, 49.69 30.93, 47.07 35.58 C44.44 40.24, 40.6 44.57, 35.52 46.36 C30.45 48.15, 21.96 48.1, 16.62 46.32 C11.27 44.54, 6.07 40, 3.45 35.68 C0.83 31.36, 0.12 25.35, 0.9 20.41 C1.68 15.47, 3.91 9.57, 8.14 6.02 C12.37 2.48, 22.74 -0.13, 26.28 -0.86 C29.82 -1.59, 29.18 1.03, 29.35 1.65 M22.46 0.48 C27.73 -0.12, 35.51 1.81, 40.13 4.99 C44.74 8.16, 48.85 14.55, 50.13 19.55 C51.41 24.56, 49.98 30.76, 47.79 35.01 C45.6 39.25, 41.98 42.96, 37 45.02 C32.01 47.09, 23.45 48.78, 17.88 47.4 C12.32 46.01, 6.32 41.23, 3.61 36.7 C0.9 32.18, 0.7 25.34, 1.61 20.24 C2.52 15.15, 5.33 9.43, 9.07 6.15 C12.81 2.88, 21.72 1.67, 24.05 0.62 C26.39 -0.44, 22.96 -0.56, 23.07 -0.2" stroke="#1e1e1e" stroke-width="2" fill="none"></path></g></svg>