<svg version="1.1" xmlns="http://www.w3.org/2000/svg" viewBox="0 0 108.08725249304916 127.12357954545405" width="108.08725249304916" height="127.12357954545405">
  <!-- svg-source:excalidraw -->
  
  <defs>
    <style class="style-fonts">
      @font-face {
        font-family: "Virgil";
        src: url("https://excalidraw.com/Virgil.woff2");
      }
      @font-face {
        font-family: "Cascadia";
        src: url("https://excalidraw.com/Cascadia.woff2");
      }
      @font-face {
        font-family: "Assistant";
        src: url("https://excalidraw.com/Assistant-Regular.woff2");
      }
    </style>
    
  </defs>
  <g stroke-linecap="round" transform="translate(12.825533743049164 24.534665854976993) rotate(0 42.630859375 38.322265625)"><path d="M19.16 0 C35.9 -1.68, 56.03 2.29, 66.1 0 C80.35 -0.01, 85.03 4.77, 85.26 19.16 C87.77 35.69, 82.6 44.92, 85.26 57.48 C82.6 70.06, 76.62 78.49, 66.1 76.64 C49.53 79.93, 33.34 74.11, 19.16 76.64 C7.19 76.39, -0.61 71.23, 0 57.48 C2.59 46.64, 0.26 31.3, 0 19.16 C2.54 3.98, 6.75 2.86, 19.16 0" stroke="none" stroke-width="0" fill="#228be6"></path><path d="M19.16 0 C36.79 1.12, 50.27 2.04, 66.1 0 M19.16 0 C36.29 -0.47, 54.06 0.77, 66.1 0 M66.1 0 C77.81 -1.19, 85.3 7.84, 85.26 19.16 M66.1 0 C80.44 -0.17, 84.68 6.58, 85.26 19.16 M85.26 19.16 C84.26 34.18, 83.81 48.12, 85.26 57.48 M85.26 19.16 C84.93 34.7, 84.31 49.03, 85.26 57.48 M85.26 57.48 C84.37 68.93, 79.6 78.45, 66.1 76.64 M85.26 57.48 C83.46 68.77, 79.41 78.71, 66.1 76.64 M66.1 76.64 C50.37 75.51, 36.75 76.98, 19.16 76.64 M66.1 76.64 C53.66 77.06, 43.99 77.04, 19.16 76.64 M19.16 76.64 C7.32 76.38, -1.42 70.6, 0 57.48 M19.16 76.64 C4.44 77.3, -0.48 70.85, 0 57.48 M0 57.48 C0.47 47.69, -1.24 33.83, 0 19.16 M0 57.48 C1.15 43.69, 1.01 30.97, 0 19.16 M0 19.16 C0.43 7.14, 5.46 -0.97, 19.16 0 M0 19.16 C1.28 6.86, 5.03 0.14, 19.16 0" stroke="#1e1e1e" stroke-width="2" fill="none"></path></g><g stroke-linecap="round" transform="translate(36.694526404033695 102.14701704545405) rotate(0 19.283203125 7.48828125)"><path d="M3.74 0 C15.69 1.95, 24.79 0.16, 34.82 0 C37.15 -1.17, 40.38 3.77, 38.57 3.74 C37.72 5.91, 37.9 9.4, 38.57 11.23 C36.94 15.06, 38.55 17.54, 34.82 14.98 C24.14 13.23, 14.23 15.12, 3.74 14.98 C0.81 15.68, 0.94 12.27, 0 11.23 C-0.09 9.39, 0.63 7.12, 0 3.74 C0.26 3.32, -0.02 1.08, 3.74 0" stroke="none" stroke-width="0" fill="#868e96"></path><path d="M3.74 0 C11.05 0.82, 19.74 -0.55, 34.82 0 M3.74 0 C13.31 0.5, 23.54 -0.24, 34.82 0 M34.82 0 C37.34 0.73, 39.25 1.17, 38.57 3.74 M34.82 0 C37.03 0.1, 39.58 1, 38.57 3.74 M38.57 3.74 C38.29 5.21, 38.9 6.68, 38.57 11.23 M38.57 3.74 C38.44 5.65, 38.48 7.57, 38.57 11.23 M38.57 11.23 C38.93 14.63, 36.53 14.33, 34.82 14.98 M38.57 11.23 C38.83 14.76, 37.61 14.27, 34.82 14.98 M34.82 14.98 C26.49 15.09, 16.43 15.01, 3.74 14.98 M34.82 14.98 C27.69 15.41, 19.81 15.01, 3.74 14.98 M3.74 14.98 C0.54 15.15, -0.85 14.02, 0 11.23 M3.74 14.98 C1.01 15.27, 0.01 14.8, 0 11.23 M0 11.23 C-0.18 9.1, 0.14 7.03, 0 3.74 M0 11.23 C0.12 9.14, 0 7.25, 0 3.74 M0 3.74 C-0.47 0.76, 1.8 0.21, 3.74 0 M0 3.74 C-0.68 1.32, 1.98 -0.42, 3.74 0" stroke="#1e1e1e" stroke-width="2" fill="none"></path></g><g stroke-linecap="round" transform="translate(36.88039879986718 10) rotate(0 19.283203125 7.48828125)"><path d="M3.74 0 C12.84 -0.28, 19.64 -1.45, 34.82 0 C39.13 2.52, 40.69 2.57, 38.57 3.74 C37.76 6.43, 37.87 9.72, 38.57 11.23 C39.8 16.29, 38.37 14.79, 34.82 14.98 C23.54 14.47, 10.66 15.36, 3.74 14.98 C2.18 13.52, -1.8 15.32, 0 11.23 C0.69 7.91, 0.1 6.67, 0 3.74 C-1.26 2.33, -0.23 0.18, 3.74 0" stroke="none" stroke-width="0" fill="#868e96"></path><path d="M3.74 0 C15.22 -0.62, 25.3 -0.92, 34.82 0 M3.74 0 C11.67 -0.44, 20.15 0.23, 34.82 0 M34.82 0 C38 -0.07, 38.31 1.33, 38.57 3.74 M34.82 0 C38.33 -0.25, 37.59 0.72, 38.57 3.74 M38.57 3.74 C38.9 5.76, 38.4 8.33, 38.57 11.23 M38.57 3.74 C38.46 6.18, 38.61 9.03, 38.57 11.23 M38.57 11.23 C37.78 13.08, 37.55 15.87, 34.82 14.98 M38.57 11.23 C38.86 13.02, 37.17 14.71, 34.82 14.98 M34.82 14.98 C26.64 15.12, 18.98 14.11, 3.74 14.98 M34.82 14.98 C23.65 15.01, 11.66 15.16, 3.74 14.98 M3.74 14.98 C0.4 15.26, -0.21 13.99, 0 11.23 M3.74 14.98 C1.26 16.05, -0.35 14.2, 0 11.23 M0 11.23 C0.17 8.17, -0.09 5.81, 0 3.74 M0 11.23 C0.01 9.58, -0.12 7.69, 0 3.74 M0 3.74 C0.56 1.45, 0.66 0.06, 3.74 0 M0 3.74 C0.73 0.83, 1.5 -0.11, 3.74 0" stroke="#343a40" stroke-width="2" fill="none"></path></g><g stroke-linecap="round" transform="translate(13.186373760761398 24.156708609438283) rotate(47.524435689906944 13.974609375 10.47265625)"><path d="M5.24 0 C11.48 -1.42, 20.31 3.05, 22.71 0 C29.14 1.84, 30.31 -1.58, 27.95 5.24 C26.63 8.6, 28.71 11.88, 27.95 15.71 C29.41 18.94, 29.14 20.81, 22.71 20.95 C18.33 21.77, 16.15 19.16, 5.24 20.95 C-0.74 23.15, 2.04 19.07, 0 15.71 C0.06 14.19, -1.05 10.46, 0 5.24 C-2.05 1.99, -0.09 -0.58, 5.24 0" stroke="none" stroke-width="0" fill="#fcc2d7"></path><path d="M5.24 0 C12.43 -1.29, 18.2 -1.53, 22.71 0 M5.24 0 C12.04 0.74, 19.4 0.04, 22.71 0 M22.71 0 C25.7 0.17, 29.71 1.31, 27.95 5.24 M22.71 0 C24.26 -1.05, 28.11 0.17, 27.95 5.24 M27.95 5.24 C27.67 7.92, 28.49 10.01, 27.95 15.71 M27.95 5.24 C28.09 8.45, 27.49 10.38, 27.95 15.71 M27.95 15.71 C28.41 20.99, 26.71 19.71, 22.71 20.95 M27.95 15.71 C27.66 18.67, 24.96 22.32, 22.71 20.95 M22.71 20.95 C16.17 19.4, 12.7 22.67, 5.24 20.95 M22.71 20.95 C15.71 21.07, 9.21 21.17, 5.24 20.95 M5.24 20.95 C1.33 21.46, 0.01 21.06, 0 15.71 M5.24 20.95 C1.04 21.9, 1.99 18.19, 0 15.71 M0 15.71 C-0.35 13.91, -0.78 10.94, 0 5.24 M0 15.71 C-0.27 12.66, 0.27 10.22, 0 5.24 M0 5.24 C-1.18 1.87, 3.02 -0.73, 5.24 0 M0 5.24 C0.49 1.53, 0.79 1.73, 5.24 0" stroke="#1e1e1e" stroke-width="2" fill="none"></path></g><g stroke-linecap="round" transform="translate(28.10504480902 38.9230011869422) rotate(47.524435689906944 25.4296875 23.859375)"><path d="M21.08 -0.02 C26.15 -1.29, 34.32 0.12, 39.01 2.98 C43.69 5.84, 47.63 12.08, 49.21 17.13 C50.78 22.19, 50.42 28.67, 48.44 33.31 C46.47 37.95, 41.96 42.73, 37.37 44.98 C32.77 47.22, 26.25 47.74, 20.88 46.8 C15.51 45.87, 8.58 43.38, 5.13 39.38 C1.69 35.37, 0.01 27.88, 0.21 22.78 C0.41 17.69, 1.85 12.54, 6.35 8.79 C10.84 5.04, 22.71 1.55, 27.18 0.3 C31.66 -0.96, 33.05 0.78, 33.2 1.25 M29.93 1.54 C35.3 2.45, 43.24 6.3, 46.85 10.31 C50.47 14.31, 52.25 20.84, 51.61 25.57 C50.97 30.29, 46.96 35.03, 43.02 38.67 C39.08 42.31, 33.29 46.35, 27.98 47.39 C22.66 48.43, 15.44 47.35, 11.11 44.92 C6.78 42.49, 3.44 37.82, 1.99 32.81 C0.54 27.81, 0.31 19.92, 2.42 14.92 C4.52 9.91, 10.11 5.14, 14.61 2.79 C19.11 0.44, 26.77 1.18, 29.4 0.83 C32.03 0.49, 30.21 0.29, 30.39 0.71" stroke="none" stroke-width="0" fill="#fcc2d7"></path><path d="M13.5 2.52 C17.97 0.28, 26.73 0.19, 32.11 1.35 C37.5 2.5, 42.68 5.28, 45.81 9.43 C48.94 13.58, 51.26 21.21, 50.9 26.22 C50.54 31.22, 47.49 35.88, 43.64 39.45 C39.8 43.02, 33.32 46.99, 27.83 47.64 C22.34 48.29, 15 46.31, 10.69 43.35 C6.39 40.39, 3.48 34.7, 1.99 29.85 C0.5 25.01, -0.63 19.08, 1.75 14.29 C4.13 9.5, 13.65 3.29, 16.27 1.1 C18.88 -1.08, 17.44 0.61, 17.42 1.15 M36.89 3.74 C41.94 5.6, 46.89 8.81, 49.02 13.19 C51.16 17.58, 51.39 24.83, 49.69 30.05 C48 35.27, 43.31 41.73, 38.87 44.52 C34.44 47.31, 28.37 47.59, 23.11 46.78 C17.85 45.97, 11.4 43.01, 7.34 39.64 C3.27 36.27, -1.11 31.37, -1.28 26.57 C-1.45 21.77, 2.76 15.19, 6.29 10.84 C9.83 6.5, 15.07 1.88, 19.94 0.52 C24.8 -0.85, 32.96 2.2, 35.47 2.66 C37.99 3.11, 35.1 2.88, 35.04 3.26" stroke="#1e1e1e" stroke-width="2" fill="none"></path></g></svg>