<svg version="1.1" xmlns="http://www.w3.org/2000/svg" viewBox="0 0 106.88189535019183 127.12357954545405" width="106.88189535019183" height="127.12357954545405">
  <!-- svg-source:excalidraw -->
  
  <defs>
    <style class="style-fonts">
      @font-face {
        font-family: "Virgil";
        src: url("https://excalidraw.com/Virgil.woff2");
      }
      @font-face {
        font-family: "Cascadia";
        src: url("https://excalidraw.com/Cascadia.woff2");
      }
      @font-face {
        font-family: "Assistant";
        src: url("https://excalidraw.com/Assistant-Regular.woff2");
      }
    </style>
    
  </defs>
  <g stroke-linecap="round" transform="translate(10 24.85274621212011) rotate(0 42.630859375 38.322265625)"><path d="M19.16 0 C30.21 -1.84, 45.93 -2.39, 66.1 0 C77.82 3.52, 82.75 9.39, 85.26 19.16 C83.73 27.65, 87.41 40.38, 85.26 57.48 C83.14 70.47, 81.17 75.32, 66.1 76.64 C53.72 78.77, 37.4 76.28, 19.16 76.64 C6.16 75.02, 2.51 73.75, 0 57.48 C-3.68 40.29, -3.02 28.05, 0 19.16 C-2.26 8.24, 8.1 3.54, 19.16 0" stroke="none" stroke-width="0" fill="#228be6"></path><path d="M19.16 0 C31.45 -0.23, 42.71 1.96, 66.1 0 M19.16 0 C29.34 -0.58, 37.32 0.32, 66.1 0 M66.1 0 C80.67 0.76, 86.07 4.79, 85.26 19.16 M66.1 0 C80.73 1.34, 86.13 7.64, 85.26 19.16 M85.26 19.16 C85.03 30.3, 87.24 36.92, 85.26 57.48 M85.26 19.16 C84.04 32.41, 84.43 43.3, 85.26 57.48 M85.26 57.48 C85.3 71.71, 80.24 76.49, 66.1 76.64 M85.26 57.48 C84.68 70.45, 80.9 76.14, 66.1 76.64 M66.1 76.64 C54.62 75.89, 47.78 75.14, 19.16 76.64 M66.1 76.64 C53.07 76.46, 40.9 76.18, 19.16 76.64 M19.16 76.64 C7.12 78.45, -1.57 68.97, 0 57.48 M19.16 76.64 C6.92 78.71, 0.58 68.84, 0 57.48 M0 57.48 C1.29 46.87, -0.99 35.69, 0 19.16 M0 57.48 C1.32 48.74, 0.81 38.55, 0 19.16 M0 19.16 C-1.42 6.73, 4.69 0.57, 19.16 0 M0 19.16 C-0.48 6.98, 6.4 2.14, 19.16 0" stroke="#1e1e1e" stroke-width="2" fill="none"></path></g><g stroke-linecap="round" transform="translate(33.86899266098453 102.14701704545405) rotate(0 19.283203125 7.48828125)"><path d="M3.74 0 C16.83 -1.07, 27 2.67, 34.82 0 C35.5 2.17, 37.71 1.81, 38.57 3.74 C39.06 6.47, 37.95 8.86, 38.57 11.23 C40.23 12.77, 37.88 14.73, 34.82 14.98 C27.86 15.25, 18.6 14.08, 3.74 14.98 C3.06 17.5, 2.12 15.05, 0 11.23 C-0.63 8.44, -0.52 6.26, 0 3.74 C1.24 3.81, 2.3 -0.19, 3.74 0" stroke="none" stroke-width="0" fill="#868e96"></path><path d="M3.74 0 C12.36 0.9, 18.25 -0.63, 34.82 0 M3.74 0 C13.31 0.29, 24.27 0.26, 34.82 0 M34.82 0 C37.72 -0.8, 39.37 1.83, 38.57 3.74 M34.82 0 C37.75 0.62, 37.93 2.27, 38.57 3.74 M38.57 3.74 C38.86 6.13, 38.64 8.59, 38.57 11.23 M38.57 3.74 C38.43 5.61, 38.54 7.83, 38.57 11.23 M38.57 11.23 C39.25 13.65, 37.07 15.06, 34.82 14.98 M38.57 11.23 C39.58 13.48, 36.34 14.45, 34.82 14.98 M34.82 14.98 C26.23 14.15, 15.38 14.87, 3.74 14.98 M34.82 14.98 C23.98 14.59, 13.76 15.37, 3.74 14.98 M3.74 14.98 C0.46 14.33, 0.23 14.63, 0 11.23 M3.74 14.98 C1.54 14.27, -0.15 13.46, 0 11.23 M0 11.23 C-0.22 9.43, -0.23 7.21, 0 3.74 M0 11.23 C0.05 8.46, -0.17 5.77, 0 3.74 M0 3.74 C-0.85 1.53, 1.04 0.26, 3.74 0 M0 3.74 C0.01 2.32, 0.89 0.48, 3.74 0" stroke="#1e1e1e" stroke-width="2" fill="none"></path></g><g stroke-linecap="round" transform="translate(34.05486505681802 10) rotate(0 19.283203125 7.48828125)"><path d="M3.74 0 C11.35 2.73, 18.66 2.36, 34.82 0 C36.47 0.56, 39.54 0.04, 38.57 3.74 C38.05 5.68, 39.24 7.15, 38.57 11.23 C39.12 13.48, 36.24 16.94, 34.82 14.98 C23.2 13.8, 13.72 17.5, 3.74 14.98 C3.37 16.3, 1.71 11.33, 0 11.23 C-0.54 10.02, 0.53 8.77, 0 3.74 C1.05 1.06, 3.37 -0.1, 3.74 0" stroke="none" stroke-width="0" fill="#868e96"></path><path d="M3.74 0 C11.37 -0.8, 21.15 0.49, 34.82 0 M3.74 0 C12.04 0.12, 19.63 -0.47, 34.82 0 M34.82 0 C38.12 0.58, 38.94 1.79, 38.57 3.74 M34.82 0 C36.68 1.03, 39.06 0.92, 38.57 3.74 M38.57 3.74 C38.68 6.36, 38.46 9.22, 38.57 11.23 M38.57 3.74 C38.55 6.79, 38.67 9.54, 38.57 11.23 M38.57 11.23 C38.31 13.81, 38.2 14.76, 34.82 14.98 M38.57 11.23 C37.59 13.2, 37.4 14.19, 34.82 14.98 M34.82 14.98 C26.36 14.82, 19.05 14.2, 3.74 14.98 M34.82 14.98 C26.86 15.33, 18.15 14.55, 3.74 14.98 M3.74 14.98 C1.48 15.87, 0.25 13.11, 0 11.23 M3.74 14.98 C1.1 14.71, -0.62 14.42, 0 11.23 M0 11.23 C-0.18 8.5, 0.27 6.81, 0 3.74 M0 11.23 C-0.15 8.53, -0.18 5.82, 0 3.74 M0 3.74 C-0.21 1.51, 1.25 0.93, 3.74 0 M0 3.74 C-0.35 1.72, 2.24 -0.51, 3.74 0" stroke="#343a40" stroke-width="2" fill="none"></path></g><g stroke-linecap="round" transform="translate(65.74630283943043 23.860949680865815) rotate(312.47556431009303 13.974609375 10.47265625)"><path d="M5.24 0 C7.48 2.32, 13.08 0.37, 22.71 0 C27.55 -1.67, 26.2 3.75, 27.95 5.24 C29.04 7.9, 28.24 11.78, 27.95 15.71 C26.45 21.91, 28.68 22.42, 22.71 20.95 C19.66 23.86, 14.8 22.41, 5.24 20.95 C4.11 17.62, -2.57 16.54, 0 15.71 C1.01 14.48, 0.88 9.4, 0 5.24 C2.94 1.61, -1.13 0.8, 5.24 0" stroke="none" stroke-width="0" fill="#fcc2d7"></path><path d="M5.24 0 C12.39 1.2, 17.9 -1.54, 22.71 0 M5.24 0 C11.58 -0.76, 17.92 0.44, 22.71 0 M22.71 0 C26.95 1.09, 26.83 3.53, 27.95 5.24 M22.71 0 C27.2 -0.66, 29.99 3.62, 27.95 5.24 M27.95 5.24 C27.59 6.91, 28.9 9.96, 27.95 15.71 M27.95 5.24 C28.31 7.71, 27.82 10.31, 27.95 15.71 M27.95 15.71 C29.71 18.76, 24.51 20.03, 22.71 20.95 M27.95 15.71 C28.11 17.63, 25.29 23.12, 22.71 20.95 M22.71 20.95 C19.54 19.79, 14.24 20.16, 5.24 20.95 M22.71 20.95 C17.94 20.54, 14.74 21.89, 5.24 20.95 M5.24 20.95 C2.25 19.71, -0.25 18.74, 0 15.71 M5.24 20.95 C0.5 22.32, 0.46 17.96, 0 15.71 M0 15.71 C0.76 13.47, 0.74 9.68, 0 5.24 M0 15.71 C-0.37 12.86, -0.04 9.84, 0 5.24 M0 5.24 C0.01 3.6, 1.13 0.83, 5.24 0 M0 5.24 C1.99 0.73, 1.04 0.96, 5.24 0" stroke="#1e1e1e" stroke-width="2" fill="none"></path></g><g stroke-linecap="round" transform="translate(27.917475541171825 38.54130475837155) rotate(312.47556431009303 25.4296875 23.859375)"><path d="M18.11 0.98 C22.82 -0.79, 30.28 -1.01, 35.44 1.26 C40.6 3.52, 46.52 9.73, 49.06 14.57 C51.6 19.42, 52.2 25.65, 50.7 30.31 C49.2 34.98, 44.57 39.83, 40.05 42.58 C35.53 45.33, 28.95 47.12, 23.59 46.8 C18.23 46.47, 11.75 44.1, 7.88 40.66 C4.01 37.21, 0.78 31.24, 0.37 26.14 C-0.04 21.03, 1.84 14.19, 5.41 10.02 C8.98 5.86, 18.75 2.8, 21.8 1.17 C24.86 -0.47, 23.7 0.03, 23.77 0.2 M22.98 -0.24 C27.86 -0.98, 34.77 1.47, 39.09 4.11 C43.4 6.75, 47.06 10.8, 48.87 15.61 C50.67 20.42, 51.94 28.08, 49.9 32.97 C47.86 37.85, 41.4 42.66, 36.63 44.94 C31.85 47.23, 26.4 47.75, 21.26 46.68 C16.12 45.61, 9.46 42.26, 5.81 38.53 C2.17 34.8, -0.89 29.29, -0.61 24.31 C-0.34 19.33, 3.73 12.65, 7.45 8.62 C11.18 4.6, 19.45 1.3, 21.73 0.16 C24 -0.98, 20.82 1.16, 21.13 1.77" stroke="none" stroke-width="0" fill="#fcc2d7"></path><path d="M14.19 3.04 C18.44 0.53, 24.92 0.27, 30.27 1.4 C35.62 2.53, 42.76 5.97, 46.27 9.81 C49.79 13.66, 51.59 19.36, 51.37 24.47 C51.16 29.59, 48.82 36.51, 44.98 40.51 C41.13 44.5, 33.74 47.93, 28.32 48.42 C22.9 48.91, 16.96 46.48, 12.46 43.43 C7.97 40.38, 3.17 35.08, 1.36 30.12 C-0.44 25.16, -1.01 18.53, 1.63 13.68 C4.26 8.84, 14.37 3.13, 17.17 1.06 C19.96 -1.01, 18.28 0.71, 18.4 1.29 M25.8 -0.31 C30.81 -0.93, 35.67 1.31, 39.77 4.33 C43.86 7.35, 49.14 12.46, 50.39 17.81 C51.65 23.16, 50.07 31.83, 47.32 36.43 C44.56 41.03, 38.82 43.62, 33.86 45.41 C28.91 47.21, 22.73 48.77, 17.57 47.2 C12.41 45.62, 5.92 40.58, 2.92 35.98 C-0.08 31.38, -1.43 24.35, -0.43 19.6 C0.57 14.86, 4.96 10.95, 8.91 7.52 C12.87 4.1, 20.65 0, 23.3 -0.95 C25.96 -1.9, 24.57 1.44, 24.85 1.84" stroke="#1e1e1e" stroke-width="2" fill="none"></path></g></svg>