<svg version="1.1" xmlns="http://www.w3.org/2000/svg" viewBox="0 0 105.26171875 129.23744184244424" width="105.26171875" height="129.23744184244424">
  <!-- svg-source:excalidraw -->
  
  <defs>
    <style class="style-fonts">
      @font-face {
        font-family: "Virgil";
        src: url("https://excalidraw.com/Virgil.woff2");
      }
      @font-face {
        font-family: "Cascadia";
        src: url("https://excalidraw.com/Cascadia.woff2");
      }
      @font-face {
        font-family: "Assistant";
        src: url("https://excalidraw.com/Assistant-Regular.woff2");
      }
    </style>
    
  </defs>
  <g stroke-linecap="round" transform="translate(10 26.9666085091103) rotate(0 42.630859375 38.322265625)"><path d="M19.16 0 C38.51 -1.86, 53.4 1.82, 66.1 0 C79.62 -2.12, 85.48 8.68, 85.26 19.16 C83.91 31.96, 87.88 40.81, 85.26 57.48 C85.25 70.03, 77.25 79.15, 66.1 76.64 C49.83 73.75, 26.26 74.41, 19.16 76.64 C6.19 74.39, 1.85 71.97, 0 57.48 C2.66 42.08, -3.16 27.75, 0 19.16 C-0.26 5.78, 7.36 1.3, 19.16 0" stroke="none" stroke-width="0" fill="#228be6"></path><path d="M19.16 0 C37.01 2.24, 53.91 1.25, 66.1 0 M19.16 0 C29.87 0.27, 39.27 0.62, 66.1 0 M66.1 0 C79.74 -0.58, 87.04 8.02, 85.26 19.16 M66.1 0 C77.77 0.52, 83.45 5.55, 85.26 19.16 M85.26 19.16 C84.41 27.16, 87.05 36.44, 85.26 57.48 M85.26 19.16 C86.05 30.15, 84.32 41.12, 85.26 57.48 M85.26 57.48 C85.4 68.89, 78.08 78.54, 66.1 76.64 M85.26 57.48 C83.5 69.42, 78.78 77.61, 66.1 76.64 M66.1 76.64 C53.77 77.16, 45.89 74.87, 19.16 76.64 M66.1 76.64 C55.3 76.45, 43.87 76.84, 19.16 76.64 M19.16 76.64 C5.31 77.84, 0.4 69.18, 0 57.48 M19.16 76.64 C6.65 75.39, -2.06 71.8, 0 57.48 M0 57.48 C-0.52 40.83, 0.09 25.33, 0 19.16 M0 57.48 C0.09 45.82, -0.23 32.71, 0 19.16 M0 19.16 C1.73 5.51, 5.77 0.83, 19.16 0 M0 19.16 C-1.06 5.72, 8.64 -1.61, 19.16 0" stroke="#1e1e1e" stroke-width="2" fill="none"></path></g><g stroke-linecap="round" transform="translate(33.86899266098453 104.26087934244424) rotate(0 19.283203125 7.48828125)"><path d="M3.74 0 C12.47 1.63, 24.26 -1.35, 34.82 0 C37.47 1.66, 37.61 1.81, 38.57 3.74 C39.19 6.32, 38.52 8.03, 38.57 11.23 C37.4 15.54, 39.84 17.1, 34.82 14.98 C22.06 12.68, 12.86 12.97, 3.74 14.98 C2.58 16.21, 2.56 14.78, 0 11.23 C-0.86 9.26, -0.15 6.68, 0 3.74 C0.7 2.18, -0.21 -1.8, 3.74 0" stroke="none" stroke-width="0" fill="#868e96"></path><path d="M3.74 0 C10.5 0.26, 15.69 0.67, 34.82 0 M3.74 0 C14.61 0.36, 26.24 -0.23, 34.82 0 M34.82 0 C38.21 0.82, 38.09 1.48, 38.57 3.74 M34.82 0 C36.41 -0.42, 37.5 2.26, 38.57 3.74 M38.57 3.74 C38.82 5.85, 38.52 7.34, 38.57 11.23 M38.57 3.74 C38.44 5.97, 38.61 8.24, 38.57 11.23 M38.57 11.23 C38.17 14.68, 36.55 14.61, 34.82 14.98 M38.57 11.23 C38.52 14.21, 36.57 14.54, 34.82 14.98 M34.82 14.98 C27.79 14.25, 18.3 15.26, 3.74 14.98 M34.82 14.98 C22.65 14.77, 10.33 15.18, 3.74 14.98 M3.74 14.98 C1.45 14.44, 0.11 13.18, 0 11.23 M3.74 14.98 C0.22 15.75, 1.12 14.48, 0 11.23 M0 11.23 C0.07 8.32, 0.11 5.96, 0 3.74 M0 11.23 C-0.06 8.87, 0.16 6.27, 0 3.74 M0 3.74 C-0.31 1.66, 0.79 -0.29, 3.74 0 M0 3.74 C1.12 0.44, 2.21 -0.38, 3.74 0" stroke="#1e1e1e" stroke-width="2" fill="none"></path></g><g stroke-linecap="round" transform="translate(34.05486505681802 12.113862296990192) rotate(0 19.283203125 7.48828125)"><path d="M3.74 0 C12.16 -1.76, 19.66 1.43, 34.82 0 C36.36 0.56, 38.32 0.17, 38.57 3.74 C38.63 6.49, 38.19 10.04, 38.57 11.23 C41.09 15.85, 38.64 16.68, 34.82 14.98 C28.23 13.05, 23.26 15.91, 3.74 14.98 C3.81 16.03, -0.19 15.85, 0 11.23 C0.01 8.85, 0.34 7.15, 0 3.74 C-1.46 -0.55, 2.84 1.47, 3.74 0" stroke="none" stroke-width="0" fill="#868e96"></path><path d="M3.74 0 C15.06 0.74, 28.56 0.31, 34.82 0 M3.74 0 C14.97 -0.28, 26.21 0.27, 34.82 0 M34.82 0 C36.84 0.23, 37.78 0.89, 38.57 3.74 M34.82 0 C36.26 1.01, 37.95 0.56, 38.57 3.74 M38.57 3.74 C38.57 5.91, 38.63 8.59, 38.57 11.23 M38.57 3.74 C38.55 5.7, 38.46 8.09, 38.57 11.23 M38.57 11.23 C37.8 13.37, 37.28 15.39, 34.82 14.98 M38.57 11.23 C37.81 13.29, 36.81 14.22, 34.82 14.98 M34.82 14.98 C23.72 15.09, 14.81 15.11, 3.74 14.98 M34.82 14.98 C27.15 15.24, 20.12 14.67, 3.74 14.98 M3.74 14.98 C1.36 14.43, -0.9 14.4, 0 11.23 M3.74 14.98 C2.37 15.73, 0.54 13.57, 0 11.23 M0 11.23 C0.1 9.44, 0.09 7.81, 0 3.74 M0 11.23 C0.17 8.21, -0.05 5.43, 0 3.74 M0 3.74 C-0.46 0.96, 2.23 -0.7, 3.74 0 M0 3.74 C0.96 0.87, 1.49 0.43, 3.74 0" stroke="#343a40" stroke-width="2" fill="none"></path></g><g stroke-linecap="round" transform="translate(39.397448168828305 13.62604069808549) rotate(269.315648468081 13.974609375 10.47265625)"><path d="M5.24 0 C11.64 2.19, 16.51 0.86, 22.71 0 C25.86 -1.5, 30.66 4.22, 27.95 5.24 C27.1 10.12, 29.78 13.91, 27.95 15.71 C29.79 21.56, 22.88 18.37, 22.71 20.95 C20.38 22.24, 17.91 22.02, 5.24 20.95 C1.48 23.88, -0.14 16.32, 0 15.71 C0.52 13.01, -1.04 7.66, 0 5.24 C2.2 3.78, 1.62 -0.43, 5.24 0" stroke="none" stroke-width="0" fill="#fcc2d7"></path><path d="M5.24 0 C12.21 0.52, 18.08 -1.12, 22.71 0 M5.24 0 C12.82 0.76, 18.42 0.25, 22.71 0 M22.71 0 C24.63 -0.73, 26.1 3.51, 27.95 5.24 M22.71 0 C24.98 -1.37, 27.99 3.42, 27.95 5.24 M27.95 5.24 C28.03 10.02, 27.71 12.06, 27.95 15.71 M27.95 5.24 C27.75 8.39, 27.55 10.37, 27.95 15.71 M27.95 15.71 C27.87 20.04, 24.89 20.18, 22.71 20.95 M27.95 15.71 C26.92 17.68, 27.04 23.03, 22.71 20.95 M22.71 20.95 C20.41 21.43, 13.89 20.76, 5.24 20.95 M22.71 20.95 C18.05 20.58, 13.13 20.57, 5.24 20.95 M5.24 20.95 C-0.05 22.28, 1.95 20.5, 0 15.71 M5.24 20.95 C2.82 20.64, -1.63 19.6, 0 15.71 M0 15.71 C0.24 13.46, 0.94 10.88, 0 5.24 M0 15.71 C-0.25 12.35, -0.33 8.41, 0 5.24 M0 5.24 C1.96 0.35, 3.41 -0.66, 5.24 0 M0 5.24 C0.49 2.61, 0.68 -1.12, 5.24 0" stroke="#1e1e1e" stroke-width="2" fill="none"></path></g><g stroke-linecap="round" transform="translate(27.939453125 38.74047213240192) rotate(269.315648468081 25.4296875 23.859375)"><path d="M31.48 -0.2 C36.66 0.71, 42.86 5.17, 46.12 9.41 C49.39 13.66, 51.29 20.18, 51.07 25.26 C50.86 30.35, 48.56 36.07, 44.85 39.93 C41.13 43.79, 34.42 47.83, 28.78 48.42 C23.14 49.01, 15.56 46.51, 11.01 43.48 C6.45 40.45, 3.02 34.91, 1.48 30.23 C-0.05 25.55, -0.18 19.85, 1.79 15.38 C3.77 10.9, 7.32 5.36, 13.33 3.37 C19.34 1.38, 32.74 2.76, 37.85 3.43 C42.96 4.1, 44.22 6.99, 43.98 7.4 M29.01 -0.42 C34.39 -0.26, 40.49 3.17, 44.02 7.12 C47.55 11.07, 49.66 18.07, 50.17 23.29 C50.68 28.52, 50.15 34.54, 47.05 38.47 C43.96 42.41, 37.18 45.59, 31.61 46.91 C26.04 48.22, 18.29 48.38, 13.64 46.36 C8.98 44.35, 5.65 39.49, 3.67 34.82 C1.68 30.14, 0.72 23.6, 1.74 18.3 C2.76 13, 5.59 6.07, 9.79 3.03 C14 -0.02, 24.07 0.32, 26.94 0.04 C29.82 -0.23, 26.8 0.72, 27.06 1.37" stroke="none" stroke-width="0" fill="#fcc2d7"></path><path d="M18.14 1.81 C23.02 0.03, 31.54 -0.21, 36.6 1.59 C41.66 3.39, 46.33 8.1, 48.52 12.62 C50.71 17.15, 50.95 23.72, 49.74 28.72 C48.53 33.72, 45.7 39.47, 41.25 42.63 C36.8 45.79, 28.51 47.83, 23.05 47.68 C17.59 47.52, 12.31 45.29, 8.48 41.7 C4.65 38.1, 0.74 31.14, 0.06 26.09 C-0.61 21.04, 0.47 15.87, 4.44 11.39 C8.41 6.91, 19.75 0.93, 23.89 -0.81 C28.04 -2.56, 29.36 0.43, 29.31 0.9 M36.96 3.25 C41.74 5.19, 45.86 9.57, 47.88 14.01 C49.89 18.45, 50.41 24.68, 49.06 29.89 C47.71 35.1, 44.44 42.47, 39.78 45.25 C35.12 48.03, 26.54 47.2, 21.1 46.57 C15.66 45.93, 10.59 45.18, 7.14 41.44 C3.7 37.7, 0.78 29.52, 0.41 24.13 C0.05 18.75, 1.87 12.89, 4.96 9.12 C8.05 5.34, 13.56 2.72, 18.95 1.5 C24.34 0.28, 34.32 1.69, 37.32 1.81 C40.32 1.93, 37.43 1.57, 36.96 2.23" stroke="#1e1e1e" stroke-width="2" fill="none"></path></g></svg>