<svg version="1.1" xmlns="http://www.w3.org/2000/svg" viewBox="0 0 107.36794445733494 127.12357954545405" width="107.36794445733494" height="127.12357954545405">
  <!-- svg-source:excalidraw -->
  
  <defs>
    <style class="style-fonts">
      @font-face {
        font-family: "Virgil";
        src: url("https://excalidraw.com/Virgil.woff2");
      }
      @font-face {
        font-family: "Cascadia";
        src: url("https://excalidraw.com/Cascadia.woff2");
      }
      @font-face {
        font-family: "Assistant";
        src: url("https://excalidraw.com/Assistant-Regular.woff2");
      }
    </style>
    
  </defs>
  <g stroke-linecap="round" transform="translate(10 24.222165854976993) rotate(0 42.630859375 38.322265625)"><path d="M19.16 0 C39.41 -1.84, 55.43 -2.14, 66.1 0 C79.12 -1.84, 84.68 4.66, 85.26 19.16 C88.28 27.17, 85.54 35.07, 85.26 57.48 C85.87 72.71, 79.5 74.4, 66.1 76.64 C50.9 77.6, 30.42 78.44, 19.16 76.64 C4.53 73.44, 2.07 70.39, 0 57.48 C-1.84 41.5, -0.76 30.89, 0 19.16 C-3.39 6.22, 7.98 0.71, 19.16 0" stroke="none" stroke-width="0" fill="#228be6"></path><path d="M19.16 0 C31.36 0.4, 38.73 -0.36, 66.1 0 M19.16 0 C32.36 -0.82, 45.28 -0.83, 66.1 0 M66.1 0 C77.08 1.34, 87.21 7.69, 85.26 19.16 M66.1 0 C79.95 -0.31, 83.63 6.78, 85.26 19.16 M85.26 19.16 C85.89 27.42, 87.23 35.03, 85.26 57.48 M85.26 19.16 C85.29 32.66, 85.13 45.04, 85.26 57.48 M85.26 57.48 C87.22 68.86, 80.54 75.99, 66.1 76.64 M85.26 57.48 C85.75 71.12, 77.8 75.53, 66.1 76.64 M66.1 76.64 C49.53 77.64, 31.99 76.8, 19.16 76.64 M66.1 76.64 C53.15 77.41, 38.82 76.94, 19.16 76.64 M19.16 76.64 C5.49 78.04, 1.94 71.89, 0 57.48 M19.16 76.64 C7.56 78.15, -2.13 68.61, 0 57.48 M0 57.48 C1.05 49.77, 1.99 40.97, 0 19.16 M0 57.48 C-1.11 46.49, -0.38 34.88, 0 19.16 M0 19.16 C0.54 7.11, 5.27 -1.38, 19.16 0 M0 19.16 C1.41 7.69, 6.31 -0.28, 19.16 0" stroke="#1e1e1e" stroke-width="2" fill="none"></path></g><g stroke-linecap="round" transform="translate(33.868992660984986 102.14701704545405) rotate(0 19.283203125 7.48828125)"><path d="M3.74 0 C14.46 -1.29, 23.19 -1.13, 34.82 0 C36.9 -1.25, 37.22 0.12, 38.57 3.74 C38.81 5.82, 38.82 10.24, 38.57 11.23 C39.02 12.11, 39.35 14.6, 34.82 14.98 C25.38 16.38, 14.85 12.77, 3.74 14.98 C2.74 15.07, 0.82 13.17, 0 11.23 C-0.19 9.34, -0.86 8.04, 0 3.74 C1.15 1.76, 0.41 0.83, 3.74 0" stroke="none" stroke-width="0" fill="#868e96"></path><path d="M3.74 0 C13.17 -0.17, 23.6 -0.58, 34.82 0 M3.74 0 C14.99 -0.19, 25.67 0.42, 34.82 0 M34.82 0 C38.29 0.65, 39.03 1.11, 38.57 3.74 M34.82 0 C36.5 0.2, 37.59 1.58, 38.57 3.74 M38.57 3.74 C38.92 5.72, 38.73 8.25, 38.57 11.23 M38.57 3.74 C38.47 5.61, 38.74 7.45, 38.57 11.23 M38.57 11.23 C39.4 13.4, 37.53 15.35, 34.82 14.98 M38.57 11.23 C38.03 13.17, 37.96 15.21, 34.82 14.98 M34.82 14.98 C26.96 15.29, 19.75 14.66, 3.74 14.98 M34.82 14.98 C23.16 15.01, 11.27 15.39, 3.74 14.98 M3.74 14.98 C2.22 15.79, 0.51 14.38, 0 11.23 M3.74 14.98 C0.19 14.16, -0.85 13.66, 0 11.23 M0 11.23 C0.35 9.61, -0.05 7.98, 0 3.74 M0 11.23 C0.02 8.98, 0.08 6.86, 0 3.74 M0 3.74 C-0.56 0.56, 1.86 0.57, 3.74 0 M0 3.74 C-0.04 1.11, 2.06 -0.77, 3.74 0" stroke="#1e1e1e" stroke-width="2" fill="none"></path></g><g stroke-linecap="round" transform="translate(34.05486505681802 10) rotate(0 19.283203125 7.48828125)"><path d="M3.74 0 C11.74 -1.1, 18.95 -1.02, 34.82 0 C35.97 -1.13, 40.89 3.64, 38.57 3.74 C38.75 6.34, 38.75 7, 38.57 11.23 C40.6 13.35, 37.31 16.82, 34.82 14.98 C23.33 12.86, 16.02 15.27, 3.74 14.98 C2.07 14.41, -2.34 12.29, 0 11.23 C-0.89 9.62, 0.46 8.29, 0 3.74 C-0.83 2.07, 2.02 -1.71, 3.74 0" stroke="none" stroke-width="0" fill="#868e96"></path><path d="M3.74 0 C13.63 -0.52, 24.57 0.22, 34.82 0 M3.74 0 C10.94 0.42, 19.52 0.41, 34.82 0 M34.82 0 C37.78 -0.13, 37.86 1.42, 38.57 3.74 M34.82 0 C36.34 0.33, 38.33 1.54, 38.57 3.74 M38.57 3.74 C38.76 6.32, 38.44 8.13, 38.57 11.23 M38.57 3.74 C38.73 6.17, 38.71 8.8, 38.57 11.23 M38.57 11.23 C38.78 14.1, 36.85 14.49, 34.82 14.98 M38.57 11.23 C39.21 13.97, 36.64 15.05, 34.82 14.98 M34.82 14.98 C23.42 14.59, 12.96 15.7, 3.74 14.98 M34.82 14.98 C24 15.31, 14.11 15.37, 3.74 14.98 M3.74 14.98 C1.76 15.63, -0.92 13.01, 0 11.23 M3.74 14.98 C0.4 14.91, -0.72 14.32, 0 11.23 M0 11.23 C-0.06 8.94, -0.05 5.73, 0 3.74 M0 11.23 C0.05 8.89, -0.1 6.28, 0 3.74 M0 3.74 C0.61 1.81, 1.21 -0.12, 3.74 0 M0 3.74 C0.81 0.48, 1.36 0.91, 3.74 0" stroke="#343a40" stroke-width="2" fill="none"></path></g><g stroke-linecap="round" transform="translate(66.23235194657354 79.23082182887265) rotate(47.524435689906944 13.974609375 10.47265625)"><path d="M5.24 0 C8.98 -1.35, 12.1 -1.21, 22.71 0 C29.42 3.31, 26.45 2.32, 27.95 5.24 C28.31 6.29, 29.45 9.43, 27.95 15.71 C27.94 21.75, 27.16 20.77, 22.71 20.95 C18.4 20.78, 11.48 19.98, 5.24 20.95 C-1.49 18.96, -3.28 18.29, 0 15.71 C1.01 13.28, -0.43 10.71, 0 5.24 C1.06 -0.63, 0.31 -0.48, 5.24 0" stroke="none" stroke-width="0" fill="#fcc2d7"></path><path d="M5.24 0 C11.31 0.44, 14.33 0.29, 22.71 0 M5.24 0 C10.37 0.45, 14.22 -0.23, 22.71 0 M22.71 0 C24.78 0.34, 26.25 2.32, 27.95 5.24 M22.71 0 C25.72 0.59, 27.96 3.88, 27.95 5.24 M27.95 5.24 C27.53 7.73, 28.43 10.39, 27.95 15.71 M27.95 5.24 C28.49 7.9, 28.16 11.1, 27.95 15.71 M27.95 15.71 C27.02 18.23, 27.31 21.36, 22.71 20.95 M27.95 15.71 C26.59 19.34, 27.67 20.1, 22.71 20.95 M22.71 20.95 C18.41 22.07, 12.19 20.87, 5.24 20.95 M22.71 20.95 C18.43 21.78, 12.89 21.64, 5.24 20.95 M5.24 20.95 C-0.1 19.52, -1.48 19.09, 0 15.71 M5.24 20.95 C0.3 22.13, 1.09 21.46, 0 15.71 M0 15.71 C-0.03 11.31, 0.24 8.5, 0 5.24 M0 15.71 C-0.32 12.38, 0.29 10.08, 0 5.24 M0 5.24 C-0.07 1.51, 3.15 -1.34, 5.24 0 M0 5.24 C0.23 3.57, 0.63 0.95, 5.24 0" stroke="#1e1e1e" stroke-width="2" fill="none"></path></g><g stroke-linecap="round" transform="translate(28.403524648314487 38.00359175136691) rotate(47.524435689906944 25.4296875 23.859375)"><path d="M18.57 1.57 C23.3 -0.16, 30.02 0.84, 34.9 2.56 C39.78 4.28, 45.25 7.51, 47.85 11.87 C50.46 16.24, 51.68 23.59, 50.52 28.76 C49.36 33.94, 45.18 39.88, 40.9 42.94 C36.63 46.01, 30.42 47.27, 24.88 47.14 C19.35 47.02, 11.72 45.53, 7.71 42.19 C3.7 38.85, 1.47 32.18, 0.81 27.13 C0.15 22.08, 0.67 16.32, 3.75 11.91 C6.84 7.49, 16.05 2.61, 19.31 0.66 C22.56 -1.3, 22.99 -0.12, 23.27 0.16 M25.59 -0.76 C30.79 -0.64, 37.39 4.02, 41.79 7.46 C46.19 10.91, 51.08 15.28, 51.99 19.9 C52.9 24.52, 50.31 30.58, 47.24 35.19 C44.17 39.81, 38.73 45.93, 33.55 47.57 C28.37 49.21, 21.07 47.17, 16.17 45.05 C11.27 42.93, 6.76 39.03, 4.15 34.85 C1.55 30.67, -0.45 24.95, 0.55 19.97 C1.55 14.99, 5.75 8.44, 10.16 4.99 C14.58 1.53, 24.59 -0.15, 27.06 -0.76 C29.52 -1.37, 25.08 0.75, 24.95 1.35" stroke="none" stroke-width="0" fill="#fcc2d7"></path><path d="M27.53 1.01 C32.92 1.21, 39.66 3.72, 43.5 6.94 C47.34 10.16, 49.99 15.48, 50.55 20.34 C51.11 25.2, 49.79 31.73, 46.87 36.09 C43.96 40.45, 38.25 44.88, 33.05 46.5 C27.85 48.11, 20.55 47.82, 15.65 45.79 C10.76 43.76, 6.08 38.72, 3.65 34.3 C1.23 29.87, 0.07 24.24, 1.09 19.26 C2.11 14.28, 5.03 7.68, 9.77 4.44 C14.5 1.19, 25.98 0.18, 29.5 -0.21 C33.02 -0.61, 31.11 1.47, 30.87 2.08 M20.58 -0.41 C25.72 -1.55, 34.55 0.89, 39.21 3.63 C43.87 6.37, 46.7 11.35, 48.53 16.02 C50.36 20.7, 51.91 26.96, 50.19 31.7 C48.47 36.45, 43.25 41.71, 38.24 44.5 C33.23 47.29, 25.37 49.26, 20.13 48.44 C14.89 47.63, 10.16 43.77, 6.81 39.62 C3.45 35.46, 0.23 28.56, 0 23.52 C-0.23 18.47, 1.66 13.04, 5.45 9.38 C9.23 5.71, 19.95 2.81, 22.73 1.54 C25.51 0.28, 22.53 1.76, 22.12 1.77" stroke="#1e1e1e" stroke-width="2" fill="none"></path></g></svg>