<svg version="1.1" xmlns="http://www.w3.org/2000/svg" viewBox="0 0 116.80622209821377 127.12357954545405" width="116.80622209821377" height="127.12357954545405">
  <!-- svg-source:excalidraw -->
  
  <defs>
    <style class="style-fonts">
      @font-face {
        font-family: "Virgil";
        src: url("https://excalidraw.com/Virgil.woff2");
      }
      @font-face {
        font-family: "Cascadia";
        src: url("https://excalidraw.com/Cascadia.woff2");
      }
      @font-face {
        font-family: "Assistant";
        src: url("https://excalidraw.com/Assistant-Regular.woff2");
      }
    </style>
    
  </defs>
  <g stroke-linecap="round" transform="translate(21.544503348213766 24.534665854976993) rotate(0 42.630859375 38.322265625)"><path d="M19.16 0 C34.06 1.02, 45.46 -4.15, 66.1 0 C76.3 -2.66, 85.06 4.13, 85.26 19.16 C87.05 32.37, 88.53 45.95, 85.26 57.48 C82.39 71.06, 78.62 76.03, 66.1 76.64 C48.26 78.37, 37.43 76.04, 19.16 76.64 C5.96 79.18, -2.41 70.62, 0 57.48 C-1.72 43.19, -1.5 27.82, 0 19.16 C-1.73 4.52, 4.82 3.22, 19.16 0" stroke="none" stroke-width="0" fill="#228be6"></path><path d="M19.16 0 C31.31 -0.63, 38.75 0.47, 66.1 0 M19.16 0 C36.4 0.12, 55.03 -0.18, 66.1 0 M66.1 0 C77.18 -0.92, 85.4 5.02, 85.26 19.16 M66.1 0 C77.97 2.18, 83.5 5.55, 85.26 19.16 M85.26 19.16 C84.66 29.6, 84.1 42.56, 85.26 57.48 M85.26 19.16 C85.19 35.02, 85.21 48.47, 85.26 57.48 M85.26 57.48 C85.01 69.8, 77.8 77.84, 66.1 76.64 M85.26 57.48 C85.72 69.01, 79.13 75.39, 66.1 76.64 M66.1 76.64 C57.53 78.03, 46.09 75.68, 19.16 76.64 M66.1 76.64 C51 77.04, 36.33 77.71, 19.16 76.64 M19.16 76.64 C5.77 77.47, 1.73 69.38, 0 57.48 M19.16 76.64 C5.68 77.6, -1.06 69.59, 0 57.48 M0 57.48 C-0.39 42.67, 1.02 26.07, 0 19.16 M0 57.48 C-0.8 47.91, 0.43 37.85, 0 19.16 M0 19.16 C0.43 6.2, 5.55 1.51, 19.16 0 M0 19.16 C1.58 7.33, 6.38 -0.15, 19.16 0" stroke="#1e1e1e" stroke-width="2" fill="none"></path></g><g stroke-linecap="round" transform="translate(45.41349600919875 102.14701704545405) rotate(0 19.283203125 7.48828125)"><path d="M3.74 0 C17.79 -2.61, 26.56 -2.13, 34.82 0 C37.17 -1.63, 39.9 2.48, 38.57 3.74 C39.4 6.69, 37.83 9.93, 38.57 11.23 C38.38 13.29, 38.02 15.91, 34.82 14.98 C28.71 15.13, 19.35 17.06, 3.74 14.98 C-0.49 15.24, 2.07 12.46, 0 11.23 C-0.44 8.52, -0.41 5.61, 0 3.74 C-1.13 3.57, 3.64 -1.09, 3.74 0" stroke="none" stroke-width="0" fill="#868e96"></path><path d="M3.74 0 C9.6 0.1, 17.38 0.77, 34.82 0 M3.74 0 C13.28 -0.12, 21.5 -0.24, 34.82 0 M34.82 0 C37.39 -0.68, 38.17 2.19, 38.57 3.74 M34.82 0 C36.44 -0.42, 38.52 1.73, 38.57 3.74 M38.57 3.74 C38.3 5.64, 38.89 6.96, 38.57 11.23 M38.57 3.74 C38.62 5.39, 38.55 7.23, 38.57 11.23 M38.57 11.23 C38.03 14.33, 37.52 14.44, 34.82 14.98 M38.57 11.23 C38.7 13.1, 36.29 15.75, 34.82 14.98 M34.82 14.98 C22.34 14.34, 10.29 14.2, 3.74 14.98 M34.82 14.98 C24.61 15.48, 14.24 15.22, 3.74 14.98 M3.74 14.98 C2.11 14.54, -0.31 14.14, 0 11.23 M3.74 14.98 C0.72 14.64, 1.12 12.92, 0 11.23 M0 11.23 C0.15 8.19, -0.17 5.7, 0 3.74 M0 11.23 C0.14 8.76, 0.06 6.41, 0 3.74 M0 3.74 C-0.42 2, 1.93 0.41, 3.74 0 M0 3.74 C0 1.18, 0.73 0.8, 3.74 0" stroke="#1e1e1e" stroke-width="2" fill="none"></path></g><g stroke-linecap="round" transform="translate(45.59936840503178 10) rotate(0 19.283203125 7.48828125)"><path d="M3.74 0 C12.8 -1.55, 25.42 -1.26, 34.82 0 C38.65 1.24, 41.13 2.3, 38.57 3.74 C37.87 6.15, 38.58 7.96, 38.57 11.23 C39.27 14.66, 35.86 13.18, 34.82 14.98 C23.29 16.79, 10.63 15.22, 3.74 14.98 C3.32 13.71, 1.08 12.25, 0 11.23 C-0.42 8.43, -0.37 7.51, 0 3.74 C2.39 0.16, 1.66 -2.25, 3.74 0" stroke="none" stroke-width="0" fill="#868e96"></path><path d="M3.74 0 C12.13 0.68, 19 -0.25, 34.82 0 M3.74 0 C12.91 -0.2, 22.96 -0.31, 34.82 0 M34.82 0 C36.92 0.95, 37.8 0.88, 38.57 3.74 M34.82 0 C37.27 0.48, 37.81 0.81, 38.57 3.74 M38.57 3.74 C38.88 5.36, 38.3 7.66, 38.57 11.23 M38.57 3.74 C38.55 6.62, 38.47 9.69, 38.57 11.23 M38.57 11.23 C38.76 13.19, 37.43 14.43, 34.82 14.98 M38.57 11.23 C37.54 14.5, 38.44 15.73, 34.82 14.98 M34.82 14.98 C24.22 14.02, 13.56 14.66, 3.74 14.98 M34.82 14.98 C24.55 15.33, 15.01 14.9, 3.74 14.98 M3.74 14.98 C0.94 15.39, -0.46 13.44, 0 11.23 M3.74 14.98 C2.37 14.17, 0.96 13.35, 0 11.23 M0 11.23 C-0.2 9.03, 0.06 6.2, 0 3.74 M0 11.23 C0.02 8.92, -0.1 6.79, 0 3.74 M0 3.74 C0.69 1.66, 1.25 -0.06, 3.74 0 M0 3.74 C-0.52 2.05, 2.36 0.94, 3.74 0" stroke="#343a40" stroke-width="2" fill="none"></path></g><g stroke-linecap="round" transform="translate(10 53.475852272726115) rotate(0 13.974609375 10.47265625)"><path d="M5.24 0 C8.69 -1.74, 14.11 1.73, 22.71 0 C29.75 1.46, 27.69 4.68, 27.95 5.24 C27.66 8.02, 28.31 12.12, 27.95 15.71 C25.93 16.71, 28.41 22.98, 22.71 20.95 C15.43 21.48, 14.85 19.64, 5.24 20.95 C3.24 18.89, 0.25 17.36, 0 15.71 C-0.73 14.42, 1.83 8.97, 0 5.24 C0.57 -1.38, 2.35 2.45, 5.24 0" stroke="none" stroke-width="0" fill="#fcc2d7"></path><path d="M5.24 0 C10.38 -0.56, 15.94 1.42, 22.71 0 M5.24 0 C10.16 -0.52, 14.61 0.91, 22.71 0 M22.71 0 C24.67 -0.73, 27.87 2.58, 27.95 5.24 M22.71 0 C24.7 -0.88, 26.92 0.22, 27.95 5.24 M27.95 5.24 C27.37 9, 28.98 12.55, 27.95 15.71 M27.95 5.24 C27.65 8.05, 28.04 9.94, 27.95 15.71 M27.95 15.71 C28.18 18.11, 24.41 22.28, 22.71 20.95 M27.95 15.71 C30.19 20.7, 27.28 20.64, 22.71 20.95 M22.71 20.95 C19.21 20.43, 15.16 20.81, 5.24 20.95 M22.71 20.95 C16.6 20.63, 8.71 21.38, 5.24 20.95 M5.24 20.95 C0.82 20.36, 1.96 17.8, 0 15.71 M5.24 20.95 C3.66 20.19, 0.49 20.06, 0 15.71 M0 15.71 C0.27 12.44, 0.11 11.07, 0 5.24 M0 15.71 C-0.24 13.35, 0.34 10.41, 0 5.24 M0 5.24 C0 1.62, 0.84 1.39, 5.24 0 M0 5.24 C2.23 3.62, 2.92 1.51, 5.24 0" stroke="#1e1e1e" stroke-width="2" fill="none"></path></g><g stroke-linecap="round" transform="translate(36.888671875 39.436789772726115) rotate(0 25.4296875 23.859375)"><path d="M36.11 1.58 C40.94 3.33, 45.41 9.35, 47.78 13.92 C50.15 18.49, 51.54 24.02, 50.32 29 C49.1 33.98, 44.97 40.63, 40.47 43.78 C35.98 46.92, 28.79 48.4, 23.33 47.88 C17.87 47.35, 11.44 44.1, 7.7 40.64 C3.96 37.17, 1.39 32.1, 0.9 27.08 C0.4 22.07, 1.83 14.98, 4.73 10.55 C7.63 6.12, 12.72 1.6, 18.31 0.49 C23.91 -0.63, 34.69 3.16, 38.3 3.88 C41.9 4.6, 40.13 4.79, 39.92 4.82 M15.6 2.28 C20.64 0.55, 29.26 1.29, 34.65 2.85 C40.04 4.41, 45.11 7.5, 47.96 11.66 C50.81 15.81, 52.94 22.64, 51.73 27.76 C50.53 32.87, 45.1 39.06, 40.73 42.35 C36.36 45.63, 30.71 47.39, 25.53 47.46 C20.34 47.54, 13.97 46.18, 9.65 42.8 C5.32 39.41, 0.49 32.13, -0.42 27.15 C-1.32 22.18, 1.41 17.25, 4.22 12.94 C7.04 8.64, 14.23 3.32, 16.49 1.33 C18.75 -0.67, 17.59 0.35, 17.78 0.95" stroke="none" stroke-width="0" fill="#fcc2d7"></path><path d="M35.82 2.35 C40.57 4.22, 45.33 8.98, 47.84 13.48 C50.36 17.98, 52.29 24.38, 50.91 29.37 C49.53 34.36, 44.12 40.49, 39.56 43.42 C34.99 46.36, 28.94 47.5, 23.51 46.96 C18.09 46.43, 11 43.67, 6.99 40.21 C2.97 36.74, -0.34 31.35, -0.58 26.19 C-0.81 21.04, 2.42 13.5, 5.57 9.3 C8.72 5.1, 12.55 1.88, 18.32 1.02 C24.08 0.15, 36.37 3.26, 40.16 4.09 C43.95 4.92, 41.46 5.79, 41.05 5.99 M33.11 0.24 C37.88 1.69, 42.29 7.34, 45.46 11.93 C48.62 16.53, 52.46 22.95, 52.12 27.82 C51.78 32.69, 47.83 37.81, 43.41 41.16 C39 44.52, 31.39 47.59, 25.61 47.95 C19.84 48.3, 13 46.37, 8.79 43.3 C4.57 40.23, 1.31 34.36, 0.32 29.54 C-0.68 24.71, 0.35 18.86, 2.82 14.35 C5.28 9.85, 9.87 4.81, 15.11 2.49 C20.34 0.16, 31.37 0.46, 34.24 0.4 C37.11 0.35, 32.79 1.73, 32.33 2.14" stroke="#1e1e1e" stroke-width="2" fill="none"></path></g></svg>