<svg version="1.1" xmlns="http://www.w3.org/2000/svg" viewBox="0 0 117.88881138392844 127.12357954545405" width="117.88881138392844" height="127.12357954545405">
  <!-- svg-source:excalidraw -->
  
  <defs>
    <style class="style-fonts">
      @font-face {
        font-family: "Virgil";
        src: url("https://excalidraw.com/Virgil.woff2");
      }
      @font-face {
        font-family: "Cascadia";
        src: url("https://excalidraw.com/Cascadia.woff2");
      }
      @font-face {
        font-family: "Assistant";
        src: url("https://excalidraw.com/Assistant-Regular.woff2");
      }
    </style>
    
  </defs>
  <g stroke-linecap="round" transform="translate(10 24.85274621212011) rotate(0 42.630859375 38.322265625)"><path d="M19.16 0 C36.05 -2.45, 52.74 -0.15, 66.1 0 C79.8 0.02, 88.61 5.28, 85.26 19.16 C84.75 33.74, 84.2 44.28, 85.26 57.48 C88.78 67.74, 81.88 75.46, 66.1 76.64 C49.26 78.25, 36.67 74.13, 19.16 76.64 C6.6 78.94, -1.32 71.03, 0 57.48 C2.76 47.82, 0.28 34.98, 0 19.16 C-1.62 8.89, 9.88 2.93, 19.16 0" stroke="none" stroke-width="0" fill="#228be6"></path><path d="M19.16 0 C33.37 0.53, 47.78 0.87, 66.1 0 M19.16 0 C28.61 -0.1, 38.92 0.67, 66.1 0 M66.1 0 C78.4 1.76, 86.98 4.46, 85.26 19.16 M66.1 0 C77.35 0.53, 86.69 5.29, 85.26 19.16 M85.26 19.16 C86.18 27.83, 83.83 36.49, 85.26 57.48 M85.26 19.16 C84.85 33.79, 85.84 46.35, 85.26 57.48 M85.26 57.48 C87.04 71.89, 77.91 77.1, 66.1 76.64 M85.26 57.48 C83.45 69.42, 76.75 78.67, 66.1 76.64 M66.1 76.64 C55.98 78.02, 42.8 76.15, 19.16 76.64 M66.1 76.64 C50.77 76.08, 37.2 75.86, 19.16 76.64 M19.16 76.64 C5.6 78.54, -1.53 69.53, 0 57.48 M19.16 76.64 C6.29 77.61, -1.51 69.38, 0 57.48 M0 57.48 C2.06 46.13, -1.04 38.37, 0 19.16 M0 57.48 C-0.22 42.32, -0.64 28.21, 0 19.16 M0 19.16 C0.4 5.31, 6.61 -1.09, 19.16 0 M0 19.16 C-2.06 7.93, 8.63 1.5, 19.16 0" stroke="#1e1e1e" stroke-width="2" fill="none"></path></g><g stroke-linecap="round" transform="translate(33.86899266098453 102.14701704545405) rotate(0 19.283203125 7.48828125)"><path d="M3.74 0 C11.6 -0.2, 18.64 0.36, 34.82 0 C39.73 -0.8, 39.64 3.49, 38.57 3.74 C38.09 5.38, 39.49 6.9, 38.57 11.23 C40.74 12.88, 37.88 15.95, 34.82 14.98 C27.48 13.67, 19.22 16.86, 3.74 14.98 C0.29 15.54, -0.24 12.65, 0 11.23 C-0.07 8.36, -0.51 6.29, 0 3.74 C2.52 3.37, 2.57 1.71, 3.74 0" stroke="none" stroke-width="0" fill="#868e96"></path><path d="M3.74 0 C13.1 0.43, 22.79 0.31, 34.82 0 M3.74 0 C12.98 0.36, 22.61 0.45, 34.82 0 M34.82 0 C38.18 -0.96, 37.9 1.48, 38.57 3.74 M34.82 0 C38.03 -0.55, 37.48 1.74, 38.57 3.74 M38.57 3.74 C38.28 6.97, 38.8 9.72, 38.57 11.23 M38.57 3.74 C38.63 6.34, 38.71 9.2, 38.57 11.23 M38.57 11.23 C38.09 13.96, 36.53 14.61, 34.82 14.98 M38.57 11.23 C37.5 14.74, 36.7 14.29, 34.82 14.98 M34.82 14.98 C25.37 14.83, 16.15 15.96, 3.74 14.98 M34.82 14.98 C26.21 14.56, 17.34 15.38, 3.74 14.98 M3.74 14.98 C0.48 14.61, -0.04 14.15, 0 11.23 M3.74 14.98 C0.5 14.54, -0.51 12.97, 0 11.23 M0 11.23 C-0.28 8.8, 0.3 6.29, 0 3.74 M0 11.23 C-0.1 9.56, 0.04 7.56, 0 3.74 M0 3.74 C0.11 0.7, 0.35 0.67, 3.74 0 M0 3.74 C1.12 2, 1.78 -0.15, 3.74 0" stroke="#1e1e1e" stroke-width="2" fill="none"></path></g><g stroke-linecap="round" transform="translate(34.05486505681802 10) rotate(0 19.283203125 7.48828125)"><path d="M3.74 0 C11.1 0.1, 19.53 -0.72, 34.82 0 C38.4 2.24, 37.42 0.45, 38.57 3.74 C39.47 5.62, 39.33 8.54, 38.57 11.23 C39.12 14.7, 36.11 13.71, 34.82 14.98 C23.93 16.4, 11.77 15.3, 3.74 14.98 C1 13.89, 1.96 15.51, 0 11.23 C-0.44 9.36, 0.94 6.92, 0 3.74 C1.33 2.95, -1.16 -1.86, 3.74 0" stroke="none" stroke-width="0" fill="#868e96"></path><path d="M3.74 0 C13.2 0.28, 24.38 -0.75, 34.82 0 M3.74 0 C12.71 0.33, 22.35 -0.59, 34.82 0 M34.82 0 C36.65 0.23, 39.19 0.77, 38.57 3.74 M34.82 0 C36.23 0.49, 39.6 1.68, 38.57 3.74 M38.57 3.74 C38.76 6.43, 38.74 8.63, 38.57 11.23 M38.57 3.74 C38.75 6.81, 38.49 9.62, 38.57 11.23 M38.57 11.23 C37.78 13.37, 36.39 15.86, 34.82 14.98 M38.57 11.23 C37.95 13.04, 37.34 15.81, 34.82 14.98 M34.82 14.98 C23.46 15.82, 11.72 14.09, 3.74 14.98 M34.82 14.98 C26.73 15.34, 18.64 14.69, 3.74 14.98 M3.74 14.98 C1.21 15.39, -0.65 13.35, 0 11.23 M3.74 14.98 C0.73 14.22, 0.42 14.77, 0 11.23 M0 11.23 C0.36 9.67, -0.21 7.87, 0 3.74 M0 11.23 C0.06 9.06, 0.04 6.98, 0 3.74 M0 3.74 C-0.9 1.92, 2.22 0.65, 3.74 0 M0 3.74 C0.54 1.09, 0.43 0.2, 3.74 0" stroke="#343a40" stroke-width="2" fill="none"></path></g><g stroke-linecap="round" transform="translate(79.93959263392844 52.35810673701235) rotate(0 13.974609375 10.47265625)"><path d="M5.24 0 C13.04 -0.97, 16.29 2.71, 22.71 0 C24.62 -1.11, 29.45 0.09, 27.95 5.24 C29.71 7.45, 28.54 11.61, 27.95 15.71 C26.27 17.45, 28.2 21.69, 22.71 20.95 C17.34 21.82, 13.99 19.84, 5.24 20.95 C4.46 23.42, 1.47 19.19, 0 15.71 C1.91 14.17, 1.05 10.79, 0 5.24 C-3.33 -0.83, -0.92 -0.2, 5.24 0" stroke="none" stroke-width="0" fill="#fcc2d7"></path><path d="M5.24 0 C11.41 -1.25, 17.27 -0.96, 22.71 0 M5.24 0 C12.45 -1, 17.58 0.05, 22.71 0 M22.71 0 C27.45 -0.95, 26.05 2.6, 27.95 5.24 M22.71 0 C28.27 0.87, 28.88 -0.09, 27.95 5.24 M27.95 5.24 C28.58 8.64, 28.94 13.66, 27.95 15.71 M27.95 5.24 C27.79 8.19, 27.63 10.72, 27.95 15.71 M27.95 15.71 C26.1 20.96, 25.14 19.75, 22.71 20.95 M27.95 15.71 C27.99 20.87, 27.77 20.77, 22.71 20.95 M22.71 20.95 C17.53 19.62, 12.31 21.22, 5.24 20.95 M22.71 20.95 C18 20.79, 14.58 21.48, 5.24 20.95 M5.24 20.95 C0.44 20.18, -0.89 17.88, 0 15.71 M5.24 20.95 C2.58 23.03, -1.8 17.72, 0 15.71 M0 15.71 C-0.74 12.19, -0.34 8.37, 0 5.24 M0 15.71 C0.04 11.65, -0.49 8.52, 0 5.24 M0 5.24 C1.95 3.05, 2.68 -0.27, 5.24 0 M0 5.24 C-1.63 2.14, -0.21 0.66, 5.24 0" stroke="#1e1e1e" stroke-width="2" fill="none"></path></g><g stroke-linecap="round" transform="translate(30.14076450892844 38.31904423701235) rotate(0 25.4296875 23.859375)"><path d="M29.39 0.63 C34.54 1.38, 42.46 5.04, 45.93 8.92 C49.41 12.8, 50.47 18.94, 50.24 23.92 C50.01 28.9, 47.88 34.85, 44.55 38.8 C41.22 42.74, 35.68 46.63, 30.25 47.59 C24.83 48.54, 16.89 47.31, 12 44.54 C7.11 41.77, 2.54 35.62, 0.92 30.95 C-0.7 26.27, 0.17 21.06, 2.27 16.5 C4.37 11.94, 8.67 6.32, 13.54 3.57 C18.4 0.82, 28.19 0.47, 31.46 0 C34.72 -0.47, 33.17 0.25, 33.14 0.72 M28.23 0.82 C33.62 0.8, 41.74 3.28, 45.43 7.04 C49.12 10.8, 50.45 18.24, 50.37 23.39 C50.29 28.53, 47.93 34.12, 44.95 37.9 C41.96 41.69, 37.45 44.98, 32.46 46.09 C27.46 47.2, 20.02 46.64, 14.99 44.56 C9.96 42.47, 4.7 38.36, 2.28 33.6 C-0.14 28.84, -1.25 20.93, 0.46 16.01 C2.17 11.08, 7.99 6.7, 12.55 4.08 C17.11 1.46, 24.97 0.95, 27.81 0.29 C30.65 -0.37, 29.44 -0.24, 29.58 0.12" stroke="none" stroke-width="0" fill="#fcc2d7"></path><path d="M19.88 1.64 C24.53 0.04, 30.53 -0.52, 35.35 1.63 C40.17 3.78, 46.42 9.93, 48.77 14.53 C51.13 19.13, 50.89 24.25, 49.48 29.22 C48.07 34.2, 44.66 41.25, 40.32 44.38 C35.98 47.52, 29.07 48.51, 23.44 48.02 C17.81 47.53, 10.34 45.08, 6.54 41.44 C2.75 37.79, 0.89 31.49, 0.67 26.17 C0.45 20.85, 1.62 13.74, 5.23 9.5 C8.84 5.26, 19.27 2.07, 22.34 0.72 C25.42 -0.62, 23.64 1.17, 23.69 1.41 M26.93 1.48 C32.17 1.66, 39.09 2.87, 43.08 6.54 C47.06 10.21, 50.2 18.26, 50.84 23.5 C51.48 28.73, 50.2 33.99, 46.89 37.94 C43.58 41.89, 36.23 46.03, 30.98 47.19 C25.74 48.35, 20.43 47.3, 15.4 44.88 C10.38 42.46, 3.21 37.49, 0.84 32.68 C-1.54 27.88, -0.51 20.6, 1.15 16.05 C2.81 11.5, 6.47 8.12, 10.8 5.38 C15.14 2.64, 24.26 0.3, 27.16 -0.39 C30.06 -1.08, 28.21 0.86, 28.19 1.25" stroke="#1e1e1e" stroke-width="2" fill="none"></path></g></svg>