<svg version="1.1" xmlns="http://www.w3.org/2000/svg" viewBox="0 0 107.63022124304916 127.12357954545587" width="107.63022124304916" height="127.12357954545587">
  <!-- svg-source:excalidraw -->
  
  <defs>
    <style class="style-fonts">
      @font-face {
        font-family: "Virgil";
        src: url("https://excalidraw.com/Virgil.woff2");
      }
      @font-face {
        font-family: "Cascadia";
        src: url("https://excalidraw.com/Cascadia.woff2");
      }
      @font-face {
        font-family: "Assistant";
        src: url("https://excalidraw.com/Assistant-Regular.woff2");
      }
    </style>
    
  </defs>
  <g stroke-linecap="round" transform="translate(10 24.222165854976993) rotate(0 42.630859375 38.322265625)"><path d="M19.16 0 C33.4 -1.77, 48.48 -2.08, 66.1 0 C77.11 -2.16, 83.43 3.78, 85.26 19.16 C83.68 29.97, 87.81 43.01, 85.26 57.48 C86.53 70.06, 80.08 76, 66.1 76.64 C51.3 79.83, 31.32 74.1, 19.16 76.64 C7.41 73.8, 0.04 71.84, 0 57.48 C1.56 43.98, 2.77 29.71, 0 19.16 C2.25 4.67, 4.2 -3.49, 19.16 0" stroke="none" stroke-width="0" fill="#228be6"></path><path d="M19.16 0 C32.74 -0.39, 47.8 1.38, 66.1 0 M19.16 0 C33.45 0.43, 48.19 0.59, 66.1 0 M66.1 0 C78.87 0.33, 85.72 5.93, 85.26 19.16 M66.1 0 C77.08 1.03, 83.77 6.7, 85.26 19.16 M85.26 19.16 C86.04 26.83, 84.6 38.28, 85.26 57.48 M85.26 19.16 C85.08 27.8, 85.69 36.39, 85.26 57.48 M85.26 57.48 C85.6 69.85, 79.54 76.32, 66.1 76.64 M85.26 57.48 C85.36 68.91, 78.63 74.82, 66.1 76.64 M66.1 76.64 C50.97 78.9, 35.48 76.13, 19.16 76.64 M66.1 76.64 C52.75 77.21, 36.44 76.03, 19.16 76.64 M19.16 76.64 C8.15 76.67, 1.69 70.88, 0 57.48 M19.16 76.64 C7.17 77.54, -0.1 71.16, 0 57.48 M0 57.48 C-0.86 42.77, 0.6 29.66, 0 19.16 M0 57.48 C-0.45 46.92, -0.24 34.64, 0 19.16 M0 19.16 C0.67 6.02, 6.55 0.8, 19.16 0 M0 19.16 C-1.98 5.72, 8.36 -2.12, 19.16 0" stroke="#1e1e1e" stroke-width="2" fill="none"></path></g><g stroke-linecap="round" transform="translate(33.868992660984986 102.14701704545587) rotate(0 19.283203125 7.48828125)"><path d="M3.74 0 C14.22 -1.13, 23.25 -1.4, 34.82 0 C36 -1.88, 39.38 0.86, 38.57 3.74 C39.24 5.53, 38.87 8.1, 38.57 11.23 C39.43 13.26, 38.51 13.46, 34.82 14.98 C22.57 13.21, 14.39 13.24, 3.74 14.98 C1.28 16.12, 1.86 12.6, 0 11.23 C0.63 9.65, 0.57 7.22, 0 3.74 C-1.58 -1.27, -0.19 1.85, 3.74 0" stroke="none" stroke-width="0" fill="#868e96"></path><path d="M3.74 0 C14.21 0.75, 23.49 0.88, 34.82 0 M3.74 0 C12.87 0.23, 22.4 0.02, 34.82 0 M34.82 0 C37.55 -0.23, 37.79 1.7, 38.57 3.74 M34.82 0 C36.57 0.16, 37.99 0.25, 38.57 3.74 M38.57 3.74 C38.53 5.29, 38.27 6.5, 38.57 11.23 M38.57 3.74 C38.72 6.83, 38.6 9.63, 38.57 11.23 M38.57 11.23 C38.9 13.57, 37.36 14.39, 34.82 14.98 M38.57 11.23 C38.44 12.81, 37.68 15.44, 34.82 14.98 M34.82 14.98 C23.85 14.73, 12.47 15.7, 3.74 14.98 M34.82 14.98 C26.19 14.87, 18.97 15.1, 3.74 14.98 M3.74 14.98 C2.09 15.29, 0.34 14.12, 0 11.23 M3.74 14.98 C1.2 15.43, 0.51 13.89, 0 11.23 M0 11.23 C0.14 8.12, 0.01 5.83, 0 3.74 M0 11.23 C0.02 9.17, 0.07 7.08, 0 3.74 M0 3.74 C0.08 1.65, 0.39 -0.29, 3.74 0 M0 3.74 C0.98 0.19, 1.37 -0.4, 3.74 0" stroke="#1e1e1e" stroke-width="2" fill="none"></path></g><g stroke-linecap="round" transform="translate(34.05486505681802 10) rotate(0 19.283203125 7.48828125)"><path d="M3.74 0 C10.51 -1.36, 18.51 -1.68, 34.82 0 C38.13 -0.39, 38.42 0.18, 38.57 3.74 C38.98 5.55, 38.96 7.28, 38.57 11.23 C39.76 12.21, 38.37 16.01, 34.82 14.98 C23.78 12.6, 11.29 15.8, 3.74 14.98 C3.11 13.84, -1.64 14.64, 0 11.23 C0.54 8.37, -0.66 5.49, 0 3.74 C-1.44 3.09, -0.09 -2.18, 3.74 0" stroke="none" stroke-width="0" fill="#868e96"></path><path d="M3.74 0 C12.7 0.74, 21.39 -0.53, 34.82 0 M3.74 0 C14.39 -0.01, 25.16 -0.21, 34.82 0 M34.82 0 C36.54 0.45, 37.92 1.38, 38.57 3.74 M34.82 0 C36.74 -1, 37.5 1.89, 38.57 3.74 M38.57 3.74 C38.25 4.93, 38.92 6.87, 38.57 11.23 M38.57 3.74 C38.63 6.22, 38.66 8.74, 38.57 11.23 M38.57 11.23 C38.61 13.14, 37.21 14.18, 34.82 14.98 M38.57 11.23 C38.92 14.2, 38.02 15.21, 34.82 14.98 M34.82 14.98 C22.49 15.48, 9.66 15.91, 3.74 14.98 M34.82 14.98 C23.63 14.92, 11.98 15.06, 3.74 14.98 M3.74 14.98 C1.59 15.37, -0.05 14.12, 0 11.23 M3.74 14.98 C1.76 15.14, 0.92 13.27, 0 11.23 M0 11.23 C-0.02 9.84, -0.11 7.81, 0 3.74 M0 11.23 C0.06 8.31, 0.01 5.53, 0 3.74 M0 3.74 C-0.86 0.96, 2.1 -0.92, 3.74 0 M0 3.74 C0.13 0.85, 1.64 -0.11, 3.74 0" stroke="#343a40" stroke-width="2" fill="none"></path></g><g stroke-linecap="round" transform="translate(66.49462873228777 79.49309861458823) rotate(47.524435689906944 13.974609375 10.47265625)"><path d="M5.24 0 C8.01 -2.09, 14.96 -0.28, 22.71 0 C26.01 -1.48, 26.07 4.4, 27.95 5.24 C28.65 7.59, 28.88 9.53, 27.95 15.71 C29.41 20.64, 29.05 18.64, 22.71 20.95 C18.91 22.08, 17.28 19.33, 5.24 20.95 C-0.53 22.2, 0.74 21.67, 0 15.71 C-1.26 10.53, -1.16 10.35, 0 5.24 C-1.85 -1.27, 3.5 0.25, 5.24 0" stroke="none" stroke-width="0" fill="#eaddd7"></path><path d="M5.24 0 C11.75 -0.88, 19 -0.84, 22.71 0 M5.24 0 C11.72 -0.23, 17.11 0.36, 22.71 0 M22.71 0 C24.91 0.27, 26.95 0.01, 27.95 5.24 M22.71 0 C24.07 1.28, 25.76 1.37, 27.95 5.24 M27.95 5.24 C28.87 8.54, 28.23 12.31, 27.95 15.71 M27.95 5.24 C28.14 8.98, 27.99 12.58, 27.95 15.71 M27.95 15.71 C27.73 17.61, 26.83 21.76, 22.71 20.95 M27.95 15.71 C29.34 19.67, 28.47 21.48, 22.71 20.95 M22.71 20.95 C17.5 22.78, 14.92 19.35, 5.24 20.95 M22.71 20.95 C18.97 21.22, 14.06 21.29, 5.24 20.95 M5.24 20.95 C1.66 21.73, 0.89 19.49, 0 15.71 M5.24 20.95 C3.59 20.02, -1.73 19.95, 0 15.71 M0 15.71 C-0.26 13.14, 0.9 10.95, 0 5.24 M0 15.71 C0.01 12.78, -0.49 9.28, 0 5.24 M0 5.24 C1.71 -0.1, 1.97 -0.69, 5.24 0 M0 5.24 C0.79 1.52, 0.8 0.08, 5.24 0" stroke="#1e1e1e" stroke-width="2" fill="none"></path></g><g stroke-linecap="round" transform="translate(28.665801434028708 38.265868537084316) rotate(47.524435689906944 25.4296875 23.859375)"><path d="M35.66 1.18 C40.62 3.05, 45.67 9.13, 48.05 13.77 C50.44 18.42, 51.04 24.18, 49.97 29.04 C48.9 33.9, 45.93 39.78, 41.62 42.95 C37.31 46.11, 29.74 48.28, 24.13 48.02 C18.52 47.77, 11.85 45.1, 7.93 41.41 C4.01 37.73, 1.28 30.88, 0.59 25.94 C-0.09 21, 1.05 15.88, 3.8 11.75 C6.54 7.62, 11.16 2.41, 17.04 1.16 C22.92 -0.08, 34.8 3.37, 39.05 4.26 C43.31 5.16, 42.72 6.35, 42.55 6.55 M18.18 1.18 C23.23 -0.18, 31.36 0.3, 36.34 2.33 C41.31 4.36, 45.6 8.78, 48.04 13.36 C50.48 17.93, 52.29 24.75, 50.98 29.78 C49.68 34.81, 44.81 40.62, 40.19 43.55 C35.57 46.47, 28.68 47.98, 23.29 47.32 C17.9 46.66, 11.61 43.1, 7.84 39.57 C4.07 36.04, 0.97 31.25, 0.67 26.14 C0.37 21.02, 3.14 13.05, 6.03 8.89 C8.93 4.72, 16.03 2.42, 18.06 1.14 C20.09 -0.15, 17.79 0.7, 18.2 1.19" stroke="none" stroke-width="0" fill="#eaddd7"></path><path d="M20.6 0.69 C25.48 -0.69, 32.57 -0.16, 37.4 2.15 C42.23 4.45, 47.52 9.72, 49.57 14.53 C51.61 19.34, 51.62 26.2, 49.66 31 C47.69 35.79, 42.37 40.73, 37.78 43.31 C33.2 45.9, 27.42 47.11, 22.15 46.49 C16.88 45.88, 10 43.44, 6.17 39.6 C2.34 35.77, -0.89 28.57, -0.83 23.49 C-0.77 18.41, 2.29 12.9, 6.53 9.12 C10.78 5.34, 20.94 2.19, 24.65 0.81 C28.35 -0.58, 28.85 0.46, 28.78 0.79 M23.21 -1.11 C28.41 -1.56, 35.99 1.8, 40.62 5.01 C45.24 8.22, 49.4 13.23, 50.94 18.14 C52.49 23.04, 52.47 29.85, 49.89 34.43 C47.3 39.01, 40.49 43.65, 35.43 45.63 C30.37 47.61, 24.45 47.48, 19.54 46.3 C14.63 45.11, 9.48 42.75, 6 38.53 C2.52 34.31, -1.83 26.24, -1.34 20.97 C-0.86 15.7, 4.55 10.31, 8.88 6.9 C13.21 3.5, 22.13 1.51, 24.64 0.54 C27.15 -0.42, 24.12 0.72, 23.93 1.14" stroke="#1e1e1e" stroke-width="2" fill="none"></path></g></svg>