<svg version="1.1" xmlns="http://www.w3.org/2000/svg" viewBox="0 0 105.26171875 129.25250880672502" width="105.26171875" height="129.25250880672502">
  <!-- svg-source:excalidraw -->
  
  <defs>
    <style class="style-fonts">
      @font-face {
        font-family: "Virgil";
        src: url("https://excalidraw.com/Virgil.woff2");
      }
      @font-face {
        font-family: "Cascadia";
        src: url("https://excalidraw.com/Cascadia.woff2");
      }
      @font-face {
        font-family: "Assistant";
        src: url("https://excalidraw.com/Assistant-Regular.woff2");
      }
    </style>
    
  </defs>
  <g stroke-linecap="round" transform="translate(10 24.534665854976993) rotate(0 42.630859375 38.322265625)"><path d="M19.16 0 C32.83 0.01, 49.26 -3.38, 66.1 0 C77.84 3.08, 81.94 6.78, 85.26 19.16 C84.02 29.46, 83.71 37.75, 85.26 57.48 C83.1 68.43, 76.27 77.77, 66.1 76.64 C50.84 78.95, 37.81 77.56, 19.16 76.64 C6.19 77.85, -0.64 71.91, 0 57.48 C2.57 45.92, -3.17 39.99, 0 19.16 C-2.84 6.43, 7.97 2.58, 19.16 0" stroke="none" stroke-width="0" fill="#228be6"></path><path d="M19.16 0 C35.93 1.39, 48.61 1.74, 66.1 0 M19.16 0 C36.5 -0.19, 54.18 0.27, 66.1 0 M66.1 0 C78.55 1.32, 86.71 6.66, 85.26 19.16 M66.1 0 C80.84 0, 84.3 7.37, 85.26 19.16 M85.26 19.16 C85.82 29.6, 85.03 37.57, 85.26 57.48 M85.26 19.16 C84.51 31.51, 84.09 46.15, 85.26 57.48 M85.26 57.48 C83.36 69.93, 78.85 74.97, 66.1 76.64 M85.26 57.48 C83.14 72.46, 79.26 77.46, 66.1 76.64 M66.1 76.64 C47.94 77.39, 30.27 76.81, 19.16 76.64 M66.1 76.64 C55.08 76.68, 44.04 76.48, 19.16 76.64 M19.16 76.64 C8.36 77.11, -0.8 70.37, 0 57.48 M19.16 76.64 C7.69 75.77, 2.29 71.97, 0 57.48 M0 57.48 C0.2 51.39, 0.79 42.61, 0 19.16 M0 57.48 C0.46 44.64, 0.82 31.11, 0 19.16 M0 19.16 C-1.51 7.04, 4.98 -0.04, 19.16 0 M0 19.16 C1.78 5.82, 6.03 1.97, 19.16 0" stroke="#1e1e1e" stroke-width="2" fill="none"></path></g><g stroke-linecap="round" transform="translate(33.86899266098453 102.14701704545223) rotate(0 19.283203125 7.48828125)"><path d="M3.74 0 C15.16 -2.27, 23.74 2.19, 34.82 0 C34.92 0.29, 37.67 2.14, 38.57 3.74 C38.04 5.44, 37.94 7.59, 38.57 11.23 C36.68 14.54, 36.93 14.83, 34.82 14.98 C25.67 16.19, 18.59 16.14, 3.74 14.98 C0.78 16.17, -1.52 14.78, 0 11.23 C-0.86 8.96, -0.85 6.15, 0 3.74 C1.15 3.11, 0.12 -1.64, 3.74 0" stroke="none" stroke-width="0" fill="#868e96"></path><path d="M3.74 0 C12.92 0.78, 23.83 -0.52, 34.82 0 M3.74 0 C11.11 0.06, 18.24 0.41, 34.82 0 M34.82 0 C38.04 0.13, 39.42 1.25, 38.57 3.74 M34.82 0 C36.84 0.49, 38.11 1.93, 38.57 3.74 M38.57 3.74 C38.49 5.7, 38.74 7.99, 38.57 11.23 M38.57 3.74 C38.37 6.2, 38.37 8.41, 38.57 11.23 M38.57 11.23 C38.55 12.89, 36.4 15.94, 34.82 14.98 M38.57 11.23 C38.76 14.14, 38.22 15.73, 34.82 14.98 M34.82 14.98 C24.8 15.07, 14.52 14.92, 3.74 14.98 M34.82 14.98 C28.27 15.14, 21.61 15.16, 3.74 14.98 M3.74 14.98 C0.85 15.03, 0.57 13.35, 0 11.23 M3.74 14.98 C2.39 15.83, -1.12 13.22, 0 11.23 M0 11.23 C0.12 8.46, 0.14 5.41, 0 3.74 M0 11.23 C0.13 8.62, -0.16 6.21, 0 3.74 M0 3.74 C-0.7 1.23, 2.02 -0.25, 3.74 0 M0 3.74 C-0.18 2.23, 1.31 -0.01, 3.74 0" stroke="#1e1e1e" stroke-width="2" fill="none"></path></g><g stroke-linecap="round" transform="translate(34.05486505681802 10) rotate(0 19.283203125 7.48828125)"><path d="M3.74 0 C12.58 2.57, 20.51 0.63, 34.82 0 C36.42 0.89, 38.31 0.18, 38.57 3.74 C37.93 5.52, 37.81 8.59, 38.57 11.23 C38.18 13.59, 36.25 13.62, 34.82 14.98 C23.07 15.99, 11.13 16.31, 3.74 14.98 C-0.27 16.03, 1.04 15.78, 0 11.23 C-0.69 9.48, 0.51 8.39, 0 3.74 C-1.13 -0.39, 2.16 0.53, 3.74 0" stroke="none" stroke-width="0" fill="#868e96"></path><path d="M3.74 0 C16.03 -0.55, 26.24 -0.23, 34.82 0 M3.74 0 C11.43 0.34, 19.64 0.07, 34.82 0 M34.82 0 C38.17 0, 38.15 1.67, 38.57 3.74 M34.82 0 C36.86 0.68, 38.56 1.44, 38.57 3.74 M38.57 3.74 C38.73 5.92, 38.61 8.39, 38.57 11.23 M38.57 3.74 C38.35 5.31, 38.53 6.78, 38.57 11.23 M38.57 11.23 C37.65 14.69, 37.49 15.33, 34.82 14.98 M38.57 11.23 C39.47 14.48, 37.52 14.74, 34.82 14.98 M34.82 14.98 C23.88 14.88, 13.31 15.29, 3.74 14.98 M34.82 14.98 C24.73 15.13, 13.45 15.04, 3.74 14.98 M3.74 14.98 C1.81 14.6, 0.99 14.47, 0 11.23 M3.74 14.98 C0.13 14.47, 1.01 13.75, 0 11.23 M0 11.23 C0.13 8.34, 0.14 5.64, 0 3.74 M0 11.23 C-0.17 8.94, -0.16 6.52, 0 3.74 M0 3.74 C0.77 1, 1.09 0.86, 3.74 0 M0 3.74 C0.06 1.24, 1.64 -0.21, 3.74 0" stroke="#343a40" stroke-width="2" fill="none"></path></g><g stroke-linecap="round" transform="translate(39.659724954542526 94.68115560863953) rotate(90.684351531919 13.974609375 10.47265625)"><path d="M5.24 0 C6.07 0.08, 11.63 0.81, 22.71 0 C25.85 -1.48, 28.07 -0.05, 27.95 5.24 C26.47 8.45, 27.55 10.39, 27.95 15.71 C26.47 17.32, 28.85 19.41, 22.71 20.95 C16.29 22.49, 9.16 22.33, 5.24 20.95 C3.18 23.79, -2.3 16.31, 0 15.71 C0.98 13.62, -0.67 7.64, 0 5.24 C1.26 2.48, 4.22 0.71, 5.24 0" stroke="none" stroke-width="0" fill="#eaddd7"></path><path d="M5.24 0 C10.9 -0.09, 17.98 0.34, 22.71 0 M5.24 0 C11.04 0, 16.33 -0.11, 22.71 0 M22.71 0 C25.37 0.85, 27.16 2.93, 27.95 5.24 M22.71 0 C26.19 0.38, 28.48 1.22, 27.95 5.24 M27.95 5.24 C28.14 7.04, 27.09 8.92, 27.95 15.71 M27.95 5.24 C27.84 8.52, 27.37 13.19, 27.95 15.71 M27.95 15.71 C28.28 19.91, 27.77 22.25, 22.71 20.95 M27.95 15.71 C28.34 18.73, 26.97 20.57, 22.71 20.95 M22.71 20.95 C16 21.47, 12.79 21.99, 5.24 20.95 M22.71 20.95 C16.76 21.03, 12.01 20.66, 5.24 20.95 M5.24 20.95 C3.73 22.43, -1.94 18.32, 0 15.71 M5.24 20.95 C3.77 20.98, 1.94 19.91, 0 15.71 M0 15.71 C0.37 12.68, 0.11 9.55, 0 5.24 M0 15.71 C-0.29 12.98, 0.48 10.14, 0 5.24 M0 5.24 C-0.31 3.46, 1.85 -0.01, 5.24 0 M0 5.24 C0.78 1.33, 1.94 0.92, 5.24 0" stroke="#1e1e1e" stroke-width="2" fill="none"></path></g><g stroke-linecap="round" transform="translate(28.01032366071422 42.94563042432492) rotate(90.684351531919 25.4296875 23.859375)"><path d="M36.57 2.61 C41.45 4.26, 46.6 9.15, 48.9 13.8 C51.2 18.46, 51.83 25.49, 50.36 30.56 C48.89 35.63, 44.69 41.53, 40.09 44.25 C35.48 46.97, 28.12 47.58, 22.73 46.87 C17.33 46.15, 11.49 43.34, 7.71 39.97 C3.94 36.6, 0.62 31.63, 0.07 26.63 C-0.48 21.63, 1.11 14.25, 4.4 9.95 C7.69 5.66, 14.24 1.95, 19.79 0.84 C25.34 -0.26, 34.57 2.75, 37.73 3.31 C40.88 3.88, 38.83 4.11, 38.7 4.26 M21.94 -0.27 C26.89 -1.06, 34.82 0.64, 39.32 3.42 C43.83 6.2, 47.47 11.68, 48.96 16.43 C50.46 21.19, 50.37 27.35, 48.3 31.96 C46.24 36.58, 41.42 41.49, 36.57 44.11 C31.71 46.73, 24.39 48.61, 19.17 47.69 C13.95 46.76, 8.53 42.77, 5.24 38.55 C1.94 34.33, -0.99 27.55, -0.61 22.35 C-0.22 17.15, 3.74 11.03, 7.56 7.33 C11.38 3.64, 19.84 1.31, 22.31 0.16 C24.77 -0.98, 22.26 0.19, 22.35 0.45" stroke="none" stroke-width="0" fill="#eaddd7"></path><path d="M28.07 0.8 C33.28 1.04, 39.59 4.29, 43.37 7.68 C47.15 11.07, 50.17 16.26, 50.74 21.14 C51.32 26.02, 49.81 32.68, 46.82 36.96 C43.84 41.25, 38.13 45.37, 32.84 46.84 C27.54 48.32, 20.17 48.05, 15.07 45.81 C9.97 43.56, 4.56 38.13, 2.26 33.37 C-0.05 28.61, -0.17 22.16, 1.25 17.25 C2.67 12.35, 6.21 6.92, 10.78 3.94 C15.35 0.97, 25.13 0.01, 28.68 -0.61 C32.23 -1.23, 32.04 -0.31, 32.09 0.24 M15.34 2.59 C20.36 0.26, 28.38 0.63, 33.62 1.9 C38.85 3.17, 43.84 6.18, 46.77 10.21 C49.71 14.25, 51.82 21.13, 51.22 26.11 C50.62 31.1, 47.19 36.75, 43.16 40.15 C39.13 43.54, 32.41 45.86, 27.04 46.47 C21.67 47.07, 15.18 46.53, 10.95 43.77 C6.72 41.01, 2.81 34.94, 1.66 29.93 C0.51 24.93, 1.92 18.38, 4.06 13.75 C6.19 9.12, 12.48 4.11, 14.49 2.14 C16.51 0.17, 15.63 1.39, 16.15 1.93" stroke="#1e1e1e" stroke-width="2" fill="none"></path></g></svg>