<svg version="1.1" xmlns="http://www.w3.org/2000/svg" viewBox="0 0 106.88189535019183 127.12357954545587" width="106.88189535019183" height="127.12357954545587">
  <!-- svg-source:excalidraw -->
  
  <defs>
    <style class="style-fonts">
      @font-face {
        font-family: "Virgil";
        src: url("https://excalidraw.com/Virgil.woff2");
      }
      @font-face {
        font-family: "Cascadia";
        src: url("https://excalidraw.com/Cascadia.woff2");
      }
      @font-face {
        font-family: "Assistant";
        src: url("https://excalidraw.com/Assistant-Regular.woff2");
      }
    </style>
    
  </defs>
  <g stroke-linecap="round" transform="translate(10 24.85274621212011) rotate(0 42.630859375 38.322265625)"><path d="M19.16 0 C36.63 1.38, 48.48 3.59, 66.1 0 C81.22 0.62, 84.52 7.59, 85.26 19.16 C84.91 27.17, 86.41 42.38, 85.26 57.48 C87.44 70.99, 82.43 77.49, 66.1 76.64 C52.52 80.7, 44.35 73.63, 19.16 76.64 C4.81 79.81, 0.05 73.29, 0 57.48 C-0.4 46.21, 1.37 32.63, 0 19.16 C2.88 4.94, 3.67 1.18, 19.16 0" stroke="none" stroke-width="0" fill="#228be6"></path><path d="M19.16 0 C30.37 -0.11, 41.51 -0.1, 66.1 0 M19.16 0 C37.22 0.15, 53.71 1, 66.1 0 M66.1 0 C79.41 -0.1, 86.26 5.35, 85.26 19.16 M66.1 0 C76.82 1.32, 85.34 7.11, 85.26 19.16 M85.26 19.16 C83.1 29.33, 84.27 38.62, 85.26 57.48 M85.26 19.16 C85.11 30.79, 85.73 41.13, 85.26 57.48 M85.26 57.48 C84.46 69.99, 78.3 75.73, 66.1 76.64 M85.26 57.48 C84.34 69.2, 79.09 76.67, 66.1 76.64 M66.1 76.64 C51.7 75.77, 37.25 77.52, 19.16 76.64 M66.1 76.64 C51.03 76.49, 35.4 77.72, 19.16 76.64 M19.16 76.64 C5.57 75.34, -0.18 69.26, 0 57.48 M19.16 76.64 C6.74 76.56, -0.37 71.78, 0 57.48 M0 57.48 C-0.05 42.37, 0.8 28.15, 0 19.16 M0 57.48 C0.23 43.49, -0.78 30.39, 0 19.16 M0 19.16 C-1.3 6.66, 5.38 -1.74, 19.16 0 M0 19.16 C-2.13 7.67, 4.2 -0.38, 19.16 0" stroke="#1e1e1e" stroke-width="2" fill="none"></path></g><g stroke-linecap="round" transform="translate(33.86899266098453 102.14701704545587) rotate(0 19.283203125 7.48828125)"><path d="M3.74 0 C11.13 1.97, 18.36 0.38, 34.82 0 C36.79 0.87, 38.15 1.36, 38.57 3.74 C38.86 5.95, 39.15 7.56, 38.57 11.23 C41.13 14.34, 36.28 15.12, 34.82 14.98 C25.67 12.85, 11.52 17.66, 3.74 14.98 C1.29 17.17, 0.81 14.62, 0 11.23 C0.44 8.84, 0.78 5.77, 0 3.74 C-1.96 2.1, -0.58 -0.05, 3.74 0" stroke="none" stroke-width="0" fill="#868e96"></path><path d="M3.74 0 C15.06 0.14, 28.79 0.15, 34.82 0 M3.74 0 C11.13 0.38, 18.64 0, 34.82 0 M34.82 0 C37.82 -0.52, 37.68 1.82, 38.57 3.74 M34.82 0 C37.36 0.36, 38.32 0.22, 38.57 3.74 M38.57 3.74 C38.41 5.23, 38.51 7.58, 38.57 11.23 M38.57 3.74 C38.61 6.01, 38.48 8.51, 38.57 11.23 M38.57 11.23 C38.28 13.27, 36.92 14.52, 34.82 14.98 M38.57 11.23 C38.68 13.74, 37.25 15.61, 34.82 14.98 M34.82 14.98 C22.34 15.12, 11.46 15, 3.74 14.98 M34.82 14.98 C23.57 15.25, 11.21 14.57, 3.74 14.98 M3.74 14.98 C1.16 14.48, 0.16 13.69, 0 11.23 M3.74 14.98 C1.06 15.74, 0.83 13.88, 0 11.23 M0 11.23 C0.16 8.2, 0.22 5.46, 0 3.74 M0 11.23 C-0.15 8.94, -0.13 6.51, 0 3.74 M0 3.74 C-0.5 0.38, 0.32 0.56, 3.74 0 M0 3.74 C-1.09 1.06, 1.23 -0.96, 3.74 0" stroke="#1e1e1e" stroke-width="2" fill="none"></path></g><g stroke-linecap="round" transform="translate(34.05486505681802 10) rotate(0 19.283203125 7.48828125)"><path d="M3.74 0 C15.28 0.13, 22.9 0.55, 34.82 0 C36.9 0.11, 37.04 0.97, 38.57 3.74 C39.19 5.59, 39.56 7.27, 38.57 11.23 C37.53 13.87, 38.79 13.99, 34.82 14.98 C21.27 16.87, 10.04 16.78, 3.74 14.98 C2.06 15.86, 1.01 13.61, 0 11.23 C0.74 8.3, -0.78 6.47, 0 3.74 C-1.83 1.2, 3.26 -0.64, 3.74 0" stroke="none" stroke-width="0" fill="#868e96"></path><path d="M3.74 0 C14.24 0.15, 22.76 0.76, 34.82 0 M3.74 0 C12.75 -0.14, 21.74 -0.37, 34.82 0 M34.82 0 C36.43 0.57, 38.6 1.56, 38.57 3.74 M34.82 0 C37.07 -1.03, 37.93 0.2, 38.57 3.74 M38.57 3.74 C38.54 5.97, 38.63 7.74, 38.57 11.23 M38.57 3.74 C38.5 6.2, 38.52 8.63, 38.57 11.23 M38.57 11.23 C38.17 13.27, 37.41 14.99, 34.82 14.98 M38.57 11.23 C38.5 14.37, 38.26 14.64, 34.82 14.98 M34.82 14.98 C27.82 15.13, 20.85 15.74, 3.74 14.98 M34.82 14.98 C26.88 14.76, 19.3 14.84, 3.74 14.98 M3.74 14.98 C1.4 14.94, -0.16 14.39, 0 11.23 M3.74 14.98 C2.08 15.13, 0.98 13.73, 0 11.23 M0 11.23 C0.21 9.3, 0.05 7.45, 0 3.74 M0 11.23 C-0.09 9.18, -0.06 6.92, 0 3.74 M0 3.74 C-0.93 1.8, 0.3 -0.16, 3.74 0 M0 3.74 C-0.01 0.29, 0.19 1.1, 3.74 0" stroke="#343a40" stroke-width="2" fill="none"></path></g><g stroke-linecap="round" transform="translate(65.74630283943043 23.860949680867634) rotate(312.47556431009303 13.974609375 10.47265625)"><path d="M5.24 0 C11.2 0.99, 17.95 0.08, 22.71 0 C24.1 -0.39, 25.09 2.87, 27.95 5.24 C29.92 9.25, 27.31 12.48, 27.95 15.71 C29.99 17.84, 29.78 23.62, 22.71 20.95 C19.21 23.87, 16.6 22.3, 5.24 20.95 C3.14 20.78, 1.42 20.81, 0 15.71 C-1.57 13.03, -1.48 9.09, 0 5.24 C2.79 0.85, 1.19 3.09, 5.24 0" stroke="none" stroke-width="0" fill="#eaddd7"></path><path d="M5.24 0 C9.68 1.34, 16.06 -0.04, 22.71 0 M5.24 0 C12.15 -0.44, 17.42 0.51, 22.71 0 M22.71 0 C26.28 0.63, 27.52 -0.05, 27.95 5.24 M22.71 0 C24.93 -2.09, 27.37 1, 27.95 5.24 M27.95 5.24 C28.15 7.06, 28.28 9.86, 27.95 15.71 M27.95 5.24 C27.76 7.45, 27.7 9.9, 27.95 15.71 M27.95 15.71 C28.14 19.22, 26.09 22.05, 22.71 20.95 M27.95 15.71 C29.83 18.52, 24.76 19.52, 22.71 20.95 M22.71 20.95 C18.38 22.23, 10.48 22.53, 5.24 20.95 M22.71 20.95 C16.14 20.39, 9.87 20.8, 5.24 20.95 M5.24 20.95 C1.42 22.27, 1.45 19.47, 0 15.71 M5.24 20.95 C3.71 20.95, -0.96 20.18, 0 15.71 M0 15.71 C0.11 13.22, -0.3 9.44, 0 5.24 M0 15.71 C-0.19 11.64, -0.42 8.78, 0 5.24 M0 5.24 C-1.9 1.42, 1.72 -1.67, 5.24 0 M0 5.24 C-2.12 3.95, 2.13 0.82, 5.24 0" stroke="#1e1e1e" stroke-width="2" fill="none"></path></g><g stroke-linecap="round" transform="translate(27.917475541171825 38.54130475837155) rotate(312.47556431009303 25.4296875 23.859375)"><path d="M36.38 1.74 C41.33 3.54, 46.66 8.85, 48.96 13.56 C51.27 18.28, 51.72 25.22, 50.22 30.04 C48.73 34.86, 44.37 39.67, 39.99 42.49 C35.6 45.32, 29.28 47.35, 23.91 47 C18.54 46.65, 11.87 44.02, 7.76 40.39 C3.65 36.77, -0.29 30.41, -0.75 25.24 C-1.21 20.08, 1.82 13.48, 5.01 9.41 C8.21 5.35, 12.71 1.84, 18.45 0.86 C24.18 -0.11, 35.08 2.36, 39.44 3.57 C43.8 4.77, 44.66 7.47, 44.61 8.07 M34.07 1.01 C39.05 2.19, 44.5 6.37, 47.22 10.58 C49.94 14.79, 51.16 20.96, 50.41 26.27 C49.65 31.57, 46.6 38.76, 42.69 42.39 C38.77 46.01, 32.2 47.94, 26.93 48.02 C21.65 48.09, 15.52 46.07, 11.02 42.84 C6.51 39.6, 1.07 33.79, -0.1 28.63 C-1.28 23.46, 1.01 16.16, 3.97 11.84 C6.93 7.53, 12.98 4.62, 17.67 2.75 C22.36 0.87, 29.27 0.77, 32.12 0.6 C34.96 0.43, 34.41 1.17, 34.73 1.73" stroke="none" stroke-width="0" fill="#eaddd7"></path><path d="M25.34 0.5 C30.31 -0.01, 36.95 1.47, 41.23 4.67 C45.51 7.87, 49.95 14.57, 51.04 19.72 C52.13 24.86, 50.75 31.21, 47.79 35.54 C44.82 39.88, 38.59 43.97, 33.26 45.72 C27.94 47.47, 20.88 47.85, 15.86 46.04 C10.83 44.23, 5.69 39.19, 3.1 34.88 C0.51 30.57, -0.69 25.13, 0.33 20.19 C1.36 15.26, 4.35 8.55, 9.25 5.28 C14.15 2.02, 25.87 1.27, 29.75 0.59 C33.63 -0.08, 32.69 0.95, 32.55 1.25 M19.82 0.63 C24.88 -0.51, 31.82 1.18, 36.86 3.42 C41.9 5.66, 48.06 9.66, 50.05 14.07 C52.04 18.48, 50.54 24.83, 48.81 29.88 C47.08 34.94, 44.05 41.27, 39.67 44.4 C35.29 47.54, 27.83 49.53, 22.54 48.69 C17.25 47.86, 11.47 43.14, 7.94 39.39 C4.41 35.64, 1.96 31.35, 1.38 26.21 C0.81 21.07, 1.46 12.93, 4.49 8.54 C7.51 4.15, 16.95 1.12, 19.54 -0.13 C22.14 -1.39, 19.95 0.35, 20.03 1.02" stroke="#1e1e1e" stroke-width="2" fill="none"></path></g></svg>