<svg version="1.1" xmlns="http://www.w3.org/2000/svg" viewBox="0 0 106.68100249304916 127.12357954545587" width="106.68100249304916" height="127.12357954545587">
  <!-- svg-source:excalidraw -->
  
  <defs>
    <style class="style-fonts">
      @font-face {
        font-family: "Virgil";
        src: url("https://excalidraw.com/Virgil.woff2");
      }
      @font-face {
        font-family: "Cascadia";
        src: url("https://excalidraw.com/Cascadia.woff2");
      }
      @font-face {
        font-family: "Assistant";
        src: url("https://excalidraw.com/Assistant-Regular.woff2");
      }
    </style>
    
  </defs>
  <g stroke-linecap="round" transform="translate(11.419283743049164 24.534665854976993) rotate(0 42.630859375 38.322265625)"><path d="M19.16 0 C38.18 -1.9, 54.76 3.43, 66.1 0 C77.98 -0.55, 88.35 6.57, 85.26 19.16 C85.79 32.08, 82.4 41.08, 85.26 57.48 C88.34 66.94, 79.27 75.41, 66.1 76.64 C50.53 74.51, 32.95 74.13, 19.16 76.64 C4.56 74.04, 1.12 69.72, 0 57.48 C2.93 44.66, 1.55 34.71, 0 19.16 C1.2 5.74, 8.04 -2.1, 19.16 0" stroke="none" stroke-width="0" fill="#228be6"></path><path d="M19.16 0 C31.39 -0.16, 44.68 1.59, 66.1 0 M19.16 0 C32.1 0.66, 44.67 1.06, 66.1 0 M66.1 0 C80.32 -1.02, 87.06 7.81, 85.26 19.16 M66.1 0 C77.93 -1.51, 85.06 5.23, 85.26 19.16 M85.26 19.16 C86.57 32.7, 85.52 45.05, 85.26 57.48 M85.26 19.16 C84.71 31.26, 85.1 42.33, 85.26 57.48 M85.26 57.48 C85.72 69.8, 77.32 77.54, 66.1 76.64 M85.26 57.48 C83.77 70.57, 77.72 74.64, 66.1 76.64 M66.1 76.64 C56.04 76.17, 44.96 74.36, 19.16 76.64 M66.1 76.64 C48.3 77.46, 29.11 76.61, 19.16 76.64 M19.16 76.64 C7.05 76.32, 0.09 69.09, 0 57.48 M19.16 76.64 C6.14 74.82, 0.72 71.19, 0 57.48 M0 57.48 C0.39 42.87, 0.03 30.98, 0 19.16 M0 57.48 C-1.35 47, 0.5 37.41, 0 19.16 M0 19.16 C1.69 7.01, 7.07 0.78, 19.16 0 M0 19.16 C-0.1 7.29, 7.41 0.33, 19.16 0" stroke="#1e1e1e" stroke-width="2" fill="none"></path></g><g stroke-linecap="round" transform="translate(35.28827640403415 102.14701704545587) rotate(0 19.283203125 7.48828125)"><path d="M3.74 0 C10.67 2.3, 17.06 -0.12, 34.82 0 C39.55 0.14, 38.56 2.12, 38.57 3.74 C37.74 5.57, 39.41 7.07, 38.57 11.23 C38.85 12.83, 38.21 14.72, 34.82 14.98 C25.5 13.21, 17.41 12.89, 3.74 14.98 C2.06 14.59, -0.14 12.66, 0 11.23 C0.27 9.32, 0.25 7.35, 0 3.74 C1.19 -0.27, 2.3 1.04, 3.74 0" stroke="none" stroke-width="0" fill="#868e96"></path><path d="M3.74 0 C13.92 0.83, 22.69 -0.62, 34.82 0 M3.74 0 C11.21 0.33, 18.91 -0.31, 34.82 0 M34.82 0 C38.22 0.71, 38.16 0.59, 38.57 3.74 M34.82 0 C37.22 -0.58, 38.75 1.2, 38.57 3.74 M38.57 3.74 C38.64 6.19, 38.59 7.84, 38.57 11.23 M38.57 3.74 C38.55 6.34, 38.59 8.83, 38.57 11.23 M38.57 11.23 C37.79 14.18, 36.67 15.11, 34.82 14.98 M38.57 11.23 C37.99 12.73, 36.25 15.62, 34.82 14.98 M34.82 14.98 C27.62 14.05, 23.05 15.14, 3.74 14.98 M34.82 14.98 C24.48 14.98, 14.14 15, 3.74 14.98 M3.74 14.98 C1.29 14.39, -0.11 12.93, 0 11.23 M3.74 14.98 C1.61 15.44, 0.7 13.96, 0 11.23 M0 11.23 C0.01 8.46, -0.15 5.63, 0 3.74 M0 11.23 C0.2 8.43, 0.19 5.69, 0 3.74 M0 3.74 C0.34 1.64, 1.2 0.39, 3.74 0 M0 3.74 C0.51 1.41, 2.17 -0.46, 3.74 0" stroke="#1e1e1e" stroke-width="2" fill="none"></path></g><g stroke-linecap="round" transform="translate(35.47414879986718 10) rotate(0 19.283203125 7.48828125)"><path d="M3.74 0 C10.24 -0.71, 20.25 -0.18, 34.82 0 C37.31 0.88, 38.09 1.46, 38.57 3.74 C39.32 5.39, 38.59 8.5, 38.57 11.23 C39.46 13.47, 36.25 15.06, 34.82 14.98 C25.72 12.85, 20.08 14.34, 3.74 14.98 C1.11 13.91, -1.36 15.64, 0 11.23 C0.29 9.13, 0.41 6.81, 0 3.74 C1.05 2.28, 3.3 -1.66, 3.74 0" stroke="none" stroke-width="0" fill="#868e96"></path><path d="M3.74 0 C12.59 -0.76, 21.41 0.12, 34.82 0 M3.74 0 C14.57 -0.37, 25.11 0.24, 34.82 0 M34.82 0 C36.91 -0.65, 38.48 0.75, 38.57 3.74 M34.82 0 C37.5 -0.04, 38.38 2.01, 38.57 3.74 M38.57 3.74 C38.57 6.38, 38.73 9.17, 38.57 11.23 M38.57 3.74 C38.61 6.39, 38.42 9.21, 38.57 11.23 M38.57 11.23 C37.92 13.86, 36.82 14.11, 34.82 14.98 M38.57 11.23 C37.5 14.37, 36.22 14.79, 34.82 14.98 M34.82 14.98 C26.5 15, 16.61 15.62, 3.74 14.98 M34.82 14.98 C23.64 14.86, 12.14 14.65, 3.74 14.98 M3.74 14.98 C1.14 14.18, 0.31 14.14, 0 11.23 M3.74 14.98 C1.94 15.21, 1.13 14, 0 11.23 M0 11.23 C-0.14 9.66, 0.28 6.97, 0 3.74 M0 11.23 C0.12 9.37, 0.03 7.47, 0 3.74 M0 3.74 C-0.05 1.64, 1.69 0.14, 3.74 0 M0 3.74 C0.92 0.79, 0.38 0.38, 3.74 0" stroke="#343a40" stroke-width="2" fill="none"></path></g><g stroke-linecap="round" transform="translate(13.186373760761398 77.88930397172953) rotate(312.47556431009303 13.974609375 10.47265625)"><path d="M5.24 0 C14.53 0.21, 18.42 1.11, 22.71 0 C25.55 0.3, 29.39 -1.35, 27.95 5.24 C28.32 7.43, 28.76 10.73, 27.95 15.71 C26.47 19.32, 24.41 19.18, 22.71 20.95 C19.5 20.25, 14.16 19.42, 5.24 20.95 C-0.14 23.6, -1.54 20.46, 0 15.71 C0.8 11.52, 0.7 10.29, 0 5.24 C2.85 -0.56, -1.14 1.02, 5.24 0" stroke="none" stroke-width="0" fill="#eaddd7"></path><path d="M5.24 0 C10.83 0.54, 19.22 0.32, 22.71 0 M5.24 0 C12.6 0.71, 18.04 -0.48, 22.71 0 M22.71 0 C26.02 -1, 28.26 1.67, 27.95 5.24 M22.71 0 C25.83 1.52, 29.62 2.05, 27.95 5.24 M27.95 5.24 C28.4 8.86, 28.57 13.3, 27.95 15.71 M27.95 5.24 C27.57 8.79, 27.63 11.94, 27.95 15.71 M27.95 15.71 C26.95 17.46, 24.35 22.06, 22.71 20.95 M27.95 15.71 C25.76 18.82, 26.17 19.02, 22.71 20.95 M22.71 20.95 C19.7 22.34, 16.59 21.27, 5.24 20.95 M22.71 20.95 C17.87 20.41, 12.85 20.22, 5.24 20.95 M5.24 20.95 C2.37 21.76, 1.21 19.61, 0 15.71 M5.24 20.95 C4.02 21.48, -0.92 19.33, 0 15.71 M0 15.71 C0.82 10.96, -0.42 9.16, 0 5.24 M0 15.71 C0.09 12.75, -0.11 9.6, 0 5.24 M0 5.24 C0.89 2.03, 3.35 -0.8, 5.24 0 M0 5.24 C-1.73 2.5, 0.13 -0.05, 5.24 0" stroke="#1e1e1e" stroke-width="2" fill="none"></path></g><g stroke-linecap="round" transform="translate(27.842768023306235 37.022564965653146) rotate(312.47556431009303 25.4296875 23.859375)"><path d="M37.53 3.41 C42.14 5.68, 46.54 11.53, 48.67 16.02 C50.81 20.51, 52.04 25.53, 50.32 30.37 C48.6 35.2, 43.12 42.04, 38.36 45.03 C33.61 48.02, 27.05 49.14, 21.79 48.31 C16.52 47.49, 10.33 44.05, 6.76 40.08 C3.2 36.12, 0.55 29.63, 0.4 24.54 C0.25 19.44, 2.52 13.4, 5.86 9.53 C9.19 5.66, 14.5 2.1, 20.4 1.3 C26.3 0.5, 37.14 3.55, 41.27 4.74 C45.39 5.94, 45.36 7.91, 45.15 8.47 M22.37 0.18 C27.59 -0.99, 35.17 0.68, 39.75 3.55 C44.33 6.43, 48.56 12.59, 49.86 17.45 C51.16 22.31, 49.49 28.33, 47.56 32.71 C45.64 37.09, 42.9 41.4, 38.3 43.72 C33.69 46.03, 25.35 47.54, 19.92 46.6 C14.48 45.66, 9.08 42.08, 5.66 38.1 C2.24 34.12, -0.65 27.9, -0.58 22.7 C-0.52 17.5, 2.39 10.76, 6.06 6.88 C9.72 3, 18.85 0.38, 21.39 -0.58 C23.92 -1.54, 21.1 0.62, 21.26 1.12" stroke="none" stroke-width="0" fill="#eaddd7"></path><path d="M26.41 0.94 C31.59 0.73, 39.67 2.76, 43.6 6.1 C47.54 9.45, 49.61 15.84, 50.03 21.01 C50.46 26.18, 49.06 32.88, 46.17 37.14 C43.27 41.39, 37.7 45, 32.67 46.56 C27.64 48.12, 20.98 48.35, 16.01 46.49 C11.03 44.63, 5.39 40.17, 2.83 35.41 C0.28 30.65, -0.62 23.11, 0.69 17.93 C2 12.74, 5.39 7.18, 10.68 4.32 C15.97 1.46, 28.13 0.98, 32.42 0.76 C36.71 0.55, 36.67 2.77, 36.43 3.03 M30.33 -0.71 C35.38 0.18, 41.13 6.03, 44.31 10.28 C47.49 14.54, 49.44 20.04, 49.4 24.8 C49.36 29.56, 47.75 34.8, 44.05 38.83 C40.36 42.86, 32.57 48.04, 27.21 48.97 C21.85 49.91, 16.04 47.28, 11.89 44.43 C7.73 41.59, 3.91 36.9, 2.3 31.87 C0.7 26.85, 0.25 19.2, 2.25 14.29 C4.26 9.37, 9.51 4.81, 14.33 2.39 C19.14 -0.04, 28.4 0.14, 31.15 -0.28 C33.9 -0.7, 30.84 -0.77, 30.81 -0.13" stroke="#1e1e1e" stroke-width="2" fill="none"></path></g></svg>