<svg version="1.1" xmlns="http://www.w3.org/2000/svg" viewBox="0 0 108.08725249304916 127.12357954545587" width="108.08725249304916" height="127.12357954545587">
  <!-- svg-source:excalidraw -->
  
  <defs>
    <style class="style-fonts">
      @font-face {
        font-family: "Virgil";
        src: url("https://excalidraw.com/Virgil.woff2");
      }
      @font-face {
        font-family: "Cascadia";
        src: url("https://excalidraw.com/Cascadia.woff2");
      }
      @font-face {
        font-family: "Assistant";
        src: url("https://excalidraw.com/Assistant-Regular.woff2");
      }
    </style>
    
  </defs>
  <g stroke-linecap="round" transform="translate(12.825533743049164 24.534665854976993) rotate(0 42.630859375 38.322265625)"><path d="M19.16 0 C38.07 2.37, 55.22 3.91, 66.1 0 C81.55 -3.49, 83.68 9.55, 85.26 19.16 C87.07 32.11, 85.68 43.69, 85.26 57.48 C86.87 70.78, 81.75 75.2, 66.1 76.64 C55.49 78.84, 44.12 75.5, 19.16 76.64 C9.48 76.83, -0.02 71.47, 0 57.48 C-3.15 45.65, 3.02 32.56, 0 19.16 C0.4 5.15, 7.62 -0.36, 19.16 0" stroke="none" stroke-width="0" fill="#228be6"></path><path d="M19.16 0 C31.62 -1, 45.84 -0.4, 66.1 0 M19.16 0 C32.16 0.22, 43.94 0.34, 66.1 0 M66.1 0 C79.46 -1.32, 84.46 6.12, 85.26 19.16 M66.1 0 C78.22 -1.05, 84.34 5.33, 85.26 19.16 M85.26 19.16 C86.37 32.66, 84.68 41.63, 85.26 57.48 M85.26 19.16 C85.47 29.06, 86.08 36.91, 85.26 57.48 M85.26 57.48 C87.06 71.69, 78.05 75.34, 66.1 76.64 M85.26 57.48 C85.06 69.11, 79.23 76.56, 66.1 76.64 M66.1 76.64 C53.04 78.69, 39.45 76.15, 19.16 76.64 M66.1 76.64 C50.01 77.09, 34.16 76.69, 19.16 76.64 M19.16 76.64 C4.83 77.54, -1.3 70.53, 0 57.48 M19.16 76.64 C5.23 74.64, -2.13 71.54, 0 57.48 M0 57.48 C-1.61 47.79, 1.98 42.12, 0 19.16 M0 57.48 C-0.13 44.42, 0.03 31.61, 0 19.16 M0 19.16 C0.09 5.22, 6.17 -1.59, 19.16 0 M0 19.16 C0.72 7.32, 7.78 0.47, 19.16 0" stroke="#1e1e1e" stroke-width="2" fill="none"></path></g><g stroke-linecap="round" transform="translate(36.694526404033695 102.14701704545587) rotate(0 19.283203125 7.48828125)"><path d="M3.74 0 C10.84 2.35, 21.85 -2.75, 34.82 0 C36.18 2.29, 38.61 3.44, 38.57 3.74 C38.56 6.61, 39.03 8.84, 38.57 11.23 C40.65 12.68, 35.36 15.83, 34.82 14.98 C27.04 14.89, 22.78 15.42, 3.74 14.98 C1.24 15.85, -0.47 13.94, 0 11.23 C0.92 7.79, 0.19 5.8, 0 3.74 C0.89 0.99, 0.18 0.09, 3.74 0" stroke="none" stroke-width="0" fill="#868e96"></path><path d="M3.74 0 C11.49 -0.17, 20.72 -0.85, 34.82 0 M3.74 0 C12.76 0.13, 22.24 -0.36, 34.82 0 M34.82 0 C36.92 -0.13, 38.28 0.79, 38.57 3.74 M34.82 0 C36.86 -0.53, 38.68 1.26, 38.57 3.74 M38.57 3.74 C38.48 5.71, 38.36 8.24, 38.57 11.23 M38.57 3.74 C38.71 6.17, 38.74 8.92, 38.57 11.23 M38.57 11.23 C38.16 13.07, 37.23 14.48, 34.82 14.98 M38.57 11.23 C38.75 13.68, 37.13 15.74, 34.82 14.98 M34.82 14.98 C23.25 14.69, 12.1 14.71, 3.74 14.98 M34.82 14.98 C23.77 14.89, 12.1 15.23, 3.74 14.98 M3.74 14.98 C0.6 15.11, -0.5 12.86, 0 11.23 M3.74 14.98 C0.18 15.62, -1.09 13.54, 0 11.23 M0 11.23 C0.39 9.06, 0.16 7.05, 0 3.74 M0 11.23 C0.06 8.47, 0 5.65, 0 3.74 M0 3.74 C-0.11 0.45, 1.56 0.41, 3.74 0 M0 3.74 C0.7 1.48, 2.38 0.27, 3.74 0" stroke="#1e1e1e" stroke-width="2" fill="none"></path></g><g stroke-linecap="round" transform="translate(36.88039879986718 10) rotate(0 19.283203125 7.48828125)"><path d="M3.74 0 C16.76 -2.92, 24.77 1.89, 34.82 0 C37.36 2.19, 39.37 2.14, 38.57 3.74 C39 6.42, 39.34 8.43, 38.57 11.23 C36.61 14.58, 35.49 14.92, 34.82 14.98 C25.32 15.05, 11.35 15.79, 3.74 14.98 C0.78 15.19, 1.04 11.49, 0 11.23 C0.02 8.87, 0.25 7.07, 0 3.74 C-1.07 1.33, -0.05 -1.27, 3.74 0" stroke="none" stroke-width="0" fill="#868e96"></path><path d="M3.74 0 C11.03 -0.9, 18.91 0.48, 34.82 0 M3.74 0 C13.83 -0.38, 23.41 -0.12, 34.82 0 M34.82 0 C37.03 -0.46, 38.17 0.79, 38.57 3.74 M34.82 0 C37.43 0.01, 38.5 1.89, 38.57 3.74 M38.57 3.74 C38.32 6.69, 38.69 9.51, 38.57 11.23 M38.57 3.74 C38.76 6.7, 38.52 9.26, 38.57 11.23 M38.57 11.23 C38.48 13.23, 37.47 14.94, 34.82 14.98 M38.57 11.23 C38.38 14.49, 38.15 15.13, 34.82 14.98 M34.82 14.98 C23.27 14.52, 11.46 14.91, 3.74 14.98 M34.82 14.98 C24.59 15.17, 14.81 15.01, 3.74 14.98 M3.74 14.98 C0.75 14.11, -0.93 14.28, 0 11.23 M3.74 14.98 C0.15 14.79, -0.01 12.77, 0 11.23 M0 11.23 C0.1 9.97, 0.21 8.18, 0 3.74 M0 11.23 C0 9.03, -0.03 6.9, 0 3.74 M0 3.74 C0.31 1.66, 1.85 0.2, 3.74 0 M0 3.74 C1.13 1.52, 0.79 0.06, 3.74 0" stroke="#343a40" stroke-width="2" fill="none"></path></g><g stroke-linecap="round" transform="translate(13.186373760761398 24.156708609440102) rotate(47.524435689906944 13.974609375 10.47265625)"><path d="M5.24 0 C10.83 3.07, 19.24 2.96, 22.71 0 C27.32 1.23, 29.35 1.58, 27.95 5.24 C29.54 8.03, 26.61 12.96, 27.95 15.71 C25.42 19.13, 28.99 20.05, 22.71 20.95 C17.72 22.02, 12.19 21.22, 5.24 20.95 C3.19 17.85, -1.04 22.28, 0 15.71 C0.63 13.35, -0.8 11.42, 0 5.24 C-1.79 -0.02, -0.42 -1.83, 5.24 0" stroke="none" stroke-width="0" fill="#eaddd7"></path><path d="M5.24 0 C9.96 0.94, 15.18 -0.4, 22.71 0 M5.24 0 C10.69 0, 16.58 -0.28, 22.71 0 M22.71 0 C25.4 -0.92, 28.14 1.76, 27.95 5.24 M22.71 0 C26.07 1.27, 29.83 1.07, 27.95 5.24 M27.95 5.24 C28.27 7.84, 28.69 10.96, 27.95 15.71 M27.95 5.24 C27.83 7.5, 28 10.19, 27.95 15.71 M27.95 15.71 C28.26 19.12, 25.88 22.27, 22.71 20.95 M27.95 15.71 C29.62 19.51, 28.17 20.95, 22.71 20.95 M22.71 20.95 C19.24 20.87, 13.98 21.28, 5.24 20.95 M22.71 20.95 C17.3 21.14, 12.59 20.26, 5.24 20.95 M5.24 20.95 C-0.11 22.06, -1.9 18.87, 0 15.71 M5.24 20.95 C1.72 19.02, -2.12 21.4, 0 15.71 M0 15.71 C0.65 12.57, -0.25 9.42, 0 5.24 M0 15.71 C-0.06 12.32, 0.16 9.98, 0 5.24 M0 5.24 C1.21 2.15, 3.72 0.47, 5.24 0 M0 5.24 C-0.92 1.87, 3.05 -0.87, 5.24 0" stroke="#1e1e1e" stroke-width="2" fill="none"></path></g><g stroke-linecap="round" transform="translate(28.10504480902 38.92300118694402) rotate(47.524435689906944 25.4296875 23.859375)"><path d="M26.23 0.17 C31.6 0.12, 37.86 3.01, 42.01 6.27 C46.15 9.53, 50.21 14.79, 51.1 19.74 C51.98 24.69, 50.16 31.57, 47.33 35.99 C44.5 40.41, 39.29 44.57, 34.12 46.27 C28.94 47.98, 21.54 47.9, 16.3 46.22 C11.06 44.55, 5.28 40.52, 2.69 36.23 C0.1 31.94, -0.31 25.4, 0.77 20.47 C1.84 15.54, 4.7 10.13, 9.17 6.67 C13.63 3.2, 24.19 0.56, 27.56 -0.33 C30.92 -1.22, 29.47 0.7, 29.34 1.32 M35.98 1.65 C41.37 3.31, 46.51 8.28, 48.99 12.86 C51.48 17.43, 52.17 24.07, 50.88 29.11 C49.59 34.14, 45.5 39.93, 41.27 43.06 C37.05 46.2, 30.77 48.24, 25.53 47.93 C20.3 47.62, 14.25 44.52, 9.86 41.19 C5.46 37.86, 0.37 32.93, -0.84 27.97 C-2.04 23.01, -0.57 15.96, 2.64 11.44 C5.85 6.93, 13.13 2.31, 18.43 0.89 C23.72 -0.53, 31.74 2.72, 34.43 2.91 C37.11 3.11, 34.58 1.95, 34.55 2.06" stroke="none" stroke-width="0" fill="#eaddd7"></path><path d="M20.71 -0.09 C25.69 -1.27, 33.6 0.46, 38.32 3.08 C43.03 5.7, 47.25 10.72, 48.99 15.61 C50.73 20.51, 50.6 27.59, 48.74 32.43 C46.88 37.26, 42.43 42.02, 37.84 44.63 C33.26 47.24, 26.62 49.17, 21.22 48.11 C15.81 47.06, 9.07 42.37, 5.43 38.31 C1.79 34.25, -0.8 28.76, -0.62 23.77 C-0.43 18.78, 1.96 12.22, 6.55 8.39 C11.13 4.55, 22.94 1.81, 26.89 0.73 C30.84 -0.34, 30.27 1.71, 30.25 1.91 M17.49 1.21 C22.27 -0.35, 29.18 0.72, 34.41 2.61 C39.63 4.51, 45.94 8.27, 48.81 12.58 C51.69 16.9, 53 23.43, 51.65 28.52 C50.3 33.6, 45.28 39.76, 40.72 43.11 C36.16 46.45, 29.63 48.78, 24.28 48.6 C18.94 48.43, 12.6 45.62, 8.66 42.05 C4.72 38.47, 1.66 32.13, 0.64 27.15 C-0.38 22.16, -0.08 16.43, 2.52 12.15 C5.13 7.88, 13.92 3.43, 16.28 1.47 C18.64 -0.49, 16.6 -0.07, 16.67 0.41" stroke="#1e1e1e" stroke-width="2" fill="none"></path></g></svg>