<svg version="1.1" xmlns="http://www.w3.org/2000/svg" viewBox="0 0 117.88881138392844 127.12357954545587" width="117.88881138392844" height="127.12357954545587">
  <!-- svg-source:excalidraw -->
  
  <defs>
    <style class="style-fonts">
      @font-face {
        font-family: "Virgil";
        src: url("https://excalidraw.com/Virgil.woff2");
      }
      @font-face {
        font-family: "Cascadia";
        src: url("https://excalidraw.com/Cascadia.woff2");
      }
      @font-face {
        font-family: "Assistant";
        src: url("https://excalidraw.com/Assistant-Regular.woff2");
      }
    </style>
    
  </defs>
  <g stroke-linecap="round" transform="translate(10 24.85274621212011) rotate(0 42.630859375 38.322265625)"><path d="M19.16 0 C30.08 -1.26, 36.89 -2.79, 66.1 0 C80.88 -3.43, 84.67 6.34, 85.26 19.16 C85.23 28.72, 87.44 38.08, 85.26 57.48 C85.88 69.52, 80.07 76.06, 66.1 76.64 C48.95 77.68, 38.99 78.74, 19.16 76.64 C7.12 80.2, 0.84 68.82, 0 57.48 C3.19 48.45, -3.88 32.48, 0 19.16 C3.17 6.44, 9.42 1.12, 19.16 0" stroke="none" stroke-width="0" fill="#228be6"></path><path d="M19.16 0 C34.54 -0.91, 48.41 -0.79, 66.1 0 M19.16 0 C32.06 1.14, 46.74 -0.17, 66.1 0 M66.1 0 C79.19 -1.73, 85.6 7.75, 85.26 19.16 M66.1 0 C79.28 -1.44, 87.06 6.05, 85.26 19.16 M85.26 19.16 C85.43 31.64, 84.5 40.35, 85.26 57.48 M85.26 19.16 C85.06 31.96, 84.72 45.64, 85.26 57.48 M85.26 57.48 C84.76 69.61, 76.99 76.55, 66.1 76.64 M85.26 57.48 C86.28 70.71, 78.14 77.38, 66.1 76.64 M66.1 76.64 C50.37 75.89, 34.25 75.66, 19.16 76.64 M66.1 76.64 C54.12 77.2, 43.06 76.35, 19.16 76.64 M19.16 76.64 C5.13 75.41, 0.49 70.99, 0 57.48 M19.16 76.64 C6.66 78.41, 1.67 69.09, 0 57.48 M0 57.48 C-1.58 42.37, -1.28 27.92, 0 19.16 M0 57.48 C0.79 46.27, 0.91 34.79, 0 19.16 M0 19.16 C-0.84 7.24, 5.6 1.19, 19.16 0 M0 19.16 C-0.01 6.77, 6.92 -0.53, 19.16 0" stroke="#1e1e1e" stroke-width="2" fill="none"></path></g><g stroke-linecap="round" transform="translate(33.86899266098453 102.14701704545587) rotate(0 19.283203125 7.48828125)"><path d="M3.74 0 C8.79 -2.21, 19.8 -2.27, 34.82 0 C36.89 -0.03, 36.39 -1.15, 38.57 3.74 C39.34 7.34, 38.75 9.47, 38.57 11.23 C39.43 13.31, 37.43 13.45, 34.82 14.98 C26.89 16.68, 17.37 17.67, 3.74 14.98 C1.86 13.94, 0.14 15.2, 0 11.23 C-1.04 8.84, 0.76 7.32, 0 3.74 C2.19 2.06, 2.14 1.01, 3.74 0" stroke="none" stroke-width="0" fill="#868e96"></path><path d="M3.74 0 C11.63 -0.42, 19.21 -0.39, 34.82 0 M3.74 0 C11.92 -0.35, 19.25 -0.57, 34.82 0 M34.82 0 C37.49 0.68, 38.74 0.62, 38.57 3.74 M34.82 0 C38.22 -0.17, 38.56 2.06, 38.57 3.74 M38.57 3.74 C38.37 5.86, 38.78 8.65, 38.57 11.23 M38.57 3.74 C38.45 6.06, 38.51 8.65, 38.57 11.23 M38.57 11.23 C37.63 13.68, 37.76 15.17, 34.82 14.98 M38.57 11.23 C38.2 14.09, 37.66 14.22, 34.82 14.98 M34.82 14.98 C26.29 14.53, 18.2 15.03, 3.74 14.98 M34.82 14.98 C25.88 14.92, 15.8 14.75, 3.74 14.98 M3.74 14.98 C1.49 15.34, 0.12 14.49, 0 11.23 M3.74 14.98 C2.08 14.39, 1.03 14.55, 0 11.23 M0 11.23 C-0.16 9.35, 0.01 7.29, 0 3.74 M0 11.23 C0.13 8.49, -0.11 5.83, 0 3.74 M0 3.74 C-0.4 1.84, 1.24 0.17, 3.74 0 M0 3.74 C0.26 0.98, 0.35 0.52, 3.74 0" stroke="#1e1e1e" stroke-width="2" fill="none"></path></g><g stroke-linecap="round" transform="translate(34.05486505681802 10) rotate(0 19.283203125 7.48828125)"><path d="M3.74 0 C12.95 -2.1, 18.85 0.34, 34.82 0 C35.14 -2.39, 41.06 1.68, 38.57 3.74 C38.81 6.06, 38.97 8.61, 38.57 11.23 C38.68 12.21, 37.04 12.91, 34.82 14.98 C25.06 17.79, 14.85 14.19, 3.74 14.98 C1.39 16.45, -0.98 16.31, 0 11.23 C0.95 8.44, 0.91 5.93, 0 3.74 C0.89 2.26, 1.13 1.02, 3.74 0" stroke="none" stroke-width="0" fill="#868e96"></path><path d="M3.74 0 C11.14 -0.4, 18.33 -0.36, 34.82 0 M3.74 0 C15.93 -0.37, 28.03 0.41, 34.82 0 M34.82 0 C37.49 -0.62, 39.35 1.1, 38.57 3.74 M34.82 0 C37.31 0.82, 38.87 1.19, 38.57 3.74 M38.57 3.74 C38.76 6.38, 38.67 8.9, 38.57 11.23 M38.57 3.74 C38.5 5.26, 38.37 6.88, 38.57 11.23 M38.57 11.23 C39.01 13.92, 37 15.29, 34.82 14.98 M38.57 11.23 C38.91 12.97, 36.86 14.82, 34.82 14.98 M34.82 14.98 C25.93 15.01, 17.96 14.86, 3.74 14.98 M34.82 14.98 C23.46 14.62, 12.85 15.11, 3.74 14.98 M3.74 14.98 C1.37 15.74, 0.72 13.22, 0 11.23 M3.74 14.98 C2.28 15.8, -0.47 12.98, 0 11.23 M0 11.23 C0 8.99, 0.27 7.15, 0 3.74 M0 11.23 C-0.11 8.97, -0.11 6.65, 0 3.74 M0 3.74 C0 1.42, 1.48 -0.23, 3.74 0 M0 3.74 C-0.9 1.76, 0.5 0.16, 3.74 0" stroke="#343a40" stroke-width="2" fill="none"></path></g><g stroke-linecap="round" transform="translate(79.93959263392844 52.35810673701417) rotate(0 13.974609375 10.47265625)"><path d="M5.24 0 C8.35 0.26, 9.85 -2.6, 22.71 0 C29.66 0.6, 29.23 4.56, 27.95 5.24 C28.61 8.76, 28.06 11.78, 27.95 15.71 C27.56 16.34, 27.33 22.41, 22.71 20.95 C17.15 20, 10.28 23.04, 5.24 20.95 C0.38 24.52, 2.67 15.71, 0 15.71 C1.42 13.61, 0.48 11.08, 0 5.24 C-0.16 3.16, 3.35 0.52, 5.24 0" stroke="none" stroke-width="0" fill="#eaddd7"></path><path d="M5.24 0 C8.68 -0.68, 15.5 1.69, 22.71 0 M5.24 0 C9.9 0.75, 14.41 -0.39, 22.71 0 M22.71 0 C27.77 -0.29, 27.94 3.16, 27.95 5.24 M22.71 0 C26.81 -0.11, 29.1 0.56, 27.95 5.24 M27.95 5.24 C28.34 7.22, 27.07 9.08, 27.95 15.71 M27.95 5.24 C27.43 7.4, 28.15 9.72, 27.95 15.71 M27.95 15.71 C27.31 19.84, 26.79 19.63, 22.71 20.95 M27.95 15.71 C27.03 18.89, 25.55 19.9, 22.71 20.95 M22.71 20.95 C18.18 20.86, 14.59 22.39, 5.24 20.95 M22.71 20.95 C18.2 21.16, 13.36 21.51, 5.24 20.95 M5.24 20.95 C3.2 19.93, 1.79 20.63, 0 15.71 M5.24 20.95 C0.8 19.44, -0.21 18.05, 0 15.71 M0 15.71 C0.7 13.16, 0.14 9.99, 0 5.24 M0 15.71 C-0.16 12.88, 0.04 9.51, 0 5.24 M0 5.24 C0.46 1.29, 0.19 0.9, 5.24 0 M0 5.24 C-1.49 2.06, 0.59 -2, 5.24 0" stroke="#1e1e1e" stroke-width="2" fill="none"></path></g><g stroke-linecap="round" transform="translate(30.14076450892844 38.31904423701417) rotate(0 25.4296875 23.859375)"><path d="M19.74 0.66 C24.85 -0.64, 32.43 0.17, 37.42 2.68 C42.42 5.19, 47.66 10.82, 49.71 15.74 C51.76 20.65, 51.53 27.52, 49.72 32.18 C47.9 36.84, 43.4 41.24, 38.82 43.73 C34.23 46.21, 27.51 47.74, 22.21 47.08 C16.92 46.41, 10.73 43.45, 7.05 39.75 C3.38 36.04, 0.48 30.06, 0.18 24.82 C-0.13 19.58, 0.56 12.54, 5.23 8.31 C9.89 4.08, 23.21 0.55, 28.15 -0.55 C33.1 -1.66, 35.17 1.33, 34.92 1.68 M32.39 -0.34 C37.46 0.98, 42.01 7.4, 45.11 11.93 C48.21 16.46, 51.11 21.85, 50.97 26.85 C50.84 31.86, 48.2 38.56, 44.29 41.98 C40.38 45.4, 33.04 47.19, 27.49 47.35 C21.95 47.51, 15.45 46.03, 11.01 42.94 C6.56 39.84, 2.26 33.9, 0.83 28.78 C-0.61 23.67, -0.05 16.58, 2.4 12.23 C4.85 7.89, 10.37 4.52, 15.52 2.69 C20.68 0.85, 30.28 1.38, 33.32 1.22 C36.35 1.06, 34.12 1.38, 33.75 1.73" stroke="none" stroke-width="0" fill="#eaddd7"></path><path d="M35.86 2.65 C40.82 4.54, 47.18 9.68, 49.41 14.47 C51.63 19.25, 50.88 26.49, 49.2 31.36 C47.53 36.24, 43.68 40.98, 39.37 43.72 C35.06 46.47, 28.72 48.32, 23.32 47.84 C17.92 47.35, 10.94 44.72, 6.97 40.82 C3.01 36.93, -0.22 29.66, -0.47 24.48 C-0.71 19.3, 2.16 13.75, 5.53 9.75 C8.9 5.74, 14.02 1.36, 19.75 0.46 C25.49 -0.45, 36.04 3.06, 39.93 4.32 C43.82 5.58, 43.25 7.76, 43.08 8.01 M24.34 0.48 C29.47 -0.15, 37.51 1.15, 41.75 4.23 C45.99 7.31, 48.83 13.89, 49.76 18.96 C50.69 24.02, 49.93 30.2, 47.32 34.61 C44.71 39.02, 39.07 43.41, 34.09 45.39 C29.11 47.37, 22.52 47.86, 17.45 46.48 C12.37 45.1, 6.28 41.55, 3.63 37.11 C0.97 32.67, 0.84 25.18, 1.52 19.83 C2.19 14.49, 3.73 8.24, 7.68 5.02 C11.63 1.81, 22.3 1.12, 25.19 0.56 C28.08 -0.01, 24.88 1.45, 25.01 1.63" stroke="#1e1e1e" stroke-width="2" fill="none"></path></g></svg>