<svg version="1.1" xmlns="http://www.w3.org/2000/svg" viewBox="0 0 105.26171875 129.23744184244606" width="105.26171875" height="129.23744184244606">
  <!-- svg-source:excalidraw -->
  
  <defs>
    <style class="style-fonts">
      @font-face {
        font-family: "Virgil";
        src: url("https://excalidraw.com/Virgil.woff2");
      }
      @font-face {
        font-family: "Cascadia";
        src: url("https://excalidraw.com/Cascadia.woff2");
      }
      @font-face {
        font-family: "Assistant";
        src: url("https://excalidraw.com/Assistant-Regular.woff2");
      }
    </style>
    
  </defs>
  <g stroke-linecap="round" transform="translate(10 26.9666085091103) rotate(0 42.630859375 38.322265625)"><path d="M19.16 0 C32.7 -0.42, 47.59 1.08, 66.1 0 C80.34 2.18, 86 9.94, 85.26 19.16 C87.02 30.19, 88.56 46.62, 85.26 57.48 C81.77 68.68, 82.04 76.7, 66.1 76.64 C49.46 76.77, 31.44 78.54, 19.16 76.64 C6.9 79.52, -1.45 67.54, 0 57.48 C3.27 43.84, -0.07 35.07, 0 19.16 C0.19 6.37, 7.6 -0.65, 19.16 0" stroke="none" stroke-width="0" fill="#228be6"></path><path d="M19.16 0 C38.33 0.53, 54.56 1, 66.1 0 M19.16 0 C30.85 0.05, 42.26 -1.17, 66.1 0 M66.1 0 C77.77 -1.82, 84.76 5.73, 85.26 19.16 M66.1 0 C76.71 -0.11, 86.28 6.84, 85.26 19.16 M85.26 19.16 C84.06 28.63, 85.12 39.12, 85.26 57.48 M85.26 19.16 C85.2 28.92, 85.05 39.21, 85.26 57.48 M85.26 57.48 C86.9 69.67, 77.62 75.41, 66.1 76.64 M85.26 57.48 C85.83 71.1, 79.14 78.41, 66.1 76.64 M66.1 76.64 C50.04 76.24, 29.82 76.89, 19.16 76.64 M66.1 76.64 C54.21 77.29, 43.36 76.76, 19.16 76.64 M19.16 76.64 C8.09 76.65, -0.84 71.11, 0 57.48 M19.16 76.64 C5.48 78.01, -0.01 70.64, 0 57.48 M0 57.48 C0.98 43.81, 0.36 31.72, 0 19.16 M0 57.48 C-0.6 49.16, 0.34 40.32, 0 19.16 M0 19.16 C-1.84 8.3, 6.72 0.71, 19.16 0 M0 19.16 C1.8 7.89, 6.78 -0.47, 19.16 0" stroke="#1e1e1e" stroke-width="2" fill="none"></path></g><g stroke-linecap="round" transform="translate(33.86899266098453 104.26087934244606) rotate(0 19.283203125 7.48828125)"><path d="M3.74 0 C11.14 0.85, 23.72 1.62, 34.82 0 C37.85 2.57, 39.17 0.21, 38.57 3.74 C39.59 6.76, 37.68 7.89, 38.57 11.23 C40.85 13.77, 39.51 15.78, 34.82 14.98 C25.46 16.12, 14.43 17.04, 3.74 14.98 C0.2 13.02, 0.85 11.9, 0 11.23 C-0.22 9.84, -0.02 6.77, 0 3.74 C0.88 0.78, 1.46 1.04, 3.74 0" stroke="none" stroke-width="0" fill="#868e96"></path><path d="M3.74 0 C13.01 0.46, 21.86 -0.93, 34.82 0 M3.74 0 C14.74 -0.5, 25.68 -0.5, 34.82 0 M34.82 0 C37.07 -0.33, 37.63 1.2, 38.57 3.74 M34.82 0 C37.83 0.23, 38.2 1.61, 38.57 3.74 M38.57 3.74 C38.49 6.1, 38.37 8.53, 38.57 11.23 M38.57 3.74 C38.56 5.75, 38.72 7.49, 38.57 11.23 M38.57 11.23 C37.94 13.11, 37.56 15.34, 34.82 14.98 M38.57 11.23 C38.7 14.61, 38.15 14.39, 34.82 14.98 M34.82 14.98 C22.06 14.82, 10.1 15.07, 3.74 14.98 M34.82 14.98 C25.98 15.15, 16.84 15.08, 3.74 14.98 M3.74 14.98 C0.83 15.4, -0.4 14.32, 0 11.23 M3.74 14.98 C1.24 15.17, 0.26 13.47, 0 11.23 M0 11.23 C0.03 9.38, -0.34 7.56, 0 3.74 M0 11.23 C0.03 8.41, -0.14 6.09, 0 3.74 M0 3.74 C0.17 1.6, 2.03 0.65, 3.74 0 M0 3.74 C0.2 1.01, 1.63 -0.19, 3.74 0" stroke="#1e1e1e" stroke-width="2" fill="none"></path></g><g stroke-linecap="round" transform="translate(34.05486505681802 12.113862296990192) rotate(0 19.283203125 7.48828125)"><path d="M3.74 0 C13.79 1.45, 22.26 2.44, 34.82 0 C37.93 -1.04, 38.71 2.72, 38.57 3.74 C37.72 5.28, 39.52 7.68, 38.57 11.23 C40.76 14.54, 38.21 15.99, 34.82 14.98 C26.01 17.24, 15.41 13.2, 3.74 14.98 C2.1 13.15, -0.05 15.74, 0 11.23 C0.07 9.17, 0.34 6.93, 0 3.74 C0.22 2.29, -0.99 -0.75, 3.74 0" stroke="none" stroke-width="0" fill="#868e96"></path><path d="M3.74 0 C13.38 -0.97, 24.62 -0.04, 34.82 0 M3.74 0 C13.77 -0.32, 24.23 -0.02, 34.82 0 M34.82 0 C36.38 -0.05, 39.01 1.44, 38.57 3.74 M34.82 0 C36.95 0.37, 38.91 0.49, 38.57 3.74 M38.57 3.74 C38.39 5.54, 38.39 7.67, 38.57 11.23 M38.57 3.74 C38.72 5.94, 38.45 8.14, 38.57 11.23 M38.57 11.23 C38.81 14.09, 37.44 15.74, 34.82 14.98 M38.57 11.23 C39.4 13.14, 38.35 15.8, 34.82 14.98 M34.82 14.98 C26.27 15.12, 18.69 14.8, 3.74 14.98 M34.82 14.98 C23.87 15, 11.86 15.21, 3.74 14.98 M3.74 14.98 C0.85 15.57, 0 13.9, 0 11.23 M3.74 14.98 C1.51 14.71, -0.9 14.24, 0 11.23 M0 11.23 C-0.33 9.12, 0.2 7.35, 0 3.74 M0 11.23 C-0.17 9.29, 0.03 7.05, 0 3.74 M0 3.74 C0.78 1.9, 1.42 -0.2, 3.74 0 M0 3.74 C0.38 1.06, 1.3 -0.67, 3.74 0" stroke="#343a40" stroke-width="2" fill="none"></path></g><g stroke-linecap="round" transform="translate(39.397448168828305 13.62604069808549) rotate(269.315648468081 13.974609375 10.47265625)"><path d="M5.24 0 C11.67 2.91, 17.55 -1.44, 22.71 0 C26.4 2.04, 26.59 5.32, 27.95 5.24 C29.42 9.18, 29.35 13.66, 27.95 15.71 C29.18 20.6, 26.04 22.36, 22.71 20.95 C15.43 18.82, 11.7 18.98, 5.24 20.95 C1.67 23.73, -0.89 18.65, 0 15.71 C0.63 11.33, 0.15 8.38, 0 5.24 C-3.1 0.71, 4.83 -3.32, 5.24 0" stroke="none" stroke-width="0" fill="#eaddd7"></path><path d="M5.24 0 C12.35 0.22, 18.02 -0.22, 22.71 0 M5.24 0 C8.69 -0.13, 11.76 0.12, 22.71 0 M22.71 0 C27.09 0.39, 27.31 2.38, 27.95 5.24 M22.71 0 C26.88 -1.52, 27.03 1.44, 27.95 5.24 M27.95 5.24 C27.42 8.18, 27.91 10.86, 27.95 15.71 M27.95 5.24 C27.71 8.64, 28.16 12.87, 27.95 15.71 M27.95 15.71 C28.18 20.73, 27.65 19.93, 22.71 20.95 M27.95 15.71 C30.01 20.84, 25.26 19.44, 22.71 20.95 M22.71 20.95 C17.56 20.69, 13.69 22.24, 5.24 20.95 M22.71 20.95 C16.87 21.32, 11.41 21.46, 5.24 20.95 M5.24 20.95 C1.74 21.28, 0.46 18.74, 0 15.71 M5.24 20.95 C-0.04 21.98, -1.49 19.51, 0 15.71 M0 15.71 C0.67 12.1, -0.08 10.46, 0 5.24 M0 15.71 C0.18 13.63, 0.51 11.52, 0 5.24 M0 5.24 C0.34 1.34, 2.41 -0.32, 5.24 0 M0 5.24 C0.1 0.4, 1.5 -1.83, 5.24 0" stroke="#1e1e1e" stroke-width="2" fill="none"></path></g><g stroke-linecap="round" transform="translate(27.939453125 38.74047213240374) rotate(269.315648468081 25.4296875 23.859375)"><path d="M15.92 1.28 C20.36 -0.89, 27.03 -1.28, 32.29 0.2 C37.55 1.68, 44.45 5.69, 47.48 10.16 C50.51 14.63, 51.43 21.97, 50.47 27.04 C49.5 32.12, 45.55 37.12, 41.71 40.59 C37.86 44.06, 32.65 47.38, 27.41 47.87 C22.16 48.36, 14.59 46.64, 10.23 43.52 C5.87 40.39, 2.49 34.18, 1.24 29.11 C-0.02 24.04, -0.19 17.81, 2.71 13.1 C5.61 8.39, 15.51 2.96, 18.63 0.87 C21.74 -1.21, 21.38 0.17, 21.38 0.6 M32.05 0.84 C36.93 1.49, 41.5 5.29, 44.78 9.14 C48.05 13, 51.51 18.7, 51.7 23.98 C51.89 29.26, 49.92 37.03, 45.92 40.83 C41.91 44.64, 33.08 46.25, 27.66 46.81 C22.24 47.37, 17.59 46.69, 13.4 44.19 C9.22 41.69, 4.4 36.59, 2.56 31.83 C0.71 27.07, 0.52 20.37, 2.31 15.64 C4.1 10.91, 8.47 5.94, 13.29 3.45 C18.11 0.96, 28.18 1.22, 31.24 0.71 C34.3 0.19, 32.05 -0.08, 31.67 0.36" stroke="none" stroke-width="0" fill="#eaddd7"></path><path d="M21.78 -0.11 C26.98 -1, 34.58 0.13, 39.25 3.09 C43.92 6.05, 48.2 12.64, 49.8 17.65 C51.41 22.66, 51.03 28.52, 48.89 33.17 C46.75 37.82, 42 43.32, 36.97 45.56 C31.94 47.81, 24.07 47.95, 18.7 46.63 C13.33 45.31, 7.96 41.79, 4.77 37.66 C1.59 33.54, -0.71 26.91, -0.4 21.88 C-0.09 16.84, 2.03 11.09, 6.62 7.44 C11.21 3.79, 22.92 0.91, 27.14 0 C31.37 -0.91, 32.04 1.68, 31.96 1.98 M17.87 2.28 C22.82 0.29, 30.93 -0.91, 36.16 1.02 C41.4 2.95, 47.04 9.35, 49.29 13.84 C51.54 18.33, 51.07 23.27, 49.66 27.96 C48.25 32.65, 45.02 38.7, 40.85 41.98 C36.68 45.27, 30.11 47.56, 24.64 47.64 C19.18 47.73, 11.96 45.89, 8.08 42.5 C4.19 39.1, 1.79 32.49, 1.32 27.26 C0.84 22.03, 2.59 15.36, 5.21 11.11 C7.84 6.87, 15.06 3.21, 17.07 1.77 C19.08 0.33, 17.03 2.16, 17.26 2.47" stroke="#1e1e1e" stroke-width="2" fill="none"></path></g></svg>