<svg version="1.1" xmlns="http://www.w3.org/2000/svg" viewBox="0 0 116.80622209821377 127.12357954545587" width="116.80622209821377" height="127.12357954545587">
  <!-- svg-source:excalidraw -->
  
  <defs>
    <style class="style-fonts">
      @font-face {
        font-family: "Virgil";
        src: url("https://excalidraw.com/Virgil.woff2");
      }
      @font-face {
        font-family: "Cascadia";
        src: url("https://excalidraw.com/Cascadia.woff2");
      }
      @font-face {
        font-family: "Assistant";
        src: url("https://excalidraw.com/Assistant-Regular.woff2");
      }
    </style>
    
  </defs>
  <g stroke-linecap="round" transform="translate(21.544503348213766 24.534665854976993) rotate(0 42.630859375 38.322265625)"><path d="M19.16 0 C38.49 0.52, 56.98 -0.87, 66.1 0 C80.29 1.61, 85.78 9.27, 85.26 19.16 C82.21 29.05, 87.53 38.19, 85.26 57.48 C84.71 73.35, 79.06 76.63, 66.1 76.64 C51.88 73.62, 33.74 79.8, 19.16 76.64 C3.07 77.04, -1.24 71.49, 0 57.48 C-1.51 44.6, -1.88 33.42, 0 19.16 C-2.61 7.51, 5.85 -0.2, 19.16 0" stroke="none" stroke-width="0" fill="#228be6"></path><path d="M19.16 0 C35.96 0.74, 50.17 -0.65, 66.1 0 M19.16 0 C32.21 -0.24, 46.16 0.22, 66.1 0 M66.1 0 C78.76 1.11, 86.9 5.8, 85.26 19.16 M66.1 0 C77.43 -1.42, 85.83 7.23, 85.26 19.16 M85.26 19.16 C84.54 32.9, 86.98 42.23, 85.26 57.48 M85.26 19.16 C85.38 28.11, 85.07 37.8, 85.26 57.48 M85.26 57.48 C86.71 70.53, 80.58 76.65, 66.1 76.64 M85.26 57.48 C84.3 71.24, 77.97 78.01, 66.1 76.64 M66.1 76.64 C51.58 75.2, 38.88 75.45, 19.16 76.64 M66.1 76.64 C50.45 76.79, 35.71 76.07, 19.16 76.64 M19.16 76.64 C6.36 74.97, -1.84 72.17, 0 57.48 M19.16 76.64 C6.77 77.46, 1.8 71.76, 0 57.48 M0 57.48 C-0.25 45.42, -1.09 32.96, 0 19.16 M0 57.48 C0.49 49.24, 0.87 40.82, 0 19.16 M0 19.16 C-0.8 6.5, 7.52 -0.76, 19.16 0 M0 19.16 C2.29 8.09, 4.15 -1.01, 19.16 0" stroke="#1e1e1e" stroke-width="2" fill="none"></path></g><g stroke-linecap="round" transform="translate(45.41349600919875 102.14701704545587) rotate(0 19.283203125 7.48828125)"><path d="M3.74 0 C16.7 -0.26, 28.65 1.02, 34.82 0 C37.69 2.08, 37.52 -0.71, 38.57 3.74 C39.25 5.99, 38.35 9.56, 38.57 11.23 C38.7 13.72, 38.19 14.5, 34.82 14.98 C24.49 16.85, 13.26 14.92, 3.74 14.98 C0.35 15.87, -0.26 12.66, 0 11.23 C-0.54 8.47, -0.66 6.99, 0 3.74 C-0.39 1.11, 0.18 -1.36, 3.74 0" stroke="none" stroke-width="0" fill="#868e96"></path><path d="M3.74 0 C11.41 -0.45, 20.26 -0.33, 34.82 0 M3.74 0 C11.7 0.08, 19.53 0.35, 34.82 0 M34.82 0 C38.14 -0.29, 37.94 0.63, 38.57 3.74 M34.82 0 C37.6 0.42, 38.7 2.13, 38.57 3.74 M38.57 3.74 C38.81 6.38, 38.3 9.29, 38.57 11.23 M38.57 3.74 C38.54 5.74, 38.71 7.51, 38.57 11.23 M38.57 11.23 C39.42 13.73, 36.9 15.4, 34.82 14.98 M38.57 11.23 C38.11 14.41, 37.31 15.17, 34.82 14.98 M34.82 14.98 C25.23 14.21, 14.88 14.35, 3.74 14.98 M34.82 14.98 C27.73 14.98, 21.58 14.64, 3.74 14.98 M3.74 14.98 C0.33 15.94, 0.17 14.08, 0 11.23 M3.74 14.98 C2.15 15.73, 0.2 13.49, 0 11.23 M0 11.23 C-0.21 8.7, -0.29 6.36, 0 3.74 M0 11.23 C0.16 8.72, -0.1 6.14, 0 3.74 M0 3.74 C0.57 0.87, 2.24 0.74, 3.74 0 M0 3.74 C-1.12 0.74, 2.26 0.02, 3.74 0" stroke="#1e1e1e" stroke-width="2" fill="none"></path></g><g stroke-linecap="round" transform="translate(45.59936840503178 10) rotate(0 19.283203125 7.48828125)"><path d="M3.74 0 C15.15 1.18, 24.89 2.1, 34.82 0 C36.27 -1.96, 39.42 -0.58, 38.57 3.74 C38.49 6.81, 38.69 8.2, 38.57 11.23 C39.44 13.26, 37.53 16.02, 34.82 14.98 C25.78 15.61, 20.63 16.21, 3.74 14.98 C0.99 13.91, 0.09 12.44, 0 11.23 C-0.65 9.66, -0.09 7.42, 0 3.74 C-1.07 -0.11, 3.16 -1.11, 3.74 0" stroke="none" stroke-width="0" fill="#868e96"></path><path d="M3.74 0 C13.85 -0.22, 23.77 -0.34, 34.82 0 M3.74 0 C11.61 0.28, 19.95 -0.15, 34.82 0 M34.82 0 C36.69 -0.62, 38.81 1.61, 38.57 3.74 M34.82 0 C37.45 0.88, 39.4 0.66, 38.57 3.74 M38.57 3.74 C38.35 6.63, 38.41 9.64, 38.57 11.23 M38.57 3.74 C38.7 5.99, 38.72 8.18, 38.57 11.23 M38.57 11.23 C38.15 14.16, 36.92 15.57, 34.82 14.98 M38.57 11.23 C38.56 13.92, 37.58 14.71, 34.82 14.98 M34.82 14.98 C28.05 14.37, 20.14 13.95, 3.74 14.98 M34.82 14.98 C23.76 14.53, 12.26 15.43, 3.74 14.98 M3.74 14.98 C1.42 15.33, 0.78 14.38, 0 11.23 M3.74 14.98 C1.45 14.74, 0.38 13.54, 0 11.23 M0 11.23 C-0.28 9.07, 0.17 6.9, 0 3.74 M0 11.23 C-0.11 8.84, 0.07 6.36, 0 3.74 M0 3.74 C0.99 1.99, 0.28 -0.44, 3.74 0 M0 3.74 C1.01 1.27, 2.22 0.36, 3.74 0" stroke="#343a40" stroke-width="2" fill="none"></path></g><g stroke-linecap="round" transform="translate(10 53.475852272727934) rotate(0 13.974609375 10.47265625)"><path d="M5.24 0 C10.85 2.38, 14.3 -2.51, 22.71 0 C27.38 -2.53, 27.88 4.53, 27.95 5.24 C28.02 8.11, 28.56 10.66, 27.95 15.71 C28.25 20.64, 23.11 19.91, 22.71 20.95 C14.89 22.06, 8.92 19.68, 5.24 20.95 C1.87 19.15, -1.76 17.04, 0 15.71 C-0.15 13, -0.64 9.51, 0 5.24 C2.65 0.21, 3.01 -0.2, 5.24 0" stroke="none" stroke-width="0" fill="#eaddd7"></path><path d="M5.24 0 C8.98 -0.65, 13.52 0.22, 22.71 0 M5.24 0 C11.21 -0.35, 15.2 -0.64, 22.71 0 M22.71 0 C26.69 0.73, 28.18 3.28, 27.95 5.24 M22.71 0 C27.87 -1.17, 30.01 3.39, 27.95 5.24 M27.95 5.24 C27.36 8.11, 27.84 10.49, 27.95 15.71 M27.95 5.24 C28.47 9.07, 27.81 13.13, 27.95 15.71 M27.95 15.71 C27.16 20.39, 26.19 21.28, 22.71 20.95 M27.95 15.71 C28.48 18.67, 24.41 21.98, 22.71 20.95 M22.71 20.95 C17.08 19.24, 15.47 19.19, 5.24 20.95 M22.71 20.95 C16.95 21.64, 12.94 21.11, 5.24 20.95 M5.24 20.95 C3.31 22.25, 0.34 18.79, 0 15.71 M5.24 20.95 C2.51 20.57, 0.1 17.85, 0 15.71 M0 15.71 C0.51 13.31, 0.3 10.68, 0 5.24 M0 15.71 C0.34 12.12, 0.56 9.32, 0 5.24 M0 5.24 C-1.94 0.87, 3.5 0.03, 5.24 0 M0 5.24 C1.94 2.46, 2.53 0.89, 5.24 0" stroke="#1e1e1e" stroke-width="2" fill="none"></path></g><g stroke-linecap="round" transform="translate(36.888671875 39.436789772727934) rotate(0 25.4296875 23.859375)"><path d="M29.06 0.22 C34.11 0.77, 40.28 4.68, 43.98 8.69 C47.68 12.7, 51.05 19.05, 51.27 24.27 C51.48 29.5, 48.74 36.26, 45.25 40.03 C41.75 43.81, 35.66 46.07, 30.28 46.92 C24.9 47.78, 17.79 47.47, 12.95 45.18 C8.11 42.9, 3.02 38.24, 1.23 33.19 C-0.56 28.15, 0.39 19.75, 2.21 14.91 C4.02 10.07, 7.01 6.35, 12.1 4.17 C17.19 2, 28.8 2.08, 32.76 1.85 C36.72 1.63, 35.9 2.59, 35.84 2.82 M31.6 -0.14 C36.44 0.56, 41.11 5.34, 44.14 9.43 C47.17 13.51, 49.54 19.39, 49.8 24.36 C50.06 29.33, 49.16 35.17, 45.7 39.23 C42.25 43.29, 34.62 47.89, 29.06 48.73 C23.49 49.57, 16.84 47.16, 12.31 44.24 C7.77 41.33, 3.59 35.99, 1.85 31.25 C0.11 26.51, 0.18 20.59, 1.86 15.8 C3.54 11.01, 6.95 5.29, 11.92 2.5 C16.89 -0.28, 28.59 -0.57, 31.69 -0.92 C34.78 -1.27, 30.68 -0.18, 30.47 0.41" stroke="none" stroke-width="0" fill="#eaddd7"></path><path d="M27.2 0.85 C32.33 0.68, 38.59 2.33, 42.39 5.71 C46.2 9.08, 49.24 15.89, 50.04 21.09 C50.84 26.28, 49.9 32.5, 47.19 36.88 C44.47 41.26, 39.09 45.72, 33.74 47.37 C28.39 49.02, 20.13 48.93, 15.09 46.76 C10.06 44.6, 6.06 39.09, 3.54 34.38 C1.02 29.67, -1.03 23.4, -0.03 18.51 C0.97 13.62, 4.75 8.11, 9.53 5.03 C14.31 1.95, 25.02 0.59, 28.64 0.03 C32.26 -0.52, 31.27 1.14, 31.24 1.71 M24.85 0.89 C30.13 0.52, 37.45 2.76, 41.78 5.84 C46.11 8.93, 50.07 14.28, 50.82 19.39 C51.57 24.49, 49.22 31.96, 46.28 36.48 C43.33 40.99, 38.19 45.07, 33.14 46.49 C28.09 47.91, 21.15 46.62, 15.96 44.97 C10.78 43.32, 4.84 40.86, 2.01 36.61 C-0.82 32.36, -2.22 24.84, -1.04 19.46 C0.14 14.07, 4.89 7.32, 9.08 4.32 C13.26 1.31, 21.29 1.99, 24.06 1.44 C26.83 0.89, 25.27 0.69, 25.7 1.01" stroke="#1e1e1e" stroke-width="2" fill="none"></path></g></svg>