<svg version="1.1" xmlns="http://www.w3.org/2000/svg" viewBox="0 0 114.98702566964494 140.8422378015016" width="114.98702566964494" height="140.8422378015016">
  <!-- svg-source:excalidraw -->
  
  <defs>
    <style class="style-fonts">
      @font-face {
        font-family: "Virgil";
        src: url("https://excalidraw.com/Virgil.woff2");
      }
      @font-face {
        font-family: "Cascadia";
        src: url("https://excalidraw.com/Cascadia.woff2");
      }
      @font-face {
        font-family: "Assistant";
        src: url("https://excalidraw.com/Assistant-Regular.woff2");
      }
    </style>
    
  </defs>
  <g stroke-linecap="round" transform="translate(34.05486505681802 109.06643921733757) rotate(22.461246866865288 19.283203125 7.48828125)"><path d="M3.74 0 C11.44 0.18, 17.41 -1.82, 34.82 0 C37.26 -2.32, 40.08 2.93, 38.57 3.74 C38.22 6.95, 37.88 8.24, 38.57 11.23 C38.39 14.51, 36.39 14.8, 34.82 14.98 C25.71 16.93, 24.16 15.11, 3.74 14.98 C1.82 16.35, -1.81 13.95, 0 11.23 C0.08 8, 0.85 5.64, 0 3.74 C1.16 1.92, 2.68 1.22, 3.74 0" stroke="none" stroke-width="0" fill="#868e96"></path><path d="M3.74 0 C16.94 0.92, 27.95 -0.35, 34.82 0 M3.74 0 C12.08 -0.01, 20.43 -0.07, 34.82 0 M34.82 0 C37.75 0.18, 38.67 0.38, 38.57 3.74 M34.82 0 C36.37 -0.99, 38.29 0.44, 38.57 3.74 M38.57 3.74 C38.89 6.5, 38.67 9.69, 38.57 11.23 M38.57 3.74 C38.51 6.02, 38.45 8.08, 38.57 11.23 M38.57 11.23 C39.34 14.46, 37.55 14.64, 34.82 14.98 M38.57 11.23 C38.29 14.34, 37.11 14.43, 34.82 14.98 M34.82 14.98 C24.64 15.92, 13.92 15.66, 3.74 14.98 M34.82 14.98 C24.18 15.02, 13.39 15.02, 3.74 14.98 M3.74 14.98 C2.02 15.94, 0.06 14.01, 0 11.23 M3.74 14.98 C1.22 16.12, 0.19 13.84, 0 11.23 M0 11.23 C0.18 8.16, 0.03 5.27, 0 3.74 M0 11.23 C0.09 8.49, 0.19 5.69, 0 3.74 M0 3.74 C0.97 1.68, 0.38 0.36, 3.74 0 M0 3.74 C0.03 0.82, 1.46 0.86, 3.74 0" stroke="#1e1e1e" stroke-width="2" fill="none"></path></g><g stroke-linecap="round" transform="translate(33.868992660985896 16.919422171883525) rotate(22.923355211056883 19.283203125 7.48828125)"><path d="M3.74 0 C11.89 -2, 19.6 -2.32, 34.82 0 C38.83 1.68, 40.12 -1.22, 38.57 3.74 C37.94 5.4, 38.48 9.13, 38.57 11.23 C37.64 13.55, 35.03 14.34, 34.82 14.98 C26.95 15.25, 14.6 16.64, 3.74 14.98 C-0.56 15.2, 0.29 13.67, 0 11.23 C0.84 7.78, 0.43 6.45, 0 3.74 C1.43 2.47, 0.27 1.47, 3.74 0" stroke="none" stroke-width="0" fill="#868e96"></path><path d="M3.74 0 C10.59 -0.58, 18.09 -0.61, 34.82 0 M3.74 0 C16.06 0.02, 27.6 0.05, 34.82 0 M34.82 0 C37.42 -0.87, 37.74 0.38, 38.57 3.74 M34.82 0 C37.04 -0.81, 39.65 1.35, 38.57 3.74 M38.57 3.74 C38.7 5.89, 38.53 8.33, 38.57 11.23 M38.57 3.74 C38.39 6.27, 38.69 8.68, 38.57 11.23 M38.57 11.23 C38.8 13.39, 37.07 15.5, 34.82 14.98 M38.57 11.23 C38.36 13.18, 37.57 14.25, 34.82 14.98 M34.82 14.98 C24.33 15.79, 16.02 15.77, 3.74 14.98 M34.82 14.98 C27.29 15.17, 21.03 15.51, 3.74 14.98 M3.74 14.98 C1.3 15.25, -0.02 14.72, 0 11.23 M3.74 14.98 C1.44 15.09, 1.03 12.91, 0 11.23 M0 11.23 C-0.01 8.75, 0.23 6.37, 0 3.74 M0 11.23 C0.16 9.24, 0.17 7.44, 0 3.74 M0 3.74 C-0.86 1.61, 1.27 -0.37, 3.74 0 M0 3.74 C0.21 2.11, 0.29 0.11, 3.74 0" stroke="#1e1e1e" stroke-width="2" fill="none"></path></g><g stroke-linecap="round" transform="translate(10 32.545724255215646) rotate(0 42.630859375 38.322265625)"><path d="M19.16 0 C33.17 -2.56, 49.45 2.98, 66.1 0 C81.03 -3.41, 86.72 5.46, 85.26 19.16 C84.59 33.74, 83.55 45.91, 85.26 57.48 C82.1 69.38, 80.12 73.15, 66.1 76.64 C49.54 78.55, 28.88 76.94, 19.16 76.64 C6.79 76.56, 1.31 70.55, 0 57.48 C1.01 50.46, 1.38 43.26, 0 19.16 C-1.36 8.42, 9.32 -3.31, 19.16 0" stroke="none" stroke-width="0" fill="#7950f2"></path><path d="M19.16 0 C36.32 -0.74, 56.67 1.17, 66.1 0 M19.16 0 C34.79 0.12, 49.66 -0.93, 66.1 0 M66.1 0 C77.22 -1.73, 84.78 4.98, 85.26 19.16 M66.1 0 C81.04 0.2, 84.83 8.36, 85.26 19.16 M85.26 19.16 C84.99 30.64, 85.78 37.15, 85.26 57.48 M85.26 19.16 C85.73 34.95, 85.18 48.93, 85.26 57.48 M85.26 57.48 C84.77 71.31, 78.51 75.69, 66.1 76.64 M85.26 57.48 C85.76 68.81, 79.07 76.22, 66.1 76.64 M66.1 76.64 C48.4 78.26, 27.76 76.35, 19.16 76.64 M66.1 76.64 C51.36 77.75, 35.14 77.06, 19.16 76.64 M19.16 76.64 C6.34 78.63, 0.33 70.45, 0 57.48 M19.16 76.64 C8.46 75, 0.34 71.22, 0 57.48 M0 57.48 C1.32 46.75, -0.83 38.42, 0 19.16 M0 57.48 C0.61 46.36, -1.22 34.72, 0 19.16 M0 19.16 C0.05 5.65, 6.75 1.5, 19.16 0 M0 19.16 C-1.91 6.61, 5.38 0.85, 19.16 0" stroke="#1e1e1e" stroke-width="2" fill="none"></path></g><g stroke-linecap="round" transform="translate(77.03780691964494 58.64210104360882) rotate(0 13.974609375 10.47265625)"><path d="M5.24 0 C10.97 2.32, 14.92 -2.7, 22.71 0 C27.66 -0.93, 29.83 -0.47, 27.95 5.24 C27.26 7.29, 26.28 9.14, 27.95 15.71 C29.19 15.71, 28.71 24.45, 22.71 20.95 C15.28 21.38, 12.59 21.04, 5.24 20.95 C3.05 21.24, -3.32 22.35, 0 15.71 C0.95 14.46, -0.8 12.51, 0 5.24 C2.93 -1.57, -1.74 -1.21, 5.24 0" stroke="none" stroke-width="0" fill="#eaddd7"></path><path d="M5.24 0 C11.1 0.92, 14.58 1.8, 22.71 0 M5.24 0 C10.78 -0.79, 15.42 -0.79, 22.71 0 M22.71 0 C25.72 -1.41, 29.84 1.92, 27.95 5.24 M22.71 0 C25.77 1.97, 26.75 2.38, 27.95 5.24 M27.95 5.24 C28.15 7.97, 28.9 10.91, 27.95 15.71 M27.95 5.24 C28.15 8.89, 27.9 13.17, 27.95 15.71 M27.95 15.71 C27.59 18.25, 26.64 19.69, 22.71 20.95 M27.95 15.71 C28.14 18.78, 28.35 18.85, 22.71 20.95 M22.71 20.95 C15.04 20.53, 10.42 19.52, 5.24 20.95 M22.71 20.95 C16.99 21.36, 11.15 21.98, 5.24 20.95 M5.24 20.95 C2.08 21.14, 1.8 17.77, 0 15.71 M5.24 20.95 C2.08 21.91, -0.94 19.21, 0 15.71 M0 15.71 C-0.5 13.33, -0.05 11.1, 0 5.24 M0 15.71 C-0.55 13.05, -0.09 9.82, 0 5.24 M0 5.24 C0.37 3.25, 0.08 0.19, 5.24 0 M0 5.24 C-1.01 2.59, 1.75 0.17, 5.24 0" stroke="#1e1e1e" stroke-width="2" fill="none"></path></g><g stroke-linecap="round" transform="translate(27.238978794644936 44.60303854360882) rotate(0 25.4296875 23.859375)"><path d="M27.29 -0.27 C32.51 -0.22, 39.98 2.66, 43.81 6.34 C47.65 10.02, 49.87 16.52, 50.31 21.83 C50.76 27.14, 49.52 33.88, 46.49 38.2 C43.45 42.53, 37.26 46.69, 32.08 47.78 C26.91 48.88, 20.31 47.01, 15.45 44.76 C10.59 42.51, 5.41 38.7, 2.9 34.28 C0.4 29.85, -0.99 23.3, 0.41 18.2 C1.8 13.1, 6.47 6.74, 11.3 3.68 C16.12 0.62, 25.99 0.26, 29.35 -0.17 C32.71 -0.6, 31.53 0.75, 31.46 1.09 M26.11 0.9 C31.27 0.5, 36.15 2.79, 40.13 6.02 C44.12 9.24, 48.94 15.54, 50.03 20.23 C51.12 24.93, 49.3 29.78, 46.67 34.18 C44.05 38.58, 39.33 44.62, 34.29 46.64 C29.26 48.65, 21.81 48.1, 16.47 46.27 C11.12 44.44, 4.84 40.28, 2.23 35.66 C-0.37 31.03, -0.42 23.27, 0.86 18.53 C2.14 13.79, 5.86 10.25, 9.91 7.22 C13.96 4.18, 22.46 1.63, 25.14 0.33 C27.81 -0.97, 25.92 -0.94, 25.94 -0.57" stroke="none" stroke-width="0" fill="#eaddd7"></path><path d="M37.62 2.93 C42.17 4.75, 46.32 9.48, 48.17 14.17 C50.02 18.86, 50.4 25.92, 48.72 31.07 C47.05 36.22, 42.6 42.38, 38.13 45.08 C33.65 47.78, 27.03 48.26, 21.89 47.29 C16.76 46.31, 10.93 43, 7.33 39.24 C3.73 35.48, 0.63 29.58, 0.29 24.73 C-0.06 19.87, 1.9 14.22, 5.26 10.1 C8.62 5.98, 14.23 0.92, 20.43 0 C26.64 -0.91, 38.35 2.97, 42.5 4.61 C46.66 6.24, 45.65 9.32, 45.35 9.8 M20.84 -0.37 C26 -1.78, 33.78 -0.35, 38.56 2.3 C43.33 4.95, 47.47 10.77, 49.49 15.51 C51.51 20.26, 52.43 25.81, 50.69 30.75 C48.95 35.68, 43.86 42.55, 39.06 45.13 C34.26 47.72, 27.5 47.19, 21.89 46.26 C16.29 45.34, 9.3 43.25, 5.43 39.58 C1.56 35.9, -1.61 29.16, -1.32 24.22 C-1.03 19.27, 3.42 13.81, 7.17 9.9 C10.92 5.99, 18.86 2.03, 21.2 0.76 C23.53 -0.5, 21.07 1.96, 21.17 2.3" stroke="#1e1e1e" stroke-width="2" fill="none"></path></g></svg>