<svg version="1.1" xmlns="http://www.w3.org/2000/svg" viewBox="0 0 107.08836856447897 140.8422378015016" width="107.08836856447897" height="140.8422378015016">
  <!-- svg-source:excalidraw -->
  
  <defs>
    <style class="style-fonts">
      @font-face {
        font-family: "Virgil";
        src: url("https://excalidraw.com/Virgil.woff2");
      }
      @font-face {
        font-family: "Cascadia";
        src: url("https://excalidraw.com/Cascadia.woff2");
      }
      @font-face {
        font-family: "Assistant";
        src: url("https://excalidraw.com/Assistant-Regular.woff2");
      }
    </style>
    
  </defs>
  <g stroke-linecap="round" transform="translate(34.05486505681802 109.06643921733757) rotate(22.461246866865288 19.283203125 7.48828125)"><path d="M3.74 0 C10.97 1.37, 23.9 1.32, 34.82 0 C35.45 -0.79, 39.36 -1.04, 38.57 3.74 C38.69 6.49, 38.62 9.66, 38.57 11.23 C39 13.98, 39.66 13.12, 34.82 14.98 C25.06 13.95, 16.99 13.76, 3.74 14.98 C0.17 16, 0.04 16.17, 0 11.23 C-0.93 9.55, -0.07 6.8, 0 3.74 C0.48 3.2, -0.91 0.25, 3.74 0" stroke="none" stroke-width="0" fill="#868e96"></path><path d="M3.74 0 C13.01 0.75, 22.8 -0.39, 34.82 0 M3.74 0 C11.39 -0.44, 18.22 0.01, 34.82 0 M34.82 0 C37.48 0.77, 37.98 1.22, 38.57 3.74 M34.82 0 C38.29 -0.44, 37.94 1.08, 38.57 3.74 M38.57 3.74 C38.93 6.55, 38.83 9.29, 38.57 11.23 M38.57 3.74 C38.5 6.61, 38.37 9.36, 38.57 11.23 M38.57 11.23 C38.13 14.15, 37.38 15.78, 34.82 14.98 M38.57 11.23 C38.73 13.44, 38.44 14.06, 34.82 14.98 M34.82 14.98 C26.93 14.66, 19.68 14.63, 3.74 14.98 M34.82 14.98 C23.49 15.07, 11.4 15.1, 3.74 14.98 M3.74 14.98 C1.35 14.1, -0.83 12.86, 0 11.23 M3.74 14.98 C0.97 14.17, 1.08 13.83, 0 11.23 M0 11.23 C0.07 9.17, -0.1 7.39, 0 3.74 M0 11.23 C-0.13 8.95, 0.16 6.57, 0 3.74 M0 3.74 C0.24 0.91, 1 0.53, 3.74 0 M0 3.74 C-0.21 0.7, 1.5 -0.72, 3.74 0" stroke="#1e1e1e" stroke-width="2" fill="none"></path></g><g stroke-linecap="round" transform="translate(33.868992660984986 16.919422171883525) rotate(22.923355211056883 19.283203125 7.48828125)"><path d="M3.74 0 C16.94 1.43, 26.31 -1.06, 34.82 0 C38.11 -2.29, 39.35 3.25, 38.57 3.74 C38.55 7.68, 38.73 9.78, 38.57 11.23 C40.91 11.87, 37.7 16.07, 34.82 14.98 C28.5 13.79, 17.64 15.87, 3.74 14.98 C1.29 17.42, -0.73 16.25, 0 11.23 C0.11 8.3, 0.26 6.82, 0 3.74 C-2.16 1.5, 0.1 0.96, 3.74 0" stroke="none" stroke-width="0" fill="#868e96"></path><path d="M3.74 0 C15.48 -0.38, 27.52 -0.83, 34.82 0 M3.74 0 C11.91 0.12, 20.82 0.53, 34.82 0 M34.82 0 C36.74 -0.03, 39.41 0.86, 38.57 3.74 M34.82 0 C36.69 -0.17, 39.22 1.69, 38.57 3.74 M38.57 3.74 C38.85 6.08, 38.89 7.73, 38.57 11.23 M38.57 3.74 C38.39 5.82, 38.48 8.01, 38.57 11.23 M38.57 11.23 C38.62 14.53, 37.46 14.72, 34.82 14.98 M38.57 11.23 C39.69 12.81, 36.6 15.94, 34.82 14.98 M34.82 14.98 C22.54 14.43, 11.85 15.39, 3.74 14.98 M34.82 14.98 C24.98 15.08, 14.75 14.56, 3.74 14.98 M3.74 14.98 C0.42 14.11, -0.24 13.02, 0 11.23 M3.74 14.98 C2.33 15.08, -0.22 14.71, 0 11.23 M0 11.23 C-0.08 9.75, 0.07 7.33, 0 3.74 M0 11.23 C0.18 8.43, 0.07 5.28, 0 3.74 M0 3.74 C-0.24 1.78, 1.07 -0.48, 3.74 0 M0 3.74 C0.25 0.52, 1.35 -0.21, 3.74 0" stroke="#1e1e1e" stroke-width="2" fill="none"></path></g><g stroke-linecap="round" transform="translate(10 32.545724255215646) rotate(0 42.630859375 38.322265625)"><path d="M19.16 0 C33.8 -1.64, 54.71 -3.72, 66.1 0 C79.96 2.77, 88.73 6.59, 85.26 19.16 C85.85 32.07, 88.49 41.71, 85.26 57.48 C85.79 71.77, 77.4 76.67, 66.1 76.64 C52.08 77.72, 41.11 79.68, 19.16 76.64 C5.37 80.14, 1.56 67.15, 0 57.48 C0.64 47.29, -3.01 32.04, 0 19.16 C-1.58 7.72, 6.4 0.27, 19.16 0" stroke="none" stroke-width="0" fill="#7950f2"></path><path d="M19.16 0 C36.21 -1.26, 55.2 1.08, 66.1 0 M19.16 0 C28.9 0.79, 37.74 -0.01, 66.1 0 M66.1 0 C80.56 -0.77, 84.17 6.1, 85.26 19.16 M66.1 0 C80.19 0.89, 84.94 8.52, 85.26 19.16 M85.26 19.16 C87.05 30.46, 85.11 44.51, 85.26 57.48 M85.26 19.16 C84.49 31.95, 84.98 44.7, 85.26 57.48 M85.26 57.48 C85.55 69.75, 80.83 75.05, 66.1 76.64 M85.26 57.48 C83.82 72.18, 80.77 75.44, 66.1 76.64 M66.1 76.64 C55.72 77.38, 42.61 78.39, 19.16 76.64 M66.1 76.64 C51.56 75.86, 35.99 75.86, 19.16 76.64 M19.16 76.64 C5.9 75.23, 1.89 70.43, 0 57.48 M19.16 76.64 C5.96 78.62, -1.2 70.89, 0 57.48 M0 57.48 C0.49 44.54, 1.93 31.97, 0 19.16 M0 57.48 C-0.06 43.14, -0.54 30, 0 19.16 M0 19.16 C-0.36 5.43, 6.82 -1.26, 19.16 0 M0 19.16 C0.2 5.97, 8.53 -2.09, 19.16 0" stroke="#1e1e1e" stroke-width="2" fill="none"></path></g><g stroke-linecap="round" transform="translate(65.95277605371757 87.12363309975535) rotate(47.524435689906944 13.974609375 10.47265625)"><path d="M5.24 0 C7.54 2.73, 12.61 1.38, 22.71 0 C27.14 1.98, 29.64 0.38, 27.95 5.24 C26.28 8.34, 29.91 11.84, 27.95 15.71 C28.26 22.78, 28.93 20.24, 22.71 20.95 C19.15 22.97, 17.99 23.49, 5.24 20.95 C1.16 20.92, 0.81 19.71, 0 15.71 C-1.9 11.79, 0.51 5.82, 0 5.24 C2.65 4.54, 1.68 2.8, 5.24 0" stroke="none" stroke-width="0" fill="#eaddd7"></path><path d="M5.24 0 C10.34 0.28, 12.27 -0.56, 22.71 0 M5.24 0 C11.59 -0.47, 17.64 -0.08, 22.71 0 M22.71 0 C28.07 -1.82, 29.29 2.5, 27.95 5.24 M22.71 0 C27.7 -1.65, 27.25 2.44, 27.95 5.24 M27.95 5.24 C28.99 7.51, 28.27 9.65, 27.95 15.71 M27.95 5.24 C28.44 9.04, 28.04 13.82, 27.95 15.71 M27.95 15.71 C27.13 19.21, 25.54 22.27, 22.71 20.95 M27.95 15.71 C27.02 18.25, 27.11 20.98, 22.71 20.95 M22.71 20.95 C16.59 19.61, 9.58 21.16, 5.24 20.95 M22.71 20.95 C17.39 21.16, 13.13 21.4, 5.24 20.95 M5.24 20.95 C1.75 21.09, -1.54 19.15, 0 15.71 M5.24 20.95 C-0.31 22.29, 1.49 20.58, 0 15.71 M0 15.71 C0.5 12.92, -1 11.34, 0 5.24 M0 15.71 C-0.42 12.12, 0.22 8.29, 0 5.24 M0 5.24 C1.39 3.69, 1.74 0.44, 5.24 0 M0 5.24 C1.22 0.14, 1.94 0.26, 5.24 0" stroke="#1e1e1e" stroke-width="2" fill="none"></path></g><g stroke-linecap="round" transform="translate(28.123948755458514 45.896403022249615) rotate(47.524435689906944 25.4296875 23.859375)"><path d="M15.06 1.39 C19.56 -1.14, 26.91 -0.83, 32.18 0.5 C37.44 1.83, 43.69 5.18, 46.64 9.37 C49.59 13.56, 50.33 20.5, 49.87 25.64 C49.41 30.78, 47.56 36.7, 43.88 40.21 C40.21 43.72, 33.34 46.12, 27.82 46.73 C22.31 47.34, 15.44 46.51, 10.8 43.88 C6.16 41.25, 1.22 35.94, -0.04 30.95 C-1.3 25.97, 0.42 18.81, 3.25 13.98 C6.09 9.15, 14.43 4.08, 16.98 1.96 C19.53 -0.15, 18.44 1.01, 18.56 1.29 M31.34 -1.05 C36.58 -0.18, 42.31 4.75, 45.7 9.05 C49.09 13.35, 51.93 19.55, 51.69 24.74 C51.44 29.93, 47.69 36.63, 44.22 40.18 C40.76 43.72, 36.4 45.38, 30.88 46.01 C25.36 46.63, 15.77 46.4, 11.1 43.93 C6.44 41.46, 4.47 35.66, 2.91 31.17 C1.34 26.69, -0.12 21.75, 1.73 17.03 C3.58 12.3, 9.5 5.4, 14.01 2.82 C18.52 0.24, 26.28 1.83, 28.8 1.53 C31.32 1.22, 28.85 0.55, 29.15 0.98" stroke="none" stroke-width="0" fill="#eaddd7"></path><path d="M21.86 0.39 C26.76 -0.45, 34.04 1.03, 38.65 3.94 C43.27 6.84, 48.02 12.83, 49.57 17.82 C51.11 22.81, 49.96 29.2, 47.93 33.86 C45.89 38.52, 42.17 43.61, 37.35 45.77 C32.52 47.93, 24.31 48.21, 18.99 46.8 C13.67 45.4, 8.53 41.24, 5.42 37.33 C2.31 33.43, -0.06 28.32, 0.34 23.38 C0.73 18.43, 3.61 11.54, 7.8 7.64 C11.99 3.74, 21.93 1.13, 25.45 -0.02 C28.98 -1.17, 28.99 0.21, 28.96 0.77 M15.92 1.52 C20.53 -0.41, 28.29 0.76, 33.43 2.36 C38.56 3.97, 43.79 6.89, 46.74 11.13 C49.68 15.38, 51.67 22.75, 51.1 27.83 C50.54 32.9, 47.35 38.16, 43.35 41.58 C39.35 45.01, 33 48.16, 27.1 48.37 C21.2 48.57, 12.39 46.27, 7.95 42.81 C3.51 39.36, 1.19 32.58, 0.46 27.65 C-0.27 22.72, 1.1 17.56, 3.58 13.23 C6.05 8.9, 13.2 3.44, 15.28 1.65 C17.36 -0.14, 15.69 2.14, 16.05 2.51" stroke="#1e1e1e" stroke-width="2" fill="none"></path></g></svg>