<svg version="1.1" xmlns="http://www.w3.org/2000/svg" viewBox="0 0 108.91314535019183 140.8422378015016" width="108.91314535019183" height="140.8422378015016">
  <!-- svg-source:excalidraw -->
  
  <defs>
    <style class="style-fonts">
      @font-face {
        font-family: "Virgil";
        src: url("https://excalidraw.com/Virgil.woff2");
      }
      @font-face {
        font-family: "Cascadia";
        src: url("https://excalidraw.com/Cascadia.woff2");
      }
      @font-face {
        font-family: "Assistant";
        src: url("https://excalidraw.com/Assistant-Regular.woff2");
      }
    </style>
    
  </defs>
  <g stroke-linecap="round" transform="translate(37.70629165700984 109.06643921733757) rotate(22.461246866865288 19.283203125 7.48828125)"><path d="M3.74 0 C13.52 -0.92, 18.77 1.16, 34.82 0 C37.36 2.44, 37.83 3.77, 38.57 3.74 C38.51 5.96, 38.66 9.62, 38.57 11.23 C36.4 13.98, 36.17 15.94, 34.82 14.98 C25.43 12.35, 17.68 16.35, 3.74 14.98 C2.8 12.51, 1.05 13.06, 0 11.23 C-0.01 8.89, -0.29 5.89, 0 3.74 C-2.28 0.61, 2.15 -2.52, 3.74 0" stroke="none" stroke-width="0" fill="#868e96"></path><path d="M3.74 0 C13.3 0.46, 22.28 -0.84, 34.82 0 M3.74 0 C12 -0.09, 20.91 0.18, 34.82 0 M34.82 0 C37.38 0.81, 38.71 0.99, 38.57 3.74 M34.82 0 C38.44 -0.92, 37.84 2.21, 38.57 3.74 M38.57 3.74 C38.4 6.43, 38.85 9.65, 38.57 11.23 M38.57 3.74 C38.68 6.2, 38.62 8.43, 38.57 11.23 M38.57 11.23 C37.74 12.86, 37.08 14.27, 34.82 14.98 M38.57 11.23 C39.65 13.83, 37.1 15.96, 34.82 14.98 M34.82 14.98 C26.93 15.99, 19.63 14.49, 3.74 14.98 M34.82 14.98 C23 15.45, 10.52 14.91, 3.74 14.98 M3.74 14.98 C1 15.5, -0.18 13.25, 0 11.23 M3.74 14.98 C1.5 14.25, 0.1 13.52, 0 11.23 M0 11.23 C0.18 8.53, -0.23 5.23, 0 3.74 M0 11.23 C0.18 8.94, 0.04 6.34, 0 3.74 M0 3.74 C-0.02 2.24, 1.41 0.1, 3.74 0 M0 3.74 C1.03 0.43, 1.42 0.48, 3.74 0" stroke="#1e1e1e" stroke-width="2" fill="none"></path></g><g stroke-linecap="round" transform="translate(37.5204192611759 16.919422171883525) rotate(22.923355211056883 19.283203125 7.48828125)"><path d="M3.74 0 C10.96 1.19, 20.37 2.61, 34.82 0 C36.58 2.52, 39.69 -1, 38.57 3.74 C38.75 6.99, 37.76 8.87, 38.57 11.23 C37.42 14.69, 37.32 15.17, 34.82 14.98 C29.4 16.3, 22.51 12.15, 3.74 14.98 C2.3 14.3, 1.36 12.13, 0 11.23 C-0.34 9.61, -0.85 7.87, 0 3.74 C0.9 -1.27, 3.06 2.53, 3.74 0" stroke="none" stroke-width="0" fill="#868e96"></path><path d="M3.74 0 C14.95 -0.87, 24.42 -0.28, 34.82 0 M3.74 0 C13.55 0.23, 23.83 0.42, 34.82 0 M34.82 0 C37.46 -0.25, 39.54 0.45, 38.57 3.74 M34.82 0 C36.6 0.96, 39.51 0.65, 38.57 3.74 M38.57 3.74 C38.85 5.84, 38.64 7.94, 38.57 11.23 M38.57 3.74 C38.6 5.92, 38.43 8.25, 38.57 11.23 M38.57 11.23 C38.32 13.02, 38.26 15.06, 34.82 14.98 M38.57 11.23 C38.35 14.71, 36.72 15.29, 34.82 14.98 M34.82 14.98 C25.35 14.63, 16.39 14.31, 3.74 14.98 M34.82 14.98 C23.58 14.92, 11.98 15.35, 3.74 14.98 M3.74 14.98 C1.07 14.5, 0.22 13.1, 0 11.23 M3.74 14.98 C1.35 14.77, 1.07 12.68, 0 11.23 M0 11.23 C-0.28 8.37, 0.1 5.41, 0 3.74 M0 11.23 C-0.02 8.81, -0.03 6.47, 0 3.74 M0 3.74 C0.17 1.35, 2.15 -0.72, 3.74 0 M0 3.74 C0.17 1.73, 0.78 0.01, 3.74 0" stroke="#1e1e1e" stroke-width="2" fill="none"></path></g><g stroke-linecap="round" transform="translate(13.651426600191826 32.545724255215646) rotate(0 42.630859375 38.322265625)"><path d="M19.16 0 C31.4 3.05, 42.5 3.16, 66.1 0 C80.44 -3.11, 86.57 6.47, 85.26 19.16 C82.39 29.59, 83.8 40.66, 85.26 57.48 C85.27 70.52, 76.11 76.56, 66.1 76.64 C58.36 73.78, 47.76 76.26, 19.16 76.64 C8.26 74.43, -3.3 70.01, 0 57.48 C-2.92 43.96, 1.49 28.7, 0 19.16 C2.51 9.89, 6.37 0.79, 19.16 0" stroke="none" stroke-width="0" fill="#7950f2"></path><path d="M19.16 0 C35.26 -0.03, 52.64 -1.39, 66.1 0 M19.16 0 C32.76 0.61, 46.39 -0.45, 66.1 0 M66.1 0 C80.83 -1.6, 84.01 8.06, 85.26 19.16 M66.1 0 C80.77 -1.2, 84.23 5.48, 85.26 19.16 M85.26 19.16 C86.05 30.8, 85.81 39.37, 85.26 57.48 M85.26 19.16 C84.47 30.48, 85.06 42.81, 85.26 57.48 M85.26 57.48 C87.15 70.43, 78.5 78.36, 66.1 76.64 M85.26 57.48 C84.06 70.89, 79.14 76.21, 66.1 76.64 M66.1 76.64 C49.22 74.77, 29.94 77.97, 19.16 76.64 M66.1 76.64 C48.33 77.01, 30.86 76.01, 19.16 76.64 M19.16 76.64 C6.82 75.39, 0.17 69.89, 0 57.48 M19.16 76.64 C8.53 74.55, 1.54 71.12, 0 57.48 M0 57.48 C0.88 41.73, 0.88 31.03, 0 19.16 M0 57.48 C-0.04 43.28, 0.15 27.19, 0 19.16 M0 19.16 C1.8 4.96, 6.68 0.84, 19.16 0 M0 19.16 C-0.94 6.4, 5.62 1.52, 19.16 0" stroke="#1e1e1e" stroke-width="2" fill="none"></path></g><g stroke-linecap="round" transform="translate(13.186373760761398 31.768827916034752) rotate(47.524435689906944 13.974609375 10.47265625)"><path d="M5.24 0 C10.15 -2.65, 14.72 1.2, 22.71 0 C22.71 2.51, 31.45 1.73, 27.95 5.24 C28.21 8.82, 28 12.67, 27.95 15.71 C28.25 15.88, 29.35 17.48, 22.71 20.95 C18.17 19.93, 12.44 23.68, 5.24 20.95 C-1.57 17.46, -1.21 22.64, 0 15.71 C1.41 12.68, -1.56 11.81, 0 5.24 C-1.89 2.03, 4.25 3.32, 5.24 0" stroke="none" stroke-width="0" fill="#eaddd7"></path><path d="M5.24 0 C7.8 1.69, 12.98 -0.29, 22.71 0 M5.24 0 C12.08 -0.21, 19.58 0.13, 22.71 0 M22.71 0 C25.2 1.86, 26.31 3.06, 27.95 5.24 M22.71 0 C27.99 1.69, 28.49 0.96, 27.95 5.24 M27.95 5.24 C27.5 8.35, 27.35 11.1, 27.95 15.71 M27.95 5.24 C28.4 8.38, 28.39 10.76, 27.95 15.71 M27.95 15.71 C27.34 19.81, 24.44 21.55, 22.71 20.95 M27.95 15.71 C29.72 21.42, 26.33 21.58, 22.71 20.95 M22.71 20.95 C17.68 22.55, 11.05 21.23, 5.24 20.95 M22.71 20.95 C16.45 21.53, 10.41 20.58, 5.24 20.95 M5.24 20.95 C2.54 20.98, 1.88 18.64, 0 15.71 M5.24 20.95 C3.98 21.94, -1.99 20.04, 0 15.71 M0 15.71 C0.82 11.67, 0.14 8.92, 0 5.24 M0 15.71 C-0.4 12.17, -0.47 8.96, 0 5.24 M0 5.24 C1.29 2.94, -0.15 0.81, 5.24 0 M0 5.24 C-0.59 2.94, 0.33 -2.11, 5.24 0" stroke="#1e1e1e" stroke-width="2" fill="none"></path></g><g stroke-linecap="round" transform="translate(28.105044809020455 46.22262049353867) rotate(47.524435689906944 25.4296875 23.859375)"><path d="M37.65 2.78 C42.25 4.95, 46.48 10.44, 48.61 15.03 C50.73 19.62, 51.98 25.56, 50.39 30.32 C48.8 35.08, 43.75 40.75, 39.08 43.61 C34.4 46.47, 27.75 48.25, 22.35 47.5 C16.95 46.75, 10.39 43.05, 6.67 39.12 C2.94 35.18, 0.12 28.76, 0 23.88 C-0.13 19.01, 2.48 13.93, 5.92 9.88 C9.36 5.83, 14.84 0.52, 20.65 -0.41 C26.47 -1.33, 37.03 3.17, 40.83 4.33 C44.62 5.49, 43.88 6.2, 43.41 6.55 M27.92 -0.1 C33.26 0.1, 41.03 2.49, 45.02 6.63 C49.02 10.77, 51.85 19.33, 51.9 24.74 C51.94 30.15, 48.74 35.5, 45.3 39.08 C41.85 42.65, 36.57 45.22, 31.25 46.2 C25.93 47.19, 18.3 47.16, 13.38 44.97 C8.46 42.79, 3.7 38.13, 1.72 33.11 C-0.27 28.09, -0.51 20.04, 1.45 14.86 C3.42 9.69, 8.75 4.42, 13.5 2.05 C18.24 -0.32, 27.16 0.76, 29.91 0.66 C32.66 0.56, 30.26 0.98, 29.99 1.45" stroke="none" stroke-width="0" fill="#eaddd7"></path><path d="M23.32 0.22 C28.27 -0.29, 35.22 2.42, 39.69 5.22 C44.16 8.02, 48.53 12.4, 50.16 17.03 C51.79 21.66, 51.67 28.12, 49.48 32.98 C47.28 37.85, 41.94 43.83, 36.98 46.2 C32.03 48.56, 25.18 48.64, 19.74 47.18 C14.3 45.72, 7.54 41.67, 4.35 37.43 C1.16 33.19, 0.19 26.77, 0.61 21.75 C1.03 16.73, 2.36 10.9, 6.85 7.32 C11.35 3.73, 23.22 1.02, 27.56 0.23 C31.9 -0.57, 32.97 2.04, 32.88 2.53 M29.74 0.88 C34.5 1.74, 40.1 5.1, 43.81 9.23 C47.53 13.36, 51.85 20.53, 52.01 25.64 C52.17 30.74, 48.52 35.99, 44.76 39.86 C41.01 43.74, 34.82 48.13, 29.47 48.9 C24.12 49.67, 17.11 47.55, 12.66 44.5 C8.21 41.46, 4.56 35.38, 2.77 30.64 C0.97 25.89, 0.27 20.62, 1.87 16.02 C3.48 11.42, 7.77 5.48, 12.41 3.04 C17.04 0.61, 26.85 1.88, 29.69 1.42 C32.54 0.95, 29.39 0.04, 29.49 0.27" stroke="#1e1e1e" stroke-width="2" fill="none"></path></g></svg>