<svg version="1.1" xmlns="http://www.w3.org/2000/svg" viewBox="0 0 105.26171875 140.8422378015016" width="105.26171875" height="140.8422378015016">
  <!-- svg-source:excalidraw -->
  
  <defs>
    <style class="style-fonts">
      @font-face {
        font-family: "Virgil";
        src: url("https://excalidraw.com/Virgil.woff2");
      }
      @font-face {
        font-family: "Cascadia";
        src: url("https://excalidraw.com/Cascadia.woff2");
      }
      @font-face {
        font-family: "Assistant";
        src: url("https://excalidraw.com/Assistant-Regular.woff2");
      }
    </style>
    
  </defs>
  <g stroke-linecap="round" transform="translate(34.05486505681802 109.06643921733757) rotate(22.461246866865288 19.283203125 7.48828125)"><path d="M3.74 0 C13.56 2.14, 25.97 -2.62, 34.82 0 C38.26 0.06, 37.61 1.73, 38.57 3.74 C38.06 6.91, 38.49 9.43, 38.57 11.23 C36.57 13.67, 35 16.49, 34.82 14.98 C24.54 13.92, 13.51 12.99, 3.74 14.98 C-1.14 14.8, 0.78 12.8, 0 11.23 C0.42 8.09, 0.76 7.79, 0 3.74 C-0.01 1.82, 2.63 -1.81, 3.74 0" stroke="none" stroke-width="0" fill="#868e96"></path><path d="M3.74 0 C10.85 -0.85, 17.39 -0.41, 34.82 0 M3.74 0 C14.46 -0.25, 25.53 -0.52, 34.82 0 M34.82 0 C36.69 0.83, 39.39 0.72, 38.57 3.74 M34.82 0 C36.8 -0.45, 38.02 2.17, 38.57 3.74 M38.57 3.74 C38.62 6.51, 38.64 9, 38.57 11.23 M38.57 3.74 C38.49 5.21, 38.71 6.95, 38.57 11.23 M38.57 11.23 C38.38 14.59, 36.8 15.25, 34.82 14.98 M38.57 11.23 C38.7 13.51, 38.46 15.21, 34.82 14.98 M34.82 14.98 C27.71 15.63, 20.03 15.09, 3.74 14.98 M34.82 14.98 C26.47 14.82, 18.4 14.74, 3.74 14.98 M3.74 14.98 C1.33 14.79, 0.93 12.82, 0 11.23 M3.74 14.98 C2.02 15.41, 0.75 12.9, 0 11.23 M0 11.23 C0.1 9.5, 0.35 7.21, 0 3.74 M0 11.23 C0.03 8.8, 0.17 6.19, 0 3.74 M0 3.74 C0.15 1.67, 0.84 0.01, 3.74 0 M0 3.74 C-0.38 2.01, 0.78 -0.48, 3.74 0" stroke="#1e1e1e" stroke-width="2" fill="none"></path></g><g stroke-linecap="round" transform="translate(33.86899266098408 16.919422171883525) rotate(22.923355211056883 19.283203125 7.48828125)"><path d="M3.74 0 C17.11 -2.64, 29.18 -0.33, 34.82 0 C36.36 0.48, 40.52 -0.91, 38.57 3.74 C38.53 6.13, 37.78 8.36, 38.57 11.23 C36.25 15.24, 39 16.53, 34.82 14.98 C29.8 13.27, 19.68 14.7, 3.74 14.98 C2.03 14.05, -0.18 11.44, 0 11.23 C0.64 10.12, -0.04 7.32, 0 3.74 C1.38 -0.56, 1.47 0.29, 3.74 0" stroke="none" stroke-width="0" fill="#868e96"></path><path d="M3.74 0 C12.33 -0.3, 21.57 0.19, 34.82 0 M3.74 0 C16.06 -0.36, 27.09 0.46, 34.82 0 M34.82 0 C38.14 -0.52, 38.12 0.85, 38.57 3.74 M34.82 0 C36.77 0.92, 39.12 1.52, 38.57 3.74 M38.57 3.74 C38.64 6.77, 38.24 9.4, 38.57 11.23 M38.57 3.74 C38.73 5.36, 38.52 7.1, 38.57 11.23 M38.57 11.23 C38.04 14, 37.43 14.79, 34.82 14.98 M38.57 11.23 C39.71 13.97, 36.74 16.04, 34.82 14.98 M34.82 14.98 C28.77 15.33, 20.91 14.85, 3.74 14.98 M34.82 14.98 C23.97 14.59, 12.93 14.81, 3.74 14.98 M3.74 14.98 C2.18 14.07, 0.67 14.11, 0 11.23 M3.74 14.98 C2 14.15, -0.35 14.08, 0 11.23 M0 11.23 C0.35 9.67, 0.09 8.05, 0 3.74 M0 11.23 C0.16 8.11, 0.02 5.33, 0 3.74 M0 3.74 C-0.41 1.25, 0.92 0.66, 3.74 0 M0 3.74 C-0.47 0.77, 1.7 0.02, 3.74 0" stroke="#1e1e1e" stroke-width="2" fill="none"></path></g><g stroke-linecap="round" transform="translate(10 32.545724255215646) rotate(0 42.630859375 38.322265625)"><path d="M19.16 0 C39.11 0.81, 55.11 1.39, 66.1 0 C81.58 -2.99, 85.6 4.8, 85.26 19.16 C82.5 31.99, 82.05 47.08, 85.26 57.48 C87.59 72.41, 75.46 78.1, 66.1 76.64 C49.93 75.88, 41.45 74.84, 19.16 76.64 C6.14 73.48, -0.88 71.5, 0 57.48 C-0.49 50.5, 1.43 39.41, 0 19.16 C0.3 6.79, 6.3 1.31, 19.16 0" stroke="none" stroke-width="0" fill="#7950f2"></path><path d="M19.16 0 C29.98 0.32, 40.7 0.49, 66.1 0 M19.16 0 C31.42 1.21, 45.76 -0.15, 66.1 0 M66.1 0 C77.98 -0.79, 84.31 7.99, 85.26 19.16 M66.1 0 C79.98 0.55, 87.53 6.66, 85.26 19.16 M85.26 19.16 C83.58 30.66, 83.6 44.99, 85.26 57.48 M85.26 19.16 C85.44 28.81, 85.1 37.03, 85.26 57.48 M85.26 57.48 C85.49 69.88, 80.86 77.06, 66.1 76.64 M85.26 57.48 C84.11 72.39, 77 78.15, 66.1 76.64 M66.1 76.64 C47.68 76.27, 31.69 76.39, 19.16 76.64 M66.1 76.64 C54.34 76.17, 43.35 75.44, 19.16 76.64 M19.16 76.64 C7.73 77.4, 1.3 68.82, 0 57.48 M19.16 76.64 C5.69 77.34, -2.03 70.95, 0 57.48 M0 57.48 C0.18 43, 1.62 28.93, 0 19.16 M0 57.48 C-0.2 46.03, -0.75 33.75, 0 19.16 M0 19.16 C-0.66 7.71, 5.58 -0.83, 19.16 0 M0 19.16 C0.91 6.43, 8.55 -0.65, 19.16 0" stroke="#1e1e1e" stroke-width="2" fill="none"></path></g><g stroke-linecap="round" transform="translate(40.63070709739986 21.99483342197982) rotate(269.315648468081 13.974609375 10.47265625)"><path d="M5.24 0 C7.14 -0.02, 15.76 -0.93, 22.71 0 C25.96 -3.16, 27.07 2.99, 27.95 5.24 C28.07 7.78, 29.08 8.18, 27.95 15.71 C28.25 19.6, 26.12 22.25, 22.71 20.95 C14.3 22.63, 12.76 22.95, 5.24 20.95 C3.44 19.58, 2.03 22.13, 0 15.71 C1.99 12.67, 0.34 13.22, 0 5.24 C2.72 1.05, -1.2 2.72, 5.24 0" stroke="none" stroke-width="0" fill="#eaddd7"></path><path d="M5.24 0 C9.71 -1.47, 15.73 -0.44, 22.71 0 M5.24 0 C9.08 0.73, 12.8 0.23, 22.71 0 M22.71 0 C26.43 -0.37, 29.93 2.16, 27.95 5.24 M22.71 0 C25.05 2.14, 26.07 3.25, 27.95 5.24 M27.95 5.24 C27.67 8.94, 28.58 12.96, 27.95 15.71 M27.95 5.24 C28.02 7.78, 28.46 10.04, 27.95 15.71 M27.95 15.71 C29.29 19.95, 27.51 19.51, 22.71 20.95 M27.95 15.71 C27.25 19.9, 24.18 21.64, 22.71 20.95 M22.71 20.95 C16.61 20.92, 11.27 21.25, 5.24 20.95 M22.71 20.95 C17.43 21.19, 11.53 20.83, 5.24 20.95 M5.24 20.95 C1.08 22.27, -0.81 18.37, 0 15.71 M5.24 20.95 C2.65 20.98, 2.16 18.55, 0 15.71 M0 15.71 C0.34 11.58, -0.43 7.59, 0 5.24 M0 15.71 C-0.14 11.97, 0.09 7.89, 0 5.24 M0 5.24 C-1.54 1.7, -0.04 1.17, 5.24 0 M0 5.24 C1.49 3.12, -0.44 0.93, 5.24 0" stroke="#1e1e1e" stroke-width="2" fill="none"></path></g><g stroke-linecap="round" transform="translate(28.981305803572468 46.95692110629625) rotate(269.315648468081 25.4296875 23.859375)"><path d="M30.14 1.43 C35.35 1.79, 42.2 4.25, 45.71 8.08 C49.23 11.92, 51.48 19.15, 51.22 24.43 C50.96 29.72, 47.69 36.1, 44.16 39.79 C40.63 43.49, 35.33 45.95, 30.02 46.61 C24.71 47.28, 17.03 46.32, 12.31 43.8 C7.59 41.29, 3.46 36.4, 1.71 31.51 C-0.04 26.61, -0.1 19.33, 1.81 14.42 C3.73 9.51, 7.99 4.18, 13.2 2.04 C18.41 -0.1, 29.45 1.75, 33.07 1.58 C36.69 1.42, 35.07 0.84, 34.92 1.07 M31.88 1.26 C37.03 2.43, 42.78 6, 45.71 10.05 C48.64 14.1, 49.74 20.68, 49.45 25.55 C49.15 30.41, 47.4 35.33, 43.95 39.26 C40.49 43.18, 34.23 48.34, 28.72 49.08 C23.2 49.83, 15.37 47.09, 10.86 43.75 C6.35 40.4, 3.06 33.98, 1.67 29.01 C0.27 24.05, 0.34 18.34, 2.5 13.97 C4.66 9.6, 9.69 5.22, 14.62 2.79 C19.56 0.37, 29.02 -0.08, 32.11 -0.58 C35.2 -1.07, 33.18 -0.86, 33.17 -0.18" stroke="none" stroke-width="0" fill="#eaddd7"></path><path d="M22.44 -0.01 C27.8 -1.15, 35.56 0.5, 40.16 3.34 C44.75 6.18, 48.62 11.88, 50.03 17.02 C51.44 22.16, 50.79 29.59, 48.64 34.19 C46.5 38.8, 41.83 42.61, 37.16 44.63 C32.49 46.64, 25.85 47.23, 20.61 46.29 C15.38 45.34, 9.07 42.89, 5.76 38.98 C2.45 35.07, 0.65 28.1, 0.77 22.82 C0.9 17.55, 2.64 11.15, 6.51 7.33 C10.37 3.5, 21.05 0.99, 23.98 -0.11 C26.91 -1.21, 24.25 0.27, 24.09 0.71 M24.11 0.67 C29.17 -0.03, 36.67 0.28, 40.9 3.18 C45.14 6.07, 48.46 12.85, 49.51 18.04 C50.56 23.23, 49.22 29.5, 47.2 34.3 C45.19 39.11, 42.12 44.71, 37.43 46.89 C32.74 49.06, 24.5 48.64, 19.04 47.35 C13.57 46.05, 7.75 43.34, 4.63 39.12 C1.51 34.9, -0.34 27.55, 0.34 22.03 C1.02 16.51, 4.89 9.54, 8.72 5.99 C12.55 2.44, 21.02 1.63, 23.32 0.73 C25.63 -0.17, 22.62 0.13, 22.54 0.58" stroke="#1e1e1e" stroke-width="2" fill="none"></path></g></svg>