<svg version="1.1" xmlns="http://www.w3.org/2000/svg" viewBox="0 0 106.89305606447624 140.8422378015016" width="106.89305606447624" height="140.8422378015016">
  <!-- svg-source:excalidraw -->
  
  <defs>
    <style class="style-fonts">
      @font-face {
        font-family: "Virgil";
        src: url("https://excalidraw.com/Virgil.woff2");
      }
      @font-face {
        font-family: "Cascadia";
        src: url("https://excalidraw.com/Cascadia.woff2");
      }
      @font-face {
        font-family: "Assistant";
        src: url("https://excalidraw.com/Assistant-Regular.woff2");
      }
    </style>
    
  </defs>
  <g stroke-linecap="round" transform="translate(35.68620237129426 109.06643921733757) rotate(22.461246866865288 19.283203125 7.48828125)"><path d="M3.74 0 C16.18 -0.08, 29.75 0.41, 34.82 0 C37.57 2.34, 36.71 1.63, 38.57 3.74 C38.2 6.95, 38.13 8.46, 38.57 11.23 C39.59 13.77, 39.76 14.24, 34.82 14.98 C23.43 14.69, 9.19 15.11, 3.74 14.98 C3.2 12.81, 0.25 12.58, 0 11.23 C-0.75 8.69, -0.87 6.75, 0 3.74 C1.68 2.8, -1.22 1.05, 3.74 0" stroke="none" stroke-width="0" fill="#868e96"></path><path d="M3.74 0 C11.79 -0.61, 18.27 0.82, 34.82 0 M3.74 0 C12.16 0.22, 19.93 0.49, 34.82 0 M34.82 0 C37.68 0.67, 39.08 2.01, 38.57 3.74 M34.82 0 C36.41 -0.23, 38.34 1.51, 38.57 3.74 M38.57 3.74 C38.72 5.36, 38.86 6.98, 38.57 11.23 M38.57 3.74 C38.49 5.96, 38.76 7.76, 38.57 11.23 M38.57 11.23 C38.12 13.33, 36.84 15.78, 34.82 14.98 M38.57 11.23 C39.12 14, 38.45 15.11, 34.82 14.98 M34.82 14.98 C23.28 14.16, 12.62 14.75, 3.74 14.98 M34.82 14.98 C27.6 15.42, 20.3 15.13, 3.74 14.98 M3.74 14.98 C1.36 14.79, 0.99 13.94, 0 11.23 M3.74 14.98 C0.67 16.04, -0.94 14.48, 0 11.23 M0 11.23 C-0.16 8.31, 0.17 5.51, 0 3.74 M0 11.23 C0.01 9.31, 0.17 7.28, 0 3.74 M0 3.74 C0.67 1.62, 1.9 -0.72, 3.74 0 M0 3.74 C-0.35 1.6, 0.24 0.35, 3.74 0" stroke="#1e1e1e" stroke-width="2" fill="none"></path></g><g stroke-linecap="round" transform="translate(35.50032997546032 16.919422171883525) rotate(22.923355211056883 19.283203125 7.48828125)"><path d="M3.74 0 C15.82 0.44, 22.99 2.35, 34.82 0 C35.46 0.38, 39.66 0.18, 38.57 3.74 C38.14 5.59, 38.92 8.26, 38.57 11.23 C41.01 12.99, 39.84 16.1, 34.82 14.98 C27.22 15.46, 23.49 12.82, 3.74 14.98 C1.5 13.83, 0.96 13.73, 0 11.23 C-0.79 9.5, 0.71 7.21, 0 3.74 C-2.46 2.3, 0.58 1.36, 3.74 0" stroke="none" stroke-width="0" fill="#868e96"></path><path d="M3.74 0 C13.53 0.94, 23 -0.45, 34.82 0 M3.74 0 C12.55 0.4, 21.67 0.27, 34.82 0 M34.82 0 C37.84 0.77, 37.78 1.04, 38.57 3.74 M34.82 0 C37.09 0.26, 37.56 1.12, 38.57 3.74 M38.57 3.74 C38.88 5.72, 38.49 7.95, 38.57 11.23 M38.57 3.74 C38.7 5.29, 38.46 6.97, 38.57 11.23 M38.57 11.23 C38.09 14.53, 37.8 15.21, 34.82 14.98 M38.57 11.23 C39.7 13.87, 37.82 15.18, 34.82 14.98 M34.82 14.98 C24.32 14.61, 14.83 15.79, 3.74 14.98 M34.82 14.98 C24.97 15.25, 15.69 15.02, 3.74 14.98 M3.74 14.98 C2.24 15.18, -0.5 14.66, 0 11.23 M3.74 14.98 C0.31 15.73, 0.89 14.57, 0 11.23 M0 11.23 C0.21 8.74, -0.17 6.47, 0 3.74 M0 11.23 C0.17 9.29, 0.12 7.75, 0 3.74 M0 3.74 C0.65 0.53, 0.94 0.3, 3.74 0 M0 3.74 C-1.01 1.6, 2.13 1.11, 3.74 0" stroke="#1e1e1e" stroke-width="2" fill="none"></path></g><g stroke-linecap="round" transform="translate(11.63133731447624 32.545724255215646) rotate(0 42.630859375 38.322265625)"><path d="M19.16 0 C33.5 3.1, 44.55 0.38, 66.1 0 C80.38 -1.47, 85.28 5.19, 85.26 19.16 C86.4 33.26, 88.36 46.22, 85.26 57.48 C88.76 71.82, 75.77 77.96, 66.1 76.64 C54.61 73.81, 38.06 75.22, 19.16 76.64 C7.72 76.65, 0.27 67.49, 0 57.48 C2.95 48.23, -2.8 36.12, 0 19.16 C-0.93 8.26, 4.17 -3.3, 19.16 0" stroke="none" stroke-width="0" fill="#7950f2"></path><path d="M19.16 0 C29.74 -1.49, 41.56 0.75, 66.1 0 M19.16 0 C35.43 0.23, 51.49 0.33, 66.1 0 M66.1 0 C77.3 -0.41, 84.86 6.84, 85.26 19.16 M66.1 0 C76.86 -0.27, 84.25 7.37, 85.26 19.16 M85.26 19.16 C85.06 32.84, 83.97 41.34, 85.26 57.48 M85.26 19.16 C85.13 33.46, 85.1 49.35, 85.26 57.48 M85.26 57.48 C86.22 70.73, 80.84 76.88, 66.1 76.64 M85.26 57.48 C86.26 70.67, 79.11 74.64, 66.1 76.64 M66.1 76.64 C54.5 78.42, 45.89 76.16, 19.16 76.64 M66.1 76.64 C48.11 76.59, 30.88 76.98, 19.16 76.64 M19.16 76.64 C5.38 78.5, -1.63 71.57, 0 57.48 M19.16 76.64 C8.18 78.33, 0.54 69.47, 0 57.48 M0 57.48 C-1.16 47.36, -1.46 36.53, 0 19.16 M0 57.48 C0.31 47.07, 0.3 35.18, 0 19.16 M0 19.16 C-0.61 6.99, 4.63 0.6, 19.16 0 M0 19.16 C1.77 8.61, 6.51 0.64, 19.16 0" stroke="#1e1e1e" stroke-width="2" fill="none"></path></g><g stroke-linecap="round" transform="translate(13.186373760761398 88.17832059975444) rotate(312.47556431009303 13.974609375 10.47265625)"><path d="M5.24 0 C12.39 1.67, 15.97 0.27, 22.71 0 C26.6 -0.09, 29.26 2.04, 27.95 5.24 C28.96 7.9, 29.15 10.48, 27.95 15.71 C26.59 21.23, 29.14 17.63, 22.71 20.95 C17.73 21.52, 18.74 23.63, 5.24 20.95 C1.05 18, 2.72 17.31, 0 15.71 C1.49 12.18, -0.15 9.69, 0 5.24 C0.51 4.71, 3.26 -3.01, 5.24 0" stroke="none" stroke-width="0" fill="#eaddd7"></path><path d="M5.24 0 C9.24 1.71, 14.26 -0.9, 22.71 0 M5.24 0 C12.78 0.53, 19.17 -0.41, 22.71 0 M22.71 0 C25.72 1.06, 27.59 0.79, 27.95 5.24 M22.71 0 C26.7 -1.45, 28.14 1.32, 27.95 5.24 M27.95 5.24 C28.25 10.04, 27.1 13.15, 27.95 15.71 M27.95 5.24 C28.26 9.2, 27.89 12.3, 27.95 15.71 M27.95 15.71 C27.91 21.18, 26.54 21.14, 22.71 20.95 M27.95 15.71 C30.02 17.56, 26.54 21.91, 22.71 20.95 M22.71 20.95 C19.34 20.18, 12.93 21.58, 5.24 20.95 M22.71 20.95 C18.29 21.27, 11.41 21.21, 5.24 20.95 M5.24 20.95 C1.79 20.21, 0.37 20.7, 0 15.71 M5.24 20.95 C-0.17 21.16, -1.01 20.05, 0 15.71 M0 15.71 C-0.03 11.63, 0.6 10.1, 0 5.24 M0 15.71 C-0.04 12.21, -0.22 7.69, 0 5.24 M0 5.24 C-0.14 2.35, 1.03 -0.13, 5.24 0 M0 5.24 C-2.02 1.18, 2.54 -2.23, 5.24 0" stroke="#1e1e1e" stroke-width="2" fill="none"></path></g><g stroke-linecap="round" transform="translate(28.105044809020455 46.951090522250524) rotate(312.47556431009303 25.4296875 23.859375)"><path d="M15.53 2.04 C20.13 -0.26, 27.42 -1.1, 32.59 0.18 C37.76 1.45, 43.41 5.2, 46.53 9.69 C49.65 14.17, 51.78 22, 51.29 27.07 C50.81 32.15, 47.6 36.74, 43.64 40.12 C39.68 43.51, 32.98 47.01, 27.53 47.41 C22.08 47.8, 15.56 45.49, 10.94 42.5 C6.32 39.52, 1.16 34.41, -0.18 29.49 C-1.52 24.57, -0.59 17.97, 2.91 12.98 C6.4 7.98, 16.85 1.53, 20.79 -0.49 C24.73 -2.51, 26.61 0.2, 26.54 0.86 M38.11 1.72 C42.86 3.7, 47.2 10.04, 49.11 15.04 C51.03 20.04, 51.27 27.12, 49.6 31.73 C47.92 36.33, 43.47 40.29, 39.08 42.68 C34.69 45.07, 28.57 46.45, 23.26 46.05 C17.95 45.65, 10.98 43.69, 7.24 40.26 C3.51 36.82, 1.25 30.49, 0.84 25.45 C0.44 20.42, 1.38 14.44, 4.79 10.06 C8.2 5.68, 16.13 0.45, 21.31 -0.85 C26.49 -2.15, 33 1.7, 35.86 2.26 C38.73 2.82, 38.45 1.82, 38.51 2.5" stroke="none" stroke-width="0" fill="#eaddd7"></path><path d="M19.77 1.52 C24.67 0.2, 32.42 0.54, 37.16 2.58 C41.91 4.62, 46.04 9.18, 48.25 13.77 C50.47 18.36, 51.94 25.11, 50.45 30.11 C48.96 35.11, 44 40.84, 39.31 43.77 C34.62 46.7, 27.68 48.07, 22.31 47.69 C16.93 47.31, 10.93 45.03, 7.07 41.48 C3.21 37.92, -0.51 31.49, -0.84 26.35 C-1.16 21.2, 0.99 15.05, 5.14 10.61 C9.28 6.17, 19.78 1.47, 24.03 -0.29 C28.27 -2.06, 30.43 -0.53, 30.61 0.05 M37.19 4.21 C41.96 6.15, 46.89 10.63, 49.2 14.93 C51.5 19.23, 52.67 25.06, 51.01 30.02 C49.36 34.97, 44.19 41.72, 39.26 44.64 C34.33 47.56, 26.96 48.13, 21.44 47.52 C15.92 46.9, 9.81 44.81, 6.14 40.93 C2.47 37.05, -0.54 29.49, -0.59 24.22 C-0.63 18.95, 2.22 13.33, 5.88 9.31 C9.55 5.3, 15.93 1.12, 21.39 0.13 C26.86 -0.86, 36.3 2.78, 38.68 3.37 C41.06 3.97, 36.13 3.54, 35.7 3.69" stroke="#1e1e1e" stroke-width="2" fill="none"></path></g></svg>