<svg version="1.1" xmlns="http://www.w3.org/2000/svg" viewBox="0 0 105.26171875 140.8422378015016" width="105.26171875" height="140.8422378015016">
  <!-- svg-source:excalidraw -->
  
  <defs>
    <style class="style-fonts">
      @font-face {
        font-family: "Virgil";
        src: url("https://excalidraw.com/Virgil.woff2");
      }
      @font-face {
        font-family: "Cascadia";
        src: url("https://excalidraw.com/Cascadia.woff2");
      }
      @font-face {
        font-family: "Assistant";
        src: url("https://excalidraw.com/Assistant-Regular.woff2");
      }
    </style>
    
  </defs>
  <g stroke-linecap="round" transform="translate(34.05486505681802 109.06643921733757) rotate(22.461246866865288 19.283203125 7.48828125)"><path d="M3.74 0 C15.88 -2.17, 27.23 2.12, 34.82 0 C39.83 0.14, 39.29 1.19, 38.57 3.74 C39.46 6.04, 38.72 10.13, 38.57 11.23 C37.5 13.74, 36.46 16.7, 34.82 14.98 C26.8 17.58, 17.96 17.66, 3.74 14.98 C2.38 12.73, 0.95 13.79, 0 11.23 C-0.83 9.35, -0.45 7.65, 0 3.74 C0.01 1.44, -0.75 -0.06, 3.74 0" stroke="none" stroke-width="0" fill="#868e96"></path><path d="M3.74 0 C12.05 0.59, 19.93 -0.55, 34.82 0 M3.74 0 C12.61 -0.13, 22.48 -0.31, 34.82 0 M34.82 0 C36.77 -0.14, 39.14 1.64, 38.57 3.74 M34.82 0 C37.16 1.06, 38.98 2.02, 38.57 3.74 M38.57 3.74 C38.52 6.3, 38.68 8.68, 38.57 11.23 M38.57 3.74 C38.56 6.06, 38.58 8.02, 38.57 11.23 M38.57 11.23 C39.54 12.93, 36.69 15.81, 34.82 14.98 M38.57 11.23 C39.51 13.13, 36.8 14.52, 34.82 14.98 M34.82 14.98 C27.22 16.04, 19.26 15.48, 3.74 14.98 M34.82 14.98 C24.53 14.41, 14.95 14.49, 3.74 14.98 M3.74 14.98 C2.19 15.06, -0.19 14.59, 0 11.23 M3.74 14.98 C0.65 15.29, 0.13 13.51, 0 11.23 M0 11.23 C0.34 7.94, 0.24 5.55, 0 3.74 M0 11.23 C-0.05 8.53, -0.04 5.55, 0 3.74 M0 3.74 C0.22 0.62, 1.33 -0.18, 3.74 0 M0 3.74 C1.07 0.2, 2.02 0.43, 3.74 0" stroke="#1e1e1e" stroke-width="2" fill="none"></path></g><g stroke-linecap="round" transform="translate(33.868992660985896 16.919422171883525) rotate(22.923355211056883 19.283203125 7.48828125)"><path d="M3.74 0 C12.91 2.36, 23.01 0.5, 34.82 0 C38.04 -0.05, 41.15 1.68, 38.57 3.74 C38.8 6.47, 38.26 8.39, 38.57 11.23 C37.7 15.45, 36.26 13.9, 34.82 14.98 C23.54 17.88, 14.85 13.11, 3.74 14.98 C2.19 15.04, -0.96 14.21, 0 11.23 C-0.35 8.78, 0.08 5.69, 0 3.74 C-2 1.19, -1.07 1.52, 3.74 0" stroke="none" stroke-width="0" fill="#868e96"></path><path d="M3.74 0 C9.97 -0.73, 18.07 0.09, 34.82 0 M3.74 0 C15.88 -0.19, 26.9 -0.07, 34.82 0 M34.82 0 C37.89 0.39, 38.43 2.17, 38.57 3.74 M34.82 0 C37.73 0.77, 39.16 2.13, 38.57 3.74 M38.57 3.74 C38.64 5.07, 38.52 6.9, 38.57 11.23 M38.57 3.74 C38.6 6.26, 38.75 8.73, 38.57 11.23 M38.57 11.23 C37.94 14.56, 38.14 14.45, 34.82 14.98 M38.57 11.23 C38.05 13.27, 36.77 15.9, 34.82 14.98 M34.82 14.98 C24.12 15.56, 13.36 15.23, 3.74 14.98 M34.82 14.98 C28.09 14.49, 22.07 14.89, 3.74 14.98 M3.74 14.98 C1.06 15.83, -0.52 14, 0 11.23 M3.74 14.98 C1.38 14.76, 1.14 13.97, 0 11.23 M0 11.23 C0.21 9.65, 0.24 7.58, 0 3.74 M0 11.23 C-0.02 9.15, 0.05 7.13, 0 3.74 M0 3.74 C0.08 1.06, 2.18 -0.91, 3.74 0 M0 3.74 C0.77 1.68, 2 -0.83, 3.74 0" stroke="#1e1e1e" stroke-width="2" fill="none"></path></g><g stroke-linecap="round" transform="translate(10 32.545724255215646) rotate(0 42.630859375 38.322265625)"><path d="M19.16 0 C32.58 -0.45, 40.06 -0.73, 66.1 0 C82.45 0.6, 85.61 9.63, 85.26 19.16 C83.89 27.94, 84.17 39.06, 85.26 57.48 C83.8 68.76, 80.3 76.71, 66.1 76.64 C49.17 74.36, 30.43 77.55, 19.16 76.64 C5.06 77.31, 2.7 67.26, 0 57.48 C0.31 45.89, -2.46 33.68, 0 19.16 C-3.21 8.49, 8.72 2.15, 19.16 0" stroke="none" stroke-width="0" fill="#7950f2"></path><path d="M19.16 0 C35.4 0.63, 53.38 -0.86, 66.1 0 M19.16 0 C32.55 0.04, 47.61 0.57, 66.1 0 M66.1 0 C78.59 1.85, 85.98 7.72, 85.26 19.16 M66.1 0 C80.06 1.76, 83.45 5.92, 85.26 19.16 M85.26 19.16 C85.12 29.01, 86.2 40.73, 85.26 57.48 M85.26 19.16 C86.3 32.95, 84.69 49.17, 85.26 57.48 M85.26 57.48 C86.91 69.21, 77.98 75.85, 66.1 76.64 M85.26 57.48 C84.16 72.11, 79.98 77.19, 66.1 76.64 M66.1 76.64 C47.75 77.05, 26.95 75.19, 19.16 76.64 M66.1 76.64 C57.02 76.4, 45.86 77.17, 19.16 76.64 M19.16 76.64 C5.34 77.2, 0.23 69.88, 0 57.48 M19.16 76.64 C8.67 77.12, -1.15 72.39, 0 57.48 M0 57.48 C1.22 49.59, -0.93 40.27, 0 19.16 M0 57.48 C0.29 43.33, 0.15 30.26, 0 19.16 M0 19.16 C1.86 4.57, 7.73 0.75, 19.16 0 M0 19.16 C1.5 4.73, 5.69 0.7, 19.16 0" stroke="#1e1e1e" stroke-width="2" fill="none"></path></g><g stroke-linecap="round" transform="translate(38.649680311687916 96.89204723666899) rotate(90.684351531919 13.974609375 10.47265625)"><path d="M5.24 0 C11.75 -0.1, 18.72 0.23, 22.71 0 C22.88 3.15, 24.48 3.36, 27.95 5.24 C27.34 9.72, 29.59 10.33, 27.95 15.71 C24.46 17.99, 29.65 19.3, 22.71 20.95 C16.71 18.61, 14.31 19.53, 5.24 20.95 C2.03 23.45, 3.32 22.3, 0 15.71 C0.27 14.29, 0.79 8.19, 0 5.24 C-3.48 1.91, 2.86 -3.59, 5.24 0" stroke="none" stroke-width="0" fill="#eaddd7"></path><path d="M5.24 0 C13.84 -1.34, 20.33 1.45, 22.71 0 M5.24 0 C11.55 0.52, 18.13 -0.36, 22.71 0 M22.71 0 C26.64 -1.26, 28.12 1.38, 27.95 5.24 M22.71 0 C28.35 -2.09, 29.49 2.61, 27.95 5.24 M27.95 5.24 C28.19 8.14, 28.19 13.69, 27.95 15.71 M27.95 5.24 C27.94 9.91, 28.04 13.59, 27.95 15.71 M27.95 15.71 C29.75 17.77, 26.5 21.78, 22.71 20.95 M27.95 15.71 C27.01 19.21, 25.44 22.47, 22.71 20.95 M22.71 20.95 C18.21 22.66, 13.15 22.71, 5.24 20.95 M22.71 20.95 C16.73 20.69, 10.87 21.66, 5.24 20.95 M5.24 20.95 C0.08 21.14, -0.88 19.94, 0 15.71 M5.24 20.95 C1.75 21.12, -1.77 19.15, 0 15.71 M0 15.71 C0.57 12.51, 0.36 11.02, 0 5.24 M0 15.71 C0.03 12.18, -0.12 8.3, 0 5.24 M0 5.24 C-1.76 1.26, 2.44 -1.94, 5.24 0 M0 5.24 C1.6 3.98, 1.74 0.51, 5.24 0" stroke="#1e1e1e" stroke-width="2" fill="none"></path></g><g stroke-linecap="round" transform="translate(27.00027901785961 45.15652205235165) rotate(90.684351531919 25.4296875 23.859375)"><path d="M25.44 -0.89 C30.7 -0.95, 38.11 2.97, 42.38 6.25 C46.66 9.53, 50.17 13.91, 51.08 18.8 C51.99 23.68, 50.58 31.08, 47.84 35.56 C45.1 40.04, 39.96 43.9, 34.62 45.67 C29.28 47.45, 20.94 47.91, 15.79 46.2 C10.63 44.49, 6.27 39.97, 3.69 35.41 C1.12 30.84, -0.54 23.73, 0.32 18.81 C1.19 13.89, 4.22 8.88, 8.86 5.91 C13.51 2.93, 24.08 1.7, 28.21 0.96 C32.34 0.22, 33.5 1.12, 33.64 1.48 M16.71 1.98 C21.46 -0.22, 28.92 -1.36, 34.27 0.06 C39.61 1.48, 45.96 5.77, 48.77 10.5 C51.59 15.22, 52.17 23.01, 51.14 28.41 C50.11 33.8, 46.97 39.49, 42.59 42.85 C38.21 46.21, 30.23 48.92, 24.85 48.57 C19.46 48.22, 14.61 44.26, 10.29 40.75 C5.97 37.23, -0.16 32.4, -1.07 27.48 C-1.98 22.56, 1.86 15.32, 4.85 11.23 C7.84 7.14, 14.68 4.53, 16.88 2.92 C19.08 1.32, 18.14 1.28, 18.06 1.59" stroke="none" stroke-width="0" fill="#eaddd7"></path><path d="M34.74 1.54 C39.61 3.03, 45.96 7.98, 48.47 12.59 C50.98 17.19, 51.15 24.12, 49.8 29.16 C48.45 34.2, 44.62 39.58, 40.35 42.82 C36.09 46.07, 29.72 48.74, 24.23 48.63 C18.74 48.52, 11.34 45.66, 7.41 42.18 C3.47 38.69, 1.31 32.94, 0.61 27.71 C-0.09 22.48, 0.32 15.39, 3.22 10.81 C6.11 6.23, 12.12 1.38, 18 0.25 C23.88 -0.89, 34.55 3.13, 38.51 4 C42.47 4.88, 41.97 5.29, 41.75 5.5 M38.89 1.8 C43.59 3.93, 47.62 10.78, 49.3 15.72 C50.97 20.65, 50.78 26.5, 48.94 31.41 C47.1 36.32, 42.89 42.61, 38.25 45.18 C33.6 47.75, 26.3 47.75, 21.09 46.84 C15.89 45.93, 10.28 43.51, 7 39.72 C3.72 35.92, 1.42 29.1, 1.42 24.09 C1.41 19.08, 4.03 13.52, 6.96 9.68 C9.9 5.84, 13.93 2.26, 19.03 1.03 C24.14 -0.19, 34.48 1.76, 37.57 2.32 C40.66 2.89, 37.99 3.96, 37.57 4.42" stroke="#1e1e1e" stroke-width="2" fill="none"></path></g></svg>