<svg version="1.1" xmlns="http://www.w3.org/2000/svg" viewBox="0 0 116.9010881696413 140.8422378015016" width="116.9010881696413" height="140.8422378015016">
  <!-- svg-source:excalidraw -->
  
  <defs>
    <style class="style-fonts">
      @font-face {
        font-family: "Virgil";
        src: url("https://excalidraw.com/Virgil.woff2");
      }
      @font-face {
        font-family: "Cascadia";
        src: url("https://excalidraw.com/Cascadia.woff2");
      }
      @font-face {
        font-family: "Assistant";
        src: url("https://excalidraw.com/Assistant-Regular.woff2");
      }
    </style>
    
  </defs>
  <g stroke-linecap="round" transform="translate(45.694234476459314 109.06643921733757) rotate(22.461246866865288 19.283203125 7.48828125)"><path d="M3.74 0 C11.73 0.02, 24.52 -1.43, 34.82 0 C37.33 -0.86, 40.29 0.19, 38.57 3.74 C39.52 5.41, 39.55 8.04, 38.57 11.23 C36.32 14.68, 37.38 14.02, 34.82 14.98 C25.18 13.5, 15.99 14.65, 3.74 14.98 C1.44 12.98, -0.06 11.41, 0 11.23 C-0.99 8.94, -0.31 6.37, 0 3.74 C-1.6 -1.14, 1.07 0.78, 3.74 0" stroke="none" stroke-width="0" fill="#868e96"></path><path d="M3.74 0 C15.55 0.66, 28.03 -0.06, 34.82 0 M3.74 0 C16.2 0.28, 27.75 -0.21, 34.82 0 M34.82 0 C37.12 0.23, 37.69 1.13, 38.57 3.74 M34.82 0 C36.81 0.49, 38.63 2.18, 38.57 3.74 M38.57 3.74 C38.26 5.86, 38.87 8.76, 38.57 11.23 M38.57 3.74 C38.46 5.75, 38.64 7.5, 38.57 11.23 M38.57 11.23 C39.55 13.85, 37.75 15.15, 34.82 14.98 M38.57 11.23 C38.68 12.72, 36.37 13.98, 34.82 14.98 M34.82 14.98 C26.34 14.94, 18.54 14.6, 3.74 14.98 M34.82 14.98 C25.14 15.05, 14.21 15.41, 3.74 14.98 M3.74 14.98 C0.43 15.63, 0.78 14.46, 0 11.23 M3.74 14.98 C1.52 14.58, -0.28 14.34, 0 11.23 M0 11.23 C-0.22 9.15, -0.05 7.36, 0 3.74 M0 11.23 C0.1 9.53, -0.08 8.16, 0 3.74 M0 3.74 C-0.88 1.55, 2.02 0.96, 3.74 0 M0 3.74 C0.06 1.57, 1.22 1.14, 3.74 0" stroke="#1e1e1e" stroke-width="2" fill="none"></path></g><g stroke-linecap="round" transform="translate(45.508362080627194 16.919422171883525) rotate(22.923355211056883 19.283203125 7.48828125)"><path d="M3.74 0 C16.95 -1.12, 28 -0.92, 34.82 0 C39.04 -1.05, 37.49 2.27, 38.57 3.74 C39.6 6.43, 37.82 8.62, 38.57 11.23 C38.63 12.77, 37.8 16.93, 34.82 14.98 C29.04 14.81, 21.54 12.8, 3.74 14.98 C1.19 12.66, 1.52 15.41, 0 11.23 C-0.16 9.05, -0.51 4.95, 0 3.74 C-0.18 2.03, 0.32 -0.18, 3.74 0" stroke="none" stroke-width="0" fill="#868e96"></path><path d="M3.74 0 C11.76 -0.23, 19.93 0.27, 34.82 0 M3.74 0 C14.75 -0.22, 26.44 -0.01, 34.82 0 M34.82 0 C36.44 -0.12, 38.13 1.67, 38.57 3.74 M34.82 0 C37.39 0.93, 38.73 0.96, 38.57 3.74 M38.57 3.74 C38.85 7.03, 38.34 9.53, 38.57 11.23 M38.57 3.74 C38.64 5.74, 38.73 7.67, 38.57 11.23 M38.57 11.23 C39 13.91, 37.42 14.1, 34.82 14.98 M38.57 11.23 C37.61 12.73, 37.04 14.17, 34.82 14.98 M34.82 14.98 C23.42 14.43, 10.59 15.06, 3.74 14.98 M34.82 14.98 C25.83 15.47, 16.93 15.34, 3.74 14.98 M3.74 14.98 C2.03 15.71, 0.24 13.39, 0 11.23 M3.74 14.98 C0.97 15.58, -0.21 13.18, 0 11.23 M0 11.23 C-0.05 9.17, -0.32 6.67, 0 3.74 M0 11.23 C-0.08 8.76, -0.19 6.23, 0 3.74 M0 3.74 C0.77 2.21, 1.3 0.28, 3.74 0 M0 3.74 C-0.02 2.39, 1.44 0.11, 3.74 0" stroke="#1e1e1e" stroke-width="2" fill="none"></path></g><g stroke-linecap="round" transform="translate(21.639369419641298 32.545724255215646) rotate(0 42.630859375 38.322265625)"><path d="M19.16 0 C33.95 -0.85, 51.08 -1.11, 66.1 0 C77.38 1.42, 85.32 9.77, 85.26 19.16 C82.82 30.89, 86.02 38.67, 85.26 57.48 C85.92 72.96, 75.88 76.99, 66.1 76.64 C54.35 73.88, 41.99 73.44, 19.16 76.64 C8.49 78.98, 2.15 66.84, 0 57.48 C-2.04 41.14, -0.07 32.48, 0 19.16 C-1.29 6.14, 3.22 -0.88, 19.16 0" stroke="none" stroke-width="0" fill="#7950f2"></path><path d="M19.16 0 C37.78 0.79, 54.02 1.1, 66.1 0 M19.16 0 C36.64 0.32, 53.64 -0.02, 66.1 0 M66.1 0 C78 0.85, 85.38 8, 85.26 19.16 M66.1 0 C79.21 -0.58, 87.51 4.55, 85.26 19.16 M85.26 19.16 C84.54 27.36, 84.79 36.39, 85.26 57.48 M85.26 19.16 C86.43 33.86, 85.88 48.49, 85.26 57.48 M85.26 57.48 C85.47 68.51, 77.22 74.92, 66.1 76.64 M85.26 57.48 C84.7 68.64, 81.04 76.85, 66.1 76.64 M66.1 76.64 C53.45 76.63, 39.32 78.38, 19.16 76.64 M66.1 76.64 C50.23 77.74, 36.77 77.82, 19.16 76.64 M19.16 76.64 C6.86 75.96, -0.49 71.31, 0 57.48 M19.16 76.64 C5.97 75.55, 0.5 68.81, 0 57.48 M0 57.48 C-1.75 47, 0.82 35.14, 0 19.16 M0 57.48 C-0.76 49.04, 0.89 40.96, 0 19.16 M0 19.16 C0.11 6.94, 6.34 1.98, 19.16 0 M0 19.16 C0.38 6.61, 8.46 -1.64, 19.16 0" stroke="#1e1e1e" stroke-width="2" fill="none"></path></g><g stroke-linecap="round" transform="translate(10 59.76933318646752) rotate(0 13.974609375 10.47265625)"><path d="M5.24 0 C5.89 2.08, 15.71 -0.12, 22.71 0 C27 1.91, 25.44 2.05, 27.95 5.24 C28.1 6.76, 29.59 9.94, 27.95 15.71 C29.56 20.14, 28.19 22.64, 22.71 20.95 C15.24 18.15, 12.49 24.21, 5.24 20.95 C0.1 21.26, 3.58 21.92, 0 15.71 C-0.83 12.92, 1.46 11.57, 0 5.24 C3.1 1.16, 1.72 0.81, 5.24 0" stroke="none" stroke-width="0" fill="#eaddd7"></path><path d="M5.24 0 C13.63 -0.88, 19.5 0.23, 22.71 0 M5.24 0 C9.71 0.78, 14.35 0.54, 22.71 0 M22.71 0 C27.76 1.47, 28.42 1.06, 27.95 5.24 M22.71 0 C25.64 1.21, 27.53 0.65, 27.95 5.24 M27.95 5.24 C27.69 9.58, 26.93 12.68, 27.95 15.71 M27.95 5.24 C27.86 8.93, 27.56 12.47, 27.95 15.71 M27.95 15.71 C29.49 21.13, 26.31 21.5, 22.71 20.95 M27.95 15.71 C27.9 21.48, 26.59 21.17, 22.71 20.95 M22.71 20.95 C16.63 20.25, 9.09 20.39, 5.24 20.95 M22.71 20.95 C16.66 20.89, 10.73 20.63, 5.24 20.95 M5.24 20.95 C3.69 21.81, -1.73 19.93, 0 15.71 M5.24 20.95 C1.8 20.1, 0.42 20.93, 0 15.71 M0 15.71 C0.38 13.44, 0.07 10.36, 0 5.24 M0 15.71 C0.43 12.9, -0.4 9.68, 0 5.24 M0 5.24 C-0.52 2.79, 0.52 -1.83, 5.24 0 M0 5.24 C-0.16 2.44, 0.92 -0.15, 5.24 0" stroke="#1e1e1e" stroke-width="2" fill="none"></path></g><g stroke-linecap="round" transform="translate(36.888671875 45.73027068646752) rotate(0 25.4296875 23.859375)"><path d="M26.48 -0.83 C31.74 -1.18, 38.03 1.85, 42.1 5.32 C46.17 8.8, 50.01 15.01, 50.89 20 C51.77 24.99, 50.22 31.02, 47.37 35.26 C44.53 39.51, 38.88 43.56, 33.82 45.48 C28.76 47.41, 22.03 48.64, 17.03 46.83 C12.04 45.01, 6.55 39.2, 3.86 34.6 C1.16 29.99, -0.15 24.15, 0.84 19.18 C1.84 14.21, 5.35 7.96, 9.84 4.79 C14.32 1.61, 24.1 0.79, 27.76 0.13 C31.41 -0.54, 31.66 0.55, 31.75 0.81 M23.38 1.64 C28.39 1.04, 34.75 1.81, 39.27 4.18 C43.8 6.55, 48.93 10.98, 50.54 15.84 C52.16 20.7, 51.23 28.38, 48.96 33.35 C46.7 38.32, 41.79 43.6, 36.94 45.66 C32.08 47.73, 24.92 47.21, 19.83 45.72 C14.75 44.24, 9.62 40.56, 6.43 36.77 C3.25 32.99, 0.5 27.75, 0.71 23 C0.91 18.25, 4.15 11.96, 7.66 8.29 C11.17 4.63, 19.1 2.53, 21.76 1.03 C24.42 -0.48, 23.71 -0.9, 23.61 -0.73" stroke="none" stroke-width="0" fill="#eaddd7"></path><path d="M27.1 -0.46 C32.47 -0.79, 39.76 1.96, 43.8 5.68 C47.84 9.4, 50.74 16.6, 51.34 21.86 C51.94 27.11, 50.58 33.09, 47.42 37.2 C44.26 41.3, 37.65 45.07, 32.39 46.47 C27.14 47.87, 20.92 47.54, 15.9 45.59 C10.87 43.65, 4.87 39.32, 2.23 34.8 C-0.41 30.27, -1.25 23.31, 0.05 18.45 C1.36 13.6, 5.17 8.55, 10.05 5.66 C14.93 2.77, 25.4 1.66, 29.35 1.11 C33.31 0.55, 33.81 2.12, 33.76 2.35 M30.43 1.72 C35.83 2.15, 41.22 4.68, 44.62 8.53 C48.02 12.38, 50.67 19.74, 50.82 24.81 C50.97 29.87, 48.7 35.36, 45.53 38.92 C42.35 42.49, 37.11 45.1, 31.76 46.18 C26.41 47.27, 18.54 47.69, 13.44 45.42 C8.33 43.14, 3.22 37.24, 1.12 32.54 C-0.98 27.83, -0.9 22.15, 0.84 17.2 C2.59 12.26, 6.77 5.67, 11.61 2.85 C16.45 0.03, 26.7 0.72, 29.87 0.3 C33.03 -0.12, 30.53 -0.17, 30.61 0.32" stroke="#1e1e1e" stroke-width="2" fill="none"></path></g></svg>