<svg version="1.1" xmlns="http://www.w3.org/2000/svg" viewBox="0 0 108.67877035019364 140.8422378015016" width="108.67877035019364" height="140.8422378015016">
  <!-- svg-source:excalidraw -->
  
  <defs>
    <style class="style-fonts">
      @font-face {
        font-family: "Virgil";
        src: url("https://excalidraw.com/Virgil.woff2");
      }
      @font-face {
        font-family: "Cascadia";
        src: url("https://excalidraw.com/Cascadia.woff2");
      }
      @font-face {
        font-family: "Assistant";
        src: url("https://excalidraw.com/Assistant-Regular.woff2");
      }
    </style>
    
  </defs>
  <g stroke-linecap="round" transform="translate(34.05486505681802 109.06643921733757) rotate(22.461246866865288 19.283203125 7.48828125)"><path d="M3.74 0 C9.43 0.47, 18.98 -2.17, 34.82 0 C37.57 -1.14, 39.53 1.25, 38.57 3.74 C37.62 6.61, 39.12 8.93, 38.57 11.23 C36.1 14.78, 36.65 16.33, 34.82 14.98 C28.19 14.02, 19.82 12.67, 3.74 14.98 C0.61 15.87, -2.52 15.54, 0 11.23 C0.52 7.58, 0.08 5.39, 0 3.74 C-0.06 2.19, 1.46 -2.4, 3.74 0" stroke="none" stroke-width="0" fill="#868e96"></path><path d="M3.74 0 C12.51 0.14, 19.41 0.97, 34.82 0 M3.74 0 C11 -0.39, 17.2 -0.33, 34.82 0 M34.82 0 C36.84 0.8, 39.05 1.49, 38.57 3.74 M34.82 0 C38.45 0.14, 39.06 1.45, 38.57 3.74 M38.57 3.74 C38.21 5.98, 38.27 8.74, 38.57 11.23 M38.57 3.74 C38.46 6.11, 38.58 8.33, 38.57 11.23 M38.57 11.23 C39.56 13.94, 36.82 15.91, 34.82 14.98 M38.57 11.23 C37.63 14.48, 38.21 15.82, 34.82 14.98 M34.82 14.98 C25.29 14.76, 14.23 15.16, 3.74 14.98 M34.82 14.98 C27.92 14.49, 20.42 15.14, 3.74 14.98 M3.74 14.98 C1.9 14.26, -0.3 14.03, 0 11.23 M3.74 14.98 C0.24 15.32, 0.88 14.84, 0 11.23 M0 11.23 C0.36 9.01, 0.03 6.99, 0 3.74 M0 11.23 C-0.08 9.52, -0.07 7.93, 0 3.74 M0 3.74 C-0.41 0.83, 1.64 0.02, 3.74 0 M0 3.74 C1.08 0.92, 2.36 0.5, 3.74 0" stroke="#1e1e1e" stroke-width="2" fill="none"></path></g><g stroke-linecap="round" transform="translate(33.868992660985896 16.919422171883525) rotate(22.923355211056883 19.283203125 7.48828125)"><path d="M3.74 0 C15.09 -2.24, 22.79 -1.22, 34.82 0 C38.28 0.01, 38.76 -0.75, 38.57 3.74 C39.11 6.56, 37.56 8.6, 38.57 11.23 C37.89 15.08, 35.72 12.59, 34.82 14.98 C25.54 12.55, 15.96 15.73, 3.74 14.98 C-1.27 16.79, 2.53 13.72, 0 11.23 C0.03 8.93, -0.08 6.76, 0 3.74 C0.21 -1.15, 3.52 -2.5, 3.74 0" stroke="none" stroke-width="0" fill="#868e96"></path><path d="M3.74 0 C12.99 0.96, 21.95 -0.65, 34.82 0 M3.74 0 C15.44 -0.12, 27.34 0.48, 34.82 0 M34.82 0 C37.8 0.24, 39.55 1.37, 38.57 3.74 M34.82 0 C37.82 0.2, 38.68 0.24, 38.57 3.74 M38.57 3.74 C38.27 5.72, 38.57 6.93, 38.57 11.23 M38.57 3.74 C38.57 6.6, 38.73 9.56, 38.57 11.23 M38.57 11.23 C38.06 14.66, 36.5 15.63, 34.82 14.98 M38.57 11.23 C39.46 14.57, 37.59 14.58, 34.82 14.98 M34.82 14.98 C25.78 15.17, 17.06 15.03, 3.74 14.98 M34.82 14.98 C26.4 15.02, 17.64 14.48, 3.74 14.98 M3.74 14.98 C0.94 15.28, -0.88 14.03, 0 11.23 M3.74 14.98 C2.13 16.09, 0.06 14.05, 0 11.23 M0 11.23 C0 9.34, -0.3 6.83, 0 3.74 M0 11.23 C-0.05 8.8, -0.06 6.03, 0 3.74 M0 3.74 C0.39 1.26, 2.19 -0.28, 3.74 0 M0 3.74 C1.12 1.75, 0.26 0.42, 3.74 0" stroke="#1e1e1e" stroke-width="2" fill="none"></path></g><g stroke-linecap="round" transform="translate(10 32.545724255215646) rotate(0 42.630859375 38.322265625)"><path d="M19.16 0 C34.45 -0.88, 50.38 0.71, 66.1 0 C79.14 -2.77, 85.18 3.18, 85.26 19.16 C82.3 34.35, 84.78 48.5, 85.26 57.48 C83.05 66.96, 78.63 77.73, 66.1 76.64 C52.81 77.15, 37.8 78.41, 19.16 76.64 C9.89 76.63, 0.79 72.17, 0 57.48 C-0.15 49.97, 0.24 36.51, 0 19.16 C3.15 2.92, 8 0.94, 19.16 0" stroke="none" stroke-width="0" fill="#7950f2"></path><path d="M19.16 0 C32.32 -1.72, 50.35 1.19, 66.1 0 M19.16 0 C30.31 0.99, 42.9 0.42, 66.1 0 M66.1 0 C80.84 0.24, 86.13 6.74, 85.26 19.16 M66.1 0 C79.11 -2.01, 83.36 4.4, 85.26 19.16 M85.26 19.16 C85.17 29.35, 86.71 39.25, 85.26 57.48 M85.26 19.16 C86.3 31.92, 84.8 45.19, 85.26 57.48 M85.26 57.48 C83.63 71.57, 80.43 78.11, 66.1 76.64 M85.26 57.48 C85.8 69.47, 78.31 77.86, 66.1 76.64 M66.1 76.64 C51.61 76.92, 39.27 78.61, 19.16 76.64 M66.1 76.64 C56.94 76.1, 46.17 77.13, 19.16 76.64 M19.16 76.64 C4.63 77.25, 1.54 72.19, 0 57.48 M19.16 76.64 C6.51 77.28, -0.05 72.54, 0 57.48 M0 57.48 C-1.47 45.64, 0.8 32.39, 0 19.16 M0 57.48 C-0.28 45.55, 0.52 34.46, 0 19.16 M0 19.16 C1.88 5.82, 8.33 0.87, 19.16 0 M0 19.16 C-1.99 7.22, 6.44 -0.85, 19.16 0" stroke="#1e1e1e" stroke-width="2" fill="none"></path></g><g stroke-linecap="round" transform="translate(67.54317783943225 30.81458684460722) rotate(312.47556431009303 13.974609375 10.47265625)"><path d="M5.24 0 C12.88 -0.51, 19.63 -1.64, 22.71 0 C22.9 -0.24, 29.03 0.46, 27.95 5.24 C28.43 6.48, 29.1 13.21, 27.95 15.71 C27.94 19.99, 28.11 18.44, 22.71 20.95 C18.47 21.2, 9.03 23.69, 5.24 20.95 C-1.72 22.56, 0.94 21.18, 0 15.71 C1.61 10.34, -1.75 7.8, 0 5.24 C3.44 0.1, 2.06 3.58, 5.24 0" stroke="none" stroke-width="0" fill="#eaddd7"></path><path d="M5.24 0 C11.53 0.59, 17.71 0.01, 22.71 0 M5.24 0 C8.74 -0.47, 13.5 0.23, 22.71 0 M22.71 0 C25.83 1.71, 26.91 2.3, 27.95 5.24 M22.71 0 C26.47 -0.43, 30.23 2.22, 27.95 5.24 M27.95 5.24 C28.73 8.67, 28.82 10.72, 27.95 15.71 M27.95 5.24 C27.83 7.77, 28.04 10.48, 27.95 15.71 M27.95 15.71 C28.12 18.83, 28.07 19.13, 22.71 20.95 M27.95 15.71 C29.49 20.07, 27.7 19.29, 22.71 20.95 M22.71 20.95 C18.53 22.14, 14.97 20.89, 5.24 20.95 M22.71 20.95 C17.13 21.2, 12.04 20.49, 5.24 20.95 M5.24 20.95 C2.04 21.78, -0.82 19.21, 0 15.71 M5.24 20.95 C0.98 22.47, -0.93 18.25, 0 15.71 M0 15.71 C-0.3 13.17, 0.45 7.69, 0 5.24 M0 15.71 C0.09 12.58, -0.44 8.71, 0 5.24 M0 5.24 C-0.88 2.48, 1.75 0.15, 5.24 0 M0 5.24 C-1.77 1.69, -0.31 1.34, 5.24 0" stroke="#1e1e1e" stroke-width="2" fill="none"></path></g><g stroke-linecap="round" transform="translate(29.71435054117319 45.26837942211296) rotate(312.47556431009303 25.4296875 23.859375)"><path d="M20.82 0.72 C25.76 -0.16, 33.64 1.55, 38.35 4.24 C43.07 6.93, 47.23 12.35, 49.12 16.86 C51.01 21.38, 51.48 26.72, 49.68 31.35 C47.88 35.98, 43.19 41.96, 38.32 44.65 C33.44 47.34, 25.72 48.58, 20.43 47.5 C15.13 46.43, 9.95 42.25, 6.56 38.2 C3.17 34.16, 0.11 28.18, 0.1 23.21 C0.08 18.24, 2.43 12.36, 6.46 8.37 C10.5 4.37, 20.85 0.71, 24.31 -0.74 C27.76 -2.2, 27.08 -0.99, 27.19 -0.35 M32.54 1.84 C37.66 2.65, 42.87 5.3, 45.87 9.54 C48.87 13.78, 51.17 21.99, 50.56 27.28 C49.95 32.56, 46.39 37.91, 42.19 41.25 C37.99 44.59, 30.64 47.29, 25.38 47.32 C20.11 47.35, 14.54 44.21, 10.59 41.42 C6.64 38.64, 2.98 35.31, 1.68 30.63 C0.38 25.94, 0.35 18.27, 2.8 13.3 C5.24 8.34, 11.31 2.84, 16.35 0.83 C21.39 -1.19, 30.32 1.02, 33.05 1.23 C35.79 1.43, 32.87 1.94, 32.74 2.06" stroke="none" stroke-width="0" fill="#eaddd7"></path><path d="M25.87 -0.21 C31.08 0.03, 37.9 3.84, 42.05 7.34 C46.2 10.83, 49.82 15.91, 50.75 20.74 C51.68 25.57, 50.56 31.97, 47.63 36.31 C44.7 40.65, 38.55 45.03, 33.17 46.78 C27.78 48.54, 20.36 48.92, 15.33 46.82 C10.3 44.73, 5.28 39.07, 2.99 34.21 C0.7 29.36, 0.28 22.47, 1.57 17.7 C2.87 12.93, 5.67 8.4, 10.76 5.6 C15.85 2.8, 28.03 1.45, 32.12 0.9 C36.2 0.35, 35.41 1.96, 35.28 2.28 M19.55 0.4 C24.68 -1.11, 33.08 -1.3, 38.11 1.11 C43.14 3.52, 47.61 10.12, 49.73 14.85 C51.84 19.58, 52.59 24.6, 50.81 29.49 C49.04 34.38, 43.99 41.08, 39.07 44.17 C34.15 47.26, 26.45 48.42, 21.3 48.03 C16.16 47.63, 11.72 45.49, 8.19 41.78 C4.66 38.08, 0.68 30.9, 0.13 25.8 C-0.41 20.71, 1.66 15.38, 4.91 11.21 C8.17 7.05, 17.01 2.68, 19.67 0.82 C22.33 -1.04, 20.8 -0.4, 20.89 0.07" stroke="#1e1e1e" stroke-width="2" fill="none"></path></g></svg>