<svg version="1.1" xmlns="http://www.w3.org/2000/svg" viewBox="0 0 107.08836856447851 140.84223780150387" width="107.08836856447851" height="140.84223780150387">
  <!-- svg-source:excalidraw -->
  
  <defs>
    <style class="style-fonts">
      @font-face {
        font-family: "Virgil";
        src: url("https://excalidraw.com/Virgil.woff2");
      }
      @font-face {
        font-family: "Cascadia";
        src: url("https://excalidraw.com/Cascadia.woff2");
      }
      @font-face {
        font-family: "Assistant";
        src: url("https://excalidraw.com/Assistant-Regular.woff2");
      }
    </style>
    
  </defs>
  <g stroke-linecap="round" transform="translate(34.4670972576605 109.0664392173394) rotate(337.5387531331347 19.283203125 7.48828125)"><path d="M3.74 0 C12.08 -1.11, 17.31 -1.85, 34.82 0 C36.63 -1.19, 36.08 0.8, 38.57 3.74 C39.25 6.08, 37.64 7.25, 38.57 11.23 C38.89 11.64, 35.73 16.5, 34.82 14.98 C30.08 13.55, 23.49 13.23, 3.74 14.98 C3.79 16.55, 2.1 16.06, 0 11.23 C-0.3 9, -0.69 7.17, 0 3.74 C-1.88 0.3, 1.11 1.11, 3.74 0" stroke="none" stroke-width="0" fill="#868e96"></path><path d="M3.74 0 C15.27 -0.42, 29.09 -0.21, 34.82 0 M3.74 0 C10.8 -0.22, 17.83 0.26, 34.82 0 M34.82 0 C36.73 0.87, 38.28 2.13, 38.57 3.74 M34.82 0 C36.72 -0.1, 38.49 0.87, 38.57 3.74 M38.57 3.74 C38.7 6.13, 38.56 7.54, 38.57 11.23 M38.57 3.74 C38.66 5.89, 38.43 7.89, 38.57 11.23 M38.57 11.23 C38.62 12.78, 37.63 14.18, 34.82 14.98 M38.57 11.23 C39.02 14.66, 36.62 14.03, 34.82 14.98 M34.82 14.98 C25.04 14.04, 15.48 14.3, 3.74 14.98 M34.82 14.98 C27.95 15.22, 21.18 15.1, 3.74 14.98 M3.74 14.98 C0.57 15.33, 0.81 13.31, 0 11.23 M3.74 14.98 C2.28 15.86, -0.77 14.33, 0 11.23 M0 11.23 C0.29 8.44, 0.15 5.35, 0 3.74 M0 11.23 C-0.05 8.19, 0.02 5.62, 0 3.74 M0 3.74 C0.88 1.76, 0.63 0.07, 3.74 0 M0 3.74 C-0.84 1.31, 2.07 -1.01, 3.74 0" stroke="#1e1e1e" stroke-width="2" fill="none"></path></g><g stroke-linecap="round" transform="translate(34.65296965349444 16.919422171883525) rotate(337.0766447889431 19.283203125 7.48828125)"><path d="M3.74 0 C13.24 -1.53, 24.34 -1.04, 34.82 0 C34.83 -0.45, 36.84 2.6, 38.57 3.74 C37.66 5.72, 38.75 6.91, 38.57 11.23 C36.98 15.25, 34.76 15.19, 34.82 14.98 C29.53 13.43, 24.39 16.38, 3.74 14.98 C3.35 17.31, -1.33 14.44, 0 11.23 C-0.63 8.74, -0.68 6.58, 0 3.74 C-0.14 2.36, 3.53 -1.13, 3.74 0" stroke="none" stroke-width="0" fill="#868e96"></path><path d="M3.74 0 C15.74 -0.06, 25.65 -0.59, 34.82 0 M3.74 0 C13.71 0.34, 22.6 0.5, 34.82 0 M34.82 0 C37.04 0.89, 38.05 1.16, 38.57 3.74 M34.82 0 C37.24 -0.37, 38.29 2.17, 38.57 3.74 M38.57 3.74 C38.54 5.78, 38.51 8.41, 38.57 11.23 M38.57 3.74 C38.46 6.57, 38.59 9.37, 38.57 11.23 M38.57 11.23 C38.87 12.94, 37.71 15.79, 34.82 14.98 M38.57 11.23 C37.86 12.78, 37.55 14.6, 34.82 14.98 M34.82 14.98 C27.38 14.23, 17.98 15.64, 3.74 14.98 M34.82 14.98 C24.65 15.12, 14.32 15.21, 3.74 14.98 M3.74 14.98 C2.06 14.56, 0.9 14.5, 0 11.23 M3.74 14.98 C0.48 15.58, 1.14 13.36, 0 11.23 M0 11.23 C0.11 8.36, 0.28 5.28, 0 3.74 M0 11.23 C0.02 8.79, 0.18 6.2, 0 3.74 M0 3.74 C-0.62 1.32, 0.52 0.05, 3.74 0 M0 3.74 C0.82 0.23, 0.52 -0.83, 3.74 0" stroke="#1e1e1e" stroke-width="2" fill="none"></path></g><g stroke-linecap="round" transform="translate(11.826649814478515 32.545724255215646) rotate(0 42.630859375 38.322265625)"><path d="M19.16 0 C30.59 -1.1, 40.49 -0.08, 66.1 0 C76.49 1.88, 83.95 8.74, 85.26 19.16 C85.02 30.07, 82.38 48.85, 85.26 57.48 C81.72 70.55, 75.59 78.76, 66.1 76.64 C57.44 78.37, 44.65 79.43, 19.16 76.64 C4.54 77.64, -0.47 69.26, 0 57.48 C-2.13 46.13, 0.28 38.96, 0 19.16 C3.16 4.83, 9.38 -0.96, 19.16 0" stroke="none" stroke-width="0" fill="#a18072"></path><path d="M19.16 0 C30.16 -1.24, 44.51 0.91, 66.1 0 M19.16 0 C30.68 0.61, 43.09 0.63, 66.1 0 M66.1 0 C77.84 -0.18, 85.12 5.73, 85.26 19.16 M66.1 0 C78.32 1.84, 85.62 7.02, 85.26 19.16 M85.26 19.16 C84.87 33.58, 86.98 49.67, 85.26 57.48 M85.26 19.16 C85.04 30.43, 85.3 42.82, 85.26 57.48 M85.26 57.48 C86.04 71.88, 77.65 74.99, 66.1 76.64 M85.26 57.48 C85.73 69.5, 77.9 77.05, 66.1 76.64 M66.1 76.64 C54.46 77.96, 46.59 75.97, 19.16 76.64 M66.1 76.64 C49.43 77.07, 34.93 76.31, 19.16 76.64 M19.16 76.64 C8.19 78.18, -1.34 71.3, 0 57.48 M19.16 76.64 C8.66 75.91, 2.19 71.99, 0 57.48 M0 57.48 C1.51 43.82, 0.7 29.91, 0 19.16 M0 57.48 C0.85 50.12, -0.65 41.8, 0 19.16 M0 19.16 C-1.46 6.5, 7.81 -1.76, 19.16 0 M0 19.16 C-1.46 4.72, 7.36 0.87, 19.16 0" stroke="#1e1e1e" stroke-width="2" fill="none"></path></g><g stroke-linecap="round" transform="translate(13.186373760761853 87.12363309975717) rotate(312.47556431009303 13.974609375 10.47265625)"><path d="M5.24 0 C12.84 2.07, 16.85 2.99, 22.71 0 C24.36 0.99, 27.48 0.75, 27.95 5.24 C26.46 7.29, 27.72 11.52, 27.95 15.71 C31.11 17.64, 29.2 19.99, 22.71 20.95 C14.07 19.11, 9.78 22.69, 5.24 20.95 C3.28 20.52, 2.39 19.75, 0 15.71 C-0.66 11.12, 1.12 10.23, 0 5.24 C-3.6 4.28, -1.16 -1.33, 5.24 0" stroke="none" stroke-width="0" fill="#d0bfff"></path><path d="M5.24 0 C11.64 -0.13, 20.21 1.06, 22.71 0 M5.24 0 C10.85 -0.76, 16.66 -0.62, 22.71 0 M22.71 0 C26.99 1.62, 26.73 0.09, 27.95 5.24 M22.71 0 C26.67 -0.76, 26.98 2.16, 27.95 5.24 M27.95 5.24 C27.15 8.31, 28.27 9.5, 27.95 15.71 M27.95 5.24 C27.58 8.99, 28.36 12.16, 27.95 15.71 M27.95 15.71 C29.75 20.73, 24.86 21.99, 22.71 20.95 M27.95 15.71 C30.22 18.47, 28.4 22.68, 22.71 20.95 M22.71 20.95 C18.01 20.83, 11.15 20.46, 5.24 20.95 M22.71 20.95 C19.89 21.51, 14.99 21.12, 5.24 20.95 M5.24 20.95 C0.29 21.05, 1.43 17.43, 0 15.71 M5.24 20.95 C0.29 19.28, 0.98 20.07, 0 15.71 M0 15.71 C-0.23 12.47, -0.96 10, 0 5.24 M0 15.71 C0.29 13.57, -0.58 10.82, 0 5.24 M0 5.24 C0.25 0.14, 0.53 1.17, 5.24 0 M0 5.24 C-2.26 1.93, -0.35 1.35, 5.24 0" stroke="#1e1e1e" stroke-width="2" fill="none"></path></g><g stroke-linecap="round" transform="translate(28.10504480902091 45.896403022249615) rotate(312.47556431009303 25.4296875 23.859375)"><path d="M17.89 0.82 C22.76 -1.16, 29.51 -0.82, 34.46 1.07 C39.41 2.96, 45.11 7.56, 47.59 12.15 C50.07 16.74, 50.55 23.43, 49.36 28.59 C48.17 33.76, 44.66 39.85, 40.47 43.15 C36.28 46.44, 29.47 48.78, 24.24 48.36 C19 47.94, 13.05 44.13, 9.06 40.63 C5.06 37.13, 1.26 32.36, 0.26 27.36 C-0.75 22.36, -0.15 15.24, 3.03 10.66 C6.21 6.07, 16.49 1.61, 19.36 -0.15 C22.22 -1.91, 20.12 -0.39, 20.24 0.09 M32.14 1.84 C37.61 2.28, 43.95 4.94, 47.14 8.79 C50.32 12.65, 51.83 19.85, 51.23 24.99 C50.64 30.13, 47.52 35.94, 43.56 39.61 C39.59 43.29, 32.95 46.42, 27.43 47.03 C21.91 47.64, 14.83 45.88, 10.43 43.28 C6.02 40.67, 2.18 36.31, 1.01 31.4 C-0.17 26.49, 1 18.69, 3.37 13.82 C5.74 8.94, 10.36 4.31, 15.21 2.17 C20.06 0.02, 29.78 1.28, 32.47 0.95 C35.16 0.62, 31.79 -0.21, 31.33 0.16" stroke="none" stroke-width="0" fill="#d0bfff"></path><path d="M31.49 0.84 C36.39 1.95, 42.16 6.17, 45.25 10.4 C48.33 14.63, 50.14 21.29, 49.98 26.23 C49.82 31.17, 48.14 36.45, 44.3 40.05 C40.46 43.65, 32.54 47.32, 26.93 47.82 C21.31 48.32, 14.91 46.13, 10.6 43.04 C6.29 39.95, 2.35 34.23, 1.07 29.26 C-0.21 24.3, 0.8 17.62, 2.91 13.25 C5.03 8.89, 8.04 4.88, 13.77 3.08 C19.49 1.27, 32.6 2, 37.25 2.42 C41.9 2.85, 41.87 5.35, 41.66 5.62 M31.21 1.51 C35.99 2.29, 40.39 5.67, 43.91 9.31 C47.43 12.96, 51.94 18.22, 52.34 23.39 C52.75 28.56, 49.95 36.24, 46.33 40.33 C42.71 44.42, 36.16 47.03, 30.62 47.93 C25.07 48.83, 17.92 48.3, 13.05 45.76 C8.18 43.21, 3.39 37.89, 1.4 32.65 C-0.59 27.4, -0.82 19.03, 1.09 14.27 C2.99 9.52, 7.82 6.32, 12.83 4.13 C17.84 1.94, 28.5 1.67, 31.17 1.14 C33.84 0.61, 29.31 0.67, 28.84 0.94" stroke="#1e1e1e" stroke-width="2" fill="none"></path></g></svg>