<svg version="1.1" xmlns="http://www.w3.org/2000/svg" viewBox="0 0 105.26171875000045 140.84223780150023" width="105.26171875000045" height="140.84223780150023">
  <!-- svg-source:excalidraw -->
  
  <defs>
    <style class="style-fonts">
      @font-face {
        font-family: "Virgil";
        src: url("https://excalidraw.com/Virgil.woff2");
      }
      @font-face {
        font-family: "Cascadia";
        src: url("https://excalidraw.com/Cascadia.woff2");
      }
      @font-face {
        font-family: "Assistant";
        src: url("https://excalidraw.com/Assistant-Regular.woff2");
      }
    </style>
    
  </defs>
  <g stroke-linecap="round" transform="translate(32.64044744318153 109.06643921733576) rotate(337.5387531331347 19.283203125 7.48828125)"><path d="M3.74 0 C8.58 -0.26, 16.65 1.54, 34.82 0 C36.37 1.7, 40.12 -1.35, 38.57 3.74 C37.99 6.56, 37.62 8.32, 38.57 11.23 C36.19 15.26, 36.26 16.17, 34.82 14.98 C29.26 17.55, 18.15 15.94, 3.74 14.98 C0.91 14.26, -1 11.97, 0 11.23 C0.02 9.66, 0.93 6.84, 0 3.74 C2.16 0.56, 3.39 0.56, 3.74 0" stroke="none" stroke-width="0" fill="#868e96"></path><path d="M3.74 0 C12.81 0.53, 21.3 0.88, 34.82 0 M3.74 0 C14.64 0.31, 25.56 -0.18, 34.82 0 M34.82 0 C37.25 -0.33, 38.32 2.05, 38.57 3.74 M34.82 0 C37.5 0.32, 39.54 1.15, 38.57 3.74 M38.57 3.74 C38.89 5.52, 38.63 6.65, 38.57 11.23 M38.57 3.74 C38.63 5.53, 38.64 7.77, 38.57 11.23 M38.57 11.23 C37.96 12.9, 37.52 14.65, 34.82 14.98 M38.57 11.23 C38.08 13.93, 36.32 15.64, 34.82 14.98 M34.82 14.98 C27.66 14.91, 20.41 14.93, 3.74 14.98 M34.82 14.98 C25.39 14.82, 15.6 15.41, 3.74 14.98 M3.74 14.98 C0.58 15.5, 0.99 13.41, 0 11.23 M3.74 14.98 C2.34 15.84, 0.6 14.17, 0 11.23 M0 11.23 C0.13 8.7, -0.38 6.42, 0 3.74 M0 11.23 C-0.15 8.53, -0.17 5.81, 0 3.74 M0 3.74 C0.71 0.37, 0.61 -0.72, 3.74 0 M0 3.74 C0.49 1.68, 0.83 -0.51, 3.74 0" stroke="#1e1e1e" stroke-width="2" fill="none"></path></g><g stroke-linecap="round" transform="translate(32.82631983901365 16.919422171883525) rotate(337.0766447889431 19.283203125 7.48828125)"><path d="M3.74 0 C9.92 1.42, 18.6 1.77, 34.82 0 C38.87 -2.6, 38.57 1.57, 38.57 3.74 C37.55 5.47, 37.62 7.61, 38.57 11.23 C37.51 14.93, 35.94 17.52, 34.82 14.98 C22.29 16.05, 12.08 14.62, 3.74 14.98 C0.25 13.22, -0.91 11.85, 0 11.23 C0.86 8.84, 0.82 7.03, 0 3.74 C2.14 1.81, 1.63 -1.62, 3.74 0" stroke="none" stroke-width="0" fill="#868e96"></path><path d="M3.74 0 C10.65 0.71, 18.94 -0.65, 34.82 0 M3.74 0 C15.51 -0.18, 27.76 -0.3, 34.82 0 M34.82 0 C37.08 0.8, 38.72 1.52, 38.57 3.74 M34.82 0 C38.29 -0.1, 37.55 1.04, 38.57 3.74 M38.57 3.74 C38.67 5.61, 38.44 8.01, 38.57 11.23 M38.57 3.74 C38.65 5.43, 38.46 6.65, 38.57 11.23 M38.57 11.23 C38.77 13.4, 36.9 15.15, 34.82 14.98 M38.57 11.23 C37.57 14.39, 36.61 14.03, 34.82 14.98 M34.82 14.98 C23.42 14.77, 11.36 14.27, 3.74 14.98 M34.82 14.98 C24.86 15.3, 13.67 15.17, 3.74 14.98 M3.74 14.98 C2.24 14.66, 0.95 14.48, 0 11.23 M3.74 14.98 C1.85 15.42, 0.27 14.68, 0 11.23 M0 11.23 C-0.37 9.08, 0.22 7.2, 0 3.74 M0 11.23 C-0.11 8.61, 0.16 5.8, 0 3.74 M0 3.74 C-0.63 0.53, 1.67 0.38, 3.74 0 M0 3.74 C-0.42 0.74, 0.51 -0.31, 3.74 0" stroke="#1e1e1e" stroke-width="2" fill="none"></path></g><g stroke-linecap="round" transform="translate(10 32.545724255215646) rotate(0 42.63085937500023 38.322265625)"><path d="M19.16 0 C31.12 1.91, 47.86 -4.04, 66.1 0 C78.88 0.44, 82.38 4.19, 85.26 19.16 C81.3 35.02, 83.12 48.31, 85.26 57.48 C83.35 73.78, 81.05 79.56, 66.1 76.64 C47.34 75.88, 28.13 74.44, 19.16 76.64 C5.13 74.05, -1.32 70.07, 0 57.48 C2.39 43.39, 2.36 31.99, 0 19.16 C0.53 4.14, 4.23 0.49, 19.16 0" stroke="none" stroke-width="0" fill="#a18072"></path><path d="M19.16 0 C36.36 -1.54, 53.09 -0.93, 66.1 0 M19.16 0 C37.33 -0.28, 55.39 0.84, 66.1 0 M66.1 0 C79.19 0.55, 86.96 6.21, 85.26 19.16 M66.1 0 C76.84 -0.42, 84.89 8.4, 85.26 19.16 M85.26 19.16 C84.5 32.73, 83.43 46.72, 85.26 57.48 M85.26 19.16 C84.8 26.8, 85.62 35.75, 85.26 57.48 M85.26 57.48 C84.42 70.61, 77.14 77.79, 66.1 76.64 M85.26 57.48 C83.85 68.37, 80.72 77.21, 66.1 76.64 M66.1 76.64 C53.26 75.21, 40.46 78.18, 19.16 76.64 M66.1 76.64 C53.29 77.53, 42.81 76.69, 19.16 76.64 M19.16 76.64 C8.29 78.15, 1.04 71.02, 0 57.48 M19.16 76.64 C6.92 78.55, -0.2 71.23, 0 57.48 M0 57.48 C1.61 48.89, 1.4 35.55, 0 19.16 M0 57.48 C0.99 44.83, -0.35 33.21, 0 19.16 M0 19.16 C0.85 7.14, 5.66 -0.88, 19.16 0 M0 19.16 C-1.49 5.78, 5.33 -2.2, 19.16 0" stroke="#1e1e1e" stroke-width="2" fill="none"></path></g><g stroke-linecap="round" transform="translate(38.66281968831163 96.89204723666717) rotate(269.315648468081 13.974609375 10.47265625)"><path d="M5.24 0 C10.61 -0.99, 13.73 -1.39, 22.71 0 C29.72 2.17, 30.86 4.98, 27.95 5.24 C27.48 7.12, 26.73 9.79, 27.95 15.71 C25.35 17.88, 26.02 22.48, 22.71 20.95 C15.1 23.8, 9.83 21.67, 5.24 20.95 C-0.5 18.79, 0.49 21.14, 0 15.71 C0.31 12.53, -0.89 10.21, 0 5.24 C-1.43 -0.57, 3.71 2.41, 5.24 0" stroke="none" stroke-width="0" fill="#d0bfff"></path><path d="M5.24 0 C10.54 1.45, 14.72 -1.57, 22.71 0 M5.24 0 C10.61 0.01, 14.48 -0.52, 22.71 0 M22.71 0 C26.3 -1.91, 28.56 0.16, 27.95 5.24 M22.71 0 C27.1 1.86, 26.55 -0.15, 27.95 5.24 M27.95 5.24 C28.1 7.68, 28.52 11.3, 27.95 15.71 M27.95 5.24 C27.93 7.73, 27.94 9.89, 27.95 15.71 M27.95 15.71 C26.6 19.9, 27.82 20.12, 22.71 20.95 M27.95 15.71 C30.02 20.96, 24.66 22.14, 22.71 20.95 M22.71 20.95 C17.06 22.02, 9.44 21.52, 5.24 20.95 M22.71 20.95 C15.76 20.19, 9.4 21.56, 5.24 20.95 M5.24 20.95 C3.5 21.98, -1.24 19.34, 0 15.71 M5.24 20.95 C0.07 21.07, 1.64 17.17, 0 15.71 M0 15.71 C0.47 12.85, -0.38 10.08, 0 5.24 M0 15.71 C-0.04 12.5, 0.32 9.79, 0 5.24 M0 5.24 C1.31 2.94, -0.25 0.01, 5.24 0 M0 5.24 C0.28 -0.1, 0.34 1.35, 5.24 0" stroke="#1e1e1e" stroke-width="2" fill="none"></path></g><g stroke-linecap="round" transform="translate(27.402064732140843 45.15652205235256) rotate(269.315648468081 25.4296875 23.859375)"><path d="M15.49 0.93 C20.08 -1.13, 27.68 0.02, 33.04 1.74 C38.4 3.46, 44.79 7.04, 47.63 11.25 C50.48 15.46, 51.07 21.97, 50.1 27 C49.13 32.03, 46.01 38.02, 41.81 41.44 C37.6 44.87, 30.38 47.3, 24.86 47.54 C19.35 47.78, 12.85 45.98, 8.72 42.89 C4.59 39.8, 0.91 34.29, 0.09 29.01 C-0.73 23.74, 0.65 15.94, 3.81 11.25 C6.98 6.56, 16.2 2.74, 19.09 0.88 C21.98 -0.98, 20.96 -0.11, 21.16 0.1 M25.87 0.71 C31.15 0.7, 37.49 4.16, 41.77 7.69 C46.04 11.23, 50.46 17.21, 51.54 21.9 C52.62 26.59, 51.26 31.78, 48.26 35.86 C45.26 39.94, 39.04 44.82, 33.55 46.4 C28.06 47.98, 20.62 47.35, 15.34 45.35 C10.06 43.35, 4.53 38.93, 1.89 34.41 C-0.75 29.88, -1.82 23, -0.49 18.2 C0.83 13.4, 5.11 8.75, 9.82 5.61 C14.54 2.47, 24.81 0.29, 27.79 -0.63 C30.77 -1.55, 27.73 -0.46, 27.7 0.1" stroke="none" stroke-width="0" fill="#d0bfff"></path><path d="M15.41 2.81 C20.01 0.37, 26.99 -1.13, 32.05 0.08 C37.1 1.29, 42.79 5.76, 45.75 10.1 C48.72 14.44, 50.33 20.95, 49.82 26.1 C49.32 31.25, 46.27 37.53, 42.73 41.02 C39.2 44.5, 34.05 46.56, 28.61 47 C23.18 47.45, 14.82 46.57, 10.15 43.69 C5.48 40.82, 1.85 34.87, 0.58 29.76 C-0.7 24.65, -0.61 17.96, 2.49 13.04 C5.59 8.13, 15.91 2.2, 19.18 0.26 C22.45 -1.68, 22.04 0.94, 22.1 1.4 M29.55 1.02 C34.93 1.55, 42.81 4.32, 46.59 8.44 C50.36 12.55, 52.73 20.35, 52.2 25.7 C51.67 31.04, 47.02 36.95, 43.42 40.5 C39.83 44.05, 35.59 46.19, 30.6 46.99 C25.62 47.79, 18.27 47.81, 13.51 45.3 C8.76 42.79, 3.97 36.78, 2.07 31.94 C0.18 27.11, 0.28 21.04, 2.14 16.3 C4 11.55, 8.56 6.37, 13.22 3.5 C17.89 0.62, 27.23 -0.66, 30.12 -0.93 C33.01 -1.19, 30.36 1.14, 30.57 1.9" stroke="#1e1e1e" stroke-width="2" fill="none"></path></g></svg>