<svg version="1.1" xmlns="http://www.w3.org/2000/svg" viewBox="0 0 106.89305606447624 140.84223780150023" width="106.89305606447624" height="140.84223780150023">
  <!-- svg-source:excalidraw -->
  
  <defs>
    <style class="style-fonts">
      @font-face {
        font-family: "Virgil";
        src: url("https://excalidraw.com/Virgil.woff2");
      }
      @font-face {
        font-family: "Cascadia";
        src: url("https://excalidraw.com/Cascadia.woff2");
      }
      @font-face {
        font-family: "Assistant";
        src: url("https://excalidraw.com/Assistant-Regular.woff2");
      }
    </style>
    
  </defs>
  <g stroke-linecap="round" transform="translate(32.64044744318198 109.06643921733576) rotate(337.5387531331347 19.283203125 7.48828125)"><path d="M3.74 0 C16.24 -2.86, 25.64 0.06, 34.82 0 C35.23 -1.58, 40.09 -1.31, 38.57 3.74 C38.08 6.5, 37.96 9.31, 38.57 11.23 C40.14 15.83, 39.65 13.64, 34.82 14.98 C23.65 13.11, 13.56 12.99, 3.74 14.98 C0.3 14.84, 1.11 16.01, 0 11.23 C0.72 9.52, 0.06 6.78, 0 3.74 C-1.55 1.61, 2.65 1.11, 3.74 0" stroke="none" stroke-width="0" fill="#868e96"></path><path d="M3.74 0 C16.35 -0.19, 28.11 -0.43, 34.82 0 M3.74 0 C12.67 0.45, 21.91 0.19, 34.82 0 M34.82 0 C38.17 -0.09, 37.68 1.07, 38.57 3.74 M34.82 0 C37.13 1, 39.16 1.47, 38.57 3.74 M38.57 3.74 C38.19 5.59, 38.25 7.34, 38.57 11.23 M38.57 3.74 C38.58 6.54, 38.46 9.48, 38.57 11.23 M38.57 11.23 C37.7 14.3, 36.7 14.16, 34.82 14.98 M38.57 11.23 C39.49 14.01, 37.1 15.44, 34.82 14.98 M34.82 14.98 C26.38 15.68, 16.83 15.77, 3.74 14.98 M34.82 14.98 C23.61 14.9, 11.88 15.43, 3.74 14.98 M3.74 14.98 C1.77 15.36, 0.23 14.55, 0 11.23 M3.74 14.98 C1.15 15.46, -0.35 12.64, 0 11.23 M0 11.23 C0.17 8.7, 0 6.36, 0 3.74 M0 11.23 C-0.15 8.81, 0.05 6.73, 0 3.74 M0 3.74 C-0.36 0.81, 0.6 -0.27, 3.74 0 M0 3.74 C-0.53 0.15, 1.05 -0.76, 3.74 0" stroke="#1e1e1e" stroke-width="2" fill="none"></path></g><g stroke-linecap="round" transform="translate(32.82631983901592 16.919422171883525) rotate(337.0766447889431 19.283203125 7.48828125)"><path d="M3.74 0 C15.1 0.72, 24.36 -1.18, 34.82 0 C38.84 -2.56, 38.78 -1.13, 38.57 3.74 C38.01 7.38, 39.11 9.91, 38.57 11.23 C40.9 12.39, 38.03 14.64, 34.82 14.98 C25.45 12.83, 16.94 14.57, 3.74 14.98 C2.36 17.26, -1.13 15.89, 0 11.23 C0.06 8.58, -0.66 7.27, 0 3.74 C1.4 2.36, 0.94 1.73, 3.74 0" stroke="none" stroke-width="0" fill="#868e96"></path><path d="M3.74 0 C12.13 -0.47, 18.65 -0.02, 34.82 0 M3.74 0 C12.13 0.01, 20.79 -0.17, 34.82 0 M34.82 0 C36.43 -0.18, 38.4 2.12, 38.57 3.74 M34.82 0 C37.91 0.22, 37.77 0.77, 38.57 3.74 M38.57 3.74 C38.23 6.17, 38.83 8.08, 38.57 11.23 M38.57 3.74 C38.5 5.41, 38.41 7.11, 38.57 11.23 M38.57 11.23 C37.95 12.91, 38.12 15.22, 34.82 14.98 M38.57 11.23 C38.34 14.2, 37.12 15.17, 34.82 14.98 M34.82 14.98 C27.19 16, 21.15 14.43, 3.74 14.98 M34.82 14.98 C24.36 15.3, 13.2 15.12, 3.74 14.98 M3.74 14.98 C1.48 15.8, -0.09 14.15, 0 11.23 M3.74 14.98 C0.9 13.89, 0.08 14.45, 0 11.23 M0 11.23 C0.01 8.06, 0 5.69, 0 3.74 M0 11.23 C0.1 9.72, -0.04 7.98, 0 3.74 M0 3.74 C-0.65 0.98, 0.79 -0.96, 3.74 0 M0 3.74 C-0.2 0.49, 1.85 -0.42, 3.74 0" stroke="#1e1e1e" stroke-width="2" fill="none"></path></g><g stroke-linecap="round" transform="translate(10 32.545724255215646) rotate(0 42.630859375 38.322265625)"><path d="M19.16 0 C25.67 -2.3, 40.05 -3.64, 66.1 0 C79.17 -3.29, 87.38 4.93, 85.26 19.16 C87.07 35.33, 88.13 43.84, 85.26 57.48 C86.25 69.79, 77.88 75.27, 66.1 76.64 C53.88 75.85, 45.83 79.2, 19.16 76.64 C4.83 79.64, -0.96 73.22, 0 57.48 C-2.25 45.66, 1.84 34.39, 0 19.16 C-0.43 8.78, 6.94 0.79, 19.16 0" stroke="none" stroke-width="0" fill="#a18072"></path><path d="M19.16 0 C31.74 0.11, 44.03 -0.24, 66.1 0 M19.16 0 C37.85 -0.22, 53.97 -0.31, 66.1 0 M66.1 0 C78.55 1.75, 86.29 6.77, 85.26 19.16 M66.1 0 C77.28 -0.96, 85.37 4.19, 85.26 19.16 M85.26 19.16 C86.58 30.62, 83.31 44.92, 85.26 57.48 M85.26 19.16 C84.23 29.96, 84.48 38.79, 85.26 57.48 M85.26 57.48 C86.86 70.75, 78.49 77.46, 66.1 76.64 M85.26 57.48 C84.87 70.64, 77.32 77.45, 66.1 76.64 M66.1 76.64 C49.75 75.73, 31.37 79.04, 19.16 76.64 M66.1 76.64 C54.03 77.38, 41.16 77.82, 19.16 76.64 M19.16 76.64 C6.21 77.49, -0.6 68.37, 0 57.48 M19.16 76.64 C6.55 78.08, 2.02 71.45, 0 57.48 M0 57.48 C0.08 49.79, -1.79 37.97, 0 19.16 M0 57.48 C-0.52 48.32, -0.81 39.76, 0 19.16 M0 19.16 C-0.92 4.48, 6.04 -1.33, 19.16 0 M0 19.16 C1.2 5.55, 7.89 1.38, 19.16 0" stroke="#1e1e1e" stroke-width="2" fill="none"></path></g><g stroke-linecap="round" transform="translate(65.75746355371484 88.17832059975353) rotate(47.524435689906944 13.974609375 10.47265625)"><path d="M5.24 0 C12.54 -2.9, 16.41 -2.68, 22.71 0 C28.32 -1.46, 29.61 -0.17, 27.95 5.24 C29.76 8.43, 28.58 13.32, 27.95 15.71 C26.95 17.82, 23.77 19.69, 22.71 20.95 C20.07 23.69, 13.39 23.55, 5.24 20.95 C0.79 23.91, 0.77 19.73, 0 15.71 C1.13 14.03, -0.11 11.98, 0 5.24 C0.55 2.54, 0 3.2, 5.24 0" stroke="none" stroke-width="0" fill="#d0bfff"></path><path d="M5.24 0 C9.01 -0.41, 15.31 0.28, 22.71 0 M5.24 0 C10.19 -0.14, 16.55 0.78, 22.71 0 M22.71 0 C27.23 0.38, 26.56 0.91, 27.95 5.24 M22.71 0 C26.32 -2.19, 28.66 -0.08, 27.95 5.24 M27.95 5.24 C27.17 9, 27.69 11.9, 27.95 15.71 M27.95 5.24 C27.54 8.14, 28.28 12.02, 27.95 15.71 M27.95 15.71 C27.56 20.01, 25.86 21.28, 22.71 20.95 M27.95 15.71 C26.39 20, 28.07 19.99, 22.71 20.95 M22.71 20.95 C16.81 22.55, 8.52 22.49, 5.24 20.95 M22.71 20.95 C16.36 21.73, 9.52 21.38, 5.24 20.95 M5.24 20.95 C1.15 19.06, 0.14 20.45, 0 15.71 M5.24 20.95 C3.77 22.13, -1.42 19.37, 0 15.71 M0 15.71 C-0.93 12.67, -0.76 11.4, 0 5.24 M0 15.71 C-0.3 12.03, -0.2 8.13, 0 5.24 M0 5.24 C-0.35 0.42, 2.79 -0.73, 5.24 0 M0 5.24 C1.5 3.12, -0.55 0.01, 5.24 0" stroke="#1e1e1e" stroke-width="2" fill="none"></path></g><g stroke-linecap="round" transform="translate(27.928636255455785 46.951090522249615) rotate(47.524435689906944 25.4296875 23.859375)"><path d="M36.32 1.54 C41.06 3.55, 46.43 9.9, 48.56 14.55 C50.69 19.21, 50.65 24.58, 49.09 29.47 C47.54 34.35, 43.49 40.9, 39.23 43.87 C34.97 46.83, 28.9 47.9, 23.52 47.26 C18.14 46.62, 10.91 43.68, 6.96 40.04 C3.01 36.39, 0.37 30.43, -0.17 25.41 C-0.72 20.4, 0.61 13.96, 3.69 9.95 C6.76 5.93, 12.13 2.05, 18.26 1.32 C24.38 0.58, 36.01 4.47, 40.46 5.52 C44.91 6.57, 45.13 7.4, 44.93 7.63 M14.04 2.01 C18.6 -0.16, 26.16 0.34, 31.51 1.93 C36.87 3.52, 43.1 7.18, 46.16 11.57 C49.22 15.96, 50.29 23.09, 49.87 28.25 C49.45 33.41, 47.3 39.42, 43.67 42.53 C40.04 45.65, 33.61 46.89, 28.09 46.92 C22.57 46.95, 15.17 45.76, 10.52 42.71 C5.88 39.66, 1.69 33.67, 0.23 28.64 C-1.23 23.6, -0.6 17.04, 1.76 12.49 C4.13 7.94, 12.12 2.93, 14.43 1.34 C16.74 -0.25, 15.07 2.62, 15.63 2.97" stroke="none" stroke-width="0" fill="#d0bfff"></path><path d="M27.32 -0.81 C32.43 -0.91, 39.01 2.86, 43.06 6.67 C47.11 10.48, 51.03 17.08, 51.61 22.07 C52.2 27.07, 49.88 32.53, 46.58 36.67 C43.29 40.8, 37.26 45.36, 31.82 46.9 C26.38 48.43, 18.97 47.94, 13.94 45.88 C8.92 43.82, 3.75 39.3, 1.69 34.53 C-0.36 29.77, 0.26 22.27, 1.62 17.29 C2.97 12.31, 4.75 7.44, 9.83 4.65 C14.91 1.85, 27.55 0.9, 32.1 0.5 C36.64 0.1, 37.07 1.9, 37.11 2.25 M15.01 2.59 C19.38 0.35, 27.3 -0.21, 32.4 1.23 C37.5 2.67, 42.37 7.1, 45.62 11.22 C48.88 15.34, 52.13 20.76, 51.91 25.95 C51.69 31.13, 48.6 38.57, 44.28 42.32 C39.96 46.07, 31.39 48.42, 25.97 48.46 C20.55 48.5, 15.75 45.54, 11.78 42.56 C7.81 39.57, 3.52 35.35, 2.13 30.55 C0.74 25.76, 1.2 18.34, 3.45 13.78 C5.71 9.22, 13.66 5, 15.64 3.22 C17.63 1.43, 15.33 3.13, 15.37 3.05" stroke="#1e1e1e" stroke-width="2" fill="none"></path></g></svg>