<svg version="1.1" xmlns="http://www.w3.org/2000/svg" viewBox="0 0 116.9010881696413 140.84223780150023" width="116.9010881696413" height="140.84223780150023">
  <!-- svg-source:excalidraw -->
  
  <defs>
    <style class="style-fonts">
      @font-face {
        font-family: "Virgil";
        src: url("https://excalidraw.com/Virgil.woff2");
      }
      @font-face {
        font-family: "Cascadia";
        src: url("https://excalidraw.com/Cascadia.woff2");
      }
      @font-face {
        font-family: "Assistant";
        src: url("https://excalidraw.com/Assistant-Regular.woff2");
      }
    </style>
    
  </defs>
  <g stroke-linecap="round" transform="translate(32.64044744318198 109.06643921733576) rotate(337.5387531331347 19.283203125 7.48828125)"><path d="M3.74 0 C13.66 2.2, 19.97 -0.92, 34.82 0 C37.04 2.2, 36.48 1.89, 38.57 3.74 C38.65 5.17, 37.82 6.99, 38.57 11.23 C41.14 14.55, 37.04 17.2, 34.82 14.98 C26.3 16.54, 15.26 17.05, 3.74 14.98 C3.61 14.04, 0.54 14.02, 0 11.23 C0.6 8.23, 0.36 7.81, 0 3.74 C0.43 0.12, 2.29 0.38, 3.74 0" stroke="none" stroke-width="0" fill="#868e96"></path><path d="M3.74 0 C10.41 -0.97, 19.03 -0.9, 34.82 0 M3.74 0 C14.4 -0.24, 26.15 0.04, 34.82 0 M34.82 0 C36.96 0.51, 38.88 2.03, 38.57 3.74 M34.82 0 C36.39 -0.45, 37.49 0.53, 38.57 3.74 M38.57 3.74 C38.6 6.89, 38.54 9.28, 38.57 11.23 M38.57 3.74 C38.51 6.22, 38.51 8.88, 38.57 11.23 M38.57 11.23 C39.31 14.57, 36.99 15.61, 34.82 14.98 M38.57 11.23 C39.18 13.88, 38.28 15.47, 34.82 14.98 M34.82 14.98 C23.24 14.14, 13.12 14.46, 3.74 14.98 M34.82 14.98 C25.55 15.11, 15.79 14.59, 3.74 14.98 M3.74 14.98 C1.63 15.35, -0.2 14.08, 0 11.23 M3.74 14.98 C2.28 14.56, 0.81 13.43, 0 11.23 M0 11.23 C-0.04 9.17, -0.1 6.9, 0 3.74 M0 11.23 C0.02 9.2, -0.15 6.66, 0 3.74 M0 3.74 C0.01 1.85, 1.78 -0.13, 3.74 0 M0 3.74 C0.13 1.71, 0.2 0.97, 3.74 0" stroke="#1e1e1e" stroke-width="2" fill="none"></path></g><g stroke-linecap="round" transform="translate(32.82631983901592 16.919422171883525) rotate(337.0766447889431 19.283203125 7.48828125)"><path d="M3.74 0 C8.69 -1.54, 17.07 1.91, 34.82 0 C35.23 0.64, 36.79 2.74, 38.57 3.74 C37.76 6.45, 39.53 9.92, 38.57 11.23 C38.29 15.95, 36.7 14.52, 34.82 14.98 C20.07 16.84, 12.46 14.22, 3.74 14.98 C1.78 15.26, -0.27 12.19, 0 11.23 C0.25 10.2, 0.11 6.91, 0 3.74 C1.04 1.62, -1.1 -0.37, 3.74 0" stroke="none" stroke-width="0" fill="#868e96"></path><path d="M3.74 0 C15.88 -0.63, 28.66 1.1, 34.82 0 M3.74 0 C14.68 0.16, 24.96 0.31, 34.82 0 M34.82 0 C37.63 0.78, 37.76 0.86, 38.57 3.74 M34.82 0 C36.24 -0.72, 39.47 2.07, 38.57 3.74 M38.57 3.74 C38.51 6.11, 38.75 8.85, 38.57 11.23 M38.57 3.74 C38.48 6.14, 38.69 8.84, 38.57 11.23 M38.57 11.23 C38.24 14.36, 37.85 15.11, 34.82 14.98 M38.57 11.23 C39.53 14.22, 37.91 15.01, 34.82 14.98 M34.82 14.98 C25.68 14.34, 16.26 15.81, 3.74 14.98 M34.82 14.98 C25.66 14.67, 17.32 15.21, 3.74 14.98 M3.74 14.98 C1.05 15.33, 0.9 13.37, 0 11.23 M3.74 14.98 C2.06 14.68, 0.04 13.46, 0 11.23 M0 11.23 C-0.1 8.82, -0.01 6.27, 0 3.74 M0 11.23 C-0.14 8.32, -0.01 5.83, 0 3.74 M0 3.74 C0.53 1.12, 1.36 0.4, 3.74 0 M0 3.74 C-1.05 2.22, 1.14 0.71, 3.74 0" stroke="#1e1e1e" stroke-width="2" fill="none"></path></g><g stroke-linecap="round" transform="translate(10 32.545724255215646) rotate(0 42.630859375 38.322265625)"><path d="M19.16 0 C36.24 3.46, 51.21 1.3, 66.1 0 C76.42 2.07, 88.56 6.48, 85.26 19.16 C88.25 30.56, 84.3 42.77, 85.26 57.48 C84.41 69.63, 82.39 76.74, 66.1 76.64 C53.19 75.89, 34.47 77.59, 19.16 76.64 C6.01 74.51, -1.42 72.27, 0 57.48 C0.39 47.72, 1.22 41.6, 0 19.16 C-3.25 5.88, 7.08 1.47, 19.16 0" stroke="none" stroke-width="0" fill="#a18072"></path><path d="M19.16 0 C30.51 2.3, 40.48 -1.35, 66.1 0 M19.16 0 C31.3 0.41, 44.46 0.68, 66.1 0 M66.1 0 C77.27 -0.78, 83.39 5.14, 85.26 19.16 M66.1 0 C80.67 1.65, 86.02 6.42, 85.26 19.16 M85.26 19.16 C86.16 34.55, 85.8 47.89, 85.26 57.48 M85.26 19.16 C85.86 28.88, 84.79 37.56, 85.26 57.48 M85.26 57.48 C86.33 70.52, 80.54 77.5, 66.1 76.64 M85.26 57.48 C86.45 70.32, 78.85 75.14, 66.1 76.64 M66.1 76.64 C55.96 78.33, 45.46 76.76, 19.16 76.64 M66.1 76.64 C50.96 76.68, 34.87 76.66, 19.16 76.64 M19.16 76.64 C8.18 75.92, 1.42 69.74, 0 57.48 M19.16 76.64 C6.46 76.11, 1.14 69.96, 0 57.48 M0 57.48 C0.01 45.32, 1.48 30.75, 0 19.16 M0 57.48 C0.27 42.95, 0.79 27.1, 0 19.16 M0 19.16 C0.23 7.18, 4.56 1.69, 19.16 0 M0 19.16 C-0.21 7.81, 4.52 0.77, 19.16 0" stroke="#1e1e1e" stroke-width="2" fill="none"></path></g><g stroke-linecap="round" transform="translate(78.9518694196413 59.7693331864657) rotate(0 13.974609375 10.47265625)"><path d="M5.24 0 C9.16 -1.08, 13.86 -1.78, 22.71 0 C24.86 -2.02, 25.16 2.41, 27.95 5.24 C29.13 7.28, 27.74 12.66, 27.95 15.71 C28.25 22.76, 23.16 21.16, 22.71 20.95 C20.53 23.25, 16.47 22.68, 5.24 20.95 C2.19 21.63, 2.05 16.28, 0 15.71 C-1.97 11.28, -1.68 8.27, 0 5.24 C1.7 -1.03, 0.87 -2.51, 5.24 0" stroke="none" stroke-width="0" fill="#d0bfff"></path><path d="M5.24 0 C10.71 -0.75, 15.7 1.83, 22.71 0 M5.24 0 C9.65 -0.68, 15.51 0.27, 22.71 0 M22.71 0 C25.8 0.71, 29.75 1.02, 27.95 5.24 M22.71 0 C27.83 -0.6, 28.03 1.21, 27.95 5.24 M27.95 5.24 C27.64 9.49, 27.88 13.34, 27.95 15.71 M27.95 5.24 C27.62 8.65, 27.99 13.27, 27.95 15.71 M27.95 15.71 C29.01 18.95, 26.43 21.74, 22.71 20.95 M27.95 15.71 C25.85 21.14, 26 22.37, 22.71 20.95 M22.71 20.95 C17.64 20.23, 14.87 22.55, 5.24 20.95 M22.71 20.95 C19.37 21.63, 15.05 20.55, 5.24 20.95 M5.24 20.95 C0.09 20.49, 1.98 19.83, 0 15.71 M5.24 20.95 C1.5 22.91, -0.55 18.8, 0 15.71 M0 15.71 C-0.97 12.22, 0.95 7, 0 5.24 M0 15.71 C-0.32 12.15, 0.28 8.54, 0 5.24 M0 5.24 C0.63 3.63, 2.08 -0.87, 5.24 0 M0 5.24 C0.92 2.08, -0.33 -0.32, 5.24 0" stroke="#1e1e1e" stroke-width="2" fill="none"></path></g><g stroke-linecap="round" transform="translate(29.153041294641298 45.7302706864657) rotate(0 25.4296875 23.859375)"><path d="M23.89 1.01 C28.91 0.56, 36.5 2.22, 40.73 5.24 C44.97 8.25, 47.9 14.27, 49.28 19.11 C50.66 23.96, 51.29 29.84, 49.01 34.3 C46.73 38.77, 40.78 43.96, 35.6 45.92 C30.42 47.89, 23.23 47.51, 17.92 46.09 C12.61 44.68, 6.82 41.57, 3.73 37.44 C0.63 33.3, -1.55 26.43, -0.67 21.29 C0.21 16.15, 3.94 10.01, 9.01 6.6 C14.07 3.18, 25.24 1.63, 29.73 0.82 C34.21 0, 35.95 1.33, 35.92 1.68 M30.14 -0.72 C35.02 0, 41.29 4.48, 44.6 8.5 C47.92 12.52, 49.99 18.11, 50.01 23.39 C50.02 28.67, 48.34 36.29, 44.7 40.18 C41.06 44.06, 33.43 46.24, 28.16 46.71 C22.9 47.19, 17.6 45.53, 13.11 43.04 C8.62 40.55, 3.09 36.18, 1.22 31.76 C-0.64 27.35, 0.11 21.34, 1.92 16.53 C3.74 11.73, 7.46 5.67, 12.1 2.95 C16.73 0.22, 26.81 0.35, 29.73 0.19 C32.64 0.02, 29.32 1.33, 29.57 1.95" stroke="none" stroke-width="0" fill="#d0bfff"></path><path d="M37.49 2.06 C42.13 4.07, 46.12 10.32, 48.21 15.12 C50.31 19.91, 51.52 25.88, 50.05 30.84 C48.59 35.8, 44.16 41.99, 39.44 44.89 C34.72 47.78, 27.24 49.03, 21.73 48.22 C16.23 47.41, 10.07 43.81, 6.41 40 C2.76 36.2, 0 30.4, -0.21 25.39 C-0.42 20.37, 1.82 13.93, 5.13 9.89 C8.44 5.84, 13.9 1.97, 19.65 1.12 C25.4 0.28, 35.84 3.95, 39.62 4.83 C43.39 5.7, 42.39 6.28, 42.32 6.37 M15.83 1.9 C20.45 -0.42, 27.67 -0.13, 32.55 1.51 C37.43 3.15, 42.11 7.45, 45.11 11.74 C48.12 16.02, 51.12 22.27, 50.59 27.23 C50.06 32.19, 45.63 38.26, 41.92 41.49 C38.21 44.72, 33.69 46.33, 28.34 46.58 C22.99 46.84, 14.19 46.05, 9.81 43.03 C5.42 40.01, 3.19 33.58, 2.04 28.48 C0.89 23.38, 0.61 16.59, 2.92 12.42 C5.23 8.25, 13.84 5.19, 15.9 3.46 C17.96 1.73, 15.46 1.96, 15.28 2.04" stroke="#1e1e1e" stroke-width="2" fill="none"></path></g></svg>