<svg version="1.1" xmlns="http://www.w3.org/2000/svg" viewBox="0 0 105.26171875 140.84223780150023" width="105.26171875" height="140.84223780150023">
  <!-- svg-source:excalidraw -->
  
  <defs>
    <style class="style-fonts">
      @font-face {
        font-family: "Virgil";
        src: url("https://excalidraw.com/Virgil.woff2");
      }
      @font-face {
        font-family: "Cascadia";
        src: url("https://excalidraw.com/Cascadia.woff2");
      }
      @font-face {
        font-family: "Assistant";
        src: url("https://excalidraw.com/Assistant-Regular.woff2");
      }
    </style>
    
  </defs>
  <g stroke-linecap="round" transform="translate(32.28888494318198 109.06643921733576) rotate(337.5387531331347 19.283203125 7.48828125)"><path d="M3.74 0 C14.02 -2.16, 25.37 2.56, 34.82 0 C38.14 -0.28, 40.79 0.63, 38.57 3.74 C39.1 4.96, 39.29 8.86, 38.57 11.23 C37.63 14.26, 37.61 14.7, 34.82 14.98 C25.11 16.02, 22.31 15.64, 3.74 14.98 C0.12 16.01, 0.38 11.38, 0 11.23 C0.46 8.58, -0.3 6.16, 0 3.74 C-1.34 0.28, -0.21 -2.01, 3.74 0" stroke="none" stroke-width="0" fill="#868e96"></path><path d="M3.74 0 C15.07 0.37, 26.15 -0.75, 34.82 0 M3.74 0 C12.25 0.46, 20.14 0.1, 34.82 0 M34.82 0 C38.17 -0.15, 38.23 1.73, 38.57 3.74 M34.82 0 C37.69 0.34, 38.13 0.46, 38.57 3.74 M38.57 3.74 C38.87 5.59, 38.79 7.89, 38.57 11.23 M38.57 3.74 C38.69 6.09, 38.6 8.31, 38.57 11.23 M38.57 11.23 C37.73 13.87, 36.81 14.99, 34.82 14.98 M38.57 11.23 C39.67 13.55, 37.52 15.33, 34.82 14.98 M34.82 14.98 C27.87 14.83, 20.52 15.93, 3.74 14.98 M34.82 14.98 C26.64 14.82, 18.68 14.87, 3.74 14.98 M3.74 14.98 C1.81 14.69, 0.56 13.68, 0 11.23 M3.74 14.98 C2.1 15.76, 0.32 14.82, 0 11.23 M0 11.23 C0.26 9.69, -0.02 7.8, 0 3.74 M0 11.23 C0.02 8.8, -0.12 6.21, 0 3.74 M0 3.74 C0.72 0.53, 0.77 -0.11, 3.74 0 M0 3.74 C0.97 0.33, 1.53 -0.79, 3.74 0" stroke="#1e1e1e" stroke-width="2" fill="none"></path></g><g stroke-linecap="round" transform="translate(32.474757339014104 16.919422171883525) rotate(337.0766447889431 19.283203125 7.48828125)"><path d="M3.74 0 C12.55 2.91, 23.37 0.06, 34.82 0 C39.54 -0.62, 38.11 3.79, 38.57 3.74 C39.24 6.89, 38.26 8.48, 38.57 11.23 C38.85 13.46, 35.78 13.95, 34.82 14.98 C26.21 15.54, 11.57 16.14, 3.74 14.98 C1.62 12.63, -0.37 14.23, 0 11.23 C-0.33 7.89, -0.55 5.77, 0 3.74 C-1.46 -0.77, 1.72 0.79, 3.74 0" stroke="none" stroke-width="0" fill="#868e96"></path><path d="M3.74 0 C12.73 -0.85, 19.77 -0.98, 34.82 0 M3.74 0 C11.29 -0.1, 18.93 -0.19, 34.82 0 M34.82 0 C36.98 0.48, 38.89 1.55, 38.57 3.74 M34.82 0 C36.88 -0.78, 38.14 0.81, 38.57 3.74 M38.57 3.74 C38.84 6.74, 38.65 9.66, 38.57 11.23 M38.57 3.74 C38.58 6.19, 38.43 8.9, 38.57 11.23 M38.57 11.23 C38.06 13.74, 38.28 14.82, 34.82 14.98 M38.57 11.23 C38.77 14.08, 36.58 14.15, 34.82 14.98 M34.82 14.98 C24.68 15.84, 13.47 15.65, 3.74 14.98 M34.82 14.98 C26.56 14.88, 18.07 14.8, 3.74 14.98 M3.74 14.98 C1.81 14.93, 0.74 14.41, 0 11.23 M3.74 14.98 C1.57 16.07, -0.78 12.76, 0 11.23 M0 11.23 C-0.07 9.02, 0.13 6.38, 0 3.74 M0 11.23 C-0.15 8.42, 0.14 5.34, 0 3.74 M0 3.74 C-0.48 1.14, 2.1 -0.8, 3.74 0 M0 3.74 C0.28 0.46, 1.91 1.05, 3.74 0" stroke="#1e1e1e" stroke-width="2" fill="none"></path></g><g stroke-linecap="round" transform="translate(10 32.194161755215646) rotate(0 42.630859375 38.322265625)"><path d="M19.16 0 C30.49 -1.22, 42.62 -1.69, 66.1 0 C78.25 3.52, 85.35 8, 85.26 19.16 C84.41 27.87, 86.11 34.72, 85.26 57.48 C83.13 68.84, 80.89 73.55, 66.1 76.64 C48.99 78.22, 35.52 73.54, 19.16 76.64 C5.88 77.34, 1.47 72.03, 0 57.48 C-1.66 46.66, -1.82 35.74, 0 19.16 C0.66 7.47, 4.1 -1.81, 19.16 0" stroke="none" stroke-width="0" fill="#a18072"></path><path d="M19.16 0 C33.92 -1.49, 48.99 1.94, 66.1 0 M19.16 0 C37.45 -0.16, 53.71 0.47, 66.1 0 M66.1 0 C79.52 0.6, 84.51 5.02, 85.26 19.16 M66.1 0 C78.03 -0.87, 86.96 8.32, 85.26 19.16 M85.26 19.16 C85.77 31.07, 86.36 40.68, 85.26 57.48 M85.26 19.16 C84.42 30.91, 84.75 42.38, 85.26 57.48 M85.26 57.48 C87.18 69.95, 79.23 77.25, 66.1 76.64 M85.26 57.48 C83.78 68.61, 79.74 77.51, 66.1 76.64 M66.1 76.64 C52.24 78.48, 39.31 77.13, 19.16 76.64 M66.1 76.64 C53.67 76.3, 40.68 76.53, 19.16 76.64 M19.16 76.64 C7.87 78.01, 0.56 72.15, 0 57.48 M19.16 76.64 C4.82 74.71, 0.03 71.63, 0 57.48 M0 57.48 C0.85 42.13, 1.73 30.24, 0 19.16 M0 57.48 C1.03 42.9, -0.17 29.65, 0 19.16 M0 19.16 C1.7 4.78, 6.88 -1.37, 19.16 0 M0 19.16 C1.32 8.5, 6.45 -0.74, 19.16 0" stroke="#1e1e1e" stroke-width="2" fill="none"></path></g><g stroke-linecap="round" transform="translate(36.33023040259832 21.994833421978) rotate(90.684351531919 13.974609375 10.47265625)"><path d="M5.24 0 C9.66 1.2, 17.27 -2.89, 22.71 0 C25.7 0.7, 29.42 3.52, 27.95 5.24 C26.92 7.12, 26.83 8.95, 27.95 15.71 C28.61 20.29, 23.92 19.14, 22.71 20.95 C17.11 21.2, 12.93 18.28, 5.24 20.95 C1.96 18.91, -0.73 17.05, 0 15.71 C1.01 12.11, 0.21 9.12, 0 5.24 C-2.92 0.93, 4.09 3.34, 5.24 0" stroke="none" stroke-width="0" fill="#d0bfff"></path><path d="M5.24 0 C10.14 1.37, 15.32 0.81, 22.71 0 M5.24 0 C9.8 0.24, 15.37 0.12, 22.71 0 M22.71 0 C28.13 -0.31, 28.3 2.36, 27.95 5.24 M22.71 0 C24.73 -1.65, 28.82 2.61, 27.95 5.24 M27.95 5.24 C27.61 8.91, 27.71 11.13, 27.95 15.71 M27.95 5.24 C28.29 7.98, 28.29 11.01, 27.95 15.71 M27.95 15.71 C29.43 20.57, 26.76 22.84, 22.71 20.95 M27.95 15.71 C26.39 17.26, 26.23 22.32, 22.71 20.95 M22.71 20.95 C17.24 19.37, 11.84 20.81, 5.24 20.95 M22.71 20.95 C17.02 20.38, 9.65 20.91, 5.24 20.95 M5.24 20.95 C3.44 19.34, 0.5 17.83, 0 15.71 M5.24 20.95 C3.07 23.05, 0.06 18.46, 0 15.71 M0 15.71 C0.35 13.32, 0.92 10.91, 0 5.24 M0 15.71 C0.13 12.27, 0.24 10.27, 0 5.24 M0 5.24 C-0.72 2.16, 1.97 -0.21, 5.24 0 M0 5.24 C-1.36 0.84, 3.03 -1.98, 5.24 0" stroke="#1e1e1e" stroke-width="2" fill="none"></path></g><g stroke-linecap="round" transform="translate(25.069475446425713 46.95692110629625) rotate(90.684351531919 25.4296875 23.859375)"><path d="M32.31 0.15 C37.18 1.39, 43.28 7.28, 46.4 11.67 C49.51 16.05, 51.45 21.56, 51.01 26.44 C50.58 31.31, 47.83 37.21, 43.8 40.92 C39.77 44.62, 32.4 48.22, 26.83 48.65 C21.25 49.08, 14.85 46.59, 10.34 43.5 C5.84 40.41, 0.91 35.2, -0.21 30.09 C-1.34 24.99, 0.96 17.53, 3.57 12.87 C6.19 8.2, 10.36 4.09, 15.48 2.1 C20.59 0.11, 30.94 0.75, 34.27 0.93 C37.6 1.11, 35.74 2.66, 35.46 3.18 M37.57 2.81 C42.06 4.82, 45.4 9.55, 47.48 14.32 C49.56 19.09, 51.28 26.65, 50.04 31.44 C48.8 36.23, 44.71 40.59, 40.02 43.08 C35.33 45.56, 27.56 46.91, 21.9 46.33 C16.24 45.75, 9.85 43.3, 6.06 39.57 C2.28 35.84, -0.7 28.89, -0.81 23.95 C-0.92 19.01, 2.13 13.97, 5.39 9.96 C8.65 5.94, 13.32 1.27, 18.75 -0.14 C24.19 -1.55, 35.02 0.88, 38 1.48 C40.99 2.07, 37.01 2.64, 36.67 3.43" stroke="none" stroke-width="0" fill="#d0bfff"></path><path d="M31.25 -0.05 C36.36 0.81, 43.08 5.1, 46.34 9.58 C49.59 14.05, 51.28 21.59, 50.78 26.8 C50.28 32.01, 47.12 37.47, 43.33 40.83 C39.55 44.2, 33.58 46.48, 28.06 46.98 C22.54 47.48, 14.68 46.68, 10.22 43.84 C5.75 41, 2.52 34.78, 1.27 29.93 C0.02 25.09, 0.53 19.26, 2.69 14.77 C4.85 10.28, 8.43 4.95, 14.22 2.99 C20.01 1.03, 32.79 2.29, 37.45 3 C42.11 3.71, 42.37 6.82, 42.19 7.25 M22.91 1.27 C27.91 0.53, 34.97 2.69, 39.24 5 C43.52 7.31, 46.93 10.37, 48.57 15.14 C50.2 19.91, 50.78 28.68, 49.06 33.61 C47.34 38.54, 43.03 42.33, 38.25 44.7 C33.47 47.06, 26.1 48.62, 20.4 47.81 C14.71 47.01, 7.5 43.85, 4.08 39.88 C0.66 35.92, -0.32 29.28, -0.12 24.04 C0.07 18.81, 1.42 12.61, 5.25 8.46 C9.09 4.32, 20.23 0.49, 22.88 -0.83 C25.53 -2.15, 21.06 0.18, 21.15 0.56" stroke="#1e1e1e" stroke-width="2" fill="none"></path></g></svg>