<svg version="1.1" xmlns="http://www.w3.org/2000/svg" viewBox="0 0 109.0303328501941 140.84223780150023" width="109.0303328501941" height="140.84223780150023">
  <!-- svg-source:excalidraw -->
  
  <defs>
    <style class="style-fonts">
      @font-face {
        font-family: "Virgil";
        src: url("https://excalidraw.com/Virgil.woff2");
      }
      @font-face {
        font-family: "Cascadia";
        src: url("https://excalidraw.com/Cascadia.woff2");
      }
      @font-face {
        font-family: "Assistant";
        src: url("https://excalidraw.com/Assistant-Regular.woff2");
      }
    </style>
    
  </defs>
  <g stroke-linecap="round" transform="translate(36.05749904337608 109.06643921733576) rotate(337.5387531331347 19.283203125 7.48828125)"><path d="M3.74 0 C18.37 -0.58, 28.09 2.58, 34.82 0 C37.38 1.17, 36.17 2.93, 38.57 3.74 C38.64 6.57, 37.95 9.21, 38.57 11.23 C40.02 11.49, 38.13 17.43, 34.82 14.98 C25.35 12.79, 14.77 15.64, 3.74 14.98 C2.31 16.26, -1.37 12.97, 0 11.23 C-0.5 8.84, 0.23 8.24, 0 3.74 C-1.65 -0.06, 3.04 -1.95, 3.74 0" stroke="none" stroke-width="0" fill="#868e96"></path><path d="M3.74 0 C9.95 0.93, 18.11 0.47, 34.82 0 M3.74 0 C12.94 0.26, 22.64 0.17, 34.82 0 M34.82 0 C36.94 -0.68, 38.2 0.87, 38.57 3.74 M34.82 0 C38.17 0.97, 38.19 1.98, 38.57 3.74 M38.57 3.74 C38.73 6.58, 38.58 9.03, 38.57 11.23 M38.57 3.74 C38.44 5.5, 38.72 7.23, 38.57 11.23 M38.57 11.23 C38.74 14.03, 36.68 14.26, 34.82 14.98 M38.57 11.23 C39 14.16, 37.09 15.39, 34.82 14.98 M34.82 14.98 C22.45 15.12, 10.36 15.58, 3.74 14.98 M34.82 14.98 C26.18 14.91, 17.35 15.27, 3.74 14.98 M3.74 14.98 C1.53 15.92, -0.68 12.89, 0 11.23 M3.74 14.98 C1.26 15.66, 0.61 13.58, 0 11.23 M0 11.23 C0.3 8.87, 0.22 6.27, 0 3.74 M0 11.23 C-0.12 8.71, 0.13 6.09, 0 3.74 M0 3.74 C0.25 0.57, 1.82 0.92, 3.74 0 M0 3.74 C0.03 0.88, 0.3 -0.26, 3.74 0" stroke="#1e1e1e" stroke-width="2" fill="none"></path></g><g stroke-linecap="round" transform="translate(36.24337143921002 16.919422171883525) rotate(337.0766447889431 19.283203125 7.48828125)"><path d="M3.74 0 C12.28 2.64, 21.79 1.26, 34.82 0 C34.92 1.68, 40.93 0.31, 38.57 3.74 C38 5.76, 39.12 7.71, 38.57 11.23 C39.38 16.18, 37.75 13.85, 34.82 14.98 C23.89 15.11, 14.75 15.89, 3.74 14.98 C-0.12 14.22, -2.1 12.39, 0 11.23 C0.23 9.56, -0.56 6.81, 0 3.74 C1.79 -0.7, 1.13 0.7, 3.74 0" stroke="none" stroke-width="0" fill="#868e96"></path><path d="M3.74 0 C10.88 0.21, 16.6 0.73, 34.82 0 M3.74 0 C12.76 0.08, 21.26 -0.42, 34.82 0 M34.82 0 C36.95 -0.38, 39.31 2.09, 38.57 3.74 M34.82 0 C36.94 0.73, 39.18 1.4, 38.57 3.74 M38.57 3.74 C38.59 6.61, 38.34 9.17, 38.57 11.23 M38.57 3.74 C38.73 6.07, 38.58 8.51, 38.57 11.23 M38.57 11.23 C37.92 13.01, 37.7 15.35, 34.82 14.98 M38.57 11.23 C38.33 14.14, 38.35 14.56, 34.82 14.98 M34.82 14.98 C23.07 15.48, 11.65 15.54, 3.74 14.98 M34.82 14.98 C26.76 15.31, 18.1 15.44, 3.74 14.98 M3.74 14.98 C0.57 14.13, 0.01 14.33, 0 11.23 M3.74 14.98 C1.86 14.83, 0.13 14.19, 0 11.23 M0 11.23 C0.2 9.37, 0.09 8.38, 0 3.74 M0 11.23 C0.18 9.37, 0.06 7.68, 0 3.74 M0 3.74 C0.57 2.17, 1.27 -0.32, 3.74 0 M0 3.74 C-0.95 0.99, 2.39 0.36, 3.74 0" stroke="#1e1e1e" stroke-width="2" fill="none"></path></g><g stroke-linecap="round" transform="translate(13.7686141001941 32.194161755215646) rotate(0 42.630859375 38.322265625)"><path d="M19.16 0 C32.22 0.79, 41.77 1.5, 66.1 0 C82.15 -1.3, 86 6.78, 85.26 19.16 C86.86 27.16, 85.98 44.74, 85.26 57.48 C85.86 68.69, 80.31 77.16, 66.1 76.64 C57.72 78.58, 44.52 75.75, 19.16 76.64 C3.48 74.79, -1.35 68.23, 0 57.48 C-2.41 47.15, 2.36 37.73, 0 19.16 C-0.16 7.35, 6.69 3.56, 19.16 0" stroke="none" stroke-width="0" fill="#a18072"></path><path d="M19.16 0 C36.94 1.54, 54.37 -0.83, 66.1 0 M19.16 0 C35.11 -0.82, 51.45 -0.52, 66.1 0 M66.1 0 C80.35 1.69, 84.61 7.66, 85.26 19.16 M66.1 0 C80.11 0.3, 87.18 7.37, 85.26 19.16 M85.26 19.16 C83.96 30.96, 85.56 45.08, 85.26 57.48 M85.26 19.16 C85.81 31, 84.99 41.52, 85.26 57.48 M85.26 57.48 C86.02 71.01, 78.47 77.36, 66.1 76.64 M85.26 57.48 C87.33 69.42, 80.5 76.05, 66.1 76.64 M66.1 76.64 C51.6 78, 37.05 78, 19.16 76.64 M66.1 76.64 C52.53 77.91, 37.73 76.12, 19.16 76.64 M19.16 76.64 C6.41 77.84, 1.06 70.01, 0 57.48 M19.16 76.64 C6.65 77.56, -2.1 72.2, 0 57.48 M0 57.48 C0.44 47.77, -1.67 34.22, 0 19.16 M0 57.48 C-0.08 45.71, 0.25 36.23, 0 19.16 M0 19.16 C0.05 5.75, 4.73 -0.46, 19.16 0 M0 19.16 C2.28 7.11, 6.14 1.97, 19.16 0" stroke="#1e1e1e" stroke-width="2" fill="none"></path></g><g stroke-linecap="round" transform="translate(13.186373760761853 30.8145868446054) rotate(47.524435689906944 13.974609375 10.47265625)"><path d="M5.24 0 C6.74 0.81, 16.61 0.35, 22.71 0 C24.64 1.44, 28.47 -1.51, 27.95 5.24 C28.91 7.24, 27.43 9.7, 27.95 15.71 C26.09 17.85, 24.18 18.16, 22.71 20.95 C15.57 22.91, 9.23 20.6, 5.24 20.95 C2.71 21.25, 3.56 16.16, 0 15.71 C-1.02 13.75, 1.6 10.66, 0 5.24 C2.21 2.19, 2.43 2.05, 5.24 0" stroke="none" stroke-width="0" fill="#d0bfff"></path><path d="M5.24 0 C11.31 -0.7, 15.54 0.81, 22.71 0 M5.24 0 C11.16 -0.05, 16.17 -0.65, 22.71 0 M22.71 0 C24.54 0.28, 26.93 1.77, 27.95 5.24 M22.71 0 C28.41 -0.35, 28.36 2.45, 27.95 5.24 M27.95 5.24 C28.27 7.49, 28.25 11.12, 27.95 15.71 M27.95 5.24 C28.04 7.88, 28.28 10.69, 27.95 15.71 M27.95 15.71 C29.07 18.63, 27.33 20.84, 22.71 20.95 M27.95 15.71 C29.65 20.77, 26.84 23.12, 22.71 20.95 M22.71 20.95 C19.7 21.88, 14.38 21.14, 5.24 20.95 M22.71 20.95 C16.69 21.63, 10.12 21.39, 5.24 20.95 M5.24 20.95 C3.19 19.52, -0.96 18.99, 0 15.71 M5.24 20.95 C3.7 19.1, 0.57 17.63, 0 15.71 M0 15.71 C-0.43 11.1, -0.34 9.26, 0 5.24 M0 15.71 C-0.11 12.15, 0.52 8.78, 0 5.24 M0 5.24 C0.9 -0.1, 3.04 1.82, 5.24 0 M0 5.24 C-0.83 2.22, 2 -0.24, 5.24 0" stroke="#1e1e1e" stroke-width="2" fill="none"></path></g><g stroke-linecap="round" transform="translate(28.10504480902091 45.26837942211296) rotate(47.524435689906944 25.4296875 23.859375)"><path d="M35.2 2.69 C40.34 4.37, 46.83 9.16, 49.26 13.53 C51.68 17.9, 51.29 23.8, 49.75 28.92 C48.22 34.03, 44.36 41.12, 40.05 44.22 C35.73 47.33, 29.1 48.13, 23.85 47.54 C18.59 46.96, 12.51 44.09, 8.53 40.7 C4.55 37.31, 0.63 32.19, -0.05 27.21 C-0.73 22.24, 1.5 15.15, 4.44 10.87 C7.39 6.59, 11.83 2.87, 17.62 1.54 C23.41 0.21, 35.39 2.31, 39.19 2.91 C42.99 3.51, 40.82 4.85, 40.43 5.16 M20.92 1.88 C25.83 0.73, 33.09 0.02, 37.89 2.28 C42.7 4.54, 48.01 10.57, 49.72 15.41 C51.43 20.25, 49.96 26.39, 48.16 31.3 C46.36 36.21, 43.24 42.3, 38.93 44.86 C34.62 47.42, 27.83 47.73, 22.32 46.65 C16.81 45.58, 9.73 42.2, 5.88 38.39 C2.04 34.59, -0.58 28.94, -0.77 23.84 C-0.96 18.73, 1.16 11.6, 4.74 7.78 C8.32 3.96, 18.25 2.18, 20.72 0.92 C23.2 -0.35, 19.39 0.05, 19.6 0.18" stroke="none" stroke-width="0" fill="#d0bfff"></path><path d="M32.58 1.37 C37.64 2.22, 43.46 6.3, 46.38 10.28 C49.29 14.26, 50.58 20.24, 50.09 25.25 C49.61 30.25, 47.21 36.43, 43.44 40.32 C39.68 44.21, 32.98 48.07, 27.5 48.6 C22.02 49.13, 14.96 46.72, 10.56 43.5 C6.17 40.27, 2.6 34.17, 1.13 29.25 C-0.34 24.34, -0.61 18.57, 1.73 14.02 C4.07 9.48, 9.36 3.77, 15.2 1.97 C21.03 0.17, 32.68 2.63, 36.75 3.23 C40.82 3.83, 39.91 5.38, 39.63 5.59 M23.32 -0.27 C28.44 -1.11, 35.65 0.8, 40.25 3.85 C44.84 6.9, 49.41 12.9, 50.9 18.05 C52.39 23.19, 51.71 30.42, 49.2 34.73 C46.68 39.05, 40.76 41.71, 35.82 43.92 C30.88 46.13, 24.58 48.97, 19.58 47.97 C14.58 46.97, 9.05 42.07, 5.83 37.92 C2.6 33.77, 0.26 27.93, 0.21 23.07 C0.17 18.21, 1.88 12.41, 5.57 8.75 C9.26 5.09, 19.72 2.36, 22.35 1.09 C24.97 -0.18, 21.07 1.08, 21.32 1.14" stroke="#1e1e1e" stroke-width="2" fill="none"></path></g></svg>