<svg version="1.1" xmlns="http://www.w3.org/2000/svg" viewBox="0 0 115.33858816964312 140.84223780150023" width="115.33858816964312" height="140.84223780150023">
  <!-- svg-source:excalidraw -->
  
  <defs>
    <style class="style-fonts">
      @font-face {
        font-family: "Virgil";
        src: url("https://excalidraw.com/Virgil.woff2");
      }
      @font-face {
        font-family: "Cascadia";
        src: url("https://excalidraw.com/Cascadia.woff2");
      }
      @font-face {
        font-family: "Assistant";
        src: url("https://excalidraw.com/Assistant-Regular.woff2");
      }
    </style>
    
  </defs>
  <g stroke-linecap="round" transform="translate(42.3657543628251 109.06643921733576) rotate(337.5387531331347 19.283203125 7.48828125)"><path d="M3.74 0 C13.71 1.5, 30.83 -1.12, 34.82 0 C37.85 0.29, 38.29 -0.29, 38.57 3.74 C38.93 6.61, 38.78 7.22, 38.57 11.23 C39.6 14.1, 34.97 14.61, 34.82 14.98 C23.53 14.41, 12.87 13.83, 3.74 14.98 C0.28 13.51, -2.01 14.21, 0 11.23 C0.73 8.03, 0.02 6.55, 0 3.74 C0.22 3.82, -0.95 0.15, 3.74 0" stroke="none" stroke-width="0" fill="#868e96"></path><path d="M3.74 0 C13.94 -0.47, 24.91 0.19, 34.82 0 M3.74 0 C13.81 -0.08, 24.62 0.53, 34.82 0 M34.82 0 C36.99 0.63, 39.1 1.38, 38.57 3.74 M34.82 0 C38.28 0.49, 39.16 1.28, 38.57 3.74 M38.57 3.74 C38.59 5.79, 38.55 8.58, 38.57 11.23 M38.57 3.74 C38.45 5.74, 38.64 8.08, 38.57 11.23 M38.57 11.23 C38.36 14.08, 38.22 14.61, 34.82 14.98 M38.57 11.23 C39.38 13.43, 37.36 14.71, 34.82 14.98 M34.82 14.98 C23.67 15.62, 13.04 15.8, 3.74 14.98 M34.82 14.98 C23.03 14.7, 11.93 15.42, 3.74 14.98 M3.74 14.98 C1.78 14.85, 0.11 14.13, 0 11.23 M3.74 14.98 C0.2 15.95, -0.1 14.44, 0 11.23 M0 11.23 C-0.28 9.41, -0.05 8.27, 0 3.74 M0 11.23 C0.1 9.76, 0 7.88, 0 3.74 M0 3.74 C-0.83 1.02, 2.24 0.32, 3.74 0 M0 3.74 C-0.12 2.23, 0.97 -0.2, 3.74 0" stroke="#1e1e1e" stroke-width="2" fill="none"></path></g><g stroke-linecap="round" transform="translate(42.55162675865904 16.919422171883525) rotate(337.0766447889431 19.283203125 7.48828125)"><path d="M3.74 0 C16.82 -1.2, 25.71 0.03, 34.82 0 C37.05 -1.54, 37.54 2.7, 38.57 3.74 C38.76 4.92, 38.99 7.09, 38.57 11.23 C36.22 13.36, 37.82 16.04, 34.82 14.98 C21.87 13.52, 12.14 13.4, 3.74 14.98 C-0.77 15.45, 0.79 12.08, 0 11.23 C-0.11 9.62, 0.01 8.45, 0 3.74 C-2.19 1.4, -0.22 -0.53, 3.74 0" stroke="none" stroke-width="0" fill="#868e96"></path><path d="M3.74 0 C16.18 0.38, 27.95 -0.33, 34.82 0 M3.74 0 C11.32 0.48, 17.99 0.38, 34.82 0 M34.82 0 C37.85 0.13, 39.4 1.67, 38.57 3.74 M34.82 0 C37.91 0.03, 38.55 0.5, 38.57 3.74 M38.57 3.74 C38.58 5.73, 38.51 7.05, 38.57 11.23 M38.57 3.74 C38.61 6.29, 38.5 8.76, 38.57 11.23 M38.57 11.23 C39.46 13.37, 38.03 14.72, 34.82 14.98 M38.57 11.23 C38.61 13.46, 37.89 14.83, 34.82 14.98 M34.82 14.98 C23.71 15.8, 13.38 15.34, 3.74 14.98 M34.82 14.98 C22.56 15.14, 10.55 14.78, 3.74 14.98 M3.74 14.98 C1.36 15.38, -0.91 14.57, 0 11.23 M3.74 14.98 C1.14 15.69, -0.93 14.12, 0 11.23 M0 11.23 C-0.01 8.76, -0.27 5.75, 0 3.74 M0 11.23 C-0.02 9.44, -0.18 7.72, 0 3.74 M0 3.74 C0.99 1.56, 1.14 0.85, 3.74 0 M0 3.74 C-0.27 1.05, 2.37 0.03, 3.74 0" stroke="#1e1e1e" stroke-width="2" fill="none"></path></g><g stroke-linecap="round" transform="translate(20.076869419643117 32.194161755215646) rotate(0 42.630859375 38.322265625)"><path d="M19.16 0 C37.02 0.7, 53.02 -1.83, 66.1 0 C77.46 2.01, 82.17 7.51, 85.26 19.16 C86.81 34.79, 82.13 48.87, 85.26 57.48 C85.96 71.72, 80.65 74.75, 66.1 76.64 C52.05 74.18, 37.9 76.87, 19.16 76.64 C7.47 74.36, -1.81 72.74, 0 57.48 C0.33 52.42, -3.01 40.44, 0 19.16 C-2.04 5.65, 4.24 2.37, 19.16 0" stroke="none" stroke-width="0" fill="#a18072"></path><path d="M19.16 0 C32.26 -0.91, 42.8 -0.89, 66.1 0 M19.16 0 C31.14 0.24, 44.3 -0.26, 66.1 0 M66.1 0 C80.54 0.85, 86.29 6.44, 85.26 19.16 M66.1 0 C78.85 -1.51, 83.34 6.71, 85.26 19.16 M85.26 19.16 C84.96 29.05, 85.88 36.95, 85.26 57.48 M85.26 19.16 C85.2 28.26, 86.3 36.29, 85.26 57.48 M85.26 57.48 C86.68 69.74, 78.94 76.18, 66.1 76.64 M85.26 57.48 C86.4 69.96, 80.16 75.99, 66.1 76.64 M66.1 76.64 C50.76 77.55, 34.57 75.63, 19.16 76.64 M66.1 76.64 C56.5 76.8, 45.96 77.32, 19.16 76.64 M19.16 76.64 C4.56 78.33, -0.18 71.49, 0 57.48 M19.16 76.64 C4.52 77.42, 1.66 68.61, 0 57.48 M0 57.48 C-1.56 48.32, -1.32 39.32, 0 19.16 M0 57.48 C-0.84 42.24, 0.98 27.78, 0 19.16 M0 19.16 C-0.21 8.1, 5.91 -0.35, 19.16 0 M0 19.16 C2.25 6.45, 7.42 -2.12, 19.16 0" stroke="#1e1e1e" stroke-width="2" fill="none"></path></g><g stroke-linecap="round" transform="translate(10 58.642101043607) rotate(0 13.974609375 10.47265625)"><path d="M5.24 0 C9.52 -1.9, 13.22 1.72, 22.71 0 C23.11 1.13, 31.34 2.35, 27.95 5.24 C26.32 7.66, 28.39 11.38, 27.95 15.71 C29.72 17.3, 25.15 18.04, 22.71 20.95 C15.93 21.35, 14.98 18.77, 5.24 20.95 C-0.06 23.43, -2.7 19.04, 0 15.71 C-1.61 12.4, -1.08 8.48, 0 5.24 C-2.15 4.12, 4.59 2.59, 5.24 0" stroke="none" stroke-width="0" fill="#d0bfff"></path><path d="M5.24 0 C9.85 -0.58, 16.19 1.36, 22.71 0 M5.24 0 C12.42 0, 19.4 0.26, 22.71 0 M22.71 0 C27.23 0.06, 27.93 0.44, 27.95 5.24 M22.71 0 C24.28 0.33, 26.77 1.77, 27.95 5.24 M27.95 5.24 C28.25 8.71, 27.18 13.93, 27.95 15.71 M27.95 5.24 C28.4 8.58, 28.3 12.17, 27.95 15.71 M27.95 15.71 C28.02 18.74, 27.2 20.69, 22.71 20.95 M27.95 15.71 C29.24 18.54, 27.49 20.83, 22.71 20.95 M22.71 20.95 C17.83 19.81, 8.17 21.02, 5.24 20.95 M22.71 20.95 C16.53 21.27, 9.34 21.66, 5.24 20.95 M5.24 20.95 C1.57 22.18, -1.62 19.87, 0 15.71 M5.24 20.95 C3.4 19.3, -1.1 18.95, 0 15.71 M0 15.71 C-0.63 12.28, 1.04 7.68, 0 5.24 M0 15.71 C0.6 13.07, 0.03 10.54, 0 5.24 M0 5.24 C-0.48 1.4, 3.7 0.05, 5.24 0 M0 5.24 C1.03 -0.37, 3.23 2.09, 5.24 0" stroke="#1e1e1e" stroke-width="2" fill="none"></path></g><g stroke-linecap="round" transform="translate(36.888671875 44.603038543607) rotate(0 25.4296875 23.859375)"><path d="M34.3 2.38 C39.24 3.93, 44.22 8.01, 46.8 12.42 C49.37 16.83, 50.46 23.86, 49.74 28.85 C49.02 33.84, 46.62 39.33, 42.47 42.34 C38.31 45.35, 30.45 46.79, 24.81 46.89 C19.17 46.99, 12.66 46.16, 8.63 42.95 C4.6 39.74, 1.36 32.87, 0.65 27.62 C-0.05 22.37, 1.71 15.67, 4.41 11.45 C7.11 7.24, 11.38 3.71, 16.84 2.32 C22.3 0.94, 33.56 2.66, 37.17 3.13 C40.78 3.61, 38.56 4.95, 38.52 5.17 M27.15 -0.46 C32.45 -0.46, 40.51 1.96, 44.53 5.97 C48.55 9.97, 50.97 18.36, 51.26 23.57 C51.56 28.77, 49.45 33.26, 46.28 37.2 C43.11 41.14, 37.78 45.9, 32.22 47.22 C26.67 48.54, 17.92 47.28, 12.97 45.11 C8.01 42.94, 4.38 38.98, 2.51 34.21 C0.63 29.45, 0.34 21.75, 1.71 16.53 C3.08 11.31, 6.47 5.72, 10.73 2.89 C14.99 0.06, 24.53 0.14, 27.27 -0.43 C30.01 -1.01, 27.02 -1.13, 27.15 -0.56" stroke="none" stroke-width="0" fill="#d0bfff"></path><path d="M35.25 2.15 C40.08 3.81, 45.25 8.72, 47.84 13.19 C50.43 17.67, 51.88 24.13, 50.8 29 C49.73 33.87, 45.82 39.46, 41.4 42.44 C36.97 45.42, 29.68 47.07, 24.25 46.88 C18.82 46.69, 12.82 44.37, 8.83 41.31 C4.84 38.24, 1.2 33.42, 0.31 28.48 C-0.57 23.54, 0.65 16.32, 3.52 11.68 C6.39 7.04, 12.13 2.11, 17.53 0.63 C22.94 -0.84, 32.41 2.33, 35.95 2.83 C39.48 3.34, 38.74 3.23, 38.74 3.67 M20.89 0.04 C25.87 -1.1, 33.86 0.41, 38.73 2.92 C43.6 5.43, 48.19 10.3, 50.1 15.11 C52.02 19.92, 52.01 26.73, 50.23 31.78 C48.45 36.84, 44.18 42.63, 39.41 45.46 C34.64 48.3, 27.34 50.04, 21.61 48.81 C15.88 47.57, 8.65 42.04, 5.05 38.06 C1.45 34.08, -0.24 29.86, 0.02 24.92 C0.28 19.99, 3.13 12.45, 6.63 8.47 C10.13 4.48, 18.85 2.05, 21.01 0.99 C23.16 -0.07, 19.53 1.68, 19.56 2.13" stroke="#1e1e1e" stroke-width="2" fill="none"></path></g></svg>