<svg version="1.1" xmlns="http://www.w3.org/2000/svg" viewBox="0 0 108.56158285019046 140.84223780150023" width="108.56158285019046" height="140.84223780150023">
  <!-- svg-source:excalidraw -->
  
  <defs>
    <style class="style-fonts">
      @font-face {
        font-family: "Virgil";
        src: url("https://excalidraw.com/Virgil.woff2");
      }
      @font-face {
        font-family: "Cascadia";
        src: url("https://excalidraw.com/Cascadia.woff2");
      }
      @font-face {
        font-family: "Assistant";
        src: url("https://excalidraw.com/Assistant-Regular.woff2");
      }
    </style>
    
  </defs>
  <g stroke-linecap="round" transform="translate(32.28888494318198 109.06643921733576) rotate(337.5387531331347 19.283203125 7.48828125)"><path d="M3.74 0 C9.49 0.3, 17.63 1.15, 34.82 0 C39.7 0.07, 37.73 -0.91, 38.57 3.74 C38.56 6.65, 38.43 7.73, 38.57 11.23 C41.11 13.8, 38.48 12.58, 34.82 14.98 C24.02 15.12, 11.88 13.29, 3.74 14.98 C0.22 16.43, -2.24 14.54, 0 11.23 C0.37 8.42, -0.9 5.19, 0 3.74 C0.5 2.31, 2.53 -1.37, 3.74 0" stroke="none" stroke-width="0" fill="#868e96"></path><path d="M3.74 0 C11.14 -1, 17.32 0.33, 34.82 0 M3.74 0 C13.91 0.31, 23.37 -0.27, 34.82 0 M34.82 0 C36.38 -0.62, 39.35 1.96, 38.57 3.74 M34.82 0 C37.7 0.02, 39.54 1.07, 38.57 3.74 M38.57 3.74 C38.7 5.6, 38.33 7.6, 38.57 11.23 M38.57 3.74 C38.53 5.83, 38.69 7.69, 38.57 11.23 M38.57 11.23 C39.4 14.15, 37.83 15, 34.82 14.98 M38.57 11.23 C38.55 12.98, 36.36 15.14, 34.82 14.98 M34.82 14.98 C26.93 15.3, 19.66 14.48, 3.74 14.98 M34.82 14.98 C27.63 15.21, 21.09 14.85, 3.74 14.98 M3.74 14.98 C1.96 14.72, 0.03 13.5, 0 11.23 M3.74 14.98 C1.82 14.83, 0.64 13.4, 0 11.23 M0 11.23 C0.26 8.67, 0.36 5.65, 0 3.74 M0 11.23 C0.1 9.59, 0.02 8.08, 0 3.74 M0 3.74 C-0.91 2.09, 1.16 0.62, 3.74 0 M0 3.74 C-0.93 1.63, 2.08 -0.82, 3.74 0" stroke="#1e1e1e" stroke-width="2" fill="none"></path></g><g stroke-linecap="round" transform="translate(32.474757339014104 16.919422171883525) rotate(337.0766447889431 19.283203125 7.48828125)"><path d="M3.74 0 C13.93 1.39, 30.04 -0.03, 34.82 0 C36.48 -2.15, 37.97 3.82, 38.57 3.74 C38.32 6.06, 39.51 8.73, 38.57 11.23 C39.73 11.33, 39 17.34, 34.82 14.98 C26.35 13.48, 17.4 16.47, 3.74 14.98 C-0.99 15.79, 2.45 14.16, 0 11.23 C-0.92 9.17, 0.15 7.79, 0 3.74 C1.28 -0.12, 0.49 -2.1, 3.74 0" stroke="none" stroke-width="0" fill="#868e96"></path><path d="M3.74 0 C15.75 0.61, 28.65 -0.23, 34.82 0 M3.74 0 C14.26 -0.32, 25.12 -0.43, 34.82 0 M34.82 0 C38.1 0.72, 38.9 1.26, 38.57 3.74 M34.82 0 C38.29 -0.17, 38.18 1.8, 38.57 3.74 M38.57 3.74 C38.32 6.1, 38.44 9, 38.57 11.23 M38.57 3.74 C38.65 6.65, 38.71 9.58, 38.57 11.23 M38.57 11.23 C39.08 13.76, 37.31 14.32, 34.82 14.98 M38.57 11.23 C37.61 13.89, 36.73 14.99, 34.82 14.98 M34.82 14.98 C22.82 14.36, 9.49 15.38, 3.74 14.98 M34.82 14.98 C24.78 14.85, 14.19 14.9, 3.74 14.98 M3.74 14.98 C1.28 14.74, 0.5 13.6, 0 11.23 M3.74 14.98 C1.89 14.65, 0.64 13.67, 0 11.23 M0 11.23 C0.33 8.18, -0.34 5.64, 0 3.74 M0 11.23 C0 8.61, -0.19 6, 0 3.74 M0 3.74 C-0.09 1.87, 0.44 0.34, 3.74 0 M0 3.74 C0.83 0.43, 0.7 -0.12, 3.74 0" stroke="#1e1e1e" stroke-width="2" fill="none"></path></g><g stroke-linecap="round" transform="translate(10 32.194161755215646) rotate(0 42.630859375 38.322265625)"><path d="M19.16 0 C37.71 -0.39, 48.5 -3.47, 66.1 0 C78.05 3.56, 86.4 6, 85.26 19.16 C88.62 34.03, 86.71 45.39, 85.26 57.48 C87.59 73.53, 77.57 77.39, 66.1 76.64 C50.08 78.15, 33.8 77.27, 19.16 76.64 C9.78 77.25, -1.56 71.69, 0 57.48 C1.32 46.9, 2.4 31.49, 0 19.16 C-1.05 3.48, 4.53 -1.35, 19.16 0" stroke="none" stroke-width="0" fill="#a18072"></path><path d="M19.16 0 C29.69 -0.94, 40.35 0.4, 66.1 0 M19.16 0 C35.99 -0.44, 55.46 0.9, 66.1 0 M66.1 0 C79.53 0.03, 86.96 6.08, 85.26 19.16 M66.1 0 C78.1 1.1, 86.01 7.07, 85.26 19.16 M85.26 19.16 C84.24 30.69, 86.69 38.6, 85.26 57.48 M85.26 19.16 C86.3 33.51, 85.98 47.04, 85.26 57.48 M85.26 57.48 C85.24 68.95, 77.21 76.93, 66.1 76.64 M85.26 57.48 C84.09 70.28, 81.08 76.29, 66.1 76.64 M66.1 76.64 C49.75 77.1, 37.02 75.94, 19.16 76.64 M66.1 76.64 C51.05 76.21, 34.63 76.24, 19.16 76.64 M19.16 76.64 C7.38 76.38, 1.12 69.68, 0 57.48 M19.16 76.64 C7.68 76.53, 1.7 71.83, 0 57.48 M0 57.48 C-2.05 44.95, 0.83 33.42, 0 19.16 M0 57.48 C-0.96 47.31, -0.13 36.07, 0 19.16 M0 19.16 C-1.62 7.06, 7.83 -1.43, 19.16 0 M0 19.16 C-1.1 6.14, 8.34 -1.85, 19.16 0" stroke="#1e1e1e" stroke-width="2" fill="none"></path></g><g stroke-linecap="round" transform="translate(67.42599033942861 31.768827916032933) rotate(312.47556431009303 13.974609375 10.47265625)"><path d="M5.24 0 C10.73 0.89, 18.4 1.83, 22.71 0 C24.31 -1.05, 25.04 -0.11, 27.95 5.24 C28.19 8.56, 26.65 9.79, 27.95 15.71 C30.43 16.5, 26.04 21.91, 22.71 20.95 C17.51 18.9, 11.29 18.8, 5.24 20.95 C4.12 23.79, 2.59 21.41, 0 15.71 C-1.56 12.01, 1.19 10.92, 0 5.24 C-3.53 -1.17, -1.22 -3.11, 5.24 0" stroke="none" stroke-width="0" fill="#d0bfff"></path><path d="M5.24 0 C11.99 -0.11, 17.5 -1.55, 22.71 0 M5.24 0 C11.57 -0.14, 16.37 0.26, 22.71 0 M22.71 0 C24.92 -1.44, 28.7 2.5, 27.95 5.24 M22.71 0 C25.74 0.82, 30.02 0.91, 27.95 5.24 M27.95 5.24 C27.68 9.64, 27.79 13.59, 27.95 15.71 M27.95 5.24 C28.4 8.44, 28.15 11.42, 27.95 15.71 M27.95 15.71 C26.59 17.52, 26.23 22.14, 22.71 20.95 M27.95 15.71 C29.17 18.91, 26.46 21.86, 22.71 20.95 M22.71 20.95 C20.14 19.51, 16 22.19, 5.24 20.95 M22.71 20.95 C19.46 20.23, 14.94 20.33, 5.24 20.95 M5.24 20.95 C2.89 22.78, 0.05 18.56, 0 15.71 M5.24 20.95 C-0.16 20.42, 2.28 19.92, 0 15.71 M0 15.71 C-0.27 13.7, -0.06 10.12, 0 5.24 M0 15.71 C-0.26 13.64, -0.01 11.3, 0 5.24 M0 5.24 C-1.19 0.96, 2.86 -1.72, 5.24 0 M0 5.24 C0.72 3.91, 2.13 -1, 5.24 0" stroke="#1e1e1e" stroke-width="2" fill="none"></path></g><g stroke-linecap="round" transform="translate(29.59716304116955 46.22262049353685) rotate(312.47556431009303 25.4296875 23.859375)"><path d="M15.51 1.91 C20.3 -0.53, 28.26 -0.9, 33.41 0.72 C38.56 2.33, 43.52 7.22, 46.4 11.59 C49.29 15.95, 51.45 21.88, 50.73 26.91 C50.01 31.94, 45.88 38.35, 42.09 41.75 C38.3 45.15, 33.24 47.06, 28 47.31 C22.75 47.55, 15.16 46.27, 10.59 43.21 C6.03 40.15, 2.02 33.82, 0.62 28.93 C-0.77 24.04, -0.48 18.44, 2.23 13.86 C4.94 9.28, 13.68 3.56, 16.88 1.43 C20.07 -0.69, 21.21 0.72, 21.41 1.11 M27.55 0.67 C33.09 0.62, 40.09 2.69, 43.88 5.94 C47.67 9.2, 49.98 15.09, 50.29 20.21 C50.59 25.33, 48.83 32.45, 45.7 36.69 C42.58 40.93, 36.61 44.08, 31.54 45.65 C26.47 47.21, 20.3 48.11, 15.31 46.09 C10.32 44.06, 3.85 38.38, 1.6 33.52 C-0.65 28.65, 0.33 21.68, 1.8 16.91 C3.28 12.15, 6.2 7.49, 10.46 4.93 C14.73 2.37, 24.81 2.26, 27.39 1.55 C29.97 0.83, 26.15 0.53, 25.96 0.63" stroke="none" stroke-width="0" fill="#d0bfff"></path><path d="M15.14 3.01 C19.69 0.88, 27.04 -0.04, 32.33 1.11 C37.61 2.26, 43.9 5.63, 46.84 9.91 C49.79 14.19, 50.56 21.62, 50 26.77 C49.43 31.93, 47.19 37.22, 43.44 40.85 C39.69 44.48, 33.08 48.06, 27.52 48.56 C21.96 49.06, 14.59 47, 10.08 43.85 C5.58 40.69, 1.77 34.62, 0.48 29.62 C-0.8 24.63, -0.34 18.47, 2.36 13.86 C5.06 9.25, 14 3.97, 16.67 1.98 C19.34 -0.01, 18.21 1.52, 18.36 1.92 M32.95 0.12 C37.86 1.38, 44.33 8.1, 47.39 12.69 C50.44 17.27, 52.18 22.66, 51.3 27.66 C50.41 32.65, 46.59 39.08, 42.08 42.63 C37.57 46.19, 29.73 48.89, 24.23 48.98 C18.73 49.07, 13.25 46.55, 9.08 43.17 C4.91 39.78, -0.02 34.03, -0.8 28.67 C-1.58 23.3, 1.63 15.55, 4.4 11 C7.18 6.44, 10.71 3.14, 15.85 1.33 C20.99 -0.47, 32.18 0.27, 35.24 0.18 C38.29 0.09, 34.38 0, 34.17 0.81" stroke="#1e1e1e" stroke-width="2" fill="none"></path></g></svg>