<svg version="1.1" xmlns="http://www.w3.org/2000/svg" viewBox="0 0 117.88881138392856 127.12357954545405" width="117.88881138392856" height="127.12357954545405">
  <!-- svg-source:excalidraw -->
  
  <defs>
    <style class="style-fonts">
      @font-face {
        font-family: "Virgil";
        src: url("https://excalidraw.com/Virgil.woff2");
      }
      @font-face {
        font-family: "Cascadia";
        src: url("https://excalidraw.com/Cascadia.woff2");
      }
      @font-face {
        font-family: "Assistant";
        src: url("https://excalidraw.com/Assistant-Regular.woff2");
      }
    </style>
    
  </defs>
  <g stroke-linecap="round" transform="translate(10 24.85274621212011) rotate(0 42.63085937500006 38.322265625)"><path d="M19.16 0 C34.04 0.72, 42.88 1.78, 66.1 0 C80.67 -1.97, 84.23 9.38, 85.26 19.16 C83.7 31.04, 86.44 42.88, 85.26 57.48 C86.79 71.73, 82.17 77.65, 66.1 76.64 C55.82 76.51, 35.7 74.14, 19.16 76.64 C8.54 78.3, 1.18 67.86, 0 57.48 C2.05 44.4, 3.51 28.52, 0 19.16 C-1.77 8.29, 6.85 0.26, 19.16 0" stroke="none" stroke-width="0" fill="#e64980"></path><path d="M19.16 0 C33.94 1.17, 46.59 -0.46, 66.1 0 M19.16 0 C29.25 0.3, 38.33 0.27, 66.1 0 M66.1 0 C80.15 -0.77, 86.69 5.55, 85.26 19.16 M66.1 0 C76.58 2.07, 83.66 4.27, 85.26 19.16 M85.26 19.16 C85.44 30.21, 86.74 43.57, 85.26 57.48 M85.26 19.16 C84.7 27.26, 86.23 37.03, 85.26 57.48 M85.26 57.48 C83.56 68.33, 80.25 77.59, 66.1 76.64 M85.26 57.48 C86.69 68.1, 80.13 74.86, 66.1 76.64 M66.1 76.64 C49.81 78.29, 31.06 77.62, 19.16 76.64 M66.1 76.64 C53.69 76.07, 42.92 76.02, 19.16 76.64 M19.16 76.64 C7.82 74.69, -0.95 71.06, 0 57.48 M19.16 76.64 C6.98 77.32, -2.28 71.02, 0 57.48 M0 57.48 C2.17 42.65, 1.97 30.15, 0 19.16 M0 57.48 C-0.83 49.41, 0.36 42.06, 0 19.16 M0 19.16 C-1.85 5.98, 5.72 -0.26, 19.16 0 M0 19.16 C1.41 8.22, 4.58 -0.56, 19.16 0" stroke="#1e1e1e" stroke-width="2" fill="none"></path></g><g stroke-linecap="round" transform="translate(33.86899266098453 102.14701704545405) rotate(0 19.283203125000057 7.48828125)"><path d="M3.74 0 C9.48 0.72, 17.85 -1.41, 34.82 0 C36.58 2.16, 39.8 0.53, 38.57 3.74 C38.9 4.47, 38.94 7.18, 38.57 11.23 C40.95 14.45, 37.18 12.49, 34.82 14.98 C21.25 12.64, 13.18 16.09, 3.74 14.98 C2.1 13.24, 2.55 12.1, 0 11.23 C0.79 9.99, -0.52 8.42, 0 3.74 C0.34 1.44, -0.21 1.06, 3.74 0" stroke="none" stroke-width="0" fill="#868e96"></path><path d="M3.74 0 C15.7 -0.15, 26.9 -0.06, 34.82 0 M3.74 0 C11.99 0.05, 21.08 -0.22, 34.82 0 M34.82 0 C38.03 -0.42, 37.57 2.15, 38.57 3.74 M34.82 0 C36.52 -1.06, 38.68 0.22, 38.57 3.74 M38.57 3.74 C38.92 6.66, 38.33 9.34, 38.57 11.23 M38.57 3.74 C38.72 6.4, 38.39 8.9, 38.57 11.23 M38.57 11.23 C39.26 14.2, 37.94 14.04, 34.82 14.98 M38.57 11.23 C39.2 12.83, 38.26 14.73, 34.82 14.98 M34.82 14.98 C23.67 15.4, 11.19 16, 3.74 14.98 M34.82 14.98 C23.47 14.36, 12.14 14.35, 3.74 14.98 M3.74 14.98 C0.77 15.38, 0.26 14.02, 0 11.23 M3.74 14.98 C0.11 15.36, 0.79 13.17, 0 11.23 M0 11.23 C0.3 9.76, -0.36 7.8, 0 3.74 M0 11.23 C0.08 8.99, -0.14 6.38, 0 3.74 M0 3.74 C-0.34 1.12, 1.86 0.8, 3.74 0 M0 3.74 C-0.9 0.97, 0.82 0.24, 3.74 0" stroke="#1e1e1e" stroke-width="2" fill="none"></path></g><g stroke-linecap="round" transform="translate(34.05486505681802 10) rotate(0 19.283203125000057 7.48828125)"><path d="M3.74 0 C14.3 -1.53, 21.53 2.05, 34.82 0 C38.56 -0.72, 36.05 0.26, 38.57 3.74 C39.02 6.09, 39.5 7.91, 38.57 11.23 C38.43 11.25, 39.22 17.55, 34.82 14.98 C27.71 15.82, 18.33 12.89, 3.74 14.98 C3.8 13.35, -2.03 14.9, 0 11.23 C-0.56 9.05, 0.04 5.91, 0 3.74 C-1.46 2.31, -0.49 -0.4, 3.74 0" stroke="none" stroke-width="0" fill="#868e96"></path><path d="M3.74 0 C14.62 0.06, 27.05 0.25, 34.82 0 M3.74 0 C13.93 -0.22, 23.83 -0.23, 34.82 0 M34.82 0 C36.32 0.9, 37.87 0.33, 38.57 3.74 M34.82 0 C37.43 -1.03, 39.4 1.55, 38.57 3.74 M38.57 3.74 C38.35 5.7, 38.81 7.4, 38.57 11.23 M38.57 3.74 C38.44 5.16, 38.73 7.02, 38.57 11.23 M38.57 11.23 C39.19 12.79, 37.87 14.2, 34.82 14.98 M38.57 11.23 C39.51 13.49, 38.15 15.92, 34.82 14.98 M34.82 14.98 C22.98 15.95, 12.83 14.37, 3.74 14.98 M34.82 14.98 C28.66 14.34, 21.54 15.03, 3.74 14.98 M3.74 14.98 C1.5 15.27, -0.99 14.06, 0 11.23 M3.74 14.98 C2.04 14.42, -0.91 14.87, 0 11.23 M0 11.23 C-0.36 9.13, 0.05 6.9, 0 3.74 M0 11.23 C-0.18 8.88, -0.07 6.59, 0 3.74 M0 3.74 C0.61 2.04, 0.46 -0.25, 3.74 0 M0 3.74 C-0.43 1.48, 0.17 0.82, 3.74 0" stroke="#343a40" stroke-width="2" fill="none"></path></g><g stroke-linecap="round" transform="translate(79.93959263392856 52.35810673701235) rotate(0 13.974609375 10.47265625)"><path d="M5.24 0 C10.06 2.79, 18.18 -0.7, 22.71 0 C22.71 -1.37, 26.5 3.11, 27.95 5.24 C29.76 8.05, 27.93 8.02, 27.95 15.71 C30.58 22.76, 25.45 18.22, 22.71 20.95 C20.01 18.99, 18.34 19.12, 5.24 20.95 C-1.07 22.56, 2.17 22.28, 0 15.71 C0.34 12.25, -0.97 9.29, 0 5.24 C-2.41 1.19, -1.57 1.77, 5.24 0" stroke="none" stroke-width="0" fill="#fcc2d7"></path><path d="M5.24 0 C9.97 0.42, 15.93 -0.92, 22.71 0 M5.24 0 C11.36 -0.3, 15.36 0.85, 22.71 0 M22.71 0 C24.81 -1.84, 28.14 -0.04, 27.95 5.24 M22.71 0 C27.87 0.6, 27 3.83, 27.95 5.24 M27.95 5.24 C28.47 8.12, 26.97 13.22, 27.95 15.71 M27.95 5.24 C28.22 8.56, 28.18 10.89, 27.95 15.71 M27.95 15.71 C29.04 17.64, 27.85 20.53, 22.71 20.95 M27.95 15.71 C29.61 21.09, 27.7 21.89, 22.71 20.95 M22.71 20.95 C18.15 19.96, 9.54 21.7, 5.24 20.95 M22.71 20.95 C18.72 21.13, 15.78 21.03, 5.24 20.95 M5.24 20.95 C-0.24 21.61, 1.38 18.23, 0 15.71 M5.24 20.95 C-0.07 23.22, -0.79 21.25, 0 15.71 M0 15.71 C0.32 11.07, 0.18 8.68, 0 5.24 M0 15.71 C-0.08 11.58, 0.42 8, 0 5.24 M0 5.24 C-1.57 1.25, 1 0.41, 5.24 0 M0 5.24 C-2.16 3.38, 1.7 -0.6, 5.24 0" stroke="#1e1e1e" stroke-width="2" fill="none"></path></g><g stroke-linecap="round" transform="translate(30.14076450892844 38.31904423701235) rotate(0 25.429687500000057 23.859375)"><path d="M16.55 2.31 C20.89 0.17, 27.08 -0.51, 32.16 0.78 C37.25 2.07, 43.98 5.66, 47.07 10.06 C50.17 14.45, 51.32 22.1, 50.73 27.18 C50.14 32.25, 47.58 37.14, 43.52 40.5 C39.46 43.86, 31.99 46.87, 26.38 47.36 C20.77 47.85, 14.01 46.61, 9.85 43.43 C5.69 40.25, 2.62 33.43, 1.41 28.28 C0.2 23.12, -0.23 17.21, 2.61 12.5 C5.45 7.8, 15.26 1.98, 18.44 0.04 C21.61 -1.91, 21.64 0.25, 21.68 0.83 M32.94 1.45 C38.1 2.18, 42.77 4.54, 45.65 8.46 C48.53 12.39, 50.46 19.89, 50.22 25.02 C49.98 30.16, 47.82 35.42, 44.22 39.29 C40.62 43.15, 33.9 47.43, 28.62 48.21 C23.33 49, 17.12 47.22, 12.49 44 C7.87 40.78, 2.4 33.65, 0.88 28.9 C-0.65 24.16, 1.14 20.16, 3.34 15.54 C5.54 10.93, 9.56 3.55, 14.07 1.23 C18.57 -1.09, 27.36 1.56, 30.39 1.63 C33.42 1.71, 32.31 1.2, 32.25 1.69" stroke="none" stroke-width="0" fill="#fcc2d7"></path><path d="M18.53 1.51 C23.35 -0.3, 30.67 -0.67, 35.82 1.26 C40.97 3.2, 47.2 8.32, 49.41 13.14 C51.61 17.96, 50.78 25.02, 49.06 30.19 C47.33 35.36, 43.34 41.33, 39.07 44.16 C34.79 47, 28.53 47.73, 23.41 47.21 C18.28 46.69, 12.31 44.57, 8.31 41.02 C4.31 37.48, -0.05 31.17, -0.57 25.92 C-1.09 20.68, 1.38 13.69, 5.2 9.54 C9.03 5.39, 18.65 2.68, 22.37 1.04 C26.09 -0.6, 27.51 -0.64, 27.53 -0.28 M32.21 -0.5 C37.37 0.52, 43.84 4.86, 47.12 9.37 C50.4 13.88, 52.27 21.31, 51.89 26.57 C51.51 31.83, 48.69 37.54, 44.84 40.92 C40.98 44.29, 34.11 46.18, 28.76 46.83 C23.41 47.47, 17.54 47.73, 12.76 44.8 C7.97 41.88, 1.74 34.58, 0.06 29.26 C-1.63 23.94, 0.11 17.6, 2.63 12.9 C5.15 8.19, 10.5 2.97, 15.18 1.03 C19.85 -0.91, 27.93 1.18, 30.68 1.27 C33.43 1.36, 31.88 1.2, 31.65 1.57" stroke="#1e1e1e" stroke-width="2" fill="none"></path></g></svg>