<svg version="1.1" xmlns="http://www.w3.org/2000/svg" viewBox="0 0 107.36794445733497 127.12357954545405" width="107.36794445733497" height="127.12357954545405">
  <!-- svg-source:excalidraw -->
  
  <defs>
    <style class="style-fonts">
      @font-face {
        font-family: "Virgil";
        src: url("https://excalidraw.com/Virgil.woff2");
      }
      @font-face {
        font-family: "Cascadia";
        src: url("https://excalidraw.com/Cascadia.woff2");
      }
      @font-face {
        font-family: "Assistant";
        src: url("https://excalidraw.com/Assistant-Regular.woff2");
      }
    </style>
    
  </defs>
  <g stroke-linecap="round" transform="translate(10 24.85274621212102) rotate(0 42.630859375 38.322265625)"><path d="M19.16 0 C36.82 -2.34, 52.72 -3.16, 66.1 0 C80.21 -1.65, 88.45 3.95, 85.26 19.16 C87.08 29.49, 88.34 46.82, 85.26 57.48 C87.94 69.5, 76.64 76.7, 66.1 76.64 C54.43 73.13, 42.6 79.95, 19.16 76.64 C5.31 78.19, -0.34 72.77, 0 57.48 C-2.54 44.75, -1.52 31.42, 0 19.16 C-3.59 6.26, 5.89 -0.61, 19.16 0" stroke="none" stroke-width="0" fill="#e64980"></path><path d="M19.16 0 C29.88 -0.84, 44.52 -2.13, 66.1 0 M19.16 0 C32.71 -0.62, 47.78 -0.54, 66.1 0 M66.1 0 C80.1 1.59, 83.69 5.9, 85.26 19.16 M66.1 0 C78.02 0.47, 83.1 8.02, 85.26 19.16 M85.26 19.16 C86.16 29.49, 84.59 43.67, 85.26 57.48 M85.26 19.16 C84.77 32.08, 85.54 44.99, 85.26 57.48 M85.26 57.48 C86.11 71.07, 80.71 77.2, 66.1 76.64 M85.26 57.48 C85.14 68.06, 80.56 78.92, 66.1 76.64 M66.1 76.64 C54.2 77.16, 40.57 74.9, 19.16 76.64 M66.1 76.64 C47.86 76.88, 29.58 76.71, 19.16 76.64 M19.16 76.64 C5.4 77.7, 0.26 70.4, 0 57.48 M19.16 76.64 C5.09 77.58, -1.54 69.9, 0 57.48 M0 57.48 C-2.1 47.86, -0.94 42.73, 0 19.16 M0 57.48 C-0.7 44.71, -0.91 29.55, 0 19.16 M0 19.16 C-0.34 6.51, 6.81 1.25, 19.16 0 M0 19.16 C0.93 5.92, 5.65 0.56, 19.16 0" stroke="#1e1e1e" stroke-width="2" fill="none"></path></g><g stroke-linecap="round" transform="translate(33.868992660984986 102.14701704545405) rotate(0 19.283203125 7.48828125)"><path d="M3.74 0 C11.66 -2.06, 22.85 -0.92, 34.82 0 C39.62 -1.76, 39.32 0.4, 38.57 3.74 C39.51 6.19, 39.35 7.11, 38.57 11.23 C36.95 13.77, 36.41 15.86, 34.82 14.98 C26.29 16.92, 14.96 15.69, 3.74 14.98 C1 16.79, 1.25 12.27, 0 11.23 C-0.44 9.57, -0.89 7.53, 0 3.74 C-0.36 0.81, 0.43 1.72, 3.74 0" stroke="none" stroke-width="0" fill="#868e96"></path><path d="M3.74 0 C14.77 -0.9, 25.44 0.29, 34.82 0 M3.74 0 C15.64 -0.03, 28.18 0.43, 34.82 0 M34.82 0 C36.53 -0.25, 38.19 1.45, 38.57 3.74 M34.82 0 C36.24 0.82, 38.54 0.95, 38.57 3.74 M38.57 3.74 C38.48 6.51, 38.76 8.55, 38.57 11.23 M38.57 3.74 C38.62 5.11, 38.63 6.86, 38.57 11.23 M38.57 11.23 C39.48 14.01, 37.27 14.02, 34.82 14.98 M38.57 11.23 C39.41 14.87, 37.08 14.11, 34.82 14.98 M34.82 14.98 C28.52 14.38, 22.54 14.42, 3.74 14.98 M34.82 14.98 C28.36 15.29, 20.79 15.33, 3.74 14.98 M3.74 14.98 C1.38 15.05, -0.56 14.14, 0 11.23 M3.74 14.98 C0.48 14.8, -1.06 14.29, 0 11.23 M0 11.23 C-0.11 9.58, 0.25 7.62, 0 3.74 M0 11.23 C-0.12 9.44, -0.01 7.89, 0 3.74 M0 3.74 C0.21 1.87, 1.65 -0.2, 3.74 0 M0 3.74 C-0.37 1.53, 2.11 -0.76, 3.74 0" stroke="#1e1e1e" stroke-width="2" fill="none"></path></g><g stroke-linecap="round" transform="translate(34.05486505681802 10) rotate(0 19.283203125 7.48828125)"><path d="M3.74 0 C11.95 -0.83, 20.53 -1.4, 34.82 0 C38.07 -0.85, 36.96 2.73, 38.57 3.74 C39.38 5.31, 38.05 7.3, 38.57 11.23 C37.66 14.61, 37.5 15.54, 34.82 14.98 C27.8 16.45, 22.09 17.15, 3.74 14.98 C2.5 13.52, -1.44 11.61, 0 11.23 C-0.92 8.82, -0.08 6.32, 0 3.74 C-0.82 2.97, 0.87 1.98, 3.74 0" stroke="none" stroke-width="0" fill="#868e96"></path><path d="M3.74 0 C12.19 0.39, 21.35 -0.78, 34.82 0 M3.74 0 C12.74 0.42, 20.74 -0.1, 34.82 0 M34.82 0 C36.94 0.21, 37.63 1.96, 38.57 3.74 M34.82 0 C37.3 -0.3, 38.88 1.82, 38.57 3.74 M38.57 3.74 C38.73 5.48, 38.19 7.28, 38.57 11.23 M38.57 3.74 C38.66 5.77, 38.75 7.69, 38.57 11.23 M38.57 11.23 C38.51 12.77, 38.05 15.97, 34.82 14.98 M38.57 11.23 C38.32 12.86, 36.32 15.66, 34.82 14.98 M34.82 14.98 C25.05 14.25, 12.54 15.32, 3.74 14.98 M34.82 14.98 C23.38 15.31, 12.49 15.08, 3.74 14.98 M3.74 14.98 C0.69 15.38, -0.67 13.57, 0 11.23 M3.74 14.98 C0.19 15.54, -0.57 12.63, 0 11.23 M0 11.23 C0.22 9.74, -0.27 7.77, 0 3.74 M0 11.23 C0 8.34, 0.07 5.55, 0 3.74 M0 3.74 C0.4 1.05, 0.93 0.24, 3.74 0 M0 3.74 C0.86 0.49, 1.15 0.03, 3.74 0" stroke="#343a40" stroke-width="2" fill="none"></path></g><g stroke-linecap="round" transform="translate(66.23235194657354 79.23082182887356) rotate(47.524435689906944 13.974609375 10.47265625)"><path d="M5.24 0 C11.7 -1.99, 13.5 -0.89, 22.71 0 C23.97 2.05, 25.67 5.05, 27.95 5.24 C26.92 9.12, 27.43 13.59, 27.95 15.71 C28.2 19.98, 22.63 22.35, 22.71 20.95 C15.59 23.27, 10.59 19.31, 5.24 20.95 C-0.24 18.02, 0.61 17.29, 0 15.71 C-0.07 12.07, -0.41 10.31, 0 5.24 C-0.53 4.48, 0.6 2.35, 5.24 0" stroke="none" stroke-width="0" fill="#fcc2d7"></path><path d="M5.24 0 C10.36 -1.66, 12.04 -0.63, 22.71 0 M5.24 0 C9.56 -0.35, 14.94 0.04, 22.71 0 M22.71 0 C24.33 1.42, 27.91 1.23, 27.95 5.24 M22.71 0 C26.84 1.14, 26.69 1.09, 27.95 5.24 M27.95 5.24 C26.98 8.85, 27.58 13.66, 27.95 15.71 M27.95 5.24 C28.47 7.67, 27.97 9.32, 27.95 15.71 M27.95 15.71 C29.41 21.18, 25.78 19.43, 22.71 20.95 M27.95 15.71 C25.96 20.58, 27.26 21.7, 22.71 20.95 M22.71 20.95 C17.27 21.62, 15.61 22.33, 5.24 20.95 M22.71 20.95 C16.83 21.1, 10.23 21.39, 5.24 20.95 M5.24 20.95 C0.41 20.64, -1.84 20.18, 0 15.71 M5.24 20.95 C0.6 18.75, -1.9 18.33, 0 15.71 M0 15.71 C-0.86 11.37, 0.86 7.38, 0 5.24 M0 15.71 C0.13 13.56, 0.23 10.65, 0 5.24 M0 5.24 C-0.64 2.23, 3.24 -1.32, 5.24 0 M0 5.24 C-0.19 1.8, 0.21 -1.03, 5.24 0" stroke="#1e1e1e" stroke-width="2" fill="none"></path></g><g stroke-linecap="round" transform="translate(28.403524648314487 38.00359175136782) rotate(47.524435689906944 25.4296875 23.859375)"><path d="M18.79 1.32 C23.98 0.03, 32.2 0.71, 37.04 2.74 C41.88 4.77, 45.56 9.03, 47.85 13.51 C50.14 17.98, 52.24 24.58, 50.78 29.57 C49.32 34.55, 43.74 40.37, 39.1 43.41 C34.46 46.45, 28.15 48.23, 22.94 47.81 C17.73 47.39, 11.68 44.66, 7.84 40.91 C3.99 37.16, 0.34 30.35, -0.13 25.31 C-0.6 20.27, 1.43 14.86, 5.03 10.66 C8.64 6.47, 18.13 1.93, 21.49 0.12 C24.85 -1.69, 25.1 -0.45, 25.19 -0.19 M29.11 0.85 C34.29 1.07, 40.84 4.08, 44.6 7.8 C48.37 11.53, 51.46 17.74, 51.71 23.18 C51.96 28.62, 49.6 36.44, 46.1 40.42 C42.59 44.41, 36.44 46.42, 30.68 47.09 C24.92 47.75, 16.49 46.88, 11.53 44.41 C6.57 41.94, 2.55 37.05, 0.91 32.27 C-0.72 27.5, -0.02 20.54, 1.74 15.77 C3.5 11, 6.52 6.28, 11.48 3.65 C16.43 1.01, 28.28 0.45, 31.48 -0.04 C34.68 -0.52, 30.81 0.15, 30.68 0.74" stroke="none" stroke-width="0" fill="#fcc2d7"></path><path d="M21.97 -0.45 C27 -1.73, 33.44 0.34, 38.04 2.9 C42.65 5.46, 47.6 10.03, 49.59 14.91 C51.58 19.78, 51.95 27.15, 49.98 32.15 C48 37.14, 42.51 42.44, 37.74 44.87 C32.97 47.31, 26.71 47.61, 21.35 46.78 C15.98 45.95, 9.04 43.8, 5.56 39.91 C2.08 36.02, 0.56 28.74, 0.48 23.43 C0.4 18.11, 1.37 11.85, 5.09 8.02 C8.81 4.2, 19.57 1.66, 22.79 0.47 C26.01 -0.71, 24.24 0.42, 24.41 0.9 M30.06 1.71 C35.19 2.14, 40.76 3.05, 44.01 6.75 C47.25 10.45, 49.18 18.54, 49.54 23.92 C49.9 29.3, 49.47 34.91, 46.16 39.03 C42.86 43.16, 35.33 47.88, 29.73 48.67 C24.12 49.45, 17.09 46.25, 12.56 43.76 C8.03 41.26, 4.2 38.15, 2.53 33.71 C0.86 29.27, 1.08 22.02, 2.52 17.14 C3.97 12.26, 6.77 7.22, 11.21 4.42 C15.65 1.62, 26.35 0.86, 29.15 0.34 C31.96 -0.18, 28.3 0.98, 28.05 1.31" stroke="#1e1e1e" stroke-width="2" fill="none"></path></g></svg>