<svg version="1.1" xmlns="http://www.w3.org/2000/svg" viewBox="0 0 116.80622209821377 127.12357954545405" width="116.80622209821377" height="127.12357954545405">
  <!-- svg-source:excalidraw -->
  
  <defs>
    <style class="style-fonts">
      @font-face {
        font-family: "Virgil";
        src: url("https://excalidraw.com/Virgil.woff2");
      }
      @font-face {
        font-family: "Cascadia";
        src: url("https://excalidraw.com/Cascadia.woff2");
      }
      @font-face {
        font-family: "Assistant";
        src: url("https://excalidraw.com/Assistant-Regular.woff2");
      }
    </style>
    
  </defs>
  <g stroke-linecap="round" transform="translate(21.544503348213766 24.85274621212011) rotate(0 42.630859375 38.322265625)"><path d="M19.16 0 C31.19 -2.13, 44.16 -2.52, 66.1 0 C78.32 -3.32, 87.03 4.6, 85.26 19.16 C86.81 29.02, 86.03 32.09, 85.26 57.48 C83.26 73.41, 76.1 74.35, 66.1 76.64 C55.08 78.28, 38.83 75.68, 19.16 76.64 C7.26 79.33, -2.37 69.97, 0 57.48 C-2.77 47.24, -1.19 37.51, 0 19.16 C-2.44 7.43, 5.21 -2.23, 19.16 0" stroke="none" stroke-width="0" fill="#e64980"></path><path d="M19.16 0 C34.6 1.38, 52.73 1.19, 66.1 0 M19.16 0 C37.42 -0.69, 55.96 0.51, 66.1 0 M66.1 0 C77.56 -1.8, 85.94 4.48, 85.26 19.16 M66.1 0 C80.52 -2.25, 84.17 7.31, 85.26 19.16 M85.26 19.16 C86.04 33.02, 84.4 42.54, 85.26 57.48 M85.26 19.16 C85.61 33.58, 84.82 49.96, 85.26 57.48 M85.26 57.48 C83.36 70.43, 79.36 78.41, 66.1 76.64 M85.26 57.48 C83.14 69.79, 78.1 76.34, 66.1 76.64 M66.1 76.64 C48.65 75.53, 32.58 74.4, 19.16 76.64 M66.1 76.64 C48.96 77.02, 30.73 76.24, 19.16 76.64 M19.16 76.64 C8.05 77.6, -0.55 68.32, 0 57.48 M19.16 76.64 C5.51 75.72, 0.87 68.39, 0 57.48 M0 57.48 C0.4 44.25, -2.07 32.7, 0 19.16 M0 57.48 C-0.79 42.8, 0.54 27.24, 0 19.16 M0 19.16 C-1.33 8.35, 5.14 -1.56, 19.16 0 M0 19.16 C1.03 7.78, 8.35 0.99, 19.16 0" stroke="#1e1e1e" stroke-width="2" fill="none"></path></g><g stroke-linecap="round" transform="translate(45.41349600919875 102.14701704545405) rotate(0 19.283203125 7.48828125)"><path d="M3.74 0 C14.53 -1.51, 22.79 -2.17, 34.82 0 C38.6 -1.29, 36.09 -0.9, 38.57 3.74 C38.99 4.96, 38.08 8.52, 38.57 11.23 C36.56 12.07, 36.87 15.14, 34.82 14.98 C24.32 14.31, 15.5 17.08, 3.74 14.98 C-0.46 14.77, 0.06 11.99, 0 11.23 C-0.36 10.18, -0.57 7.69, 0 3.74 C-0.85 -0.36, 2.73 -1.65, 3.74 0" stroke="none" stroke-width="0" fill="#868e96"></path><path d="M3.74 0 C14.56 0.59, 26.61 0.52, 34.82 0 M3.74 0 C14.81 0.43, 24.62 -0.37, 34.82 0 M34.82 0 C37.66 -0.95, 39.28 0.27, 38.57 3.74 M34.82 0 C36.77 0.46, 38.86 1.58, 38.57 3.74 M38.57 3.74 C38.4 4.95, 38.95 6.62, 38.57 11.23 M38.57 3.74 C38.53 6.7, 38.41 9.59, 38.57 11.23 M38.57 11.23 C38.81 14.61, 36.39 14.77, 34.82 14.98 M38.57 11.23 C38.18 13.58, 38.02 15.89, 34.82 14.98 M34.82 14.98 C28.14 13.98, 21.76 14.9, 3.74 14.98 M34.82 14.98 C26.03 14.91, 18.2 15.29, 3.74 14.98 M3.74 14.98 C0.97 14.01, -0.38 13.33, 0 11.23 M3.74 14.98 C1.69 14.04, 0.49 14.2, 0 11.23 M0 11.23 C-0.37 8.57, 0.36 5.29, 0 3.74 M0 11.23 C0.12 9.61, -0.09 8.06, 0 3.74 M0 3.74 C-0.63 0.47, 1.7 0.6, 3.74 0 M0 3.74 C0.98 1.74, 0.68 0.61, 3.74 0" stroke="#1e1e1e" stroke-width="2" fill="none"></path></g><g stroke-linecap="round" transform="translate(45.59936840503178 10) rotate(0 19.283203125 7.48828125)"><path d="M3.74 0 C10.92 -2.13, 20.17 -1.02, 34.82 0 C34.84 -2.15, 37.59 2.78, 38.57 3.74 C38.06 7.26, 37.85 8.46, 38.57 11.23 C38.12 13.89, 37.86 16.6, 34.82 14.98 C24.87 16.79, 11.95 14.64, 3.74 14.98 C1.31 13.24, -1.16 11.4, 0 11.23 C-0.62 8.99, -0.27 5.58, 0 3.74 C1.48 -0.4, 3.63 1.77, 3.74 0" stroke="none" stroke-width="0" fill="#868e96"></path><path d="M3.74 0 C16.44 0.54, 27.9 0.21, 34.82 0 M3.74 0 C11.2 -0.56, 19.48 -0.59, 34.82 0 M34.82 0 C38.03 -0.98, 38.09 1.65, 38.57 3.74 M34.82 0 C37.61 0.34, 37.42 1.63, 38.57 3.74 M38.57 3.74 C38.92 6.38, 38.88 9.45, 38.57 11.23 M38.57 3.74 C38.38 5.35, 38.6 7.1, 38.57 11.23 M38.57 11.23 C37.64 13.53, 36.98 14.85, 34.82 14.98 M38.57 11.23 C39.27 14.64, 36.42 14.69, 34.82 14.98 M34.82 14.98 C27.37 14.81, 18.24 15.11, 3.74 14.98 M34.82 14.98 C24.37 15.17, 12.95 14.45, 3.74 14.98 M3.74 14.98 C0.87 14.57, 0.38 12.92, 0 11.23 M3.74 14.98 C1.74 15.45, 1.05 14.05, 0 11.23 M0 11.23 C0.41 8.95, -0.25 6.49, 0 3.74 M0 11.23 C-0.14 8.72, -0.13 5.7, 0 3.74 M0 3.74 C0.45 1.85, 2.1 0.43, 3.74 0 M0 3.74 C-0.57 1.85, 1.4 0.08, 3.74 0" stroke="#343a40" stroke-width="2" fill="none"></path></g><g stroke-linecap="round" transform="translate(10 53.475852272726115) rotate(0 13.974609375 10.47265625)"><path d="M5.24 0 C10.86 -1.27, 10.38 -2.31, 22.71 0 C24.85 2.12, 29.97 3.08, 27.95 5.24 C26.39 6.38, 27.52 10.04, 27.95 15.71 C28.71 21.45, 27.66 20.22, 22.71 20.95 C15.96 20.92, 13.41 19.07, 5.24 20.95 C0.14 17.72, 1.34 17.55, 0 15.71 C-0.49 10.47, 1.2 6.38, 0 5.24 C3.3 4.19, 4.42 -0.75, 5.24 0" stroke="none" stroke-width="0" fill="#fcc2d7"></path><path d="M5.24 0 C12.46 0.44, 17.38 1.5, 22.71 0 M5.24 0 C12.01 -0.67, 18.82 -0.7, 22.71 0 M22.71 0 C25.26 0.81, 28.46 2.33, 27.95 5.24 M22.71 0 C23.92 0.76, 29.54 0.63, 27.95 5.24 M27.95 5.24 C28.99 8.05, 27.14 9.54, 27.95 15.71 M27.95 5.24 C27.98 9.07, 27.37 11.87, 27.95 15.71 M27.95 15.71 C27.28 18.94, 27.43 22.54, 22.71 20.95 M27.95 15.71 C26.14 18.64, 25.34 21.42, 22.71 20.95 M22.71 20.95 C18.66 21.42, 16.38 19.99, 5.24 20.95 M22.71 20.95 C17.73 20.18, 12.89 20.68, 5.24 20.95 M5.24 20.95 C2.51 19.32, 0.85 20.02, 0 15.71 M5.24 20.95 C3.85 21.59, -0.12 17, 0 15.71 M0 15.71 C-0.9 10.89, 0.52 8.37, 0 5.24 M0 15.71 C-0.26 11.82, 0.31 9.06, 0 5.24 M0 5.24 C1.71 2.61, 0.76 1.06, 5.24 0 M0 5.24 C0.3 1.91, 0.45 0.94, 5.24 0" stroke="#1e1e1e" stroke-width="2" fill="none"></path></g><g stroke-linecap="round" transform="translate(36.888671875 39.436789772726115) rotate(0 25.4296875 23.859375)"><path d="M35.72 3.19 C40.63 5.04, 47.47 9.63, 49.7 14.04 C51.92 18.45, 50.68 24.65, 49.09 29.67 C47.5 34.69, 44.5 41.29, 40.16 44.16 C35.81 47.03, 28.34 47.65, 22.99 46.91 C17.63 46.17, 11.99 43.24, 8.04 39.73 C4.09 36.22, -0.31 30.72, -0.73 25.87 C-1.15 21.01, 2.1 14.88, 5.53 10.6 C8.95 6.33, 13.77 1.07, 19.82 0.19 C25.86 -0.69, 37.62 3.93, 41.79 5.31 C45.95 6.7, 45.08 8.32, 44.8 8.5 M22.73 -1.36 C27.89 -2.25, 34.29 0.54, 38.99 3.89 C43.69 7.25, 49.29 13.91, 50.94 18.76 C52.6 23.62, 51.56 28.33, 48.92 33.02 C46.28 37.71, 40.35 44.75, 35.1 46.9 C29.86 49.04, 22.59 47.46, 17.44 45.89 C12.29 44.31, 7.02 41.34, 4.19 37.44 C1.36 33.53, -0.24 27.63, 0.44 22.47 C1.11 17.32, 4.48 10.18, 8.24 6.51 C12 2.84, 20.27 1.59, 23 0.43 C25.73 -0.73, 24.54 -0.78, 24.63 -0.44" stroke="none" stroke-width="0" fill="#fcc2d7"></path><path d="M35.83 2.83 C40.34 4.94, 45.61 10.47, 47.78 15.02 C49.95 19.57, 50.16 25.29, 48.85 30.12 C47.54 34.95, 44.23 41.24, 39.91 43.99 C35.58 46.73, 28.32 47.07, 22.89 46.58 C17.46 46.08, 11.23 44.67, 7.35 41.01 C3.46 37.34, -0.2 29.85, -0.44 24.57 C-0.67 19.3, 2.49 13.26, 5.95 9.36 C9.41 5.45, 15 2.16, 20.34 1.15 C25.68 0.14, 34.59 2.76, 38 3.3 C41.41 3.83, 40.85 3.91, 40.79 4.34 M35.78 2.09 C40.98 4.13, 47.28 10.46, 49.45 15.07 C51.61 19.68, 50.47 24.99, 48.79 29.77 C47.1 34.56, 43.88 40.62, 39.36 43.77 C34.84 46.93, 27.03 49.27, 21.69 48.68 C16.35 48.1, 10.87 43.95, 7.34 40.26 C3.81 36.58, 1.08 31.68, 0.5 26.58 C-0.08 21.48, 0.56 13.84, 3.85 9.66 C7.13 5.48, 14.87 2.97, 20.21 1.5 C25.55 0.03, 33.32 0.73, 35.87 0.83 C38.41 0.93, 35.51 1.71, 35.49 2.11" stroke="#1e1e1e" stroke-width="2" fill="none"></path></g></svg>