<svg version="1.1" xmlns="http://www.w3.org/2000/svg" viewBox="0 0 106.9432792787634 127.12357954545405" width="106.9432792787634" height="127.12357954545405">
  <!-- svg-source:excalidraw -->
  
  <defs>
    <style class="style-fonts">
      @font-face {
        font-family: "Virgil";
        src: url("https://excalidraw.com/Virgil.woff2");
      }
      @font-face {
        font-family: "Cascadia";
        src: url("https://excalidraw.com/Cascadia.woff2");
      }
      @font-face {
        font-family: "Assistant";
        src: url("https://excalidraw.com/Assistant-Regular.woff2");
      }
    </style>
    
  </defs>
  <g stroke-linecap="round" transform="translate(11.681560528763399 24.85274621212011) rotate(0 42.630859375 38.322265625)"><path d="M19.16 0 C29.55 2.82, 44.68 2.04, 66.1 0 C76.13 -2, 88.41 3.61, 85.26 19.16 C85.9 30.47, 86.6 36.55, 85.26 57.48 C84.12 71.13, 81.56 74.28, 66.1 76.64 C50.79 72.85, 40.04 74.43, 19.16 76.64 C9.57 74.2, 1.04 69.08, 0 57.48 C2.91 50.81, 2.28 38.48, 0 19.16 C-2.23 6.45, 5.14 1.22, 19.16 0" stroke="none" stroke-width="0" fill="#e64980"></path><path d="M19.16 0 C36.15 -1.74, 48.51 0.25, 66.1 0 M19.16 0 C28.3 0.86, 38.64 0.75, 66.1 0 M66.1 0 C76.89 0.66, 86.64 5.41, 85.26 19.16 M66.1 0 C77.06 2.28, 84.47 8.43, 85.26 19.16 M85.26 19.16 C85.36 30.59, 85.1 46.3, 85.26 57.48 M85.26 19.16 C84.57 33.91, 85.52 49.71, 85.26 57.48 M85.26 57.48 C83.69 69.77, 78.13 77.06, 66.1 76.64 M85.26 57.48 C83.1 71.89, 78.83 76.05, 66.1 76.64 M66.1 76.64 C50.16 78.05, 36.31 75.84, 19.16 76.64 M66.1 76.64 C56.95 75.64, 47.46 76.86, 19.16 76.64 M19.16 76.64 C8.22 77.2, -0.1 68.35, 0 57.48 M19.16 76.64 C8.07 78.92, -0.48 68.51, 0 57.48 M0 57.48 C0.42 47.97, 1.73 39.88, 0 19.16 M0 57.48 C0.68 49.41, -0.67 41.01, 0 19.16 M0 19.16 C0.26 6.53, 5.26 0.81, 19.16 0 M0 19.16 C-1.54 6.03, 4.27 1.13, 19.16 0" stroke="#1e1e1e" stroke-width="2" fill="none"></path></g><g stroke-linecap="round" transform="translate(35.550553189748385 102.14701704545405) rotate(0 19.283203125 7.48828125)"><path d="M3.74 0 C11.96 0.73, 15.27 -1.68, 34.82 0 C39.59 -2, 36.91 0.8, 38.57 3.74 C38.98 5.84, 38.28 8.57, 38.57 11.23 C40.51 12.02, 37.11 15.03, 34.82 14.98 C28.55 13.42, 22.64 12.85, 3.74 14.98 C2 14.12, -1.61 15.21, 0 11.23 C0.63 9.26, -0.69 7.7, 0 3.74 C-0.9 2.13, 1.43 0.56, 3.74 0" stroke="none" stroke-width="0" fill="#868e96"></path><path d="M3.74 0 C15.03 0.44, 27.17 0.82, 34.82 0 M3.74 0 C10.16 0.08, 15.82 0.1, 34.82 0 M34.82 0 C38.01 -0.49, 37.78 2.24, 38.57 3.74 M34.82 0 C36.92 1.02, 39.12 0.24, 38.57 3.74 M38.57 3.74 C38.61 5.85, 38.9 7.43, 38.57 11.23 M38.57 3.74 C38.67 5.99, 38.41 7.89, 38.57 11.23 M38.57 11.23 C38.19 13.93, 36.38 15.69, 34.82 14.98 M38.57 11.23 C38.54 13.43, 37.63 15.55, 34.82 14.98 M34.82 14.98 C27.68 14.83, 18.61 14.72, 3.74 14.98 M34.82 14.98 C26.96 15.05, 19.13 14.99, 3.74 14.98 M3.74 14.98 C1.2 14.02, 0.73 14.72, 0 11.23 M3.74 14.98 C1.01 14.11, -1 14.42, 0 11.23 M0 11.23 C0.36 8.41, -0.31 6.22, 0 3.74 M0 11.23 C-0.12 8.63, -0.01 5.85, 0 3.74 M0 3.74 C-0.56 1.66, 0.58 -0.15, 3.74 0 M0 3.74 C-1.06 1.81, 0.68 -1.1, 3.74 0" stroke="#1e1e1e" stroke-width="2" fill="none"></path></g><g stroke-linecap="round" transform="translate(35.736425585581415 10) rotate(0 19.283203125 7.48828125)"><path d="M3.74 0 C12.91 -1.59, 28.33 -2.15, 34.82 0 C35.66 -0.45, 38.73 1.79, 38.57 3.74 C38.3 6.69, 39.33 8.53, 38.57 11.23 C38.36 13.79, 35.58 13.82, 34.82 14.98 C30.59 13.03, 22.5 13.94, 3.74 14.98 C-0.36 16.46, -1.65 16.11, 0 11.23 C-0.68 8.49, -0.41 6.05, 0 3.74 C0.18 1.81, -1.33 1.01, 3.74 0" stroke="none" stroke-width="0" fill="#868e96"></path><path d="M3.74 0 C10.08 0.66, 17.34 -0.53, 34.82 0 M3.74 0 C13.82 0.12, 25.24 -0.29, 34.82 0 M34.82 0 C36.53 0.99, 38.22 2.14, 38.57 3.74 M34.82 0 C37.87 -1, 38.21 1.5, 38.57 3.74 M38.57 3.74 C38.9 4.93, 38.49 6.69, 38.57 11.23 M38.57 3.74 C38.44 5.85, 38.52 8.08, 38.57 11.23 M38.57 11.23 C37.63 14.44, 37.3 14.72, 34.82 14.98 M38.57 11.23 C38.88 14.3, 36.69 14.65, 34.82 14.98 M34.82 14.98 C21.94 14.55, 10.6 15.31, 3.74 14.98 M34.82 14.98 C28.48 15.18, 21.2 14.56, 3.74 14.98 M3.74 14.98 C1.98 15.97, -0.21 12.97, 0 11.23 M3.74 14.98 C0.25 15.66, 0.53 14.1, 0 11.23 M0 11.23 C-0.33 9.65, 0.19 8.06, 0 3.74 M0 11.23 C0.04 8.68, -0.09 6.17, 0 3.74 M0 3.74 C-0.67 1.09, 0.33 0.49, 3.74 0 M0 3.74 C-0.57 0.15, 0.3 -0.43, 3.74 0" stroke="#343a40" stroke-width="2" fill="none"></path></g><g stroke-linecap="round" transform="translate(13.186373760761413 77.90604504315706) rotate(312.47556431009303 13.974609375 10.47265625)"><path d="M5.24 0 C13.88 -2.25, 15.02 -0.37, 22.71 0 C26.43 0.76, 30.2 3.2, 27.95 5.24 C29.29 6.93, 27.74 11.14, 27.95 15.71 C25.54 17.59, 22.98 22.28, 22.71 20.95 C19.18 19.7, 11.88 22.52, 5.24 20.95 C-0.53 24.25, 2.45 21.88, 0 15.71 C-0.54 13.43, 0.25 10.27, 0 5.24 C-3.57 3.15, 4.99 -1.08, 5.24 0" stroke="none" stroke-width="0" fill="#fcc2d7"></path><path d="M5.24 0 C9.37 -0.95, 17.61 0.32, 22.71 0 M5.24 0 C11.59 -0.48, 16.05 0.81, 22.71 0 M22.71 0 C25.51 1.78, 28.9 0, 27.95 5.24 M22.71 0 C25.49 0.5, 25.76 1.94, 27.95 5.24 M27.95 5.24 C27.83 8.28, 27.9 12.67, 27.95 15.71 M27.95 5.24 C27.67 9.32, 27.38 13.56, 27.95 15.71 M27.95 15.71 C27.91 18.68, 26.75 21.94, 22.71 20.95 M27.95 15.71 C26.69 18.54, 28.12 22.04, 22.71 20.95 M22.71 20.95 C17.25 21.54, 11.77 21.62, 5.24 20.95 M22.71 20.95 C16.71 20.16, 11.44 21.86, 5.24 20.95 M5.24 20.95 C1.32 19.43, -1.73 20.4, 0 15.71 M5.24 20.95 C2.8 21.7, -1.53 21.46, 0 15.71 M0 15.71 C0.71 14.12, 0.53 10.22, 0 5.24 M0 15.71 C-0.31 12.23, -0.36 8.24, 0 5.24 M0 5.24 C-1.84 2.73, 0.75 -1.91, 5.24 0 M0 5.24 C-1.9 0.88, 3.1 1.29, 5.24 0" stroke="#1e1e1e" stroke-width="2" fill="none"></path></g><g stroke-linecap="round" transform="translate(28.10504480902047 37.022564965653146) rotate(312.47556431009303 25.4296875 23.859375)"><path d="M32.21 0 C37.14 1, 41.8 5.67, 45 10.01 C48.21 14.35, 51.52 21.09, 51.42 26.03 C51.32 30.98, 48.15 36.08, 44.41 39.69 C40.67 43.3, 34.45 47.08, 28.98 47.68 C23.51 48.27, 16.17 46.2, 11.59 43.27 C7.01 40.34, 3.11 35.05, 1.5 30.1 C-0.12 25.14, -0.26 18.22, 1.9 13.55 C4.06 8.88, 9.19 4.21, 14.45 2.07 C19.7 -0.07, 29.71 0.41, 33.43 0.7 C37.15 0.99, 36.67 3.24, 36.77 3.81 M14.8 0.76 C19.58 -1.53, 27.66 -0.63, 33.08 1.28 C38.51 3.19, 44.32 7.93, 47.34 12.2 C50.36 16.48, 52.11 21.97, 51.21 26.93 C50.31 31.9, 45.9 38.69, 41.92 41.99 C37.95 45.29, 32.76 46.61, 27.38 46.72 C21.99 46.83, 14.25 45.76, 9.61 42.66 C4.97 39.56, 0.86 33.01, -0.46 28.1 C-1.79 23.18, -0.96 17.34, 1.66 13.17 C4.28 8.99, 13.03 4.81, 15.27 3.04 C17.52 1.28, 14.94 2.6, 15.13 2.59" stroke="none" stroke-width="0" fill="#fcc2d7"></path><path d="M29 0.89 C34.05 1.24, 39.84 3.31, 43.64 6.9 C47.44 10.48, 51.34 17.08, 51.82 22.4 C52.31 27.72, 50.16 34.73, 46.54 38.8 C42.93 42.88, 35.56 45.94, 30.14 46.83 C24.71 47.71, 18.65 46.36, 13.97 44.11 C9.29 41.85, 4.04 38.01, 2.05 33.3 C0.06 28.59, 0.46 20.81, 2.04 15.83 C3.61 10.85, 6.47 5.83, 11.5 3.44 C16.53 1.05, 28.05 1.79, 32.2 1.51 C36.36 1.23, 36.57 1.53, 36.43 1.74 M28.01 -0.26 C33.49 -0.12, 40.44 4.33, 44.1 8 C47.76 11.66, 49.44 16.62, 49.97 21.72 C50.5 26.81, 50.41 34.59, 47.28 38.56 C44.16 42.53, 36.81 44.52, 31.22 45.54 C25.63 46.57, 18.5 46.91, 13.76 44.72 C9.02 42.53, 4.82 36.85, 2.79 32.39 C0.77 27.93, -0.02 22.59, 1.61 17.94 C3.23 13.3, 8.15 7.73, 12.54 4.52 C16.93 1.32, 25.2 -0.9, 27.96 -1.31 C30.71 -1.71, 29.16 1.64, 29.08 2.08" stroke="#1e1e1e" stroke-width="2" fill="none"></path></g></svg>