<svg version="1.1" xmlns="http://www.w3.org/2000/svg" viewBox="0 0 106.88189535019183 127.12357954545405" width="106.88189535019183" height="127.12357954545405">
  <!-- svg-source:excalidraw -->
  
  <defs>
    <style class="style-fonts">
      @font-face {
        font-family: "Virgil";
        src: url("https://excalidraw.com/Virgil.woff2");
      }
      @font-face {
        font-family: "Cascadia";
        src: url("https://excalidraw.com/Cascadia.woff2");
      }
      @font-face {
        font-family: "Assistant";
        src: url("https://excalidraw.com/Assistant-Regular.woff2");
      }
    </style>
    
  </defs>
  <g stroke-linecap="round" transform="translate(10 24.85274621212102) rotate(0 42.630859375 38.322265625)"><path d="M19.16 0 C33.66 -1.14, 53.69 1.6, 66.1 0 C75.95 1.53, 86.73 9.69, 85.26 19.16 C87.86 35.29, 84.47 41.56, 85.26 57.48 C82.14 72.41, 80.53 77.82, 66.1 76.64 C52.33 77.73, 46.37 79.19, 19.16 76.64 C7.94 74.87, 1.9 70.72, 0 57.48 C-2.02 45.15, -2.93 35.7, 0 19.16 C-1.79 2.95, 3.41 -1.36, 19.16 0" stroke="none" stroke-width="0" fill="#e64980"></path><path d="M19.16 0 C34.69 1.52, 48.87 1.67, 66.1 0 M19.16 0 C30.59 -1.34, 43.51 -1.31, 66.1 0 M66.1 0 C80.32 0.52, 84.44 8.2, 85.26 19.16 M66.1 0 C79.65 -1.52, 85.37 7.69, 85.26 19.16 M85.26 19.16 C84.8 26.73, 83.01 39.08, 85.26 57.48 M85.26 19.16 C86.05 31.69, 86.32 45.57, 85.26 57.48 M85.26 57.48 C86.71 71.9, 80.18 77.47, 66.1 76.64 M85.26 57.48 C85.99 69.12, 80.99 78.27, 66.1 76.64 M66.1 76.64 C53.19 78.24, 42.14 75.86, 19.16 76.64 M66.1 76.64 C49.14 77.11, 34.85 76.3, 19.16 76.64 M19.16 76.64 C4.81 78.63, -0.69 72.04, 0 57.48 M19.16 76.64 C7.49 74.64, -0.71 70.76, 0 57.48 M0 57.48 C1.73 47.78, -0.44 41.11, 0 19.16 M0 57.48 C-1.02 46.24, -0.61 35.7, 0 19.16 M0 19.16 C-1.88 7.81, 6.35 -0.52, 19.16 0 M0 19.16 C0.63 7.53, 5.13 -0.66, 19.16 0" stroke="#1e1e1e" stroke-width="2" fill="none"></path></g><g stroke-linecap="round" transform="translate(33.86899266098453 102.14701704545405) rotate(0 19.283203125 7.48828125)"><path d="M3.74 0 C11.16 1.14, 18.56 1.26, 34.82 0 C38.38 2.38, 39.29 1.11, 38.57 3.74 C38.43 4.54, 37.79 7.39, 38.57 11.23 C39.76 14.58, 35.58 17.53, 34.82 14.98 C29.01 17.38, 21.18 13.88, 3.74 14.98 C2.62 15.31, 0.19 12.27, 0 11.23 C-0.83 9.16, -0.42 5.2, 0 3.74 C-2.15 0.27, 2.78 1.46, 3.74 0" stroke="none" stroke-width="0" fill="#868e96"></path><path d="M3.74 0 C11.07 0.61, 18.75 -1.1, 34.82 0 M3.74 0 C15.91 -0.3, 28.35 0.27, 34.82 0 M34.82 0 C36.91 0.91, 38.9 0.59, 38.57 3.74 M34.82 0 C37.37 0.65, 37.9 0.25, 38.57 3.74 M38.57 3.74 C38.2 6.96, 38.74 9.9, 38.57 11.23 M38.57 3.74 C38.74 5.25, 38.72 6.98, 38.57 11.23 M38.57 11.23 C39.22 14.14, 37.64 14.48, 34.82 14.98 M38.57 11.23 C39.63 14.54, 36.56 13.94, 34.82 14.98 M34.82 14.98 C23.47 14.61, 14.46 15.34, 3.74 14.98 M34.82 14.98 C24.94 14.79, 13.97 15.52, 3.74 14.98 M3.74 14.98 C0.9 15.87, 0.48 12.86, 0 11.23 M3.74 14.98 C0.89 15.23, -1.09 13.83, 0 11.23 M0 11.23 C-0.11 8.68, -0.08 6.61, 0 3.74 M0 11.23 C-0.04 8.43, -0.15 5.68, 0 3.74 M0 3.74 C-0.02 0.99, 1.52 0.5, 3.74 0 M0 3.74 C-0.63 0.92, 2.21 0.55, 3.74 0" stroke="#1e1e1e" stroke-width="2" fill="none"></path></g><g stroke-linecap="round" transform="translate(34.05486505681802 10) rotate(0 19.283203125 7.48828125)"><path d="M3.74 0 C9.77 0.95, 21.08 2.23, 34.82 0 C38.04 -0.14, 36.08 3.15, 38.57 3.74 C37.7 7.31, 38.99 10.04, 38.57 11.23 C36.83 16.28, 35.69 12.94, 34.82 14.98 C25.22 14.04, 14.76 15.66, 3.74 14.98 C1.44 13.51, 1.06 11.99, 0 11.23 C-0.39 8.17, -0.72 6.6, 0 3.74 C1.53 2.71, 2.21 -1.98, 3.74 0" stroke="none" stroke-width="0" fill="#868e96"></path><path d="M3.74 0 C14.64 -1.11, 27.26 -0.81, 34.82 0 M3.74 0 C10.57 0.27, 16.46 0.59, 34.82 0 M34.82 0 C37.66 -0.66, 38.61 1.81, 38.57 3.74 M34.82 0 C36.65 -1, 39.66 1.17, 38.57 3.74 M38.57 3.74 C38.71 5.59, 38.18 7.17, 38.57 11.23 M38.57 3.74 C38.73 5.56, 38.72 7.15, 38.57 11.23 M38.57 11.23 C38.88 13.23, 38.24 15.68, 34.82 14.98 M38.57 11.23 C37.81 12.69, 37.71 13.88, 34.82 14.98 M34.82 14.98 C23.68 15.16, 12.01 13.91, 3.74 14.98 M34.82 14.98 C24.07 15.4, 13.94 15.35, 3.74 14.98 M3.74 14.98 C1.73 14.1, -0.31 13.95, 0 11.23 M3.74 14.98 C0.15 15.07, 0.28 14.74, 0 11.23 M0 11.23 C-0.04 9.91, 0.31 7.83, 0 3.74 M0 11.23 C-0.16 9.3, 0.01 7.06, 0 3.74 M0 3.74 C0.27 1.75, 0.7 -0.29, 3.74 0 M0 3.74 C0.96 1.8, 0.93 -1.12, 3.74 0" stroke="#343a40" stroke-width="2" fill="none"></path></g><g stroke-linecap="round" transform="translate(65.74630283943043 23.860949680865815) rotate(312.47556431009303 13.974609375 10.47265625)"><path d="M5.24 0 C12.43 2.75, 17.93 -0.3, 22.71 0 C22.77 2.64, 31.51 0.99, 27.95 5.24 C28.65 8.2, 26.53 11.78, 27.95 15.71 C25.7 16.38, 27.82 23.12, 22.71 20.95 C17.64 21.2, 9.47 19.02, 5.24 20.95 C3.21 18.54, -0.55 15.88, 0 15.71 C-1.47 11.34, 1.2 9.45, 0 5.24 C1.34 -1, -0.25 3.15, 5.24 0" stroke="none" stroke-width="0" fill="#fcc2d7"></path><path d="M5.24 0 C13.3 -1.04, 16.6 0.34, 22.71 0 M5.24 0 C8.56 0.75, 12.9 -0.62, 22.71 0 M22.71 0 C26.3 1.13, 26.79 0.01, 27.95 5.24 M22.71 0 C28.4 -0.15, 26 -0.47, 27.95 5.24 M27.95 5.24 C27.02 9.67, 27.18 13.82, 27.95 15.71 M27.95 5.24 C28.37 8.37, 28.19 10.82, 27.95 15.71 M27.95 15.71 C29.79 20.61, 24.89 19.14, 22.71 20.95 M27.95 15.71 C28.73 17.01, 27.85 18.7, 22.71 20.95 M22.71 20.95 C18.81 19.25, 14.46 22.2, 5.24 20.95 M22.71 20.95 C18.02 21.9, 14.34 20.36, 5.24 20.95 M5.24 20.95 C1.13 21.38, -1.9 19.37, 0 15.71 M5.24 20.95 C2.3 22.97, -2.13 18.73, 0 15.71 M0 15.71 C0.85 12.1, -0.24 9.74, 0 5.24 M0 15.71 C0.09 12.22, 0.24 9.26, 0 5.24 M0 5.24 C-1.09 1.17, 3.41 0.95, 5.24 0 M0 5.24 C-0.64 -0.48, 0.87 -0.92, 5.24 0" stroke="#1e1e1e" stroke-width="2" fill="none"></path></g><g stroke-linecap="round" transform="translate(27.917475541171825 38.54130475837155) rotate(312.47556431009303 25.4296875 23.859375)"><path d="M28.3 -0.16 C33.31 0.38, 39.99 4.52, 43.88 8.18 C47.76 11.84, 51.35 16.86, 51.62 21.8 C51.89 26.74, 48.88 33.76, 45.51 37.82 C42.14 41.88, 36.53 44.95, 31.38 46.16 C26.24 47.38, 19.56 47.23, 14.62 45.11 C9.69 43, 3.94 38.27, 1.77 33.48 C-0.4 28.69, 0.02 21.16, 1.6 16.36 C3.18 11.57, 6.31 7.38, 11.27 4.7 C16.23 2.02, 27.88 0.86, 31.34 0.28 C34.81 -0.31, 32.3 0.71, 32.06 1.21 M16.76 2.36 C21.27 -0.18, 27.5 -2.07, 32.67 -0.42 C37.84 1.23, 44.84 7.93, 47.79 12.25 C50.74 16.58, 51.41 20.54, 50.37 25.52 C49.33 30.5, 45.36 38.35, 41.56 42.13 C37.76 45.91, 32.96 47.78, 27.57 48.17 C22.18 48.56, 13.86 47.79, 9.22 44.45 C4.58 41.12, 0.71 33.23, -0.26 28.16 C-1.23 23.09, 0.57 18.3, 3.39 14.03 C6.21 9.77, 14.76 4.4, 16.67 2.59 C18.57 0.78, 14.86 2.89, 14.84 3.17" stroke="none" stroke-width="0" fill="#fcc2d7"></path><path d="M26.92 -0.38 C32.41 -0.52, 39.77 3.14, 43.61 6.69 C47.46 10.23, 49.37 15.99, 50 20.91 C50.62 25.83, 50.36 31.75, 47.37 36.2 C44.39 40.65, 37.4 46.14, 32.09 47.6 C26.78 49.07, 20.56 47.03, 15.52 45.01 C10.48 42.98, 4.26 39.76, 1.85 35.46 C-0.55 31.16, -0.11 24.21, 1.1 19.2 C2.31 14.19, 4.81 8.45, 9.11 5.41 C13.41 2.36, 23.69 1.58, 26.91 0.92 C30.13 0.25, 28.2 1.03, 28.43 1.39 M32.01 1.56 C36.9 2.16, 41.21 4.15, 44.43 7.75 C47.66 11.36, 51.19 18.09, 51.36 23.18 C51.53 28.27, 49.3 34.15, 45.46 38.3 C41.63 42.45, 33.85 47.03, 28.35 48.08 C22.84 49.13, 17.17 47.29, 12.41 44.57 C7.65 41.86, 1.37 36.86, -0.22 31.81 C-1.81 26.76, 0.78 18.85, 2.86 14.27 C4.93 9.69, 7.69 6.39, 12.23 4.32 C16.77 2.25, 26.95 2.62, 30.11 1.84 C33.28 1.06, 31.32 -0.56, 31.24 -0.34" stroke="#1e1e1e" stroke-width="2" fill="none"></path></g></svg>