<svg version="1.1" xmlns="http://www.w3.org/2000/svg" viewBox="0 0 108.08725249304916 127.12357954545405" width="108.08725249304916" height="127.12357954545405">
  <!-- svg-source:excalidraw -->
  
  <defs>
    <style class="style-fonts">
      @font-face {
        font-family: "Virgil";
        src: url("https://excalidraw.com/Virgil.woff2");
      }
      @font-face {
        font-family: "Cascadia";
        src: url("https://excalidraw.com/Cascadia.woff2");
      }
      @font-face {
        font-family: "Assistant";
        src: url("https://excalidraw.com/Assistant-Regular.woff2");
      }
    </style>
    
  </defs>
  <g stroke-linecap="round" transform="translate(12.825533743049164 24.85274621212102) rotate(0 42.630859375 38.322265625)"><path d="M19.16 0 C38.93 -1.69, 48.83 2.18, 66.1 0 C81.05 3.08, 86.81 4.61, 85.26 19.16 C83.33 34.15, 82.94 45.64, 85.26 57.48 C81.94 72.03, 77.08 73.21, 66.1 76.64 C57.92 78.48, 42.95 75.14, 19.16 76.64 C9.54 73.87, -2.29 69.64, 0 57.48 C1.31 45.02, -1.29 34.87, 0 19.16 C2.68 4.02, 6.1 0.08, 19.16 0" stroke="none" stroke-width="0" fill="#e64980"></path><path d="M19.16 0 C31.73 2.18, 47.65 -1.43, 66.1 0 M19.16 0 C29.35 -1.16, 38.85 -1, 66.1 0 M66.1 0 C80.52 -0.42, 86.71 8.03, 85.26 19.16 M66.1 0 C80.38 0.95, 85.99 5.25, 85.26 19.16 M85.26 19.16 C83.73 34.87, 83.63 50.65, 85.26 57.48 M85.26 19.16 C85.34 27.21, 84.09 35, 85.26 57.48 M85.26 57.48 C86.64 69.29, 77.3 78.63, 66.1 76.64 M85.26 57.48 C84.47 72.31, 79.97 74.64, 66.1 76.64 M66.1 76.64 C53.64 76.68, 42.61 74.35, 19.16 76.64 M66.1 76.64 C53.58 77.38, 39.05 76.34, 19.16 76.64 M19.16 76.64 C5.64 77.06, -1.88 71.68, 0 57.48 M19.16 76.64 C6.34 76.05, 0.63 71.4, 0 57.48 M0 57.48 C1.06 47.53, -1.83 37.92, 0 19.16 M0 57.48 C0.28 47.94, 0.77 37.85, 0 19.16 M0 19.16 C-0.1 4.48, 7.85 1.98, 19.16 0 M0 19.16 C-0.48 4.64, 4.39 1.38, 19.16 0" stroke="#1e1e1e" stroke-width="2" fill="none"></path></g><g stroke-linecap="round" transform="translate(36.694526404033695 102.14701704545405) rotate(0 19.283203125 7.48828125)"><path d="M3.74 0 C8.96 1.42, 19.81 2.47, 34.82 0 C38.44 -1.28, 39.94 1.58, 38.57 3.74 C37.86 5.9, 37.61 8.82, 38.57 11.23 C37.27 11.25, 35.17 14, 34.82 14.98 C21.68 13.68, 14.79 13.12, 3.74 14.98 C-0.41 14.53, 0.17 14.27, 0 11.23 C-0.35 8.75, 0.69 5.16, 0 3.74 C-0.21 1.31, -0.49 -1.16, 3.74 0" stroke="none" stroke-width="0" fill="#868e96"></path><path d="M3.74 0 C11.2 -1, 17.82 0.54, 34.82 0 M3.74 0 C14.81 -0.24, 25.74 0.04, 34.82 0 M34.82 0 C38.04 0.82, 39.22 1.66, 38.57 3.74 M34.82 0 C37.68 -0.57, 39.63 2.06, 38.57 3.74 M38.57 3.74 C38.18 5.77, 38.17 7.08, 38.57 11.23 M38.57 3.74 C38.39 6.35, 38.71 8.75, 38.57 11.23 M38.57 11.23 C37.78 14.72, 36.97 15.87, 34.82 14.98 M38.57 11.23 C39.12 12.73, 36.96 15.23, 34.82 14.98 M34.82 14.98 C29.34 14.09, 21.88 14.68, 3.74 14.98 M34.82 14.98 C25.51 14.98, 16.8 15.2, 3.74 14.98 M3.74 14.98 C0.31 15.69, -0.02 13.47, 0 11.23 M3.74 14.98 C1.56 15.55, -0.63 13.4, 0 11.23 M0 11.23 C-0.38 8.22, -0.17 5.64, 0 3.74 M0 11.23 C0.16 9.65, -0.03 7.78, 0 3.74 M0 3.74 C0.73 2.24, 1.04 -0.76, 3.74 0 M0 3.74 C-1 1.94, 1.78 0.38, 3.74 0" stroke="#1e1e1e" stroke-width="2" fill="none"></path></g><g stroke-linecap="round" transform="translate(36.88039879986718 10) rotate(0 19.283203125 7.48828125)"><path d="M3.74 0 C12.69 2.04, 19.62 -1.46, 34.82 0 C38.69 0.34, 38.76 -0.21, 38.57 3.74 C37.6 6.77, 38.02 7.92, 38.57 11.23 C36.42 12.75, 38.85 16.44, 34.82 14.98 C26.62 12.75, 12.21 14.3, 3.74 14.98 C1.41 15.52, 1.63 14.78, 0 11.23 C0.76 8.5, -0.05 7.06, 0 3.74 C-1.74 0.09, -1.08 0.97, 3.74 0" stroke="none" stroke-width="0" fill="#868e96"></path><path d="M3.74 0 C15.07 0.82, 28.79 0.75, 34.82 0 M3.74 0 C10.56 0.02, 16.91 0.53, 34.82 0 M34.82 0 C37.97 0.41, 38.88 0.75, 38.57 3.74 M34.82 0 C38.38 0.81, 37.81 0.21, 38.57 3.74 M38.57 3.74 C38.16 6.07, 38.68 8.84, 38.57 11.23 M38.57 3.74 C38.66 6.12, 38.38 8.86, 38.57 11.23 M38.57 11.23 C38.22 14.62, 37.8 14.1, 34.82 14.98 M38.57 11.23 C38.21 13.98, 36.22 15.07, 34.82 14.98 M34.82 14.98 C24.54 14.5, 14.54 15.45, 3.74 14.98 M34.82 14.98 C22.84 15.04, 10.76 15.29, 3.74 14.98 M3.74 14.98 C1.23 14.72, 0.27 14.23, 0 11.23 M3.74 14.98 C0.62 14.65, 0.96 14.28, 0 11.23 M0 11.23 C-0.11 9.34, -0.27 7.31, 0 3.74 M0 11.23 C-0.04 8.5, 0.1 6.31, 0 3.74 M0 3.74 C-0.21 0.49, 0.38 0.6, 3.74 0 M0 3.74 C0.53 1.62, 0.48 1.13, 3.74 0" stroke="#343a40" stroke-width="2" fill="none"></path></g><g stroke-linecap="round" transform="translate(13.186373760761398 24.156708609438283) rotate(47.524435689906944 13.974609375 10.47265625)"><path d="M5.24 0 C12.62 -1.82, 18.95 0.14, 22.71 0 C26.47 -2.02, 29.42 -0.66, 27.95 5.24 C26.84 6.42, 26.22 10.49, 27.95 15.71 C30.07 21.22, 27.54 18.2, 22.71 20.95 C16.44 20.16, 14.37 21.36, 5.24 20.95 C4 22.4, -0.73 18.05, 0 15.71 C-0.29 12.36, -1.4 8.08, 0 5.24 C-3.23 3.08, 0.1 3.19, 5.24 0" stroke="none" stroke-width="0" fill="#fcc2d7"></path><path d="M5.24 0 C9.82 0.96, 11.11 0.84, 22.71 0 M5.24 0 C9.75 0.75, 13.57 0.4, 22.71 0 M22.71 0 C26.84 -0.99, 29.79 3.16, 27.95 5.24 M22.71 0 C24.7 -2.07, 28.73 -0.44, 27.95 5.24 M27.95 5.24 C28.27 9.4, 28.15 11.98, 27.95 15.71 M27.95 5.24 C27.61 9.24, 27.84 12.68, 27.95 15.71 M27.95 15.71 C28.9 17.45, 25.58 21.38, 22.71 20.95 M27.95 15.71 C25.76 19.39, 26.76 22.97, 22.71 20.95 M22.71 20.95 C18.86 21.96, 16.85 19.52, 5.24 20.95 M22.71 20.95 C17.08 21.6, 13.07 20.75, 5.24 20.95 M5.24 20.95 C2.29 21.94, -1.09 18.63, 0 15.71 M5.24 20.95 C3.66 22.04, -0.64 16.97, 0 15.71 M0 15.71 C-0.81 13.41, 0.47 11.18, 0 5.24 M0 15.71 C0.39 12.79, -0.1 8.45, 0 5.24 M0 5.24 C-1.73 2.94, 2.67 0.65, 5.24 0 M0 5.24 C-1.53 4, 0.31 -1.8, 5.24 0" stroke="#1e1e1e" stroke-width="2" fill="none"></path></g><g stroke-linecap="round" transform="translate(28.10504480902 38.92300118694311) rotate(47.524435689906944 25.4296875 23.859375)"><path d="M34.74 1.66 C39.46 3.45, 45.43 9, 47.85 13.72 C50.28 18.45, 50.48 24.94, 49.31 29.99 C48.14 35.05, 45.06 41.1, 40.84 44.04 C36.62 46.98, 29.67 47.99, 24 47.61 C18.34 47.24, 10.67 45.37, 6.86 41.8 C3.05 38.23, 1.69 31.56, 1.14 26.21 C0.58 20.86, 0.58 13.84, 3.55 9.7 C6.52 5.57, 13.2 2.63, 18.95 1.4 C24.71 0.17, 34.5 1.91, 38.07 2.32 C41.64 2.73, 40.76 3.33, 40.37 3.87 M32.25 1.87 C37.11 2.93, 44.1 6.81, 47.02 11.08 C49.95 15.35, 50.7 22.49, 49.81 27.5 C48.92 32.51, 45.77 37.67, 41.67 41.16 C37.58 44.65, 30.65 48.39, 25.25 48.43 C19.85 48.47, 13.59 44.72, 9.27 41.41 C4.96 38.09, 0.31 33.15, -0.62 28.54 C-1.54 23.93, 0.92 18.4, 3.72 13.76 C6.51 9.12, 11.43 2.6, 16.17 0.7 C20.91 -1.19, 29.57 2.41, 32.16 2.39 C34.74 2.37, 31.71 0.4, 31.68 0.58" stroke="none" stroke-width="0" fill="#fcc2d7"></path><path d="M32.09 1.61 C37.43 2.6, 44.08 6.9, 47.25 11.06 C50.43 15.21, 51.9 21.4, 51.15 26.54 C50.39 31.67, 46.55 38.44, 42.7 41.85 C38.85 45.26, 33.56 46.71, 28.05 47 C22.55 47.28, 14.4 46.33, 9.7 43.58 C5 40.83, 1.2 35.57, -0.16 30.48 C-1.52 25.39, -1.05 17.73, 1.53 13.05 C4.12 8.36, 10.01 4.52, 15.36 2.37 C20.71 0.23, 30.45 0.15, 33.64 0.19 C36.84 0.24, 34.8 2.26, 34.54 2.67 M38.23 1.56 C42.95 3.43, 46.96 10.4, 48.61 15.39 C50.26 20.39, 49.72 26.49, 48.14 31.51 C46.55 36.53, 43.76 42.89, 39.12 45.5 C34.49 48.11, 25.87 48.16, 20.34 47.16 C14.8 46.16, 9.15 43.08, 5.91 39.51 C2.68 35.94, 1.2 30.87, 0.93 25.73 C0.67 20.59, 1.18 12.83, 4.32 8.68 C7.46 4.52, 14.45 1.59, 19.75 0.8 C25.05 0.01, 33.19 3.58, 36.11 3.93 C39.03 4.28, 37.15 2.6, 37.25 2.9" stroke="#1e1e1e" stroke-width="2" fill="none"></path></g></svg>