<svg version="1.1" xmlns="http://www.w3.org/2000/svg" viewBox="0 0 105.26171875 129.23744184244413" width="105.26171875" height="129.23744184244413">
  <!-- svg-source:excalidraw -->
  
  <defs>
    <style class="style-fonts">
      @font-face {
        font-family: "Virgil";
        src: url("https://excalidraw.com/Virgil.woff2");
      }
      @font-face {
        font-family: "Cascadia";
        src: url("https://excalidraw.com/Cascadia.woff2");
      }
      @font-face {
        font-family: "Assistant";
        src: url("https://excalidraw.com/Assistant-Regular.woff2");
      }
    </style>
    
  </defs>
  <g stroke-linecap="round" transform="translate(10 26.966608509110202) rotate(0 42.630859375 38.322265625)"><path d="M19.16 0 C34.11 2.68, 59.49 -0.71, 66.1 0 C76.15 -3.12, 87.42 8.04, 85.26 19.16 C82.55 29.09, 86.42 46.83, 85.26 57.48 C88.34 71.81, 77.1 78.54, 66.1 76.64 C52.88 73.76, 36.17 72.85, 19.16 76.64 C8.16 74.85, -3.44 67.28, 0 57.48 C0.93 44.68, -2.41 40.53, 0 19.16 C-2.77 4.09, 5.77 0.23, 19.16 0" stroke="none" stroke-width="0" fill="#e64980"></path><path d="M19.16 0 C28.2 1.4, 41.32 -0.87, 66.1 0 M19.16 0 C37.55 0.87, 55.27 -0.56, 66.1 0 M66.1 0 C80.78 -0.13, 83.56 4.46, 85.26 19.16 M66.1 0 C80.46 1.09, 86.69 4.23, 85.26 19.16 M85.26 19.16 C84.54 34.2, 86.61 47.65, 85.26 57.48 M85.26 19.16 C86.31 32.94, 84.73 44.41, 85.26 57.48 M85.26 57.48 C85.94 68.35, 80.31 74.69, 66.1 76.64 M85.26 57.48 C84.17 71.18, 79.46 77.32, 66.1 76.64 M66.1 76.64 C55.71 75.39, 49.24 76.28, 19.16 76.64 M66.1 76.64 C47.53 76.45, 28.63 76.32, 19.16 76.64 M19.16 76.64 C6.87 78.41, -1.85 69.85, 0 57.48 M19.16 76.64 C5.61 76.34, 1.41 72.09, 0 57.48 M0 57.48 C0.5 47.12, 1.51 40.47, 0 19.16 M0 57.48 C-0.65 46.69, 0.73 36.95, 0 19.16 M0 19.16 C-0.55 4.45, 5.63 -0.8, 19.16 0 M0 19.16 C0.87 4.52, 7.37 0.94, 19.16 0" stroke="#1e1e1e" stroke-width="2" fill="none"></path></g><g stroke-linecap="round" transform="translate(33.86899266098453 104.26087934244414) rotate(0 19.283203125 7.48828125)"><path d="M3.74 0 C15.48 -0.84, 20.1 -2.55, 34.82 0 C38.87 1.2, 39.42 -0.49, 38.57 3.74 C38.94 7.31, 39.34 10.13, 38.57 11.23 C37.28 15.1, 37.65 15.17, 34.82 14.98 C26.85 12.31, 20.95 13.41, 3.74 14.98 C-1.23 12.83, -0.98 15.26, 0 11.23 C-0.58 9.42, -0.79 5.28, 0 3.74 C-0.45 1.41, 1.79 1.63, 3.74 0" stroke="none" stroke-width="0" fill="#868e96"></path><path d="M3.74 0 C13.63 -0.52, 23.9 0.22, 34.82 0 M3.74 0 C10.72 -0.52, 18.76 -0.12, 34.82 0 M34.82 0 C36.47 -0.96, 39.26 1.72, 38.57 3.74 M34.82 0 C38.03 -1.08, 39.2 0.35, 38.57 3.74 M38.57 3.74 C38.87 6.85, 38.71 9.59, 38.57 11.23 M38.57 3.74 C38.48 5.45, 38.66 7.32, 38.57 11.23 M38.57 11.23 C39.28 12.75, 36.85 15.38, 34.82 14.98 M38.57 11.23 C38.86 14.06, 36.18 15.36, 34.82 14.98 M34.82 14.98 C24.34 14.51, 12.77 15.33, 3.74 14.98 M34.82 14.98 C27.74 15.05, 21.72 15.45, 3.74 14.98 M3.74 14.98 C0.32 14.77, -0.34 13.6, 0 11.23 M3.74 14.98 C1.95 15.89, -0.9 13.45, 0 11.23 M0 11.23 C0.26 9.26, -0.1 7.4, 0 3.74 M0 11.23 C0.18 8.7, -0.03 5.81, 0 3.74 M0 3.74 C-0.38 0.85, 1.63 -0.81, 3.74 0 M0 3.74 C0.49 1.72, 2.3 0.32, 3.74 0" stroke="#1e1e1e" stroke-width="2" fill="none"></path></g><g stroke-linecap="round" transform="translate(34.05486505681802 12.113862296989181) rotate(0 19.283203125 7.48828125)"><path d="M3.74 0 C13.37 -2.17, 28.5 1.28, 34.82 0 C38.17 -1.73, 41.12 -0.38, 38.57 3.74 C39.44 5.82, 38.13 7.58, 38.57 11.23 C38.9 13.92, 35.86 16.04, 34.82 14.98 C28.85 13.31, 17.85 12.45, 3.74 14.98 C0.27 16.51, 1.46 14.69, 0 11.23 C-0.7 8.94, -0.11 7.94, 0 3.74 C0.55 2.87, 2.3 -0.53, 3.74 0" stroke="none" stroke-width="0" fill="#868e96"></path><path d="M3.74 0 C16.23 0.4, 26.23 0.11, 34.82 0 M3.74 0 C15.3 0.1, 25.48 -0.35, 34.82 0 M34.82 0 C38.01 0.47, 39.19 0.31, 38.57 3.74 M34.82 0 C37.95 -0.89, 39.51 1.01, 38.57 3.74 M38.57 3.74 C38.75 6.65, 38.41 9.66, 38.57 11.23 M38.57 3.74 C38.61 6.34, 38.68 9.11, 38.57 11.23 M38.57 11.23 C38.09 14.13, 37.57 15.27, 34.82 14.98 M38.57 11.23 C37.42 14.11, 38.11 14.42, 34.82 14.98 M34.82 14.98 C28.84 15.4, 20.21 14.61, 3.74 14.98 M34.82 14.98 C24.95 15.43, 14.37 14.89, 3.74 14.98 M3.74 14.98 C0.91 14.85, 0.61 14.53, 0 11.23 M3.74 14.98 C0.35 14.69, -0.43 13.96, 0 11.23 M0 11.23 C-0.12 9.79, 0.16 7.94, 0 3.74 M0 11.23 C-0.08 9.02, -0.1 7.09, 0 3.74 M0 3.74 C0.38 0.44, 1.67 0.41, 3.74 0 M0 3.74 C1.05 1.57, 1.19 -1.1, 3.74 0" stroke="#343a40" stroke-width="2" fill="none"></path></g><g stroke-linecap="round" transform="translate(39.397448168828305 13.626040698085388) rotate(269.315648468081 13.974609375 10.47265625)"><path d="M5.24 0 C11.99 1.72, 16.01 -1.83, 22.71 0 C29.74 -2.25, 25.13 3.36, 27.95 5.24 C27.18 10.01, 28.35 12.92, 27.95 15.71 C25.92 20.67, 23.8 20.39, 22.71 20.95 C16.08 18.19, 14.26 22.64, 5.24 20.95 C3.77 22.28, -2.75 17.2, 0 15.71 C-0.18 11.77, 0.54 8.77, 0 5.24 C1.46 1.02, 0.6 0.87, 5.24 0" stroke="none" stroke-width="0" fill="#fcc2d7"></path><path d="M5.24 0 C8.61 0.02, 15.27 -1.07, 22.71 0 M5.24 0 C8.22 -0.83, 13.29 0.42, 22.71 0 M22.71 0 C27.44 -1.88, 29.04 0.19, 27.95 5.24 M22.71 0 C28.09 -0.48, 29.61 3.64, 27.95 5.24 M27.95 5.24 C27.47 10.03, 28.73 12.2, 27.95 15.71 M27.95 5.24 C28.36 6.92, 27.74 9.84, 27.95 15.71 M27.95 15.71 C28.46 19.78, 24.22 21.61, 22.71 20.95 M27.95 15.71 C29.54 18.08, 24.39 23.22, 22.71 20.95 M22.71 20.95 C16.55 20.49, 13.81 19.37, 5.24 20.95 M22.71 20.95 C16.52 20.92, 11.64 20.98, 5.24 20.95 M5.24 20.95 C2.97 22.54, -1.57 18.71, 0 15.71 M5.24 20.95 C0.89 21.42, -2.16 20.83, 0 15.71 M0 15.71 C0.55 12.01, -0.27 10.34, 0 5.24 M0 15.71 C-0.17 11.86, 0.23 8, 0 5.24 M0 5.24 C0.85 2.56, 3.58 0.56, 5.24 0 M0 5.24 C-0.12 -0.45, 3.43 2.27, 5.24 0" stroke="#1e1e1e" stroke-width="2" fill="none"></path></g><g stroke-linecap="round" transform="translate(27.939453125 38.74047213240182) rotate(269.315648468081 25.4296875 23.859375)"><path d="M21.41 0.4 C26.36 -0.6, 32.9 0.91, 37.61 3.33 C42.33 5.74, 47.79 10, 49.71 14.88 C51.64 19.75, 50.95 27.71, 49.15 32.58 C47.34 37.45, 43.69 41.69, 38.89 44.1 C34.09 46.51, 25.88 47.74, 20.35 47.02 C14.83 46.31, 9.28 43.54, 5.75 39.8 C2.22 36.06, -0.88 29.6, -0.81 24.58 C-0.74 19.56, 2.18 13.75, 6.16 9.67 C10.14 5.58, 20.1 1.48, 23.07 0.08 C26.04 -1.33, 23.79 0.85, 23.95 1.21 M16.71 2.18 C21.45 0.2, 27.51 1.35, 32.41 2.68 C37.31 4, 42.98 5.89, 46.12 10.15 C49.27 14.4, 51.68 22.84, 51.27 28.21 C50.85 33.57, 47.93 38.94, 43.63 42.32 C39.33 45.7, 31.08 48.44, 25.45 48.5 C19.82 48.56, 14.16 45.89, 9.87 42.7 C5.57 39.5, 0.99 34.37, -0.31 29.31 C-1.62 24.25, -0.46 16.8, 2.03 12.32 C4.53 7.84, 12.4 4.37, 14.64 2.43 C16.88 0.49, 15.29 0.55, 15.47 0.7" stroke="none" stroke-width="0" fill="#fcc2d7"></path><path d="M18.08 0.15 C22.93 -1.58, 29.45 0.37, 34.55 2.64 C39.64 4.91, 46.18 9.23, 48.63 13.78 C51.08 18.32, 50.7 24.91, 49.23 29.91 C47.77 34.92, 44.08 40.74, 39.83 43.82 C35.58 46.9, 28.91 48.73, 23.73 48.4 C18.56 48.07, 12.65 45.44, 8.8 41.86 C4.94 38.29, 1.43 31.97, 0.58 26.94 C-0.27 21.91, -0.19 16.25, 3.69 11.66 C7.58 7.08, 19.95 1.22, 23.9 -0.56 C27.85 -2.35, 27.62 0.35, 27.38 0.97 M13.88 3.23 C18.17 0.66, 23.79 0.15, 29.23 1.02 C34.67 1.89, 43.1 4.25, 46.51 8.44 C49.91 12.64, 50.11 20.73, 49.66 26.18 C49.21 31.63, 47.14 37.83, 43.81 41.16 C40.48 44.49, 35.07 45.64, 29.68 46.18 C24.3 46.72, 16.46 46.89, 11.49 44.42 C6.51 41.95, 1.36 36.05, -0.18 31.36 C-1.73 26.66, 0.17 21.05, 2.22 16.24 C4.26 11.43, 10.27 4.69, 12.11 2.49 C13.94 0.28, 12.64 2.42, 13.23 3.02" stroke="#1e1e1e" stroke-width="2" fill="none"></path></g></svg>