<svg version="1.1" xmlns="http://www.w3.org/2000/svg" viewBox="0 0 105.26171875 127.84067844958452" width="105.26171875" height="127.84067844958452">
  <!-- svg-source:excalidraw -->
  
  <defs>
    <style class="style-fonts">
      @font-face {
        font-family: "Virgil";
        src: url("https://excalidraw.com/Virgil.woff2");
      }
      @font-face {
        font-family: "Cascadia";
        src: url("https://excalidraw.com/Cascadia.woff2");
      }
      @font-face {
        font-family: "Assistant";
        src: url("https://excalidraw.com/Assistant-Regular.woff2");
      }
    </style>
    
  </defs>
  <g stroke-linecap="round" transform="translate(10 24.85274621212102) rotate(0 42.630859375 38.322265625)"><path d="M19.16 0 C29.86 0.9, 42.34 1.6, 66.1 0 C78.15 -1.15, 86.13 9.07, 85.26 19.16 C82.8 26.53, 81.98 38.45, 85.26 57.48 C83.61 73.44, 76.43 77.69, 66.1 76.64 C51.28 80.43, 43.46 79.8, 19.16 76.64 C5.63 74.41, 0.06 69.01, 0 57.48 C-3.62 46.08, 3.2 30.8, 0 19.16 C1.54 6.04, 8.9 1.73, 19.16 0" stroke="none" stroke-width="0" fill="#e64980"></path><path d="M19.16 0 C31.61 -2.11, 43.55 1.26, 66.1 0 M19.16 0 C30.62 0.43, 43.24 -1.34, 66.1 0 M66.1 0 C78.25 0.43, 83.36 6.56, 85.26 19.16 M66.1 0 C79.43 2.03, 83.14 5.92, 85.26 19.16 M85.26 19.16 C86.8 27.8, 84.72 38.83, 85.26 57.48 M85.26 19.16 C84.88 31.19, 85.18 44.22, 85.26 57.48 M85.26 57.48 C84.17 69.69, 80.54 77.6, 66.1 76.64 M85.26 57.48 C84.63 68.03, 78 75.72, 66.1 76.64 M66.1 76.64 C51.05 78.68, 34.92 76.74, 19.16 76.64 M66.1 76.64 C56.29 76.35, 46.04 77.71, 19.16 76.64 M19.16 76.64 C7.31 77.3, -1.33 72.22, 0 57.48 M19.16 76.64 C4.95 74.85, 1.03 71.65, 0 57.48 M0 57.48 C0.89 42.97, -0.02 26.81, 0 19.16 M0 57.48 C-0.67 44.92, -0.24 30.41, 0 19.16 M0 19.16 C-1.65 5.63, 7.57 1.12, 19.16 0 M0 19.16 C0.85 4.63, 5.11 2.01, 19.16 0" stroke="#1e1e1e" stroke-width="2" fill="none"></path></g><g stroke-linecap="round" transform="translate(33.86899266098453 102.14701704545496) rotate(0 19.283203125 7.48828125)"><path d="M3.74 0 C14.16 0.97, 20.8 -0.91, 34.82 0 C37.95 1.94, 36.86 1.04, 38.57 3.74 C37.63 6.37, 38.06 9.13, 38.57 11.23 C36.8 14.48, 36.47 13.37, 34.82 14.98 C25.5 17.28, 12.1 13.73, 3.74 14.98 C1.29 14.07, 0.88 13.91, 0 11.23 C0.97 8.53, 0.51 6.32, 0 3.74 C1.81 2.5, -0.21 -1.44, 3.74 0" stroke="none" stroke-width="0" fill="#868e96"></path><path d="M3.74 0 C14.19 0.84, 23.49 -0.63, 34.82 0 M3.74 0 C16.39 -0.57, 28.39 -0.03, 34.82 0 M34.82 0 C36.37 0.08, 38.81 2.13, 38.57 3.74 M34.82 0 C36.26 -0.23, 38.18 1.1, 38.57 3.74 M38.57 3.74 C38.5 6.31, 38.67 8.81, 38.57 11.23 M38.57 3.74 C38.62 6.61, 38.46 9.25, 38.57 11.23 M38.57 11.23 C39.4 14.2, 37.04 14.01, 34.82 14.98 M38.57 11.23 C38.13 13.27, 37.76 14.04, 34.82 14.98 M34.82 14.98 C24.46 15.07, 12.58 15.85, 3.74 14.98 M34.82 14.98 C21.99 15.16, 10.26 15.02, 3.74 14.98 M3.74 14.98 C0.58 15.96, -0.63 12.95, 0 11.23 M3.74 14.98 C1.76 15.67, 0.98 14.22, 0 11.23 M0 11.23 C0.01 9.14, 0.13 7.23, 0 3.74 M0 11.23 C-0.06 8.92, -0.12 6.9, 0 3.74 M0 3.74 C0.59 1.81, 1.62 -0.76, 3.74 0 M0 3.74 C-0.64 2.25, 0.36 -0.73, 3.74 0" stroke="#1e1e1e" stroke-width="2" fill="none"></path></g><g stroke-linecap="round" transform="translate(34.05486505681802 10) rotate(0 19.283203125 7.48828125)"><path d="M3.74 0 C13.2 -0.99, 24.33 1.78, 34.82 0 C35.61 -0.21, 38.62 -0.49, 38.57 3.74 C38.03 6.52, 37.82 7.85, 38.57 11.23 C37.71 12.12, 38.8 13.33, 34.82 14.98 C22.1 13.66, 10.52 14.37, 3.74 14.98 C2.13 15.16, 0.56 11.15, 0 11.23 C0.33 8.6, 0.59 6.63, 0 3.74 C-1.46 -0.19, -0.87 0.44, 3.74 0" stroke="none" stroke-width="0" fill="#868e96"></path><path d="M3.74 0 C9.5 -0.9, 17.21 -0.45, 34.82 0 M3.74 0 C15.68 0.24, 27.45 0.18, 34.82 0 M34.82 0 C37.56 0.88, 37.64 1.05, 38.57 3.74 M34.82 0 C36.93 -0.15, 39.27 2.16, 38.57 3.74 M38.57 3.74 C38.63 5.05, 38.82 7.05, 38.57 11.23 M38.57 3.74 C38.47 5.74, 38.73 7.94, 38.57 11.23 M38.57 11.23 C38.29 12.76, 36.94 14.57, 34.82 14.98 M38.57 11.23 C39 12.79, 37.81 15.45, 34.82 14.98 M34.82 14.98 C21.7 15.7, 11.47 14.76, 3.74 14.98 M34.82 14.98 C28.08 15.23, 20.55 15.56, 3.74 14.98 M3.74 14.98 C0.62 14.19, 0.45 14.33, 0 11.23 M3.74 14.98 C2.23 15.47, -0.57 14.34, 0 11.23 M0 11.23 C0.15 8.64, -0.06 6.2, 0 3.74 M0 11.23 C-0.14 8.55, 0.13 6.11, 0 3.74 M0 3.74 C0.37 0.48, 0.69 0.87, 3.74 0 M0 3.74 C-0.89 0.52, 1.05 0.07, 3.74 0" stroke="#343a40" stroke-width="2" fill="none"></path></g><g stroke-linecap="round" transform="translate(39.397448168828305 93.26932525149914) rotate(90.684351531919 13.974609375 10.47265625)"><path d="M5.24 0 C11.95 2.45, 15.07 -0.15, 22.71 0 C26.28 -2.41, 26.34 -1.48, 27.95 5.24 C26.58 9.31, 27.25 11.13, 27.95 15.71 C30 16.92, 29.51 23.39, 22.71 20.95 C16.22 19.66, 10.7 20.97, 5.24 20.95 C2.52 17.37, 1.4 22.44, 0 15.71 C1.23 13.79, -1.14 9.01, 0 5.24 C-2.93 2.35, -0.16 0.63, 5.24 0" stroke="none" stroke-width="0" fill="#fcc2d7"></path><path d="M5.24 0 C13.42 -0.46, 19.69 0.97, 22.71 0 M5.24 0 C8.12 0.04, 12.88 0.73, 22.71 0 M22.71 0 C24.36 -0.41, 27.28 1.48, 27.95 5.24 M22.71 0 C27.62 1.83, 26.14 1.18, 27.95 5.24 M27.95 5.24 C28.71 7.97, 27.7 11.02, 27.95 15.71 M27.95 5.24 C28.33 9.15, 27.75 12.05, 27.95 15.71 M27.95 15.71 C27.19 18.4, 26.96 19.32, 22.71 20.95 M27.95 15.71 C28.93 20.14, 28.31 21.59, 22.71 20.95 M22.71 20.95 C19.29 20.71, 11.09 19.56, 5.24 20.95 M22.71 20.95 C15.84 21.86, 9.59 20.32, 5.24 20.95 M5.24 20.95 C2.64 22.15, 1.71 20.06, 0 15.71 M5.24 20.95 C0.61 22.16, 0.3 19.37, 0 15.71 M0 15.71 C-0.2 12.19, 0.47 10.08, 0 5.24 M0 15.71 C0.4 13.86, 0.28 11.02, 0 5.24 M0 5.24 C-1.11 3.49, 0.2 -1.27, 5.24 0 M0 5.24 C-0.4 1.89, 2.23 1.44, 5.24 0" stroke="#1e1e1e" stroke-width="2" fill="none"></path></g><g stroke-linecap="round" transform="translate(27.748046875 41.5338000671818) rotate(90.684351531919 25.4296875 23.859375)"><path d="M19.3 0.16 C24.22 -1.45, 32.07 -0.45, 36.94 1.72 C41.8 3.89, 46.24 8.49, 48.48 13.19 C50.73 17.88, 52 24.96, 50.38 29.89 C48.76 34.82, 43.4 39.73, 38.74 42.78 C34.09 45.83, 27.62 48.51, 22.45 48.18 C17.28 47.86, 11.59 44.7, 7.74 40.84 C3.88 36.98, -0.36 30.31, -0.7 25.02 C-1.04 19.73, 1.44 13.3, 5.7 9.11 C9.96 4.91, 20.52 1.11, 24.85 -0.17 C29.18 -1.45, 31.47 0.93, 31.68 1.42 M23.98 -0.87 C29.16 -1.71, 35.45 1.23, 39.61 4.16 C43.76 7.09, 47.62 11.69, 48.9 16.7 C50.17 21.71, 49.46 29.21, 47.28 34.2 C45.1 39.2, 40.66 44.47, 35.81 46.67 C30.95 48.87, 23.42 49.05, 18.17 47.42 C12.92 45.79, 7.18 41.26, 4.31 36.88 C1.44 32.5, 0.21 25.93, 0.92 21.16 C1.63 16.38, 4.74 11.8, 8.58 8.24 C12.42 4.68, 21.75 1.08, 23.98 -0.19 C26.22 -1.46, 22.22 0.09, 21.99 0.62" stroke="none" stroke-width="0" fill="#fcc2d7"></path><path d="M31.66 -0.27 C36.93 0.67, 42.66 5.85, 46 9.97 C49.34 14.09, 52.09 19.46, 51.69 24.47 C51.29 29.47, 47.55 36.05, 43.62 40 C39.69 43.95, 33.35 47.7, 28.1 48.19 C22.85 48.68, 16.68 45.93, 12.12 42.93 C7.57 39.93, 2.41 35.12, 0.78 30.19 C-0.85 25.26, 0 17.96, 2.35 13.34 C4.69 8.72, 9.26 4.26, 14.86 2.45 C20.46 0.65, 31.63 2.18, 35.94 2.52 C40.26 2.86, 40.92 4.05, 40.73 4.5 M30.86 0.07 C36.13 0.96, 43.05 4.18, 46.48 8.5 C49.91 12.82, 51.66 20.61, 51.45 25.99 C51.23 31.36, 49.09 37.39, 45.21 40.74 C41.33 44.1, 33.63 45.4, 28.17 46.14 C22.7 46.88, 17.01 47.99, 12.44 45.21 C7.86 42.42, 2.65 34.44, 0.71 29.44 C-1.22 24.44, -1.52 19.6, 0.84 15.19 C3.19 10.78, 9.9 5.14, 14.83 2.97 C19.76 0.8, 27.84 2.65, 30.43 2.15 C33.02 1.64, 30.19 -0.33, 30.37 -0.04" stroke="#1e1e1e" stroke-width="2" fill="none"></path></g></svg>