<svg version="1.1" xmlns="http://www.w3.org/2000/svg" viewBox="0 0 106.9432792787634 127.12357954545405" width="106.9432792787634" height="127.12357954545405">
  <!-- svg-source:excalidraw -->
  
  <defs>
    <style class="style-fonts">
      @font-face {
        font-family: "Virgil";
        src: url("https://excalidraw.com/Virgil.woff2");
      }
      @font-face {
        font-family: "Cascadia";
        src: url("https://excalidraw.com/Cascadia.woff2");
      }
      @font-face {
        font-family: "Assistant";
        src: url("https://excalidraw.com/Assistant-Regular.woff2");
      }
    </style>
    
  </defs>
  <g stroke-linecap="round" transform="translate(11.681560528763399 24.85274621212011) rotate(0 42.630859375 38.322265625)"><path d="M19.16 0 C36.53 -1.51, 57.42 -3.49, 66.1 0 C81.06 -2.04, 84.27 5.61, 85.26 19.16 C83.7 32.15, 87.3 43.63, 85.26 57.48 C86.29 68.71, 79.32 79.33, 66.1 76.64 C51.08 79.42, 33.25 75.1, 19.16 76.64 C6.34 75.39, 0.58 69.08, 0 57.48 C0.1 40.7, 2.9 31.79, 0 19.16 C0.43 7.76, 5.75 0, 19.16 0" stroke="none" stroke-width="0" fill="#a18072"></path><path d="M19.16 0 C35.55 0.3, 50.84 1.38, 66.1 0 M19.16 0 C37.07 -0.06, 52.68 0.66, 66.1 0 M66.1 0 C79.89 1.69, 86.83 6.61, 85.26 19.16 M66.1 0 C77.02 0.87, 83.83 4.99, 85.26 19.16 M85.26 19.16 C84.42 30.01, 85.43 44.49, 85.26 57.48 M85.26 19.16 C85.94 31, 84.68 43.32, 85.26 57.48 M85.26 57.48 C84.08 71.85, 78.06 74.77, 66.1 76.64 M85.26 57.48 C85.28 71.37, 78.34 74.63, 66.1 76.64 M66.1 76.64 C50.98 77.59, 36.51 74.6, 19.16 76.64 M66.1 76.64 C54.47 76.94, 41.93 75.88, 19.16 76.64 M19.16 76.64 C7.87 77.23, -1.01 71.64, 0 57.48 M19.16 76.64 C7.11 74.93, 0.24 68.07, 0 57.48 M0 57.48 C0.74 44.38, 0.37 29.03, 0 19.16 M0 57.48 C1 43.88, 0.29 32.62, 0 19.16 M0 19.16 C-1.89 6.76, 5.11 -1.91, 19.16 0 M0 19.16 C1.74 5.25, 6.92 0.7, 19.16 0" stroke="#1e1e1e" stroke-width="2" fill="none"></path></g><g stroke-linecap="round" transform="translate(35.550553189748385 102.14701704545405) rotate(0 19.283203125 7.48828125)"><path d="M3.74 0 C15.52 -2.31, 24.56 -1.31, 34.82 0 C36.6 -0.56, 38.44 1.2, 38.57 3.74 C39.08 6.9, 38.8 8.64, 38.57 11.23 C38.89 15.66, 38.35 13.9, 34.82 14.98 C27.44 14.77, 21.4 14.46, 3.74 14.98 C1.67 14.13, 2.01 15.53, 0 11.23 C0.9 9.93, 0.1 7.27, 0 3.74 C-0.46 1.25, 1.33 1.08, 3.74 0" stroke="none" stroke-width="0" fill="#868e96"></path><path d="M3.74 0 C15.58 0.86, 29.27 0.29, 34.82 0 M3.74 0 C13.68 0.4, 24.81 0.41, 34.82 0 M34.82 0 C38.1 0.11, 37.76 1.63, 38.57 3.74 M34.82 0 C36.6 -0.7, 38.74 0.2, 38.57 3.74 M38.57 3.74 C38.65 6.43, 38.63 8.49, 38.57 11.23 M38.57 3.74 C38.53 6, 38.49 8.52, 38.57 11.23 M38.57 11.23 C38.16 12.79, 37.32 15.46, 34.82 14.98 M38.57 11.23 C38.3 12.72, 37.42 14.15, 34.82 14.98 M34.82 14.98 C27.98 14.27, 21.21 15.46, 3.74 14.98 M34.82 14.98 C24.5 14.57, 15.16 15.15, 3.74 14.98 M3.74 14.98 C0.74 15.67, 0.31 12.98, 0 11.23 M3.74 14.98 C1.37 13.88, 0.92 13.07, 0 11.23 M0 11.23 C0.02 8.97, 0.1 6.16, 0 3.74 M0 11.23 C-0.03 9.53, -0.2 7.73, 0 3.74 M0 3.74 C-0.64 0.29, 2 -0.5, 3.74 0 M0 3.74 C0.26 1.6, 2.12 0.64, 3.74 0" stroke="#1e1e1e" stroke-width="2" fill="none"></path></g><g stroke-linecap="round" transform="translate(35.736425585581415 10) rotate(0 19.283203125 7.48828125)"><path d="M3.74 0 C13.41 -1.09, 19.21 -0.18, 34.82 0 C37.19 -0.05, 39.99 0.13, 38.57 3.74 C38.9 5.92, 38.74 9.66, 38.57 11.23 C39.6 12.65, 35.12 15.65, 34.82 14.98 C22.46 13.97, 10.57 14.04, 3.74 14.98 C3.25 16.78, -0.27 14.14, 0 11.23 C0.02 9.84, -0.26 7.71, 0 3.74 C0.08 2.33, -0.37 2.55, 3.74 0" stroke="none" stroke-width="0" fill="#868e96"></path><path d="M3.74 0 C14.93 0.2, 25.13 0.54, 34.82 0 M3.74 0 C13.64 0.29, 23.41 -0.07, 34.82 0 M34.82 0 C36.51 0.38, 37.95 0.64, 38.57 3.74 M34.82 0 C37.49 -1.05, 38.91 0.97, 38.57 3.74 M38.57 3.74 C38.65 5.33, 38.61 7.64, 38.57 11.23 M38.57 3.74 C38.44 5.84, 38.48 7.47, 38.57 11.23 M38.57 11.23 C38.57 14.21, 37.09 14.1, 34.82 14.98 M38.57 11.23 C38.67 12.9, 36.3 14.63, 34.82 14.98 M34.82 14.98 C22.9 15.23, 12.18 15, 3.74 14.98 M34.82 14.98 C25.26 14.99, 14.71 15.19, 3.74 14.98 M3.74 14.98 C1.56 14.23, 0.1 12.78, 0 11.23 M3.74 14.98 C2.17 14.32, 0.22 14.03, 0 11.23 M0 11.23 C0.11 8.15, -0.24 5.91, 0 3.74 M0 11.23 C-0.18 9.76, -0.12 8.05, 0 3.74 M0 3.74 C0.76 0.75, 1.48 0.3, 3.74 0 M0 3.74 C0.87 1.89, 1.36 -0.09, 3.74 0" stroke="#343a40" stroke-width="2" fill="none"></path></g><g stroke-linecap="round" transform="translate(13.186373760761413 77.62702718601395) rotate(312.47556431009303 13.974609375000004 10.47265625)"><path d="M5.24 0 C7.95 -0.5, 12.25 0.12, 22.71 0 C28.18 -1.55, 29.63 3.8, 27.95 5.24 C28.24 10.32, 28.75 11.82, 27.95 15.71 C24.9 20.13, 29.69 20, 22.71 20.95 C18.38 19.81, 15.46 23.02, 5.24 20.95 C1.37 21.52, -2.33 22.58, 0 15.71 C-0.35 11.63, 0.04 8.34, 0 5.24 C-2.24 5.27, 1.66 -0.31, 5.24 0" stroke="none" stroke-width="0" fill="#a5d8ff"></path><path d="M5.24 0 C12.7 1.14, 19.12 -1.7, 22.71 0 M5.24 0 C12.6 -0.05, 17.9 0.18, 22.71 0 M22.71 0 C24.96 -1.22, 28.25 -0.08, 27.95 5.24 M22.71 0 C26.89 -0.56, 26.53 2.34, 27.95 5.24 M27.95 5.24 C28.06 9.9, 27.56 12.34, 27.95 15.71 M27.95 5.24 C27.67 7.56, 27.89 11.12, 27.95 15.71 M27.95 15.71 C27.48 17.45, 26.39 19.51, 22.71 20.95 M27.95 15.71 C25.91 18.5, 27.77 20.3, 22.71 20.95 M22.71 20.95 C19.28 21.27, 15.41 19.93, 5.24 20.95 M22.71 20.95 C18.55 21.6, 15.54 20.35, 5.24 20.95 M5.24 20.95 C1.95 19.04, 1.6 18.06, 0 15.71 M5.24 20.95 C2.18 21.54, 1.67 19.38, 0 15.71 M0 15.71 C-0.7 12.95, -1.07 8.73, 0 5.24 M0 15.71 C-0.23 11.69, 0.49 8.41, 0 5.24 M0 5.24 C0.46 2.35, 3.26 1.11, 5.24 0 M0 5.24 C0.22 1.57, 0.83 1.9, 5.24 0" stroke="#1e1e1e" stroke-width="2" fill="none"></path></g><g stroke-linecap="round" transform="translate(28.10504480902047 37.022564965653146) rotate(312.47556431009303 25.429687500000007 23.859375)"><path d="M27.91 0.44 C33.1 0.34, 40.13 2.63, 43.83 6.33 C47.54 10.03, 49.92 17.43, 50.14 22.65 C50.36 27.88, 48.15 33.79, 45.16 37.68 C42.17 41.57, 37.27 44.82, 32.19 46 C27.11 47.18, 19.84 46.68, 14.7 44.77 C9.56 42.86, 3.73 39.04, 1.35 34.54 C-1.03 30.03, -1.24 22.67, 0.42 17.74 C2.08 12.82, 6.23 7.84, 11.3 4.97 C16.37 2.1, 27.32 1.19, 30.85 0.54 C34.38 -0.11, 32.53 0.84, 32.49 1.06 M32.69 1.01 C37.86 2.38, 43.93 7.38, 46.81 11.81 C49.7 16.25, 50.56 22.55, 50.01 27.61 C49.46 32.67, 47.34 38.94, 43.51 42.18 C39.68 45.42, 32.59 46.76, 27.03 47.05 C21.48 47.34, 14.49 47.04, 10.19 43.94 C5.88 40.84, 2.65 33.57, 1.21 28.46 C-0.22 23.35, -1.07 17.79, 1.57 13.28 C4.22 8.78, 11.91 3.48, 17.09 1.44 C22.27 -0.59, 30.13 1.01, 32.67 1.07 C35.21 1.12, 32.49 1.21, 32.34 1.78" stroke="none" stroke-width="0" fill="#a5d8ff"></path><path d="M14.75 3.37 C19.1 0.68, 26.05 -1.11, 31.28 -0.19 C36.51 0.73, 42.98 4.65, 46.13 8.9 C49.29 13.14, 50.72 20.03, 50.22 25.28 C49.71 30.54, 46.76 36.84, 43.1 40.44 C39.44 44.05, 33.47 46.26, 28.26 46.93 C23.05 47.59, 16.31 47.21, 11.82 44.44 C7.32 41.67, 2.91 35.13, 1.3 30.29 C-0.32 25.45, -0.66 20.35, 2.12 15.39 C4.91 10.43, 14.54 3.12, 17.99 0.55 C21.45 -2.02, 22.55 -0.4, 22.86 -0.02 M13.59 1.26 C18.08 -1.51, 26.2 -1.76, 31.35 -0.45 C36.49 0.85, 41.03 4.89, 44.44 9.09 C47.86 13.29, 52.12 19.68, 51.84 24.74 C51.56 29.8, 46.57 35.58, 42.77 39.44 C38.97 43.29, 34.2 47.1, 29.03 47.88 C23.86 48.66, 16.56 47.2, 11.75 44.13 C6.94 41.06, 1.6 34.35, 0.17 29.48 C-1.27 24.61, 0.99 19.24, 3.16 14.93 C5.33 10.62, 11.27 5.78, 13.18 3.61 C15.09 1.44, 14.3 1.94, 14.64 1.88" stroke="#1e1e1e" stroke-width="2" fill="none"></path></g></svg>