<svg version="1.1" xmlns="http://www.w3.org/2000/svg" viewBox="0 0 106.88189535019183 127.12357954545405" width="106.88189535019183" height="127.12357954545405">
  <!-- svg-source:excalidraw -->
  
  <defs>
    <style class="style-fonts">
      @font-face {
        font-family: "Virgil";
        src: url("https://excalidraw.com/Virgil.woff2");
      }
      @font-face {
        font-family: "Cascadia";
        src: url("https://excalidraw.com/Cascadia.woff2");
      }
      @font-face {
        font-family: "Assistant";
        src: url("https://excalidraw.com/Assistant-Regular.woff2");
      }
    </style>
    
  </defs>
  <g stroke-linecap="round" transform="translate(10 24.85274621212193) rotate(0 42.630859375 38.322265625)"><path d="M19.16 0 C34.66 2.04, 54.5 1.22, 66.1 0 C79.58 -2.22, 82.14 9.06, 85.26 19.16 C86.05 29.11, 85.28 40.99, 85.26 57.48 C88.14 68.21, 79.56 77.58, 66.1 76.64 C49.66 74.11, 28.84 79.43, 19.16 76.64 C2.81 76.62, 1.3 66.85, 0 57.48 C3.16 43.5, 1.27 34.17, 0 19.16 C2.73 8.38, 6.73 -0.27, 19.16 0" stroke="none" stroke-width="0" fill="#a18072"></path><path d="M19.16 0 C33.15 -1.14, 45.54 1.17, 66.1 0 M19.16 0 C29.74 -0.18, 40.82 -0.37, 66.1 0 M66.1 0 C77.8 0.3, 85.47 4.66, 85.26 19.16 M66.1 0 C80.54 -1.04, 86.06 8.41, 85.26 19.16 M85.26 19.16 C86.12 34.46, 86.7 50.27, 85.26 57.48 M85.26 19.16 C85.9 31.34, 86.41 43.24, 85.26 57.48 M85.26 57.48 C84.5 71.43, 77.45 77.37, 66.1 76.64 M85.26 57.48 C86.41 71.74, 81.17 76.6, 66.1 76.64 M66.1 76.64 C51.55 77.77, 35.02 78.45, 19.16 76.64 M66.1 76.64 C52.05 77.88, 37.77 77.14, 19.16 76.64 M19.16 76.64 C4.77 77.4, -1.24 69.04, 0 57.48 M19.16 76.64 C6.74 74.54, 0.68 69.69, 0 57.48 M0 57.48 C0.29 47.3, 0.08 40.97, 0 19.16 M0 57.48 C-0.45 48.3, -0.26 36.58, 0 19.16 M0 19.16 C0.01 7.36, 5.92 -1.75, 19.16 0 M0 19.16 C0.21 4.74, 4.34 -0.7, 19.16 0" stroke="#1e1e1e" stroke-width="2" fill="none"></path></g><g stroke-linecap="round" transform="translate(33.86899266098453 102.14701704545405) rotate(0 19.283203125 7.48828125)"><path d="M3.74 0 C11.12 0.23, 17.84 -1.76, 34.82 0 C35.06 1.93, 39.33 -0.07, 38.57 3.74 C38.7 5.58, 39.37 8.72, 38.57 11.23 C39.06 14.41, 39.2 15.18, 34.82 14.98 C22.82 16.47, 11.54 14.64, 3.74 14.98 C2.19 12.51, 0.48 12.07, 0 11.23 C0.15 10, 0.66 8.71, 0 3.74 C0.25 1.05, 0.22 2.15, 3.74 0" stroke="none" stroke-width="0" fill="#868e96"></path><path d="M3.74 0 C11.08 0.6, 19.51 -0.17, 34.82 0 M3.74 0 C11.19 -0.25, 18.5 0.15, 34.82 0 M34.82 0 C37.42 -0.87, 39.29 0.79, 38.57 3.74 M34.82 0 C37.72 1.01, 39.63 0.16, 38.57 3.74 M38.57 3.74 C38.93 6.27, 38.69 8.78, 38.57 11.23 M38.57 3.74 C38.72 5.98, 38.5 8.68, 38.57 11.23 M38.57 11.23 C37.86 14.09, 37.82 15.62, 34.82 14.98 M38.57 11.23 C39.71 13.7, 37.76 14.3, 34.82 14.98 M34.82 14.98 C22.98 15.72, 10.54 14.09, 3.74 14.98 M34.82 14.98 C23.33 15.16, 10.65 15.3, 3.74 14.98 M3.74 14.98 C0.63 14.37, 0.15 12.81, 0 11.23 M3.74 14.98 C1.59 14.69, -0.71 14.02, 0 11.23 M0 11.23 C0.03 8.88, -0.16 5.72, 0 3.74 M0 11.23 C-0.05 9.04, 0.02 7.29, 0 3.74 M0 3.74 C-0.23 0.37, 1.34 -0.72, 3.74 0 M0 3.74 C-1.02 0.9, 2.03 -0.32, 3.74 0" stroke="#1e1e1e" stroke-width="2" fill="none"></path></g><g stroke-linecap="round" transform="translate(34.05486505681802 10) rotate(0 19.283203125 7.48828125)"><path d="M3.74 0 C14.74 -1.67, 22.47 1.87, 34.82 0 C38.09 -1.31, 40.36 2.07, 38.57 3.74 C39.35 4.88, 38.76 7.38, 38.57 11.23 C40.45 13.93, 38.18 15.73, 34.82 14.98 C25.35 15.24, 21.98 12.79, 3.74 14.98 C1.73 13.32, -2.48 15.69, 0 11.23 C0.72 9.9, 0.07 7.41, 0 3.74 C-1.03 3.4, -1.22 1.57, 3.74 0" stroke="none" stroke-width="0" fill="#868e96"></path><path d="M3.74 0 C10.36 -0.35, 17.76 -0.4, 34.82 0 M3.74 0 C11.4 0.18, 19.64 -0.33, 34.82 0 M34.82 0 C38.04 -0.45, 38.91 2.13, 38.57 3.74 M34.82 0 C38.38 -1.09, 38.7 1.95, 38.57 3.74 M38.57 3.74 C38.7 6.46, 38.68 8.53, 38.57 11.23 M38.57 3.74 C38.52 5.86, 38.46 7.82, 38.57 11.23 M38.57 11.23 C39.07 14.37, 38.32 14.96, 34.82 14.98 M38.57 11.23 C39.01 13.05, 38.38 15.75, 34.82 14.98 M34.82 14.98 C24.52 14.14, 14.84 15.59, 3.74 14.98 M34.82 14.98 C22.47 15.18, 10.62 14.69, 3.74 14.98 M3.74 14.98 C1.4 14.06, 0.3 13.48, 0 11.23 M3.74 14.98 C0.54 15.27, 0.67 13.95, 0 11.23 M0 11.23 C-0.15 9.24, -0.12 7.3, 0 3.74 M0 11.23 C0.02 8.48, -0.03 5.38, 0 3.74 M0 3.74 C0.09 0.53, 0.36 -0.3, 3.74 0 M0 3.74 C0.78 0.92, 0.31 -0.56, 3.74 0" stroke="#343a40" stroke-width="2" fill="none"></path></g><g stroke-linecap="round" transform="translate(65.74630283943043 23.860949680865815) rotate(312.47556431009303 13.974609375 10.47265625)"><path d="M5.24 0 C8.01 2.53, 17.17 -1.39, 22.71 0 C28.69 1.13, 25.27 2.12, 27.95 5.24 C28.46 7.87, 29.47 9.67, 27.95 15.71 C29.14 20.25, 23.39 18.66, 22.71 20.95 C17.39 17.96, 10.37 18.94, 5.24 20.95 C-1.69 23.67, -1.78 20.03, 0 15.71 C0.04 12.11, -0.89 10.35, 0 5.24 C-3.41 3.93, -0.29 -1, 5.24 0" stroke="none" stroke-width="0" fill="#a5d8ff"></path><path d="M5.24 0 C10.34 -0.51, 16.69 -0.18, 22.71 0 M5.24 0 C9.44 -0.78, 14.09 -0.42, 22.71 0 M22.71 0 C26.9 1.76, 29.8 -0.15, 27.95 5.24 M22.71 0 C26.47 1.41, 28.25 3.82, 27.95 5.24 M27.95 5.24 C28.21 9.18, 27.63 13.41, 27.95 15.71 M27.95 5.24 C27.54 7.59, 28.17 9.89, 27.95 15.71 M27.95 15.71 C29.95 19.16, 26.97 19.77, 22.71 20.95 M27.95 15.71 C30.07 20.74, 27 21.75, 22.71 20.95 M22.71 20.95 C17.71 21.66, 11.31 22.15, 5.24 20.95 M22.71 20.95 C16.73 20.48, 11.97 20.21, 5.24 20.95 M5.24 20.95 C2.34 20.46, -1.23 19.71, 0 15.71 M5.24 20.95 C3.09 21.39, -1.2 19.41, 0 15.71 M0 15.71 C-0.28 11.03, 0.88 7.17, 0 5.24 M0 15.71 C-0.12 13.09, 0.05 11.01, 0 5.24 M0 5.24 C-1.78 1.14, 3.1 -0.56, 5.24 0 M0 5.24 C-1.87 0.62, 2.61 0.51, 5.24 0" stroke="#1e1e1e" stroke-width="2" fill="none"></path></g><g stroke-linecap="round" transform="translate(27.917475541171825 38.54130475837155) rotate(312.47556431009303 25.4296875 23.859375)"><path d="M32.82 1.88 C37.78 3.01, 43.36 6.35, 46.29 10.38 C49.21 14.4, 50.81 20.97, 50.38 26.04 C49.94 31.12, 47.74 37.21, 43.67 40.81 C39.6 44.42, 31.45 47.36, 25.96 47.69 C20.47 48.01, 15.08 45.8, 10.72 42.76 C6.36 39.72, 1.26 34.53, -0.19 29.45 C-1.65 24.36, -0.55 16.73, 1.99 12.26 C4.53 7.79, 9.49 4.46, 15.06 2.63 C20.64 0.79, 31.66 0.97, 35.45 1.23 C39.25 1.5, 37.91 3.69, 37.82 4.22 M29.02 0.56 C34.23 1.11, 39.13 4.81, 42.84 8.2 C46.54 11.59, 50.68 16.22, 51.26 20.91 C51.83 25.59, 49.31 32.11, 46.26 36.32 C43.21 40.52, 38.21 44.54, 32.96 46.11 C27.7 47.69, 19.66 47.82, 14.73 45.77 C9.8 43.72, 5.58 38.48, 3.36 33.84 C1.14 29.19, 0.34 22.99, 1.43 17.88 C2.52 12.78, 5.3 6.43, 9.88 3.22 C14.47 0.01, 25.96 -1.03, 28.95 -1.38 C31.94 -1.72, 28.3 0.44, 27.85 1.13" stroke="none" stroke-width="0" fill="#a5d8ff"></path><path d="M23.95 0.15 C29.05 -0.25, 35.33 2.29, 39.62 5.36 C43.91 8.42, 48.1 13.56, 49.68 18.56 C51.26 23.56, 51.6 30.82, 49.1 35.36 C46.61 39.9, 39.73 43.9, 34.7 45.83 C29.66 47.75, 23.82 48.26, 18.9 46.89 C13.98 45.52, 8.25 41.72, 5.17 37.61 C2.09 33.5, -0.07 27.36, 0.42 22.23 C0.9 17.11, 3.89 10.43, 8.09 6.86 C12.28 3.28, 22.43 1.88, 25.58 0.77 C28.74 -0.34, 26.89 0.06, 27.03 0.22 M31.52 0.36 C36.64 0.63, 42.15 3.66, 45.6 7.77 C49.06 11.88, 52.29 19.69, 52.24 25.03 C52.19 30.38, 48.91 36.1, 45.32 39.85 C41.73 43.6, 36.39 46.57, 30.7 47.54 C25 48.51, 15.89 48.07, 11.15 45.67 C6.41 43.27, 3.63 38.12, 2.23 33.13 C0.83 28.13, 1.2 20.62, 2.77 15.71 C4.34 10.8, 7.27 6.38, 11.66 3.68 C16.05 0.98, 26.01 0.18, 29.09 -0.52 C32.17 -1.22, 30.01 -0.99, 30.16 -0.51" stroke="#1e1e1e" stroke-width="2" fill="none"></path></g></svg>