<svg version="1.1" xmlns="http://www.w3.org/2000/svg" viewBox="0 0 116.80622209821377 127.12357954545405" width="116.80622209821377" height="127.12357954545405">
  <!-- svg-source:excalidraw -->
  
  <defs>
    <style class="style-fonts">
      @font-face {
        font-family: "Virgil";
        src: url("https://excalidraw.com/Virgil.woff2");
      }
      @font-face {
        font-family: "Cascadia";
        src: url("https://excalidraw.com/Cascadia.woff2");
      }
      @font-face {
        font-family: "Assistant";
        src: url("https://excalidraw.com/Assistant-Regular.woff2");
      }
    </style>
    
  </defs>
  <g stroke-linecap="round" transform="translate(21.544503348213766 24.85274621212011) rotate(0 42.630859375 38.322265625)"><path d="M19.16 0 C33.87 -1.5, 43.82 3.52, 66.1 0 C77.09 0.83, 86.35 9.11, 85.26 19.16 C83.9 35.76, 81.91 48.58, 85.26 57.48 C83.22 69.26, 78.09 76.46, 66.1 76.64 C53.79 78.33, 39.98 77.31, 19.16 76.64 C4.84 77.09, 2.68 71.69, 0 57.48 C4.07 46.63, -0.24 37.63, 0 19.16 C-1.26 6.96, 5.21 2.78, 19.16 0" stroke="none" stroke-width="0" fill="#a18072"></path><path d="M19.16 0 C37.26 1.42, 54.79 -0.88, 66.1 0 M19.16 0 C36.48 0.47, 53.8 -0.19, 66.1 0 M66.1 0 C79.64 -1.18, 87.11 7.73, 85.26 19.16 M66.1 0 C79.67 0.8, 86.84 6.62, 85.26 19.16 M85.26 19.16 C87.27 28.62, 85.8 33.33, 85.26 57.48 M85.26 19.16 C85.18 31.19, 85.32 44.8, 85.26 57.48 M85.26 57.48 C84.03 70.77, 80.04 77.03, 66.1 76.64 M85.26 57.48 C84.06 70.47, 80.89 75.74, 66.1 76.64 M66.1 76.64 C55.4 75.55, 39.63 76.38, 19.16 76.64 M66.1 76.64 C49.84 75.52, 32.5 75.93, 19.16 76.64 M19.16 76.64 C7.75 76.08, -1.63 69.28, 0 57.48 M19.16 76.64 C7.25 77.16, 0.34 70.71, 0 57.48 M0 57.48 C0.92 47.34, 1.71 39.86, 0 19.16 M0 57.48 C0.76 48.27, 0.15 40.46, 0 19.16 M0 19.16 C1.45 6.54, 7.05 0.58, 19.16 0 M0 19.16 C-1.8 4.92, 7.99 -2.28, 19.16 0" stroke="#1e1e1e" stroke-width="2" fill="none"></path></g><g stroke-linecap="round" transform="translate(45.41349600919875 102.14701704545405) rotate(0 19.283203125 7.48828125)"><path d="M3.74 0 C7.64 2.22, 15.21 0.86, 34.82 0 C38.11 1.97, 40.01 1.5, 38.57 3.74 C37.6 6.52, 37.98 7.85, 38.57 11.23 C38 13.6, 37.27 16.4, 34.82 14.98 C28.18 15.95, 17.73 15.53, 3.74 14.98 C3.18 16.01, -1.08 11.53, 0 11.23 C-0.32 8.78, -0.43 6.51, 0 3.74 C-0.85 3.25, 3.05 -0.27, 3.74 0" stroke="none" stroke-width="0" fill="#868e96"></path><path d="M3.74 0 C12.91 -0.5, 24.54 -0.83, 34.82 0 M3.74 0 C14.7 -0.11, 24.84 -0.39, 34.82 0 M34.82 0 C38.24 0.67, 38.91 1.6, 38.57 3.74 M34.82 0 C38.11 0.12, 37.48 2.2, 38.57 3.74 M38.57 3.74 C38.64 6.07, 38.74 8.76, 38.57 11.23 M38.57 3.74 C38.63 5.49, 38.46 7.38, 38.57 11.23 M38.57 11.23 C39.15 13.92, 36.8 15.07, 34.82 14.98 M38.57 11.23 C39.57 13.27, 36.88 14.62, 34.82 14.98 M34.82 14.98 C26.4 14.92, 20.34 14.68, 3.74 14.98 M34.82 14.98 C27.78 14.71, 21.96 14.72, 3.74 14.98 M3.74 14.98 C0.43 14.49, 0.38 13.95, 0 11.23 M3.74 14.98 C1.42 15.2, -0.71 12.73, 0 11.23 M0 11.23 C0.25 8.55, -0.29 5.67, 0 3.74 M0 11.23 C0.01 9.75, 0.11 8.18, 0 3.74 M0 3.74 C0.33 1.54, 0.47 -0.64, 3.74 0 M0 3.74 C0.8 0.11, 1.24 0.41, 3.74 0" stroke="#1e1e1e" stroke-width="2" fill="none"></path></g><g stroke-linecap="round" transform="translate(45.59936840503178 10) rotate(0 19.283203125 7.48828125)"><path d="M3.74 0 C9.8 0.29, 19.21 1.66, 34.82 0 C38.76 0.25, 38.37 0.22, 38.57 3.74 C37.92 6.34, 38.26 9.43, 38.57 11.23 C38.52 15.16, 36.2 16.19, 34.82 14.98 C22.61 15.41, 14.57 16.13, 3.74 14.98 C0.17 12.78, 0.67 16.25, 0 11.23 C-0.32 9.34, -0.3 7.89, 0 3.74 C1.8 0.98, 1.66 -1.68, 3.74 0" stroke="none" stroke-width="0" fill="#868e96"></path><path d="M3.74 0 C16.04 -0.65, 27.52 0.56, 34.82 0 M3.74 0 C15.26 -0.29, 26.86 0.34, 34.82 0 M34.82 0 C37.67 0.35, 39.25 1.35, 38.57 3.74 M34.82 0 C36.24 0.95, 39.15 2.22, 38.57 3.74 M38.57 3.74 C38.71 6.35, 38.34 9.47, 38.57 11.23 M38.57 3.74 C38.46 5.35, 38.69 6.9, 38.57 11.23 M38.57 11.23 C38.04 13.82, 38.19 14.58, 34.82 14.98 M38.57 11.23 C38.13 13.37, 36.64 15.89, 34.82 14.98 M34.82 14.98 C27.25 14.74, 17.83 15.07, 3.74 14.98 M34.82 14.98 C28.07 14.79, 20.22 14.68, 3.74 14.98 M3.74 14.98 C1.62 15.2, 0.15 13.92, 0 11.23 M3.74 14.98 C0.54 13.98, 0.85 14.07, 0 11.23 M0 11.23 C-0.3 9.4, -0.38 7.79, 0 3.74 M0 11.23 C0.13 9.43, 0.05 7.65, 0 3.74 M0 3.74 C-0.78 0.61, 1.94 -0.99, 3.74 0 M0 3.74 C-0.01 1.66, 0.16 0.21, 3.74 0" stroke="#343a40" stroke-width="2" fill="none"></path></g><g stroke-linecap="round" transform="translate(10 53.475852272726115) rotate(0 13.974609375 10.47265625)"><path d="M5.24 0 C12.75 2.31, 20.11 0.23, 22.71 0 C25.93 -1.43, 30.93 -1.67, 27.95 5.24 C27.43 8.92, 27.81 13.82, 27.95 15.71 C26.4 20.88, 28.26 22.81, 22.71 20.95 C19.31 22.24, 9.92 18.32, 5.24 20.95 C2.67 24.43, -0.95 18.37, 0 15.71 C-0.55 14.03, 1.37 9.26, 0 5.24 C0.58 -0.58, 5.13 3.21, 5.24 0" stroke="none" stroke-width="0" fill="#a5d8ff"></path><path d="M5.24 0 C10.44 1, 15.51 1.87, 22.71 0 M5.24 0 C11.25 0.69, 15.95 0.41, 22.71 0 M22.71 0 C27.57 0.2, 26.07 3.39, 27.95 5.24 M22.71 0 C27.37 1.94, 29.75 2, 27.95 5.24 M27.95 5.24 C27.35 7.69, 27.03 10.14, 27.95 15.71 M27.95 5.24 C28.19 8.22, 27.61 11.05, 27.95 15.71 M27.95 15.71 C29.7 18.41, 25.44 20.32, 22.71 20.95 M27.95 15.71 C26.59 21.04, 25.27 18.79, 22.71 20.95 M22.71 20.95 C15.93 21.07, 10.95 19.35, 5.24 20.95 M22.71 20.95 C17.29 20.47, 13.61 21.09, 5.24 20.95 M5.24 20.95 C2.04 21.34, -1.24 17.46, 0 15.71 M5.24 20.95 C3.45 21.62, -1.16 20.79, 0 15.71 M0 15.71 C-0.92 13.07, -0.52 8.96, 0 5.24 M0 15.71 C0.1 12.45, -0.49 8.55, 0 5.24 M0 5.24 C1.39 -0.24, 1.73 0.72, 5.24 0 M0 5.24 C-2.18 2.17, 0.28 -2.2, 5.24 0" stroke="#1e1e1e" stroke-width="2" fill="none"></path></g><g stroke-linecap="round" transform="translate(36.888671875 39.436789772726115) rotate(0 25.4296875 23.859375)"><path d="M35.35 1.94 C40.12 3.52, 44.64 7.93, 46.99 12.5 C49.33 17.06, 50.45 24.3, 49.42 29.33 C48.38 34.35, 44.81 39.48, 40.77 42.66 C36.72 45.85, 30.46 48.53, 25.12 48.44 C19.78 48.35, 12.82 45.74, 8.73 42.12 C4.64 38.49, 1.53 31.68, 0.58 26.69 C-0.36 21.7, 0.45 16.41, 3.06 12.17 C5.68 7.93, 10.78 3.1, 16.28 1.25 C21.78 -0.59, 32.66 0.92, 36.06 1.09 C39.47 1.26, 37.08 1.63, 36.69 2.27 M20.33 1.56 C25.23 -0.02, 32.03 -0.03, 36.64 2.27 C41.26 4.56, 46.06 10.49, 48.03 15.32 C50 20.15, 50 26.62, 48.48 31.27 C46.95 35.91, 43.2 40.47, 38.87 43.18 C34.55 45.89, 27.82 47.83, 22.53 47.52 C17.25 47.21, 11.02 44.85, 7.17 41.32 C3.32 37.78, -0.33 31.41, -0.58 26.3 C-0.83 21.2, 2.29 15.05, 5.66 10.68 C9.03 6.31, 17.32 1.48, 19.62 0.08 C21.93 -1.31, 19.37 1.92, 19.5 2.31" stroke="none" stroke-width="0" fill="#a5d8ff"></path><path d="M37.01 3.83 C41.83 5.88, 47.63 10.78, 49.78 15.5 C51.92 20.22, 51.71 27.52, 49.88 32.15 C48.05 36.78, 43.35 40.65, 38.78 43.28 C34.21 45.92, 27.72 48.43, 22.45 47.96 C17.19 47.48, 10.92 44.48, 7.2 40.42 C3.48 36.37, 0.33 28.98, 0.12 23.64 C-0.09 18.29, 2.65 12.19, 5.93 8.36 C9.21 4.52, 13.81 0.9, 19.79 0.62 C25.78 0.35, 37.44 5.02, 41.83 6.69 C46.23 8.35, 46.24 10.26, 46.15 10.6 M29.18 -0.48 C34.4 -0.42, 39.55 2.73, 43 6.67 C46.45 10.62, 49.47 18.25, 49.89 23.19 C50.31 28.13, 48.53 32.23, 45.52 36.31 C42.5 40.39, 37.03 46.39, 31.8 47.69 C26.57 48.98, 19.02 46.58, 14.13 44.08 C9.23 41.58, 4.85 37.18, 2.43 32.67 C0 28.17, -2.01 21.84, -0.41 17.02 C1.2 12.21, 7.54 6.71, 12.05 3.77 C16.56 0.83, 23.93 -0.15, 26.65 -0.63 C29.38 -1.1, 28.19 0.35, 28.39 0.92" stroke="#1e1e1e" stroke-width="2" fill="none"></path></g></svg>