<svg version="1.1" xmlns="http://www.w3.org/2000/svg" viewBox="0 0 105.26171875 129.23744184244413" width="105.26171875" height="129.23744184244413">
  <!-- svg-source:excalidraw -->
  
  <defs>
    <style class="style-fonts">
      @font-face {
        font-family: "Virgil";
        src: url("https://excalidraw.com/Virgil.woff2");
      }
      @font-face {
        font-family: "Cascadia";
        src: url("https://excalidraw.com/Cascadia.woff2");
      }
      @font-face {
        font-family: "Assistant";
        src: url("https://excalidraw.com/Assistant-Regular.woff2");
      }
    </style>
    
  </defs>
  <g stroke-linecap="round" transform="translate(10 26.966608509110188) rotate(0 42.630859375 38.322265625)"><path d="M19.16 0 C39.21 1.56, 51.62 0.8, 66.1 0 C75.45 2.88, 83.21 7.07, 85.26 19.16 C86.95 32.7, 82.94 41.86, 85.26 57.48 C87.77 66.68, 78.85 77.94, 66.1 76.64 C53.03 78.83, 45.05 76.93, 19.16 76.64 C7.48 79.37, 1.99 70.6, 0 57.48 C-3.14 48.46, -1.76 34.07, 0 19.16 C-0.78 6.21, 6.32 1.98, 19.16 0" stroke="none" stroke-width="0" fill="#a18072"></path><path d="M19.16 0 C30.46 -1.01, 44.64 0.27, 66.1 0 M19.16 0 C29.53 1.09, 40.12 -0.73, 66.1 0 M66.1 0 C79.11 1.22, 85.52 8.19, 85.26 19.16 M66.1 0 C80.06 0.61, 87.55 6.9, 85.26 19.16 M85.26 19.16 C83.26 30.86, 86.3 42.67, 85.26 57.48 M85.26 19.16 C86.45 32.03, 85.84 44.35, 85.26 57.48 M85.26 57.48 C87.11 71.6, 79.57 77.34, 66.1 76.64 M85.26 57.48 C86.84 70.49, 76.71 78.54, 66.1 76.64 M66.1 76.64 C49.87 75.4, 33.95 75.77, 19.16 76.64 M66.1 76.64 C55.17 75.97, 43.02 76.47, 19.16 76.64 M19.16 76.64 C7.55 77.03, -1.05 70.44, 0 57.48 M19.16 76.64 C8.4 75.74, -0.87 69.54, 0 57.48 M0 57.48 C-2.18 48.27, 0.66 38.57, 0 19.16 M0 57.48 C-0.92 49.04, 0.64 40.92, 0 19.16 M0 19.16 C-1.63 5.41, 7.14 0.45, 19.16 0 M0 19.16 C0.34 6.84, 4.97 -2, 19.16 0" stroke="#1e1e1e" stroke-width="2" fill="none"></path></g><g stroke-linecap="round" transform="translate(33.86899266098453 104.26087934244413) rotate(0 19.283203125 7.48828125)"><path d="M3.74 0 C9.56 0.14, 16.78 1.95, 34.82 0 C35.84 0.49, 39.24 3.13, 38.57 3.74 C37.84 5.43, 39.28 7.39, 38.57 11.23 C38.55 14.67, 34.86 15.46, 34.82 14.98 C26.19 15.88, 20.93 17.25, 3.74 14.98 C2.69 15.23, -0.2 12.7, 0 11.23 C-0.46 8.1, -0.12 5.45, 0 3.74 C-0.05 2.68, 0.13 1.21, 3.74 0" stroke="none" stroke-width="0" fill="#868e96"></path><path d="M3.74 0 C12.82 0.19, 20.73 0.81, 34.82 0 M3.74 0 C12.12 -0.61, 19.63 0.17, 34.82 0 M34.82 0 C37.45 0.9, 39.08 1.51, 38.57 3.74 M34.82 0 C38.46 0.26, 38.86 0.87, 38.57 3.74 M38.57 3.74 C38.75 6.3, 38.67 9.57, 38.57 11.23 M38.57 3.74 C38.68 6.36, 38.78 9.33, 38.57 11.23 M38.57 11.23 C38.91 14.08, 38 15.08, 34.82 14.98 M38.57 11.23 C37.48 14.68, 37.9 15.95, 34.82 14.98 M34.82 14.98 C23.44 14.23, 10.7 15, 3.74 14.98 M34.82 14.98 C28.03 15.07, 22.15 15.03, 3.74 14.98 M3.74 14.98 C0.73 15.07, 0.87 13.33, 0 11.23 M3.74 14.98 C0.81 14.62, -0.68 14.65, 0 11.23 M0 11.23 C0.22 9.2, -0.29 7.38, 0 3.74 M0 11.23 C0.16 9.47, -0.12 7.72, 0 3.74 M0 3.74 C0.38 1.47, 1.4 0.2, 3.74 0 M0 3.74 C-0.71 0.25, 2.1 0.34, 3.74 0" stroke="#1e1e1e" stroke-width="2" fill="none"></path></g><g stroke-linecap="round" transform="translate(34.05486505681802 12.113862296988259) rotate(0 19.283203125 7.48828125)"><path d="M3.74 0 C11.57 2.03, 22.86 0.45, 34.82 0 C37.99 1.89, 38.77 2.11, 38.57 3.74 C39.17 5.24, 38.48 9.02, 38.57 11.23 C36.1 14.21, 35.66 12.5, 34.82 14.98 C23.94 17.04, 12.92 15.32, 3.74 14.98 C1.05 13.95, 2.15 11.26, 0 11.23 C-0.16 8.48, 0.04 6.37, 0 3.74 C-1.12 2.46, 2.73 1.34, 3.74 0" stroke="none" stroke-width="0" fill="#868e96"></path><path d="M3.74 0 C10.54 0.71, 18.61 0.33, 34.82 0 M3.74 0 C15.86 0.45, 27.92 0.6, 34.82 0 M34.82 0 C37.84 0.26, 39.56 1.47, 38.57 3.74 M34.82 0 C37.61 -0.38, 39.45 0.17, 38.57 3.74 M38.57 3.74 C38.72 5.89, 38.83 8.04, 38.57 11.23 M38.57 3.74 C38.75 6.1, 38.65 8.27, 38.57 11.23 M38.57 11.23 C39.25 13.83, 36.38 15.8, 34.82 14.98 M38.57 11.23 C39.15 14.7, 38.22 15.1, 34.82 14.98 M34.82 14.98 C27.4 15.03, 20.28 15.18, 3.74 14.98 M34.82 14.98 C26.55 15.11, 17.44 15.06, 3.74 14.98 M3.74 14.98 C2.12 14.58, -0.38 13.42, 0 11.23 M3.74 14.98 C0.57 15.89, -0.47 12.65, 0 11.23 M0 11.23 C-0.35 9.02, -0.29 6.4, 0 3.74 M0 11.23 C-0.18 9.12, 0.04 7.23, 0 3.74 M0 3.74 C0.15 1.44, 0.63 -0.87, 3.74 0 M0 3.74 C0.85 1.59, 0.67 0.79, 3.74 0" stroke="#343a40" stroke-width="2" fill="none"></path></g><g stroke-linecap="round" transform="translate(39.397448168828305 13.626040698085376) rotate(269.315648468081 13.974609375 10.47265625)"><path d="M5.24 0 C8.87 0.34, 16.9 2.03, 22.71 0 C26.48 1.19, 28.99 -1.07, 27.95 5.24 C28.07 8.39, 26.29 10.54, 27.95 15.71 C25.65 15.76, 28.92 19.16, 22.71 20.95 C18.81 21.49, 11.18 19.94, 5.24 20.95 C4.72 17.53, 2.18 17.16, 0 15.71 C0 13.89, -0.77 10.88, 0 5.24 C2.05 3.61, 2.78 -1.54, 5.24 0" stroke="none" stroke-width="0" fill="#a5d8ff"></path><path d="M5.24 0 C9.87 0.48, 17.62 1.49, 22.71 0 M5.24 0 C8.94 0.68, 12.87 0.12, 22.71 0 M22.71 0 C28.19 0.45, 28.45 1.09, 27.95 5.24 M22.71 0 C27.97 -2.16, 27.07 3.09, 27.95 5.24 M27.95 5.24 C28.66 8.68, 27.97 10.44, 27.95 15.71 M27.95 5.24 C28.23 7.95, 28.4 10.34, 27.95 15.71 M27.95 15.71 C26.07 20.85, 27.21 22.63, 22.71 20.95 M27.95 15.71 C29.75 19.46, 24.35 21.81, 22.71 20.95 M22.71 20.95 C16.96 21.49, 13.97 19.89, 5.24 20.95 M22.71 20.95 C16.56 21.06, 12.09 20.63, 5.24 20.95 M5.24 20.95 C0.99 20.32, -1.19 20.8, 0 15.71 M5.24 20.95 C0.81 18.79, 0.01 20.31, 0 15.71 M0 15.71 C-0.66 11.88, -0.23 10.62, 0 5.24 M0 15.71 C0.28 12.98, 0.16 10.12, 0 5.24 M0 5.24 C-1.24 0.01, 3.23 0.59, 5.24 0 M0 5.24 C-1.16 3.33, 2.47 -1.71, 5.24 0" stroke="#1e1e1e" stroke-width="2" fill="none"></path></g><g stroke-linecap="round" transform="translate(27.939453125 38.740472132401806) rotate(269.315648468081 25.4296875 23.859375)"><path d="M20.77 0.26 C25.78 -1.01, 32.02 0.63, 36.62 2.95 C41.21 5.26, 46.24 9.31, 48.34 14.16 C50.45 19.01, 50.91 27.17, 49.27 32.04 C47.63 36.91, 43.17 40.72, 38.5 43.35 C33.83 45.99, 26.57 48.42, 21.26 47.84 C15.95 47.26, 10.17 43.86, 6.66 39.87 C3.15 35.89, 0.55 28.95, 0.21 23.94 C-0.14 18.93, 0.51 13.88, 4.61 9.81 C8.71 5.74, 20.67 0.98, 24.8 -0.49 C28.93 -1.96, 29.53 0.49, 29.38 0.99 M14.06 3.04 C18.49 0.71, 26.76 -0.43, 32.11 0.7 C37.46 1.83, 43.23 5.95, 46.16 9.84 C49.08 13.73, 49.82 19.25, 49.66 24.04 C49.49 28.82, 48.66 34.55, 45.16 38.56 C41.66 42.56, 34.46 47.12, 28.64 48.07 C22.83 49.01, 15.01 47.3, 10.26 44.21 C5.52 41.12, 1.38 34.57, 0.19 29.52 C-1 24.47, 0.78 18.3, 3.11 13.9 C5.43 9.5, 12.11 4.78, 14.12 3.11 C16.12 1.44, 14.98 3.65, 15.14 3.91" stroke="none" stroke-width="0" fill="#a5d8ff"></path><path d="M37.38 2.63 C42.46 4.59, 47.53 10.02, 49.65 14.85 C51.76 19.68, 51.74 26.76, 50.08 31.62 C48.42 36.48, 44.34 41.22, 39.7 44 C35.06 46.79, 27.84 49.02, 22.24 48.33 C16.63 47.65, 9.65 43.86, 6.05 39.91 C2.45 35.95, 0.75 29.57, 0.63 24.62 C0.51 19.66, 2.1 14, 5.34 10.18 C8.59 6.35, 13.96 2.28, 20.13 1.66 C26.29 1.04, 38.06 4.7, 42.33 6.43 C46.6 8.16, 45.9 11.74, 45.73 12.03 M28.44 1.6 C33.54 2.33, 41.74 6.05, 45.67 9.79 C49.6 13.53, 52.36 19.03, 52.04 24.03 C51.71 29.02, 47.55 36.03, 43.7 39.76 C39.84 43.5, 34.04 45.88, 28.91 46.45 C23.79 47.01, 17.43 45.62, 12.94 43.15 C8.45 40.68, 4.03 36.16, 1.98 31.65 C-0.08 27.14, -1.33 20.78, 0.61 16.08 C2.54 11.39, 8.85 6.08, 13.59 3.48 C18.33 0.89, 26.15 1.04, 29.06 0.5 C31.98 -0.04, 31.11 -0.05, 31.07 0.24" stroke="#1e1e1e" stroke-width="2" fill="none"></path></g></svg>