<svg version="1.1" xmlns="http://www.w3.org/2000/svg" viewBox="0 0 105.26171875 128.99023202101296" width="105.26171875" height="128.99023202101296">
  <!-- svg-source:excalidraw -->
  
  <defs>
    <style class="style-fonts">
      @font-face {
        font-family: "Virgil";
        src: url("https://excalidraw.com/Virgil.woff2");
      }
      @font-face {
        font-family: "Cascadia";
        src: url("https://excalidraw.com/Cascadia.woff2");
      }
      @font-face {
        font-family: "Assistant";
        src: url("https://excalidraw.com/Assistant-Regular.woff2");
      }
    </style>
    
  </defs>
  <g stroke-linecap="round" transform="translate(10 24.85274621212193) rotate(0 42.630859375 38.322265625)"><path d="M19.16 0 C34.2 -1.53, 46.97 2.07, 66.1 0 C80.73 1.03, 83.72 6.83, 85.26 19.16 C82.49 34.44, 89.02 46.91, 85.26 57.48 C84.43 70.21, 77.62 77.22, 66.1 76.64 C53.18 77.81, 38.67 80.61, 19.16 76.64 C9.6 77.07, 1.38 69.62, 0 57.48 C-2.26 49.51, -0.11 34.18, 0 19.16 C0.8 8.17, 5.02 -2.71, 19.16 0" stroke="none" stroke-width="0" fill="#a18072"></path><path d="M19.16 0 C38.11 1.45, 55.45 2.01, 66.1 0 M19.16 0 C33.14 -0.78, 48.52 -1.09, 66.1 0 M66.1 0 C79.47 -0.49, 84.03 6.9, 85.26 19.16 M66.1 0 C80.21 0.44, 84.06 6.6, 85.26 19.16 M85.26 19.16 C84.49 32.83, 86.71 48.05, 85.26 57.48 M85.26 19.16 C85.03 26.19, 85.36 34.25, 85.26 57.48 M85.26 57.48 C83.48 69.65, 80.23 76.08, 66.1 76.64 M85.26 57.48 C83.39 69.13, 79.74 77.16, 66.1 76.64 M66.1 76.64 C49.59 77.84, 37.14 75.34, 19.16 76.64 M66.1 76.64 C48.88 75.34, 32.26 75.73, 19.16 76.64 M19.16 76.64 C6.77 77.16, 1.45 70.41, 0 57.48 M19.16 76.64 C7.15 77.31, -1.8 68.79, 0 57.48 M0 57.48 C1.1 41.42, 0.75 27.87, 0 19.16 M0 57.48 C-0.06 49.95, 0.47 42.36, 0 19.16 M0 19.16 C0.19 6.24, 5.6 1.65, 19.16 0 M0 19.16 C-2.18 7.78, 5.09 -0.64, 19.16 0" stroke="#1e1e1e" stroke-width="2" fill="none"></path></g><g stroke-linecap="round" transform="translate(33.86899266098408 102.14701704545587) rotate(0 19.283203125 7.48828125)"><path d="M3.74 0 C14.22 1.66, 23.61 0.92, 34.82 0 C36.2 0.32, 40.5 2.28, 38.57 3.74 C39.43 5.42, 38.26 7.6, 38.57 11.23 C37.66 14.15, 36.47 16.98, 34.82 14.98 C21.66 17.48, 14.19 15.35, 3.74 14.98 C2.24 14.52, 0 13.81, 0 11.23 C0.04 8.59, 0.28 6.6, 0 3.74 C-0.98 -0.71, 0.15 0.31, 3.74 0" stroke="none" stroke-width="0" fill="#868e96"></path><path d="M3.74 0 C10.99 0.71, 16.66 -0.89, 34.82 0 M3.74 0 C14.32 -0.36, 24.89 -0.03, 34.82 0 M34.82 0 C36.7 0.26, 39.15 1.44, 38.57 3.74 M34.82 0 C36.72 0.1, 39.57 0.79, 38.57 3.74 M38.57 3.74 C38.85 5.55, 38.2 7.67, 38.57 11.23 M38.57 3.74 C38.57 6.22, 38.39 8.91, 38.57 11.23 M38.57 11.23 C39.25 13.45, 36.51 14.49, 34.82 14.98 M38.57 11.23 C39 13.98, 37.49 15.2, 34.82 14.98 M34.82 14.98 C27.71 14.59, 20.71 15.41, 3.74 14.98 M34.82 14.98 C28.21 14.54, 20.9 14.96, 3.74 14.98 M3.74 14.98 C1.97 15.05, 0.33 14.02, 0 11.23 M3.74 14.98 C0.35 14.24, 0.8 12.59, 0 11.23 M0 11.23 C0.06 8.75, -0.37 7.03, 0 3.74 M0 11.23 C0.13 9.46, 0.01 7.47, 0 3.74 M0 3.74 C-0.4 2.08, 0.3 0.61, 3.74 0 M0 3.74 C-0.65 0.93, 1 -0.06, 3.74 0" stroke="#1e1e1e" stroke-width="2" fill="none"></path></g><g stroke-linecap="round" transform="translate(34.05486505681802 10) rotate(0 19.283203125 7.48828125)"><path d="M3.74 0 C13.07 0.51, 18.6 0.09, 34.82 0 C39.25 1.04, 37.49 -0.95, 38.57 3.74 C38.44 6.17, 38.32 8.78, 38.57 11.23 C37.72 15.74, 39.12 14.71, 34.82 14.98 C27.32 15.66, 16.17 14.9, 3.74 14.98 C1.25 15.06, 1.08 12.11, 0 11.23 C0.22 8.74, -0.37 4.54, 0 3.74 C-1.09 1.56, 1.85 1.79, 3.74 0" stroke="none" stroke-width="0" fill="#868e96"></path><path d="M3.74 0 C14.75 -0.93, 25.91 -0.74, 34.82 0 M3.74 0 C11.33 0.02, 18.31 0.27, 34.82 0 M34.82 0 C37.9 0.19, 38.04 1.34, 38.57 3.74 M34.82 0 C38.32 -0.45, 38.13 0.89, 38.57 3.74 M38.57 3.74 C38.25 5.55, 38.78 7.26, 38.57 11.23 M38.57 3.74 C38.4 5.28, 38.7 6.87, 38.57 11.23 M38.57 11.23 C37.75 13.24, 37.69 15.2, 34.82 14.98 M38.57 11.23 C38.74 13.95, 36.61 13.98, 34.82 14.98 M34.82 14.98 C23.88 15.21, 10.81 15, 3.74 14.98 M34.82 14.98 C28.55 15.02, 22.46 14.93, 3.74 14.98 M3.74 14.98 C1.58 15.27, -0.78 13.09, 0 11.23 M3.74 14.98 C2.05 13.83, -0.01 14.14, 0 11.23 M0 11.23 C-0.36 9.98, -0.19 8.24, 0 3.74 M0 11.23 C-0.01 8.74, -0.1 6.44, 0 3.74 M0 3.74 C-0.95 1.85, 0.68 -0.28, 3.74 0 M0 3.74 C-0.25 1.19, 1.23 0.63, 3.74 0" stroke="#343a40" stroke-width="2" fill="none"></path></g><g stroke-linecap="round" transform="translate(39.397448168828305 94.41887882292758) rotate(90.684351531919 13.974609375 10.47265625)"><path d="M5.24 0 C10.13 0.3, 20.06 1.16, 22.71 0 C24.71 -3.05, 28.88 5.23, 27.95 5.24 C27.25 8.4, 27.29 12.42, 27.95 15.71 C30.44 18.83, 26.78 18.62, 22.71 20.95 C17.03 20.43, 8.94 21.08, 5.24 20.95 C3.24 18.7, 3.52 19.11, 0 15.71 C-0.76 11.24, -0.84 9.83, 0 5.24 C0.84 4.23, -0.93 1.2, 5.24 0" stroke="none" stroke-width="0" fill="#a5d8ff"></path><path d="M5.24 0 C12.51 -0.94, 17.4 0.41, 22.71 0 M5.24 0 C8.34 0.27, 13.03 0.21, 22.71 0 M22.71 0 C25.16 0.18, 29.7 0.95, 27.95 5.24 M22.71 0 C25.33 -0.71, 26.59 3.58, 27.95 5.24 M27.95 5.24 C28.36 7.71, 26.93 10.76, 27.95 15.71 M27.95 5.24 C28.21 7.48, 27.43 9.76, 27.95 15.71 M27.95 15.71 C28.7 19.65, 26.5 21.34, 22.71 20.95 M27.95 15.71 C26.53 17.2, 27.91 21.62, 22.71 20.95 M22.71 20.95 C17.05 21.18, 12.33 22.4, 5.24 20.95 M22.71 20.95 C19.1 21.06, 14.51 21.24, 5.24 20.95 M5.24 20.95 C0.18 19.67, 1.39 17.21, 0 15.71 M5.24 20.95 C1.73 21.77, -2.18 19.62, 0 15.71 M0 15.71 C-0.42 13.48, 0.42 11.56, 0 5.24 M0 15.71 C-0.22 12.42, -0.51 8.58, 0 5.24 M0 5.24 C-1.13 1.19, 1.31 -0.1, 5.24 0 M0 5.24 C-0.04 3.01, 0.76 1.07, 5.24 0" stroke="#1e1e1e" stroke-width="2" fill="none"></path></g><g stroke-linecap="round" transform="translate(27.748046875 42.68335363861115) rotate(90.684351531919 25.4296875 23.859375)"><path d="M25.52 -0.64 C30.48 -0.68, 36.67 2.86, 40.75 6.28 C44.82 9.7, 48.79 14.83, 49.96 19.86 C51.14 24.89, 50.33 32.06, 47.8 36.47 C45.27 40.88, 39.95 44.77, 34.77 46.35 C29.59 47.92, 21.83 47.82, 16.75 45.91 C11.66 44.01, 6.91 39.36, 4.28 34.92 C1.65 30.47, 0.23 24.15, 0.98 19.24 C1.72 14.32, 4.53 8.63, 8.73 5.42 C12.94 2.21, 23.04 0.88, 26.2 -0.01 C29.35 -0.89, 27.6 -0.39, 27.67 0.1 M32.11 1.91 C37.23 2.86, 43.91 5.43, 46.81 9.48 C49.71 13.54, 49.81 21.11, 49.5 26.24 C49.19 31.38, 48.61 36.72, 44.93 40.28 C41.24 43.84, 33.14 47.03, 27.39 47.6 C21.63 48.17, 14.89 46.41, 10.39 43.69 C5.89 40.97, 1.57 36.27, 0.4 31.27 C-0.77 26.27, 0.98 18.69, 3.39 13.7 C5.79 8.7, 9.85 3.23, 14.84 1.3 C19.83 -0.63, 30.48 2.04, 33.33 2.13 C36.19 2.22, 32.36 1.66, 31.97 1.83" stroke="none" stroke-width="0" fill="#a5d8ff"></path><path d="M27.12 -0.55 C32.5 -0.43, 39.5 3.8, 43.47 7.39 C47.44 10.98, 50.42 15.86, 50.93 21 C51.44 26.13, 49.68 33.96, 46.51 38.2 C43.34 42.45, 37.2 45.32, 31.88 46.46 C26.57 47.59, 19.39 47.11, 14.63 45 C9.86 42.89, 5.76 38.28, 3.3 33.77 C0.84 29.26, -1.44 22.87, -0.14 17.94 C1.16 13.02, 6.4 7.17, 11.1 4.23 C15.81 1.3, 24.99 1.02, 28.09 0.32 C31.2 -0.37, 29.7 -0.42, 29.73 0.07 M22.43 0.57 C27.75 -0.24, 34.73 1.47, 39.11 3.91 C43.48 6.34, 46.84 10.28, 48.68 15.16 C50.52 20.05, 52.14 28.09, 50.13 33.22 C48.12 38.35, 41.55 43.81, 36.63 45.95 C31.72 48.1, 25.82 47.55, 20.64 46.09 C15.46 44.62, 8.8 41.12, 5.56 37.14 C2.32 33.16, 1.01 27, 1.21 22.19 C1.42 17.39, 3.18 11.94, 6.8 8.3 C10.42 4.66, 20.35 1.54, 22.95 0.35 C25.56 -0.84, 22.75 0.93, 22.43 1.14" stroke="#1e1e1e" stroke-width="2" fill="none"></path></g></svg>