<svg version="1.1" xmlns="http://www.w3.org/2000/svg" viewBox="0 0 117.88881138392844 127.12357954545405" width="117.88881138392844" height="127.12357954545405">
  <!-- svg-source:excalidraw -->
  
  <defs>
    <style class="style-fonts">
      @font-face {
        font-family: "Virgil";
        src: url("https://excalidraw.com/Virgil.woff2");
      }
      @font-face {
        font-family: "Cascadia";
        src: url("https://excalidraw.com/Cascadia.woff2");
      }
      @font-face {
        font-family: "Assistant";
        src: url("https://excalidraw.com/Assistant-Regular.woff2");
      }
    </style>
    
  </defs>
  <g stroke-linecap="round" transform="translate(10 24.85274621212011) rotate(0 42.630859375 38.322265625)"><path d="M19.16 0 C33.07 -0.84, 40.34 0.33, 66.1 0 C76.29 -3.2, 84.17 8.83, 85.26 19.16 C86.05 30.38, 85.23 40.7, 85.26 57.48 C83.04 67.13, 81.55 77.71, 66.1 76.64 C51.71 77.28, 39.25 79.79, 19.16 76.64 C4.33 77.33, 0.94 72.87, 0 57.48 C-3.05 43.4, 2.28 30.32, 0 19.16 C-0.03 7.68, 2.98 0.66, 19.16 0" stroke="none" stroke-width="0" fill="#a18072"></path><path d="M19.16 0 C30.04 1.77, 39.7 1.35, 66.1 0 M19.16 0 C33.65 -0.27, 47.79 -0.44, 66.1 0 M66.1 0 C77.57 -1.77, 86.27 5.03, 85.26 19.16 M66.1 0 C78.25 -1.34, 84.53 5.35, 85.26 19.16 M85.26 19.16 C85.32 30.37, 83.28 42.61, 85.26 57.48 M85.26 19.16 C86.32 27.97, 85.51 39.29, 85.26 57.48 M85.26 57.48 C85.52 72.06, 79.91 77.17, 66.1 76.64 M85.26 57.48 C87.55 70.77, 79.46 75.89, 66.1 76.64 M66.1 76.64 C49.58 75.04, 31.46 77.46, 19.16 76.64 M66.1 76.64 C49.38 76.05, 32.81 77.31, 19.16 76.64 M19.16 76.64 C7.08 77.34, 1.37 70.46, 0 57.48 M19.16 76.64 C4.22 78.54, 1.16 72.2, 0 57.48 M0 57.48 C0.71 41.74, -1.26 28.79, 0 19.16 M0 57.48 C-0.73 49.75, 0.47 41.69, 0 19.16 M0 19.16 C-1.05 6.57, 8.14 -0.79, 19.16 0 M0 19.16 C-0.87 5.67, 5.02 1.84, 19.16 0" stroke="#1e1e1e" stroke-width="2" fill="none"></path></g><g stroke-linecap="round" transform="translate(33.86899266098453 102.14701704545405) rotate(0 19.283203125 7.48828125)"><path d="M3.74 0 C10.81 0.33, 20.57 -2.22, 34.82 0 C36.53 1.77, 37.84 -0.87, 38.57 3.74 C38.75 5.81, 38 6.66, 38.57 11.23 C40.5 14.5, 36.01 16.77, 34.82 14.98 C22.05 17.09, 12.74 15.51, 3.74 14.98 C1.92 16.86, 0.2 14.59, 0 11.23 C0.75 7.8, 0.07 6.66, 0 3.74 C-2.46 1.73, -0.41 -2.48, 3.74 0" stroke="none" stroke-width="0" fill="#868e96"></path><path d="M3.74 0 C11.62 0.42, 18.92 -0.69, 34.82 0 M3.74 0 C15.57 -0.04, 27.42 -0.46, 34.82 0 M34.82 0 C37.82 -0.68, 38.29 0.67, 38.57 3.74 M34.82 0 C36.95 -0.52, 38.42 0.5, 38.57 3.74 M38.57 3.74 C38.25 5.86, 38.4 7.57, 38.57 11.23 M38.57 3.74 C38.62 6.76, 38.63 9.72, 38.57 11.23 M38.57 11.23 C39.08 13.99, 38.31 15.2, 34.82 14.98 M38.57 11.23 C38.86 13.35, 38.2 13.9, 34.82 14.98 M34.82 14.98 C27.05 15.37, 19.2 15.86, 3.74 14.98 M34.82 14.98 C26.02 15.22, 16.48 15.06, 3.74 14.98 M3.74 14.98 C1.93 15.08, -0.94 14.55, 0 11.23 M3.74 14.98 C1.83 15.95, 0.9 13.86, 0 11.23 M0 11.23 C-0.24 9.65, -0.36 8.06, 0 3.74 M0 11.23 C0.13 9.21, -0.07 7.12, 0 3.74 M0 3.74 C0.87 0.85, 0.87 -0.31, 3.74 0 M0 3.74 C-0.68 2.17, 0.78 -1.08, 3.74 0" stroke="#1e1e1e" stroke-width="2" fill="none"></path></g><g stroke-linecap="round" transform="translate(34.05486505681802 10) rotate(0 19.283203125 7.48828125)"><path d="M3.74 0 C10.48 -2.35, 20.16 1.73, 34.82 0 C36.59 -2.11, 37.29 2.22, 38.57 3.74 C37.98 5.31, 39.3 8.86, 38.57 11.23 C37.25 15.52, 38.14 13.04, 34.82 14.98 C23.7 15.79, 16.21 17.18, 3.74 14.98 C1.45 15.84, 0.76 11.69, 0 11.23 C-0.08 9.81, -0.99 7.87, 0 3.74 C-1.66 -1.23, 3.21 -1.29, 3.74 0" stroke="none" stroke-width="0" fill="#868e96"></path><path d="M3.74 0 C15.48 -0.66, 27.9 -0.09, 34.82 0 M3.74 0 C13.17 -0.44, 23.5 -0.33, 34.82 0 M34.82 0 C37.05 -0.58, 38.25 0.8, 38.57 3.74 M34.82 0 C37.17 -0.74, 37.95 1.42, 38.57 3.74 M38.57 3.74 C38.36 6.2, 38.86 8.74, 38.57 11.23 M38.57 3.74 C38.6 5.45, 38.67 6.87, 38.57 11.23 M38.57 11.23 C39.56 13.95, 37.57 14.65, 34.82 14.98 M38.57 11.23 C39.45 12.65, 36.88 15.65, 34.82 14.98 M34.82 14.98 C28.35 16.05, 20.57 15.44, 3.74 14.98 M34.82 14.98 C27.5 15.26, 20.17 15.13, 3.74 14.98 M3.74 14.98 C0.31 15.8, 0.51 14.57, 0 11.23 M3.74 14.98 C2.15 15.1, -0.93 14.16, 0 11.23 M0 11.23 C-0.32 9.56, -0.07 7.44, 0 3.74 M0 11.23 C-0.12 8.81, 0.14 6.28, 0 3.74 M0 3.74 C-0.38 0.94, 0.66 0.8, 3.74 0 M0 3.74 C-0.47 0.17, 1.26 0.56, 3.74 0" stroke="#343a40" stroke-width="2" fill="none"></path></g><g stroke-linecap="round" transform="translate(79.93959263392844 52.35810673701235) rotate(0 13.974609375 10.47265625)"><path d="M5.24 0 C9.69 2.42, 15.16 -2.28, 22.71 0 C24.44 1.35, 28.75 2.28, 27.95 5.24 C29.23 9.14, 26.88 13.23, 27.95 15.71 C29.08 16.52, 26.57 17.52, 22.71 20.95 C16.89 23.29, 9.68 22.04, 5.24 20.95 C2.79 18.13, -2.29 21.71, 0 15.71 C-1.78 13.96, -1.2 9.71, 0 5.24 C2.72 -0.04, 2.57 1.09, 5.24 0" stroke="none" stroke-width="0" fill="#a5d8ff"></path><path d="M5.24 0 C12.93 0.1, 17.85 -0.52, 22.71 0 M5.24 0 C10.85 -0.44, 15.34 -0.35, 22.71 0 M22.71 0 C25.57 -0.9, 27.69 0.45, 27.95 5.24 M22.71 0 C24.97 0.35, 28.19 -0.25, 27.95 5.24 M27.95 5.24 C28.82 10.1, 26.91 13.16, 27.95 15.71 M27.95 5.24 C28.23 9.16, 28.48 12.92, 27.95 15.71 M27.95 15.71 C28.45 18.55, 27.74 19.07, 22.71 20.95 M27.95 15.71 C27.07 20.54, 24.57 21.78, 22.71 20.95 M22.71 20.95 C16.56 21.79, 9.45 22.73, 5.24 20.95 M22.71 20.95 C16.9 21.09, 9.06 21.73, 5.24 20.95 M5.24 20.95 C2.76 22.63, 1.57 19.42, 0 15.71 M5.24 20.95 C-0.11 21.81, -1.43 17.8, 0 15.71 M0 15.71 C-0.16 11.76, 0.37 9.72, 0 5.24 M0 15.71 C0.51 12.16, -0.14 8.86, 0 5.24 M0 5.24 C-1.19 3.34, 0.93 -1.88, 5.24 0 M0 5.24 C0.01 2.86, 1.21 -2.01, 5.24 0" stroke="#1e1e1e" stroke-width="2" fill="none"></path></g><g stroke-linecap="round" transform="translate(30.14076450892844 38.31904423701235) rotate(0 25.4296875 23.859375)"><path d="M14.84 2.07 C19.25 0.04, 26.62 -0.03, 31.9 1.32 C37.17 2.68, 43.31 5.88, 46.48 10.2 C49.65 14.53, 51.51 22.21, 50.93 27.3 C50.35 32.39, 47.01 37.21, 43.01 40.75 C39 44.29, 32.45 48.26, 26.91 48.56 C21.37 48.86, 14.2 45.88, 9.77 42.57 C5.35 39.25, 1.39 33.67, 0.35 28.68 C-0.68 23.7, 0.39 17.36, 3.54 12.67 C6.7 7.97, 15.59 2.58, 19.27 0.51 C22.96 -1.56, 25.57 -0.16, 25.67 0.25 M17.53 1.09 C22.28 -0.94, 27.62 -1.2, 32.68 0.63 C37.75 2.46, 44.89 7.5, 47.9 12.07 C50.9 16.65, 51.88 23.31, 50.73 28.08 C49.59 32.85, 45.02 37.34, 41.03 40.69 C37.04 44.04, 32.2 47.72, 26.78 48.16 C21.36 48.6, 12.82 46.82, 8.51 43.31 C4.19 39.8, 1.74 32.54, 0.9 27.1 C0.06 21.67, 0.64 15.1, 3.44 10.69 C6.25 6.29, 15.45 2.05, 17.71 0.66 C19.96 -0.73, 16.84 1.82, 16.97 2.35" stroke="none" stroke-width="0" fill="#a5d8ff"></path><path d="M20.05 0.88 C24.99 -0.22, 32.62 0.48, 37.4 2.89 C42.18 5.3, 46.8 10.49, 48.72 15.32 C50.63 20.14, 50.76 27.05, 48.9 31.83 C47.04 36.6, 42.17 41.34, 37.56 43.95 C32.95 46.56, 26.64 48.14, 21.24 47.47 C15.83 46.81, 8.75 43.84, 5.13 39.97 C1.52 36.11, -0.73 29.36, -0.45 24.28 C-0.18 19.2, 2.72 13.53, 6.78 9.5 C10.84 5.48, 20.13 1.57, 23.88 0.12 C27.63 -1.33, 28.96 0.34, 29.28 0.81 M29.15 -0.28 C34.27 -0.24, 41.83 2.35, 45.35 6.35 C48.87 10.35, 50.4 18.29, 50.26 23.72 C50.12 29.15, 47.62 34.88, 44.52 38.95 C41.42 43.02, 36.55 47.12, 31.66 48.13 C26.76 49.13, 20.02 47.65, 15.16 44.98 C10.3 42.31, 4.6 36.64, 2.5 32.09 C0.4 27.53, 0.93 22.31, 2.57 17.67 C4.2 13.03, 7.77 7.13, 12.31 4.25 C16.85 1.36, 27.31 0.75, 29.8 0.36 C32.3 -0.03, 27.4 1.34, 27.3 1.92" stroke="#1e1e1e" stroke-width="2" fill="none"></path></g></svg>