<svg version="1.1" xmlns="http://www.w3.org/2000/svg" viewBox="0 0 108.08725249304916 127.12357954545405" width="108.08725249304916" height="127.12357954545405">
  <!-- svg-source:excalidraw -->
  
  <defs>
    <style class="style-fonts">
      @font-face {
        font-family: "Virgil";
        src: url("https://excalidraw.com/Virgil.woff2");
      }
      @font-face {
        font-family: "Cascadia";
        src: url("https://excalidraw.com/Cascadia.woff2");
      }
      @font-face {
        font-family: "Assistant";
        src: url("https://excalidraw.com/Assistant-Regular.woff2");
      }
    </style>
    
  </defs>
  <g stroke-linecap="round" transform="translate(12.825533743049164 24.85274621212193) rotate(0 42.630859375 38.322265625)"><path d="M19.16 0 C34.41 0.58, 50.15 -3.43, 66.1 0 C76.58 2.51, 81.69 6.36, 85.26 19.16 C82.31 28.6, 87.33 43.13, 85.26 57.48 C86.09 71.35, 81.6 78.64, 66.1 76.64 C54.54 72.9, 39.21 74.27, 19.16 76.64 C5.39 75.86, -0.18 70.19, 0 57.48 C2.35 45.74, 1.33 28.74, 0 19.16 C0.44 9.07, 7.82 -1.49, 19.16 0" stroke="none" stroke-width="0" fill="#a18072"></path><path d="M19.16 0 C32.98 -0.2, 51.82 -0.17, 66.1 0 M19.16 0 C38.47 0.1, 56.04 -0.45, 66.1 0 M66.1 0 C80.41 -1.88, 84.5 7.55, 85.26 19.16 M66.1 0 C77.24 0.84, 86.41 7.87, 85.26 19.16 M85.26 19.16 C84.08 36.33, 86.59 50.5, 85.26 57.48 M85.26 19.16 C84.58 32.82, 86.03 45.68, 85.26 57.48 M85.26 57.48 C86.83 70.48, 77.26 77.4, 66.1 76.64 M85.26 57.48 C83.83 68.86, 79.23 74.54, 66.1 76.64 M66.1 76.64 C51.14 77.52, 35.53 75.31, 19.16 76.64 M66.1 76.64 C51.21 76.15, 36.49 77.26, 19.16 76.64 M19.16 76.64 C5.57 74.77, 0.01 71.23, 0 57.48 M19.16 76.64 C5.85 74.63, 0.21 68.61, 0 57.48 M0 57.48 C-0.45 47.77, -0.87 42.05, 0 19.16 M0 57.48 C-0.67 44.27, 0.69 33.08, 0 19.16 M0 19.16 C-1.01 7.77, 7.02 -1.49, 19.16 0 M0 19.16 C0.24 4.2, 8.22 -1.31, 19.16 0" stroke="#1e1e1e" stroke-width="2" fill="none"></path></g><g stroke-linecap="round" transform="translate(36.694526404033695 102.14701704545405) rotate(0 19.283203125 7.48828125)"><path d="M3.74 0 C16.08 -2.17, 25.24 1.68, 34.82 0 C34.74 -0.02, 39.5 -1.22, 38.57 3.74 C39.24 5.65, 38.73 8.81, 38.57 11.23 C40.54 15.17, 37.57 14.78, 34.82 14.98 C28.3 13.12, 17.92 14.03, 3.74 14.98 C1.12 14.93, 1.43 12.61, 0 11.23 C0.22 8.22, 0.06 6.77, 0 3.74 C1.04 0.17, -0.95 0.67, 3.74 0" stroke="none" stroke-width="0" fill="#868e96"></path><path d="M3.74 0 C16.55 0.11, 29.04 0.5, 34.82 0 M3.74 0 C14.01 -0.2, 24.42 -0.5, 34.82 0 M34.82 0 C36.94 0.58, 37.86 1.61, 38.57 3.74 M34.82 0 C37.89 0.74, 39.71 1.22, 38.57 3.74 M38.57 3.74 C38.8 6.41, 38.68 9.07, 38.57 11.23 M38.57 3.74 C38.63 6.22, 38.68 8.41, 38.57 11.23 M38.57 11.23 C37.76 14.11, 36.7 14.37, 34.82 14.98 M38.57 11.23 C38.74 12.68, 37.66 14.69, 34.82 14.98 M34.82 14.98 C27.61 14.54, 20.1 15.94, 3.74 14.98 M34.82 14.98 C26.43 15.33, 18.43 14.46, 3.74 14.98 M3.74 14.98 C1.25 15.46, -0.23 12.85, 0 11.23 M3.74 14.98 C1.35 14.15, -1.02 13.38, 0 11.23 M0 11.23 C-0.17 8.62, 0.09 5.78, 0 3.74 M0 11.23 C0.16 8.9, -0.07 6.58, 0 3.74 M0 3.74 C0.31 0.5, 1.35 -0.95, 3.74 0 M0 3.74 C0.92 0.59, 1.47 0.3, 3.74 0" stroke="#1e1e1e" stroke-width="2" fill="none"></path></g><g stroke-linecap="round" transform="translate(36.88039879986718 10) rotate(0 19.283203125 7.48828125)"><path d="M3.74 0 C12.44 2.13, 21.86 0.3, 34.82 0 C38.26 -2.46, 39.05 -0.41, 38.57 3.74 C38.86 5.57, 39.38 7.35, 38.57 11.23 C38.82 13.53, 36.29 17.13, 34.82 14.98 C27.73 14.18, 21.94 14.7, 3.74 14.98 C2.68 13.86, 1.21 15.21, 0 11.23 C0.09 9.32, 0.36 5.56, 0 3.74 C-2.2 1.92, 3.77 -0.68, 3.74 0" stroke="none" stroke-width="0" fill="#868e96"></path><path d="M3.74 0 C14.33 0.5, 23.38 0.97, 34.82 0 M3.74 0 C14.15 -0.42, 23.59 0.34, 34.82 0 M34.82 0 C36.61 0.36, 39.07 1.89, 38.57 3.74 M34.82 0 C38.47 -0.02, 39.01 0.57, 38.57 3.74 M38.57 3.74 C38.72 6.94, 38.63 9.27, 38.57 11.23 M38.57 3.74 C38.73 6.63, 38.43 9.54, 38.57 11.23 M38.57 11.23 C37.95 13.12, 37.47 14.06, 34.82 14.98 M38.57 11.23 C38.91 13.45, 36.61 15.27, 34.82 14.98 M34.82 14.98 C23.78 15.77, 12.16 14.52, 3.74 14.98 M34.82 14.98 C26.26 14.63, 18.11 15.34, 3.74 14.98 M3.74 14.98 C1.02 14.1, 0.09 13.01, 0 11.23 M3.74 14.98 C0.23 14.63, 0.78 13.41, 0 11.23 M0 11.23 C0.1 9.65, 0.09 7.73, 0 3.74 M0 11.23 C-0.12 9.77, 0.03 7.9, 0 3.74 M0 3.74 C0.1 0.3, 2.05 -0.57, 3.74 0 M0 3.74 C0.22 1.55, 2.08 0.09, 3.74 0" stroke="#343a40" stroke-width="2" fill="none"></path></g><g stroke-linecap="round" transform="translate(13.186373760761398 24.156708609438283) rotate(47.524435689906944 13.974609375 10.47265625)"><path d="M5.24 0 C5.99 -0.24, 14.12 -3.2, 22.71 0 C26.87 -2.3, 24.51 4.47, 27.95 5.24 C29.42 8.9, 28.17 10.34, 27.95 15.71 C26.52 22.18, 22.79 23.13, 22.71 20.95 C18.3 20.82, 15.93 19.52, 5.24 20.95 C3.42 23, 1.86 20.23, 0 15.71 C0.73 12.23, -1.62 10.81, 0 5.24 C3.49 0.8, 0.92 -0.04, 5.24 0" stroke="none" stroke-width="0" fill="#a5d8ff"></path><path d="M5.24 0 C11.17 1.65, 16.57 0.35, 22.71 0 M5.24 0 C9.57 0.67, 13.96 0.48, 22.71 0 M22.71 0 C27.2 1.29, 29.95 1.7, 27.95 5.24 M22.71 0 C27.09 -1.35, 30.07 3.29, 27.95 5.24 M27.95 5.24 C28.09 7.76, 28.85 12.78, 27.95 15.71 M27.95 5.24 C27.61 9.46, 27.71 12.97, 27.95 15.71 M27.95 15.71 C28.25 17.37, 26.8 20.46, 22.71 20.95 M27.95 15.71 C26.53 19.79, 27.54 21.39, 22.71 20.95 M22.71 20.95 C17.69 20.43, 13.51 20.06, 5.24 20.95 M22.71 20.95 C16.08 21.2, 9.23 20.02, 5.24 20.95 M5.24 20.95 C1.93 19.51, -1.78 18.59, 0 15.71 M5.24 20.95 C3.31 20.3, -1.87 18.07, 0 15.71 M0 15.71 C0.18 11.53, -0.93 9.42, 0 5.24 M0 15.71 C0.22 11.87, 0.11 8.31, 0 5.24 M0 5.24 C1.6 0.61, 2.12 0.52, 5.24 0 M0 5.24 C1.67 1.92, 2.51 0.67, 5.24 0" stroke="#1e1e1e" stroke-width="2" fill="none"></path></g><g stroke-linecap="round" transform="translate(28.10504480902 38.92300118694402) rotate(47.524435689906944 25.4296875 23.859375)"><path d="M33.41 1.74 C38.48 3.23, 44.67 7.65, 47.55 11.88 C50.44 16.12, 51.79 22.02, 50.71 27.16 C49.63 32.3, 45.21 39.39, 41.09 42.73 C36.97 46.08, 31.15 47.24, 25.96 47.21 C20.78 47.19, 14.34 45.74, 9.96 42.6 C5.58 39.45, 0.96 33.27, -0.32 28.33 C-1.59 23.38, -0.37 17.36, 2.34 12.92 C5.04 8.49, 10.34 3.4, 15.94 1.71 C21.54 0.01, 32.39 2.44, 35.95 2.75 C39.5 3.06, 37.41 3.45, 37.25 3.57 M17.47 1.74 C21.87 0.22, 28.54 0.41, 33.44 1.98 C38.34 3.55, 43.88 6.81, 46.88 11.14 C49.88 15.48, 52.35 22.67, 51.46 27.98 C50.56 33.3, 45.79 39.63, 41.51 43.06 C37.23 46.48, 31.26 48.79, 25.78 48.54 C20.3 48.29, 12.98 44.88, 8.63 41.54 C4.28 38.2, 0.71 33.4, -0.33 28.51 C-1.37 23.62, -0.44 16.83, 2.39 12.2 C5.22 7.58, 14.14 2.55, 16.63 0.78 C19.11 -0.99, 17.04 0.99, 17.31 1.58" stroke="none" stroke-width="0" fill="#a5d8ff"></path><path d="M27.69 -0.19 C33.02 -0.13, 40.76 3.05, 44.68 6.95 C48.6 10.85, 50.92 17.82, 51.19 23.21 C51.47 28.6, 49.68 35.24, 46.32 39.29 C42.96 43.34, 36.55 46.4, 31.03 47.51 C25.51 48.63, 17.94 48.34, 13.21 46 C8.48 43.65, 4.6 38.19, 2.65 33.44 C0.7 28.69, -0.03 22.58, 1.49 17.48 C3.01 12.38, 6.17 5.44, 11.77 2.86 C17.36 0.27, 30.35 1.61, 35.04 1.98 C39.74 2.35, 40.19 4.93, 39.93 5.08 M30.43 -0.95 C35.81 -0.24, 42.34 4.16, 45.59 8.42 C48.84 12.67, 49.94 19.37, 49.93 24.59 C49.93 29.81, 49.09 35.92, 45.55 39.74 C42.01 43.57, 34.01 46.88, 28.7 47.55 C23.4 48.22, 18.36 46.48, 13.71 43.76 C9.07 41.04, 3 35.76, 0.84 31.23 C-1.32 26.7, -1.16 21.51, 0.77 16.58 C2.7 11.64, 7.51 4.19, 12.42 1.62 C17.33 -0.95, 27.32 1.49, 30.21 1.15 C33.1 0.81, 29.82 -0.51, 29.76 -0.42" stroke="#1e1e1e" stroke-width="2" fill="none"></path></g></svg>