<svg version="1.1" xmlns="http://www.w3.org/2000/svg" viewBox="0 0 107.36794445733494 127.12357954545405" width="107.36794445733494" height="127.12357954545405">
  <!-- svg-source:excalidraw -->
  
  <defs>
    <style class="style-fonts">
      @font-face {
        font-family: "Virgil";
        src: url("https://excalidraw.com/Virgil.woff2");
      }
      @font-face {
        font-family: "Cascadia";
        src: url("https://excalidraw.com/Cascadia.woff2");
      }
      @font-face {
        font-family: "Assistant";
        src: url("https://excalidraw.com/Assistant-Regular.woff2");
      }
    </style>
    
  </defs>
  <g stroke-linecap="round" transform="translate(10 24.85274621212193) rotate(0 42.630859375 38.322265625)"><path d="M19.16 0 C32.33 -3.38, 49.41 3.15, 66.1 0 C77.93 -0.83, 85.22 5.13, 85.26 19.16 C87.53 30.9, 85.61 41.06, 85.26 57.48 C88.64 73.47, 79.3 78.02, 66.1 76.64 C54.34 74.43, 43.12 76.58, 19.16 76.64 C6.08 77.45, 1.78 68.89, 0 57.48 C1.13 51.36, -2.39 41.46, 0 19.16 C2.41 7.91, 5.15 1.86, 19.16 0" stroke="none" stroke-width="0" fill="#a18072"></path><path d="M19.16 0 C28.5 0.52, 41.01 -1.3, 66.1 0 M19.16 0 C33.93 0, 50.62 -0.49, 66.1 0 M66.1 0 C78.12 -0.62, 84.08 7.98, 85.26 19.16 M66.1 0 C77.94 -2.16, 85.28 7.5, 85.26 19.16 M85.26 19.16 C83.49 27.99, 84.32 41.73, 85.26 57.48 M85.26 19.16 C85.33 29.8, 85.1 40.2, 85.26 57.48 M85.26 57.48 C84.03 68.52, 80.36 77.23, 66.1 76.64 M85.26 57.48 C84.1 71.84, 79.6 74.93, 66.1 76.64 M66.1 76.64 C50.4 77.4, 37.49 78.47, 19.16 76.64 M66.1 76.64 C50.87 76.14, 37.91 75.79, 19.16 76.64 M19.16 76.64 C6.37 77.37, -1.89 70.63, 0 57.48 M19.16 76.64 C4.92 74.45, 1.74 69.12, 0 57.48 M0 57.48 C0.99 45.3, -0.27 31.93, 0 19.16 M0 57.48 C-0.2 42.54, 0.15 28.1, 0 19.16 M0 19.16 C-0.04 7.49, 5.53 0.93, 19.16 0 M0 19.16 C1.31 7.58, 7.05 -0.99, 19.16 0" stroke="#1e1e1e" stroke-width="2" fill="none"></path></g><g stroke-linecap="round" transform="translate(33.868992660984986 102.14701704545405) rotate(0 19.283203125 7.48828125)"><path d="M3.74 0 C14.98 2.86, 24.18 -0.26, 34.82 0 C37.29 -0.91, 38.98 0.4, 38.57 3.74 C38.79 5.94, 39.55 10.26, 38.57 11.23 C38.87 14.72, 36.86 14.98, 34.82 14.98 C27.95 14.66, 15.76 15.31, 3.74 14.98 C2.54 13.99, -1.96 12.63, 0 11.23 C-0.75 9.22, 0.63 6.97, 0 3.74 C-0.89 2.59, -0.36 1.39, 3.74 0" stroke="none" stroke-width="0" fill="#868e96"></path><path d="M3.74 0 C13.3 -0.66, 23.6 0.54, 34.82 0 M3.74 0 C14.1 -0.21, 23.4 -0.17, 34.82 0 M34.82 0 C36.73 0.8, 38.16 0.31, 38.57 3.74 M34.82 0 C37.33 0.56, 38.3 0.24, 38.57 3.74 M38.57 3.74 C38.43 6.31, 38.43 8.07, 38.57 11.23 M38.57 3.74 C38.61 5.66, 38.46 7.34, 38.57 11.23 M38.57 11.23 C39.31 14.02, 36.81 15.67, 34.82 14.98 M38.57 11.23 C38.93 12.87, 37.44 13.88, 34.82 14.98 M34.82 14.98 C23.28 15.73, 11.29 15.34, 3.74 14.98 M34.82 14.98 C24.94 14.38, 14.37 15.06, 3.74 14.98 M3.74 14.98 C0.3 15.16, -0.64 12.77, 0 11.23 M3.74 14.98 C2.12 14.41, 0.26 14.08, 0 11.23 M0 11.23 C-0.05 8.27, 0.29 5.25, 0 3.74 M0 11.23 C-0.02 8.52, 0.02 5.94, 0 3.74 M0 3.74 C-0.43 1.71, 1.82 0.52, 3.74 0 M0 3.74 C0.33 0.75, 1.39 0.86, 3.74 0" stroke="#1e1e1e" stroke-width="2" fill="none"></path></g><g stroke-linecap="round" transform="translate(34.05486505681802 10) rotate(0 19.283203125 7.48828125)"><path d="M3.74 0 C9.75 -0.99, 17.1 -1.3, 34.82 0 C37.74 -0.85, 40.57 3.05, 38.57 3.74 C39.5 6.78, 38.7 8.45, 38.57 11.23 C38.11 13.73, 37.4 16.05, 34.82 14.98 C27.21 15.55, 21.33 13.98, 3.74 14.98 C-0.71 13.88, 0.31 14.34, 0 11.23 C0.72 8.88, -0.26 6.21, 0 3.74 C-1.61 2.64, 0.69 2.5, 3.74 0" stroke="none" stroke-width="0" fill="#868e96"></path><path d="M3.74 0 C14.25 0.68, 24.43 -0.43, 34.82 0 M3.74 0 C13.16 -0.09, 22.66 0.46, 34.82 0 M34.82 0 C36.91 -0.94, 38.57 1.73, 38.57 3.74 M34.82 0 C37.05 -1.01, 38.67 0.42, 38.57 3.74 M38.57 3.74 C38.45 5.02, 38.37 7.05, 38.57 11.23 M38.57 3.74 C38.46 5.99, 38.71 8.63, 38.57 11.23 M38.57 11.23 C38.06 14.42, 37.63 14.23, 34.82 14.98 M38.57 11.23 C38.68 12.63, 38.24 14.32, 34.82 14.98 M34.82 14.98 C24.99 15.42, 15.29 14.31, 3.74 14.98 M34.82 14.98 C27.47 15, 19.66 14.91, 3.74 14.98 M3.74 14.98 C0.61 14.02, 0.76 13.23, 0 11.23 M3.74 14.98 C1.51 15.33, 0.87 14.37, 0 11.23 M0 11.23 C0.31 8.56, 0.23 6.38, 0 3.74 M0 11.23 C0 9.3, -0.07 7.24, 0 3.74 M0 3.74 C0.57 1.76, 1.53 -0.43, 3.74 0 M0 3.74 C0.14 2.1, 1.71 -0.48, 3.74 0" stroke="#343a40" stroke-width="2" fill="none"></path></g><g stroke-linecap="round" transform="translate(66.23235194657354 79.23082182887447) rotate(47.524435689906944 13.974609375 10.47265625)"><path d="M5.24 0 C12.13 -1.03, 19.61 -0.95, 22.71 0 C28.98 2.5, 27.58 2.32, 27.95 5.24 C28.35 8.42, 27.79 10.16, 27.95 15.71 C28.06 20.69, 23.96 24.47, 22.71 20.95 C19.07 19.82, 9.94 19.69, 5.24 20.95 C2.18 21.79, 2.48 16.52, 0 15.71 C-0.77 13.19, -1.29 9.74, 0 5.24 C-0.78 5.2, 3.23 -3.53, 5.24 0" stroke="none" stroke-width="0" fill="#a5d8ff"></path><path d="M5.24 0 C9.74 -1.02, 13.73 1.43, 22.71 0 M5.24 0 C9.27 0.75, 13.98 -0.77, 22.71 0 M22.71 0 C26.22 0.97, 27.48 -0.01, 27.95 5.24 M22.71 0 C26.42 -1.65, 25.91 1.05, 27.95 5.24 M27.95 5.24 C27.41 9.48, 28.15 13.1, 27.95 15.71 M27.95 5.24 C28.27 8.74, 27.62 12.29, 27.95 15.71 M27.95 15.71 C28.58 17.71, 26.41 19.04, 22.71 20.95 M27.95 15.71 C29.79 17.89, 26.64 21.54, 22.71 20.95 M22.71 20.95 C16.71 19.64, 8.58 22.22, 5.24 20.95 M22.71 20.95 C18.38 21.17, 15.14 20.17, 5.24 20.95 M5.24 20.95 C3.26 19.95, 0.46 19.81, 0 15.71 M5.24 20.95 C3.49 22.22, 0.22 19.03, 0 15.71 M0 15.71 C0.55 12.39, -0.38 10.03, 0 5.24 M0 15.71 C-0.22 12.86, 0.3 9.8, 0 5.24 M0 5.24 C0.57 0.89, 1.99 1.49, 5.24 0 M0 5.24 C0.92 0.79, -0.2 0.59, 5.24 0" stroke="#1e1e1e" stroke-width="2" fill="none"></path></g><g stroke-linecap="round" transform="translate(28.403524648314487 38.00359175136873) rotate(47.524435689906944 25.4296875 23.859375)"><path d="M34.76 1.3 C39.73 2.64, 45.95 7.13, 48.65 11.6 C51.34 16.08, 52.23 23.01, 50.94 28.13 C49.65 33.26, 45.3 39.11, 40.91 42.37 C36.53 45.63, 29.93 47.88, 24.62 47.69 C19.31 47.5, 13.04 44.54, 9.06 41.24 C5.08 37.94, 1.52 32.81, 0.73 27.87 C-0.06 22.93, 1.6 16.03, 4.31 11.61 C7.03 7.18, 11.1 2.58, 17.02 1.33 C22.93 0.08, 35.64 3.35, 39.81 4.12 C43.98 4.89, 42.37 5.52, 42.06 5.95 M21.57 0.45 C26.63 -0.3, 33.73 2.21, 38.59 4.88 C43.45 7.56, 48.95 11.99, 50.72 16.51 C52.48 21.03, 51.19 27.03, 49.17 32 C47.15 36.98, 43.44 43.73, 38.6 46.35 C33.76 48.97, 25.72 49.06, 20.12 47.73 C14.52 46.4, 8.34 42.44, 5 38.4 C1.66 34.35, -0.05 28.32, 0.07 23.46 C0.19 18.6, 2.07 13.12, 5.73 9.22 C9.4 5.32, 19.26 1.38, 22.05 0.08 C24.85 -1.22, 22.53 1.19, 22.49 1.42" stroke="none" stroke-width="0" fill="#a5d8ff"></path><path d="M35.89 1.65 C40.92 3.43, 47.09 8.66, 49.29 13.39 C51.48 18.13, 50.52 25.1, 49.05 30.07 C47.58 35.03, 44.93 40.24, 40.48 43.19 C36.02 46.13, 27.94 48.28, 22.31 47.72 C16.68 47.16, 10.46 43.34, 6.71 39.82 C2.96 36.3, 0.19 31.67, -0.21 26.59 C-0.6 21.51, 1.24 13.57, 4.33 9.34 C7.43 5.1, 12.59 2.11, 18.39 1.18 C24.18 0.25, 35.29 3.11, 39.09 3.75 C42.9 4.39, 41.63 4.57, 41.22 5 M29.64 -0.86 C34.96 -0.86, 40.88 2.74, 44.61 6.6 C48.35 10.47, 51.88 16.94, 52.05 22.36 C52.22 27.77, 49.04 34.92, 45.63 39.09 C42.22 43.25, 36.91 46.32, 31.61 47.35 C26.31 48.38, 18.98 47.89, 13.81 45.27 C8.64 42.66, 2.51 36.75, 0.6 31.67 C-1.31 26.59, 0.43 19.42, 2.35 14.82 C4.27 10.22, 7.88 6.45, 12.11 4.07 C16.34 1.69, 25.07 1.33, 27.74 0.54 C30.41 -0.26, 27.77 -0.92, 28.13 -0.7" stroke="#1e1e1e" stroke-width="2" fill="none"></path></g></svg>