<svg version="1.1" xmlns="http://www.w3.org/2000/svg" viewBox="0 0 108.08725249304916 127.12357954545405" width="108.08725249304916" height="127.12357954545405">
  <!-- svg-source:excalidraw -->
  
  <defs>
    <style class="style-fonts">
      @font-face {
        font-family: "Virgil";
        src: url("https://excalidraw.com/Virgil.woff2");
      }
      @font-face {
        font-family: "Cascadia";
        src: url("https://excalidraw.com/Cascadia.woff2");
      }
      @font-face {
        font-family: "Assistant";
        src: url("https://excalidraw.com/Assistant-Regular.woff2");
      }
    </style>
    
  </defs>
  <g stroke-linecap="round" transform="translate(12.825533743049164 24.85274621212102) rotate(0 42.630859375 38.322265625)"><path d="M19.16 0 C33.1 1.45, 51 2.43, 66.1 0 C78.12 2.6, 88.22 8.74, 85.26 19.16 C88.8 34.78, 83.12 42.07, 85.26 57.48 C86.49 66.83, 81.45 73.13, 66.1 76.64 C55.29 73.29, 43.57 79.35, 19.16 76.64 C4.64 73.81, 3.57 69.02, 0 57.48 C-1.45 43.35, -3.75 27.97, 0 19.16 C0.87 9.56, 3.06 -0.73, 19.16 0" stroke="none" stroke-width="0" fill="#e64980"></path><path d="M19.16 0 C33.39 -0.74, 45.19 -1.06, 66.1 0 M19.16 0 C33.74 0.73, 49.3 0.34, 66.1 0 M66.1 0 C80.37 -1.92, 85.39 5.48, 85.26 19.16 M66.1 0 C78.45 0.63, 84.56 6.23, 85.26 19.16 M85.26 19.16 C84.43 28.38, 85.23 37.51, 85.26 57.48 M85.26 19.16 C84.61 29.99, 85.87 40.86, 85.26 57.48 M85.26 57.48 C87.19 71.87, 76.91 77.97, 66.1 76.64 M85.26 57.48 C86.93 71.48, 78.94 78, 66.1 76.64 M66.1 76.64 C46.27 78.29, 29.36 76.36, 19.16 76.64 M66.1 76.64 C48.77 76.8, 29.83 75.97, 19.16 76.64 M19.16 76.64 C6.5 76.12, 0.49 70.61, 0 57.48 M19.16 76.64 C5.19 76.98, 1.47 69.37, 0 57.48 M0 57.48 C1.96 41.87, -1.68 29.23, 0 19.16 M0 57.48 C-0.69 50.31, 0.06 40.67, 0 19.16 M0 19.16 C0.1 7.52, 5.22 -1.74, 19.16 0 M0 19.16 C2.19 6.24, 4.43 -2.21, 19.16 0" stroke="#1e1e1e" stroke-width="2" fill="none"></path></g><g stroke-linecap="round" transform="translate(36.694526404033695 102.14701704545405) rotate(0 19.283203125 7.48828125)"><path d="M3.74 0 C12.97 1.91, 25.7 1.66, 34.82 0 C39.45 1.7, 39.64 2.08, 38.57 3.74 C38.02 4.74, 38.99 6.57, 38.57 11.23 C40.43 11.19, 36.09 16.02, 34.82 14.98 C25.57 16.37, 13.32 12.52, 3.74 14.98 C3.82 14.08, 2.31 14.97, 0 11.23 C-0.9 9.72, 0.27 8.9, 0 3.74 C-2.4 0.72, 0.37 -0.34, 3.74 0" stroke="none" stroke-width="0" fill="#868e96"></path><path d="M3.74 0 C10.8 -0.61, 18.13 0.56, 34.82 0 M3.74 0 C13.44 0.07, 23.53 -0.6, 34.82 0 M34.82 0 C37.38 -0.46, 38.38 1.52, 38.57 3.74 M34.82 0 C36.97 -0.08, 37.86 1.7, 38.57 3.74 M38.57 3.74 C38.51 6.57, 38.48 9.47, 38.57 11.23 M38.57 3.74 C38.63 5.93, 38.72 8.24, 38.57 11.23 M38.57 11.23 C37.58 14.39, 38.04 15.51, 34.82 14.98 M38.57 11.23 C38.6 14.41, 38.39 13.96, 34.82 14.98 M34.82 14.98 C26.62 15.06, 19.14 15.99, 3.74 14.98 M34.82 14.98 C23.96 14.51, 13.15 14.83, 3.74 14.98 M3.74 14.98 C1.49 15.15, -0.52 13.87, 0 11.23 M3.74 14.98 C1.98 14.53, 0.82 13.25, 0 11.23 M0 11.23 C-0.38 9.77, -0.37 8.5, 0 3.74 M0 11.23 C0.08 8.67, 0.02 6.46, 0 3.74 M0 3.74 C-0.58 0.38, 2.2 -0.06, 3.74 0 M0 3.74 C-0.98 0.14, 2.04 0.54, 3.74 0" stroke="#1e1e1e" stroke-width="2" fill="none"></path></g><g stroke-linecap="round" transform="translate(36.88039879986718 10) rotate(0 19.283203125 7.48828125)"><path d="M3.74 0 C14.22 1.55, 27.93 1.36, 34.82 0 C38.39 0.83, 37.28 3.64, 38.57 3.74 C38.83 5.59, 39.2 8.34, 38.57 11.23 C37.34 14.78, 37.98 15.74, 34.82 14.98 C27.32 13.2, 24.92 14.36, 3.74 14.98 C3.56 16.22, -2.27 12.92, 0 11.23 C0.33 9.68, -0.81 6.22, 0 3.74 C-0.87 0.91, 2.84 2.07, 3.74 0" stroke="none" stroke-width="0" fill="#868e96"></path><path d="M3.74 0 C11.6 0.58, 19.16 -0.39, 34.82 0 M3.74 0 C15.89 -0.54, 27.32 -0.29, 34.82 0 M34.82 0 C37.13 0.27, 38.26 1.18, 38.57 3.74 M34.82 0 C36.61 0.46, 39.43 0.69, 38.57 3.74 M38.57 3.74 C38.5 6.13, 38.53 8.02, 38.57 11.23 M38.57 3.74 C38.77 6.15, 38.4 8.38, 38.57 11.23 M38.57 11.23 C39.29 14.26, 37.35 15.57, 34.82 14.98 M38.57 11.23 C39.63 12.71, 36.93 14.17, 34.82 14.98 M34.82 14.98 C23.56 15.84, 11.07 15.76, 3.74 14.98 M34.82 14.98 C25.76 14.71, 16.77 14.92, 3.74 14.98 M3.74 14.98 C0.73 15.12, 0.64 13.34, 0 11.23 M3.74 14.98 C2.07 14.5, -1.15 14.76, 0 11.23 M0 11.23 C-0.3 9.78, 0.13 7.63, 0 3.74 M0 11.23 C0 8.41, -0.12 5.22, 0 3.74 M0 3.74 C0.95 1.18, 0.4 -0.96, 3.74 0 M0 3.74 C0.79 1.79, 1.96 -1.08, 3.74 0" stroke="#343a40" stroke-width="2" fill="none"></path></g><g stroke-linecap="round" transform="translate(13.186373760761398 24.156708609438283) rotate(47.524435689906944 13.974609375 10.47265625)"><path d="M5.24 0 C14.5 1.83, 19.89 0.77, 22.71 0 C24.42 3.32, 30.49 -0.61, 27.95 5.24 C29.36 5.59, 27.12 10.39, 27.95 15.71 C28.87 20.25, 22.63 22.14, 22.71 20.95 C19.38 19.61, 12.61 22.2, 5.24 20.95 C-1.4 19.83, 0.78 15.78, 0 15.71 C-1.79 12.1, -0.68 9, 0 5.24 C2.21 4.61, -1.08 -0.88, 5.24 0" stroke="none" stroke-width="0" fill="#d0bfff"></path><path d="M5.24 0 C9.48 -0.95, 14.66 -0.11, 22.71 0 M5.24 0 C11.22 -0.23, 16.94 0.41, 22.71 0 M22.71 0 C25.59 -0.14, 26.72 2.54, 27.95 5.24 M22.71 0 C27.94 -1.13, 28.04 1.53, 27.95 5.24 M27.95 5.24 C27.83 7.62, 27.94 12.13, 27.95 15.71 M27.95 5.24 C27.54 8.79, 28.43 11.92, 27.95 15.71 M27.95 15.71 C28.01 20.38, 28.06 19.18, 22.71 20.95 M27.95 15.71 C27.17 17.59, 28.28 21.1, 22.71 20.95 M22.71 20.95 C18.44 22.48, 12.31 21.05, 5.24 20.95 M22.71 20.95 C19.26 21.05, 14.93 21.03, 5.24 20.95 M5.24 20.95 C3.02 20.17, 1.42 18.37, 0 15.71 M5.24 20.95 C-0.55 23.02, -1.6 17.08, 0 15.71 M0 15.71 C0.37 12.03, 1.04 9.57, 0 5.24 M0 15.71 C-0.31 12.8, 0.49 10.78, 0 5.24 M0 5.24 C-1.7 -0.18, 3.13 0.95, 5.24 0 M0 5.24 C1.43 -0.41, 3 -1.79, 5.24 0" stroke="#1e1e1e" stroke-width="2" fill="none"></path></g><g stroke-linecap="round" transform="translate(28.10504480902 38.92300118694311) rotate(47.524435689906944 25.4296875 23.859375)"><path d="M12.35 3 C16.44 0.65, 24.04 0.27, 29.57 1.2 C35.11 2.12, 41.87 4.64, 45.57 8.57 C49.27 12.5, 52.05 19.6, 51.76 24.79 C51.47 29.98, 47.5 36.01, 43.84 39.69 C40.18 43.37, 35.21 45.96, 29.79 46.87 C24.36 47.78, 16.06 47.88, 11.3 45.17 C6.55 42.46, 3.01 35.5, 1.26 30.61 C-0.49 25.72, -1.74 20.55, 0.8 15.83 C3.33 11.12, 13.58 4.67, 16.44 2.33 C19.31 0, 18.05 1.43, 18 1.83 M23.74 0.75 C28.75 -0.39, 35.54 0.4, 40.12 3.33 C44.71 6.26, 49.99 13.52, 51.25 18.34 C52.51 23.15, 50.04 27.95, 47.68 32.2 C45.32 36.46, 41.65 41.65, 37.09 43.87 C32.54 46.1, 25.85 46.44, 20.36 45.55 C14.87 44.65, 7.47 42.31, 4.15 38.49 C0.83 34.68, 0.2 27.76, 0.45 22.64 C0.69 17.52, 1.75 11.66, 5.64 7.79 C9.53 3.92, 21.13 0.35, 23.8 -0.6 C26.46 -1.55, 21.85 1.35, 21.63 2.09" stroke="none" stroke-width="0" fill="#d0bfff"></path><path d="M24.27 0.07 C29.3 -0.43, 36.76 2.08, 41.17 5.28 C45.57 8.47, 49.66 14.27, 50.71 19.23 C51.76 24.18, 50.15 30.39, 47.48 35.01 C44.82 39.63, 39.89 45.07, 34.71 46.97 C29.54 48.87, 21.65 48.22, 16.43 46.39 C11.22 44.55, 6.13 40.36, 3.42 35.99 C0.71 31.62, -0.73 25.36, 0.18 20.18 C1.08 15.01, 3.91 8.17, 8.83 4.94 C13.75 1.72, 25.51 1.2, 29.69 0.84 C33.86 0.48, 33.82 2.67, 33.88 2.81 M33.77 2.19 C38.82 3.13, 45.92 6.2, 48.63 10.26 C51.34 14.32, 50.9 21.28, 50.03 26.56 C49.17 31.85, 47.5 38.24, 43.45 41.98 C39.4 45.72, 31.22 48.82, 25.76 49.01 C20.31 49.2, 14.74 46.58, 10.72 43.13 C6.7 39.67, 2.91 33.65, 1.65 28.28 C0.39 22.91, 0.7 15.44, 3.16 10.92 C5.62 6.41, 11.27 2.74, 16.42 1.18 C21.58 -0.37, 31.37 1.44, 34.1 1.57 C36.82 1.7, 32.82 1.74, 32.78 1.98" stroke="#1e1e1e" stroke-width="2" fill="none"></path></g></svg>