<svg version="1.1" xmlns="http://www.w3.org/2000/svg" viewBox="0 0 116.80622209821377 127.12357954545405" width="116.80622209821377" height="127.12357954545405">
  <!-- svg-source:excalidraw -->
  
  <defs>
    <style class="style-fonts">
      @font-face {
        font-family: "Virgil";
        src: url("https://excalidraw.com/Virgil.woff2");
      }
      @font-face {
        font-family: "Cascadia";
        src: url("https://excalidraw.com/Cascadia.woff2");
      }
      @font-face {
        font-family: "Assistant";
        src: url("https://excalidraw.com/Assistant-Regular.woff2");
      }
    </style>
    
  </defs>
  <g stroke-linecap="round" transform="translate(21.544503348213766 24.85274621212011) rotate(0 42.630859375 38.322265625)"><path d="M19.16 0 C34.52 3.05, 55.99 -2.63, 66.1 0 C75.63 1.22, 81.83 8.97, 85.26 19.16 C85.86 27.96, 81.36 35.86, 85.26 57.48 C87.75 68.51, 76.04 80.21, 66.1 76.64 C50.5 75.93, 41.95 73.62, 19.16 76.64 C6.69 77.52, 3.17 66.93, 0 57.48 C2.44 49.63, -2.59 35.16, 0 19.16 C-1.35 7.13, 3.01 2.55, 19.16 0" stroke="none" stroke-width="0" fill="#e64980"></path><path d="M19.16 0 C31.7 1.51, 40.74 0.14, 66.1 0 M19.16 0 C30.8 -0.2, 42.43 0.27, 66.1 0 M66.1 0 C80.38 -0.98, 85.34 6.2, 85.26 19.16 M66.1 0 C78.96 -0.41, 85.91 6.16, 85.26 19.16 M85.26 19.16 C85.39 29.68, 86.88 34.37, 85.26 57.48 M85.26 19.16 C85.57 33.79, 86.47 46.36, 85.26 57.48 M85.26 57.48 C84.58 68.86, 80.68 76.78, 66.1 76.64 M85.26 57.48 C85.12 72.24, 80.88 77.78, 66.1 76.64 M66.1 76.64 C46.5 76.75, 29.98 77.12, 19.16 76.64 M66.1 76.64 C51.84 76.33, 37.01 76.3, 19.16 76.64 M19.16 76.64 C4.39 78.45, -1.39 68.42, 0 57.48 M19.16 76.64 C6.61 74.59, 1.67 70.85, 0 57.48 M0 57.48 C-1.67 47.66, 0.78 36.48, 0 19.16 M0 57.48 C-1.21 48.36, 0.32 41.62, 0 19.16 M0 19.16 C1.24 4.51, 7.48 -1.56, 19.16 0 M0 19.16 C1.89 5.9, 8.05 1.89, 19.16 0" stroke="#1e1e1e" stroke-width="2" fill="none"></path></g><g stroke-linecap="round" transform="translate(45.41349600919875 102.14701704545405) rotate(0 19.283203125 7.48828125)"><path d="M3.74 0 C15.89 -2.08, 22.03 0.51, 34.82 0 C34.84 1.86, 36.03 0.02, 38.57 3.74 C37.62 6.62, 39.26 8.37, 38.57 11.23 C36.52 16.3, 36.42 17.29, 34.82 14.98 C24.58 12.38, 13.43 15.48, 3.74 14.98 C3.54 12.57, -0.53 12.85, 0 11.23 C-0.82 8.85, -0.42 7.14, 0 3.74 C-2.44 3.09, 1.2 -0.67, 3.74 0" stroke="none" stroke-width="0" fill="#868e96"></path><path d="M3.74 0 C12.06 -0.05, 21.84 -0.3, 34.82 0 M3.74 0 C13.61 0.21, 24.46 -0.23, 34.82 0 M34.82 0 C37.36 -0.09, 38.6 1.07, 38.57 3.74 M34.82 0 C37.64 -0.11, 37.69 1.26, 38.57 3.74 M38.57 3.74 C38.87 6, 38.82 9.26, 38.57 11.23 M38.57 3.74 C38.74 6.22, 38.5 8.9, 38.57 11.23 M38.57 11.23 C39.47 13.79, 37.26 15.84, 34.82 14.98 M38.57 11.23 C39.57 14.29, 38.23 14.89, 34.82 14.98 M34.82 14.98 C25.32 15.23, 16.52 14.47, 3.74 14.98 M34.82 14.98 C25.4 14.71, 14.77 15.37, 3.74 14.98 M3.74 14.98 C0.55 14.06, 0.1 12.84, 0 11.23 M3.74 14.98 C2.08 15.27, -0.47 14.77, 0 11.23 M0 11.23 C0.24 8.52, -0.3 6.59, 0 3.74 M0 11.23 C0.16 9.12, 0.15 6.66, 0 3.74 M0 3.74 C0.55 0.47, 2.07 -0.21, 3.74 0 M0 3.74 C0.83 2.19, 2 0.47, 3.74 0" stroke="#1e1e1e" stroke-width="2" fill="none"></path></g><g stroke-linecap="round" transform="translate(45.59936840503178 10) rotate(0 19.283203125 7.48828125)"><path d="M3.74 0 C13.59 1.15, 25.64 2.13, 34.82 0 C34.78 -1.23, 39.61 1.91, 38.57 3.74 C39.14 5.74, 37.7 9.64, 38.57 11.23 C37.67 16.04, 38.56 12.71, 34.82 14.98 C26.68 15.22, 20.39 12.19, 3.74 14.98 C0.72 14.1, -0.34 15.33, 0 11.23 C-0.29 8.59, -0.84 6.24, 0 3.74 C-0.05 0.57, 1.96 1.29, 3.74 0" stroke="none" stroke-width="0" fill="#868e96"></path><path d="M3.74 0 C14.94 -0.19, 27.32 -0.32, 34.82 0 M3.74 0 C13.24 -0.31, 21.99 -0.11, 34.82 0 M34.82 0 C37.36 -0.18, 38.85 1.15, 38.57 3.74 M34.82 0 C36.45 0.01, 39.15 1.32, 38.57 3.74 M38.57 3.74 C38.85 6.99, 38.8 9.7, 38.57 11.23 M38.57 3.74 C38.54 6.3, 38.77 9.13, 38.57 11.23 M38.57 11.23 C38.5 14.59, 38.19 15.47, 34.82 14.98 M38.57 11.23 C39.48 13.64, 37.29 13.94, 34.82 14.98 M34.82 14.98 C25.49 14.5, 15.96 15.65, 3.74 14.98 M34.82 14.98 C26.2 15.36, 18.22 14.45, 3.74 14.98 M3.74 14.98 C1.35 14.08, 0.72 13.99, 0 11.23 M3.74 14.98 C0.77 16.02, 0.39 12.97, 0 11.23 M0 11.23 C-0.35 9.31, -0.05 6.35, 0 3.74 M0 11.23 C0.09 9.53, 0.08 8.03, 0 3.74 M0 3.74 C0.82 1.04, 1.97 0.82, 3.74 0 M0 3.74 C0.75 1.72, 1.61 -0.57, 3.74 0" stroke="#343a40" stroke-width="2" fill="none"></path></g><g stroke-linecap="round" transform="translate(10 53.475852272726115) rotate(0 13.974609375 10.47265625)"><path d="M5.24 0 C6.34 2.15, 10.36 -1.6, 22.71 0 C27.65 0.92, 29 -1.83, 27.95 5.24 C26.59 10.59, 27.43 13.89, 27.95 15.71 C29.67 16.06, 25.09 21.72, 22.71 20.95 C21.91 18.11, 14.91 19.96, 5.24 20.95 C1.27 23.16, 2.87 16.38, 0 15.71 C-1.7 14.16, 0.03 9.45, 0 5.24 C0.99 3.54, -0.22 -1.03, 5.24 0" stroke="none" stroke-width="0" fill="#d0bfff"></path><path d="M5.24 0 C11.07 -0.5, 15.83 -1.04, 22.71 0 M5.24 0 C11.21 0.01, 17.14 -0.07, 22.71 0 M22.71 0 C26.77 -0.2, 26.43 1.77, 27.95 5.24 M22.71 0 C27.36 0.14, 30.17 3.6, 27.95 5.24 M27.95 5.24 C28.58 7.38, 28.64 10.43, 27.95 15.71 M27.95 5.24 C28.39 7.49, 27.88 10.12, 27.95 15.71 M27.95 15.71 C29.69 20.18, 27.79 20.79, 22.71 20.95 M27.95 15.71 C27.89 17.12, 26.34 20.34, 22.71 20.95 M22.71 20.95 C17.29 21.97, 10.69 22.1, 5.24 20.95 M22.71 20.95 C17.59 20.3, 13.77 20.32, 5.24 20.95 M5.24 20.95 C3.19 21.46, -0.82 21.02, 0 15.71 M5.24 20.95 C2.52 19.43, 0.11 20.5, 0 15.71 M0 15.71 C0.02 12.29, -0.92 11.37, 0 5.24 M0 15.71 C0.22 11.66, 0.36 8.32, 0 5.24 M0 5.24 C1.44 3.39, 3.05 0.82, 5.24 0 M0 5.24 C0.73 0.61, 3.86 1.63, 5.24 0" stroke="#1e1e1e" stroke-width="2" fill="none"></path></g><g stroke-linecap="round" transform="translate(36.888671875 39.436789772726115) rotate(0 25.4296875 23.859375)"><path d="M30.26 -0.24 C35.38 0.42, 40.52 5.51, 43.94 9.37 C47.36 13.22, 50.78 17.8, 50.79 22.87 C50.81 27.93, 47.43 35.59, 44.05 39.77 C40.66 43.96, 35.83 47.06, 30.47 47.95 C25.11 48.85, 16.85 47.64, 11.91 45.14 C6.97 42.65, 2.58 37.74, 0.81 32.98 C-0.96 28.21, -0.83 21.4, 1.27 16.56 C3.37 11.72, 7.81 6.37, 13.4 3.92 C19 1.47, 30.74 1.7, 34.85 1.87 C38.96 2.03, 38.18 4.71, 38.08 4.92 M15.43 0.92 C19.74 -1.13, 25.78 -0.24, 30.95 1.33 C36.12 2.9, 43.37 6.21, 46.43 10.33 C49.49 14.46, 49.59 21.19, 49.3 26.09 C49.01 31, 48.45 35.93, 44.7 39.76 C40.96 43.59, 32.51 48.22, 26.83 49.08 C21.15 49.94, 14.82 48.27, 10.63 44.93 C6.44 41.6, 3.16 34.14, 1.68 29.06 C0.2 23.97, -0.11 18.84, 1.77 14.41 C3.64 9.99, 10.73 4.22, 12.93 2.51 C15.12 0.8, 14.75 3.85, 14.94 4.13" stroke="none" stroke-width="0" fill="#d0bfff"></path><path d="M17.23 1.16 C21.99 -0.72, 29.92 -0.15, 35.01 1.83 C40.1 3.82, 45.25 8.68, 47.78 13.07 C50.31 17.47, 51.31 23.18, 50.17 28.21 C49.04 33.24, 45.26 39.85, 40.97 43.26 C36.68 46.67, 29.75 49.12, 24.44 48.66 C19.13 48.21, 13.02 43.99, 9.1 40.51 C5.17 37.02, 1.66 32.65, 0.89 27.75 C0.12 22.86, 1.1 15.52, 4.48 11.12 C7.87 6.72, 18.17 3.18, 21.21 1.36 C24.25 -0.46, 22.87 -0.19, 22.74 0.2 M27.57 0.75 C32.97 0.37, 39.76 2.92, 43.59 5.98 C47.42 9.04, 49.98 14.12, 50.56 19.13 C51.15 24.15, 49.92 31.45, 47.11 36.06 C44.3 40.68, 39.03 45.1, 33.71 46.8 C28.39 48.49, 20.14 48.26, 15.18 46.22 C10.22 44.17, 6.22 39.18, 3.96 34.53 C1.7 29.88, 0.9 23.01, 1.61 18.32 C2.32 13.64, 4.3 9.72, 8.23 6.44 C12.17 3.16, 22.19 -0.15, 25.22 -1.37 C28.24 -2.58, 26.05 -1.54, 26.39 -0.85" stroke="#1e1e1e" stroke-width="2" fill="none"></path></g></svg>