<svg version="1.1" xmlns="http://www.w3.org/2000/svg" viewBox="0 0 107.36794445733497 127.12357954545405" width="107.36794445733497" height="127.12357954545405">
  <!-- svg-source:excalidraw -->
  
  <defs>
    <style class="style-fonts">
      @font-face {
        font-family: "Virgil";
        src: url("https://excalidraw.com/Virgil.woff2");
      }
      @font-face {
        font-family: "Cascadia";
        src: url("https://excalidraw.com/Cascadia.woff2");
      }
      @font-face {
        font-family: "Assistant";
        src: url("https://excalidraw.com/Assistant-Regular.woff2");
      }
    </style>
    
  </defs>
  <g stroke-linecap="round" transform="translate(10 23.42417478354946) rotate(0 42.630859375 38.322265625)"><path d="M19.16 0 C33.65 -0.43, 49.12 2.99, 66.1 0 C81.74 -2.82, 84.38 5.04, 85.26 19.16 C84.55 30.51, 85.6 45.52, 85.26 57.48 C83.29 69.23, 81.87 78.36, 66.1 76.64 C51.87 77.69, 37.61 77.85, 19.16 76.64 C7.86 79.94, 1 70.07, 0 57.48 C-1.26 46.92, -3.62 43.97, 0 19.16 C1.66 7.56, 3.99 3.53, 19.16 0" stroke="none" stroke-width="0" fill="#e64980"></path><path d="M19.16 0 C37.82 1.84, 52.35 -0.69, 66.1 0 M19.16 0 C29.9 0.83, 41.64 0.46, 66.1 0 M66.1 0 C80.46 -0.15, 85.21 4.58, 85.26 19.16 M66.1 0 C79.01 -0.6, 85.83 6.79, 85.26 19.16 M85.26 19.16 C84.55 30.1, 84.48 36.19, 85.26 57.48 M85.26 19.16 C85.09 33.22, 85.72 49.31, 85.26 57.48 M85.26 57.48 C84.44 72.07, 79.55 75.32, 66.1 76.64 M85.26 57.48 C85.37 71.56, 77.54 74.65, 66.1 76.64 M66.1 76.64 C45.62 77.63, 29.93 77.49, 19.16 76.64 M66.1 76.64 C57.25 76.07, 47.48 77.1, 19.16 76.64 M19.16 76.64 C7.69 77.47, 0.64 69.27, 0 57.48 M19.16 76.64 C8.51 78.27, -1.51 68.18, 0 57.48 M0 57.48 C-1.59 43.74, 1.17 32.4, 0 19.16 M0 57.48 C1.07 44.38, -0.41 33.24, 0 19.16 M0 19.16 C-0.69 8.17, 7.34 -1.75, 19.16 0 M0 19.16 C-0.71 6.89, 4.2 0.19, 19.16 0" stroke="#1e1e1e" stroke-width="2" fill="none"></path></g><g stroke-linecap="round" transform="translate(33.868992660984986 102.14701704545405) rotate(0 19.283203125 7.48828125)"><path d="M3.74 0 C9.85 1.73, 18.72 -1.9, 34.82 0 C36.68 -0.97, 39.1 -1.19, 38.57 3.74 C38.83 7.01, 38.03 9.02, 38.57 11.23 C40.73 14.97, 36.6 12.46, 34.82 14.98 C24.57 16.24, 19.6 17.51, 3.74 14.98 C1.97 14.84, -2.48 15.63, 0 11.23 C-0.82 8.83, 0.47 5.58, 0 3.74 C-1.73 3.8, -0.38 -2.03, 3.74 0" stroke="none" stroke-width="0" fill="#868e96"></path><path d="M3.74 0 C12.27 -0.48, 21.87 0.76, 34.82 0 M3.74 0 C13.71 0.11, 23.19 -0.17, 34.82 0 M34.82 0 C37.29 -0.9, 38.62 0.99, 38.57 3.74 M34.82 0 C37.6 0.2, 37.97 1.42, 38.57 3.74 M38.57 3.74 C38.4 6.1, 38.89 8.93, 38.57 11.23 M38.57 3.74 C38.71 5.35, 38.49 7.03, 38.57 11.23 M38.57 11.23 C38.9 13.07, 37.37 15.54, 34.82 14.98 M38.57 11.23 C37.9 12.73, 38.41 14.9, 34.82 14.98 M34.82 14.98 C28.61 15.7, 20.52 15.63, 3.74 14.98 M34.82 14.98 C28.28 15.35, 21.34 15.15, 3.74 14.98 M3.74 14.98 C1.57 14.48, 0.92 14.44, 0 11.23 M3.74 14.98 C0.49 13.94, 0.39 12.63, 0 11.23 M0 11.23 C0.19 8.55, 0.15 5.29, 0 3.74 M0 11.23 C-0.17 8.92, -0.09 6.41, 0 3.74 M0 3.74 C0.48 0.38, 0.94 0.22, 3.74 0 M0 3.74 C-1.09 1.34, 1.53 1.01, 3.74 0" stroke="#1e1e1e" stroke-width="2" fill="none"></path></g><g stroke-linecap="round" transform="translate(34.05486505681802 10) rotate(0 19.283203125 7.48828125)"><path d="M3.74 0 C14.09 -2.29, 19.66 -1.22, 34.82 0 C37.85 -2.44, 40.41 1.2, 38.57 3.74 C38.06 5.52, 39.4 8.31, 38.57 11.23 C37.85 11.21, 36.33 13.93, 34.82 14.98 C25.38 17.53, 14.54 15.01, 3.74 14.98 C-1.24 16.88, 2.57 13.18, 0 11.23 C0.53 9.87, -0.56 8.83, 0 3.74 C-1.63 -0.79, 2.42 1.57, 3.74 0" stroke="none" stroke-width="0" fill="#868e96"></path><path d="M3.74 0 C15.25 0.95, 28.22 -0.01, 34.82 0 M3.74 0 C16.14 -0.11, 27.73 -0.53, 34.82 0 M34.82 0 C37.38 -0.26, 38.81 1.42, 38.57 3.74 M34.82 0 C36.72 0.17, 39.3 0.8, 38.57 3.74 M38.57 3.74 C38.89 6.26, 38.21 9.34, 38.57 11.23 M38.57 3.74 C38.52 5.49, 38.66 6.78, 38.57 11.23 M38.57 11.23 C38.61 14.29, 36.74 14.11, 34.82 14.98 M38.57 11.23 C39.66 13.65, 36.34 13.87, 34.82 14.98 M34.82 14.98 C22.42 15.62, 11.11 15.89, 3.74 14.98 M34.82 14.98 C26.48 15.31, 17.64 14.86, 3.74 14.98 M3.74 14.98 C2.17 15.68, -0.66 12.83, 0 11.23 M3.74 14.98 C1.64 13.88, 0.82 12.6, 0 11.23 M0 11.23 C0.09 8.97, 0.11 7.71, 0 3.74 M0 11.23 C-0.04 9.52, 0.12 7.3, 0 3.74 M0 3.74 C-0.31 1.46, 0.3 0.08, 3.74 0 M0 3.74 C0.28 2.26, 0.19 -0.23, 3.74 0" stroke="#343a40" stroke-width="2" fill="none"></path></g><g stroke-linecap="round" transform="translate(66.23235194657354 80.65939325744512) rotate(47.524435689906944 13.974609375 10.47265625)"><path d="M5.24 0 C10.78 -0.93, 18.51 -2.7, 22.71 0 C28.76 -0.07, 27.02 2.73, 27.95 5.24 C29.42 9.8, 27.33 10.73, 27.95 15.71 C26.58 17.75, 27.57 18.02, 22.71 20.95 C17.6 21.07, 7.74 23.54, 5.24 20.95 C5.31 20.19, -2.73 16.08, 0 15.71 C-1.34 13.79, -1.27 6.7, 0 5.24 C1.62 3.92, 4.82 1.55, 5.24 0" stroke="none" stroke-width="0" fill="#d0bfff"></path><path d="M5.24 0 C10 -0.27, 16.04 1.37, 22.71 0 M5.24 0 C11.32 -0.78, 17.49 -0.22, 22.71 0 M22.71 0 C26.7 0.35, 26.91 2.04, 27.95 5.24 M22.71 0 C27.67 -0.89, 29.59 0.79, 27.95 5.24 M27.95 5.24 C27.08 7.44, 27.11 10.19, 27.95 15.71 M27.95 5.24 C28.08 8.3, 27.93 12.36, 27.95 15.71 M27.95 15.71 C26.79 17.46, 28.11 20.82, 22.71 20.95 M27.95 15.71 C26 16.99, 27.79 22.03, 22.71 20.95 M22.71 20.95 C15.03 22.48, 9.69 22.3, 5.24 20.95 M22.71 20.95 C16.31 20.58, 10.16 21.64, 5.24 20.95 M5.24 20.95 C0.43 19.14, 0.68 17.3, 0 15.71 M5.24 20.95 C3.39 18.7, -1.09 20.13, 0 15.71 M0 15.71 C0.32 13.02, -0.54 8.06, 0 5.24 M0 15.71 C0.29 11.07, -0.13 7.46, 0 5.24 M0 5.24 C-1.9 1.91, 2.23 1.76, 5.24 0 M0 5.24 C-2.13 1.28, 0.97 -0.3, 5.24 0" stroke="#1e1e1e" stroke-width="2" fill="none"></path></g><g stroke-linecap="round" transform="translate(28.403524648314487 38.00359175136782) rotate(47.524435689906944 25.4296875 23.859375)"><path d="M34.75 1.77 C39.92 3.1, 45.19 6.6, 47.86 11.13 C50.53 15.65, 51.89 23.85, 50.76 28.91 C49.64 33.97, 45.21 38.41, 41.11 41.49 C37.01 44.57, 31.41 47.21, 26.19 47.37 C20.97 47.54, 14.25 45.79, 9.8 42.47 C5.34 39.16, 0.48 32.76, -0.53 27.48 C-1.53 22.2, 0.81 15.1, 3.74 10.79 C6.67 6.48, 11.63 3.25, 17.04 1.61 C22.44 -0.03, 33.06 0.82, 36.19 0.95 C39.32 1.08, 36.17 1.74, 35.84 2.37 M34.73 2.18 C39.59 4.02, 44.07 9.59, 46.64 14.02 C49.22 18.46, 51.1 23.83, 50.2 28.76 C49.29 33.7, 45.68 40.53, 41.21 43.61 C36.74 46.7, 28.66 47.52, 23.36 47.26 C18.06 47, 13.32 45.72, 9.39 42.07 C5.47 38.43, 0.77 30.68, -0.22 25.39 C-1.2 20.1, 0.37 14.58, 3.49 10.32 C6.6 6.07, 13.08 1.15, 18.49 -0.15 C23.9 -1.46, 32.93 2, 35.93 2.48 C38.93 2.96, 36.75 2.7, 36.47 2.73" stroke="none" stroke-width="0" fill="#d0bfff"></path><path d="M36.09 2.2 C40.68 3.85, 45.29 9.14, 47.57 13.82 C49.84 18.5, 50.96 25.42, 49.74 30.27 C48.51 35.11, 44.6 39.88, 40.2 42.88 C35.81 45.88, 28.9 48.51, 23.38 48.27 C17.85 48.03, 11.02 45.34, 7.07 41.45 C3.13 37.57, -0.05 30.28, -0.32 24.96 C-0.58 19.63, 2.45 13.5, 5.49 9.49 C8.53 5.49, 12.14 1.54, 17.91 0.91 C23.68 0.29, 35.61 4.44, 40.12 5.73 C44.62 7.01, 44.91 8.36, 44.95 8.61 M16.31 -0.01 C21.33 -2.03, 30.99 -0.32, 36.01 1.5 C41.02 3.32, 43.85 6.27, 46.41 10.88 C48.98 15.49, 52.1 24.13, 51.42 29.15 C50.74 34.18, 46.61 38.11, 42.34 41.01 C38.06 43.91, 31.17 46.46, 25.77 46.55 C20.37 46.63, 14.01 44.49, 9.95 41.53 C5.89 38.57, 2.28 33.69, 1.39 28.79 C0.5 23.9, 1.92 16.87, 4.63 12.16 C7.34 7.45, 15.31 2.11, 17.66 0.55 C20.01 -1.01, 18.84 2.53, 18.73 2.8" stroke="#1e1e1e" stroke-width="2" fill="none"></path></g></svg>