<svg version="1.1" xmlns="http://www.w3.org/2000/svg" viewBox="0 0 117.88881138392833 127.12357954545405" width="117.88881138392833" height="127.12357954545405">
  <!-- svg-source:excalidraw -->
  
  <defs>
    <style class="style-fonts">
      @font-face {
        font-family: "Virgil";
        src: url("https://excalidraw.com/Virgil.woff2");
      }
      @font-face {
        font-family: "Cascadia";
        src: url("https://excalidraw.com/Cascadia.woff2");
      }
      @font-face {
        font-family: "Assistant";
        src: url("https://excalidraw.com/Assistant-Regular.woff2");
      }
    </style>
    
  </defs>
  <g stroke-linecap="round" transform="translate(10 24.85274621212011) rotate(0 42.63085937499994 38.322265625)"><path d="M19.16 0 C34.14 -2.07, 48.39 2.09, 66.1 0 C77.49 2.56, 83.76 2.8, 85.26 19.16 C85.13 30.9, 87.39 49.99, 85.26 57.48 C83.78 73.53, 80.09 74.27, 66.1 76.64 C48.67 79.59, 37.26 73.1, 19.16 76.64 C2.93 79.13, 1.7 72.49, 0 57.48 C2.58 48.83, 2.22 44.65, 0 19.16 C2.35 7.87, 7.53 -1.78, 19.16 0" stroke="none" stroke-width="0" fill="#e64980"></path><path d="M19.16 0 C32.88 -1.04, 50.97 1.32, 66.1 0 M19.16 0 C36.2 -0.32, 54.08 -0.52, 66.1 0 M66.1 0 C80.46 -0.5, 85.86 6.62, 85.26 19.16 M66.1 0 C80.42 -2.28, 85.67 4.56, 85.26 19.16 M85.26 19.16 C86.09 30.09, 87.28 45.28, 85.26 57.48 M85.26 19.16 C84.46 30.51, 84.64 40.64, 85.26 57.48 M85.26 57.48 C83.87 70.68, 79.82 76.89, 66.1 76.64 M85.26 57.48 C84.12 72.07, 78.84 77.55, 66.1 76.64 M66.1 76.64 C47.59 76.31, 31.45 76.06, 19.16 76.64 M66.1 76.64 C53.09 76.34, 38.61 76.74, 19.16 76.64 M19.16 76.64 C6.46 76.29, 0.56 70.06, 0 57.48 M19.16 76.64 C4.64 76.67, 1.16 70.39, 0 57.48 M0 57.48 C1.02 43.73, 0.76 27.14, 0 19.16 M0 57.48 C-0.69 43.03, 0.55 30.04, 0 19.16 M0 19.16 C-0.12 8.11, 8.13 0.98, 19.16 0 M0 19.16 C1.82 6.21, 6.32 -2.08, 19.16 0" stroke="#1e1e1e" stroke-width="2" fill="none"></path></g><g stroke-linecap="round" transform="translate(33.86899266098453 102.14701704545405) rotate(0 19.283203124999943 7.48828125)"><path d="M3.74 0 C14.21 1.87, 22.92 2.06, 34.82 0 C36.23 -2.59, 40.91 -0.56, 38.57 3.74 C39.28 5.55, 38.18 7.74, 38.57 11.23 C39.44 12.01, 37.44 16.44, 34.82 14.98 C27.14 13.15, 17.29 17.16, 3.74 14.98 C2.48 16.59, -2.44 15.15, 0 11.23 C0.62 10.37, 0.56 8.31, 0 3.74 C0.83 -0.04, 3.64 1.84, 3.74 0" stroke="none" stroke-width="0" fill="#868e96"></path><path d="M3.74 0 C12.71 0.69, 21.36 0.49, 34.82 0 M3.74 0 C12.27 -0.27, 20.34 -0.05, 34.82 0 M34.82 0 C37.62 0.11, 39.24 0.26, 38.57 3.74 M34.82 0 C37.52 -0.91, 38.89 1.78, 38.57 3.74 M38.57 3.74 C38.92 6.03, 38.51 7.89, 38.57 11.23 M38.57 3.74 C38.44 6.55, 38.41 9.41, 38.57 11.23 M38.57 11.23 C39.04 13.85, 36.82 15.76, 34.82 14.98 M38.57 11.23 C38.55 14.18, 38.18 13.87, 34.82 14.98 M34.82 14.98 C25.57 14.64, 15.7 14.33, 3.74 14.98 M34.82 14.98 C24.29 14.85, 13.73 14.81, 3.74 14.98 M3.74 14.98 C1.53 14.88, -0.76 13.74, 0 11.23 M3.74 14.98 C1.83 15.05, 1.11 14.65, 0 11.23 M0 11.23 C0.17 9.73, 0.2 8.56, 0 3.74 M0 11.23 C0.18 9.66, 0 8.23, 0 3.74 M0 3.74 C0.87 1.74, 2.04 -0.08, 3.74 0 M0 3.74 C-0.03 0.21, 1.31 -0.3, 3.74 0" stroke="#1e1e1e" stroke-width="2" fill="none"></path></g><g stroke-linecap="round" transform="translate(34.05486505681802 10) rotate(0 19.283203124999943 7.48828125)"><path d="M3.74 0 C10.45 1.59, 18.08 -2.85, 34.82 0 C39.66 -1.81, 36.17 1.5, 38.57 3.74 C38.24 6.21, 38.96 6.26, 38.57 11.23 C38.69 15.2, 35.81 12.72, 34.82 14.98 C20.04 16.43, 11.48 16.25, 3.74 14.98 C-1.19 16.4, -2.02 15.86, 0 11.23 C0.56 9.54, 0.24 6.57, 0 3.74 C2.4 3.09, -0.46 -2.34, 3.74 0" stroke="none" stroke-width="0" fill="#868e96"></path><path d="M3.74 0 C11.89 0.31, 18.37 -0.08, 34.82 0 M3.74 0 C11.89 -0.02, 19.4 0.17, 34.82 0 M34.82 0 C37.99 -0.99, 38.75 0.45, 38.57 3.74 M34.82 0 C37.65 0.53, 38.36 1.62, 38.57 3.74 M38.57 3.74 C38.53 5.29, 38.89 6.73, 38.57 11.23 M38.57 3.74 C38.42 6.47, 38.63 9.15, 38.57 11.23 M38.57 11.23 C38.07 14.52, 37.3 15.37, 34.82 14.98 M38.57 11.23 C39.43 12.62, 37.39 14.45, 34.82 14.98 M34.82 14.98 C26 14.31, 17.71 15.68, 3.74 14.98 M34.82 14.98 C27.04 14.87, 19.36 14.91, 3.74 14.98 M3.74 14.98 C0.49 14.99, 0.5 13.79, 0 11.23 M3.74 14.98 C2.36 15.9, -1.13 14.49, 0 11.23 M0 11.23 C0.2 8.79, -0.35 5.53, 0 3.74 M0 11.23 C-0.05 9.67, 0.13 7.88, 0 3.74 M0 3.74 C0.79 1.17, 1.22 -0.9, 3.74 0 M0 3.74 C0.07 0.95, 1.53 0.2, 3.74 0" stroke="#343a40" stroke-width="2" fill="none"></path></g><g stroke-linecap="round" transform="translate(79.93959263392833 52.35810673701235) rotate(0 13.974609375 10.47265625)"><path d="M5.24 0 C10.28 -3.36, 20.79 -2.41, 22.71 0 C22.89 0.35, 24.74 4.35, 27.95 5.24 C28.51 7.4, 27.96 13.13, 27.95 15.71 C25.86 16.07, 29.64 20.71, 22.71 20.95 C20.44 23.11, 12.24 22.88, 5.24 20.95 C-1.06 23.9, -0.76 21.8, 0 15.71 C0.48 10.77, 1.61 9.04, 0 5.24 C-2.36 -1.5, 2.97 -3.43, 5.24 0" stroke="none" stroke-width="0" fill="#d0bfff"></path><path d="M5.24 0 C10.83 -0.06, 16.92 1.42, 22.71 0 M5.24 0 C9.52 0.14, 13.86 -0.82, 22.71 0 M22.71 0 C26.56 -1.59, 28.52 2.68, 27.95 5.24 M22.71 0 C25.79 0.74, 26.05 3.86, 27.95 5.24 M27.95 5.24 C28.72 8.12, 28.55 11.94, 27.95 15.71 M27.95 5.24 C28.12 8.41, 27.62 11.87, 27.95 15.71 M27.95 15.71 C27.92 19.99, 27.7 19.02, 22.71 20.95 M27.95 15.71 C28.1 18.15, 25.78 21.57, 22.71 20.95 M22.71 20.95 C18.7 22.16, 12.44 20.91, 5.24 20.95 M22.71 20.95 C17.88 20.83, 11.88 20.92, 5.24 20.95 M5.24 20.95 C2.75 21.06, 1.93 20.81, 0 15.71 M5.24 20.95 C-0.52 22.47, 1.66 20.43, 0 15.71 M0 15.71 C-0.99 12.18, -0.79 10.31, 0 5.24 M0 15.71 C0.46 12.76, 0.42 9.25, 0 5.24 M0 5.24 C-0.05 -0.06, 1.86 -0.52, 5.24 0 M0 5.24 C0.57 2.15, 0.55 0.33, 5.24 0" stroke="#1e1e1e" stroke-width="2" fill="none"></path></g><g stroke-linecap="round" transform="translate(30.14076450892844 38.31904423701235) rotate(0 25.429687499999943 23.859375)"><path d="M13.95 2.86 C18.34 0.33, 26.13 0.45, 31.22 1.43 C36.32 2.42, 41.38 4.75, 44.53 8.77 C47.69 12.78, 50.16 20.36, 50.15 25.51 C50.13 30.67, 47.82 35.9, 44.45 39.7 C41.08 43.51, 35.24 47.48, 29.91 48.35 C24.59 49.22, 17.31 47.77, 12.52 44.93 C7.73 42.08, 3.13 36.26, 1.19 31.28 C-0.74 26.3, -2.33 20.16, 0.92 15.05 C4.17 9.94, 16.01 3.1, 20.69 0.62 C25.38 -1.86, 28.9 -0.27, 29.04 0.18 M19.06 1.79 C23.73 0.44, 31.66 -0.42, 36.7 1.6 C41.74 3.63, 47 8.89, 49.31 13.96 C51.62 19.02, 52.46 26.72, 50.57 32 C48.67 37.29, 42.69 43.26, 37.92 45.66 C33.16 48.07, 27.24 47.32, 21.97 46.44 C16.71 45.55, 10.13 44.28, 6.32 40.37 C2.51 36.46, -1 28.26, -0.87 22.99 C-0.74 17.72, 3.73 12.76, 7.09 8.76 C10.45 4.76, 16.85 0.19, 19.29 -1 C21.72 -2.19, 21.24 1.22, 21.69 1.62" stroke="none" stroke-width="0" fill="#d0bfff"></path><path d="M35.69 2.43 C40.67 4.14, 46.25 9.64, 48.48 14.23 C50.71 18.82, 50.57 25.09, 49.07 29.98 C47.56 34.86, 43.62 40.63, 39.44 43.55 C35.25 46.46, 29.19 48.05, 23.94 47.47 C18.69 46.89, 11.77 43.54, 7.96 40.08 C4.14 36.61, 1.66 31.64, 1.04 26.65 C0.42 21.67, 1.2 14.57, 4.26 10.16 C7.31 5.74, 13.65 1.43, 19.36 0.16 C25.06 -1.11, 35.15 1.91, 38.5 2.53 C41.85 3.15, 39.74 3.35, 39.47 3.86 M26.97 0.64 C32.47 0.19, 40.1 1.81, 44.07 5.12 C48.04 8.43, 50.41 15.1, 50.8 20.49 C51.18 25.88, 49.45 33.09, 46.35 37.45 C43.25 41.81, 37.51 45.16, 32.18 46.64 C26.85 48.12, 19.08 48.48, 14.35 46.33 C9.62 44.18, 6.06 38.46, 3.8 33.76 C1.53 29.06, -0.33 23.03, 0.77 18.14 C1.86 13.25, 5.93 7.45, 10.37 4.41 C14.81 1.37, 24.84 0.54, 27.42 -0.1 C29.99 -0.75, 25.8 0.1, 25.83 0.54" stroke="#1e1e1e" stroke-width="2" fill="none"></path></g></svg>