<svg version="1.1" xmlns="http://www.w3.org/2000/svg" viewBox="0 0 105.26171875 127.84067844958452" width="105.26171875" height="127.84067844958452">
  <!-- svg-source:excalidraw -->
  
  <defs>
    <style class="style-fonts">
      @font-face {
        font-family: "Virgil";
        src: url("https://excalidraw.com/Virgil.woff2");
      }
      @font-face {
        font-family: "Cascadia";
        src: url("https://excalidraw.com/Cascadia.woff2");
      }
      @font-face {
        font-family: "Assistant";
        src: url("https://excalidraw.com/Assistant-Regular.woff2");
      }
    </style>
    
  </defs>
  <g stroke-linecap="round" transform="translate(10 24.85274621212102) rotate(0 42.630859375 38.322265625)"><path d="M19.16 0 C32.75 2.01, 36.78 -0.82, 66.1 0 C79.65 -3.42, 85.57 7.26, 85.26 19.16 C83.41 33.57, 86.84 51.78, 85.26 57.48 C82.44 69.37, 77.53 77.38, 66.1 76.64 C55.49 77.62, 48.54 74.66, 19.16 76.64 C5.36 79.64, 1.71 69.26, 0 57.48 C1.63 46.78, 1.79 43.39, 0 19.16 C3.3 7.39, 6.2 -3.44, 19.16 0" stroke="none" stroke-width="0" fill="#e64980"></path><path d="M19.16 0 C34.59 1.37, 50.09 2.29, 66.1 0 M19.16 0 C37.74 0.22, 54.91 0.28, 66.1 0 M66.1 0 C80.73 -1.77, 84.58 4.99, 85.26 19.16 M66.1 0 C80.95 0.15, 85.12 8.37, 85.26 19.16 M85.26 19.16 C85.3 33.94, 83.64 48.95, 85.26 57.48 M85.26 19.16 C84.84 29.8, 85.99 39.76, 85.26 57.48 M85.26 57.48 C86.69 69.42, 76.88 78.45, 66.1 76.64 M85.26 57.48 C83.66 68.14, 79.1 74.59, 66.1 76.64 M66.1 76.64 C50.44 77.13, 29.82 76.55, 19.16 76.64 M66.1 76.64 C50.32 76.17, 31.79 75.28, 19.16 76.64 M19.16 76.64 C7.77 77.59, 1.24 68.38, 0 57.48 M19.16 76.64 C7.65 74.86, 1.89 69.77, 0 57.48 M0 57.48 C0.51 43.86, -1.3 30.8, 0 19.16 M0 57.48 C0.59 42.33, 0.97 28.1, 0 19.16 M0 19.16 C-0.95 7.19, 6.9 0.58, 19.16 0 M0 19.16 C-2.28 7.15, 7.98 -1.12, 19.16 0" stroke="#1e1e1e" stroke-width="2" fill="none"></path></g><g stroke-linecap="round" transform="translate(33.86899266098453 102.14701704545496) rotate(0 19.283203125 7.48828125)"><path d="M3.74 0 C9.73 -1, 20.81 -2.67, 34.82 0 C37.54 0.63, 40.86 -1.15, 38.57 3.74 C39.13 6.61, 37.77 7.69, 38.57 11.23 C37.59 14.26, 34.88 16.82, 34.82 14.98 C26.85 13.67, 15.55 17.25, 3.74 14.98 C2.49 14.26, -2.52 12.74, 0 11.23 C0.38 9.68, 0.86 7.61, 0 3.74 C-0.14 -1.24, 3.15 2.57, 3.74 0" stroke="none" stroke-width="0" fill="#868e96"></path><path d="M3.74 0 C10.77 0.89, 18.48 -1.06, 34.82 0 M3.74 0 C15.15 0.21, 26.99 -0.53, 34.82 0 M34.82 0 C36.98 -0.7, 39.47 1.31, 38.57 3.74 M34.82 0 C37.25 0.99, 39.57 1.81, 38.57 3.74 M38.57 3.74 C38.23 6.61, 38.47 9.52, 38.57 11.23 M38.57 3.74 C38.67 6.05, 38.68 8.42, 38.57 11.23 M38.57 11.23 C37.57 14.63, 36.62 14.06, 34.82 14.98 M38.57 11.23 C38.68 12.7, 38.15 15.27, 34.82 14.98 M34.82 14.98 C26.12 15.08, 19.3 14.45, 3.74 14.98 M34.82 14.98 C27.77 14.49, 21.92 15.2, 3.74 14.98 M3.74 14.98 C1.87 14.04, 0.55 12.95, 0 11.23 M3.74 14.98 C2.19 14.73, 0.83 14.67, 0 11.23 M0 11.23 C-0.2 8.84, 0.25 5.52, 0 3.74 M0 11.23 C0.12 9.48, -0.1 8.16, 0 3.74 M0 3.74 C0.26 1.54, 0.25 0.33, 3.74 0 M0 3.74 C0.79 0.69, 0.34 1.14, 3.74 0" stroke="#1e1e1e" stroke-width="2" fill="none"></path></g><g stroke-linecap="round" transform="translate(34.05486505681802 10) rotate(0 19.283203125 7.48828125)"><path d="M3.74 0 C15.11 -2.35, 25.58 0.75, 34.82 0 C39.61 -2.4, 38.04 0.37, 38.57 3.74 C37.86 5.65, 38.26 8.24, 38.57 11.23 C36.13 15.57, 37.27 14.3, 34.82 14.98 C23.9 16.92, 15.71 14.04, 3.74 14.98 C-1.27 13.99, -1.05 14.72, 0 11.23 C0.85 9.87, -0.09 7.03, 0 3.74 C1.9 3.82, 0.7 -1.97, 3.74 0" stroke="none" stroke-width="0" fill="#868e96"></path><path d="M3.74 0 C15.44 -1.13, 26.19 0.57, 34.82 0 M3.74 0 C15.19 -0.53, 25.53 -0.44, 34.82 0 M34.82 0 C38.22 0.07, 38.5 2.11, 38.57 3.74 M34.82 0 C38.32 0.57, 39.48 1.16, 38.57 3.74 M38.57 3.74 C38.43 6.06, 38.6 8, 38.57 11.23 M38.57 3.74 C38.72 6.02, 38.4 8.62, 38.57 11.23 M38.57 11.23 C37.87 12.81, 37.42 14.08, 34.82 14.98 M38.57 11.23 C39.4 14.03, 36.85 16.02, 34.82 14.98 M34.82 14.98 C25.02 14.4, 13.21 15.94, 3.74 14.98 M34.82 14.98 C26.04 15.06, 16.88 14.36, 3.74 14.98 M3.74 14.98 C1.8 14.2, 0.82 13.52, 0 11.23 M3.74 14.98 C2.08 15.92, 0.75 14.2, 0 11.23 M0 11.23 C0.28 8.5, -0.32 6.39, 0 3.74 M0 11.23 C-0.12 9.77, 0.02 8.22, 0 3.74 M0 3.74 C-0.99 1.58, 1.94 -0.49, 3.74 0 M0 3.74 C-0.91 2.39, 0.85 1.02, 3.74 0" stroke="#343a40" stroke-width="2" fill="none"></path></g><g stroke-linecap="round" transform="translate(39.397448168828305 93.26932525149914) rotate(90.684351531919 13.974609375 10.47265625)"><path d="M5.24 0 C10.2 1.06, 17.41 -2.61, 22.71 0 C25.47 -1.21, 27.48 3.96, 27.95 5.24 C27.1 9.6, 26.03 14.53, 27.95 15.71 C27.88 18.27, 27.19 22.74, 22.71 20.95 C19.92 20.34, 11.09 20.01, 5.24 20.95 C0.3 22.31, -2.92 20.73, 0 15.71 C-0.27 10.34, 1.21 10.44, 0 5.24 C-0.76 -0.98, -1.37 2.15, 5.24 0" stroke="none" stroke-width="0" fill="#d0bfff"></path><path d="M5.24 0 C13.33 1.44, 20.03 0.22, 22.71 0 M5.24 0 C11.21 -0.46, 18.57 0.21, 22.71 0 M22.71 0 C26.08 1.72, 29.69 2.73, 27.95 5.24 M22.71 0 C28.02 -0.18, 27.89 -0.33, 27.95 5.24 M27.95 5.24 C28.1 7.9, 28.07 12.31, 27.95 15.71 M27.95 5.24 C27.5 8.45, 27.66 10.23, 27.95 15.71 M27.95 15.71 C28.14 17.42, 27.65 21.46, 22.71 20.95 M27.95 15.71 C27 21.29, 26.98 19.43, 22.71 20.95 M22.71 20.95 C15.87 22.51, 11.95 19.36, 5.24 20.95 M22.71 20.95 C19.69 20.21, 16.07 20.35, 5.24 20.95 M5.24 20.95 C3.39 20.53, 1.44 20.84, 0 15.71 M5.24 20.95 C3.25 21.89, 0.73 18.06, 0 15.71 M0 15.71 C-1.02 11.96, -1.07 8.25, 0 5.24 M0 15.71 C0.18 13.74, -0.47 11.65, 0 5.24 M0 5.24 C1.38 0.77, 0.17 1.98, 5.24 0 M0 5.24 C-0.79 3.79, 2.84 -2.01, 5.24 0" stroke="#1e1e1e" stroke-width="2" fill="none"></path></g><g stroke-linecap="round" transform="translate(27.748046875 41.5338000671818) rotate(90.684351531919 25.4296875 23.859375)"><path d="M33.08 2.18 C38.14 3.29, 45.1 6.53, 47.86 10.81 C50.63 15.08, 50.77 22.52, 49.67 27.8 C48.57 33.09, 45.37 39.26, 41.26 42.5 C37.16 45.74, 30.25 47.2, 25.03 47.24 C19.81 47.28, 13.98 46.02, 9.94 42.74 C5.89 39.46, 1.87 32.49, 0.79 27.54 C-0.29 22.6, 0.97 17.55, 3.45 13.1 C5.94 8.64, 9.41 2.34, 15.7 0.84 C22 -0.66, 36.15 2.57, 41.21 4.11 C46.27 5.65, 46.63 9.76, 46.08 10.09 M28.54 1.46 C33.73 1.61, 38.77 3.61, 42.4 7.04 C46.03 10.48, 49.55 16.73, 50.3 22.08 C51.04 27.43, 50.2 35.05, 46.87 39.15 C43.54 43.24, 35.86 45.59, 30.32 46.66 C24.78 47.73, 18.57 47.59, 13.64 45.57 C8.71 43.56, 2.86 39.34, 0.75 34.55 C-1.36 29.76, -0.84 21.77, 0.98 16.81 C2.81 11.85, 7.3 7.63, 11.7 4.78 C16.09 1.93, 24.41 0.29, 27.36 -0.29 C30.3 -0.86, 29.35 1.1, 29.37 1.33" stroke="none" stroke-width="0" fill="#d0bfff"></path><path d="M24.91 -0.34 C29.87 -0.58, 37.07 3.32, 41.35 6.7 C45.64 10.09, 49.47 14.95, 50.6 19.99 C51.73 25.03, 50.85 32.42, 48.13 36.95 C45.41 41.49, 39.58 45.66, 34.28 47.19 C28.97 48.72, 21.64 48.07, 16.32 46.13 C10.99 44.19, 5.01 39.97, 2.32 35.55 C-0.36 31.13, -1.01 24.74, 0.19 19.63 C1.39 14.51, 4.19 7.87, 9.54 4.85 C14.89 1.82, 27.65 1.58, 32.3 1.49 C36.96 1.4, 37.66 4.18, 37.45 4.29 M36.64 1.04 C41.8 3.17, 47.6 9.35, 49.71 14.46 C51.82 19.58, 50.86 27.02, 49.28 31.71 C47.7 36.4, 44.62 39.81, 40.23 42.6 C35.84 45.39, 28.59 49.01, 22.94 48.44 C17.29 47.88, 9.9 43.01, 6.33 39.19 C2.76 35.37, 1.97 30.64, 1.5 25.51 C1.03 20.39, 0.41 12.48, 3.53 8.46 C6.65 4.45, 14.57 2.69, 20.22 1.44 C25.87 0.19, 34.61 0.93, 37.42 0.97 C40.24 1, 37.23 1.1, 37.09 1.64" stroke="#1e1e1e" stroke-width="2" fill="none"></path></g></svg>