<svg version="1.1" xmlns="http://www.w3.org/2000/svg" viewBox="0 0 105.26171875 129.23744184244413" width="105.26171875" height="129.23744184244413">
  <!-- svg-source:excalidraw -->
  
  <defs>
    <style class="style-fonts">
      @font-face {
        font-family: "Virgil";
        src: url("https://excalidraw.com/Virgil.woff2");
      }
      @font-face {
        font-family: "Cascadia";
        src: url("https://excalidraw.com/Cascadia.woff2");
      }
      @font-face {
        font-family: "Assistant";
        src: url("https://excalidraw.com/Assistant-Regular.woff2");
      }
    </style>
    
  </defs>
  <g stroke-linecap="round" transform="translate(10 26.966608509110188) rotate(0 42.630859375 38.322265625)"><path d="M19.16 0 C36.86 -2.13, 47.36 3.39, 66.1 0 C78.64 -3.06, 81.8 8.87, 85.26 19.16 C87.66 29.67, 88.64 45.02, 85.26 57.48 C87.86 73.22, 81.22 78.13, 66.1 76.64 C53.07 75.06, 31.7 78.65, 19.16 76.64 C2.96 79.22, -3.52 68.55, 0 57.48 C-3.75 45.64, 2.31 29.65, 0 19.16 C-2.84 9.95, 5.15 3.21, 19.16 0" stroke="none" stroke-width="0" fill="#e64980"></path><path d="M19.16 0 C35.01 -0.49, 49.65 -1.79, 66.1 0 M19.16 0 C37.34 0.85, 55.24 0.68, 66.1 0 M66.1 0 C77.79 -0.06, 83.87 6.81, 85.26 19.16 M66.1 0 C79.96 0.28, 84.12 8.2, 85.26 19.16 M85.26 19.16 C83.49 30.73, 84.5 41.67, 85.26 57.48 M85.26 19.16 C84.53 32.1, 85.9 43.75, 85.26 57.48 M85.26 57.48 C85.34 70.07, 78.95 76.29, 66.1 76.64 M85.26 57.48 C85.91 70.03, 77.13 76.67, 66.1 76.64 M66.1 76.64 C51.26 75.13, 34.53 78.55, 19.16 76.64 M66.1 76.64 C50.45 76.04, 32.6 76.22, 19.16 76.64 M19.16 76.64 C8.19 76.78, -0.12 71.98, 0 57.48 M19.16 76.64 C8.39 77.78, 1.82 70.08, 0 57.48 M0 57.48 C-0.18 46.58, 0.69 33.66, 0 19.16 M0 57.48 C0.47 45.01, -1.24 34.28, 0 19.16 M0 19.16 C-1.39 4.55, 6.58 -1.78, 19.16 0 M0 19.16 C1.67 6.98, 5.44 2.09, 19.16 0" stroke="#1e1e1e" stroke-width="2" fill="none"></path></g><g stroke-linecap="round" transform="translate(33.86899266098453 104.26087934244413) rotate(0 19.283203125 7.48828125)"><path d="M3.74 0 C10.96 2.71, 22.52 -1.97, 34.82 0 C34.82 1.79, 39.8 2.86, 38.57 3.74 C39.42 5.08, 39.32 7.63, 38.57 11.23 C40.26 14.8, 38.15 13.69, 34.82 14.98 C20.29 15.6, 7.97 16.57, 3.74 14.98 C-1.29 13.75, 1.05 14.39, 0 11.23 C0.77 8.29, -0.67 7.27, 0 3.74 C-0.9 3.56, 2.49 -2.27, 3.74 0" stroke="none" stroke-width="0" fill="#868e96"></path><path d="M3.74 0 C14.28 -0.8, 25.08 0.5, 34.82 0 M3.74 0 C12.11 0.18, 20.92 -0.13, 34.82 0 M34.82 0 C36.62 0.21, 39.04 1.37, 38.57 3.74 M34.82 0 C36.75 0.91, 38.55 1.7, 38.57 3.74 M38.57 3.74 C38.36 6.48, 38.63 9.25, 38.57 11.23 M38.57 3.74 C38.68 5.85, 38.55 8.12, 38.57 11.23 M38.57 11.23 C38.6 13.55, 37.6 14.88, 34.82 14.98 M38.57 11.23 C37.69 13.74, 37.9 15.05, 34.82 14.98 M34.82 14.98 C23.16 15.55, 10.7 14.85, 3.74 14.98 M34.82 14.98 C23.5 14.49, 12.96 14.87, 3.74 14.98 M3.74 14.98 C1.19 15.84, 0.87 14.22, 0 11.23 M3.74 14.98 C2.16 14.89, -0.03 12.69, 0 11.23 M0 11.23 C0.08 8.75, 0.06 6.89, 0 3.74 M0 11.23 C-0.21 9.44, -0.16 7.14, 0 3.74 M0 3.74 C0.1 0.36, 1.97 0.26, 3.74 0 M0 3.74 C-0.47 2.29, 1.64 -0.76, 3.74 0" stroke="#1e1e1e" stroke-width="2" fill="none"></path></g><g stroke-linecap="round" transform="translate(34.05486505681802 12.113862296989168) rotate(0 19.283203125 7.48828125)"><path d="M3.74 0 C11.09 -2.59, 16.28 1.41, 34.82 0 C38.55 1.61, 36.12 2.67, 38.57 3.74 C39.35 6.21, 39.28 7.47, 38.57 11.23 C39.39 12.44, 39.71 16.81, 34.82 14.98 C25.06 16.98, 17.71 13.88, 3.74 14.98 C2.3 15.64, 0.76 11.15, 0 11.23 C-0.84 9.7, -0.4 7.11, 0 3.74 C1.24 -1.02, 0.44 0.56, 3.74 0" stroke="none" stroke-width="0" fill="#868e96"></path><path d="M3.74 0 C13.43 0.6, 21.08 -0.09, 34.82 0 M3.74 0 C15.16 -0.11, 26.76 0.01, 34.82 0 M34.82 0 C37.79 0.12, 38.07 2.04, 38.57 3.74 M34.82 0 C37.3 0.45, 39.43 0.14, 38.57 3.74 M38.57 3.74 C38.65 5.92, 38.52 8.1, 38.57 11.23 M38.57 3.74 C38.6 6.27, 38.6 8.8, 38.57 11.23 M38.57 11.23 C38.85 13.63, 36.56 14.99, 34.82 14.98 M38.57 11.23 C39.15 13.8, 38.43 15.9, 34.82 14.98 M34.82 14.98 C29.09 15.12, 22.88 16.02, 3.74 14.98 M34.82 14.98 C28.7 14.9, 21.65 15.3, 3.74 14.98 M3.74 14.98 C2.12 15.47, 0.79 13.65, 0 11.23 M3.74 14.98 C1.22 13.94, 0.07 13.43, 0 11.23 M0 11.23 C0.05 9.04, -0.15 6.64, 0 3.74 M0 11.23 C-0.09 9.13, 0.06 7.2, 0 3.74 M0 3.74 C0.72 1.51, 0.84 0.91, 3.74 0 M0 3.74 C0.39 0.49, 1.3 0.65, 3.74 0" stroke="#343a40" stroke-width="2" fill="none"></path></g><g stroke-linecap="round" transform="translate(39.397448168828305 13.626040698085376) rotate(269.315648468081 13.974609375 10.47265625)"><path d="M5.24 0 C9.12 2.44, 20.54 2.22, 22.71 0 C22.82 1.97, 25.15 4.7, 27.95 5.24 C29.32 8.93, 28.69 10.15, 27.95 15.71 C31.27 21.74, 23.84 17.7, 22.71 20.95 C13.8 19.68, 12.31 21.98, 5.24 20.95 C2.8 17.37, 1.2 21.69, 0 15.71 C-0.5 14.75, 1.05 8.8, 0 5.24 C-1.12 2.53, -1.68 0.3, 5.24 0" stroke="none" stroke-width="0" fill="#d0bfff"></path><path d="M5.24 0 C8.69 -0.47, 14.16 -1.34, 22.71 0 M5.24 0 C10.91 0.19, 18.21 0.11, 22.71 0 M22.71 0 C25.21 1.58, 27.92 2.53, 27.95 5.24 M22.71 0 C27.93 -2.21, 28.1 0.7, 27.95 5.24 M27.95 5.24 C27.91 7.54, 28.39 11.93, 27.95 15.71 M27.95 5.24 C27.97 7.77, 28.1 10.44, 27.95 15.71 M27.95 15.71 C26.43 19.22, 27.21 21.06, 22.71 20.95 M27.95 15.71 C30.17 21.05, 23.94 22.47, 22.71 20.95 M22.71 20.95 C17.24 22.57, 8.15 20.36, 5.24 20.95 M22.71 20.95 C18.64 21.71, 15.43 21.39, 5.24 20.95 M5.24 20.95 C3.33 20.79, -0.05 17.39, 0 15.71 M5.24 20.95 C1.88 20.34, 0.57 19.6, 0 15.71 M0 15.71 C-0.42 13.86, -0.45 9.47, 0 5.24 M0 15.71 C0.12 11.16, 0.45 7.68, 0 5.24 M0 5.24 C-0.82 3.56, 2.42 -1.32, 5.24 0 M0 5.24 C0.11 3.04, 0.41 -2, 5.24 0" stroke="#1e1e1e" stroke-width="2" fill="none"></path></g><g stroke-linecap="round" transform="translate(27.939453125 38.740472132401806) rotate(269.315648468081 25.4296875 23.859375)"><path d="M26.34 -0.51 C31.59 -0.61, 38.5 3.07, 42.48 6.67 C46.46 10.28, 49.51 16.33, 50.21 21.11 C50.9 25.9, 49.3 31.27, 46.66 35.39 C44.01 39.5, 39.58 44.02, 34.33 45.81 C29.07 47.6, 20.48 47.78, 15.12 46.13 C9.76 44.48, 4.54 40.49, 2.15 35.91 C-0.23 31.32, -0.62 23.69, 0.78 18.62 C2.19 13.55, 6.25 8.57, 10.57 5.48 C14.88 2.4, 23.58 1.02, 26.65 0.11 C29.71 -0.79, 29.02 -0.49, 28.95 0.06 M25.65 0.72 C31.18 0.27, 37.82 0.84, 42.07 3.69 C46.32 6.54, 49.97 12.61, 51.14 17.8 C52.31 22.98, 51.61 29.9, 49.08 34.81 C46.55 39.71, 41.07 45.18, 35.97 47.24 C30.87 49.3, 23.76 49.07, 18.48 47.15 C13.2 45.23, 7.11 39.97, 4.3 35.7 C1.5 31.43, 1.11 26.69, 1.64 21.53 C2.17 16.37, 3.57 8.56, 7.48 4.73 C11.4 0.91, 22.09 -0.46, 25.12 -1.42 C28.16 -2.37, 25.89 -1.71, 25.71 -0.98" stroke="none" stroke-width="0" fill="#d0bfff"></path><path d="M16.44 0.83 C21.1 -0.99, 28.91 0.09, 34.07 1.82 C39.24 3.55, 44.56 6.89, 47.43 11.21 C50.31 15.52, 52.15 22.47, 51.31 27.73 C50.47 32.98, 46.81 39.37, 42.38 42.72 C37.96 46.06, 30.34 47.88, 24.75 47.78 C19.16 47.68, 12.85 45.43, 8.84 42.12 C4.84 38.82, 1.65 33.05, 0.71 27.96 C-0.23 22.86, -0.31 16.03, 3.2 11.54 C6.71 7.06, 17.96 2.9, 21.74 1.06 C25.52 -0.77, 25.89 0.26, 25.88 0.54 M22.05 0.11 C27.23 -0.58, 35.85 1.26, 40.75 4.39 C45.65 7.52, 50.39 13.78, 51.44 18.87 C52.48 23.96, 49.37 30.35, 47.01 34.92 C44.65 39.49, 41.97 44.13, 37.28 46.27 C32.6 48.42, 24.13 49.47, 18.92 47.8 C13.7 46.12, 9.23 40.74, 6.01 36.24 C2.78 31.73, -0.88 25.61, -0.41 20.76 C0.05 15.9, 4.86 10.33, 8.78 7.1 C12.7 3.87, 20.47 2.35, 23.1 1.38 C25.72 0.42, 24.29 1.14, 24.54 1.31" stroke="#1e1e1e" stroke-width="2" fill="none"></path></g></svg>