<svg version="1.1" xmlns="http://www.w3.org/2000/svg" viewBox="0 0 106.88189535019183 127.12357954545405" width="106.88189535019183" height="127.12357954545405">
  <!-- svg-source:excalidraw -->
  
  <defs>
    <style class="style-fonts">
      @font-face {
        font-family: "Virgil";
        src: url("https://excalidraw.com/Virgil.woff2");
      }
      @font-face {
        font-family: "Cascadia";
        src: url("https://excalidraw.com/Cascadia.woff2");
      }
      @font-face {
        font-family: "Assistant";
        src: url("https://excalidraw.com/Assistant-Regular.woff2");
      }
    </style>
    
  </defs>
  <g stroke-linecap="round" transform="translate(10 24.85274621212102) rotate(0 42.630859375 38.322265625)"><path d="M19.16 0 C25.25 0.94, 34.75 3.19, 66.1 0 C79.81 -1.48, 88.53 7.6, 85.26 19.16 C83.2 25, 88.73 36.86, 85.26 57.48 C82.2 66.8, 81.36 78.35, 66.1 76.64 C46.31 80.06, 31.36 79.71, 19.16 76.64 C9.35 78.99, 1.48 71.4, 0 57.48 C-3 44.64, 0.59 34.86, 0 19.16 C2.58 2.87, 4.68 1.45, 19.16 0" stroke="none" stroke-width="0" fill="#e64980"></path><path d="M19.16 0 C31.88 1.18, 46.9 0.2, 66.1 0 M19.16 0 C33.96 -0.33, 48.69 0.93, 66.1 0 M66.1 0 C78.52 0.65, 83.61 8.23, 85.26 19.16 M66.1 0 C79.96 -0.45, 84.75 8.13, 85.26 19.16 M85.26 19.16 C85.43 26.5, 85.91 37.58, 85.26 57.48 M85.26 19.16 C85.06 31.52, 85.82 42.14, 85.26 57.48 M85.26 57.48 C85.39 69.35, 78.51 77.19, 66.1 76.64 M85.26 57.48 C84.56 70.1, 77.46 77.56, 66.1 76.64 M66.1 76.64 C48.29 76.74, 30.5 77.23, 19.16 76.64 M66.1 76.64 C52.99 76.71, 39.83 77.45, 19.16 76.64 M19.16 76.64 C4.42 77.97, 1.45 71.32, 0 57.48 M19.16 76.64 C6.45 78, 2.13 68.22, 0 57.48 M0 57.48 C0.4 47.16, 1.99 38.83, 0 19.16 M0 57.48 C-0.33 43.2, -0.25 30.46, 0 19.16 M0 19.16 C0.49 6.74, 5.35 0.29, 19.16 0 M0 19.16 C1.47 5.5, 8.02 -0.96, 19.16 0" stroke="#1e1e1e" stroke-width="2" fill="none"></path></g><g stroke-linecap="round" transform="translate(33.86899266098453 102.14701704545405) rotate(0 19.283203125 7.48828125)"><path d="M3.74 0 C8.59 1.84, 18.75 -1.11, 34.82 0 C39.68 0.88, 36.85 1.37, 38.57 3.74 C39.44 6.35, 37.68 8.15, 38.57 11.23 C40.36 14.96, 38.93 12.53, 34.82 14.98 C23.25 17.19, 14.91 17, 3.74 14.98 C2.32 15.8, -1.29 16.12, 0 11.23 C0.39 7.53, 0.76 4.73, 0 3.74 C-1.23 2.3, 1.91 0.76, 3.74 0" stroke="none" stroke-width="0" fill="#868e96"></path><path d="M3.74 0 C15.47 0.18, 27.8 0.55, 34.82 0 M3.74 0 C10.12 0.36, 16.13 0.28, 34.82 0 M34.82 0 C36.49 0.92, 39.04 1.05, 38.57 3.74 M34.82 0 C37.06 0.87, 37.74 1.93, 38.57 3.74 M38.57 3.74 C38.64 5.76, 38.61 7.24, 38.57 11.23 M38.57 3.74 C38.71 6.4, 38.58 9.33, 38.57 11.23 M38.57 11.23 C38.38 14, 37.01 14.91, 34.82 14.98 M38.57 11.23 C37.86 14.18, 38.19 14.41, 34.82 14.98 M34.82 14.98 C25.19 15.26, 15.82 14.22, 3.74 14.98 M34.82 14.98 C25.95 15.39, 15.62 15.32, 3.74 14.98 M3.74 14.98 C1.97 15.51, 0.03 14.32, 0 11.23 M3.74 14.98 C2.31 13.96, -0.39 12.93, 0 11.23 M0 11.23 C0.32 8.64, 0.18 5.69, 0 3.74 M0 11.23 C0.01 8.99, 0.05 6.89, 0 3.74 M0 3.74 C-0.52 1.39, 1.89 -0.39, 3.74 0 M0 3.74 C0.82 0.77, 0.1 1.04, 3.74 0" stroke="#1e1e1e" stroke-width="2" fill="none"></path></g><g stroke-linecap="round" transform="translate(34.05486505681802 10) rotate(0 19.283203125 7.48828125)"><path d="M3.74 0 C14.04 -1.36, 25.36 0.58, 34.82 0 C35.6 0.12, 40.03 -0.26, 38.57 3.74 C37.83 4.4, 39.33 7.4, 38.57 11.23 C40.18 11.29, 38.74 12.95, 34.82 14.98 C25.08 16.96, 12.15 16.1, 3.74 14.98 C-0.04 17.37, 1.84 12.02, 0 11.23 C0.66 8.71, -0.49 8.48, 0 3.74 C0.67 2.01, -1.33 0.86, 3.74 0" stroke="none" stroke-width="0" fill="#868e96"></path><path d="M3.74 0 C15.64 0.62, 26.31 0.13, 34.82 0 M3.74 0 C10.51 0.09, 17.04 0.39, 34.82 0 M34.82 0 C37.79 -0.19, 38.35 2.01, 38.57 3.74 M34.82 0 C36.49 0.68, 37.95 1.21, 38.57 3.74 M38.57 3.74 C38.62 5.28, 38.87 7.19, 38.57 11.23 M38.57 3.74 C38.61 6.2, 38.56 8.88, 38.57 11.23 M38.57 11.23 C38.26 13.66, 36.7 15.37, 34.82 14.98 M38.57 11.23 C39.43 13.17, 37.37 14.87, 34.82 14.98 M34.82 14.98 C25.28 14.26, 15.95 15.52, 3.74 14.98 M34.82 14.98 C24.82 15.43, 16.17 15.37, 3.74 14.98 M3.74 14.98 C1.28 15.57, 0.93 12.84, 0 11.23 M3.74 14.98 C0.86 14.17, 1.04 13.8, 0 11.23 M0 11.23 C0.15 9.33, -0.06 6.82, 0 3.74 M0 11.23 C0.04 9.7, -0.1 8.12, 0 3.74 M0 3.74 C0.64 0.86, 1.96 -0.42, 3.74 0 M0 3.74 C-1.15 2.28, 0.45 -1.06, 3.74 0" stroke="#343a40" stroke-width="2" fill="none"></path></g><g stroke-linecap="round" transform="translate(65.74630283943043 23.860949680865815) rotate(312.47556431009303 13.974609375 10.47265625)"><path d="M5.24 0 C14.6 1.19, 16.18 0.28, 22.71 0 C28.24 -2.09, 24.82 5.18, 27.95 5.24 C29.09 9.2, 28.96 9.62, 27.95 15.71 C29.92 16.4, 29.16 20.19, 22.71 20.95 C17.5 22.15, 8.15 24.05, 5.24 20.95 C4.29 18.59, -3.25 20.42, 0 15.71 C-1.03 14.32, 0.35 11.97, 0 5.24 C-3.58 2.94, 4.23 -1.75, 5.24 0" stroke="none" stroke-width="0" fill="#d0bfff"></path><path d="M5.24 0 C9.27 0.19, 15.39 0.38, 22.71 0 M5.24 0 C10.57 0.75, 17.76 -0.23, 22.71 0 M22.71 0 C25.76 1.52, 26.51 2.93, 27.95 5.24 M22.71 0 C24.96 -0.07, 26.35 2.23, 27.95 5.24 M27.95 5.24 C28.79 8.86, 28.37 13.3, 27.95 15.71 M27.95 5.24 C27.86 7.51, 27.8 9.47, 27.95 15.71 M27.95 15.71 C26.72 19.99, 27.71 19.97, 22.71 20.95 M27.95 15.71 C28.04 18.99, 26.29 20.54, 22.71 20.95 M22.71 20.95 C17 21.69, 11.35 22.5, 5.24 20.95 M22.71 20.95 C16.7 21.53, 9.44 21.58, 5.24 20.95 M5.24 20.95 C3.6 19.18, -0.68 17.8, 0 15.71 M5.24 20.95 C3.82 21.1, -0.14 21.18, 0 15.71 M0 15.71 C-0.13 11.63, -1 7.66, 0 5.24 M0 15.71 C-0.3 12.92, 0.31 9.77, 0 5.24 M0 5.24 C1.42 0.91, -0.25 1.8, 5.24 0 M0 5.24 C-1.6 -0.37, 1.97 -2.05, 5.24 0" stroke="#1e1e1e" stroke-width="2" fill="none"></path></g><g stroke-linecap="round" transform="translate(27.917475541171825 38.54130475837155) rotate(312.47556431009303 25.4296875 23.859375)"><path d="M37.36 3.25 C42.24 5.23, 47.04 10.36, 49.12 14.87 C51.2 19.39, 51.54 25.54, 49.82 30.33 C48.1 35.13, 43.35 40.74, 38.82 43.65 C34.28 46.57, 27.83 48.46, 22.59 47.84 C17.35 47.23, 11.1 43.57, 7.37 39.97 C3.64 36.37, 0.7 31.13, 0.21 26.24 C-0.28 21.35, 1.33 15.03, 4.42 10.61 C7.52 6.19, 13.05 1.11, 18.78 -0.27 C24.51 -1.64, 35.57 1.6, 38.78 2.36 C41.99 3.12, 38.52 3.72, 38.01 4.31 M29.22 -0.79 C34.51 -0.55, 40.77 4.85, 44.23 8.57 C47.69 12.28, 49.49 16.54, 49.96 21.49 C50.43 26.44, 50.43 34.23, 47.05 38.27 C43.67 42.3, 35.07 44.46, 29.69 45.7 C24.3 46.95, 19.22 48.1, 14.75 45.75 C10.28 43.4, 5 36.64, 2.88 31.61 C0.75 26.57, 0.31 20.24, 1.99 15.54 C3.67 10.85, 8.34 5.79, 12.97 3.44 C17.61 1.08, 27.03 1.79, 29.8 1.43 C32.58 1.08, 29.79 1.23, 29.63 1.29" stroke="none" stroke-width="0" fill="#d0bfff"></path><path d="M29.36 -0.59 C34.61 -0.09, 41.75 4.51, 45.3 8.42 C48.84 12.33, 50.5 17.96, 50.65 22.87 C50.8 27.79, 49.42 33.92, 46.18 37.88 C42.95 41.85, 36.7 45.62, 31.24 46.67 C25.77 47.72, 18.26 46.44, 13.4 44.2 C8.53 41.95, 4.04 37.92, 2.04 33.21 C0.04 28.49, -0.4 20.86, 1.39 15.92 C3.19 10.99, 7.89 6.02, 12.8 3.57 C17.72 1.12, 27.89 1.6, 30.9 1.23 C33.91 0.85, 31.09 1.09, 30.86 1.32 M27.96 0.82 C33.4 1.07, 41.58 3.43, 45.4 7.1 C49.23 10.76, 50.87 17.62, 50.9 22.81 C50.93 27.99, 48.86 34.18, 45.58 38.22 C42.3 42.26, 36.75 45.9, 31.22 47.03 C25.7 48.16, 17.19 47.33, 12.43 44.98 C7.67 42.64, 4.27 37.5, 2.64 32.96 C1.01 28.43, 1.37 22.49, 2.67 17.77 C3.96 13.06, 5.85 7.46, 10.4 4.67 C14.95 1.87, 26.89 1.53, 29.97 1.02 C33.04 0.51, 28.86 1.54, 28.86 1.58" stroke="#1e1e1e" stroke-width="2" fill="none"></path></g></svg>