<svg version="1.1" xmlns="http://www.w3.org/2000/svg" viewBox="0 0 106.9432792787634 127.12357954545405" width="106.9432792787634" height="127.12357954545405">
  <!-- svg-source:excalidraw -->
  
  <defs>
    <style class="style-fonts">
      @font-face {
        font-family: "Virgil";
        src: url("https://excalidraw.com/Virgil.woff2");
      }
      @font-face {
        font-family: "Cascadia";
        src: url("https://excalidraw.com/Cascadia.woff2");
      }
      @font-face {
        font-family: "Assistant";
        src: url("https://excalidraw.com/Assistant-Regular.woff2");
      }
    </style>
    
  </defs>
  <g stroke-linecap="round" transform="translate(11.681560528763399 24.85274621212011) rotate(0 42.630859375 38.322265625)"><path d="M19.16 0 C38.06 1.32, 55.1 -3.18, 66.1 0 C80.07 2.49, 83.51 3.55, 85.26 19.16 C86.74 31.31, 83.91 50.53, 85.26 57.48 C81.84 70.56, 79.75 79.82, 66.1 76.64 C55.88 78.57, 49.48 73.54, 19.16 76.64 C5.5 75.3, 0.74 66.88, 0 57.48 C1 45.06, -1.96 28.02, 0 19.16 C3 8.1, 5.39 -3.49, 19.16 0" stroke="none" stroke-width="0" fill="#e64980"></path><path d="M19.16 0 C32.6 1.8, 43.47 0.37, 66.1 0 M19.16 0 C33.09 -0.02, 45.71 0.09, 66.1 0 M66.1 0 C79.88 0.12, 87.19 8, 85.26 19.16 M66.1 0 C76.61 1.53, 86.93 7.61, 85.26 19.16 M85.26 19.16 C83.72 30.09, 84.09 44.18, 85.26 57.48 M85.26 19.16 C86.11 31.4, 86.03 42.58, 85.26 57.48 M85.26 57.48 C85.21 68.45, 78.99 76.12, 66.1 76.64 M85.26 57.48 C85.83 70.66, 77.68 76.98, 66.1 76.64 M66.1 76.64 C48.19 74.98, 33.74 75.59, 19.16 76.64 M66.1 76.64 C57.06 76.49, 46.17 77.13, 19.16 76.64 M19.16 76.64 C7.06 75.32, 0.1 71.39, 0 57.48 M19.16 76.64 C5.05 74.65, 2.19 70.11, 0 57.48 M0 57.48 C1.31 50.48, -1.51 42.09, 0 19.16 M0 57.48 C0.41 49.79, 0.34 40.86, 0 19.16 M0 19.16 C0.64 5.4, 8.23 1.41, 19.16 0 M0 19.16 C-1.51 4.31, 7.17 -2.19, 19.16 0" stroke="#1e1e1e" stroke-width="2" fill="none"></path></g><g stroke-linecap="round" transform="translate(35.550553189748385 102.14701704545405) rotate(0 19.283203125 7.48828125)"><path d="M3.74 0 C12.36 -2.69, 20.31 1.69, 34.82 0 C36.05 -2.05, 41.14 0.35, 38.57 3.74 C38.31 6.87, 37.69 9.65, 38.57 11.23 C39.2 16.02, 34.92 14.45, 34.82 14.98 C28.61 13.18, 17.63 14.25, 3.74 14.98 C1.78 12.54, 1.84 13.68, 0 11.23 C-0.56 8.9, 0.78 7.59, 0 3.74 C-0.72 -1.27, 0.26 -1.05, 3.74 0" stroke="none" stroke-width="0" fill="#868e96"></path><path d="M3.74 0 C10.66 -0.08, 18.47 -0.08, 34.82 0 M3.74 0 C12.14 0.02, 21.55 0.05, 34.82 0 M34.82 0 C38.28 0.8, 37.58 1.91, 38.57 3.74 M34.82 0 C38.15 0.61, 38.6 1.93, 38.57 3.74 M38.57 3.74 C38.27 7.02, 38.56 9.6, 38.57 11.23 M38.57 3.74 C38.75 6.62, 38.59 9.36, 38.57 11.23 M38.57 11.23 C38.62 13.47, 37.56 15.15, 34.82 14.98 M38.57 11.23 C37.97 13.9, 38.05 14.53, 34.82 14.98 M34.82 14.98 C24.19 14.13, 10.83 14.92, 3.74 14.98 M34.82 14.98 C28.07 15.47, 21.89 14.69, 3.74 14.98 M3.74 14.98 C1.3 15.54, -0.58 12.86, 0 11.23 M3.74 14.98 C2.34 14.9, -0.98 12.62, 0 11.23 M0 11.23 C-0.37 8.67, -0.31 6.01, 0 3.74 M0 11.23 C0.1 9.22, 0.03 6.96, 0 3.74 M0 3.74 C0.92 1.95, 0.59 -0.9, 3.74 0 M0 3.74 C0.39 0.15, 2.07 -1.12, 3.74 0" stroke="#1e1e1e" stroke-width="2" fill="none"></path></g><g stroke-linecap="round" transform="translate(35.736425585581415 10) rotate(0 19.283203125 7.48828125)"><path d="M3.74 0 C14.73 2.2, 22.72 -1.65, 34.82 0 C39.89 -0.9, 40.88 2.49, 38.57 3.74 C37.61 5.42, 38.77 7.79, 38.57 11.23 C36.16 13.2, 36.44 14.64, 34.82 14.98 C22.95 13.69, 12.89 12.22, 3.74 14.98 C3.09 14.93, -0.67 14.44, 0 11.23 C0.86 9.08, -0.22 5.05, 0 3.74 C-0.99 0.2, 2.24 -2.11, 3.74 0" stroke="none" stroke-width="0" fill="#868e96"></path><path d="M3.74 0 C15.32 0.03, 26.91 0.28, 34.82 0 M3.74 0 C13.01 0.03, 22.26 0.4, 34.82 0 M34.82 0 C36.33 0.66, 39.29 1.78, 38.57 3.74 M34.82 0 C37.35 0.68, 39.63 0.23, 38.57 3.74 M38.57 3.74 C38.56 5.71, 38.86 8.06, 38.57 11.23 M38.57 3.74 C38.59 6.19, 38.61 8.92, 38.57 11.23 M38.57 11.23 C38.81 13.9, 36.8 15.12, 34.82 14.98 M38.57 11.23 C39.3 13.29, 38.14 14.5, 34.82 14.98 M34.82 14.98 C27.68 14.97, 21.48 15.59, 3.74 14.98 M34.82 14.98 C24.86 14.79, 14.59 15.4, 3.74 14.98 M3.74 14.98 C0.67 14.11, 0.95 13.66, 0 11.23 M3.74 14.98 C0.27 13.87, 0.79 14.27, 0 11.23 M0 11.23 C-0.26 8.83, -0.04 6.08, 0 3.74 M0 11.23 C0.04 8.28, 0.15 5.64, 0 3.74 M0 3.74 C-0.66 0.35, 1.59 -0.95, 3.74 0 M0 3.74 C0.82 0.12, 0.7 0.46, 3.74 0" stroke="#343a40" stroke-width="2" fill="none"></path></g><g stroke-linecap="round" transform="translate(13.186373760761413 77.90604504315706) rotate(312.47556431009303 13.974609375 10.47265625)"><path d="M5.24 0 C7.21 -2.7, 15.37 -1.3, 22.71 0 C29.41 1.72, 24.81 0.63, 27.95 5.24 C28.23 10.27, 26.03 11.59, 27.95 15.71 C26.74 18.73, 28.41 23.81, 22.71 20.95 C19.49 17.88, 17.2 20.77, 5.24 20.95 C0.81 21.93, 1.79 17.23, 0 15.71 C-0.68 11.04, -0.88 9.27, 0 5.24 C1.37 -1.18, 3.28 1.47, 5.24 0" stroke="none" stroke-width="0" fill="#d0bfff"></path><path d="M5.24 0 C10.24 0.49, 15.69 -1.33, 22.71 0 M5.24 0 C11.34 0.69, 14.9 0.57, 22.71 0 M22.71 0 C27.65 1.07, 28.01 2.92, 27.95 5.24 M22.71 0 C28.34 -2.04, 27.17 0.14, 27.95 5.24 M27.95 5.24 C28.86 10.23, 28.47 14.24, 27.95 15.71 M27.95 5.24 C27.98 8.16, 28.08 11.45, 27.95 15.71 M27.95 15.71 C26.91 19.49, 27.48 20.17, 22.71 20.95 M27.95 15.71 C29.59 18.24, 23.91 23.02, 22.71 20.95 M22.71 20.95 C17.12 22.23, 15.11 20.24, 5.24 20.95 M22.71 20.95 C15.92 21.32, 8.55 20.07, 5.24 20.95 M5.24 20.95 C3.65 20.82, -1.7 17.28, 0 15.71 M5.24 20.95 C3.33 22.03, 1.43 17.04, 0 15.71 M0 15.71 C-0.14 12.75, 0.94 8.96, 0 5.24 M0 15.71 C0.45 12.51, -0.38 8.09, 0 5.24 M0 5.24 C0.68 -0.16, 3.18 -1.95, 5.24 0 M0 5.24 C-1.09 2.67, 2.33 0.67, 5.24 0" stroke="#1e1e1e" stroke-width="2" fill="none"></path></g><g stroke-linecap="round" transform="translate(28.10504480902047 37.022564965653146) rotate(312.47556431009303 25.4296875 23.859375)"><path d="M33.09 1.95 C37.86 3.34, 43.76 8.22, 46.62 12.66 C49.49 17.11, 50.94 23.62, 50.28 28.63 C49.62 33.64, 46.73 39.49, 42.68 42.73 C38.62 45.96, 31.62 47.97, 25.95 48.04 C20.28 48.1, 12.81 46.55, 8.67 43.12 C4.53 39.69, 2.15 32.57, 1.11 27.44 C0.08 22.32, 0.02 16.56, 2.45 12.36 C4.88 8.15, 10.43 4.04, 15.68 2.19 C20.93 0.34, 30.55 1.15, 33.94 1.25 C37.32 1.34, 35.93 2.48, 35.98 2.76 M28.45 1.81 C33.35 2.66, 40.4 6.28, 44.25 9.7 C48.11 13.13, 51.52 17.4, 51.57 22.35 C51.63 27.29, 48.41 35.18, 44.58 39.36 C40.76 43.55, 33.85 46.35, 28.63 47.45 C23.41 48.54, 18 48.54, 13.27 45.95 C8.53 43.36, 2.27 36.95, 0.22 31.91 C-1.83 26.86, -1.25 20.26, 0.96 15.69 C3.16 11.12, 8.87 7.12, 13.45 4.49 C18.03 1.87, 25.87 0.52, 28.46 -0.04 C31.05 -0.6, 29.1 0.48, 28.99 1.11" stroke="none" stroke-width="0" fill="#d0bfff"></path><path d="M16.07 2.66 C20.89 0.33, 28.93 -1.34, 34.2 0.22 C39.48 1.78, 44.9 7.51, 47.72 12.03 C50.54 16.55, 51.92 22.22, 51.13 27.32 C50.33 32.41, 47.25 39.25, 42.95 42.59 C38.65 45.93, 30.98 47.22, 25.32 47.37 C19.66 47.52, 13.1 46.61, 8.98 43.5 C4.86 40.38, 1.45 33.66, 0.6 28.65 C-0.25 23.64, 0.67 17.97, 3.89 13.43 C7.12 8.9, 16.77 3.6, 19.95 1.46 C23.14 -0.69, 23.14 0.29, 23 0.55 M21.33 0.42 C26.51 -0.65, 35.14 0.55, 40.05 3.16 C44.95 5.76, 49.52 10.86, 50.75 16.05 C51.98 21.25, 49.87 29.74, 47.43 34.34 C44.99 38.93, 40.69 41.73, 36.13 43.64 C31.58 45.55, 25.04 46.63, 20.08 45.82 C15.11 45.01, 9.79 42.38, 6.34 38.78 C2.9 35.17, -0.73 29.52, -0.59 24.19 C-0.45 18.85, 3.39 10.61, 7.18 6.75 C10.98 2.9, 19.82 2.28, 22.18 1.05 C24.53 -0.18, 21.02 -0.86, 21.3 -0.63" stroke="#1e1e1e" stroke-width="2" fill="none"></path></g></svg>