<svg version="1.1" xmlns="http://www.w3.org/2000/svg" viewBox="0 0 106.74238642162051 127.12357954545314" width="106.74238642162051" height="127.12357954545314">
  <!-- svg-source:excalidraw -->
  
  <defs>
    <style class="style-fonts">
      @font-face {
        font-family: "Virgil";
        src: url("https://excalidraw.com/Virgil.woff2");
      }
      @font-face {
        font-family: "Cascadia";
        src: url("https://excalidraw.com/Cascadia.woff2");
      }
      @font-face {
        font-family: "Assistant";
        src: url("https://excalidraw.com/Assistant-Regular.woff2");
      }
    </style>
    
  </defs>
  <g stroke-linecap="round" transform="translate(11.480667671620509 24.8527462121192) rotate(0 42.630859375 38.322265625)"><path d="M19.16 0 C35.3 1.25, 46.52 -1.13, 66.1 0 C79.65 -2.49, 82.29 7.91, 85.26 19.16 C85.58 32.03, 85.79 39.78, 85.26 57.48 C87.52 72.81, 81.43 79.16, 66.1 76.64 C57.85 78.85, 47.4 78.1, 19.16 76.64 C6.7 74.57, 3.1 70.25, 0 57.48 C-2.1 42.27, 2.05 30.99, 0 19.16 C-0.98 4.29, 5.24 -1.62, 19.16 0" stroke="none" stroke-width="0" fill="#a18072"></path><path d="M19.16 0 C30.94 -0.4, 43 1.29, 66.1 0 M19.16 0 C31.43 0.77, 45.3 -0.99, 66.1 0 M66.1 0 C78.57 -1, 86.72 7.77, 85.26 19.16 M66.1 0 C79.31 1.25, 83.91 5.85, 85.26 19.16 M85.26 19.16 C83.97 31.13, 84.77 40.59, 85.26 57.48 M85.26 19.16 C85.81 31.45, 84.35 42.9, 85.26 57.48 M85.26 57.48 C87.04 69.53, 78.61 77.32, 66.1 76.64 M85.26 57.48 C83.81 69.13, 76.68 74.77, 66.1 76.64 M66.1 76.64 C54.77 78.53, 39.78 76.62, 19.16 76.64 M66.1 76.64 C47.84 76.08, 29.36 76.15, 19.16 76.64 M19.16 76.64 C8.15 74.71, -0.2 69.44, 0 57.48 M19.16 76.64 C6.68 77.32, -0.02 68.33, 0 57.48 M0 57.48 C0.61 44.48, -0.35 36.46, 0 19.16 M0 57.48 C1.22 43.73, 0.16 30.58, 0 19.16 M0 19.16 C-1.07 8.26, 5.98 -0.18, 19.16 0 M0 19.16 C0.45 6.64, 6.83 0.57, 19.16 0" stroke="#1e1e1e" stroke-width="2" fill="none"></path></g><g stroke-linecap="round" transform="translate(35.349660332605495 102.14701704545314) rotate(0 19.283203125 7.48828125)"><path d="M3.74 0 C12.94 -0.56, 27.71 -2.01, 34.82 0 C35.17 1.1, 37.65 2.85, 38.57 3.74 C38.59 5.98, 39.18 8.73, 38.57 11.23 C40.41 15.54, 35.02 13.87, 34.82 14.98 C28.13 16.68, 19.96 13.78, 3.74 14.98 C3.49 14.97, 0.36 12.81, 0 11.23 C0.55 8.36, -0.2 6.23, 0 3.74 C-0.83 0.07, 0.91 -1.68, 3.74 0" stroke="none" stroke-width="0" fill="#868e96"></path><path d="M3.74 0 C13.94 0.77, 25.19 0.3, 34.82 0 M3.74 0 C14.41 -0.54, 25.29 -0.41, 34.82 0 M34.82 0 C38.05 0.69, 38.76 1.79, 38.57 3.74 M34.82 0 C36.64 -0.27, 38.26 1.55, 38.57 3.74 M38.57 3.74 C38.43 5.68, 38.56 7.47, 38.57 11.23 M38.57 3.74 C38.41 6.68, 38.75 9.38, 38.57 11.23 M38.57 11.23 C38.43 14.07, 36.69 14.49, 34.82 14.98 M38.57 11.23 C37.47 12.79, 36.91 15.7, 34.82 14.98 M34.82 14.98 C25.29 15.16, 18.13 15.37, 3.74 14.98 M34.82 14.98 C26.71 14.77, 19.18 14.43, 3.74 14.98 M3.74 14.98 C1.15 14.57, 0.13 14.02, 0 11.23 M3.74 14.98 C1.24 14.01, -0.04 13.18, 0 11.23 M0 11.23 C-0.11 9.78, 0.17 7.36, 0 3.74 M0 11.23 C-0.06 8.29, -0.13 5.66, 0 3.74 M0 3.74 C-0.2 1.16, 1.44 0.11, 3.74 0 M0 3.74 C0.22 1.53, 1.58 0.46, 3.74 0" stroke="#1e1e1e" stroke-width="2" fill="none"></path></g><g stroke-linecap="round" transform="translate(35.535532728438525 10) rotate(0 19.283203125 7.48828125)"><path d="M3.74 0 C15.26 -1.74, 23.51 1.15, 34.82 0 C36.4 1.6, 38.23 1.17, 38.57 3.74 C39.18 7.25, 39.26 10.05, 38.57 11.23 C36.27 12.62, 35.83 16.2, 34.82 14.98 C23.4 13.7, 13.76 15.19, 3.74 14.98 C1.61 14.05, -0.11 12.03, 0 11.23 C-0.31 9.08, -0.36 7.63, 0 3.74 C-0.33 -0.43, -0.14 0.4, 3.74 0" stroke="none" stroke-width="0" fill="#868e96"></path><path d="M3.74 0 C12.6 0.17, 22.31 -1.06, 34.82 0 M3.74 0 C16.09 -0.13, 28.96 0.46, 34.82 0 M34.82 0 C37.51 0.54, 37.98 1.01, 38.57 3.74 M34.82 0 C37.02 0.3, 37.97 0.45, 38.57 3.74 M38.57 3.74 C38.57 6.56, 38.86 9.54, 38.57 11.23 M38.57 3.74 C38.7 6.4, 38.51 9.25, 38.57 11.23 M38.57 11.23 C37.94 13.24, 36.36 14.16, 34.82 14.98 M38.57 11.23 C38.16 14.45, 37.12 15.6, 34.82 14.98 M34.82 14.98 C23.34 15.22, 9.65 15.03, 3.74 14.98 M34.82 14.98 C27.09 14.45, 18.42 14.73, 3.74 14.98 M3.74 14.98 C1.37 15.27, -0.01 12.89, 0 11.23 M3.74 14.98 C1.21 14.43, -0.72 13.98, 0 11.23 M0 11.23 C0.18 9.28, 0.32 8.29, 0 3.74 M0 11.23 C-0.09 9.51, -0.03 7.43, 0 3.74 M0 3.74 C0.2 1.36, 1.44 0.25, 3.74 0 M0 3.74 C0.33 1.7, 2.13 0.23, 3.74 0" stroke="#343a40" stroke-width="2" fill="none"></path></g><g stroke-linecap="round" transform="translate(13.186373760761413 77.62702718601395) rotate(312.47556431009303 13.974609375000004 10.47265625)"><path d="M5.24 0 C7.64 1.55, 14.14 2.16, 22.71 0 C25.74 -0.11, 30.68 1.84, 27.95 5.24 C29.4 9.79, 26.4 10.9, 27.95 15.71 C25.89 20.89, 28.9 22.13, 22.71 20.95 C19.23 20.76, 10.77 19.65, 5.24 20.95 C1.6 18.6, -3.19 21.01, 0 15.71 C-0.55 12.43, -0.19 9.63, 0 5.24 C-1.93 2.29, 2.12 -3.12, 5.24 0" stroke="none" stroke-width="0" fill="#ffd8a8"></path><path d="M5.24 0 C12.64 -1.7, 20.11 -0.54, 22.71 0 M5.24 0 C9.79 0.69, 13.23 0.56, 22.71 0 M22.71 0 C25.03 -0.47, 27.42 2.27, 27.95 5.24 M22.71 0 C25.01 -1.61, 29.65 1.07, 27.95 5.24 M27.95 5.24 C28.8 9.17, 28.62 11.01, 27.95 15.71 M27.95 5.24 C27.97 9.01, 27.71 12.18, 27.95 15.71 M27.95 15.71 C26.04 17.57, 25.5 22.2, 22.71 20.95 M27.95 15.71 C27.56 20.45, 28.46 19.24, 22.71 20.95 M22.71 20.95 C16.7 21.07, 11.48 20.75, 5.24 20.95 M22.71 20.95 C17.9 20.42, 13.38 21.03, 5.24 20.95 M5.24 20.95 C1.73 19.27, -0.06 18.25, 0 15.71 M5.24 20.95 C0.3 21.44, -1.87 18.59, 0 15.71 M0 15.71 C0.83 12.6, -0.54 7.44, 0 5.24 M0 15.71 C-0.05 12.88, 0.16 10.21, 0 5.24 M0 5.24 C0.38 2.24, 2.31 0.79, 5.24 0 M0 5.24 C1.76 2.2, 2.95 -2.22, 5.24 0" stroke="#1e1e1e" stroke-width="2" fill="none"></path></g><g stroke-linecap="round" transform="translate(28.10504480902047 37.022564965652236) rotate(312.47556431009303 25.429687500000007 23.859375)"><path d="M17.32 2.03 C22.18 0.24, 30.19 -1.03, 35.43 0.89 C40.66 2.81, 46.32 8.93, 48.72 13.56 C51.12 18.19, 51.16 23.9, 49.83 28.66 C48.5 33.43, 44.79 38.99, 40.73 42.13 C36.67 45.27, 30.87 47.56, 25.47 47.5 C20.07 47.44, 12.5 45.14, 8.32 41.78 C4.13 38.43, 1.06 32.41, 0.36 27.36 C-0.34 22.32, 0.81 15.83, 4.12 11.49 C7.42 7.16, 17.14 3.08, 20.16 1.37 C23.19 -0.35, 22.4 0.98, 22.26 1.22 M28.79 -0.39 C34.3 0, 41.04 3.17, 44.7 7.14 C48.36 11.1, 50.54 18.24, 50.76 23.4 C50.97 28.55, 49.05 33.96, 46 38.07 C42.95 42.19, 37.58 46.71, 32.46 48.09 C27.34 49.46, 20.55 48.86, 15.28 46.32 C10.02 43.78, 3.37 37.6, 0.85 32.86 C-1.68 28.13, -1.78 22.65, 0.15 17.92 C2.07 13.2, 7.59 7.48, 12.39 4.54 C17.19 1.59, 26.49 0.71, 28.97 0.27 C31.44 -0.17, 27.42 1.5, 27.24 1.9" stroke="none" stroke-width="0" fill="#ffd8a8"></path><path d="M21.4 0.96 C26.73 0.04, 34.82 1.33, 39.61 3.82 C44.4 6.32, 48.64 11.13, 50.16 15.91 C51.69 20.7, 50.86 27.8, 48.77 32.55 C46.68 37.3, 42.51 41.85, 37.62 44.41 C32.73 46.98, 24.85 48.88, 19.43 47.93 C14.01 46.99, 8.31 42.91, 5.09 38.76 C1.86 34.61, -0.32 28.11, 0.06 23.05 C0.44 17.99, 2.99 12.41, 7.35 8.41 C11.72 4.42, 22.52 0.2, 26.23 -0.93 C29.95 -2.06, 29.81 1.1, 29.64 1.63 M28.28 -0.88 C33.5 -0.09, 40.57 5.13, 44.29 9.37 C48.01 13.6, 50.24 19.78, 50.6 24.55 C50.97 29.32, 49.9 33.96, 46.47 37.99 C43.04 42.01, 35.57 47.69, 30.02 48.68 C24.48 49.68, 17.92 46.82, 13.19 43.97 C8.46 41.12, 3.64 36.35, 1.65 31.59 C-0.34 26.82, -0.77 20.34, 1.28 15.37 C3.32 10.41, 9.2 4.41, 13.92 1.81 C18.63 -0.8, 26.91 -0.18, 29.56 -0.27 C32.21 -0.36, 29.86 0.97, 29.81 1.25" stroke="#1e1e1e" stroke-width="2" fill="none"></path></g></svg>