<svg version="1.1" xmlns="http://www.w3.org/2000/svg" viewBox="0 0 106.88189535019183 127.12357954545314" width="106.88189535019183" height="127.12357954545314">
  <!-- svg-source:excalidraw -->
  
  <defs>
    <style class="style-fonts">
      @font-face {
        font-family: "Virgil";
        src: url("https://excalidraw.com/Virgil.woff2");
      }
      @font-face {
        font-family: "Cascadia";
        src: url("https://excalidraw.com/Cascadia.woff2");
      }
      @font-face {
        font-family: "Assistant";
        src: url("https://excalidraw.com/Assistant-Regular.woff2");
      }
    </style>
    
  </defs>
  <g stroke-linecap="round" transform="translate(10 24.85274621212193) rotate(0 42.630859375 38.322265625)"><path d="M19.16 0 C41.1 0.83, 55.07 0.14, 66.1 0 C77.55 -0.5, 84.19 9.56, 85.26 19.16 C85.65 28, 85.17 31.71, 85.26 57.48 C85.15 68.55, 76.62 77.42, 66.1 76.64 C57.52 74.33, 48.59 80.59, 19.16 76.64 C4.7 76.06, -1.25 68.34, 0 57.48 C0.85 42.8, 0.83 28.21, 0 19.16 C1.03 7.82, 9.15 0.72, 19.16 0" stroke="none" stroke-width="0" fill="#a18072"></path><path d="M19.16 0 C31.63 1.09, 44.99 -0.7, 66.1 0 M19.16 0 C34.9 0.8, 47.93 1.17, 66.1 0 M66.1 0 C80.1 -1.17, 86.01 7.62, 85.26 19.16 M66.1 0 C78.73 -1.08, 84.96 7.8, 85.26 19.16 M85.26 19.16 C86.13 31.18, 85.35 48.02, 85.26 57.48 M85.26 19.16 C85.16 30.71, 84.36 40.83, 85.26 57.48 M85.26 57.48 C85.74 69.51, 79.58 74.67, 66.1 76.64 M85.26 57.48 C84.5 72.19, 79.98 75.78, 66.1 76.64 M66.1 76.64 C52.07 77.58, 39.73 75.12, 19.16 76.64 M66.1 76.64 C47.18 75.79, 29.3 76.98, 19.16 76.64 M19.16 76.64 C6.77 77.73, -1.17 69.79, 0 57.48 M19.16 76.64 C5.78 77.25, -1.2 68.65, 0 57.48 M0 57.48 C0.19 43.23, 1.73 29.88, 0 19.16 M0 57.48 C1.24 43.19, 0.22 29.97, 0 19.16 M0 19.16 C-1.26 5.41, 4.48 -1.63, 19.16 0 M0 19.16 C-0.81 7.83, 6 1.25, 19.16 0" stroke="#1e1e1e" stroke-width="2" fill="none"></path></g><g stroke-linecap="round" transform="translate(33.86899266098453 102.14701704545314) rotate(0 19.283203125 7.48828125)"><path d="M3.74 0 C12.08 0.02, 21.61 -0.46, 34.82 0 C36.54 2.29, 36.05 0.99, 38.57 3.74 C38.57 4.87, 38.55 7.17, 38.57 11.23 C36.93 14.29, 35.2 14.29, 34.82 14.98 C24.99 16.95, 9.58 14.21, 3.74 14.98 C0.35 13.59, 2.43 13.2, 0 11.23 C0.17 9.29, 0.26 7.26, 0 3.74 C1.99 1.77, 2.62 -2.51, 3.74 0" stroke="none" stroke-width="0" fill="#868e96"></path><path d="M3.74 0 C14.81 -0.3, 26.82 0.05, 34.82 0 M3.74 0 C9.64 0.3, 16.64 -0.35, 34.82 0 M34.82 0 C37.69 0.62, 38.5 0.78, 38.57 3.74 M34.82 0 C37.17 0.71, 39.3 0.97, 38.57 3.74 M38.57 3.74 C38.62 5.76, 38.55 7.42, 38.57 11.23 M38.57 3.74 C38.39 5.44, 38.61 7.26, 38.57 11.23 M38.57 11.23 C38.92 12.74, 36.99 15.81, 34.82 14.98 M38.57 11.23 C39.12 13.3, 37.22 14.27, 34.82 14.98 M34.82 14.98 C23.62 14.08, 12.47 14.74, 3.74 14.98 M34.82 14.98 C28.23 15.24, 21 15.17, 3.74 14.98 M3.74 14.98 C0.66 14.74, -0.26 13.99, 0 11.23 M3.74 14.98 C0.65 14.17, 0.85 13.39, 0 11.23 M0 11.23 C0.3 9.02, 0.24 6.06, 0 3.74 M0 11.23 C-0.06 8.72, -0.15 6, 0 3.74 M0 3.74 C-0.95 0.43, 0.89 0.63, 3.74 0 M0 3.74 C-0.2 1.88, 2.38 -0.85, 3.74 0" stroke="#1e1e1e" stroke-width="2" fill="none"></path></g><g stroke-linecap="round" transform="translate(34.05486505681802 10) rotate(0 19.283203125 7.48828125)"><path d="M3.74 0 C12.85 -0.38, 23.09 2.27, 34.82 0 C34.8 -0.26, 37.51 1.58, 38.57 3.74 C38.54 5.75, 37.95 8.89, 38.57 11.23 C36.45 13.04, 39.57 16.19, 34.82 14.98 C26.91 14.91, 20.54 13.95, 3.74 14.98 C3.68 14.45, -0.23 14.24, 0 11.23 C0.26 9.29, 0.73 6.77, 0 3.74 C1.37 -1.26, 0.9 0.56, 3.74 0" stroke="none" stroke-width="0" fill="#868e96"></path><path d="M3.74 0 C15.41 0.19, 25.8 0.97, 34.82 0 M3.74 0 C14.44 -0.4, 24.71 0.2, 34.82 0 M34.82 0 C37.26 -0.47, 38.44 1.86, 38.57 3.74 M34.82 0 C38.06 -0.27, 37.93 1.8, 38.57 3.74 M38.57 3.74 C38.53 5.27, 38.34 6.75, 38.57 11.23 M38.57 3.74 C38.58 6.26, 38.6 8.72, 38.57 11.23 M38.57 11.23 C38.24 14.57, 37.8 14.6, 34.82 14.98 M38.57 11.23 C38.46 13.02, 38.19 14.76, 34.82 14.98 M34.82 14.98 C25.6 14.55, 13.63 14.68, 3.74 14.98 M34.82 14.98 C27.15 15.35, 19 14.97, 3.74 14.98 M3.74 14.98 C0.99 15.24, -0.52 13.03, 0 11.23 M3.74 14.98 C2.1 14.64, 0.26 13.78, 0 11.23 M0 11.23 C0.21 8.61, 0.13 7.01, 0 3.74 M0 11.23 C-0.11 9.17, -0.17 7.13, 0 3.74 M0 3.74 C-0.35 1.88, 1.08 0.55, 3.74 0 M0 3.74 C1.13 0.4, 1.28 1.03, 3.74 0" stroke="#343a40" stroke-width="2" fill="none"></path></g><g stroke-linecap="round" transform="translate(65.74630283943043 23.860949680865815) rotate(312.47556431009303 13.974609375 10.47265625)"><path d="M5.24 0 C9.62 2.82, 12.83 -0.27, 22.71 0 C24.74 0.46, 29.01 1.72, 27.95 5.24 C26.76 7.91, 26.41 9.27, 27.95 15.71 C31.06 20.88, 23.15 23.96, 22.71 20.95 C14.82 19.21, 12.05 20.26, 5.24 20.95 C1.43 21.65, 0.4 19.89, 0 15.71 C1.39 12.68, 0.94 7.09, 0 5.24 C-0.49 2.52, -0.74 -2.98, 5.24 0" stroke="none" stroke-width="0" fill="#ffd8a8"></path><path d="M5.24 0 C8.45 1.62, 15.67 -1.44, 22.71 0 M5.24 0 C12.04 0.64, 18.14 -0.31, 22.71 0 M22.71 0 C25.94 1.23, 29.23 1.27, 27.95 5.24 M22.71 0 C24.94 1.11, 25.72 1.95, 27.95 5.24 M27.95 5.24 C27.3 8.76, 28.41 11.56, 27.95 15.71 M27.95 5.24 C28.16 7.31, 27.8 10.85, 27.95 15.71 M27.95 15.71 C28.91 18.45, 26.02 19.71, 22.71 20.95 M27.95 15.71 C29.69 18.77, 26.87 22.05, 22.71 20.95 M22.71 20.95 C17.79 20.63, 14.64 22.17, 5.24 20.95 M22.71 20.95 C15.75 20.84, 9.58 21.27, 5.24 20.95 M5.24 20.95 C0.7 19.55, 1.48 18.61, 0 15.71 M5.24 20.95 C2.26 21.04, 0.09 21.06, 0 15.71 M0 15.71 C0.39 12.94, -0.45 8.17, 0 5.24 M0 15.71 C-0.43 11.79, -0.12 9.05, 0 5.24 M0 5.24 C-0.34 2.84, 3.71 -1.48, 5.24 0 M0 5.24 C0.07 3.81, 2.29 -0.95, 5.24 0" stroke="#1e1e1e" stroke-width="2" fill="none"></path></g><g stroke-linecap="round" transform="translate(27.917475541171825 38.54130475837064) rotate(312.47556431009303 25.4296875 23.859375)"><path d="M29.06 0.68 C34.34 0.75, 40.77 2.7, 44.47 6.46 C48.16 10.22, 51.06 18, 51.24 23.23 C51.42 28.46, 48.79 34.01, 45.55 37.87 C42.3 41.73, 37.08 45.34, 31.77 46.41 C26.45 47.48, 18.73 46.51, 13.65 44.28 C8.58 42.06, 3.32 37.63, 1.32 33.07 C-0.68 28.52, -0.1 21.65, 1.66 16.97 C3.42 12.29, 7.01 7.68, 11.89 4.98 C16.76 2.28, 26.95 1.18, 30.91 0.75 C34.86 0.32, 35.69 2.02, 35.64 2.41 M22.09 -1.05 C27.12 -2.27, 33.22 -0.36, 37.78 2.47 C42.33 5.3, 47.49 11.24, 49.43 15.92 C51.37 20.6, 51.25 25.91, 49.4 30.54 C47.55 35.17, 43.16 40.83, 38.32 43.69 C33.47 46.56, 25.89 48.5, 20.32 47.72 C14.75 46.93, 8.06 42.8, 4.89 38.98 C1.72 35.16, 1.36 29.63, 1.3 24.8 C1.24 19.96, 1.05 14.14, 4.52 9.96 C7.98 5.78, 19.42 1.3, 22.1 -0.3 C24.78 -1.9, 20.89 -0.39, 20.61 0.35" stroke="none" stroke-width="0" fill="#ffd8a8"></path><path d="M14.86 2.29 C19.48 -0.01, 28.2 -0.43, 33.44 0.97 C38.67 2.37, 43.28 6.3, 46.26 10.7 C49.24 15.1, 51.91 22.36, 51.29 27.37 C50.67 32.37, 46.57 37.5, 42.57 40.73 C38.57 43.96, 32.67 46.27, 27.29 46.72 C21.9 47.16, 14.71 46.32, 10.25 43.41 C5.8 40.51, 1.91 34.36, 0.56 29.29 C-0.79 24.21, -1.39 17.93, 2.15 12.95 C5.68 7.97, 17.66 1.43, 21.79 -0.6 C25.92 -2.62, 26.97 0.19, 26.9 0.79 M14.1 2.28 C18.57 -0.65, 25.06 -1.51, 30.46 -0.43 C35.87 0.66, 43.06 4.51, 46.53 8.8 C50 13.09, 51.87 19.89, 51.28 25.29 C50.69 30.7, 46.76 37.73, 43 41.23 C39.23 44.74, 33.87 45.97, 28.68 46.33 C23.48 46.69, 16.22 45.73, 11.83 43.4 C7.45 41.08, 4 36.97, 2.38 32.38 C0.75 27.79, 0.4 20.82, 2.09 15.84 C3.78 10.86, 10.64 4.53, 12.5 2.5 C14.36 0.47, 13.01 3.43, 13.23 3.66" stroke="#1e1e1e" stroke-width="2" fill="none"></path></g></svg>