<svg version="1.1" xmlns="http://www.w3.org/2000/svg" viewBox="0 0 107.56883731447806 127.12357954545314" width="107.56883731447806" height="127.12357954545314">
  <!-- svg-source:excalidraw -->
  
  <defs>
    <style class="style-fonts">
      @font-face {
        font-family: "Virgil";
        src: url("https://excalidraw.com/Virgil.woff2");
      }
      @font-face {
        font-family: "Cascadia";
        src: url("https://excalidraw.com/Cascadia.woff2");
      }
      @font-face {
        font-family: "Assistant";
        src: url("https://excalidraw.com/Assistant-Regular.woff2");
      }
    </style>
    
  </defs>
  <g stroke-linecap="round" transform="translate(10 24.85274621212102) rotate(0 42.630859375 38.322265625)"><path d="M19.16 0 C35.03 -1.32, 55.67 3.44, 66.1 0 C80.06 1.94, 85.58 4.32, 85.26 19.16 C83.98 33.81, 82.91 45.57, 85.26 57.48 C87.07 67.81, 77.9 74.55, 66.1 76.64 C51.18 74.61, 41.47 76.91, 19.16 76.64 C3.27 79.25, -1.63 71.51, 0 57.48 C-0.22 44.82, -0.17 31, 0 19.16 C1.86 7.34, 9.97 0.81, 19.16 0" stroke="none" stroke-width="0" fill="#a18072"></path><path d="M19.16 0 C31.02 -0.92, 40.42 1.6, 66.1 0 M19.16 0 C31.9 0.79, 45.08 0.61, 66.1 0 M66.1 0 C77.02 0.87, 87.04 5.66, 85.26 19.16 M66.1 0 C78.56 0.78, 83.81 5.26, 85.26 19.16 M85.26 19.16 C86.2 26.66, 86.04 36.81, 85.26 57.48 M85.26 19.16 C85.51 27.41, 85.32 36.11, 85.26 57.48 M85.26 57.48 C84.99 69.66, 80.64 74.71, 66.1 76.64 M85.26 57.48 C85.03 69.32, 79.17 77.32, 66.1 76.64 M66.1 76.64 C51.11 75.37, 38.43 75, 19.16 76.64 M66.1 76.64 C52.41 77.7, 41.31 76.39, 19.16 76.64 M19.16 76.64 C6.06 75.95, -1.07 72.13, 0 57.48 M19.16 76.64 C5.92 76.44, 0.45 70.51, 0 57.48 M0 57.48 C0.7 46.79, 0.3 34.07, 0 19.16 M0 57.48 C-0.64 48.86, 0.47 41.54, 0 19.16 M0 19.16 C1.23 6.13, 6.32 1.51, 19.16 0 M0 19.16 C0.06 6.59, 7.83 1.63, 19.16 0" stroke="#1e1e1e" stroke-width="2" fill="none"></path></g><g stroke-linecap="round" transform="translate(33.868992660984986 102.14701704545314) rotate(0 19.283203125 7.48828125)"><path d="M3.74 0 C11.55 2.18, 17.76 1.64, 34.82 0 C37.54 -1.5, 40.81 1.24, 38.57 3.74 C37.9 5.23, 39.02 7.78, 38.57 11.23 C37.86 12.21, 36.49 13.8, 34.82 14.98 C26.29 15.03, 14.72 16.64, 3.74 14.98 C0.07 15.88, 2.28 16.13, 0 11.23 C0.12 10.57, 0.49 8.41, 0 3.74 C2.59 1.83, 1.9 -0.85, 3.74 0" stroke="none" stroke-width="0" fill="#868e96"></path><path d="M3.74 0 C11.55 0.82, 20.47 0.3, 34.82 0 M3.74 0 C13.46 0.19, 22.18 0.09, 34.82 0 M34.82 0 C38.21 -0.36, 38.43 1.59, 38.57 3.74 M34.82 0 C36.59 -0.56, 37.47 0.31, 38.57 3.74 M38.57 3.74 C38.79 6.09, 38.31 7.72, 38.57 11.23 M38.57 3.74 C38.58 6.6, 38.55 9.53, 38.57 11.23 M38.57 11.23 C39.45 12.76, 37.22 14.57, 34.82 14.98 M38.57 11.23 C38.71 14.07, 37.31 14.01, 34.82 14.98 M34.82 14.98 C25.81 14.06, 16.11 15.74, 3.74 14.98 M34.82 14.98 C24.5 14.87, 13.2 14.93, 3.74 14.98 M3.74 14.98 C0.71 15.91, -0.2 13.64, 0 11.23 M3.74 14.98 C1.47 15.11, 0.22 14.01, 0 11.23 M0 11.23 C0.06 8.97, -0.38 6.26, 0 3.74 M0 11.23 C0.1 8.76, 0.14 6.39, 0 3.74 M0 3.74 C-0.03 2.01, 1.28 0.09, 3.74 0 M0 3.74 C0.72 2.06, 2.06 0.8, 3.74 0" stroke="#1e1e1e" stroke-width="2" fill="none"></path></g><g stroke-linecap="round" transform="translate(34.05486505681802 10) rotate(0 19.283203125 7.48828125)"><path d="M3.74 0 C12.14 1.1, 19.06 -1.8, 34.82 0 C39.56 0, 38.92 0.33, 38.57 3.74 C38.99 5.3, 38.24 7.61, 38.57 11.23 C37.74 12.56, 36.98 13.3, 34.82 14.98 C24.91 16.9, 18.32 15.92, 3.74 14.98 C3.53 17.38, -2.46 14.03, 0 11.23 C0.49 8.79, 0.96 6.04, 0 3.74 C0.66 0.4, 3.24 -2.44, 3.74 0" stroke="none" stroke-width="0" fill="#868e96"></path><path d="M3.74 0 C11.15 0.11, 19.2 -0.08, 34.82 0 M3.74 0 C15.12 0.12, 27.87 -0.28, 34.82 0 M34.82 0 C37.18 0.34, 37.94 0.76, 38.57 3.74 M34.82 0 C36.22 -0.94, 38.16 1.97, 38.57 3.74 M38.57 3.74 C38.31 5.87, 38.92 8.07, 38.57 11.23 M38.57 3.74 C38.54 5.63, 38.73 7.44, 38.57 11.23 M38.57 11.23 C38.47 13.32, 37.45 15.27, 34.82 14.98 M38.57 11.23 C38.56 12.76, 37.28 14.43, 34.82 14.98 M34.82 14.98 C27.19 15.72, 20.54 14, 3.74 14.98 M34.82 14.98 C22.81 14.73, 10.7 15.37, 3.74 14.98 M3.74 14.98 C1.05 14.89, 0.2 13.84, 0 11.23 M3.74 14.98 C1.47 15.26, 0.33 14.18, 0 11.23 M0 11.23 C-0.37 8.36, 0.07 5.33, 0 3.74 M0 11.23 C0.1 9.58, -0.02 8.12, 0 3.74 M0 3.74 C0.03 1.34, 1.88 0.71, 3.74 0 M0 3.74 C0.82 2.05, 0.23 -0.49, 3.74 0" stroke="#343a40" stroke-width="2" fill="none"></path></g><g stroke-linecap="round" transform="translate(66.43324480371666 79.23082182887356) rotate(47.524435689906944 13.974609375 10.47265625)"><path d="M5.24 0 C12.06 -1.98, 21.05 -0.18, 22.71 0 C26.7 -1.28, 27.8 -0.6, 27.95 5.24 C27.53 6.35, 27.44 8.81, 27.95 15.71 C27.49 16.87, 24.28 21.49, 22.71 20.95 C15.86 22.27, 14.62 24.08, 5.24 20.95 C-1.66 21.37, 2.2 19.67, 0 15.71 C1.78 12.05, 0.38 6.92, 0 5.24 C2.76 -1.63, 0.37 2.1, 5.24 0" stroke="none" stroke-width="0" fill="#ffd8a8"></path><path d="M5.24 0 C11.84 0.03, 19.73 0.89, 22.71 0 M5.24 0 C12.36 -0.39, 17.82 0.22, 22.71 0 M22.71 0 C24.94 -0.98, 26.04 0.11, 27.95 5.24 M22.71 0 C25.39 1.44, 27.56 3, 27.95 5.24 M27.95 5.24 C28.81 9.66, 27.44 13.63, 27.95 15.71 M27.95 5.24 C28.4 7.48, 27.88 10.53, 27.95 15.71 M27.95 15.71 C28.2 19.79, 26.19 19.27, 22.71 20.95 M27.95 15.71 C27.88 18.11, 24.76 21.44, 22.71 20.95 M22.71 20.95 C19.71 19.62, 16.54 22.65, 5.24 20.95 M22.71 20.95 C17.82 21.7, 13.69 20.81, 5.24 20.95 M5.24 20.95 C2.14 21.17, 0.38 19.69, 0 15.71 M5.24 20.95 C2.4 21.86, 1.76 19.66, 0 15.71 M0 15.71 C0.33 11.29, -0.76 8.77, 0 5.24 M0 15.71 C-0.08 13.33, -0.05 10.21, 0 5.24 M0 5.24 C1.26 3.16, 3.16 1.39, 5.24 0 M0 5.24 C-2.03 0.76, 0.43 1.08, 5.24 0" stroke="#1e1e1e" stroke-width="2" fill="none"></path></g><g stroke-linecap="round" transform="translate(28.604417505457604 38.00359175136782) rotate(47.524435689906944 25.4296875 23.859375)"><path d="M29.24 0.77 C34.18 1, 39.77 4.2, 43.41 7.81 C47.05 11.41, 50.86 17.2, 51.06 22.4 C51.26 27.6, 48.06 34.78, 44.6 39.02 C41.14 43.26, 35.51 46.85, 30.3 47.83 C25.08 48.8, 17.92 47.37, 13.3 44.86 C8.68 42.35, 4.57 37.4, 2.58 32.76 C0.59 28.13, -0.33 21.8, 1.36 17.05 C3.05 12.31, 7.26 7.09, 12.72 4.3 C18.18 1.51, 30.1 0.59, 34.13 0.33 C38.17 0.07, 37.08 2.1, 36.91 2.75 M28.73 1.61 C33.75 2.12, 41.14 4.89, 44.74 8.55 C48.34 12.2, 50.43 18.7, 50.33 23.56 C50.22 28.42, 47.34 33.89, 44.09 37.68 C40.85 41.47, 36.11 45.28, 30.85 46.29 C25.59 47.31, 17.48 46.22, 12.53 43.77 C7.58 41.31, 3.02 36.37, 1.15 31.57 C-0.73 26.77, -0.5 19.62, 1.25 14.95 C3.01 10.28, 6.94 6.2, 11.69 3.55 C16.44 0.89, 26.6 -0.4, 29.75 -0.98 C32.9 -1.55, 30.6 -0.72, 30.59 0.11" stroke="none" stroke-width="0" fill="#ffd8a8"></path><path d="M32.53 1.72 C37.44 2.83, 42.85 6.16, 45.94 10.1 C49.04 14.05, 51.61 20.43, 51.09 25.38 C50.58 30.34, 46.92 36.18, 42.86 39.83 C38.81 43.48, 31.99 46.72, 26.75 47.28 C21.5 47.84, 15.63 45.91, 11.4 43.19 C7.18 40.47, 3.01 35.85, 1.39 30.94 C-0.23 26.03, -0.7 18.48, 1.68 13.73 C4.05 8.98, 9.76 4.25, 15.66 2.44 C21.55 0.63, 32.75 2.27, 37.06 2.89 C41.37 3.51, 41.7 5.68, 41.52 6.17 M13.77 3.19 C18.22 0.55, 25.52 -1.61, 30.81 -0.72 C36.09 0.18, 42.3 4.23, 45.48 8.54 C48.67 12.84, 50.31 19.95, 49.9 25.11 C49.49 30.27, 46.33 35.65, 43.04 39.5 C39.75 43.35, 35.57 47.23, 30.17 48.2 C24.76 49.16, 15.2 48.26, 10.6 45.3 C6 42.34, 4.04 35.6, 2.55 30.44 C1.06 25.27, -0.06 18.69, 1.64 14.31 C3.35 9.93, 10.8 6.03, 12.78 4.15 C14.76 2.27, 13.13 2.89, 13.51 3.04" stroke="#1e1e1e" stroke-width="2" fill="none"></path></g></svg>