<svg version="1.1" xmlns="http://www.w3.org/2000/svg" viewBox="0 0 105.26171875 129.23744184244322" width="105.26171875" height="129.23744184244322">
  <!-- svg-source:excalidraw -->
  
  <defs>
    <style class="style-fonts">
      @font-face {
        font-family: "Virgil";
        src: url("https://excalidraw.com/Virgil.woff2");
      }
      @font-face {
        font-family: "Cascadia";
        src: url("https://excalidraw.com/Cascadia.woff2");
      }
      @font-face {
        font-family: "Assistant";
        src: url("https://excalidraw.com/Assistant-Regular.woff2");
      }
    </style>
    
  </defs>
  <g stroke-linecap="round" transform="translate(10 26.966608509110188) rotate(0 42.630859375 38.322265625)"><path d="M19.16 0 C35.91 0.54, 56.66 0.06, 66.1 0 C75.86 -0.11, 83.56 4.13, 85.26 19.16 C87.81 33.16, 81.65 46.82, 85.26 57.48 C88.47 68.57, 78.29 75.4, 66.1 76.64 C54.21 77.18, 43.35 77.16, 19.16 76.64 C7.28 77.67, 1.43 73.02, 0 57.48 C-0.85 46, -2.85 29.99, 0 19.16 C1.52 5.12, 8.61 -0.46, 19.16 0" stroke="none" stroke-width="0" fill="#a18072"></path><path d="M19.16 0 C39.09 1.6, 55.02 1.12, 66.1 0 M19.16 0 C36 0.84, 53.74 -0.02, 66.1 0 M66.1 0 C77.78 0.96, 83.33 6.56, 85.26 19.16 M66.1 0 C79.96 -0.24, 85.3 5, 85.26 19.16 M85.26 19.16 C84.37 30.71, 84.69 41.99, 85.26 57.48 M85.26 19.16 C85.61 26.5, 85.05 33.97, 85.26 57.48 M85.26 57.48 C86.78 69.89, 79.45 77.6, 66.1 76.64 M85.26 57.48 C83.09 72.55, 78.24 74.89, 66.1 76.64 M66.1 76.64 C54.11 77.37, 40.45 75.81, 19.16 76.64 M66.1 76.64 C52.59 76.07, 40.87 76.47, 19.16 76.64 M19.16 76.64 C6.83 76.73, 0.08 71.88, 0 57.48 M19.16 76.64 C7.61 78.1, -2.14 71.26, 0 57.48 M0 57.48 C0.82 41.33, -0.84 25.79, 0 19.16 M0 57.48 C-0.03 49.66, 1.12 40, 0 19.16 M0 19.16 C0.06 8.19, 6.86 -0.82, 19.16 0 M0 19.16 C0.11 5.54, 6.07 -0.69, 19.16 0" stroke="#1e1e1e" stroke-width="2" fill="none"></path></g><g stroke-linecap="round" transform="translate(33.86899266098453 104.26087934244322) rotate(0 19.283203125 7.48828125)"><path d="M3.74 0 C13.52 -0.07, 19.59 -0.13, 34.82 0 C36.09 -1.63, 39.13 -0.87, 38.57 3.74 C37.83 6.61, 39.52 7.38, 38.57 11.23 C38.14 12.83, 35.93 17.41, 34.82 14.98 C26.42 15.55, 18.07 15.8, 3.74 14.98 C2.28 16.97, 0.52 15.1, 0 11.23 C-0.66 8.9, 0.42 7.84, 0 3.74 C1.6 0.91, 1.17 1.97, 3.74 0" stroke="none" stroke-width="0" fill="#868e96"></path><path d="M3.74 0 C9.97 0.28, 17.99 -0.16, 34.82 0 M3.74 0 C11.93 -0.21, 19.19 0.15, 34.82 0 M34.82 0 C36.35 0.09, 39.04 1.14, 38.57 3.74 M34.82 0 C37.34 -0.7, 38.44 1.76, 38.57 3.74 M38.57 3.74 C38.41 5.44, 38.18 6.75, 38.57 11.23 M38.57 3.74 C38.57 6.5, 38.73 9.46, 38.57 11.23 M38.57 11.23 C38.85 14.21, 36.38 15.97, 34.82 14.98 M38.57 11.23 C38.25 12.85, 37.14 14.4, 34.82 14.98 M34.82 14.98 C23.78 14.42, 11.42 14.74, 3.74 14.98 M34.82 14.98 C25.05 14.72, 14.65 14.89, 3.74 14.98 M3.74 14.98 C1.29 15.79, 0.53 14.36, 0 11.23 M3.74 14.98 C0.18 15.48, 1.02 13.31, 0 11.23 M0 11.23 C-0.2 8.73, -0.32 6.81, 0 3.74 M0 11.23 C0.19 8.38, 0.01 5.97, 0 3.74 M0 3.74 C0.24 0.84, 1.29 -0.37, 3.74 0 M0 3.74 C-0.16 0.9, 2.26 -1.11, 3.74 0" stroke="#1e1e1e" stroke-width="2" fill="none"></path></g><g stroke-linecap="round" transform="translate(34.05486505681802 12.113862296988259) rotate(0 19.283203125 7.48828125)"><path d="M3.74 0 C11.28 -0.08, 21.95 -1.63, 34.82 0 C37.88 -2.12, 37.88 3.5, 38.57 3.74 C39.35 5.88, 38.32 8.6, 38.57 11.23 C37.18 16.16, 36.79 14.75, 34.82 14.98 C25.53 15.79, 15.98 17.05, 3.74 14.98 C1.77 16.34, -2.51 13.38, 0 11.23 C0.48 8.48, 0.67 6.29, 0 3.74 C-0.08 3.22, 1.32 0.23, 3.74 0" stroke="none" stroke-width="0" fill="#868e96"></path><path d="M3.74 0 C15.58 -0.12, 25.72 -0.19, 34.82 0 M3.74 0 C14.7 0.28, 25.73 0.08, 34.82 0 M34.82 0 C37.79 -0.1, 38.58 0.64, 38.57 3.74 M34.82 0 C37.19 0.51, 37.52 0.64, 38.57 3.74 M38.57 3.74 C38.18 6.05, 38.87 8.78, 38.57 11.23 M38.57 3.74 C38.7 5.67, 38.62 7.76, 38.57 11.23 M38.57 11.23 C37.62 14.73, 37.04 14.22, 34.82 14.98 M38.57 11.23 C38.39 13.15, 38.16 15.77, 34.82 14.98 M34.82 14.98 C24.67 14.62, 15.26 14.36, 3.74 14.98 M34.82 14.98 C27.78 14.95, 20.54 15.34, 3.74 14.98 M3.74 14.98 C1.78 15.61, -0.93 14.16, 0 11.23 M3.74 14.98 C2.27 14.56, -0.15 14.12, 0 11.23 M0 11.23 C-0.29 9.33, 0.25 7.62, 0 3.74 M0 11.23 C-0.03 8.75, 0.01 5.85, 0 3.74 M0 3.74 C0.05 0.88, 1.11 -0.3, 3.74 0 M0 3.74 C1.01 0.13, 1.13 -0.47, 3.74 0" stroke="#343a40" stroke-width="2" fill="none"></path></g><g stroke-linecap="round" transform="translate(39.397448168828305 13.626040698085376) rotate(269.315648468081 13.974609375 10.47265625)"><path d="M5.24 0 C8.98 -1.96, 16.38 -2.55, 22.71 0 C25.25 3.11, 29.62 -1.3, 27.95 5.24 C27.81 8.6, 27.11 15.04, 27.95 15.71 C27.22 18.88, 26.91 21.35, 22.71 20.95 C18.38 23.45, 12.18 22.69, 5.24 20.95 C-1.73 20.46, 0.77 16.71, 0 15.71 C1.08 13.19, -0.14 12.58, 0 5.24 C0.1 2.07, 4.01 2.55, 5.24 0" stroke="none" stroke-width="0" fill="#ffd8a8"></path><path d="M5.24 0 C10.31 -0.22, 18.1 1.13, 22.71 0 M5.24 0 C9.22 -0.01, 15.3 -0.17, 22.71 0 M22.71 0 C26.24 -1.21, 27.72 2.64, 27.95 5.24 M22.71 0 C24.12 -1.22, 28.5 0.89, 27.95 5.24 M27.95 5.24 C28.72 9.25, 27.45 12.16, 27.95 15.71 M27.95 5.24 C28.18 7.98, 27.54 10.75, 27.95 15.71 M27.95 15.71 C27.39 17.68, 25.9 19.94, 22.71 20.95 M27.95 15.71 C29.62 20.79, 26.64 22.19, 22.71 20.95 M22.71 20.95 C18.96 19.99, 13.06 22.19, 5.24 20.95 M22.71 20.95 C18.02 21.66, 13.72 21.51, 5.24 20.95 M5.24 20.95 C-0.11 21.82, 1.77 18.47, 0 15.71 M5.24 20.95 C1.44 21.72, -1.45 18.08, 0 15.71 M0 15.71 C0.74 13.39, 0.66 12.45, 0 5.24 M0 15.71 C0.12 13.13, 0.02 10.78, 0 5.24 M0 5.24 C-0.28 1.15, 3.51 -1.94, 5.24 0 M0 5.24 C-0.23 0.81, 2.04 0.68, 5.24 0" stroke="#1e1e1e" stroke-width="2" fill="none"></path></g><g stroke-linecap="round" transform="translate(27.939453125 38.740472132400896) rotate(269.315648468081 25.4296875 23.859375)"><path d="M23.23 -0.9 C28.18 -1.48, 35.03 1.09, 39.61 4.24 C44.2 7.38, 49.21 12.79, 50.75 17.97 C52.28 23.16, 51.43 30.73, 48.8 35.35 C46.17 39.98, 39.9 43.76, 34.97 45.71 C30.05 47.65, 24.44 48.43, 19.26 47.02 C14.08 45.6, 7.15 41.51, 3.9 37.2 C0.65 32.89, -0.82 26.11, -0.22 21.17 C0.38 16.23, 3.13 11.07, 7.51 7.54 C11.9 4, 22.36 1.03, 26.08 -0.05 C29.8 -1.13, 29.66 0.63, 29.85 1.05 M14.14 2.39 C18.54 0.18, 25.61 -0.94, 31.22 0.53 C36.83 2, 44.77 6.7, 47.81 11.21 C50.85 15.73, 50.01 22.76, 49.45 27.61 C48.89 32.46, 48.18 37.06, 44.43 40.32 C40.69 43.57, 32.75 46.43, 26.96 47.14 C21.17 47.85, 14.1 47.51, 9.68 44.57 C5.27 41.63, 1.59 34.67, 0.45 29.5 C-0.68 24.33, 0.38 18.08, 2.87 13.57 C5.35 9.06, 13.23 4.18, 15.37 2.43 C17.51 0.69, 15.4 2.74, 15.72 3.09" stroke="none" stroke-width="0" fill="#ffd8a8"></path><path d="M33.93 0.25 C39 1.66, 44.41 7.31, 47.17 11.82 C49.93 16.34, 51.39 22.39, 50.48 27.35 C49.57 32.31, 45.7 38.34, 41.72 41.58 C37.73 44.82, 32.03 46.6, 26.6 46.8 C21.16 47.01, 13.52 45.77, 9.11 42.8 C4.7 39.84, 1.32 34.12, 0.15 29.02 C-1.02 23.91, -0.72 16.67, 2.07 12.19 C4.86 7.71, 10.98 3.69, 16.9 2.16 C22.81 0.63, 33.53 2.21, 37.55 2.99 C41.57 3.77, 41.17 6.42, 41 6.83 M31.04 -0.46 C36.34 0.02, 42.22 4.5, 45.7 8.98 C49.17 13.46, 52.16 21.07, 51.9 26.44 C51.63 31.8, 48.19 37.69, 44.1 41.16 C40.01 44.62, 32.87 46.73, 27.34 47.22 C21.81 47.72, 15.44 47.06, 10.93 44.11 C6.41 41.15, 1.52 34.56, 0.24 29.51 C-1.04 24.46, 0.88 18.32, 3.25 13.83 C5.63 9.33, 9.79 4.52, 14.5 2.53 C19.2 0.54, 28.57 1.97, 31.51 1.89 C34.45 1.82, 32.47 1.8, 32.13 2.09" stroke="#1e1e1e" stroke-width="2" fill="none"></path></g></svg>