<svg version="1.1" xmlns="http://www.w3.org/2000/svg" viewBox="0 0 108.08725249304916 127.12357954545314" width="108.08725249304916" height="127.12357954545314">
  <!-- svg-source:excalidraw -->
  
  <defs>
    <style class="style-fonts">
      @font-face {
        font-family: "Virgil";
        src: url("https://excalidraw.com/Virgil.woff2");
      }
      @font-face {
        font-family: "Cascadia";
        src: url("https://excalidraw.com/Cascadia.woff2");
      }
      @font-face {
        font-family: "Assistant";
        src: url("https://excalidraw.com/Assistant-Regular.woff2");
      }
    </style>
    
  </defs>
  <g stroke-linecap="round" transform="translate(12.825533743049164 24.85274621212102) rotate(0 42.630859375 38.322265625)"><path d="M19.16 0 C29.35 3.8, 43.11 -2.36, 66.1 0 C81.89 3.21, 83.57 5.8, 85.26 19.16 C84.17 29.01, 85.6 39.9, 85.26 57.48 C85.95 71.15, 79.9 78.07, 66.1 76.64 C44.94 76.6, 31.52 74.6, 19.16 76.64 C3.41 78.16, -1.27 72.48, 0 57.48 C0.12 46.8, 2.28 38.03, 0 19.16 C2.55 8.9, 3.21 -1.54, 19.16 0" stroke="none" stroke-width="0" fill="#a18072"></path><path d="M19.16 0 C32.16 -1.4, 47.07 -2.24, 66.1 0 M19.16 0 C33.68 -0.56, 48.05 0.5, 66.1 0 M66.1 0 C77.06 -1.06, 85.74 5.64, 85.26 19.16 M66.1 0 C79.68 -2.27, 84.5 8.32, 85.26 19.16 M85.26 19.16 C83.89 34.01, 84.75 46.4, 85.26 57.48 M85.26 19.16 C84.62 31.73, 84.75 45.32, 85.26 57.48 M85.26 57.48 C86.72 71.64, 79.25 77.73, 66.1 76.64 M85.26 57.48 C83.91 69.72, 78.27 77.25, 66.1 76.64 M66.1 76.64 C53.87 77.44, 42.91 77.07, 19.16 76.64 M66.1 76.64 C47.28 77.38, 31.21 76.58, 19.16 76.64 M19.16 76.64 C6.12 77.32, -1.26 69.28, 0 57.48 M19.16 76.64 C4.19 74.77, -0.81 71.7, 0 57.48 M0 57.48 C-1.69 46.7, 1.59 36.27, 0 19.16 M0 57.48 C-0.16 47.27, 0.86 36.68, 0 19.16 M0 19.16 C-0.2 5.57, 6.64 0.59, 19.16 0 M0 19.16 C-0.02 4.46, 6.31 -1.09, 19.16 0" stroke="#1e1e1e" stroke-width="2" fill="none"></path></g><g stroke-linecap="round" transform="translate(36.694526404033695 102.14701704545314) rotate(0 19.283203125 7.48828125)"><path d="M3.74 0 C11.75 -2.55, 19.51 1.97, 34.82 0 C36.1 -0.43, 37.67 -0.14, 38.57 3.74 C38.74 6.8, 38.73 9.88, 38.57 11.23 C39.31 14.76, 39.31 15.49, 34.82 14.98 C24.42 13.13, 10.76 16.02, 3.74 14.98 C0.33 16.58, -0.34 13.65, 0 11.23 C0.61 9.11, 0.69 6.28, 0 3.74 C-2.29 0.14, -0.24 1.22, 3.74 0" stroke="none" stroke-width="0" fill="#868e96"></path><path d="M3.74 0 C15.54 -0.88, 26.47 0.56, 34.82 0 M3.74 0 C12.69 0.32, 21.29 -0.17, 34.82 0 M34.82 0 C37.56 -0.37, 38.92 0.26, 38.57 3.74 M34.82 0 C36.94 0.96, 39.12 0.82, 38.57 3.74 M38.57 3.74 C38.47 6.03, 38.72 7.75, 38.57 11.23 M38.57 3.74 C38.53 6.64, 38.69 9.86, 38.57 11.23 M38.57 11.23 C38.76 14.27, 36.73 14.74, 34.82 14.98 M38.57 11.23 C38.26 14.03, 36.72 14.17, 34.82 14.98 M34.82 14.98 C23.24 15.05, 12.39 15.54, 3.74 14.98 M34.82 14.98 C23.97 14.86, 12.17 15.21, 3.74 14.98 M3.74 14.98 C0.62 14.49, -0.95 12.91, 0 11.23 M3.74 14.98 C0.84 15.7, -0.2 14.36, 0 11.23 M0 11.23 C0.36 8.34, -0.13 5.28, 0 3.74 M0 11.23 C0.17 9.08, -0.01 7.22, 0 3.74 M0 3.74 C0.13 1.54, 1.24 -0.84, 3.74 0 M0 3.74 C-0.04 0.7, 0.53 0.25, 3.74 0" stroke="#1e1e1e" stroke-width="2" fill="none"></path></g><g stroke-linecap="round" transform="translate(36.88039879986718 10) rotate(0 19.283203125 7.48828125)"><path d="M3.74 0 C17.93 2.66, 26.55 -0.08, 34.82 0 C36.42 -1.39, 41 0.72, 38.57 3.74 C38.77 6.16, 38.86 8.49, 38.57 11.23 C40.56 14.25, 38.69 12.46, 34.82 14.98 C23.77 15.8, 16.1 16.3, 3.74 14.98 C0.91 14.9, 1.97 13.8, 0 11.23 C0.63 9.6, -0.92 6.19, 0 3.74 C-1.49 2.47, 3.19 0.86, 3.74 0" stroke="none" stroke-width="0" fill="#868e96"></path><path d="M3.74 0 C11.45 0.62, 18.87 0.17, 34.82 0 M3.74 0 C10.73 -0.33, 18.75 -0.26, 34.82 0 M34.82 0 C37.67 -0.99, 38.24 2.09, 38.57 3.74 M34.82 0 C37.87 -0.43, 38.46 0.54, 38.57 3.74 M38.57 3.74 C38.74 6.2, 38.93 9.27, 38.57 11.23 M38.57 3.74 C38.7 5.55, 38.6 7.2, 38.57 11.23 M38.57 11.23 C37.98 13.49, 37.06 15.24, 34.82 14.98 M38.57 11.23 C37.97 12.93, 38.17 14.64, 34.82 14.98 M34.82 14.98 C25.62 15.51, 15.43 14.05, 3.74 14.98 M34.82 14.98 C24.08 15.09, 13.15 14.68, 3.74 14.98 M3.74 14.98 C0.29 14.16, -0.35 14.36, 0 11.23 M3.74 14.98 C1.05 15.6, 1.13 12.88, 0 11.23 M0 11.23 C-0.19 8.98, -0.17 6.65, 0 3.74 M0 11.23 C-0.05 9.13, -0.01 7.24, 0 3.74 M0 3.74 C-0.01 0.41, 1.22 -0.47, 3.74 0 M0 3.74 C-0.72 1.5, 0.31 -0.3, 3.74 0" stroke="#343a40" stroke-width="2" fill="none"></path></g><g stroke-linecap="round" transform="translate(13.186373760761398 24.156708609437374) rotate(47.524435689906944 13.974609375 10.47265625)"><path d="M5.24 0 C7.52 -0.8, 11.67 -1.96, 22.71 0 C29.57 -0.73, 27.63 2.45, 27.95 5.24 C28.52 9.24, 29.43 12.13, 27.95 15.71 C29.84 15.72, 25.72 21.72, 22.71 20.95 C17.57 23.02, 14.24 20.98, 5.24 20.95 C4.47 21.04, 0.32 21.46, 0 15.71 C-1.8 11.02, -1.21 8.83, 0 5.24 C2.69 2.93, 3.69 0.31, 5.24 0" stroke="none" stroke-width="0" fill="#ffd8a8"></path><path d="M5.24 0 C8.61 -0.05, 11.28 -0.28, 22.71 0 M5.24 0 C11.47 -0.23, 17.59 -0.77, 22.71 0 M22.71 0 C25.54 1.68, 28.91 0.99, 27.95 5.24 M22.71 0 C26 -1.42, 29.69 1.32, 27.95 5.24 M27.95 5.24 C29.04 8.39, 27.2 11.96, 27.95 15.71 M27.95 5.24 C28.12 8.14, 27.72 10.35, 27.95 15.71 M27.95 15.71 C27.42 19.73, 25.16 19.55, 22.71 20.95 M27.95 15.71 C29.65 18.52, 26.71 21.04, 22.71 20.95 M22.71 20.95 C18.51 19.41, 12.85 22.59, 5.24 20.95 M22.71 20.95 C17.55 20.58, 12.66 20.29, 5.24 20.95 M5.24 20.95 C1.04 22.2, -0.34 20.29, 0 15.71 M5.24 20.95 C4.01 19.24, 0.07 21.27, 0 15.71 M0 15.71 C-0.34 12.17, -0.27 9.85, 0 5.24 M0 15.71 C0.08 13.74, 0.01 11.02, 0 5.24 M0 5.24 C-0.06 0.8, 0.49 0.43, 5.24 0 M0 5.24 C-1.87 1.14, 3.74 1.07, 5.24 0" stroke="#1e1e1e" stroke-width="2" fill="none"></path></g><g stroke-linecap="round" transform="translate(28.10504480902 38.92300118694311) rotate(47.524435689906944 25.4296875 23.859375)"><path d="M38.33 3.06 C43.1 5.09, 46.81 10.35, 48.62 15.03 C50.44 19.71, 50.9 26.16, 49.22 31.16 C47.54 36.16, 43.27 42.31, 38.55 45.01 C33.82 47.71, 26.26 48.23, 20.85 47.38 C15.44 46.53, 9.5 43.69, 6.08 39.9 C2.65 36.11, 0.55 29.75, 0.31 24.62 C0.06 19.48, 1.36 13.21, 4.6 9.09 C7.84 4.96, 13.59 0.66, 19.74 -0.12 C25.89 -0.9, 37.48 2.82, 41.53 4.41 C45.57 6, 44.23 9.12, 44.01 9.42 M35.52 1.54 C40.03 3.59, 45.1 10.14, 47.48 14.8 C49.86 19.46, 50.94 24.74, 49.8 29.5 C48.67 34.25, 44.98 40.24, 40.67 43.33 C36.36 46.42, 29.36 48.32, 23.95 48.03 C18.53 47.75, 11.97 45.18, 8.19 41.62 C4.42 38.06, 1.8 32.08, 1.29 26.65 C0.78 21.23, 2.31 13.31, 5.13 9.07 C7.96 4.84, 13.28 2.62, 18.21 1.25 C23.15 -0.13, 31.74 0.7, 34.73 0.82 C37.73 0.94, 36.04 1.43, 36.2 1.97" stroke="none" stroke-width="0" fill="#ffd8a8"></path><path d="M23.47 0.28 C28.48 -0.09, 35.99 2.13, 40.28 5.1 C44.57 8.06, 47.75 13.07, 49.2 18.07 C50.65 23.07, 51.32 30.48, 48.97 35.09 C46.62 39.69, 40.33 43.63, 35.08 45.7 C29.83 47.76, 22.66 48.87, 17.48 47.46 C12.29 46.05, 6.77 41.78, 3.97 37.22 C1.17 32.66, -0.18 25.27, 0.66 20.1 C1.5 14.93, 4.92 9.57, 9.01 6.2 C13.1 2.82, 22.13 0.67, 25.19 -0.15 C28.24 -0.96, 27.11 0.86, 27.34 1.31 M31.84 1.27 C36.93 2.16, 42.28 5.23, 45.61 9.3 C48.95 13.38, 52.19 20.44, 51.85 25.71 C51.51 30.98, 47.64 37.09, 43.58 40.94 C39.52 44.8, 32.83 48.31, 27.47 48.86 C22.12 49.41, 16.13 47.29, 11.45 44.23 C6.77 41.17, 0.69 35.68, -0.59 30.48 C-1.86 25.28, 1.27 17.67, 3.81 13.03 C6.36 8.4, 10.11 4.8, 14.69 2.65 C19.27 0.5, 28.62 0.56, 31.29 0.14 C33.95 -0.29, 30.71 -0.56, 30.67 0.11" stroke="#1e1e1e" stroke-width="2" fill="none"></path></g></svg>