<svg version="1.1" xmlns="http://www.w3.org/2000/svg" viewBox="0 0 105.26171875 127.84067844958453" width="105.26171875" height="127.84067844958453">
  <!-- svg-source:excalidraw -->
  
  <defs>
    <style class="style-fonts">
      @font-face {
        font-family: "Virgil";
        src: url("https://excalidraw.com/Virgil.woff2");
      }
      @font-face {
        font-family: "Cascadia";
        src: url("https://excalidraw.com/Cascadia.woff2");
      }
      @font-face {
        font-family: "Assistant";
        src: url("https://excalidraw.com/Assistant-Regular.woff2");
      }
    </style>
    
  </defs>
  <g stroke-linecap="round" transform="translate(10 24.85274621212102) rotate(0 42.630859375 38.322265625)"><path d="M19.16 0 C34.76 -0.63, 54.01 -0.42, 66.1 0 C79.2 2.26, 87.81 8.94, 85.26 19.16 C82.59 35.02, 87.35 48.68, 85.26 57.48 C87.21 70.57, 76.8 79.74, 66.1 76.64 C51.88 74, 34.76 78.15, 19.16 76.64 C3.94 75.67, -2.1 69.11, 0 57.48 C-1.84 48.26, 0.47 34.83, 0 19.16 C2.6 4.75, 7.64 3.16, 19.16 0" stroke="none" stroke-width="0" fill="#a18072"></path><path d="M19.16 0 C27.3 -0.17, 37.47 1.59, 66.1 0 M19.16 0 C35.9 -0.49, 53.55 0.01, 66.1 0 M66.1 0 C77.83 -1.4, 86.74 5.8, 85.26 19.16 M66.1 0 C79.39 0.09, 85.35 8.25, 85.26 19.16 M85.26 19.16 C86.38 34.46, 84.78 45.95, 85.26 57.48 M85.26 19.16 C84.07 31.14, 84.67 45.37, 85.26 57.48 M85.26 57.48 C84.92 71.35, 80.84 75.16, 66.1 76.64 M85.26 57.48 C85.33 72.33, 79.42 75.7, 66.1 76.64 M66.1 76.64 C51.21 78.34, 35.57 76.38, 19.16 76.64 M66.1 76.64 C53.92 75.95, 41.73 76.31, 19.16 76.64 M19.16 76.64 C5.13 77.08, -1.63 69.73, 0 57.48 M19.16 76.64 C8.38 77.71, -1.95 72.18, 0 57.48 M0 57.48 C-0.51 41.5, 2.05 27.25, 0 19.16 M0 57.48 C0.12 46.57, 0.21 35.56, 0 19.16 M0 19.16 C1.53 6.78, 7.44 -1.93, 19.16 0 M0 19.16 C-0.31 6.88, 4.8 -1.9, 19.16 0" stroke="#1e1e1e" stroke-width="2" fill="none"></path></g><g stroke-linecap="round" transform="translate(33.86899266098408 102.14701704545496) rotate(0 19.283203125 7.48828125)"><path d="M3.74 0 C16.95 0.08, 26.46 1.65, 34.82 0 C39.16 1.84, 40.38 -1.05, 38.57 3.74 C39.24 5.99, 39.04 7.68, 38.57 11.23 C37.07 15.97, 37.31 15.33, 34.82 14.98 C24.3 16.02, 16.62 14.01, 3.74 14.98 C-0.27 14.15, -1.17 13.39, 0 11.23 C0.15 8.63, 0.76 7.27, 0 3.74 C0.91 3.53, 3.65 -2.46, 3.74 0" stroke="none" stroke-width="0" fill="#868e96"></path><path d="M3.74 0 C11.7 0.75, 21.35 0.21, 34.82 0 M3.74 0 C14.62 0.17, 25.5 -0.31, 34.82 0 M34.82 0 C38.06 -0.3, 38.79 1.29, 38.57 3.74 M34.82 0 C37.36 0.93, 39.18 1.98, 38.57 3.74 M38.57 3.74 C38.45 5.24, 38.71 6.61, 38.57 11.23 M38.57 3.74 C38.46 5.74, 38.5 7.61, 38.57 11.23 M38.57 11.23 C39.55 12.99, 37.35 15.88, 34.82 14.98 M38.57 11.23 C38.84 13.26, 37.37 14.55, 34.82 14.98 M34.82 14.98 C24.96 15.01, 16.63 15.24, 3.74 14.98 M34.82 14.98 C24.57 14.61, 14.03 14.95, 3.74 14.98 M3.74 14.98 C0.43 14.71, 0.87 14.19, 0 11.23 M3.74 14.98 C0.27 15.94, 1.03 13.19, 0 11.23 M0 11.23 C0.36 9.03, -0.02 7.06, 0 3.74 M0 11.23 C0.05 8.98, 0.14 6.61, 0 3.74 M0 3.74 C0.53 0.28, 1.11 0.21, 3.74 0 M0 3.74 C-0.79 0.3, 1.73 -0.4, 3.74 0" stroke="#1e1e1e" stroke-width="2" fill="none"></path></g><g stroke-linecap="round" transform="translate(34.05486505681802 10) rotate(0 19.283203125 7.48828125)"><path d="M3.74 0 C13.2 1.62, 24.04 1.83, 34.82 0 C39.13 -2.29, 37.46 -0.24, 38.57 3.74 C39.16 6.43, 38.08 9.78, 38.57 11.23 C38.56 14.09, 36.4 14.87, 34.82 14.98 C25.76 14.47, 18.71 14.35, 3.74 14.98 C0.07 14.64, -1.68 12.34, 0 11.23 C0.69 8.43, 0.33 7.37, 0 3.74 C2.4 -1.21, 1.55 1.59, 3.74 0" stroke="none" stroke-width="0" fill="#868e96"></path><path d="M3.74 0 C13.29 0.08, 21.99 -0.7, 34.82 0 M3.74 0 C12.08 -0.39, 21.31 -0.19, 34.82 0 M34.82 0 C37.54 0.04, 38.61 2.06, 38.57 3.74 M34.82 0 C37.93 0.73, 37.5 1.75, 38.57 3.74 M38.57 3.74 C38.68 6.42, 38.37 9.21, 38.57 11.23 M38.57 3.74 C38.52 5.48, 38.74 6.88, 38.57 11.23 M38.57 11.23 C38.59 14.63, 37.56 14.56, 34.82 14.98 M38.57 11.23 C38.62 13.3, 37.16 14.63, 34.82 14.98 M34.82 14.98 C22.35 15.09, 10.99 14.95, 3.74 14.98 M34.82 14.98 C27.79 15.01, 20.98 14.77, 3.74 14.98 M3.74 14.98 C2.11 15.44, -0.85 14.57, 0 11.23 M3.74 14.98 C2.27 14.44, -0.19 13.33, 0 11.23 M0 11.23 C-0.07 9.46, 0.01 7.61, 0 3.74 M0 11.23 C0.13 8.84, 0.09 6.19, 0 3.74 M0 3.74 C-0.14 1.46, 0.56 -0.83, 3.74 0 M0 3.74 C0.49 0.84, 1.96 -0.15, 3.74 0" stroke="#343a40" stroke-width="2" fill="none"></path></g><g stroke-linecap="round" transform="translate(39.59834102597142 93.26932525149914) rotate(90.684351531919 13.974609375 10.47265625)"><path d="M5.24 0 C12.75 2.03, 18.01 -2.97, 22.71 0 C24.67 -2.06, 29.64 4.44, 27.95 5.24 C26.97 10.35, 28.05 12.47, 27.95 15.71 C26.67 19.05, 23.86 17.76, 22.71 20.95 C14.76 19.86, 9.05 20.45, 5.24 20.95 C-0.58 19.02, 0.55 19.58, 0 15.71 C0.52 15.13, 1.61 9.45, 0 5.24 C0.42 3.95, 2.21 3.24, 5.24 0" stroke="none" stroke-width="0" fill="#ffd8a8"></path><path d="M5.24 0 C12.7 -1.06, 17.86 -0.49, 22.71 0 M5.24 0 C11.59 -0.14, 16.84 0.16, 22.71 0 M22.71 0 C26.28 1.62, 29.01 3.01, 27.95 5.24 M22.71 0 C24.07 1, 29.99 0.91, 27.95 5.24 M27.95 5.24 C27.47 7.24, 27.13 10.87, 27.95 15.71 M27.95 5.24 C28.45 8.65, 27.95 13.31, 27.95 15.71 M27.95 15.71 C28.42 18.38, 26.3 20.21, 22.71 20.95 M27.95 15.71 C27.63 18.51, 28.23 18.72, 22.71 20.95 M22.71 20.95 C18.16 20.96, 11.11 20.91, 5.24 20.95 M22.71 20.95 C17.59 20.75, 14.64 21.39, 5.24 20.95 M5.24 20.95 C0.05 22.62, 1.78 18.26, 0 15.71 M5.24 20.95 C1.37 20.15, -1.23 21.35, 0 15.71 M0 15.71 C0.13 12.98, 0.27 10.15, 0 5.24 M0 15.71 C0.2 11.65, -0.15 8.71, 0 5.24 M0 5.24 C-1.38 0.09, 2.59 -0.7, 5.24 0 M0 5.24 C1.42 1.45, 1.67 1.74, 5.24 0" stroke="#1e1e1e" stroke-width="2" fill="none"></path></g><g stroke-linecap="round" transform="translate(27.948939732143117 41.5338000671818) rotate(90.684351531919 25.4296875 23.859375)"><path d="M24.29 -0.12 C29.46 -0.7, 35.73 1.57, 40.04 4.59 C44.35 7.61, 48.7 13.04, 50.14 18 C51.58 22.96, 50.95 29.63, 48.66 34.35 C46.38 39.06, 41.41 44.13, 36.45 46.3 C31.49 48.48, 24.4 48.9, 18.91 47.4 C13.43 45.9, 6.65 41.71, 3.55 37.3 C0.46 32.9, -0.2 25.96, 0.32 20.96 C0.85 15.96, 2.45 10.71, 6.72 7.32 C10.99 3.93, 22.21 1.73, 25.93 0.63 C29.64 -0.47, 28.82 0.4, 28.99 0.7 M27.63 1.07 C32.44 0.7, 37.62 2.24, 41.31 5.65 C45 9.05, 48.67 16.22, 49.79 21.48 C50.9 26.73, 50.64 32.98, 47.98 37.2 C45.33 41.41, 39.39 45.09, 33.86 46.75 C28.33 48.42, 19.97 49.13, 14.81 47.18 C9.64 45.23, 5.31 39.82, 2.86 35.06 C0.4 30.3, -0.95 23.85, 0.08 18.61 C1.1 13.36, 4.45 6.85, 8.99 3.59 C13.53 0.32, 24.46 -0.33, 27.32 -0.99 C30.18 -1.65, 26.36 -0.83, 26.14 -0.37" stroke="none" stroke-width="0" fill="#ffd8a8"></path><path d="M21.41 0.94 C26.4 0.13, 34.07 1.33, 38.79 3.96 C43.51 6.58, 47.9 11.79, 49.72 16.72 C51.55 21.65, 51.72 28.95, 49.74 33.52 C47.75 38.08, 42.71 41.67, 37.81 44.09 C32.92 46.51, 25.85 49.01, 20.37 48.04 C14.88 47.07, 8.23 42.56, 4.89 38.25 C1.56 33.95, 0.15 27.44, 0.36 22.19 C0.58 16.95, 2.31 10.54, 6.19 6.79 C10.06 3.04, 20.08 0.74, 23.61 -0.34 C27.14 -1.41, 27.11 -0.28, 27.36 0.34 M16.58 1 C21.3 -1.36, 28.62 -0.96, 33.69 0.72 C38.75 2.39, 43.94 6.82, 46.97 11.05 C50 15.27, 52.71 21.02, 51.88 26.05 C51.06 31.07, 46.32 37.51, 42.04 41.2 C37.75 44.88, 31.58 48.15, 26.16 48.16 C20.74 48.16, 13.78 44.6, 9.49 41.2 C5.2 37.81, 1.65 32.54, 0.44 27.79 C-0.78 23.04, -0.23 17.12, 2.2 12.69 C4.63 8.27, 12.42 2.88, 15.01 1.22 C17.59 -0.43, 17.56 2.11, 17.71 2.76" stroke="#1e1e1e" stroke-width="2" fill="none"></path></g></svg>