<svg version="1.1" xmlns="http://www.w3.org/2000/svg" viewBox="0 0 117.88881138392844 127.12357954545314" width="117.88881138392844" height="127.12357954545314">
  <!-- svg-source:excalidraw -->
  
  <defs>
    <style class="style-fonts">
      @font-face {
        font-family: "Virgil";
        src: url("https://excalidraw.com/Virgil.woff2");
      }
      @font-face {
        font-family: "Cascadia";
        src: url("https://excalidraw.com/Cascadia.woff2");
      }
      @font-face {
        font-family: "Assistant";
        src: url("https://excalidraw.com/Assistant-Regular.woff2");
      }
    </style>
    
  </defs>
  <g stroke-linecap="round" transform="translate(10 24.8527462121192) rotate(0 42.630859375 38.322265625)"><path d="M19.16 0 C30.85 -2.9, 43.12 -0.74, 66.1 0 C81.13 -0.61, 87.22 9.93, 85.26 19.16 C86.14 26.34, 85.45 35.15, 85.26 57.48 C84.76 69.18, 82.05 73.15, 66.1 76.64 C53.55 76.73, 35.85 76.64, 19.16 76.64 C4.68 74.38, 0.78 67.33, 0 57.48 C-3.65 50.01, 2.61 34.82, 0 19.16 C-0.59 5.14, 4.47 3.37, 19.16 0" stroke="none" stroke-width="0" fill="#a18072"></path><path d="M19.16 0 C37.5 -1.34, 57.92 0.38, 66.1 0 M19.16 0 C29.45 0.26, 40.76 -0.55, 66.1 0 M66.1 0 C80.28 -0.79, 84.89 6.69, 85.26 19.16 M66.1 0 C79.25 -2.24, 87.43 7.17, 85.26 19.16 M85.26 19.16 C84.36 28.31, 86.76 35.85, 85.26 57.48 M85.26 19.16 C85.85 28.62, 84.66 39.03, 85.26 57.48 M85.26 57.48 C83.33 70.44, 79.82 76.44, 66.1 76.64 M85.26 57.48 C85.3 68.87, 78.62 77.67, 66.1 76.64 M66.1 76.64 C55.54 77.46, 44.48 76.1, 19.16 76.64 M66.1 76.64 C47.99 75.85, 30.82 76.28, 19.16 76.64 M19.16 76.64 C6.96 77.6, -1.88 72.25, 0 57.48 M19.16 76.64 C5.75 74.89, -0.35 69.1, 0 57.48 M0 57.48 C0.82 42.02, -0.73 28.39, 0 19.16 M0 57.48 C0.94 44.68, 0.42 32.51, 0 19.16 M0 19.16 C0.08 8.01, 7.45 1.27, 19.16 0 M0 19.16 C-2.14 7.39, 8.43 -0.84, 19.16 0" stroke="#1e1e1e" stroke-width="2" fill="none"></path></g><g stroke-linecap="round" transform="translate(33.86899266098453 102.14701704545314) rotate(0 19.283203125 7.48828125)"><path d="M3.74 0 C8.98 -0.53, 20.1 -0.06, 34.82 0 C38.74 2.56, 36.64 1.32, 38.57 3.74 C38.63 6.3, 38.45 9.29, 38.57 11.23 C40.86 11.21, 37.06 13.92, 34.82 14.98 C22.93 14.89, 14.16 13.34, 3.74 14.98 C1.81 12.86, -0.69 15.98, 0 11.23 C0.95 8.18, -0.08 5.71, 0 3.74 C-1.39 3.68, 0.72 -0.23, 3.74 0" stroke="none" stroke-width="0" fill="#868e96"></path><path d="M3.74 0 C13.55 0.27, 21.01 -0.26, 34.82 0 M3.74 0 C14.27 -0.27, 24.45 -0.26, 34.82 0 M34.82 0 C37.13 0.15, 38.73 0.27, 38.57 3.74 M34.82 0 C38.4 0.39, 37.64 2.06, 38.57 3.74 M38.57 3.74 C38.77 6.43, 38.37 9.1, 38.57 11.23 M38.57 3.74 C38.49 6.54, 38.41 9.17, 38.57 11.23 M38.57 11.23 C39.04 13.62, 37.34 14.37, 34.82 14.98 M38.57 11.23 C38.44 14.24, 36.27 14.37, 34.82 14.98 M34.82 14.98 C23.77 14.7, 15.52 15.51, 3.74 14.98 M34.82 14.98 C27.05 14.79, 18.66 15.12, 3.74 14.98 M3.74 14.98 C0.31 15.97, -0.28 12.97, 0 11.23 M3.74 14.98 C1.07 14.4, 0.84 14.52, 0 11.23 M0 11.23 C-0.11 8.75, 0.08 6.26, 0 3.74 M0 11.23 C0.01 9.52, -0.02 7.94, 0 3.74 M0 3.74 C0.53 1.88, 0.32 0.44, 3.74 0 M0 3.74 C1.02 0.83, 1.09 0.39, 3.74 0" stroke="#1e1e1e" stroke-width="2" fill="none"></path></g><g stroke-linecap="round" transform="translate(34.05486505681802 10) rotate(0 19.283203125 7.48828125)"><path d="M3.74 0 C11.73 -0.3, 17.88 2.7, 34.82 0 C35.39 0.07, 40.9 1.87, 38.57 3.74 C38.44 5.39, 39.43 6.68, 38.57 11.23 C38.31 12.67, 37.65 15.74, 34.82 14.98 C24.29 13.33, 16.78 12.85, 3.74 14.98 C0.56 17.23, 1.21 11.53, 0 11.23 C-0.25 8.02, -0.61 6.4, 0 3.74 C-0.53 1.02, 1.76 0.29, 3.74 0" stroke="none" stroke-width="0" fill="#868e96"></path><path d="M3.74 0 C10.14 -0.39, 18.36 -0.19, 34.82 0 M3.74 0 C14.63 -0.13, 24.71 0.14, 34.82 0 M34.82 0 C37.48 -0.97, 39.51 1.59, 38.57 3.74 M34.82 0 C36.39 0.81, 39.27 0.57, 38.57 3.74 M38.57 3.74 C38.41 6.22, 38.82 9.03, 38.57 11.23 M38.57 3.74 C38.36 5.83, 38.63 7.86, 38.57 11.23 M38.57 11.23 C38.58 13.12, 37.21 15.42, 34.82 14.98 M38.57 11.23 C37.52 13.12, 37.59 14.55, 34.82 14.98 M34.82 14.98 C25.25 15.4, 13.62 14.84, 3.74 14.98 M34.82 14.98 C27.56 15.19, 19.53 15.45, 3.74 14.98 M3.74 14.98 C0.97 14.22, -0.15 13.23, 0 11.23 M3.74 14.98 C2.09 15.77, 0.22 14.35, 0 11.23 M0 11.23 C0.11 9.23, -0.25 7.9, 0 3.74 M0 11.23 C0 9.36, 0.09 7.3, 0 3.74 M0 3.74 C-0.93 1.68, 2.13 -0.36, 3.74 0 M0 3.74 C-0.15 1.64, 0.52 -0.56, 3.74 0" stroke="#343a40" stroke-width="2" fill="none"></path></g><g stroke-linecap="round" transform="translate(79.93959263392844 52.35810673701144) rotate(0 13.974609375 10.47265625)"><path d="M5.24 0 C11.58 3.15, 12.16 0.14, 22.71 0 C29.44 0.86, 26.47 1.91, 27.95 5.24 C29.58 6.16, 27.74 9.98, 27.95 15.71 C28.41 20.26, 26.18 17.93, 22.71 20.95 C18.2 18.19, 11.51 23.47, 5.24 20.95 C3.42 17.9, 3.02 22.41, 0 15.71 C-0.98 14.82, -0.35 10.24, 0 5.24 C0.71 2.15, 2.43 0.89, 5.24 0" stroke="none" stroke-width="0" fill="#ffd8a8"></path><path d="M5.24 0 C11.25 -0.22, 16.98 1.27, 22.71 0 M5.24 0 C9.58 0.2, 14.39 -0.78, 22.71 0 M22.71 0 C28.09 0.68, 26.34 3.16, 27.95 5.24 M22.71 0 C27.61 -1.35, 28.81 3.16, 27.95 5.24 M27.95 5.24 C28.54 8.98, 27.65 10.81, 27.95 15.71 M27.95 5.24 C28.1 8.83, 27.86 12.21, 27.95 15.71 M27.95 15.71 C27.72 20.09, 24.39 19.89, 22.71 20.95 M27.95 15.71 C28.5 18.34, 27.01 18.67, 22.71 20.95 M22.71 20.95 C17.39 20.87, 12.3 22.35, 5.24 20.95 M22.71 20.95 C16.97 21.9, 12.63 20.36, 5.24 20.95 M5.24 20.95 C1.44 19.94, 1.46 20.58, 0 15.71 M5.24 20.95 C2.18 22.19, -1.35 18.66, 0 15.71 M0 15.71 C-0.76 13.62, -0.34 10.21, 0 5.24 M0 15.71 C0.27 12.86, -0.49 9.57, 0 5.24 M0 5.24 C1.77 1.02, 1.48 0.68, 5.24 0 M0 5.24 C-1.45 0.62, -0.45 -1.88, 5.24 0" stroke="#1e1e1e" stroke-width="2" fill="none"></path></g><g stroke-linecap="round" transform="translate(30.14076450892844 38.31904423701144) rotate(0 25.4296875 23.859375)"><path d="M27.61 -0.15 C32.75 0.01, 40.07 2.79, 43.81 6.6 C47.56 10.41, 49.74 17.48, 50.08 22.7 C50.42 27.92, 48.89 33.87, 45.85 37.92 C42.81 41.97, 36.95 45.66, 31.86 46.99 C26.77 48.33, 20.14 48.29, 15.32 45.93 C10.49 43.58, 5.26 37.44, 2.93 32.85 C0.61 28.26, 0.07 23.19, 1.35 18.39 C2.64 13.6, 5.03 6.97, 10.64 4.07 C16.25 1.18, 30.11 0.96, 35 1 C39.89 1.03, 40.33 3.85, 39.98 4.26 M34.75 0.05 C39.83 1.35, 44.33 8.14, 47.03 12.56 C49.74 16.97, 51.72 21.81, 50.97 26.55 C50.22 31.3, 46.66 37.58, 42.52 41.03 C38.38 44.48, 31.36 47.23, 26.12 47.26 C20.88 47.29, 15.39 44.39, 11.1 41.21 C6.82 38.04, 1.73 32.9, 0.41 28.22 C-0.92 23.53, 0.58 17.73, 3.16 13.11 C5.74 8.49, 10.87 2.59, 15.88 0.48 C20.9 -1.62, 30.52 0.21, 33.23 0.46 C35.95 0.7, 32.51 1.51, 32.18 1.94" stroke="none" stroke-width="0" fill="#ffd8a8"></path><path d="M33.61 1.21 C38.69 2.47, 44.89 7.39, 47.54 11.99 C50.19 16.59, 50.41 23.95, 49.52 28.83 C48.63 33.71, 46.09 38, 42.21 41.25 C38.34 44.5, 31.87 48.11, 26.26 48.33 C20.66 48.55, 12.8 45.96, 8.59 42.58 C4.39 39.21, 1.98 33.17, 1.02 28.06 C0.07 22.94, 0.17 16.22, 2.87 11.9 C5.57 7.58, 11.43 3.69, 17.23 2.12 C23.03 0.56, 33.6 2.08, 37.66 2.52 C41.72 2.95, 41.75 4.21, 41.6 4.72 M23.94 0.7 C28.86 0.17, 34.94 1.14, 39.38 4.02 C43.82 6.89, 49.03 13.08, 50.57 17.94 C52.11 22.81, 51.23 28.36, 48.61 33.22 C45.99 38.08, 39.85 44.94, 34.86 47.08 C29.88 49.23, 23.85 47.97, 18.7 46.11 C13.55 44.25, 6.86 40.16, 3.96 35.92 C1.07 31.68, 0.57 25.46, 1.33 20.66 C2.09 15.86, 4.96 10.31, 8.53 7.12 C12.09 3.93, 20.16 2.82, 22.7 1.53 C25.23 0.24, 23.5 -0.66, 23.72 -0.63" stroke="#1e1e1e" stroke-width="2" fill="none"></path></g></svg>