<svg version="1.1" xmlns="http://www.w3.org/2000/svg" viewBox="0 0 116.60532924107088 127.12357954545314" width="116.60532924107088" height="127.12357954545314">
  <!-- svg-source:excalidraw -->
  
  <defs>
    <style class="style-fonts">
      @font-face {
        font-family: "Virgil";
        src: url("https://excalidraw.com/Virgil.woff2");
      }
      @font-face {
        font-family: "Cascadia";
        src: url("https://excalidraw.com/Cascadia.woff2");
      }
      @font-face {
        font-family: "Assistant";
        src: url("https://excalidraw.com/Assistant-Regular.woff2");
      }
    </style>
    
  </defs>
  <g stroke-linecap="round" transform="translate(21.343610491070876 24.8527462121192) rotate(0 42.630859375 38.322265625)"><path d="M19.16 0 C35.84 -0.28, 45.47 1.16, 66.1 0 C79.28 0.69, 86.15 7.41, 85.26 19.16 C87.68 28.7, 85.3 45.97, 85.26 57.48 C82.77 67.28, 80.39 75.38, 66.1 76.64 C51.85 76.72, 32.47 78.88, 19.16 76.64 C8.94 79.2, 2.51 67.08, 0 57.48 C3.09 48.81, 2.34 38.08, 0 19.16 C-2.07 9.49, 6.38 0.49, 19.16 0" stroke="none" stroke-width="0" fill="#a18072"></path><path d="M19.16 0 C34.22 -1.76, 46.43 0.53, 66.1 0 M19.16 0 C31.17 1.3, 44.31 0.09, 66.1 0 M66.1 0 C78.7 -1.23, 86.78 6.02, 85.26 19.16 M66.1 0 C79.54 1.1, 83.09 8.68, 85.26 19.16 M85.26 19.16 C83.97 31.05, 86.35 40.4, 85.26 57.48 M85.26 19.16 C84.77 33, 84.52 45.61, 85.26 57.48 M85.26 57.48 C86.74 69.67, 79.32 76.73, 66.1 76.64 M85.26 57.48 C85.35 72.12, 80.09 78.1, 66.1 76.64 M66.1 76.64 C55.65 76.79, 47.34 75.8, 19.16 76.64 M66.1 76.64 C53.96 76.89, 42.35 76.81, 19.16 76.64 M19.16 76.64 C8.35 75.16, 0.06 72.06, 0 57.48 M19.16 76.64 C6.93 75.7, 0.11 69.41, 0 57.48 M0 57.48 C-1.82 46.32, -0.7 35.8, 0 19.16 M0 57.48 C-0.03 44.38, -0.62 32.45, 0 19.16 M0 19.16 C-1.63 5.86, 8.12 0.93, 19.16 0 M0 19.16 C-1.95 8.31, 8.44 -1.08, 19.16 0" stroke="#1e1e1e" stroke-width="2" fill="none"></path></g><g stroke-linecap="round" transform="translate(45.21260315205586 102.14701704545314) rotate(0 19.283203125 7.48828125)"><path d="M3.74 0 C11.18 0.59, 19.36 0.58, 34.82 0 C37.96 0.74, 39.6 3.24, 38.57 3.74 C38.49 6.35, 37.94 7.73, 38.57 11.23 C39.66 12.81, 38.92 14.64, 34.82 14.98 C25.83 16.62, 18.21 16.83, 3.74 14.98 C3.06 12.68, -1.11 12.24, 0 11.23 C0.45 8.72, -0.63 6.87, 0 3.74 C0 1.61, 0.33 -0.11, 3.74 0" stroke="none" stroke-width="0" fill="#868e96"></path><path d="M3.74 0 C12.19 0.38, 21.32 0.49, 34.82 0 M3.74 0 C10.24 -0.32, 16.21 -0.44, 34.82 0 M34.82 0 C38.08 -0.19, 38.85 1.73, 38.57 3.74 M34.82 0 C36.23 1.15, 38.25 0.37, 38.57 3.74 M38.57 3.74 C38.81 5.95, 38.75 7.79, 38.57 11.23 M38.57 3.74 C38.46 5.68, 38.7 7.83, 38.57 11.23 M38.57 11.23 C38.79 13.77, 37.36 15.79, 34.82 14.98 M38.57 11.23 C39.18 14.46, 36.25 15.48, 34.82 14.98 M34.82 14.98 C23.08 14.32, 10.18 14, 3.74 14.98 M34.82 14.98 C27.95 15.35, 21.74 14.7, 3.74 14.98 M3.74 14.98 C1.28 15.88, 0.24 13.32, 0 11.23 M3.74 14.98 C1.3 14.55, -0.16 13.39, 0 11.23 M0 11.23 C-0.12 8.37, 0.15 5.42, 0 3.74 M0 11.23 C-0.12 9.65, -0.15 7.94, 0 3.74 M0 3.74 C0.87 1.71, 0.4 0.84, 3.74 0 M0 3.74 C1.03 0.71, 1.06 -0.4, 3.74 0" stroke="#1e1e1e" stroke-width="2" fill="none"></path></g><g stroke-linecap="round" transform="translate(45.39847554788889 10) rotate(0 19.283203125 7.48828125)"><path d="M3.74 0 C12.73 0.42, 21.78 0.66, 34.82 0 C38.35 1.99, 39.08 2.62, 38.57 3.74 C37.88 4.46, 38.96 6.45, 38.57 11.23 C40.17 13.39, 37.24 16.95, 34.82 14.98 C27.26 17.07, 17.82 12.94, 3.74 14.98 C0.14 13.49, 1.22 15.67, 0 11.23 C-0.61 9.58, -0.05 6.38, 0 3.74 C-0.92 1.14, -0.45 -2.3, 3.74 0" stroke="none" stroke-width="0" fill="#868e96"></path><path d="M3.74 0 C9.87 0.31, 15.76 -0.37, 34.82 0 M3.74 0 C15.63 -0.25, 27.98 -0.03, 34.82 0 M34.82 0 C37.61 0.48, 37.62 2.25, 38.57 3.74 M34.82 0 C37 -0.88, 38.39 0.67, 38.57 3.74 M38.57 3.74 C38.8 6.32, 38.5 9.23, 38.57 11.23 M38.57 3.74 C38.69 6.13, 38.59 8.64, 38.57 11.23 M38.57 11.23 C38.61 14.54, 37.85 15.61, 34.82 14.98 M38.57 11.23 C37.5 14.23, 38.34 14.56, 34.82 14.98 M34.82 14.98 C25.43 13.92, 16.2 14.52, 3.74 14.98 M34.82 14.98 C24.04 14.69, 12.29 15.51, 3.74 14.98 M3.74 14.98 C1.49 14.56, 0.05 13.36, 0 11.23 M3.74 14.98 C1.09 14.63, 1.01 12.61, 0 11.23 M0 11.23 C0.13 9.06, -0.3 6.88, 0 3.74 M0 11.23 C-0.13 9.29, 0.19 7.54, 0 3.74 M0 3.74 C-0.85 2.09, 2.14 -0.47, 3.74 0 M0 3.74 C-0.19 0.85, 0.63 1.08, 3.74 0" stroke="#343a40" stroke-width="2" fill="none"></path></g><g stroke-linecap="round" transform="translate(10 53.475852272725206) rotate(0 13.974609375 10.47265625)"><path d="M5.24 0 C11.6 0.84, 17.66 2.35, 22.71 0 C26.92 1.89, 24.47 1.26, 27.95 5.24 C28.61 7.94, 28.98 11.73, 27.95 15.71 C27.84 21.93, 26.3 21.27, 22.71 20.95 C18.57 18.39, 8.69 19.37, 5.24 20.95 C3.44 23.64, 1.18 21.14, 0 15.71 C0.11 12.74, -0.56 9.17, 0 5.24 C-2.35 -1.44, 3.55 -2.44, 5.24 0" stroke="none" stroke-width="0" fill="#ffd8a8"></path><path d="M5.24 0 C9.17 -0.64, 18.03 0.78, 22.71 0 M5.24 0 C10.48 -0.05, 14.66 0.53, 22.71 0 M22.71 0 C24.32 2, 27.39 0.22, 27.95 5.24 M22.71 0 C25.85 -1.15, 29.62 3.34, 27.95 5.24 M27.95 5.24 C27.76 8.3, 28.28 11.37, 27.95 15.71 M27.95 5.24 C28.14 7.67, 28.05 10.48, 27.95 15.71 M27.95 15.71 C29.01 20.47, 24.35 21.82, 22.71 20.95 M27.95 15.71 C29.99 18.36, 25.89 21.72, 22.71 20.95 M22.71 20.95 C17.15 20.16, 15.53 20.48, 5.24 20.95 M22.71 20.95 C16.54 21.6, 10.53 20.46, 5.24 20.95 M5.24 20.95 C1.84 20.21, -0.28 18.6, 0 15.71 M5.24 20.95 C3.77 18.72, -0.23 18.26, 0 15.71 M0 15.71 C-0.91 12.4, -0.53 8.5, 0 5.24 M0 15.71 C0.54 12.59, -0.36 9.41, 0 5.24 M0 5.24 C1.78 0.81, 1.42 -0.69, 5.24 0 M0 5.24 C-1.23 3.9, 1.28 -0.2, 5.24 0" stroke="#1e1e1e" stroke-width="2" fill="none"></path></g><g stroke-linecap="round" transform="translate(36.888671875 39.436789772725206) rotate(0 25.4296875 23.859375)"><path d="M35.87 2.41 C40.9 4.22, 46.61 9.25, 48.82 13.86 C51.03 18.48, 50.69 25.27, 49.13 30.1 C47.56 34.93, 43.75 40.05, 39.45 42.84 C35.15 45.62, 28.71 47.02, 23.32 46.8 C17.93 46.59, 10.9 45.16, 7.11 41.52 C3.31 37.89, 0.82 30.08, 0.55 24.99 C0.29 19.9, 2.51 15.04, 5.5 10.98 C8.49 6.92, 13.03 1.97, 18.49 0.62 C23.94 -0.72, 34.43 2.18, 38.24 2.91 C42.06 3.64, 41.57 4.54, 41.39 5 M27.28 0.63 C32.61 0.59, 39.96 3.61, 43.99 6.77 C48.02 9.93, 51.05 14.51, 51.47 19.59 C51.89 24.67, 49.79 32.94, 46.5 37.25 C43.22 41.56, 36.82 44.13, 31.74 45.46 C26.66 46.8, 20.72 47.1, 16.04 45.26 C11.36 43.42, 6.23 38.71, 3.66 34.42 C1.09 30.14, -0.47 24.47, 0.63 19.55 C1.72 14.62, 5.71 7.96, 10.24 4.89 C14.77 1.81, 24.85 1.65, 27.79 1.1 C30.73 0.54, 28.29 1.45, 27.89 1.56" stroke="none" stroke-width="0" fill="#ffd8a8"></path><path d="M30.85 1.44 C35.99 2.36, 42.34 6.2, 45.75 10.03 C49.15 13.87, 51.44 19.46, 51.28 24.47 C51.13 29.48, 48.78 36.25, 44.8 40.08 C40.83 43.9, 33.11 46.7, 27.44 47.42 C21.78 48.15, 15.09 47.21, 10.81 44.43 C6.52 41.65, 3.06 35.86, 1.71 30.73 C0.36 25.61, 0.65 18.42, 2.69 13.67 C4.73 8.91, 8.32 4.19, 13.94 2.2 C19.56 0.21, 32.17 1.12, 36.42 1.71 C40.67 2.29, 39.71 5.24, 39.43 5.72 M26.74 0.96 C31.68 0.66, 36.59 3.44, 40.78 6.55 C44.97 9.67, 50.85 14.62, 51.89 19.65 C52.92 24.68, 50.19 32.37, 46.99 36.72 C43.79 41.06, 38.05 44.35, 32.69 45.71 C27.33 47.07, 19.83 46.45, 14.81 44.88 C9.8 43.32, 5.05 40.44, 2.62 36.31 C0.19 32.17, -1.16 25.41, 0.23 20.05 C1.62 14.7, 6.67 7.28, 10.96 4.16 C15.25 1.04, 23.44 2.07, 25.99 1.35 C28.55 0.64, 26.3 -0.22, 26.3 -0.14" stroke="#1e1e1e" stroke-width="2" fill="none"></path></g></svg>