<svg version="1.1" xmlns="http://www.w3.org/2000/svg" viewBox="0 0 106.74238642162028 127.12357954545405" width="106.74238642162028" height="127.12357954545405">
  <!-- svg-source:excalidraw -->
  
  <defs>
    <style class="style-fonts">
      @font-face {
        font-family: "Virgil";
        src: url("https://excalidraw.com/Virgil.woff2");
      }
      @font-face {
        font-family: "Cascadia";
        src: url("https://excalidraw.com/Cascadia.woff2");
      }
      @font-face {
        font-family: "Assistant";
        src: url("https://excalidraw.com/Assistant-Regular.woff2");
      }
    </style>
    
  </defs>
  <g stroke-linecap="round" transform="translate(11.480667671620285 24.85274621212011) rotate(0 42.630859375 38.322265625)"><path d="M19.16 0 C30.29 -1.06, 41.24 -0.66, 66.1 0 C77.14 -2.66, 87.51 6.73, 85.26 19.16 C84.28 30.62, 83.94 41.53, 85.26 57.48 C82.62 72.11, 80.29 75.39, 66.1 76.64 C57.84 74.05, 43.93 74.52, 19.16 76.64 C7.31 79.79, 3.58 67.36, 0 57.48 C3.42 44.08, -2.82 34.63, 0 19.16 C2.4 9.8, 6.07 2.47, 19.16 0" stroke="none" stroke-width="0" fill="#fd7e14"></path><path d="M19.16 0 C27.7 1.36, 38.56 -0.07, 66.1 0 M19.16 0 C36.55 1.08, 53.93 -0.15, 66.1 0 M66.1 0 C77.05 -0.01, 83.97 7.03, 85.26 19.16 M66.1 0 C77.83 -0.2, 85.12 6.08, 85.26 19.16 M85.26 19.16 C83.38 30.91, 86.81 43.37, 85.26 57.48 M85.26 19.16 C84.33 29.24, 85.98 38.55, 85.26 57.48 M85.26 57.48 C86.48 70.43, 77.96 76.59, 66.1 76.64 M85.26 57.48 C85.04 70.91, 77.48 75.29, 66.1 76.64 M66.1 76.64 C55.41 75.24, 43.06 75.72, 19.16 76.64 M66.1 76.64 C48.19 77.46, 31.92 76.56, 19.16 76.64 M19.16 76.64 C5.1 77.82, 1.41 70.52, 0 57.48 M19.16 76.64 C6.85 78.82, -0.73 67.99, 0 57.48 M0 57.48 C-0.26 44.72, 0.79 30.95, 0 19.16 M0 57.48 C-0.42 50.23, -1.06 40.66, 0 19.16 M0 19.16 C-0.92 7.25, 7.14 -1.25, 19.16 0 M0 19.16 C2.02 5.35, 5.68 1.94, 19.16 0" stroke="#1e1e1e" stroke-width="2" fill="none"></path></g><g stroke-linecap="round" transform="translate(35.34966033260527 102.14701704545405) rotate(0 19.283203125 7.48828125)"><path d="M3.74 0 C13.2 -0.51, 19.26 -1.77, 34.82 0 C38.94 0.25, 39.3 -1.27, 38.57 3.74 C38.38 4.74, 37.84 7.73, 38.57 11.23 C39.59 12.82, 35.08 12.65, 34.82 14.98 C25.73 13.55, 20.33 17.01, 3.74 14.98 C3.83 12.89, 0.07 11.72, 0 11.23 C-0.98 8.35, 0.57 6.2, 0 3.74 C-0.23 3.03, 3.85 -1.96, 3.74 0" stroke="none" stroke-width="0" fill="#868e96"></path><path d="M3.74 0 C12.99 -0.17, 22.41 0.49, 34.82 0 M3.74 0 C11.36 -0.32, 18.68 -0.13, 34.82 0 M34.82 0 C36.67 0.32, 38.11 1.16, 38.57 3.74 M34.82 0 C37.25 -0.15, 38.97 1.11, 38.57 3.74 M38.57 3.74 C38.83 5.98, 38.31 8.66, 38.57 11.23 M38.57 3.74 C38.69 5.52, 38.65 6.95, 38.57 11.23 M38.57 11.23 C38.11 13.7, 37.22 15.26, 34.82 14.98 M38.57 11.23 C37.87 13.05, 36.56 14.14, 34.82 14.98 M34.82 14.98 C22.27 14.17, 11.42 14.1, 3.74 14.98 M34.82 14.98 C25.93 15.11, 16.88 15.41, 3.74 14.98 M3.74 14.98 C1.95 15.11, 0.2 14.67, 0 11.23 M3.74 14.98 C0.88 13.84, 0.75 14.64, 0 11.23 M0 11.23 C0.2 8.89, -0.33 6.36, 0 3.74 M0 11.23 C-0.13 8.71, -0.08 6.49, 0 3.74 M0 3.74 C0.37 0.62, 2.13 -0.45, 3.74 0 M0 3.74 C-0.35 2.22, 0.32 0.65, 3.74 0" stroke="#1e1e1e" stroke-width="2" fill="none"></path></g><g stroke-linecap="round" transform="translate(35.5355327284383 10) rotate(0 19.283203125 7.48828125)"><path d="M3.74 0 C10.68 -1.82, 21.75 0.35, 34.82 0 C38.05 -2.52, 36.81 1.02, 38.57 3.74 C37.83 6.26, 38.93 7.44, 38.57 11.23 C36.33 11.4, 35.86 16.26, 34.82 14.98 C27.99 17.06, 22.42 12.7, 3.74 14.98 C1.32 12.96, 2.54 15.81, 0 11.23 C0.74 10.28, 0.01 8.16, 0 3.74 C2.6 -0.71, 1.69 1.71, 3.74 0" stroke="none" stroke-width="0" fill="#868e96"></path><path d="M3.74 0 C15.82 0.6, 25.94 -0.06, 34.82 0 M3.74 0 C15.19 0.06, 27.22 0.22, 34.82 0 M34.82 0 C36.87 -0.09, 38.51 1.11, 38.57 3.74 M34.82 0 C37.73 -0.13, 38.98 0.19, 38.57 3.74 M38.57 3.74 C38.37 5.46, 38.27 7.11, 38.57 11.23 M38.57 3.74 C38.71 6.65, 38.51 9.53, 38.57 11.23 M38.57 11.23 C38.47 14.01, 36.71 14.39, 34.82 14.98 M38.57 11.23 C37.81 12.89, 38.31 15.14, 34.82 14.98 M34.82 14.98 C28.93 14.14, 21.63 13.98, 3.74 14.98 M34.82 14.98 C22.41 15.27, 10.99 15.04, 3.74 14.98 M3.74 14.98 C1.45 15.92, -0.32 12.74, 0 11.23 M3.74 14.98 C2 15.89, 0.56 13.75, 0 11.23 M0 11.23 C-0.35 8.87, 0.06 5.79, 0 3.74 M0 11.23 C-0.06 8.41, 0.1 5.32, 0 3.74 M0 3.74 C0.88 0.8, 0.94 0.84, 3.74 0 M0 3.74 C-0.93 1.9, 0.9 0.27, 3.74 0" stroke="#343a40" stroke-width="2" fill="none"></path></g><g stroke-linecap="round" transform="translate(13.186373760761416 77.62702718601395) rotate(312.47556431009303 13.974609375000004 10.47265625)"><path d="M5.24 0 C12 0.53, 15.72 -2.81, 22.71 0 C23.77 -0.32, 26.84 1.09, 27.95 5.24 C28.55 6.91, 26.19 8.22, 27.95 15.71 C25.93 20.98, 24.08 18.84, 22.71 20.95 C21.4 18.69, 13.92 18.79, 5.24 20.95 C5.27 23.83, -1.8 15.85, 0 15.71 C-0.29 13.76, 1.76 7.8, 0 5.24 C0.62 4.12, 1.46 -0.49, 5.24 0" stroke="none" stroke-width="0" fill="#ffd8a8"></path><path d="M5.24 0 C9.45 -0.23, 16.95 -0.37, 22.71 0 M5.24 0 C9.23 0.28, 13.96 -0.08, 22.71 0 M22.71 0 C26.08 -0.27, 28.66 1.51, 27.95 5.24 M22.71 0 C27.02 -2.11, 26.68 3.58, 27.95 5.24 M27.95 5.24 C26.98 6.74, 28.79 10.83, 27.95 15.71 M27.95 5.24 C27.77 9.38, 27.96 13.69, 27.95 15.71 M27.95 15.71 C26.74 18.03, 24.88 19.5, 22.71 20.95 M27.95 15.71 C29.94 19.54, 24.12 19.7, 22.71 20.95 M22.71 20.95 C18.34 19.25, 16.1 20.52, 5.24 20.95 M22.71 20.95 C18.09 21.16, 12.42 21.87, 5.24 20.95 M5.24 20.95 C1.11 18.97, 1.31 20.78, 0 15.71 M5.24 20.95 C2.86 20.99, 1.42 20.46, 0 15.71 M0 15.71 C0.33 11.74, 1.01 7.16, 0 5.24 M0 15.71 C0.24 12.83, 0.51 10.38, 0 5.24 M0 5.24 C-0.62 3.43, 0.13 1.13, 5.24 0 M0 5.24 C-0.69 2.28, 0.91 0.95, 5.24 0" stroke="#1e1e1e" stroke-width="2" fill="none"></path></g><g stroke-linecap="round" transform="translate(28.105044809020473 37.022564965653146) rotate(312.47556431009303 25.429687500000007 23.859375)"><path d="M32.1 1.43 C37.05 2.36, 41.95 6.74, 45.11 10.74 C48.26 14.74, 51.11 20.61, 51.02 25.43 C50.94 30.26, 48.53 36.1, 44.61 39.71 C40.7 43.33, 33.04 46.41, 27.55 47.13 C22.06 47.85, 16.2 46.66, 11.67 44.03 C7.14 41.4, 2.02 36.37, 0.37 31.34 C-1.29 26.31, -0.72 18.82, 1.74 13.87 C4.19 8.92, 8.93 3.44, 15.1 1.62 C21.27 -0.2, 34.01 1.97, 38.78 2.93 C43.55 3.89, 43.96 7.03, 43.72 7.38 M19.5 1.11 C24.39 -0.67, 30.35 -0.67, 35.2 1.43 C40.04 3.54, 46.16 9.11, 48.56 13.76 C50.96 18.41, 51.26 24.24, 49.58 29.35 C47.9 34.47, 42.87 41.5, 38.49 44.45 C34.1 47.4, 28.73 47.96, 23.28 47.06 C17.83 46.16, 9.8 42.52, 5.79 39.04 C1.78 35.56, -0.49 31.21, -0.79 26.19 C-1.08 21.17, 0.78 13.09, 4.02 8.9 C7.26 4.71, 15.87 2.12, 18.67 1.07 C21.46 0.03, 20.77 2.32, 20.79 2.65" stroke="none" stroke-width="0" fill="#ffd8a8"></path><path d="M23.51 -0.58 C28.76 -1.17, 36.17 0.95, 40.58 4.03 C45 7.11, 48.71 12.81, 49.98 17.9 C51.25 22.98, 50.58 29.87, 48.21 34.55 C45.85 39.23, 40.88 44, 35.79 45.96 C30.69 47.91, 22.73 47.85, 17.64 46.28 C12.54 44.72, 8.24 40.75, 5.22 36.56 C2.2 32.38, -0.73 26.29, -0.47 21.19 C-0.21 16.09, 1.72 9.32, 6.79 5.97 C11.86 2.62, 25.2 1.64, 29.94 1.08 C34.69 0.52, 35.44 2.44, 35.25 2.61 M24.17 -0.88 C29.2 -1.5, 35.92 0.87, 40.51 4.28 C45.1 7.7, 50.75 14.54, 51.71 19.61 C52.67 24.67, 49.31 30.1, 46.27 34.69 C43.23 39.27, 38.52 45.19, 33.47 47.1 C28.41 49.01, 21.16 47.76, 15.96 46.14 C10.76 44.53, 4.89 41.76, 2.24 37.41 C-0.41 33.06, -0.86 25.16, 0.07 20.04 C1.01 14.92, 3.5 9.99, 7.85 6.68 C12.19 3.37, 23.2 0.99, 26.13 0.2 C29.05 -0.6, 25.63 1.78, 25.39 1.9" stroke="#1e1e1e" stroke-width="2" fill="none"></path></g></svg>