<svg version="1.1" xmlns="http://www.w3.org/2000/svg" viewBox="0 0 106.68100249304894 127.12357954545405" width="106.68100249304894" height="127.12357954545405">
  <!-- svg-source:excalidraw -->
  
  <defs>
    <style class="style-fonts">
      @font-face {
        font-family: "Virgil";
        src: url("https://excalidraw.com/Virgil.woff2");
      }
      @font-face {
        font-family: "Cascadia";
        src: url("https://excalidraw.com/Cascadia.woff2");
      }
      @font-face {
        font-family: "Assistant";
        src: url("https://excalidraw.com/Assistant-Regular.woff2");
      }
    </style>
    
  </defs>
  <g stroke-linecap="round" transform="translate(10 24.562567640691668) rotate(0 42.630859375 38.322265625)"><path d="M19.16 0 C31.24 -2.1, 38.24 -2.67, 66.1 0 C82.08 -0.61, 85.25 4.07, 85.26 19.16 C86.48 36.31, 84.61 43.1, 85.26 57.48 C87.61 73.1, 80.63 76.72, 66.1 76.64 C45.94 80.59, 32.93 77.03, 19.16 76.64 C9.53 74.12, -2.04 68.61, 0 57.48 C2.91 42.7, -1.37 34.21, 0 19.16 C-2.9 8.41, 5.3 0.83, 19.16 0" stroke="none" stroke-width="0" fill="#fd7e14"></path><path d="M19.16 0 C33.15 -0.37, 47.29 1.53, 66.1 0 M19.16 0 C35.97 -0.66, 54.53 -0.66, 66.1 0 M66.1 0 C76.97 -0.92, 85.36 5.27, 85.26 19.16 M66.1 0 C78.34 -1.78, 86.91 7.82, 85.26 19.16 M85.26 19.16 C84.7 28.15, 85.14 36.43, 85.26 57.48 M85.26 19.16 C85.55 32.72, 84.76 44.75, 85.26 57.48 M85.26 57.48 C86.33 72.23, 77.79 78.3, 66.1 76.64 M85.26 57.48 C82.98 72.39, 78.61 75.63, 66.1 76.64 M66.1 76.64 C50.38 77.8, 30.73 76.47, 19.16 76.64 M66.1 76.64 C47.21 76.45, 29.5 76.78, 19.16 76.64 M19.16 76.64 C5.48 76.47, -0.12 69.99, 0 57.48 M19.16 76.64 C7.2 76.38, 0.82 68.14, 0 57.48 M0 57.48 C-1.5 47.47, -2.04 37.07, 0 19.16 M0 57.48 C0.29 42.76, -0.78 27.84, 0 19.16 M0 19.16 C-0.19 6.96, 5.18 -1.17, 19.16 0 M0 19.16 C-1.52 4.72, 8.38 0.34, 19.16 0" stroke="#1e1e1e" stroke-width="2" fill="none"></path></g><g stroke-linecap="round" transform="translate(33.66809980384164 102.14701704545405) rotate(0 19.283203125 7.48828125)"><path d="M3.74 0 C10.58 -2.04, 20.58 -0.14, 34.82 0 C37.31 -1.67, 40.09 3.08, 38.57 3.74 C38.28 5.13, 39.22 9.2, 38.57 11.23 C39.83 13.78, 38.93 16.4, 34.82 14.98 C23.81 15.19, 13.91 13.53, 3.74 14.98 C-0.23 13.78, 1.12 14.7, 0 11.23 C-0.39 10.28, -0.87 8.22, 0 3.74 C-0.79 1.85, 0.3 1.07, 3.74 0" stroke="none" stroke-width="0" fill="#868e96"></path><path d="M3.74 0 C12.52 0.78, 22.84 0.44, 34.82 0 M3.74 0 C12.86 -0.23, 21.63 -0.12, 34.82 0 M34.82 0 C37.37 -0.56, 38.33 0.47, 38.57 3.74 M34.82 0 C38.14 0.72, 37.66 0.93, 38.57 3.74 M38.57 3.74 C38.56 5.72, 38.7 7.84, 38.57 11.23 M38.57 3.74 C38.42 6.35, 38.67 9.28, 38.57 11.23 M38.57 11.23 C38.02 14.55, 36.33 15.9, 34.82 14.98 M38.57 11.23 C38.44 13.22, 38.07 15.29, 34.82 14.98 M34.82 14.98 C25.17 15, 17.4 14.92, 3.74 14.98 M34.82 14.98 C26.39 15.14, 18.38 14.93, 3.74 14.98 M3.74 14.98 C1.19 14.84, 0.35 13.61, 0 11.23 M3.74 14.98 C1.66 13.92, -0.63 14.64, 0 11.23 M0 11.23 C-0.3 9.24, 0.35 8.17, 0 3.74 M0 11.23 C-0.11 8.26, -0.04 5.35, 0 3.74 M0 3.74 C-0.6 0.66, 0.59 -0.72, 3.74 0 M0 3.74 C0.99 1.42, 0.21 -0.62, 3.74 0" stroke="#1e1e1e" stroke-width="2" fill="none"></path></g><g stroke-linecap="round" transform="translate(33.85397219967513 10) rotate(0 19.283203125 7.48828125)"><path d="M3.74 0 C13.09 -0.08, 17.79 -1.31, 34.82 0 C38.84 1.83, 38.9 1.78, 38.57 3.74 C39.17 7.47, 39.01 9.67, 38.57 11.23 C40.18 15.15, 39.21 12.69, 34.82 14.98 C24.89 13.13, 8.95 13.76, 3.74 14.98 C2.37 15.95, -1.63 16.01, 0 11.23 C-0.75 9.87, -0.26 7.64, 0 3.74 C-0.95 2.32, 0.59 -1.25, 3.74 0" stroke="none" stroke-width="0" fill="#868e96"></path><path d="M3.74 0 C13.23 0.29, 21.11 -1.05, 34.82 0 M3.74 0 C10.46 -0.12, 18.15 -0.17, 34.82 0 M34.82 0 C37.09 -0.78, 39.28 1.87, 38.57 3.74 M34.82 0 C36.41 -0.32, 38.06 0.99, 38.57 3.74 M38.57 3.74 C38.71 6.44, 38.78 8.63, 38.57 11.23 M38.57 3.74 C38.64 6.6, 38.44 9.24, 38.57 11.23 M38.57 11.23 C37.58 14.66, 37.21 14.53, 34.82 14.98 M38.57 11.23 C39.32 14.04, 37.24 15.8, 34.82 14.98 M34.82 14.98 C24.48 14.81, 12.09 14.05, 3.74 14.98 M34.82 14.98 C25.29 14.98, 16.19 14.96, 3.74 14.98 M3.74 14.98 C1.6 14.86, 0.36 12.81, 0 11.23 M3.74 14.98 C0.62 15.89, -0.86 13.04, 0 11.23 M0 11.23 C0.36 9.53, 0.39 7.43, 0 3.74 M0 11.23 C0 8.98, -0.1 6.5, 0 3.74 M0 3.74 C-0.66 0.52, 2.11 0.15, 3.74 0 M0 3.74 C-1.04 0.63, 0.49 0.72, 3.74 0" stroke="#343a40" stroke-width="2" fill="none"></path></g><g stroke-linecap="round" transform="translate(65.54540998228754 23.860949680865815) rotate(312.47556431009303 13.974609375 10.47265625)"><path d="M5.24 0 C8.9 -1.97, 14.43 2.26, 22.71 0 C26.67 0.73, 31.35 0.61, 27.95 5.24 C28.99 7.38, 29.24 10.48, 27.95 15.71 C30.57 16.03, 29.54 21.75, 22.71 20.95 C15.8 19.28, 13.81 21.9, 5.24 20.95 C-0.51 24.11, -1.63 18.09, 0 15.71 C-0.42 12.12, -0.53 8.43, 0 5.24 C-0.91 0.01, -0.91 2.25, 5.24 0" stroke="none" stroke-width="0" fill="#ffd8a8"></path><path d="M5.24 0 C11.72 -1.71, 17.16 -0.3, 22.71 0 M5.24 0 C9.34 -0.41, 13.15 -0.6, 22.71 0 M22.71 0 C27.64 1.25, 26.37 1.19, 27.95 5.24 M22.71 0 C25.19 -0.52, 28.54 1.73, 27.95 5.24 M27.95 5.24 C28.59 8.57, 28.58 11.06, 27.95 15.71 M27.95 5.24 C27.72 8.4, 27.49 11.18, 27.95 15.71 M27.95 15.71 C27.72 18.31, 27.51 21.48, 22.71 20.95 M27.95 15.71 C27.8 20.86, 27.57 19.74, 22.71 20.95 M22.71 20.95 C16.92 19.32, 12.47 19.79, 5.24 20.95 M22.71 20.95 C16.85 20.81, 11.41 20.83, 5.24 20.95 M5.24 20.95 C2.46 19.11, -1.1 20.79, 0 15.71 M5.24 20.95 C0.03 19.57, -0.71 17.2, 0 15.71 M0 15.71 C0.92 14.06, 0 10.66, 0 5.24 M0 15.71 C-0.31 12.29, -0.34 9.1, 0 5.24 M0 5.24 C1.73 2.04, -0.06 -1.08, 5.24 0 M0 5.24 C-1.53 3.18, 0.05 -0.38, 5.24 0" stroke="#1e1e1e" stroke-width="2" fill="none"></path></g><g stroke-linecap="round" transform="translate(27.716582684028936 38.54130475837155) rotate(312.47556431009303 25.4296875 23.859375)"><path d="M15.28 0.83 C20.22 -1.04, 28.93 0.21, 34.4 2.08 C39.87 3.94, 45.39 7.89, 48.1 12.03 C50.81 16.18, 51.64 22.03, 50.66 26.97 C49.68 31.9, 46.28 38.3, 42.22 41.66 C38.17 45.01, 31.88 47.08, 26.34 47.11 C20.8 47.14, 13.41 44.79, 8.98 41.85 C4.55 38.9, 0.73 34.5, -0.22 29.45 C-1.18 24.39, -0.09 16.48, 3.25 11.54 C6.58 6.6, 16.1 1.79, 19.77 -0.18 C23.45 -2.14, 25.13 -0.6, 25.27 -0.25 M35.42 3.21 C40.45 5.06, 47.16 9.42, 49.63 14.16 C52.1 18.91, 51.95 27.01, 50.24 31.66 C48.53 36.3, 43.73 39.19, 39.35 42.04 C34.98 44.9, 29.19 49.03, 23.97 48.79 C18.74 48.56, 11.84 44.32, 8.02 40.61 C4.19 36.9, 1.37 31.87, 1.01 26.54 C0.64 21.22, 2.58 12.92, 5.82 8.68 C9.07 4.44, 15.38 1.94, 20.46 1.09 C25.53 0.25, 33.85 3.5, 36.29 3.64 C38.73 3.77, 35.39 1.66, 35.11 1.91" stroke="none" stroke-width="0" fill="#ffd8a8"></path><path d="M23.33 0.1 C28.49 -0.4, 35.59 1.26, 39.92 4.4 C44.26 7.54, 47.87 14.05, 49.36 18.92 C50.85 23.8, 51.18 29.25, 48.85 33.64 C46.52 38.03, 40.51 43.04, 35.38 45.27 C30.25 47.5, 23.25 48.35, 18.07 47.02 C12.88 45.68, 7.19 41.44, 4.27 37.26 C1.35 33.08, -0.15 27.05, 0.54 21.94 C1.24 16.84, 4.24 10.42, 8.43 6.63 C12.62 2.85, 22.75 0.17, 25.68 -0.77 C28.62 -1.7, 25.96 0.6, 26.04 1.03 M35.47 1.34 C40.75 2.85, 46.78 8.81, 49.21 13.68 C51.63 18.55, 51.35 25.81, 50.04 30.58 C48.74 35.35, 45.78 39.24, 41.39 42.3 C36.99 45.35, 29.31 49.21, 23.69 48.91 C18.07 48.62, 11.79 44.27, 7.64 40.53 C3.49 36.79, -0.49 31.38, -1.22 26.48 C-1.94 21.58, 0.16 15.39, 3.29 11.11 C6.43 6.84, 12.23 2.38, 17.6 0.83 C22.98 -0.72, 32.49 1.57, 35.55 1.81 C38.61 2.05, 36.03 2.1, 35.97 2.27" stroke="#1e1e1e" stroke-width="2" fill="none"></path></g></svg>