<svg version="1.1" xmlns="http://www.w3.org/2000/svg" viewBox="0 0 108.28814535019205 127.12357954545405" width="108.28814535019205" height="127.12357954545405">
  <!-- svg-source:excalidraw -->
  
  <defs>
    <style class="style-fonts">
      @font-face {
        font-family: "Virgil";
        src: url("https://excalidraw.com/Virgil.woff2");
      }
      @font-face {
        font-family: "Cascadia";
        src: url("https://excalidraw.com/Cascadia.woff2");
      }
      @font-face {
        font-family: "Assistant";
        src: url("https://excalidraw.com/Assistant-Regular.woff2");
      }
    </style>
    
  </defs>
  <g stroke-linecap="round" transform="translate(13.026426600192053 24.85274621212011) rotate(0 42.630859375 38.322265625)"><path d="M19.16 0 C37.49 2.1, 48.73 2.81, 66.1 0 C79.68 -0.23, 88.4 3.86, 85.26 19.16 C86.29 26.23, 88.11 36.18, 85.26 57.48 C84.15 73.3, 75.97 78.67, 66.1 76.64 C54.92 75.42, 39.04 73.68, 19.16 76.64 C8.63 76.99, 1.01 66.77, 0 57.48 C-0.59 45.8, -2.58 41.51, 0 19.16 C1.41 5.13, 3.28 -3.22, 19.16 0" stroke="none" stroke-width="0" fill="#fd7e14"></path><path d="M19.16 0 C36.06 -0.51, 53.6 0.88, 66.1 0 M19.16 0 C33.91 0.39, 47.28 0.38, 66.1 0 M66.1 0 C77.34 -0.78, 86.33 8.36, 85.26 19.16 M66.1 0 C77.63 1.9, 82.98 8.52, 85.26 19.16 M85.26 19.16 C85.63 30.1, 86.53 42.48, 85.26 57.48 M85.26 19.16 C85.08 28.26, 84.32 38.13, 85.26 57.48 M85.26 57.48 C83.97 70.9, 77.97 76.47, 66.1 76.64 M85.26 57.48 C85.12 69.95, 79.69 76.38, 66.1 76.64 M66.1 76.64 C51.93 74.89, 33.39 75.77, 19.16 76.64 M66.1 76.64 C56.93 78.02, 46.71 77.14, 19.16 76.64 M19.16 76.64 C5.48 76.59, -0.19 70.83, 0 57.48 M19.16 76.64 C5 75.29, -1.52 68.59, 0 57.48 M0 57.48 C-1.14 41.35, 1.19 26.38, 0 19.16 M0 57.48 C0.18 46.61, -0.3 36.34, 0 19.16 M0 19.16 C1.41 6.65, 6.79 1.89, 19.16 0 M0 19.16 C-0.73 4.12, 7.89 1.82, 19.16 0" stroke="#1e1e1e" stroke-width="2" fill="none"></path></g><g stroke-linecap="round" transform="translate(36.694526404033695 102.14701704545405) rotate(0 19.283203125 7.48828125)"><path d="M3.74 0 C12.71 2.11, 26.82 -0.46, 34.82 0 C39.59 -1.82, 37.09 0.06, 38.57 3.74 C39.46 5.87, 38.3 9.71, 38.57 11.23 C36.47 15.19, 36.53 15.58, 34.82 14.98 C25.38 12.95, 20.06 15.12, 3.74 14.98 C1.98 12.46, -1.76 13.5, 0 11.23 C-0.7 9.72, 0.4 6.86, 0 3.74 C-2.24 -1.08, -0.21 1.28, 3.74 0" stroke="none" stroke-width="0" fill="#868e96"></path><path d="M3.74 0 C10.39 0.33, 17.48 0.23, 34.82 0 M3.74 0 C14.29 0.19, 24.43 -0.29, 34.82 0 M34.82 0 C37.85 0.98, 38.02 2.07, 38.57 3.74 M34.82 0 C36.18 1.07, 38.44 0.74, 38.57 3.74 M38.57 3.74 C38.85 6.7, 38.38 9.19, 38.57 11.23 M38.57 3.74 C38.39 6.61, 38.44 9.54, 38.57 11.23 M38.57 11.23 C38.11 13.64, 37.26 14.84, 34.82 14.98 M38.57 11.23 C38.97 13.59, 37.73 13.92, 34.82 14.98 M34.82 14.98 C26.61 14.55, 18.72 14.04, 3.74 14.98 M34.82 14.98 C23.12 15.17, 10.58 15.11, 3.74 14.98 M3.74 14.98 C1.15 15.26, -0.6 13.14, 0 11.23 M3.74 14.98 C0.49 14.14, 0.99 13.9, 0 11.23 M0 11.23 C0.25 9.39, -0.04 7.76, 0 3.74 M0 11.23 C-0.11 8.43, 0.14 5.43, 0 3.74 M0 3.74 C0.2 2.19, 0.93 -0.99, 3.74 0 M0 3.74 C0.75 2.16, 1.81 0.02, 3.74 0" stroke="#1e1e1e" stroke-width="2" fill="none"></path></g><g stroke-linecap="round" transform="translate(36.88039879986718 10) rotate(0 19.283203125 7.48828125)"><path d="M3.74 0 C15.92 -0.54, 29.19 -2.2, 34.82 0 C35.84 -1.19, 39.69 2.22, 38.57 3.74 C38.35 6.34, 37.87 7.85, 38.57 11.23 C37.78 14.33, 36.37 16.05, 34.82 14.98 C27.91 14.93, 18.48 12.16, 3.74 14.98 C-0.51 14.75, -0.8 13.26, 0 11.23 C0.45 9.22, -0.77 7.02, 0 3.74 C-1.46 2.53, -0.28 -1.52, 3.74 0" stroke="none" stroke-width="0" fill="#868e96"></path><path d="M3.74 0 C11.69 0.12, 20.05 0.66, 34.82 0 M3.74 0 C14.47 -0.28, 26.23 0.4, 34.82 0 M34.82 0 C36.78 0.83, 37.58 2.18, 38.57 3.74 M34.82 0 C37.19 -0.51, 39.32 1.56, 38.57 3.74 M38.57 3.74 C38.4 5.92, 38.9 8.09, 38.57 11.23 M38.57 3.74 C38.41 5.76, 38.45 7.63, 38.57 11.23 M38.57 11.23 C38.51 13.59, 37.67 14.86, 34.82 14.98 M38.57 11.23 C38.98 12.67, 36.69 15.89, 34.82 14.98 M34.82 14.98 C26.95 14.11, 21.69 15.76, 3.74 14.98 M34.82 14.98 C22.27 14.98, 10.12 15.13, 3.74 14.98 M3.74 14.98 C0.64 14.39, -0.66 13, 0 11.23 M3.74 14.98 C2.24 15.14, -1.04 13.11, 0 11.23 M0 11.23 C-0.08 9.15, 0.31 7.67, 0 3.74 M0 11.23 C0.16 9.01, 0.06 6.92, 0 3.74 M0 3.74 C-0.32 0.26, 1.9 0.79, 3.74 0 M0 3.74 C0.56 1.27, 1.96 0.63, 3.74 0" stroke="#343a40" stroke-width="2" fill="none"></path></g><g stroke-linecap="round" transform="translate(13.186373760761398 24.156708609438283) rotate(47.524435689906944 13.974609375 10.47265625)"><path d="M5.24 0 C14.84 -2.18, 17.17 -1.42, 22.71 0 C27.76 1.35, 25.7 4.91, 27.95 5.24 C26.37 8.97, 27.32 11.01, 27.95 15.71 C26.64 20.68, 25.29 19.21, 22.71 20.95 C19.64 17.93, 12.68 20.7, 5.24 20.95 C0.63 20.29, -2.77 16.56, 0 15.71 C-1.7 10.34, -1.13 9.28, 0 5.24 C-2.12 -0.36, 0.09 0.92, 5.24 0" stroke="none" stroke-width="0" fill="#ffd8a8"></path><path d="M5.24 0 C11.61 1.19, 17.62 0.01, 22.71 0 M5.24 0 C11.93 0.93, 17.22 0.79, 22.71 0 M22.71 0 C24.22 1.86, 27.72 0.86, 27.95 5.24 M22.71 0 C27.71 0.62, 27.8 3.4, 27.95 5.24 M27.95 5.24 C28.76 8.84, 27.48 11.81, 27.95 15.71 M27.95 5.24 C27.64 8.33, 27.85 11.44, 27.95 15.71 M27.95 15.71 C28.66 18.97, 26.92 19.11, 22.71 20.95 M27.95 15.71 C26.68 21.03, 24.48 19.57, 22.71 20.95 M22.71 20.95 C19.52 22.26, 15 21.87, 5.24 20.95 M22.71 20.95 C17.24 21.19, 11.4 20.43, 5.24 20.95 M5.24 20.95 C0.42 19.5, 1.73 19.49, 0 15.71 M5.24 20.95 C-0.33 19.7, -1.53 20.63, 0 15.71 M0 15.71 C0.95 13.16, 0.01 10.3, 0 5.24 M0 15.71 C0.03 12.45, -0.24 7.68, 0 5.24 M0 5.24 C1.31 3.33, 2.72 0.04, 5.24 0 M0 5.24 C1.42 3, 3.42 -2.02, 5.24 0" stroke="#1e1e1e" stroke-width="2" fill="none"></path></g><g stroke-linecap="round" transform="translate(28.10504480902 38.9230011869422) rotate(47.524435689906944 25.4296875 23.859375)"><path d="M14.94 1.66 C19.52 -0.78, 26.13 -1.52, 31.46 -0.18 C36.79 1.16, 43.7 5.51, 46.92 9.7 C50.14 13.88, 51.23 19.67, 50.79 24.92 C50.35 30.16, 48.05 37.35, 44.28 41.16 C40.51 44.98, 33.54 47.44, 28.18 47.8 C22.82 48.15, 16.82 46.09, 12.12 43.3 C7.42 40.51, 1.51 35.83, -0.01 31.05 C-1.53 26.27, -0.21 19.56, 3.01 14.61 C6.22 9.65, 15.61 3.56, 19.27 1.33 C22.94 -0.9, 25.06 0.79, 25.02 1.22 M27.22 -0.7 C32.3 -0.57, 39.14 4.37, 43.16 8.06 C47.19 11.75, 50.7 16.55, 51.37 21.43 C52.05 26.31, 50.62 32.86, 47.21 37.35 C43.81 41.83, 36.66 46.86, 30.94 48.32 C25.22 49.77, 17.79 48.5, 12.91 46.07 C8.03 43.64, 3.74 38.47, 1.67 33.75 C-0.4 29.03, -1.06 22.82, 0.49 17.73 C2.04 12.65, 6.54 6.03, 10.98 3.26 C15.43 0.48, 24.27 1.45, 27.16 1.09 C30.06 0.72, 28.46 0.97, 28.36 1.04" stroke="none" stroke-width="0" fill="#ffd8a8"></path><path d="M25.32 0.54 C30.57 0.32, 38.64 2.14, 42.98 5.21 C47.31 8.29, 50.47 13.87, 51.35 18.99 C52.22 24.1, 51.23 31.23, 48.24 35.9 C45.25 40.58, 38.67 45.32, 33.42 47.02 C28.17 48.73, 21.64 47.94, 16.74 46.12 C11.83 44.31, 6.79 40.61, 3.99 36.15 C1.18 31.7, -1.11 24.53, -0.09 19.38 C0.94 14.23, 4.82 8.5, 10.13 5.26 C15.44 2.02, 27.15 0.32, 31.78 -0.06 C36.41 -0.44, 37.92 2.53, 37.93 2.99 M24.85 -0.15 C30.11 -0.86, 37.35 0.21, 41.45 3.55 C45.54 6.89, 48.53 14.82, 49.43 19.89 C50.33 24.96, 49.32 29.86, 46.86 33.98 C44.41 38.1, 39.75 42.28, 34.7 44.6 C29.65 46.92, 21.47 48.99, 16.56 47.91 C11.65 46.83, 7.8 42.63, 5.23 38.13 C2.66 33.62, 0.74 26.19, 1.13 20.87 C1.52 15.56, 3.73 9.63, 7.57 6.23 C11.41 2.82, 21.53 1.55, 24.18 0.45 C26.82 -0.65, 23.56 -0.53, 23.44 -0.38" stroke="#1e1e1e" stroke-width="2" fill="none"></path></g></svg>