<svg version="1.1" xmlns="http://www.w3.org/2000/svg" viewBox="0 0 105.26171875 129.23744184244413" width="105.26171875" height="129.23744184244413">
  <!-- svg-source:excalidraw -->
  
  <defs>
    <style class="style-fonts">
      @font-face {
        font-family: "Virgil";
        src: url("https://excalidraw.com/Virgil.woff2");
      }
      @font-face {
        font-family: "Cascadia";
        src: url("https://excalidraw.com/Cascadia.woff2");
      }
      @font-face {
        font-family: "Assistant";
        src: url("https://excalidraw.com/Assistant-Regular.woff2");
      }
    </style>
    
  </defs>
  <g stroke-linecap="round" transform="translate(10 26.966608509110188) rotate(0 42.630859375 38.322265625)"><path d="M19.16 0 C30.69 0.14, 44.68 -1.73, 66.1 0 C75.32 2.35, 88.11 8.14, 85.26 19.16 C88.31 27.57, 89.02 43.12, 85.26 57.48 C85.04 73.4, 76.35 74.6, 66.1 76.64 C51.92 80.12, 40.62 75.85, 19.16 76.64 C9.43 73.74, 2.03 69.17, 0 57.48 C-0.66 43.37, -2.41 34.97, 0 19.16 C0.34 7.4, 2.9 -2.43, 19.16 0" stroke="none" stroke-width="0" fill="#fd7e14"></path><path d="M19.16 0 C27.49 -1.85, 37.62 0.16, 66.1 0 M19.16 0 C31.34 0.99, 41.29 0.09, 66.1 0 M66.1 0 C77.99 -0.45, 85.78 6.37, 85.26 19.16 M66.1 0 C79.25 0.9, 86.87 7.71, 85.26 19.16 M85.26 19.16 C84.69 31.81, 87.45 41.24, 85.26 57.48 M85.26 19.16 C84.77 33.38, 85.54 48.76, 85.26 57.48 M85.26 57.48 C85.13 71.7, 80.06 75.6, 66.1 76.64 M85.26 57.48 C85.09 72.16, 78.53 75.74, 66.1 76.64 M66.1 76.64 C56.96 75.44, 46.35 76.22, 19.16 76.64 M66.1 76.64 C53.01 75.67, 38.65 77.39, 19.16 76.64 M19.16 76.64 C4.89 75.45, -0.62 68.52, 0 57.48 M19.16 76.64 C4.51 78.63, 1.92 72.48, 0 57.48 M0 57.48 C-0.09 43.45, 0.54 28.6, 0 19.16 M0 57.48 C1.12 48.38, -0.65 38.45, 0 19.16 M0 19.16 C-1.33 7.63, 4.91 -0.33, 19.16 0 M0 19.16 C-2.07 8.44, 6 -0.01, 19.16 0" stroke="#1e1e1e" stroke-width="2" fill="none"></path></g><g stroke-linecap="round" transform="translate(33.66809980384164 104.26087934244413) rotate(0 19.283203125 7.48828125)"><path d="M3.74 0 C17.71 -0.9, 24.19 1.61, 34.82 0 C39.37 1.26, 38.62 2.86, 38.57 3.74 C39.54 6.62, 38.58 9.9, 38.57 11.23 C36.74 12.25, 36.13 16.1, 34.82 14.98 C23.16 14.53, 16.04 13.24, 3.74 14.98 C2.71 14.19, 0.6 12.78, 0 11.23 C-0.69 9.29, 0.12 6.4, 0 3.74 C-2.52 -0.51, 1.02 -0.8, 3.74 0" stroke="none" stroke-width="0" fill="#868e96"></path><path d="M3.74 0 C12.21 0.2, 21.03 -0.08, 34.82 0 M3.74 0 C10.26 -0.23, 17.35 -0.21, 34.82 0 M34.82 0 C37.58 -0.01, 38.73 1.64, 38.57 3.74 M34.82 0 C38.12 0.66, 38.59 1.9, 38.57 3.74 M38.57 3.74 C38.92 5.21, 38.86 6.71, 38.57 11.23 M38.57 3.74 C38.68 6.74, 38.55 9.76, 38.57 11.23 M38.57 11.23 C39.16 13.2, 37.24 15.81, 34.82 14.98 M38.57 11.23 C38.39 13.28, 36.27 14.97, 34.82 14.98 M34.82 14.98 C27.43 14.85, 20.07 15.26, 3.74 14.98 M34.82 14.98 C25.58 15.23, 16.52 14.54, 3.74 14.98 M3.74 14.98 C0.94 14.11, -0.82 14.59, 0 11.23 M3.74 14.98 C2.21 16.09, 0.7 13.83, 0 11.23 M0 11.23 C0.11 9.1, -0.22 7.17, 0 3.74 M0 11.23 C-0.2 9.43, -0.16 7.94, 0 3.74 M0 3.74 C-0.74 1.08, 0.35 0.89, 3.74 0 M0 3.74 C-0.19 1.24, 0.51 0.67, 3.74 0" stroke="#1e1e1e" stroke-width="2" fill="none"></path></g><g stroke-linecap="round" transform="translate(33.85397219967513 12.113862296990078) rotate(0 19.283203125 7.48828125)"><path d="M3.74 0 C11.13 1.82, 25.71 1.39, 34.82 0 C37.37 1.61, 39.99 3.14, 38.57 3.74 C38.6 6.18, 37.97 6.37, 38.57 11.23 C37.37 14.85, 38.29 13.35, 34.82 14.98 C24.96 12.76, 12.18 14.07, 3.74 14.98 C1.85 14.03, 1.07 13.07, 0 11.23 C0.17 9.62, -0.87 6.8, 0 3.74 C-0.23 0.45, 0.78 -2, 3.74 0" stroke="none" stroke-width="0" fill="#868e96"></path><path d="M3.74 0 C9.54 -0.24, 15.68 0.71, 34.82 0 M3.74 0 C14.79 -0.07, 26.4 0.04, 34.82 0 M34.82 0 C37.48 0.39, 39.26 1.82, 38.57 3.74 M34.82 0 C37.34 0.65, 37.68 0.8, 38.57 3.74 M38.57 3.74 C38.91 6.02, 38.95 9, 38.57 11.23 M38.57 3.74 C38.58 5.79, 38.7 7.48, 38.57 11.23 M38.57 11.23 C38.49 14.56, 37.17 14.59, 34.82 14.98 M38.57 11.23 C37.51 13.72, 36.57 15.35, 34.82 14.98 M34.82 14.98 C26.77 15.32, 18.87 15.32, 3.74 14.98 M34.82 14.98 C27.98 14.8, 21.73 14.67, 3.74 14.98 M3.74 14.98 C0.43 15.84, 0.83 14.69, 0 11.23 M3.74 14.98 C1.95 15.08, -0.52 13.7, 0 11.23 M0 11.23 C-0.23 8.81, -0.28 7.21, 0 3.74 M0 11.23 C-0.09 8.99, -0.1 6.49, 0 3.74 M0 3.74 C-0.9 2.14, 1.08 0, 3.74 0 M0 3.74 C-0.74 1.92, 2.06 0.15, 3.74 0" stroke="#343a40" stroke-width="2" fill="none"></path></g><g stroke-linecap="round" transform="translate(39.196555311685415 13.626040698085376) rotate(269.315648468081 13.974609375 10.47265625)"><path d="M5.24 0 C12.41 1.33, 14.68 1.74, 22.71 0 C28.17 2.63, 24.78 5.08, 27.95 5.24 C26.62 7.54, 27.07 12.8, 27.95 15.71 C29.3 16.95, 29.37 19.32, 22.71 20.95 C19.78 19.74, 14.03 19.55, 5.24 20.95 C3.23 20.03, -1.74 16.54, 0 15.71 C-1.84 10.64, -0.18 7.54, 0 5.24 C-0.65 -1.03, -0.89 1.85, 5.24 0" stroke="none" stroke-width="0" fill="#ffd8a8"></path><path d="M5.24 0 C9.21 1.29, 16.98 -1.34, 22.71 0 M5.24 0 C10.22 0.03, 14.9 0.38, 22.71 0 M22.71 0 C27.6 1.15, 27.99 2.88, 27.95 5.24 M22.71 0 C24.43 -0.9, 29.18 4.01, 27.95 5.24 M27.95 5.24 C29.01 7.69, 27.57 11.07, 27.95 15.71 M27.95 5.24 C28.25 8.39, 27.9 12.52, 27.95 15.71 M27.95 15.71 C27.65 18.42, 24.37 20.93, 22.71 20.95 M27.95 15.71 C26.46 19.94, 25.16 20.74, 22.71 20.95 M22.71 20.95 C17.37 21.63, 10.83 20.05, 5.24 20.95 M22.71 20.95 C15.81 20.08, 8.73 21.6, 5.24 20.95 M5.24 20.95 C3.41 22.88, 1.22 19.37, 0 15.71 M5.24 20.95 C0.7 20.88, -0.22 19.86, 0 15.71 M0 15.71 C-0.7 14.11, 0.21 9.74, 0 5.24 M0 15.71 C-0.32 13.05, -0.4 11.03, 0 5.24 M0 5.24 C-0.34 1.74, 0.46 1.17, 5.24 0 M0 5.24 C1.62 2.04, 2.21 2.17, 5.24 0" stroke="#1e1e1e" stroke-width="2" fill="none"></path></g><g stroke-linecap="round" transform="translate(27.73856026785711 38.740472132401806) rotate(269.315648468081 25.4296875 23.859375)"><path d="M19.97 0.01 C24.85 -1.48, 31.67 -0.63, 36.36 1.93 C41.05 4.49, 45.85 10.72, 48.1 15.38 C50.36 20.04, 51.46 25.27, 49.9 29.91 C48.34 34.54, 43.25 40.38, 38.76 43.19 C34.27 46.01, 28.33 47.46, 22.98 46.81 C17.63 46.15, 10.36 42.89, 6.68 39.25 C3.01 35.61, 1.19 30.03, 0.93 24.96 C0.66 19.9, 1.11 12.92, 5.1 8.88 C9.09 4.84, 20.9 2.05, 24.88 0.73 C28.87 -0.6, 28.93 0.68, 29.01 0.91 M14.11 2.88 C18.51 0.25, 26.13 0.5, 31.53 1.32 C36.92 2.13, 43.03 3.83, 46.49 7.76 C49.94 11.69, 52.6 19.36, 52.24 24.91 C51.87 30.46, 48.35 37.43, 44.32 41.05 C40.28 44.67, 33.53 45.99, 28.04 46.62 C22.55 47.25, 15.74 47.51, 11.37 44.8 C7 42.1, 3.22 35.48, 1.84 30.4 C0.47 25.33, 1.28 18.73, 3.12 14.35 C4.97 9.97, 11.37 5.82, 12.92 4.11 C14.47 2.41, 12.21 3.91, 12.41 4.11" stroke="none" stroke-width="0" fill="#ffd8a8"></path><path d="M15.43 2.09 C20.12 0.04, 27.72 -0.35, 33.02 1.25 C38.32 2.86, 44.21 7.42, 47.24 11.7 C50.27 15.98, 51.89 22.12, 51.22 26.95 C50.55 31.77, 47.38 37.1, 43.21 40.65 C39.04 44.2, 31.57 47.96, 26.2 48.23 C20.82 48.5, 15.1 45.63, 10.97 42.27 C6.85 38.92, 2.64 33, 1.44 28.08 C0.24 23.16, 0.4 17.31, 3.78 12.77 C7.16 8.23, 17.5 2.88, 21.72 0.85 C25.94 -1.17, 28.86 0.25, 29.1 0.63 M18.62 0.23 C23.32 -1.53, 29.99 -0.12, 34.8 2.22 C39.61 4.56, 45.08 9.64, 47.5 14.26 C49.92 18.87, 50.58 25.08, 49.32 29.9 C48.05 34.72, 44.19 40.27, 39.93 43.2 C35.67 46.13, 29.07 48.09, 23.75 47.45 C18.43 46.81, 12.07 42.74, 7.99 39.36 C3.91 35.97, 0.02 32.15, -0.73 27.14 C-1.48 22.13, 0.29 13.89, 3.47 9.28 C6.66 4.68, 16 0.63, 18.38 -0.49 C20.76 -1.61, 17.35 1.73, 17.75 2.57" stroke="#1e1e1e" stroke-width="2" fill="none"></path></g></svg>