<svg version="1.1" xmlns="http://www.w3.org/2000/svg" viewBox="0 0 105.26171875 127.84067844958362" width="105.26171875" height="127.84067844958362">
  <!-- svg-source:excalidraw -->
  
  <defs>
    <style class="style-fonts">
      @font-face {
        font-family: "Virgil";
        src: url("https://excalidraw.com/Virgil.woff2");
      }
      @font-face {
        font-family: "Cascadia";
        src: url("https://excalidraw.com/Cascadia.woff2");
      }
      @font-face {
        font-family: "Assistant";
        src: url("https://excalidraw.com/Assistant-Regular.woff2");
      }
    </style>
    
  </defs>
  <g stroke-linecap="round" transform="translate(10 24.85274621212011) rotate(0 42.630859375 38.322265625)"><path d="M19.16 0 C31.26 0.5, 47.11 0.16, 66.1 0 C76.1 -2.64, 87.11 7.8, 85.26 19.16 C82.65 31.1, 82.55 37.38, 85.26 57.48 C83.61 71.18, 82.02 80.22, 66.1 76.64 C59.31 78.88, 43.68 72.64, 19.16 76.64 C6.75 79.04, 3.41 69.94, 0 57.48 C-0.07 45.73, -0.97 28.74, 0 19.16 C-2.99 4.7, 4.43 3.1, 19.16 0" stroke="none" stroke-width="0" fill="#fd7e14"></path><path d="M19.16 0 C32.11 -1.76, 46.62 -1.23, 66.1 0 M19.16 0 C34.7 -0.09, 50.71 -0.08, 66.1 0 M66.1 0 C79.59 -1.84, 84.16 7.98, 85.26 19.16 M66.1 0 C77.16 -1.37, 84.55 4.39, 85.26 19.16 M85.26 19.16 C87.53 28.75, 85.76 34.98, 85.26 57.48 M85.26 19.16 C84.62 29.96, 84.56 41.22, 85.26 57.48 M85.26 57.48 C86.99 70.55, 77.07 75.56, 66.1 76.64 M85.26 57.48 C83.74 71.69, 77.18 76.27, 66.1 76.64 M66.1 76.64 C56.23 75.28, 47.55 77.97, 19.16 76.64 M66.1 76.64 C51.1 76.1, 37.37 77.88, 19.16 76.64 M19.16 76.64 C7.36 76.69, 1.24 71.35, 0 57.48 M19.16 76.64 C8.06 74.62, 2.13 70.77, 0 57.48 M0 57.48 C-1.47 45.31, 0.53 35.72, 0 19.16 M0 57.48 C-0.65 49.23, -1.14 39.85, 0 19.16 M0 19.16 C-0.6 6.85, 5.66 0.82, 19.16 0 M0 19.16 C-0.58 5.28, 4.69 1.44, 19.16 0" stroke="#1e1e1e" stroke-width="2" fill="none"></path></g><g stroke-linecap="round" transform="translate(33.86899266098408 102.14701704545405) rotate(0 19.283203125 7.48828125)"><path d="M3.74 0 C9.26 -0.44, 14.38 -1.87, 34.82 0 C38.65 1.02, 37.66 -0.99, 38.57 3.74 C37.94 4.75, 38.07 7.14, 38.57 11.23 C40.84 16.31, 35.23 15.05, 34.82 14.98 C26.6 12.88, 21.25 17.03, 3.74 14.98 C3.71 14.75, 1.78 16.33, 0 11.23 C-0.09 9.42, -0.83 7.41, 0 3.74 C-1.41 3.49, -1.01 1.07, 3.74 0" stroke="none" stroke-width="0" fill="#868e96"></path><path d="M3.74 0 C12.59 -0.51, 21.78 -0.31, 34.82 0 M3.74 0 C12.97 -0.04, 22.03 -0.44, 34.82 0 M34.82 0 C36.77 0.8, 37.82 0.65, 38.57 3.74 M34.82 0 C36.96 -1, 37.63 2.24, 38.57 3.74 M38.57 3.74 C38.63 6.44, 38.59 9.45, 38.57 11.23 M38.57 3.74 C38.42 6.07, 38.71 8.69, 38.57 11.23 M38.57 11.23 C37.66 13.19, 36.66 15.6, 34.82 14.98 M38.57 11.23 C37.72 13.54, 36.29 16, 34.82 14.98 M34.82 14.98 C26.61 15.58, 17.36 15.08, 3.74 14.98 M34.82 14.98 C22.89 15.22, 10.55 14.83, 3.74 14.98 M3.74 14.98 C1.87 15.52, 0.73 12.85, 0 11.23 M3.74 14.98 C2.31 15.23, -0.07 14.73, 0 11.23 M0 11.23 C0.18 9.65, -0.21 8.12, 0 3.74 M0 11.23 C-0.14 9.43, -0.04 7.46, 0 3.74 M0 3.74 C-0.36 1.66, 0.99 -0.48, 3.74 0 M0 3.74 C-0.85 1.97, 1.36 0.32, 3.74 0" stroke="#1e1e1e" stroke-width="2" fill="none"></path></g><g stroke-linecap="round" transform="translate(34.05486505681802 10) rotate(0 19.283203125 7.48828125)"><path d="M3.74 0 C10.79 -1.83, 23.18 1.1, 34.82 0 C36.41 -2.24, 36.24 -0.21, 38.57 3.74 C38.06 6.61, 39.36 9.94, 38.57 11.23 C36.48 13.8, 35.31 17.52, 34.82 14.98 C23.27 16.33, 13.65 14.37, 3.74 14.98 C3.03 17.57, -1.96 14.18, 0 11.23 C-0.8 8.04, -0.52 6.59, 0 3.74 C-2.26 2.31, 0.04 2.32, 3.74 0" stroke="none" stroke-width="0" fill="#868e96"></path><path d="M3.74 0 C10.55 -0.35, 16.62 0.04, 34.82 0 M3.74 0 C12.83 -0.44, 21.28 0.42, 34.82 0 M34.82 0 C36.57 -0.6, 38.26 0.38, 38.57 3.74 M34.82 0 C36.38 0.99, 39.52 2.36, 38.57 3.74 M38.57 3.74 C38.56 6.41, 38.68 8.93, 38.57 11.23 M38.57 3.74 C38.7 5.58, 38.37 7.26, 38.57 11.23 M38.57 11.23 C37.9 14.35, 36.58 14.81, 34.82 14.98 M38.57 11.23 C37.53 14.75, 37.12 14.97, 34.82 14.98 M34.82 14.98 C27.63 15.29, 21.12 14.77, 3.74 14.98 M34.82 14.98 C28.81 15.11, 22.62 15.37, 3.74 14.98 M3.74 14.98 C1.98 14.1, 0.93 13.95, 0 11.23 M3.74 14.98 C1.18 15.98, -0.81 13.08, 0 11.23 M0 11.23 C-0.25 9.66, -0.19 7.31, 0 3.74 M0 11.23 C-0.03 8.4, -0.04 5.55, 0 3.74 M0 3.74 C-0.25 0.77, 0.51 0.62, 3.74 0 M0 3.74 C0.11 1.57, 0.14 -0.78, 3.74 0" stroke="#343a40" stroke-width="2" fill="none"></path></g><g stroke-linecap="round" transform="translate(39.59834102597142 93.26932525149823) rotate(90.684351531919 13.974609375 10.47265625)"><path d="M5.24 0 C11.78 1.47, 13.99 -2.48, 22.71 0 C22.98 -2.02, 29.73 -0.38, 27.95 5.24 C29.51 9.64, 26.35 10.35, 27.95 15.71 C25.16 22.72, 29.09 19.14, 22.71 20.95 C22.08 20.88, 17.64 24.3, 5.24 20.95 C-0.97 21.56, 2.37 18.92, 0 15.71 C-0.87 14.33, -1.48 10.48, 0 5.24 C-1.67 4.96, -1.15 -0.01, 5.24 0" stroke="none" stroke-width="0" fill="#ffd8a8"></path><path d="M5.24 0 C9.19 -0.03, 13.22 0.7, 22.71 0 M5.24 0 C9.8 0.86, 14.66 -0.36, 22.71 0 M22.71 0 C25.58 -1.74, 26.32 3.47, 27.95 5.24 M22.71 0 C28.12 2.22, 29.35 1.94, 27.95 5.24 M27.95 5.24 C28.25 7.27, 27.33 9.87, 27.95 15.71 M27.95 5.24 C27.57 7.34, 27.69 10.33, 27.95 15.71 M27.95 15.71 C26.47 18.87, 24.41 22.73, 22.71 20.95 M27.95 15.71 C27.56 19.19, 24.72 22.29, 22.71 20.95 M22.71 20.95 C17.89 20.43, 8.05 22.12, 5.24 20.95 M22.71 20.95 C16.63 21.43, 10.1 20.18, 5.24 20.95 M5.24 20.95 C3.6 21.39, -0.13 20.95, 0 15.71 M5.24 20.95 C0.13 19.64, -1.06 20.19, 0 15.71 M0 15.71 C-0.41 11.85, 0.95 7.8, 0 5.24 M0 15.71 C-0.16 12.19, -0.1 7.99, 0 5.24 M0 5.24 C-1.48 2.99, 1.94 0.56, 5.24 0 M0 5.24 C-2.23 0.19, 1.54 -0.71, 5.24 0" stroke="#1e1e1e" stroke-width="2" fill="none"></path></g><g stroke-linecap="round" transform="translate(27.948939732143117 41.5338000671818) rotate(90.684351531919 25.4296875 23.859375)"><path d="M17.13 1.82 C21.87 0.09, 28.49 0.68, 33.47 2.31 C38.44 3.93, 44.01 7.45, 46.98 11.59 C49.96 15.74, 52.09 22.13, 51.32 27.16 C50.55 32.2, 46.64 38.45, 42.36 41.81 C38.09 45.18, 31.17 47.34, 25.69 47.35 C20.22 47.37, 13.82 45.25, 9.52 41.9 C5.22 38.56, 0.83 32.27, -0.09 27.3 C-1.01 22.32, 0.24 16.73, 4.01 12.05 C7.78 7.37, 18.66 1.15, 22.53 -0.78 C26.39 -2.7, 27.27 -0.02, 27.22 0.5 M16.47 1.22 C21.11 -1.23, 27.02 -1.97, 31.97 -0.18 C36.91 1.6, 43.18 7.52, 46.14 11.94 C49.1 16.35, 50.46 21.28, 49.73 26.28 C49 31.28, 45.46 38.14, 41.78 41.96 C38.1 45.78, 33.19 49.07, 27.66 49.19 C22.12 49.32, 13.3 45.87, 8.59 42.72 C3.88 39.57, 0.14 35.44, -0.6 30.31 C-1.34 25.18, 1.65 16.66, 4.17 11.93 C6.68 7.19, 12.33 3.28, 14.48 1.9 C16.63 0.51, 16.7 3.1, 17.07 3.61" stroke="none" stroke-width="0" fill="#ffd8a8"></path><path d="M28.98 -0.18 C34.29 0.19, 42.2 3.85, 45.74 7.82 C49.29 11.78, 50.55 18.5, 50.26 23.6 C49.97 28.7, 47.27 34.32, 44 38.42 C40.73 42.52, 35.71 47.08, 30.65 48.2 C25.59 49.31, 18.47 47.89, 13.63 45.11 C8.79 42.32, 3.62 36.44, 1.6 31.51 C-0.42 26.59, -0.38 20.38, 1.53 15.55 C3.43 10.73, 7.91 5.09, 13.05 2.56 C18.19 0.04, 28.7 0.26, 32.35 0.4 C35.99 0.54, 34.93 3.06, 34.92 3.4 M17.53 0.62 C22.37 -0.9, 29.53 1.32, 34.63 3.48 C39.73 5.64, 45.72 9.04, 48.13 13.58 C50.54 18.12, 50.23 25.73, 49.08 30.71 C47.94 35.69, 45.48 40.42, 41.25 43.48 C37.03 46.54, 29.43 49.74, 23.74 49.06 C18.05 48.38, 10.91 43.02, 7.13 39.4 C3.36 35.78, 1.42 32.17, 1.1 27.33 C0.77 22.5, 2.12 14.65, 5.2 10.38 C8.28 6.1, 17.12 3.41, 19.56 1.69 C22.01 -0.04, 19.67 -0.29, 19.86 0.01" stroke="#1e1e1e" stroke-width="2" fill="none"></path></g></svg>