<svg version="1.1" xmlns="http://www.w3.org/2000/svg" viewBox="0 0 117.68791852678555 127.12357954545405" width="117.68791852678555" height="127.12357954545405">
  <!-- svg-source:excalidraw -->
  
  <defs>
    <style class="style-fonts">
      @font-face {
        font-family: "Virgil";
        src: url("https://excalidraw.com/Virgil.woff2");
      }
      @font-face {
        font-family: "Cascadia";
        src: url("https://excalidraw.com/Cascadia.woff2");
      }
      @font-face {
        font-family: "Assistant";
        src: url("https://excalidraw.com/Assistant-Regular.woff2");
      }
    </style>
    
  </defs>
  <g stroke-linecap="round" transform="translate(10 24.562567640691668) rotate(0 42.630859375 38.322265625)"><path d="M19.16 0 C32.13 -2.1, 40.93 -2.3, 66.1 0 C76.27 3.11, 85.79 3.13, 85.26 19.16 C82.15 27.99, 81.57 41.21, 85.26 57.48 C84.65 70.25, 76.56 78.76, 66.1 76.64 C52.12 75.68, 27.79 79.17, 19.16 76.64 C9.23 78.4, 0.07 72.49, 0 57.48 C2.83 44.7, -0.73 33.45, 0 19.16 C-2.52 4.35, 4.74 1.56, 19.16 0" stroke="none" stroke-width="0" fill="#fd7e14"></path><path d="M19.16 0 C36.67 0.98, 51.16 -2.09, 66.1 0 M19.16 0 C34.06 -0.67, 48.75 -0.09, 66.1 0 M66.1 0 C78.48 -0.76, 86.77 7.95, 85.26 19.16 M66.1 0 C79.82 -0.11, 83.11 4.81, 85.26 19.16 M85.26 19.16 C84.08 30.26, 83.88 40.7, 85.26 57.48 M85.26 19.16 C84.75 27.41, 85.1 35.98, 85.26 57.48 M85.26 57.48 C85.78 70.24, 79.2 77.42, 66.1 76.64 M85.26 57.48 C86.87 71.58, 78.93 77.94, 66.1 76.64 M66.1 76.64 C57.6 75.81, 46.82 74.91, 19.16 76.64 M66.1 76.64 C48.32 76.71, 29.16 77.16, 19.16 76.64 M19.16 76.64 C7.58 75.6, -0.15 71.92, 0 57.48 M19.16 76.64 C6.04 75.74, -2.1 70.24, 0 57.48 M0 57.48 C-0.3 48.35, -0.39 40.16, 0 19.16 M0 57.48 C-0.69 47.23, -0.88 34.78, 0 19.16 M0 19.16 C-0.62 4.65, 4.75 1.73, 19.16 0 M0 19.16 C1.92 8.61, 7.79 0.2, 19.16 0" stroke="#1e1e1e" stroke-width="2" fill="none"></path></g><g stroke-linecap="round" transform="translate(33.66809980384164 102.14701704545405) rotate(0 19.283203125 7.48828125)"><path d="M3.74 0 C11.24 -1.47, 19.91 2.49, 34.82 0 C37.7 -2.35, 37.16 -0.48, 38.57 3.74 C37.62 7.32, 38.33 9.17, 38.57 11.23 C36.89 15.25, 39.15 15.31, 34.82 14.98 C22.3 16.55, 16.97 16.11, 3.74 14.98 C1.3 16.59, 1.42 15.62, 0 11.23 C-0.15 10.49, -0.77 7.5, 0 3.74 C-1.19 2.37, 2.22 -1.63, 3.74 0" stroke="none" stroke-width="0" fill="#868e96"></path><path d="M3.74 0 C15.69 -0.93, 28.57 -0.73, 34.82 0 M3.74 0 C12.14 0.01, 20.49 -0.07, 34.82 0 M34.82 0 C38.07 0.78, 38.98 1.2, 38.57 3.74 M34.82 0 C36.24 -0.79, 38.42 0.47, 38.57 3.74 M38.57 3.74 C38.34 5.19, 38.26 7.08, 38.57 11.23 M38.57 3.74 C38.45 6.42, 38.58 9.17, 38.57 11.23 M38.57 11.23 C38.73 14.12, 38.02 15.55, 34.82 14.98 M38.57 11.23 C38.59 14.38, 36.43 14.53, 34.82 14.98 M34.82 14.98 C24.66 13.9, 13.78 14.78, 3.74 14.98 M34.82 14.98 C26.84 15.38, 19.23 14.76, 3.74 14.98 M3.74 14.98 C1.17 15.81, -0.15 13.34, 0 11.23 M3.74 14.98 C0.2 14.97, -0.75 14.1, 0 11.23 M0 11.23 C-0.05 9.46, -0.04 7.55, 0 3.74 M0 11.23 C-0.12 9.56, -0.04 7.95, 0 3.74 M0 3.74 C-0.82 2.11, 2.08 0.97, 3.74 0 M0 3.74 C0.7 1.35, 0.72 -0.03, 3.74 0" stroke="#1e1e1e" stroke-width="2" fill="none"></path></g><g stroke-linecap="round" transform="translate(33.85397219967513 10) rotate(0 19.283203125 7.48828125)"><path d="M3.74 0 C9.3 2.52, 19.01 -2.08, 34.82 0 C35.91 -1.72, 40.19 -0.67, 38.57 3.74 C38.31 5.86, 37.85 8.56, 38.57 11.23 C40.39 14.07, 37.85 17.43, 34.82 14.98 C28.54 16.51, 18.19 16.85, 3.74 14.98 C2.67 16.87, -2.29 16.14, 0 11.23 C-0.68 8.27, -0.44 6.83, 0 3.74 C0.97 -0.38, 3.53 -1.17, 3.74 0" stroke="none" stroke-width="0" fill="#868e96"></path><path d="M3.74 0 C15.45 -0.49, 26.55 0.2, 34.82 0 M3.74 0 C10.48 -0.15, 17.79 0.43, 34.82 0 M34.82 0 C37.73 -0.05, 37.63 0.56, 38.57 3.74 M34.82 0 C37.17 -0.78, 37.47 0.72, 38.57 3.74 M38.57 3.74 C38.25 6.29, 38.78 8.01, 38.57 11.23 M38.57 3.74 C38.6 5.78, 38.58 7.9, 38.57 11.23 M38.57 11.23 C39.26 14.3, 37.34 15.54, 34.82 14.98 M38.57 11.23 C37.68 13.28, 37.93 16.11, 34.82 14.98 M34.82 14.98 C28.11 14.71, 19.11 15.48, 3.74 14.98 M34.82 14.98 C24.96 14.83, 14.46 15.5, 3.74 14.98 M3.74 14.98 C1.1 14.59, -0.91 13.72, 0 11.23 M3.74 14.98 C0.5 15.35, -0.52 13.63, 0 11.23 M0 11.23 C-0.04 9.16, -0.34 6.62, 0 3.74 M0 11.23 C-0.03 8.23, -0.12 5.71, 0 3.74 M0 3.74 C0.83 2.21, 1.86 0.09, 3.74 0 M0 3.74 C-0.52 1.22, 1.14 0.33, 3.74 0" stroke="#343a40" stroke-width="2" fill="none"></path></g><g stroke-linecap="round" transform="translate(79.73869977678555 52.35810673701235) rotate(0 13.974609375 10.47265625)"><path d="M5.24 0 C9.78 -3.12, 11.71 -2.36, 22.71 0 C28.45 -2.66, 27.36 -1.49, 27.95 5.24 C26.7 10.42, 29.24 13.63, 27.95 15.71 C28.68 22.6, 25.07 17.39, 22.71 20.95 C16.39 23.05, 11.66 23.39, 5.24 20.95 C-1.42 24.28, 0.81 18.97, 0 15.71 C-0.73 12.47, 0.84 6.42, 0 5.24 C3.16 0.12, 0.64 3.04, 5.24 0" stroke="none" stroke-width="0" fill="#ffd8a8"></path><path d="M5.24 0 C8.55 0.24, 11.47 0.01, 22.71 0 M5.24 0 C10.74 0.75, 15.29 0.03, 22.71 0 M22.71 0 C24.33 -1.37, 27.69 0.39, 27.95 5.24 M22.71 0 C24.01 -1.06, 28.06 0.46, 27.95 5.24 M27.95 5.24 C28.52 7.31, 27.58 10.57, 27.95 15.71 M27.95 5.24 C28.06 8.35, 28.34 11.35, 27.95 15.71 M27.95 15.71 C27.99 20.33, 24.66 20.16, 22.71 20.95 M27.95 15.71 C29.18 21.46, 24.95 22.85, 22.71 20.95 M22.71 20.95 C18.43 22.07, 16.16 20.81, 5.24 20.95 M22.71 20.95 C16.15 21.58, 9.58 20.51, 5.24 20.95 M5.24 20.95 C-0.08 20.93, -1.3 19.85, 0 15.71 M5.24 20.95 C0.71 20.74, -0.14 18.89, 0 15.71 M0 15.71 C-0.95 11.62, 0.85 7.9, 0 5.24 M0 15.71 C-0.4 13.64, 0.47 11.18, 0 5.24 M0 5.24 C1.22 1.92, 0.83 -0.06, 5.24 0 M0 5.24 C-0.22 2.4, 0.35 -1.35, 5.24 0" stroke="#1e1e1e" stroke-width="2" fill="none"></path></g><g stroke-linecap="round" transform="translate(29.939871651785552 38.31904423701235) rotate(0 25.4296875 23.859375)"><path d="M19.59 0.96 C24.56 -0.36, 32.15 0.79, 36.87 2.97 C41.6 5.14, 45.65 9.48, 47.93 14 C50.2 18.53, 52.08 25.18, 50.54 30.1 C49 35.03, 43.52 40.8, 38.67 43.57 C33.82 46.34, 26.61 47.16, 21.44 46.72 C16.28 46.29, 11.09 44.46, 7.68 40.95 C4.28 37.45, 1.41 31.02, 1 25.7 C0.59 20.38, 1.56 13.31, 5.22 9.03 C8.87 4.75, 19.38 1.54, 22.92 0.02 C26.47 -1.51, 26.54 -0.42, 26.48 -0.12 M15.06 0.74 C19.4 -1.15, 27.63 0.49, 32.81 2.27 C38 4.05, 43.45 6.95, 46.17 11.41 C48.9 15.87, 49.91 23.94, 49.18 29.02 C48.45 34.11, 45.84 38.66, 41.78 41.93 C37.72 45.19, 30.03 48.5, 24.8 48.6 C19.57 48.7, 14.41 45.68, 10.4 42.53 C6.39 39.39, 2.02 35.03, 0.75 29.73 C-0.52 24.43, -0.01 15.23, 2.77 10.73 C5.54 6.23, 14.97 4.19, 17.39 2.74 C19.82 1.29, 17.18 1.72, 17.32 2.03" stroke="none" stroke-width="0" fill="#ffd8a8"></path><path d="M24.37 0.76 C29.7 0.43, 37.71 2.69, 42.03 5.59 C46.35 8.49, 49.45 13.23, 50.3 18.15 C51.14 23.07, 49.8 30.61, 47.1 35.1 C44.4 39.59, 39.12 43.19, 34.09 45.1 C29.06 47, 22.06 48.04, 16.92 46.54 C11.77 45.04, 6.1 40.35, 3.2 36.11 C0.29 31.86, -1.5 26.21, -0.5 21.06 C0.5 15.91, 4.79 8.79, 9.19 5.21 C13.59 1.63, 22.88 0.3, 25.91 -0.43 C28.94 -1.16, 27.32 0.32, 27.35 0.82 M30.39 1.3 C35.16 1.7, 40.54 4.22, 44.09 8.31 C47.63 12.4, 51.71 20.41, 51.66 25.82 C51.6 31.24, 47.72 36.97, 43.76 40.81 C39.79 44.64, 33.12 48.36, 27.85 48.83 C22.57 49.3, 16.35 46.42, 12.1 43.61 C7.85 40.8, 4.09 36.51, 2.34 31.96 C0.6 27.42, -0.33 21.29, 1.62 16.32 C3.57 11.36, 9.29 4.61, 14.06 2.17 C18.83 -0.27, 27.58 2, 30.25 1.7 C32.91 1.39, 30.32 0.15, 30.03 0.33" stroke="#1e1e1e" stroke-width="2" fill="none"></path></g></svg>