<svg version="1.1" xmlns="http://www.w3.org/2000/svg" viewBox="0 0 107.56883731447806 127.12357954545405" width="107.56883731447806" height="127.12357954545405">
  <!-- svg-source:excalidraw -->
  
  <defs>
    <style class="style-fonts">
      @font-face {
        font-family: "Virgil";
        src: url("https://excalidraw.com/Virgil.woff2");
      }
      @font-face {
        font-family: "Cascadia";
        src: url("https://excalidraw.com/Cascadia.woff2");
      }
      @font-face {
        font-family: "Assistant";
        src: url("https://excalidraw.com/Assistant-Regular.woff2");
      }
    </style>
    
  </defs>
  <g stroke-linecap="round" transform="translate(10 24.85274621212011) rotate(0 42.630859375 38.322265625)"><path d="M19.16 0 C31.86 -1.29, 52.79 -1.39, 66.1 0 C76.77 -1.65, 86.18 9.53, 85.26 19.16 C81.92 37.99, 87.59 47.97, 85.26 57.48 C81.91 70.62, 81.27 80.06, 66.1 76.64 C49.72 78.11, 41.13 77.2, 19.16 76.64 C5.9 73.65, -1.69 68.3, 0 57.48 C-1.07 45.9, -2.3 27.88, 0 19.16 C0 3.53, 4.22 2.13, 19.16 0" stroke="none" stroke-width="0" fill="#fd7e14"></path><path d="M19.16 0 C32.73 0.55, 44.92 -1.27, 66.1 0 M19.16 0 C36.67 -0.59, 53.98 1.14, 66.1 0 M66.1 0 C80.54 1.93, 86.48 6.56, 85.26 19.16 M66.1 0 C77.83 -0.06, 85.04 7.04, 85.26 19.16 M85.26 19.16 C83.59 30.07, 85.33 35.71, 85.26 57.48 M85.26 19.16 C84.27 28.42, 84.11 38.9, 85.26 57.48 M85.26 57.48 C84.92 70.25, 77.59 77.82, 66.1 76.64 M85.26 57.48 C86.88 70.56, 79.34 78.82, 66.1 76.64 M66.1 76.64 C55.08 77.92, 40.95 78.19, 19.16 76.64 M66.1 76.64 C50.38 76.46, 32.75 77.1, 19.16 76.64 M19.16 76.64 C4.99 75.51, -0.92 71.12, 0 57.48 M19.16 76.64 C7.25 75.21, 2.02 69.22, 0 57.48 M0 57.48 C0.8 46.56, 0.14 36.13, 0 19.16 M0 57.48 C-0.64 45.03, 0.19 31.62, 0 19.16 M0 19.16 C-1.93 5.04, 6.21 -0.62, 19.16 0 M0 19.16 C-0.42 4.62, 4.7 1.18, 19.16 0" stroke="#1e1e1e" stroke-width="2" fill="none"></path></g><g stroke-linecap="round" transform="translate(33.868992660984986 102.14701704545405) rotate(0 19.283203125 7.48828125)"><path d="M3.74 0 C11.67 -1.31, 15.52 -0.97, 34.82 0 C37.98 2.27, 41.15 -0.84, 38.57 3.74 C39.27 5.52, 37.58 8.38, 38.57 11.23 C40.3 16.19, 37.09 16.76, 34.82 14.98 C24.11 14.84, 9.61 12.89, 3.74 14.98 C0.03 13.56, 2.24 11.47, 0 11.23 C-0.74 8.68, 0.04 5.35, 0 3.74 C-1.56 2.79, 2.78 -0.93, 3.74 0" stroke="none" stroke-width="0" fill="#868e96"></path><path d="M3.74 0 C13.25 -0.61, 25.38 -0.8, 34.82 0 M3.74 0 C10.81 0.57, 19.1 0.62, 34.82 0 M34.82 0 C37.93 0.09, 38.11 1.22, 38.57 3.74 M34.82 0 C37.21 0.33, 37.87 0.57, 38.57 3.74 M38.57 3.74 C38.59 5.16, 38.34 7, 38.57 11.23 M38.57 3.74 C38.37 6.62, 38.51 9.17, 38.57 11.23 M38.57 11.23 C37.92 14.32, 38.02 15.11, 34.82 14.98 M38.57 11.23 C38.8 14.81, 36.95 13.84, 34.82 14.98 M34.82 14.98 C23.49 15.67, 12.66 15.78, 3.74 14.98 M34.82 14.98 C28.2 15.45, 21.29 14.73, 3.74 14.98 M3.74 14.98 C0.79 15.41, 0.37 13.1, 0 11.23 M3.74 14.98 C2.26 14.46, -0.35 14.7, 0 11.23 M0 11.23 C0.07 9.45, 0.13 7.85, 0 3.74 M0 11.23 C0.05 9.4, -0.15 7.34, 0 3.74 M0 3.74 C-0.09 0.94, 1.07 -0.77, 3.74 0 M0 3.74 C-0.84 1.84, 1.7 -0.4, 3.74 0" stroke="#1e1e1e" stroke-width="2" fill="none"></path></g><g stroke-linecap="round" transform="translate(34.05486505681802 10) rotate(0 19.283203125 7.48828125)"><path d="M3.74 0 C9.8 -0.95, 19.56 2.51, 34.82 0 C39.9 -2.09, 38.64 -0.76, 38.57 3.74 C37.74 6.82, 39.29 10.62, 38.57 11.23 C38.34 15.51, 39.92 13.02, 34.82 14.98 C24.61 12.78, 13.89 13.53, 3.74 14.98 C3.49 12.72, 1.07 12.52, 0 11.23 C0.08 7.54, -0.51 5.98, 0 3.74 C1.53 0.32, 3.04 0.2, 3.74 0" stroke="none" stroke-width="0" fill="#868e96"></path><path d="M3.74 0 C14.97 -0.66, 24.01 -0.22, 34.82 0 M3.74 0 C10.78 0.35, 17.29 -0.09, 34.82 0 M34.82 0 C36.86 -0.03, 38.47 1.53, 38.57 3.74 M34.82 0 C36.62 -0.68, 37.81 0.41, 38.57 3.74 M38.57 3.74 C38.37 6.39, 38.81 9.26, 38.57 11.23 M38.57 3.74 C38.5 5.87, 38.41 8.1, 38.57 11.23 M38.57 11.23 C39.27 13.86, 37.52 15.92, 34.82 14.98 M38.57 11.23 C38.2 12.59, 38.07 15.89, 34.82 14.98 M34.82 14.98 C24.53 15.8, 12.27 16, 3.74 14.98 M34.82 14.98 C24.45 14.83, 14.55 15.33, 3.74 14.98 M3.74 14.98 C1.62 14.35, 0.88 13.28, 0 11.23 M3.74 14.98 C0.89 15.95, -0.93 14.38, 0 11.23 M0 11.23 C0.15 9.12, -0.19 6.92, 0 3.74 M0 11.23 C-0.18 8.39, -0.02 5.75, 0 3.74 M0 3.74 C-0.18 0.48, 0.51 0.51, 3.74 0 M0 3.74 C0.45 0.85, 0.26 -1.03, 3.74 0" stroke="#343a40" stroke-width="2" fill="none"></path></g><g stroke-linecap="round" transform="translate(66.43324480371666 79.23082182887265) rotate(47.524435689906944 13.974609375 10.47265625)"><path d="M5.24 0 C10.25 2.89, 16.79 -2.38, 22.71 0 C26.31 -2.79, 31.47 4.63, 27.95 5.24 C29.03 9.64, 27.61 11.77, 27.95 15.71 C31.55 16.49, 26.82 23.32, 22.71 20.95 C16.13 18.97, 15.21 17.95, 5.24 20.95 C3.22 19.28, 3.21 16.3, 0 15.71 C-1.13 13.68, 1.11 8.76, 0 5.24 C2.48 2.03, 5.17 2.32, 5.24 0" stroke="none" stroke-width="0" fill="#ffd8a8"></path><path d="M5.24 0 C8.48 -0.41, 12.28 -1.3, 22.71 0 M5.24 0 C12.52 -0.09, 18.34 -0.19, 22.71 0 M22.71 0 C26.01 0.57, 26.74 0.57, 27.95 5.24 M22.71 0 C24.68 -1.67, 29.94 2.08, 27.95 5.24 M27.95 5.24 C28.55 6.66, 27.72 8.69, 27.95 15.71 M27.95 5.24 C27.59 9.62, 28.3 13.45, 27.95 15.71 M27.95 15.71 C28.36 21.09, 25.57 18.97, 22.71 20.95 M27.95 15.71 C29.45 21.02, 27.32 20.99, 22.71 20.95 M22.71 20.95 C14.85 22.69, 10.45 20.96, 5.24 20.95 M22.71 20.95 C15.54 21.22, 9.5 20.3, 5.24 20.95 M5.24 20.95 C3.5 20.04, -0.62 20.89, 0 15.71 M5.24 20.95 C-0.11 22.24, -0.69 19.73, 0 15.71 M0 15.71 C-0.55 12.17, 0.61 10.29, 0 5.24 M0 15.71 C0.06 12.11, 0.01 8.43, 0 5.24 M0 5.24 C-1.47 2.77, 2.53 -0.7, 5.24 0 M0 5.24 C-1.98 -0.31, 0.45 1.14, 5.24 0" stroke="#1e1e1e" stroke-width="2" fill="none"></path></g><g stroke-linecap="round" transform="translate(28.604417505457604 38.00359175136691) rotate(47.524435689906944 25.4296875 23.859375)"><path d="M15.69 1.55 C20.29 -0.63, 28.14 -0.65, 33.24 0.78 C38.33 2.2, 43.24 5.75, 46.25 10.09 C49.26 14.43, 51.83 21.79, 51.3 26.82 C50.77 31.86, 47.28 36.85, 43.08 40.31 C38.89 43.78, 31.67 47.19, 26.13 47.6 C20.59 48, 14.22 45.93, 9.85 42.76 C5.48 39.58, 0.99 33.42, -0.11 28.53 C-1.21 23.65, -0.07 18.27, 3.27 13.46 C6.6 8.64, 16.39 1.89, 19.91 -0.36 C23.43 -2.62, 24.14 -0.52, 24.37 -0.08 M19.42 2.5 C24.2 0.75, 29.68 -0.03, 34.27 1.98 C38.86 4, 44.13 10.16, 46.98 14.6 C49.83 19.03, 52.67 23.83, 51.38 28.59 C50.09 33.34, 43.64 39.71, 39.24 43.13 C34.84 46.55, 30.2 49.25, 24.98 49.1 C19.75 48.96, 11.75 46.19, 7.87 42.26 C3.98 38.33, 2.25 30.61, 1.67 25.52 C1.1 20.44, 1.71 15.88, 4.43 11.76 C7.15 7.64, 15.9 2.64, 17.99 0.81 C20.09 -1.03, 17 0.13, 17.01 0.76" stroke="none" stroke-width="0" fill="#ffd8a8"></path><path d="M16.29 2.57 C20.79 0.15, 27.72 -0.8, 32.78 0.54 C37.83 1.88, 43.6 6.39, 46.63 10.63 C49.66 14.87, 51.7 21.01, 50.98 26 C50.26 30.98, 46.44 36.78, 42.32 40.53 C38.19 44.29, 31.53 48.28, 26.21 48.54 C20.9 48.8, 14.76 45.41, 10.42 42.11 C6.07 38.81, 1.34 33.67, 0.15 28.73 C-1.03 23.78, 0.63 17.12, 3.31 12.44 C6 7.76, 13.71 2.48, 16.26 0.65 C18.8 -1.18, 18.41 1.05, 18.59 1.46 M33.09 2.44 C37.88 3.27, 43.14 5.08, 46.24 9.32 C49.33 13.56, 52.1 22.54, 51.66 27.87 C51.21 33.2, 47.55 37.85, 43.57 41.28 C39.58 44.72, 33.16 48.44, 27.78 48.5 C22.4 48.56, 15.57 44.79, 11.29 41.64 C7 38.5, 3.5 34.18, 2.06 29.64 C0.62 25.1, 0.59 19.17, 2.64 14.41 C4.69 9.65, 9.45 3.2, 14.36 1.08 C19.27 -1.05, 28.95 1.76, 32.09 1.67 C35.23 1.58, 32.98 0.38, 33.2 0.54" stroke="#1e1e1e" stroke-width="2" fill="none"></path></g></svg>