<svg version="1.1" xmlns="http://www.w3.org/2000/svg" viewBox="0 0 116.60532924107065 127.12357954545405" width="116.60532924107065" height="127.12357954545405">
  <!-- svg-source:excalidraw -->
  
  <defs>
    <style class="style-fonts">
      @font-face {
        font-family: "Virgil";
        src: url("https://excalidraw.com/Virgil.woff2");
      }
      @font-face {
        font-family: "Cascadia";
        src: url("https://excalidraw.com/Cascadia.woff2");
      }
      @font-face {
        font-family: "Assistant";
        src: url("https://excalidraw.com/Assistant-Regular.woff2");
      }
    </style>
    
  </defs>
  <g stroke-linecap="round" transform="translate(21.34361049107065 24.85274621212011) rotate(0 42.630859375 38.322265625)"><path d="M19.16 0 C31.51 1.74, 38.49 3.55, 66.1 0 C77.25 -1.11, 88.3 3.48, 85.26 19.16 C83.74 34.29, 84.14 44.73, 85.26 57.48 C82.6 72.5, 79.22 77.66, 66.1 76.64 C55.45 75.92, 44.25 73.93, 19.16 76.64 C8.23 78.06, -1.25 67.16, 0 57.48 C-1.73 47.32, -1.26 42.27, 0 19.16 C3.15 9.97, 3.49 0.1, 19.16 0" stroke="none" stroke-width="0" fill="#fd7e14"></path><path d="M19.16 0 C37.65 -1.55, 53.09 1.06, 66.1 0 M19.16 0 C36.87 0.54, 56.45 -0.83, 66.1 0 M66.1 0 C80.19 0.54, 85.13 7.83, 85.26 19.16 M66.1 0 C80.24 -1.21, 85.09 8.29, 85.26 19.16 M85.26 19.16 C85.1 28.78, 85.76 40.09, 85.26 57.48 M85.26 19.16 C85.59 30.21, 85.6 40.57, 85.26 57.48 M85.26 57.48 C84.16 71.85, 77.38 75.45, 66.1 76.64 M85.26 57.48 C84.55 68.26, 77 78.63, 66.1 76.64 M66.1 76.64 C48.28 76.02, 30.06 76.74, 19.16 76.64 M66.1 76.64 C50.02 75.64, 36.12 76.51, 19.16 76.64 M19.16 76.64 C4.58 75.56, -1.33 71.5, 0 57.48 M19.16 76.64 C4.69 76.27, -2.07 72.31, 0 57.48 M0 57.48 C1.17 48.04, 0.26 36.19, 0 19.16 M0 57.48 C0.77 43.16, 0.61 27.27, 0 19.16 M0 19.16 C1.24 7.48, 7.85 -1.76, 19.16 0 M0 19.16 C2.13 6.9, 6.24 2.01, 19.16 0" stroke="#1e1e1e" stroke-width="2" fill="none"></path></g><g stroke-linecap="round" transform="translate(45.212603152055635 102.14701704545405) rotate(0 19.283203125 7.48828125)"><path d="M3.74 0 C10.02 2.13, 18.37 -0.95, 34.82 0 C39.51 -2.1, 40.03 0.46, 38.57 3.74 C38.28 5.69, 37.81 9.19, 38.57 11.23 C38.82 14.46, 34.8 13.22, 34.82 14.98 C23.77 13, 18.06 15.92, 3.74 14.98 C0.34 12.74, -2.33 12.27, 0 11.23 C-0.39 8.86, 0.91 6.97, 0 3.74 C-2.09 1.32, -0.76 2.54, 3.74 0" stroke="none" stroke-width="0" fill="#868e96"></path><path d="M3.74 0 C12.74 0.65, 23.51 -0.42, 34.82 0 M3.74 0 C15.58 -0.37, 27.86 -0.01, 34.82 0 M34.82 0 C37.25 0.72, 39.16 0.72, 38.57 3.74 M34.82 0 C37.23 0.95, 38.39 0.8, 38.57 3.74 M38.57 3.74 C38.69 5.14, 38.53 6.84, 38.57 11.23 M38.57 3.74 C38.65 5.72, 38.48 8.19, 38.57 11.23 M38.57 11.23 C37.82 13.13, 37.01 14.11, 34.82 14.98 M38.57 11.23 C37.63 14.72, 38.28 16.09, 34.82 14.98 M34.82 14.98 C23.57 14.81, 12.66 14.3, 3.74 14.98 M34.82 14.98 C27.76 14.94, 19.37 14.59, 3.74 14.98 M3.74 14.98 C0.58 15.6, -0.74 13.56, 0 11.23 M3.74 14.98 C0.21 16, -0.19 13.72, 0 11.23 M0 11.23 C0.03 9.54, 0.33 7.59, 0 3.74 M0 11.23 C0.07 9.73, 0.09 8.32, 0 3.74 M0 3.74 C0.73 0.37, 2.17 0.22, 3.74 0 M0 3.74 C-0.07 2.25, 0.44 -0.65, 3.74 0" stroke="#1e1e1e" stroke-width="2" fill="none"></path></g><g stroke-linecap="round" transform="translate(45.398475547888665 10) rotate(0 19.283203125 7.48828125)"><path d="M3.74 0 C13.06 -1.16, 26.91 -2.45, 34.82 0 C38.78 -0.79, 39.17 0.3, 38.57 3.74 C37.82 6.91, 38.63 9.13, 38.57 11.23 C36.05 11.97, 37.09 14.17, 34.82 14.98 C27.4 15.7, 16.4 12.44, 3.74 14.98 C-1.08 13.52, 1.28 12.2, 0 11.23 C0.9 10.39, -0.74 7.64, 0 3.74 C-2.01 3.79, 3.33 -1.3, 3.74 0" stroke="none" stroke-width="0" fill="#868e96"></path><path d="M3.74 0 C11.66 -0.63, 18.43 -1.07, 34.82 0 M3.74 0 C16.28 0.2, 28.13 0.43, 34.82 0 M34.82 0 C37.91 -0.52, 38.49 2.08, 38.57 3.74 M34.82 0 C37.14 -0.45, 37.51 1.24, 38.57 3.74 M38.57 3.74 C38.55 5.48, 38.53 7.4, 38.57 11.23 M38.57 3.74 C38.48 6.05, 38.44 7.95, 38.57 11.23 M38.57 11.23 C38.26 12.86, 36.5 15.84, 34.82 14.98 M38.57 11.23 C39.52 14.84, 38.02 15.08, 34.82 14.98 M34.82 14.98 C27.2 14.36, 18.42 14.3, 3.74 14.98 M34.82 14.98 C27.3 14.73, 20.35 15.31, 3.74 14.98 M3.74 14.98 C0.51 14.81, -0.9 14.62, 0 11.23 M3.74 14.98 C1.05 14.97, -0.74 14.4, 0 11.23 M0 11.23 C0.35 8.34, -0.37 5.93, 0 3.74 M0 11.23 C0.1 8.5, 0.12 5.39, 0 3.74 M0 3.74 C0.93 1.47, 1.19 0.87, 3.74 0 M0 3.74 C-0.81 0.6, 0.72 0.5, 3.74 0" stroke="#343a40" stroke-width="2" fill="none"></path></g><g stroke-linecap="round" transform="translate(10 53.475852272726115) rotate(0 13.974609375 10.47265625)"><path d="M5.24 0 C14.67 -2.44, 20.56 -0.85, 22.71 0 C27.03 -1.31, 29.43 0.83, 27.95 5.24 C27.99 8.4, 25.99 9.24, 27.95 15.71 C27.63 18.09, 25.55 18.17, 22.71 20.95 C17.65 18.36, 11.97 19.3, 5.24 20.95 C3.52 18.82, -2.1 17.55, 0 15.71 C-1.68 12.35, -1.62 10.73, 0 5.24 C2.89 -0.06, -1.61 0.36, 5.24 0" stroke="none" stroke-width="0" fill="#ffd8a8"></path><path d="M5.24 0 C12.86 -1.64, 19.21 -0.1, 22.71 0 M5.24 0 C9.65 0.58, 14.69 -0.5, 22.71 0 M22.71 0 C26.06 1.66, 27.65 0.96, 27.95 5.24 M22.71 0 C24.1 -0.02, 26.46 2.49, 27.95 5.24 M27.95 5.24 C27.8 8.27, 27.82 10.95, 27.95 15.71 M27.95 5.24 C27.5 7.1, 27.73 9.14, 27.95 15.71 M27.95 15.71 C26.32 20.93, 27.87 22.88, 22.71 20.95 M27.95 15.71 C29.35 19.4, 25.16 20.88, 22.71 20.95 M22.71 20.95 C16.61 19.68, 11.29 22.35, 5.24 20.95 M22.71 20.95 C16.64 21.4, 11.07 20.71, 5.24 20.95 M5.24 20.95 C-0.05 22.73, -0.34 19.19, 0 15.71 M5.24 20.95 C0.26 22.29, 1.62 19.5, 0 15.71 M0 15.71 C-1.13 13.04, 0.73 9.51, 0 5.24 M0 15.71 C0.32 12.08, 0.42 9.5, 0 5.24 M0 5.24 C-0.13 3.49, 0.34 -1.13, 5.24 0 M0 5.24 C-1.06 2.74, 2.61 -1.44, 5.24 0" stroke="#1e1e1e" stroke-width="2" fill="none"></path></g><g stroke-linecap="round" transform="translate(36.888671875 39.436789772726115) rotate(0 25.4296875 23.859375)"><path d="M17.51 1.43 C22.38 -0.57, 30.83 -0.6, 35.72 1.35 C40.6 3.3, 44.23 8.52, 46.8 13.15 C49.37 17.77, 52.06 24.12, 51.14 29.12 C50.21 34.13, 45.57 39.95, 41.26 43.16 C36.95 46.38, 30.88 48.53, 25.29 48.44 C19.69 48.35, 11.81 46.16, 7.68 42.64 C3.55 39.12, 1.01 32.63, 0.5 27.3 C-0.01 21.97, 1.38 15.23, 4.63 10.67 C7.89 6.12, 16.74 1.61, 20.02 -0.02 C23.31 -1.65, 24.27 0.28, 24.34 0.9 M18.53 1.45 C23.5 -0.09, 31.58 0.67, 36.55 2.96 C41.51 5.25, 46.17 10.65, 48.3 15.18 C50.44 19.71, 51.05 25.2, 49.36 30.14 C47.67 35.08, 42.63 41.85, 38.15 44.82 C33.66 47.79, 27.91 48.91, 22.45 47.96 C16.98 47.01, 9.12 42.99, 5.36 39.1 C1.6 35.21, -0.02 29.75, -0.1 24.62 C-0.18 19.49, 1.74 12.2, 4.87 8.32 C7.99 4.45, 16.04 2.67, 18.64 1.38 C21.23 0.08, 20.38 0.51, 20.44 0.55" stroke="none" stroke-width="0" fill="#ffd8a8"></path><path d="M24.26 -0.03 C29.61 -0.61, 37.14 2.28, 41.37 5.34 C45.6 8.4, 48.39 13.47, 49.66 18.32 C50.93 23.17, 51.4 30.03, 48.97 34.45 C46.53 38.88, 40.22 42.93, 35.07 44.87 C29.93 46.8, 23.19 47.45, 18.09 46.06 C12.99 44.66, 7.48 40.66, 4.48 36.49 C1.48 32.31, -0.48 25.93, 0.09 20.99 C0.65 16.05, 3.33 10.26, 7.87 6.83 C12.42 3.41, 23.68 1.49, 27.35 0.43 C31.02 -0.63, 29.76 0.26, 29.87 0.48 M16.73 2.35 C21.87 1.09, 31.21 1.54, 36.58 3.33 C41.96 5.13, 46.83 8.82, 48.99 13.13 C51.15 17.43, 50.93 24.12, 49.53 29.15 C48.14 34.18, 45 40.38, 40.62 43.32 C36.24 46.26, 28.81 47.32, 23.23 46.81 C17.65 46.29, 10.74 43.54, 7.12 40.25 C3.5 36.95, 2.22 32.05, 1.49 27.02 C0.76 21.99, 0.15 14.25, 2.73 10.08 C5.31 5.91, 14.59 3.46, 16.97 1.99 C19.34 0.52, 16.94 0.81, 17 1.26" stroke="#1e1e1e" stroke-width="2" fill="none"></path></g></svg>