<svg version="1.1" xmlns="http://www.w3.org/2000/svg" viewBox="0 0 117.68791852678555 127.12357954545405" width="117.68791852678555" height="127.12357954545405">
  <!-- svg-source:excalidraw -->
  
  <defs>
    <style class="style-fonts">
      @font-face {
        font-family: "Virgil";
        src: url("https://excalidraw.com/Virgil.woff2");
      }
      @font-face {
        font-family: "Cascadia";
        src: url("https://excalidraw.com/Cascadia.woff2");
      }
      @font-face {
        font-family: "Assistant";
        src: url("https://excalidraw.com/Assistant-Regular.woff2");
      }
    </style>
    
  </defs>
  <g stroke-linecap="round" transform="translate(10 24.562567640691668) rotate(0 42.630859375 38.322265625)"><path d="M19.16 0 C27.47 -0.26, 40.73 -0.78, 66.1 0 C77.51 2.71, 88.07 7.87, 85.26 19.16 C84.15 28.04, 81.18 40.14, 85.26 57.48 C85.43 68.25, 78.04 73.85, 66.1 76.64 C47.66 74.39, 30.39 76.9, 19.16 76.64 C6.36 77.23, 1.4 72.77, 0 57.48 C-2.79 42.37, 1.91 33.63, 0 19.16 C-1.96 9.36, 2.82 3.34, 19.16 0" stroke="none" stroke-width="0" fill="#fd7e14"></path><path d="M19.16 0 C35.36 -0.6, 48.49 -2.19, 66.1 0 M19.16 0 C28.94 -0.48, 39.38 -0.19, 66.1 0 M66.1 0 C78.81 -1.49, 84.29 5.84, 85.26 19.16 M66.1 0 C79.78 -1.95, 84.98 7.48, 85.26 19.16 M85.26 19.16 C86.07 33.69, 87.26 45.18, 85.26 57.48 M85.26 19.16 C85.92 27.91, 85.93 35.62, 85.26 57.48 M85.26 57.48 C86.84 68.9, 80.5 74.71, 66.1 76.64 M85.26 57.48 C86.22 71.16, 79.44 78.25, 66.1 76.64 M66.1 76.64 C49.6 77.24, 34 78.55, 19.16 76.64 M66.1 76.64 C54.9 76.34, 42.88 76.47, 19.16 76.64 M19.16 76.64 C5.93 76.11, 1.7 70.34, 0 57.48 M19.16 76.64 C7.08 76.79, 1.91 69.67, 0 57.48 M0 57.48 C1.71 42.54, -0.28 29.83, 0 19.16 M0 57.48 C0.36 48.47, -0.62 39.84, 0 19.16 M0 19.16 C0.98 6.57, 8.33 1.12, 19.16 0 M0 19.16 C1.64 5.5, 4.51 0.36, 19.16 0" stroke="#1e1e1e" stroke-width="2" fill="none"></path></g><g stroke-linecap="round" transform="translate(33.66809980384164 102.14701704545405) rotate(0 19.283203125 7.48828125)"><path d="M3.74 0 C12.71 -0.5, 21.88 1.98, 34.82 0 C39.35 1.07, 38.45 -1.18, 38.57 3.74 C37.62 5.03, 38.6 6.66, 38.57 11.23 C37.96 11.71, 39.18 16.6, 34.82 14.98 C27.36 15.47, 21.06 15.22, 3.74 14.98 C2.26 16.79, 1.49 13.79, 0 11.23 C0.6 9.52, -0.45 6.7, 0 3.74 C-2.58 3.66, 0.95 -1.15, 3.74 0" stroke="none" stroke-width="0" fill="#868e96"></path><path d="M3.74 0 C13.94 -0.94, 25.18 -0.8, 34.82 0 M3.74 0 C12.68 -0.03, 21.94 -0.29, 34.82 0 M34.82 0 C36.83 -0.28, 38.96 0.4, 38.57 3.74 M34.82 0 C37.18 0.55, 39.26 1.74, 38.57 3.74 M38.57 3.74 C38.92 6.27, 38.26 9.14, 38.57 11.23 M38.57 3.74 C38.78 5.27, 38.75 6.71, 38.57 11.23 M38.57 11.23 C39.38 12.76, 37.73 15.37, 34.82 14.98 M38.57 11.23 C38.85 14.53, 37.76 14.92, 34.82 14.98 M34.82 14.98 C23.7 15.83, 12.34 15.18, 3.74 14.98 M34.82 14.98 C26.81 14.99, 19.02 14.83, 3.74 14.98 M3.74 14.98 C2.1 15.02, 0.3 13.79, 0 11.23 M3.74 14.98 C2.2 14.68, 0.74 14.52, 0 11.23 M0 11.23 C-0.04 9.32, -0.34 7.13, 0 3.74 M0 11.23 C-0.16 8.11, 0.09 5.36, 0 3.74 M0 3.74 C0.97 1.81, 1.96 -0.39, 3.74 0 M0 3.74 C-0.94 1.43, 0.54 -0.33, 3.74 0" stroke="#1e1e1e" stroke-width="2" fill="none"></path></g><g stroke-linecap="round" transform="translate(33.85397219967513 10) rotate(0 19.283203125 7.48828125)"><path d="M3.74 0 C11.92 2.04, 24.09 1.15, 34.82 0 C37.2 -2.43, 36.78 0.91, 38.57 3.74 C38.52 4.94, 38.25 6.47, 38.57 11.23 C40.43 15.35, 35.27 14.26, 34.82 14.98 C26.85 15.51, 19.92 16.9, 3.74 14.98 C2.74 15.03, 1.47 11.73, 0 11.23 C-0.58 10.08, -1.02 8.23, 0 3.74 C-0.29 0.1, 2.95 0.7, 3.74 0" stroke="none" stroke-width="0" fill="#868e96"></path><path d="M3.74 0 C11.75 -0.67, 21.31 -0.36, 34.82 0 M3.74 0 C11.45 -0.34, 18.95 -0.1, 34.82 0 M34.82 0 C37.71 -0.85, 38.44 1.72, 38.57 3.74 M34.82 0 C38.02 0.49, 39.47 1.62, 38.57 3.74 M38.57 3.74 C38.29 5.99, 38.25 9.12, 38.57 11.23 M38.57 3.74 C38.75 6.21, 38.75 8.76, 38.57 11.23 M38.57 11.23 C38.98 14.12, 37.57 15.67, 34.82 14.98 M38.57 11.23 C39.01 13.67, 37.92 14.63, 34.82 14.98 M34.82 14.98 C24.39 15.28, 14.61 15.35, 3.74 14.98 M34.82 14.98 C25.63 14.85, 17.1 15, 3.74 14.98 M3.74 14.98 C1.55 15.04, 0.83 13.47, 0 11.23 M3.74 14.98 C1.98 15.77, -0.44 14.86, 0 11.23 M0 11.23 C-0.31 9.17, 0.35 7.54, 0 3.74 M0 11.23 C0.12 9.49, 0.21 7.82, 0 3.74 M0 3.74 C0.72 0.86, 0.43 0.16, 3.74 0 M0 3.74 C-0.71 0.92, 1.34 -0.92, 3.74 0" stroke="#343a40" stroke-width="2" fill="none"></path></g><g stroke-linecap="round" transform="translate(79.73869977678555 52.35810673701235) rotate(0 13.974609375 10.47265625)"><path d="M5.24 0 C12.59 1.06, 14.88 -3.18, 22.71 0 C23.73 -0.47, 25.51 -1.69, 27.95 5.24 C27.52 6.43, 29.31 11.73, 27.95 15.71 C25.11 18.21, 24.62 20.13, 22.71 20.95 C18.25 23.19, 13.13 21.07, 5.24 20.95 C3.78 18.17, -1.41 21.13, 0 15.71 C-1.77 13.29, -0.11 6.53, 0 5.24 C2.36 2.72, 1.52 2.59, 5.24 0" stroke="none" stroke-width="0" fill="#fcc2d7"></path><path d="M5.24 0 C8.68 -0.74, 11.46 -0.45, 22.71 0 M5.24 0 C9.67 -0.11, 15.28 -0.61, 22.71 0 M22.71 0 C25.96 0.95, 29.16 2.59, 27.95 5.24 M22.71 0 C28.01 0.75, 28.76 3.85, 27.95 5.24 M27.95 5.24 C26.88 8.51, 28.35 10.81, 27.95 15.71 M27.95 5.24 C28.46 7.76, 28.25 11.5, 27.95 15.71 M27.95 15.71 C28.44 20.59, 26.97 20.84, 22.71 20.95 M27.95 15.71 C29.16 18.5, 26.61 20.58, 22.71 20.95 M22.71 20.95 C15.19 21.41, 9.18 20.39, 5.24 20.95 M22.71 20.95 C18.13 20.93, 12.33 20.95, 5.24 20.95 M5.24 20.95 C3.4 20.44, 1.28 20.58, 0 15.71 M5.24 20.95 C0.86 23.21, -1.14 19.18, 0 15.71 M0 15.71 C1.06 12.62, -0.6 8.32, 0 5.24 M0 15.71 C0.46 13.84, 0.32 11.17, 0 5.24 M0 5.24 C-1.63 2.06, 0.51 -0.58, 5.24 0 M0 5.24 C0.18 -0.1, 1.62 -0.52, 5.24 0" stroke="#1e1e1e" stroke-width="2" fill="none"></path></g><g stroke-linecap="round" transform="translate(29.939871651785552 38.31904423701235) rotate(0 25.4296875 23.859375)"><path d="M20.56 0.56 C25.28 -0.66, 32.01 0.02, 36.93 2.5 C41.86 4.99, 48.12 10.75, 50.1 15.47 C52.08 20.19, 50.91 25.93, 48.82 30.81 C46.74 35.7, 42.15 41.87, 37.6 44.8 C33.06 47.73, 26.68 49.16, 21.55 48.4 C16.42 47.63, 10.46 44.39, 6.81 40.23 C3.15 36.08, -0.22 28.8, -0.38 23.47 C-0.55 18.13, 1.24 12.12, 5.82 8.23 C10.4 4.35, 22.54 1.22, 27.09 0.15 C31.63 -0.92, 33.09 1.45, 33.07 1.81 M21.25 0.36 C25.85 -1.22, 31.78 -0.34, 36.41 1.99 C41.03 4.32, 47.06 9.51, 49 14.34 C50.93 19.18, 49.76 26.13, 48.02 30.99 C46.28 35.85, 43.04 40.96, 38.55 43.5 C34.05 46.05, 26.26 46.77, 21.04 46.25 C15.83 45.74, 10.98 44.15, 7.27 40.41 C3.57 36.66, -0.81 29.13, -1.18 23.81 C-1.55 18.48, 1.34 12.36, 5.05 8.46 C8.75 4.56, 18.37 1.58, 21.02 0.42 C23.68 -0.75, 20.79 0.95, 20.98 1.48" stroke="none" stroke-width="0" fill="#fcc2d7"></path><path d="M20.38 -0.14 C25.42 -1.19, 33.28 1.01, 37.97 3.65 C42.66 6.28, 46.55 10.83, 48.52 15.68 C50.48 20.53, 51.44 27.78, 49.76 32.73 C48.09 37.68, 43.22 42.87, 38.47 45.36 C33.71 47.86, 26.5 48.87, 21.22 47.69 C15.94 46.51, 10.47 42.41, 6.79 38.3 C3.11 34.19, -0.55 27.85, -0.84 23.03 C-1.12 18.21, 1.04 13.04, 5.09 9.37 C9.13 5.71, 20.16 2.41, 23.44 1.06 C26.71 -0.29, 24.87 0.9, 24.72 1.27 M13.97 3.78 C18.39 1.14, 26.02 -0.37, 31.41 0.47 C36.81 1.3, 43.05 4.79, 46.33 8.8 C49.61 12.82, 51.24 19.52, 51.1 24.57 C50.96 29.61, 49.16 35.36, 45.49 39.07 C41.83 42.77, 34.65 45.98, 29.11 46.79 C23.56 47.6, 16.96 46.51, 12.22 43.91 C7.49 41.31, 2.48 36.11, 0.7 31.19 C-1.08 26.28, -0.81 19.15, 1.55 14.42 C3.91 9.68, 12.75 4.66, 14.87 2.8 C16.99 0.94, 14.09 2.98, 14.28 3.26" stroke="#1e1e1e" stroke-width="2" fill="none"></path></g></svg>