<svg version="1.1" xmlns="http://www.w3.org/2000/svg" viewBox="0 0 106.68100249304894 127.12357954545405" width="106.68100249304894" height="127.12357954545405">
  <!-- svg-source:excalidraw -->
  
  <defs>
    <style class="style-fonts">
      @font-face {
        font-family: "Virgil";
        src: url("https://excalidraw.com/Virgil.woff2");
      }
      @font-face {
        font-family: "Cascadia";
        src: url("https://excalidraw.com/Cascadia.woff2");
      }
      @font-face {
        font-family: "Assistant";
        src: url("https://excalidraw.com/Assistant-Regular.woff2");
      }
    </style>
    
  </defs>
  <g stroke-linecap="round" transform="translate(10 24.562567640692578) rotate(0 42.630859375 38.322265625)"><path d="M19.16 0 C32.7 0.33, 48.74 -2.65, 66.1 0 C77.22 0.17, 83.25 5.55, 85.26 19.16 C82.91 26.69, 84.17 35.39, 85.26 57.48 C86.19 70.23, 79.46 78.05, 66.1 76.64 C50.78 73.89, 29.97 78.59, 19.16 76.64 C9.93 74.69, 2.97 66.69, 0 57.48 C2.44 43.4, -0.15 29.97, 0 19.16 C2.14 4.5, 6.12 2.99, 19.16 0" stroke="none" stroke-width="0" fill="#fd7e14"></path><path d="M19.16 0 C30.42 0.1, 41.08 -0.81, 66.1 0 M19.16 0 C31.83 0.87, 45.35 0.82, 66.1 0 M66.1 0 C80.44 0.65, 85.97 8.22, 85.26 19.16 M66.1 0 C77 -1.93, 83.61 4.23, 85.26 19.16 M85.26 19.16 C85.23 35.82, 84.09 50.95, 85.26 57.48 M85.26 19.16 C85.67 27.64, 85.81 34.68, 85.26 57.48 M85.26 57.48 C86.31 69.65, 79.23 76.33, 66.1 76.64 M85.26 57.48 C87.17 68.97, 79.27 75.55, 66.1 76.64 M66.1 76.64 C50.95 76.03, 35.08 78.18, 19.16 76.64 M66.1 76.64 C52.66 76.42, 38.2 77.37, 19.16 76.64 M19.16 76.64 C5.62 78.62, -0.99 70.24, 0 57.48 M19.16 76.64 C6.67 74.76, -1.11 72.4, 0 57.48 M0 57.48 C-1.61 46.31, 0.43 35.12, 0 19.16 M0 57.48 C-1.09 43.99, -0.89 29.89, 0 19.16 M0 19.16 C0.15 4.78, 6.28 -0.45, 19.16 0 M0 19.16 C-0.46 5.51, 8.12 1.8, 19.16 0" stroke="#1e1e1e" stroke-width="2" fill="none"></path></g><g stroke-linecap="round" transform="translate(33.66809980384164 102.14701704545405) rotate(0 19.283203125 7.48828125)"><path d="M3.74 0 C8.4 -2.43, 15.38 0.18, 34.82 0 C35.87 -0.6, 36.55 3.11, 38.57 3.74 C38.06 6.24, 38.74 9.16, 38.57 11.23 C38.99 14.74, 39.13 16.47, 34.82 14.98 C24.41 16.06, 18.6 13.25, 3.74 14.98 C3.4 12.4, 2.41 13.43, 0 11.23 C-0.13 10.02, 0.51 6.89, 0 3.74 C-0.19 3.4, 0.86 -1.02, 3.74 0" stroke="none" stroke-width="0" fill="#868e96"></path><path d="M3.74 0 C11.27 -0.48, 20 0.4, 34.82 0 M3.74 0 C10.73 0.14, 17.51 0.09, 34.82 0 M34.82 0 C37.67 0.92, 37.75 0.41, 38.57 3.74 M34.82 0 C36.49 -1.08, 39.64 1.79, 38.57 3.74 M38.57 3.74 C38.31 7, 38.2 9.81, 38.57 11.23 M38.57 3.74 C38.65 6.28, 38.67 8.77, 38.57 11.23 M38.57 11.23 C38.74 13.57, 38.15 14.41, 34.82 14.98 M38.57 11.23 C38.76 13.18, 37.6 14.88, 34.82 14.98 M34.82 14.98 C26.28 15.79, 18.31 15.24, 3.74 14.98 M34.82 14.98 C25.62 15.28, 15.59 15.43, 3.74 14.98 M3.74 14.98 C0.75 14.97, 0.12 12.91, 0 11.23 M3.74 14.98 C0.69 16.05, 0.2 12.98, 0 11.23 M0 11.23 C0.07 9.95, 0.25 8.22, 0 3.74 M0 11.23 C-0.08 9.22, 0.04 7.17, 0 3.74 M0 3.74 C-0.05 1.02, 1.05 -0.38, 3.74 0 M0 3.74 C0.87 2.15, 1.72 -0.05, 3.74 0" stroke="#1e1e1e" stroke-width="2" fill="none"></path></g><g stroke-linecap="round" transform="translate(33.85397219967513 10) rotate(0 19.283203125 7.48828125)"><path d="M3.74 0 C11.47 0.51, 20.13 -0.22, 34.82 0 C35.3 1.86, 40.19 -0.8, 38.57 3.74 C38.77 5.78, 38.68 8.2, 38.57 11.23 C40.38 15.22, 37.38 16.45, 34.82 14.98 C30.45 13.78, 23.11 12.62, 3.74 14.98 C3.66 14.68, -1.15 15.43, 0 11.23 C0.58 8.27, -0.07 7.14, 0 3.74 C-0.39 0.23, -1.13 -0.02, 3.74 0" stroke="none" stroke-width="0" fill="#868e96"></path><path d="M3.74 0 C12.69 0.47, 21.34 -0.05, 34.82 0 M3.74 0 C14.94 0.1, 25.52 0.39, 34.82 0 M34.82 0 C36.51 -0.84, 37.85 0.31, 38.57 3.74 M34.82 0 C38.39 0.54, 39.65 1.13, 38.57 3.74 M38.57 3.74 C38.18 6.74, 38.69 9.51, 38.57 11.23 M38.57 3.74 C38.68 6.46, 38.61 9.25, 38.57 11.23 M38.57 11.23 C39.4 13.17, 37.49 14.5, 34.82 14.98 M38.57 11.23 C38.85 13.64, 36.93 15.03, 34.82 14.98 M34.82 14.98 C26.25 15.41, 17.67 15.94, 3.74 14.98 M34.82 14.98 C26.1 15.58, 17.51 15.08, 3.74 14.98 M3.74 14.98 C1.37 14.16, -0.48 14.66, 0 11.23 M3.74 14.98 C1.44 14.23, -0.93 12.66, 0 11.23 M0 11.23 C0.21 8.89, -0.15 5.7, 0 3.74 M0 11.23 C0.04 8.72, 0.01 6.46, 0 3.74 M0 3.74 C-0.2 0.87, 2 0.78, 3.74 0 M0 3.74 C0.47 1.2, 0.17 -0.79, 3.74 0" stroke="#343a40" stroke-width="2" fill="none"></path></g><g stroke-linecap="round" transform="translate(65.54540998228754 23.860949680865815) rotate(312.47556431009303 13.974609375 10.47265625)"><path d="M5.24 0 C7.05 -0.74, 9.94 2.24, 22.71 0 C28.45 -2.84, 26.96 0.16, 27.95 5.24 C28.31 8.88, 29.31 12.13, 27.95 15.71 C28.03 21.23, 23.43 19.53, 22.71 20.95 C19.13 17.66, 13.28 20.42, 5.24 20.95 C0.15 23.31, 0.97 18.97, 0 15.71 C-0.25 13.38, -0.4 7.18, 0 5.24 C-3.29 1.72, -0.59 1.16, 5.24 0" stroke="none" stroke-width="0" fill="#fcc2d7"></path><path d="M5.24 0 C8.15 -0.28, 14.86 0.99, 22.71 0 M5.24 0 C11.53 0.74, 16.5 -0.79, 22.71 0 M22.71 0 C24.77 -1.88, 29.82 2.68, 27.95 5.24 M22.71 0 C28.38 -0.25, 29.77 0.19, 27.95 5.24 M27.95 5.24 C28.26 9.49, 28.58 13.62, 27.95 15.71 M27.95 5.24 C28.1 8.24, 28.44 11.12, 27.95 15.71 M27.95 15.71 C28.29 18.25, 26.7 20.78, 22.71 20.95 M27.95 15.71 C27.18 19.3, 25.68 20.33, 22.71 20.95 M22.71 20.95 C16.1 22.45, 8.82 22.12, 5.24 20.95 M22.71 20.95 C15.83 21.11, 9.91 20.4, 5.24 20.95 M5.24 20.95 C0.78 22.81, 0.34 17.89, 0 15.71 M5.24 20.95 C-0.11 18.81, 1.13 19.41, 0 15.71 M0 15.71 C-0.46 10.7, 0.11 6.75, 0 5.24 M0 15.71 C-0.04 12.75, -0.11 9.83, 0 5.24 M0 5.24 C1.51 3.31, 2.57 -0.09, 5.24 0 M0 5.24 C-2.15 0.17, 1.45 -1.56, 5.24 0" stroke="#1e1e1e" stroke-width="2" fill="none"></path></g><g stroke-linecap="round" transform="translate(27.716582684028936 38.54130475837155) rotate(312.47556431009303 25.4296875 23.859375)"><path d="M15.53 2.89 C20.41 0.74, 28.24 0.56, 33.37 1.74 C38.51 2.93, 43.43 5.94, 46.34 10 C49.25 14.06, 51.47 20.88, 50.83 26.1 C50.2 31.32, 46.66 37.76, 42.52 41.35 C38.39 44.94, 31.44 47.4, 26.01 47.63 C20.58 47.86, 14.23 45.68, 9.94 42.75 C5.65 39.81, 1.35 34.91, 0.29 30.03 C-0.78 25.15, 0.72 18.43, 3.53 13.49 C6.34 8.54, 14.67 2.41, 17.16 0.35 C19.65 -1.72, 18.43 0.73, 18.46 1.1 M19.28 -0.53 C24.41 -1.64, 33.25 1.07, 37.98 3.5 C42.7 5.93, 45.77 9.57, 47.62 14.05 C49.48 18.54, 50.43 25.46, 49.11 30.42 C47.8 35.38, 44.14 40.86, 39.73 43.82 C35.33 46.77, 27.96 48.6, 22.66 48.14 C17.36 47.67, 11.7 44.73, 7.94 41.05 C4.17 37.37, 0.74 31.38, 0.07 26.03 C-0.6 20.69, 0.52 12.96, 3.92 8.97 C7.31 4.99, 17.93 3.21, 20.43 2.11 C22.93 1, 19.21 1.96, 18.93 2.33" stroke="none" stroke-width="0" fill="#fcc2d7"></path><path d="M33.36 1.44 C38.48 2.34, 45.03 6.06, 47.77 10.19 C50.51 14.32, 50.82 20.85, 49.81 26.21 C48.8 31.57, 45.5 38.62, 41.71 42.36 C37.91 46.1, 32.36 48.43, 27.05 48.64 C21.75 48.85, 14.4 46.73, 9.88 43.6 C5.36 40.48, 1.27 34.93, -0.06 29.88 C-1.4 24.83, -0.8 17.93, 1.88 13.3 C4.57 8.66, 10.04 3.78, 16.05 2.08 C22.06 0.38, 33.84 2.47, 37.95 3.12 C42.06 3.77, 41.09 5.65, 40.73 5.96 M23.66 -0.64 C28.65 -1.21, 36.23 1.2, 40.54 4.3 C44.85 7.39, 48.28 13.02, 49.54 17.92 C50.79 22.82, 50.09 29.09, 48.05 33.7 C46.01 38.32, 42.1 43.41, 37.28 45.62 C32.46 47.83, 24.37 48.39, 19.11 46.95 C13.86 45.52, 8.74 41.07, 5.74 37.02 C2.73 32.97, 0.86 27.42, 1.07 22.64 C1.29 17.86, 3.41 12.1, 7.01 8.34 C10.6 4.58, 19.89 1.57, 22.66 0.06 C25.43 -1.44, 23.59 -1.31, 23.62 -0.68" stroke="#1e1e1e" stroke-width="2" fill="none"></path></g></svg>