<svg version="1.1" xmlns="http://www.w3.org/2000/svg" viewBox="0 0 105.26171875 127.84067844958544" width="105.26171875" height="127.84067844958544">
  <!-- svg-source:excalidraw -->
  
  <defs>
    <style class="style-fonts">
      @font-face {
        font-family: "Virgil";
        src: url("https://excalidraw.com/Virgil.woff2");
      }
      @font-face {
        font-family: "Cascadia";
        src: url("https://excalidraw.com/Cascadia.woff2");
      }
      @font-face {
        font-family: "Assistant";
        src: url("https://excalidraw.com/Assistant-Regular.woff2");
      }
    </style>
    
  </defs>
  <g stroke-linecap="round" transform="translate(10 24.85274621212102) rotate(0 42.630859375 38.322265625)"><path d="M19.16 0 C30.64 1.32, 42.66 1.34, 66.1 0 C75.57 -1.98, 88.13 3.7, 85.26 19.16 C82.11 31.48, 88.05 41.06, 85.26 57.48 C87.46 70.57, 77.23 76.54, 66.1 76.64 C50.35 73.75, 36.22 79.25, 19.16 76.64 C6.91 73.39, -1.95 67.87, 0 57.48 C-2.73 46.8, -0.1 29.7, 0 19.16 C-2.32 8.5, 8.92 0.47, 19.16 0" stroke="none" stroke-width="0" fill="#fd7e14"></path><path d="M19.16 0 C37.35 1.52, 54.78 1.14, 66.1 0 M19.16 0 C36 -0.47, 53.95 -1.28, 66.1 0 M66.1 0 C77.91 1.86, 85.6 5.08, 85.26 19.16 M66.1 0 C77.02 -2.14, 86.39 6.59, 85.26 19.16 M85.26 19.16 C84.7 32.74, 85.79 48.35, 85.26 57.48 M85.26 19.16 C85.24 29.32, 85.09 39.56, 85.26 57.48 M85.26 57.48 C86.77 71.82, 79.7 76.55, 66.1 76.64 M85.26 57.48 C83.11 68.68, 78.58 75.08, 66.1 76.64 M66.1 76.64 C55.38 76.2, 45.35 78.1, 19.16 76.64 M66.1 76.64 C48.65 76.29, 32.34 76.51, 19.16 76.64 M19.16 76.64 C6.71 77.42, 1.4 71.41, 0 57.48 M19.16 76.64 C6.44 77.94, -1.77 69.35, 0 57.48 M0 57.48 C1.28 41.95, 1.48 30.16, 0 19.16 M0 57.48 C-0.32 48.4, 0.34 37.36, 0 19.16 M0 19.16 C-0.15 8.05, 6.09 -0.78, 19.16 0 M0 19.16 C-2.1 6.37, 4.9 0.74, 19.16 0" stroke="#1e1e1e" stroke-width="2" fill="none"></path></g><g stroke-linecap="round" transform="translate(33.868992660984986 102.14701704545496) rotate(0 19.283203125 7.48828125)"><path d="M3.74 0 C12.58 0.79, 19.63 -1.57, 34.82 0 C39.39 -1.94, 37.02 0.44, 38.57 3.74 C39.3 6.28, 39.08 7.02, 38.57 11.23 C37.38 13.66, 37.07 15.72, 34.82 14.98 C25.49 16.96, 20.31 12.36, 3.74 14.98 C-0.16 13.25, 1.62 11.81, 0 11.23 C-0.08 9.11, -0.54 7.56, 0 3.74 C1.83 1.58, 1.78 2.46, 3.74 0" stroke="none" stroke-width="0" fill="#868e96"></path><path d="M3.74 0 C13.74 0.51, 24.94 -0.51, 34.82 0 M3.74 0 C16.19 -0.41, 28.27 0.47, 34.82 0 M34.82 0 C37.49 -0.65, 37.76 0.32, 38.57 3.74 M34.82 0 C37.88 0.1, 39.68 1.89, 38.57 3.74 M38.57 3.74 C38.61 6.3, 38.44 9.34, 38.57 11.23 M38.57 3.74 C38.53 5.32, 38.71 7.18, 38.57 11.23 M38.57 11.23 C38.98 13.68, 36.38 14.29, 34.82 14.98 M38.57 11.23 C38.42 12.95, 36.22 14.45, 34.82 14.98 M34.82 14.98 C24.57 15.66, 16.5 14.15, 3.74 14.98 M34.82 14.98 C26.48 14.94, 17.97 15.14, 3.74 14.98 M3.74 14.98 C1.95 15.55, 0.02 14.29, 0 11.23 M3.74 14.98 C0.36 14.53, 0.62 14.86, 0 11.23 M0 11.23 C0.32 9.35, -0.2 7.8, 0 3.74 M0 11.23 C0.11 8.69, -0.01 6.49, 0 3.74 M0 3.74 C-0.15 0.86, 0.33 -0.01, 3.74 0 M0 3.74 C-0.75 1.62, 0.73 -0.1, 3.74 0" stroke="#1e1e1e" stroke-width="2" fill="none"></path></g><g stroke-linecap="round" transform="translate(34.05486505681802 10) rotate(0 19.283203125 7.48828125)"><path d="M3.74 0 C11.78 -1.57, 26.66 -2.09, 34.82 0 C35.77 -0.81, 36.31 -0.88, 38.57 3.74 C39.24 6.72, 38.2 9.5, 38.57 11.23 C38.32 14.47, 35.75 13.45, 34.82 14.98 C27.93 12.97, 18.88 13.6, 3.74 14.98 C2.87 13.06, -0.43 11.39, 0 11.23 C-0.61 8.89, 0.7 5.53, 0 3.74 C0.53 3.7, 0.43 -2.57, 3.74 0" stroke="none" stroke-width="0" fill="#868e96"></path><path d="M3.74 0 C16.34 -0.48, 28.53 -0.59, 34.82 0 M3.74 0 C12.8 0.59, 22.43 -0.2, 34.82 0 M34.82 0 C36.51 -0.93, 39.06 1.34, 38.57 3.74 M34.82 0 C38.43 0.65, 39.39 0.8, 38.57 3.74 M38.57 3.74 C38.46 5.41, 38.27 6.99, 38.57 11.23 M38.57 3.74 C38.7 5.97, 38.64 7.89, 38.57 11.23 M38.57 11.23 C37.63 13.04, 37.19 14.3, 34.82 14.98 M38.57 11.23 C37.47 13.2, 37.37 14.33, 34.82 14.98 M34.82 14.98 C26.84 14.3, 17.34 14.65, 3.74 14.98 M34.82 14.98 C26.28 15.17, 17.93 15.26, 3.74 14.98 M3.74 14.98 C1.27 15.54, -0.77 13.34, 0 11.23 M3.74 14.98 C1.86 16.11, -0.62 14.68, 0 11.23 M0 11.23 C-0.2 9.97, 0.07 8.2, 0 3.74 M0 11.23 C-0.04 8.6, -0.05 5.59, 0 3.74 M0 3.74 C-0.91 1.24, 0.6 0.32, 3.74 0 M0 3.74 C-0.52 1.15, 1.18 -0.15, 3.74 0" stroke="#343a40" stroke-width="2" fill="none"></path></g><g stroke-linecap="round" transform="translate(39.397448168828305 93.26932525150005) rotate(90.684351531919 13.974609375 10.47265625)"><path d="M5.24 0 C13.61 -2.18, 15.09 -0.8, 22.71 0 C23.07 -2.94, 31.06 4.74, 27.95 5.24 C27.21 9.34, 27.88 14.08, 27.95 15.71 C25.77 17.09, 23.82 18.34, 22.71 20.95 C14.26 18.57, 11.16 18.34, 5.24 20.95 C1.15 17.71, 3.21 18.59, 0 15.71 C1.45 12.81, 0.5 11.21, 0 5.24 C-1.14 -1.81, 4.09 2.85, 5.24 0" stroke="none" stroke-width="0" fill="#fcc2d7"></path><path d="M5.24 0 C13.32 -0.8, 17.95 0.28, 22.71 0 M5.24 0 C9.2 -0.73, 12.15 -0.98, 22.71 0 M22.71 0 C27.19 0.18, 29.89 2.87, 27.95 5.24 M22.71 0 C27.85 -0.89, 26.07 2.11, 27.95 5.24 M27.95 5.24 C27.08 7.68, 27.68 10.02, 27.95 15.71 M27.95 5.24 C28.24 7.96, 27.54 10.37, 27.95 15.71 M27.95 15.71 C27.69 17.84, 24.29 20.02, 22.71 20.95 M27.95 15.71 C28.06 17.91, 25.67 19.16, 22.71 20.95 M22.71 20.95 C15.74 20.04, 9.33 21.26, 5.24 20.95 M22.71 20.95 C18.09 21.52, 12.27 21.51, 5.24 20.95 M5.24 20.95 C0.21 20.16, 1.07 21.17, 0 15.71 M5.24 20.95 C0.5 22.85, -2.28 21.33, 0 15.71 M0 15.71 C0.33 12.62, 0.8 10.28, 0 5.24 M0 15.71 C-0.07 12.91, -0.47 10.52, 0 5.24 M0 5.24 C-1.3 2.39, 0.84 -0.17, 5.24 0 M0 5.24 C-0.14 1.44, 2.56 -0.27, 5.24 0" stroke="#1e1e1e" stroke-width="2" fill="none"></path></g><g stroke-linecap="round" transform="translate(27.748046875 41.5338000671818) rotate(90.684351531919 25.4296875 23.859375)"><path d="M19.54 0.76 C24.22 -0.56, 30.66 0.67, 35.51 2.79 C40.36 4.92, 46.09 8.9, 48.64 13.5 C51.18 18.1, 52.27 25.45, 50.78 30.4 C49.29 35.35, 44.11 40.35, 39.7 43.2 C35.28 46.04, 29.7 48.03, 24.29 47.5 C18.88 46.96, 11.26 43.64, 7.23 39.98 C3.2 36.32, 0.52 30.53, 0.11 25.52 C-0.3 20.51, 0.46 14.18, 4.78 9.91 C9.1 5.65, 21.28 1.26, 26.02 -0.05 C30.77 -1.36, 33.27 1.59, 33.25 2.05 M13.03 1.58 C17.58 -1.26, 25.7 -2.2, 30.97 -0.63 C36.25 0.95, 41.18 6.44, 44.69 11.02 C48.2 15.6, 52.05 21.93, 52.06 26.84 C52.06 31.74, 48.82 37.01, 44.74 40.46 C40.66 43.91, 33.14 46.92, 27.55 47.53 C21.96 48.14, 15.76 47.12, 11.19 44.14 C6.62 41.17, 1.79 34.85, 0.12 29.69 C-1.55 24.53, -1.41 17.69, 1.15 13.19 C3.7 8.69, 13.47 4.54, 15.45 2.69 C17.43 0.84, 13.21 1.62, 13.02 2.09" stroke="none" stroke-width="0" fill="#fcc2d7"></path><path d="M27.91 0.22 C33.13 0.15, 38.64 2.17, 42.28 5.74 C45.92 9.32, 49.02 16.27, 49.77 21.65 C50.51 27.02, 49.48 33.7, 46.73 38 C43.97 42.3, 38.52 46.3, 33.22 47.45 C27.91 48.61, 19.97 47.18, 14.9 44.92 C9.84 42.66, 5.25 38.32, 2.83 33.89 C0.42 29.47, -0.7 23.25, 0.41 18.37 C1.52 13.49, 4.63 7.66, 9.5 4.63 C14.37 1.59, 25.84 0.57, 29.61 0.16 C33.38 -0.24, 32.02 1.7, 32.11 2.19 M24.65 -1.01 C29.81 -1.37, 35.59 1.32, 39.89 4.54 C44.19 7.77, 49.19 13.4, 50.44 18.34 C51.69 23.27, 49.84 29.37, 47.39 34.15 C44.94 38.93, 40.97 45.04, 35.75 47.02 C30.54 49.01, 21.55 47.9, 16.1 46.05 C10.65 44.2, 5.62 40.22, 3.05 35.92 C0.47 31.62, -0.3 25.15, 0.68 20.25 C1.65 15.35, 4.68 9.76, 8.88 6.53 C13.09 3.3, 23.22 1.73, 25.89 0.87 C28.56 0, 25.25 1.17, 24.89 1.33" stroke="#1e1e1e" stroke-width="2" fill="none"></path></g></svg>