<svg version="1.1" xmlns="http://www.w3.org/2000/svg" viewBox="0 0 105.26171875 129.23744184244413" width="105.26171875" height="129.23744184244413">
  <!-- svg-source:excalidraw -->
  
  <defs>
    <style class="style-fonts">
      @font-face {
        font-family: "Virgil";
        src: url("https://excalidraw.com/Virgil.woff2");
      }
      @font-face {
        font-family: "Cascadia";
        src: url("https://excalidraw.com/Cascadia.woff2");
      }
      @font-face {
        font-family: "Assistant";
        src: url("https://excalidraw.com/Assistant-Regular.woff2");
      }
    </style>
    
  </defs>
  <g stroke-linecap="round" transform="translate(10 26.67642993768176) rotate(0 42.630859375 38.322265625)"><path d="M19.16 0 C34.4 -3.45, 44.16 -2.19, 66.1 0 C78.06 0.93, 85.24 6.98, 85.26 19.16 C85.82 34.19, 82.97 43.73, 85.26 57.48 C87.19 73.8, 76.92 79.62, 66.1 76.64 C55.08 78.91, 48.21 76.32, 19.16 76.64 C8.98 78.78, -1.89 69.99, 0 57.48 C-3.19 42.78, -2.23 29.3, 0 19.16 C-1.63 6.07, 6.17 -0.48, 19.16 0" stroke="none" stroke-width="0" fill="#fd7e14"></path><path d="M19.16 0 C33.51 1.28, 46.82 0.42, 66.1 0 M19.16 0 C36.82 -0.54, 56.86 0.86, 66.1 0 M66.1 0 C80.77 -0.21, 86.84 5.03, 85.26 19.16 M66.1 0 C80.74 -2.23, 86.22 7.29, 85.26 19.16 M85.26 19.16 C85.42 32.66, 84.92 44.4, 85.26 57.48 M85.26 19.16 C85.75 29.57, 85.83 40.85, 85.26 57.48 M85.26 57.48 C84.59 70.35, 78.42 76.11, 66.1 76.64 M85.26 57.48 C87.21 70.35, 79.56 76.79, 66.1 76.64 M66.1 76.64 C49.51 76.18, 32.12 75.96, 19.16 76.64 M66.1 76.64 C51.57 77.19, 38.18 75.61, 19.16 76.64 M19.16 76.64 C4.77 74.78, 0.98 70.44, 0 57.48 M19.16 76.64 C8.62 77.94, 1.64 69.37, 0 57.48 M0 57.48 C-0.64 49.27, -1.66 40.65, 0 19.16 M0 57.48 C0.83 47.64, 0.49 36.19, 0 19.16 M0 19.16 C-1.87 5.01, 6.13 -1.36, 19.16 0 M0 19.16 C-2.2 5.33, 6.5 -1.29, 19.16 0" stroke="#1e1e1e" stroke-width="2" fill="none"></path></g><g stroke-linecap="round" transform="translate(33.66809980384164 104.26087934244414) rotate(0 19.283203125 7.48828125)"><path d="M3.74 0 C14.58 -0.83, 26.26 0.99, 34.82 0 C37.3 0.43, 39.58 3.06, 38.57 3.74 C37.82 6.04, 39.09 10.05, 38.57 11.23 C37.15 15.88, 34.74 17.39, 34.82 14.98 C26.55 15.08, 18.75 16.79, 3.74 14.98 C-0.11 14.78, 2.16 13.34, 0 11.23 C-0.54 9.59, -0.35 7.24, 0 3.74 C-0.16 0.9, 2.17 -0.3, 3.74 0" stroke="none" stroke-width="0" fill="#868e96"></path><path d="M3.74 0 C15.28 0.23, 27.08 -0.94, 34.82 0 M3.74 0 C10.93 0.38, 17.65 0.09, 34.82 0 M34.82 0 C38.11 -0.68, 39.38 0.28, 38.57 3.74 M34.82 0 C37.8 0.45, 38.85 2.05, 38.57 3.74 M38.57 3.74 C38.45 6.34, 38.5 9.12, 38.57 11.23 M38.57 3.74 C38.62 5.55, 38.51 7.4, 38.57 11.23 M38.57 11.23 C38.34 13.46, 38.17 15.02, 34.82 14.98 M38.57 11.23 C38.91 13.8, 38.27 14.68, 34.82 14.98 M34.82 14.98 C24.49 14.42, 12.19 15.04, 3.74 14.98 M34.82 14.98 C28.13 14.79, 20.86 14.66, 3.74 14.98 M3.74 14.98 C1.74 15.07, 0.97 14.29, 0 11.23 M3.74 14.98 C2.07 14.53, -0.94 13.91, 0 11.23 M0 11.23 C-0.29 9.43, -0.07 7.59, 0 3.74 M0 11.23 C0.05 9.26, -0.2 7.18, 0 3.74 M0 3.74 C-0.13 0.57, 0.29 -0.46, 3.74 0 M0 3.74 C0.05 0.61, 0.98 -0.89, 3.74 0" stroke="#1e1e1e" stroke-width="2" fill="none"></path></g><g stroke-linecap="round" transform="translate(33.85397219967513 12.113862296989183) rotate(0 19.283203125 7.48828125)"><path d="M3.74 0 C10.03 0.85, 17.47 0.6, 34.82 0 C38.33 1.81, 40.06 1.31, 38.57 3.74 C39.01 7.37, 37.96 9.89, 38.57 11.23 C35.99 16.14, 37.02 13.82, 34.82 14.98 C25.33 16.5, 10.74 14.76, 3.74 14.98 C3.4 14.58, -1.02 11.35, 0 11.23 C-0.38 8.91, 0 6.62, 0 3.74 C0.92 0.95, 2.18 -2.39, 3.74 0" stroke="none" stroke-width="0" fill="#868e96"></path><path d="M3.74 0 C16.42 -0.87, 26.43 -0.77, 34.82 0 M3.74 0 C10.63 -0.13, 16.96 -0.41, 34.82 0 M34.82 0 C38.13 -0.97, 38.98 1.64, 38.57 3.74 M34.82 0 C37.6 0.8, 39.01 1.19, 38.57 3.74 M38.57 3.74 C38.5 6.7, 38.34 9.09, 38.57 11.23 M38.57 3.74 C38.51 5.64, 38.53 7.47, 38.57 11.23 M38.57 11.23 C39.42 13.77, 37.62 15.04, 34.82 14.98 M38.57 11.23 C39.52 13.44, 38.05 15.77, 34.82 14.98 M34.82 14.98 C26.69 15.02, 17.75 14.42, 3.74 14.98 M34.82 14.98 C22.2 14.41, 10.63 14.92, 3.74 14.98 M3.74 14.98 C2.22 15.54, 0.72 13.34, 0 11.23 M3.74 14.98 C0.31 15.16, -0.71 13.4, 0 11.23 M0 11.23 C-0.06 8.85, -0.11 6.91, 0 3.74 M0 11.23 C-0.19 8.27, -0.04 5.44, 0 3.74 M0 3.74 C-0.95 0.79, 1.3 -0.56, 3.74 0 M0 3.74 C-0.27 0.36, 2.07 0.72, 3.74 0" stroke="#343a40" stroke-width="2" fill="none"></path></g><g stroke-linecap="round" transform="translate(39.196555311685415 13.62604069808539) rotate(269.315648468081 13.974609375 10.47265625)"><path d="M5.24 0 C9.69 0.43, 15.41 2.11, 22.71 0 C28.27 0.08, 29.98 -1.03, 27.95 5.24 C27.03 9.52, 26.18 12.45, 27.95 15.71 C27.54 17.61, 28.56 21.91, 22.71 20.95 C15.93 20.9, 15.06 20.66, 5.24 20.95 C0.34 17.65, -0.03 16.87, 0 15.71 C-0.03 11.98, 0.75 8.53, 0 5.24 C1.28 -1.56, -0.23 2.86, 5.24 0" stroke="none" stroke-width="0" fill="#fcc2d7"></path><path d="M5.24 0 C9.63 -1.12, 15.32 1.78, 22.71 0 M5.24 0 C11.99 -0.57, 18.07 -0.83, 22.71 0 M22.71 0 C27.04 0.79, 28.44 3.14, 27.95 5.24 M22.71 0 C27.09 -0.12, 29.16 1.05, 27.95 5.24 M27.95 5.24 C27.34 8.74, 27.43 12.15, 27.95 15.71 M27.95 5.24 C27.79 8.15, 28.36 11.37, 27.95 15.71 M27.95 15.71 C28.55 19.33, 27.86 20.44, 22.71 20.95 M27.95 15.71 C29.42 20.79, 25.32 23.21, 22.71 20.95 M22.71 20.95 C16.9 20.12, 15.58 21.27, 5.24 20.95 M22.71 20.95 C19.04 20.86, 15.36 21.27, 5.24 20.95 M5.24 20.95 C3.18 20.17, -1.63 19.52, 0 15.71 M5.24 20.95 C0.33 20.28, 0.18 17.36, 0 15.71 M0 15.71 C-0.37 13.41, 0.84 9.97, 0 5.24 M0 15.71 C0.03 12.26, -0.4 9.28, 0 5.24 M0 5.24 C0.1 0.63, 1.28 -1.55, 5.24 0 M0 5.24 C1.65 3.18, -0.07 -0.63, 5.24 0" stroke="#1e1e1e" stroke-width="2" fill="none"></path></g><g stroke-linecap="round" transform="translate(27.73856026785711 38.74047213240182) rotate(269.315648468081 25.4296875 23.859375)"><path d="M16.93 1.07 C21.77 -0.74, 29.77 -0.48, 34.88 1.6 C39.99 3.68, 44.89 8.92, 47.58 13.55 C50.28 18.18, 52.16 24.67, 51.05 29.38 C49.94 34.1, 45.47 38.79, 40.91 41.82 C36.35 44.85, 29.24 47.78, 23.69 47.57 C18.14 47.35, 11.6 43.95, 7.61 40.53 C3.63 37.12, 0.47 32.02, -0.24 27.07 C-0.94 22.13, 0.09 15.17, 3.39 10.85 C6.7 6.54, 16.19 3.04, 19.58 1.2 C22.96 -0.65, 23.54 -0.4, 23.7 -0.21 M22.8 0.74 C28.02 0.03, 36.01 1.96, 40.52 4.83 C45.03 7.69, 48.67 13.28, 49.85 17.94 C51.03 22.6, 49.64 28, 47.59 32.79 C45.55 37.58, 42.39 44.11, 37.57 46.69 C32.75 49.28, 24.35 49.51, 18.67 48.3 C12.99 47.09, 6.63 43.87, 3.5 39.44 C0.36 35.01, -0.87 27, -0.12 21.73 C0.62 16.46, 4.21 11.25, 7.97 7.83 C11.74 4.42, 19.87 2.56, 22.46 1.23 C25.05 -0.1, 23.46 -0.58, 23.51 -0.16" stroke="none" stroke-width="0" fill="#fcc2d7"></path><path d="M36.79 3.35 C41.36 5.25, 46.12 10.64, 48.13 15.27 C50.13 19.91, 50.2 26.37, 48.81 31.17 C47.41 35.97, 44.03 41.28, 39.75 44.07 C35.47 46.87, 28.6 48.49, 23.12 47.94 C17.63 47.38, 10.74 44.48, 6.84 40.72 C2.94 36.96, 0.06 30.42, -0.26 25.37 C-0.59 20.31, 1.69 14.49, 4.91 10.4 C8.13 6.3, 13.66 1.99, 19.06 0.8 C24.46 -0.39, 34.09 2.79, 37.3 3.25 C40.5 3.7, 38.41 3.27, 38.29 3.54 M22.49 0.31 C27.57 -0.71, 35.59 0.43, 40.28 3.32 C44.96 6.21, 49.27 12.48, 50.62 17.66 C51.97 22.84, 50.73 29.85, 48.37 34.4 C46.02 38.96, 41.2 43.06, 36.5 44.98 C31.8 46.9, 25.5 46.8, 20.18 45.94 C14.86 45.08, 7.89 43.84, 4.57 39.84 C1.26 35.83, 0.14 27.48, 0.28 21.91 C0.42 16.33, 1.67 9.99, 5.42 6.4 C9.17 2.8, 19.75 1.16, 22.77 0.35 C25.8 -0.46, 23.45 1.25, 23.56 1.53" stroke="#1e1e1e" stroke-width="2" fill="none"></path></g></svg>