<svg version="1.1" xmlns="http://www.w3.org/2000/svg" viewBox="0 0 108.2881453501916 127.12357954545405" width="108.2881453501916" height="127.12357954545405">
  <!-- svg-source:excalidraw -->
  
  <defs>
    <style class="style-fonts">
      @font-face {
        font-family: "Virgil";
        src: url("https://excalidraw.com/Virgil.woff2");
      }
      @font-face {
        font-family: "Cascadia";
        src: url("https://excalidraw.com/Cascadia.woff2");
      }
      @font-face {
        font-family: "Assistant";
        src: url("https://excalidraw.com/Assistant-Regular.woff2");
      }
    </style>
    
  </defs>
  <g stroke-linecap="round" transform="translate(13.026426600191598 24.85274621212102) rotate(0 42.630859375 38.322265625)"><path d="M19.16 0 C36.08 -0.51, 50.9 -3.36, 66.1 0 C77.46 1.93, 88.8 4.43, 85.26 19.16 C84.17 32.23, 86.94 49.46, 85.26 57.48 C85.03 72.85, 81.01 74.76, 66.1 76.64 C50.96 73.22, 38.6 74.18, 19.16 76.64 C7.55 75.02, -0.31 70.04, 0 57.48 C1.04 43.19, -2.22 38.38, 0 19.16 C-2.69 4.24, 5.27 -3.13, 19.16 0" stroke="none" stroke-width="0" fill="#fd7e14"></path><path d="M19.16 0 C30.8 1.45, 40.36 1.14, 66.1 0 M19.16 0 C30.48 0.85, 41.22 1.15, 66.1 0 M66.1 0 C79.64 -0.1, 86.31 5.78, 85.26 19.16 M66.1 0 C79.28 -0.37, 87.17 5.09, 85.26 19.16 M85.26 19.16 C84.92 30.64, 85.17 43.01, 85.26 57.48 M85.26 19.16 C85.89 29.7, 86.42 39.85, 85.26 57.48 M85.26 57.48 C86.54 71.64, 78.11 78.62, 66.1 76.64 M85.26 57.48 C84.13 70.24, 79.16 74.76, 66.1 76.64 M66.1 76.64 C52.99 75.11, 40.62 77.71, 19.16 76.64 M66.1 76.64 C52.31 76.52, 36.27 77.07, 19.16 76.64 M19.16 76.64 C5.16 76.07, 0.15 68.65, 0 57.48 M19.16 76.64 C6.26 76.12, -0.46 69.39, 0 57.48 M0 57.48 C-0.39 41.23, -1.67 28.46, 0 19.16 M0 57.48 C0.41 48.03, 0.13 38.91, 0 19.16 M0 19.16 C1.43 7.63, 4.81 -0.55, 19.16 0 M0 19.16 C-1.01 5.87, 6.98 -0.02, 19.16 0" stroke="#1e1e1e" stroke-width="2" fill="none"></path></g><g stroke-linecap="round" transform="translate(36.69452640403347 102.14701704545405) rotate(0 19.283203125 7.48828125)"><path d="M3.74 0 C16.71 -2.01, 25.71 1.38, 34.82 0 C39.88 -1.41, 40.71 -1.33, 38.57 3.74 C39.19 6.95, 38.49 10.33, 38.57 11.23 C40.11 12.37, 37.13 17.13, 34.82 14.98 C25.95 12.92, 17.95 13.43, 3.74 14.98 C1.02 14.82, -0.35 14.65, 0 11.23 C-0.57 9.85, -0.76 6.33, 0 3.74 C-0.81 -1.01, -0.88 2.25, 3.74 0" stroke="none" stroke-width="0" fill="#868e96"></path><path d="M3.74 0 C15.87 0.64, 27.53 0.67, 34.82 0 M3.74 0 C10.18 0.29, 16.57 -0.09, 34.82 0 M34.82 0 C37.84 -0.3, 38.74 1.09, 38.57 3.74 M34.82 0 C38.27 -0.65, 38.76 0.7, 38.57 3.74 M38.57 3.74 C38.58 6.09, 38.46 8.93, 38.57 11.23 M38.57 3.74 C38.73 5.97, 38.7 8.43, 38.57 11.23 M38.57 11.23 C38.18 14.71, 36.82 14.97, 34.82 14.98 M38.57 11.23 C38.71 12.79, 36.76 16.05, 34.82 14.98 M34.82 14.98 C24.04 15.34, 15.2 15.82, 3.74 14.98 M34.82 14.98 C23.34 15, 12.37 14.77, 3.74 14.98 M3.74 14.98 C1.32 14.18, -0.05 13.5, 0 11.23 M3.74 14.98 C1.02 14.54, 0.87 14.63, 0 11.23 M0 11.23 C-0.26 8.63, -0.25 5.77, 0 3.74 M0 11.23 C-0.05 9.19, 0.13 7.55, 0 3.74 M0 3.74 C-0.79 0.97, 0.81 -0.23, 3.74 0 M0 3.74 C0.3 1.24, 1.44 0.45, 3.74 0" stroke="#1e1e1e" stroke-width="2" fill="none"></path></g><g stroke-linecap="round" transform="translate(36.88039879986695 10) rotate(0 19.283203125 7.48828125)"><path d="M3.74 0 C12.12 1.7, 25.09 -1.1, 34.82 0 C39.47 -2.58, 40.98 0.95, 38.57 3.74 C38.57 6.36, 39.21 7.06, 38.57 11.23 C38.37 15.88, 36.93 13.96, 34.82 14.98 C29.18 13.54, 21.63 14.56, 3.74 14.98 C0.9 15.9, -0.3 14.66, 0 11.23 C-0.67 9.09, -0.25 7.27, 0 3.74 C-2.12 3.49, 3.41 2.51, 3.74 0" stroke="none" stroke-width="0" fill="#868e96"></path><path d="M3.74 0 C15.33 0.69, 27.3 0.29, 34.82 0 M3.74 0 C14.49 -0.13, 25.11 -0.26, 34.82 0 M34.82 0 C37.49 -0.16, 39.4 0.69, 38.57 3.74 M34.82 0 C37.52 -0.55, 38.85 1.16, 38.57 3.74 M38.57 3.74 C38.47 6.06, 38.58 7.85, 38.57 11.23 M38.57 3.74 C38.72 6.17, 38.53 8.52, 38.57 11.23 M38.57 11.23 C38.07 13.72, 37.44 14.16, 34.82 14.98 M38.57 11.23 C38.01 14.8, 37.52 14.23, 34.82 14.98 M34.82 14.98 C28.1 16.02, 21.75 15.77, 3.74 14.98 M34.82 14.98 C26.39 14.86, 18.62 14.6, 3.74 14.98 M3.74 14.98 C1.19 14.75, -0.2 13.35, 0 11.23 M3.74 14.98 C2.11 15.87, 0.47 13.68, 0 11.23 M0 11.23 C-0.23 9.33, -0.15 8.16, 0 3.74 M0 11.23 C0.14 9.52, -0.14 7.52, 0 3.74 M0 3.74 C-0.44 1.02, 1.51 -0.01, 3.74 0 M0 3.74 C0.19 1.7, 2.05 0.66, 3.74 0" stroke="#343a40" stroke-width="2" fill="none"></path></g><g stroke-linecap="round" transform="translate(13.186373760761398 24.156708609438283) rotate(47.524435689906944 13.974609375 10.47265625)"><path d="M5.24 0 C12.23 -1.88, 15.63 -3.29, 22.71 0 C29.54 -0.41, 26.35 4.11, 27.95 5.24 C29.06 7.67, 27.8 13.65, 27.95 15.71 C27.41 17.79, 22.91 20.92, 22.71 20.95 C18.33 20.61, 14.07 21.92, 5.24 20.95 C1.33 22.23, -3.31 17.22, 0 15.71 C-0.44 10.1, -1.4 9.39, 0 5.24 C3 5.22, 3.94 0.31, 5.24 0" stroke="none" stroke-width="0" fill="#fcc2d7"></path><path d="M5.24 0 C10.17 0.58, 19.17 0.29, 22.71 0 M5.24 0 C12.16 -0.26, 18.31 -0.13, 22.71 0 M22.71 0 C27.87 -1.12, 28.29 0.79, 27.95 5.24 M22.71 0 C26.77 -0.19, 27.18 1.85, 27.95 5.24 M27.95 5.24 C27.96 8.45, 27.99 11.91, 27.95 15.71 M27.95 5.24 C27.81 8.63, 27.76 10.98, 27.95 15.71 M27.95 15.71 C28.19 17.56, 25.23 22.81, 22.71 20.95 M27.95 15.71 C28.34 17.7, 24.35 18.81, 22.71 20.95 M22.71 20.95 C17.59 22.36, 9.84 19.69, 5.24 20.95 M22.71 20.95 C17.26 20.19, 11.63 20.7, 5.24 20.95 M5.24 20.95 C1.35 20.19, 1.51 20.76, 0 15.71 M5.24 20.95 C2.69 20.84, -2.15 17.62, 0 15.71 M0 15.71 C-0.41 12.75, -0.51 9.45, 0 5.24 M0 15.71 C-0.49 13.24, -0.31 10.93, 0 5.24 M0 5.24 C0.51 1.73, 2.07 0.78, 5.24 0 M0 5.24 C1.61 3.07, 1.8 1.3, 5.24 0" stroke="#1e1e1e" stroke-width="2" fill="none"></path></g><g stroke-linecap="round" transform="translate(28.105044809019773 38.92300118694311) rotate(47.524435689906944 25.4296875 23.859375)"><path d="M29.94 0.37 C34.96 1.06, 41.32 4.1, 44.73 8.14 C48.14 12.19, 50.54 19.42, 50.39 24.65 C50.24 29.88, 47.52 35.6, 43.83 39.53 C40.15 43.45, 33.48 47.55, 28.29 48.19 C23.09 48.83, 17.21 46.24, 12.66 43.35 C8.11 40.47, 2.84 35.56, 1 30.88 C-0.85 26.2, -0.48 19.91, 1.59 15.26 C3.66 10.62, 7.34 4.94, 13.4 3 C19.46 1.05, 32.9 2.85, 37.95 3.59 C43 4.32, 43.86 7.3, 43.69 7.41 M19.66 1.7 C24.29 0.44, 31.29 2.19, 36.18 4.33 C41.06 6.48, 46.58 9.95, 48.96 14.55 C51.35 19.15, 52.23 26.8, 50.49 31.94 C48.75 37.07, 43.2 42.89, 38.52 45.34 C33.85 47.79, 27.84 47.41, 22.45 46.65 C17.06 45.9, 9.98 44.64, 6.2 40.83 C2.42 37.02, 0.11 29.11, -0.22 23.79 C-0.55 18.47, 0.94 12.72, 4.23 8.91 C7.51 5.1, 16.89 2.29, 19.5 0.94 C22.11 -0.41, 19.66 0.52, 19.89 0.79" stroke="none" stroke-width="0" fill="#fcc2d7"></path><path d="M28.52 0.71 C33.53 0.97, 40.06 3.99, 43.75 7.79 C47.44 11.58, 50.43 18.37, 50.67 23.48 C50.9 28.58, 48.49 34.44, 45.15 38.42 C41.81 42.4, 35.87 46.31, 30.64 47.36 C25.41 48.42, 18.53 47.17, 13.77 44.77 C9.01 42.36, 4.2 37.43, 2.05 32.92 C-0.1 28.41, -0.75 22.5, 0.86 17.7 C2.46 12.9, 6.15 6.72, 11.65 4.13 C17.15 1.54, 29.44 2.09, 33.85 2.16 C38.27 2.22, 38.16 4.35, 38.12 4.52 M37.64 1.61 C42.36 3.87, 46.29 11.62, 48.32 16.41 C50.35 21.2, 51.62 25.95, 49.84 30.34 C48.05 34.73, 42.16 39.87, 37.61 42.75 C33.06 45.63, 27.47 47.97, 22.53 47.61 C17.58 47.25, 11.49 44.53, 7.92 40.6 C4.34 36.66, 1.7 29.23, 1.08 24.02 C0.47 18.81, 1.19 13.32, 4.23 9.33 C7.27 5.34, 13.76 1.35, 19.32 0.07 C24.88 -1.21, 34.6 1.16, 37.57 1.64 C40.54 2.11, 37.41 2.46, 37.14 2.92" stroke="#1e1e1e" stroke-width="2" fill="none"></path></g></svg>