<svg version="1.1" xmlns="http://www.w3.org/2000/svg" viewBox="0 0 107.36794445733494 127.12357954545405" width="107.36794445733494" height="127.12357954545405">
  <!-- svg-source:excalidraw -->
  
  <defs>
    <style class="style-fonts">
      @font-face {
        font-family: "Virgil";
        src: url("https://excalidraw.com/Virgil.woff2");
      }
      @font-face {
        font-family: "Cascadia";
        src: url("https://excalidraw.com/Cascadia.woff2");
      }
      @font-face {
        font-family: "Assistant";
        src: url("https://excalidraw.com/Assistant-Regular.woff2");
      }
    </style>
    
  </defs>
  <g stroke-linecap="round" transform="translate(10 24.85274621212102) rotate(0 42.630859375 38.322265625)"><path d="M19.16 0 C26.61 -2.68, 43.42 3.26, 66.1 0 C82.35 2.2, 85.57 4.75, 85.26 19.16 C83.02 28.44, 82.82 39.33, 85.26 57.48 C88.38 70.78, 75.62 74.7, 66.1 76.64 C54.54 72.79, 47.37 75.41, 19.16 76.64 C6.38 74.33, 2.11 72.79, 0 57.48 C-1.28 41.94, 2.21 36.34, 0 19.16 C1.75 6.46, 8.62 1.96, 19.16 0" stroke="none" stroke-width="0" fill="#fd7e14"></path><path d="M19.16 0 C29.29 -1.03, 44.55 0.29, 66.1 0 M19.16 0 C30.67 0.53, 42.16 1, 66.1 0 M66.1 0 C80.3 -0.77, 83.63 6.7, 85.26 19.16 M66.1 0 C77.46 -0.67, 85.44 4.54, 85.26 19.16 M85.26 19.16 C84.42 31.96, 86.74 42.57, 85.26 57.48 M85.26 19.16 C84.77 29.8, 83.95 41.34, 85.26 57.48 M85.26 57.48 C85.36 69.14, 78.41 75.09, 66.1 76.64 M85.26 57.48 C86.91 71.69, 77.06 76.01, 66.1 76.64 M66.1 76.64 C54.07 77.09, 42.85 78.16, 19.16 76.64 M66.1 76.64 C48.55 76.52, 33.08 77.89, 19.16 76.64 M19.16 76.64 C5.3 78.3, -1.98 72.11, 0 57.48 M19.16 76.64 C6.13 75.63, 1.51 70.88, 0 57.48 M0 57.48 C-1.32 46.08, 1.38 34.68, 0 19.16 M0 57.48 C-0.3 47.81, -0.1 37.4, 0 19.16 M0 19.16 C-0.12 6.12, 7.09 -0.23, 19.16 0 M0 19.16 C0.82 4.27, 5.12 1.83, 19.16 0" stroke="#1e1e1e" stroke-width="2" fill="none"></path></g><g stroke-linecap="round" transform="translate(33.868992660984986 102.14701704545405) rotate(0 19.283203125 7.48828125)"><path d="M3.74 0 C14.35 2.5, 22.98 1.92, 34.82 0 C37.54 -1.19, 38.49 1, 38.57 3.74 C37.86 5.5, 39.35 8.81, 38.57 11.23 C36.22 12.32, 35.59 16.6, 34.82 14.98 C30.11 14.17, 20.76 12.94, 3.74 14.98 C2.77 16.8, 0.34 14.26, 0 11.23 C0.67 9.05, 0.5 5.35, 0 3.74 C1.61 2.67, 3.14 -2.29, 3.74 0" stroke="none" stroke-width="0" fill="#868e96"></path><path d="M3.74 0 C14.38 0.25, 22.5 -0.73, 34.82 0 M3.74 0 C10.66 0.27, 16.97 -0.21, 34.82 0 M34.82 0 C36.5 0.16, 37.95 0.96, 38.57 3.74 M34.82 0 C37.41 -0.92, 38.5 0.99, 38.57 3.74 M38.57 3.74 C38.84 6, 38.53 7.59, 38.57 11.23 M38.57 3.74 C38.38 5.39, 38.57 7.1, 38.57 11.23 M38.57 11.23 C38.33 12.95, 38.04 15.6, 34.82 14.98 M38.57 11.23 C37.66 13.41, 36.81 14.72, 34.82 14.98 M34.82 14.98 C25.09 15.7, 15.15 15.02, 3.74 14.98 M34.82 14.98 C24.01 15.41, 12.39 15.33, 3.74 14.98 M3.74 14.98 C0.26 15.9, -0.11 13.29, 0 11.23 M3.74 14.98 C2 15.29, -0.07 14.56, 0 11.23 M0 11.23 C0.33 8.48, -0.13 5.51, 0 3.74 M0 11.23 C-0.06 8.97, 0.01 6.72, 0 3.74 M0 3.74 C0.35 1.13, 1.6 -0.92, 3.74 0 M0 3.74 C-0.63 2.16, 0.39 -0.69, 3.74 0" stroke="#1e1e1e" stroke-width="2" fill="none"></path></g><g stroke-linecap="round" transform="translate(34.05486505681802 10) rotate(0 19.283203125 7.48828125)"><path d="M3.74 0 C13.04 1.25, 17.54 -1.52, 34.82 0 C37.25 -0.25, 39.31 -0.32, 38.57 3.74 C39.34 5.69, 37.62 6.83, 38.57 11.23 C36.84 15.35, 35.4 14.55, 34.82 14.98 C28.28 13.23, 23.29 16.74, 3.74 14.98 C1.58 15.51, 2.46 12.91, 0 11.23 C0.41 9.75, 0.54 8.75, 0 3.74 C1.9 -1.04, 3.65 0.58, 3.74 0" stroke="none" stroke-width="0" fill="#868e96"></path><path d="M3.74 0 C10.91 -0.83, 18.45 0.46, 34.82 0 M3.74 0 C13.71 -0.28, 22.54 -0.01, 34.82 0 M34.82 0 C36.7 -0.29, 38.64 0.45, 38.57 3.74 M34.82 0 C37.26 -0.26, 38.34 0.81, 38.57 3.74 M38.57 3.74 C38.58 6.2, 38.34 9.32, 38.57 11.23 M38.57 3.74 C38.54 5.38, 38.49 7.08, 38.57 11.23 M38.57 11.23 C39.28 14.35, 36.53 14.7, 34.82 14.98 M38.57 11.23 C38.06 13.47, 37.61 14.97, 34.82 14.98 M34.82 14.98 C25.56 15.11, 15.72 14.32, 3.74 14.98 M34.82 14.98 C26.45 15.54, 18.12 15.59, 3.74 14.98 M3.74 14.98 C1.13 14.53, 0.66 14, 0 11.23 M3.74 14.98 C1.17 15.8, 0.68 13.13, 0 11.23 M0 11.23 C-0.18 8.7, -0.03 6.61, 0 3.74 M0 11.23 C0.01 8.72, 0.08 6.23, 0 3.74 M0 3.74 C0.36 0.33, 0.7 0.8, 3.74 0 M0 3.74 C-0.86 0.56, 0.89 -1, 3.74 0" stroke="#343a40" stroke-width="2" fill="none"></path></g><g stroke-linecap="round" transform="translate(66.23235194657354 79.23082182887447) rotate(47.524435689906944 13.974609375 10.47265625)"><path d="M5.24 0 C12.2 -1.63, 18.55 -0.49, 22.71 0 C27.23 -2.18, 25.83 -0.63, 27.95 5.24 C26.41 6.6, 26.86 11.18, 27.95 15.71 C25.29 18.61, 22.97 24.15, 22.71 20.95 C19.61 22.95, 13.23 21.38, 5.24 20.95 C5.15 19.81, -3.55 21.55, 0 15.71 C1.08 12.77, 1.28 6.11, 0 5.24 C3.33 2.55, 1.52 3.14, 5.24 0" stroke="none" stroke-width="0" fill="#fcc2d7"></path><path d="M5.24 0 C9.15 1, 16.48 1.84, 22.71 0 M5.24 0 C10.75 0.21, 17.15 -0.19, 22.71 0 M22.71 0 C26.36 -1.6, 27.84 1.29, 27.95 5.24 M22.71 0 C25.75 -0.87, 29.68 3.54, 27.95 5.24 M27.95 5.24 C27.23 8.67, 27.23 11.38, 27.95 15.71 M27.95 5.24 C27.83 7.49, 28.33 10.88, 27.95 15.71 M27.95 15.71 C26.37 18.65, 25.32 20.49, 22.71 20.95 M27.95 15.71 C28.54 19.18, 26.58 21.84, 22.71 20.95 M22.71 20.95 C17.24 19.6, 9.1 21.88, 5.24 20.95 M22.71 20.95 C14.88 21.9, 8.69 20.7, 5.24 20.95 M5.24 20.95 C3.06 21.48, -0.13 20.64, 0 15.71 M5.24 20.95 C3.11 19.74, -0.17 21.11, 0 15.71 M0 15.71 C0.03 12.05, 0.38 9.27, 0 5.24 M0 15.71 C0.19 12.6, 0.19 9.13, 0 5.24 M0 5.24 C-1.1 3.34, 0.25 -1.19, 5.24 0 M0 5.24 C-0.71 -0.25, -0.13 1.99, 5.24 0" stroke="#1e1e1e" stroke-width="2" fill="none"></path></g><g stroke-linecap="round" transform="translate(28.403524648314487 38.00359175136873) rotate(47.524435689906944 25.4296875 23.859375000000004)"><path d="M33.7 0.89 C38.77 1.88, 43.54 5.75, 46.37 9.96 C49.2 14.16, 51.21 20.98, 50.66 26.13 C50.12 31.28, 47.09 37.28, 43.09 40.86 C39.09 44.45, 32.18 47.23, 26.67 47.63 C21.15 48.03, 14.34 46.27, 9.99 43.26 C5.63 40.25, 1.89 34.71, 0.53 29.58 C-0.82 24.44, -0.77 17.21, 1.86 12.47 C4.48 7.73, 10.41 2.78, 16.3 1.15 C22.18 -0.48, 33.06 1.98, 37.17 2.68 C41.27 3.39, 40.87 4.86, 40.91 5.4 M36.56 2.69 C41.12 4.72, 46.78 10.64, 48.81 15.23 C50.84 19.81, 50.55 25.6, 48.75 30.22 C46.96 34.84, 42.27 40.02, 38.04 42.93 C33.8 45.85, 28.79 48.36, 23.33 47.72 C17.87 47.09, 9.32 42.77, 5.27 39.11 C1.22 35.45, -0.79 30.78, -0.97 25.76 C-1.15 20.75, 0.92 13.01, 4.2 9.03 C7.47 5.05, 13.19 2.94, 18.65 1.89 C24.12 0.83, 34.09 2.37, 36.99 2.73 C39.88 3.08, 36.02 3.65, 36.04 4.03" stroke="none" stroke-width="0" fill="#fcc2d7"></path><path d="M36.89 1.93 C41.56 3.7, 47.05 9.34, 49.13 14.22 C51.2 19.1, 51.18 26.26, 49.36 31.22 C47.53 36.18, 42.79 41.31, 38.19 43.99 C33.59 46.67, 27.09 47.86, 21.76 47.3 C16.43 46.74, 9.71 44.33, 6.22 40.65 C2.73 36.96, 0.96 30.59, 0.8 25.2 C0.64 19.81, 2.19 12.44, 5.28 8.31 C8.38 4.18, 13.51 1.12, 19.36 0.41 C25.21 -0.29, 36.35 2.77, 40.38 4.08 C44.4 5.39, 43.75 7.85, 43.51 8.28 M14.63 1.36 C19 -0.97, 27.08 -0.83, 32.53 0.8 C37.98 2.43, 44.27 6.65, 47.33 11.12 C50.38 15.6, 51.5 22.46, 50.87 27.67 C50.24 32.88, 47.64 38.91, 43.57 42.39 C39.5 45.87, 32.26 48.59, 26.45 48.55 C20.64 48.51, 12.88 45.16, 8.7 42.13 C4.52 39.1, 2.48 35.08, 1.38 30.39 C0.28 25.7, -0.04 18.52, 2.11 13.98 C4.27 9.44, 12.04 5.24, 14.32 3.17 C16.61 1.09, 15.26 1.35, 15.83 1.55" stroke="#1e1e1e" stroke-width="2" fill="none"></path></g></svg>