<svg version="1.1" xmlns="http://www.w3.org/2000/svg" viewBox="0 0 116.80622209821377 127.12357954545405" width="116.80622209821377" height="127.12357954545405">
  <!-- svg-source:excalidraw -->
  
  <defs>
    <style class="style-fonts">
      @font-face {
        font-family: "Virgil";
        src: url("https://excalidraw.com/Virgil.woff2");
      }
      @font-face {
        font-family: "Cascadia";
        src: url("https://excalidraw.com/Cascadia.woff2");
      }
      @font-face {
        font-family: "Assistant";
        src: url("https://excalidraw.com/Assistant-Regular.woff2");
      }
    </style>
    
  </defs>
  <g stroke-linecap="round" transform="translate(21.544503348213766 24.85274621212011) rotate(0 42.630859375 38.322265625)"><path d="M19.16 0 C34.03 0.43, 40.63 3.2, 66.1 0 C79.84 -0.23, 87.85 8.53, 85.26 19.16 C84.67 27.24, 81.92 38.11, 85.26 57.48 C82.93 71.42, 77.25 76.33, 66.1 76.64 C51.88 78.23, 35.19 74.96, 19.16 76.64 C9.25 73.95, -2.15 69.14, 0 57.48 C3.56 52.8, 2.76 41.46, 0 19.16 C-1.64 6.29, 6.04 1.03, 19.16 0" stroke="none" stroke-width="0" fill="#fd7e14"></path><path d="M19.16 0 C36.59 0.65, 51.12 0.94, 66.1 0 M19.16 0 C32.65 -0.49, 44.65 -0.4, 66.1 0 M66.1 0 C79.37 -0.16, 84.59 6.48, 85.26 19.16 M66.1 0 C78.35 -0.62, 87.21 6.48, 85.26 19.16 M85.26 19.16 C84.78 33.09, 86.67 43.68, 85.26 57.48 M85.26 19.16 C85.19 33.62, 84.59 50.64, 85.26 57.48 M85.26 57.48 C85.6 68.95, 77.26 74.78, 66.1 76.64 M85.26 57.48 C86.39 70.47, 81.1 77.94, 66.1 76.64 M66.1 76.64 C48.98 75.03, 30.65 76.41, 19.16 76.64 M66.1 76.64 C55.58 76.16, 46.21 77.32, 19.16 76.64 M19.16 76.64 C7.21 76.55, -1.87 68.88, 0 57.48 M19.16 76.64 C6.09 75.08, -2.2 69.2, 0 57.48 M0 57.48 C-1.34 47.24, 1.46 32.55, 0 19.16 M0 57.48 C0.43 47.04, 0.33 36.99, 0 19.16 M0 19.16 C1.4 7.53, 6.43 1.13, 19.16 0 M0 19.16 C-1.77 5.48, 7.62 2.26, 19.16 0" stroke="#1e1e1e" stroke-width="2" fill="none"></path></g><g stroke-linecap="round" transform="translate(45.41349600919875 102.14701704545405) rotate(0 19.283203125 7.48828125)"><path d="M3.74 0 C8.84 1.75, 16.93 -0.12, 34.82 0 C39.19 1.54, 37.2 1.06, 38.57 3.74 C37.66 6.6, 37.92 9.79, 38.57 11.23 C37.39 13.5, 37.16 14.63, 34.82 14.98 C22.01 13.69, 16.05 13.18, 3.74 14.98 C-0.3 14.17, -2.26 11.6, 0 11.23 C0.51 8.42, -0.52 5.42, 0 3.74 C-0.25 1.99, -0.32 -1.53, 3.74 0" stroke="none" stroke-width="0" fill="#868e96"></path><path d="M3.74 0 C13.78 0.47, 23.63 0.12, 34.82 0 M3.74 0 C12.66 -0.15, 21.52 0.05, 34.82 0 M34.82 0 C36.98 0.04, 38.34 0.98, 38.57 3.74 M34.82 0 C38.29 0.05, 38.91 1.32, 38.57 3.74 M38.57 3.74 C38.82 6.47, 38.93 9.29, 38.57 11.23 M38.57 3.74 C38.48 6.16, 38.6 8.1, 38.57 11.23 M38.57 11.23 C37.76 12.8, 37.81 15.07, 34.82 14.98 M38.57 11.23 C39.68 14.38, 38.14 14.53, 34.82 14.98 M34.82 14.98 C27.75 14.96, 20.45 14.83, 3.74 14.98 M34.82 14.98 C26.58 15.31, 17.79 14.89, 3.74 14.98 M3.74 14.98 C0.31 14.29, -0.13 13.05, 0 11.23 M3.74 14.98 C0.15 14.45, 0.05 13.09, 0 11.23 M0 11.23 C0.26 8.86, -0.07 6.92, 0 3.74 M0 11.23 C0.02 9.23, 0.12 7.19, 0 3.74 M0 3.74 C0.02 1.81, 0.48 -0.39, 3.74 0 M0 3.74 C0.62 2.38, 0.62 0.95, 3.74 0" stroke="#1e1e1e" stroke-width="2" fill="none"></path></g><g stroke-linecap="round" transform="translate(45.59936840503178 10) rotate(0 19.283203125 7.48828125)"><path d="M3.74 0 C13.42 -0.43, 23.56 1.28, 34.82 0 C35.96 -0.19, 40.72 0.86, 38.57 3.74 C37.85 6.01, 38.04 7.57, 38.57 11.23 C38.41 13.38, 38.24 14.67, 34.82 14.98 C26.46 12.81, 12.41 13.95, 3.74 14.98 C-1.01 12.85, 2.25 15.89, 0 11.23 C-0.5 8.24, -0.15 5.57, 0 3.74 C-1.57 -0.28, -0.47 -1.88, 3.74 0" stroke="none" stroke-width="0" fill="#868e96"></path><path d="M3.74 0 C13.96 0.09, 24.63 0.75, 34.82 0 M3.74 0 C11.45 0.03, 18.73 0.1, 34.82 0 M34.82 0 C37.09 -0.27, 39.42 1.29, 38.57 3.74 M34.82 0 C37.66 0.07, 39.52 0.96, 38.57 3.74 M38.57 3.74 C38.96 6.29, 38.59 9.24, 38.57 11.23 M38.57 3.74 C38.58 5.26, 38.4 6.84, 38.57 11.23 M38.57 11.23 C39.06 13.82, 38.29 15.54, 34.82 14.98 M38.57 11.23 C39.39 13.28, 36.38 15.16, 34.82 14.98 M34.82 14.98 C26.61 14.93, 19.77 14.79, 3.74 14.98 M34.82 14.98 C26.88 15.07, 18.06 14.75, 3.74 14.98 M3.74 14.98 C1.12 14.3, -0.95 13.27, 0 11.23 M3.74 14.98 C1.3 14.33, -0.27 12.84, 0 11.23 M0 11.23 C-0.13 8.28, -0.11 5.76, 0 3.74 M0 11.23 C0.12 9.1, 0 6.86, 0 3.74 M0 3.74 C-0.77 0.86, 1.78 0.98, 3.74 0 M0 3.74 C-0.62 2.2, 0.11 1.07, 3.74 0" stroke="#343a40" stroke-width="2" fill="none"></path></g><g stroke-linecap="round" transform="translate(10 53.475852272726115) rotate(0 13.974609375 10.47265625)"><path d="M5.24 0 C13.89 1.89, 16.37 -0.21, 22.71 0 C29.19 -0.54, 26.54 -1.55, 27.95 5.24 C26.97 8.21, 27.71 11.25, 27.95 15.71 C29.22 18.78, 27.49 17.64, 22.71 20.95 C16.56 19.74, 11.41 18.14, 5.24 20.95 C4.86 23.94, 3.48 21.4, 0 15.71 C-0.09 13.02, -1.05 8.14, 0 5.24 C-2.38 -0.86, 4.86 0.52, 5.24 0" stroke="none" stroke-width="0" fill="#fcc2d7"></path><path d="M5.24 0 C11.12 1.42, 16.58 0.27, 22.71 0 M5.24 0 C9.35 0.05, 13.86 -0.22, 22.71 0 M22.71 0 C27.9 0.08, 28.55 1.87, 27.95 5.24 M22.71 0 C28.11 -0.59, 29.42 3.34, 27.95 5.24 M27.95 5.24 C28.04 8.1, 27.19 10.21, 27.95 15.71 M27.95 5.24 C27.54 8.87, 28.22 13.52, 27.95 15.71 M27.95 15.71 C29.89 20.32, 27.63 20.17, 22.71 20.95 M27.95 15.71 C26.07 19.56, 24.79 20.28, 22.71 20.95 M22.71 20.95 C16.94 20.59, 11.3 22.25, 5.24 20.95 M22.71 20.95 C15.29 20.34, 9.38 20.34, 5.24 20.95 M5.24 20.95 C-0.16 20.02, 0.1 18.08, 0 15.71 M5.24 20.95 C1.21 19.16, 1.65 20.63, 0 15.71 M0 15.71 C-0.21 13.66, 0.02 11.25, 0 5.24 M0 15.71 C-0.06 12.45, -0.48 8.4, 0 5.24 M0 5.24 C1.07 3.71, 0.66 1.65, 5.24 0 M0 5.24 C-2.28 3.88, 1.49 -1.02, 5.24 0" stroke="#1e1e1e" stroke-width="2" fill="none"></path></g><g stroke-linecap="round" transform="translate(36.888671875 39.436789772726115) rotate(0 25.4296875 23.859375)"><path d="M23.11 -0.63 C28.3 -1.69, 34.73 0.51, 39.14 3.49 C43.55 6.48, 47.96 12.29, 49.57 17.28 C51.17 22.28, 50.83 28.72, 48.77 33.48 C46.71 38.25, 42 43.62, 37.22 45.88 C32.45 48.15, 25.4 48.52, 20.13 47.1 C14.86 45.67, 9 41.35, 5.59 37.33 C2.18 33.31, -0.74 28.06, -0.35 23 C0.04 17.93, 3.63 10.93, 7.93 6.93 C12.22 2.94, 22.13 0.11, 25.4 -0.98 C28.67 -2.07, 27.76 -0.28, 27.57 0.39 M29.74 -0.57 C34.91 -0.19, 40.65 5.24, 44.13 9.05 C47.61 12.87, 50.61 17.42, 50.61 22.32 C50.62 27.22, 47.63 34.22, 44.17 38.44 C40.72 42.67, 35.08 46.59, 29.87 47.66 C24.66 48.72, 17.6 47.34, 12.92 44.85 C8.25 42.36, 3.67 37.44, 1.81 32.71 C-0.06 27.97, -0.03 21.49, 1.74 16.42 C3.5 11.36, 8 4.81, 12.38 2.31 C16.76 -0.19, 25.47 1.83, 28.02 1.41 C30.56 0.99, 27.65 -0.18, 27.65 -0.21" stroke="none" stroke-width="0" fill="#fcc2d7"></path><path d="M27.53 -0.25 C32.8 -0.22, 39.6 2.93, 43.43 6.73 C47.26 10.54, 50.01 17.41, 50.49 22.59 C50.97 27.77, 49.39 33.63, 46.32 37.82 C43.26 42, 37.42 46.34, 32.11 47.73 C26.8 49.11, 19.3 48.49, 14.46 46.14 C9.63 43.78, 5.19 38.41, 3.09 33.59 C0.99 28.77, 0.56 22.08, 1.84 17.22 C3.13 12.37, 6.23 7.34, 10.81 4.46 C15.38 1.57, 25.54 0.4, 29.3 -0.07 C33.07 -0.55, 33.43 1.26, 33.38 1.59 M15.48 3.38 C20.01 0.81, 27.52 -1.01, 32.37 0.06 C37.23 1.14, 41.68 5.73, 44.6 9.85 C47.52 13.98, 49.99 19.95, 49.89 24.82 C49.8 29.68, 47.64 35.3, 44.04 39.03 C40.44 42.77, 33.78 46.52, 28.3 47.22 C22.82 47.91, 15.5 45.78, 11.15 43.22 C6.8 40.66, 3.61 36.68, 2.2 31.87 C0.79 27.06, 0.96 19.4, 2.7 14.34 C4.44 9.28, 10.72 3.57, 12.62 1.51 C14.51 -0.56, 13.87 1.53, 14.06 1.94" stroke="#1e1e1e" stroke-width="2" fill="none"></path></g></svg>