<svg version="1.1" xmlns="http://www.w3.org/2000/svg" viewBox="0 0 106.9432792787634 127.12357954545405" width="106.9432792787634" height="127.12357954545405">
  <!-- svg-source:excalidraw -->
  
  <defs>
    <style class="style-fonts">
      @font-face {
        font-family: "Virgil";
        src: url("https://excalidraw.com/Virgil.woff2");
      }
      @font-face {
        font-family: "Cascadia";
        src: url("https://excalidraw.com/Cascadia.woff2");
      }
      @font-face {
        font-family: "Assistant";
        src: url("https://excalidraw.com/Assistant-Regular.woff2");
      }
    </style>
    
  </defs>
  <g stroke-linecap="round" transform="translate(11.681560528763402 24.85274621212011) rotate(0 42.630859375 38.322265625)"><path d="M19.16 0 C39.02 -0.48, 51.49 -3.23, 66.1 0 C78.85 -2.33, 86.42 4.76, 85.26 19.16 C86.49 29.91, 86.51 38.18, 85.26 57.48 C83.28 73.12, 76.18 74.5, 66.1 76.64 C56.58 78.95, 44.32 78.15, 19.16 76.64 C6.7 75, -0.1 69.91, 0 57.48 C-1.96 42.28, 3.53 32.82, 0 19.16 C-3.26 4.44, 4 2.24, 19.16 0" stroke="none" stroke-width="0" fill="#fd7e14"></path><path d="M19.16 0 C36.19 0.41, 54.96 -0.75, 66.1 0 M19.16 0 C34.3 0.17, 48.04 0.19, 66.1 0 M66.1 0 C80.53 -0.51, 86.54 7.77, 85.26 19.16 M66.1 0 C77.99 2.27, 84.13 6.37, 85.26 19.16 M85.26 19.16 C86.81 31.47, 83.64 41.48, 85.26 57.48 M85.26 19.16 C86.42 27.65, 86.16 34.64, 85.26 57.48 M85.26 57.48 C83.63 70.57, 77.64 76.07, 66.1 76.64 M85.26 57.48 C85.44 68.41, 78.75 76.12, 66.1 76.64 M66.1 76.64 C54.52 77.82, 39.71 75.13, 19.16 76.64 M66.1 76.64 C54.29 75.87, 44.43 75.77, 19.16 76.64 M19.16 76.64 C5.92 75.09, 1.43 71.5, 0 57.48 M19.16 76.64 C4.57 76.01, -1.01 69.74, 0 57.48 M0 57.48 C0.78 46.4, 1.15 32.56, 0 19.16 M0 57.48 C0.83 44.81, -0.25 30.99, 0 19.16 M0 19.16 C-1.98 8.24, 6.16 -0.89, 19.16 0 M0 19.16 C1.51 7.01, 6.24 1.66, 19.16 0" stroke="#1e1e1e" stroke-width="2" fill="none"></path></g><g stroke-linecap="round" transform="translate(35.550553189748385 102.14701704545405) rotate(0 19.283203125 7.48828125)"><path d="M3.74 0 C11.82 -2.32, 21.91 -1.62, 34.82 0 C38.16 -1.18, 38.34 1.09, 38.57 3.74 C38.95 5, 38.07 8.81, 38.57 11.23 C36.62 12.18, 36.51 12.72, 34.82 14.98 C30.55 16.9, 21.48 14.13, 3.74 14.98 C1.18 14.73, 0.74 12.16, 0 11.23 C0.91 9.57, -0.82 7.09, 0 3.74 C-1.72 2.87, -0.67 -0.43, 3.74 0" stroke="none" stroke-width="0" fill="#868e96"></path><path d="M3.74 0 C13.52 -0.37, 23.5 -0.27, 34.82 0 M3.74 0 C12.39 0.03, 21.14 -0.13, 34.82 0 M34.82 0 C37.96 0.69, 38.18 2.23, 38.57 3.74 M34.82 0 C36.75 -0.01, 38.71 0.31, 38.57 3.74 M38.57 3.74 C38.36 5.33, 38.25 7.7, 38.57 11.23 M38.57 3.74 C38.74 5.99, 38.45 8.4, 38.57 11.23 M38.57 11.23 C37.95 13.44, 37.4 14.18, 34.82 14.98 M38.57 11.23 C38.5 13.47, 37.09 14.54, 34.82 14.98 M34.82 14.98 C23.11 14.1, 10.81 14.91, 3.74 14.98 M34.82 14.98 C27.63 14.63, 20.28 14.52, 3.74 14.98 M3.74 14.98 C1.97 15.6, -0.79 13.45, 0 11.23 M3.74 14.98 C0.74 14.72, 0.3 13.72, 0 11.23 M0 11.23 C0.2 8.87, 0.2 6.21, 0 3.74 M0 11.23 C-0.12 9.43, -0.21 7.5, 0 3.74 M0 3.74 C-0.11 0.81, 1.9 0.27, 3.74 0 M0 3.74 C-0.07 2.08, 1.93 -0.6, 3.74 0" stroke="#1e1e1e" stroke-width="2" fill="none"></path></g><g stroke-linecap="round" transform="translate(35.736425585581415 10) rotate(0 19.283203125 7.48828125)"><path d="M3.74 0 C12.58 -1.32, 22.29 -0.81, 34.82 0 C37.09 -0.16, 38.22 2.17, 38.57 3.74 C38.07 6.68, 37.87 7.48, 38.57 11.23 C37.76 11.47, 35.19 17.22, 34.82 14.98 C23.13 14.04, 10.93 14.98, 3.74 14.98 C1.99 13.4, -1.53 12.01, 0 11.23 C-0.96 9, -0.73 8.43, 0 3.74 C-1.92 0.82, -1.09 2.32, 3.74 0" stroke="none" stroke-width="0" fill="#868e96"></path><path d="M3.74 0 C13.88 -0.18, 23.66 0.9, 34.82 0 M3.74 0 C13.61 -0.14, 22.96 0.34, 34.82 0 M34.82 0 C36.93 0.99, 38.07 1.24, 38.57 3.74 M34.82 0 C37.46 -0.94, 38.01 2.32, 38.57 3.74 M38.57 3.74 C38.19 6.3, 38.58 8.86, 38.57 11.23 M38.57 3.74 C38.44 6.44, 38.48 9.02, 38.57 11.23 M38.57 11.23 C38.64 12.93, 37.26 14.75, 34.82 14.98 M38.57 11.23 C38.34 13.29, 38.18 15.87, 34.82 14.98 M34.82 14.98 C23.53 14.7, 12.94 13.88, 3.74 14.98 M34.82 14.98 C26.81 14.5, 19.4 15.2, 3.74 14.98 M3.74 14.98 C0.46 14.7, -0.44 13.5, 0 11.23 M3.74 14.98 C1.54 14.97, 0.19 14.18, 0 11.23 M0 11.23 C0.19 8.18, -0.17 5.89, 0 3.74 M0 11.23 C-0.17 8.42, 0 5.18, 0 3.74 M0 3.74 C0.66 1.52, 1.18 0.72, 3.74 0 M0 3.74 C0.68 0.65, 1.16 0.95, 3.74 0" stroke="#343a40" stroke-width="2" fill="none"></path></g><g stroke-linecap="round" transform="translate(13.186373760761416 77.90604504315706) rotate(312.47556431009303 13.974609375000004 10.47265625)"><path d="M5.24 0 C9.9 -1.22, 12.25 0.02, 22.71 0 C25.72 1.27, 27.53 3.03, 27.95 5.24 C26.44 6.29, 27.26 7.96, 27.95 15.71 C25.01 22.31, 29.2 24.42, 22.71 20.95 C16.31 20.5, 10.99 18.9, 5.24 20.95 C-0.37 18.57, -2.61 22.31, 0 15.71 C-1.08 13.59, -1.22 8.81, 0 5.24 C-3.23 4.95, 1.14 -0.01, 5.24 0" stroke="none" stroke-width="0" fill="#fcc2d7"></path><path d="M5.24 0 C9.42 1.52, 14.62 0.56, 22.71 0 M5.24 0 C11.15 0.65, 15.61 0.91, 22.71 0 M22.71 0 C25.22 -0.01, 28.19 0.11, 27.95 5.24 M22.71 0 C25.09 2.14, 28.34 0.24, 27.95 5.24 M27.95 5.24 C27.95 8.55, 28.44 10.58, 27.95 15.71 M27.95 5.24 C27.54 7.82, 27.9 10.29, 27.95 15.71 M27.95 15.71 C27.84 18.75, 25.81 20.19, 22.71 20.95 M27.95 15.71 C29.68 21, 27.15 20.84, 22.71 20.95 M22.71 20.95 C17.92 19.25, 14.69 21.01, 5.24 20.95 M22.71 20.95 C19.07 21.35, 13.49 20.57, 5.24 20.95 M5.24 20.95 C0.87 20.49, 0.51 19.19, 0 15.71 M5.24 20.95 C2.12 21.84, 1.61 20.52, 0 15.71 M0 15.71 C-0.47 13.1, 0.97 8.81, 0 5.24 M0 15.71 C0.04 11.47, 0.45 7.84, 0 5.24 M0 5.24 C-0.13 3.19, 2.93 -1.05, 5.24 0 M0 5.24 C-0.17 3.65, 1.4 -0.9, 5.24 0" stroke="#1e1e1e" stroke-width="2" fill="none"></path></g><g stroke-linecap="round" transform="translate(28.105044809020473 37.022564965653146) rotate(312.47556431009303 25.429687500000007 23.859375000000004)"><path d="M28.08 0.1 C33.3 -0.05, 40.17 2.45, 43.88 6.13 C47.59 9.81, 49.78 17.06, 50.36 22.19 C50.93 27.31, 50.22 32.95, 47.32 36.9 C44.43 40.84, 38.23 44.46, 32.97 45.88 C27.71 47.3, 20.9 47.29, 15.73 45.42 C10.57 43.56, 4.44 39.33, 2 34.71 C-0.44 30.1, -0.47 22.7, 1.1 17.74 C2.68 12.79, 6.5 7.84, 11.45 4.98 C16.4 2.12, 26.77 1.07, 30.8 0.58 C34.84 0.09, 35.72 1.8, 35.65 2.05 M24.66 -0.13 C29.98 -0.57, 37.23 2.06, 41.62 5.33 C46.01 8.59, 49.92 14.62, 50.99 19.46 C52.06 24.3, 50.97 29.67, 48.03 34.34 C45.1 39, 38.78 45.6, 33.39 47.44 C28 49.29, 20.76 47.56, 15.69 45.41 C10.63 43.27, 5.74 38.61, 2.99 34.56 C0.23 30.5, -2.07 25.67, -0.85 21.09 C0.36 16.52, 5.75 10.58, 10.27 7.08 C14.78 3.59, 23.86 1.24, 26.26 0.13 C28.66 -0.98, 24.83 -0.01, 24.66 0.44" stroke="none" stroke-width="0" fill="#fcc2d7"></path><path d="M28.97 0.91 C34.24 1.13, 41.38 4.04, 45.19 7.69 C49 11.33, 51.82 17.58, 51.84 22.77 C51.86 27.97, 49 34.86, 45.3 38.86 C41.61 42.86, 34.83 45.74, 29.65 46.76 C24.46 47.78, 18.96 47.48, 14.2 44.98 C9.44 42.49, 3.41 36.47, 1.1 31.77 C-1.2 27.06, -1.47 21.3, 0.39 16.75 C2.25 12.2, 6.58 6.91, 12.26 4.47 C17.94 2.02, 30.24 2.35, 34.47 2.08 C38.7 1.81, 37.85 2.71, 37.64 2.87 M21.69 -0.09 C26.69 -0.99, 33.66 0.05, 38.5 2.99 C43.34 5.93, 48.84 12.61, 50.71 17.55 C52.57 22.48, 52.11 28.24, 49.67 32.62 C47.23 37, 41.01 41.58, 36.08 43.84 C31.14 46.1, 25.41 47.19, 20.07 46.2 C14.73 45.22, 7.37 41.93, 4.04 37.95 C0.71 33.97, -0.26 27.5, 0.08 22.31 C0.43 17.12, 2.31 10.34, 6.1 6.82 C9.89 3.3, 20.42 2.27, 22.84 1.18 C25.27 0.1, 20.88 0.13, 20.66 0.31" stroke="#1e1e1e" stroke-width="2" fill="none"></path></g></svg>