<svg version="1.1" xmlns="http://www.w3.org/2000/svg" viewBox="0 0 105.26171875 140.84223780150205" width="105.26171875" height="140.84223780150205">
  <!-- svg-source:excalidraw -->
  
  <defs>
    <style class="style-fonts">
      @font-face {
        font-family: "Virgil";
        src: url("https://excalidraw.com/Virgil.woff2");
      }
      @font-face {
        font-family: "Cascadia";
        src: url("https://excalidraw.com/Cascadia.woff2");
      }
      @font-face {
        font-family: "Assistant";
        src: url("https://excalidraw.com/Assistant-Regular.woff2");
      }
    </style>
    
  </defs>
  <g stroke-linecap="round" transform="translate(34.05486505681802 109.06643921733757) rotate(22.461246866865288 19.283203125 7.48828125)"><path d="M3.74 0 C12.78 -1.9, 18.21 2.31, 34.82 0 C34.89 0.69, 40.55 3.03, 38.57 3.74 C38.52 6.54, 38.86 8.79, 38.57 11.23 C40.13 14.79, 34.79 16.56, 34.82 14.98 C23.31 16.44, 11.72 12.84, 3.74 14.98 C3.07 12.61, 2.28 13.28, 0 11.23 C-0.14 8.46, -0.09 5.44, 0 3.74 C0.56 -0.44, 1.3 -2.14, 3.74 0" stroke="none" stroke-width="0" fill="#868e96"></path><path d="M3.74 0 C15.14 0.25, 28.24 -0.94, 34.82 0 M3.74 0 C11.48 0.03, 18.74 0.31, 34.82 0 M34.82 0 C37.55 -0.69, 38.3 0.25, 38.57 3.74 M34.82 0 C36.87 -0.46, 37.53 0.89, 38.57 3.74 M38.57 3.74 C38.48 6.06, 38.24 8.31, 38.57 11.23 M38.57 3.74 C38.5 6.01, 38.73 7.97, 38.57 11.23 M38.57 11.23 C38.29 12.89, 37.16 15.42, 34.82 14.98 M38.57 11.23 C38.77 13.62, 37.48 15.88, 34.82 14.98 M34.82 14.98 C23.44 14.4, 11.76 14.49, 3.74 14.98 M34.82 14.98 C24.42 15.27, 14.8 15.46, 3.74 14.98 M3.74 14.98 C1.64 15.73, 0.6 14.64, 0 11.23 M3.74 14.98 C0.27 15.59, -0.8 12.91, 0 11.23 M0 11.23 C0.12 8.89, 0.22 6.13, 0 3.74 M0 11.23 C-0.05 8.16, 0.07 5.4, 0 3.74 M0 3.74 C0.4 1.77, 1.83 -0.12, 3.74 0 M0 3.74 C-0.73 1.93, 1.96 -0.54, 3.74 0" stroke="#1e1e1e" stroke-width="2" fill="none"></path></g><g stroke-linecap="round" transform="translate(33.868992660985896 16.919422171883525) rotate(22.923355211056883 19.283203125 7.48828125)"><path d="M3.74 0 C12.49 2.48, 17.7 1, 34.82 0 C39.3 1.78, 40.37 1.57, 38.57 3.74 C38.84 5.72, 39.14 9.07, 38.57 11.23 C36.04 15.31, 39.77 12.75, 34.82 14.98 C25.74 12.89, 15.68 12.81, 3.74 14.98 C3.53 14.53, 1.33 13.13, 0 11.23 C-0.1 8.88, 0.23 6.96, 0 3.74 C0.05 -0.89, 3.44 -2.34, 3.74 0" stroke="none" stroke-width="0" fill="#868e96"></path><path d="M3.74 0 C14.63 -0.93, 23.73 -0.67, 34.82 0 M3.74 0 C13.86 0.33, 24.12 -0.37, 34.82 0 M34.82 0 C37.05 -1, 38.18 0.85, 38.57 3.74 M34.82 0 C36.28 -0.36, 38.59 0.87, 38.57 3.74 M38.57 3.74 C38.25 6.22, 38.49 8.97, 38.57 11.23 M38.57 3.74 C38.68 5.78, 38.49 7.67, 38.57 11.23 M38.57 11.23 C38.41 14.17, 37.5 14.89, 34.82 14.98 M38.57 11.23 C38.72 14.64, 38.28 14.37, 34.82 14.98 M34.82 14.98 C27.48 14.47, 18.82 15.55, 3.74 14.98 M34.82 14.98 C24.91 15.49, 14.52 15.43, 3.74 14.98 M3.74 14.98 C1.85 15.89, -0.85 14.26, 0 11.23 M3.74 14.98 C0.45 14.16, 0.23 14.11, 0 11.23 M0 11.23 C0.22 8.4, 0.34 6.51, 0 3.74 M0 11.23 C0.11 8.44, 0.08 5.58, 0 3.74 M0 3.74 C0.58 1.13, 0.62 0.59, 3.74 0 M0 3.74 C0.72 0.71, 0.37 0.46, 3.74 0" stroke="#1e1e1e" stroke-width="2" fill="none"></path></g><g stroke-linecap="round" transform="translate(10 32.545724255215646) rotate(0 42.630859375 38.322265625)"><path d="M19.16 0 C26.2 0.25, 42.7 1.76, 66.1 0 C81.38 0.44, 86.3 6.17, 85.26 19.16 C87.62 32.25, 81.97 44.58, 85.26 57.48 C88.65 67.18, 80.22 77.67, 66.1 76.64 C52.18 72.62, 36.37 75.28, 19.16 76.64 C8.24 75.82, -2.05 69.64, 0 57.48 C0.86 44.2, 0.16 32.64, 0 19.16 C3.04 3.15, 3 3.01, 19.16 0" stroke="none" stroke-width="0" fill="#a18072"></path><path d="M19.16 0 C33.46 -0.84, 50.62 1.33, 66.1 0 M19.16 0 C34.12 -1.02, 48.36 -1.33, 66.1 0 M66.1 0 C78.1 -0.8, 83.46 5.76, 85.26 19.16 M66.1 0 C78.92 -0.76, 85.82 5.91, 85.26 19.16 M85.26 19.16 C84.6 33.19, 84.4 42.24, 85.26 57.48 M85.26 19.16 C85.26 32.86, 85.37 48.68, 85.26 57.48 M85.26 57.48 C85.62 70.08, 79.15 78.22, 66.1 76.64 M85.26 57.48 C87.19 69.05, 78 77.9, 66.1 76.64 M66.1 76.64 C55 77.75, 43.4 75.56, 19.16 76.64 M66.1 76.64 C50.04 77.81, 33.81 77.97, 19.16 76.64 M19.16 76.64 C4.69 77.71, -1.4 68.83, 0 57.48 M19.16 76.64 C6.86 77.4, 0.86 71.07, 0 57.48 M0 57.48 C1.66 47.17, 1.44 33.09, 0 19.16 M0 57.48 C0.19 48.8, 0.36 38.96, 0 19.16 M0 19.16 C-1.26 7.57, 7.63 -0.94, 19.16 0 M0 19.16 C-1.75 7.32, 5.55 1.84, 19.16 0" stroke="#1e1e1e" stroke-width="2" fill="none"></path></g><g stroke-linecap="round" transform="translate(38.649680311687916 96.89204723666899) rotate(90.684351531919 13.974609375 10.47265625)"><path d="M5.24 0 C11.54 0.45, 17.46 -3.16, 22.71 0 C23.21 0.32, 27.6 3.23, 27.95 5.24 C28.26 8.69, 28.52 14.6, 27.95 15.71 C31.5 16.91, 24.41 18.77, 22.71 20.95 C14.27 18.71, 11.53 20.29, 5.24 20.95 C-1.74 22.99, 3.48 19.92, 0 15.71 C-0.88 12.09, 0.99 8.1, 0 5.24 C2.74 5.33, 4.29 -0.55, 5.24 0" stroke="none" stroke-width="0" fill="#fcc2d7"></path><path d="M5.24 0 C11.45 0.21, 17.5 -1.48, 22.71 0 M5.24 0 C12.05 -0.67, 19.53 0.25, 22.71 0 M22.71 0 C27.01 1.04, 29.11 1.5, 27.95 5.24 M22.71 0 C24.75 1.37, 29.38 0.67, 27.95 5.24 M27.95 5.24 C28.83 6.76, 28.21 10.8, 27.95 15.71 M27.95 5.24 C28.34 7.76, 28.04 9.72, 27.95 15.71 M27.95 15.71 C27.83 19.26, 26.78 19.95, 22.71 20.95 M27.95 15.71 C29.33 20.14, 23.97 22.34, 22.71 20.95 M22.71 20.95 C16.32 21.89, 9.88 19.47, 5.24 20.95 M22.71 20.95 C16.09 21.55, 9.57 20.6, 5.24 20.95 M5.24 20.95 C1.4 20.66, -0.24 18.1, 0 15.71 M5.24 20.95 C2.24 19.45, 0.05 17.31, 0 15.71 M0 15.71 C0.97 10.99, -0.22 6.75, 0 5.24 M0 15.71 C0.32 13.35, -0.39 10.32, 0 5.24 M0 5.24 C-1.56 2.5, 1.31 1.5, 5.24 0 M0 5.24 C1.92 3.29, 2.47 -1.55, 5.24 0" stroke="#1e1e1e" stroke-width="2" fill="none"></path></g><g stroke-linecap="round" transform="translate(27.00027901785961 45.15652205235256) rotate(90.684351531919 25.4296875 23.859375)"><path d="M27.34 0.98 C32.47 1.04, 38.82 2.96, 42.87 6.39 C46.92 9.83, 51.17 16.49, 51.64 21.6 C52.1 26.71, 49.08 32.81, 45.66 37.07 C42.25 41.32, 36.51 45.65, 31.14 47.13 C25.77 48.6, 18.14 48.3, 13.44 45.9 C8.74 43.51, 4.96 37.69, 2.92 32.78 C0.89 27.87, -0.23 21.27, 1.23 16.44 C2.68 11.62, 6.7 6.36, 11.65 3.82 C16.59 1.29, 27.4 1.62, 30.9 1.25 C34.4 0.88, 32.97 1.25, 32.65 1.61 M35.26 1.47 C39.85 2.81, 43.92 6.91, 46.45 11.45 C48.97 15.99, 51.22 23.28, 50.43 28.72 C49.63 34.15, 46.14 41.1, 41.67 44.05 C37.2 47, 29.09 46.92, 23.6 46.42 C18.1 45.92, 12.53 44.11, 8.72 41.05 C4.92 37.99, 1.34 33.21, 0.78 28.07 C0.22 22.94, 2.69 14.86, 5.37 10.23 C8.05 5.59, 11.68 1.55, 16.86 0.25 C22.04 -1.05, 33.31 2.23, 36.45 2.44 C39.59 2.64, 36.31 1.01, 35.71 1.48" stroke="none" stroke-width="0" fill="#fcc2d7"></path><path d="M16.29 1.81 C20.66 -0.43, 27.07 0.02, 32.22 1.59 C37.37 3.16, 44.02 6.94, 47.18 11.23 C50.35 15.51, 51.94 22.4, 51.19 27.3 C50.44 32.21, 46.65 37.15, 42.69 40.65 C38.72 44.15, 32.9 48.05, 27.4 48.31 C21.9 48.56, 14.08 45.41, 9.69 42.18 C5.31 38.95, 2.09 33.89, 1.07 28.91 C0.04 23.92, 0.24 16.89, 3.55 12.28 C6.86 7.67, 17.31 3.17, 20.92 1.25 C24.54 -0.68, 25.08 0.39, 25.25 0.75 M33.99 1.47 C39.01 2.64, 44.97 6.63, 47.86 11.15 C50.76 15.67, 52.63 23.26, 51.38 28.58 C50.13 33.89, 44.44 40.05, 40.35 43.02 C36.27 46, 32 46.51, 26.89 46.44 C21.77 46.36, 13.97 45.52, 9.68 42.59 C5.39 39.66, 2.42 33.78, 1.15 28.85 C-0.12 23.92, -0.3 17.37, 2.06 13.02 C4.43 8.67, 10.03 4.57, 15.33 2.77 C20.62 0.97, 30.79 2.49, 33.83 2.2 C36.87 1.9, 33.71 0.81, 33.57 1.02" stroke="#1e1e1e" stroke-width="2" fill="none"></path></g></svg>