<svg version="1.1" xmlns="http://www.w3.org/2000/svg" viewBox="0 0 105.26171875 140.84223780150205" width="105.26171875" height="140.84223780150205">
  <!-- svg-source:excalidraw -->
  
  <defs>
    <style class="style-fonts">
      @font-face {
        font-family: "Virgil";
        src: url("https://excalidraw.com/Virgil.woff2");
      }
      @font-face {
        font-family: "Cascadia";
        src: url("https://excalidraw.com/Cascadia.woff2");
      }
      @font-face {
        font-family: "Assistant";
        src: url("https://excalidraw.com/Assistant-Regular.woff2");
      }
    </style>
    
  </defs>
  <g stroke-linecap="round" transform="translate(34.05486505681802 109.06643921733757) rotate(22.461246866865288 19.283203125 7.48828125)"><path d="M3.74 0 C15.63 -2.49, 26.54 -2.57, 34.82 0 C39.6 -0.44, 39.9 0.65, 38.57 3.74 C38.43 5.03, 38.76 6.75, 38.57 11.23 C38.62 11.59, 39.51 12.64, 34.82 14.98 C27.64 12.45, 21.05 14.97, 3.74 14.98 C-0.78 16.61, 1.95 11.84, 0 11.23 C-0.14 9.55, 0.89 7.06, 0 3.74 C0.82 -0.5, 2.98 2.01, 3.74 0" stroke="none" stroke-width="0" fill="#868e96"></path><path d="M3.74 0 C12.99 0.1, 23.73 0.95, 34.82 0 M3.74 0 C12.57 -0.15, 20.56 -0.54, 34.82 0 M34.82 0 C37.16 0.45, 38.75 1.16, 38.57 3.74 M34.82 0 C37.48 0.91, 39.53 0.65, 38.57 3.74 M38.57 3.74 C38.89 5.55, 38.69 7.91, 38.57 11.23 M38.57 3.74 C38.67 6.38, 38.62 8.82, 38.57 11.23 M38.57 11.23 C39.17 14.64, 36.47 15.51, 34.82 14.98 M38.57 11.23 C37.76 12.91, 37.55 15.35, 34.82 14.98 M34.82 14.98 C24.95 14.19, 14.8 15.89, 3.74 14.98 M34.82 14.98 C23.18 15.11, 11.17 15.14, 3.74 14.98 M3.74 14.98 C1.83 14.86, -0.63 14.32, 0 11.23 M3.74 14.98 C1.96 14.44, -0.88 14.19, 0 11.23 M0 11.23 C0.05 9.57, -0.38 7.38, 0 3.74 M0 11.23 C0 8.47, -0.04 5.6, 0 3.74 M0 3.74 C0.29 0.75, 1.85 0.41, 3.74 0 M0 3.74 C-1.12 1.95, 2.33 -0.98, 3.74 0" stroke="#1e1e1e" stroke-width="2" fill="none"></path></g><g stroke-linecap="round" transform="translate(33.868992660984986 16.919422171883525) rotate(22.923355211056883 19.283203125 7.48828125)"><path d="M3.74 0 C16.46 -2.01, 27.8 -0.09, 34.82 0 C38.65 -0.6, 37.09 0.8, 38.57 3.74 C38.76 5.25, 38.58 7.22, 38.57 11.23 C40.76 11.39, 34.88 17.15, 34.82 14.98 C26.58 14.88, 18.23 16.26, 3.74 14.98 C3.2 13.08, 0.58 11.7, 0 11.23 C0.83 9.35, 0.33 5.52, 0 3.74 C1.73 3.25, 2.09 -0.08, 3.74 0" stroke="none" stroke-width="0" fill="#868e96"></path><path d="M3.74 0 C13.37 0.95, 23.07 -0.56, 34.82 0 M3.74 0 C15.39 -0.41, 27.24 0.23, 34.82 0 M34.82 0 C37.5 -0.09, 38.7 2.04, 38.57 3.74 M34.82 0 C38.28 -0.6, 38.13 1.88, 38.57 3.74 M38.57 3.74 C38.7 5.85, 38.71 7.29, 38.57 11.23 M38.57 3.74 C38.66 6.51, 38.7 9.16, 38.57 11.23 M38.57 11.23 C37.72 14.26, 36.62 14.26, 34.82 14.98 M38.57 11.23 C38.8 14.11, 37.75 15.38, 34.82 14.98 M34.82 14.98 C25.96 15.74, 16.04 14.75, 3.74 14.98 M34.82 14.98 C27.56 15.31, 20.19 14.99, 3.74 14.98 M3.74 14.98 C0.62 15.57, 0.62 13.26, 0 11.23 M3.74 14.98 C0.37 15.44, -0.42 14.65, 0 11.23 M0 11.23 C-0.36 9.67, 0.28 8.17, 0 3.74 M0 11.23 C-0.02 8.47, 0.05 5.61, 0 3.74 M0 3.74 C0.6 1.66, 0.28 0.61, 3.74 0 M0 3.74 C1.08 0.26, 1.68 0.33, 3.74 0" stroke="#1e1e1e" stroke-width="2" fill="none"></path></g><g stroke-linecap="round" transform="translate(10 32.545724255215646) rotate(0 42.630859375 38.322265625)"><path d="M19.16 0 C32.27 0.15, 40.91 -0.06, 66.1 0 C76.82 -0.61, 84.74 5.95, 85.26 19.16 C85.49 25.6, 88.45 34.71, 85.26 57.48 C81.88 73.26, 76.51 75.56, 66.1 76.64 C53.29 78.99, 48.81 74.11, 19.16 76.64 C7.19 73.84, 1.36 69.47, 0 57.48 C0.55 40.69, 1.82 31.53, 0 19.16 C1.17 6.27, 7.02 -0.68, 19.16 0" stroke="none" stroke-width="0" fill="#a18072"></path><path d="M19.16 0 C33.27 -1.55, 50.06 0.95, 66.1 0 M19.16 0 C32.86 0.84, 47.06 0.3, 66.1 0 M66.1 0 C79.15 1.58, 86.94 5.34, 85.26 19.16 M66.1 0 C78 1.26, 84.07 8.23, 85.26 19.16 M85.26 19.16 C85.96 28.14, 86.37 40.23, 85.26 57.48 M85.26 19.16 C86.01 34.91, 84.56 49.37, 85.26 57.48 M85.26 57.48 C83.87 68.83, 79.28 77.3, 66.1 76.64 M85.26 57.48 C86.12 71.07, 79.23 78.05, 66.1 76.64 M66.1 76.64 C57.48 76.87, 44.31 78.19, 19.16 76.64 M66.1 76.64 C50.48 76.77, 33.06 77.48, 19.16 76.64 M19.16 76.64 C7.63 75.71, -1.52 71.07, 0 57.48 M19.16 76.64 C5.55 78.48, -1.81 70.74, 0 57.48 M0 57.48 C1.88 44.17, 1.75 28.37, 0 19.16 M0 57.48 C0.31 44.38, 0.62 32.69, 0 19.16 M0 19.16 C-1.94 7.6, 8.27 -1.71, 19.16 0 M0 19.16 C0.86 7.04, 7.55 1.24, 19.16 0" stroke="#1e1e1e" stroke-width="2" fill="none"></path></g><g stroke-linecap="round" transform="translate(40.63070709740077 21.99483342197982) rotate(269.315648468081 13.974609375 10.47265625)"><path d="M5.24 0 C6.51 1.95, 15.05 -2.32, 22.71 0 C27 -2.8, 29.31 0.96, 27.95 5.24 C28.7 7.89, 29.36 14.54, 27.95 15.71 C29.11 19.08, 26.83 20.27, 22.71 20.95 C18.87 22.27, 18.49 19.08, 5.24 20.95 C-1.33 21.77, -1.23 20.5, 0 15.71 C-1.13 10.78, 1.64 8.98, 0 5.24 C2.18 0.02, -1.04 3.08, 5.24 0" stroke="none" stroke-width="0" fill="#fcc2d7"></path><path d="M5.24 0 C10.25 -0.89, 15.11 1.05, 22.71 0 M5.24 0 C12.53 0.66, 18.03 0.33, 22.71 0 M22.71 0 C24.81 -1.43, 28.36 2.4, 27.95 5.24 M22.71 0 C27.06 0.81, 28.31 3.15, 27.95 5.24 M27.95 5.24 C28.93 7.43, 27.42 10.42, 27.95 15.71 M27.95 5.24 C28.29 8.79, 27.66 12.78, 27.95 15.71 M27.95 15.71 C29.19 18.26, 24.68 21.75, 22.71 20.95 M27.95 15.71 C27.11 21.04, 24.4 21.43, 22.71 20.95 M22.71 20.95 C17.35 22.19, 10.54 21.21, 5.24 20.95 M22.71 20.95 C17.22 20.52, 11.74 21.31, 5.24 20.95 M5.24 20.95 C-0.2 22.16, 1.88 17.49, 0 15.71 M5.24 20.95 C2.61 21.6, 1.16 20.44, 0 15.71 M0 15.71 C0.85 13.31, 0.46 11.03, 0 5.24 M0 15.71 C-0.05 12.88, 0.13 10.28, 0 5.24 M0 5.24 C0.04 0.1, 3.43 -1.8, 5.24 0 M0 5.24 C-2.16 3.67, 0.23 -0.69, 5.24 0" stroke="#1e1e1e" stroke-width="2" fill="none"></path></g><g stroke-linecap="round" transform="translate(28.981305803573377 46.95692110629625) rotate(269.315648468081 25.4296875 23.859375)"><path d="M30.7 -0.46 C35.91 -0.1, 42.31 3.77, 45.81 7.84 C49.32 11.92, 51.83 18.76, 51.74 23.98 C51.64 29.21, 49.01 35.32, 45.22 39.19 C41.42 43.07, 34.45 46.39, 28.96 47.24 C23.48 48.08, 16.98 46.8, 12.3 44.25 C7.62 41.71, 2.76 36.76, 0.88 31.96 C-1.01 27.15, -0.89 20.12, 0.99 15.44 C2.87 10.77, 7.22 6.51, 12.17 3.89 C17.12 1.28, 27.09 0.27, 30.68 -0.23 C34.26 -0.74, 33.66 0.48, 33.66 0.87 M21.69 1.54 C26.51 0.59, 32.42 0.99, 36.81 3.4 C41.21 5.82, 46.01 11.11, 48.06 16.02 C50.11 20.94, 50.49 28, 49.09 32.9 C47.69 37.79, 44.19 43.15, 39.64 45.4 C35.08 47.64, 27.18 47.2, 21.76 46.39 C16.34 45.58, 10.67 44.27, 7.13 40.55 C3.58 36.83, 0.67 29.42, 0.49 24.07 C0.3 18.72, 2.9 12.59, 6.03 8.44 C9.17 4.29, 16.8 0.45, 19.29 -0.84 C21.77 -2.12, 20.54 -0.09, 20.97 0.73" stroke="none" stroke-width="0" fill="#fcc2d7"></path><path d="M34.53 1.92 C39.53 3.02, 45.42 6.61, 48.17 10.78 C50.93 14.95, 52.21 21.73, 51.07 26.96 C49.93 32.18, 45.5 38.59, 41.35 42.11 C37.19 45.63, 31.4 48.02, 26.13 48.09 C20.86 48.16, 13.9 45.94, 9.73 42.52 C5.55 39.09, 1.99 32.44, 1.06 27.54 C0.14 22.65, 1.48 17.48, 4.17 13.13 C6.86 8.78, 11.77 3.09, 17.22 1.46 C22.66 -0.16, 32.88 2.69, 36.84 3.39 C40.79 4.09, 40.96 5.28, 40.95 5.64 M24.83 -0.66 C29.95 -1.3, 35.3 1.94, 39.43 5.3 C43.56 8.66, 48.35 14.59, 49.62 19.51 C50.88 24.43, 49.14 30.7, 47 34.84 C44.86 38.98, 41.53 42.18, 36.8 44.35 C32.06 46.52, 23.84 48.92, 18.58 47.87 C13.32 46.83, 8.28 42.44, 5.24 38.05 C2.2 33.67, -0.08 26.82, 0.35 21.57 C0.78 16.33, 3.85 10.3, 7.85 6.59 C11.85 2.87, 21.5 0.21, 24.33 -0.7 C27.16 -1.61, 25.12 0.46, 24.83 1.13" stroke="#1e1e1e" stroke-width="2" fill="none"></path></g></svg>