<svg version="1.1" xmlns="http://www.w3.org/2000/svg" viewBox="0 0 109.03033285019364 140.84223780150205" width="109.03033285019364" height="140.84223780150205">
  <!-- svg-source:excalidraw -->
  
  <defs>
    <style class="style-fonts">
      @font-face {
        font-family: "Virgil";
        src: url("https://excalidraw.com/Virgil.woff2");
      }
      @font-face {
        font-family: "Cascadia";
        src: url("https://excalidraw.com/Cascadia.woff2");
      }
      @font-face {
        font-family: "Assistant";
        src: url("https://excalidraw.com/Assistant-Regular.woff2");
      }
    </style>
    
  </defs>
  <g stroke-linecap="round" transform="translate(34.40642755681802 109.06643921733757) rotate(22.461246866865288 19.283203125 7.48828125)"><path d="M3.74 0 C11.57 -0.53, 15.25 -0.37, 34.82 0 C36.94 -0.31, 37.14 1.81, 38.57 3.74 C39.39 4.63, 37.65 8.08, 38.57 11.23 C36.86 12.95, 35.06 14.01, 34.82 14.98 C27.14 13.34, 16.13 13.21, 3.74 14.98 C2.23 14.41, 1.94 15.9, 0 11.23 C0.62 9.24, 0.28 5.7, 0 3.74 C0.45 0.76, -1.28 -2.16, 3.74 0" stroke="none" stroke-width="0" fill="#868e96"></path><path d="M3.74 0 C16.88 0.79, 28.39 -0.19, 34.82 0 M3.74 0 C10.56 -0.11, 17.27 0.33, 34.82 0 M34.82 0 C38.16 -0.52, 38.18 1.8, 38.57 3.74 M34.82 0 C36.72 0.92, 38.08 1.56, 38.57 3.74 M38.57 3.74 C38.77 6.73, 38.9 9.36, 38.57 11.23 M38.57 3.74 C38.43 6.66, 38.46 9.23, 38.57 11.23 M38.57 11.23 C38.77 14.06, 37.69 15.33, 34.82 14.98 M38.57 11.23 C38.75 14.43, 36.39 16.07, 34.82 14.98 M34.82 14.98 C22.12 15.52, 11.07 15.36, 3.74 14.98 M34.82 14.98 C23.57 15.25, 13.26 14.72, 3.74 14.98 M3.74 14.98 C0.49 15.38, -0.36 14.53, 0 11.23 M3.74 14.98 C0.34 15.22, 0.96 12.66, 0 11.23 M0 11.23 C0.23 8.83, 0.08 6.32, 0 3.74 M0 11.23 C0.1 9.04, -0.19 6.81, 0 3.74 M0 3.74 C0.94 0.39, 1.62 0.28, 3.74 0 M0 3.74 C0.58 1.87, 0.24 0.81, 3.74 0" stroke="#1e1e1e" stroke-width="2" fill="none"></path></g><g stroke-linecap="round" transform="translate(34.220555160984986 16.919422171883525) rotate(22.923355211056883 19.283203125 7.48828125)"><path d="M3.74 0 C11.05 -0.35, 20.95 -0.22, 34.82 0 C35.89 0.56, 36.87 1.3, 38.57 3.74 C37.73 6.19, 38.01 6.71, 38.57 11.23 C36.31 12.76, 37.58 12.95, 34.82 14.98 C24.12 12.66, 13.25 14.11, 3.74 14.98 C3.19 17.15, 1.74 14.54, 0 11.23 C0.25 9.46, 0.11 7.57, 0 3.74 C-2.52 -0.91, 1.48 -0.25, 3.74 0" stroke="none" stroke-width="0" fill="#868e96"></path><path d="M3.74 0 C11.32 -0.39, 18.16 -0.27, 34.82 0 M3.74 0 C14.52 0.41, 25.58 -0.25, 34.82 0 M34.82 0 C36.94 0.55, 38.05 2.05, 38.57 3.74 M34.82 0 C36.83 0.32, 39.32 1.59, 38.57 3.74 M38.57 3.74 C38.91 5.8, 38.87 7.8, 38.57 11.23 M38.57 3.74 C38.4 6.54, 38.57 9.66, 38.57 11.23 M38.57 11.23 C38.94 14.08, 37.47 15.59, 34.82 14.98 M38.57 11.23 C37.64 14.82, 38.35 15.94, 34.82 14.98 M34.82 14.98 C26.26 15.47, 17.31 15.64, 3.74 14.98 M34.82 14.98 C26.18 14.83, 16.54 15.27, 3.74 14.98 M3.74 14.98 C0.88 15.78, -0.79 13.94, 0 11.23 M3.74 14.98 C2.2 13.9, 0.3 14.61, 0 11.23 M0 11.23 C0.08 8.45, -0.01 5.82, 0 3.74 M0 11.23 C-0.2 9.47, 0.15 7.32, 0 3.74 M0 3.74 C0.37 1.53, 1.75 0.54, 3.74 0 M0 3.74 C-1.01 2.06, 0.2 1.01, 3.74 0" stroke="#1e1e1e" stroke-width="2" fill="none"></path></g><g stroke-linecap="round" transform="translate(10 32.194161755215646) rotate(0 42.630859375 38.322265625)"><path d="M19.16 0 C31.64 -0.29, 43.19 0.92, 66.1 0 C76.53 0.08, 82.3 9.43, 85.26 19.16 C82.25 26.13, 81.48 33.92, 85.26 57.48 C85.62 67.45, 81.14 79.35, 66.1 76.64 C56.8 75.2, 47.47 78.99, 19.16 76.64 C8.8 77.77, -2.43 72.65, 0 57.48 C0.41 42.35, -3.72 25.59, 0 19.16 C0.32 6.04, 7.88 3.28, 19.16 0" stroke="none" stroke-width="0" fill="#a18072"></path><path d="M19.16 0 C34.88 -0.19, 54.83 0.49, 66.1 0 M19.16 0 C33.65 -0.89, 46.09 0.18, 66.1 0 M66.1 0 C77.84 1.6, 84.41 6.94, 85.26 19.16 M66.1 0 C80.38 0.68, 84.24 7.55, 85.26 19.16 M85.26 19.16 C87.11 34.43, 87.42 45.59, 85.26 57.48 M85.26 19.16 C85.2 33.03, 85.37 46.6, 85.26 57.48 M85.26 57.48 C85.57 71.48, 77.26 78.54, 66.1 76.64 M85.26 57.48 C87.32 72.18, 78.65 75.27, 66.1 76.64 M66.1 76.64 C50.41 77.99, 32.41 75.57, 19.16 76.64 M66.1 76.64 C48.47 76.83, 32 77.22, 19.16 76.64 M19.16 76.64 C4.82 77.07, 1.66 68.39, 0 57.48 M19.16 76.64 C7 78.4, 1.57 71.86, 0 57.48 M0 57.48 C-0.05 46.09, -1.1 34.75, 0 19.16 M0 57.48 C1.31 43.56, 0.75 31.64, 0 19.16 M0 19.16 C1.01 7.47, 4.63 1.4, 19.16 0 M0 19.16 C-2.09 8.41, 5.99 1.18, 19.16 0" stroke="#1e1e1e" stroke-width="2" fill="none"></path></g><g stroke-linecap="round" transform="translate(67.89474033943225 30.81458684460722) rotate(312.47556431009303 13.974609375 10.47265625)"><path d="M5.24 0 C7.89 -2.53, 11.27 0.52, 22.71 0 C23.4 2.27, 30.65 -0.88, 27.95 5.24 C27.39 10.02, 29.38 13.25, 27.95 15.71 C29.08 16.77, 28.6 23.72, 22.71 20.95 C16.31 17.95, 8.48 21.28, 5.24 20.95 C1.4 22.43, 3.28 17.03, 0 15.71 C0.64 14.63, 1.82 10.01, 0 5.24 C-1.8 -0.43, 5.24 1.64, 5.24 0" stroke="none" stroke-width="0" fill="#fcc2d7"></path><path d="M5.24 0 C11.21 -0.65, 14.87 1.23, 22.71 0 M5.24 0 C11.58 0.67, 17.1 0.57, 22.71 0 M22.71 0 C27.41 1.82, 26.26 2.81, 27.95 5.24 M22.71 0 C24.6 -1.64, 28.42 2.5, 27.95 5.24 M27.95 5.24 C28.62 7.93, 28.98 13.24, 27.95 15.71 M27.95 5.24 C28.23 9.49, 28.15 13.55, 27.95 15.71 M27.95 15.71 C29.11 18.96, 24.94 22.13, 22.71 20.95 M27.95 15.71 C29.38 18.12, 24.45 21.87, 22.71 20.95 M22.71 20.95 C18.48 22.26, 11.87 21.27, 5.24 20.95 M22.71 20.95 C16.24 21.32, 9.51 21.09, 5.24 20.95 M5.24 20.95 C2.32 19.95, 1.2 20.02, 0 15.71 M5.24 20.95 C-0.49 22.34, 2.17 17.23, 0 15.71 M0 15.71 C0.53 11.25, 0.71 7.69, 0 5.24 M0 15.71 C-0.1 11.35, -0.07 7.51, 0 5.24 M0 5.24 C-0.24 0.65, 2.18 -1.3, 5.24 0 M0 5.24 C0.05 -0.14, 3.69 -2.07, 5.24 0" stroke="#1e1e1e" stroke-width="2" fill="none"></path></g><g stroke-linecap="round" transform="translate(30.06591304117319 45.26837942211296) rotate(312.47556431009303 25.4296875 23.859375)"><path d="M12.71 3.13 C17.08 0.52, 25.53 0.17, 31.08 1.04 C36.64 1.91, 42.65 4.55, 46.06 8.35 C49.47 12.16, 51.69 18.63, 51.54 23.86 C51.39 29.09, 48.84 35.81, 45.15 39.71 C41.46 43.61, 35.04 46.57, 29.4 47.27 C23.76 47.96, 16.03 46.59, 11.31 43.88 C6.59 41.18, 2.74 35.84, 1.07 31.04 C-0.59 26.23, -1.53 20.1, 1.33 15.06 C4.2 10.03, 14.53 3.1, 18.27 0.81 C22.02 -1.47, 23.75 1.11, 23.81 1.33 M34.44 1.5 C39.49 3.07, 45.65 7.33, 48.42 12.2 C51.19 17.08, 52.57 25.52, 51.06 30.73 C49.54 35.94, 44.07 40.56, 39.31 43.48 C34.55 46.39, 27.83 48.45, 22.52 48.23 C17.21 48.01, 10.98 45.64, 7.46 42.16 C3.94 38.69, 1.84 32.83, 1.39 27.39 C0.95 21.95, 1.8 13.75, 4.8 9.53 C7.8 5.31, 14.15 3.34, 19.39 2.09 C24.63 0.83, 33.5 1.98, 36.23 2 C38.97 2.02, 36.3 2.04, 35.8 2.2" stroke="none" stroke-width="0" fill="#fcc2d7"></path><path d="M34.1 1.93 C39.2 3.34, 45.17 7.5, 48.04 11.86 C50.91 16.22, 52.14 23.24, 51.32 28.08 C50.5 32.93, 47.25 37.79, 43.12 40.95 C38.98 44.1, 32.25 46.73, 26.53 47.02 C20.81 47.3, 13.09 45.7, 8.81 42.68 C4.52 39.66, 1.71 33.92, 0.82 28.9 C-0.07 23.88, 0.82 17.23, 3.48 12.55 C6.15 7.87, 11.09 2.34, 16.81 0.82 C22.54 -0.7, 33.88 2.82, 37.82 3.45 C41.77 4.07, 40.92 4.25, 40.48 4.55 M32 0.43 C36.86 1.24, 41.48 6.38, 44.78 10.37 C48.07 14.37, 52.07 19.32, 51.76 24.38 C51.45 29.44, 46.86 36.66, 42.9 40.72 C38.94 44.78, 33.42 48.16, 28.01 48.74 C22.59 49.32, 14.7 47.41, 10.42 44.2 C6.15 40.99, 3.7 34.21, 2.36 29.46 C1.03 24.71, 0.32 20, 2.41 15.7 C4.5 11.4, 10.07 6.1, 14.89 3.65 C19.71 1.21, 28.64 1.46, 31.31 1.04 C33.98 0.62, 30.97 0.93, 30.92 1.12" stroke="#1e1e1e" stroke-width="2" fill="none"></path></g></svg>