<svg version="1.1" xmlns="http://www.w3.org/2000/svg" viewBox="0 0 115.33858816964403 140.84223780150205" width="115.33858816964403" height="140.84223780150205">
  <!-- svg-source:excalidraw -->
  
  <defs>
    <style class="style-fonts">
      @font-face {
        font-family: "Virgil";
        src: url("https://excalidraw.com/Virgil.woff2");
      }
      @font-face {
        font-family: "Cascadia";
        src: url("https://excalidraw.com/Cascadia.woff2");
      }
      @font-face {
        font-family: "Assistant";
        src: url("https://excalidraw.com/Assistant-Regular.woff2");
      }
    </style>
    
  </defs>
  <g stroke-linecap="round" transform="translate(34.40642755681802 109.06643921733757) rotate(22.461246866865288 19.283203125 7.48828125)"><path d="M3.74 0 C11.11 0.61, 19.64 0.1, 34.82 0 C35.18 2.2, 36.23 -1.2, 38.57 3.74 C37.66 6.26, 38.6 8.73, 38.57 11.23 C40.2 15.68, 35.42 15.55, 34.82 14.98 C29.86 17.06, 22.76 15.7, 3.74 14.98 C-0.5 16.71, 2.01 14.57, 0 11.23 C-0.96 8.2, 0.07 6.69, 0 3.74 C1.08 3.62, -0.32 -2.22, 3.74 0" stroke="none" stroke-width="0" fill="#868e96"></path><path d="M3.74 0 C12.65 0.2, 20.58 0.16, 34.82 0 M3.74 0 C15.33 0.36, 27.03 0.48, 34.82 0 M34.82 0 C36.89 0.27, 39.22 1.55, 38.57 3.74 M34.82 0 C36.81 0.58, 39.34 2.25, 38.57 3.74 M38.57 3.74 C38.94 5.96, 38.79 8.56, 38.57 11.23 M38.57 3.74 C38.64 5.52, 38.6 7.28, 38.57 11.23 M38.57 11.23 C37.76 14.68, 38.21 15.81, 34.82 14.98 M38.57 11.23 C38.45 13.04, 37.97 15.5, 34.82 14.98 M34.82 14.98 C24.13 14.44, 14.27 15.69, 3.74 14.98 M34.82 14.98 C26.78 15.44, 18.7 15.15, 3.74 14.98 M3.74 14.98 C2.08 14.04, 0.26 14.49, 0 11.23 M3.74 14.98 C2.04 15.78, 0.14 14.06, 0 11.23 M0 11.23 C-0.19 9.26, 0.15 6.47, 0 3.74 M0 11.23 C0.03 8.58, 0.06 5.93, 0 3.74 M0 3.74 C-0.88 1.95, 0.34 0.88, 3.74 0 M0 3.74 C-0.2 1.84, 0.98 -0.66, 3.74 0" stroke="#1e1e1e" stroke-width="2" fill="none"></path></g><g stroke-linecap="round" transform="translate(34.220555160984986 16.919422171883525) rotate(22.923355211056883 19.283203125 7.48828125)"><path d="M3.74 0 C11 -0.03, 19.51 2.11, 34.82 0 C34.98 -2.44, 40.74 -0.46, 38.57 3.74 C38.58 5.01, 39.09 8.52, 38.57 11.23 C36.67 14.31, 35.29 15.96, 34.82 14.98 C27.92 16.13, 15.79 17.04, 3.74 14.98 C3.25 15.82, -0.08 14.18, 0 11.23 C0.18 9.03, 0.5 7.91, 0 3.74 C-1.57 -0.97, 1.84 -0.88, 3.74 0" stroke="none" stroke-width="0" fill="#868e96"></path><path d="M3.74 0 C12.48 0.11, 22.18 0.81, 34.82 0 M3.74 0 C11.18 0.31, 18.92 0.05, 34.82 0 M34.82 0 C37.97 0.3, 38.12 1.75, 38.57 3.74 M34.82 0 C38.09 1, 39.01 2.12, 38.57 3.74 M38.57 3.74 C38.8 6.18, 38.33 9.22, 38.57 11.23 M38.57 3.74 C38.61 6.35, 38.43 8.91, 38.57 11.23 M38.57 11.23 C39.46 14.57, 37.22 14.38, 34.82 14.98 M38.57 11.23 C39.21 14.25, 37.78 15.57, 34.82 14.98 M34.82 14.98 C24.29 15.5, 12.1 14.12, 3.74 14.98 M34.82 14.98 C23.85 15.21, 14.08 14.63, 3.74 14.98 M3.74 14.98 C1.51 15.74, 0.68 14.42, 0 11.23 M3.74 14.98 C1.39 15.31, -0.07 13.76, 0 11.23 M0 11.23 C0.17 8.41, 0.25 6.66, 0 3.74 M0 11.23 C0.08 9.73, -0.18 8.15, 0 3.74 M0 3.74 C-0.91 2.13, 1.08 0.51, 3.74 0 M0 3.74 C-0.26 0.59, 1.05 -0.17, 3.74 0" stroke="#1e1e1e" stroke-width="2" fill="none"></path></g><g stroke-linecap="round" transform="translate(10 32.194161755215646) rotate(0 42.630859375 38.322265625)"><path d="M19.16 0 C31.29 3.02, 46.1 -3.4, 66.1 0 C81.88 -2.37, 84.18 3.26, 85.26 19.16 C87.6 31.94, 82.71 40.11, 85.26 57.48 C82.46 71.62, 78.09 79.34, 66.1 76.64 C45.67 79.31, 32.88 78.07, 19.16 76.64 C6.27 77.27, -0.68 66.76, 0 57.48 C1.43 52.45, -2.23 37.79, 0 19.16 C0.82 5.16, 7.68 2.24, 19.16 0" stroke="none" stroke-width="0" fill="#a18072"></path><path d="M19.16 0 C35.66 1.61, 47.97 -0.83, 66.1 0 M19.16 0 C35.39 -0.1, 53.12 -0.08, 66.1 0 M66.1 0 C77.99 1.01, 86.6 8.13, 85.26 19.16 M66.1 0 C79.77 1.74, 86.65 8.48, 85.26 19.16 M85.26 19.16 C84.04 27.82, 86.12 36.42, 85.26 57.48 M85.26 19.16 C84.52 32.95, 86.22 45.69, 85.26 57.48 M85.26 57.48 C85.06 69.06, 80 77.55, 66.1 76.64 M85.26 57.48 C86.19 71.45, 80.21 76.37, 66.1 76.64 M66.1 76.64 C54.04 75.41, 44.67 76.21, 19.16 76.64 M66.1 76.64 C49.09 75.81, 30.69 77.51, 19.16 76.64 M19.16 76.64 C7.76 78.03, 0.25 70.83, 0 57.48 M19.16 76.64 C6.25 76.72, 0.67 69.12, 0 57.48 M0 57.48 C1.06 45.57, -1.87 30.64, 0 19.16 M0 57.48 C-1.07 45.6, -1.1 33.19, 0 19.16 M0 19.16 C-0.34 7.41, 5.93 -1.14, 19.16 0 M0 19.16 C-0.39 6.05, 6.11 -1.26, 19.16 0" stroke="#1e1e1e" stroke-width="2" fill="none"></path></g><g stroke-linecap="round" transform="translate(77.38936941964403 58.64210104360882) rotate(0 13.974609375 10.47265625)"><path d="M5.24 0 C7.68 -3.22, 18.42 -2.33, 22.71 0 C25.12 -3.13, 26.61 2.1, 27.95 5.24 C26.7 7.98, 26.6 10.6, 27.95 15.71 C27.16 21.89, 29.21 23.36, 22.71 20.95 C19.35 22.17, 11.03 21.7, 5.24 20.95 C1.07 17.45, -2.99 19.52, 0 15.71 C-1.21 11.06, 0.35 8.98, 0 5.24 C1.3 3.99, 5.3 -2.29, 5.24 0" stroke="none" stroke-width="0" fill="#fcc2d7"></path><path d="M5.24 0 C9.8 -0.81, 17.16 -1.05, 22.71 0 M5.24 0 C12.45 0.21, 18.13 0.39, 22.71 0 M22.71 0 C27.54 1.74, 28.73 3.26, 27.95 5.24 M22.71 0 C27.59 2.1, 26 2.97, 27.95 5.24 M27.95 5.24 C28.22 8.04, 28.24 10.22, 27.95 15.71 M27.95 5.24 C28.33 9.46, 27.81 12.48, 27.95 15.71 M27.95 15.71 C29.08 20.1, 27.01 21.98, 22.71 20.95 M27.95 15.71 C29.28 18.92, 24.75 22.31, 22.71 20.95 M22.71 20.95 C17.09 20.18, 11.45 19.44, 5.24 20.95 M22.71 20.95 C17.33 21.45, 12.09 21.39, 5.24 20.95 M5.24 20.95 C1.99 21.52, -0.12 19.26, 0 15.71 M5.24 20.95 C2.41 19.8, 1.38 20.14, 0 15.71 M0 15.71 C-0.96 13.98, 0.23 11.99, 0 5.24 M0 15.71 C-0.38 12.46, 0 8.56, 0 5.24 M0 5.24 C-0.46 0.61, 1.4 -0.29, 5.24 0 M0 5.24 C-0.28 0.48, 2.24 -1.5, 5.24 0" stroke="#1e1e1e" stroke-width="2" fill="none"></path></g><g stroke-linecap="round" transform="translate(27.590541294644026 44.60303854360882) rotate(0 25.4296875 23.859375)"><path d="M29.5 -0.72 C34.86 -0.27, 41.61 4.88, 45.02 8.92 C48.43 12.97, 49.88 18.48, 49.99 23.52 C50.1 28.56, 48.82 35.34, 45.67 39.15 C42.53 42.95, 36.4 45.54, 31.13 46.34 C25.87 47.14, 18.82 46.26, 14.08 43.96 C9.34 41.66, 4.73 37.15, 2.68 32.52 C0.63 27.88, 0.33 21, 1.8 16.14 C3.27 11.29, 6.39 5.94, 11.49 3.39 C16.6 0.84, 28.48 0.94, 32.42 0.84 C36.35 0.73, 35.33 2.36, 35.13 2.76 M13.87 3.24 C18.11 1.17, 26.41 -0.62, 31.65 0.53 C36.89 1.67, 42.12 5.98, 45.32 10.12 C48.52 14.26, 51.09 20.02, 50.85 25.38 C50.61 30.74, 48.05 38.51, 43.89 42.28 C39.73 46.06, 31.7 47.78, 25.91 48.01 C20.12 48.23, 13.4 46.52, 9.15 43.62 C4.89 40.71, 1.25 35.46, 0.38 30.57 C-0.49 25.67, 1.36 19.16, 3.92 14.23 C6.48 9.3, 13.65 2.75, 15.75 0.97 C17.84 -0.8, 16.31 3.05, 16.48 3.58" stroke="none" stroke-width="0" fill="#fcc2d7"></path><path d="M19.18 1.45 C24.02 -0.09, 31.56 -0.36, 36.53 1.82 C41.5 3.99, 46.62 9.72, 49.01 14.5 C51.39 19.27, 52.23 25.55, 50.85 30.48 C49.47 35.4, 45.19 41.32, 40.72 44.04 C36.26 46.76, 29.53 47.45, 24.06 46.78 C18.6 46.1, 12.05 43.44, 7.94 39.99 C3.82 36.54, -0.13 31, -0.62 26.09 C-1.12 21.17, 0.96 14.81, 4.96 10.5 C8.97 6.2, 19.6 2.06, 23.41 0.26 C27.23 -1.53, 27.71 -0.79, 27.85 -0.27 M36.61 2.74 C41.6 4.71, 46.49 9.72, 48.89 14.17 C51.28 18.62, 52.55 24.47, 50.97 29.45 C49.4 34.43, 43.83 41.13, 39.43 44.05 C35.04 46.97, 30.06 47.36, 24.59 46.96 C19.13 46.55, 10.79 44.86, 6.63 41.63 C2.46 38.4, 0.17 32.69, -0.41 27.56 C-0.98 22.43, -0.18 15.51, 3.17 10.84 C6.51 6.17, 14.16 0.8, 19.66 -0.47 C25.16 -1.75, 33.34 2.54, 36.16 3.2 C38.99 3.87, 36.8 3.29, 36.59 3.54" stroke="#1e1e1e" stroke-width="2" fill="none"></path></g></svg>