<svg version="1.1" xmlns="http://www.w3.org/2000/svg" viewBox="0 0 107.08836856447897 140.84223780150387" width="107.08836856447897" height="140.84223780150387">
  <!-- svg-source:excalidraw -->
  
  <defs>
    <style class="style-fonts">
      @font-face {
        font-family: "Virgil";
        src: url("https://excalidraw.com/Virgil.woff2");
      }
      @font-face {
        font-family: "Cascadia";
        src: url("https://excalidraw.com/Cascadia.woff2");
      }
      @font-face {
        font-family: "Assistant";
        src: url("https://excalidraw.com/Assistant-Regular.woff2");
      }
    </style>
    
  </defs>
  <g stroke-linecap="round" transform="translate(34.05486505681802 109.0664392173394) rotate(22.461246866865288 19.283203125 7.48828125)"><path d="M3.74 0 C16.41 1.87, 24.77 -1.72, 34.82 0 C38.37 -0.95, 40.65 -0.79, 38.57 3.74 C38.9 6.89, 39.31 9.23, 38.57 11.23 C38.89 14.48, 37.16 15.06, 34.82 14.98 C25.66 12.69, 15.96 17.67, 3.74 14.98 C-0.98 15.95, 0.74 15.04, 0 11.23 C-0.8 9.44, -0.08 6.43, 0 3.74 C-0.6 -0.23, 0.8 -0.38, 3.74 0" stroke="none" stroke-width="0" fill="#868e96"></path><path d="M3.74 0 C10.97 0.43, 17.04 0.86, 34.82 0 M3.74 0 C10.6 0.39, 16.72 -0.21, 34.82 0 M34.82 0 C36.69 0.26, 39.02 1.39, 38.57 3.74 M34.82 0 C37.28 0.81, 38.83 0.45, 38.57 3.74 M38.57 3.74 C38.38 5.46, 38.41 7.85, 38.57 11.23 M38.57 3.74 C38.6 5.59, 38.6 7.71, 38.57 11.23 M38.57 11.23 C39.54 13.46, 36.77 15.77, 34.82 14.98 M38.57 11.23 C39.38 13.67, 37 14.02, 34.82 14.98 M34.82 14.98 C25.91 15.14, 17.96 15.84, 3.74 14.98 M34.82 14.98 C26.87 15.46, 19.22 15.2, 3.74 14.98 M3.74 14.98 C1.9 15.27, -0.44 14.23, 0 11.23 M3.74 14.98 C2.02 15.98, 0.45 14.6, 0 11.23 M0 11.23 C0.17 8.27, -0.3 5.91, 0 3.74 M0 11.23 C0.02 8.85, -0.17 6.43, 0 3.74 M0 3.74 C0.89 2.09, 1.15 -0.6, 3.74 0 M0 3.74 C0.65 1.77, 1.71 0.6, 3.74 0" stroke="#1e1e1e" stroke-width="2" fill="none"></path></g><g stroke-linecap="round" transform="translate(33.868992660984986 16.919422171883525) rotate(22.923355211056883 19.283203125 7.48828125)"><path d="M3.74 0 C9.89 -2.23, 19.52 -1.2, 34.82 0 C39.4 -2.04, 39.12 3.41, 38.57 3.74 C39.26 5.97, 38.71 7.12, 38.57 11.23 C38.41 13.81, 38.07 13.69, 34.82 14.98 C25.21 17.03, 10.22 15.56, 3.74 14.98 C1.99 16.29, 1.4 11.44, 0 11.23 C-0.08 8.96, -0.14 5.13, 0 3.74 C-0.44 0.87, 0.94 -1.43, 3.74 0" stroke="none" stroke-width="0" fill="#868e96"></path><path d="M3.74 0 C13.26 0.78, 20.89 0.25, 34.82 0 M3.74 0 C10.9 -0.39, 18.63 0.04, 34.82 0 M34.82 0 C37.77 0.14, 38.53 1.95, 38.57 3.74 M34.82 0 C37.59 -0.8, 38.26 0.1, 38.57 3.74 M38.57 3.74 C38.43 5.71, 38.43 7.75, 38.57 11.23 M38.57 3.74 C38.59 5.8, 38.75 7.88, 38.57 11.23 M38.57 11.23 C38.02 14.52, 38.02 14.93, 34.82 14.98 M38.57 11.23 C38.25 12.77, 37.13 15.49, 34.82 14.98 M34.82 14.98 C25.73 15.84, 14.53 14.62, 3.74 14.98 M34.82 14.98 C23.58 15.24, 13.1 15.25, 3.74 14.98 M3.74 14.98 C0.81 15.48, 0.67 14.6, 0 11.23 M3.74 14.98 C1.69 15.85, 0.69 14.78, 0 11.23 M0 11.23 C-0.29 9.7, 0.1 8.15, 0 3.74 M0 11.23 C-0.16 8.9, 0.16 6.37, 0 3.74 M0 3.74 C-0.1 0.65, 1.81 0.45, 3.74 0 M0 3.74 C0.46 1.84, 1.91 -0.14, 3.74 0" stroke="#1e1e1e" stroke-width="2" fill="none"></path></g><g stroke-linecap="round" transform="translate(10 32.545724255215646) rotate(0 42.630859375 38.322265625)"><path d="M19.16 0 C37.62 -0.67, 56.05 -2.18, 66.1 0 C79.64 2.99, 81.9 7.34, 85.26 19.16 C86.18 34.62, 85.51 48.11, 85.26 57.48 C86.3 68.47, 81.03 78.12, 66.1 76.64 C53.5 78.79, 48.07 79.25, 19.16 76.64 C8.33 73.48, 2.53 66.98, 0 57.48 C-0.71 40.57, -0.5 27.24, 0 19.16 C-0.43 4.41, 7.16 -2.34, 19.16 0" stroke="none" stroke-width="0" fill="#a18072"></path><path d="M19.16 0 C33.5 0.22, 50.09 0.19, 66.1 0 M19.16 0 C35.44 0.53, 53.43 0.41, 66.1 0 M66.1 0 C78.81 1.41, 85.73 5, 85.26 19.16 M66.1 0 C78.27 -2.3, 84.37 5.46, 85.26 19.16 M85.26 19.16 C84.49 27.69, 84.73 35.55, 85.26 57.48 M85.26 19.16 C86.28 27.21, 84.76 36.6, 85.26 57.48 M85.26 57.48 C86.67 70.16, 78.32 74.97, 66.1 76.64 M85.26 57.48 C84.89 71.28, 79.29 76.44, 66.1 76.64 M66.1 76.64 C50.33 76.28, 37.75 76, 19.16 76.64 M66.1 76.64 C48.92 77.07, 29.99 77.28, 19.16 76.64 M19.16 76.64 C7.72 78.39, 0.78 71.77, 0 57.48 M19.16 76.64 C7.78 78.74, -1.95 71.49, 0 57.48 M0 57.48 C0.93 49.41, 0.98 40.15, 0 19.16 M0 57.48 C1.2 44.49, 0.21 29.22, 0 19.16 M0 19.16 C1.13 7.29, 7.19 1.04, 19.16 0 M0 19.16 C1.33 6.11, 4.94 1.37, 19.16 0" stroke="#1e1e1e" stroke-width="2" fill="none"></path></g><g stroke-linecap="round" transform="translate(65.95277605371757 87.12363309975717) rotate(47.524435689906944 13.974609375 10.47265625)"><path d="M5.24 0 C8.17 0.58, 16.03 1.61, 22.71 0 C29.48 -2.17, 24.88 2.57, 27.95 5.24 C29.88 6.82, 27.08 9.67, 27.95 15.71 C31.44 20.84, 28.39 19.22, 22.71 20.95 C15.78 22.65, 17.97 21.49, 5.24 20.95 C5.16 23, 2.42 17.73, 0 15.71 C1.32 14.16, 1.22 8.57, 0 5.24 C2.97 -1.53, 4.7 -1.76, 5.24 0" stroke="none" stroke-width="0" fill="#fcc2d7"></path><path d="M5.24 0 C12.41 1.7, 17.73 -0.03, 22.71 0 M5.24 0 C9.78 0.37, 14.14 -0.18, 22.71 0 M22.71 0 C24.94 1.19, 29.19 0.81, 27.95 5.24 M22.71 0 C24.45 0.93, 27.11 3.59, 27.95 5.24 M27.95 5.24 C26.99 7.83, 28.77 10.59, 27.95 15.71 M27.95 5.24 C27.93 9.12, 28.11 12.72, 27.95 15.71 M27.95 15.71 C29.15 20.02, 24.26 22.16, 22.71 20.95 M27.95 15.71 C30.12 17.23, 27.06 21.6, 22.71 20.95 M22.71 20.95 C17.82 19.2, 12 20.49, 5.24 20.95 M22.71 20.95 C16.42 20.72, 10.33 20.37, 5.24 20.95 M5.24 20.95 C2.18 19.64, 0.04 17.56, 0 15.71 M5.24 20.95 C3.69 18.88, -2.16 21.12, 0 15.71 M0 15.71 C-0.36 13.36, -0.79 11.46, 0 5.24 M0 15.71 C-0.33 11.98, -0.04 8.24, 0 5.24 M0 5.24 C1.67 3.09, 2.37 -1.35, 5.24 0 M0 5.24 C1.53 3.52, 2.49 -0.07, 5.24 0" stroke="#1e1e1e" stroke-width="2" fill="none"></path></g><g stroke-linecap="round" transform="translate(28.123948755458514 45.896403022249615) rotate(47.524435689906944 25.4296875 23.859375)"><path d="M36.68 1.44 C41.64 3.16, 45.85 7.87, 48.02 12.6 C50.19 17.33, 51.13 24.6, 49.71 29.81 C48.3 35.01, 43.76 40.98, 39.53 43.84 C35.3 46.69, 29.59 47.53, 24.32 46.93 C19.06 46.32, 11.9 43.67, 7.93 40.19 C3.96 36.71, 0.97 30.87, 0.51 26.06 C0.04 21.24, 2.03 15.43, 5.14 11.29 C8.25 7.15, 13.96 2.55, 19.17 1.22 C24.38 -0.11, 33.14 2.85, 36.41 3.32 C39.68 3.78, 38.88 3.73, 38.79 4.01 M23.17 -0.04 C28.64 -0.36, 36.18 2.87, 40.49 5.59 C44.8 8.3, 47.64 11.63, 49.04 16.24 C50.44 20.86, 50.92 28.26, 48.89 33.28 C46.87 38.3, 41.61 44.23, 36.88 46.35 C32.15 48.46, 25.99 47.59, 20.5 45.99 C15.01 44.4, 7.11 40.67, 3.95 36.78 C0.79 32.88, 0.82 27.69, 1.54 22.63 C2.25 17.56, 4.84 9.93, 8.23 6.39 C11.62 2.85, 19.47 2.6, 21.88 1.39 C24.29 0.18, 22.31 -1.29, 22.68 -0.87" stroke="none" stroke-width="0" fill="#fcc2d7"></path><path d="M24.62 0.43 C29.96 -0.11, 37.06 2.51, 41.31 5.42 C45.55 8.34, 48.88 12.93, 50.1 17.92 C51.33 22.92, 51.19 30.84, 48.65 35.37 C46.1 39.9, 39.89 43.27, 34.83 45.09 C29.78 46.91, 23.33 47.8, 18.33 46.29 C13.34 44.78, 7.85 40.11, 4.87 36.01 C1.88 31.92, 0.02 26.62, 0.41 21.72 C0.8 16.82, 1.8 10, 7.2 6.63 C12.61 3.26, 27.4 1.88, 32.82 1.51 C38.24 1.13, 39.91 4.12, 39.72 4.38 M26.73 0.62 C31.59 0.66, 36.42 3.71, 40.62 6.74 C44.83 9.77, 50.75 13.84, 51.95 18.8 C53.15 23.77, 50.72 31.8, 47.81 36.54 C44.9 41.27, 39.97 45.44, 34.51 47.21 C29.04 48.99, 20.48 48.94, 15.04 47.2 C9.59 45.46, 4.32 41.29, 1.84 36.78 C-0.63 32.27, -1 25.5, 0.2 20.12 C1.4 14.74, 4.82 7.88, 9.05 4.49 C13.27 1.1, 22.81 0.59, 25.57 -0.21 C28.34 -1.02, 25.55 -0.61, 25.64 -0.34" stroke="#1e1e1e" stroke-width="2" fill="none"></path></g></svg>