<svg version="1.1" xmlns="http://www.w3.org/2000/svg" viewBox="0 0 116.9010881696413 140.84223780150205" width="116.9010881696413" height="140.84223780150205">
  <!-- svg-source:excalidraw -->
  
  <defs>
    <style class="style-fonts">
      @font-face {
        font-family: "Virgil";
        src: url("https://excalidraw.com/Virgil.woff2");
      }
      @font-face {
        font-family: "Cascadia";
        src: url("https://excalidraw.com/Cascadia.woff2");
      }
      @font-face {
        font-family: "Assistant";
        src: url("https://excalidraw.com/Assistant-Regular.woff2");
      }
    </style>
    
  </defs>
  <g stroke-linecap="round" transform="translate(45.694234476459314 109.06643921733757) rotate(22.461246866865288 19.283203125 7.48828125)"><path d="M3.74 0 C13.53 0.78, 21.86 1.58, 34.82 0 C38.38 -2.52, 40.15 3.7, 38.57 3.74 C39.09 5.88, 37.75 7.64, 38.57 11.23 C36.2 16.01, 36.87 16.31, 34.82 14.98 C25.84 14.6, 16.18 15.47, 3.74 14.98 C-0.44 15.03, -2.14 15.92, 0 11.23 C-0.55 9.37, -0.76 7.73, 0 3.74 C0.26 -0.78, 2.88 1.95, 3.74 0" stroke="none" stroke-width="0" fill="#868e96"></path><path d="M3.74 0 C12.28 -0.3, 21.2 -0.42, 34.82 0 M3.74 0 C11.83 -0.12, 20.02 -0.05, 34.82 0 M34.82 0 C37.47 -0.83, 38.69 1.08, 38.57 3.74 M34.82 0 C38.44 -0.31, 37.94 2.16, 38.57 3.74 M38.57 3.74 C38.25 6.46, 38.73 9.36, 38.57 11.23 M38.57 3.74 C38.73 5.82, 38.5 8.2, 38.57 11.23 M38.57 11.23 C38.05 14.53, 36.89 15.25, 34.82 14.98 M38.57 11.23 C39.32 14.07, 36.81 15.56, 34.82 14.98 M34.82 14.98 C24.18 15.64, 12.93 14.19, 3.74 14.98 M34.82 14.98 C23.94 15.03, 13.04 15.04, 3.74 14.98 M3.74 14.98 C1.4 15.59, -0.81 14.68, 0 11.23 M3.74 14.98 C2.28 15.94, -0.11 13.04, 0 11.23 M0 11.23 C0.18 8.78, -0.06 5.66, 0 3.74 M0 11.23 C-0.17 8.62, -0.09 6, 0 3.74 M0 3.74 C-0.79 1.46, 2.08 -0.93, 3.74 0 M0 3.74 C0.3 2.13, 2.04 0.8, 3.74 0" stroke="#1e1e1e" stroke-width="2" fill="none"></path></g><g stroke-linecap="round" transform="translate(45.508362080626284 16.919422171883525) rotate(22.923355211056883 19.283203125 7.48828125)"><path d="M3.74 0 C11.59 1.44, 23.07 -2.64, 34.82 0 C38.9 2.45, 36.34 2.22, 38.57 3.74 C37.76 6.89, 37.73 9.52, 38.57 11.23 C38.12 15.06, 36.72 13.5, 34.82 14.98 C24.6 15.49, 15.54 14.98, 3.74 14.98 C-0.89 17.17, -2.34 11.29, 0 11.23 C-0.78 8, 0.16 4.73, 0 3.74 C1.64 3.2, -0.65 0.58, 3.74 0" stroke="none" stroke-width="0" fill="#868e96"></path><path d="M3.74 0 C12.79 -0.35, 23.44 -0.86, 34.82 0 M3.74 0 C12.22 -0.05, 20.53 -0.36, 34.82 0 M34.82 0 C37.44 -0.17, 39.54 0.98, 38.57 3.74 M34.82 0 C36.69 0.91, 39.38 1.19, 38.57 3.74 M38.57 3.74 C38.7 5.85, 38.5 7.87, 38.57 11.23 M38.57 3.74 C38.53 6.68, 38.5 9.57, 38.57 11.23 M38.57 11.23 C38.14 14, 37.97 15.27, 34.82 14.98 M38.57 11.23 C38.06 14.31, 38.09 15.98, 34.82 14.98 M34.82 14.98 C25.2 14.22, 14.29 14.37, 3.74 14.98 M34.82 14.98 C27.91 15.2, 20.69 15.33, 3.74 14.98 M3.74 14.98 C0.44 15.93, 0.89 14.57, 0 11.23 M3.74 14.98 C1.13 14.29, 0.65 14.25, 0 11.23 M0 11.23 C-0.06 8.45, 0.2 6.37, 0 3.74 M0 11.23 C-0.04 9.49, -0.12 7.48, 0 3.74 M0 3.74 C0.83 0.31, 1.51 0.76, 3.74 0 M0 3.74 C0.79 2.05, 1.39 0.33, 3.74 0" stroke="#1e1e1e" stroke-width="2" fill="none"></path></g><g stroke-linecap="round" transform="translate(21.639369419641298 32.545724255215646) rotate(0 42.630859375 38.322265625)"><path d="M19.16 0 C36.07 -4, 52.23 2.88, 66.1 0 C75.8 1.35, 86.29 8.2, 85.26 19.16 C81.38 35.88, 84.04 48.13, 85.26 57.48 C84.43 68.21, 78.26 76.12, 66.1 76.64 C50.24 76.9, 36.11 79.87, 19.16 76.64 C3.15 73.26, 3.01 67.89, 0 57.48 C0.96 44.33, 2.87 39.5, 0 19.16 C-2.62 7.19, 3.58 1.36, 19.16 0" stroke="none" stroke-width="0" fill="#a18072"></path><path d="M19.16 0 C31.2 -1.62, 44.23 0.22, 66.1 0 M19.16 0 C31.86 -0.73, 44.36 -0.07, 66.1 0 M66.1 0 C80.82 -0.54, 84.17 7.97, 85.26 19.16 M66.1 0 C80.49 -0.11, 84.63 4.47, 85.26 19.16 M85.26 19.16 C85.25 30.32, 87.01 42.6, 85.26 57.48 M85.26 19.16 C84.6 29.45, 84.69 38.41, 85.26 57.48 M85.26 57.48 C86.57 70.85, 77.99 77.65, 66.1 76.64 M85.26 57.48 C86.8 72.26, 79.77 78.38, 66.1 76.64 M66.1 76.64 C50.25 74.85, 30.84 76.66, 19.16 76.64 M66.1 76.64 C50.64 77.42, 34.05 77.76, 19.16 76.64 M19.16 76.64 C8.17 78.32, -0.2 69.06, 0 57.48 M19.16 76.64 C7.68 77.68, 0.92 71.45, 0 57.48 M0 57.48 C1.23 45.01, -0.89 28.53, 0 19.16 M0 57.48 C-0.65 44.65, 0.97 30.46, 0 19.16 M0 19.16 C0.53 7.91, 7.76 1.39, 19.16 0 M0 19.16 C0.28 7.05, 6.25 0.07, 19.16 0" stroke="#1e1e1e" stroke-width="2" fill="none"></path></g><g stroke-linecap="round" transform="translate(10 59.76933318646752) rotate(0 13.974609375 10.47265625)"><path d="M5.24 0 C11.47 2.69, 15.11 1.06, 22.71 0 C23.78 2.4, 30.73 2.91, 27.95 5.24 C26.15 6.78, 28.15 11.27, 27.95 15.71 C29.44 22.48, 24.03 17.87, 22.71 20.95 C19.03 24.16, 9.43 19.49, 5.24 20.95 C-0.43 24.44, 1.64 21.38, 0 15.71 C-0.36 11.24, 1.22 12.25, 0 5.24 C0.72 5.16, 3.8 2.42, 5.24 0" stroke="none" stroke-width="0" fill="#fcc2d7"></path><path d="M5.24 0 C12.75 -1.58, 18.01 -1.32, 22.71 0 M5.24 0 C9.56 0.25, 13.36 0.48, 22.71 0 M22.71 0 C24.59 1.9, 29.74 3.42, 27.95 5.24 M22.71 0 C25.98 -1.38, 29.24 2.78, 27.95 5.24 M27.95 5.24 C27.88 8.14, 28.63 13.01, 27.95 15.71 M27.95 5.24 C27.68 8.31, 27.46 10.65, 27.95 15.71 M27.95 15.71 C29.61 17.33, 26.73 22.47, 22.71 20.95 M27.95 15.71 C29.52 20.8, 26.49 21.61, 22.71 20.95 M22.71 20.95 C16.71 22.04, 13.16 19.3, 5.24 20.95 M22.71 20.95 C16.73 21.04, 10.54 21.27, 5.24 20.95 M5.24 20.95 C-0.02 22.35, -1.82 20.96, 0 15.71 M5.24 20.95 C1.35 22.13, -0.53 17.89, 0 15.71 M0 15.71 C-0.56 12.97, -0.67 9.8, 0 5.24 M0 15.71 C-0.58 13.87, -0.43 10.99, 0 5.24 M0 5.24 C-1.74 1, 1.94 -1.56, 5.24 0 M0 5.24 C1.45 3.47, 0.07 0.51, 5.24 0" stroke="#1e1e1e" stroke-width="2" fill="none"></path></g><g stroke-linecap="round" transform="translate(36.888671875 45.73027068646752) rotate(0 25.4296875 23.859375)"><path d="M22.69 -0.08 C27.71 -0.78, 35.45 1.21, 39.91 4.22 C44.37 7.22, 48.14 12.98, 49.46 17.94 C50.77 22.9, 50.16 29.27, 47.81 34 C45.45 38.74, 40.3 44.35, 35.32 46.35 C30.33 48.34, 22.89 47.54, 17.91 45.96 C12.92 44.37, 8.43 41.03, 5.41 36.85 C2.39 32.67, -0.48 25.83, -0.2 20.87 C0.08 15.9, 2.73 10.43, 7.11 7.06 C11.49 3.69, 22.09 1.81, 26.09 0.67 C30.08 -0.47, 30.95 0.05, 31.1 0.21 M31.46 1.43 C36.74 1.69, 42.22 3.79, 45.62 7.78 C49.02 11.77, 51.93 20.09, 51.86 25.36 C51.78 30.64, 48.84 35.78, 45.16 39.41 C41.47 43.04, 35.44 46.52, 29.74 47.13 C24.04 47.75, 15.64 45.7, 10.94 43.1 C6.24 40.5, 2.98 35.94, 1.54 31.55 C0.1 27.15, 0.52 21.71, 2.28 16.74 C4.05 11.77, 7.42 4.55, 12.13 1.75 C16.84 -1.06, 27.46 -0.1, 30.55 -0.09 C33.64 -0.07, 30.55 1.51, 30.66 1.83" stroke="none" stroke-width="0" fill="#fcc2d7"></path><path d="M17.07 1.81 C22 -0.14, 29.32 0.04, 34.49 1.6 C39.65 3.15, 45.24 6.58, 48.07 11.13 C50.89 15.68, 52.33 23.75, 51.42 28.9 C50.51 34.05, 47.04 38.81, 42.61 42.04 C38.17 45.27, 30.34 48.2, 24.82 48.28 C19.31 48.36, 13.52 45.82, 9.53 42.53 C5.54 39.25, 1.94 33.78, 0.9 28.58 C-0.14 23.37, 0.03 15.85, 3.29 11.29 C6.55 6.73, 17.22 3.12, 20.44 1.2 C23.67 -0.71, 22.57 -0.41, 22.63 -0.18 M36.58 0.48 C41.74 2.23, 46.02 9.18, 48.47 14.14 C50.91 19.1, 52.5 25.37, 51.24 30.24 C49.99 35.1, 45.48 40.41, 40.95 43.33 C36.41 46.24, 29.44 48.19, 24.04 47.73 C18.64 47.28, 12.37 43.97, 8.55 40.59 C4.72 37.2, 2.08 32.21, 1.09 27.41 C0.11 22.62, -0.42 16.41, 2.63 11.8 C5.67 7.2, 13.83 1.35, 19.37 -0.23 C24.92 -1.81, 33.14 1.75, 35.89 2.31 C38.65 2.87, 36.37 2.66, 35.89 3.13" stroke="#1e1e1e" stroke-width="2" fill="none"></path></g></svg>