<svg version="1.1" xmlns="http://www.w3.org/2000/svg" viewBox="0 0 106.89305606447624 140.84223780150205" width="106.89305606447624" height="140.84223780150205">
  <!-- svg-source:excalidraw -->
  
  <defs>
    <style class="style-fonts">
      @font-face {
        font-family: "Virgil";
        src: url("https://excalidraw.com/Virgil.woff2");
      }
      @font-face {
        font-family: "Cascadia";
        src: url("https://excalidraw.com/Cascadia.woff2");
      }
      @font-face {
        font-family: "Assistant";
        src: url("https://excalidraw.com/Assistant-Regular.woff2");
      }
    </style>
    
  </defs>
  <g stroke-linecap="round" transform="translate(35.68620237129426 109.06643921733757) rotate(22.461246866865288 19.283203125 7.48828125)"><path d="M3.74 0 C17.63 1.67, 29.36 0.21, 34.82 0 C38.07 -0.16, 38.65 2, 38.57 3.74 C37.68 6.21, 39.54 6.66, 38.57 11.23 C39.54 14.47, 38.63 16.38, 34.82 14.98 C30.52 14.16, 22.98 14.01, 3.74 14.98 C-0.23 14.53, -0.38 13.42, 0 11.23 C0 8.6, 0.8 6.69, 0 3.74 C-2.44 3.42, -0.46 -0.78, 3.74 0" stroke="none" stroke-width="0" fill="#868e96"></path><path d="M3.74 0 C10.57 0.55, 17.02 0.07, 34.82 0 M3.74 0 C15.13 -0.39, 26.59 -0.09, 34.82 0 M34.82 0 C36.42 -0.31, 38.59 0.92, 38.57 3.74 M34.82 0 C37.6 -0.24, 38.74 0.3, 38.57 3.74 M38.57 3.74 C38.46 5.88, 38.86 8.68, 38.57 11.23 M38.57 3.74 C38.53 6.04, 38.59 8.15, 38.57 11.23 M38.57 11.23 C38.7 14.52, 38.16 14.45, 34.82 14.98 M38.57 11.23 C38.13 14.36, 36.72 15.9, 34.82 14.98 M34.82 14.98 C27.12 14.64, 19.33 15.75, 3.74 14.98 M34.82 14.98 C23.09 15.55, 10.33 15.36, 3.74 14.98 M3.74 14.98 C0.55 14.26, 0.2 14.06, 0 11.23 M3.74 14.98 C1.68 15.38, 0.18 14.43, 0 11.23 M0 11.23 C0.28 9.55, -0.26 8.16, 0 3.74 M0 11.23 C0.09 8.63, -0.13 6.17, 0 3.74 M0 3.74 C0.62 0.78, 0.49 0.4, 3.74 0 M0 3.74 C-0.42 2.17, 0.34 0.24, 3.74 0" stroke="#1e1e1e" stroke-width="2" fill="none"></path></g><g stroke-linecap="round" transform="translate(35.50032997546032 16.919422171883525) rotate(22.923355211056883 19.283203125 7.48828125)"><path d="M3.74 0 C15.7 0.04, 24.78 -0.44, 34.82 0 C37.4 0.75, 37.28 2.81, 38.57 3.74 C39.39 5.46, 38.84 9.13, 38.57 11.23 C39.88 15.13, 35.03 16.8, 34.82 14.98 C29.66 14.31, 20.35 14.46, 3.74 14.98 C0.87 14.66, -1.43 14.29, 0 11.23 C0.82 8.6, -0.92 8.53, 0 3.74 C-1.71 0.47, -1.01 -0.96, 3.74 0" stroke="none" stroke-width="0" fill="#868e96"></path><path d="M3.74 0 C11.26 -0.1, 19.2 0.16, 34.82 0 M3.74 0 C10.72 -0.05, 17.64 0, 34.82 0 M34.82 0 C37.34 -0.33, 38.81 1.04, 38.57 3.74 M34.82 0 C37.49 -0.95, 38.71 1.05, 38.57 3.74 M38.57 3.74 C38.85 6.98, 38.54 9.59, 38.57 11.23 M38.57 3.74 C38.59 5.35, 38.59 7.13, 38.57 11.23 M38.57 11.23 C39.41 13.2, 36.94 15.52, 34.82 14.98 M38.57 11.23 C37.97 14.65, 36.83 15.29, 34.82 14.98 M34.82 14.98 C23.97 15.58, 12.98 15.3, 3.74 14.98 M34.82 14.98 C22.73 15.39, 11.13 14.76, 3.74 14.98 M3.74 14.98 C1.45 15.3, 0.37 14.08, 0 11.23 M3.74 14.98 C1.43 15.68, -0.93 14.82, 0 11.23 M0 11.23 C-0.26 8.53, 0.14 5.55, 0 3.74 M0 11.23 C-0.14 8.71, 0.09 5.88, 0 3.74 M0 3.74 C-0.76 1.65, 0.88 0.8, 3.74 0 M0 3.74 C-0.9 1.49, 2.2 -1.07, 3.74 0" stroke="#1e1e1e" stroke-width="2" fill="none"></path></g><g stroke-linecap="round" transform="translate(11.63133731447624 32.545724255215646) rotate(0 42.630859375 38.322265625)"><path d="M19.16 0 C37.5 -0.33, 53.87 0.94, 66.1 0 C77.09 2.16, 86.73 2.89, 85.26 19.16 C87.26 34.01, 87.72 48.75, 85.26 57.48 C82.09 72.79, 75.6 79.8, 66.1 76.64 C50.77 75.84, 39.02 76.02, 19.16 76.64 C4.41 77.42, -2.34 70.33, 0 57.48 C-3.97 52.14, -2.95 39.7, 0 19.16 C-3.13 5.05, 6.75 -2.81, 19.16 0" stroke="none" stroke-width="0" fill="#a18072"></path><path d="M19.16 0 C36.79 0.48, 50.21 -0.51, 66.1 0 M19.16 0 C27.66 -0.12, 37.97 -0.14, 66.1 0 M66.1 0 C79.36 -0.41, 85.57 4.73, 85.26 19.16 M66.1 0 C79.16 -0.39, 87.5 5.76, 85.26 19.16 M85.26 19.16 C85.47 28.01, 83.89 37.65, 85.26 57.48 M85.26 19.16 C85.47 33.16, 86.17 45.05, 85.26 57.48 M85.26 57.48 C84.5 71.35, 77.84 78.24, 66.1 76.64 M85.26 57.48 C84.28 70.89, 80.38 77.33, 66.1 76.64 M66.1 76.64 C55.84 77.74, 43.6 78.17, 19.16 76.64 M66.1 76.64 C47.04 76.18, 29.59 77.22, 19.16 76.64 M19.16 76.64 C7.14 77.35, 0.31 71.48, 0 57.48 M19.16 76.64 C4.53 78.83, 2.05 72.18, 0 57.48 M0 57.48 C1.13 47.17, 1.27 36.41, 0 19.16 M0 57.48 C0.86 45.98, -0.52 35.82, 0 19.16 M0 19.16 C-0.73 7.99, 4.82 0.42, 19.16 0 M0 19.16 C1.91 4.24, 7 1.75, 19.16 0" stroke="#1e1e1e" stroke-width="2" fill="none"></path></g><g stroke-linecap="round" transform="translate(13.186373760761398 88.17832059975353) rotate(312.47556431009303 13.974609375 10.47265625)"><path d="M5.24 0 C9.82 2, 21.07 0.92, 22.71 0 C26.09 0.63, 27.27 -1.75, 27.95 5.24 C28.75 9.23, 26.83 8.17, 27.95 15.71 C28.77 17.97, 27.5 23.19, 22.71 20.95 C13.85 23.84, 10.21 22.7, 5.24 20.95 C0.02 18.16, 3.08 18.24, 0 15.71 C0.27 15.37, 0.97 12.72, 0 5.24 C-1.47 2.73, 3.84 1.25, 5.24 0" stroke="none" stroke-width="0" fill="#fcc2d7"></path><path d="M5.24 0 C7.75 0.48, 13.34 0.78, 22.71 0 M5.24 0 C10.39 0.72, 17.73 0.63, 22.71 0 M22.71 0 C26.01 -1.2, 29.08 2.65, 27.95 5.24 M22.71 0 C27.13 1.19, 29.28 1.47, 27.95 5.24 M27.95 5.24 C27.52 6.92, 28.43 9.82, 27.95 15.71 M27.95 5.24 C28.3 8.73, 28.01 13.6, 27.95 15.71 M27.95 15.71 C29.32 20.59, 26.45 21.52, 22.71 20.95 M27.95 15.71 C27.81 19.27, 26.87 19.8, 22.71 20.95 M22.71 20.95 C17.48 22.42, 8.64 21.43, 5.24 20.95 M22.71 20.95 C16.2 21.65, 10.44 21.81, 5.24 20.95 M5.24 20.95 C1.4 21.97, -0.46 18.06, 0 15.71 M5.24 20.95 C1.35 20.61, -0.28 17.94, 0 15.71 M0 15.71 C-0.79 13.23, -0.87 7.99, 0 5.24 M0 15.71 C-0.39 11.5, 0.12 7.27, 0 5.24 M0 5.24 C1.26 3.25, 0.29 0.44, 5.24 0 M0 5.24 C-1.79 2.62, 1.24 1.72, 5.24 0" stroke="#1e1e1e" stroke-width="2" fill="none"></path></g><g stroke-linecap="round" transform="translate(28.105044809020455 46.951090522249615) rotate(312.47556431009303 25.4296875 23.859375)"><path d="M22.72 0.3 C27.76 -0.39, 34.99 1.32, 39.41 4.36 C43.82 7.41, 47.83 13.79, 49.18 18.57 C50.54 23.36, 49.59 28.67, 47.56 33.05 C45.52 37.43, 41.81 42.68, 36.97 44.85 C32.12 47.01, 23.96 47.23, 18.5 46.02 C13.04 44.82, 7.39 41.55, 4.2 37.6 C1 33.66, -1.35 27.59, -0.68 22.36 C-0.01 17.13, 3.89 10.08, 8.24 6.23 C12.58 2.37, 22.19 0.21, 25.39 -0.78 C28.58 -1.76, 27.32 -0.36, 27.41 0.31 M34.79 2.48 C39.79 3.95, 45.09 7.44, 47.76 11.59 C50.42 15.74, 51.99 22.54, 50.79 27.39 C49.6 32.24, 44.74 37.31, 40.59 40.67 C36.45 44.04, 31.02 47.06, 25.92 47.57 C20.82 48.08, 14.38 47.14, 9.98 43.72 C5.59 40.3, 0.62 32.39, -0.45 27.05 C-1.52 21.72, 0.67 15.81, 3.57 11.71 C6.47 7.62, 11.65 4.38, 16.94 2.49 C22.22 0.6, 32.61 0.64, 35.27 0.37 C37.92 0.1, 33.02 0.22, 32.87 0.87" stroke="none" stroke-width="0" fill="#fcc2d7"></path><path d="M30.77 -0.39 C36.01 0.34, 42.57 5.57, 46.06 9.65 C49.55 13.72, 52.02 19, 51.69 24.06 C51.37 29.12, 47.72 36.03, 44.11 39.99 C40.49 43.94, 35.17 46.98, 29.98 47.81 C24.79 48.64, 17.74 47.73, 12.96 44.95 C8.18 42.17, 3.09 35.93, 1.31 31.11 C-0.48 26.29, 0.37 20.84, 2.24 16.04 C4.11 11.24, 7.04 4.75, 12.52 2.29 C18.01 -0.17, 30.65 1.13, 35.15 1.3 C39.66 1.47, 39.73 2.74, 39.54 3.31 M15.02 3.59 C19.46 1.02, 26.33 0.06, 31.45 1.07 C36.57 2.08, 42.42 5.74, 45.72 9.64 C49.02 13.54, 51.4 19.28, 51.25 24.48 C51.11 29.67, 48.9 36.83, 44.85 40.83 C40.8 44.83, 32.28 48.18, 26.95 48.47 C21.63 48.75, 17.11 45.41, 12.89 42.53 C8.67 39.64, 3.32 35.7, 1.64 31.15 C-0.04 26.61, 0.98 19.83, 2.82 15.24 C4.66 10.65, 11 5.43, 12.67 3.6 C14.34 1.78, 12.49 3.98, 12.85 4.29" stroke="#1e1e1e" stroke-width="2" fill="none"></path></g></svg>