<svg version="1.1" xmlns="http://www.w3.org/2000/svg" viewBox="0 0 108.56158285019092 140.84223780150023" width="108.56158285019092" height="140.84223780150023">
  <!-- svg-source:excalidraw -->
  
  <defs>
    <style class="style-fonts">
      @font-face {
        font-family: "Virgil";
        src: url("https://excalidraw.com/Virgil.woff2");
      }
      @font-face {
        font-family: "Cascadia";
        src: url("https://excalidraw.com/Cascadia.woff2");
      }
      @font-face {
        font-family: "Assistant";
        src: url("https://excalidraw.com/Assistant-Regular.woff2");
      }
    </style>
    
  </defs>
  <g stroke-linecap="round" transform="translate(37.70629165700893 109.06643921733576) rotate(22.461246866865288 19.283203125 7.48828125)"><path d="M3.74 0 C16.51 2.84, 23.89 1.36, 34.82 0 C38.06 1.31, 39.97 -1.04, 38.57 3.74 C38.31 7.02, 38.25 8.73, 38.57 11.23 C38.12 13.35, 37.01 13.55, 34.82 14.98 C22.69 17.18, 12.5 12.54, 3.74 14.98 C3.42 13.27, -0.78 11.47, 0 11.23 C0.6 10, -0.72 7.51, 0 3.74 C-2.03 2.23, 0.68 1.94, 3.74 0" stroke="none" stroke-width="0" fill="#868e96"></path><path d="M3.74 0 C11.55 0.16, 19.65 0.38, 34.82 0 M3.74 0 C12.49 0.04, 21.59 -0.01, 34.82 0 M34.82 0 C36.77 0.79, 39.27 1.2, 38.57 3.74 M34.82 0 C37 -0.96, 38.38 1.76, 38.57 3.74 M38.57 3.74 C38.86 6.44, 38.37 8.36, 38.57 11.23 M38.57 3.74 C38.47 6.45, 38.67 9.11, 38.57 11.23 M38.57 11.23 C38.12 14.23, 37.99 15.85, 34.82 14.98 M38.57 11.23 C39.01 14.6, 38.01 16.02, 34.82 14.98 M34.82 14.98 C27.41 15.07, 21.76 15.24, 3.74 14.98 M34.82 14.98 C24 15.55, 14.44 15.49, 3.74 14.98 M3.74 14.98 C1.15 14.38, 0.56 14.18, 0 11.23 M3.74 14.98 C1.71 15.57, 0.67 13.59, 0 11.23 M0 11.23 C-0.2 9.17, 0.13 7.55, 0 3.74 M0 11.23 C0.19 8.21, 0.08 5.68, 0 3.74 M0 3.74 C0.68 1.94, 1.37 0.29, 3.74 0 M0 3.74 C-0.07 1.28, 1.58 -0.57, 3.74 0" stroke="#1e1e1e" stroke-width="2" fill="none"></path></g><g stroke-linecap="round" transform="translate(37.5204192611759 16.919422171883525) rotate(22.923355211056883 19.283203125 7.48828125)"><path d="M3.74 0 C7.83 0.59, 17.1 0.93, 34.82 0 C38.72 -2.29, 40.39 -1.12, 38.57 3.74 C38.33 6.09, 38.38 9.41, 38.57 11.23 C38.25 12.3, 37.88 13.28, 34.82 14.98 C23.09 12.87, 18.22 13.61, 3.74 14.98 C0.47 12.72, -0.96 13.99, 0 11.23 C-0.77 9.79, -0.82 8.28, 0 3.74 C-0.57 3.19, 3.42 1.74, 3.74 0" stroke="none" stroke-width="0" fill="#868e96"></path><path d="M3.74 0 C9.94 0.24, 16.58 0.15, 34.82 0 M3.74 0 C10.98 -0.11, 16.97 0.42, 34.82 0 M34.82 0 C38.02 -0.05, 38.29 0.41, 38.57 3.74 M34.82 0 C37.13 0.51, 38.77 1.14, 38.57 3.74 M38.57 3.74 C38.4 5.95, 38.8 8.25, 38.57 11.23 M38.57 3.74 C38.67 6.64, 38.47 9.53, 38.57 11.23 M38.57 11.23 C39.23 14.6, 37.71 15.73, 34.82 14.98 M38.57 11.23 C39.26 14.78, 36.35 15.59, 34.82 14.98 M34.82 14.98 C27.99 15.38, 20.86 15.16, 3.74 14.98 M34.82 14.98 C24.05 15.54, 12.33 14.82, 3.74 14.98 M3.74 14.98 C1.81 15.43, 0.4 14.25, 0 11.23 M3.74 14.98 C1.91 14.84, -0.73 14.41, 0 11.23 M0 11.23 C0.17 8.38, 0.32 5.51, 0 3.74 M0 11.23 C0.02 8.97, 0.1 6.55, 0 3.74 M0 3.74 C0.12 1.54, 1.19 0.03, 3.74 0 M0 3.74 C0.33 0.68, 1.94 0.47, 3.74 0" stroke="#1e1e1e" stroke-width="2" fill="none"></path></g><g stroke-linecap="round" transform="translate(13.299864100190916 32.194161755215646) rotate(0 42.630859375 38.322265625)"><path d="M19.16 0 C38.69 1.5, 58.11 -3.49, 66.1 0 C81.4 -3.28, 88.42 5.77, 85.26 19.16 C84.49 32.1, 84.67 44.11, 85.26 57.48 C86.04 67.91, 78.95 73.69, 66.1 76.64 C51.06 73.48, 28.93 72.72, 19.16 76.64 C5.05 77, -2.81 72.52, 0 57.48 C-2.3 44.47, -0.29 31.42, 0 19.16 C3 8.8, 7.52 -2.43, 19.16 0" stroke="none" stroke-width="0" fill="#a18072"></path><path d="M19.16 0 C32.92 0.19, 45.85 0.13, 66.1 0 M19.16 0 C31.9 0.92, 46.43 0.08, 66.1 0 M66.1 0 C78.32 -1.67, 84.94 7.28, 85.26 19.16 M66.1 0 C79.29 -0.21, 85.58 8.2, 85.26 19.16 M85.26 19.16 C86.16 32.83, 86.66 47.73, 85.26 57.48 M85.26 19.16 C85.07 32.21, 86.18 45.13, 85.26 57.48 M85.26 57.48 C86.04 71.77, 80.08 78.47, 66.1 76.64 M85.26 57.48 C83.32 71.49, 77.27 75, 66.1 76.64 M66.1 76.64 C51.76 77.13, 37.24 75.21, 19.16 76.64 M66.1 76.64 C47.47 76.44, 29.59 77.49, 19.16 76.64 M19.16 76.64 C7.19 77.68, 1.16 70.02, 0 57.48 M19.16 76.64 C4.94 78.01, 1.43 69.18, 0 57.48 M0 57.48 C1.45 47.33, 0.27 41.99, 0 19.16 M0 57.48 C0.58 50.26, 0.02 41.93, 0 19.16 M0 19.16 C-0.12 6.45, 6.97 -0.99, 19.16 0 M0 19.16 C1.38 7.33, 4.15 1.4, 19.16 0" stroke="#1e1e1e" stroke-width="2" fill="none"></path></g><g stroke-linecap="round" transform="translate(13.186373760761398 31.768827916032933) rotate(47.524435689906944 13.974609375 10.47265625)"><path d="M5.24 0 C12.28 -2.22, 19.11 -0.46, 22.71 0 C28.9 3, 30.36 2.88, 27.95 5.24 C28.68 7.61, 28.4 9.75, 27.95 15.71 C24.45 16.21, 26.52 20.6, 22.71 20.95 C14.06 21.47, 9.71 21.89, 5.24 20.95 C3.99 24.5, -2.29 17.4, 0 15.71 C0.96 12.3, -1.64 12.3, 0 5.24 C-0.96 -1.74, 3.79 3.48, 5.24 0" stroke="none" stroke-width="0" fill="#fcc2d7"></path><path d="M5.24 0 C11.23 0.56, 15.49 0.94, 22.71 0 M5.24 0 C11.46 -0.72, 19.09 0.19, 22.71 0 M22.71 0 C26.95 0.7, 28.26 2.97, 27.95 5.24 M22.71 0 C24.35 2.18, 30 3.67, 27.95 5.24 M27.95 5.24 C28.36 8.7, 28.43 11.92, 27.95 15.71 M27.95 5.24 C28.21 8.01, 27.48 11.48, 27.95 15.71 M27.95 15.71 C27.22 20.8, 24.63 21.37, 22.71 20.95 M27.95 15.71 C29.86 17.05, 26.81 22.7, 22.71 20.95 M22.71 20.95 C16.78 20.86, 9.89 21.47, 5.24 20.95 M22.71 20.95 C17.49 21.55, 14.79 20.27, 5.24 20.95 M5.24 20.95 C2.49 21.51, 1.01 20.28, 0 15.71 M5.24 20.95 C-0.28 22.56, -2.09 21.22, 0 15.71 M0 15.71 C-0.65 12.57, -0.21 9.66, 0 5.24 M0 15.71 C-0.01 12.71, 0.42 10.1, 0 5.24 M0 5.24 C-1.88 3.42, 0.43 -0.6, 5.24 0 M0 5.24 C-2 0.89, 1.97 -1.79, 5.24 0" stroke="#1e1e1e" stroke-width="2" fill="none"></path></g><g stroke-linecap="round" transform="translate(28.105044809020455 46.22262049353685) rotate(47.524435689906944 25.4296875 23.859375)"><path d="M15.47 2.1 C19.99 -0.13, 27.4 -0.75, 32.43 0.56 C37.46 1.86, 42.6 5.73, 45.63 9.93 C48.67 14.12, 51.08 20.57, 50.63 25.73 C50.18 30.89, 46.85 37.23, 42.93 40.88 C39.01 44.53, 32.56 47.07, 27.09 47.64 C21.62 48.21, 14.62 47.38, 10.1 44.3 C5.59 41.22, 1.15 34.37, -0.01 29.18 C-1.16 24, -0.16 18.13, 3.18 13.2 C6.51 8.27, 16.21 1.72, 19.99 -0.38 C23.77 -2.48, 25.88 -0.05, 25.89 0.59 M33.59 2.23 C38.65 3.86, 44.45 9.04, 47.45 13.61 C50.46 18.17, 52.55 24.98, 51.6 29.63 C50.64 34.29, 46.03 38.32, 41.72 41.53 C37.41 44.73, 31.19 48.84, 25.75 48.87 C20.31 48.89, 13.26 45.3, 9.06 41.67 C4.85 38.04, 1.67 32.35, 0.54 27.09 C-0.59 21.84, -0.53 14.47, 2.3 10.14 C5.12 5.8, 11.99 2.27, 17.5 1.09 C23.02 -0.1, 32.69 3.07, 35.38 3.03 C38.08 2.99, 33.87 0.77, 33.67 0.83" stroke="none" stroke-width="0" fill="#fcc2d7"></path><path d="M33.52 0.38 C38.29 1.71, 43.2 6.69, 46.11 11.17 C49.02 15.65, 51.5 22.2, 50.98 27.26 C50.47 32.32, 46.99 38.28, 43.03 41.55 C39.07 44.82, 32.58 46.52, 27.24 46.89 C21.9 47.25, 15.27 46.71, 10.97 43.73 C6.67 40.75, 2.92 34.05, 1.46 29.01 C0 23.97, -0.2 17.94, 2.23 13.48 C4.67 9.02, 9.87 3.8, 16.06 2.25 C22.26 0.7, 34.82 3.37, 39.38 4.18 C43.93 4.99, 43.58 6.77, 43.37 7.12 M18.97 1.85 C23.92 0.38, 30.45 0.98, 35.62 2.83 C40.79 4.69, 47.58 8.14, 50.01 12.97 C52.44 17.79, 51.79 26.49, 50.2 31.8 C48.61 37.11, 45.05 42.11, 40.47 44.81 C35.89 47.51, 28.31 48.74, 22.71 48 C17.11 47.25, 10.58 44.22, 6.87 40.31 C3.17 36.41, 0.64 29.56, 0.48 24.55 C0.32 19.54, 2.97 14.09, 5.9 10.26 C8.83 6.43, 15.54 3.3, 18.06 1.57 C20.58 -0.17, 20.61 -0.47, 21.05 -0.16" stroke="#1e1e1e" stroke-width="2" fill="none"></path></g></svg>