<svg version="1.1" xmlns="http://www.w3.org/2000/svg" viewBox="0 0 107.56883731447806 127.12357954545405" width="107.56883731447806" height="127.12357954545405">
  <!-- svg-source:excalidraw -->
  
  <defs>
    <style class="style-fonts">
      @font-face {
        font-family: "Virgil";
        src: url("https://excalidraw.com/Virgil.woff2");
      }
      @font-face {
        font-family: "Cascadia";
        src: url("https://excalidraw.com/Cascadia.woff2");
      }
      @font-face {
        font-family: "Assistant";
        src: url("https://excalidraw.com/Assistant-Regular.woff2");
      }
    </style>
    
  </defs>
  <g stroke-linecap="round" transform="translate(10 24.22216585497881) rotate(0 42.630859375 38.322265625)"><path d="M19.16 0 C38.79 -1.07, 57.47 0.34, 66.1 0 C79.48 0.83, 84.44 3.58, 85.26 19.16 C83.01 29.25, 81.48 47.59, 85.26 57.48 C81.84 69.67, 78.83 73.63, 66.1 76.64 C57.62 79.6, 48.93 77.4, 19.16 76.64 C5.65 77.84, -0.58 70.41, 0 57.48 C1.2 49.7, 2.26 39.71, 0 19.16 C3.55 7.23, 4.95 0.2, 19.16 0" stroke="none" stroke-width="0" fill="#228be6"></path><path d="M19.16 0 C33.13 1.49, 51 0.19, 66.1 0 M19.16 0 C32.78 1.11, 45.72 0.73, 66.1 0 M66.1 0 C77.73 0.14, 84.24 6.07, 85.26 19.16 M66.1 0 C77.77 -1.19, 84.26 8.44, 85.26 19.16 M85.26 19.16 C83.37 34.52, 86.46 49.56, 85.26 57.48 M85.26 19.16 C85.56 28.98, 85.83 37.32, 85.26 57.48 M85.26 57.48 C86.26 69.22, 77.09 77.79, 66.1 76.64 M85.26 57.48 C85.34 70.98, 78.38 74.58, 66.1 76.64 M66.1 76.64 C53.96 74.64, 43.02 77.41, 19.16 76.64 M66.1 76.64 C51.39 76.13, 35.69 76.66, 19.16 76.64 M19.16 76.64 C5.82 75.73, -0.8 69.34, 0 57.48 M19.16 76.64 C6.61 76.67, -0.13 71.53, 0 57.48 M0 57.48 C-1.12 43.34, 0.84 28.46, 0 19.16 M0 57.48 C0.62 43.77, -0.69 27.96, 0 19.16 M0 19.16 C-0.18 5.39, 6.7 -0.08, 19.16 0 M0 19.16 C-0.37 7.9, 8.05 0.31, 19.16 0" stroke="#1e1e1e" stroke-width="2" fill="none"></path></g><g stroke-linecap="round" transform="translate(33.868992660984986 102.14701704545405) rotate(0 19.283203125 7.48828125)"><path d="M3.74 0 C13.31 0.15, 20.22 0.76, 34.82 0 C36.72 -2.02, 39.73 -0.44, 38.57 3.74 C37.62 6.63, 37.59 8.28, 38.57 11.23 C38.53 11.55, 34.92 17.47, 34.82 14.98 C26.67 15.74, 14.6 16.16, 3.74 14.98 C0.83 15.09, -1.52 13.45, 0 11.23 C0.56 9.78, 0.93 8.16, 0 3.74 C-1.04 1.39, 2.72 -0.98, 3.74 0" stroke="none" stroke-width="0" fill="#868e96"></path><path d="M3.74 0 C11.89 -0.13, 18.79 0.61, 34.82 0 M3.74 0 C10.75 0.08, 17.95 -0.09, 34.82 0 M34.82 0 C36.81 -0.16, 38.09 0.73, 38.57 3.74 M34.82 0 C36.82 1.03, 39.62 0.77, 38.57 3.74 M38.57 3.74 C38.79 6.18, 38.3 8.77, 38.57 11.23 M38.57 3.74 C38.62 5.87, 38.66 7.92, 38.57 11.23 M38.57 11.23 C37.68 14.3, 37.35 15.29, 34.82 14.98 M38.57 11.23 C38.32 12.7, 36.68 13.93, 34.82 14.98 M34.82 14.98 C26.23 15.27, 17.94 14.51, 3.74 14.98 M34.82 14.98 C24.31 14.81, 14.06 14.65, 3.74 14.98 M3.74 14.98 C0.85 14.52, 0.1 13.74, 0 11.23 M3.74 14.98 C1.18 15.61, 0.94 13.39, 0 11.23 M0 11.23 C0.16 9.5, 0.31 7.95, 0 3.74 M0 11.23 C-0.11 9.24, -0.05 7.41, 0 3.74 M0 3.74 C0.16 1.21, 1.09 0.66, 3.74 0 M0 3.74 C0.83 1.4, 2.23 0, 3.74 0" stroke="#1e1e1e" stroke-width="2" fill="none"></path></g><g stroke-linecap="round" transform="translate(34.05486505681802 10) rotate(0 19.283203125 7.48828125)"><path d="M3.74 0 C12.27 0.6, 19.34 -2.02, 34.82 0 C38.48 -1.69, 38.92 -0.06, 38.57 3.74 C37.55 5.18, 38.46 6.12, 38.57 11.23 C36.17 16.22, 37.75 15.9, 34.82 14.98 C22.54 15.91, 10.9 15.16, 3.74 14.98 C-0.27 14.7, -2.07 14.54, 0 11.23 C0.9 8.91, -0.45 6.18, 0 3.74 C1.47 0.26, 3.83 1.93, 3.74 0" stroke="none" stroke-width="0" fill="#868e96"></path><path d="M3.74 0 C14.85 0.71, 25.53 0.11, 34.82 0 M3.74 0 C15.25 -0.03, 27.08 -0.14, 34.82 0 M34.82 0 C36.84 -0.52, 38.13 2.14, 38.57 3.74 M34.82 0 C38.38 -0.48, 38.75 0.25, 38.57 3.74 M38.57 3.74 C38.36 6.41, 38.54 8.49, 38.57 11.23 M38.57 3.74 C38.67 6.42, 38.41 9.41, 38.57 11.23 M38.57 11.23 C38.6 14.04, 37.1 14.08, 34.82 14.98 M38.57 11.23 C37.93 12.68, 37.03 14.6, 34.82 14.98 M34.82 14.98 C28.62 14.72, 22.34 15.34, 3.74 14.98 M34.82 14.98 C27.41 14.73, 20.08 14.73, 3.74 14.98 M3.74 14.98 C1.34 14.99, -0.06 14.28, 0 11.23 M3.74 14.98 C2.19 14.64, -0.72 13.02, 0 11.23 M0 11.23 C0.27 9.07, -0.2 6.71, 0 3.74 M0 11.23 C0 8.36, 0.04 5.66, 0 3.74 M0 3.74 C-0.16 1.91, 1.97 0.13, 3.74 0 M0 3.74 C0.98 1.25, 0.77 0.49, 3.74 0" stroke="#343a40" stroke-width="2" fill="none"></path></g><g stroke-linecap="round" transform="translate(66.43324480371666 79.23082182887447) rotate(47.524435689906944 13.974609375 10.47265625)"><path d="M5.24 0 C9.75 -2.52, 17.12 -2.11, 22.71 0 C26.69 -1.81, 24.82 -1.59, 27.95 5.24 C27.75 7.38, 26.03 14.49, 27.95 15.71 C28.55 20.48, 29.02 23.29, 22.71 20.95 C16.66 21.19, 9.79 20.71, 5.24 20.95 C-1.12 22.07, 1.47 21.38, 0 15.71 C-0.94 12.46, 0.88 8.28, 0 5.24 C3.58 4.42, -1.75 -1.58, 5.24 0" stroke="none" stroke-width="0" fill="#ffd8a8"></path><path d="M5.24 0 C9.25 0.05, 16.99 -0.97, 22.71 0 M5.24 0 C10.76 -0.15, 16.75 -0.46, 22.71 0 M22.71 0 C25.33 1.79, 29.79 0.91, 27.95 5.24 M22.71 0 C26.57 -1.99, 28.34 3.31, 27.95 5.24 M27.95 5.24 C27.73 8.56, 28.63 12.16, 27.95 15.71 M27.95 5.24 C27.53 8.63, 28.02 11.58, 27.95 15.71 M27.95 15.71 C27.52 17.4, 25.1 19.12, 22.71 20.95 M27.95 15.71 C27.37 18.45, 24.04 20.84, 22.71 20.95 M22.71 20.95 C17.25 21.4, 9.53 20.19, 5.24 20.95 M22.71 20.95 C17.36 20.46, 12.78 20.87, 5.24 20.95 M5.24 20.95 C1.63 22.05, 1.64 18.61, 0 15.71 M5.24 20.95 C0.3 19.52, 0.56 20.04, 0 15.71 M0 15.71 C-0.61 13.38, 0.67 8.75, 0 5.24 M0 15.71 C0.09 13.23, -0.07 11.14, 0 5.24 M0 5.24 C1.45 2.01, 3.45 0, 5.24 0 M0 5.24 C-0.96 2.73, 0.84 1.36, 5.24 0" stroke="#1e1e1e" stroke-width="2" fill="none"></path></g><g stroke-linecap="round" transform="translate(28.604417505457604 38.00359175136873) rotate(47.524435689906944 25.4296875 23.859375)"><path d="M17.92 1.29 C22.98 -0.42, 30.8 0.41, 35.71 2.46 C40.62 4.5, 44.81 9.22, 47.37 13.54 C49.92 17.87, 52.17 23.56, 51.02 28.4 C49.87 33.23, 44.94 39.32, 40.44 42.56 C35.95 45.81, 29.4 48.05, 24.06 47.86 C18.71 47.67, 12.24 44.76, 8.39 41.44 C4.53 38.12, 1.64 32.81, 0.91 27.92 C0.18 23.02, 0.64 16.74, 3.99 12.08 C7.34 7.42, 17.49 1.95, 20.98 -0.05 C24.48 -2.05, 24.77 -0.36, 24.94 0.1 M26.39 0.76 C31.35 0.95, 38.44 3.86, 42.37 7.13 C46.31 10.4, 49.58 15.19, 50 20.39 C50.43 25.58, 48.15 33.93, 44.92 38.31 C41.7 42.68, 35.7 45.65, 30.67 46.64 C25.64 47.63, 19.69 46.13, 14.75 44.26 C9.81 42.4, 3.32 39.79, 1.04 35.46 C-1.24 31.13, -0.72 23.32, 1.09 18.3 C2.91 13.28, 7.49 8.43, 11.94 5.34 C16.39 2.26, 25.13 0.61, 27.81 -0.22 C30.49 -1.06, 28.08 0.02, 28.01 0.32" stroke="none" stroke-width="0" fill="#ffd8a8"></path><path d="M19.38 0.19 C24.23 -1.26, 31.65 -0.31, 36.45 1.95 C41.24 4.21, 45.77 8.84, 48.16 13.75 C50.54 18.65, 52.25 26.37, 50.76 31.38 C49.27 36.4, 44.02 41.09, 39.21 43.82 C34.39 46.54, 27.11 48.29, 21.87 47.75 C16.64 47.21, 11.54 44.17, 7.8 40.59 C4.06 37.01, -0.05 31.41, -0.56 26.28 C-1.08 21.15, 0.33 14.14, 4.73 9.81 C9.14 5.47, 21.51 1.64, 25.87 0.27 C30.22 -1.11, 31.06 1.34, 30.86 1.55 M32.31 -0.37 C37.21 0.41, 42.79 4.9, 45.79 9.31 C48.8 13.71, 51.03 20.75, 50.32 26.05 C49.61 31.34, 45.32 37.43, 41.54 41.08 C37.77 44.73, 32.95 47.56, 27.67 47.97 C22.39 48.38, 14.26 46.78, 9.84 43.53 C5.42 40.28, 2.45 33.54, 1.15 28.46 C-0.15 23.38, -0.22 17.56, 2.06 13.03 C4.34 8.51, 9.84 3.43, 14.84 1.3 C19.83 -0.82, 29.07 0.26, 32.03 0.29 C34.99 0.31, 32.66 0.81, 32.63 1.45" stroke="#1e1e1e" stroke-width="2" fill="none"></path></g></svg>