<svg version="1.1" xmlns="http://www.w3.org/2000/svg" viewBox="0 0 105.26171875 127.84067844958372" width="105.26171875" height="127.84067844958372">
  <!-- svg-source:excalidraw -->
  
  <defs>
    <style class="style-fonts">
      @font-face {
        font-family: "Virgil";
        src: url("https://excalidraw.com/Virgil.woff2");
      }
      @font-face {
        font-family: "Cascadia";
        src: url("https://excalidraw.com/Cascadia.woff2");
      }
      @font-face {
        font-family: "Assistant";
        src: url("https://excalidraw.com/Assistant-Regular.woff2");
      }
    </style>
    
  </defs>
  <g stroke-linecap="round" transform="translate(10 24.222165854976993) rotate(0 42.630859375 38.322265625)"><path d="M19.16 0 C29.51 0.64, 43.33 -0.5, 66.1 0 C81.25 2.61, 85.74 9.46, 85.26 19.16 C83.55 32.8, 84.96 42.77, 85.26 57.48 C86.09 69.43, 76.07 78.26, 66.1 76.64 C51.93 72.89, 46.03 72.79, 19.16 76.64 C5.8 76.6, -3.01 66.94, 0 57.48 C2.7 44.66, 0.5 26.4, 0 19.16 C1.2 5.8, 6.54 -2.11, 19.16 0" stroke="none" stroke-width="0" fill="#228be6"></path><path d="M19.16 0 C35.33 1.44, 51.71 -1.79, 66.1 0 M19.16 0 C34.56 0.44, 48.86 -0.61, 66.1 0 M66.1 0 C80.1 1.13, 85.19 6.15, 85.26 19.16 M66.1 0 C80.49 -1.54, 85.49 8.22, 85.26 19.16 M85.26 19.16 C85.56 27.77, 85.1 37.47, 85.26 57.48 M85.26 19.16 C86.02 28.26, 85.25 37.32, 85.26 57.48 M85.26 57.48 C85.6 71.62, 79.22 75.4, 66.1 76.64 M85.26 57.48 C87.06 69.92, 78.87 78.28, 66.1 76.64 M66.1 76.64 C49.74 75.1, 36.59 76.95, 19.16 76.64 M66.1 76.64 C49.98 75.31, 34.72 75.9, 19.16 76.64 M19.16 76.64 C4.51 76.55, 0.89 70.65, 0 57.48 M19.16 76.64 C5.65 77.38, 0.68 68.74, 0 57.48 M0 57.48 C-0.86 46.72, -0.87 37.75, 0 19.16 M0 57.48 C0.84 45.66, -0.61 33.8, 0 19.16 M0 19.16 C0.49 7.12, 6.62 1.53, 19.16 0 M0 19.16 C1.67 5.22, 8.45 1.64, 19.16 0" stroke="#1e1e1e" stroke-width="2" fill="none"></path></g><g stroke-linecap="round" transform="translate(33.86899266098408 102.14701704545405) rotate(0 19.283203125 7.48828125)"><path d="M3.74 0 C12.69 -0.48, 23.55 1.82, 34.82 0 C37.67 2.22, 38.57 0.16, 38.57 3.74 C38.52 6.47, 38.75 8.65, 38.57 11.23 C36.54 14.89, 35.63 15.33, 34.82 14.98 C28.5 12.13, 18.87 14.57, 3.74 14.98 C-0.93 12.58, 2.49 14.16, 0 11.23 C0.09 8.52, 0.25 6.05, 0 3.74 C0.11 -0.27, 0.97 -2.07, 3.74 0" stroke="none" stroke-width="0" fill="#868e96"></path><path d="M3.74 0 C14.29 -0.93, 25.14 -0.2, 34.82 0 M3.74 0 C12.26 -0.4, 21.64 0.23, 34.82 0 M34.82 0 C37.28 -0.12, 39.27 0.58, 38.57 3.74 M34.82 0 C37.43 0.91, 38.01 1.73, 38.57 3.74 M38.57 3.74 C38.51 5.38, 38.38 7.22, 38.57 11.23 M38.57 3.74 C38.63 6.5, 38.63 9.7, 38.57 11.23 M38.57 11.23 C38.74 13.1, 38.1 14.83, 34.82 14.98 M38.57 11.23 C38.56 14.54, 37.62 14.92, 34.82 14.98 M34.82 14.98 C24.52 14.87, 13.39 14.62, 3.74 14.98 M34.82 14.98 C28.16 14.67, 21.29 14.81, 3.74 14.98 M3.74 14.98 C1.69 15.17, -0.32 14.05, 0 11.23 M3.74 14.98 C1.59 14.22, -0.46 13.57, 0 11.23 M0 11.23 C-0.15 9.24, 0.02 7.15, 0 3.74 M0 11.23 C-0.15 8.46, 0.02 5.98, 0 3.74 M0 3.74 C0.12 2.01, 1.97 -0.51, 3.74 0 M0 3.74 C1.03 2.07, 0.78 -0.75, 3.74 0" stroke="#1e1e1e" stroke-width="2" fill="none"></path></g><g stroke-linecap="round" transform="translate(34.05486505681802 10) rotate(0 19.283203125 7.48828125)"><path d="M3.74 0 C15.27 1.95, 23.71 2.28, 34.82 0 C37.32 -1.09, 39.68 0.22, 38.57 3.74 C38.79 6.21, 37.81 9.56, 38.57 11.23 C36.88 14.08, 36.01 12.72, 34.82 14.98 C27.95 14.56, 19.76 12.2, 3.74 14.98 C3.74 15.41, 0.92 15.76, 0 11.23 C0.31 8.34, 0.03 5.19, 0 3.74 C-0.28 -0.82, 2.06 1.06, 3.74 0" stroke="none" stroke-width="0" fill="#868e96"></path><path d="M3.74 0 C15.83 0.05, 27.3 0.4, 34.82 0 M3.74 0 C14.49 0.39, 24.61 0.05, 34.82 0 M34.82 0 C38.02 -0.67, 38.67 2.04, 38.57 3.74 M34.82 0 C36.76 0.48, 37.91 1.33, 38.57 3.74 M38.57 3.74 C38.37 5.45, 38.9 7.82, 38.57 11.23 M38.57 3.74 C38.6 5.81, 38.6 7.49, 38.57 11.23 M38.57 11.23 C39.35 13.58, 37.32 15.69, 34.82 14.98 M38.57 11.23 C38.87 13.67, 37.89 14.38, 34.82 14.98 M34.82 14.98 C28.58 14.77, 20.82 14.43, 3.74 14.98 M34.82 14.98 C27.86 14.9, 22.05 15.02, 3.74 14.98 M3.74 14.98 C0.93 15.29, 0.3 13.07, 0 11.23 M3.74 14.98 C0.79 14.82, -0.33 13.2, 0 11.23 M0 11.23 C0.02 9.26, 0.22 7.64, 0 3.74 M0 11.23 C0.07 9.28, 0.05 7.32, 0 3.74 M0 3.74 C0.72 0.74, 2.15 0.71, 3.74 0 M0 3.74 C-0.47 0.5, 1.14 -0.58, 3.74 0" stroke="#343a40" stroke-width="2" fill="none"></path></g><g stroke-linecap="round" transform="translate(39.59834102597142 93.26932525149823) rotate(90.684351531919 13.974609375 10.47265625)"><path d="M5.24 0 C10.62 2.46, 15.16 -1.55, 22.71 0 C27.74 -1.42, 30.08 1.73, 27.95 5.24 C26.53 9.4, 26.77 12.13, 27.95 15.71 C26.14 16.07, 22.87 22.95, 22.71 20.95 C16.5 18.04, 18.57 21.47, 5.24 20.95 C3.02 23.76, 2.35 19.82, 0 15.71 C0.02 11.68, -0.27 8.36, 0 5.24 C1.12 3.21, 3.93 0.74, 5.24 0" stroke="none" stroke-width="0" fill="#ffd8a8"></path><path d="M5.24 0 C8.79 0.49, 13.56 -0.97, 22.71 0 M5.24 0 C9.24 -0.2, 13.92 -0.68, 22.71 0 M22.71 0 C26.4 1.59, 26.98 2.58, 27.95 5.24 M22.71 0 C24.89 0.16, 26.77 1.38, 27.95 5.24 M27.95 5.24 C28.83 8.84, 27.46 10.68, 27.95 15.71 M27.95 5.24 C28.06 7.14, 28.38 9.63, 27.95 15.71 M27.95 15.71 C27.94 20.62, 26.73 20.85, 22.71 20.95 M27.95 15.71 C29.1 18.01, 24.15 22.27, 22.71 20.95 M22.71 20.95 C15.84 19.94, 10.51 20.47, 5.24 20.95 M22.71 20.95 C18.43 21.11, 13.09 21.21, 5.24 20.95 M5.24 20.95 C2.34 19.63, -0.8 18.93, 0 15.71 M5.24 20.95 C1.09 19.9, -0.92 18.14, 0 15.71 M0 15.71 C0.58 13.32, -0.31 8.57, 0 5.24 M0 15.71 C0.04 13.62, 0.35 10.45, 0 5.24 M0 5.24 C1.79 3.17, 0.92 -1.31, 5.24 0 M0 5.24 C-0.21 0.59, 2.1 -0.09, 5.24 0" stroke="#1e1e1e" stroke-width="2" fill="none"></path></g><g stroke-linecap="round" transform="translate(27.948939732143117 41.5338000671818) rotate(90.684351531919 25.4296875 23.859375)"><path d="M21.35 0.34 C26.51 -0.6, 34.05 0.71, 38.85 3.53 C43.64 6.34, 48.49 12.47, 50.14 17.23 C51.79 21.99, 50.96 27.45, 48.74 32.1 C46.52 36.75, 41.51 42.6, 36.82 45.13 C32.13 47.67, 25.69 48.3, 20.59 47.33 C15.49 46.36, 9.72 43.22, 6.21 39.33 C2.69 35.45, -0.66 29.3, -0.5 24 C-0.33 18.7, 3.13 11.55, 7.19 7.54 C11.25 3.53, 20.62 1.07, 23.88 -0.07 C27.13 -1.22, 26.61 0.31, 26.72 0.69 M34.95 1.29 C39.67 2.65, 44.08 7.65, 46.58 12.18 C49.08 16.7, 50.7 23.46, 49.96 28.44 C49.22 33.43, 46.09 38.94, 42.14 42.09 C38.19 45.25, 31.9 47.2, 26.26 47.37 C20.62 47.54, 12.75 46.22, 8.29 43.1 C3.83 39.98, 0.48 34, -0.5 28.65 C-1.48 23.31, -0.15 15.39, 2.42 11.02 C4.98 6.65, 9.92 4.1, 14.89 2.43 C19.86 0.77, 29.14 1.37, 32.24 1.04 C35.34 0.72, 33.62 -0.17, 33.49 0.48" stroke="none" stroke-width="0" fill="#ffd8a8"></path><path d="M18.96 0.9 C23.94 -0.73, 30.86 0.66, 35.63 2.76 C40.4 4.85, 45.06 9.09, 47.61 13.48 C50.15 17.87, 52.04 24.27, 50.91 29.12 C49.77 33.97, 45.34 39.57, 40.81 42.58 C36.29 45.58, 29.28 47.49, 23.75 47.15 C18.22 46.82, 11.64 44.09, 7.62 40.56 C3.6 37.02, 0.02 30.79, -0.38 25.94 C-0.77 21.09, 1.35 15.74, 5.23 11.46 C9.11 7.17, 19.2 2.02, 22.89 0.24 C26.58 -1.53, 27.15 0.4, 27.37 0.79 M17.62 2.22 C22.32 0.46, 30.23 0.06, 35.4 1.68 C40.58 3.3, 46.4 7.25, 48.66 11.93 C50.92 16.6, 50.22 24.52, 48.96 29.73 C47.7 34.94, 45.23 40.4, 41.1 43.17 C36.96 45.94, 29.76 46.85, 24.16 46.36 C18.57 45.86, 11.6 43.48, 7.55 40.19 C3.5 36.91, 0.71 31.49, -0.14 26.64 C-0.98 21.79, -0.59 15.3, 2.48 11.1 C5.55 6.9, 15.82 2.95, 18.29 1.45 C20.76 -0.06, 17.2 1.92, 17.3 2.08" stroke="#1e1e1e" stroke-width="2" fill="none"></path></g></svg>