<svg version="1.1" xmlns="http://www.w3.org/2000/svg" viewBox="0 0 116.60532924107088 127.12357954545405" width="116.60532924107088" height="127.12357954545405">
  <!-- svg-source:excalidraw -->
  
  <defs>
    <style class="style-fonts">
      @font-face {
        font-family: "Virgil";
        src: url("https://excalidraw.com/Virgil.woff2");
      }
      @font-face {
        font-family: "Cascadia";
        src: url("https://excalidraw.com/Cascadia.woff2");
      }
      @font-face {
        font-family: "Assistant";
        src: url("https://excalidraw.com/Assistant-Regular.woff2");
      }
    </style>
    
  </defs>
  <g stroke-linecap="round" transform="translate(21.343610491070876 24.534665854976993) rotate(0 42.630859375 38.322265625)"><path d="M19.16 0 C30.25 0.68, 44.68 0.13, 66.1 0 C80.87 2.94, 84.2 4.12, 85.26 19.16 C85.85 31.05, 88.04 35.58, 85.26 57.48 C88.49 72.83, 77.4 74.29, 66.1 76.64 C52.3 76.2, 41.16 79.38, 19.16 76.64 C6.87 79.72, 0 68.75, 0 57.48 C0.26 44.95, 1.1 30.39, 0 19.16 C-2.8 8, 4.05 0.49, 19.16 0" stroke="none" stroke-width="0" fill="#228be6"></path><path d="M19.16 0 C35.76 1.57, 50.16 0.19, 66.1 0 M19.16 0 C33.92 0.49, 47.24 0.33, 66.1 0 M66.1 0 C77.03 -1.43, 83.78 6.28, 85.26 19.16 M66.1 0 C77.43 1.18, 86.35 8.65, 85.26 19.16 M85.26 19.16 C85.16 30.61, 85.68 45.12, 85.26 57.48 M85.26 19.16 C84.81 29.32, 85.98 41.42, 85.26 57.48 M85.26 57.48 C85.19 70.02, 80.28 75.31, 66.1 76.64 M85.26 57.48 C85.49 72.09, 77.76 77.6, 66.1 76.64 M66.1 76.64 C54.37 75.44, 42.25 75.54, 19.16 76.64 M66.1 76.64 C47.98 75.58, 29.71 77.13, 19.16 76.64 M19.16 76.64 C6.74 75.4, 1.56 69.97, 0 57.48 M19.16 76.64 C6.38 78.28, 0.61 70.14, 0 57.48 M0 57.48 C1.35 44.15, 0.83 30.23, 0 19.16 M0 57.48 C-0.04 49.1, -0.73 41.33, 0 19.16 M0 19.16 C0.89 6.78, 5.75 0.64, 19.16 0 M0 19.16 C0.68 4.87, 5.47 -0.31, 19.16 0" stroke="#1e1e1e" stroke-width="2" fill="none"></path></g><g stroke-linecap="round" transform="translate(45.21260315205586 102.14701704545405) rotate(0 19.283203125 7.48828125)"><path d="M3.74 0 C11.85 -0.19, 21.35 2.09, 34.82 0 C36.55 -1.64, 36.96 1.89, 38.57 3.74 C39.28 5.77, 39.45 9.48, 38.57 11.23 C37.5 12.03, 37.08 13.67, 34.82 14.98 C26.73 16.79, 15.56 17.13, 3.74 14.98 C1.25 13.89, 1.11 12.7, 0 11.23 C0.22 8.32, -0.76 6.29, 0 3.74 C-1.69 1.6, -0.06 -2.26, 3.74 0" stroke="none" stroke-width="0" fill="#868e96"></path><path d="M3.74 0 C12.18 -0.11, 19.74 -0.56, 34.82 0 M3.74 0 C15.49 0.2, 26.26 -0.48, 34.82 0 M34.82 0 C36.58 -0.06, 37.94 1.76, 38.57 3.74 M34.82 0 C37.86 1.13, 39.03 1.16, 38.57 3.74 M38.57 3.74 C38.65 6.57, 38.5 9.56, 38.57 11.23 M38.57 3.74 C38.66 6.37, 38.54 8.75, 38.57 11.23 M38.57 11.23 C39.27 13.06, 37.42 15.77, 34.82 14.98 M38.57 11.23 C38.01 14.21, 36.66 15.06, 34.82 14.98 M34.82 14.98 C26.57 14.47, 20.24 15.82, 3.74 14.98 M34.82 14.98 C26.88 15.18, 18.86 14.53, 3.74 14.98 M3.74 14.98 C2.03 14.83, 0 14.44, 0 11.23 M3.74 14.98 C1.55 14.92, 0.57 13.13, 0 11.23 M0 11.23 C0.1 9.57, -0.36 7.87, 0 3.74 M0 11.23 C-0.17 9.66, 0.09 8.14, 0 3.74 M0 3.74 C-0.32 1.57, 1.54 -0.66, 3.74 0 M0 3.74 C-0.46 1.09, 0.92 -0.52, 3.74 0" stroke="#1e1e1e" stroke-width="2" fill="none"></path></g><g stroke-linecap="round" transform="translate(45.39847554788889 10) rotate(0 19.283203125 7.48828125)"><path d="M3.74 0 C14.81 2.15, 22.22 -1.61, 34.82 0 C35.71 0.64, 39.52 1.55, 38.57 3.74 C39.51 7.26, 38.24 8.75, 38.57 11.23 C38.33 12.43, 37.72 14.88, 34.82 14.98 C26.35 17.49, 17.18 14.18, 3.74 14.98 C2.36 13.95, 1.54 13.72, 0 11.23 C-0.78 9.3, -0.65 6.62, 0 3.74 C-1.3 -1.01, -1.16 1.45, 3.74 0" stroke="none" stroke-width="0" fill="#868e96"></path><path d="M3.74 0 C15.14 -0.45, 27.36 0.97, 34.82 0 M3.74 0 C15.14 -0.46, 27.09 -0.13, 34.82 0 M34.82 0 C36.69 0.51, 39.04 2.23, 38.57 3.74 M34.82 0 C37.78 -0.08, 39.51 1.2, 38.57 3.74 M38.57 3.74 C38.51 5.49, 38.71 6.83, 38.57 11.23 M38.57 3.74 C38.58 5.45, 38.72 7.08, 38.57 11.23 M38.57 11.23 C38.67 14.52, 36.83 15.39, 34.82 14.98 M38.57 11.23 C37.91 13.81, 36.73 14.79, 34.82 14.98 M34.82 14.98 C27.89 15.83, 18.74 15.07, 3.74 14.98 M34.82 14.98 C28.28 14.77, 21.96 15.01, 3.74 14.98 M3.74 14.98 C1.25 15.69, 0.27 13.68, 0 11.23 M3.74 14.98 C1.82 14.38, -1.02 14.39, 0 11.23 M0 11.23 C-0.35 8.75, -0.35 6.59, 0 3.74 M0 11.23 C0.12 9.27, -0.02 7.29, 0 3.74 M0 3.74 C0.3 0.59, 0.85 -0.13, 3.74 0 M0 3.74 C-0.33 0.72, 0.79 -0.53, 3.74 0" stroke="#343a40" stroke-width="2" fill="none"></path></g><g stroke-linecap="round" transform="translate(10 53.475852272726115) rotate(0 13.974609375 10.47265625)"><path d="M5.24 0 C9.45 -2.24, 13.57 0.51, 22.71 0 C27.52 0.42, 30.71 4.35, 27.95 5.24 C27.34 6.61, 27.95 9.51, 27.95 15.71 C28.51 19.06, 25.63 23.32, 22.71 20.95 C16.21 19.9, 11.04 19.97, 5.24 20.95 C3.88 20.93, 0.6 20.03, 0 15.71 C-1.08 13.06, -0.8 8.27, 0 5.24 C-3.34 3.75, -1.68 -0.59, 5.24 0" stroke="none" stroke-width="0" fill="#ffd8a8"></path><path d="M5.24 0 C11.69 1.77, 17.14 0.97, 22.71 0 M5.24 0 C10.98 0.08, 17.47 0.57, 22.71 0 M22.71 0 C27.15 1.97, 28.76 1.6, 27.95 5.24 M22.71 0 C28.08 -0.09, 26.11 2.26, 27.95 5.24 M27.95 5.24 C28.31 7.72, 27.21 12.01, 27.95 15.71 M27.95 5.24 C28.31 8.62, 28 13.12, 27.95 15.71 M27.95 15.71 C26.98 20.03, 25.06 21.08, 22.71 20.95 M27.95 15.71 C26.77 18.83, 25.1 19.75, 22.71 20.95 M22.71 20.95 C17.5 21.38, 12.23 21.4, 5.24 20.95 M22.71 20.95 C16.96 20.71, 9.85 21.46, 5.24 20.95 M5.24 20.95 C2.28 20.85, 1 18.17, 0 15.71 M5.24 20.95 C-0.3 22.27, 0.08 19.93, 0 15.71 M0 15.71 C-0.86 12.53, -0.25 8.89, 0 5.24 M0 15.71 C-0.21 12.78, 0.11 9.18, 0 5.24 M0 5.24 C-0.8 1.48, 1.17 -0.91, 5.24 0 M0 5.24 C-0.92 0.69, 1.97 0.02, 5.24 0" stroke="#1e1e1e" stroke-width="2" fill="none"></path></g><g stroke-linecap="round" transform="translate(36.888671875 39.436789772726115) rotate(0 25.4296875 23.859375)"><path d="M14.79 2.11 C19.07 -0.35, 25.81 -1.07, 30.88 0.2 C35.96 1.48, 41.95 5.65, 45.21 9.74 C48.48 13.84, 50.74 19.56, 50.46 24.78 C50.18 29.99, 47.26 37.26, 43.53 41.02 C39.8 44.77, 33.44 46.82, 28.08 47.29 C22.72 47.75, 15.99 46.73, 11.36 43.83 C6.72 40.92, 1.8 34.87, 0.27 29.85 C-1.27 24.83, -0.52 18.5, 2.15 13.69 C4.82 8.89, 13.54 3.09, 16.31 1.03 C19.09 -1.04, 18.6 0.86, 18.82 1.3 M31.44 -0.02 C36.37 1.18, 43.61 6.45, 46.85 11.02 C50.09 15.6, 51.34 22.59, 50.9 27.45 C50.46 32.32, 47.94 36.68, 44.22 40.22 C40.5 43.77, 34.32 48.4, 28.6 48.73 C22.88 49.06, 14.57 45.51, 9.91 42.21 C5.25 38.91, 1.82 33.73, 0.63 28.93 C-0.55 24.12, 0.42 17.7, 2.78 13.39 C5.14 9.08, 9.68 5.12, 14.8 3.07 C19.91 1.03, 30.35 1.4, 33.47 1.11 C36.6 0.83, 33.93 0.92, 33.53 1.37" stroke="none" stroke-width="0" fill="#ffd8a8"></path><path d="M31.13 0.03 C36.1 1.01, 42.75 5.04, 46.11 9.41 C49.47 13.78, 51.56 20.98, 51.29 26.25 C51.03 31.52, 48.44 37.32, 44.52 41.02 C40.59 44.72, 33.34 48.15, 27.75 48.43 C22.15 48.71, 15.38 45.75, 10.95 42.7 C6.51 39.65, 2.6 34.87, 1.13 30.12 C-0.33 25.37, -0.15 18.92, 2.14 14.19 C4.43 9.47, 8.82 3.37, 14.89 1.74 C20.95 0.11, 33.43 3.19, 38.51 4.41 C43.58 5.64, 45.48 8.74, 45.35 9.09 M16.36 1.94 C20.97 -0.12, 28.54 -0.01, 33.62 1.67 C38.71 3.34, 44.2 7.68, 46.87 12 C49.55 16.31, 50.69 22.29, 49.68 27.57 C48.68 32.86, 44.71 40.45, 40.83 43.7 C36.96 46.96, 31.73 47.61, 26.43 47.09 C21.13 46.57, 13.35 43.68, 9.04 40.61 C4.73 37.54, 1.44 33.66, 0.58 28.67 C-0.29 23.69, 0.91 15.28, 3.86 10.69 C6.81 6.09, 16.03 2.41, 18.26 1.1 C20.49 -0.21, 17.24 2.44, 17.25 2.83" stroke="#1e1e1e" stroke-width="2" fill="none"></path></g></svg>