<svg version="1.1" xmlns="http://www.w3.org/2000/svg" viewBox="0 0 117.88881138392844 127.12357954545405" width="117.88881138392844" height="127.12357954545405">
  <!-- svg-source:excalidraw -->
  
  <defs>
    <style class="style-fonts">
      @font-face {
        font-family: "Virgil";
        src: url("https://excalidraw.com/Virgil.woff2");
      }
      @font-face {
        font-family: "Cascadia";
        src: url("https://excalidraw.com/Cascadia.woff2");
      }
      @font-face {
        font-family: "Assistant";
        src: url("https://excalidraw.com/Assistant-Regular.woff2");
      }
    </style>
    
  </defs>
  <g stroke-linecap="round" transform="translate(10 24.85274621212011) rotate(0 42.630859375 38.322265625)"><path d="M19.16 0 C34.21 3.68, 41.31 0.94, 66.1 0 C75.75 0.6, 87.71 7.01, 85.26 19.16 C85.79 30.82, 86.76 37.19, 85.26 57.48 C87.06 68.4, 75.67 78.71, 66.1 76.64 C48.62 74.47, 34.32 75.55, 19.16 76.64 C5.21 73.26, -0.17 71.85, 0 57.48 C1.28 42.86, -1.22 32.5, 0 19.16 C-1.03 4.74, 4.95 -1.65, 19.16 0" stroke="none" stroke-width="0" fill="#228be6"></path><path d="M19.16 0 C33.08 -1.85, 50.52 1.89, 66.1 0 M19.16 0 C35.59 0.23, 52.59 0.35, 66.1 0 M66.1 0 C78.46 0.51, 85.27 8.25, 85.26 19.16 M66.1 0 C78.17 0.95, 87.25 5.37, 85.26 19.16 M85.26 19.16 C84.84 31.44, 84.02 41.47, 85.26 57.48 M85.26 19.16 C84.88 28.91, 85.9 39.85, 85.26 57.48 M85.26 57.48 C84.08 70.38, 80.15 75.91, 66.1 76.64 M85.26 57.48 C85.76 70.04, 77.92 78.38, 66.1 76.64 M66.1 76.64 C48.67 75.74, 32.88 78.58, 19.16 76.64 M66.1 76.64 C47.27 76.24, 29.55 76.9, 19.16 76.64 M19.16 76.64 C5.13 77.67, 0.95 72.23, 0 57.48 M19.16 76.64 C7.32 76.48, 1.88 70.17, 0 57.48 M0 57.48 C-0.42 49.59, 0.63 39.49, 0 19.16 M0 57.48 C-0.27 48.52, 0.47 39.12, 0 19.16 M0 19.16 C0.2 7.98, 5.41 0.83, 19.16 0 M0 19.16 C-1.31 6.55, 5.21 -0.37, 19.16 0" stroke="#1e1e1e" stroke-width="2" fill="none"></path></g><g stroke-linecap="round" transform="translate(33.86899266098453 102.14701704545405) rotate(0 19.283203125 7.48828125)"><path d="M3.74 0 C10.63 0.04, 17.43 0.06, 34.82 0 C39.09 0.45, 36.94 3.28, 38.57 3.74 C38.82 5.83, 39.05 7.52, 38.57 11.23 C36.25 15.22, 37.41 15.8, 34.82 14.98 C23.8 14.1, 16.67 12.31, 3.74 14.98 C1.12 16.13, 0.51 12.89, 0 11.23 C-0.42 8.62, -0.31 5.82, 0 3.74 C-1.04 0.05, 1.5 0.02, 3.74 0" stroke="none" stroke-width="0" fill="#868e96"></path><path d="M3.74 0 C14.09 1.11, 23.74 0.61, 34.82 0 M3.74 0 C12.23 0.12, 21.46 0.1, 34.82 0 M34.82 0 C37.32 0.93, 38.26 1.66, 38.57 3.74 M34.82 0 C38.31 -0.51, 38.21 1.73, 38.57 3.74 M38.57 3.74 C38.29 5.96, 38.43 7.63, 38.57 11.23 M38.57 3.74 C38.65 6.31, 38.44 8.81, 38.57 11.23 M38.57 11.23 C39.2 13.36, 37.53 14.88, 34.82 14.98 M38.57 11.23 C38.09 14.6, 38.11 15.45, 34.82 14.98 M34.82 14.98 C26.2 15.88, 17.01 15.42, 3.74 14.98 M34.82 14.98 C23.09 14.84, 11.79 15.12, 3.74 14.98 M3.74 14.98 C1.72 15.96, 0.41 13.66, 0 11.23 M3.74 14.98 C2.19 14.93, -0.92 13.98, 0 11.23 M0 11.23 C0.14 8.83, -0.25 7.08, 0 3.74 M0 11.23 C0.13 8.44, 0.02 6.04, 0 3.74 M0 3.74 C-0.49 1.66, 0.68 0.07, 3.74 0 M0 3.74 C-0.59 1.06, 0.7 -0.6, 3.74 0" stroke="#1e1e1e" stroke-width="2" fill="none"></path></g><g stroke-linecap="round" transform="translate(34.05486505681802 10) rotate(0 19.283203125 7.48828125)"><path d="M3.74 0 C13.67 0.37, 29.88 0.39, 34.82 0 C35.7 2.03, 38.19 1.24, 38.57 3.74 C39.08 6.02, 37.72 9.86, 38.57 11.23 C38.66 14.55, 36.76 12.64, 34.82 14.98 C26.37 12.43, 19.48 16.03, 3.74 14.98 C1.76 14.14, 0.83 14.5, 0 11.23 C-0.24 9.04, -0.35 7.28, 0 3.74 C0.25 1.27, 1.1 1.44, 3.74 0" stroke="none" stroke-width="0" fill="#868e96"></path><path d="M3.74 0 C10.93 0.32, 16.68 -0.86, 34.82 0 M3.74 0 C13.5 0.08, 23.46 0.42, 34.82 0 M34.82 0 C37.01 0.41, 39.43 0.81, 38.57 3.74 M34.82 0 C36.97 0.48, 38.04 0.91, 38.57 3.74 M38.57 3.74 C38.42 6.8, 38.68 9.53, 38.57 11.23 M38.57 3.74 C38.48 5.64, 38.71 7.44, 38.57 11.23 M38.57 11.23 C38.78 13.63, 36.9 15.73, 34.82 14.98 M38.57 11.23 C39.36 14.2, 37.32 14.9, 34.82 14.98 M34.82 14.98 C27.71 15.64, 19.63 14.2, 3.74 14.98 M34.82 14.98 C27.4 15.22, 20.85 15.46, 3.74 14.98 M3.74 14.98 C1.65 14.9, 0.82 13.69, 0 11.23 M3.74 14.98 C0.33 15.23, -0.08 13.53, 0 11.23 M0 11.23 C-0.27 9.01, 0.2 6.32, 0 3.74 M0 11.23 C-0.01 9.22, -0.12 7, 0 3.74 M0 3.74 C-0.57 1.32, 0.74 -0.16, 3.74 0 M0 3.74 C-0.55 0.65, 0.75 1.03, 3.74 0" stroke="#343a40" stroke-width="2" fill="none"></path></g><g stroke-linecap="round" transform="translate(79.93959263392844 52.35810673701235) rotate(0 13.974609375 10.47265625)"><path d="M5.24 0 C12.9 0.5, 14.32 2.41, 22.71 0 C25.68 -0.01, 30.5 2.7, 27.95 5.24 C26.36 9.41, 28.11 12.01, 27.95 15.71 C27.17 15.97, 24.22 17.67, 22.71 20.95 C17.76 22.04, 13.72 19.64, 5.24 20.95 C2.89 22.01, -2.37 17.76, 0 15.71 C-0.7 11.84, 0.23 9.72, 0 5.24 C-0.21 3.74, 4.69 -1.06, 5.24 0" stroke="none" stroke-width="0" fill="#ffd8a8"></path><path d="M5.24 0 C11.95 -1.32, 19.43 -1.56, 22.71 0 M5.24 0 C10.99 0.77, 16.45 0.32, 22.71 0 M22.71 0 C27.93 -0.88, 27.33 2.58, 27.95 5.24 M22.71 0 C25.14 -0.67, 30.2 0.14, 27.95 5.24 M27.95 5.24 C28.31 8.76, 27.41 13.85, 27.95 15.71 M27.95 5.24 C28.22 8.4, 28 11.9, 27.95 15.71 M27.95 15.71 C27.12 20.71, 27.58 21.76, 22.71 20.95 M27.95 15.71 C27.94 19.05, 25.17 22.55, 22.71 20.95 M22.71 20.95 C16.92 19.42, 7.59 19.74, 5.24 20.95 M22.71 20.95 C17.98 21.9, 12.77 20.97, 5.24 20.95 M5.24 20.95 C3.38 20.87, -1.6 19.65, 0 15.71 M5.24 20.95 C1.58 20.56, 0.62 20.03, 0 15.71 M0 15.71 C0.66 13.12, -0.05 11.34, 0 5.24 M0 15.71 C-0.27 13.48, -0.31 10.86, 0 5.24 M0 5.24 C-1.02 1.42, 0.78 -1.04, 5.24 0 M0 5.24 C-1 3.8, 3.86 -0.96, 5.24 0" stroke="#1e1e1e" stroke-width="2" fill="none"></path></g><g stroke-linecap="round" transform="translate(30.14076450892844 38.31904423701235) rotate(0 25.4296875 23.859375)"><path d="M24.87 -0.55 C29.95 -0.97, 36.04 2.42, 40.37 5.65 C44.7 8.88, 49.63 13.82, 50.86 18.84 C52.1 23.85, 50.53 31.2, 47.78 35.74 C45.02 40.28, 39.21 44.35, 34.31 46.07 C29.42 47.79, 23.4 47.76, 18.39 46.07 C13.39 44.39, 7.31 40.29, 4.29 35.96 C1.28 31.62, -0.34 25.1, 0.31 20.05 C0.97 15.01, 3.81 9.07, 8.23 5.67 C12.65 2.26, 23.05 0.28, 26.84 -0.37 C30.63 -1.01, 30.99 1.31, 30.97 1.81 M15.01 1.27 C19.72 -1.25, 28.04 -1.06, 33.25 0.61 C38.47 2.28, 43.31 7.07, 46.3 11.29 C49.28 15.51, 51.52 21.15, 51.15 25.93 C50.79 30.72, 48.26 36.24, 44.11 40 C39.96 43.76, 31.78 47.86, 26.24 48.49 C20.69 49.13, 15.13 47.15, 10.84 43.84 C6.55 40.53, 2.07 33.87, 0.52 28.62 C-1.02 23.38, -0.72 16.83, 1.58 12.35 C3.89 7.87, 12.37 3.35, 14.37 1.72 C16.36 0.09, 13.2 2.08, 13.55 2.57" stroke="none" stroke-width="0" fill="#ffd8a8"></path><path d="M15.22 2.12 C19.91 -0.17, 27.96 -0.94, 33.24 0.58 C38.51 2.11, 44.01 7.05, 46.85 11.27 C49.69 15.5, 50.83 21.05, 50.29 25.92 C49.75 30.78, 47.48 36.69, 43.61 40.47 C39.74 44.26, 32.67 48.03, 27.05 48.63 C21.43 49.23, 14.33 47.18, 9.9 44.07 C5.46 40.96, 1.63 35.14, 0.46 29.97 C-0.71 24.8, 0.1 17.76, 2.89 13.05 C5.68 8.34, 14.2 3.81, 17.18 1.69 C20.16 -0.42, 20.56 -0.06, 20.78 0.34 M20.16 1.53 C25.31 0.47, 34.12 1.39, 38.97 3.7 C43.82 6.01, 47.61 10.54, 49.24 15.4 C50.87 20.26, 50.3 27.82, 48.73 32.86 C47.16 37.9, 44.25 43.05, 39.8 45.63 C35.35 48.22, 27.86 49.6, 22.01 48.38 C16.16 47.15, 8.57 42.36, 4.71 38.29 C0.86 34.23, -1.13 28.8, -1.11 24 C-1.08 19.19, 1.09 13.15, 4.86 9.46 C8.63 5.78, 18.73 3.33, 21.5 1.88 C24.27 0.43, 21.32 0.63, 21.49 0.76" stroke="#1e1e1e" stroke-width="2" fill="none"></path></g></svg>