<svg version="1.1" xmlns="http://www.w3.org/2000/svg" viewBox="0 0 106.7423864216205 127.12357954545405" width="106.7423864216205" height="127.12357954545405">
  <!-- svg-source:excalidraw -->
  
  <defs>
    <style class="style-fonts">
      @font-face {
        font-family: "Virgil";
        src: url("https://excalidraw.com/Virgil.woff2");
      }
      @font-face {
        font-family: "Cascadia";
        src: url("https://excalidraw.com/Cascadia.woff2");
      }
      @font-face {
        font-family: "Assistant";
        src: url("https://excalidraw.com/Assistant-Regular.woff2");
      }
    </style>
    
  </defs>
  <g stroke-linecap="round" transform="translate(11.480667671620495 24.534665854976993) rotate(0 42.630859375 38.322265625)"><path d="M19.16 0 C31.6 0.22, 44.17 2.4, 66.1 0 C77.04 3.23, 87.83 4.91, 85.26 19.16 C85.76 28.01, 84.62 39.51, 85.26 57.48 C87.87 70.74, 81.95 76.65, 66.1 76.64 C56.12 76.29, 42.47 77.14, 19.16 76.64 C5.56 73.84, 1.61 67.92, 0 57.48 C-2.99 47.47, -3.08 32.86, 0 19.16 C-0.05 3.37, 3.07 3.45, 19.16 0" stroke="none" stroke-width="0" fill="#228be6"></path><path d="M19.16 0 C39.11 -2.09, 55 -1.72, 66.1 0 M19.16 0 C33.46 0.74, 47.21 -0.31, 66.1 0 M66.1 0 C80.51 -0.08, 83.66 6.83, 85.26 19.16 M66.1 0 C78.71 -0.39, 85.88 7.22, 85.26 19.16 M85.26 19.16 C86.13 28.44, 84.76 39.27, 85.26 57.48 M85.26 19.16 C84.81 28.51, 84.73 37.1, 85.26 57.48 M85.26 57.48 C84.24 69.94, 77.91 75.61, 66.1 76.64 M85.26 57.48 C84.26 72.31, 80.99 75.68, 66.1 76.64 M66.1 76.64 C52.63 77.07, 35.19 78.29, 19.16 76.64 M66.1 76.64 C52.96 76.93, 39.79 76.46, 19.16 76.64 M19.16 76.64 C4.6 77.79, 0.07 70.89, 0 57.48 M19.16 76.64 C5.89 74.58, -1.27 68.16, 0 57.48 M0 57.48 C0.03 47.84, 0.52 35.78, 0 19.16 M0 57.48 C-0.51 44.63, -0.4 31.6, 0 19.16 M0 19.16 C-0.8 5.47, 6.58 0.02, 19.16 0 M0 19.16 C-0.13 7.66, 8.27 -0.68, 19.16 0" stroke="#1e1e1e" stroke-width="2" fill="none"></path></g><g stroke-linecap="round" transform="translate(35.34966033260548 102.14701704545405) rotate(0 19.283203125 7.48828125)"><path d="M3.74 0 C15.82 1.84, 22.59 2.29, 34.82 0 C39.17 -1.07, 36.86 1.01, 38.57 3.74 C38.43 6.26, 39.29 7.62, 38.57 11.23 C40.79 13.73, 36.23 16.09, 34.82 14.98 C27.16 15.57, 18.04 12.95, 3.74 14.98 C2.41 13.29, 0.35 12.42, 0 11.23 C-0.84 9.48, 0.08 7.23, 0 3.74 C-2.39 3.74, 1.68 0.92, 3.74 0" stroke="none" stroke-width="0" fill="#868e96"></path><path d="M3.74 0 C13.94 -0.6, 25.51 -0.48, 34.82 0 M3.74 0 C14.87 -0.19, 25.99 -0.17, 34.82 0 M34.82 0 C36.52 0.22, 38.49 1.08, 38.57 3.74 M34.82 0 C37.63 0.41, 37.92 0.45, 38.57 3.74 M38.57 3.74 C38.54 6.71, 38.34 9.19, 38.57 11.23 M38.57 3.74 C38.44 6.6, 38.45 9.4, 38.57 11.23 M38.57 11.23 C38.09 13.21, 36.88 15.87, 34.82 14.98 M38.57 11.23 C39.62 13.25, 37.5 13.98, 34.82 14.98 M34.82 14.98 C24.35 15.79, 14.99 15, 3.74 14.98 M34.82 14.98 C23.54 14.71, 11.32 15.26, 3.74 14.98 M3.74 14.98 C1.28 15.29, -0.22 12.83, 0 11.23 M3.74 14.98 C0.61 13.93, -0.29 13.35, 0 11.23 M0 11.23 C0.08 9.57, 0.12 8.26, 0 3.74 M0 11.23 C-0.04 9.39, -0.06 7.64, 0 3.74 M0 3.74 C0.1 1.26, 1.19 0.55, 3.74 0 M0 3.74 C0.94 0.91, 0.52 -0.71, 3.74 0" stroke="#1e1e1e" stroke-width="2" fill="none"></path></g><g stroke-linecap="round" transform="translate(35.53553272843851 10) rotate(0 19.283203125 7.48828125)"><path d="M3.74 0 C12.11 2.04, 24.98 -1.36, 34.82 0 C35.62 -0.23, 37.26 1.65, 38.57 3.74 C39.26 6.09, 39.38 8.18, 38.57 11.23 C37.48 14.84, 36.29 16.52, 34.82 14.98 C24.92 13.05, 17.37 13.38, 3.74 14.98 C1.6 13.67, -2.26 11.32, 0 11.23 C0.08 7.75, -0.8 6.84, 0 3.74 C0.43 2.17, 3.28 1.7, 3.74 0" stroke="none" stroke-width="0" fill="#868e96"></path><path d="M3.74 0 C10.14 -0.51, 17.16 0.59, 34.82 0 M3.74 0 C16.53 -0.01, 28.11 0.12, 34.82 0 M34.82 0 C37.25 -0.17, 38.84 1.61, 38.57 3.74 M34.82 0 C36.67 -0.79, 39.27 1.9, 38.57 3.74 M38.57 3.74 C38.31 6, 38.86 8, 38.57 11.23 M38.57 3.74 C38.45 6.27, 38.46 8.76, 38.57 11.23 M38.57 11.23 C38.13 14.62, 38.24 14.56, 34.82 14.98 M38.57 11.23 C38.75 12.73, 37.51 15.76, 34.82 14.98 M34.82 14.98 C24.81 15.1, 15.8 15.36, 3.74 14.98 M34.82 14.98 C25.21 15.18, 16.5 15.05, 3.74 14.98 M3.74 14.98 C1.03 14.08, -0.55 12.82, 0 11.23 M3.74 14.98 C0.96 14.6, -1.08 13.67, 0 11.23 M0 11.23 C0.11 8.76, -0.25 5.93, 0 3.74 M0 11.23 C-0.06 9, 0.03 6.94, 0 3.74 M0 3.74 C-0.06 1.8, 2.07 -0.29, 3.74 0 M0 3.74 C-0.72 0.54, 1.53 0.42, 3.74 0" stroke="#343a40" stroke-width="2" fill="none"></path></g><g stroke-linecap="round" transform="translate(13.186373760761398 77.62702718601577) rotate(312.47556431009303 13.974609375 10.47265625)"><path d="M5.24 0 C13.99 -1.57, 16.2 -0.56, 22.71 0 C24.4 0.56, 27.81 1.17, 27.95 5.24 C29.69 9.07, 27.3 13.71, 27.95 15.71 C26.53 21.33, 26.19 21.55, 22.71 20.95 C18.48 18.66, 11.85 19.12, 5.24 20.95 C-1.39 17.61, 2 15.77, 0 15.71 C-1.73 14.55, 0.32 10.44, 0 5.24 C2.81 4.09, 2.36 -0.74, 5.24 0" stroke="none" stroke-width="0" fill="#ffd8a8"></path><path d="M5.24 0 C10.08 0.94, 14.86 0.82, 22.71 0 M5.24 0 C9.65 0.2, 15.41 -0.14, 22.71 0 M22.71 0 C26.75 0.72, 26.83 0.36, 27.95 5.24 M22.71 0 C27.61 1.3, 27.87 1.47, 27.95 5.24 M27.95 5.24 C28.71 8.61, 28.31 12.4, 27.95 15.71 M27.95 5.24 C27.64 8.18, 27.67 12.13, 27.95 15.71 M27.95 15.71 C29.79 18.36, 26.52 19.21, 22.71 20.95 M27.95 15.71 C28.34 20.77, 26.6 19.51, 22.71 20.95 M22.71 20.95 C17.34 21.41, 9.41 21.82, 5.24 20.95 M22.71 20.95 C18.4 21.32, 13.84 20.26, 5.24 20.95 M5.24 20.95 C0.64 19.12, -0.5 18.55, 0 15.71 M5.24 20.95 C-0.42 20.84, 1.02 19.65, 0 15.71 M0 15.71 C-0.72 12.48, -0.17 9.8, 0 5.24 M0 15.71 C0.09 13.05, 0.01 10.67, 0 5.24 M0 5.24 C1.64 1.16, 0.49 -1.24, 5.24 0 M0 5.24 C0.56 2.59, 2.02 1.76, 5.24 0" stroke="#1e1e1e" stroke-width="2" fill="none"></path></g><g stroke-linecap="round" transform="translate(28.105044809020455 37.022564965653146) rotate(312.47556431009303 25.4296875 23.859375)"><path d="M14.1 2.27 C18.63 -0.23, 26.32 -0.23, 31.49 0.91 C36.66 2.05, 41.89 5.13, 45.09 9.12 C48.29 13.11, 50.95 19.74, 50.69 24.84 C50.43 29.95, 47.33 35.95, 43.56 39.75 C39.78 43.55, 33.38 46.96, 28.05 47.64 C22.72 48.31, 15.97 46.47, 11.57 43.8 C7.17 41.13, 3.3 36.62, 1.66 31.63 C0.02 26.65, -0.58 18.84, 1.74 13.89 C4.05 8.93, 12.65 3.96, 15.53 1.89 C18.4 -0.17, 18.59 1.04, 18.98 1.49 M18.41 -0.21 C23.09 -2.03, 31.14 -0.79, 36.21 1.56 C41.27 3.9, 46.54 8.93, 48.79 13.87 C51.04 18.81, 51.01 26.22, 49.7 31.19 C48.4 36.16, 45.18 40.96, 40.95 43.7 C36.72 46.44, 30.02 48.02, 24.31 47.61 C18.6 47.21, 10.83 44.74, 6.69 41.25 C2.55 37.76, -0.18 31.82, -0.51 26.66 C-0.84 21.5, 1.38 14.66, 4.7 10.29 C8.01 5.91, 17.15 1.82, 19.37 0.43 C21.58 -0.97, 18.1 1.43, 17.98 1.9" stroke="none" stroke-width="0" fill="#ffd8a8"></path><path d="M30.51 -0.31 C35.7 0.22, 42.23 4.79, 45.59 8.97 C48.95 13.16, 50.81 19.78, 50.68 24.81 C50.55 29.83, 48.51 35.27, 44.8 39.15 C41.09 43.02, 33.8 47.24, 28.44 48.08 C23.09 48.91, 17.21 46.81, 12.66 44.14 C8.12 41.48, 3.1 36.92, 1.18 32.09 C-0.75 27.26, -1.04 20.12, 1.12 15.17 C3.28 10.22, 8 4.53, 14.14 2.38 C20.27 0.24, 33.09 1.55, 37.92 2.29 C42.76 3.04, 43.45 6.48, 43.15 6.84 M20.3 0.17 C25.37 -1.81, 31.74 -1.48, 36.49 0.97 C41.23 3.41, 46.47 10.16, 48.76 14.86 C51.05 19.56, 51.51 24.44, 50.23 29.17 C48.96 33.9, 45.64 39.98, 41.12 43.23 C36.61 46.48, 28.69 49.12, 23.13 48.69 C17.58 48.25, 11.51 44.54, 7.79 40.6 C4.08 36.67, 1.59 30.03, 0.84 25.09 C0.09 20.15, 0.28 14.95, 3.31 10.98 C6.33 7.01, 16.41 3.11, 18.98 1.27 C21.55 -0.58, 18.77 -0.17, 18.73 -0.09" stroke="#1e1e1e" stroke-width="2" fill="none"></path></g></svg>