<svg version="1.1" xmlns="http://www.w3.org/2000/svg" viewBox="0 0 108.08725249304916 127.12357954545405" width="108.08725249304916" height="127.12357954545405">
  <!-- svg-source:excalidraw -->
  
  <defs>
    <style class="style-fonts">
      @font-face {
        font-family: "Virgil";
        src: url("https://excalidraw.com/Virgil.woff2");
      }
      @font-face {
        font-family: "Cascadia";
        src: url("https://excalidraw.com/Cascadia.woff2");
      }
      @font-face {
        font-family: "Assistant";
        src: url("https://excalidraw.com/Assistant-Regular.woff2");
      }
    </style>
    
  </defs>
  <g stroke-linecap="round" transform="translate(12.825533743049164 24.53466585497881) rotate(0 42.630859375 38.322265625)"><path d="M19.16 0 C29.53 -1.53, 39.64 0.69, 66.1 0 C76.5 -1.44, 84.78 5.36, 85.26 19.16 C85.33 28.94, 84.78 40.65, 85.26 57.48 C88.21 69.2, 76.61 74.42, 66.1 76.64 C53.63 79.35, 33.8 79.97, 19.16 76.64 C8.96 75.17, -2.36 69.93, 0 57.48 C-0.69 50.28, 2.5 38.81, 0 19.16 C3.07 6.39, 4.88 1.54, 19.16 0" stroke="none" stroke-width="0" fill="#228be6"></path><path d="M19.16 0 C33.28 1.33, 49.75 -0.96, 66.1 0 M19.16 0 C33.74 0.08, 47.47 0.93, 66.1 0 M66.1 0 C80.25 0.82, 85.26 6.26, 85.26 19.16 M66.1 0 C77.84 1.6, 87.49 8.26, 85.26 19.16 M85.26 19.16 C84.08 31.13, 85.4 44.81, 85.26 57.48 M85.26 19.16 C85.85 32.55, 86.26 46.05, 85.26 57.48 M85.26 57.48 C83.66 70.7, 78.73 76.31, 66.1 76.64 M85.26 57.48 C85.88 71.09, 77.59 75.05, 66.1 76.64 M66.1 76.64 C48.91 78.04, 30.86 76.83, 19.16 76.64 M66.1 76.64 C47.72 76.91, 29.96 76.68, 19.16 76.64 M19.16 76.64 C5.43 75.61, -0.87 72.05, 0 57.48 M19.16 76.64 C8.5 75.68, 0.37 68.26, 0 57.48 M0 57.48 C-1.51 46.91, -0.55 33.2, 0 19.16 M0 57.48 C0.4 42.75, -0.99 29.63, 0 19.16 M0 19.16 C0.07 7.02, 5.95 -1.8, 19.16 0 M0 19.16 C-1.27 4.29, 5.81 -0.75, 19.16 0" stroke="#1e1e1e" stroke-width="2" fill="none"></path></g><g stroke-linecap="round" transform="translate(36.694526404033695 102.14701704545405) rotate(0 19.283203125 7.48828125)"><path d="M3.74 0 C15.27 0.9, 23.43 -0.91, 34.82 0 C36.97 -0.74, 37.38 0.21, 38.57 3.74 C38.52 6.19, 39.37 7.26, 38.57 11.23 C36.93 12.12, 37.96 15.93, 34.82 14.98 C23.81 17.6, 17.3 14.2, 3.74 14.98 C-0.45 14.74, -1.3 14.13, 0 11.23 C0.72 9.15, 0.85 6.8, 0 3.74 C-1.09 2.36, 0.22 1.54, 3.74 0" stroke="none" stroke-width="0" fill="#868e96"></path><path d="M3.74 0 C11.83 -0.68, 19.56 0.55, 34.82 0 M3.74 0 C11.72 0.39, 20.45 0.22, 34.82 0 M34.82 0 C37.32 -0.06, 38.12 1.94, 38.57 3.74 M34.82 0 C38.43 0.94, 39.15 2, 38.57 3.74 M38.57 3.74 C38.52 5.06, 38.73 7.03, 38.57 11.23 M38.57 3.74 C38.73 6.72, 38.43 9.75, 38.57 11.23 M38.57 11.23 C38.49 13.56, 37.59 15.34, 34.82 14.98 M38.57 11.23 C37.92 12.93, 38.02 15.63, 34.82 14.98 M34.82 14.98 C24.94 15.19, 17.19 14.6, 3.74 14.98 M34.82 14.98 C23.95 14.91, 13.36 14.73, 3.74 14.98 M3.74 14.98 C0.81 15.87, 0.92 13.31, 0 11.23 M3.74 14.98 C1.43 13.98, 0.19 14.51, 0 11.23 M0 11.23 C-0.03 8.85, 0.29 6.58, 0 3.74 M0 11.23 C-0.19 9.13, -0.01 6.87, 0 3.74 M0 3.74 C-0.22 0.35, 0.7 -0.91, 3.74 0 M0 3.74 C-0.29 0.87, 0.17 -0.05, 3.74 0" stroke="#1e1e1e" stroke-width="2" fill="none"></path></g><g stroke-linecap="round" transform="translate(36.88039879986718 10) rotate(0 19.283203125 7.48828125)"><path d="M3.74 0 C10.36 -1.16, 20.05 -0.86, 34.82 0 C36.13 -1.04, 37.37 1.5, 38.57 3.74 C39.36 5.71, 37.95 7.65, 38.57 11.23 C39.2 14.68, 37.62 16.97, 34.82 14.98 C25.1 14.27, 9.97 15.11, 3.74 14.98 C-0.05 15.38, -0.1 13.31, 0 11.23 C0.76 8.49, -0.48 6.17, 0 3.74 C-1.03 2.79, 1.24 0.43, 3.74 0" stroke="none" stroke-width="0" fill="#868e96"></path><path d="M3.74 0 C14.85 0.73, 25.48 0.31, 34.82 0 M3.74 0 C13.12 0.09, 21.8 -0.15, 34.82 0 M34.82 0 C36.87 0.7, 39.54 2.06, 38.57 3.74 M34.82 0 C37.9 0.75, 37.5 0.43, 38.57 3.74 M38.57 3.74 C38.76 5.61, 38.93 7.28, 38.57 11.23 M38.57 3.74 C38.45 5.98, 38.58 8.1, 38.57 11.23 M38.57 11.23 C38.84 14.09, 36.76 14.29, 34.82 14.98 M38.57 11.23 C39.27 14.38, 37.28 14.84, 34.82 14.98 M34.82 14.98 C24.11 14.51, 12.21 14.42, 3.74 14.98 M34.82 14.98 C25.04 14.69, 15.53 15.4, 3.74 14.98 M3.74 14.98 C2.17 14.56, 0.16 12.86, 0 11.23 M3.74 14.98 C1.44 15.76, 0.2 13.01, 0 11.23 M0 11.23 C0.27 8.5, -0.01 5.76, 0 3.74 M0 11.23 C0.04 9.43, -0.01 7.34, 0 3.74 M0 3.74 C-0.55 0.34, 1 -0.33, 3.74 0 M0 3.74 C-1.08 1.19, 1.76 0.23, 3.74 0" stroke="#343a40" stroke-width="2" fill="none"></path></g><g stroke-linecap="round" transform="translate(13.186373760761398 24.156708609438283) rotate(47.524435689906944 13.974609375 10.47265625)"><path d="M5.24 0 C10.57 -0.77, 15.32 -1.13, 22.71 0 C24.55 0.34, 27.98 1.54, 27.95 5.24 C26.92 7.79, 28.57 13.37, 27.95 15.71 C28.37 21.96, 28.81 19.11, 22.71 20.95 C13.84 20.53, 7.51 21.31, 5.24 20.95 C1.61 20.37, 2.38 21.81, 0 15.71 C-0.95 13.23, -0.91 10.26, 0 5.24 C-0.02 2.35, 2.57 -0.82, 5.24 0" stroke="none" stroke-width="0" fill="#ffd8a8"></path><path d="M5.24 0 C8.81 0.26, 13.5 -0.84, 22.71 0 M5.24 0 C11.79 -0.13, 17.96 0.54, 22.71 0 M22.71 0 C28.14 1.63, 28.97 3.06, 27.95 5.24 M22.71 0 C24.08 -1.64, 26.25 1.62, 27.95 5.24 M27.95 5.24 C29.03 8.15, 27.93 11.06, 27.95 15.71 M27.95 5.24 C27.83 8.25, 28.01 11.63, 27.95 15.71 M27.95 15.71 C26.83 17.82, 27.43 22.08, 22.71 20.95 M27.95 15.71 C27.87 18.92, 27.82 19.41, 22.71 20.95 M22.71 20.95 C18.02 19.86, 12 19.97, 5.24 20.95 M22.71 20.95 C17.37 21.64, 13.59 20.49, 5.24 20.95 M5.24 20.95 C2.06 19.21, 0.34 20.56, 0 15.71 M5.24 20.95 C2.15 19.51, 1.8 18.87, 0 15.71 M0 15.71 C-0.13 13.09, -0.62 8.5, 0 5.24 M0 15.71 C-0.12 11.5, -0.29 7.75, 0 5.24 M0 5.24 C-0.5 1.09, -0.14 -0.1, 5.24 0 M0 5.24 C1.02 2.2, 1.01 0.73, 5.24 0" stroke="#1e1e1e" stroke-width="2" fill="none"></path></g><g stroke-linecap="round" transform="translate(28.10504480902 38.92300118694402) rotate(47.524435689906944 25.4296875 23.859375)"><path d="M27.5 0.09 C32.9 0.12, 40.25 3.55, 44.12 7.25 C47.99 10.95, 50.44 17.38, 50.71 22.28 C50.98 27.18, 48.77 32.54, 45.75 36.65 C42.73 40.76, 37.71 45.5, 32.59 46.94 C27.46 48.38, 20.19 47.53, 15 45.27 C9.82 43.01, 3.99 38.03, 1.49 33.39 C-1.02 28.75, -1.55 22.44, -0.04 17.44 C1.46 12.43, 4.97 6.02, 10.51 3.38 C16.06 0.74, 28.56 1.59, 33.21 1.6 C37.86 1.62, 38.47 3.11, 38.41 3.46 M16.77 0.6 C21.56 -1.34, 28.81 -1.05, 33.99 0.91 C39.17 2.87, 45.12 7.62, 47.84 12.34 C50.56 17.07, 51.16 24.35, 50.3 29.29 C49.43 34.23, 47.01 39.07, 42.62 41.99 C38.24 44.9, 29.59 46.72, 23.99 46.79 C18.4 46.85, 13 45.4, 9.08 42.39 C5.16 39.37, 1.2 33.97, 0.48 28.7 C-0.24 23.43, 1.73 15.16, 4.74 10.77 C7.75 6.38, 16.54 4.03, 18.54 2.36 C20.54 0.69, 16.85 0.68, 16.74 0.76" stroke="none" stroke-width="0" fill="#ffd8a8"></path><path d="M20.58 0.51 C25.44 -0.98, 32.48 -0.21, 37.33 2.36 C42.19 4.92, 47.53 11.02, 49.72 15.92 C51.9 20.82, 52.12 27.23, 50.42 31.77 C48.72 36.31, 44.41 40.69, 39.53 43.18 C34.66 45.68, 26.66 47.41, 21.15 46.74 C15.63 46.07, 9.89 42.78, 6.46 39.18 C3.02 35.58, 0.54 30.08, 0.53 25.14 C0.52 20.2, 2.55 13.6, 6.39 9.55 C10.24 5.51, 20.16 2.51, 23.62 0.87 C27.09 -0.76, 27.1 -0.51, 27.18 -0.26 M22.44 -0.95 C27.65 -1.61, 36.4 2.11, 40.99 5.2 C45.57 8.29, 48.54 12.93, 49.96 17.56 C51.38 22.2, 51.79 28.14, 49.51 33 C47.22 37.85, 41.51 44.28, 36.27 46.7 C31.03 49.12, 23.48 49.03, 18.05 47.51 C12.63 45.99, 6.83 41.94, 3.71 37.6 C0.59 33.26, -1.17 26.72, -0.66 21.48 C-0.15 16.24, 2.89 9.51, 6.77 6.17 C10.66 2.83, 19.64 2.47, 22.63 1.43 C25.62 0.39, 24.52 -0.02, 24.7 -0.07" stroke="#1e1e1e" stroke-width="2" fill="none"></path></g></svg>