<svg version="1.1" xmlns="http://www.w3.org/2000/svg" viewBox="0 0 105.26171875 129.23744184244242" width="105.26171875" height="129.23744184244242">
  <!-- svg-source:excalidraw -->
  
  <defs>
    <style class="style-fonts">
      @font-face {
        font-family: "Virgil";
        src: url("https://excalidraw.com/Virgil.woff2");
      }
      @font-face {
        font-family: "Cascadia";
        src: url("https://excalidraw.com/Cascadia.woff2");
      }
      @font-face {
        font-family: "Assistant";
        src: url("https://excalidraw.com/Assistant-Regular.woff2");
      }
    </style>
    
  </defs>
  <g stroke-linecap="round" transform="translate(10 26.9666085091103) rotate(0 42.630859375 38.322265625)"><path d="M19.16 0 C30.2 -0.81, 35.72 -2.02, 66.1 0 C75.6 -0.91, 84.09 3, 85.26 19.16 C84.41 31.62, 86.63 39.42, 85.26 57.48 C83.82 69.77, 77.85 75, 66.1 76.64 C53.93 76.52, 43.68 79.67, 19.16 76.64 C5.33 74.38, -2.22 71.14, 0 57.48 C2.53 42.75, 3.15 34.26, 0 19.16 C-1.48 4.03, 6.06 -1.8, 19.16 0" stroke="none" stroke-width="0" fill="#228be6"></path><path d="M19.16 0 C38.13 -0.78, 54.84 2.1, 66.1 0 M19.16 0 C30.18 0.53, 40.3 -0.33, 66.1 0 M66.1 0 C79.99 0.41, 84.08 6.51, 85.26 19.16 M66.1 0 C80.34 -0.85, 85.76 6.17, 85.26 19.16 M85.26 19.16 C86.37 29.06, 85.42 38.06, 85.26 57.48 M85.26 19.16 C86.14 33.98, 84.71 46.78, 85.26 57.48 M85.26 57.48 C83.78 70.15, 77.62 77.67, 66.1 76.64 M85.26 57.48 C86.35 72.52, 79.81 76.48, 66.1 76.64 M66.1 76.64 C48.63 76.13, 29.94 76.81, 19.16 76.64 M66.1 76.64 C50.94 76.89, 34.52 76.2, 19.16 76.64 M19.16 76.64 C7.8 75.31, 0.2 71.85, 0 57.48 M19.16 76.64 C5.27 77.6, -1.31 70.42, 0 57.48 M0 57.48 C-0.97 47.07, 1.85 40.24, 0 19.16 M0 57.48 C0.11 48.27, 0.11 37.07, 0 19.16 M0 19.16 C1.56 6.1, 6.38 1.42, 19.16 0 M0 19.16 C0.61 6.27, 7.53 -1.19, 19.16 0" stroke="#1e1e1e" stroke-width="2" fill="none"></path></g><g stroke-linecap="round" transform="translate(33.86899266098453 104.26087934244242) rotate(0 19.283203125 7.48828125)"><path d="M3.74 0 C10.84 -1.35, 20.25 -0.57, 34.82 0 C36.47 -2.45, 38.44 2.4, 38.57 3.74 C38.82 5.5, 38.15 8.4, 38.57 11.23 C37.82 12.54, 36.28 13.78, 34.82 14.98 C26.64 17.08, 14.81 13.32, 3.74 14.98 C-0.36 15.61, 0.95 14.03, 0 11.23 C0.8 9.11, -0.47 4.96, 0 3.74 C-0.23 -0.05, 1.65 -0.1, 3.74 0" stroke="none" stroke-width="0" fill="#868e96"></path><path d="M3.74 0 C11.82 1.05, 19.78 0.91, 34.82 0 M3.74 0 C11.82 -0.3, 20.63 0.05, 34.82 0 M34.82 0 C36.73 0.06, 39.2 0.88, 38.57 3.74 M34.82 0 C37.57 -0.11, 38.09 2.11, 38.57 3.74 M38.57 3.74 C38.56 6.34, 38.84 9.63, 38.57 11.23 M38.57 3.74 C38.41 6.47, 38.45 9.45, 38.57 11.23 M38.57 11.23 C37.94 14.24, 37.79 15.96, 34.82 14.98 M38.57 11.23 C39.03 13.65, 38.26 14.93, 34.82 14.98 M34.82 14.98 C27.81 15.24, 21.5 14.4, 3.74 14.98 M34.82 14.98 C27.63 15, 20.82 14.73, 3.74 14.98 M3.74 14.98 C1.35 15.77, -0.49 14.14, 0 11.23 M3.74 14.98 C0.59 15.06, -0.59 13.54, 0 11.23 M0 11.23 C0.35 9.69, -0.14 7.52, 0 3.74 M0 11.23 C0.03 9.52, 0.14 8.01, 0 3.74 M0 3.74 C0 1.96, 1.51 -0.05, 3.74 0 M0 3.74 C0.57 0.65, 0.22 0.66, 3.74 0" stroke="#1e1e1e" stroke-width="2" fill="none"></path></g><g stroke-linecap="round" transform="translate(34.05486505681802 12.113862296986554) rotate(0 19.283203125 7.48828125)"><path d="M3.74 0 C10.03 -0.43, 20.2 -2.22, 34.82 0 C37.19 1.15, 39.08 0.41, 38.57 3.74 C38.21 6.1, 38.32 8.27, 38.57 11.23 C37.53 12.54, 37.57 15, 34.82 14.98 C24.91 13.67, 14.93 15.94, 3.74 14.98 C2.2 15.28, 1.99 15.61, 0 11.23 C-0.49 8.73, -0.17 7.01, 0 3.74 C0.4 1.15, 0.83 1.72, 3.74 0" stroke="none" stroke-width="0" fill="#868e96"></path><path d="M3.74 0 C10.94 0.68, 19.2 0.06, 34.82 0 M3.74 0 C14.51 0.18, 24.43 0.11, 34.82 0 M34.82 0 C37.96 -0.37, 38.78 1.15, 38.57 3.74 M34.82 0 C36.84 0.87, 39.36 1.72, 38.57 3.74 M38.57 3.74 C38.82 6.35, 38.87 8.42, 38.57 11.23 M38.57 3.74 C38.39 6.47, 38.41 9.32, 38.57 11.23 M38.57 11.23 C39.04 14.71, 37.72 14.9, 34.82 14.98 M38.57 11.23 C39.51 13.68, 36.4 15.23, 34.82 14.98 M34.82 14.98 C26.08 14.46, 15.93 15.63, 3.74 14.98 M34.82 14.98 C24.09 14.62, 12.71 15.36, 3.74 14.98 M3.74 14.98 C0.76 15.39, -0.57 13.8, 0 11.23 M3.74 14.98 C0.66 14.79, -0.55 13.13, 0 11.23 M0 11.23 C-0.19 9.37, -0.36 7.45, 0 3.74 M0 11.23 C0.14 8.45, -0.01 5.85, 0 3.74 M0 3.74 C0.27 1.2, 1.75 -0.52, 3.74 0 M0 3.74 C-1.02 1.91, 1.29 0.36, 3.74 0" stroke="#343a40" stroke-width="2" fill="none"></path></g><g stroke-linecap="round" transform="translate(39.397448168828305 13.62604069808549) rotate(269.315648468081 13.974609375 10.47265625)"><path d="M5.24 0 C8.49 -2.88, 13.64 1.47, 22.71 0 C26.91 -1.16, 29.09 2.81, 27.95 5.24 C27.34 6.83, 27.12 9.27, 27.95 15.71 C28.29 19.23, 25.99 22.94, 22.71 20.95 C14.1 21.52, 10.52 21.12, 5.24 20.95 C4.5 23.55, -1.83 22.43, 0 15.71 C-0.09 10.88, 0.37 7.86, 0 5.24 C-0.58 4.12, 4.35 0.48, 5.24 0" stroke="none" stroke-width="0" fill="#ffd8a8"></path><path d="M5.24 0 C11.61 0.23, 19.79 -0.96, 22.71 0 M5.24 0 C9.11 0.02, 14.58 -0.36, 22.71 0 M22.71 0 C26.63 -0.19, 27.12 3.25, 27.95 5.24 M22.71 0 C27.78 0.94, 27.94 1.6, 27.95 5.24 M27.95 5.24 C28.88 8.44, 28.71 9.61, 27.95 15.71 M27.95 5.24 C27.54 7.9, 28.12 10.54, 27.95 15.71 M27.95 15.71 C28.76 19.06, 27.84 20.87, 22.71 20.95 M27.95 15.71 C26.11 19.71, 26.04 20.56, 22.71 20.95 M22.71 20.95 C15.79 21.92, 12.27 20.79, 5.24 20.95 M22.71 20.95 C17.77 21.52, 12.22 21.19, 5.24 20.95 M5.24 20.95 C0.61 21.08, -1.02 18.88, 0 15.71 M5.24 20.95 C0.64 19.75, -1 21.26, 0 15.71 M0 15.71 C-0.86 11.78, 0.76 7.68, 0 5.24 M0 15.71 C-0.08 13.59, 0.06 10.71, 0 5.24 M0 5.24 C1 0.71, -0.04 1.15, 5.24 0 M0 5.24 C0.08 2.47, 1.25 -2.07, 5.24 0" stroke="#1e1e1e" stroke-width="2" fill="none"></path></g><g stroke-linecap="round" transform="translate(27.939453125 38.7404721324001) rotate(269.315648468081 25.4296875 23.859375)"><path d="M20.27 1.61 C25.24 0.25, 31.66 0.48, 36.25 2.62 C40.85 4.75, 45.46 9.73, 47.84 14.41 C50.21 19.09, 52.01 25.69, 50.53 30.7 C49.04 35.72, 43.61 41.66, 38.94 44.48 C34.27 47.29, 27.72 48.22, 22.52 47.57 C17.33 46.93, 11.53 44.24, 7.77 40.63 C4.02 37.02, 0.57 31.22, 0 25.92 C-0.56 20.63, 0.66 13.14, 4.4 8.86 C8.14 4.59, 19.07 1.7, 22.46 0.27 C25.85 -1.16, 24.95 -0.02, 24.76 0.28 M12.84 2.36 C17.52 0.08, 26.77 -0.33, 32.21 1 C37.66 2.32, 42.33 6.37, 45.5 10.29 C48.67 14.2, 51.64 19.52, 51.24 24.5 C50.85 29.49, 47.07 36.48, 43.15 40.21 C39.22 43.94, 33.11 46.44, 27.69 46.9 C22.27 47.36, 15.06 45.71, 10.64 42.97 C6.21 40.23, 2.56 35.14, 1.14 30.48 C-0.29 25.82, -0.29 19.76, 2.1 15.02 C4.49 10.27, 13.57 4.17, 15.48 1.99 C17.38 -0.19, 13.49 1.41, 13.53 1.93" stroke="none" stroke-width="0" fill="#ffd8a8"></path><path d="M19.77 0.05 C24.83 -1.35, 32.13 0.75, 36.9 3.18 C41.68 5.61, 46.28 10.11, 48.41 14.63 C50.55 19.14, 51.07 25.31, 49.7 30.29 C48.32 35.26, 44.62 41.6, 40.15 44.48 C35.69 47.36, 28.43 48.34, 22.88 47.55 C17.34 46.77, 10.56 43.34, 6.87 39.78 C3.18 36.22, 0.91 31.16, 0.74 26.21 C0.57 21.27, 1.79 14.64, 5.85 10.12 C9.91 5.6, 21.32 0.78, 25.11 -0.91 C28.9 -2.59, 28.69 -0.43, 28.59 0.02 M32.5 0.67 C37.67 1.36, 44.57 5.77, 47.41 10.02 C50.26 14.27, 50.24 21.09, 49.57 26.15 C48.9 31.22, 46.96 36.72, 43.39 40.39 C39.83 44.06, 33.73 47.82, 28.18 48.16 C22.63 48.5, 14.5 45.29, 10.11 42.44 C5.71 39.58, 3.12 35.79, 1.82 31 C0.51 26.21, -0.03 18.66, 2.28 13.7 C4.58 8.75, 10.66 3.24, 15.62 1.28 C20.58 -0.67, 29.47 1.88, 32.04 1.98 C34.61 2.07, 31.31 1.66, 31.03 1.87" stroke="#1e1e1e" stroke-width="2" fill="none"></path></g></svg>