<svg version="1.1" xmlns="http://www.w3.org/2000/svg" viewBox="0 0 106.88189535019183 127.12357954545405" width="106.88189535019183" height="127.12357954545405">
  <!-- svg-source:excalidraw -->
  
  <defs>
    <style class="style-fonts">
      @font-face {
        font-family: "Virgil";
        src: url("https://excalidraw.com/Virgil.woff2");
      }
      @font-face {
        font-family: "Cascadia";
        src: url("https://excalidraw.com/Cascadia.woff2");
      }
      @font-face {
        font-family: "Assistant";
        src: url("https://excalidraw.com/Assistant-Regular.woff2");
      }
    </style>
    
  </defs>
  <g stroke-linecap="round" transform="translate(10 24.852746212123748) rotate(0 42.630859375 38.322265625)"><path d="M19.16 0 C33.54 -0.67, 51.51 0.3, 66.1 0 C78.7 1.8, 83.4 3.18, 85.26 19.16 C84.51 29.62, 83.3 43.28, 85.26 57.48 C84.35 69.08, 75.49 76.47, 66.1 76.64 C51.08 77.44, 31.4 74.93, 19.16 76.64 C5.9 75.62, -1.64 68.82, 0 57.48 C-0.28 49.74, 2.88 36.95, 0 19.16 C-2.27 4.16, 7.27 1.32, 19.16 0" stroke="none" stroke-width="0" fill="#228be6"></path><path d="M19.16 0 C30.48 -0.02, 41.17 0.41, 66.1 0 M19.16 0 C38.47 -0.64, 55.74 0.22, 66.1 0 M66.1 0 C77.95 -0.58, 87.22 4.99, 85.26 19.16 M66.1 0 C80.79 -0.75, 85.75 7.25, 85.26 19.16 M85.26 19.16 C85.49 27.7, 85.2 39.87, 85.26 57.48 M85.26 19.16 C84.93 30, 86.03 39.75, 85.26 57.48 M85.26 57.48 C85.26 70.13, 77.97 78.04, 66.1 76.64 M85.26 57.48 C87.49 72.13, 80.05 78.15, 66.1 76.64 M66.1 76.64 C56.25 75.04, 47.64 77.25, 19.16 76.64 M66.1 76.64 C48.21 76.57, 27.9 76.83, 19.16 76.64 M19.16 76.64 C6.24 76.31, 0.54 70.98, 0 57.48 M19.16 76.64 C5.1 75.05, 1.41 71.56, 0 57.48 M0 57.48 C-1.29 46.32, 1.64 33.79, 0 19.16 M0 57.48 C-0.29 44.24, -0.26 30.79, 0 19.16 M0 19.16 C-0.87 8.18, 8.23 -0.84, 19.16 0 M0 19.16 C0.37 4.39, 6.77 1.57, 19.16 0" stroke="#1e1e1e" stroke-width="2" fill="none"></path></g><g stroke-linecap="round" transform="translate(33.86899266098453 102.14701704545405) rotate(0 19.283203125 7.48828125)"><path d="M3.74 0 C17.34 0.69, 27.12 1.3, 34.82 0 C35.98 -2.32, 40.06 1.34, 38.57 3.74 C38.01 5.34, 38.3 8.39, 38.57 11.23 C36.12 13.6, 38.47 15.49, 34.82 14.98 C24.78 14.06, 17.82 14.35, 3.74 14.98 C0.06 13.94, -1.19 13.98, 0 11.23 C0.8 8.69, -0.61 6.12, 0 3.74 C0.64 2.2, 1.55 1.99, 3.74 0" stroke="none" stroke-width="0" fill="#868e96"></path><path d="M3.74 0 C10.69 0.04, 18.05 -0.28, 34.82 0 M3.74 0 C14.2 0.28, 24.73 -0.08, 34.82 0 M34.82 0 C38.3 -0.7, 39.4 0.92, 38.57 3.74 M34.82 0 C37.56 0.43, 38.03 0.69, 38.57 3.74 M38.57 3.74 C38.6 6.65, 38.44 9.15, 38.57 11.23 M38.57 3.74 C38.68 6, 38.55 8.08, 38.57 11.23 M38.57 11.23 C38.12 14.42, 38.29 15.79, 34.82 14.98 M38.57 11.23 C39.15 14.48, 36.26 14.16, 34.82 14.98 M34.82 14.98 C28.31 15.35, 21.76 15.28, 3.74 14.98 M34.82 14.98 C25.32 15.08, 16.59 14.89, 3.74 14.98 M3.74 14.98 C1.52 15.34, -0.56 13.04, 0 11.23 M3.74 14.98 C1.95 15.63, -0.04 13.59, 0 11.23 M0 11.23 C0.32 8.28, 0.18 5.47, 0 3.74 M0 11.23 C-0.07 8.84, -0.06 6.8, 0 3.74 M0 3.74 C0.92 0.83, 1.41 -0.87, 3.74 0 M0 3.74 C0.19 2.03, 1.45 -0.72, 3.74 0" stroke="#1e1e1e" stroke-width="2" fill="none"></path></g><g stroke-linecap="round" transform="translate(34.05486505681802 10) rotate(0 19.283203125 7.48828125)"><path d="M3.74 0 C12.93 1.19, 21.03 -2.42, 34.82 0 C38.81 0.09, 39.39 0.69, 38.57 3.74 C38.27 5, 37.6 6.85, 38.57 11.23 C39.72 14.24, 36.48 15.8, 34.82 14.98 C24.23 14.07, 13.16 13.78, 3.74 14.98 C0.05 15.22, 0.02 13.58, 0 11.23 C-0.69 7.97, 0.16 6.27, 0 3.74 C0.31 3.24, 3.13 -1.32, 3.74 0" stroke="none" stroke-width="0" fill="#868e96"></path><path d="M3.74 0 C13.35 -0.31, 21.5 0.86, 34.82 0 M3.74 0 C11.47 -0.21, 20.14 -0.41, 34.82 0 M34.82 0 C38.15 -0.33, 38.78 1.62, 38.57 3.74 M34.82 0 C36.78 -0.56, 39.21 1.49, 38.57 3.74 M38.57 3.74 C38.43 5.63, 38.53 7.2, 38.57 11.23 M38.57 3.74 C38.59 6.54, 38.51 9.5, 38.57 11.23 M38.57 11.23 C39.54 14.54, 37.83 15.63, 34.82 14.98 M38.57 11.23 C37.5 12.91, 36.47 14.91, 34.82 14.98 M34.82 14.98 C28.43 15.46, 20 15.87, 3.74 14.98 M34.82 14.98 C25.58 14.93, 16.55 15.19, 3.74 14.98 M3.74 14.98 C0.69 14.29, 0.61 14.29, 0 11.23 M3.74 14.98 C1.21 14.84, 0.81 12.96, 0 11.23 M0 11.23 C0.13 8.7, 0 6.4, 0 3.74 M0 11.23 C-0.06 9.27, 0.19 6.9, 0 3.74 M0 3.74 C0.16 0.38, 1.42 0.68, 3.74 0 M0 3.74 C0.2 0.53, 2.15 -0.17, 3.74 0" stroke="#343a40" stroke-width="2" fill="none"></path></g><g stroke-linecap="round" transform="translate(65.74630283943043 23.860949680867634) rotate(312.47556431009303 13.974609375 10.47265625)"><path d="M5.24 0 C9.32 -2.96, 18.46 -0.04, 22.71 0 C27.34 -0.78, 24.72 -0.24, 27.95 5.24 C26.13 7.34, 28.74 9.98, 27.95 15.71 C26.79 20.34, 27.27 18.57, 22.71 20.95 C16.73 19.6, 12.18 21.16, 5.24 20.95 C1.78 20.74, 2 22.14, 0 15.71 C0.58 13.57, 0.34 11.49, 0 5.24 C2.61 -0.09, 4.98 2.57, 5.24 0" stroke="none" stroke-width="0" fill="#ffd8a8"></path><path d="M5.24 0 C11.21 1.56, 14.97 -0.48, 22.71 0 M5.24 0 C12.06 -0.56, 17.9 -0.24, 22.71 0 M22.71 0 C26.63 0.75, 27.02 0.77, 27.95 5.24 M22.71 0 C27.48 0.48, 26.59 1.88, 27.95 5.24 M27.95 5.24 C27.81 8.61, 28.7 13.58, 27.95 15.71 M27.95 5.24 C27.71 9.17, 28.46 12.8, 27.95 15.71 M27.95 15.71 C28.97 20.51, 24.36 19.52, 22.71 20.95 M27.95 15.71 C26.25 19.07, 24.76 22.13, 22.71 20.95 M22.71 20.95 C16.51 22.44, 10.5 19.62, 5.24 20.95 M22.71 20.95 C17.32 21.23, 10.96 20.31, 5.24 20.95 M5.24 20.95 C2.97 22.08, -0.07 18.96, 0 15.71 M5.24 20.95 C3.37 19.41, 0.23 21.03, 0 15.71 M0 15.71 C0.03 12.54, -0.21 9.94, 0 5.24 M0 15.71 C0.53 12.89, 0.13 10.06, 0 5.24 M0 5.24 C0.34 3.11, 2.09 -1.25, 5.24 0 M0 5.24 C1.8 1.41, 1.74 1.63, 5.24 0" stroke="#1e1e1e" stroke-width="2" fill="none"></path></g><g stroke-linecap="round" transform="translate(27.917475541171825 38.54130475837155) rotate(312.47556431009303 25.4296875 23.859375)"><path d="M35 0.98 C40.15 2.26, 45.32 6.99, 47.91 11.42 C50.5 15.86, 51.59 22.52, 50.53 27.57 C49.47 32.61, 45.84 38.42, 41.55 41.7 C37.27 44.99, 30.11 47.07, 24.83 47.28 C19.56 47.5, 14.06 46.21, 9.92 43.01 C5.77 39.81, 1.18 33.25, -0.05 28.09 C-1.27 22.93, -0.34 16.45, 2.58 12.03 C5.5 7.62, 11.83 3.02, 17.49 1.59 C23.14 0.16, 32.84 2.95, 36.5 3.45 C40.15 3.95, 39.39 4.33, 39.42 4.6 M23.46 0.87 C28.51 0.65, 36.91 2.86, 41.34 5.68 C45.77 8.5, 49.1 13.08, 50.03 17.78 C50.96 22.49, 49.55 29.27, 46.93 33.91 C44.32 38.54, 39.51 43.5, 34.34 45.58 C29.17 47.66, 20.91 47.9, 15.92 46.4 C10.93 44.91, 7.08 40.87, 4.4 36.59 C1.71 32.32, -0.97 26.05, -0.2 20.78 C0.58 15.51, 4.98 8.48, 9.05 4.98 C13.11 1.48, 21.64 0.67, 24.2 -0.19 C26.75 -1.06, 24.37 -0.52, 24.38 -0.2" stroke="none" stroke-width="0" fill="#ffd8a8"></path><path d="M21.25 1.26 C26.13 0.43, 33.25 1.76, 37.9 4.28 C42.56 6.81, 47.24 11.76, 49.17 16.38 C51.11 21.01, 51.51 27.2, 49.51 32.02 C47.52 36.84, 42 42.88, 37.19 45.32 C32.39 47.76, 25.95 47.65, 20.7 46.67 C15.44 45.7, 9.18 43.3, 5.67 39.45 C2.16 35.6, -0.45 28.86, -0.36 23.57 C-0.27 18.29, 1.93 11.54, 6.2 7.73 C10.48 3.92, 21.68 1.9, 25.3 0.7 C28.92 -0.49, 28.05 0.35, 27.93 0.56 M34.87 2.41 C39.37 3.4, 43.64 6.59, 46.05 10.84 C48.47 15.08, 50.23 22.55, 49.37 27.9 C48.5 33.24, 44.72 39.34, 40.85 42.89 C36.99 46.44, 31.36 49.34, 26.17 49.2 C20.98 49.05, 13.8 45.58, 9.71 42.04 C5.62 38.51, 2.87 32.93, 1.62 27.97 C0.36 23.01, -0.3 16.75, 2.2 12.28 C4.69 7.82, 11.21 2.91, 16.6 1.19 C21.99 -0.53, 31.76 2.03, 34.51 1.97 C37.26 1.91, 33.15 0.42, 33.09 0.84" stroke="#1e1e1e" stroke-width="2" fill="none"></path></g></svg>