<svg version="1.1" xmlns="http://www.w3.org/2000/svg" viewBox="0 0 105.26171875 140.84223780150205" width="105.26171875" height="140.84223780150205">
  <!-- svg-source:excalidraw -->
  
  <defs>
    <style class="style-fonts">
      @font-face {
        font-family: "Virgil";
        src: url("https://excalidraw.com/Virgil.woff2");
      }
      @font-face {
        font-family: "Cascadia";
        src: url("https://excalidraw.com/Cascadia.woff2");
      }
      @font-face {
        font-family: "Assistant";
        src: url("https://excalidraw.com/Assistant-Regular.woff2");
      }
    </style>
    
  </defs>
  <g stroke-linecap="round" transform="translate(34.05486505681802 109.06643921733757) rotate(22.461246866865288 19.283203125 7.48828125)"><path d="M3.74 0 C13.79 0.51, 19.41 -2.23, 34.82 0 C38.83 -2.33, 39.74 -0.88, 38.57 3.74 C37.71 5.15, 38.57 6.97, 38.57 11.23 C36.08 15.66, 36.67 13.62, 34.82 14.98 C25.66 16.76, 22.54 16.25, 3.74 14.98 C0.66 14.81, -0.84 11.17, 0 11.23 C-0.47 8.75, 0.63 7.58, 0 3.74 C2.56 -1.12, 1.12 2.02, 3.74 0" stroke="none" stroke-width="0" fill="#868e96"></path><path d="M3.74 0 C14.13 -0.16, 23.84 0.35, 34.82 0 M3.74 0 C13.3 0.27, 22.1 0.3, 34.82 0 M34.82 0 C36.61 0, 37.97 0.53, 38.57 3.74 M34.82 0 C36.65 0.9, 39.67 0.78, 38.57 3.74 M38.57 3.74 C38.35 6.7, 38.39 8.65, 38.57 11.23 M38.57 3.74 C38.49 6.2, 38.48 8.59, 38.57 11.23 M38.57 11.23 C37.6 14.53, 37.41 15.77, 34.82 14.98 M38.57 11.23 C39.37 13.85, 36.59 14.68, 34.82 14.98 M34.82 14.98 C23.18 15.29, 11.79 14.03, 3.74 14.98 M34.82 14.98 C26.55 15.06, 17.67 14.91, 3.74 14.98 M3.74 14.98 C1.02 15.8, 0.2 13.48, 0 11.23 M3.74 14.98 C1.62 15.97, -0.83 14.72, 0 11.23 M0 11.23 C0.17 8.87, 0.27 6.54, 0 3.74 M0 11.23 C0.11 8.74, -0.01 6.21, 0 3.74 M0 3.74 C-0.32 0.4, 0.26 -0.46, 3.74 0 M0 3.74 C0.69 0.49, 2.32 -0.35, 3.74 0" stroke="#1e1e1e" stroke-width="2" fill="none"></path></g><g stroke-linecap="round" transform="translate(33.868992660985896 16.919422171883525) rotate(22.923355211056883 19.283203125 7.48828125)"><path d="M3.74 0 C13.51 -2.1, 27.81 -2.44, 34.82 0 C38.49 -2.13, 36.44 0.9, 38.57 3.74 C38.5 6.48, 37.55 10.02, 38.57 11.23 C37.92 12.37, 35.02 16.22, 34.82 14.98 C29.34 16.97, 21.51 15.15, 3.74 14.98 C0.4 12.42, -1.31 12.25, 0 11.23 C0.63 8.46, 1.01 4.63, 0 3.74 C-0.13 3.27, -0.31 -0.49, 3.74 0" stroke="none" stroke-width="0" fill="#868e96"></path><path d="M3.74 0 C15.57 0.49, 27.84 -0.11, 34.82 0 M3.74 0 C10.59 0.13, 17.25 -0.05, 34.82 0 M34.82 0 C36.72 -0.72, 37.99 2.03, 38.57 3.74 M34.82 0 C38.42 -0.47, 39.08 1.68, 38.57 3.74 M38.57 3.74 C38.35 6.2, 38.63 9.16, 38.57 11.23 M38.57 3.74 C38.46 6.61, 38.37 9.61, 38.57 11.23 M38.57 11.23 C38.66 14.52, 38.02 15.08, 34.82 14.98 M38.57 11.23 C37.84 13.43, 38 14.52, 34.82 14.98 M34.82 14.98 C26.91 14.2, 20.14 15.71, 3.74 14.98 M34.82 14.98 C23.26 14.8, 12 15.39, 3.74 14.98 M3.74 14.98 C1.45 14.72, 0.32 14.6, 0 11.23 M3.74 14.98 C0.42 15.96, 0.38 13.31, 0 11.23 M0 11.23 C0.24 9, 0.1 6.26, 0 3.74 M0 11.23 C-0.03 8.53, -0.08 5.82, 0 3.74 M0 3.74 C-0.99 0.78, 1.85 -0.66, 3.74 0 M0 3.74 C1.07 0.9, 0.98 0.37, 3.74 0" stroke="#1e1e1e" stroke-width="2" fill="none"></path></g><g stroke-linecap="round" transform="translate(10 32.545724255215646) rotate(0 42.630859375 38.322265625)"><path d="M19.16 0 C36.72 -2.58, 51.72 -2.3, 66.1 0 C75.93 -0.48, 87.8 3.27, 85.26 19.16 C81.83 32.44, 84.37 38.51, 85.26 57.48 C82.09 71.98, 75.44 73.07, 66.1 76.64 C47.29 76.95, 28.93 73.65, 19.16 76.64 C4.58 74.59, 2.95 68.3, 0 57.48 C3.14 45.11, -0.58 42.08, 0 19.16 C-2.16 5.71, 7.55 0.64, 19.16 0" stroke="none" stroke-width="0" fill="#a18072"></path><path d="M19.16 0 C33.07 -0.45, 45.57 1.12, 66.1 0 M19.16 0 C33.98 -0.17, 49.62 -0.89, 66.1 0 M66.1 0 C77.72 1.57, 87.18 5.58, 85.26 19.16 M66.1 0 C79.91 0.87, 86.7 4.97, 85.26 19.16 M85.26 19.16 C85.53 34.42, 86.7 49.05, 85.26 57.48 M85.26 19.16 C84.11 32.18, 85.17 44.39, 85.26 57.48 M85.26 57.48 C86.66 70.47, 77.61 76.13, 66.1 76.64 M85.26 57.48 C86.62 69.34, 77.31 75.53, 66.1 76.64 M66.1 76.64 C49.5 77.59, 35.3 77.04, 19.16 76.64 M66.1 76.64 C51.94 77.31, 38.43 76.23, 19.16 76.64 M19.16 76.64 C7.03 78.38, -1.45 71.98, 0 57.48 M19.16 76.64 C7.15 75.82, 0.84 71.2, 0 57.48 M0 57.48 C0.35 45.05, 0.76 33.03, 0 19.16 M0 57.48 C-0.31 45.41, -0.98 34.56, 0 19.16 M0 19.16 C1.21 5.07, 8.25 -0.61, 19.16 0 M0 19.16 C-0.54 7.12, 7.83 1.29, 19.16 0" stroke="#1e1e1e" stroke-width="2" fill="none"></path></g><g stroke-linecap="round" transform="translate(38.649680311687916 96.89204723666899) rotate(90.684351531919 13.974609375 10.47265625)"><path d="M5.24 0 C9.74 0.91, 14.35 2.63, 22.71 0 C29.45 1.85, 29.93 4.78, 27.95 5.24 C26.79 8.47, 28.41 11.38, 27.95 15.71 C31.28 21.83, 27.65 23.98, 22.71 20.95 C16.29 22.48, 14.77 23.55, 5.24 20.95 C5.03 21.93, -0.36 20.58, 0 15.71 C0.08 15, 0.66 10.69, 0 5.24 C2.68 4.01, 2.01 3.46, 5.24 0" stroke="none" stroke-width="0" fill="#a5d8ff"></path><path d="M5.24 0 C11.78 0.55, 18.07 1.31, 22.71 0 M5.24 0 C11.54 -0.15, 16.77 -0.41, 22.71 0 M22.71 0 C25.56 -1.69, 25.97 0.82, 27.95 5.24 M22.71 0 C27.59 -1.52, 30.1 1.04, 27.95 5.24 M27.95 5.24 C28.57 8.44, 27.38 10.23, 27.95 15.71 M27.95 5.24 C27.43 8.56, 27.79 13.11, 27.95 15.71 M27.95 15.71 C26.22 18.74, 26.23 20.87, 22.71 20.95 M27.95 15.71 C25.75 20.91, 25.63 19.75, 22.71 20.95 M22.71 20.95 C17.28 22.24, 15.9 21.89, 5.24 20.95 M22.71 20.95 C17.01 20.45, 12.52 21.6, 5.24 20.95 M5.24 20.95 C0.66 19.69, 1.18 19.37, 0 15.71 M5.24 20.95 C4.01 18.85, -0.11 20.99, 0 15.71 M0 15.71 C0.21 13.47, -0.82 10.44, 0 5.24 M0 15.71 C0.34 12.07, 0.22 8.76, 0 5.24 M0 5.24 C1.03 2.26, 3.03 0.17, 5.24 0 M0 5.24 C-1.66 1.84, -0.03 -1.57, 5.24 0" stroke="#1e1e1e" stroke-width="2" fill="none"></path></g><g stroke-linecap="round" transform="translate(27.00027901785961 45.15652205235256) rotate(90.684351531919 25.4296875 23.859375)"><path d="M38.24 2.24 C43.07 4.33, 46.94 10.45, 48.86 15.34 C50.78 20.23, 51.57 26.82, 49.76 31.59 C47.95 36.35, 42.58 41.29, 38.01 43.92 C33.44 46.55, 27.54 47.96, 22.34 47.37 C17.15 46.78, 10.53 44.12, 6.83 40.39 C3.14 36.66, 0.25 30.13, 0.18 25 C0.12 19.87, 3.04 13.58, 6.42 9.61 C9.81 5.63, 14.67 1.99, 20.5 1.14 C26.33 0.29, 37.44 3.4, 41.4 4.51 C45.37 5.61, 44.7 7.34, 44.3 7.78 M22.3 -0.52 C27.69 -1.2, 35.45 2.02, 40.13 5 C44.81 7.98, 48.71 12.75, 50.4 17.35 C52.09 21.96, 52.49 28.01, 50.26 32.62 C48.03 37.23, 42.19 42.53, 37.01 44.99 C31.84 47.45, 24.42 48.44, 19.21 47.38 C14 46.32, 8.73 42.53, 5.76 38.64 C2.79 34.76, 1.17 29, 1.41 24.08 C1.64 19.16, 3.84 13.31, 7.17 9.13 C10.49 4.94, 18.92 0.52, 21.38 -1.03 C23.83 -2.58, 21.62 -0.87, 21.9 -0.17" stroke="none" stroke-width="0" fill="#a5d8ff"></path><path d="M35.67 2.42 C40.51 3.96, 45.54 8.43, 47.91 12.81 C50.28 17.18, 51.2 23.86, 49.89 28.69 C48.59 33.52, 44.41 38.52, 40.07 41.79 C35.74 45.06, 29.28 48.2, 23.87 48.3 C18.45 48.4, 11.59 45.98, 7.6 42.39 C3.6 38.8, 0.46 31.86, -0.09 26.75 C-0.64 21.63, 1.23 15.9, 4.3 11.67 C7.37 7.45, 12.4 2.7, 18.34 1.4 C24.27 0.1, 35.45 2.78, 39.92 3.88 C44.39 4.98, 45.23 7.68, 45.15 7.99 M14.01 1.63 C18.66 -0.77, 27.49 -0.77, 32.69 0.93 C37.89 2.63, 42.27 7.67, 45.21 11.82 C48.15 15.96, 50.92 20.78, 50.32 25.8 C49.72 30.81, 45.73 38.5, 41.6 41.89 C37.47 45.29, 30.54 45.91, 25.54 46.19 C20.53 46.46, 15.52 46.39, 11.54 43.54 C7.56 40.69, 3.15 34.21, 1.65 29.07 C0.16 23.94, 0.55 17.35, 2.58 12.71 C4.61 8.07, 11.82 2.73, 13.83 1.22 C15.84 -0.29, 14.37 3.3, 14.65 3.64" stroke="#1e1e1e" stroke-width="2" fill="none"></path></g></svg>