<svg version="1.1" xmlns="http://www.w3.org/2000/svg" viewBox="0 0 106.89305606447624 140.84223780150205" width="106.89305606447624" height="140.84223780150205">
  <!-- svg-source:excalidraw -->
  
  <defs>
    <style class="style-fonts">
      @font-face {
        font-family: "Virgil";
        src: url("https://excalidraw.com/Virgil.woff2");
      }
      @font-face {
        font-family: "Cascadia";
        src: url("https://excalidraw.com/Cascadia.woff2");
      }
      @font-face {
        font-family: "Assistant";
        src: url("https://excalidraw.com/Assistant-Regular.woff2");
      }
    </style>
    
  </defs>
  <g stroke-linecap="round" transform="translate(35.68620237129426 109.06643921733757) rotate(22.461246866865288 19.283203125 7.48828125)"><path d="M3.74 0 C11.88 -1.77, 15.53 0.01, 34.82 0 C39.15 -2.25, 37.97 1.28, 38.57 3.74 C38.23 5.45, 37.61 8.64, 38.57 11.23 C36.09 11.15, 39.49 15.86, 34.82 14.98 C22.68 12.4, 10.91 13.47, 3.74 14.98 C3.38 13.57, -1.63 15.26, 0 11.23 C-0.14 9.68, -0.68 6.43, 0 3.74 C0.84 1.71, 1.93 -2.1, 3.74 0" stroke="none" stroke-width="0" fill="#868e96"></path><path d="M3.74 0 C13.81 0.69, 25.72 -0.15, 34.82 0 M3.74 0 C13.9 -0.36, 24.37 0.39, 34.82 0 M34.82 0 C38.28 -0.41, 39.02 1.63, 38.57 3.74 M34.82 0 C38.04 -0.71, 39.71 0.66, 38.57 3.74 M38.57 3.74 C38.88 5.32, 38.65 7.01, 38.57 11.23 M38.57 3.74 C38.55 6.16, 38.66 8.3, 38.57 11.23 M38.57 11.23 C37.94 13.47, 37.91 14.58, 34.82 14.98 M38.57 11.23 C37.78 13.17, 37.8 14.16, 34.82 14.98 M34.82 14.98 C28.75 15.48, 21.35 14.67, 3.74 14.98 M34.82 14.98 C26.67 14.98, 18.47 15.54, 3.74 14.98 M3.74 14.98 C0.52 15.84, 0.33 13.37, 0 11.23 M3.74 14.98 C1.67 15.45, 0.4 14.51, 0 11.23 M0 11.23 C0.18 8.63, -0.04 5.55, 0 3.74 M0 11.23 C-0.17 9.17, 0.13 7.16, 0 3.74 M0 3.74 C0.93 0.94, 1.01 0.32, 3.74 0 M0 3.74 C0.72 1.89, 1.59 -0.67, 3.74 0" stroke="#1e1e1e" stroke-width="2" fill="none"></path></g><g stroke-linecap="round" transform="translate(35.50032997546032 16.919422171883525) rotate(22.923355211056883 19.283203125 7.48828125)"><path d="M3.74 0 C8.16 -0.02, 18.67 -1.92, 34.82 0 C36.72 0.03, 38.46 -1.24, 38.57 3.74 C37.68 7.01, 37.61 8.38, 38.57 11.23 C40.74 14.61, 38.97 14.39, 34.82 14.98 C24.39 13.1, 18.7 13.17, 3.74 14.98 C-0.38 16.51, 0.22 16.29, 0 11.23 C-0.58 9.48, 0.32 8.27, 0 3.74 C0.68 -0.85, 0.66 1.45, 3.74 0" stroke="none" stroke-width="0" fill="#868e96"></path><path d="M3.74 0 C13.02 -0.27, 22.05 -0.82, 34.82 0 M3.74 0 C12.78 0.5, 22.88 -0.09, 34.82 0 M34.82 0 C37.77 0.38, 39.19 0.63, 38.57 3.74 M34.82 0 C38.47 -0.59, 37.76 1.51, 38.57 3.74 M38.57 3.74 C38.67 5.79, 38.61 7.82, 38.57 11.23 M38.57 3.74 C38.7 6.61, 38.45 9.39, 38.57 11.23 M38.57 11.23 C39.16 13.33, 36.64 14.49, 34.82 14.98 M38.57 11.23 C39.05 12.91, 36.36 14.66, 34.82 14.98 M34.82 14.98 C23.38 14.63, 11.66 14.81, 3.74 14.98 M34.82 14.98 C23.09 15.37, 10.67 15.37, 3.74 14.98 M3.74 14.98 C1.58 14.62, 0.37 14.14, 0 11.23 M3.74 14.98 C1.65 15.76, 0.9 14.08, 0 11.23 M0 11.23 C-0.04 8.82, -0.16 6.32, 0 3.74 M0 11.23 C0.15 9.49, 0.21 7.94, 0 3.74 M0 3.74 C-0.24 1.57, 1.88 0.56, 3.74 0 M0 3.74 C0.34 0.58, 0.37 0.67, 3.74 0" stroke="#1e1e1e" stroke-width="2" fill="none"></path></g><g stroke-linecap="round" transform="translate(11.63133731447624 32.545724255215646) rotate(0 42.630859375 38.322265625)"><path d="M19.16 0 C31.94 -3, 38.81 0.16, 66.1 0 C78.73 -3.45, 87.93 5.49, 85.26 19.16 C81.22 25.09, 87.66 39.38, 85.26 57.48 C87.55 69.45, 78.65 75.48, 66.1 76.64 C59.58 74.21, 44.91 78.28, 19.16 76.64 C6.69 80.19, -3.28 70.08, 0 57.48 C1.58 43.65, 1.36 25.64, 0 19.16 C-0.82 8.39, 6.02 1.34, 19.16 0" stroke="none" stroke-width="0" fill="#a18072"></path><path d="M19.16 0 C37.14 -1.35, 53.67 -1.12, 66.1 0 M19.16 0 C30.84 -0.77, 41.06 0.01, 66.1 0 M66.1 0 C80.13 -1.23, 87.26 5.37, 85.26 19.16 M66.1 0 C77.26 0.53, 85.19 8.26, 85.26 19.16 M85.26 19.16 C85.39 27.27, 86.94 39.45, 85.26 57.48 M85.26 19.16 C84.9 33.42, 86.12 47.81, 85.26 57.48 M85.26 57.48 C83.9 69.29, 79.72 75.23, 66.1 76.64 M85.26 57.48 C83.34 69.63, 80.42 78.15, 66.1 76.64 M66.1 76.64 C49.47 76, 35.87 76.85, 19.16 76.64 M66.1 76.64 C52.48 77.91, 40.65 76.69, 19.16 76.64 M19.16 76.64 C7.12 77.47, 0.7 71.62, 0 57.48 M19.16 76.64 C8.19 77.35, 0.46 71.43, 0 57.48 M0 57.48 C-0.71 43.02, -1.66 27.86, 0 19.16 M0 57.48 C0.7 47.46, -0.47 38.36, 0 19.16 M0 19.16 C1.26 7.51, 6.98 -1.16, 19.16 0 M0 19.16 C-1.75 7.73, 4.33 1.04, 19.16 0" stroke="#1e1e1e" stroke-width="2" fill="none"></path></g><g stroke-linecap="round" transform="translate(13.186373760761398 88.17832059975535) rotate(312.47556431009303 13.974609375 10.47265625)"><path d="M5.24 0 C7.07 0.42, 12.33 -1.14, 22.71 0 C25.25 0.89, 26.16 4.6, 27.95 5.24 C29.64 9.05, 27.65 13.46, 27.95 15.71 C25.81 19.66, 27.16 21.25, 22.71 20.95 C18.5 19.9, 6.34 20.85, 5.24 20.95 C-0.34 22.72, 1.42 22.21, 0 15.71 C0.67 10.49, 0.85 8.7, 0 5.24 C0.32 5.2, 3.18 0.03, 5.24 0" stroke="none" stroke-width="0" fill="#a5d8ff"></path><path d="M5.24 0 C12.55 0.7, 16.23 0.77, 22.71 0 M5.24 0 C11.88 0.15, 17.33 0.33, 22.71 0 M22.71 0 C27.42 -0.14, 27.89 1.01, 27.95 5.24 M22.71 0 C25.46 -1.94, 25.67 0.68, 27.95 5.24 M27.95 5.24 C27.56 8.76, 28.21 13.44, 27.95 15.71 M27.95 5.24 C27.58 9.27, 27.51 12.93, 27.95 15.71 M27.95 15.71 C26.31 17.56, 25.94 22.36, 22.71 20.95 M27.95 15.71 C25.96 18.67, 26.23 20.86, 22.71 20.95 M22.71 20.95 C18.23 19.36, 16.41 19.24, 5.24 20.95 M22.71 20.95 C19.76 20.81, 15.64 20.72, 5.24 20.95 M5.24 20.95 C-0.22 19.94, -1.14 20.84, 0 15.71 M5.24 20.95 C0.5 19.51, 1.35 19.4, 0 15.71 M0 15.71 C0.91 10.91, -0.1 7.7, 0 5.24 M0 15.71 C-0.15 12.67, -0.08 9.25, 0 5.24 M0 5.24 C1.27 2.09, 2.56 1.93, 5.24 0 M0 5.24 C1.19 2.34, 3.22 0.19, 5.24 0" stroke="#1e1e1e" stroke-width="2" fill="none"></path></g><g stroke-linecap="round" transform="translate(28.105044809020455 46.951090522251434) rotate(312.47556431009303 25.4296875 23.859375)"><path d="M18.7 1.86 C23.55 0.16, 29.97 0.24, 35.05 2.09 C40.12 3.94, 46.68 8.29, 49.15 12.97 C51.62 17.64, 51.33 25.04, 49.87 30.14 C48.41 35.23, 44.93 40.65, 40.39 43.53 C35.86 46.41, 28.02 47.88, 22.65 47.42 C17.28 46.96, 11.87 44.23, 8.18 40.79 C4.49 37.35, 1.08 31.81, 0.49 26.8 C-0.1 21.8, 0.74 15.13, 4.63 10.77 C8.53 6.41, 20.05 2.24, 23.85 0.64 C27.65 -0.96, 27.55 0.99, 27.45 1.18 M26.02 -0.41 C31.29 -0.51, 37.35 2.19, 41.5 5.49 C45.65 8.8, 49.78 14.1, 50.93 19.44 C52.07 24.78, 51.13 32.91, 48.38 37.55 C45.63 42.19, 39.56 45.87, 34.42 47.27 C29.28 48.66, 22.78 47.87, 17.52 45.9 C12.26 43.92, 5.83 39.83, 2.84 35.42 C-0.15 31.01, -1.59 24.44, -0.41 19.44 C0.76 14.44, 5.25 8.46, 9.87 5.4 C14.5 2.35, 24.55 1.71, 27.33 1.1 C30.11 0.49, 26.87 1.74, 26.53 1.75" stroke="none" stroke-width="0" fill="#a5d8ff"></path><path d="M30.76 1.19 C35.89 1.75, 41.93 4.97, 45.36 8.89 C48.8 12.81, 51.48 19.61, 51.37 24.68 C51.26 29.76, 48.38 35.6, 44.69 39.33 C41 43.06, 34.75 46.39, 29.25 47.07 C23.75 47.75, 16.38 45.86, 11.67 43.42 C6.96 40.98, 2.78 36.92, 0.99 32.42 C-0.79 27.92, -0.98 21.36, 0.95 16.43 C2.89 11.5, 7.24 5.31, 12.61 2.85 C17.98 0.39, 29.3 1.69, 33.18 1.67 C37.07 1.65, 36.19 2.56, 35.92 2.71 M31.5 -0.23 C36.74 0.94, 43.49 7.39, 46.47 11.81 C49.46 16.23, 49.99 21.39, 49.39 26.28 C48.79 31.18, 46.89 37.4, 42.9 41.16 C38.91 44.91, 30.98 48.61, 25.47 48.79 C19.97 48.97, 14.22 45.34, 9.87 42.22 C5.52 39.1, 0.79 35.17, -0.64 30.08 C-2.07 24.98, -1.6 16.26, 1.28 11.66 C4.15 7.06, 11.21 4.29, 16.61 2.46 C22.01 0.63, 31.03 0.91, 33.68 0.66 C36.32 0.42, 33.01 0.66, 32.48 0.97" stroke="#1e1e1e" stroke-width="2" fill="none"></path></g></svg>