<svg version="1.1" xmlns="http://www.w3.org/2000/svg" viewBox="0 0 107.08836856447897 140.84223780150205" width="107.08836856447897" height="140.84223780150205">
  <!-- svg-source:excalidraw -->
  
  <defs>
    <style class="style-fonts">
      @font-face {
        font-family: "Virgil";
        src: url("https://excalidraw.com/Virgil.woff2");
      }
      @font-face {
        font-family: "Cascadia";
        src: url("https://excalidraw.com/Cascadia.woff2");
      }
      @font-face {
        font-family: "Assistant";
        src: url("https://excalidraw.com/Assistant-Regular.woff2");
      }
    </style>
    
  </defs>
  <g stroke-linecap="round" transform="translate(34.05486505681802 109.06643921733757) rotate(22.461246866865288 19.283203125 7.48828125)"><path d="M3.74 0 C8.27 2.18, 15.43 -0.86, 34.82 0 C38.15 1.63, 40.03 2.02, 38.57 3.74 C37.62 6, 37.7 6.57, 38.57 11.23 C38.22 15.56, 35.07 14.38, 34.82 14.98 C27.39 13.94, 14.74 12.3, 3.74 14.98 C2.49 12.5, -2.58 15.9, 0 11.23 C-0.12 8.42, -1.02 5.74, 0 3.74 C-1.48 3.38, -0.16 -1.63, 3.74 0" stroke="none" stroke-width="0" fill="#868e96"></path><path d="M3.74 0 C15.11 0.34, 25.3 0.32, 34.82 0 M3.74 0 C14.03 -0.15, 24.59 -0.05, 34.82 0 M34.82 0 C37.21 -0.77, 39.24 1.56, 38.57 3.74 M34.82 0 C37.12 0.42, 37.75 1.25, 38.57 3.74 M38.57 3.74 C38.83 5.9, 38.39 7.51, 38.57 11.23 M38.57 3.74 C38.78 6.18, 38.46 8.84, 38.57 11.23 M38.57 11.23 C38.53 14.54, 36.94 15.16, 34.82 14.98 M38.57 11.23 C38.02 13.76, 36.2 15.9, 34.82 14.98 M34.82 14.98 C25.32 14.45, 15.35 15.68, 3.74 14.98 M34.82 14.98 C26.95 14.55, 18.24 14.76, 3.74 14.98 M3.74 14.98 C1.92 15.63, 0.4 13.7, 0 11.23 M3.74 14.98 C0.78 14.58, -0.26 14.68, 0 11.23 M0 11.23 C0.33 8.57, 0.33 6.56, 0 3.74 M0 11.23 C0.05 9.38, 0.13 7.34, 0 3.74 M0 3.74 C0.2 1.76, 1.85 -0.07, 3.74 0 M0 3.74 C-0.03 0.83, 0.88 -0.97, 3.74 0" stroke="#1e1e1e" stroke-width="2" fill="none"></path></g><g stroke-linecap="round" transform="translate(33.868992660984986 16.919422171883525) rotate(22.923355211056883 19.283203125 7.48828125)"><path d="M3.74 0 C14.15 -0.99, 26.98 1.26, 34.82 0 C38.78 0.77, 37.06 -0.73, 38.57 3.74 C37.68 5.63, 38.35 9.8, 38.57 11.23 C36.32 13.13, 37.35 14.87, 34.82 14.98 C27.12 12.58, 23.36 12.4, 3.74 14.98 C-1.33 17.15, 0.88 15.38, 0 11.23 C-0.95 8.67, -0.55 7.87, 0 3.74 C-1.41 -0.38, 2.78 0.22, 3.74 0" stroke="none" stroke-width="0" fill="#868e96"></path><path d="M3.74 0 C12.47 0.23, 20.9 0.84, 34.82 0 M3.74 0 C14 0.02, 23.72 -0.35, 34.82 0 M34.82 0 C37.99 0.31, 38.4 1.61, 38.57 3.74 M34.82 0 C36.5 0, 37.88 0.43, 38.57 3.74 M38.57 3.74 C38.44 5.73, 38.74 7.61, 38.57 11.23 M38.57 3.74 C38.47 5.57, 38.6 7.47, 38.57 11.23 M38.57 11.23 C38.19 13.92, 36.84 15.01, 34.82 14.98 M38.57 11.23 C37.45 14.65, 37.42 15.88, 34.82 14.98 M34.82 14.98 C23.06 15.47, 11.42 14.2, 3.74 14.98 M34.82 14.98 C26.58 14.73, 19.51 15.19, 3.74 14.98 M3.74 14.98 C1.64 14.95, -0.41 13.38, 0 11.23 M3.74 14.98 C0.99 15.93, 0.23 13.44, 0 11.23 M0 11.23 C0.29 8.87, -0.17 6.39, 0 3.74 M0 11.23 C0.13 8.74, 0.02 6.22, 0 3.74 M0 3.74 C0.61 1.18, 1.22 -0.37, 3.74 0 M0 3.74 C-0.37 0.28, 0.11 -0.53, 3.74 0" stroke="#1e1e1e" stroke-width="2" fill="none"></path></g><g stroke-linecap="round" transform="translate(10 32.545724255215646) rotate(0 42.630859375 38.322265625)"><path d="M19.16 0 C38.77 2.46, 58.11 1.26, 66.1 0 C76.79 -2.74, 87.36 3.17, 85.26 19.16 C84.21 34.93, 81.58 44.78, 85.26 57.48 C85.31 70.12, 75.43 79.31, 66.1 76.64 C54.91 72.47, 36.7 78.9, 19.16 76.64 C7.61 78.93, -0.81 70.03, 0 57.48 C-1.37 50.18, -1.28 34.73, 0 19.16 C2.12 6.69, 9.94 -3.28, 19.16 0" stroke="none" stroke-width="0" fill="#a18072"></path><path d="M19.16 0 C35.25 1.64, 50.53 -0.17, 66.1 0 M19.16 0 C32 -0.75, 45.74 0.32, 66.1 0 M66.1 0 C78.54 0.73, 83.84 6.39, 85.26 19.16 M66.1 0 C77.5 -1.65, 83.93 8.19, 85.26 19.16 M85.26 19.16 C85.86 35.59, 83.87 51.5, 85.26 57.48 M85.26 19.16 C84.96 29.52, 84.62 38.44, 85.26 57.48 M85.26 57.48 C84.31 70.32, 76.93 78.25, 66.1 76.64 M85.26 57.48 C85.47 72.07, 80.49 76.88, 66.1 76.64 M66.1 76.64 C54.18 75.56, 42.89 77.76, 19.16 76.64 M66.1 76.64 C56.02 77.17, 44.99 76.49, 19.16 76.64 M19.16 76.64 C5.57 75.96, -0.45 71.91, 0 57.48 M19.16 76.64 C6.85 76.06, 0.75 72.25, 0 57.48 M0 57.48 C-1.05 49.49, 0.49 40.73, 0 19.16 M0 57.48 C-0.1 43.89, 0.31 29.19, 0 19.16 M0 19.16 C-0.06 5.65, 5.74 -1.69, 19.16 0 M0 19.16 C-2.28 5.32, 7.78 -1.52, 19.16 0" stroke="#1e1e1e" stroke-width="2" fill="none"></path></g><g stroke-linecap="round" transform="translate(65.95277605371757 87.12363309975535) rotate(47.524435689906944 13.974609375 10.47265625)"><path d="M5.24 0 C13.74 1.37, 18.32 2.41, 22.71 0 C25.69 -0.76, 28.06 -0.4, 27.95 5.24 C29.75 9.89, 28.76 13.38, 27.95 15.71 C26.61 16.17, 25.95 18.86, 22.71 20.95 C19.48 22.07, 10.19 22.41, 5.24 20.95 C-0.4 22.68, 2.25 19.52, 0 15.71 C1.33 12.75, 0.06 9.23, 0 5.24 C-2.13 -0.22, -0.71 3.21, 5.24 0" stroke="none" stroke-width="0" fill="#a5d8ff"></path><path d="M5.24 0 C11.62 0.21, 17.84 0.92, 22.71 0 M5.24 0 C10.08 -0.67, 14.61 -0.34, 22.71 0 M22.71 0 C27.41 -1.32, 29.82 1.13, 27.95 5.24 M22.71 0 C25.66 0.73, 29.39 3.04, 27.95 5.24 M27.95 5.24 C28.5 7.75, 28.36 11.28, 27.95 15.71 M27.95 5.24 C27.48 7.4, 27.94 9.78, 27.95 15.71 M27.95 15.71 C26.04 20.68, 25.71 19.9, 22.71 20.95 M27.95 15.71 C25.92 20.3, 24.01 18.66, 22.71 20.95 M22.71 20.95 C15.62 20.95, 8.74 19.34, 5.24 20.95 M22.71 20.95 C17.87 20.54, 14.5 21.16, 5.24 20.95 M5.24 20.95 C3.72 19.13, -0.1 20.75, 0 15.71 M5.24 20.95 C0.36 20.51, 0.74 19.61, 0 15.71 M0 15.71 C0.67 12.19, 0.47 9.54, 0 5.24 M0 15.71 C0.23 12.52, 0.29 9.11, 0 5.24 M0 5.24 C-1.44 1.83, 0.2 -1.37, 5.24 0 M0 5.24 C0.13 1.11, 0.74 -0.61, 5.24 0" stroke="#1e1e1e" stroke-width="2" fill="none"></path></g><g stroke-linecap="round" transform="translate(28.123948755458514 45.896403022249615) rotate(47.524435689906944 25.4296875 23.859375)"><path d="M18.09 1.33 C22.83 -0.49, 29.39 -0.28, 34.48 1.64 C39.57 3.56, 45.92 8.16, 48.61 12.85 C51.29 17.54, 51.87 24.71, 50.6 29.78 C49.33 34.85, 45.22 40.2, 40.98 43.27 C36.73 46.34, 30.58 48.42, 25.15 48.21 C19.72 48, 12.55 45.69, 8.41 42.01 C4.26 38.33, 1 31.43, 0.28 26.13 C-0.43 20.82, 0.37 14.49, 4.1 10.16 C7.82 5.83, 18.56 1.79, 22.62 0.14 C26.68 -1.51, 28.35 -0.18, 28.45 0.24 M19.94 1.56 C24.89 -0.19, 33.02 0.06, 37.74 2.15 C42.47 4.24, 46.42 9.37, 48.3 14.1 C50.18 18.83, 50.37 25.59, 49.01 30.53 C47.65 35.46, 44.26 40.68, 40.14 43.71 C36.02 46.73, 29.66 49.02, 24.27 48.7 C18.89 48.37, 11.95 45.83, 7.82 41.77 C3.69 37.72, 0.03 29.82, -0.49 24.37 C-1.01 18.91, 1.29 12.89, 4.68 9.05 C8.08 5.21, 17.27 2.41, 19.91 1.32 C22.55 0.24, 20.5 2.3, 20.55 2.57" stroke="none" stroke-width="0" fill="#a5d8ff"></path><path d="M32.66 0.77 C37.57 1.77, 43.09 5.55, 46.01 10.01 C48.93 14.47, 50.85 22.14, 50.19 27.53 C49.52 32.92, 45.97 39.03, 41.99 42.35 C38 45.67, 31.56 47.28, 26.28 47.46 C21 47.64, 14.49 46.46, 10.31 43.45 C6.12 40.43, 2.52 34.59, 1.18 29.37 C-0.16 24.15, -0.24 16.86, 2.27 12.12 C4.78 7.39, 10.22 2.59, 16.23 0.94 C22.25 -0.71, 34.21 1.38, 38.35 2.25 C42.49 3.12, 41.24 5.83, 41.07 6.17 M21.07 1.27 C26.11 0.29, 34.49 0.41, 39.05 3.16 C43.62 5.91, 47.09 12.98, 48.48 17.76 C49.86 22.54, 49.07 27.19, 47.34 31.84 C45.61 36.5, 42.54 43.22, 38.07 45.7 C33.6 48.18, 26.02 48.08, 20.49 46.73 C14.97 45.38, 8.57 41.77, 4.92 37.6 C1.27 33.43, -1.62 26.51, -1.43 21.69 C-1.23 16.87, 2.24 12.44, 6.1 8.7 C9.95 4.95, 18.8 0.54, 21.69 -0.78 C24.58 -2.1, 23.02 0.44, 23.45 0.76" stroke="#1e1e1e" stroke-width="2" fill="none"></path></g></svg>