<svg version="1.1" xmlns="http://www.w3.org/2000/svg" viewBox="0 0 109.03033285019364 140.84223780150205" width="109.03033285019364" height="140.84223780150205">
  <!-- svg-source:excalidraw -->
  
  <defs>
    <style class="style-fonts">
      @font-face {
        font-family: "Virgil";
        src: url("https://excalidraw.com/Virgil.woff2");
      }
      @font-face {
        font-family: "Cascadia";
        src: url("https://excalidraw.com/Cascadia.woff2");
      }
      @font-face {
        font-family: "Assistant";
        src: url("https://excalidraw.com/Assistant-Regular.woff2");
      }
    </style>
    
  </defs>
  <g stroke-linecap="round" transform="translate(34.40642755681802 109.06643921733757) rotate(22.461246866865288 19.283203125 7.48828125)"><path d="M3.74 0 C11.56 -1.09, 24.12 -1.01, 34.82 0 C35.69 1.53, 38.79 3.81, 38.57 3.74 C37.98 5.13, 38.88 7.05, 38.57 11.23 C39.25 11.63, 36.73 16.43, 34.82 14.98 C26.26 16.29, 19.31 16.58, 3.74 14.98 C1.92 16.64, 0.22 11.85, 0 11.23 C0.13 8.69, -0.35 6.42, 0 3.74 C0.64 -0.05, 3.31 2.34, 3.74 0" stroke="none" stroke-width="0" fill="#868e96"></path><path d="M3.74 0 C13.15 -0.42, 22.22 -0.91, 34.82 0 M3.74 0 C15.92 -0.07, 27.07 -0.25, 34.82 0 M34.82 0 C37.91 -0.4, 37.88 0.76, 38.57 3.74 M34.82 0 C37.8 -0.82, 37.6 0.93, 38.57 3.74 M38.57 3.74 C38.58 6.34, 38.46 9.16, 38.57 11.23 M38.57 3.74 C38.63 6.77, 38.44 9.64, 38.57 11.23 M38.57 11.23 C38.9 13.37, 37.69 15.39, 34.82 14.98 M38.57 11.23 C38.97 14.51, 38.22 15.33, 34.82 14.98 M34.82 14.98 C24.81 15.04, 14.56 14.75, 3.74 14.98 M34.82 14.98 C28.42 14.57, 21.88 14.75, 3.74 14.98 M3.74 14.98 C1.01 15.3, 0.63 14.29, 0 11.23 M3.74 14.98 C1.59 14.31, -0.87 14.4, 0 11.23 M0 11.23 C-0.32 9.61, 0.25 7.75, 0 3.74 M0 11.23 C-0.18 9.3, -0.05 6.99, 0 3.74 M0 3.74 C-0.88 1.73, 0.3 -0.99, 3.74 0 M0 3.74 C0.96 1.64, 1.98 -0.26, 3.74 0" stroke="#1e1e1e" stroke-width="2" fill="none"></path></g><g stroke-linecap="round" transform="translate(34.22055516098408 16.919422171883525) rotate(22.923355211056883 19.283203125 7.48828125)"><path d="M3.74 0 C12.14 -1.18, 14.66 1.76, 34.82 0 C37.54 2.56, 36.2 1.12, 38.57 3.74 C38.82 6.74, 38.76 8.61, 38.57 11.23 C37.98 15.18, 37.06 15.94, 34.82 14.98 C26.03 16.48, 12.89 16.81, 3.74 14.98 C1.47 13.1, 0.1 11.72, 0 11.23 C-0.43 9.24, 0.23 7.28, 0 3.74 C2.06 3.59, 2.59 1.43, 3.74 0" stroke="none" stroke-width="0" fill="#868e96"></path><path d="M3.74 0 C11.93 -0.9, 20.86 0.17, 34.82 0 M3.74 0 C15.21 -0.15, 27.59 -0.22, 34.82 0 M34.82 0 C36.64 -0.48, 38.99 0.54, 38.57 3.74 M34.82 0 C36.36 -0.31, 39.34 2, 38.57 3.74 M38.57 3.74 C38.44 6.2, 38.87 8.91, 38.57 11.23 M38.57 3.74 C38.44 5.96, 38.64 7.79, 38.57 11.23 M38.57 11.23 C38.93 14.14, 37.67 15.66, 34.82 14.98 M38.57 11.23 C39.47 14.08, 37.55 15.56, 34.82 14.98 M34.82 14.98 C23.25 14.65, 11.56 13.98, 3.74 14.98 M34.82 14.98 C27.41 14.72, 18.94 15.03, 3.74 14.98 M3.74 14.98 C1.88 15.54, 0.3 13.15, 0 11.23 M3.74 14.98 C0.37 15.65, -1.03 14.25, 0 11.23 M0 11.23 C0.29 9.27, -0.06 7.97, 0 3.74 M0 11.23 C-0.01 8.92, -0.13 6.89, 0 3.74 M0 3.74 C-0.95 0.25, 2.08 0.34, 3.74 0 M0 3.74 C0.73 0.99, 1.17 -0.37, 3.74 0" stroke="#1e1e1e" stroke-width="2" fill="none"></path></g><g stroke-linecap="round" transform="translate(10 32.194161755215646) rotate(0 42.630859375 38.322265625)"><path d="M19.16 0 C28.31 2.58, 42.28 4.01, 66.1 0 C75.6 -0.17, 88.06 4.23, 85.26 19.16 C86.43 27.03, 84.67 42.72, 85.26 57.48 C84.9 71.59, 81.17 77.26, 66.1 76.64 C51.04 79.39, 34.43 74.49, 19.16 76.64 C6.53 73.87, -2.46 70.46, 0 57.48 C1.19 45.25, 3.15 39.85, 0 19.16 C1.85 8.37, 9.43 -0.52, 19.16 0" stroke="none" stroke-width="0" fill="#a18072"></path><path d="M19.16 0 C32.61 0.64, 44.42 1.86, 66.1 0 M19.16 0 C34.32 -0.28, 47.62 -0.36, 66.1 0 M66.1 0 C79.72 -1.42, 83.59 5.84, 85.26 19.16 M66.1 0 C80.42 1.51, 86.17 6.32, 85.26 19.16 M85.26 19.16 C86.78 29.49, 84.62 39.67, 85.26 57.48 M85.26 19.16 C85.31 33.62, 85.35 49.21, 85.26 57.48 M85.26 57.48 C85.96 71.62, 80.44 77.26, 66.1 76.64 M85.26 57.48 C85.72 71.43, 80.27 76.49, 66.1 76.64 M66.1 76.64 C50.48 74.51, 37.3 77.7, 19.16 76.64 M66.1 76.64 C54.88 76.82, 44.76 77.06, 19.16 76.64 M19.16 76.64 C6.98 75.48, -1.52 71.42, 0 57.48 M19.16 76.64 C4.33 77.68, -1.88 68.37, 0 57.48 M0 57.48 C-0.73 46.53, -0.35 33.6, 0 19.16 M0 57.48 C-0.79 43.62, -0.86 27.81, 0 19.16 M0 19.16 C1.67 7.07, 7.66 -0.45, 19.16 0 M0 19.16 C-0.15 5.64, 4.13 -1.16, 19.16 0" stroke="#1e1e1e" stroke-width="2" fill="none"></path></g><g stroke-linecap="round" transform="translate(67.89474033943225 30.81458684460722) rotate(312.47556431009303 13.974609375 10.47265625)"><path d="M5.24 0 C8.51 -0.8, 18.6 -0.4, 22.71 0 C27.54 2.29, 28.57 3.21, 27.95 5.24 C29.25 9.55, 26.69 13.62, 27.95 15.71 C25.17 16.74, 26.41 19.95, 22.71 20.95 C16.67 23.51, 16.6 22.64, 5.24 20.95 C3.73 23.98, -0.52 18.44, 0 15.71 C0.61 12.69, 1.86 10.74, 0 5.24 C1.45 4.78, 0.41 -3.03, 5.24 0" stroke="none" stroke-width="0" fill="#a5d8ff"></path><path d="M5.24 0 C8.05 -1.54, 12.86 1.1, 22.71 0 M5.24 0 C11.27 -0.29, 17.81 0.73, 22.71 0 M22.71 0 C26.6 -0.51, 28.6 3.48, 27.95 5.24 M22.71 0 C24.54 1.98, 28.71 0.92, 27.95 5.24 M27.95 5.24 C28.71 9.58, 28.31 12.5, 27.95 15.71 M27.95 5.24 C28 8.72, 27.84 12.15, 27.95 15.71 M27.95 15.71 C25.97 18.27, 27.41 19.62, 22.71 20.95 M27.95 15.71 C30.1 18.49, 25.66 21.68, 22.71 20.95 M22.71 20.95 C15.36 19.67, 11.05 19.43, 5.24 20.95 M22.71 20.95 C16.56 21.42, 9.89 20.6, 5.24 20.95 M5.24 20.95 C1.77 20.87, -1.91 20.68, 0 15.71 M5.24 20.95 C1.17 19.75, -2.03 20.3, 0 15.71 M0 15.71 C0.46 14.23, -0.13 11.35, 0 5.24 M0 15.71 C-0.2 13.34, -0.18 9.78, 0 5.24 M0 5.24 C1.18 1.92, 3.72 -1.82, 5.24 0 M0 5.24 C-0.11 3.53, 0.36 -0.43, 5.24 0" stroke="#1e1e1e" stroke-width="2" fill="none"></path></g><g stroke-linecap="round" transform="translate(30.06591304117319 45.26837942211296) rotate(312.47556431009303 25.4296875 23.859375)"><path d="M22.75 -0.77 C27.76 -1.39, 33.68 1.61, 38.24 4.65 C42.79 7.69, 48.34 12.73, 50.07 17.46 C51.8 22.2, 50.86 28.62, 48.64 33.07 C46.41 37.51, 41.6 41.86, 36.7 44.11 C31.81 46.36, 24.39 47.61, 19.27 46.55 C14.14 45.49, 9.29 41.6, 5.98 37.72 C2.67 33.84, -0.74 28.11, -0.59 23.26 C-0.44 18.41, 2.67 12.5, 6.88 8.61 C11.08 4.73, 20.88 1.37, 24.66 -0.05 C28.44 -1.47, 29.45 -0.37, 29.57 0.09 M27.34 0.93 C32.43 1.35, 39.22 4.04, 43.28 7.57 C47.35 11.09, 51.13 16.83, 51.72 22.07 C52.32 27.31, 50.01 34.81, 46.85 39.02 C43.69 43.22, 37.96 46.21, 32.75 47.3 C27.55 48.4, 20.86 47.82, 15.61 45.6 C10.37 43.38, 3.94 38.8, 1.29 33.97 C-1.36 29.15, -1.89 21.64, -0.28 16.63 C1.33 11.61, 6.4 6.71, 10.96 3.88 C15.51 1.06, 24.18 0.37, 27.02 -0.3 C29.86 -0.98, 27.73 -0.86, 28 -0.18" stroke="none" stroke-width="0" fill="#a5d8ff"></path><path d="M33.76 0.92 C38.59 2.13, 44 6.93, 46.93 11.42 C49.86 15.91, 52.22 22.74, 51.36 27.88 C50.5 33.01, 45.91 39.06, 41.79 42.25 C37.67 45.43, 31.91 46.92, 26.65 46.99 C21.39 47.07, 14.64 45.73, 10.21 42.68 C5.79 39.63, 1.19 33.71, 0.09 28.7 C-1 23.68, 0.81 16.96, 3.64 12.57 C6.48 8.17, 11.7 4.06, 17.08 2.34 C22.47 0.61, 32.53 1.96, 35.97 2.22 C39.42 2.47, 37.98 3.55, 37.75 3.87 M19.31 -0.3 C24.57 -1.43, 33.64 -0.45, 38.86 2.1 C44.08 4.66, 48.95 10.01, 50.65 15.05 C52.35 20.08, 50.94 27.27, 49.05 32.31 C47.15 37.34, 43.84 42.89, 39.28 45.26 C34.71 47.63, 27.39 47.36, 21.67 46.52 C15.95 45.68, 8.79 43.86, 4.95 40.23 C1.11 36.6, -1.28 30.2, -1.34 24.74 C-1.4 19.28, 0.93 11.33, 4.58 7.45 C8.24 3.57, 18.1 2.61, 20.6 1.46 C23.1 0.3, 19.48 0.32, 19.59 0.52" stroke="#1e1e1e" stroke-width="2" fill="none"></path></g></svg>