<svg version="1.1" xmlns="http://www.w3.org/2000/svg" viewBox="0 0 108.91314535019 140.84223780150205" width="108.91314535019" height="140.84223780150205">
  <!-- svg-source:excalidraw -->
  
  <defs>
    <style class="style-fonts">
      @font-face {
        font-family: "Virgil";
        src: url("https://excalidraw.com/Virgil.woff2");
      }
      @font-face {
        font-family: "Cascadia";
        src: url("https://excalidraw.com/Cascadia.woff2");
      }
      @font-face {
        font-family: "Assistant";
        src: url("https://excalidraw.com/Assistant-Regular.woff2");
      }
    </style>
    
  </defs>
  <g stroke-linecap="round" transform="translate(37.70629165700802 109.06643921733757) rotate(22.461246866865288 19.283203125 7.48828125)"><path d="M3.74 0 C8.74 -2.19, 17.68 -2.38, 34.82 0 C34.74 2.17, 39.45 2.9, 38.57 3.74 C37.6 5.33, 38.01 8.7, 38.57 11.23 C37.16 12.1, 38.85 15.2, 34.82 14.98 C24.45 13.4, 9.56 15.8, 3.74 14.98 C1.71 15.66, -2.1 13.14, 0 11.23 C0.63 8.74, 0.4 6.84, 0 3.74 C1.34 1.92, 2.91 0.22, 3.74 0" stroke="none" stroke-width="0" fill="#868e96"></path><path d="M3.74 0 C10.87 0.3, 19.18 0.48, 34.82 0 M3.74 0 C10.8 0.19, 18.55 0.49, 34.82 0 M34.82 0 C36.94 0.19, 38.09 1.28, 38.57 3.74 M34.82 0 C36.2 0.92, 38.67 2.16, 38.57 3.74 M38.57 3.74 C38.47 6.74, 38.42 9.03, 38.57 11.23 M38.57 3.74 C38.43 5.58, 38.71 7.64, 38.57 11.23 M38.57 11.23 C38.96 13.7, 36.91 14.63, 34.82 14.98 M38.57 11.23 C38.31 14.68, 37.55 14.69, 34.82 14.98 M34.82 14.98 C25.35 15.19, 13.8 15.23, 3.74 14.98 M34.82 14.98 C24.61 15.24, 13.72 15.34, 3.74 14.98 M3.74 14.98 C1.85 14.91, -0.03 13.36, 0 11.23 M3.74 14.98 C0.88 14.01, -1.14 13.2, 0 11.23 M0 11.23 C-0.09 8.44, 0.14 6.07, 0 3.74 M0 11.23 C-0.15 8.67, -0.18 5.98, 0 3.74 M0 3.74 C-0.82 0.43, 1.11 0.71, 3.74 0 M0 3.74 C-1 0.98, 1.26 -0.04, 3.74 0" stroke="#1e1e1e" stroke-width="2" fill="none"></path></g><g stroke-linecap="round" transform="translate(37.5204192611759 16.919422171883525) rotate(22.923355211056883 19.283203125 7.48828125)"><path d="M3.74 0 C13.53 -2.12, 18.26 2.53, 34.82 0 C38.2 1.65, 37.98 1.08, 38.57 3.74 C37.92 6.54, 37.94 7.14, 38.57 11.23 C40.1 13.95, 39.88 12.61, 34.82 14.98 C25.16 15.57, 16.94 15.41, 3.74 14.98 C-0.85 14.39, 1.45 13.47, 0 11.23 C0.33 9.65, 0.44 6.44, 0 3.74 C1.67 1.47, -0.63 0.1, 3.74 0" stroke="none" stroke-width="0" fill="#868e96"></path><path d="M3.74 0 C16.43 0.56, 27.74 0.93, 34.82 0 M3.74 0 C11.47 0.37, 19.04 0.06, 34.82 0 M34.82 0 C36.84 0.03, 37.6 2.05, 38.57 3.74 M34.82 0 C37.42 0.91, 39.37 1.37, 38.57 3.74 M38.57 3.74 C38.41 5.26, 38.38 7.45, 38.57 11.23 M38.57 3.74 C38.66 5.58, 38.61 7.17, 38.57 11.23 M38.57 11.23 C38.16 13.38, 37.09 15.8, 34.82 14.98 M38.57 11.23 C38.8 13.44, 37.69 15.97, 34.82 14.98 M34.82 14.98 C27.39 15.4, 21.08 15.38, 3.74 14.98 M34.82 14.98 C23.48 15.28, 12.24 14.99, 3.74 14.98 M3.74 14.98 C1.22 14.61, -0.32 12.89, 0 11.23 M3.74 14.98 C0.11 14.44, 0.69 12.97, 0 11.23 M0 11.23 C0.13 8.52, 0.22 5.45, 0 3.74 M0 11.23 C-0.14 9.5, -0.12 7.45, 0 3.74 M0 3.74 C-0.13 1.95, 0.38 -0.23, 3.74 0 M0 3.74 C0.02 1.2, 0.15 0.85, 3.74 0" stroke="#1e1e1e" stroke-width="2" fill="none"></path></g><g stroke-linecap="round" transform="translate(13.651426600190007 32.545724255215646) rotate(0 42.630859375 38.322265625)"><path d="M19.16 0 C25.53 3.81, 40.26 3.1, 66.1 0 C78.06 -0.23, 84.09 2.85, 85.26 19.16 C82.91 26.48, 86.99 38.61, 85.26 57.48 C88.81 66.98, 78.7 79.44, 66.1 76.64 C55.47 77.86, 40.67 76.1, 19.16 76.64 C8.39 76.28, 1.34 72.55, 0 57.48 C1.58 46.26, 2.03 33.48, 0 19.16 C-2.6 6.53, 3.61 -2.46, 19.16 0" stroke="none" stroke-width="0" fill="#a18072"></path><path d="M19.16 0 C34.12 1.7, 50.52 -1.7, 66.1 0 M19.16 0 C33.94 -0.2, 49 -0.35, 66.1 0 M66.1 0 C76.93 1.61, 85.44 7.97, 85.26 19.16 M66.1 0 C80.49 0.24, 83.81 5.79, 85.26 19.16 M85.26 19.16 C84.14 33.77, 83.69 45.02, 85.26 57.48 M85.26 19.16 C85.91 29.58, 85.11 39.71, 85.26 57.48 M85.26 57.48 C84.81 71.91, 79.28 76.14, 66.1 76.64 M85.26 57.48 C86.01 72.25, 77.21 78.62, 66.1 76.64 M66.1 76.64 C51.29 77.52, 36.2 78.39, 19.16 76.64 M66.1 76.64 C51.19 76.82, 35.03 76.52, 19.16 76.64 M19.16 76.64 C5.74 74.96, -1.98 69.33, 0 57.48 M19.16 76.64 C7.78 75.13, 2.15 69.55, 0 57.48 M0 57.48 C1 47.48, -1.28 34.78, 0 19.16 M0 57.48 C-0.48 42.94, 0.21 30.74, 0 19.16 M0 19.16 C-1.73 5.93, 6.41 -0.08, 19.16 0 M0 19.16 C-2.2 8.09, 5.81 -1.2, 19.16 0" stroke="#1e1e1e" stroke-width="2" fill="none"></path></g><g stroke-linecap="round" transform="translate(13.186373760761398 31.768827916034752) rotate(47.524435689906944 13.974609375 10.47265625)"><path d="M5.24 0 C14.63 1.5, 18.76 1.89, 22.71 0 C26.51 -2.6, 28.09 -1.03, 27.95 5.24 C27.13 7.16, 28.43 9.15, 27.95 15.71 C30.8 22.44, 28.06 22.93, 22.71 20.95 C16.09 19.01, 9.68 21.71, 5.24 20.95 C2.05 24.28, 2.63 20.65, 0 15.71 C-0.06 10.59, 1 8.4, 0 5.24 C3.01 5.03, 2.73 -0.36, 5.24 0" stroke="none" stroke-width="0" fill="#a5d8ff"></path><path d="M5.24 0 C10.57 -0.32, 18.55 0.42, 22.71 0 M5.24 0 C9.4 0.6, 15.13 -0.47, 22.71 0 M22.71 0 C26.94 0.82, 28.65 3.11, 27.95 5.24 M22.71 0 C28.01 0.7, 28.41 2.92, 27.95 5.24 M27.95 5.24 C27.56 8.68, 27.06 11.75, 27.95 15.71 M27.95 5.24 C28.5 7.73, 27.89 10.72, 27.95 15.71 M27.95 15.71 C29.21 20.32, 26.79 19.79, 22.71 20.95 M27.95 15.71 C26.2 20.54, 24.15 21.98, 22.71 20.95 M22.71 20.95 C20.13 19.41, 14.68 20.95, 5.24 20.95 M22.71 20.95 C17.32 20.62, 11.59 21.49, 5.24 20.95 M5.24 20.95 C-0.16 18.96, 1.67 19.88, 0 15.71 M5.24 20.95 C3.21 20.43, -0.15 18.45, 0 15.71 M0 15.71 C0.91 13.03, -0.6 12.1, 0 5.24 M0 15.71 C-0.13 12.88, -0.42 9.15, 0 5.24 M0 5.24 C0.65 2.1, 2.27 -1.61, 5.24 0 M0 5.24 C-0.52 3.03, 1.51 0.85, 5.24 0" stroke="#1e1e1e" stroke-width="2" fill="none"></path></g><g stroke-linecap="round" transform="translate(28.105044809020455 46.22262049353867) rotate(47.524435689906944 25.4296875 23.859375)"><path d="M33.06 0.21 C38.03 1.36, 43.49 6.31, 46.55 10.73 C49.6 15.14, 52.22 21.48, 51.42 26.73 C50.62 31.98, 45.93 38.58, 41.75 42.24 C37.56 45.9, 31.8 48.64, 26.3 48.69 C20.81 48.75, 12.95 45.98, 8.79 42.55 C4.62 39.13, 2.3 33.07, 1.31 28.13 C0.32 23.19, 0.36 17.26, 2.84 12.9 C5.31 8.54, 10.32 3.56, 16.17 1.96 C22.03 0.37, 33.38 2.44, 37.95 3.31 C42.53 4.19, 43.63 6.74, 43.61 7.22 M28.39 0.48 C33.63 0.37, 40.8 3.54, 44.35 7.09 C47.9 10.65, 49.55 16.91, 49.68 21.81 C49.81 26.71, 48.05 32.38, 45.12 36.49 C42.2 40.6, 37.31 45.05, 32.13 46.48 C26.95 47.92, 18.95 47.31, 14.05 45.1 C9.16 42.89, 4.77 37.56, 2.77 33.23 C0.77 28.89, 0.58 23.74, 2.05 19.07 C3.52 14.39, 7.12 8.36, 11.59 5.16 C16.06 1.96, 26.27 0.63, 28.88 -0.13 C31.49 -0.89, 27.65 0.14, 27.25 0.61" stroke="none" stroke-width="0" fill="#a5d8ff"></path><path d="M28.84 -0.6 C34.21 -0.42, 40.9 3.69, 44.5 7.54 C48.1 11.38, 50.1 17.35, 50.43 22.45 C50.76 27.56, 49.49 33.93, 46.48 38.14 C43.47 42.36, 37.67 46.53, 32.38 47.77 C27.08 49, 19.63 47.8, 14.69 45.55 C9.76 43.3, 5.06 38.97, 2.76 34.27 C0.46 29.57, -0.45 22.43, 0.88 17.36 C2.22 12.28, 5.52 6.69, 10.75 3.82 C15.97 0.94, 27.83 0.07, 32.22 0.11 C36.62 0.15, 37.22 3.35, 37.13 4.05 M22.49 1.12 C27.69 -0.15, 34.74 -0.07, 39.05 2.58 C43.37 5.24, 46.91 11.95, 48.36 17.05 C49.82 22.15, 49.78 28.76, 47.79 33.17 C45.81 37.59, 41.03 41.02, 36.45 43.54 C31.86 46.07, 25.64 49.17, 20.28 48.32 C14.92 47.47, 7.68 42.63, 4.31 38.46 C0.93 34.29, -0.07 28.16, 0.03 23.29 C0.12 18.43, 1.34 13.22, 4.87 9.25 C8.39 5.28, 18.6 0.8, 21.17 -0.5 C23.75 -1.8, 20.41 1.19, 20.3 1.47" stroke="#1e1e1e" stroke-width="2" fill="none"></path></g></svg>