<svg version="1.1" xmlns="http://www.w3.org/2000/svg" viewBox="0 0 116.9010881696413 140.84223780150205" width="116.9010881696413" height="140.84223780150205">
  <!-- svg-source:excalidraw -->
  
  <defs>
    <style class="style-fonts">
      @font-face {
        font-family: "Virgil";
        src: url("https://excalidraw.com/Virgil.woff2");
      }
      @font-face {
        font-family: "Cascadia";
        src: url("https://excalidraw.com/Cascadia.woff2");
      }
      @font-face {
        font-family: "Assistant";
        src: url("https://excalidraw.com/Assistant-Regular.woff2");
      }
    </style>
    
  </defs>
  <g stroke-linecap="round" transform="translate(45.694234476459314 109.06643921733757) rotate(22.461246866865288 19.283203125 7.48828125)"><path d="M3.74 0 C12.05 0.38, 21.46 -2.14, 34.82 0 C39.25 -0.65, 37.21 -1.05, 38.57 3.74 C39.29 6.68, 39.09 8.73, 38.57 11.23 C38.4 12.88, 34.76 13.67, 34.82 14.98 C25.64 16.29, 19.94 17.32, 3.74 14.98 C-1.12 14.85, 2.02 12.17, 0 11.23 C0.22 8.34, -0.25 7.56, 0 3.74 C-0.26 2.21, 2.9 0.45, 3.74 0" stroke="none" stroke-width="0" fill="#868e96"></path><path d="M3.74 0 C12.54 -0.49, 20.63 -0.47, 34.82 0 M3.74 0 C15.72 0.25, 27.57 -0.24, 34.82 0 M34.82 0 C38.32 -0.51, 37.86 1.48, 38.57 3.74 M34.82 0 C37.28 0.94, 38.13 1.46, 38.57 3.74 M38.57 3.74 C38.87 5.67, 38.86 7.78, 38.57 11.23 M38.57 3.74 C38.65 5.99, 38.42 8.3, 38.57 11.23 M38.57 11.23 C38.99 13.02, 36.48 14.7, 34.82 14.98 M38.57 11.23 C39.34 14.48, 37.77 14.94, 34.82 14.98 M34.82 14.98 C27.59 15.14, 18.46 15.27, 3.74 14.98 M34.82 14.98 C22.97 14.93, 10.97 15.32, 3.74 14.98 M3.74 14.98 C1.6 15.66, 0.78 14.03, 0 11.23 M3.74 14.98 C1.48 15.56, 0.7 13.65, 0 11.23 M0 11.23 C-0.3 8.64, -0.16 7.01, 0 3.74 M0 11.23 C-0.08 9.54, 0.08 7.83, 0 3.74 M0 3.74 C0.3 0.67, 0.49 0.58, 3.74 0 M0 3.74 C-1.03 1.77, 0.31 -0.94, 3.74 0" stroke="#1e1e1e" stroke-width="2" fill="none"></path></g><g stroke-linecap="round" transform="translate(45.508362080625375 16.919422171883525) rotate(22.923355211056883 19.283203125 7.48828125)"><path d="M3.74 0 C10.28 -2.49, 18.94 -0.65, 34.82 0 C35.96 -2.29, 39.81 -1.23, 38.57 3.74 C39.27 5.03, 38.59 6.43, 38.57 11.23 C36.01 12.42, 35.84 17.11, 34.82 14.98 C27.41 17.78, 17.18 15.09, 3.74 14.98 C3.27 13.42, -0.49 14.57, 0 11.23 C-0.25 9.4, -0.12 6.84, 0 3.74 C1.66 1.69, 2.3 2.51, 3.74 0" stroke="none" stroke-width="0" fill="#868e96"></path><path d="M3.74 0 C10.14 -0.48, 18.75 1.05, 34.82 0 M3.74 0 C12.12 -0.37, 20.37 -0.31, 34.82 0 M34.82 0 C36.62 0.23, 38.53 2.06, 38.57 3.74 M34.82 0 C36.89 0.22, 38.02 1.28, 38.57 3.74 M38.57 3.74 C38.89 5.53, 38.64 6.55, 38.57 11.23 M38.57 3.74 C38.46 5.71, 38.67 7.72, 38.57 11.23 M38.57 11.23 C37.73 13.45, 37.99 15.63, 34.82 14.98 M38.57 11.23 C39.02 13.69, 36.85 14.58, 34.82 14.98 M34.82 14.98 C25.94 15.33, 18.44 14.28, 3.74 14.98 M34.82 14.98 C23.01 15.13, 11.01 15.26, 3.74 14.98 M3.74 14.98 C2.03 15.28, 0.2 14.24, 0 11.23 M3.74 14.98 C1.95 14.9, -0.03 13.31, 0 11.23 M0 11.23 C-0.14 9.45, -0.22 7.57, 0 3.74 M0 11.23 C0.13 9.32, 0.06 7.09, 0 3.74 M0 3.74 C-0.76 1.83, 0.35 0.45, 3.74 0 M0 3.74 C-0.94 0.31, 1.09 0.81, 3.74 0" stroke="#1e1e1e" stroke-width="2" fill="none"></path></g><g stroke-linecap="round" transform="translate(21.639369419641298 32.545724255215646) rotate(0 42.630859375 38.322265625)"><path d="M19.16 0 C35.98 -0.09, 45.57 -2.37, 66.1 0 C80.59 -3.43, 81.69 9.39, 85.26 19.16 C85.47 30.79, 82.16 42.94, 85.26 57.48 C83.21 73.2, 76.92 74.39, 66.1 76.64 C45.98 77.3, 35.21 75.32, 19.16 76.64 C5.71 77.81, 0.64 71.2, 0 57.48 C-0.21 50.41, 2.45 41.29, 0 19.16 C1.46 9.86, 8.25 0.93, 19.16 0" stroke="none" stroke-width="0" fill="#a18072"></path><path d="M19.16 0 C32 2.19, 40.9 1.17, 66.1 0 M19.16 0 C36.01 -0.22, 50.16 0.52, 66.1 0 M66.1 0 C78.81 1.63, 84.51 6.76, 85.26 19.16 M66.1 0 C77.78 0.07, 83.03 8.24, 85.26 19.16 M85.26 19.16 C85.77 29.75, 85.05 44.04, 85.26 57.48 M85.26 19.16 C85.42 28.42, 84.16 38.82, 85.26 57.48 M85.26 57.48 C86.6 71.57, 79.67 76.58, 66.1 76.64 M85.26 57.48 C84.32 69.47, 78.36 78.55, 66.1 76.64 M66.1 76.64 C52.81 75.35, 37.77 77.46, 19.16 76.64 M66.1 76.64 C54.06 77.52, 42.1 77.14, 19.16 76.64 M19.16 76.64 C6.79 77.67, 1.21 70.12, 0 57.48 M19.16 76.64 C6.32 75.8, -0.74 68.32, 0 57.48 M0 57.48 C-1.14 51.65, -0.44 41.62, 0 19.16 M0 57.48 C0.05 44.18, -1 32.63, 0 19.16 M0 19.16 C-1.79 7.29, 4.75 -1.64, 19.16 0 M0 19.16 C-0.31 8.01, 4.4 -0.53, 19.16 0" stroke="#1e1e1e" stroke-width="2" fill="none"></path></g><g stroke-linecap="round" transform="translate(10 59.76933318646752) rotate(0 13.974609375 10.47265625)"><path d="M5.24 0 C11.65 -2.47, 17.65 -2.63, 22.71 0 C23.74 0.2, 26.96 0.16, 27.95 5.24 C29.49 9.8, 28.97 12, 27.95 15.71 C30.99 18.68, 25.44 21.05, 22.71 20.95 C18.78 23.94, 16.61 22.3, 5.24 20.95 C4.78 19.61, -3.03 18.95, 0 15.71 C1.48 14.89, 0.42 10.45, 0 5.24 C1.38 -0.4, 3.48 2.25, 5.24 0" stroke="none" stroke-width="0" fill="#a5d8ff"></path><path d="M5.24 0 C9.64 0.53, 16.45 -1.3, 22.71 0 M5.24 0 C12.3 0.42, 19.03 0.66, 22.71 0 M22.71 0 C27.77 0.61, 28.35 2.77, 27.95 5.24 M22.71 0 C27.6 -0.16, 27.88 0.9, 27.95 5.24 M27.95 5.24 C27.38 8.67, 27.17 11.82, 27.95 15.71 M27.95 5.24 C28.25 8.35, 28.08 10.57, 27.95 15.71 M27.95 15.71 C26.43 20.36, 24.42 21.85, 22.71 20.95 M27.95 15.71 C26.07 17.32, 25.9 22.57, 22.71 20.95 M22.71 20.95 C18.91 19.28, 16.55 20.51, 5.24 20.95 M22.71 20.95 C17.55 20.16, 14.78 21.32, 5.24 20.95 M5.24 20.95 C3.02 20.49, -0.13 18.55, 0 15.71 M5.24 20.95 C-0.51 19.79, -1.31 21.08, 0 15.71 M0 15.71 C0.15 14.17, -0.89 10.51, 0 5.24 M0 15.71 C0.23 11.85, 0.2 7.38, 0 5.24 M0 5.24 C-0.45 2.86, 1.54 0.74, 5.24 0 M0 5.24 C1.46 2.14, 2.68 2.22, 5.24 0" stroke="#1e1e1e" stroke-width="2" fill="none"></path></g><g stroke-linecap="round" transform="translate(36.888671875 45.73027068646752) rotate(0 25.4296875 23.859375)"><path d="M14.26 2.28 C18.65 -0.09, 24.82 -0.21, 30.03 1.1 C35.24 2.4, 42.2 6.2, 45.52 10.11 C48.83 14.02, 50 19.74, 49.94 24.59 C49.87 29.43, 48.66 35.31, 45.15 39.18 C41.63 43.05, 34.34 46.93, 28.84 47.8 C23.35 48.67, 16.91 47.18, 12.18 44.39 C7.45 41.6, 2.09 35.98, 0.46 31.06 C-1.18 26.14, -0.24 19.65, 2.39 14.87 C5.01 10.1, 13.48 4.58, 16.19 2.41 C18.89 0.23, 18.35 1.47, 18.61 1.82 M27.62 0.26 C32.45 0.39, 39.11 3, 42.99 6.68 C46.87 10.37, 50.59 17.15, 50.92 22.36 C51.25 27.58, 48.23 33.95, 44.97 37.95 C41.71 41.96, 36.36 44.99, 31.35 46.4 C26.34 47.8, 19.68 48.48, 14.91 46.39 C10.14 44.3, 4.81 38.84, 2.72 33.85 C0.64 28.87, 0.98 21.52, 2.43 16.51 C3.88 11.5, 7.18 6.49, 11.41 3.8 C15.64 1.12, 24.87 0.89, 27.81 0.39 C30.75 -0.11, 28.71 0.25, 29.04 0.8" stroke="none" stroke-width="0" fill="#a5d8ff"></path><path d="M16.07 1.91 C20.72 -0.09, 28.92 -0.07, 34.24 1.69 C39.55 3.44, 45.21 8.08, 47.97 12.45 C50.74 16.82, 51.74 22.89, 50.83 27.91 C49.93 32.92, 46.72 39.25, 42.53 42.55 C38.34 45.85, 31.28 47.78, 25.68 47.69 C20.09 47.6, 13.31 45.4, 8.96 42.01 C4.62 38.61, 0.63 32.18, -0.4 27.31 C-1.43 22.44, -0.99 17.17, 2.78 12.8 C6.56 8.42, 17.85 3.09, 22.24 1.05 C26.64 -0.99, 28.95 0.2, 29.16 0.55 M31.33 1.81 C36.1 3.12, 42.16 7.33, 45.19 11.22 C48.22 15.11, 49.88 20.01, 49.49 25.16 C49.1 30.31, 46.8 38.41, 42.87 42.1 C38.93 45.8, 31.27 47.15, 25.87 47.32 C20.47 47.48, 14.9 45.85, 10.47 43.08 C6.05 40.32, 0.69 35.79, -0.69 30.71 C-2.06 25.63, -0.2 17.25, 2.22 12.59 C4.63 7.93, 8.99 4.96, 13.8 2.76 C18.6 0.57, 27.75 -0.41, 31.04 -0.56 C34.34 -0.7, 33.3 1.33, 33.58 1.9" stroke="#1e1e1e" stroke-width="2" fill="none"></path></g></svg>