<svg version="1.1" xmlns="http://www.w3.org/2000/svg" viewBox="0 0 105.26171875 140.84223780150205" width="105.26171875" height="140.84223780150205">
  <!-- svg-source:excalidraw -->
  
  <defs>
    <style class="style-fonts">
      @font-face {
        font-family: "Virgil";
        src: url("https://excalidraw.com/Virgil.woff2");
      }
      @font-face {
        font-family: "Cascadia";
        src: url("https://excalidraw.com/Cascadia.woff2");
      }
      @font-face {
        font-family: "Assistant";
        src: url("https://excalidraw.com/Assistant-Regular.woff2");
      }
    </style>
    
  </defs>
  <g stroke-linecap="round" transform="translate(34.05486505681802 109.06643921733757) rotate(22.461246866865288 19.283203125 7.48828125)"><path d="M3.74 0 C10.99 1.32, 15.88 -0.5, 34.82 0 C36.47 -2.55, 37.26 -0.23, 38.57 3.74 C39.09 6.69, 39.47 8.58, 38.57 11.23 C38.44 15.75, 35.76 14.49, 34.82 14.98 C22.4 14.49, 15.62 14.82, 3.74 14.98 C2.21 16.63, 0.45 14.78, 0 11.23 C0.57 8.34, -0.75 5.33, 0 3.74 C-2 -0.53, 1.39 -0.72, 3.74 0" stroke="none" stroke-width="0" fill="#868e96"></path><path d="M3.74 0 C14.51 -0.86, 26.52 -0.19, 34.82 0 M3.74 0 C15.37 -0.01, 26.98 0.37, 34.82 0 M34.82 0 C37.41 0.79, 39.27 1.35, 38.57 3.74 M34.82 0 C36.59 -0.3, 39.25 0.79, 38.57 3.74 M38.57 3.74 C38.28 5.17, 38.45 7.47, 38.57 11.23 M38.57 3.74 C38.5 6.42, 38.54 9.37, 38.57 11.23 M38.57 11.23 C38.77 13.48, 37.64 15.84, 34.82 14.98 M38.57 11.23 C37.73 14.72, 37.7 14.56, 34.82 14.98 M34.82 14.98 C25.04 15.82, 14.2 15.23, 3.74 14.98 M34.82 14.98 C23.89 14.78, 12.83 14.54, 3.74 14.98 M3.74 14.98 C0.26 14.51, 0.6 13.07, 0 11.23 M3.74 14.98 C2.32 14.62, -0.27 14.1, 0 11.23 M0 11.23 C-0.24 8.23, 0.2 5.46, 0 3.74 M0 11.23 C0.01 8.78, -0.13 6.02, 0 3.74 M0 3.74 C0.01 1.21, 0.29 0.74, 3.74 0 M0 3.74 C-0.29 0.65, 0.23 0.55, 3.74 0" stroke="#1e1e1e" stroke-width="2" fill="none"></path></g><g stroke-linecap="round" transform="translate(33.868992660985896 16.919422171883525) rotate(22.923355211056883 19.283203125 7.48828125)"><path d="M3.74 0 C15.08 -0.42, 26.74 -2.81, 34.82 0 C36.01 -1.48, 40.69 -0.16, 38.57 3.74 C39.58 4.64, 38.58 8.06, 38.57 11.23 C37.01 13.24, 38.16 15.44, 34.82 14.98 C26.14 14.62, 15.51 16.54, 3.74 14.98 C1.69 16.03, 2.51 15.07, 0 11.23 C-0.76 8.83, -0.81 5.69, 0 3.74 C0.15 0.53, 0.11 -0.69, 3.74 0" stroke="none" stroke-width="0" fill="#868e96"></path><path d="M3.74 0 C16.4 0.08, 29.41 -0.27, 34.82 0 M3.74 0 C13.17 0.4, 23.61 0.39, 34.82 0 M34.82 0 C38.02 0.1, 37.94 0.99, 38.57 3.74 M34.82 0 C38 -0.46, 37.78 0.69, 38.57 3.74 M38.57 3.74 C38.44 6.56, 38.78 9.01, 38.57 11.23 M38.57 3.74 C38.51 6.12, 38.59 8.14, 38.57 11.23 M38.57 11.23 C38.89 14.6, 36.59 15.84, 34.82 14.98 M38.57 11.23 C38.95 13.31, 37.74 15.45, 34.82 14.98 M34.82 14.98 C24.72 15.3, 14.52 15.71, 3.74 14.98 M34.82 14.98 C25.55 14.5, 16.11 14.69, 3.74 14.98 M3.74 14.98 C1.85 14.32, 0.93 13.42, 0 11.23 M3.74 14.98 C0.98 15.34, 0.72 14.37, 0 11.23 M0 11.23 C0.24 8.43, 0.19 5.99, 0 3.74 M0 11.23 C-0.16 9.56, 0.01 7.96, 0 3.74 M0 3.74 C-0.96 1.99, 1 -0.52, 3.74 0 M0 3.74 C-1.01 1.8, 0.15 -1.14, 3.74 0" stroke="#1e1e1e" stroke-width="2" fill="none"></path></g><g stroke-linecap="round" transform="translate(10 32.545724255215646) rotate(0 42.630859375 38.322265625)"><path d="M19.16 0 C35.06 -3.48, 51.49 -2, 66.1 0 C81.82 -1.95, 83.01 8.51, 85.26 19.16 C85.77 33.78, 83.78 42.13, 85.26 57.48 C86.42 70.9, 79.82 73.74, 66.1 76.64 C54.42 78.85, 40.69 78.02, 19.16 76.64 C9.86 78.5, 0.93 72.56, 0 57.48 C-2.28 43.2, 0.7 32.85, 0 19.16 C-1.58 5.43, 7.28 -1.79, 19.16 0" stroke="none" stroke-width="0" fill="#a18072"></path><path d="M19.16 0 C31.58 -0.74, 41.1 -0.94, 66.1 0 M19.16 0 C33.47 0.41, 48.3 -0.27, 66.1 0 M66.1 0 C77.61 -0.52, 86.45 5.59, 85.26 19.16 M66.1 0 C77.31 -1.11, 86.23 4.76, 85.26 19.16 M85.26 19.16 C86.47 28.24, 85.09 34.92, 85.26 57.48 M85.26 19.16 C85.38 29.09, 85.5 40.39, 85.26 57.48 M85.26 57.48 C83.81 71.98, 79.54 75.93, 66.1 76.64 M85.26 57.48 C86.11 71.2, 79.68 78.21, 66.1 76.64 M66.1 76.64 C49.36 77.95, 30.43 76.68, 19.16 76.64 M66.1 76.64 C52.75 75.79, 41.98 75.59, 19.16 76.64 M19.16 76.64 C8.25 76.03, -0.47 70.9, 0 57.48 M19.16 76.64 C7.83 77.94, 0.68 68.92, 0 57.48 M0 57.48 C0.68 47.27, -1.86 40.05, 0 19.16 M0 57.48 C0.34 43.24, -0.63 29.82, 0 19.16 M0 19.16 C-0.5 5.35, 4.62 0.95, 19.16 0 M0 19.16 C-2.19 4.1, 8.31 0.78, 19.16 0" stroke="#1e1e1e" stroke-width="2" fill="none"></path></g><g stroke-linecap="round" transform="translate(40.63070709740168 21.99483342197982) rotate(269.315648468081 13.974609375 10.47265625)"><path d="M5.24 0 C11.25 2.04, 15.47 1.31, 22.71 0 C29.68 1.86, 28.88 4.05, 27.95 5.24 C26.36 7.18, 27.92 11.18, 27.95 15.71 C26.37 18.24, 27.09 19.15, 22.71 20.95 C17.82 23.76, 9.01 20.44, 5.24 20.95 C1.85 18.8, 0.46 20.15, 0 15.71 C0.58 14.07, -0.88 7.66, 0 5.24 C-0.25 -0.34, 3.52 1.42, 5.24 0" stroke="none" stroke-width="0" fill="#a5d8ff"></path><path d="M5.24 0 C10.16 0.58, 12.74 -0.83, 22.71 0 M5.24 0 C10.05 -0.37, 14.8 0.61, 22.71 0 M22.71 0 C24.76 1.72, 28.61 1.03, 27.95 5.24 M22.71 0 C27.05 0.95, 28.75 3.31, 27.95 5.24 M27.95 5.24 C28.52 9.84, 27.91 13.13, 27.95 15.71 M27.95 5.24 C27.4 7.75, 28.23 10.41, 27.95 15.71 M27.95 15.71 C29.82 18.59, 25.73 21.58, 22.71 20.95 M27.95 15.71 C29.39 20.49, 26.88 19.61, 22.71 20.95 M22.71 20.95 C19.59 19.36, 13.45 20.55, 5.24 20.95 M22.71 20.95 C16.25 20.87, 8.92 21.55, 5.24 20.95 M5.24 20.95 C1.25 19.9, -1.76 20.15, 0 15.71 M5.24 20.95 C-0.45 18.66, 1.92 19.98, 0 15.71 M0 15.71 C-0.32 10.87, -0.5 7.5, 0 5.24 M0 15.71 C0.37 11.75, 0.57 7.23, 0 5.24 M0 5.24 C-0.1 3.3, 0.54 -0.38, 5.24 0 M0 5.24 C0.74 2.15, 2.35 -1.85, 5.24 0" stroke="#1e1e1e" stroke-width="2" fill="none"></path></g><g stroke-linecap="round" transform="translate(28.981305803574287 46.95692110629625) rotate(269.315648468081 25.4296875 23.859375)"><path d="M14.11 3.29 C18.68 0.65, 25.59 -0.33, 30.8 0.52 C36 1.37, 42.08 4.44, 45.33 8.42 C48.59 12.4, 50.39 19.23, 50.33 24.41 C50.26 29.59, 48.65 35.55, 44.94 39.5 C41.22 43.45, 33.56 47.21, 28.03 48.11 C22.51 49.02, 16.41 47.79, 11.78 44.92 C7.14 42.05, 1.75 36.05, 0.24 30.91 C-1.26 25.76, 0.05 18.9, 2.75 14.05 C5.44 9.2, 13.55 3.92, 16.4 1.81 C19.25 -0.3, 19.79 1.09, 19.83 1.37 M33.38 1.18 C38.58 2.37, 44.1 7.7, 47.11 11.96 C50.13 16.22, 52 21.87, 51.5 26.73 C50.99 31.59, 48.29 37.64, 44.06 41.14 C39.84 44.64, 31.92 47.55, 26.13 47.72 C20.35 47.89, 13.55 45.22, 9.34 42.14 C5.12 39.06, 2.08 34.08, 0.84 29.23 C-0.4 24.37, -0.52 17.66, 1.91 13.01 C4.34 8.36, 10.16 3.11, 15.45 1.32 C20.73 -0.47, 30.68 2.12, 33.62 2.27 C36.55 2.42, 33.16 2.09, 33.06 2.21" stroke="none" stroke-width="0" fill="#a5d8ff"></path><path d="M21.1 0.7 C26.12 -0.5, 32.43 0.91, 37.24 3.18 C42.04 5.45, 47.73 9.57, 49.93 14.32 C52.13 19.07, 52.35 26.65, 50.43 31.69 C48.51 36.72, 43.14 41.84, 38.43 44.53 C33.72 47.22, 27.38 48.49, 22.17 47.82 C16.95 47.15, 10.76 44.36, 7.12 40.51 C3.48 36.67, 0.51 29.9, 0.32 24.76 C0.13 19.62, 2.02 13.8, 5.99 9.68 C9.96 5.55, 20.52 1.56, 24.15 0 C27.78 -1.57, 27.88 0.06, 27.77 0.29 M20.99 0.18 C25.75 -0.99, 31.72 0.51, 36.51 3.03 C41.3 5.54, 47.45 10.8, 49.73 15.27 C52.02 19.75, 52.14 24.96, 50.23 29.86 C48.31 34.76, 43.09 41.62, 38.24 44.68 C33.39 47.74, 26.53 49.18, 21.11 48.23 C15.68 47.28, 9.23 42.64, 5.69 38.99 C2.14 35.33, 0.16 31.24, -0.16 26.28 C-0.48 21.32, 0.45 13.53, 3.75 9.25 C7.05 4.96, 17.19 1.75, 19.61 0.58 C22.03 -0.59, 18.24 1.95, 18.27 2.21" stroke="#1e1e1e" stroke-width="2" fill="none"></path></g></svg>