<svg version="1.1" xmlns="http://www.w3.org/2000/svg" viewBox="0 0 115.33858816964312 140.84223780150205" width="115.33858816964312" height="140.84223780150205">
  <!-- svg-source:excalidraw -->
  
  <defs>
    <style class="style-fonts">
      @font-face {
        font-family: "Virgil";
        src: url("https://excalidraw.com/Virgil.woff2");
      }
      @font-face {
        font-family: "Cascadia";
        src: url("https://excalidraw.com/Cascadia.woff2");
      }
      @font-face {
        font-family: "Assistant";
        src: url("https://excalidraw.com/Assistant-Regular.woff2");
      }
    </style>
    
  </defs>
  <g stroke-linecap="round" transform="translate(34.40642755681802 109.06643921733757) rotate(22.461246866865288 19.283203125 7.48828125)"><path d="M3.74 0 C11.6 2.33, 16.65 -0.36, 34.82 0 C39.34 -1.56, 38.08 2.09, 38.57 3.74 C38.37 6.67, 38.49 8.86, 38.57 11.23 C40.22 14.18, 38.37 17.49, 34.82 14.98 C24.11 13.36, 13.07 13.23, 3.74 14.98 C-0.53 15.12, -0.72 12.59, 0 11.23 C0.75 10.06, 0.48 7.67, 0 3.74 C2.19 0.87, 0.7 0.08, 3.74 0" stroke="none" stroke-width="0" fill="#868e96"></path><path d="M3.74 0 C10.84 0.69, 16.46 -0.64, 34.82 0 M3.74 0 C11.93 -0.18, 21 -0.29, 34.82 0 M34.82 0 C36.48 -0.27, 39.24 1.9, 38.57 3.74 M34.82 0 C37.77 -0.04, 38.1 0.85, 38.57 3.74 M38.57 3.74 C38.5 5.94, 38.92 7.63, 38.57 11.23 M38.57 3.74 C38.65 6.71, 38.64 9.65, 38.57 11.23 M38.57 11.23 C39.35 14.03, 37.52 15.49, 34.82 14.98 M38.57 11.23 C39.26 13.65, 37.28 14.56, 34.82 14.98 M34.82 14.98 C26.04 15.43, 17.52 15.76, 3.74 14.98 M34.82 14.98 C26.77 15.31, 18.23 14.74, 3.74 14.98 M3.74 14.98 C0.49 15.56, -0.89 14.18, 0 11.23 M3.74 14.98 C0.31 14.03, -0.15 14.54, 0 11.23 M0 11.23 C-0.01 9.28, 0.29 7.94, 0 3.74 M0 11.23 C-0.15 9.19, 0.19 7.58, 0 3.74 M0 3.74 C0.64 1.02, 1.18 -0.32, 3.74 0 M0 3.74 C-1.13 0.67, 0.59 0.94, 3.74 0" stroke="#1e1e1e" stroke-width="2" fill="none"></path></g><g stroke-linecap="round" transform="translate(34.22055516098408 16.919422171883525) rotate(22.923355211056883 19.283203125 7.48828125)"><path d="M3.74 0 C12.53 -0.52, 28.07 -1.96, 34.82 0 C36.83 0.84, 39.03 1.93, 38.57 3.74 C38.45 5.75, 39.16 7.2, 38.57 11.23 C39.62 16.24, 38.66 15.65, 34.82 14.98 C23.61 12.68, 10.41 14.83, 3.74 14.98 C0.53 13.83, -0.69 14.37, 0 11.23 C0.42 9.89, 0.74 7.34, 0 3.74 C-0.55 1.33, -0.3 0.34, 3.74 0" stroke="none" stroke-width="0" fill="#868e96"></path><path d="M3.74 0 C13.45 -0.74, 22.7 0.48, 34.82 0 M3.74 0 C12.04 -0.28, 19.49 -0.06, 34.82 0 M34.82 0 C37.99 0.65, 38.96 1.22, 38.57 3.74 M34.82 0 C36.85 -0.4, 38.31 2.2, 38.57 3.74 M38.57 3.74 C38.88 5.87, 38.88 8.66, 38.57 11.23 M38.57 3.74 C38.65 5.85, 38.73 7.76, 38.57 11.23 M38.57 11.23 C38.77 14.24, 37.93 14.91, 34.82 14.98 M38.57 11.23 C38.53 13.31, 36.95 14.01, 34.82 14.98 M34.82 14.98 C27.92 16, 22.03 14.83, 3.74 14.98 M34.82 14.98 C24.65 14.77, 13.81 15.35, 3.74 14.98 M3.74 14.98 C0.35 15.43, -0.82 12.91, 0 11.23 M3.74 14.98 C1.09 15.79, -1 13.46, 0 11.23 M0 11.23 C0.28 8.88, -0.19 6.39, 0 3.74 M0 11.23 C0.19 8.69, 0.15 5.98, 0 3.74 M0 3.74 C-0.06 0.92, 0.27 -0.5, 3.74 0 M0 3.74 C-0.66 2.19, 0.62 -0.72, 3.74 0" stroke="#1e1e1e" stroke-width="2" fill="none"></path></g><g stroke-linecap="round" transform="translate(10 32.194161755215646) rotate(0 42.630859375 38.322265625)"><path d="M19.16 0 C40.66 -2.12, 55.9 1.2, 66.1 0 C79.51 0.94, 82.36 5.57, 85.26 19.16 C87.49 33.41, 86.65 49.91, 85.26 57.48 C87.12 71.19, 81.18 76.95, 66.1 76.64 C52.94 76.2, 43.71 74.41, 19.16 76.64 C5.43 77.53, -1.79 73.11, 0 57.48 C2.68 42.02, -1.12 27.7, 0 19.16 C-2.14 6.85, 7.34 0.3, 19.16 0" stroke="none" stroke-width="0" fill="#a18072"></path><path d="M19.16 0 C36.02 1.48, 53.11 -1.07, 66.1 0 M19.16 0 C30.14 0.06, 43.46 0.99, 66.1 0 M66.1 0 C79.67 -0.06, 84.45 5.7, 85.26 19.16 M66.1 0 C78.36 1.9, 85.72 5.8, 85.26 19.16 M85.26 19.16 C87.31 32.56, 84.87 45.37, 85.26 57.48 M85.26 19.16 C86.18 32.54, 85.6 45.82, 85.26 57.48 M85.26 57.48 C86.48 70.12, 78.81 75.91, 66.1 76.64 M85.26 57.48 C84.52 68.32, 76.59 75.58, 66.1 76.64 M66.1 76.64 C48.57 76.61, 32.9 78.34, 19.16 76.64 M66.1 76.64 C48.62 76.95, 31.77 76.82, 19.16 76.64 M19.16 76.64 C4.75 75.01, -0.27 71.67, 0 57.48 M19.16 76.64 C4.4 76.11, 0.03 70.17, 0 57.48 M0 57.48 C-1.33 47.89, 0.67 39.92, 0 19.16 M0 57.48 C0.32 49.57, -0.38 41.78, 0 19.16 M0 19.16 C-1.96 5.38, 5.25 1.64, 19.16 0 M0 19.16 C-1.25 4.95, 7.74 0.2, 19.16 0" stroke="#1e1e1e" stroke-width="2" fill="none"></path></g><g stroke-linecap="round" transform="translate(77.38936941964312 58.64210104360882) rotate(0 13.974609375 10.47265625)"><path d="M5.24 0 C9.8 1.2, 16.11 1.01, 22.71 0 C23.3 -0.82, 29.96 1.38, 27.95 5.24 C28.83 10.59, 29.04 12.78, 27.95 15.71 C30.26 19.5, 23.61 21.09, 22.71 20.95 C17.95 19.58, 14.09 21.74, 5.24 20.95 C-0.05 23.8, 3.24 21.05, 0 15.71 C-0.56 12.05, -1.28 8.51, 0 5.24 C0.95 2.05, 5.08 2.63, 5.24 0" stroke="none" stroke-width="0" fill="#a5d8ff"></path><path d="M5.24 0 C8.68 -1.3, 12.67 0.63, 22.71 0 M5.24 0 C9.83 0.62, 13.59 0.02, 22.71 0 M22.71 0 C25.39 -0.69, 27.5 3.4, 27.95 5.24 M22.71 0 C26.66 -0.58, 28.69 3.74, 27.95 5.24 M27.95 5.24 C27.66 8.01, 28.47 10.37, 27.95 15.71 M27.95 5.24 C28.14 9.36, 28.35 12.91, 27.95 15.71 M27.95 15.71 C27.89 18.47, 25.56 19.26, 22.71 20.95 M27.95 15.71 C25.67 18.13, 27.59 19.43, 22.71 20.95 M22.71 20.95 C16.4 22, 9.94 21.42, 5.24 20.95 M22.71 20.95 C17.7 21.44, 13.54 20.33, 5.24 20.95 M5.24 20.95 C1.48 22.36, -1.73 18.74, 0 15.71 M5.24 20.95 C1.78 20.86, -2.2 20.91, 0 15.71 M0 15.71 C0.55 11.83, -0.99 10.82, 0 5.24 M0 15.71 C-0.1 12.04, -0.58 8.45, 0 5.24 M0 5.24 C-1.14 3.38, 0.66 -1.25, 5.24 0 M0 5.24 C1.35 1.94, 4.01 -2.09, 5.24 0" stroke="#1e1e1e" stroke-width="2" fill="none"></path></g><g stroke-linecap="round" transform="translate(27.590541294643117 44.60303854360882) rotate(0 25.4296875 23.859375)"><path d="M26.34 -0.25 C31.44 -0.51, 37.28 1.61, 41.38 4.8 C45.49 8, 50.15 13.59, 50.98 18.92 C51.81 24.25, 49.15 32.09, 46.37 36.76 C43.6 41.44, 39.31 45.4, 34.31 46.97 C29.3 48.54, 21.57 48.21, 16.35 46.16 C11.13 44.11, 5.74 39.2, 3 34.67 C0.26 30.14, -1.26 23.95, -0.09 18.99 C1.09 14.04, 5.51 7.99, 10.03 4.94 C14.55 1.89, 23.75 1.2, 27.02 0.68 C30.29 0.16, 29.76 1.5, 29.68 1.79 M35.54 2.04 C40.67 3.44, 45.92 6.92, 48.32 11.54 C50.73 16.15, 51.19 24.46, 49.94 29.75 C48.7 35.04, 44.94 40.24, 40.85 43.28 C36.76 46.31, 30.71 48.01, 25.39 47.96 C20.07 47.91, 13.01 46.39, 8.94 42.97 C4.88 39.56, 1.69 32.75, 1.01 27.47 C0.33 22.18, 2.28 15.64, 4.88 11.26 C7.48 6.88, 11.75 2.95, 16.59 1.2 C21.43 -0.55, 30.84 0.65, 33.9 0.75 C36.96 0.85, 35.02 1.33, 34.95 1.8" stroke="none" stroke-width="0" fill="#a5d8ff"></path><path d="M30.46 1.2 C35.82 2.12, 42.74 5.73, 46.13 9.58 C49.53 13.43, 51.17 19.3, 50.81 24.3 C50.45 29.31, 47.48 35.71, 43.97 39.61 C40.47 43.51, 35.16 46.89, 29.78 47.69 C24.4 48.49, 16.3 47.27, 11.69 44.41 C7.07 41.54, 3.6 35.36, 2.11 30.49 C0.61 25.63, 0.88 19.79, 2.72 15.24 C4.56 10.68, 8.12 5.48, 13.15 3.15 C18.18 0.83, 29.3 1.36, 32.89 1.28 C36.48 1.21, 34.82 2.33, 34.69 2.69 M31.82 0.23 C36.68 0.97, 42.78 4.65, 45.69 8.79 C48.6 12.94, 49.5 19.96, 49.29 25.1 C49.08 30.24, 47.77 35.96, 44.43 39.64 C41.08 43.31, 34.83 46.43, 29.2 47.16 C23.56 47.88, 15.17 46.65, 10.61 43.96 C6.06 41.27, 3.16 36.17, 1.85 31.01 C0.54 25.86, 0.84 17.68, 2.76 13.04 C4.69 8.39, 8.78 5.1, 13.4 3.17 C18.03 1.24, 27.67 1.98, 30.52 1.45 C33.37 0.93, 30.43 -0.44, 30.51 0.01" stroke="#1e1e1e" stroke-width="2" fill="none"></path></g></svg>