<svg version="1.1" xmlns="http://www.w3.org/2000/svg" viewBox="0 0 117.88881138392844 127.12357954545496" width="117.88881138392844" height="127.12357954545496">
  <!-- svg-source:excalidraw -->
  
  <defs>
    <style class="style-fonts">
      @font-face {
        font-family: "Virgil";
        src: url("https://excalidraw.com/Virgil.woff2");
      }
      @font-face {
        font-family: "Cascadia";
        src: url("https://excalidraw.com/Cascadia.woff2");
      }
      @font-face {
        font-family: "Assistant";
        src: url("https://excalidraw.com/Assistant-Regular.woff2");
      }
    </style>
    
  </defs>
  <g stroke-linecap="round" transform="translate(10 24.85274621212102) rotate(0 42.630859375 38.322265625)"><path d="M19.16 0 C31.21 -0.17, 42.71 -1.66, 66.1 0 C75.99 0.75, 88.29 3.33, 85.26 19.16 C87.33 32, 88.65 45.45, 85.26 57.48 C88.39 70.15, 80.82 74.61, 66.1 76.64 C55.52 78.12, 45.47 78.51, 19.16 76.64 C4.99 80, -0.28 71.23, 0 57.48 C-3.29 47.51, -1.14 37.36, 0 19.16 C-2.68 6.54, 8.82 -1.9, 19.16 0" stroke="none" stroke-width="0" fill="#7950f2"></path><path d="M19.16 0 C27.36 -1.46, 37.48 -0.76, 66.1 0 M19.16 0 C34.02 0.64, 46.77 0.75, 66.1 0 M66.1 0 C78.77 1.84, 83.78 6.1, 85.26 19.16 M66.1 0 C78.37 1.11, 82.99 6.75, 85.26 19.16 M85.26 19.16 C84.33 32.95, 84.54 44.8, 85.26 57.48 M85.26 19.16 C84.9 31.12, 86.5 43.81, 85.26 57.48 M85.26 57.48 C84.53 68.95, 78.25 75.97, 66.1 76.64 M85.26 57.48 C86.22 69.36, 81.14 75.89, 66.1 76.64 M66.1 76.64 C55.02 77.18, 46.72 75.15, 19.16 76.64 M66.1 76.64 C49.49 76.06, 32.92 77.33, 19.16 76.64 M19.16 76.64 C4.76 76.3, 0.03 72.25, 0 57.48 M19.16 76.64 C8.21 75.57, 1.5 69.65, 0 57.48 M0 57.48 C0.17 46.58, -1.18 33.23, 0 19.16 M0 57.48 C0.17 49.43, 0.07 41.9, 0 19.16 M0 19.16 C-0.61 7.54, 7.09 -0.82, 19.16 0 M0 19.16 C-1.23 4.24, 7.44 -0.48, 19.16 0" stroke="#1e1e1e" stroke-width="2" fill="none"></path></g><g stroke-linecap="round" transform="translate(33.86899266098453 102.14701704545496) rotate(0 19.283203125 7.48828125)"><path d="M3.74 0 C12.25 -1.58, 15.48 0.63, 34.82 0 C39.51 -2.21, 38.53 2.35, 38.57 3.74 C39.45 6.17, 39.46 6.72, 38.57 11.23 C39.97 12.26, 35.64 15.47, 34.82 14.98 C29.4 17.13, 20.81 17.65, 3.74 14.98 C1.04 15.68, -1.7 14.1, 0 11.23 C-0.2 8.49, -0.64 6.94, 0 3.74 C1.75 -0.12, -0.58 1.26, 3.74 0" stroke="none" stroke-width="0" fill="#868e96"></path><path d="M3.74 0 C11.99 -0.32, 20.91 -0.85, 34.82 0 M3.74 0 C12.64 0.27, 22.26 0.36, 34.82 0 M34.82 0 C36.58 -0.14, 38.35 1.73, 38.57 3.74 M34.82 0 C36.18 0.18, 38.78 2.24, 38.57 3.74 M38.57 3.74 C38.35 5.52, 38.59 7.14, 38.57 11.23 M38.57 3.74 C38.72 5.87, 38.47 7.61, 38.57 11.23 M38.57 11.23 C38.25 13.39, 37.73 14.59, 34.82 14.98 M38.57 11.23 C39.7 13.35, 36.42 13.84, 34.82 14.98 M34.82 14.98 C24.93 14.16, 14.1 14.98, 3.74 14.98 M34.82 14.98 C22.89 14.97, 10.6 14.74, 3.74 14.98 M3.74 14.98 C1.27 15.97, 0.79 13.26, 0 11.23 M3.74 14.98 C2 14.67, 0.37 14.46, 0 11.23 M0 11.23 C-0.18 8.5, -0.38 5.05, 0 3.74 M0 11.23 C-0.03 8.56, -0.05 6.05, 0 3.74 M0 3.74 C0.35 0.84, 0.72 -0.93, 3.74 0 M0 3.74 C0.52 1.01, 0.41 -0.73, 3.74 0" stroke="#1e1e1e" stroke-width="2" fill="none"></path></g><g stroke-linecap="round" transform="translate(34.05486505681802 10) rotate(0 19.283203125 7.48828125)"><path d="M3.74 0 C10.27 0.8, 23.16 -1.95, 34.82 0 C37.28 1.1, 35.97 2.53, 38.57 3.74 C39.5 6.25, 39.18 8.27, 38.57 11.23 C36.89 14.22, 34.96 15.32, 34.82 14.98 C22.55 17.7, 12.1 15.98, 3.74 14.98 C-0.45 15.35, -0.29 11.42, 0 11.23 C-0.7 9.23, 0.68 6.63, 0 3.74 C-1.83 2.51, 0.41 2.55, 3.74 0" stroke="none" stroke-width="0" fill="#868e96"></path><path d="M3.74 0 C10.64 -0.9, 17.47 0.75, 34.82 0 M3.74 0 C15.02 0.34, 25.98 -0.19, 34.82 0 M34.82 0 C37.1 0.48, 37.58 1.41, 38.57 3.74 M34.82 0 C37.54 0.99, 37.5 0.52, 38.57 3.74 M38.57 3.74 C38.59 6.87, 38.42 9.17, 38.57 11.23 M38.57 3.74 C38.53 5.85, 38.54 8.13, 38.57 11.23 M38.57 11.23 C38.98 13.34, 38.3 14.65, 34.82 14.98 M38.57 11.23 C37.67 12.6, 37.8 14.6, 34.82 14.98 M34.82 14.98 C25.51 14.82, 15.96 14.8, 3.74 14.98 M34.82 14.98 C28.13 14.94, 22.27 15.52, 3.74 14.98 M3.74 14.98 C2.04 14.51, 0.65 13.46, 0 11.23 M3.74 14.98 C1.62 15.71, 1.1 13.97, 0 11.23 M0 11.23 C-0.35 8.04, 0.22 5.33, 0 3.74 M0 11.23 C-0.05 9.35, 0.07 7.17, 0 3.74 M0 3.74 C-0.53 0.31, 1.7 -0.21, 3.74 0 M0 3.74 C-0.83 0.52, 0.36 0.44, 3.74 0" stroke="#343a40" stroke-width="2" fill="none"></path></g><g stroke-linecap="round" transform="translate(79.93959263392844 53.16670048701326) rotate(0 13.974609375 10.47265625)"><path d="M5.24 0 C12 -2.74, 13.43 1.27, 22.71 0 C22.61 1.78, 29.35 4.84, 27.95 5.24 C29.13 8.31, 26.9 13.86, 27.95 15.71 C24.68 19.68, 28.44 22.44, 22.71 20.95 C15.94 22.09, 7.62 21.69, 5.24 20.95 C1.35 17.75, -0.98 18.16, 0 15.71 C1.41 12.19, -1.19 11.58, 0 5.24 C-1.16 5.27, 3.24 0.58, 5.24 0" stroke="none" stroke-width="0" fill="#fcc2d7"></path><path d="M5.24 0 C9.68 1.36, 15.3 -1.14, 22.71 0 M5.24 0 C11.12 -0.28, 18.12 0.26, 22.71 0 M22.71 0 C24.23 0.32, 28.33 3.46, 27.95 5.24 M22.71 0 C24.08 -1.45, 29.76 0.53, 27.95 5.24 M27.95 5.24 C27.61 8.32, 27.93 13.76, 27.95 15.71 M27.95 5.24 C27.75 8.91, 28.13 12.73, 27.95 15.71 M27.95 15.71 C29.92 18.54, 24.64 18.98, 22.71 20.95 M27.95 15.71 C28.91 18.45, 26.59 22.63, 22.71 20.95 M22.71 20.95 C20.4 20.87, 13.47 20.87, 5.24 20.95 M22.71 20.95 C16.98 21.79, 11.9 20.51, 5.24 20.95 M5.24 20.95 C3.05 20.42, 0.65 20.47, 0 15.71 M5.24 20.95 C3.94 21.42, 2.1 18.13, 0 15.71 M0 15.71 C0.66 11.82, -0.25 7.94, 0 5.24 M0 15.71 C0.22 12.51, -0.25 9.26, 0 5.24 M0 5.24 C0.91 1.33, 0.29 -1.27, 5.24 0 M0 5.24 C-1.79 2.63, 1.22 1.41, 5.24 0" stroke="#1e1e1e" stroke-width="2" fill="none"></path></g><g stroke-linecap="round" transform="translate(30.14076450892844 39.12763798701326) rotate(0 25.4296875 23.859375)"><path d="M36.63 3.27 C41.18 4.96, 45.64 9.36, 47.91 13.96 C50.17 18.55, 51.75 25.89, 50.24 30.86 C48.73 35.82, 43.53 41.02, 38.83 43.74 C34.13 46.47, 27.29 47.78, 22.04 47.22 C16.79 46.66, 11.05 44.18, 7.31 40.39 C3.57 36.59, 0.13 29.53, -0.38 24.44 C-0.89 19.36, 0.93 13.95, 4.27 9.85 C7.61 5.75, 13.45 0.67, 19.64 -0.14 C25.82 -0.95, 36.99 3.32, 41.39 5 C45.78 6.68, 46.07 9.6, 46.01 9.93 M14.24 1.86 C18.94 -0.77, 27.98 -2.05, 33.53 -0.45 C39.07 1.16, 44.44 6.69, 47.51 11.47 C50.58 16.25, 52.53 23.24, 51.96 28.21 C51.38 33.18, 48.13 38.18, 44.06 41.28 C39.99 44.39, 33.36 46.52, 27.54 46.84 C21.72 47.16, 13.85 46.09, 9.14 43.18 C4.43 40.28, 0.19 34.33, -0.72 29.4 C-1.62 24.48, 0.83 18.31, 3.72 13.63 C6.61 8.94, 14.38 3.21, 16.62 1.3 C18.85 -0.6, 17.06 1.91, 17.11 2.21" stroke="none" stroke-width="0" fill="#fcc2d7"></path><path d="M17.07 0.9 C21.63 -1.18, 28.31 -0.56, 33.4 1.03 C38.49 2.62, 44.73 6.01, 47.62 10.44 C50.51 14.88, 51.48 22.55, 50.73 27.62 C49.98 32.68, 47.32 37.35, 43.1 40.83 C38.88 44.31, 31.1 48.12, 25.42 48.5 C19.74 48.88, 13.17 46.3, 9.03 43.1 C4.9 39.91, 1.67 34.57, 0.63 29.34 C-0.42 24.12, -0.9 16.48, 2.77 11.77 C6.44 7.06, 18.11 2.98, 22.65 1.08 C27.18 -0.81, 30.05 0.21, 29.99 0.39 M22.62 -0.15 C27.37 -1.42, 32.52 -0.8, 37.09 1.78 C41.65 4.36, 47.92 10.08, 50 15.32 C52.07 20.56, 51.74 28.22, 49.53 33.23 C47.33 38.24, 41.55 42.82, 36.77 45.38 C31.99 47.94, 26.01 49.87, 20.85 48.58 C15.69 47.29, 9.29 41.7, 5.8 37.64 C2.32 33.57, 0.1 29.09, -0.06 24.18 C-0.23 19.27, 1.28 11.89, 4.81 8.17 C8.35 4.45, 18.23 3.18, 21.17 1.84 C24.1 0.49, 22.19 0.04, 22.42 0.11" stroke="#1e1e1e" stroke-width="2" fill="none"></path></g></svg>