<svg version="1.1" xmlns="http://www.w3.org/2000/svg" viewBox="0 0 107.36794445733497 127.12357954545405" width="107.36794445733497" height="127.12357954545405">
  <!-- svg-source:excalidraw -->
  
  <defs>
    <style class="style-fonts">
      @font-face {
        font-family: "Virgil";
        src: url("https://excalidraw.com/Virgil.woff2");
      }
      @font-face {
        font-family: "Cascadia";
        src: url("https://excalidraw.com/Cascadia.woff2");
      }
      @font-face {
        font-family: "Assistant";
        src: url("https://excalidraw.com/Assistant-Regular.woff2");
      }
    </style>
    
  </defs>
  <g stroke-linecap="round" transform="translate(10 24.85274621212102) rotate(0 42.630859375 38.322265625)"><path d="M19.16 0 C39 4.19, 52.56 -1.06, 66.1 0 C81.82 -3.21, 83.61 3.52, 85.26 19.16 C85.74 29.11, 84.58 37.77, 85.26 57.48 C82.45 68.89, 79.76 79.63, 66.1 76.64 C55.44 76.95, 45.42 78.9, 19.16 76.64 C7.81 77.59, -3.09 70.51, 0 57.48 C-1.78 46.66, 0.76 37.78, 0 19.16 C3.15 5.48, 6.06 -2, 19.16 0" stroke="none" stroke-width="0" fill="#7950f2"></path><path d="M19.16 0 C37.87 1.51, 54.96 -0.92, 66.1 0 M19.16 0 C32.33 -0.99, 46.43 -0.3, 66.1 0 M66.1 0 C79.21 -0.58, 86 5.02, 85.26 19.16 M66.1 0 C78.45 1.4, 84.97 6.37, 85.26 19.16 M85.26 19.16 C84.66 32.49, 85.45 46.16, 85.26 57.48 M85.26 19.16 C84.26 28.25, 85.58 36.43, 85.26 57.48 M85.26 57.48 C86.33 70.3, 77.47 77.46, 66.1 76.64 M85.26 57.48 C87.5 68.39, 79.22 75.11, 66.1 76.64 M66.1 76.64 C50.06 76.18, 30.39 76.44, 19.16 76.64 M66.1 76.64 C52.44 77.31, 38.9 77.41, 19.16 76.64 M19.16 76.64 C5.68 75.06, -1.69 68.97, 0 57.48 M19.16 76.64 C6.93 77.14, -2.28 70.27, 0 57.48 M0 57.48 C1.48 46.01, 0.32 36.18, 0 19.16 M0 57.48 C0.04 46.09, 0.26 36.1, 0 19.16 M0 19.16 C-0.89 5.86, 6.52 0.17, 19.16 0 M0 19.16 C-1.74 7.82, 4.19 -1.12, 19.16 0" stroke="#1e1e1e" stroke-width="2" fill="none"></path></g><g stroke-linecap="round" transform="translate(33.86899266098453 102.14701704545405) rotate(0 19.283203125 7.48828125)"><path d="M3.74 0 C10.2 -1.61, 20.01 -2.72, 34.82 0 C36.13 -2.07, 37.57 -0.27, 38.57 3.74 C38.52 6.33, 37.83 9.33, 38.57 11.23 C39.21 15.88, 35.45 12.85, 34.82 14.98 C27.34 16.94, 19.81 15.73, 3.74 14.98 C-0.99 15.16, -2.28 14.92, 0 11.23 C0.33 8.56, 0.89 7.49, 0 3.74 C-0.23 -0.19, -1.13 -1.36, 3.74 0" stroke="none" stroke-width="0" fill="#868e96"></path><path d="M3.74 0 C14.06 -0.52, 24.2 0.46, 34.82 0 M3.74 0 C15.57 0.15, 28.03 -0.06, 34.82 0 M34.82 0 C37.69 -0.68, 38.38 1.86, 38.57 3.74 M34.82 0 C37.17 -0.01, 38.92 2.19, 38.57 3.74 M38.57 3.74 C38.53 6.38, 38.28 8.09, 38.57 11.23 M38.57 3.74 C38.66 6.33, 38.64 8.96, 38.57 11.23 M38.57 11.23 C37.86 14.13, 38.29 14.16, 34.82 14.98 M38.57 11.23 C38.74 12.96, 38.18 15.92, 34.82 14.98 M34.82 14.98 C22.56 14.6, 10.58 15.62, 3.74 14.98 M34.82 14.98 C22.74 15.24, 11.41 14.63, 3.74 14.98 M3.74 14.98 C0.4 14.33, 0.24 13.94, 0 11.23 M3.74 14.98 C0.11 14.98, -0.15 13.74, 0 11.23 M0 11.23 C0.03 8.88, -0.09 6.17, 0 3.74 M0 11.23 C0.03 9.69, -0.08 7.96, 0 3.74 M0 3.74 C0.07 1.33, 0.49 0.62, 3.74 0 M0 3.74 C-1.1 0.69, 1.99 0.03, 3.74 0" stroke="#1e1e1e" stroke-width="2" fill="none"></path></g><g stroke-linecap="round" transform="translate(34.05486505681802 10) rotate(0 19.283203125 7.48828125)"><path d="M3.74 0 C18.28 -2.13, 27.37 -1.88, 34.82 0 C36.33 -1.52, 41.1 1.88, 38.57 3.74 C37.8 5.6, 38.8 9.01, 38.57 11.23 C36.7 11.6, 36.23 15.01, 34.82 14.98 C25.96 15.95, 12.8 15.45, 3.74 14.98 C-1.03 16.17, -1.73 12.67, 0 11.23 C0.82 9.3, -0.12 7.32, 0 3.74 C-2.37 -0.12, 1.26 1.56, 3.74 0" stroke="none" stroke-width="0" fill="#868e96"></path><path d="M3.74 0 C15.6 0.65, 28.42 -0.68, 34.82 0 M3.74 0 C11.36 -0.16, 19 -0.36, 34.82 0 M34.82 0 C37.14 0.61, 38.44 1.24, 38.57 3.74 M34.82 0 C37.67 0.94, 38.7 0.72, 38.57 3.74 M38.57 3.74 C38.29 5.91, 38.74 8.47, 38.57 11.23 M38.57 3.74 C38.69 6.29, 38.46 8.9, 38.57 11.23 M38.57 11.23 C39.54 12.91, 37.47 14.31, 34.82 14.98 M38.57 11.23 C39.43 14.67, 38.32 15.88, 34.82 14.98 M34.82 14.98 C26.65 15.64, 19.62 14.41, 3.74 14.98 M34.82 14.98 C24.32 14.65, 13.75 14.72, 3.74 14.98 M3.74 14.98 C1.48 15.19, -0.99 13.73, 0 11.23 M3.74 14.98 C1.09 14.99, 0.36 14.58, 0 11.23 M0 11.23 C-0.07 9.06, -0.32 7.08, 0 3.74 M0 11.23 C-0.09 9.33, 0.01 7.54, 0 3.74 M0 3.74 C-0.75 1.87, 0.29 -0.49, 3.74 0 M0 3.74 C0.75 1.28, 0.41 0.87, 3.74 0" stroke="#343a40" stroke-width="2" fill="none"></path></g><g stroke-linecap="round" transform="translate(66.23235194657354 80.65939325744512) rotate(47.524435689906944 13.974609375000004 10.47265625)"><path d="M5.24 0 C8.23 -2.22, 12.9 -1.56, 22.71 0 C29.72 0.88, 27.86 1.47, 27.95 5.24 C28.27 9.51, 26.45 9.13, 27.95 15.71 C26.44 19.25, 26.86 21.69, 22.71 20.95 C13.5 21.25, 6.93 22.47, 5.24 20.95 C-0.65 19.48, -2.69 20.28, 0 15.71 C-0.33 12.52, -1.89 10.43, 0 5.24 C0.02 3.91, 5.31 -2.84, 5.24 0" stroke="none" stroke-width="0" fill="#fcc2d7"></path><path d="M5.24 0 C11.36 -1.39, 13.35 -1.06, 22.71 0 M5.24 0 C11 -0.55, 15.97 0.58, 22.71 0 M22.71 0 C25.95 -0.01, 28.57 3.38, 27.95 5.24 M22.71 0 C26.47 -1.05, 28.7 1.6, 27.95 5.24 M27.95 5.24 C28.38 8.53, 28.28 13.92, 27.95 15.71 M27.95 5.24 C27.64 8.45, 28.52 10.81, 27.95 15.71 M27.95 15.71 C28.25 17.87, 27.71 22.58, 22.71 20.95 M27.95 15.71 C29.94 21.01, 25.2 20.38, 22.71 20.95 M22.71 20.95 C19.29 20.15, 13.85 19.46, 5.24 20.95 M22.71 20.95 C16 20.24, 10.97 20.99, 5.24 20.95 M5.24 20.95 C-0.24 20.96, -0.27 19.22, 0 15.71 M5.24 20.95 C2.47 22.65, -0.56 19.57, 0 15.71 M0 15.71 C-0.87 12.14, -0.54 8.89, 0 5.24 M0 15.71 C0.08 12.23, -0.35 9, 0 5.24 M0 5.24 C-1.91 0.77, 3.04 0.06, 5.24 0 M0 5.24 C-1.67 3.48, 4.03 -0.54, 5.24 0" stroke="#1e1e1e" stroke-width="2" fill="none"></path></g><g stroke-linecap="round" transform="translate(28.403524648314487 39.43216317993938) rotate(47.524435689906944 25.429687500000007 23.859375)"><path d="M29.55 0.63 C34.57 1.08, 41.04 4.13, 44.45 7.92 C47.86 11.71, 49.97 18.18, 50 23.36 C50.04 28.55, 47.9 35.11, 44.67 39.02 C41.45 42.93, 35.96 45.87, 30.66 46.83 C25.35 47.79, 17.66 47.33, 12.85 44.8 C8.04 42.27, 3.58 36.61, 1.78 31.67 C-0.03 26.72, 0.33 19.75, 2 15.15 C3.68 10.55, 6.71 6.54, 11.83 4.06 C16.96 1.58, 28.63 0.36, 32.73 0.27 C36.83 0.18, 36.59 3.11, 36.42 3.53 M34.36 1.4 C39.31 3.41, 44.6 10, 47.3 14.66 C49.99 19.32, 51.67 24.75, 50.53 29.37 C49.39 34, 45.09 39.46, 40.46 42.42 C35.83 45.37, 28.08 47.1, 22.73 47.1 C17.37 47.1, 12.25 46.05, 8.31 42.42 C4.37 38.8, -0.12 30.64, -0.91 25.35 C-1.7 20.07, 0.36 14.74, 3.58 10.73 C6.81 6.72, 12.95 2.66, 18.46 1.3 C23.97 -0.06, 33.76 2.59, 36.64 2.56 C39.52 2.53, 36.08 1.07, 35.74 1.12" stroke="none" stroke-width="0" fill="#fcc2d7"></path><path d="M18.3 1.25 C23.06 -0.41, 30.14 -0.08, 35.25 1.95 C40.36 3.98, 46.5 8.73, 48.97 13.42 C51.44 18.11, 51.37 25.11, 50.05 30.1 C48.73 35.09, 45.56 40.39, 41.05 43.37 C36.55 46.35, 28.6 48.25, 23.02 47.97 C17.44 47.7, 11.52 45.5, 7.58 41.73 C3.64 37.96, -0.17 30.67, -0.61 25.34 C-1.05 20, 1.4 13.73, 4.93 9.7 C8.45 5.67, 17.75 2.58, 20.54 1.17 C23.32 -0.24, 21.63 1.1, 21.66 1.26 M30.78 -0.51 C35.86 0.58, 42.93 5.91, 46.49 10.28 C50.05 14.65, 52.6 20.87, 52.15 25.72 C51.7 30.56, 47.7 35.77, 43.79 39.34 C39.87 42.92, 33.78 46.17, 28.68 47.16 C23.57 48.15, 17.86 47.83, 13.16 45.28 C8.47 42.73, 2.64 36.79, 0.51 31.86 C-1.61 26.93, -1.64 20.73, 0.41 15.7 C2.46 10.66, 8 4.37, 12.81 1.68 C17.63 -1.02, 26.29 -0.41, 29.28 -0.48 C32.28 -0.54, 30.93 0.73, 30.81 1.28" stroke="#1e1e1e" stroke-width="2" fill="none"></path></g></svg>