<svg version="1.1" xmlns="http://www.w3.org/2000/svg" viewBox="0 0 105.26171875 129.26924987815602" width="105.26171875" height="129.26924987815602">
  <!-- svg-source:excalidraw -->
  
  <defs>
    <style class="style-fonts">
      @font-face {
        font-family: "Virgil";
        src: url("https://excalidraw.com/Virgil.woff2");
      }
      @font-face {
        font-family: "Cascadia";
        src: url("https://excalidraw.com/Cascadia.woff2");
      }
      @font-face {
        font-family: "Assistant";
        src: url("https://excalidraw.com/Assistant-Regular.woff2");
      }
    </style>
    
  </defs>
  <g stroke-linecap="round" transform="translate(10 24.852746212120962) rotate(0 42.630859375 38.322265625)"><path d="M19.16 0 C39.75 -1.85, 55.62 3.58, 66.1 0 C77.21 -2.18, 86.39 9.54, 85.26 19.16 C82.88 32.85, 86.48 43.93, 85.26 57.48 C87.13 73.02, 81.95 75.74, 66.1 76.64 C55.05 74.3, 41.13 78.9, 19.16 76.64 C9.71 79.37, -1.07 66.84, 0 57.48 C1.83 49.81, -3.07 37.95, 0 19.16 C-1.89 6.75, 9.65 2.78, 19.16 0" stroke="none" stroke-width="0" fill="#7950f2"></path><path d="M19.16 0 C28.49 -0.54, 39.58 1.86, 66.1 0 M19.16 0 C31.4 0.05, 43.63 -0.95, 66.1 0 M66.1 0 C79.83 1.39, 83.49 5.25, 85.26 19.16 M66.1 0 C80.72 2.2, 84.42 6.53, 85.26 19.16 M85.26 19.16 C84.9 33.37, 85.63 45.73, 85.26 57.48 M85.26 19.16 C84.49 27.2, 85.21 36.14, 85.26 57.48 M85.26 57.48 C85.16 68.83, 77.68 76.02, 66.1 76.64 M85.26 57.48 C86.62 71.86, 80.87 75.66, 66.1 76.64 M66.1 76.64 C49.77 77.7, 31.13 77.74, 19.16 76.64 M66.1 76.64 C47.46 76.7, 29.33 77.11, 19.16 76.64 M19.16 76.64 C8.29 75.02, -0.45 69.91, 0 57.48 M19.16 76.64 C6.84 75.77, -1.15 71.7, 0 57.48 M0 57.48 C-1.33 44.48, 1.52 34.33, 0 19.16 M0 57.48 C-0.2 45.24, -1.24 31.16, 0 19.16 M0 19.16 C-1.56 8.21, 7.63 -0.65, 19.16 0 M0 19.16 C0.46 7.16, 6.09 0.09, 19.16 0" stroke="#1e1e1e" stroke-width="2" fill="none"></path></g><g stroke-linecap="round" transform="translate(33.86899266098453 102.1470170454549) rotate(0 19.283203125 7.48828125)"><path d="M3.74 0 C11.68 2.37, 16.12 -1.29, 34.82 0 C38.13 2.28, 38.45 -0.41, 38.57 3.74 C38.96 6.19, 39.02 8.24, 38.57 11.23 C40.79 13.08, 37.11 15, 34.82 14.98 C28.48 16.62, 20.97 16.72, 3.74 14.98 C0.48 12.51, -1.96 12.33, 0 11.23 C-0.97 7.94, -0.55 5.99, 0 3.74 C2.36 3.25, 0.89 1.3, 3.74 0" stroke="none" stroke-width="0" fill="#868e96"></path><path d="M3.74 0 C10.08 0.81, 16.94 0.92, 34.82 0 M3.74 0 C14.4 -0.4, 25.7 0.3, 34.82 0 M34.82 0 C36.43 -0.57, 39.37 2.2, 38.57 3.74 M34.82 0 C36.9 0.07, 39.37 0.93, 38.57 3.74 M38.57 3.74 C38.65 5.86, 38.24 8.84, 38.57 11.23 M38.57 3.74 C38.49 6.34, 38.52 8.63, 38.57 11.23 M38.57 11.23 C37.97 13.42, 37.91 15.67, 34.82 14.98 M38.57 11.23 C39.56 13.24, 38.04 15.78, 34.82 14.98 M34.82 14.98 C26.52 15.73, 19.96 15.17, 3.74 14.98 M34.82 14.98 C27.88 15.48, 22.05 14.64, 3.74 14.98 M3.74 14.98 C1.02 14.8, 0.2 13.35, 0 11.23 M3.74 14.98 C0.67 15.7, 0.09 14.81, 0 11.23 M0 11.23 C0.37 9.33, 0.13 7.6, 0 3.74 M0 11.23 C-0.17 8.82, -0.15 6.93, 0 3.74 M0 3.74 C0.62 0.92, 1.45 0.33, 3.74 0 M0 3.74 C-0.15 1.29, 2.07 1.05, 3.74 0" stroke="#1e1e1e" stroke-width="2" fill="none"></path></g><g stroke-linecap="round" transform="translate(34.05486505681802 10) rotate(0 19.283203125 7.48828125)"><path d="M3.74 0 C9.68 -1.9, 18.82 1.95, 34.82 0 C37.2 -1.66, 37.27 -0.15, 38.57 3.74 C39.12 7.23, 39.44 8.98, 38.57 11.23 C38.36 13.75, 36.31 16.9, 34.82 14.98 C29.64 17.24, 18.88 12.8, 3.74 14.98 C-0.71 13.58, 1.46 14.78, 0 11.23 C-0.42 8.89, 0.98 7.1, 0 3.74 C-0.36 2.55, 2.17 0.22, 3.74 0" stroke="none" stroke-width="0" fill="#868e96"></path><path d="M3.74 0 C11.29 0.73, 20.03 -0.32, 34.82 0 M3.74 0 C14.17 0.46, 23.68 -0.17, 34.82 0 M34.82 0 C38.12 0.96, 38.2 1.31, 38.57 3.74 M34.82 0 C38.12 -0.32, 38.89 1.1, 38.57 3.74 M38.57 3.74 C38.26 6.18, 38.71 7.9, 38.57 11.23 M38.57 3.74 C38.55 5.7, 38.45 7.87, 38.57 11.23 M38.57 11.23 C39.16 14.42, 38.19 14.55, 34.82 14.98 M38.57 11.23 C39.29 14.53, 36.78 15.39, 34.82 14.98 M34.82 14.98 C24.37 15.17, 11.35 14.51, 3.74 14.98 M34.82 14.98 C24.54 14.71, 13.2 15.02, 3.74 14.98 M3.74 14.98 C1.45 14.6, -0.5 14.36, 0 11.23 M3.74 14.98 C1.34 16.06, -0.41 13.17, 0 11.23 M0 11.23 C0.08 9.76, -0.04 7.7, 0 3.74 M0 11.23 C-0.11 8.83, 0.15 6.02, 0 3.74 M0 3.74 C0.2 1.58, 1.12 0.04, 3.74 0 M0 3.74 C0.82 2.3, 0.31 1.01, 3.74 0" stroke="#343a40" stroke-width="2" fill="none"></path></g><g stroke-linecap="round" transform="translate(39.397448168828305 94.69789668007064) rotate(90.684351531919 13.974609375 10.47265625)"><path d="M5.24 0 C12.86 2.95, 18.38 -1.81, 22.71 0 C24.41 -1.94, 30.31 3.4, 27.95 5.24 C29.66 8.52, 27.9 12.77, 27.95 15.71 C26.56 21.86, 24.19 23.41, 22.71 20.95 C15.28 18.2, 7.35 19.49, 5.24 20.95 C3.77 22.4, 0.94 15.76, 0 15.71 C1.81 14.69, -0.16 11.72, 0 5.24 C1.28 2.05, 2.03 2.84, 5.24 0" stroke="none" stroke-width="0" fill="#fcc2d7"></path><path d="M5.24 0 C12.63 -0.5, 18.79 -0.86, 22.71 0 M5.24 0 C8.45 -0.62, 13.9 0.71, 22.71 0 M22.71 0 C25.47 0.13, 29.35 1.19, 27.95 5.24 M22.71 0 C26.85 -0.3, 27.98 2.29, 27.95 5.24 M27.95 5.24 C28.23 6.43, 27.65 9.39, 27.95 15.71 M27.95 5.24 C27.63 8.73, 28.25 12.91, 27.95 15.71 M27.95 15.71 C29.68 18.35, 27.47 22.34, 22.71 20.95 M27.95 15.71 C26.86 20.02, 27.67 19.93, 22.71 20.95 M22.71 20.95 C14.81 19.97, 10.74 19.86, 5.24 20.95 M22.71 20.95 C15.75 20.65, 9.35 20.47, 5.24 20.95 M5.24 20.95 C0.74 22.2, 0.15 21.09, 0 15.71 M5.24 20.95 C0.92 19.83, -1.4 21.37, 0 15.71 M0 15.71 C-0.05 12.48, 0.43 8.02, 0 5.24 M0 15.71 C0.41 13.4, 0.19 11.6, 0 5.24 M0 5.24 C-0.26 1.82, 3.17 1.83, 5.24 0 M0 5.24 C-1.88 3.77, 0.12 1.02, 5.24 0" stroke="#1e1e1e" stroke-width="2" fill="none"></path></g><g stroke-linecap="round" transform="translate(27.748046875 42.9623714957533) rotate(90.684351531919 25.4296875 23.859375)"><path d="M21.84 0.6 C27.01 -0.32, 33.78 1.48, 38.35 4 C42.93 6.52, 47.36 11.23, 49.27 15.73 C51.18 20.23, 51.8 26.35, 49.8 31.01 C47.81 35.67, 41.92 40.86, 37.29 43.69 C32.66 46.52, 27.3 48.7, 22.04 47.99 C16.77 47.29, 9.32 43.51, 5.7 39.48 C2.08 35.45, 0.3 28.87, 0.34 23.84 C0.37 18.81, 1.29 13.42, 5.91 9.32 C10.53 5.22, 23.37 0.64, 28.05 -0.76 C32.73 -2.16, 34.1 0.25, 34 0.91 M20.92 0.56 C25.88 -1.05, 31.42 -0.67, 35.93 1.81 C40.44 4.29, 45.57 10.46, 47.99 15.43 C50.41 20.4, 51.78 26.71, 50.47 31.63 C49.16 36.55, 44.61 42.38, 40.15 44.97 C35.69 47.56, 29.27 47.97, 23.71 47.18 C18.15 46.38, 10.83 43.69, 6.78 40.21 C2.74 36.74, -0.11 31.25, -0.54 26.31 C-0.97 21.38, 0.68 14.65, 4.22 10.6 C7.76 6.55, 17.91 3.68, 20.69 2.02 C23.46 0.36, 21.18 0.68, 20.86 0.65" stroke="none" stroke-width="0" fill="#fcc2d7"></path><path d="M21.01 -0.4 C26.04 -1.62, 32.12 1.15, 36.96 3.67 C41.79 6.19, 47.92 9.97, 50.03 14.71 C52.14 19.44, 51.55 27.13, 49.62 32.09 C47.7 37.05, 43.15 41.9, 38.48 44.46 C33.8 47.03, 26.89 48.42, 21.59 47.48 C16.28 46.53, 10.39 42.55, 6.65 38.8 C2.92 35.06, -0.7 30.13, -0.84 25.01 C-0.97 19.89, 1.71 12.28, 5.85 8.08 C9.99 3.88, 20.23 1.04, 24.02 -0.21 C27.81 -1.46, 28.67 0.23, 28.6 0.56 M22.8 -0.35 C27.88 -1.41, 35.19 1.64, 39.52 4.48 C43.85 7.32, 47.02 12.12, 48.78 16.67 C50.55 21.22, 51.79 26.9, 50.11 31.79 C48.43 36.68, 43.61 43.66, 38.7 46.03 C33.79 48.39, 26.32 47.05, 20.66 45.97 C15.01 44.89, 8.39 43.07, 4.79 39.53 C1.19 35.99, -1.42 30.14, -0.94 24.71 C-0.45 19.28, 4.01 11.06, 7.7 6.95 C11.38 2.84, 18.8 1.15, 21.17 0.02 C23.53 -1.1, 21.88 -0.41, 21.88 0.19" stroke="#1e1e1e" stroke-width="2" fill="none"></path></g></svg>