<svg version="1.1" xmlns="http://www.w3.org/2000/svg" viewBox="0 0 107.36794445733494 127.12357954545405" width="107.36794445733494" height="127.12357954545405">
  <!-- svg-source:excalidraw -->
  
  <defs>
    <style class="style-fonts">
      @font-face {
        font-family: "Virgil";
        src: url("https://excalidraw.com/Virgil.woff2");
      }
      @font-face {
        font-family: "Cascadia";
        src: url("https://excalidraw.com/Cascadia.woff2");
      }
      @font-face {
        font-family: "Assistant";
        src: url("https://excalidraw.com/Assistant-Regular.woff2");
      }
    </style>
    
  </defs>
  <g stroke-linecap="round" transform="translate(10 22.793594426406344) rotate(0 42.630859375 38.322265625)"><path d="M19.16 0 C28.76 0.24, 40.29 -3.4, 66.1 0 C81.28 3.51, 87.61 8.07, 85.26 19.16 C81.72 31.18, 84.02 42.06, 85.26 57.48 C85.28 73.6, 77.76 78.14, 66.1 76.64 C49.46 74.72, 28.78 79.9, 19.16 76.64 C3.87 79.65, -1.18 71.03, 0 57.48 C2.32 45.29, -1.8 31.83, 0 19.16 C2.3 5.06, 7.16 -0.34, 19.16 0" stroke="none" stroke-width="0" fill="#228be6"></path><path d="M19.16 0 C34.15 -1.26, 50.54 -0.9, 66.1 0 M19.16 0 C29.92 0.52, 40.53 -0.7, 66.1 0 M66.1 0 C79.5 -1.16, 86.22 4.7, 85.26 19.16 M66.1 0 C79.7 0.12, 83.7 6.21, 85.26 19.16 M85.26 19.16 C87.29 30.42, 83.6 36.91, 85.26 57.48 M85.26 19.16 C84.55 31.97, 86.4 44.3, 85.26 57.48 M85.26 57.48 C86.07 68.66, 80.49 77.81, 66.1 76.64 M85.26 57.48 C86.13 71.51, 77.59 78.7, 66.1 76.64 M66.1 76.64 C51.63 76.1, 34.34 75.49, 19.16 76.64 M66.1 76.64 C53.19 76.46, 41.36 77.79, 19.16 76.64 M19.16 76.64 C7.75 76.49, -0.5 70.43, 0 57.48 M19.16 76.64 C8.42 76.14, -1.95 69.2, 0 57.48 M0 57.48 C2.16 44.19, -0.46 33.88, 0 19.16 M0 57.48 C-0.2 43.72, 0.62 32.19, 0 19.16 M0 19.16 C-1.57 5.1, 6.85 1.79, 19.16 0 M0 19.16 C0.58 4.97, 6.09 -0.53, 19.16 0" stroke="#1e1e1e" stroke-width="2" fill="none"></path></g><g stroke-linecap="round" transform="translate(33.868992660984986 102.14701704545405) rotate(0 19.283203125 7.48828125)"><path d="M3.74 0 C12.26 -2.38, 25.36 2.49, 34.82 0 C39.01 1.21, 38.22 -0.6, 38.57 3.74 C38.28 6.37, 38.49 9.4, 38.57 11.23 C37.76 14.81, 39.56 13.83, 34.82 14.98 C25.69 17.33, 16.27 16.96, 3.74 14.98 C0.39 15.53, 0.97 12.52, 0 11.23 C-0.63 9.41, 0.57 7.11, 0 3.74 C0.56 1, 0.17 1.96, 3.74 0" stroke="none" stroke-width="0" fill="#868e96"></path><path d="M3.74 0 C14.71 -0.19, 26.8 0.99, 34.82 0 M3.74 0 C15.53 -0.31, 27.27 -0.43, 34.82 0 M34.82 0 C37.8 -0.84, 38.93 1.3, 38.57 3.74 M34.82 0 C36.54 -0.09, 37.98 2.05, 38.57 3.74 M38.57 3.74 C38.24 5.57, 38.69 8.12, 38.57 11.23 M38.57 3.74 C38.7 5.7, 38.61 7.37, 38.57 11.23 M38.57 11.23 C39.37 14.31, 37.69 15.52, 34.82 14.98 M38.57 11.23 C37.93 14.75, 37.81 14.64, 34.82 14.98 M34.82 14.98 C22.96 14.12, 10.29 13.98, 3.74 14.98 M34.82 14.98 C22.77 15.25, 11.04 14.85, 3.74 14.98 M3.74 14.98 C1 15.06, 0.88 13.51, 0 11.23 M3.74 14.98 C0.27 14.45, 0.08 12.94, 0 11.23 M0 11.23 C-0.17 9.27, 0.12 7.09, 0 3.74 M0 11.23 C0.08 9.44, -0.13 7.19, 0 3.74 M0 3.74 C0.23 2.15, 1.5 -0.62, 3.74 0 M0 3.74 C-0.15 0.98, 0.63 0.69, 3.74 0" stroke="#1e1e1e" stroke-width="2" fill="none"></path></g><g stroke-linecap="round" transform="translate(34.05486505681802 10) rotate(0 19.283203125 7.48828125)"><path d="M3.74 0 C15.16 2.89, 24.79 1.57, 34.82 0 C36.97 -1.85, 39.01 -0.96, 38.57 3.74 C38.55 7.11, 38.25 9.07, 38.57 11.23 C40.81 12.58, 36.52 16.06, 34.82 14.98 C25.12 17.54, 18.19 15.93, 3.74 14.98 C2.22 13.77, -1.27 15.17, 0 11.23 C0.68 8.47, 0.27 6.34, 0 3.74 C-1.08 3.21, 3.03 1.06, 3.74 0" stroke="none" stroke-width="0" fill="#868e96"></path><path d="M3.74 0 C10.96 0.96, 20.43 0.21, 34.82 0 M3.74 0 C15.93 -0.24, 28.05 -0.37, 34.82 0 M34.82 0 C37.68 0.05, 37.89 1.17, 38.57 3.74 M34.82 0 C36.73 0.8, 38.29 2.26, 38.57 3.74 M38.57 3.74 C38.62 6.87, 38.35 9.17, 38.57 11.23 M38.57 3.74 C38.68 6.16, 38.75 8.99, 38.57 11.23 M38.57 11.23 C38.94 14.27, 36.76 15.87, 34.82 14.98 M38.57 11.23 C39.06 13.4, 38.34 15.91, 34.82 14.98 M34.82 14.98 C26.63 13.93, 20.04 14.32, 3.74 14.98 M34.82 14.98 C27.69 15.05, 19.76 15.13, 3.74 14.98 M3.74 14.98 C2.13 14.76, -0.85 13.27, 0 11.23 M3.74 14.98 C1.33 14.19, -0.45 14.82, 0 11.23 M0 11.23 C0.17 9.32, -0.13 7.72, 0 3.74 M0 11.23 C-0.16 9.36, 0.03 7.9, 0 3.74 M0 3.74 C0.25 0.63, 1.12 -0.23, 3.74 0 M0 3.74 C-0.62 1.94, 1.48 -0.62, 3.74 0" stroke="#343a40" stroke-width="2" fill="none"></path></g><g stroke-linecap="round" transform="translate(66.23235194657354 80.65939325744512) rotate(47.524435689906944 13.974609375 10.47265625)"><path d="M5.24 0 C10.96 1.16, 12.17 -2.54, 22.71 0 C26.82 -3.05, 28.98 0.99, 27.95 5.24 C27.37 9.43, 29.58 11.23, 27.95 15.71 C26.84 20.7, 24.54 19.89, 22.71 20.95 C14.73 21.88, 9.99 19.74, 5.24 20.95 C-0.01 22.95, 0.74 17.08, 0 15.71 C0.28 12.33, -0.91 10.72, 0 5.24 C2.47 3.22, 1.74 -0.23, 5.24 0" stroke="none" stroke-width="0" fill="#d0bfff"></path><path d="M5.24 0 C11.36 0.14, 16.36 0.19, 22.71 0 M5.24 0 C10.3 -0.63, 14.84 0.15, 22.71 0 M22.71 0 C24.85 -0.15, 26.93 3.14, 27.95 5.24 M22.71 0 C25.66 2.03, 29.93 -0.47, 27.95 5.24 M27.95 5.24 C27.47 6.69, 28.42 11.07, 27.95 15.71 M27.95 5.24 C28.41 9.08, 28.19 12.6, 27.95 15.71 M27.95 15.71 C26.83 20.98, 27.07 20.37, 22.71 20.95 M27.95 15.71 C29.99 21.08, 25.1 21.47, 22.71 20.95 M22.71 20.95 C20.38 19.85, 13.93 20.82, 5.24 20.95 M22.71 20.95 C15.98 21.01, 10.46 20.74, 5.24 20.95 M5.24 20.95 C0.05 20.03, 0.14 17.83, 0 15.71 M5.24 20.95 C0.84 23.12, -1.76 18.36, 0 15.71 M0 15.71 C-0.44 12.14, -0.74 9.9, 0 5.24 M0 15.71 C0.2 12.09, 0.21 7.21, 0 5.24 M0 5.24 C-0.25 1.29, 0.67 1.2, 5.24 0 M0 5.24 C0.46 0.5, 2.01 -1.26, 5.24 0" stroke="#1e1e1e" stroke-width="2" fill="none"></path></g><g stroke-linecap="round" transform="translate(28.403524648314487 38.00359175136691) rotate(47.524435689906944 25.4296875 23.859375)"><path d="M20.07 0.42 C24.99 -0.81, 33.27 -0.11, 38.05 2.27 C42.83 4.66, 46.94 9.8, 48.74 14.74 C50.54 19.67, 50.39 27.08, 48.86 31.86 C47.33 36.65, 44.21 40.82, 39.56 43.46 C34.9 46.09, 26.34 48.28, 20.95 47.68 C15.56 47.08, 10.82 43.77, 7.23 39.87 C3.64 35.97, -0.3 29.53, -0.61 24.29 C-0.93 19.04, 1.45 12.39, 5.35 8.41 C9.24 4.43, 19.76 1.69, 22.77 0.4 C25.78 -0.9, 23.54 0.42, 23.41 0.63 M34.47 1.12 C39.05 2.31, 43.73 7.39, 46.2 11.89 C48.66 16.38, 50 23.02, 49.26 28.09 C48.52 33.16, 45.65 38.79, 41.75 42.3 C37.84 45.8, 31.29 49, 25.81 49.11 C20.34 49.22, 12.92 46.55, 8.91 42.98 C4.9 39.41, 2.77 32.71, 1.75 27.69 C0.72 22.67, 0.44 17.29, 2.76 12.86 C5.09 8.43, 10.28 3.22, 15.69 1.12 C21.1 -0.97, 32.05 0.25, 35.24 0.27 C38.44 0.3, 35.19 0.64, 34.86 1.28" stroke="none" stroke-width="0" fill="#d0bfff"></path><path d="M27.37 0.6 C32.47 0.78, 38.88 4.09, 42.79 7.55 C46.7 11.02, 50.31 16.44, 50.84 21.39 C51.38 26.34, 49.08 33.04, 46.01 37.27 C42.93 41.49, 37.53 45.25, 32.41 46.74 C27.29 48.23, 20.47 48.51, 15.29 46.22 C10.1 43.93, 3.64 37.71, 1.29 33.02 C-1.06 28.32, -0.38 22.99, 1.18 18.03 C2.73 13.06, 5.07 5.82, 10.62 3.2 C16.18 0.58, 29.65 2.04, 34.51 2.32 C39.37 2.61, 40.12 4.54, 39.78 4.9 M31.92 2.35 C36.99 3.25, 43.99 6.09, 47.34 10.34 C50.69 14.6, 52.89 22.68, 52.02 27.89 C51.15 33.09, 46.52 38.37, 42.13 41.58 C37.75 44.79, 31.24 46.68, 25.69 47.14 C20.14 47.59, 13.13 47.42, 8.83 44.3 C4.53 41.18, 0.89 33.45, -0.12 28.43 C-1.14 23.42, -0.01 18.65, 2.75 14.21 C5.5 9.78, 11.48 4, 16.41 1.83 C21.35 -0.35, 29.46 1.25, 32.38 1.14 C35.3 1.03, 34.2 0.9, 33.93 1.14" stroke="#1e1e1e" stroke-width="2" fill="none"></path></g></svg>