<svg version="1.1" xmlns="http://www.w3.org/2000/svg" viewBox="0 0 106.94327927876338 127.12357954545405" width="106.94327927876338" height="127.12357954545405">
  <!-- svg-source:excalidraw -->
  
  <defs>
    <style class="style-fonts">
      @font-face {
        font-family: "Virgil";
        src: url("https://excalidraw.com/Virgil.woff2");
      }
      @font-face {
        font-family: "Cascadia";
        src: url("https://excalidraw.com/Cascadia.woff2");
      }
      @font-face {
        font-family: "Assistant";
        src: url("https://excalidraw.com/Assistant-Regular.woff2");
      }
    </style>
    
  </defs>
  <g stroke-linecap="round" transform="translate(11.681560528763384 24.534665854976993) rotate(0 42.630859375 38.322265625)"><path d="M19.16 0 C30.08 0.5, 45.12 -1.71, 66.1 0 C77.5 -1.61, 82.88 7.7, 85.26 19.16 C85.56 37.35, 85.63 46.86, 85.26 57.48 C84.8 69.43, 76.93 78.8, 66.1 76.64 C49.12 73.51, 38.48 80.25, 19.16 76.64 C8.73 78.32, -0.48 67.7, 0 57.48 C-0.17 46.25, 0.61 36.52, 0 19.16 C-1.11 7.88, 9.49 -1.59, 19.16 0" stroke="none" stroke-width="0" fill="#228be6"></path><path d="M19.16 0 C38.36 -0.3, 54.74 -1.15, 66.1 0 M19.16 0 C34.33 -0.52, 50.44 -1.11, 66.1 0 M66.1 0 C80.09 1.83, 86.77 6.41, 85.26 19.16 M66.1 0 C79.33 0.04, 86.51 5.09, 85.26 19.16 M85.26 19.16 C83.07 33.33, 83.46 50.34, 85.26 57.48 M85.26 19.16 C85.53 33.23, 85.64 47.39, 85.26 57.48 M85.26 57.48 C86.22 68.57, 79.59 76.75, 66.1 76.64 M85.26 57.48 C83.7 70.08, 77.7 78.25, 66.1 76.64 M66.1 76.64 C51.2 75.72, 40.62 78.29, 19.16 76.64 M66.1 76.64 C55.15 77.22, 42.81 76.05, 19.16 76.64 M19.16 76.64 C8 77.81, 0.75 71.34, 0 57.48 M19.16 76.64 C5.1 78.7, 0.99 69.59, 0 57.48 M0 57.48 C0.14 41.01, -1.04 25.83, 0 19.16 M0 57.48 C0.22 43.34, 0.89 27.66, 0 19.16 M0 19.16 C-0.5 6.56, 8.15 -0.44, 19.16 0 M0 19.16 C-1.95 5.33, 6.55 -1.57, 19.16 0" stroke="#1e1e1e" stroke-width="2" fill="none"></path></g><g stroke-linecap="round" transform="translate(35.55055318974837 102.14701704545405) rotate(0 19.283203125 7.48828125)"><path d="M3.74 0 C11.77 -1.68, 16.63 -1.14, 34.82 0 C35.6 0.95, 40.92 -0.79, 38.57 3.74 C38.84 4.91, 38.47 7.05, 38.57 11.23 C37.16 15.29, 37.83 13.57, 34.82 14.98 C26.89 17.15, 17.17 15.83, 3.74 14.98 C0.9 13.13, 0.45 11.52, 0 11.23 C0.03 9.68, -0.28 6.71, 0 3.74 C2.24 0.1, 0.45 1.08, 3.74 0" stroke="none" stroke-width="0" fill="#868e96"></path><path d="M3.74 0 C14.92 -0.45, 25.82 0.87, 34.82 0 M3.74 0 C15.32 -0.37, 26.64 0.49, 34.82 0 M34.82 0 C38.07 0.01, 38.76 1.27, 38.57 3.74 M34.82 0 C37.94 -0.65, 39.52 0.3, 38.57 3.74 M38.57 3.74 C38.25 6.01, 38.82 7.65, 38.57 11.23 M38.57 3.74 C38.63 6.53, 38.66 9.39, 38.57 11.23 M38.57 11.23 C38.93 13.78, 36.64 14.9, 34.82 14.98 M38.57 11.23 C37.98 14.53, 37.05 15.99, 34.82 14.98 M34.82 14.98 C23.05 15.49, 10.35 13.92, 3.74 14.98 M34.82 14.98 C24.37 14.64, 13.92 15.33, 3.74 14.98 M3.74 14.98 C1.62 15.52, -0.56 14.62, 0 11.23 M3.74 14.98 C1.74 14.64, 1.02 14.67, 0 11.23 M0 11.23 C-0.14 9, 0.32 7.26, 0 3.74 M0 11.23 C0.13 9.42, -0.05 7.65, 0 3.74 M0 3.74 C0.88 1.03, 0.4 -0.46, 3.74 0 M0 3.74 C0.08 0.46, 0.79 1.09, 3.74 0" stroke="#1e1e1e" stroke-width="2" fill="none"></path></g><g stroke-linecap="round" transform="translate(35.7364255855814 10) rotate(0 19.283203125 7.48828125)"><path d="M3.74 0 C11.95 -0.9, 20.41 1.21, 34.82 0 C39.67 -2.04, 36.89 1.85, 38.57 3.74 C38.47 6.44, 38.07 10.16, 38.57 11.23 C39.08 12.32, 37.61 13.55, 34.82 14.98 C29.98 16.58, 21.4 13.52, 3.74 14.98 C1.7 12.77, 0.75 13.18, 0 11.23 C-0.3 9.2, 0.84 5.93, 0 3.74 C-0.8 2.33, 0.05 -0.76, 3.74 0" stroke="none" stroke-width="0" fill="#868e96"></path><path d="M3.74 0 C13.25 0.93, 22.85 -0.11, 34.82 0 M3.74 0 C12.68 0.58, 21.37 0.13, 34.82 0 M34.82 0 C37.51 0.02, 39.11 0.68, 38.57 3.74 M34.82 0 C38.27 -0.94, 38.06 0.17, 38.57 3.74 M38.57 3.74 C38.82 5.87, 38.86 7.93, 38.57 11.23 M38.57 3.74 C38.67 5.58, 38.65 7.74, 38.57 11.23 M38.57 11.23 C37.89 13.65, 36.81 15.67, 34.82 14.98 M38.57 11.23 C38.29 14.74, 38.31 13.87, 34.82 14.98 M34.82 14.98 C27.08 14.12, 20.73 15.97, 3.74 14.98 M34.82 14.98 C24.73 15.14, 14.01 15.12, 3.74 14.98 M3.74 14.98 C0.69 15.87, 0.43 13.44, 0 11.23 M3.74 14.98 C2.27 15.91, -0.55 13.99, 0 11.23 M0 11.23 C0.34 9.37, -0.21 7.92, 0 3.74 M0 11.23 C-0.07 8.46, 0.14 5.61, 0 3.74 M0 3.74 C-0.85 0.79, 1.32 -0.68, 3.74 0 M0 3.74 C-0.45 2.34, 0.37 -0.42, 3.74 0" stroke="#343a40" stroke-width="2" fill="none"></path></g><g stroke-linecap="round" transform="translate(13.186373760761398 77.90604504315706) rotate(312.47556431009303 13.974609375 10.47265625)"><path d="M5.24 0 C7.25 1.29, 16.28 -2.33, 22.71 0 C23.88 0.83, 31.18 2.66, 27.95 5.24 C26.91 8.86, 28.3 9.21, 27.95 15.71 C28.36 17.23, 22.98 23.35, 22.71 20.95 C15.35 18.86, 9.36 18.42, 5.24 20.95 C2.78 20.19, 0.93 19.22, 0 15.71 C1.69 10.76, -0.52 8.26, 0 5.24 C-1.66 0.69, 5.26 -2.52, 5.24 0" stroke="none" stroke-width="0" fill="#d0bfff"></path><path d="M5.24 0 C10.79 -0.47, 13.73 0.85, 22.71 0 M5.24 0 C9.72 -0.15, 13.06 -0.14, 22.71 0 M22.71 0 C27.29 -1.13, 29.61 0.1, 27.95 5.24 M22.71 0 C25.2 -2.16, 27.37 0.03, 27.95 5.24 M27.95 5.24 C28.94 9.55, 27.67 13.77, 27.95 15.71 M27.95 5.24 C28.19 7.8, 27.64 10.26, 27.95 15.71 M27.95 15.71 C26.93 20.59, 25.73 22.71, 22.71 20.95 M27.95 15.71 C29.93 16.98, 24.68 21.47, 22.71 20.95 M22.71 20.95 C17.13 22.35, 10.72 21.49, 5.24 20.95 M22.71 20.95 C19.19 21.52, 14.53 21.83, 5.24 20.95 M5.24 20.95 C2.61 20.37, 1.78 20.83, 0 15.71 M5.24 20.95 C0.64 21.47, -1.81 18.37, 0 15.71 M0 15.71 C-0.72 13.55, 0.67 12.07, 0 5.24 M0 15.71 C0.49 12.53, -0.42 9.34, 0 5.24 M0 5.24 C0.14 0.38, 0.95 1.89, 5.24 0 M0 5.24 C-1.76 0.91, 1.65 0.96, 5.24 0" stroke="#1e1e1e" stroke-width="2" fill="none"></path></g><g stroke-linecap="round" transform="translate(28.105044809020455 37.022564965653146) rotate(312.47556431009303 25.4296875 23.859375)"><path d="M19.02 -0.24 C24.08 -1.65, 32.71 -0.49, 37.56 1.93 C42.41 4.35, 45.94 9.39, 48.11 14.27 C50.28 19.15, 52.01 26.36, 50.57 31.22 C49.13 36.08, 44.12 40.57, 39.48 43.45 C34.84 46.32, 28.19 49.11, 22.75 48.46 C17.31 47.8, 10.7 43.34, 6.84 39.51 C2.98 35.68, 0.03 30.51, -0.4 25.49 C-0.84 20.46, -0.52 13.72, 4.24 9.35 C9 4.99, 23.14 0.5, 28.15 -0.71 C33.16 -1.92, 34.41 1.68, 34.29 2.1 M21.17 1.79 C26.1 0.57, 31.89 -0.44, 36.62 2.04 C41.35 4.53, 47.33 11.91, 49.53 16.69 C51.74 21.48, 51.71 26.19, 49.84 30.74 C47.97 35.29, 43.17 41.06, 38.3 43.99 C33.43 46.92, 25.9 49.2, 20.6 48.32 C15.3 47.43, 9.91 42.82, 6.51 38.67 C3.1 34.52, 0.53 28.22, 0.17 23.41 C-0.19 18.6, 0.7 13.48, 4.35 9.82 C8 6.15, 19.24 2.93, 22.08 1.41 C24.93 -0.11, 21.76 0.43, 21.42 0.7" stroke="none" stroke-width="0" fill="#d0bfff"></path><path d="M33.51 1.72 C38.71 2.73, 43.75 6.62, 46.61 10.84 C49.48 15.06, 51.42 21.86, 50.72 27.05 C50.02 32.23, 46.5 38.59, 42.41 41.96 C38.33 45.32, 31.72 47.09, 26.22 47.23 C20.72 47.38, 13.79 45.62, 9.41 42.82 C5.04 40.01, 0.97 35.3, -0.03 30.4 C-1.03 25.5, 0.72 18.13, 3.41 13.43 C6.09 8.73, 10.87 4.08, 16.11 2.2 C21.35 0.32, 31.4 1.87, 34.86 2.14 C38.32 2.42, 37.11 3.48, 36.86 3.85 M25.35 1.05 C30.64 1.12, 37.52 4.35, 41.94 7.32 C46.36 10.3, 51.18 14.01, 51.87 18.9 C52.57 23.8, 49.02 32.21, 46.11 36.69 C43.2 41.16, 39.65 44.11, 34.41 45.78 C29.17 47.44, 19.67 48.36, 14.67 46.69 C9.67 45.03, 6.68 40.6, 4.42 35.8 C2.16 31, 0.05 22.85, 1.12 17.89 C2.19 12.93, 6.56 8.9, 10.82 6.05 C15.08 3.21, 24.27 1.53, 26.68 0.82 C29.08 0.12, 25.26 1.63, 25.26 1.82" stroke="#1e1e1e" stroke-width="2" fill="none"></path></g></svg>