<svg version="1.1" xmlns="http://www.w3.org/2000/svg" viewBox="0 0 108.08725249304916 127.12357954545405" width="108.08725249304916" height="127.12357954545405">
  <!-- svg-source:excalidraw -->
  
  <defs>
    <style class="style-fonts">
      @font-face {
        font-family: "Virgil";
        src: url("https://excalidraw.com/Virgil.woff2");
      }
      @font-face {
        font-family: "Cascadia";
        src: url("https://excalidraw.com/Cascadia.woff2");
      }
      @font-face {
        font-family: "Assistant";
        src: url("https://excalidraw.com/Assistant-Regular.woff2");
      }
    </style>
    
  </defs>
  <g stroke-linecap="round" transform="translate(12.825533743049164 24.534665854976993) rotate(0 42.630859375 38.322265625)"><path d="M19.16 0 C29.69 -2.66, 45.99 -1.26, 66.1 0 C76.73 0.07, 87.88 8.84, 85.26 19.16 C88.26 29.58, 82.04 39.93, 85.26 57.48 C85.51 67.79, 77.45 80.05, 66.1 76.64 C57.12 74.25, 43.77 75, 19.16 76.64 C4 77.96, 3.26 67.43, 0 57.48 C0.75 46.24, -0.62 38.61, 0 19.16 C-1.94 8.55, 7.1 -1.95, 19.16 0" stroke="none" stroke-width="0" fill="#228be6"></path><path d="M19.16 0 C34.11 -0.16, 49.41 -0.94, 66.1 0 M19.16 0 C30.14 -0.48, 42.6 0.33, 66.1 0 M66.1 0 C78.73 -0.45, 84.18 4.77, 85.26 19.16 M66.1 0 C77.51 -0.73, 86.95 4.79, 85.26 19.16 M85.26 19.16 C86.13 31.69, 86.13 47.77, 85.26 57.48 M85.26 19.16 C85.76 32.28, 85.8 47.93, 85.26 57.48 M85.26 57.48 C86.77 70.28, 79.27 76.68, 66.1 76.64 M85.26 57.48 C86.51 68.96, 80.78 74.76, 66.1 76.64 M66.1 76.64 C52.59 78.36, 43.57 76.87, 19.16 76.64 M66.1 76.64 C48.24 75.9, 30.23 75.64, 19.16 76.64 M19.16 76.64 C7.1 76.75, -1.36 70.1, 0 57.48 M19.16 76.64 C5.21 78.25, -0.54 72.29, 0 57.48 M0 57.48 C0.83 43.93, -0.58 25.99, 0 19.16 M0 57.48 C0.06 43.55, 0.46 31.8, 0 19.16 M0 19.16 C0.75 7.47, 5.27 1.78, 19.16 0 M0 19.16 C0.99 5.72, 8.43 1.88, 19.16 0" stroke="#1e1e1e" stroke-width="2" fill="none"></path></g><g stroke-linecap="round" transform="translate(36.694526404033695 102.14701704545405) rotate(0 19.283203125 7.48828125)"><path d="M3.74 0 C12.91 -1.02, 15.95 0.42, 34.82 0 C39.21 1.77, 38.37 0.59, 38.57 3.74 C37.83 5.61, 38.72 7.7, 38.57 11.23 C37.54 16.19, 35.32 14.03, 34.82 14.98 C24.64 13.55, 14.71 15.66, 3.74 14.98 C3.6 12.94, -1.68 14.33, 0 11.23 C-0.15 8.09, -0.55 5.98, 0 3.74 C0.52 -0.16, 1.54 -1.42, 3.74 0" stroke="none" stroke-width="0" fill="#868e96"></path><path d="M3.74 0 C12.01 -0.5, 20.56 -0.48, 34.82 0 M3.74 0 C15.69 0.35, 26.64 -0.09, 34.82 0 M34.82 0 C36.78 -0.81, 37.98 0.93, 38.57 3.74 M34.82 0 C38.16 -0.8, 39.15 2.21, 38.57 3.74 M38.57 3.74 C38.68 6.29, 38.81 8.13, 38.57 11.23 M38.57 3.74 C38.7 5.99, 38.73 7.9, 38.57 11.23 M38.57 11.23 C38.76 13.75, 37.86 14.41, 34.82 14.98 M38.57 11.23 C39.52 12.78, 36.81 13.9, 34.82 14.98 M34.82 14.98 C27.05 15.29, 18.62 15.32, 3.74 14.98 M34.82 14.98 C26.8 14.47, 18.48 14.91, 3.74 14.98 M3.74 14.98 C0.57 14.9, -0.51 14.43, 0 11.23 M3.74 14.98 C0.98 15.99, 0.99 12.62, 0 11.23 M0 11.23 C-0.19 9.13, 0.15 8.07, 0 3.74 M0 11.23 C0.14 8.81, 0.06 6.27, 0 3.74 M0 3.74 C-0.56 2.14, 1.68 -0.29, 3.74 0 M0 3.74 C1.02 2.19, 0.7 0.26, 3.74 0" stroke="#1e1e1e" stroke-width="2" fill="none"></path></g><g stroke-linecap="round" transform="translate(36.88039879986718 10) rotate(0 19.283203125 7.48828125)"><path d="M3.74 0 C8.65 0.26, 18.54 1.99, 34.82 0 C37.12 -0.65, 38.79 3.54, 38.57 3.74 C38.55 5.16, 38.1 8.83, 38.57 11.23 C36.57 12.78, 37.21 16.06, 34.82 14.98 C25.81 15.74, 22.59 12.76, 3.74 14.98 C-0.43 15.58, 2.33 14.39, 0 11.23 C-0.51 10.03, 0.21 7.14, 0 3.74 C0.29 -0.18, -1.08 1.74, 3.74 0" stroke="none" stroke-width="0" fill="#868e96"></path><path d="M3.74 0 C12.06 -0.42, 22.28 -0.18, 34.82 0 M3.74 0 C12.55 -0.21, 21.15 -0.51, 34.82 0 M34.82 0 C36.73 -0.32, 39.3 0.55, 38.57 3.74 M34.82 0 C37.9 0.97, 38.53 1.56, 38.57 3.74 M38.57 3.74 C38.81 5.58, 38.49 7.77, 38.57 11.23 M38.57 3.74 C38.73 5.39, 38.63 7.03, 38.57 11.23 M38.57 11.23 C39.11 13.16, 38.15 14.16, 34.82 14.98 M38.57 11.23 C38.06 12.65, 37.03 14.12, 34.82 14.98 M34.82 14.98 C23.52 15.2, 10.13 15.32, 3.74 14.98 M34.82 14.98 C27.48 14.87, 19.44 14.81, 3.74 14.98 M3.74 14.98 C0.74 15.67, -0.24 14.61, 0 11.23 M3.74 14.98 C2.24 13.87, -0.76 13.99, 0 11.23 M0 11.23 C0.18 8.86, 0.16 5.96, 0 3.74 M0 11.23 C0.04 9.69, -0.13 8.1, 0 3.74 M0 3.74 C0.43 0.96, 2.14 0.82, 3.74 0 M0 3.74 C-0.55 1.51, 0.34 -0.42, 3.74 0" stroke="#343a40" stroke-width="2" fill="none"></path></g><g stroke-linecap="round" transform="translate(13.186373760761398 24.156708609438283) rotate(47.524435689906944 13.974609375 10.47265625)"><path d="M5.24 0 C11.83 2.14, 13.62 -0.8, 22.71 0 C26.51 3.17, 27.16 -1.3, 27.95 5.24 C27.22 9.68, 26.52 9.87, 27.95 15.71 C27.8 20.7, 23.85 19.58, 22.71 20.95 C21.09 18.59, 11.76 21.79, 5.24 20.95 C4.98 21.86, -2.22 18.74, 0 15.71 C0.48 11.79, 0.31 8.88, 0 5.24 C-3.23 4.15, 5.25 2.34, 5.24 0" stroke="none" stroke-width="0" fill="#d0bfff"></path><path d="M5.24 0 C10.78 -0.37, 13.64 1.76, 22.71 0 M5.24 0 C11.15 -0.67, 17.49 -0.24, 22.71 0 M22.71 0 C27.67 -1.39, 28.97 3.42, 27.95 5.24 M22.71 0 C26.14 0.63, 26.9 2.37, 27.95 5.24 M27.95 5.24 C27.78 9.88, 27.17 13.96, 27.95 15.71 M27.95 5.24 C28.13 9.35, 28.31 13.14, 27.95 15.71 M27.95 15.71 C29.61 17.56, 25.33 19.07, 22.71 20.95 M27.95 15.71 C27.37 17.49, 28.31 22.69, 22.71 20.95 M22.71 20.95 C16.57 21.53, 10.61 21.82, 5.24 20.95 M22.71 20.95 C18.35 20.89, 14.72 21.56, 5.24 20.95 M5.24 20.95 C1.27 22.71, 1.72 17.27, 0 15.71 M5.24 20.95 C0.22 21.47, 1.43 18.1, 0 15.71 M0 15.71 C0.35 13.98, -0.88 12.26, 0 5.24 M0 15.71 C-0.33 12.42, 0.19 8.05, 0 5.24 M0 5.24 C1.78 3.38, 0.79 0.45, 5.24 0 M0 5.24 C-1.81 0.91, -0.38 2.03, 5.24 0" stroke="#1e1e1e" stroke-width="2" fill="none"></path></g><g stroke-linecap="round" transform="translate(28.10504480902 38.9230011869422) rotate(47.524435689906944 25.4296875 23.859375)"><path d="M16.67 0.35 C21.49 -1.47, 29.74 0.43, 34.97 2.48 C40.2 4.54, 45.61 8.24, 48.05 12.69 C50.49 17.15, 50.6 24.2, 49.59 29.21 C48.59 34.23, 46.03 39.78, 42.02 42.77 C38.01 45.77, 30.93 47.24, 25.53 47.16 C20.14 47.08, 13.89 45.41, 9.64 42.3 C5.39 39.19, 0.89 33.69, 0.02 28.48 C-0.84 23.28, 1.39 15.81, 4.45 11.09 C7.5 6.38, 15.94 2.02, 18.35 0.22 C20.75 -1.58, 18.64 -0.14, 18.87 0.29 M18.98 0.94 C23.76 -0.94, 29.88 0.06, 34.95 2.01 C40.02 3.96, 47.06 8.25, 49.39 12.66 C51.72 17.08, 50.37 23.63, 48.95 28.5 C47.53 33.36, 45.11 38.43, 40.87 41.86 C36.64 45.3, 29.2 49.29, 23.55 49.11 C17.9 48.93, 10.87 44.4, 6.97 40.79 C3.07 37.18, 0.78 32.51, 0.13 27.43 C-0.51 22.36, 0.24 14.89, 3.1 10.33 C5.96 5.77, 14.69 1.3, 17.28 0.06 C19.88 -1.18, 18.61 2.48, 18.65 2.87" stroke="none" stroke-width="0" fill="#d0bfff"></path><path d="M36.89 2.13 C41.39 4, 46 9.15, 48.09 14.08 C50.17 19.01, 50.99 26.64, 49.39 31.71 C47.78 36.77, 42.85 41.82, 38.46 44.46 C34.06 47.09, 28.26 48.31, 23.02 47.49 C17.77 46.68, 10.79 43.18, 7 39.57 C3.21 35.96, 0.49 30.89, 0.3 25.83 C0.11 20.76, 2.62 13.31, 5.85 9.2 C9.07 5.09, 14.15 1.91, 19.64 1.15 C25.12 0.39, 34.95 3.7, 38.75 4.63 C42.54 5.56, 42.51 6.48, 42.41 6.74 M26.92 -1.23 C31.86 -1.58, 37.44 0.98, 41.31 4.33 C45.18 7.67, 48.9 13.36, 50.13 18.83 C51.37 24.3, 51.37 32.32, 48.7 37.13 C46.04 41.93, 39.47 46.24, 34.15 47.67 C28.83 49.09, 21.86 47.85, 16.8 45.69 C11.73 43.53, 6.36 39.29, 3.75 34.72 C1.14 30.14, 0.14 23.09, 1.15 18.23 C2.16 13.36, 5.89 8.57, 9.81 5.51 C13.73 2.46, 22.14 0.55, 24.66 -0.11 C27.17 -0.78, 24.8 0.89, 24.91 1.52" stroke="#1e1e1e" stroke-width="2" fill="none"></path></g></svg>