<svg version="1.1" xmlns="http://www.w3.org/2000/svg" viewBox="0 0 105.26171875 129.23744184244424" width="105.26171875" height="129.23744184244424">
  <!-- svg-source:excalidraw -->
  
  <defs>
    <style class="style-fonts">
      @font-face {
        font-family: "Virgil";
        src: url("https://excalidraw.com/Virgil.woff2");
      }
      @font-face {
        font-family: "Cascadia";
        src: url("https://excalidraw.com/Cascadia.woff2");
      }
      @font-face {
        font-family: "Assistant";
        src: url("https://excalidraw.com/Assistant-Regular.woff2");
      }
    </style>
    
  </defs>
  <g stroke-linecap="round" transform="translate(10 26.648528151967184) rotate(0 42.630859375 38.322265625)"><path d="M19.16 0 C38.98 -2.32, 58.11 1.23, 66.1 0 C77.83 3.2, 88.2 4.66, 85.26 19.16 C81.39 34.7, 82.8 41.75, 85.26 57.48 C85.33 72.88, 81.33 76.38, 66.1 76.64 C52.41 74.34, 38.65 77.64, 19.16 76.64 C3.92 75.22, 3.41 67.5, 0 57.48 C-2.33 46.01, -1.58 34.89, 0 19.16 C1.31 9.64, 3.56 -2.32, 19.16 0" stroke="none" stroke-width="0" fill="#228be6"></path><path d="M19.16 0 C29.6 1.34, 42.07 -0.79, 66.1 0 M19.16 0 C29.51 -0.58, 39.03 -0.67, 66.1 0 M66.1 0 C78.62 -0.89, 84.23 5.18, 85.26 19.16 M66.1 0 C77.73 1.59, 84.65 6.03, 85.26 19.16 M85.26 19.16 C85.06 33.23, 83.89 48.29, 85.26 57.48 M85.26 19.16 C86.05 30.29, 85.51 40.01, 85.26 57.48 M85.26 57.48 C84.35 70.8, 80.6 77.91, 66.1 76.64 M85.26 57.48 C84.84 69.74, 80.19 74.78, 66.1 76.64 M66.1 76.64 C49.18 77.39, 32.25 78.08, 19.16 76.64 M66.1 76.64 C54.23 75.32, 42.98 75.51, 19.16 76.64 M19.16 76.64 C8.22 78.16, 0.34 72, 0 57.48 M19.16 76.64 C6.84 75.86, 0.72 68.92, 0 57.48 M0 57.48 C0.43 42.79, 0.17 29.79, 0 19.16 M0 57.48 C0.95 42.35, -0.57 29.38, 0 19.16 M0 19.16 C1.24 5.43, 4.49 0.86, 19.16 0 M0 19.16 C2.07 7.26, 7.32 -1.84, 19.16 0" stroke="#1e1e1e" stroke-width="2" fill="none"></path></g><g stroke-linecap="round" transform="translate(33.86899266098453 104.26087934244424) rotate(0 19.283203125 7.48828125)"><path d="M3.74 0 C16.55 1.35, 23.97 2.54, 34.82 0 C39.44 -1.25, 39.16 -0.8, 38.57 3.74 C37.96 5.14, 38.49 8.4, 38.57 11.23 C40.34 13.53, 36.66 15.2, 34.82 14.98 C21.57 14.81, 8.91 13.61, 3.74 14.98 C3.71 12.98, -0.94 13.62, 0 11.23 C-0.37 8.03, 0.42 6.99, 0 3.74 C-2.04 -0.43, 1.85 2.33, 3.74 0" stroke="none" stroke-width="0" fill="#868e96"></path><path d="M3.74 0 C13.07 -0.53, 20.71 0.22, 34.82 0 M3.74 0 C15.35 -0.12, 27.08 -0.19, 34.82 0 M34.82 0 C36.8 -0.61, 38.07 1.94, 38.57 3.74 M34.82 0 C37.01 -0.18, 39.66 2, 38.57 3.74 M38.57 3.74 C38.25 5.72, 38.44 8.4, 38.57 11.23 M38.57 3.74 C38.58 5.52, 38.5 7.25, 38.57 11.23 M38.57 11.23 C39.43 14.36, 37.13 14.75, 34.82 14.98 M38.57 11.23 C39.22 12.8, 38.02 16.03, 34.82 14.98 M34.82 14.98 C23.18 15.55, 10.93 15.84, 3.74 14.98 M34.82 14.98 C27.92 14.46, 21.73 15.21, 3.74 14.98 M3.74 14.98 C1.42 15.85, 0.2 13.39, 0 11.23 M3.74 14.98 C1.61 14.31, 0.55 12.76, 0 11.23 M0 11.23 C-0.03 8.53, 0.26 6.11, 0 3.74 M0 11.23 C-0.16 8.37, 0.08 5.33, 0 3.74 M0 3.74 C-0.95 1.68, 2.15 0.38, 3.74 0 M0 3.74 C0.46 0.33, 2.18 0.67, 3.74 0" stroke="#1e1e1e" stroke-width="2" fill="none"></path></g><g stroke-linecap="round" transform="translate(34.05486505681802 12.113862296990192) rotate(0 19.283203125 7.48828125)"><path d="M3.74 0 C10.58 2.14, 21.05 -1.42, 34.82 0 C37.91 -2.05, 37.62 -1.15, 38.57 3.74 C38.53 7.36, 39.18 9.48, 38.57 11.23 C37.91 13.95, 39.61 14.41, 34.82 14.98 C26.35 13.98, 23.9 13.01, 3.74 14.98 C0.3 14.87, 1.09 12.03, 0 11.23 C0.4 10.15, -0.72 6.68, 0 3.74 C0.6 3.58, 1.91 -1.61, 3.74 0" stroke="none" stroke-width="0" fill="#868e96"></path><path d="M3.74 0 C14.2 0.39, 27.14 0.38, 34.82 0 M3.74 0 C12.3 -0.17, 20.73 -0.25, 34.82 0 M34.82 0 C36.82 0.69, 38.3 1.09, 38.57 3.74 M34.82 0 C38.42 0.75, 38.48 0.99, 38.57 3.74 M38.57 3.74 C38.42 5.86, 38.28 7.62, 38.57 11.23 M38.57 3.74 C38.48 6.67, 38.73 9.61, 38.57 11.23 M38.57 11.23 C38.38 13.5, 37.89 14.17, 34.82 14.98 M38.57 11.23 C39.27 14.78, 38.18 14.99, 34.82 14.98 M34.82 14.98 C24.32 15.89, 14.14 14.62, 3.74 14.98 M34.82 14.98 C28.87 15.24, 22.09 15.3, 3.74 14.98 M3.74 14.98 C1.45 14.64, 0.31 13.15, 0 11.23 M3.74 14.98 C1.8 14.01, 0.41 13.79, 0 11.23 M0 11.23 C0.26 9.41, 0.33 8.08, 0 3.74 M0 11.23 C0.14 9.62, -0.15 8.26, 0 3.74 M0 3.74 C0.9 1.63, 1.65 -0.8, 3.74 0 M0 3.74 C0.93 1.92, 1.68 0.62, 3.74 0" stroke="#343a40" stroke-width="2" fill="none"></path></g><g stroke-linecap="round" transform="translate(39.397448168828305 13.62604069808549) rotate(269.315648468081 13.974609375 10.47265625)"><path d="M5.24 0 C13.8 -1.79, 17.94 -2.75, 22.71 0 C24.9 -3.32, 31.12 -0.18, 27.95 5.24 C29.24 7.61, 27.48 10.43, 27.95 15.71 C31.12 18.41, 23.16 19.29, 22.71 20.95 C20.33 18.41, 10.84 20.69, 5.24 20.95 C3.25 18.59, -1.37 17.59, 0 15.71 C-1.55 12.04, 0.37 12.5, 0 5.24 C0.91 -0.48, 1.29 -0.83, 5.24 0" stroke="none" stroke-width="0" fill="#d0bfff"></path><path d="M5.24 0 C11.07 0.5, 13.84 -0.4, 22.71 0 M5.24 0 C9.49 -0.45, 14.21 0.68, 22.71 0 M22.71 0 C25.68 -0.31, 29.86 3.05, 27.95 5.24 M22.71 0 C26.04 -0.52, 26.71 -0.12, 27.95 5.24 M27.95 5.24 C27.19 8.29, 28.8 10.25, 27.95 15.71 M27.95 5.24 C28.35 9, 27.8 11.98, 27.95 15.71 M27.95 15.71 C29.09 17.58, 27.42 22.78, 22.71 20.95 M27.95 15.71 C29.68 19.23, 26.66 20.99, 22.71 20.95 M22.71 20.95 C15.09 20.32, 8.69 20.65, 5.24 20.95 M22.71 20.95 C18.92 21.84, 15 20.78, 5.24 20.95 M5.24 20.95 C2.37 19.78, 0.96 17.52, 0 15.71 M5.24 20.95 C2.57 21.07, -1.56 19.02, 0 15.71 M0 15.71 C0.85 14, -1.08 9.8, 0 5.24 M0 15.71 C-0.56 12.55, 0.41 9.14, 0 5.24 M0 5.24 C0.81 0.15, 3.36 1.17, 5.24 0 M0 5.24 C0.86 3, 0.46 2.05, 5.24 0" stroke="#1e1e1e" stroke-width="2" fill="none"></path></g><g stroke-linecap="round" transform="translate(27.939453125 38.74047213240192) rotate(269.315648468081 25.4296875 23.859375)"><path d="M29.89 -0.13 C35.15 0.51, 42.05 4.22, 45.69 8.38 C49.33 12.54, 52.04 19.8, 51.74 24.84 C51.44 29.88, 47.5 34.76, 43.87 38.62 C40.23 42.48, 35.24 47.18, 29.95 48 C24.66 48.81, 16.8 46.05, 12.13 43.51 C7.46 40.98, 3.61 37.39, 1.92 32.81 C0.22 28.22, 0.27 20.8, 1.95 15.99 C3.64 11.18, 7.03 6.44, 12.02 3.94 C17.02 1.45, 28.42 1.54, 31.93 1.03 C35.45 0.52, 33.16 0.5, 33.11 0.9 M21.05 0.59 C25.7 -0.71, 33.1 0.17, 37.62 3.02 C42.14 5.87, 46.42 12.9, 48.19 17.7 C49.96 22.49, 50.03 27.08, 48.25 31.79 C46.47 36.5, 42 43.41, 37.51 45.96 C33.01 48.51, 26.69 48.31, 21.29 47.11 C15.89 45.91, 8.42 42.82, 5.09 38.77 C1.76 34.72, 1.32 28.06, 1.33 22.82 C1.35 17.57, 1.76 11.23, 5.18 7.29 C8.6 3.36, 19.19 0.08, 21.87 -0.78 C24.55 -1.64, 21.4 1.67, 21.25 2.14" stroke="none" stroke-width="0" fill="#d0bfff"></path><path d="M22.49 -0.4 C27.56 -1.24, 34.5 0.74, 39.18 3.67 C43.87 6.6, 49.07 12, 50.61 17.17 C52.15 22.33, 50.69 29.97, 48.44 34.66 C46.18 39.35, 42.01 43.34, 37.08 45.3 C32.16 47.26, 24.41 47.79, 18.89 46.43 C13.37 45.08, 7.14 41.11, 3.95 37.17 C0.76 33.22, -0.68 27.69, -0.24 22.77 C0.19 17.86, 2.01 11.48, 6.56 7.68 C11.11 3.88, 23.2 1.21, 27.05 -0.02 C30.9 -1.24, 29.77 -0.23, 29.66 0.32 M34.21 -0.03 C39.43 1.48, 45.03 8.1, 47.95 12.65 C50.87 17.2, 52.61 22.43, 51.73 27.26 C50.85 32.1, 46.8 38.4, 42.69 41.66 C38.57 44.93, 32.35 46.91, 27.06 46.86 C21.77 46.81, 15.49 44.64, 10.96 41.39 C6.43 38.14, 1.27 32.33, -0.12 27.35 C-1.5 22.36, -0.28 15.56, 2.63 11.48 C5.54 7.4, 12.18 4.35, 17.35 2.85 C22.51 1.35, 30.92 2.78, 33.61 2.5 C36.31 2.21, 33.59 1.12, 33.5 1.13" stroke="#1e1e1e" stroke-width="2" fill="none"></path></g></svg>