<svg version="1.1" xmlns="http://www.w3.org/2000/svg" viewBox="0 0 116.80622209821377 127.12357954545405" width="116.80622209821377" height="127.12357954545405">
  <!-- svg-source:excalidraw -->
  
  <defs>
    <style class="style-fonts">
      @font-face {
        font-family: "Virgil";
        src: url("https://excalidraw.com/Virgil.woff2");
      }
      @font-face {
        font-family: "Cascadia";
        src: url("https://excalidraw.com/Cascadia.woff2");
      }
      @font-face {
        font-family: "Assistant";
        src: url("https://excalidraw.com/Assistant-Regular.woff2");
      }
    </style>
    
  </defs>
  <g stroke-linecap="round" transform="translate(21.544503348213766 24.534665854976993) rotate(0 42.630859375 38.322265625)"><path d="M19.16 0 C36.75 3.39, 52.94 -2.84, 66.1 0 C77.22 0.25, 82.8 4.96, 85.26 19.16 C84.58 35.79, 82.38 48.04, 85.26 57.48 C83.65 67.87, 80.19 79.9, 66.1 76.64 C58.93 77.75, 43.07 76.38, 19.16 76.64 C5.56 74.7, 2.16 70.97, 0 57.48 C-3.31 50.47, 3.43 40.98, 0 19.16 C1.68 5.91, 3.83 0.62, 19.16 0" stroke="none" stroke-width="0" fill="#228be6"></path><path d="M19.16 0 C33.31 -0.59, 44.39 -1.53, 66.1 0 M19.16 0 C30.17 -0.55, 40.23 0.99, 66.1 0 M66.1 0 C78.82 0.55, 84.35 6.93, 85.26 19.16 M66.1 0 C80.86 1.46, 84.84 5.87, 85.26 19.16 M85.26 19.16 C86.78 34.35, 84.97 46.93, 85.26 57.48 M85.26 19.16 C86.3 29.91, 85.03 41.37, 85.26 57.48 M85.26 57.48 C84.75 68.77, 80.71 78.16, 66.1 76.64 M85.26 57.48 C85.66 72.26, 79.33 75.86, 66.1 76.64 M66.1 76.64 C48.87 77.59, 35.11 75.51, 19.16 76.64 M66.1 76.64 C52.14 77.85, 39.52 76.01, 19.16 76.64 M19.16 76.64 C5.06 77.1, 1.24 69.3, 0 57.48 M19.16 76.64 C4.2 77.63, 2.07 71.13, 0 57.48 M0 57.48 C1.48 45.19, 1.39 30.28, 0 19.16 M0 57.48 C0.72 43.38, -0.65 27.88, 0 19.16 M0 19.16 C-1.57 5.66, 4.54 1.76, 19.16 0 M0 19.16 C-1.23 5.01, 6.43 1.67, 19.16 0" stroke="#1e1e1e" stroke-width="2" fill="none"></path></g><g stroke-linecap="round" transform="translate(45.41349600919875 102.14701704545405) rotate(0 19.283203125 7.48828125)"><path d="M3.74 0 C11.72 -2.56, 19.63 -0.18, 34.82 0 C35.54 -1.03, 41.03 -0.75, 38.57 3.74 C37.93 5.35, 38.13 7.05, 38.57 11.23 C39.51 16.08, 35.28 13.3, 34.82 14.98 C23.17 14.75, 14.14 13.68, 3.74 14.98 C2.81 15.49, -1.41 14.02, 0 11.23 C1.04 10.03, 0.54 7.43, 0 3.74 C-1.85 1.7, -0.96 0.75, 3.74 0" stroke="none" stroke-width="0" fill="#868e96"></path><path d="M3.74 0 C15.81 -0.53, 27.51 -0.58, 34.82 0 M3.74 0 C12.34 0.53, 20.41 0.24, 34.82 0 M34.82 0 C36.86 0.27, 39.43 1.88, 38.57 3.74 M34.82 0 C37.11 -0.26, 39.22 0.32, 38.57 3.74 M38.57 3.74 C38.61 6.52, 38.61 9.35, 38.57 11.23 M38.57 3.74 C38.52 5.39, 38.55 7.25, 38.57 11.23 M38.57 11.23 C39.48 14.49, 37.49 15.85, 34.82 14.98 M38.57 11.23 C38.8 13.34, 37.68 14.31, 34.82 14.98 M34.82 14.98 C24.06 14.35, 13.11 14.52, 3.74 14.98 M34.82 14.98 C23.76 14.63, 11.51 15.23, 3.74 14.98 M3.74 14.98 C1.87 14.5, -0.95 14.16, 0 11.23 M3.74 14.98 C2.28 15.41, 0.46 12.81, 0 11.23 M0 11.23 C0.18 8.17, 0.31 5.69, 0 3.74 M0 11.23 C-0.12 9.24, -0.18 7.1, 0 3.74 M0 3.74 C-0.92 2.13, 0.71 -0.6, 3.74 0 M0 3.74 C0.02 2.08, 2.03 -0.09, 3.74 0" stroke="#1e1e1e" stroke-width="2" fill="none"></path></g><g stroke-linecap="round" transform="translate(45.59936840503178 10) rotate(0 19.283203125 7.48828125)"><path d="M3.74 0 C14.62 0.52, 26.09 -0.69, 34.82 0 C39.78 -1.99, 37.62 1.14, 38.57 3.74 C38.07 5.66, 38.86 9.74, 38.57 11.23 C36.53 12.05, 37.92 17.31, 34.82 14.98 C24.11 13.52, 16.16 15.44, 3.74 14.98 C-0.16 15.27, -1.42 11.4, 0 11.23 C0.36 8.36, -0.79 5.91, 0 3.74 C-2.21 1.99, 0.7 0.67, 3.74 0" stroke="none" stroke-width="0" fill="#868e96"></path><path d="M3.74 0 C12.04 -0.51, 21.63 0.82, 34.82 0 M3.74 0 C10.9 0.01, 17.85 0.01, 34.82 0 M34.82 0 C38.18 0.63, 38.38 1.02, 38.57 3.74 M34.82 0 C37.98 -0.93, 39.27 2.3, 38.57 3.74 M38.57 3.74 C38.57 6.76, 38.36 9.67, 38.57 11.23 M38.57 3.74 C38.5 5.24, 38.72 7.15, 38.57 11.23 M38.57 11.23 C38.74 14.6, 37.52 14.64, 34.82 14.98 M38.57 11.23 C38.93 13.06, 37.87 14.01, 34.82 14.98 M34.82 14.98 C24.31 14.36, 14.64 14.63, 3.74 14.98 M34.82 14.98 C22.43 14.94, 11 14.59, 3.74 14.98 M3.74 14.98 C0.3 15.4, 0.9 14.11, 0 11.23 M3.74 14.98 C1.71 14.06, 0.93 14.4, 0 11.23 M0 11.23 C0.31 8.87, -0.13 6.51, 0 3.74 M0 11.23 C-0.13 8.31, -0.15 5.68, 0 3.74 M0 3.74 C-0.53 0.65, 1.27 0.73, 3.74 0 M0 3.74 C0.78 1.16, 0.96 0.1, 3.74 0" stroke="#343a40" stroke-width="2" fill="none"></path></g><g stroke-linecap="round" transform="translate(10 53.475852272726115) rotate(0 13.974609375 10.47265625)"><path d="M5.24 0 C6.85 -1.27, 15.74 -2.44, 22.71 0 C24.9 -0.15, 29.45 -0.61, 27.95 5.24 C28.55 9.68, 26.39 9.51, 27.95 15.71 C28.78 22.43, 27.12 18.72, 22.71 20.95 C19.58 21.4, 10.97 21.13, 5.24 20.95 C-0.23 17.72, 2.41 22.71, 0 15.71 C-1.43 12.21, -1.69 8.6, 0 5.24 C-0.75 2.67, 1.77 3.34, 5.24 0" stroke="none" stroke-width="0" fill="#d0bfff"></path><path d="M5.24 0 C8.98 1.38, 12.62 0.99, 22.71 0 M5.24 0 C11.55 0.19, 19.41 0.51, 22.71 0 M22.71 0 C25.83 -0.45, 29.09 0.13, 27.95 5.24 M22.71 0 C27.61 2.11, 29.68 1.77, 27.95 5.24 M27.95 5.24 C27.36 9.45, 27.09 11.47, 27.95 15.71 M27.95 5.24 C28.4 7.79, 28.01 10.01, 27.95 15.71 M27.95 15.71 C28.35 18.52, 26.83 19.78, 22.71 20.95 M27.95 15.71 C29.05 17.26, 27.03 21.07, 22.71 20.95 M22.71 20.95 C19.87 20.44, 16.14 22.36, 5.24 20.95 M22.71 20.95 C19.7 20.57, 14.77 21.36, 5.24 20.95 M5.24 20.95 C3.54 21.7, 0.81 17.6, 0 15.71 M5.24 20.95 C3.6 22.29, 0.86 20.45, 0 15.71 M0 15.71 C-0.4 14.08, 0.76 10.09, 0 5.24 M0 15.71 C-0.4 12.79, -0.2 8.64, 0 5.24 M0 5.24 C0.04 3.2, 3.11 -0.15, 5.24 0 M0 5.24 C-0.58 1.94, 3.77 -0.5, 5.24 0" stroke="#1e1e1e" stroke-width="2" fill="none"></path></g><g stroke-linecap="round" transform="translate(36.888671875 39.436789772726115) rotate(0 25.4296875 23.859375)"><path d="M35.95 1.36 C40.89 2.99, 46.67 8.69, 49 13.49 C51.33 18.29, 51.16 25.33, 49.91 30.16 C48.66 34.98, 45.79 39.67, 41.52 42.46 C37.24 45.25, 29.92 47.25, 24.28 46.9 C18.65 46.55, 11.56 43.81, 7.69 40.36 C3.82 36.91, 1.76 31.11, 1.07 26.19 C0.37 21.27, 0.58 14.93, 3.53 10.85 C6.48 6.77, 13.23 3.14, 18.76 1.71 C24.3 0.28, 33.52 1.8, 36.72 2.26 C39.92 2.73, 38.19 4.24, 37.98 4.49 M19.06 2.04 C23.81 0.72, 30.82 -0.15, 35.77 2.03 C40.72 4.21, 46.58 10.41, 48.75 15.11 C50.92 19.81, 50.47 25.59, 48.78 30.21 C47.1 34.83, 42.97 39.73, 38.66 42.84 C34.35 45.96, 28.43 49.51, 22.94 48.9 C17.44 48.3, 9.46 42.94, 5.7 39.21 C1.94 35.47, 0.42 31.61, 0.39 26.51 C0.35 21.41, 2.29 12.99, 5.46 8.62 C8.64 4.25, 17.21 1.38, 19.46 0.28 C21.71 -0.83, 18.78 1.68, 18.96 1.99" stroke="none" stroke-width="0" fill="#d0bfff"></path><path d="M32.09 0.31 C37.09 1.38, 43.2 6.67, 46.42 10.88 C49.64 15.09, 51.93 20.52, 51.41 25.57 C50.9 30.62, 47.39 37.4, 43.33 41.17 C39.26 44.95, 32.27 47.71, 27.03 48.22 C21.8 48.74, 16.27 47.23, 11.92 44.26 C7.57 41.29, 2.53 35.37, 0.93 30.41 C-0.67 25.45, 0.15 19.03, 2.32 14.49 C4.49 9.94, 8.84 5.41, 13.94 3.14 C19.04 0.87, 29.49 1.03, 32.91 0.87 C36.33 0.71, 34.58 1.57, 34.46 2.17 M35.15 1.19 C40.11 2.34, 45.65 7.32, 48.3 11.69 C50.95 16.07, 52.14 22.29, 51.05 27.46 C49.95 32.62, 46.28 39.32, 41.71 42.68 C37.14 46.03, 29.3 47.59, 23.63 47.59 C17.97 47.6, 11.68 45.87, 7.73 42.71 C3.78 39.54, 0.35 34.08, -0.09 28.61 C-0.53 23.13, 2.34 14.37, 5.1 9.86 C7.86 5.35, 11.36 3.02, 16.47 1.55 C21.58 0.07, 32.99 0.78, 35.78 0.98 C38.58 1.19, 33.33 2.2, 33.24 2.78" stroke="#1e1e1e" stroke-width="2" fill="none"></path></g></svg>