<svg version="1.1" xmlns="http://www.w3.org/2000/svg" viewBox="0 0 117.88881138392844 127.12357954545405" width="117.88881138392844" height="127.12357954545405">
  <!-- svg-source:excalidraw -->
  
  <defs>
    <style class="style-fonts">
      @font-face {
        font-family: "Virgil";
        src: url("https://excalidraw.com/Virgil.woff2");
      }
      @font-face {
        font-family: "Cascadia";
        src: url("https://excalidraw.com/Cascadia.woff2");
      }
      @font-face {
        font-family: "Assistant";
        src: url("https://excalidraw.com/Assistant-Regular.woff2");
      }
    </style>
    
  </defs>
  <g stroke-linecap="round" transform="translate(10 24.85274621212011) rotate(0 42.630859375 38.322265625)"><path d="M19.16 0 C34.65 -1.27, 53.2 -0.28, 66.1 0 C82.05 3.1, 81.79 4, 85.26 19.16 C82.27 33.08, 88.92 45.28, 85.26 57.48 C86.72 67.38, 81.78 78.75, 66.1 76.64 C53.47 77.73, 33.37 79.37, 19.16 76.64 C9.32 74.92, 0.82 67.43, 0 57.48 C-1.29 45.23, 0.7 39.89, 0 19.16 C2.46 6.12, 5.48 0.31, 19.16 0" stroke="none" stroke-width="0" fill="#228be6"></path><path d="M19.16 0 C36.71 0.44, 49.85 -0.66, 66.1 0 M19.16 0 C35.18 -0.13, 49.51 0.03, 66.1 0 M66.1 0 C78.63 -0.08, 83.32 5.29, 85.26 19.16 M66.1 0 C78.66 1.79, 83.77 4.55, 85.26 19.16 M85.26 19.16 C85.98 29.3, 83.42 41.79, 85.26 57.48 M85.26 19.16 C85.19 33.28, 85.25 47.58, 85.26 57.48 M85.26 57.48 C84.23 69.05, 77.88 78.02, 66.1 76.64 M85.26 57.48 C84.65 69.9, 81.07 78.15, 66.1 76.64 M66.1 76.64 C50.73 75.21, 37.97 77.85, 19.16 76.64 M66.1 76.64 C55.25 77.31, 44 77.31, 19.16 76.64 M19.16 76.64 C8.11 77.91, -0.37 69.81, 0 57.48 M19.16 76.64 C7.7 74.78, 1.4 72.36, 0 57.48 M0 57.48 C0.03 44.19, -1.13 30.38, 0 19.16 M0 57.48 C-0.09 48.39, 1.09 41.54, 0 19.16 M0 19.16 C0.34 8.13, 6.78 -0.68, 19.16 0 M0 19.16 C0.72 5.05, 7.49 -1.93, 19.16 0" stroke="#1e1e1e" stroke-width="2" fill="none"></path></g><g stroke-linecap="round" transform="translate(33.86899266098453 102.14701704545405) rotate(0 19.283203125 7.48828125)"><path d="M3.74 0 C12.77 -0.41, 20.46 2.44, 34.82 0 C34.81 -1.73, 39.16 2.86, 38.57 3.74 C39.35 6, 38.87 6.75, 38.57 11.23 C40.66 15.25, 38.29 16.39, 34.82 14.98 C26.48 17.46, 21.76 13.9, 3.74 14.98 C1.84 12.93, -0.94 11.33, 0 11.23 C0.07 9.03, 0.72 5.35, 0 3.74 C-0.65 1.47, 3.54 -0.57, 3.74 0" stroke="none" stroke-width="0" fill="#868e96"></path><path d="M3.74 0 C14.61 -0.25, 26.24 -0.56, 34.82 0 M3.74 0 C14.23 0.12, 25.42 -0.04, 34.82 0 M34.82 0 C36.35 -0.55, 38.47 2.03, 38.57 3.74 M34.82 0 C36.57 -0.92, 38.42 0.9, 38.57 3.74 M38.57 3.74 C38.26 6.59, 38.87 9.32, 38.57 11.23 M38.57 3.74 C38.53 5.74, 38.46 7.79, 38.57 11.23 M38.57 11.23 C38.07 14.42, 37.05 14.82, 34.82 14.98 M38.57 11.23 C39.66 14.48, 37.24 14.72, 34.82 14.98 M34.82 14.98 C26.86 15.62, 18.84 15.39, 3.74 14.98 M34.82 14.98 C22.66 15.15, 11.39 15.34, 3.74 14.98 M3.74 14.98 C1.06 14.75, 0.57 12.92, 0 11.23 M3.74 14.98 C1.95 16.03, 0.87 13.74, 0 11.23 M0 11.23 C-0.21 9.15, -0.31 6.28, 0 3.74 M0 11.23 C0.18 9.83, 0.04 8.31, 0 3.74 M0 3.74 C0.2 0.91, 1.56 -0.58, 3.74 0 M0 3.74 C0.55 0.28, 1.66 0.06, 3.74 0" stroke="#1e1e1e" stroke-width="2" fill="none"></path></g><g stroke-linecap="round" transform="translate(34.05486505681802 10) rotate(0 19.283203125 7.48828125)"><path d="M3.74 0 C13.77 2.33, 16.7 -1.63, 34.82 0 C37.92 1.62, 37.33 -1.22, 38.57 3.74 C39.05 5.53, 39.44 9.45, 38.57 11.23 C39.54 15.14, 35.87 17.3, 34.82 14.98 C26.28 14.09, 14.09 13.29, 3.74 14.98 C0.31 12.58, 2.29 12.34, 0 11.23 C0.66 9.36, -0.25 7.72, 0 3.74 C2.29 0.68, -0.95 -1.19, 3.74 0" stroke="none" stroke-width="0" fill="#868e96"></path><path d="M3.74 0 C14.48 -0.48, 25.08 0.49, 34.82 0 M3.74 0 C13.32 -0.06, 22.53 -0.31, 34.82 0 M34.82 0 C37.22 0.78, 37.92 0.45, 38.57 3.74 M34.82 0 C37.17 -0.35, 39.3 1.72, 38.57 3.74 M38.57 3.74 C38.82 5.79, 38.45 7.53, 38.57 11.23 M38.57 3.74 C38.46 5.65, 38.47 7.9, 38.57 11.23 M38.57 11.23 C38.3 13.57, 38.27 15.63, 34.82 14.98 M38.57 11.23 C38.48 13.47, 36.7 14.05, 34.82 14.98 M34.82 14.98 C26.64 15.6, 20.69 15.06, 3.74 14.98 M34.82 14.98 C25.08 15.34, 14.38 14.91, 3.74 14.98 M3.74 14.98 C1.82 14.17, 0.61 14.64, 0 11.23 M3.74 14.98 C2.11 14.99, 0.23 13.75, 0 11.23 M0 11.23 C-0.29 8.42, -0.33 5.83, 0 3.74 M0 11.23 C0 9.71, 0 7.79, 0 3.74 M0 3.74 C0.31 0.67, 1.73 -0.84, 3.74 0 M0 3.74 C0.41 1.31, 0.47 -0.09, 3.74 0" stroke="#343a40" stroke-width="2" fill="none"></path></g><g stroke-linecap="round" transform="translate(79.93959263392844 52.35810673701235) rotate(0 13.974609375 10.47265625)"><path d="M5.24 0 C7.03 -2.36, 15.62 1.68, 22.71 0 C24.49 -3.42, 29.49 4.98, 27.95 5.24 C29.55 9.88, 28.73 13.34, 27.95 15.71 C25.94 22.41, 27.76 19.9, 22.71 20.95 C16.63 18.32, 7.98 17.89, 5.24 20.95 C4.92 19.02, -2.15 19.27, 0 15.71 C-0.6 11.97, 1.53 7.49, 0 5.24 C-3.05 0.09, 1.99 -2.46, 5.24 0" stroke="none" stroke-width="0" fill="#d0bfff"></path><path d="M5.24 0 C11.01 0.89, 15.22 -1.26, 22.71 0 M5.24 0 C10.09 -0.47, 16.57 0.69, 22.71 0 M22.71 0 C24.91 -1.6, 27.69 1.14, 27.95 5.24 M22.71 0 C27.68 0.95, 26.97 -0.24, 27.95 5.24 M27.95 5.24 C27.79 8.51, 27.71 12.06, 27.95 15.71 M27.95 5.24 C27.63 8.27, 27.76 10.51, 27.95 15.71 M27.95 15.71 C29.86 20.51, 26.06 20.49, 22.71 20.95 M27.95 15.71 C26.71 17.34, 24.84 20.22, 22.71 20.95 M22.71 20.95 C17.66 20.98, 10.15 20.24, 5.24 20.95 M22.71 20.95 C16.83 20.86, 11.78 20.35, 5.24 20.95 M5.24 20.95 C2.96 22.78, 1.51 19.22, 0 15.71 M5.24 20.95 C2.2 20.99, 1.25 17.9, 0 15.71 M0 15.71 C-0.9 11.43, -0.69 8.65, 0 5.24 M0 15.71 C0.09 11.59, 0.15 7.53, 0 5.24 M0 5.24 C0.96 0.06, 2.46 0.11, 5.24 0 M0 5.24 C-1.56 1.57, 0.57 1.6, 5.24 0" stroke="#1e1e1e" stroke-width="2" fill="none"></path></g><g stroke-linecap="round" transform="translate(30.14076450892844 38.31904423701235) rotate(0 25.4296875 23.859375)"><path d="M27.36 0.94 C32.4 0.95, 39.04 3.26, 42.78 6.73 C46.53 10.21, 49.42 16.46, 49.85 21.78 C50.28 27.11, 48.25 34.45, 45.36 38.67 C42.47 42.9, 37.51 45.99, 32.5 47.14 C27.5 48.29, 20.4 47.76, 15.31 45.57 C10.21 43.38, 4.42 38.63, 1.93 34.02 C-0.57 29.41, -1.03 22.83, 0.36 17.91 C1.74 13, 4.88 7.47, 10.23 4.53 C15.58 1.58, 28.12 0.6, 32.48 0.24 C36.85 -0.11, 36.42 1.94, 36.41 2.39 M35.29 2.63 C40.05 4.55, 47.25 8.47, 49.46 13.16 C51.67 17.86, 49.9 25.64, 48.54 30.79 C47.17 35.93, 45.4 41.43, 41.26 44.04 C37.12 46.64, 29.15 46.84, 23.7 46.42 C18.25 46, 12.41 44.82, 8.57 41.53 C4.73 38.23, 1.44 31.66, 0.65 26.64 C-0.14 21.62, 0.67 15.8, 3.83 11.42 C6.99 7.04, 13.98 1.67, 19.61 0.35 C25.24 -0.97, 35 3.06, 37.62 3.51 C40.24 3.96, 35.95 2.99, 35.35 3.06" stroke="none" stroke-width="0" fill="#d0bfff"></path><path d="M15.82 0.78 C20.36 -1.32, 27.37 -0.57, 32.69 1.06 C38.01 2.68, 44.89 6.2, 47.75 10.53 C50.6 14.85, 50.75 21.72, 49.82 27 C48.89 32.28, 46.02 38.82, 42.18 42.2 C38.34 45.58, 32.32 47.14, 26.78 47.28 C21.24 47.41, 13.19 46.03, 8.95 43.01 C4.71 40, 2.37 34.27, 1.33 29.18 C0.29 24.1, -0.36 17.3, 2.73 12.5 C5.81 7.71, 16.26 2.48, 19.83 0.39 C23.41 -1.7, 24.13 -0.36, 24.16 -0.03 M35.46 2.39 C40.49 3.72, 44.92 7.45, 47.29 11.5 C49.66 15.55, 50.73 21.67, 49.68 26.69 C48.63 31.7, 44.81 38.27, 40.97 41.6 C37.13 44.93, 31.81 46.37, 26.64 46.68 C21.46 46.99, 14.31 46.49, 9.93 43.46 C5.55 40.43, 1.57 33.69, 0.36 28.51 C-0.85 23.34, -0.26 16.77, 2.67 12.42 C5.6 8.08, 12.74 4.32, 17.92 2.42 C23.1 0.53, 30.95 1.37, 33.75 1.07 C36.55 0.77, 34.66 -0.02, 34.71 0.64" stroke="#1e1e1e" stroke-width="2" fill="none"></path></g></svg>