<svg version="1.1" xmlns="http://www.w3.org/2000/svg" viewBox="0 0 105.26171875 127.84067844958372" width="105.26171875" height="127.84067844958372">
  <!-- svg-source:excalidraw -->
  
  <defs>
    <style class="style-fonts">
      @font-face {
        font-family: "Virgil";
        src: url("https://excalidraw.com/Virgil.woff2");
      }
      @font-face {
        font-family: "Cascadia";
        src: url("https://excalidraw.com/Cascadia.woff2");
      }
      @font-face {
        font-family: "Assistant";
        src: url("https://excalidraw.com/Assistant-Regular.woff2");
      }
    </style>
    
  </defs>
  <g stroke-linecap="round" transform="translate(10 24.222165854976993) rotate(0 42.630859375 38.322265625)"><path d="M19.16 0 C32.63 1.5, 53.98 1.58, 66.1 0 C76.65 -0.46, 84.43 4.44, 85.26 19.16 C85.81 30.99, 82.17 49.16, 85.26 57.48 C88.77 72.6, 80.55 76.16, 66.1 76.64 C56.39 75.17, 45.53 75.95, 19.16 76.64 C9.73 75.53, 1.49 73.37, 0 57.48 C-1.45 46.62, 3.73 35.35, 0 19.16 C3 5.21, 7.16 1.35, 19.16 0" stroke="none" stroke-width="0" fill="#228be6"></path><path d="M19.16 0 C30.76 0.95, 47.42 1.24, 66.1 0 M19.16 0 C33.84 -0.57, 48.27 -0.83, 66.1 0 M66.1 0 C78 -1.88, 84.75 4.9, 85.26 19.16 M66.1 0 C80.99 1.75, 85.66 8.39, 85.26 19.16 M85.26 19.16 C83.97 32.38, 83.45 44.4, 85.26 57.48 M85.26 19.16 C84.49 31.56, 84.77 43.45, 85.26 57.48 M85.26 57.48 C86.98 68.33, 77.55 77.1, 66.1 76.64 M85.26 57.48 C86.69 69.16, 76.69 77.63, 66.1 76.64 M66.1 76.64 C46.2 78.45, 30.67 77.58, 19.16 76.64 M66.1 76.64 C49.9 76.77, 33.72 77.88, 19.16 76.64 M19.16 76.64 C5.43 77.1, -1.57 69.53, 0 57.48 M19.16 76.64 C4.26 78.67, -1.23 68.88, 0 57.48 M0 57.48 C-0.43 45.41, -0.11 36.11, 0 19.16 M0 57.48 C0.39 46.14, -0.07 37.11, 0 19.16 M0 19.16 C-1.53 5.66, 6.3 0.84, 19.16 0 M0 19.16 C-1.51 5.51, 5.36 -1.52, 19.16 0" stroke="#1e1e1e" stroke-width="2" fill="none"></path></g><g stroke-linecap="round" transform="translate(33.86899266098453 102.14701704545405) rotate(0 19.283203125 7.48828125)"><path d="M3.74 0 C12.96 0.57, 15.91 -0.42, 34.82 0 C36.72 -1.4, 40.13 1.76, 38.57 3.74 C37.7 6.24, 39.53 8.06, 38.57 11.23 C39.78 13.38, 35.47 15.42, 34.82 14.98 C28.81 14.91, 23.87 14.09, 3.74 14.98 C2.32 17.22, -1.15 12.93, 0 11.23 C1 7.99, 0.86 5.8, 0 3.74 C0.56 2.22, 0.04 -1.27, 3.74 0" stroke="none" stroke-width="0" fill="#868e96"></path><path d="M3.74 0 C15.76 0.66, 25.95 0.1, 34.82 0 M3.74 0 C13.54 -0.32, 22.29 -0.38, 34.82 0 M34.82 0 C37.06 -0.74, 39.48 2.01, 38.57 3.74 M34.82 0 C37.52 1, 38.8 0.86, 38.57 3.74 M38.57 3.74 C38.23 6.36, 38.56 8.45, 38.57 11.23 M38.57 3.74 C38.5 6.1, 38.71 7.94, 38.57 11.23 M38.57 11.23 C37.9 13.96, 37.94 14.5, 34.82 14.98 M38.57 11.23 C37.48 14.22, 38.35 15.41, 34.82 14.98 M34.82 14.98 C24.83 15.48, 14.21 14.54, 3.74 14.98 M34.82 14.98 C23.17 15.34, 10.39 15.05, 3.74 14.98 M3.74 14.98 C0.46 14.61, -0.92 14.61, 0 11.23 M3.74 14.98 C0.63 14.29, 0.02 14.56, 0 11.23 M0 11.23 C0.03 8.81, -0.08 5.4, 0 3.74 M0 11.23 C-0.08 9.51, -0.15 7.36, 0 3.74 M0 3.74 C-0.04 1.67, 0.59 -0.38, 3.74 0 M0 3.74 C-0.51 0.49, 1.67 1.04, 3.74 0" stroke="#1e1e1e" stroke-width="2" fill="none"></path></g><g stroke-linecap="round" transform="translate(34.05486505681802 10) rotate(0 19.283203125 7.48828125)"><path d="M3.74 0 C12.18 -0.43, 23.23 -1.51, 34.82 0 C38.88 0.52, 37.16 1.54, 38.57 3.74 C39.43 6.21, 38.93 7.29, 38.57 11.23 C36.72 14.18, 35.11 15.72, 34.82 14.98 C28.57 14.18, 18.55 17.22, 3.74 14.98 C0.1 14.18, 1.08 12.53, 0 11.23 C0.72 8.89, 0.11 7.54, 0 3.74 C-1.21 -0.02, 2.69 0.54, 3.74 0" stroke="none" stroke-width="0" fill="#868e96"></path><path d="M3.74 0 C14.97 0.08, 26.2 0.43, 34.82 0 M3.74 0 C11.09 -0.34, 18.76 -0.24, 34.82 0 M34.82 0 C38.24 0.76, 38.74 2.12, 38.57 3.74 M34.82 0 C37.55 -0.39, 38.93 0.58, 38.57 3.74 M38.57 3.74 C38.56 6.1, 38.51 8.76, 38.57 11.23 M38.57 3.74 C38.72 6.33, 38.43 9.32, 38.57 11.23 M38.57 11.23 C39.19 13.25, 36.37 15.4, 34.82 14.98 M38.57 11.23 C39.6 14.16, 37.78 14.06, 34.82 14.98 M34.82 14.98 C23.54 14.48, 12.06 15.47, 3.74 14.98 M34.82 14.98 C26.16 15.22, 17.58 14.92, 3.74 14.98 M3.74 14.98 C0.32 15.86, -0.53 13.13, 0 11.23 M3.74 14.98 C1.27 15.81, 0.78 13.64, 0 11.23 M0 11.23 C-0.09 8.86, -0.17 7.14, 0 3.74 M0 11.23 C-0.13 9.43, 0.01 7.84, 0 3.74 M0 3.74 C-0.65 0.87, 0.8 -0.66, 3.74 0 M0 3.74 C0.42 2.29, 0.35 -0.74, 3.74 0" stroke="#343a40" stroke-width="2" fill="none"></path></g><g stroke-linecap="round" transform="translate(39.397448168828305 93.26932525149823) rotate(90.684351531919 13.974609375 10.47265625)"><path d="M5.24 0 C10.2 -1.66, 18.5 0.66, 22.71 0 C24.26 0.41, 25.98 -1.48, 27.95 5.24 C29.01 8.83, 26.79 13.25, 27.95 15.71 C24.89 20.23, 25.45 21.87, 22.71 20.95 C18.76 23.56, 10.82 19.88, 5.24 20.95 C3.24 19.29, -1.05 22.72, 0 15.71 C0.25 14.01, -1.03 9.97, 0 5.24 C2 2.49, -0.38 0.22, 5.24 0" stroke="none" stroke-width="0" fill="#d0bfff"></path><path d="M5.24 0 C11.83 0.91, 17.37 1.41, 22.71 0 M5.24 0 C8.82 -0.49, 13.66 0.83, 22.71 0 M22.71 0 C26.55 1.74, 28.35 1.06, 27.95 5.24 M22.71 0 C26.92 -1.34, 29.05 -0.19, 27.95 5.24 M27.95 5.24 C27.87 8.22, 28.68 12.02, 27.95 15.71 M27.95 5.24 C27.69 9.42, 28.36 13.12, 27.95 15.71 M27.95 15.71 C26.05 20.06, 28 21.7, 22.71 20.95 M27.95 15.71 C28.88 17.36, 28.06 22.29, 22.71 20.95 M22.71 20.95 C18.37 21.6, 10.41 22.4, 5.24 20.95 M22.71 20.95 C15.36 20.67, 8.57 21.76, 5.24 20.95 M5.24 20.95 C0.68 19.75, 0.04 20.65, 0 15.71 M5.24 20.95 C3.31 20.77, -0.58 19.4, 0 15.71 M0 15.71 C-0.46 11.72, -0.69 7.16, 0 5.24 M0 15.71 C0.06 11.79, -0.26 7.24, 0 5.24 M0 5.24 C-0.89 0.42, 2.47 1.81, 5.24 0 M0 5.24 C-1.8 0.26, 2.28 2.06, 5.24 0" stroke="#1e1e1e" stroke-width="2" fill="none"></path></g><g stroke-linecap="round" transform="translate(27.748046875 41.5338000671818) rotate(90.684351531919 25.4296875 23.859375)"><path d="M34.02 2.26 C38.98 3.49, 44.46 6.65, 47.13 10.92 C49.8 15.19, 51.03 22.77, 50.05 27.88 C49.07 33, 45.16 38.44, 41.25 41.62 C37.34 44.8, 31.97 46.85, 26.58 46.95 C21.19 47.05, 13.17 45.45, 8.88 42.22 C4.59 38.98, 1.83 32.63, 0.84 27.54 C-0.15 22.44, 0.42 15.93, 2.93 11.65 C5.43 7.37, 9.73 3.34, 15.88 1.87 C22.03 0.4, 35.42 1.92, 39.81 2.84 C44.2 3.76, 42.46 6.89, 42.24 7.4 M16.89 2.03 C21.8 0.18, 30.17 -0.68, 35.38 0.97 C40.58 2.63, 45.86 7.12, 48.11 11.95 C50.37 16.78, 49.88 24.65, 48.93 29.94 C47.99 35.24, 46.41 40.79, 42.44 43.71 C38.47 46.64, 30.97 47.82, 25.11 47.5 C19.24 47.17, 11.61 45.1, 7.25 41.77 C2.89 38.43, -0.44 32.53, -1.04 27.49 C-1.65 22.44, 0.5 15.66, 3.62 11.5 C6.75 7.34, 15.41 4.07, 17.71 2.52 C20 0.97, 17.05 2.17, 17.39 2.21" stroke="none" stroke-width="0" fill="#d0bfff"></path><path d="M34.73 1.77 C39.61 3.67, 44.8 9.57, 47.49 14.22 C50.18 18.88, 51.92 24.86, 50.89 29.7 C49.86 34.55, 45.92 40.25, 41.34 43.3 C36.76 46.35, 29.1 48.27, 23.43 47.98 C17.75 47.69, 11.28 45.1, 7.26 41.58 C3.25 38.05, -0.2 32.09, -0.69 26.82 C-1.18 21.54, 1.18 14.32, 4.34 9.92 C7.49 5.53, 12.55 1.63, 18.24 0.44 C23.93 -0.75, 34.79 1.94, 38.48 2.77 C42.17 3.6, 40.87 5.15, 40.39 5.43 M26.93 0.8 C32.17 1.27, 41.17 4.62, 45.25 8.03 C49.33 11.44, 51.12 16.09, 51.42 21.24 C51.72 26.4, 50.31 34.52, 47.06 38.96 C43.8 43.4, 37.53 46.62, 31.89 47.88 C26.25 49.15, 18.07 49.03, 13.21 46.53 C8.35 44.04, 4.54 37.61, 2.74 32.9 C0.94 28.19, 1.06 23.04, 2.39 18.27 C3.72 13.5, 6.58 7.39, 10.71 4.28 C14.84 1.17, 24.47 0, 27.17 -0.39 C29.87 -0.77, 26.89 1.62, 26.91 1.95" stroke="#1e1e1e" stroke-width="2" fill="none"></path></g></svg>