<svg version="1.1" xmlns="http://www.w3.org/2000/svg" viewBox="0 0 106.88189535019183 127.12357954545405" width="106.88189535019183" height="127.12357954545405">
  <!-- svg-source:excalidraw -->
  
  <defs>
    <style class="style-fonts">
      @font-face {
        font-family: "Virgil";
        src: url("https://excalidraw.com/Virgil.woff2");
      }
      @font-face {
        font-family: "Cascadia";
        src: url("https://excalidraw.com/Cascadia.woff2");
      }
      @font-face {
        font-family: "Assistant";
        src: url("https://excalidraw.com/Assistant-Regular.woff2");
      }
    </style>
    
  </defs>
  <g stroke-linecap="round" transform="translate(10 24.85274621212011) rotate(0 42.630859375 38.322265625)"><path d="M19.16 0 C28.41 -3.94, 42.64 2.71, 66.1 0 C80.24 1.45, 82.39 9.29, 85.26 19.16 C83.51 36.11, 87.07 45.59, 85.26 57.48 C88.46 73.2, 77.15 77.46, 66.1 76.64 C58.88 73.94, 43.17 75.93, 19.16 76.64 C9 79.1, -0.27 69.35, 0 57.48 C-3.66 44.01, -0.36 31.37, 0 19.16 C-1.42 9.79, 3.63 -1.31, 19.16 0" stroke="none" stroke-width="0" fill="#228be6"></path><path d="M19.16 0 C35.92 0.11, 51.53 -1.58, 66.1 0 M19.16 0 C30.03 -1.16, 42.06 -0.67, 66.1 0 M66.1 0 C80.16 0.83, 84.41 4.66, 85.26 19.16 M66.1 0 C79.61 1.76, 85.99 5.87, 85.26 19.16 M85.26 19.16 C84.25 28.87, 83.93 39.65, 85.26 57.48 M85.26 19.16 C86.12 33.95, 85.09 47.21, 85.26 57.48 M85.26 57.48 C84.18 68.64, 77.69 76.01, 66.1 76.64 M85.26 57.48 C86.95 68.66, 80.04 78.58, 66.1 76.64 M66.1 76.64 C52.69 78.15, 39.47 76.06, 19.16 76.64 M66.1 76.64 C53.68 77.18, 40.79 76.28, 19.16 76.64 M19.16 76.64 C6.78 76.68, 1.08 69.13, 0 57.48 M19.16 76.64 C8.29 74.76, -1.01 68.1, 0 57.48 M0 57.48 C1.8 47.3, 2.03 36.83, 0 19.16 M0 57.48 C0.36 46.45, 0.24 37.16, 0 19.16 M0 19.16 C-1.36 6.23, 5.36 1.39, 19.16 0 M0 19.16 C-0.54 8.42, 8.37 -2.22, 19.16 0" stroke="#1e1e1e" stroke-width="2" fill="none"></path></g><g stroke-linecap="round" transform="translate(33.86899266098453 102.14701704545405) rotate(0 19.283203125 7.48828125)"><path d="M3.74 0 C16.11 2.72, 27.24 1.43, 34.82 0 C35.24 2.1, 40.09 2.22, 38.57 3.74 C38.93 6.12, 39.38 9.85, 38.57 11.23 C37.32 14.32, 35.27 14.03, 34.82 14.98 C26.82 14.81, 23.81 16.53, 3.74 14.98 C1.05 14.32, 0.22 16.02, 0 11.23 C0.15 8.48, -0.3 7.99, 0 3.74 C-1.99 0.3, 1.14 1.09, 3.74 0" stroke="none" stroke-width="0" fill="#868e96"></path><path d="M3.74 0 C10.63 -0.95, 17.05 -0.08, 34.82 0 M3.74 0 C15.42 -0.03, 27.54 0.33, 34.82 0 M34.82 0 C36.89 -0.86, 38.89 2.01, 38.57 3.74 M34.82 0 C37.68 -0.26, 38.34 0.89, 38.57 3.74 M38.57 3.74 C38.32 5.71, 38.81 7.95, 38.57 11.23 M38.57 3.74 C38.59 5.83, 38.5 7.85, 38.57 11.23 M38.57 11.23 C37.98 13.41, 38.05 14.28, 34.82 14.98 M38.57 11.23 C39.15 14.69, 37.29 15.29, 34.82 14.98 M34.82 14.98 C27.55 14.93, 18.79 15.68, 3.74 14.98 M34.82 14.98 C28.39 15.12, 21.31 15.13, 3.74 14.98 M3.74 14.98 C1.79 14.41, 0.83 12.91, 0 11.23 M3.74 14.98 C0.74 13.9, -0.29 12.87, 0 11.23 M0 11.23 C0.3 8.37, -0.16 5.48, 0 3.74 M0 11.23 C0.05 9.43, -0.15 7.59, 0 3.74 M0 3.74 C-0.51 1.94, 1.01 0.88, 3.74 0 M0 3.74 C0.99 0.14, 0.48 0.26, 3.74 0" stroke="#1e1e1e" stroke-width="2" fill="none"></path></g><g stroke-linecap="round" transform="translate(34.05486505681802 10) rotate(0 19.283203125 7.48828125)"><path d="M3.74 0 C11.1 0.69, 14.42 1.73, 34.82 0 C38.84 0.98, 39.98 -0.2, 38.57 3.74 C39.47 7.45, 38.14 9.79, 38.57 11.23 C36.52 12.79, 34.92 17.27, 34.82 14.98 C29.05 16.76, 19.3 14.33, 3.74 14.98 C1.47 17.27, -0.57 11.53, 0 11.23 C-0.39 10.25, -0.75 7.07, 0 3.74 C-0.11 2.33, -0.45 -0.99, 3.74 0" stroke="none" stroke-width="0" fill="#868e96"></path><path d="M3.74 0 C12.14 0.06, 22.4 -0.5, 34.82 0 M3.74 0 C10.91 0.25, 17.21 -0.38, 34.82 0 M34.82 0 C37.64 0.77, 38.88 1.02, 38.57 3.74 M34.82 0 C37.09 -0.36, 38.42 0.74, 38.57 3.74 M38.57 3.74 C38.8 5.5, 38.49 7.82, 38.57 11.23 M38.57 3.74 C38.46 6.33, 38.45 9.16, 38.57 11.23 M38.57 11.23 C39.3 13.03, 37.83 15.82, 34.82 14.98 M38.57 11.23 C38.53 14.04, 36.79 15.29, 34.82 14.98 M34.82 14.98 C22.6 15.52, 10.01 15.56, 3.74 14.98 M34.82 14.98 C22.75 14.99, 10.75 14.7, 3.74 14.98 M3.74 14.98 C2.08 14.16, -0.44 12.79, 0 11.23 M3.74 14.98 C0.96 14.12, 1.06 14.6, 0 11.23 M0 11.23 C-0.16 8.97, -0.25 6.66, 0 3.74 M0 11.23 C-0.14 9.6, -0.11 8.13, 0 3.74 M0 3.74 C-0.24 2.13, 2.11 -0.96, 3.74 0 M0 3.74 C-0.76 1.51, 1.96 -0.55, 3.74 0" stroke="#343a40" stroke-width="2" fill="none"></path></g><g stroke-linecap="round" transform="translate(65.74630283943043 23.860949680865815) rotate(312.47556431009303 13.974609375 10.47265625)"><path d="M5.24 0 C9.54 2.41, 20.7 1.05, 22.71 0 C28.16 -2.01, 31.16 3.3, 27.95 5.24 C27.21 8.5, 26.63 10.23, 27.95 15.71 C24.62 22.37, 24.28 18.8, 22.71 20.95 C17.2 20.37, 12.43 23.93, 5.24 20.95 C0.96 17.9, -1.65 19.45, 0 15.71 C-1.37 12.6, 0 11.65, 0 5.24 C-2.36 0.38, 0.14 -2.38, 5.24 0" stroke="none" stroke-width="0" fill="#d0bfff"></path><path d="M5.24 0 C10.14 -1.12, 10.93 -0.21, 22.71 0 M5.24 0 C9.58 -0.83, 14.95 0.6, 22.71 0 M22.71 0 C26.84 -0.45, 27.56 1.13, 27.95 5.24 M22.71 0 C25.91 -1.02, 26.76 0.35, 27.95 5.24 M27.95 5.24 C27.86 8.86, 28.71 10.4, 27.95 15.71 M27.95 5.24 C27.58 7.98, 28.28 10.68, 27.95 15.71 M27.95 15.71 C28.97 20.88, 26.15 21.49, 22.71 20.95 M27.95 15.71 C26.9 19.82, 28.19 22.4, 22.71 20.95 M22.71 20.95 C16.38 22.11, 14.47 22.36, 5.24 20.95 M22.71 20.95 C17.92 20.46, 12.91 20.23, 5.24 20.95 M5.24 20.95 C0.87 19.07, -0.51 17.71, 0 15.71 M5.24 20.95 C3.86 22.69, 0.4 21.21, 0 15.71 M0 15.71 C-0.57 12.86, -0.85 9.38, 0 5.24 M0 15.71 C-0.2 12.88, -0.05 9.77, 0 5.24 M0 5.24 C1.72 -0.18, 0.42 0.46, 5.24 0 M0 5.24 C1.43 0.65, -0.44 0.98, 5.24 0" stroke="#1e1e1e" stroke-width="2" fill="none"></path></g><g stroke-linecap="round" transform="translate(27.917475541171825 38.54130475837155) rotate(312.47556431009303 25.4296875 23.859375)"><path d="M37.56 2.67 C42.16 4.57, 46.42 9.85, 48.37 14.58 C50.32 19.3, 50.87 26.12, 49.26 31.03 C47.65 35.95, 43.13 41.42, 38.7 44.07 C34.28 46.71, 27.99 47.6, 22.7 46.9 C17.41 46.19, 10.63 43.46, 6.97 39.84 C3.31 36.21, 0.94 30.04, 0.75 25.17 C0.56 20.3, 2.87 14.79, 5.81 10.6 C8.76 6.41, 13.03 1.16, 18.44 0.02 C23.84 -1.13, 34.88 3.19, 38.23 3.74 C41.58 4.29, 38.69 2.9, 38.51 3.29 M31.42 1.3 C36.56 2.25, 42.61 5.57, 45.71 9.61 C48.81 13.65, 50.09 20.64, 50.02 25.55 C49.95 30.45, 48.52 35.18, 45.32 39.03 C42.11 42.88, 36.42 47.7, 30.81 48.64 C25.21 49.58, 16.77 47.6, 11.67 44.69 C6.58 41.77, 2.13 35.81, 0.23 31.15 C-1.67 26.48, -1.72 21.53, 0.28 16.69 C2.28 11.86, 7.24 4.66, 12.24 2.13 C17.23 -0.4, 27.09 1.74, 30.24 1.52 C33.39 1.29, 31.29 0.55, 31.14 0.78" stroke="none" stroke-width="0" fill="#d0bfff"></path><path d="M24.18 -0.37 C29.23 -1.05, 35.15 1.79, 39.6 4.94 C44.05 8.08, 49.49 13.62, 50.89 18.5 C52.3 23.38, 50.6 29.7, 48.01 34.21 C45.43 38.72, 40.39 43.56, 35.37 45.57 C30.34 47.57, 23.15 47.74, 17.87 46.25 C12.59 44.76, 6.52 40.83, 3.68 36.62 C0.84 32.41, 0.17 25.84, 0.84 21 C1.51 16.16, 3.55 11.09, 7.69 7.58 C11.82 4.07, 22.61 1.2, 25.66 -0.07 C28.72 -1.34, 26.25 -0.36, 26.02 -0.05 M22.19 1.56 C27.06 0.73, 34.03 1.32, 38.46 3.81 C42.9 6.29, 46.78 11.56, 48.78 16.48 C50.78 21.4, 52.35 28.69, 50.47 33.34 C48.59 37.99, 42.34 42.26, 37.5 44.38 C32.67 46.5, 26.61 46.76, 21.46 46.07 C16.31 45.38, 9.98 44.03, 6.6 40.27 C3.21 36.5, 1.15 28.82, 1.13 23.48 C1.12 18.15, 3 12.26, 6.52 8.25 C10.04 4.25, 19.54 0.9, 22.24 -0.55 C24.95 -2, 22.93 -0.76, 22.75 -0.46" stroke="#1e1e1e" stroke-width="2" fill="none"></path></g></svg>