<svg version="1.1" xmlns="http://www.w3.org/2000/svg" viewBox="0 0 105.26171875 140.8422378015016" width="105.26171875" height="140.8422378015016">
  <!-- svg-source:excalidraw -->
  
  <defs>
    <style class="style-fonts">
      @font-face {
        font-family: "Virgil";
        src: url("https://excalidraw.com/Virgil.woff2");
      }
      @font-face {
        font-family: "Cascadia";
        src: url("https://excalidraw.com/Cascadia.woff2");
      }
      @font-face {
        font-family: "Assistant";
        src: url("https://excalidraw.com/Assistant-Regular.woff2");
      }
    </style>
    
  </defs>
  <g stroke-linecap="round" transform="translate(32.64044744318198 109.06643921733757) rotate(337.5387531331347 19.283203125 7.48828125)"><path d="M3.74 0 C13.12 0.09, 16.09 -0.69, 34.82 0 C36.28 2.1, 38.84 -1.28, 38.57 3.74 C37.64 6.05, 37.97 10.1, 38.57 11.23 C38.53 11.65, 35.74 16.8, 34.82 14.98 C23.5 15.03, 12.55 15.43, 3.74 14.98 C2.58 17.51, -1.18 15.86, 0 11.23 C-0.03 9.56, -0.1 7.42, 0 3.74 C0.26 -0.85, 2.24 -0.14, 3.74 0" stroke="none" stroke-width="0" fill="#868e96"></path><path d="M3.74 0 C10.2 0.76, 16.37 -0.19, 34.82 0 M3.74 0 C14.79 0.39, 25.66 0.57, 34.82 0 M34.82 0 C36.97 -0.96, 38.34 1.67, 38.57 3.74 M34.82 0 C36.62 0.08, 39.24 2, 38.57 3.74 M38.57 3.74 C38.86 5.27, 38.69 7.03, 38.57 11.23 M38.57 3.74 C38.43 5.99, 38.56 8.08, 38.57 11.23 M38.57 11.23 C38.08 14.32, 37.73 15.12, 34.82 14.98 M38.57 11.23 C38.3 14.23, 37.54 15.45, 34.82 14.98 M34.82 14.98 C28.57 15.55, 21.13 14.56, 3.74 14.98 M34.82 14.98 C25.65 14.68, 16.28 15.22, 3.74 14.98 M3.74 14.98 C0.67 15.31, -0.55 13.64, 0 11.23 M3.74 14.98 C0.43 15.65, -0.25 12.98, 0 11.23 M0 11.23 C-0.32 8.69, -0.31 5.85, 0 3.74 M0 11.23 C-0.06 8.66, -0.15 6.36, 0 3.74 M0 3.74 C0 1.32, 0.52 -0.81, 3.74 0 M0 3.74 C-0.01 1.52, 1.21 -1.09, 3.74 0" stroke="#1e1e1e" stroke-width="2" fill="none"></path></g><g stroke-linecap="round" transform="translate(32.826319839014104 16.919422171883525) rotate(337.0766447889431 19.283203125 7.48828125)"><path d="M3.74 0 C12.72 -0.59, 23.42 2.06, 34.82 0 C37.6 -2.52, 40.13 2.09, 38.57 3.74 C37.85 6.66, 38.46 6.88, 38.57 11.23 C36.99 15.55, 38.4 14.99, 34.82 14.98 C25.46 15.59, 19.52 17.54, 3.74 14.98 C0.07 17.11, -0.02 14.8, 0 11.23 C-0.06 9.36, 0.1 5.36, 0 3.74 C0.99 1.1, 1.7 0.53, 3.74 0" stroke="none" stroke-width="0" fill="#868e96"></path><path d="M3.74 0 C13.89 -0.27, 24.73 0.02, 34.82 0 M3.74 0 C10.47 0.35, 16.85 -0.56, 34.82 0 M34.82 0 C37.1 0.43, 37.96 1.32, 38.57 3.74 M34.82 0 C37.99 0.75, 37.58 0.72, 38.57 3.74 M38.57 3.74 C38.74 6.08, 38.52 8.47, 38.57 11.23 M38.57 3.74 C38.51 5.77, 38.44 7.61, 38.57 11.23 M38.57 11.23 C38.98 13.88, 37.09 15.41, 34.82 14.98 M38.57 11.23 C38.79 14.2, 36.34 13.89, 34.82 14.98 M34.82 14.98 C26.91 14.75, 19.69 15.15, 3.74 14.98 M34.82 14.98 C22.87 14.92, 9.73 15, 3.74 14.98 M3.74 14.98 C0.7 14.89, -0.71 14.31, 0 11.23 M3.74 14.98 C1 14.23, 0.94 13.26, 0 11.23 M0 11.23 C-0.29 8.77, 0.16 5.45, 0 3.74 M0 11.23 C-0.16 9.17, 0.02 6.85, 0 3.74 M0 3.74 C-0.73 0.44, 1.24 0.24, 3.74 0 M0 3.74 C-0.03 0.15, 0.34 -0.93, 3.74 0" stroke="#1e1e1e" stroke-width="2" fill="none"></path></g><g stroke-linecap="round" transform="translate(10 32.545724255215646) rotate(0 42.630859375 38.322265625)"><path d="M19.16 0 C32.21 3.08, 48.51 -3.32, 66.1 0 C81.05 1.17, 83.87 2.86, 85.26 19.16 C84.76 26.23, 82.64 41.59, 85.26 57.48 C86.76 70.28, 77.71 75.66, 66.1 76.64 C53.53 80.34, 35.64 79.79, 19.16 76.64 C6.36 78.13, 1.44 70.28, 0 57.48 C0.4 40.84, 1.41 29.8, 0 19.16 C0.63 7.12, 9.33 -1.22, 19.16 0" stroke="none" stroke-width="0" fill="#7950f2"></path><path d="M19.16 0 C38.04 0.36, 53.14 0.6, 66.1 0 M19.16 0 C35.26 -1.37, 51.82 0.02, 66.1 0 M66.1 0 C77.67 0.14, 86.44 7.69, 85.26 19.16 M66.1 0 C76.9 -1.05, 85.29 8.32, 85.26 19.16 M85.26 19.16 C85 31.02, 84.43 38.95, 85.26 57.48 M85.26 19.16 C84.72 34.28, 85.62 48.38, 85.26 57.48 M85.26 57.48 C84.8 71.13, 79.26 77.46, 66.1 76.64 M85.26 57.48 C83.31 68.09, 77.59 77.64, 66.1 76.64 M66.1 76.64 C49.02 76.62, 33.7 77.79, 19.16 76.64 M66.1 76.64 C55.71 77.07, 45.94 76.64, 19.16 76.64 M19.16 76.64 C4.96 77.81, -0.43 68.95, 0 57.48 M19.16 76.64 C8.26 75.72, 1.68 68.23, 0 57.48 M0 57.48 C1.02 41.7, 0.2 27.23, 0 19.16 M0 57.48 C0.36 47.48, -0.37 36.52, 0 19.16 M0 19.16 C-0.02 6.86, 6.33 -1.9, 19.16 0 M0 19.16 C-1.82 4.52, 7.15 2.22, 19.16 0" stroke="#1e1e1e" stroke-width="2" fill="none"></path></g><g stroke-linecap="round" transform="translate(36.68179290259832 21.99483342197982) rotate(90.684351531919 13.974609375 10.47265625)"><path d="M5.24 0 C12.22 2.99, 14.54 2.51, 22.71 0 C26.18 1.48, 29.39 1.77, 27.95 5.24 C28.13 7.47, 28.66 12.64, 27.95 15.71 C28.58 19.93, 29.15 19.73, 22.71 20.95 C20.13 22.11, 16.7 18.77, 5.24 20.95 C3.28 19.35, 2.79 19, 0 15.71 C-1 14.53, -0.86 12.03, 0 5.24 C-1.67 4.49, -1.53 -2.19, 5.24 0" stroke="none" stroke-width="0" fill="#a5d8ff"></path><path d="M5.24 0 C9.78 0.94, 14.17 -1.51, 22.71 0 M5.24 0 C11.44 0.38, 18.85 -0.01, 22.71 0 M22.71 0 C25.74 0.87, 28.33 2.56, 27.95 5.24 M22.71 0 C24.25 -2.16, 26.67 2.75, 27.95 5.24 M27.95 5.24 C27.97 9.14, 28.95 13.59, 27.95 15.71 M27.95 5.24 C27.74 7.6, 27.75 9.57, 27.95 15.71 M27.95 15.71 C26.52 20.36, 25.77 19.64, 22.71 20.95 M27.95 15.71 C29.82 18.27, 27.88 18.91, 22.71 20.95 M22.71 20.95 C16.6 20.18, 9.17 20.4, 5.24 20.95 M22.71 20.95 C18.12 21.13, 12.88 20.36, 5.24 20.95 M5.24 20.95 C1.72 21.42, -0.06 17.3, 0 15.71 M5.24 20.95 C-0.08 19.08, 0.76 21.42, 0 15.71 M0 15.71 C-0.36 13.32, 0.17 8.23, 0 5.24 M0 15.71 C-0.55 11.72, -0.37 8.68, 0 5.24 M0 5.24 C-0.03 0.14, 0.53 1.4, 5.24 0 M0 5.24 C0.96 1.76, 1 -0.63, 5.24 0" stroke="#1e1e1e" stroke-width="2" fill="none"></path></g><g stroke-linecap="round" transform="translate(25.421037946425713 46.95692110629625) rotate(90.684351531919 25.4296875 23.859375)"><path d="M16.59 1.93 C21.28 -0.31, 27.49 -0.77, 32.47 0.87 C37.44 2.51, 43.39 7.6, 46.43 11.78 C49.48 15.96, 51.29 20.94, 50.76 25.93 C50.23 30.92, 47.36 38.26, 43.27 41.72 C39.19 45.19, 31.85 46.63, 26.23 46.71 C20.62 46.79, 13.72 45.13, 9.61 42.19 C5.51 39.26, 2.87 34.07, 1.6 29.08 C0.34 24.1, -0.58 16.83, 2.03 12.3 C4.64 7.78, 14.66 3.74, 17.27 1.91 C19.87 0.08, 17.7 1, 17.69 1.31 M21.83 -0.2 C26.98 -1.6, 34.15 0.23, 38.8 2.88 C43.45 5.54, 47.92 10.81, 49.71 15.72 C51.5 20.62, 51.4 27.39, 49.55 32.31 C47.71 37.24, 43.25 42.92, 38.62 45.24 C34 47.57, 27.09 47.19, 21.81 46.25 C16.54 45.3, 10.54 43.16, 6.95 39.58 C3.36 36, 0.3 29.96, 0.27 24.78 C0.24 19.6, 3.64 12.42, 6.76 8.5 C9.88 4.57, 16.79 2.38, 18.98 1.2 C21.16 0.03, 19.45 1.08, 19.87 1.44" stroke="none" stroke-width="0" fill="#a5d8ff"></path><path d="M15.81 1.61 C20.36 -0.57, 27.81 -0.12, 32.94 1.31 C38.08 2.75, 43.57 6.03, 46.61 10.22 C49.65 14.41, 51.67 21.48, 51.16 26.46 C50.66 31.45, 47.7 36.68, 43.57 40.12 C39.43 43.56, 31.78 46.47, 26.35 47.1 C20.92 47.72, 15.3 46.82, 10.99 43.87 C6.67 40.92, 1.85 34.44, 0.45 29.38 C-0.94 24.33, -0.41 18.13, 2.59 13.54 C5.59 8.95, 15.67 3.79, 18.44 1.86 C21.2 -0.08, 19.17 1.75, 19.17 1.92 M28.61 1.21 C33.85 1.58, 40.57 3.78, 44.48 7.43 C48.39 11.08, 51.81 18.05, 52.08 23.1 C52.35 28.16, 49.58 33.93, 46.11 37.75 C42.64 41.58, 36.59 44.8, 31.27 46.03 C25.95 47.26, 19.26 47.44, 14.18 45.11 C9.1 42.78, 3.02 37.03, 0.8 32.06 C-1.42 27.09, -0.85 19.91, 0.88 15.29 C2.61 10.67, 6.38 6.82, 11.18 4.35 C15.98 1.87, 26.8 1.23, 29.69 0.44 C32.58 -0.35, 28.58 -0.84, 28.51 -0.41" stroke="#1e1e1e" stroke-width="2" fill="none"></path></g></svg>