<svg version="1.1" xmlns="http://www.w3.org/2000/svg" viewBox="0 0 108.6787703501941 140.8422378015016" width="108.6787703501941" height="140.8422378015016">
  <!-- svg-source:excalidraw -->
  
  <defs>
    <style class="style-fonts">
      @font-face {
        font-family: "Virgil";
        src: url("https://excalidraw.com/Virgil.woff2");
      }
      @font-face {
        font-family: "Cascadia";
        src: url("https://excalidraw.com/Cascadia.woff2");
      }
      @font-face {
        font-family: "Assistant";
        src: url("https://excalidraw.com/Assistant-Regular.woff2");
      }
    </style>
    
  </defs>
  <g stroke-linecap="round" transform="translate(36.05749904337608 109.06643921733757) rotate(337.5387531331347 19.283203125 7.48828125)"><path d="M3.74 0 C12.68 -2.85, 22.63 0.52, 34.82 0 C36.31 -2.55, 37.52 -0.42, 38.57 3.74 C37.97 7.41, 38.97 9.72, 38.57 11.23 C37.73 13.02, 37.5 13.93, 34.82 14.98 C23.62 17.5, 14.76 16.44, 3.74 14.98 C2.29 15, 1.52 13.58, 0 11.23 C0.36 8.41, 0.16 5.9, 0 3.74 C2.13 0.37, -1.16 1.26, 3.74 0" stroke="none" stroke-width="0" fill="#868e96"></path><path d="M3.74 0 C11.75 0.25, 21.98 0.15, 34.82 0 M3.74 0 C15.64 0.36, 27.46 0.18, 34.82 0 M34.82 0 C37.91 0.65, 37.71 0.79, 38.57 3.74 M34.82 0 C37.33 0.97, 38.34 1.69, 38.57 3.74 M38.57 3.74 C38.37 5.84, 38.86 8.52, 38.57 11.23 M38.57 3.74 C38.63 6.62, 38.5 9.52, 38.57 11.23 M38.57 11.23 C38.76 14.14, 36.47 14.04, 34.82 14.98 M38.57 11.23 C37.93 14.23, 38.08 14.61, 34.82 14.98 M34.82 14.98 C27.51 15.64, 17.31 15.88, 3.74 14.98 M34.82 14.98 C24.66 14.99, 14.7 15.32, 3.74 14.98 M3.74 14.98 C1.03 14.32, 0.81 13.33, 0 11.23 M3.74 14.98 C2.09 13.96, 0.97 12.73, 0 11.23 M0 11.23 C-0.04 8.17, -0.15 5.07, 0 3.74 M0 11.23 C-0.14 8.3, 0 5.71, 0 3.74 M0 3.74 C-0.03 0.3, 0.46 -0.81, 3.74 0 M0 3.74 C0.38 2.36, 1.35 -0.61, 3.74 0" stroke="#1e1e1e" stroke-width="2" fill="none"></path></g><g stroke-linecap="round" transform="translate(36.24337143921002 16.919422171883525) rotate(337.0766447889431 19.283203125 7.48828125)"><path d="M3.74 0 C17.14 1.24, 26.4 -2.16, 34.82 0 C36.27 -1.67, 41.12 1.21, 38.57 3.74 C38.91 5.4, 38.19 6.77, 38.57 11.23 C38.75 12.69, 37.9 16.31, 34.82 14.98 C22.46 16.38, 11.16 15.33, 3.74 14.98 C2.77 14.82, 1.8 13.99, 0 11.23 C0.13 9.79, 0.76 7.62, 0 3.74 C-2.41 2.51, 0.21 0.86, 3.74 0" stroke="none" stroke-width="0" fill="#868e96"></path><path d="M3.74 0 C14.02 0.14, 24.15 -0.39, 34.82 0 M3.74 0 C9.77 -0.03, 16.69 0.26, 34.82 0 M34.82 0 C36.46 -0.46, 38.58 2.09, 38.57 3.74 M34.82 0 C37.09 0.44, 38.82 1.02, 38.57 3.74 M38.57 3.74 C38.84 6.36, 38.85 8.9, 38.57 11.23 M38.57 3.74 C38.54 6.51, 38.62 9.2, 38.57 11.23 M38.57 11.23 C37.72 12.79, 36.76 15.41, 34.82 14.98 M38.57 11.23 C39.33 13.36, 36.94 15.04, 34.82 14.98 M34.82 14.98 C24.38 15.97, 15.94 14.5, 3.74 14.98 M34.82 14.98 C24.1 15.25, 13.98 14.64, 3.74 14.98 M3.74 14.98 C2.06 14.57, 0.73 12.85, 0 11.23 M3.74 14.98 C2.22 13.98, 1.01 14.12, 0 11.23 M0 11.23 C-0.14 9.03, 0.27 7.53, 0 3.74 M0 11.23 C0.03 8.98, 0.02 6.46, 0 3.74 M0 3.74 C-0.79 0.44, 1.58 0.97, 3.74 0 M0 3.74 C0.1 0.64, 1 -0.46, 3.74 0" stroke="#1e1e1e" stroke-width="2" fill="none"></path></g><g stroke-linecap="round" transform="translate(13.4170516001941 32.545724255215646) rotate(0 42.630859375 38.322265625)"><path d="M19.16 0 C27.29 -3.81, 36.76 -2.58, 66.1 0 C82.42 -0.06, 82.38 4.2, 85.26 19.16 C84.39 32.36, 85.8 46.08, 85.26 57.48 C86.07 72.11, 82.38 75.01, 66.1 76.64 C49.61 77.02, 32.35 76.78, 19.16 76.64 C8.88 77, -2.9 71.63, 0 57.48 C2.82 44.98, -3.45 36.66, 0 19.16 C-1.44 7.58, 7.87 1.42, 19.16 0" stroke="none" stroke-width="0" fill="#7950f2"></path><path d="M19.16 0 C36.23 -0.77, 47.91 -0.53, 66.1 0 M19.16 0 C35.83 0.62, 50.47 -0.49, 66.1 0 M66.1 0 C78.9 1.68, 84.87 7.16, 85.26 19.16 M66.1 0 C79.39 -0.47, 86.55 5.25, 85.26 19.16 M85.26 19.16 C87.17 26.45, 86.74 36.5, 85.26 57.48 M85.26 19.16 C85.37 31.63, 84.32 42.35, 85.26 57.48 M85.26 57.48 C84.15 71.13, 80.2 76, 66.1 76.64 M85.26 57.48 C84.51 70.39, 79.03 78.92, 66.1 76.64 M66.1 76.64 C49.32 75.91, 32.5 75.96, 19.16 76.64 M66.1 76.64 C52.2 76.27, 39.55 76.51, 19.16 76.64 M19.16 76.64 C7.85 74.88, 1.68 68.53, 0 57.48 M19.16 76.64 C8.42 77.43, -1.21 70.1, 0 57.48 M0 57.48 C1.57 47.53, 0.28 36.11, 0 19.16 M0 57.48 C-0.03 48.14, -0.79 39.88, 0 19.16 M0 19.16 C0.66 8.32, 6.56 -1.06, 19.16 0 M0 19.16 C-0.49 5.47, 8.24 0.25, 19.16 0" stroke="#1e1e1e" stroke-width="2" fill="none"></path></g><g stroke-linecap="round" transform="translate(13.186373760761853 30.81458684460722) rotate(47.524435689906944 13.974609375 10.47265625)"><path d="M5.24 0 C10.35 0.32, 15.91 0.81, 22.71 0 C28.05 3.5, 26.32 4.7, 27.95 5.24 C28.04 9.48, 27.92 12.81, 27.95 15.71 C28.31 16.3, 27.58 20.75, 22.71 20.95 C16.1 18.29, 13.14 19.95, 5.24 20.95 C2.94 22.43, 1.42 16.86, 0 15.71 C-0.02 11, 1.32 8.43, 0 5.24 C-1.67 4.3, 0.33 2.6, 5.24 0" stroke="none" stroke-width="0" fill="#a5d8ff"></path><path d="M5.24 0 C10.45 -0.35, 13.39 0.39, 22.71 0 M5.24 0 C9.39 0.78, 14.89 0.79, 22.71 0 M22.71 0 C25.23 1.18, 28.77 2.04, 27.95 5.24 M22.71 0 C25.67 1, 28.39 2.69, 27.95 5.24 M27.95 5.24 C28.31 8.18, 27.51 9.4, 27.95 15.71 M27.95 5.24 C28.3 7.96, 28.43 11.73, 27.95 15.71 M27.95 15.71 C26.79 19.87, 25.1 20.78, 22.71 20.95 M27.95 15.71 C26.3 20.54, 25.71 19.45, 22.71 20.95 M22.71 20.95 C14.5 22.55, 7.87 22.61, 5.24 20.95 M22.71 20.95 C16.52 20.61, 10.22 21.56, 5.24 20.95 M5.24 20.95 C1.75 21.08, -1.46 17.58, 0 15.71 M5.24 20.95 C1.72 21.49, -0.07 17.01, 0 15.71 M0 15.71 C1.1 13.49, -0.47 10.86, 0 5.24 M0 15.71 C-0.59 13.3, 0.09 10.06, 0 5.24 M0 5.24 C-1.96 0.94, 0.46 1.97, 5.24 0 M0 5.24 C-0.04 -0.1, 0.35 1.61, 5.24 0" stroke="#1e1e1e" stroke-width="2" fill="none"></path></g><g stroke-linecap="round" transform="translate(28.10504480902091 45.26837942211296) rotate(47.524435689906944 25.4296875 23.859375)"><path d="M24.33 -0.79 C29.33 -1.06, 36.33 2.41, 40.85 5.82 C45.36 9.23, 50.39 14.72, 51.41 19.66 C52.44 24.6, 49.92 30.89, 47 35.45 C44.07 40.02, 38.87 45.39, 33.87 47.04 C28.87 48.69, 21.95 47.16, 16.98 45.36 C12.02 43.56, 6.92 40.65, 4.09 36.24 C1.25 31.82, -0.77 24.08, -0.03 18.88 C0.72 13.68, 3.98 8.18, 8.57 5.03 C13.15 1.89, 24.42 0.85, 27.47 0 C30.52 -0.84, 26.91 -0.51, 26.85 -0.04 M25.6 -0.6 C30.92 -0.7, 37.78 3.11, 42.17 6.39 C46.56 9.68, 50.86 14.19, 51.94 19.1 C53.03 24.01, 51.53 31.2, 48.65 35.83 C45.77 40.47, 40.01 45.02, 34.68 46.9 C29.35 48.78, 21.91 48.83, 16.68 47.14 C11.45 45.45, 5.97 41.55, 3.29 36.77 C0.6 31.99, -0.52 23.66, 0.55 18.44 C1.62 13.23, 5.51 8.48, 9.71 5.46 C13.91 2.43, 22.92 1.22, 25.76 0.3 C28.59 -0.61, 27 -0.5, 26.72 -0.03" stroke="none" stroke-width="0" fill="#a5d8ff"></path><path d="M27.76 -0.7 C33.1 -0.58, 40.65 3.5, 44.63 7.26 C48.6 11.01, 51.3 16.67, 51.61 21.86 C51.92 27.05, 49.84 34.26, 46.5 38.42 C43.16 42.58, 36.89 45.65, 31.57 46.81 C26.25 47.98, 19.41 47.8, 14.57 45.43 C9.73 43.06, 4.96 37.38, 2.54 32.58 C0.13 27.77, -1.45 21.23, 0.09 16.58 C1.63 11.93, 6.45 7.32, 11.78 4.66 C17.11 1.99, 27.99 0.89, 32.06 0.58 C36.12 0.27, 36.06 2.25, 36.16 2.8 M13.38 2.94 C17.52 0.46, 25.46 -0.72, 30.72 0.57 C35.97 1.86, 41.61 6.69, 44.91 10.68 C48.2 14.67, 50.46 19.65, 50.48 24.51 C50.49 29.36, 48.51 36.18, 44.97 39.8 C41.43 43.43, 34.63 45.83, 29.22 46.26 C23.81 46.69, 16.99 44.91, 12.51 42.36 C8.02 39.82, 4.17 35.7, 2.32 30.99 C0.47 26.27, -0.5 18.94, 1.39 14.09 C3.28 9.24, 11.7 3.57, 13.64 1.88 C15.59 0.18, 12.79 3.47, 13.08 3.93" stroke="#1e1e1e" stroke-width="2" fill="none"></path></g></svg>