<svg version="1.1" xmlns="http://www.w3.org/2000/svg" viewBox="0 0 106.89305606447624 140.8422378015016" width="106.89305606447624" height="140.8422378015016">
  <!-- svg-source:excalidraw -->
  
  <defs>
    <style class="style-fonts">
      @font-face {
        font-family: "Virgil";
        src: url("https://excalidraw.com/Virgil.woff2");
      }
      @font-face {
        font-family: "Cascadia";
        src: url("https://excalidraw.com/Cascadia.woff2");
      }
      @font-face {
        font-family: "Assistant";
        src: url("https://excalidraw.com/Assistant-Regular.woff2");
      }
    </style>
    
  </defs>
  <g stroke-linecap="round" transform="translate(32.64044744318198 109.06643921733757) rotate(337.5387531331347 19.283203125 7.48828125)"><path d="M3.74 0 C15.93 1.5, 27.08 1.41, 34.82 0 C39.87 -1.06, 38.21 2.6, 38.57 3.74 C37.68 5.28, 38.63 8.35, 38.57 11.23 C37.47 14.32, 36.59 16.97, 34.82 14.98 C25.63 15.01, 12.19 12.64, 3.74 14.98 C-1.04 16.39, -2.21 14.85, 0 11.23 C0.26 8.15, 0.43 7.39, 0 3.74 C-1.61 0.38, -1.27 -1.54, 3.74 0" stroke="none" stroke-width="0" fill="#868e96"></path><path d="M3.74 0 C10.98 -0.9, 17.6 -0.15, 34.82 0 M3.74 0 C15.5 -0.05, 28.21 -0.08, 34.82 0 M34.82 0 C37.3 -0.62, 37.63 0.61, 38.57 3.74 M34.82 0 C38.24 0.62, 37.61 2.15, 38.57 3.74 M38.57 3.74 C38.56 5.68, 38.43 6.92, 38.57 11.23 M38.57 3.74 C38.61 6.57, 38.35 9.5, 38.57 11.23 M38.57 11.23 C38.6 13.1, 36.8 15.08, 34.82 14.98 M38.57 11.23 C38.09 14.29, 36.5 14.09, 34.82 14.98 M34.82 14.98 C26.66 14.95, 17.68 14.99, 3.74 14.98 M34.82 14.98 C22.88 14.86, 9.96 14.67, 3.74 14.98 M3.74 14.98 C0.64 14.71, -0.85 13.54, 0 11.23 M3.74 14.98 C2.14 15.04, -0.12 13.51, 0 11.23 M0 11.23 C-0.2 8.35, -0.18 5.74, 0 3.74 M0 11.23 C-0.07 8.77, -0.11 6, 0 3.74 M0 3.74 C0.97 2, 0.93 0.49, 3.74 0 M0 3.74 C0.67 0.79, 2.04 0.92, 3.74 0" stroke="#1e1e1e" stroke-width="2" fill="none"></path></g><g stroke-linecap="round" transform="translate(32.82631983901592 16.919422171883525) rotate(337.0766447889431 19.283203125 7.48828125)"><path d="M3.74 0 C16.2 1.36, 28.4 -1.33, 34.82 0 C36.96 1.36, 38.07 0.44, 38.57 3.74 C38.57 6.42, 38.07 8.53, 38.57 11.23 C37.84 15.73, 38.11 14.16, 34.82 14.98 C22.69 12.54, 12.45 16.38, 3.74 14.98 C-0.96 16.1, 0.4 14.28, 0 11.23 C0.42 9.92, -0.63 6.52, 0 3.74 C-2.52 -0.29, 1.77 -2.37, 3.74 0" stroke="none" stroke-width="0" fill="#868e96"></path><path d="M3.74 0 C13.44 0.02, 25.07 -0.63, 34.82 0 M3.74 0 C15.09 0, 26.31 -0.33, 34.82 0 M34.82 0 C36.39 -0.64, 39.37 1.79, 38.57 3.74 M34.82 0 C36.36 0.91, 37.59 1.67, 38.57 3.74 M38.57 3.74 C38.42 6.12, 38.91 8.23, 38.57 11.23 M38.57 3.74 C38.4 5.85, 38.59 8.11, 38.57 11.23 M38.57 11.23 C38.04 13.84, 36.9 15.46, 34.82 14.98 M38.57 11.23 C37.75 12.84, 37 15.86, 34.82 14.98 M34.82 14.98 C23.32 14.88, 13.25 14.2, 3.74 14.98 M34.82 14.98 C26.84 14.73, 18.8 14.83, 3.74 14.98 M3.74 14.98 C0.4 14.78, 0.77 13.78, 0 11.23 M3.74 14.98 C1.13 14.76, 0.55 14.27, 0 11.23 M0 11.23 C-0.15 8.51, 0.16 6.41, 0 3.74 M0 11.23 C-0.09 8.88, 0.2 7.04, 0 3.74 M0 3.74 C-0.32 1.74, 1.83 -0.4, 3.74 0 M0 3.74 C0.8 2.17, 1.86 0.27, 3.74 0" stroke="#1e1e1e" stroke-width="2" fill="none"></path></g><g stroke-linecap="round" transform="translate(10 32.545724255215646) rotate(0 42.630859375 38.322265625)"><path d="M19.16 0 C39.89 -2, 53.05 1.35, 66.1 0 C78.19 -1.12, 85.42 3.23, 85.26 19.16 C83.81 29.22, 84.32 40.41, 85.26 57.48 C86.36 69.13, 79.71 78.13, 66.1 76.64 C48.96 77.81, 35.1 77.41, 19.16 76.64 C6.94 77.41, -0.25 71.3, 0 57.48 C-2.55 47.63, -3.8 38.05, 0 19.16 C0.72 3.11, 9.75 -0.77, 19.16 0" stroke="none" stroke-width="0" fill="#7950f2"></path><path d="M19.16 0 C31.09 -1.47, 40.57 -1.73, 66.1 0 M19.16 0 C33.69 -0.64, 47.32 -0.65, 66.1 0 M66.1 0 C80.48 1.08, 83.6 7.96, 85.26 19.16 M66.1 0 C76.92 0.84, 85.81 6.24, 85.26 19.16 M85.26 19.16 C86.98 32, 85.1 49.59, 85.26 57.48 M85.26 19.16 C84.92 27.67, 84.36 37.53, 85.26 57.48 M85.26 57.48 C84.43 71.23, 77.46 75.1, 66.1 76.64 M85.26 57.48 C84.62 72.03, 80.32 77.33, 66.1 76.64 M66.1 76.64 C54.55 75.08, 38.14 78.31, 19.16 76.64 M66.1 76.64 C51.81 76.17, 37.87 76.24, 19.16 76.64 M19.16 76.64 C7.93 76.75, -0.2 69.88, 0 57.48 M19.16 76.64 C7.48 77.72, 0.6 69.14, 0 57.48 M0 57.48 C0.91 49.12, -0.04 39.4, 0 19.16 M0 57.48 C1.19 45.55, -0.1 32.61, 0 19.16 M0 19.16 C1.16 5.58, 7.77 1.61, 19.16 0 M0 19.16 C1.22 6.93, 7.67 1.08, 19.16 0" stroke="#1e1e1e" stroke-width="2" fill="none"></path></g><g stroke-linecap="round" transform="translate(65.75746355371484 88.17832059975535) rotate(47.524435689906944 13.974609375 10.47265625)"><path d="M5.24 0 C11.14 1.77, 17.32 -0.85, 22.71 0 C26.36 -3.16, 25.83 2.09, 27.95 5.24 C27.34 10.26, 28.44 11.79, 27.95 15.71 C28.78 20.69, 26.12 18.05, 22.71 20.95 C16.43 22.47, 15.97 21.78, 5.24 20.95 C1.5 21.99, -2.67 20.86, 0 15.71 C-1.71 10.51, 0.49 5.82, 0 5.24 C3.36 0.97, 1.8 2.63, 5.24 0" stroke="none" stroke-width="0" fill="#a5d8ff"></path><path d="M5.24 0 C11.39 -1.42, 15.51 0.33, 22.71 0 M5.24 0 C9.72 -0.45, 16.53 0.58, 22.71 0 M22.71 0 C24.54 1.58, 26.25 2.48, 27.95 5.24 M22.71 0 C26.75 -0.14, 29.92 0.83, 27.95 5.24 M27.95 5.24 C28.04 8.69, 27.4 10.23, 27.95 15.71 M27.95 5.24 C27.68 7.66, 27.73 10.22, 27.95 15.71 M27.95 15.71 C26.53 17.66, 25.65 22.49, 22.71 20.95 M27.95 15.71 C29.4 19.89, 25.92 20.43, 22.71 20.95 M22.71 20.95 C16.79 22.3, 12.37 20.39, 5.24 20.95 M22.71 20.95 C17.53 20.73, 14.51 20.95, 5.24 20.95 M5.24 20.95 C1.54 20.57, 0.95 20.14, 0 15.71 M5.24 20.95 C2.34 19.83, -1.69 18.19, 0 15.71 M0 15.71 C-0.15 12.98, 0.28 10.43, 0 5.24 M0 15.71 C-0.27 13.84, 0.2 11.25, 0 5.24 M0 5.24 C1.38 3.35, 2.8 0.48, 5.24 0 M0 5.24 C1.28 2.83, 3.27 1.24, 5.24 0" stroke="#1e1e1e" stroke-width="2" fill="none"></path></g><g stroke-linecap="round" transform="translate(27.928636255455785 46.951090522251434) rotate(47.524435689906944 25.4296875 23.859375)"><path d="M28.27 -0.56 C33.59 -0.08, 40.78 4.04, 44.52 7.87 C48.26 11.7, 50.49 17.43, 50.73 22.41 C50.97 27.4, 49.39 33.52, 45.94 37.8 C42.48 42.08, 35.24 46.97, 30 48.12 C24.76 49.27, 19.07 47.14, 14.47 44.72 C9.88 42.3, 4.73 38.16, 2.44 33.6 C0.16 29.05, -0.92 22.3, 0.76 17.41 C2.45 12.53, 6.91 6.85, 12.54 4.28 C18.16 1.72, 30 1.93, 34.5 2.04 C39 2.15, 39.66 4.58, 39.56 4.96 M38.21 2.54 C42.95 4.6, 46.89 10.4, 48.56 15.05 C50.24 19.69, 49.87 25.46, 48.28 30.41 C46.68 35.36, 43.51 41.84, 38.99 44.74 C34.48 47.64, 26.68 48.45, 21.2 47.82 C15.71 47.18, 9.52 44.87, 6.07 40.93 C2.61 36.99, 0.52 29.36, 0.47 24.16 C0.42 18.96, 2.49 13.88, 5.78 9.74 C9.06 5.6, 15.13 0.67, 20.17 -0.7 C25.21 -2.07, 33.05 1.06, 36.03 1.5 C39 1.95, 37.86 1.36, 38 1.97" stroke="none" stroke-width="0" fill="#a5d8ff"></path><path d="M26.23 -0.89 C31.31 -0.79, 38.04 3.76, 42.21 7.27 C46.37 10.79, 50.34 15.41, 51.22 20.21 C52.1 25.01, 50.51 31.62, 47.49 36.08 C44.48 40.54, 38.5 45.18, 33.14 46.94 C27.78 48.7, 20.48 48.72, 15.34 46.65 C10.21 44.57, 4.62 39.35, 2.33 34.48 C0.04 29.61, 0.3 22.32, 1.61 17.43 C2.92 12.55, 5.67 8.2, 10.2 5.18 C14.72 2.16, 25.28 -0.04, 28.74 -0.69 C32.2 -1.35, 31.01 0.79, 30.95 1.26 M25.73 -1.12 C30.95 -1.1, 38.06 3.83, 42.38 7.58 C46.69 11.34, 50.92 16.6, 51.62 21.43 C52.31 26.25, 49.71 32.09, 46.56 36.54 C43.41 41, 38.09 46.73, 32.71 48.15 C27.34 49.58, 19.11 47.37, 14.33 45.11 C9.55 42.84, 6.38 39.1, 4.04 34.54 C1.7 29.99, -0.58 22.8, 0.29 17.78 C1.16 12.75, 5.04 7.4, 9.24 4.39 C13.45 1.39, 22.4 0.38, 25.51 -0.25 C28.62 -0.89, 27.76 0.2, 27.92 0.59" stroke="#1e1e1e" stroke-width="2" fill="none"></path></g></svg>