<svg version="1.1" xmlns="http://www.w3.org/2000/svg" viewBox="0 0 114.98702566964312 140.8422378015016" width="114.98702566964312" height="140.8422378015016">
  <!-- svg-source:excalidraw -->
  
  <defs>
    <style class="style-fonts">
      @font-face {
        font-family: "Virgil";
        src: url("https://excalidraw.com/Virgil.woff2");
      }
      @font-face {
        font-family: "Cascadia";
        src: url("https://excalidraw.com/Cascadia.woff2");
      }
      @font-face {
        font-family: "Assistant";
        src: url("https://excalidraw.com/Assistant-Regular.woff2");
      }
    </style>
    
  </defs>
  <g stroke-linecap="round" transform="translate(42.3657543628251 109.06643921733757) rotate(337.5387531331347 19.283203125 7.48828125)"><path d="M3.74 0 C13.03 -1.27, 26.97 0.35, 34.82 0 C35.24 -1.58, 40.39 2.33, 38.57 3.74 C38.6 5.6, 38.75 8.74, 38.57 11.23 C41.1 12.55, 39.45 14.96, 34.82 14.98 C25.74 14.83, 15.41 15.24, 3.74 14.98 C-0.85 15.97, -0.14 14.18, 0 11.23 C-0.98 9.31, -0.47 6.76, 0 3.74 C1.07 2.27, -0.44 1.11, 3.74 0" stroke="none" stroke-width="0" fill="#868e96"></path><path d="M3.74 0 C12.65 -0.17, 23.92 -0.55, 34.82 0 M3.74 0 C12.85 -0.33, 22.83 0.32, 34.82 0 M34.82 0 C37.12 0.39, 38.79 1.05, 38.57 3.74 M34.82 0 C37.96 -0.57, 37.6 2.16, 38.57 3.74 M38.57 3.74 C38.82 6.04, 38.65 7.94, 38.57 11.23 M38.57 3.74 C38.41 6.14, 38.47 8.97, 38.57 11.23 M38.57 11.23 C39.23 13.41, 36.99 15.03, 34.82 14.98 M38.57 11.23 C38.64 14.87, 38.07 13.93, 34.82 14.98 M34.82 14.98 C23.05 14.34, 10.51 14.17, 3.74 14.98 M34.82 14.98 C24.1 14.67, 12.92 14.43, 3.74 14.98 M3.74 14.98 C2.09 14.11, 0.88 14.07, 0 11.23 M3.74 14.98 C0.64 14.9, -0.46 13.3, 0 11.23 M0 11.23 C0 9.41, -0.33 8.13, 0 3.74 M0 11.23 C-0.15 8.66, 0.06 6.57, 0 3.74 M0 3.74 C0.09 0.72, 1.03 -0.4, 3.74 0 M0 3.74 C0.93 1.37, 0.13 0.69, 3.74 0" stroke="#1e1e1e" stroke-width="2" fill="none"></path></g><g stroke-linecap="round" transform="translate(42.55162675865904 16.919422171883525) rotate(337.0766447889431 19.283203125 7.48828125)"><path d="M3.74 0 C12.58 0.22, 14.21 -1.32, 34.82 0 C39.14 1.08, 38.58 0.41, 38.57 3.74 C38.79 6.29, 39.52 7.39, 38.57 11.23 C40.7 13.71, 38.39 16.01, 34.82 14.98 C27.28 15.21, 14.03 15.94, 3.74 14.98 C1.1 15.43, 0.53 15.85, 0 11.23 C-0.3 9.56, 0.49 7.63, 0 3.74 C-1.69 2.36, 0.1 2.01, 3.74 0" stroke="none" stroke-width="0" fill="#868e96"></path><path d="M3.74 0 C12.42 -0.57, 20.31 0.62, 34.82 0 M3.74 0 C15.09 0.49, 26.33 0.26, 34.82 0 M34.82 0 C37.54 -0.2, 39.13 0.76, 38.57 3.74 M34.82 0 C36.35 0.91, 38.41 2.17, 38.57 3.74 M38.57 3.74 C38.64 5.54, 38.75 7.58, 38.57 11.23 M38.57 3.74 C38.43 6.38, 38.66 8.79, 38.57 11.23 M38.57 11.23 C38.24 13.78, 37.39 15.97, 34.82 14.98 M38.57 11.23 C39.32 12.68, 38.35 15.18, 34.82 14.98 M34.82 14.98 C27.21 14.18, 20.36 14.67, 3.74 14.98 M34.82 14.98 C27.89 14.47, 20.65 14.48, 3.74 14.98 M3.74 14.98 C2.13 15.32, -0.53 13.66, 0 11.23 M3.74 14.98 C0.79 14.55, -1.07 14.55, 0 11.23 M0 11.23 C-0.31 8.98, 0.09 6.72, 0 3.74 M0 11.23 C0.09 9.88, 0.05 8.07, 0 3.74 M0 3.74 C-0.21 0.85, 2.05 0.11, 3.74 0 M0 3.74 C-1.12 1.94, 1.62 -0.45, 3.74 0" stroke="#1e1e1e" stroke-width="2" fill="none"></path></g><g stroke-linecap="round" transform="translate(19.725306919643117 32.545724255215646) rotate(0 42.630859375 38.322265625)"><path d="M19.16 0 C27.35 -2.17, 43.83 1.51, 66.1 0 C78.89 -1.16, 84.28 6.64, 85.26 19.16 C88.92 27.49, 88.37 39.06, 85.26 57.48 C86.75 71.69, 78.9 78.76, 66.1 76.64 C49.39 78.1, 38.29 77.35, 19.16 76.64 C7.12 79.59, -1.22 66.93, 0 57.48 C1.76 45.55, -2.07 32.32, 0 19.16 C-1.59 9.17, 6.19 -2.14, 19.16 0" stroke="none" stroke-width="0" fill="#7950f2"></path><path d="M19.16 0 C32.34 1.46, 46.54 -1.43, 66.1 0 M19.16 0 C30.9 -0.01, 43.26 -0.6, 66.1 0 M66.1 0 C80 -0.98, 83.57 7.97, 85.26 19.16 M66.1 0 C78.55 1.84, 84.15 7.74, 85.26 19.16 M85.26 19.16 C86.19 32.62, 86.14 43.61, 85.26 57.48 M85.26 19.16 C85.71 26.73, 84.72 35, 85.26 57.48 M85.26 57.48 C85.4 72.24, 80.18 74.82, 66.1 76.64 M85.26 57.48 C87.33 70.67, 77.54 77.42, 66.1 76.64 M66.1 76.64 C55.77 75.88, 41.81 77.94, 19.16 76.64 M66.1 76.64 C54.75 75.36, 42.6 76.57, 19.16 76.64 M19.16 76.64 C5.33 76.51, -0.8 69.52, 0 57.48 M19.16 76.64 C4.25 78.29, 0.01 70.42, 0 57.48 M0 57.48 C0.78 48.72, -1.59 38.49, 0 19.16 M0 57.48 C-0.04 48.57, -0.34 40.31, 0 19.16 M0 19.16 C1.61 6.6, 4.45 1.21, 19.16 0 M0 19.16 C0.75 5.5, 4.13 -0.93, 19.16 0" stroke="#1e1e1e" stroke-width="2" fill="none"></path></g><g stroke-linecap="round" transform="translate(10 58.64210104360882) rotate(0 13.974609375 10.47265625)"><path d="M5.24 0 C12.65 1.5, 15.68 -0.83, 22.71 0 C25.22 0.26, 26.51 2.56, 27.95 5.24 C29.68 8.9, 28.91 13.35, 27.95 15.71 C27.98 21.31, 25.99 23.44, 22.71 20.95 C17.12 21.61, 12.52 23.64, 5.24 20.95 C0.53 17.61, 1.74 17.76, 0 15.71 C-1.3 13.02, -0.91 10.19, 0 5.24 C-0.2 -0.39, 4.1 -0.19, 5.24 0" stroke="none" stroke-width="0" fill="#a5d8ff"></path><path d="M5.24 0 C10.56 -1.6, 12.81 -0.08, 22.71 0 M5.24 0 C12.15 -0.24, 19.16 -0.5, 22.71 0 M22.71 0 C24.51 1.59, 27.67 3.35, 27.95 5.24 M22.71 0 C25.09 1.36, 28.9 2.09, 27.95 5.24 M27.95 5.24 C28.42 7.25, 27.01 10.45, 27.95 15.71 M27.95 5.24 C27.85 8.86, 28.05 12.95, 27.95 15.71 M27.95 15.71 C29.25 17.38, 28 21.3, 22.71 20.95 M27.95 15.71 C26.62 19.97, 24.94 20.75, 22.71 20.95 M22.71 20.95 C17.58 22.33, 14.02 22.18, 5.24 20.95 M22.71 20.95 C19.78 21.09, 14.85 20.74, 5.24 20.95 M5.24 20.95 C0.94 20.2, -1.86 20.63, 0 15.71 M5.24 20.95 C1.75 21.11, -1.68 17.34, 0 15.71 M0 15.71 C-1.02 11.75, -0.87 9.8, 0 5.24 M0 15.71 C-0.12 11.35, 0.41 7.46, 0 5.24 M0 5.24 C-1.94 2.95, 2.4 -0.77, 5.24 0 M0 5.24 C-2.26 0.82, 0.27 2.26, 5.24 0" stroke="#1e1e1e" stroke-width="2" fill="none"></path></g><g stroke-linecap="round" transform="translate(36.888671875 44.60303854360882) rotate(0 25.4296875 23.859375)"><path d="M24.66 -0.01 C29.87 -0.19, 37.9 2.42, 42.05 5.58 C46.19 8.74, 48.77 13.87, 49.53 18.97 C50.29 24.06, 49.03 31.59, 46.62 36.16 C44.21 40.73, 40.13 44.73, 35.05 46.38 C29.97 48.03, 21.5 47.69, 16.16 46.05 C10.82 44.42, 5.6 41.12, 2.99 36.56 C0.38 32, -0.62 23.82, 0.5 18.7 C1.62 13.59, 5.07 9.13, 9.72 5.88 C14.37 2.63, 24.78 0.1, 28.41 -0.77 C32.05 -1.64, 31.36 0.09, 31.53 0.65 M16.14 1.9 C20.85 -0.52, 27.28 -0.76, 32.4 0.64 C37.52 2.04, 43.77 5.79, 46.88 10.28 C49.98 14.77, 51.45 22.5, 51.01 27.56 C50.56 32.62, 48.06 37.29, 44.22 40.64 C40.38 44, 33.55 47.2, 27.97 47.68 C22.39 48.15, 15.28 46.43, 10.73 43.5 C6.17 40.57, 2 34.99, 0.66 30.09 C-0.68 25.18, 0.19 18.95, 2.69 14.05 C5.19 9.15, 13.4 2.65, 15.66 0.68 C17.93 -1.29, 16.1 1.63, 16.28 2.25" stroke="none" stroke-width="0" fill="#a5d8ff"></path><path d="M25.97 0.22 C30.97 0.07, 37.69 3.1, 41.69 6.24 C45.7 9.37, 48.93 14.09, 50.01 19.01 C51.09 23.94, 50.7 31.3, 48.17 35.77 C45.63 40.25, 39.95 44.03, 34.78 45.84 C29.62 47.65, 22.39 48.38, 17.18 46.64 C11.96 44.91, 6.2 39.91, 3.48 35.43 C0.76 30.95, -0.17 24.9, 0.85 19.77 C1.87 14.63, 5.36 8.02, 9.61 4.64 C13.86 1.26, 23.06 0.05, 26.36 -0.49 C29.65 -1.04, 29.29 0.94, 29.36 1.37 M27.11 -1.36 C32.51 -1.73, 39.89 2.58, 43.66 6.29 C47.42 9.99, 49.28 15.89, 49.72 20.88 C50.15 25.87, 49.15 31.82, 46.26 36.23 C43.37 40.65, 37.47 45.9, 32.39 47.37 C27.3 48.84, 20.43 47.19, 15.75 45.07 C11.06 42.94, 6.64 39.16, 4.28 34.6 C1.93 30.05, 0.51 22.86, 1.61 17.74 C2.72 12.62, 6.59 6.73, 10.9 3.86 C15.2 0.99, 25.06 1.1, 27.46 0.52 C29.87 -0.06, 25.67 0.17, 25.33 0.39" stroke="#1e1e1e" stroke-width="2" fill="none"></path></g></svg>