<svg version="1.1" xmlns="http://www.w3.org/2000/svg" viewBox="0 0 116.9010881696413 140.8422378015016" width="116.9010881696413" height="140.8422378015016">
  <!-- svg-source:excalidraw -->
  
  <defs>
    <style class="style-fonts">
      @font-face {
        font-family: "Virgil";
        src: url("https://excalidraw.com/Virgil.woff2");
      }
      @font-face {
        font-family: "Cascadia";
        src: url("https://excalidraw.com/Cascadia.woff2");
      }
      @font-face {
        font-family: "Assistant";
        src: url("https://excalidraw.com/Assistant-Regular.woff2");
      }
    </style>
    
  </defs>
  <g stroke-linecap="round" transform="translate(32.64044744318198 109.06643921733757) rotate(337.5387531331347 19.283203125 7.48828125)"><path d="M3.74 0 C13.68 0.38, 20.08 -1.52, 34.82 0 C35.21 -0.03, 39.18 1.17, 38.57 3.74 C38.81 6.22, 38.57 6.3, 38.57 11.23 C38.01 12.69, 39.42 15.25, 34.82 14.98 C27.51 12.56, 21.16 13.44, 3.74 14.98 C3.81 14.94, -2.08 12.15, 0 11.23 C-0.35 8.2, 0.03 5.3, 0 3.74 C0.59 2.58, 3.78 -1.18, 3.74 0" stroke="none" stroke-width="0" fill="#868e96"></path><path d="M3.74 0 C12.35 0.75, 19.43 -0.33, 34.82 0 M3.74 0 C16.02 -0.03, 28.08 0, 34.82 0 M34.82 0 C37.61 0.09, 39.37 1.15, 38.57 3.74 M34.82 0 C37.15 0.59, 38.73 0.26, 38.57 3.74 M38.57 3.74 C38.91 6.06, 38.22 8.55, 38.57 11.23 M38.57 3.74 C38.65 6.43, 38.38 8.79, 38.57 11.23 M38.57 11.23 C38.58 14.57, 37.12 15.36, 34.82 14.98 M38.57 11.23 C38.82 13.5, 37.96 14.41, 34.82 14.98 M34.82 14.98 C28.93 14.47, 22.01 15.37, 3.74 14.98 M34.82 14.98 C25.14 15.25, 14.83 14.57, 3.74 14.98 M3.74 14.98 C0.69 15.41, 0.66 13.41, 0 11.23 M3.74 14.98 C0.87 15.04, 0.08 14.87, 0 11.23 M0 11.23 C0.1 8.28, 0.16 5.56, 0 3.74 M0 11.23 C-0.01 8.93, 0.18 6.79, 0 3.74 M0 3.74 C0.73 0.37, 2.09 -0.87, 3.74 0 M0 3.74 C1.01 1.64, 0.64 -0.08, 3.74 0" stroke="#1e1e1e" stroke-width="2" fill="none"></path></g><g stroke-linecap="round" transform="translate(32.82631983901592 16.919422171883525) rotate(337.0766447889431 19.283203125 7.48828125)"><path d="M3.74 0 C10.36 -1.9, 14.52 -0.03, 34.82 0 C37.93 -0.08, 36.09 -0.81, 38.57 3.74 C38.68 4.87, 38.39 6.63, 38.57 11.23 C40.66 14.01, 34.79 16.54, 34.82 14.98 C23.44 12.91, 16.71 14.54, 3.74 14.98 C-0.83 13.4, 1.82 14.81, 0 11.23 C0.1 8.59, 0.25 7.23, 0 3.74 C2.53 0.07, 3.38 -0.02, 3.74 0" stroke="none" stroke-width="0" fill="#868e96"></path><path d="M3.74 0 C10.76 -0.5, 20.67 0.43, 34.82 0 M3.74 0 C15.68 0.12, 28.71 0.01, 34.82 0 M34.82 0 C38.12 -0.09, 38.42 1.76, 38.57 3.74 M34.82 0 C37.48 -0.99, 38.87 1.83, 38.57 3.74 M38.57 3.74 C38.24 6.04, 38.76 8.28, 38.57 11.23 M38.57 3.74 C38.43 5.96, 38.59 8.5, 38.57 11.23 M38.57 11.23 C38.37 14.12, 37.54 14.77, 34.82 14.98 M38.57 11.23 C39.21 13.16, 36.35 15.89, 34.82 14.98 M34.82 14.98 C26.52 15.31, 17.19 14.67, 3.74 14.98 M34.82 14.98 C23.72 14.57, 13.19 15.26, 3.74 14.98 M3.74 14.98 C1.91 14.65, -0.33 13.78, 0 11.23 M3.74 14.98 C1.33 16.12, 0.75 12.68, 0 11.23 M0 11.23 C0.12 8.11, -0.04 5.13, 0 3.74 M0 11.23 C0.16 8.47, 0.14 5.7, 0 3.74 M0 3.74 C0.84 0.38, 2.13 0.34, 3.74 0 M0 3.74 C-0.61 1.17, 0.79 -0.43, 3.74 0" stroke="#1e1e1e" stroke-width="2" fill="none"></path></g><g stroke-linecap="round" transform="translate(10 32.545724255215646) rotate(0 42.630859375 38.322265625)"><path d="M19.16 0 C30.35 0.57, 48.21 0.51, 66.1 0 C75.45 -2.85, 82.34 7.58, 85.26 19.16 C84.55 32.92, 88.22 49.94, 85.26 57.48 C81.77 72.43, 80.04 75.25, 66.1 76.64 C60.16 76.05, 44.26 73.92, 19.16 76.64 C8.91 78.14, 0.02 69.09, 0 57.48 C0.76 48.88, 3.46 34.95, 0 19.16 C2.95 6.36, 7.87 1.44, 19.16 0" stroke="none" stroke-width="0" fill="#7950f2"></path><path d="M19.16 0 C38.41 1.25, 55.68 -0.34, 66.1 0 M19.16 0 C34.72 -0.06, 50.5 -0.24, 66.1 0 M66.1 0 C78.58 1.02, 85.55 4.66, 85.26 19.16 M66.1 0 C79.49 1.16, 85.67 8.37, 85.26 19.16 M85.26 19.16 C85.75 28.12, 85.03 40.68, 85.26 57.48 M85.26 19.16 C84.94 33.99, 84.73 47.52, 85.26 57.48 M85.26 57.48 C85.71 69.85, 80 75.66, 66.1 76.64 M85.26 57.48 C83.32 72.08, 78.55 78.49, 66.1 76.64 M66.1 76.64 C54.59 76.38, 43.36 77.22, 19.16 76.64 M66.1 76.64 C49.54 76.64, 34.76 75.88, 19.16 76.64 M19.16 76.64 C5.73 76.76, 0.13 72.24, 0 57.48 M19.16 76.64 C7.88 74.55, 2.06 70.67, 0 57.48 M0 57.48 C-0.3 46.78, 1.04 38.5, 0 19.16 M0 57.48 C0.42 47.6, 0.53 38.62, 0 19.16 M0 19.16 C1.76 7.07, 5.33 -0.13, 19.16 0 M0 19.16 C-0.92 5.54, 4.25 1.65, 19.16 0" stroke="#1e1e1e" stroke-width="2" fill="none"></path></g><g stroke-linecap="round" transform="translate(78.9518694196413 59.76933318646752) rotate(0 13.974609375 10.47265625)"><path d="M5.24 0 C13.04 -0.19, 19.34 0.31, 22.71 0 C23.3 1.37, 27.75 2.37, 27.95 5.24 C26.36 9.5, 27.35 12.57, 27.95 15.71 C29.43 20.62, 23.86 22.48, 22.71 20.95 C16.37 22.99, 13.6 19.47, 5.24 20.95 C4.3 19.53, 2.6 17.53, 0 15.71 C-0.54 11.73, -0.7 9.21, 0 5.24 C2.68 0.83, 2.29 -3.56, 5.24 0" stroke="none" stroke-width="0" fill="#a5d8ff"></path><path d="M5.24 0 C11.27 0.8, 15.49 -0.32, 22.71 0 M5.24 0 C10.5 -0.89, 16.76 0.31, 22.71 0 M22.71 0 C27.53 -0.64, 27.29 1.86, 27.95 5.24 M22.71 0 C26.36 2.28, 29.45 -0.35, 27.95 5.24 M27.95 5.24 C28.32 8.74, 27.88 12.65, 27.95 15.71 M27.95 5.24 C28.35 8.78, 28.31 12.28, 27.95 15.71 M27.95 15.71 C29.63 17.47, 27.97 21.63, 22.71 20.95 M27.95 15.71 C26.74 19.05, 25.28 20.09, 22.71 20.95 M22.71 20.95 C19.21 19.67, 14.06 20.93, 5.24 20.95 M22.71 20.95 C16.37 20.07, 11.69 21.62, 5.24 20.95 M5.24 20.95 C1.92 19.88, -0.43 18.4, 0 15.71 M5.24 20.95 C3.6 21.19, -2.23 20.59, 0 15.71 M0 15.71 C-0.38 11.56, 1.07 8.73, 0 5.24 M0 15.71 C0.28 13.41, -0.11 10.96, 0 5.24 M0 5.24 C0.14 0.94, 2.2 1.03, 5.24 0 M0 5.24 C2.24 0.7, 3.63 -0.01, 5.24 0" stroke="#1e1e1e" stroke-width="2" fill="none"></path></g><g stroke-linecap="round" transform="translate(29.153041294641298 45.73027068646752) rotate(0 25.4296875 23.859375)"><path d="M36.01 2.24 C40.82 3.86, 45.42 7.69, 47.72 12.09 C50.02 16.48, 50.8 23.49, 49.79 28.63 C48.79 33.77, 46.1 39.85, 41.68 42.92 C37.26 46, 28.74 47.28, 23.25 47.08 C17.76 46.87, 12.6 45.14, 8.75 41.69 C4.91 38.25, 1.01 31.53, 0.19 26.4 C-0.63 21.27, 0.95 15.09, 3.85 10.9 C6.76 6.71, 11.95 2.43, 17.64 1.26 C23.33 0.08, 34.49 3.17, 38.01 3.83 C41.53 4.49, 39.04 4.94, 38.75 5.19 M30.38 1.51 C35.54 1.83, 41.95 3.96, 45.46 7.77 C48.97 11.59, 51.54 19.01, 51.42 24.37 C51.31 29.74, 48.25 36.19, 44.76 39.95 C41.26 43.71, 36.11 46.11, 30.44 46.95 C24.78 47.78, 15.73 47.44, 10.78 44.94 C5.83 42.45, 2.13 36.82, 0.73 31.95 C-0.68 27.09, 0.45 20.47, 2.38 15.73 C4.3 11, 7.72 5.9, 12.29 3.55 C16.86 1.2, 26.81 2.22, 29.81 1.63 C32.81 1.05, 30.1 -0.13, 30.29 0.05" stroke="none" stroke-width="0" fill="#a5d8ff"></path><path d="M22.9 -0.69 C27.78 -1.68, 33.92 0.31, 38.48 3.38 C43.03 6.44, 48.57 12.76, 50.23 17.69 C51.89 22.63, 50.68 28.4, 48.45 32.99 C46.23 37.59, 41.54 42.8, 36.88 45.25 C32.23 47.71, 26 48.77, 20.54 47.72 C15.08 46.68, 7.5 43.3, 4.11 38.99 C0.73 34.68, -0.3 27.22, 0.22 21.88 C0.75 16.53, 2.82 10.68, 7.28 6.92 C11.74 3.17, 22.85 0.33, 26.97 -0.67 C31.1 -1.66, 32.15 0.3, 32.03 0.95 M21.6 -0.82 C26.65 -1.78, 34.42 0.76, 38.87 3.4 C43.32 6.03, 46.61 10.42, 48.29 15 C49.97 19.57, 50.77 25.81, 48.95 30.86 C47.12 35.9, 41.88 42.48, 37.34 45.27 C32.8 48.05, 27.04 48.7, 21.7 47.56 C16.36 46.43, 8.92 42.25, 5.31 38.47 C1.69 34.69, -0.04 30, -0.01 24.86 C0.02 19.71, 2.28 11.86, 5.47 7.59 C8.66 3.33, 16.57 0.13, 19.15 -0.73 C21.73 -1.6, 20.64 1.94, 20.94 2.4" stroke="#1e1e1e" stroke-width="2" fill="none"></path></g></svg>