<svg version="1.1" xmlns="http://www.w3.org/2000/svg" viewBox="0 0 105.26171875 140.8422378015016" width="105.26171875" height="140.8422378015016">
  <!-- svg-source:excalidraw -->
  
  <defs>
    <style class="style-fonts">
      @font-face {
        font-family: "Virgil";
        src: url("https://excalidraw.com/Virgil.woff2");
      }
      @font-face {
        font-family: "Cascadia";
        src: url("https://excalidraw.com/Cascadia.woff2");
      }
      @font-face {
        font-family: "Assistant";
        src: url("https://excalidraw.com/Assistant-Regular.woff2");
      }
    </style>
    
  </defs>
  <g stroke-linecap="round" transform="translate(32.64044744318198 109.06643921733757) rotate(337.5387531331347 19.283203125 7.48828125)"><path d="M3.74 0 C11.04 1.56, 22.51 1.14, 34.82 0 C37.94 1.45, 39.79 2.97, 38.57 3.74 C38.23 6.26, 39.14 8.86, 38.57 11.23 C37.76 13.84, 35.04 13.45, 34.82 14.98 C25.79 14.08, 17.58 15.6, 3.74 14.98 C0.43 15.58, 1.07 13.67, 0 11.23 C0.62 8.76, 0.51 8.09, 0 3.74 C0.55 1.07, 2 -1.93, 3.74 0" stroke="none" stroke-width="0" fill="#868e96"></path><path d="M3.74 0 C9.96 -0.64, 17.26 -0.84, 34.82 0 M3.74 0 C14.06 -0.26, 25.17 0.45, 34.82 0 M34.82 0 C36.56 0.63, 37.68 1.35, 38.57 3.74 M34.82 0 C37.45 0.03, 38.54 0.53, 38.57 3.74 M38.57 3.74 C38.75 4.98, 38.84 6.52, 38.57 11.23 M38.57 3.74 C38.74 6.19, 38.55 8.96, 38.57 11.23 M38.57 11.23 C37.59 13.72, 37.75 14.36, 34.82 14.98 M38.57 11.23 C37.44 12.88, 37.36 14.26, 34.82 14.98 M34.82 14.98 C27.61 14.2, 18.65 14.63, 3.74 14.98 M34.82 14.98 C23.04 14.91, 11.34 15.51, 3.74 14.98 M3.74 14.98 C0.49 14.51, 0.85 13.65, 0 11.23 M3.74 14.98 C0.97 14.45, -0.69 13.43, 0 11.23 M0 11.23 C0.03 9.59, -0.06 8.19, 0 3.74 M0 11.23 C-0.15 8.55, -0.15 6.11, 0 3.74 M0 3.74 C0.16 1.14, 0.88 0.31, 3.74 0 M0 3.74 C-0.64 0.13, 2.37 0.86, 3.74 0" stroke="#1e1e1e" stroke-width="2" fill="none"></path></g><g stroke-linecap="round" transform="translate(32.826319839014104 16.919422171883525) rotate(337.0766447889431 19.283203125 7.48828125)"><path d="M3.74 0 C16.96 1.09, 26.62 1.17, 34.82 0 C38.54 1.72, 39.97 2.88, 38.57 3.74 C39.03 6.54, 38.22 9.75, 38.57 11.23 C36.29 12.2, 37.57 16.04, 34.82 14.98 C28.8 15.65, 17.97 15.46, 3.74 14.98 C2.32 14.92, -2.09 11.3, 0 11.23 C0.37 9.79, 0.15 7.99, 0 3.74 C0.75 -0.68, 2.45 2.35, 3.74 0" stroke="none" stroke-width="0" fill="#868e96"></path><path d="M3.74 0 C16.72 -0.61, 28.81 0.36, 34.82 0 M3.74 0 C13.19 0.54, 22.37 0.39, 34.82 0 M34.82 0 C36.43 0.1, 38.68 1.28, 38.57 3.74 M34.82 0 C37.3 -0.72, 37.49 0.52, 38.57 3.74 M38.57 3.74 C38.88 6.28, 38.72 9.53, 38.57 11.23 M38.57 3.74 C38.57 6.12, 38.42 8.14, 38.57 11.23 M38.57 11.23 C39 13.11, 36.34 14.24, 34.82 14.98 M38.57 11.23 C38.61 13.01, 36.72 15.1, 34.82 14.98 M34.82 14.98 C26.03 14.59, 19.55 15.5, 3.74 14.98 M34.82 14.98 C24.53 15.43, 13.94 14.71, 3.74 14.98 M3.74 14.98 C2.1 14.89, -0.24 13.27, 0 11.23 M3.74 14.98 C0.55 14.67, -0.98 13.51, 0 11.23 M0 11.23 C-0.07 8.59, 0.17 5.68, 0 3.74 M0 11.23 C-0.11 9.42, 0.06 7.45, 0 3.74 M0 3.74 C-0.37 1.56, 0.69 -0.97, 3.74 0 M0 3.74 C1.12 2.11, 0.88 0.56, 3.74 0" stroke="#1e1e1e" stroke-width="2" fill="none"></path></g><g stroke-linecap="round" transform="translate(10 32.545724255215646) rotate(0 42.630859375 38.322265625)"><path d="M19.16 0 C37.35 1.55, 55.51 1.94, 66.1 0 C80.82 2.26, 88.8 4.91, 85.26 19.16 C84.5 30.29, 82.47 38.99, 85.26 57.48 C85.61 71.73, 77.36 77.46, 66.1 76.64 C52.2 77.73, 42.05 76.82, 19.16 76.64 C3.49 73.28, -3.17 72.21, 0 57.48 C0.46 49, 0.75 38.33, 0 19.16 C1.66 9.63, 4.16 -1.21, 19.16 0" stroke="none" stroke-width="0" fill="#7950f2"></path><path d="M19.16 0 C31.85 0.89, 42.83 -1.38, 66.1 0 M19.16 0 C30.14 0.2, 41.75 -0.34, 66.1 0 M66.1 0 C79.1 0.06, 85.22 5.14, 85.26 19.16 M66.1 0 C76.73 -1.46, 87.11 7.63, 85.26 19.16 M85.26 19.16 C86.29 27.94, 85.44 37.49, 85.26 57.48 M85.26 19.16 C84.24 29.13, 85.64 38.5, 85.26 57.48 M85.26 57.48 C83.3 68.78, 78.95 75.4, 66.1 76.64 M85.26 57.48 C84.06 70.5, 77.91 77.76, 66.1 76.64 M66.1 76.64 C56.89 77.77, 45.18 76.27, 19.16 76.64 M66.1 76.64 C52.31 76.63, 40.89 77.02, 19.16 76.64 M19.16 76.64 C5.9 75.73, -1.21 69.73, 0 57.48 M19.16 76.64 C4.43 76.2, 1.78 70.38, 0 57.48 M0 57.48 C1.01 46.89, -0.9 33.79, 0 19.16 M0 57.48 C0.45 47.57, -0.08 38.17, 0 19.16 M0 19.16 C-1.11 4.44, 8.34 1.5, 19.16 0 M0 19.16 C-0.73 7.51, 7.72 -0.92, 19.16 0" stroke="#1e1e1e" stroke-width="2" fill="none"></path></g><g stroke-linecap="round" transform="translate(38.662819688312084 96.89204723666899) rotate(269.315648468081 13.974609375 10.47265625)"><path d="M5.24 0 C11.53 -2.66, 15.69 0.4, 22.71 0 C27.68 -1.51, 28.77 0.74, 27.95 5.24 C28.44 9.96, 27.96 11.61, 27.95 15.71 C24.59 16.03, 28.16 17.89, 22.71 20.95 C16.5 21.92, 8.39 22.46, 5.24 20.95 C4.99 18.71, -1.21 15.72, 0 15.71 C1.72 12.78, -0.01 12.04, 0 5.24 C-2.03 3, 1.23 0.99, 5.24 0" stroke="none" stroke-width="0" fill="#a5d8ff"></path><path d="M5.24 0 C8.98 -0.05, 11.52 -1.65, 22.71 0 M5.24 0 C8.64 0.59, 12.76 0.22, 22.71 0 M22.71 0 C26.68 -0.13, 29.67 0.95, 27.95 5.24 M22.71 0 C25.91 2.15, 25.71 1.73, 27.95 5.24 M27.95 5.24 C27.11 8.87, 27.23 11.87, 27.95 15.71 M27.95 5.24 C27.53 8.09, 27.76 12.15, 27.95 15.71 M27.95 15.71 C29.21 19.8, 25.96 20.5, 22.71 20.95 M27.95 15.71 C27.76 21.45, 24.45 19.86, 22.71 20.95 M22.71 20.95 C15.18 19.85, 8.79 19.41, 5.24 20.95 M22.71 20.95 C17.72 20.79, 13.32 21.36, 5.24 20.95 M5.24 20.95 C2.26 19.98, -1.47 18.32, 0 15.71 M5.24 20.95 C0 21.8, 0.36 18.96, 0 15.71 M0 15.71 C-1.05 13.97, 0.75 9.86, 0 5.24 M0 15.71 C0.3 12.47, 0.22 8.52, 0 5.24 M0 5.24 C1.11 2.69, 3.07 1.08, 5.24 0 M0 5.24 C1.44 4.01, 0.8 -0.32, 5.24 0" stroke="#1e1e1e" stroke-width="2" fill="none"></path></g><g stroke-linecap="round" transform="translate(27.402064732141298 45.15652205235256) rotate(269.315648468081 25.4296875 23.859375)"><path d="M15.93 1.32 C20.61 -0.87, 28.7 -1.18, 33.73 0.65 C38.76 2.48, 43.16 7.91, 46.1 12.3 C49.03 16.69, 51.89 22, 51.34 26.99 C50.8 31.99, 47.09 38.69, 42.83 42.26 C38.57 45.83, 31.17 48.26, 25.78 48.4 C20.38 48.54, 14.64 46.3, 10.47 43.11 C6.3 39.92, 1.92 34.23, 0.76 29.25 C-0.39 24.26, 0.59 17.79, 3.51 13.2 C6.44 8.62, 15.45 3.82, 18.3 1.74 C21.15 -0.34, 20.6 0.35, 20.62 0.71 M21.7 -0.78 C26.93 -1.45, 35.4 1.72, 40 4.83 C44.6 7.93, 47.95 12.83, 49.31 17.85 C50.67 22.87, 50.22 30.42, 48.14 34.93 C46.05 39.44, 41.6 42.83, 36.81 44.93 C32.02 47.04, 24.74 48.98, 19.38 47.57 C14.03 46.16, 8.13 40.97, 4.68 36.49 C1.23 32, -1.89 25.75, -1.32 20.64 C-0.74 15.53, 3.96 9.23, 8.12 5.84 C12.29 2.46, 21.12 1.23, 23.67 0.34 C26.21 -0.56, 23.38 0.31, 23.39 0.48" stroke="none" stroke-width="0" fill="#a5d8ff"></path><path d="M14.54 1.71 C19.26 -1.02, 26.8 -1.56, 32.07 -0.21 C37.34 1.15, 43.07 5.45, 46.18 9.84 C49.3 14.22, 51.2 21.05, 50.75 26.09 C50.31 31.13, 47.11 36.68, 43.54 40.09 C39.97 43.51, 34.68 45.89, 29.33 46.58 C23.98 47.27, 16.27 47.04, 11.46 44.23 C6.65 41.42, 2.14 34.7, 0.46 29.74 C-1.23 24.77, -1.1 19.2, 1.33 14.46 C3.77 9.72, 12.35 3.49, 15.09 1.29 C17.82 -0.92, 17.39 0.9, 17.74 1.23 M16.8 2.2 C21.51 -0.16, 28.05 -0.92, 33.06 0.82 C38.06 2.56, 44.11 8.38, 46.84 12.65 C49.58 16.91, 49.99 21.63, 49.48 26.43 C48.96 31.22, 47.68 38, 43.76 41.43 C39.85 44.86, 31.81 46.87, 26 47.01 C20.19 47.16, 13.36 45.37, 8.91 42.3 C4.46 39.22, 0.09 33.5, -0.71 28.58 C-1.51 23.66, 1.38 17.3, 4.11 12.78 C6.85 8.26, 13.6 3.12, 15.7 1.47 C17.81 -0.18, 16.51 2.61, 16.76 2.9" stroke="#1e1e1e" stroke-width="2" fill="none"></path></g></svg>