<svg version="1.1" xmlns="http://www.w3.org/2000/svg" viewBox="0 0 107.08836856447851 140.8422378015016" width="107.08836856447851" height="140.8422378015016">
  <!-- svg-source:excalidraw -->
  
  <defs>
    <style class="style-fonts">
      @font-face {
        font-family: "Virgil";
        src: url("https://excalidraw.com/Virgil.woff2");
      }
      @font-face {
        font-family: "Cascadia";
        src: url("https://excalidraw.com/Cascadia.woff2");
      }
      @font-face {
        font-family: "Assistant";
        src: url("https://excalidraw.com/Assistant-Regular.woff2");
      }
    </style>
    
  </defs>
  <g stroke-linecap="round" transform="translate(34.4670972576605 109.06643921733757) rotate(337.5387531331347 19.283203125 7.48828125)"><path d="M3.74 0 C9.4 2.76, 22.06 -0.6, 34.82 0 C38.59 1.51, 37.52 3.05, 38.57 3.74 C39.16 7.05, 39.26 9.97, 38.57 11.23 C40.2 16.28, 36.25 14.62, 34.82 14.98 C23.99 12.57, 11.4 15.1, 3.74 14.98 C2.31 13.88, 0.59 13, 0 11.23 C0.2 8.81, -0.05 4.8, 0 3.74 C-2.43 -1.04, 2.66 -2.21, 3.74 0" stroke="none" stroke-width="0" fill="#868e96"></path><path d="M3.74 0 C14.62 0.14, 24.74 -0.89, 34.82 0 M3.74 0 C12.66 0.37, 21.72 0.26, 34.82 0 M34.82 0 C37.6 0.06, 37.71 0.75, 38.57 3.74 M34.82 0 C37.19 1.07, 37.69 1.97, 38.57 3.74 M38.57 3.74 C38.58 5.32, 38.34 6.56, 38.57 11.23 M38.57 3.74 C38.44 5.66, 38.44 7.35, 38.57 11.23 M38.57 11.23 C38.8 13.67, 38.18 14.58, 34.82 14.98 M38.57 11.23 C38.42 14.8, 36.2 14.97, 34.82 14.98 M34.82 14.98 C23.42 14.86, 12.88 14.3, 3.74 14.98 M34.82 14.98 C24.81 14.67, 15.37 15.44, 3.74 14.98 M3.74 14.98 C1.88 15.28, -0.12 13.51, 0 11.23 M3.74 14.98 C1.15 16.1, -0.88 13.19, 0 11.23 M0 11.23 C-0.17 8.12, -0.1 5.14, 0 3.74 M0 11.23 C-0.05 9.09, 0.06 7.12, 0 3.74 M0 3.74 C0.26 0.76, 0.51 -0.44, 3.74 0 M0 3.74 C-0.87 1.67, 1.43 -0.12, 3.74 0" stroke="#1e1e1e" stroke-width="2" fill="none"></path></g><g stroke-linecap="round" transform="translate(34.65296965349444 16.919422171883525) rotate(337.0766447889431 19.283203125 7.48828125)"><path d="M3.74 0 C13.29 -1.22, 20.21 1.12, 34.82 0 C36.27 1.8, 40.65 2.62, 38.57 3.74 C39.26 6.69, 39.23 9.55, 38.57 11.23 C37.5 13.37, 38.68 14.48, 34.82 14.98 C24.94 14.87, 19.18 13.53, 3.74 14.98 C1.84 14.25, 2 14.52, 0 11.23 C-0.05 8.44, -0.93 6.35, 0 3.74 C1.41 -0.96, 2.37 0.4, 3.74 0" stroke="none" stroke-width="0" fill="#868e96"></path><path d="M3.74 0 C11.47 -0.95, 20.55 0.94, 34.82 0 M3.74 0 C12.08 0.12, 21.25 -0.08, 34.82 0 M34.82 0 C36.46 -0.5, 38.46 2.17, 38.57 3.74 M34.82 0 C36.44 0.73, 37.54 1.36, 38.57 3.74 M38.57 3.74 C38.33 5.73, 38.33 8.71, 38.57 11.23 M38.57 3.74 C38.38 6.46, 38.58 9.04, 38.57 11.23 M38.57 11.23 C39.42 13.33, 37.19 15.91, 34.82 14.98 M38.57 11.23 C37.45 13.72, 37.81 14.27, 34.82 14.98 M34.82 14.98 C27.92 14.46, 22.36 14.56, 3.74 14.98 M34.82 14.98 C23.85 15.24, 13.47 15.01, 3.74 14.98 M3.74 14.98 C1.13 14.75, -0.08 14.71, 0 11.23 M3.74 14.98 C0.37 14.44, 0.98 13.63, 0 11.23 M0 11.23 C-0.08 8.85, -0.05 7.4, 0 3.74 M0 11.23 C0.09 9.03, 0.05 6.57, 0 3.74 M0 3.74 C-0.74 0.81, 0.49 0.37, 3.74 0 M0 3.74 C0.18 1.13, 0.83 0.36, 3.74 0" stroke="#1e1e1e" stroke-width="2" fill="none"></path></g><g stroke-linecap="round" transform="translate(11.826649814478515 32.545724255215646) rotate(0 42.630859375 38.322265625)"><path d="M19.16 0 C39.58 2.36, 55.03 2.76, 66.1 0 C81.77 1.9, 86.12 8.39, 85.26 19.16 C87.98 36, 84.24 45.27, 85.26 57.48 C87.14 69.57, 77.75 76.81, 66.1 76.64 C57.61 75.21, 46.99 75.72, 19.16 76.64 C9.15 77.74, -1.13 71.09, 0 57.48 C-3.34 41.24, 1.97 28.27, 0 19.16 C1.55 6.94, 7.15 -0.25, 19.16 0" stroke="none" stroke-width="0" fill="#7950f2"></path><path d="M19.16 0 C33.6 2.36, 47.83 -0.54, 66.1 0 M19.16 0 C36.7 -0.16, 52.81 -0.71, 66.1 0 M66.1 0 C78.66 1.85, 83.74 7.65, 85.26 19.16 M66.1 0 C76.83 0.23, 85.52 6.46, 85.26 19.16 M85.26 19.16 C83.75 32.19, 86.1 40.34, 85.26 57.48 M85.26 19.16 C85.17 33.62, 85.79 47.8, 85.26 57.48 M85.26 57.48 C85 72.13, 76.93 76.63, 66.1 76.64 M85.26 57.48 C86.25 68.84, 76.62 74.94, 66.1 76.64 M66.1 76.64 C52.06 75.56, 38.57 74.98, 19.16 76.64 M66.1 76.64 C56.27 77.31, 45.06 76.78, 19.16 76.64 M19.16 76.64 C6.22 78.61, -1.52 69.32, 0 57.48 M19.16 76.64 C8.35 76.45, -0.56 69.2, 0 57.48 M0 57.48 C-0.28 49.85, 0.21 38.91, 0 19.16 M0 57.48 C0.08 46.23, -0.92 35.5, 0 19.16 M0 19.16 C-1.51 7.13, 6.7 -0.21, 19.16 0 M0 19.16 C-0.84 7.1, 5.11 -2.24, 19.16 0" stroke="#1e1e1e" stroke-width="2" fill="none"></path></g><g stroke-linecap="round" transform="translate(13.186373760761853 87.12363309975535) rotate(312.47556431009303 13.974609375 10.47265625)"><path d="M5.24 0 C10.24 -1.35, 13.37 -0.91, 22.71 0 C28.97 1.09, 26.82 2.58, 27.95 5.24 C26.19 7.15, 28.97 10.78, 27.95 15.71 C29.5 19.75, 26.97 20.7, 22.71 20.95 C19.8 19.14, 10.16 18.05, 5.24 20.95 C-0.38 21.67, -3.28 22.56, 0 15.71 C-1.07 13.45, -0.27 10.39, 0 5.24 C-3.31 3.18, 0.03 3.19, 5.24 0" stroke="none" stroke-width="0" fill="#a5d8ff"></path><path d="M5.24 0 C9.34 1.57, 16.6 -1.29, 22.71 0 M5.24 0 C12.06 -0.12, 19.23 -0.41, 22.71 0 M22.71 0 C25.95 1.87, 26 1.73, 27.95 5.24 M22.71 0 C27.19 -1.42, 25.7 0.04, 27.95 5.24 M27.95 5.24 C28 7.98, 28.39 10.85, 27.95 15.71 M27.95 5.24 C28.25 7.73, 27.86 9.79, 27.95 15.71 M27.95 15.71 C27.78 21.16, 24.68 20, 22.71 20.95 M27.95 15.71 C29.91 19.01, 25.64 19.89, 22.71 20.95 M22.71 20.95 C18.19 22.15, 14.43 20.62, 5.24 20.95 M22.71 20.95 C18.03 20.6, 12.24 20.64, 5.24 20.95 M5.24 20.95 C0.23 21.68, 0.31 18.99, 0 15.71 M5.24 20.95 C0.9 21.66, -1.28 16.96, 0 15.71 M0 15.71 C0.43 12.15, -0.5 8.11, 0 5.24 M0 15.71 C0.24 11.97, 0.29 8.03, 0 5.24 M0 5.24 C1.25 3.71, 0.93 -0.27, 5.24 0 M0 5.24 C1.2 1.31, 1.03 0.1, 5.24 0" stroke="#1e1e1e" stroke-width="2" fill="none"></path></g><g stroke-linecap="round" transform="translate(28.10504480902091 45.896403022249615) rotate(312.47556431009303 25.4296875 23.859375)"><path d="M19.81 1.38 C24.92 0.23, 33.71 0.32, 38.7 2.77 C43.68 5.22, 48.02 11.12, 49.74 16.08 C51.45 21.03, 50.77 27.7, 49 32.51 C47.24 37.32, 43.73 42.37, 39.15 44.94 C34.56 47.52, 26.91 48.77, 21.48 47.95 C16.05 47.13, 10.06 43.9, 6.57 40.02 C3.08 36.15, 0.51 29.99, 0.54 24.7 C0.58 19.41, 2.86 12.31, 6.78 8.28 C10.71 4.25, 20.64 1.89, 24.08 0.55 C27.53 -0.79, 27.39 0.09, 27.44 0.26 M17.42 1.37 C22.19 -0.24, 29.81 1.2, 35 3.07 C40.19 4.95, 45.98 8.14, 48.57 12.61 C51.16 17.08, 51.86 25.05, 50.54 29.9 C49.22 34.76, 45.3 39, 40.65 41.74 C36 44.48, 27.94 46.65, 22.64 46.36 C17.34 46.07, 12.49 43.23, 8.86 40 C5.22 36.76, 1.56 31.82, 0.83 26.94 C0.09 22.06, 1.51 15.22, 4.45 10.71 C7.4 6.21, 16.08 1.23, 18.49 -0.09 C20.89 -1.4, 19 2.35, 18.89 2.84" stroke="none" stroke-width="0" fill="#a5d8ff"></path><path d="M15.51 2.28 C19.97 0.32, 27.33 0.44, 32.44 1.8 C37.54 3.16, 42.95 6.5, 46.15 10.44 C49.35 14.38, 52.16 20.26, 51.65 25.44 C51.13 30.61, 47.23 37.95, 43.04 41.49 C38.86 45.03, 32.08 46.41, 26.53 46.69 C20.97 46.96, 14.09 46.1, 9.69 43.16 C5.29 40.23, 1.28 34.09, 0.12 29.05 C-1.05 24.01, -0.94 17.84, 2.71 12.93 C6.35 8.02, 17.88 1.68, 21.98 -0.42 C26.08 -2.52, 27.17 -0.29, 27.29 0.33 M29.09 1.74 C34.1 2.1, 39.51 3.8, 43.35 7.36 C47.19 10.93, 51.87 18.02, 52.13 23.14 C52.4 28.25, 48.71 34.09, 44.95 38.05 C41.18 42, 35.06 45.77, 29.56 46.85 C24.07 47.93, 16.43 46.89, 11.99 44.53 C7.55 42.16, 4.72 37.42, 2.92 32.66 C1.12 27.9, -0.49 20.72, 1.17 15.98 C2.83 11.24, 8.14 6.94, 12.88 4.2 C17.62 1.46, 27.08 0.23, 29.61 -0.46 C32.13 -1.15, 28.35 -0.53, 28.04 0.08" stroke="#1e1e1e" stroke-width="2" fill="none"></path></g></svg>