<svg version="1.1" xmlns="http://www.w3.org/2000/svg" viewBox="0 0 108.91314535019046 140.8422378015016" width="108.91314535019046" height="140.8422378015016">
  <!-- svg-source:excalidraw -->
  
  <defs>
    <style class="style-fonts">
      @font-face {
        font-family: "Virgil";
        src: url("https://excalidraw.com/Virgil.woff2");
      }
      @font-face {
        font-family: "Cascadia";
        src: url("https://excalidraw.com/Cascadia.woff2");
      }
      @font-face {
        font-family: "Assistant";
        src: url("https://excalidraw.com/Assistant-Regular.woff2");
      }
    </style>
    
  </defs>
  <g stroke-linecap="round" transform="translate(32.64044744318198 109.06643921733757) rotate(337.5387531331347 19.283203125 7.48828125)"><path d="M3.74 0 C11.42 -0.07, 15.39 -2.05, 34.82 0 C35.21 0.86, 41.08 1.47, 38.57 3.74 C39.33 5.7, 37.6 8.03, 38.57 11.23 C39.41 12.72, 34.77 13.93, 34.82 14.98 C25.41 13.39, 21.98 16.05, 3.74 14.98 C1.26 14.14, -0.71 13.91, 0 11.23 C0.93 8.84, 0.78 7.33, 0 3.74 C1.07 2.29, 1.27 1.52, 3.74 0" stroke="none" stroke-width="0" fill="#868e96"></path><path d="M3.74 0 C12.82 -0.34, 20.17 -1.04, 34.82 0 M3.74 0 C14.45 -0.06, 24.27 0.24, 34.82 0 M34.82 0 C37.46 -0.86, 38.83 1.75, 38.57 3.74 M34.82 0 C37.52 0.99, 38.17 0.14, 38.57 3.74 M38.57 3.74 C38.61 6.04, 38.83 7.58, 38.57 11.23 M38.57 3.74 C38.53 5.72, 38.61 7.52, 38.57 11.23 M38.57 11.23 C39.13 13.24, 36.47 15.77, 34.82 14.98 M38.57 11.23 C38.41 14.65, 36.76 15.65, 34.82 14.98 M34.82 14.98 C24.65 15.13, 14.02 14.09, 3.74 14.98 M34.82 14.98 C28.75 14.88, 21.86 15.07, 3.74 14.98 M3.74 14.98 C1.32 15.97, 0.65 12.82, 0 11.23 M3.74 14.98 C2.28 15.18, -0.67 14.12, 0 11.23 M0 11.23 C0.22 9.32, -0.24 7.87, 0 3.74 M0 11.23 C0.13 9.13, 0.14 7.41, 0 3.74 M0 3.74 C-0.53 1.18, 0.85 -0.37, 3.74 0 M0 3.74 C-1.07 2.07, 1.25 0.08, 3.74 0" stroke="#1e1e1e" stroke-width="2" fill="none"></path></g><g stroke-linecap="round" transform="translate(32.826319839014104 16.919422171883525) rotate(337.0766447889431 19.283203125 7.48828125)"><path d="M3.74 0 C10.56 -2.05, 20.21 0.88, 34.82 0 C39.83 0.22, 37.19 0.69, 38.57 3.74 C37.7 6.28, 38.96 7.26, 38.57 11.23 C36.02 12.68, 35.65 17.53, 34.82 14.98 C27.37 15.81, 16.29 13.89, 3.74 14.98 C0.54 15.16, -1.04 14.31, 0 11.23 C0.7 8.6, 0.31 6.36, 0 3.74 C0.02 2.77, 1.1 1.8, 3.74 0" stroke="none" stroke-width="0" fill="#868e96"></path><path d="M3.74 0 C14.97 -0.91, 26.01 0.33, 34.82 0 M3.74 0 C13.28 0.27, 23.03 -0.42, 34.82 0 M34.82 0 C37.59 0.5, 38.74 2.11, 38.57 3.74 M34.82 0 C36.92 -1.11, 38.31 1.74, 38.57 3.74 M38.57 3.74 C38.81 5.22, 38.4 7.34, 38.57 11.23 M38.57 3.74 C38.6 6.58, 38.66 9.41, 38.57 11.23 M38.57 11.23 C37.72 14.52, 37.18 15.78, 34.82 14.98 M38.57 11.23 C38.01 14.41, 37.79 15.15, 34.82 14.98 M34.82 14.98 C26.63 14.16, 16.67 14.45, 3.74 14.98 M34.82 14.98 C23.98 14.95, 13.51 15.42, 3.74 14.98 M3.74 14.98 C1.9 14.07, 0.9 13.91, 0 11.23 M3.74 14.98 C0.58 15.36, -0.63 13.63, 0 11.23 M0 11.23 C-0.27 9.83, -0.17 8.08, 0 3.74 M0 11.23 C0.13 9.71, -0.13 8.05, 0 3.74 M0 3.74 C-0.4 0.88, 0.32 0.72, 3.74 0 M0 3.74 C0 1.33, 0.41 -0.93, 3.74 0" stroke="#1e1e1e" stroke-width="2" fill="none"></path></g><g stroke-linecap="round" transform="translate(10 32.545724255215646) rotate(0 42.630859375 38.322265625)"><path d="M19.16 0 C30.18 1.87, 50.52 0.98, 66.1 0 C76.96 -0.77, 83.83 9.29, 85.26 19.16 C85.76 29.68, 81.06 41.53, 85.26 57.48 C82.96 73.8, 78.82 73.76, 66.1 76.64 C54.89 75.83, 42.65 77.25, 19.16 76.64 C4.94 77.46, 1.85 73.76, 0 57.48 C0.92 49.16, -0.54 40.08, 0 19.16 C-0.21 8.88, 6.74 -2.9, 19.16 0" stroke="none" stroke-width="0" fill="#7950f2"></path><path d="M19.16 0 C32.65 1.04, 45.06 2.05, 66.1 0 M19.16 0 C32.94 -1.1, 46.71 0.26, 66.1 0 M66.1 0 C79.23 1.73, 84.57 4.46, 85.26 19.16 M66.1 0 C78.36 0.98, 83.87 6.55, 85.26 19.16 M85.26 19.16 C84.6 32.94, 87.2 46.27, 85.26 57.48 M85.26 19.16 C85.91 31.65, 84.5 45.91, 85.26 57.48 M85.26 57.48 C84.98 71.86, 77.9 77.82, 66.1 76.64 M85.26 57.48 C86.21 70.6, 78.34 77.64, 66.1 76.64 M66.1 76.64 C49.24 75.13, 37 77.57, 19.16 76.64 M66.1 76.64 C53.6 77.66, 41.61 75.76, 19.16 76.64 M19.16 76.64 C8.18 77, -1.16 70.93, 0 57.48 M19.16 76.64 C5.12 76.45, -1.64 71.6, 0 57.48 M0 57.48 C-0.56 48.28, -1.52 37.83, 0 19.16 M0 57.48 C-0.87 49.24, -0.74 40.75, 0 19.16 M0 19.16 C-1.86 7.82, 6.39 0.14, 19.16 0 M0 19.16 C-1.68 4.53, 6.36 0.54, 19.16 0" stroke="#1e1e1e" stroke-width="2" fill="none"></path></g><g stroke-linecap="round" transform="translate(67.77755283942861 31.768827916034752) rotate(312.47556431009303 13.974609375 10.47265625)"><path d="M5.24 0 C12.16 1.04, 20.38 -0.24, 22.71 0 C28.31 -0.21, 30.44 2.1, 27.95 5.24 C28.35 7.92, 29.56 9.19, 27.95 15.71 C24.62 20.94, 24.77 22.14, 22.71 20.95 C18.09 19.35, 13.22 20.57, 5.24 20.95 C-0.39 23.3, -0.19 17.53, 0 15.71 C-0.8 13.26, -1.64 6.79, 0 5.24 C-1.36 1.66, 0.08 2.64, 5.24 0" stroke="none" stroke-width="0" fill="#a5d8ff"></path><path d="M5.24 0 C12.84 -0.1, 19.08 -0.7, 22.71 0 M5.24 0 C11.31 0.35, 17.95 0.33, 22.71 0 M22.71 0 C24.51 -1.88, 26.83 2.61, 27.95 5.24 M22.71 0 C27.73 -0.74, 27.19 1.87, 27.95 5.24 M27.95 5.24 C27.1 9.39, 28.24 11.05, 27.95 15.71 M27.95 5.24 C27.52 9.04, 27.78 11.88, 27.95 15.71 M27.95 15.71 C29.58 18.39, 27.66 19.18, 22.71 20.95 M27.95 15.71 C29.89 17.21, 28.23 21.73, 22.71 20.95 M22.71 20.95 C17.74 19.25, 15.32 20.88, 5.24 20.95 M22.71 20.95 C17.34 21.01, 11.96 19.97, 5.24 20.95 M5.24 20.95 C0.16 19.32, 0.66 21.13, 0 15.71 M5.24 20.95 C1.94 19.73, -0.49 18.28, 0 15.71 M0 15.71 C0.62 12.06, -0.42 6.71, 0 5.24 M0 15.71 C0.06 12.57, -0.25 10.64, 0 5.24 M0 5.24 C0.83 1.76, 1.1 -0.55, 5.24 0 M0 5.24 C0.16 0.82, 2.26 1.18, 5.24 0" stroke="#1e1e1e" stroke-width="2" fill="none"></path></g><g stroke-linecap="round" transform="translate(29.94872554116955 46.22262049353867) rotate(312.47556431009303 25.4296875 23.859375)"><path d="M26.11 0.83 C31.41 0.6, 38.51 1.91, 42.7 5.28 C46.88 8.65, 50.61 15.98, 51.24 21.04 C51.88 26.11, 49.59 31.52, 46.5 35.68 C43.41 39.83, 37.67 44.26, 32.7 45.97 C27.73 47.67, 21.81 47.84, 16.71 45.9 C11.6 43.95, 4.65 38.75, 2.08 34.29 C-0.48 29.83, -0.01 24.08, 1.3 19.14 C2.6 14.19, 4.63 7.6, 9.93 4.62 C15.23 1.64, 28.26 1.25, 33.1 1.26 C37.93 1.27, 38.95 4.16, 38.94 4.69 M20.33 1.21 C25.1 -0.03, 32.25 1.09, 36.99 3.48 C41.73 5.88, 46.6 11.22, 48.75 15.58 C50.9 19.94, 51.38 24.93, 49.9 29.63 C48.41 34.33, 44.4 40.75, 39.85 43.79 C35.3 46.82, 27.89 48.54, 22.59 47.84 C17.29 47.15, 12.04 43.29, 8.05 39.62 C4.06 35.95, -0.76 30.77, -1.35 25.83 C-1.94 20.89, 0.91 14.1, 4.53 9.99 C8.14 5.89, 17.94 2.58, 20.33 1.2 C22.72 -0.18, 18.97 1.23, 18.85 1.72" stroke="none" stroke-width="0" fill="#a5d8ff"></path><path d="M19.47 0.47 C24.39 -1.03, 32.11 0.48, 37.05 2.62 C41.99 4.77, 47.11 8.79, 49.09 13.34 C51.07 17.89, 50.43 24.75, 48.92 29.92 C47.42 35.08, 44.47 41.43, 40.05 44.32 C35.63 47.21, 27.89 47.9, 22.41 47.26 C16.93 46.61, 10.72 43.99, 7.16 40.47 C3.6 36.95, 1.58 31.1, 1.05 26.13 C0.52 21.17, 0.01 15.15, 3.97 10.7 C7.93 6.25, 20.42 1.17, 24.79 -0.57 C29.16 -2.3, 30.21 -0.08, 30.18 0.3 M33.95 0.4 C39.24 1.44, 44.77 5.27, 47.77 9.43 C50.77 13.59, 52.55 19.95, 51.95 25.34 C51.35 30.72, 48.51 38.02, 44.2 41.73 C39.89 45.44, 31.87 47.46, 26.11 47.58 C20.35 47.7, 14.11 45.3, 9.64 42.44 C5.17 39.58, 0.45 35.29, -0.71 30.43 C-1.86 25.57, 0.22 18.2, 2.71 13.25 C5.21 8.3, 9.27 2.72, 14.27 0.74 C19.27 -1.25, 29.67 1.48, 32.71 1.36 C35.76 1.24, 32.86 -0.08, 32.54 0.03" stroke="#1e1e1e" stroke-width="2" fill="none"></path></g></svg>