<svg version="1.1" xmlns="http://www.w3.org/2000/svg" viewBox="0 0 116.80622209821377 127.12357954545587" width="116.80622209821377" height="127.12357954545587">
  <!-- svg-source:excalidraw -->
  
  <defs>
    <style class="style-fonts">
      @font-face {
        font-family: "Virgil";
        src: url("https://excalidraw.com/Virgil.woff2");
      }
      @font-face {
        font-family: "Cascadia";
        src: url("https://excalidraw.com/Cascadia.woff2");
      }
      @font-face {
        font-family: "Assistant";
        src: url("https://excalidraw.com/Assistant-Regular.woff2");
      }
    </style>
    
  </defs>
  <g stroke-linecap="round" transform="translate(21.544503348213766 24.534665854976993) rotate(0 42.630859375 38.322265625)"><path d="M19.16 0 C33.77 -0.09, 55.58 -2.37, 66.1 0 C78.34 -0.54, 88.17 9.5, 85.26 19.16 C85.91 29.85, 87.79 37.16, 85.26 57.48 C82.56 72.78, 78.94 77.83, 66.1 76.64 C53.8 76.4, 39.41 74.05, 19.16 76.64 C3.72 79.08, -2.37 70.58, 0 57.48 C1.9 45.38, -3.35 28.81, 0 19.16 C-2.21 8.61, 7.34 1.32, 19.16 0" stroke="none" stroke-width="0" fill="#228be6"></path><path d="M19.16 0 C30.62 1.72, 45.07 -2.21, 66.1 0 M19.16 0 C32.02 0.3, 43.54 0.38, 66.1 0 M66.1 0 C78.78 0.79, 86.16 6.67, 85.26 19.16 M66.1 0 C80.71 -0.92, 83.53 7.14, 85.26 19.16 M85.26 19.16 C84.76 27.65, 86.97 36.87, 85.26 57.48 M85.26 19.16 C85.47 31.04, 84.53 41.83, 85.26 57.48 M85.26 57.48 C86.97 68.41, 79.09 75.96, 66.1 76.64 M85.26 57.48 C86.05 70.03, 77.93 76.72, 66.1 76.64 M66.1 76.64 C53.34 74.91, 43.23 76.06, 19.16 76.64 M66.1 76.64 C53.01 75.97, 38.8 76.34, 19.16 76.64 M19.16 76.64 C7.06 76.29, 0.92 69.09, 0 57.48 M19.16 76.64 C7.32 77.56, 1.82 68.79, 0 57.48 M0 57.48 C-0.09 49.94, 1.32 39.77, 0 19.16 M0 57.48 C0.55 48.6, 0.49 38.85, 0 19.16 M0 19.16 C-1.21 4.45, 5.28 1.42, 19.16 0 M0 19.16 C-1.18 4.46, 7.51 0.16, 19.16 0" stroke="#1e1e1e" stroke-width="2" fill="none"></path></g><g stroke-linecap="round" transform="translate(45.41349600919875 102.14701704545587) rotate(0 19.283203125 7.48828125)"><path d="M3.74 0 C13.64 -1.75, 21.38 -0.37, 34.82 0 C39.42 2.25, 36.51 1.72, 38.57 3.74 C39.23 5.84, 37.85 8.05, 38.57 11.23 C38.62 14.58, 36.68 15.92, 34.82 14.98 C22.02 12.42, 8.5 16.62, 3.74 14.98 C-0.46 15.21, 1.99 15.47, 0 11.23 C-0.84 8.45, -0.66 6.17, 0 3.74 C0.69 2.2, 0.97 -2.15, 3.74 0" stroke="none" stroke-width="0" fill="#868e96"></path><path d="M3.74 0 C15.57 -1.12, 25.47 0.73, 34.82 0 M3.74 0 C13.29 0.15, 22.46 0.15, 34.82 0 M34.82 0 C37.77 0.14, 39.37 0.85, 38.57 3.74 M34.82 0 C36.45 0.38, 37.76 1.23, 38.57 3.74 M38.57 3.74 C38.88 6.59, 38.56 9.52, 38.57 11.23 M38.57 3.74 C38.41 5.8, 38.73 7.79, 38.57 11.23 M38.57 11.23 C38.68 13.38, 37.66 14.88, 34.82 14.98 M38.57 11.23 C38.09 13.77, 36.75 14.41, 34.82 14.98 M34.82 14.98 C27.68 14.71, 19.86 14.45, 3.74 14.98 M34.82 14.98 C27.3 14.88, 19.59 14.82, 3.74 14.98 M3.74 14.98 C1.71 14.39, 0.41 14.13, 0 11.23 M3.74 14.98 C2.16 14.24, -0.92 14.05, 0 11.23 M0 11.23 C0.27 9.41, -0.24 8.05, 0 3.74 M0 11.23 C0.09 8.74, -0.14 6.25, 0 3.74 M0 3.74 C-0.55 1.96, 0.73 -0.84, 3.74 0 M0 3.74 C0.56 1.33, 2.11 -0.39, 3.74 0" stroke="#1e1e1e" stroke-width="2" fill="none"></path></g><g stroke-linecap="round" transform="translate(45.59936840503178 10) rotate(0 19.283203125 7.48828125)"><path d="M3.74 0 C12.53 -0.12, 24.19 2.52, 34.82 0 C35.27 0.47, 37.05 1.63, 38.57 3.74 C37.9 7.14, 38.65 9.48, 38.57 11.23 C37.93 14.68, 39.72 15.43, 34.82 14.98 C24.45 16.36, 16.23 14.83, 3.74 14.98 C3.23 16.71, 2.03 15.43, 0 11.23 C-0.52 9.11, 0.34 6.13, 0 3.74 C-0.28 -0.91, -0.44 -2, 3.74 0" stroke="none" stroke-width="0" fill="#868e96"></path><path d="M3.74 0 C15.72 1.03, 28.58 0.99, 34.82 0 M3.74 0 C14.01 0.14, 24.55 0.01, 34.82 0 M34.82 0 C38.12 -0.4, 37.81 1.58, 38.57 3.74 M34.82 0 C36.51 -0.02, 39.46 0.96, 38.57 3.74 M38.57 3.74 C38.6 6, 38.53 8.04, 38.57 11.23 M38.57 3.74 C38.69 6.12, 38.55 8.77, 38.57 11.23 M38.57 11.23 C38.91 13.63, 36.91 15.01, 34.82 14.98 M38.57 11.23 C37.99 13.17, 36.63 14.39, 34.82 14.98 M34.82 14.98 C27.69 14.54, 20.15 15.69, 3.74 14.98 M34.82 14.98 C26.99 14.88, 19.06 14.68, 3.74 14.98 M3.74 14.98 C1.65 15.38, 0.79 13.09, 0 11.23 M3.74 14.98 C0.33 15.3, -0.91 13.74, 0 11.23 M0 11.23 C-0.26 8.79, 0.05 6.34, 0 3.74 M0 11.23 C-0.14 8.66, -0.13 6.58, 0 3.74 M0 3.74 C-0.51 0.41, 1.74 0.07, 3.74 0 M0 3.74 C0.86 0.85, 1.13 -0.95, 3.74 0" stroke="#343a40" stroke-width="2" fill="none"></path></g><g stroke-linecap="round" transform="translate(10 53.475852272727934) rotate(0 13.974609375 10.47265625)"><path d="M5.24 0 C11.83 2.77, 10.85 0.62, 22.71 0 C24.11 0.52, 30.17 4.15, 27.95 5.24 C27.84 9.3, 27.35 12.82, 27.95 15.71 C31.28 19.83, 25.18 20.11, 22.71 20.95 C17.04 21.44, 17.91 23.26, 5.24 20.95 C4.56 23.3, 2.32 16.32, 0 15.71 C0.62 13.21, -0.08 7.76, 0 5.24 C-2.34 -1.02, 0.95 1.98, 5.24 0" stroke="none" stroke-width="0" fill="#a5d8ff"></path><path d="M5.24 0 C8.81 1.32, 12.87 0.44, 22.71 0 M5.24 0 C11.55 0.06, 17.78 -0.42, 22.71 0 M22.71 0 C24.7 0.66, 26.54 1.71, 27.95 5.24 M22.71 0 C27.99 -0.57, 27.6 3.72, 27.95 5.24 M27.95 5.24 C27.76 8.52, 28.37 10.73, 27.95 15.71 M27.95 5.24 C28.1 7.9, 28.22 10.86, 27.95 15.71 M27.95 15.71 C27.13 19.27, 25.21 19.97, 22.71 20.95 M27.95 15.71 C26.57 18.03, 24.54 21.66, 22.71 20.95 M22.71 20.95 C16.82 22.16, 12 21.49, 5.24 20.95 M22.71 20.95 C17.97 20.4, 12.77 21.26, 5.24 20.95 M5.24 20.95 C3.33 19.67, -1.6 19.77, 0 15.71 M5.24 20.95 C-0.07 20.97, 1.01 20.85, 0 15.71 M0 15.71 C0.28 13.74, 0.27 10.99, 0 5.24 M0 15.71 C-0.23 13.44, -0.21 9.98, 0 5.24 M0 5.24 C0.98 1.88, 3.24 -0.69, 5.24 0 M0 5.24 C-0.23 -0.16, 1.63 0.78, 5.24 0" stroke="#1e1e1e" stroke-width="2" fill="none"></path></g><g stroke-linecap="round" transform="translate(36.888671875 39.436789772727934) rotate(0 25.4296875 23.859375)"><path d="M16.36 1.4 C20.9 -0.76, 27.27 -0.28, 32.39 1.44 C37.5 3.15, 43.97 7.33, 47.05 11.68 C50.13 16.03, 51.66 22.69, 50.85 27.54 C50.04 32.4, 46.38 37.54, 42.18 40.81 C37.98 44.07, 30.88 46.89, 25.63 47.14 C20.38 47.39, 15.02 45.24, 10.71 42.31 C6.4 39.38, 1.08 34.35, -0.22 29.57 C-1.52 24.79, -0.13 18.43, 2.91 13.64 C5.96 8.85, 15.13 2.98, 18.07 0.83 C21 -1.32, 20.29 0.46, 20.52 0.74 M24.83 -1.12 C30.05 -2.13, 36.3 0.28, 40.55 3.61 C44.79 6.95, 48.83 13.73, 50.29 18.9 C51.76 24.07, 51.93 30.03, 49.34 34.66 C46.75 39.28, 39.89 44.55, 34.76 46.66 C29.63 48.77, 23.69 48.79, 18.57 47.32 C13.45 45.85, 6.89 42.11, 4.05 37.84 C1.21 33.58, 0.98 26.98, 1.51 21.74 C2.05 16.51, 3.81 10.23, 7.25 6.43 C10.69 2.63, 19.24 0.1, 22.13 -1.05 C25.02 -2.19, 24.3 -1.22, 24.59 -0.44" stroke="none" stroke-width="0" fill="#a5d8ff"></path><path d="M30.15 0.79 C35.26 1.46, 41.61 5.55, 44.99 9.26 C48.38 12.96, 50.41 18.16, 50.46 23.02 C50.51 27.88, 48.72 34.24, 45.3 38.42 C41.87 42.61, 35.38 47.12, 29.92 48.12 C24.46 49.11, 17.13 47.07, 12.55 44.41 C7.97 41.75, 4.27 36.87, 2.42 32.15 C0.58 27.44, -0.17 20.92, 1.5 16.12 C3.17 11.31, 6.74 5.84, 12.45 3.32 C18.16 0.81, 31.19 0.61, 35.75 1.03 C40.32 1.45, 40.23 5.31, 39.84 5.83 M20.46 0.4 C25.29 -0.83, 32.79 0.06, 37.45 2.49 C42.12 4.92, 46.65 9.98, 48.45 14.99 C50.24 20, 49.98 27.63, 48.22 32.54 C46.45 37.46, 42.51 42.13, 37.86 44.47 C33.22 46.81, 25.48 47.56, 20.33 46.56 C15.19 45.57, 10.31 42.32, 7.01 38.51 C3.71 34.7, 0.61 28.77, 0.53 23.72 C0.44 18.67, 2.95 12.25, 6.49 8.21 C10.03 4.17, 19.22 0.61, 21.77 -0.52 C24.31 -1.66, 21.62 1.04, 21.77 1.42" stroke="#1e1e1e" stroke-width="2" fill="none"></path></g></svg>