<svg version="1.1" xmlns="http://www.w3.org/2000/svg" viewBox="0 0 105.26171875 128.99023202101125" width="105.26171875" height="128.99023202101125">
  <!-- svg-source:excalidraw -->
  
  <defs>
    <style class="style-fonts">
      @font-face {
        font-family: "Virgil";
        src: url("https://excalidraw.com/Virgil.woff2");
      }
      @font-face {
        font-family: "Cascadia";
        src: url("https://excalidraw.com/Cascadia.woff2");
      }
      @font-face {
        font-family: "Assistant";
        src: url("https://excalidraw.com/Assistant-Regular.woff2");
      }
    </style>
    
  </defs>
  <g stroke-linecap="round" transform="translate(10 24.534665854976993) rotate(0 42.630859375 38.322265625)"><path d="M19.16 0 C34.64 3.54, 48.14 -0.82, 66.1 0 C78.04 -3.38, 82.59 8.83, 85.26 19.16 C87.73 30.96, 87.68 39.43, 85.26 57.48 C82.38 70.43, 76.66 78.87, 66.1 76.64 C47.79 74.22, 32.67 75.76, 19.16 76.64 C8.37 78.15, -2.17 68.91, 0 57.48 C-0.65 45.49, 2.18 39.8, 0 19.16 C1.59 5.09, 4.33 -2.63, 19.16 0" stroke="none" stroke-width="0" fill="#228be6"></path><path d="M19.16 0 C29.66 1.88, 39.75 0.02, 66.1 0 M19.16 0 C37.61 -0.18, 55.46 0.4, 66.1 0 M66.1 0 C77.15 -0.58, 86.97 4.54, 85.26 19.16 M66.1 0 C79.13 -0.79, 86.05 6.16, 85.26 19.16 M85.26 19.16 C84.29 27.88, 84.26 37.55, 85.26 57.48 M85.26 19.16 C84.79 31.33, 85.94 44.12, 85.26 57.48 M85.26 57.48 C85.96 70.15, 79.54 76.29, 66.1 76.64 M85.26 57.48 C86.32 68.91, 79.81 77.56, 66.1 76.64 M66.1 76.64 C48.87 74.69, 30.54 77.15, 19.16 76.64 M66.1 76.64 C49.01 76.55, 31.9 76.55, 19.16 76.64 M19.16 76.64 C7.63 75.69, -1.21 68.32, 0 57.48 M19.16 76.64 C5.12 78.28, -1.18 68.33, 0 57.48 M0 57.48 C-0.71 43.91, -1.69 30.65, 0 19.16 M0 57.48 C0.11 45.49, 1.13 31.09, 0 19.16 M0 19.16 C0.36 5.22, 6.68 1.23, 19.16 0 M0 19.16 C1.54 7.06, 4.66 1.61, 19.16 0" stroke="#1e1e1e" stroke-width="2" fill="none"></path></g><g stroke-linecap="round" transform="translate(33.86899266098408 102.14701704545587) rotate(0 19.283203125 7.48828125)"><path d="M3.74 0 C12.76 -1.11, 20.26 -2.81, 34.82 0 C35.39 1.76, 36.86 1.48, 38.57 3.74 C39.27 7.19, 37.85 9.43, 38.57 11.23 C36.97 15.34, 38.01 15.93, 34.82 14.98 C23.83 14.14, 18.27 15.8, 3.74 14.98 C-0.32 14, -0.59 16.11, 0 11.23 C0.76 10.04, 0.43 6.55, 0 3.74 C-1.48 -0.65, 2.55 -2.23, 3.74 0" stroke="none" stroke-width="0" fill="#868e96"></path><path d="M3.74 0 C10.63 -0.27, 18.88 -0.07, 34.82 0 M3.74 0 C13.1 0.23, 21.93 -0.12, 34.82 0 M34.82 0 C38.17 -0.92, 38.68 0.9, 38.57 3.74 M34.82 0 C37.71 -0.11, 38.09 1.29, 38.57 3.74 M38.57 3.74 C38.36 5.35, 38.66 7.44, 38.57 11.23 M38.57 3.74 C38.69 5.87, 38.62 8.14, 38.57 11.23 M38.57 11.23 C38.9 13.55, 37.78 14.39, 34.82 14.98 M38.57 11.23 C39.03 14.19, 38.23 14.24, 34.82 14.98 M34.82 14.98 C28 15.29, 21.88 14.42, 3.74 14.98 M34.82 14.98 C27.8 15.11, 20.41 14.77, 3.74 14.98 M3.74 14.98 C0.64 14.01, -0.55 14.44, 0 11.23 M3.74 14.98 C0.66 14.01, 0.56 13.81, 0 11.23 M0 11.23 C-0.3 8.41, 0.14 5.36, 0 3.74 M0 11.23 C0.17 8.95, 0.04 6.85, 0 3.74 M0 3.74 C0.15 1.86, 1.92 0.29, 3.74 0 M0 3.74 C-0.86 2.06, 1.27 0.38, 3.74 0" stroke="#1e1e1e" stroke-width="2" fill="none"></path></g><g stroke-linecap="round" transform="translate(34.05486505681802 10) rotate(0 19.283203125 7.48828125)"><path d="M3.74 0 C15.34 -2.32, 26.21 1.88, 34.82 0 C35.61 0.23, 40.55 2.99, 38.57 3.74 C37.85 6.62, 38.03 10.01, 38.57 11.23 C39.26 14.69, 37.04 12.82, 34.82 14.98 C28.95 15.97, 18.65 13.91, 3.74 14.98 C0.66 17.36, -0.29 13.72, 0 11.23 C0.35 8.92, -0.63 6.59, 0 3.74 C1.31 -0.99, 3.24 1.38, 3.74 0" stroke="none" stroke-width="0" fill="#868e96"></path><path d="M3.74 0 C16.33 0.08, 27.2 0.36, 34.82 0 M3.74 0 C12.07 -0.21, 21.69 -0.52, 34.82 0 M34.82 0 C37.43 -0.34, 38.91 1.15, 38.57 3.74 M34.82 0 C36.84 0.04, 37.99 0.68, 38.57 3.74 M38.57 3.74 C38.66 5.48, 38.53 7.18, 38.57 11.23 M38.57 3.74 C38.66 5.59, 38.66 7.42, 38.57 11.23 M38.57 11.23 C39.03 13.14, 37.72 15.38, 34.82 14.98 M38.57 11.23 C39.48 12.99, 36.4 15.3, 34.82 14.98 M34.82 14.98 C28.67 14.61, 20.46 15.39, 3.74 14.98 M34.82 14.98 C25.17 14.77, 14.6 14.52, 3.74 14.98 M3.74 14.98 C0.7 15.69, -0.51 12.89, 0 11.23 M3.74 14.98 C1.81 15.06, 0.86 13.33, 0 11.23 M0 11.23 C0.16 8.81, -0.02 6.83, 0 3.74 M0 11.23 C0 8.27, -0.01 5.65, 0 3.74 M0 3.74 C0.67 1.54, 0.5 0.7, 3.74 0 M0 3.74 C0.02 1.63, 0.97 0.42, 3.74 0" stroke="#343a40" stroke-width="2" fill="none"></path></g><g stroke-linecap="round" transform="translate(39.397448168828305 94.41887882292576) rotate(90.684351531919 13.974609375 10.47265625)"><path d="M5.24 0 C7.65 2.43, 12.66 0.58, 22.71 0 C28.95 2.41, 30.77 4.1, 27.95 5.24 C26.64 10.22, 28.3 13.56, 27.95 15.71 C27.57 16.22, 23.87 18.18, 22.71 20.95 C15.96 19.9, 12.29 23.96, 5.24 20.95 C1.35 20.93, -1.36 22.01, 0 15.71 C-1.16 10.15, 0.86 5.72, 0 5.24 C2.75 3.66, 4.24 0.73, 5.24 0" stroke="none" stroke-width="0" fill="#a5d8ff"></path><path d="M5.24 0 C10.2 0.58, 14.87 0.14, 22.71 0 M5.24 0 C11.93 -0.76, 17.22 -0.25, 22.71 0 M22.71 0 C26.89 -0.2, 27.13 1.81, 27.95 5.24 M22.71 0 C25.06 -1.13, 26.57 0.58, 27.95 5.24 M27.95 5.24 C27.92 7.19, 27.43 10.77, 27.95 15.71 M27.95 5.24 C28.16 7.84, 28.23 10.32, 27.95 15.71 M27.95 15.71 C28.76 20, 27.79 19.67, 22.71 20.95 M27.95 15.71 C26.1 19.85, 24.39 20.97, 22.71 20.95 M22.71 20.95 C15.6 21.48, 11.05 22.07, 5.24 20.95 M22.71 20.95 C16.59 20.02, 11.05 21.48, 5.24 20.95 M5.24 20.95 C0.72 19.27, 0.98 19.34, 0 15.71 M5.24 20.95 C3.47 20.16, -0.23 17.29, 0 15.71 M0 15.71 C-0.19 12.46, 0.81 10.43, 0 5.24 M0 15.71 C0.06 13.72, 0.33 11.23, 0 5.24 M0 5.24 C-1.5 3.15, 1.78 0.66, 5.24 0 M0 5.24 C-0.56 2.58, 3.87 0.4, 5.24 0" stroke="#1e1e1e" stroke-width="2" fill="none"></path></g><g stroke-linecap="round" transform="translate(27.748046875 42.68335363861115) rotate(90.684351531919 25.4296875 23.859375)"><path d="M33.89 1.6 C38.94 3, 45.39 7.3, 48.1 11.77 C50.82 16.24, 51.21 23.17, 50.21 28.44 C49.2 33.71, 46.46 40.14, 42.09 43.38 C37.72 46.62, 29.68 48.14, 24 47.89 C18.32 47.64, 11.87 45.19, 8.02 41.89 C4.17 38.59, 1.57 33.29, 0.9 28.08 C0.23 22.88, 1.17 15.14, 4.03 10.67 C6.88 6.2, 12.2 2.5, 18.04 1.26 C23.87 0.02, 34.97 2.25, 39.01 3.25 C43.05 4.25, 42.52 6.91, 42.27 7.24 M23.5 -0.83 C28.87 -1.31, 35 1.91, 39.55 5.08 C44.1 8.25, 49.09 13.33, 50.8 18.2 C52.5 23.07, 52.29 29.78, 49.76 34.29 C47.23 38.8, 40.82 42.97, 35.63 45.26 C30.44 47.54, 23.67 49.1, 18.63 48 C13.6 46.9, 8.55 43.12, 5.42 38.65 C2.3 34.19, -0.21 26.61, -0.12 21.22 C-0.03 15.83, 2.25 9.7, 5.97 6.33 C9.68 2.95, 19.29 2.09, 22.16 0.99 C25.03 -0.11, 23.16 -0.47, 23.17 -0.27" stroke="none" stroke-width="0" fill="#a5d8ff"></path><path d="M26.2 0.88 C31.16 0.94, 37.63 2.98, 41.65 6.34 C45.66 9.7, 49.43 16.06, 50.29 21.04 C51.15 26.02, 49.66 32.05, 46.81 36.22 C43.95 40.4, 38.42 44.59, 33.16 46.1 C27.9 47.62, 20.39 47.3, 15.26 45.32 C10.13 43.34, 4.78 38.65, 2.39 34.2 C0 29.74, -0.34 23.54, 0.9 18.6 C2.15 13.65, 5.11 7.46, 9.85 4.55 C14.6 1.64, 25.57 1.54, 29.37 1.11 C33.17 0.67, 32.64 1.63, 32.64 1.95 M23.76 0.69 C28.97 -0.06, 36.99 0.43, 41.15 3.32 C45.32 6.22, 47.75 12.96, 48.77 18.06 C49.8 23.15, 49.3 29.16, 47.32 33.91 C45.34 38.66, 41.73 44.52, 36.89 46.53 C32.05 48.54, 23.54 47.41, 18.25 45.97 C12.96 44.53, 8.01 41.87, 5.16 37.9 C2.3 33.92, 0.59 27.4, 1.12 22.13 C1.65 16.87, 4.82 10.23, 8.34 6.31 C11.86 2.4, 19.91 -0.58, 22.25 -1.36 C24.58 -2.14, 22.31 1.21, 22.37 1.64" stroke="#1e1e1e" stroke-width="2" fill="none"></path></g></svg>