<svg version="1.1" xmlns="http://www.w3.org/2000/svg" viewBox="0 0 108.08725249304916 127.12357954545587" width="108.08725249304916" height="127.12357954545587">
  <!-- svg-source:excalidraw -->
  
  <defs>
    <style class="style-fonts">
      @font-face {
        font-family: "Virgil";
        src: url("https://excalidraw.com/Virgil.woff2");
      }
      @font-face {
        font-family: "Cascadia";
        src: url("https://excalidraw.com/Cascadia.woff2");
      }
      @font-face {
        font-family: "Assistant";
        src: url("https://excalidraw.com/Assistant-Regular.woff2");
      }
    </style>
    
  </defs>
  <g stroke-linecap="round" transform="translate(12.825533743049164 24.53466585498063) rotate(0 42.630859375 38.322265625)"><path d="M19.16 0 C32.68 -1.48, 55.74 -1.34, 66.1 0 C75.86 1.76, 85.51 9.08, 85.26 19.16 C85.02 30.57, 82.74 38.99, 85.26 57.48 C84.72 73.17, 81.99 73.8, 66.1 76.64 C53.39 79.17, 37.3 74.07, 19.16 76.64 C8.91 76.71, 1.18 69.37, 0 57.48 C-1.66 43.76, -4.02 29.03, 0 19.16 C2.44 4.02, 6.71 2.75, 19.16 0" stroke="none" stroke-width="0" fill="#228be6"></path><path d="M19.16 0 C31.86 0.67, 48.55 1.26, 66.1 0 M19.16 0 C33.8 -0.05, 49.81 -0.49, 66.1 0 M66.1 0 C80.86 1.49, 83.32 5.51, 85.26 19.16 M66.1 0 C80.9 0.03, 87.2 7.1, 85.26 19.16 M85.26 19.16 C86.2 32.86, 85.7 46.37, 85.26 57.48 M85.26 19.16 C84.27 29.1, 85.75 38.83, 85.26 57.48 M85.26 57.48 C84.95 71.97, 78.98 76.64, 66.1 76.64 M85.26 57.48 C86.04 69.84, 79.07 77.57, 66.1 76.64 M66.1 76.64 C54.21 77.27, 45.33 77.73, 19.16 76.64 M66.1 76.64 C51.99 76.17, 38.27 76.15, 19.16 76.64 M19.16 76.64 C4.94 77.27, -0.3 70.15, 0 57.48 M19.16 76.64 C5.44 75.44, 1.69 69.28, 0 57.48 M0 57.48 C-0.34 45.56, -1.15 32.61, 0 19.16 M0 57.48 C-1.11 44.74, -1.09 31.45, 0 19.16 M0 19.16 C0.88 7.82, 5.52 -1.26, 19.16 0 M0 19.16 C0.8 6.86, 7.97 0.46, 19.16 0" stroke="#1e1e1e" stroke-width="2" fill="none"></path></g><g stroke-linecap="round" transform="translate(36.694526404033695 102.14701704545587) rotate(0 19.283203125 7.48828125)"><path d="M3.74 0 C13.03 -1.11, 16.44 1.49, 34.82 0 C37.5 1.95, 37.67 0.99, 38.57 3.74 C37.9 5.22, 38.42 7.78, 38.57 11.23 C40.81 11.68, 37.79 13.46, 34.82 14.98 C25.81 13.3, 17.09 15.3, 3.74 14.98 C2.1 14.34, 0.95 16.13, 0 11.23 C-0.89 8.13, 0.69 5.84, 0 3.74 C0.23 3.23, 2.99 2.03, 3.74 0" stroke="none" stroke-width="0" fill="#868e96"></path><path d="M3.74 0 C13.14 0.56, 21.93 0.94, 34.82 0 M3.74 0 C14.08 -0.2, 24.34 0.36, 34.82 0 M34.82 0 C36.35 -0.44, 39.45 1.26, 38.57 3.74 M34.82 0 C38.29 0.36, 38.96 1.69, 38.57 3.74 M38.57 3.74 C38.63 6.26, 38.43 7.89, 38.57 11.23 M38.57 3.74 C38.69 6.19, 38.51 8.89, 38.57 11.23 M38.57 11.23 C38.62 13.72, 37.66 14.79, 34.82 14.98 M38.57 11.23 C38.66 14.19, 36.33 14.65, 34.82 14.98 M34.82 14.98 C22.5 15.34, 10.76 14.58, 3.74 14.98 M34.82 14.98 C25.09 14.65, 15.61 15.06, 3.74 14.98 M3.74 14.98 C1.1 14.92, -0.41 13.21, 0 11.23 M3.74 14.98 C2.09 14.49, 0.4 13.66, 0 11.23 M0 11.23 C-0.21 8.89, 0.16 6.54, 0 3.74 M0 11.23 C-0.12 9.47, 0.11 7.83, 0 3.74 M0 3.74 C-0.44 0.62, 1.6 0.21, 3.74 0 M0 3.74 C0.79 1.48, 1.97 -0.55, 3.74 0" stroke="#1e1e1e" stroke-width="2" fill="none"></path></g><g stroke-linecap="round" transform="translate(36.88039879986718 10) rotate(0 19.283203125 7.48828125)"><path d="M3.74 0 C9.17 1.48, 19.14 2.15, 34.82 0 C36.43 -0.26, 36.41 1.12, 38.57 3.74 C38.35 7.03, 39.34 7.98, 38.57 11.23 C39.04 12.21, 37.7 16.58, 34.82 14.98 C25.25 14.72, 12.87 14.04, 3.74 14.98 C2.2 17.38, 0.46 12.99, 0 11.23 C0.75 8.52, 0.18 7.83, 0 3.74 C1.74 3.28, 2.95 1.68, 3.74 0" stroke="none" stroke-width="0" fill="#868e96"></path><path d="M3.74 0 C14.24 0.89, 24.56 -0.49, 34.82 0 M3.74 0 C13.74 0.43, 22.25 -0.16, 34.82 0 M34.82 0 C38.2 0.02, 39.41 1.56, 38.57 3.74 M34.82 0 C37.71 0.45, 38.51 1.7, 38.57 3.74 M38.57 3.74 C38.42 6.04, 38.69 8.64, 38.57 11.23 M38.57 3.74 C38.57 6.14, 38.61 8.21, 38.57 11.23 M38.57 11.23 C38.9 13.55, 37.4 15.38, 34.82 14.98 M38.57 11.23 C37.58 13.4, 38.3 13.92, 34.82 14.98 M34.82 14.98 C25.06 14.62, 15.52 14.53, 3.74 14.98 M34.82 14.98 C26.66 15.05, 19.15 14.87, 3.74 14.98 M3.74 14.98 C0.84 14.45, 0.74 13.3, 0 11.23 M3.74 14.98 C1.65 14.91, 0.38 13.52, 0 11.23 M0 11.23 C0.17 8.94, -0.22 5.75, 0 3.74 M0 11.23 C0.11 8.91, -0.05 6.2, 0 3.74 M0 3.74 C0.35 1.45, 1.93 0.2, 3.74 0 M0 3.74 C0.72 0.7, 0.55 -1.11, 3.74 0" stroke="#343a40" stroke-width="2" fill="none"></path></g><g stroke-linecap="round" transform="translate(13.186373760761398 24.156708609440102) rotate(47.524435689906944 13.974609375 10.47265625)"><path d="M5.24 0 C9.8 2.2, 12.84 -0.47, 22.71 0 C23.22 -0.17, 29.18 -0.71, 27.95 5.24 C29.55 6.73, 28.26 10.11, 27.95 15.71 C28.47 21.42, 28.61 22, 22.71 20.95 C19.81 20.18, 15.99 23.86, 5.24 20.95 C2.38 19.92, -0.83 15.82, 0 15.71 C0.04 14.78, 1.13 12.45, 0 5.24 C2.36 4.07, -1.14 0.18, 5.24 0" stroke="none" stroke-width="0" fill="#a5d8ff"></path><path d="M5.24 0 C11.95 -0.87, 17.94 0.82, 22.71 0 M5.24 0 C8.97 -0.51, 15.17 -0.12, 22.71 0 M22.71 0 C27.89 0.62, 28.63 2.52, 27.95 5.24 M22.71 0 C26.1 0.91, 28.98 2.08, 27.95 5.24 M27.95 5.24 C28.25 8.48, 27.89 14.01, 27.95 15.71 M27.95 5.24 C27.96 8.12, 28.11 10.91, 27.95 15.71 M27.95 15.71 C28.12 20, 24.48 20.37, 22.71 20.95 M27.95 15.71 C29.92 17.08, 26.46 20.15, 22.71 20.95 M22.71 20.95 C16.93 20, 10.17 19.82, 5.24 20.95 M22.71 20.95 C18.23 20.95, 13.64 20.54, 5.24 20.95 M5.24 20.95 C3.22 20.09, 0.7 19.09, 0 15.71 M5.24 20.95 C2.51 20.53, 1.06 17.86, 0 15.71 M0 15.71 C-0.71 11.3, 0.25 7.75, 0 5.24 M0 15.71 C-0.27 12.22, 0.14 9.51, 0 5.24 M0 5.24 C1.37 2.14, 2.99 -0.95, 5.24 0 M0 5.24 C-1.4 -0.48, 0.47 1.63, 5.24 0" stroke="#1e1e1e" stroke-width="2" fill="none"></path></g><g stroke-linecap="round" transform="translate(28.10504480902 38.92300118694402) rotate(47.524435689906944 25.4296875 23.859375)"><path d="M29.07 0.74 C34.33 1.3, 41.66 5.49, 45.19 9.18 C48.71 12.87, 50.2 18.03, 50.22 22.88 C50.24 27.73, 48.68 34.12, 45.32 38.27 C41.95 42.42, 35.33 46.78, 30.04 47.77 C24.76 48.75, 18.44 46.71, 13.6 44.18 C8.75 41.64, 2.96 37.14, 0.97 32.54 C-1.02 27.93, -0.29 21.33, 1.67 16.55 C3.64 11.78, 7.54 6.57, 12.75 3.91 C17.95 1.25, 29.08 0.83, 32.91 0.59 C36.74 0.35, 35.67 2.06, 35.73 2.45 M16.22 1.55 C20.67 -0.93, 27.26 -1.9, 32.3 -0.32 C37.33 1.26, 43.54 6.63, 46.44 11.03 C49.34 15.44, 50.29 20.94, 49.7 26.14 C49.1 31.34, 46.4 38.85, 42.86 42.24 C39.33 45.63, 33.85 46.47, 28.49 46.48 C23.14 46.48, 15.33 44.94, 10.75 42.28 C6.16 39.63, 2.17 35.29, 0.97 30.55 C-0.22 25.81, 1.41 18.41, 3.58 13.83 C5.75 9.26, 12.01 4.92, 13.97 3.11 C15.93 1.3, 15.03 2.71, 15.33 2.99" stroke="none" stroke-width="0" fill="#a5d8ff"></path><path d="M33.27 -0.02 C38.32 1.02, 43.22 6.92, 46.12 11.47 C49.03 16.02, 51.19 22.29, 50.73 27.28 C50.26 32.28, 47.21 38.03, 43.34 41.42 C39.47 44.81, 32.92 47.27, 27.5 47.62 C22.08 47.98, 15.24 46.44, 10.8 43.56 C6.36 40.68, 2.31 35.51, 0.88 30.35 C-0.55 25.18, -0.22 17.4, 2.21 12.57 C4.65 7.73, 9.96 2.97, 15.5 1.32 C21.04 -0.32, 31.75 2.35, 35.46 2.72 C39.17 3.08, 37.8 3.28, 37.78 3.53 M25.5 0.6 C30.37 0.26, 36.07 2.17, 40.44 5.12 C44.82 8.06, 50.55 13.26, 51.75 18.28 C52.95 23.3, 50.49 30.59, 47.65 35.23 C44.8 39.87, 39.94 44.26, 34.69 46.11 C29.45 47.97, 21.5 48.18, 16.17 46.35 C10.83 44.51, 5.47 39.66, 2.69 35.1 C-0.09 30.54, -1.4 23.84, -0.53 19.01 C0.35 14.17, 3.68 9.26, 7.95 6.08 C12.23 2.9, 22.35 0.98, 25.15 -0.08 C27.95 -1.15, 24.54 -0.61, 24.76 -0.31" stroke="#1e1e1e" stroke-width="2" fill="none"></path></g></svg>