<svg version="1.1" xmlns="http://www.w3.org/2000/svg" viewBox="0 0 107.36794445733494 127.12357954545587" width="107.36794445733494" height="127.12357954545587">
  <!-- svg-source:excalidraw -->
  
  <defs>
    <style class="style-fonts">
      @font-face {
        font-family: "Virgil";
        src: url("https://excalidraw.com/Virgil.woff2");
      }
      @font-face {
        font-family: "Cascadia";
        src: url("https://excalidraw.com/Cascadia.woff2");
      }
      @font-face {
        font-family: "Assistant";
        src: url("https://excalidraw.com/Assistant-Regular.woff2");
      }
    </style>
    
  </defs>
  <g stroke-linecap="round" transform="translate(10 24.22216585498063) rotate(0 42.630859375 38.322265625)"><path d="M19.16 0 C39.17 2.33, 56.51 2.28, 66.1 0 C81.19 -2.88, 85.44 4.17, 85.26 19.16 C85.06 30.05, 83.11 44.13, 85.26 57.48 C84.47 72.24, 80.38 74.48, 66.1 76.64 C53.38 77.4, 40.1 80.23, 19.16 76.64 C9.97 78.24, -1.3 68.2, 0 57.48 C2.41 50.7, 2.15 40.82, 0 19.16 C0.62 9.51, 4.66 2.41, 19.16 0" stroke="none" stroke-width="0" fill="#228be6"></path><path d="M19.16 0 C35.63 -1.76, 49.91 1.67, 66.1 0 M19.16 0 C29.26 0.06, 38.26 0.19, 66.1 0 M66.1 0 C77.88 -0.98, 84.06 5.37, 85.26 19.16 M66.1 0 C77.21 0.72, 84.92 6.26, 85.26 19.16 M85.26 19.16 C84.21 29.78, 84.95 39.67, 85.26 57.48 M85.26 19.16 C85.84 30.37, 86.23 40.14, 85.26 57.48 M85.26 57.48 C83.66 70.82, 77.29 76.67, 66.1 76.64 M85.26 57.48 C86.27 71.9, 77.87 75.19, 66.1 76.64 M66.1 76.64 C50.78 78.21, 33.7 75.75, 19.16 76.64 M66.1 76.64 C56.05 76.14, 47.53 77.05, 19.16 76.64 M19.16 76.64 C7.88 75.96, -0.2 68.6, 0 57.48 M19.16 76.64 C6.28 77.43, -1.57 69.91, 0 57.48 M0 57.48 C-1.89 46.92, -1.48 35.93, 0 19.16 M0 57.48 C-1.01 44.33, -0.24 30.09, 0 19.16 M0 19.16 C-0.49 7.12, 8.24 0.35, 19.16 0 M0 19.16 C-0.65 5.85, 4.23 -1.71, 19.16 0" stroke="#1e1e1e" stroke-width="2" fill="none"></path></g><g stroke-linecap="round" transform="translate(33.868992660984986 102.14701704545587) rotate(0 19.283203125 7.48828125)"><path d="M3.74 0 C15.38 1.43, 24.63 -2.35, 34.82 0 C37.45 -1.6, 40.18 1.94, 38.57 3.74 C37.92 5.52, 38.34 9.32, 38.57 11.23 C39.65 12.16, 36.34 14.39, 34.82 14.98 C21.67 17.01, 13.06 16.13, 3.74 14.98 C0.31 13.49, -1.9 15.03, 0 11.23 C0.6 9.83, 0.09 8.87, 0 3.74 C-1.24 2.99, 0.02 -0.96, 3.74 0" stroke="none" stroke-width="0" fill="#868e96"></path><path d="M3.74 0 C13.04 0.99, 21.98 0.24, 34.82 0 M3.74 0 C11.79 0.03, 20 -0.23, 34.82 0 M34.82 0 C36.72 -0.51, 37.84 1.56, 38.57 3.74 M34.82 0 C37.15 -0.06, 38.09 0.65, 38.57 3.74 M38.57 3.74 C38.53 6.67, 38.48 9.51, 38.57 11.23 M38.57 3.74 C38.73 5.43, 38.43 7.42, 38.57 11.23 M38.57 11.23 C37.78 13.74, 37.76 15.69, 34.82 14.98 M38.57 11.23 C38.07 13, 37.72 15.21, 34.82 14.98 M34.82 14.98 C22.89 14.47, 10.94 14.52, 3.74 14.98 M34.82 14.98 C23.54 14.88, 12.14 14.67, 3.74 14.98 M3.74 14.98 C1.15 14.15, -0.05 14.07, 0 11.23 M3.74 14.98 C0.46 14.8, -0.17 14.66, 0 11.23 M0 11.23 C-0.19 8.39, 0.26 5.69, 0 3.74 M0 11.23 C0.03 8.83, -0.02 6.37, 0 3.74 M0 3.74 C0.92 1.42, 0.96 -0.23, 3.74 0 M0 3.74 C-1.08 0.4, 2.03 -0.76, 3.74 0" stroke="#1e1e1e" stroke-width="2" fill="none"></path></g><g stroke-linecap="round" transform="translate(34.05486505681802 10) rotate(0 19.283203125 7.48828125)"><path d="M3.74 0 C16.82 -2.35, 26.67 -1.86, 34.82 0 C38.93 0.69, 39.52 0.97, 38.57 3.74 C38.29 5.91, 38.91 6.41, 38.57 11.23 C37.59 13.14, 39.7 14.69, 34.82 14.98 C28.1 16.44, 15.27 13.81, 3.74 14.98 C-0.65 16.28, -2.23 15.72, 0 11.23 C0.1 9.43, -0.53 6.59, 0 3.74 C-1.23 0.29, 2.48 -2.22, 3.74 0" stroke="none" stroke-width="0" fill="#868e96"></path><path d="M3.74 0 C9.47 -0.02, 16.7 0.21, 34.82 0 M3.74 0 C12.51 -0.25, 21.47 -0.26, 34.82 0 M34.82 0 C36.59 0.31, 38.42 1.19, 38.57 3.74 M34.82 0 C36.85 -0.6, 39.41 0.76, 38.57 3.74 M38.57 3.74 C38.5 6.43, 38.35 8.92, 38.57 11.23 M38.57 3.74 C38.45 6.34, 38.45 8.84, 38.57 11.23 M38.57 11.23 C39.01 14.44, 36.88 14.35, 34.82 14.98 M38.57 11.23 C38.97 13.96, 38.11 15.2, 34.82 14.98 M34.82 14.98 C22.59 14.33, 13.01 14.37, 3.74 14.98 M34.82 14.98 C28.47 14.82, 21.33 14.57, 3.74 14.98 M3.74 14.98 C1.2 15.32, -0.68 13.58, 0 11.23 M3.74 14.98 C1.08 15.91, 0.99 12.82, 0 11.23 M0 11.23 C0.25 9.1, 0.13 6.19, 0 3.74 M0 11.23 C-0.05 8.53, 0.17 5.72, 0 3.74 M0 3.74 C-0.28 1.02, 0.31 -0.74, 3.74 0 M0 3.74 C0.78 0.49, 1.35 0.88, 3.74 0" stroke="#343a40" stroke-width="2" fill="none"></path></g><g stroke-linecap="round" transform="translate(66.23235194657354 79.23082182887447) rotate(47.524435689906944 13.974609375 10.47265625)"><path d="M5.24 0 C11.78 -1.68, 19.96 1.09, 22.71 0 C27.53 -0.38, 24.97 -0.59, 27.95 5.24 C28.69 6.44, 27.2 9.49, 27.95 15.71 C31.25 18.8, 26.19 19.58, 22.71 20.95 C14.97 19.29, 7.2 22.66, 5.24 20.95 C-1.35 23.7, 1.91 21.7, 0 15.71 C-0.93 13.62, -0.93 8.31, 0 5.24 C1.71 -1.32, 2.39 1.57, 5.24 0" stroke="none" stroke-width="0" fill="#a5d8ff"></path><path d="M5.24 0 C11.37 0.58, 18.54 -0.74, 22.71 0 M5.24 0 C10.01 -0.36, 15.21 0.36, 22.71 0 M22.71 0 C25.9 -0.11, 27.13 0.7, 27.95 5.24 M22.71 0 C27.9 -0.98, 28.76 1.62, 27.95 5.24 M27.95 5.24 C27.32 9.15, 28.35 13.05, 27.95 15.71 M27.95 5.24 C27.45 7.71, 28.1 10.55, 27.95 15.71 M27.95 15.71 C27.08 17.94, 26.9 21.36, 22.71 20.95 M27.95 15.71 C29.53 19.66, 27.64 19.85, 22.71 20.95 M22.71 20.95 C19.77 19.95, 12.88 21.7, 5.24 20.95 M22.71 20.95 C17.26 20.16, 11.94 21.18, 5.24 20.95 M5.24 20.95 C0.38 20.65, -0.3 20.82, 0 15.71 M5.24 20.95 C3.73 19.13, 0.42 17.86, 0 15.71 M0 15.71 C0.24 11.63, 0.67 9.14, 0 5.24 M0 15.71 C0.51 12.32, -0.12 8.62, 0 5.24 M0 5.24 C-1.88 0.26, 3.1 -1.31, 5.24 0 M0 5.24 C0.21 3.5, 3.28 1.8, 5.24 0" stroke="#1e1e1e" stroke-width="2" fill="none"></path></g><g stroke-linecap="round" transform="translate(28.403524648314487 38.00359175137055) rotate(47.524435689906944 25.4296875 23.859375)"><path d="M35.5 2.34 C40.57 4.18, 46.58 9.88, 49.05 14.36 C51.52 18.83, 51.69 24.36, 50.31 29.19 C48.94 34.03, 45.24 40.34, 40.8 43.37 C36.35 46.4, 29.13 47.66, 23.64 47.39 C18.16 47.12, 11.78 45.33, 7.88 41.72 C3.99 38.11, 0.88 31.15, 0.28 25.75 C-0.31 20.35, 1.35 13.35, 4.31 9.31 C7.26 5.27, 12.06 2.26, 18.01 1.52 C23.96 0.77, 35.52 3.58, 40.01 4.85 C44.5 6.12, 44.97 8.72, 44.95 9.14 M32.56 2.16 C37.84 3.48, 44.52 7.94, 47.5 11.93 C50.48 15.93, 51.45 21.35, 50.42 26.13 C49.39 30.9, 45.43 36.83, 41.32 40.57 C37.21 44.3, 30.96 48.36, 25.78 48.54 C20.6 48.72, 14.54 45.01, 10.24 41.64 C5.93 38.26, 0.92 33.18, -0.05 28.29 C-1.01 23.41, 1.76 16.86, 4.45 12.32 C7.14 7.79, 11.05 2.7, 16.09 1.1 C21.12 -0.5, 31.67 2.71, 34.65 2.72 C37.64 2.73, 34.46 1.19, 33.98 1.14" stroke="none" stroke-width="0" fill="#a5d8ff"></path><path d="M19.74 -0.1 C24.65 -1.43, 32 -0.38, 36.94 2.11 C41.88 4.6, 47.25 10.05, 49.35 14.85 C51.45 19.65, 51.37 25.9, 49.53 30.9 C47.69 35.91, 43 42.05, 38.31 44.87 C33.61 47.7, 26.69 48.62, 21.37 47.83 C16.06 47.03, 10.01 43.89, 6.42 40.09 C2.83 36.3, 0.09 30.16, -0.17 25.07 C-0.43 19.97, 0.79 13.55, 4.86 9.51 C8.94 5.47, 20.62 2.46, 24.29 0.83 C27.97 -0.79, 26.9 -0.37, 26.9 -0.24 M24.92 -0.95 C30.07 -1.35, 37.97 2.46, 42.41 5.98 C46.84 9.49, 50.54 15.27, 51.53 20.14 C52.51 25.01, 51.39 31.07, 48.32 35.19 C45.24 39.31, 38.51 42.85, 33.08 44.87 C27.66 46.89, 20.86 49.04, 15.77 47.3 C10.68 45.56, 5 39.02, 2.57 34.42 C0.13 29.82, -0.15 24.6, 1.14 19.69 C2.44 14.78, 6.27 8.47, 10.31 4.98 C14.36 1.49, 22.89 -0.58, 25.42 -1.24 C27.95 -1.91, 25.64 0.42, 25.5 0.99" stroke="#1e1e1e" stroke-width="2" fill="none"></path></g></svg>