<svg version="1.1" xmlns="http://www.w3.org/2000/svg" viewBox="0 0 106.88189535019183 127.12357954545587" width="106.88189535019183" height="127.12357954545587">
  <!-- svg-source:excalidraw -->
  
  <defs>
    <style class="style-fonts">
      @font-face {
        font-family: "Virgil";
        src: url("https://excalidraw.com/Virgil.woff2");
      }
      @font-face {
        font-family: "Cascadia";
        src: url("https://excalidraw.com/Cascadia.woff2");
      }
      @font-face {
        font-family: "Assistant";
        src: url("https://excalidraw.com/Assistant-Regular.woff2");
      }
    </style>
    
  </defs>
  <g stroke-linecap="round" transform="translate(10 24.852746212123748) rotate(0 42.630859375 38.322265625)"><path d="M19.16 0 C32.71 1.07, 51.9 2.46, 66.1 0 C76.57 -2.89, 86.28 3.54, 85.26 19.16 C84 28.43, 86.82 42.98, 85.26 57.48 C87.73 70.97, 81.12 74.93, 66.1 76.64 C57.42 74.33, 40.62 77.94, 19.16 76.64 C6.64 79.34, -1.24 69.9, 0 57.48 C-2.42 48.63, -0.51 43.75, 0 19.16 C3.11 3.54, 7.04 -2.1, 19.16 0" stroke="none" stroke-width="0" fill="#228be6"></path><path d="M19.16 0 C28.46 -1.62, 42.35 -1.67, 66.1 0 M19.16 0 C31.56 1.35, 45.96 0.75, 66.1 0 M66.1 0 C80.44 1.3, 85.6 5.98, 85.26 19.16 M66.1 0 C79.64 -0.37, 85.36 5.04, 85.26 19.16 M85.26 19.16 C85.77 31.46, 85.37 43.31, 85.26 57.48 M85.26 19.16 C85.67 31.18, 86.1 44.69, 85.26 57.48 M85.26 57.48 C83.32 69.38, 80.63 76.67, 66.1 76.64 M85.26 57.48 C87.2 70.97, 79.66 77.54, 66.1 76.64 M66.1 76.64 C52.52 78.45, 37.56 75.35, 19.16 76.64 M66.1 76.64 C51.26 76.39, 34.71 77.49, 19.16 76.64 M19.16 76.64 C6.49 76.64, 0.67 69.89, 0 57.48 M19.16 76.64 C6.58 77.57, -1.98 69.59, 0 57.48 M0 57.48 C-0.33 43.39, 0.15 27.11, 0 19.16 M0 57.48 C-0.41 45.35, -0.53 34.55, 0 19.16 M0 19.16 C-0.3 6.28, 5.56 -1.04, 19.16 0 M0 19.16 C1.69 5.41, 7.2 -0.13, 19.16 0" stroke="#1e1e1e" stroke-width="2" fill="none"></path></g><g stroke-linecap="round" transform="translate(33.86899266098453 102.14701704545587) rotate(0 19.283203125 7.48828125)"><path d="M3.74 0 C15.53 1.89, 23.58 -2.25, 34.82 0 C38.05 -2.05, 38.6 2.39, 38.57 3.74 C38.86 6.73, 39.19 9.5, 38.57 11.23 C40.19 12.49, 35.74 12.46, 34.82 14.98 C25.04 16.04, 19.79 16.71, 3.74 14.98 C0.36 14.72, -2.16 13.6, 0 11.23 C-0.08 9.52, 0.91 5.46, 0 3.74 C0.47 -0.27, 1.63 1.6, 3.74 0" stroke="none" stroke-width="0" fill="#868e96"></path><path d="M3.74 0 C12.06 -0.81, 19.11 0.13, 34.82 0 M3.74 0 C10.55 0.03, 17.58 0.18, 34.82 0 M34.82 0 C37.49 -0.2, 38.9 1.09, 38.57 3.74 M34.82 0 C37.37 -0.67, 38.44 0.33, 38.57 3.74 M38.57 3.74 C38.66 6.59, 38.67 8.55, 38.57 11.23 M38.57 3.74 C38.77 6.17, 38.41 8.24, 38.57 11.23 M38.57 11.23 C39.45 13.74, 38.16 15.29, 34.82 14.98 M38.57 11.23 C38.96 14.18, 37.27 15.43, 34.82 14.98 M34.82 14.98 C23.71 14.35, 13.73 14.4, 3.74 14.98 M34.82 14.98 C25.48 15.37, 16.33 14.94, 3.74 14.98 M3.74 14.98 C1.59 14.79, 0.08 14.13, 0 11.23 M3.74 14.98 C0.26 14.65, 0.98 12.67, 0 11.23 M0 11.23 C-0.02 8.75, 0.03 6.39, 0 3.74 M0 11.23 C-0.11 9.41, -0.01 7.46, 0 3.74 M0 3.74 C-0.41 0.73, 1.98 -0.43, 3.74 0 M0 3.74 C0.4 1.18, 1.63 -0.21, 3.74 0" stroke="#1e1e1e" stroke-width="2" fill="none"></path></g><g stroke-linecap="round" transform="translate(34.05486505681802 10) rotate(0 19.283203125 7.48828125)"><path d="M3.74 0 C12.66 -2.41, 25.65 -2.37, 34.82 0 C37.35 1.15, 40.43 0.12, 38.57 3.74 C39.27 5.71, 39.21 6.83, 38.57 11.23 C36.99 11.21, 35.88 16.82, 34.82 14.98 C27.28 17.12, 18.48 14.91, 3.74 14.98 C-0.91 14.85, 0.89 11.96, 0 11.23 C0.86 8.33, 0.19 6.4, 0 3.74 C0.38 2.85, 2.99 0.76, 3.74 0" stroke="none" stroke-width="0" fill="#868e96"></path><path d="M3.74 0 C10.03 0.14, 15.8 -0.77, 34.82 0 M3.74 0 C16.44 0.27, 28.44 -0.16, 34.82 0 M34.82 0 C37.65 -0.16, 38.61 0.66, 38.57 3.74 M34.82 0 C37.19 -0.91, 38.92 1.72, 38.57 3.74 M38.57 3.74 C38.66 6.3, 38.59 9.36, 38.57 11.23 M38.57 3.74 C38.42 5.62, 38.77 7.67, 38.57 11.23 M38.57 11.23 C39.41 14.04, 37.66 15.37, 34.82 14.98 M38.57 11.23 C38.51 14.18, 37.83 15.14, 34.82 14.98 M34.82 14.98 C23.34 14.16, 11.18 15.63, 3.74 14.98 M34.82 14.98 C26.29 15.11, 17.88 15.02, 3.74 14.98 M3.74 14.98 C1.33 15.38, -0.86 13.44, 0 11.23 M3.74 14.98 C2.23 13.92, 0.13 13.33, 0 11.23 M0 11.23 C0.02 8.54, -0.18 6, 0 3.74 M0 11.23 C0 9.36, -0.05 7.4, 0 3.74 M0 3.74 C0.74 0.82, 1.6 -0.06, 3.74 0 M0 3.74 C0.38 1.04, 1.78 -0.67, 3.74 0" stroke="#343a40" stroke-width="2" fill="none"></path></g><g stroke-linecap="round" transform="translate(65.74630283943043 23.860949680867634) rotate(312.47556431009303 13.974609375 10.47265625)"><path d="M5.24 0 C12.75 -2.23, 18.52 1.64, 22.71 0 C28.78 -1.57, 25.68 3, 27.95 5.24 C29.25 7.69, 26.94 10.12, 27.95 15.71 C25.96 21.76, 24.35 17.93, 22.71 20.95 C15.54 20.87, 7.91 21.03, 5.24 20.95 C2.97 18.49, -0.54 18.66, 0 15.71 C0.18 10.62, 0.11 8.9, 0 5.24 C2.41 2.8, -0.95 2.53, 5.24 0" stroke="none" stroke-width="0" fill="#a5d8ff"></path><path d="M5.24 0 C7.35 -1.61, 14.07 0.29, 22.71 0 M5.24 0 C11.25 -0.29, 17.25 -0.26, 22.71 0 M22.71 0 C26.29 -1.17, 27.73 0.15, 27.95 5.24 M22.71 0 C26.92 0.94, 29.34 2.22, 27.95 5.24 M27.95 5.24 C28.03 10, 27.58 14.63, 27.95 15.71 M27.95 5.24 C28.31 9.16, 28.29 13.24, 27.95 15.71 M27.95 15.71 C28.63 19.98, 26.11 21.73, 22.71 20.95 M27.95 15.71 C28.98 19.53, 28.04 20.02, 22.71 20.95 M22.71 20.95 C18.75 22.18, 14.43 20.55, 5.24 20.95 M22.71 20.95 C16.27 20.79, 9.3 21.3, 5.24 20.95 M5.24 20.95 C0.02 20.37, 1.71 17.36, 0 15.71 M5.24 20.95 C2 20.15, 0.79 18.97, 0 15.71 M0 15.71 C-0.52 12.37, -0.54 9.53, 0 5.24 M0 15.71 C-0.2 11.97, 0.4 8.55, 0 5.24 M0 5.24 C0.7 1.63, 2.41 -0.36, 5.24 0 M0 5.24 C1.06 0.4, 2.68 0.92, 5.24 0" stroke="#1e1e1e" stroke-width="2" fill="none"></path></g><g stroke-linecap="round" transform="translate(27.917475541171825 38.54130475837155) rotate(312.47556431009303 25.4296875 23.859375)"><path d="M26.73 -0.38 C31.98 -0.55, 38.95 2.49, 42.86 5.96 C46.77 9.42, 49.63 15.38, 50.19 20.41 C50.75 25.45, 49.06 31.83, 46.21 36.18 C43.37 40.54, 38.25 45.01, 33.11 46.55 C27.97 48.08, 20.52 47.25, 15.38 45.39 C10.23 43.52, 4.74 39.8, 2.22 35.37 C-0.3 30.94, -1.08 23.83, 0.24 18.78 C1.56 13.74, 5.53 8.13, 10.12 5.1 C14.72 2.07, 24.76 1.24, 27.83 0.58 C30.9 -0.08, 28.47 0.69, 28.52 1.14 M16.25 1.23 C21.37 -0.48, 30.33 1.03, 35.48 2.76 C40.63 4.49, 44.6 7.22, 47.16 11.59 C49.72 15.96, 51.68 23.78, 50.86 28.99 C50.04 34.21, 46.44 39.87, 42.23 42.87 C38.03 45.87, 31.39 47.43, 25.62 46.99 C19.85 46.55, 11.98 43.33, 7.61 40.23 C3.25 37.13, 0.21 33.41, -0.56 28.38 C-1.33 23.36, -0.11 14.59, 3.01 10.08 C6.14 5.57, 15.55 2.8, 18.16 1.31 C20.78 -0.17, 18.73 1, 18.71 1.15" stroke="none" stroke-width="0" fill="#a5d8ff"></path><path d="M28.2 0.25 C33.29 0.28, 39.41 3.68, 43.14 7.26 C46.87 10.84, 50.16 16.72, 50.59 21.73 C51.02 26.75, 48.94 33.12, 45.73 37.36 C42.52 41.61, 36.4 45.73, 31.31 47.19 C26.22 48.65, 19.96 48.16, 15.18 46.13 C10.4 44.1, 4.98 39.8, 2.63 35.01 C0.28 30.22, -0.29 22.39, 1.08 17.37 C2.44 12.36, 5.86 7.56, 10.82 4.93 C15.78 2.31, 26.75 2.25, 30.83 1.62 C34.9 0.98, 35.4 0.76, 35.29 1.13 M26.13 0.58 C31.09 0.34, 37.68 3.03, 41.85 6.29 C46.03 9.54, 50.06 15.27, 51.18 20.11 C52.29 24.95, 51.62 30.89, 48.56 35.34 C45.5 39.8, 38.33 45.02, 32.82 46.83 C27.31 48.64, 20.22 48.12, 15.5 46.19 C10.77 44.26, 7.02 39.49, 4.47 35.26 C1.92 31.03, -0.62 25.79, 0.19 20.83 C1 15.86, 4.99 8.98, 9.31 5.46 C13.63 1.94, 23.39 0.46, 26.13 -0.27 C28.87 -1, 26.04 0.71, 25.74 1.08" stroke="#1e1e1e" stroke-width="2" fill="none"></path></g></svg>