<svg version="1.1" xmlns="http://www.w3.org/2000/svg" viewBox="0 0 117.88881138392844 127.12357954545587" width="117.88881138392844" height="127.12357954545587">
  <!-- svg-source:excalidraw -->
  
  <defs>
    <style class="style-fonts">
      @font-face {
        font-family: "Virgil";
        src: url("https://excalidraw.com/Virgil.woff2");
      }
      @font-face {
        font-family: "Cascadia";
        src: url("https://excalidraw.com/Cascadia.woff2");
      }
      @font-face {
        font-family: "Assistant";
        src: url("https://excalidraw.com/Assistant-Regular.woff2");
      }
    </style>
    
  </defs>
  <g stroke-linecap="round" transform="translate(10 24.85274621212011) rotate(0 42.630859375 38.322265625)"><path d="M19.16 0 C29.65 -1.36, 38.64 2.78, 66.1 0 C77.34 1.26, 85.06 7.59, 85.26 19.16 C87.04 31.41, 88.42 38.48, 85.26 57.48 C82.37 71.28, 76.03 76.68, 66.1 76.64 C47.68 77.53, 34.54 78.75, 19.16 76.64 C7.1 78.89, -1.72 68.07, 0 57.48 C-1.47 46.69, 2.14 42.17, 0 19.16 C2.69 5.15, 6.03 -2.99, 19.16 0" stroke="none" stroke-width="0" fill="#228be6"></path><path d="M19.16 0 C32.46 0.18, 43.73 0.65, 66.1 0 M19.16 0 C31.52 -0.07, 44.67 -1.08, 66.1 0 M66.1 0 C77.02 1.11, 83.36 6.06, 85.26 19.16 M66.1 0 C78.85 -1.93, 83.14 8.59, 85.26 19.16 M85.26 19.16 C86.7 31.64, 84.99 44.1, 85.26 57.48 M85.26 19.16 C85.17 29.24, 85.59 41.32, 85.26 57.48 M85.26 57.48 C86.47 70.67, 80.85 77.11, 66.1 76.64 M85.26 57.48 C84.35 70.39, 80.18 75.77, 66.1 76.64 M66.1 76.64 C46.48 77.95, 28.64 77.87, 19.16 76.64 M66.1 76.64 C50.52 77.22, 35.47 76.97, 19.16 76.64 M19.16 76.64 C7.99 75.84, -1.51 70.91, 0 57.48 M19.16 76.64 C4.77 76.6, 1.78 69.69, 0 57.48 M0 57.48 C-0.34 47.25, -0.69 35.83, 0 19.16 M0 57.48 C1.19 43.53, 0.44 31.07, 0 19.16 M0 19.16 C0.69 6.19, 5.56 0.07, 19.16 0 M0 19.16 C-1.14 5.26, 5 -1.17, 19.16 0" stroke="#1e1e1e" stroke-width="2" fill="none"></path></g><g stroke-linecap="round" transform="translate(33.86899266098453 102.14701704545587) rotate(0 19.283203125 7.48828125)"><path d="M3.74 0 C11.24 2.08, 20.35 1.08, 34.82 0 C37.17 0.87, 38.1 2.44, 38.57 3.74 C39.38 4.93, 37.82 7.64, 38.57 11.23 C36.51 13.76, 38.46 16.84, 34.82 14.98 C27.39 16.9, 19.4 16.74, 3.74 14.98 C0.01 13.4, -2.52 12.29, 0 11.23 C0.53 8.52, 0.78 5.34, 0 3.74 C-0.26 -0.91, 1.12 0.89, 3.74 0" stroke="none" stroke-width="0" fill="#868e96"></path><path d="M3.74 0 C12.01 0.23, 19.7 -0.78, 34.82 0 M3.74 0 C14.21 -0.46, 24.72 0.26, 34.82 0 M34.82 0 C36.37 -0.16, 38.55 0.41, 38.57 3.74 M34.82 0 C36.26 1.1, 38.76 1.66, 38.57 3.74 M38.57 3.74 C38.51 6.7, 38.53 9.42, 38.57 11.23 M38.57 3.74 C38.62 5.63, 38.68 7.4, 38.57 11.23 M38.57 11.23 C39.55 13.96, 36.92 15.03, 34.82 14.98 M38.57 11.23 C39.22 13.29, 38.46 15.83, 34.82 14.98 M34.82 14.98 C28.53 15.96, 22.52 15.45, 3.74 14.98 M34.82 14.98 C24.51 15.11, 14.16 14.84, 3.74 14.98 M3.74 14.98 C0.49 15.3, -0.7 13.71, 0 11.23 M3.74 14.98 C2.14 14.69, -0.18 14.72, 0 11.23 M0 11.23 C-0.07 8.98, 0.15 6.34, 0 3.74 M0 11.23 C-0.01 9.14, 0.03 7.15, 0 3.74 M0 3.74 C-0.41 1.28, 0.75 -0.49, 3.74 0 M0 3.74 C-0.69 0.66, 0.42 0.36, 3.74 0" stroke="#1e1e1e" stroke-width="2" fill="none"></path></g><g stroke-linecap="round" transform="translate(34.05486505681802 10) rotate(0 19.283203125 7.48828125)"><path d="M3.74 0 C10.68 0.62, 19.69 0.57, 34.82 0 C36.85 1.19, 37.05 2.3, 38.57 3.74 C37.86 6.56, 37.87 8.85, 38.57 11.23 C39.71 15.59, 36.19 13.33, 34.82 14.98 C24.93 16.88, 12.77 13.68, 3.74 14.98 C-1.27 13.54, 1.85 12.39, 0 11.23 C0.68 9.28, -0.15 7.19, 0 3.74 C-0.13 2.13, -0.53 -0.39, 3.74 0" stroke="none" stroke-width="0" fill="#868e96"></path><path d="M3.74 0 C12.82 -0.81, 22.81 -0.68, 34.82 0 M3.74 0 C13.03 0.41, 22.76 0.05, 34.82 0 M34.82 0 C37.31 -0.84, 37.65 2.21, 38.57 3.74 M34.82 0 C37.51 0.41, 39.47 2, 38.57 3.74 M38.57 3.74 C38.5 6.14, 38.34 8.45, 38.57 11.23 M38.57 3.74 C38.69 5.43, 38.76 7.09, 38.57 11.23 M38.57 11.23 C38.17 13.78, 37.88 14.6, 34.82 14.98 M38.57 11.23 C39.71 14.58, 36.2 14.47, 34.82 14.98 M34.82 14.98 C23.08 15.45, 11.1 15.06, 3.74 14.98 M34.82 14.98 C24.68 14.8, 13.35 15.16, 3.74 14.98 M3.74 14.98 C0.54 14.96, 0.77 13.48, 0 11.23 M3.74 14.98 C1.07 15.96, 0.06 13.72, 0 11.23 M0 11.23 C0.16 8.41, -0.1 6.56, 0 3.74 M0 11.23 C0.06 9.66, -0.08 8.13, 0 3.74 M0 3.74 C-0.5 0.76, 0.65 -0.51, 3.74 0 M0 3.74 C-0.83 1.61, 1.08 -0.06, 3.74 0" stroke="#343a40" stroke-width="2" fill="none"></path></g><g stroke-linecap="round" transform="translate(79.93959263392844 52.35810673701417) rotate(0 13.974609375 10.47265625)"><path d="M5.24 0 C11.59 0.94, 17.73 1.33, 22.71 0 C24.1 1.46, 29.38 4.59, 27.95 5.24 C26.31 7.73, 28.63 11.53, 27.95 15.71 C26.38 16.93, 27.46 21.68, 22.71 20.95 C14.77 19.23, 6.78 19.4, 5.24 20.95 C4.3 19.09, -3.01 20.96, 0 15.71 C-0.33 10.93, -0.23 9.92, 0 5.24 C-2.46 1.21, 1.2 2.91, 5.24 0" stroke="none" stroke-width="0" fill="#a5d8ff"></path><path d="M5.24 0 C11.67 -1, 16.76 -0.74, 22.71 0 M5.24 0 C8.13 -0.24, 12.67 -0.83, 22.71 0 M22.71 0 C24.36 1.92, 28.28 2.45, 27.95 5.24 M22.71 0 C28 1.5, 28.34 1.27, 27.95 5.24 M27.95 5.24 C27.32 8.61, 27.1 12.54, 27.95 15.71 M27.95 5.24 C28.53 8.93, 27.8 12.4, 27.95 15.71 M27.95 15.71 C29.08 18.44, 28.19 22.43, 22.71 20.95 M27.95 15.71 C25.72 18.19, 28.23 20.98, 22.71 20.95 M22.71 20.95 C16.68 20.93, 9.97 21.79, 5.24 20.95 M22.71 20.95 C16.56 21.16, 11.11 20.86, 5.24 20.95 M5.24 20.95 C3.29 20.45, -0.31 20.92, 0 15.71 M5.24 20.95 C1.87 20.94, 0.78 18.78, 0 15.71 M0 15.71 C-0.34 13.38, -1.01 9.37, 0 5.24 M0 15.71 C-0.25 12.94, -0.3 9.89, 0 5.24 M0 5.24 C-1.2 0.73, 0.3 0.62, 5.24 0 M0 5.24 C-0.34 1.62, 0.8 -1.2, 5.24 0" stroke="#1e1e1e" stroke-width="2" fill="none"></path></g><g stroke-linecap="round" transform="translate(30.14076450892844 38.31904423701417) rotate(0 25.4296875 23.859375)"><path d="M25.91 0.09 C31.16 -0.29, 38.61 1.61, 42.68 5.13 C46.74 8.64, 49.71 15.97, 50.29 21.19 C50.88 26.4, 49.05 32.16, 46.19 36.43 C43.34 40.71, 38.19 45.29, 33.16 46.83 C28.13 48.36, 21.02 47.66, 16.01 45.65 C11.01 43.64, 5.78 39.27, 3.12 34.75 C0.45 30.23, -0.98 23.55, 0.02 18.5 C1.02 13.46, 3.79 7.46, 9.09 4.46 C14.38 1.47, 27.26 0.87, 31.8 0.54 C36.34 0.2, 36.57 1.91, 36.33 2.45 M20.55 0.27 C25.56 -1.19, 33.13 -0.65, 37.97 1.87 C42.81 4.4, 47.43 10.71, 49.58 15.43 C51.72 20.15, 52.8 25.34, 50.83 30.18 C48.87 35.02, 42.79 41.58, 37.79 44.47 C32.78 47.36, 25.89 48.1, 20.8 47.52 C15.72 46.93, 10.83 44.91, 7.26 40.97 C3.69 37.02, -0.4 29.07, -0.63 23.84 C-0.87 18.6, 2.24 13.39, 5.85 9.55 C9.47 5.72, 18.54 2.38, 21.07 0.84 C23.61 -0.7, 21.32 0.2, 21.09 0.29" stroke="none" stroke-width="0" fill="#a5d8ff"></path><path d="M19.67 -0.21 C24.73 -1.55, 31.59 0.12, 36.27 2.33 C40.95 4.55, 45.32 8.41, 47.76 13.09 C50.19 17.78, 52.15 25.25, 50.88 30.45 C49.61 35.66, 44.69 41.45, 40.14 44.33 C35.59 47.22, 29.1 48.35, 23.59 47.78 C18.07 47.2, 10.99 44.55, 7.05 40.88 C3.1 37.2, 0.39 30.89, -0.09 25.72 C-0.57 20.55, 0.63 14.05, 4.17 9.85 C7.72 5.65, 17.67 1.99, 21.2 0.53 C24.72 -0.93, 25.11 0.58, 25.33 1.09 M29.24 -0.41 C34.77 0.03, 42.07 4.9, 45.43 8.61 C48.78 12.32, 49.08 16.91, 49.36 21.83 C49.65 26.75, 49.94 33.85, 47.14 38.14 C44.34 42.43, 37.98 46.28, 32.54 47.54 C27.11 48.81, 19.61 48.03, 14.52 45.76 C9.43 43.48, 4.14 38.64, 2.01 33.89 C-0.12 29.13, -0.03 22.31, 1.74 17.22 C3.52 12.12, 8.41 6.08, 12.67 3.32 C16.92 0.55, 24.83 1.11, 27.27 0.65 C29.7 0.2, 26.95 0.36, 27.28 0.61" stroke="#1e1e1e" stroke-width="2" fill="none"></path></g></svg>