<svg version="1.1" xmlns="http://www.w3.org/2000/svg" viewBox="0 0 106.94327927876338 127.12357954545587" width="106.94327927876338" height="127.12357954545587">
  <!-- svg-source:excalidraw -->
  
  <defs>
    <style class="style-fonts">
      @font-face {
        font-family: "Virgil";
        src: url("https://excalidraw.com/Virgil.woff2");
      }
      @font-face {
        font-family: "Cascadia";
        src: url("https://excalidraw.com/Cascadia.woff2");
      }
      @font-face {
        font-family: "Assistant";
        src: url("https://excalidraw.com/Assistant-Regular.woff2");
      }
    </style>
    
  </defs>
  <g stroke-linecap="round" transform="translate(11.681560528763384 24.534665854976993) rotate(0 42.630859375 38.322265625)"><path d="M19.16 0 C35.2 0.37, 57.66 2.25, 66.1 0 C79.93 -2.7, 87.79 6.46, 85.26 19.16 C88.42 32.55, 84.07 43.83, 85.26 57.48 C81.88 67.59, 81.31 74.28, 66.1 76.64 C54.41 79.57, 39.41 74.32, 19.16 76.64 C6.56 74.43, 2.23 71.22, 0 57.48 C-2.26 41.81, -0.72 33.65, 0 19.16 C1.5 4.22, 5.04 -0.81, 19.16 0" stroke="none" stroke-width="0" fill="#228be6"></path><path d="M19.16 0 C37.98 -0.25, 56.02 0.73, 66.1 0 M19.16 0 C33.16 0.52, 47.97 0.17, 66.1 0 M66.1 0 C80.42 -0.5, 84.95 8.1, 85.26 19.16 M66.1 0 C78.99 -0.01, 86.04 5.97, 85.26 19.16 M85.26 19.16 C84.84 32.69, 83.57 43.01, 85.26 57.48 M85.26 19.16 C84.98 29.37, 84.9 39.03, 85.26 57.48 M85.26 57.48 C84.06 69.24, 77.43 77.27, 66.1 76.64 M85.26 57.48 C84.92 70.13, 77.93 75.44, 66.1 76.64 M66.1 76.64 C48.45 77.48, 30.67 77.73, 19.16 76.64 M66.1 76.64 C55.55 76.19, 42.62 77.11, 19.16 76.64 M19.16 76.64 C4.81 76.67, 0.88 71.69, 0 57.48 M19.16 76.64 C5.39 75.19, 0.8 70.73, 0 57.48 M0 57.48 C-1.03 42.14, -2.01 28.12, 0 19.16 M0 57.48 C0.69 43.33, 0.95 28.7, 0 19.16 M0 19.16 C-0.2 4.73, 6.29 0.68, 19.16 0 M0 19.16 C-1.57 6.04, 6.04 1.86, 19.16 0" stroke="#1e1e1e" stroke-width="2" fill="none"></path></g><g stroke-linecap="round" transform="translate(35.55055318974837 102.14701704545587) rotate(0 19.283203125 7.48828125)"><path d="M3.74 0 C15.23 1.68, 24.28 -2.01, 34.82 0 C39.14 0.05, 39.42 0.61, 38.57 3.74 C38.38 6.04, 37.74 8.06, 38.57 11.23 C40.33 12.02, 37.55 16.96, 34.82 14.98 C25.1 13.16, 12.15 13.64, 3.74 14.98 C2.86 15.67, 0.96 13.45, 0 11.23 C-0.15 10.14, 0.47 7.39, 0 3.74 C-0.98 0.66, 3.63 -0.29, 3.74 0" stroke="none" stroke-width="0" fill="#868e96"></path><path d="M3.74 0 C14.52 0.45, 24.66 0.81, 34.82 0 M3.74 0 C11.47 -0.06, 20.28 -0.17, 34.82 0 M34.82 0 C37.16 0.86, 38.62 1.24, 38.57 3.74 M34.82 0 C37.71 -0.21, 38.66 1.71, 38.57 3.74 M38.57 3.74 C38.21 5.39, 38.43 7.08, 38.57 11.23 M38.57 3.74 C38.46 5.82, 38.44 7.99, 38.57 11.23 M38.57 11.23 C37.84 14.04, 37.17 14.92, 34.82 14.98 M38.57 11.23 C38.09 13.13, 38.17 14.49, 34.82 14.98 M34.82 14.98 C24.23 15.49, 13.41 15.43, 3.74 14.98 M34.82 14.98 C23.86 15.02, 13.3 14.88, 3.74 14.98 M3.74 14.98 C1.69 15.69, -0.44 13.1, 0 11.23 M3.74 14.98 C1.65 15.21, 0.79 13.96, 0 11.23 M0 11.23 C-0.35 8.31, 0.28 5.61, 0 3.74 M0 11.23 C0.12 9.55, -0.04 7.84, 0 3.74 M0 3.74 C-0.05 1.59, 0.57 -0.15, 3.74 0 M0 3.74 C-0.17 2.18, 2.24 -0.91, 3.74 0" stroke="#1e1e1e" stroke-width="2" fill="none"></path></g><g stroke-linecap="round" transform="translate(35.7364255855814 10) rotate(0 19.283203125 7.48828125)"><path d="M3.74 0 C14.28 -2.22, 25.12 -0.22, 34.82 0 C38.17 -0.64, 39.51 3.65, 38.57 3.74 C37.63 5.4, 39.2 7.86, 38.57 11.23 C38.8 15.71, 39.06 17.01, 34.82 14.98 C23.59 13.05, 13.71 15.34, 3.74 14.98 C2.2 14.7, -2.15 12.04, 0 11.23 C0.43 8.97, -0.34 7.67, 0 3.74 C2.38 0.96, 1.24 -0.98, 3.74 0" stroke="none" stroke-width="0" fill="#868e96"></path><path d="M3.74 0 C13.07 0.73, 21.71 -0.82, 34.82 0 M3.74 0 C14.47 -0.12, 24.35 0.43, 34.82 0 M34.82 0 C37.37 0, 38.9 1.07, 38.57 3.74 M34.82 0 C37.41 0.46, 37.58 0.92, 38.57 3.74 M38.57 3.74 C38.4 6.76, 38.49 9.36, 38.57 11.23 M38.57 3.74 C38.44 5.92, 38.41 8.35, 38.57 11.23 M38.57 11.23 C38.42 13.67, 36.91 14.45, 34.82 14.98 M38.57 11.23 C39.41 13.24, 37.72 14.91, 34.82 14.98 M34.82 14.98 C23.88 15.45, 14.5 15.84, 3.74 14.98 M34.82 14.98 C27.09 15.03, 20.37 15.38, 3.74 14.98 M3.74 14.98 C0.81 14.35, 0.35 13.93, 0 11.23 M3.74 14.98 C2.04 15.2, 0.72 13.18, 0 11.23 M0 11.23 C0.3 9.25, -0.28 7.83, 0 3.74 M0 11.23 C-0.05 8.78, -0.04 6.7, 0 3.74 M0 3.74 C-0.68 1.1, 1.1 0.81, 3.74 0 M0 3.74 C0.99 0.34, 1.46 -0.67, 3.74 0" stroke="#343a40" stroke-width="2" fill="none"></path></g><g stroke-linecap="round" transform="translate(13.186373760761398 77.62702718601577) rotate(312.47556431009303 13.974609375 10.47265625)"><path d="M5.24 0 C13.85 0.3, 19.09 -0.54, 22.71 0 C27.52 3.33, 28.58 0.72, 27.95 5.24 C29.05 6.9, 27.94 12.47, 27.95 15.71 C30.35 22.02, 28.56 23.27, 22.71 20.95 C20.82 21.59, 16.19 20.42, 5.24 20.95 C-1.24 18.61, -2.77 18.41, 0 15.71 C-0.79 11.56, 1.65 8.06, 0 5.24 C-0.02 0.38, 4.56 3.58, 5.24 0" stroke="none" stroke-width="0" fill="#a5d8ff"></path><path d="M5.24 0 C10.56 -1.46, 17.86 -1.37, 22.71 0 M5.24 0 C10.31 0.79, 15.7 0.04, 22.71 0 M22.71 0 C26.88 -0.36, 28.12 2.55, 27.95 5.24 M22.71 0 C24.23 -0.66, 29.92 -0.38, 27.95 5.24 M27.95 5.24 C27.81 8.06, 27.95 11.23, 27.95 15.71 M27.95 5.24 C27.51 8.03, 27.81 10.46, 27.95 15.71 M27.95 15.71 C27.13 18.15, 27.68 20.09, 22.71 20.95 M27.95 15.71 C28.76 19.07, 26.97 20.53, 22.71 20.95 M22.71 20.95 C17.36 22.4, 9.5 19.61, 5.24 20.95 M22.71 20.95 C17.36 21.57, 10.86 20.4, 5.24 20.95 M5.24 20.95 C2.44 21.36, 1.37 19.6, 0 15.71 M5.24 20.95 C3.18 19.85, -1.4 16.97, 0 15.71 M0 15.71 C-0.95 13.66, 0 11.37, 0 5.24 M0 15.71 C-0.01 13.1, -0.35 10.07, 0 5.24 M0 5.24 C-0.3 3.36, 3.47 -1.58, 5.24 0 M0 5.24 C0.42 0.4, 2.08 1.42, 5.24 0" stroke="#1e1e1e" stroke-width="2" fill="none"></path></g><g stroke-linecap="round" transform="translate(28.105044809020455 37.022564965653146) rotate(312.47556431009303 25.4296875 23.859375)"><path d="M32.26 0.6 C37.49 1.81, 44.75 6.15, 47.67 10.65 C50.59 15.16, 50.64 22.34, 49.78 27.61 C48.93 32.89, 46.52 38.97, 42.56 42.3 C38.6 45.63, 31.63 47.54, 26.03 47.6 C20.44 47.66, 13.18 45.88, 8.99 42.65 C4.8 39.41, 1.94 33.21, 0.91 28.19 C-0.12 23.18, 0.17 16.82, 2.8 12.56 C5.42 8.3, 10.93 4.17, 16.66 2.62 C22.38 1.08, 33.07 2.65, 37.17 3.28 C41.27 3.91, 41.23 5.98, 41.26 6.41 M29.18 0.75 C34.47 1.07, 40.24 4.78, 44.08 8.57 C47.93 12.36, 52.1 18.5, 52.24 23.46 C52.38 28.42, 48.78 34.56, 44.93 38.34 C41.08 42.11, 34.23 45.2, 29.13 46.12 C24.03 47.04, 18.88 45.91, 14.35 43.86 C9.81 41.8, 3.93 38.18, 1.92 33.78 C-0.09 29.39, 0.44 22.38, 2.3 17.5 C4.17 12.62, 8.82 7.36, 13.09 4.5 C17.37 1.64, 25.44 0.8, 27.95 0.33 C30.46 -0.14, 27.95 1.18, 28.15 1.66" stroke="none" stroke-width="0" fill="#a5d8ff"></path><path d="M16.42 1.31 C21.31 -0.77, 29.75 -0.35, 34.92 1.47 C40.08 3.29, 44.85 7.78, 47.41 12.21 C49.98 16.64, 51.17 23.18, 50.3 28.02 C49.44 32.86, 46.41 37.81, 42.23 41.23 C38.05 44.66, 30.88 48.4, 25.21 48.57 C19.54 48.75, 12.41 45.65, 8.22 42.29 C4.02 38.93, 0.88 33.53, 0.05 28.41 C-0.77 23.29, 0.01 16.29, 3.27 11.58 C6.54 6.86, 16.5 2.06, 19.66 0.13 C22.82 -1.79, 22.23 -0.34, 22.23 0.01 M28.76 -0.49 C34.15 -0.13, 41.94 3.57, 45.71 7.54 C49.48 11.52, 51.38 18.16, 51.38 23.33 C51.38 28.5, 49.11 34.74, 45.71 38.58 C42.32 42.43, 36.33 45.27, 31 46.4 C25.67 47.52, 18.42 47.83, 13.74 45.34 C9.05 42.85, 5.15 36.28, 2.89 31.48 C0.63 26.68, -1.2 21.22, 0.17 16.54 C1.54 11.87, 6.14 5.97, 11.12 3.44 C16.1 0.91, 27.12 1.97, 30.04 1.36 C32.96 0.76, 28.73 -0.45, 28.65 -0.19" stroke="#1e1e1e" stroke-width="2" fill="none"></path></g></svg>