<svg version="1.1" xmlns="http://www.w3.org/2000/svg" viewBox="0 0 105.26171875 129.23744184244242" width="105.26171875" height="129.23744184244242">
  <!-- svg-source:excalidraw -->
  
  <defs>
    <style class="style-fonts">
      @font-face {
        font-family: "Virgil";
        src: url("https://excalidraw.com/Virgil.woff2");
      }
      @font-face {
        font-family: "Cascadia";
        src: url("https://excalidraw.com/Cascadia.woff2");
      }
      @font-face {
        font-family: "Assistant";
        src: url("https://excalidraw.com/Assistant-Regular.woff2");
      }
    </style>
    
  </defs>
  <g stroke-linecap="round" transform="translate(10 26.9666085091103) rotate(0 42.630859375 38.322265625)"><path d="M19.16 0 C32.11 -1.94, 37.63 0.89, 66.1 0 C79.61 2.47, 85.98 8.63, 85.26 19.16 C82.85 31.39, 82.99 35.49, 85.26 57.48 C87.02 70.51, 81.57 75.41, 66.1 76.64 C53.72 74.15, 38.34 76.06, 19.16 76.64 C9.29 79.76, -2.84 70.91, 0 57.48 C2.31 49.28, -2.8 41.48, 0 19.16 C0.07 7.57, 5.5 1.31, 19.16 0" stroke="none" stroke-width="0" fill="#228be6"></path><path d="M19.16 0 C29.63 1.49, 39.98 0.26, 66.1 0 M19.16 0 C32.33 -0.51, 45.29 -0.72, 66.1 0 M66.1 0 C79.5 0.81, 86.47 6.8, 85.26 19.16 M66.1 0 C81.14 0.54, 84.35 6.51, 85.26 19.16 M85.26 19.16 C86.6 30.89, 84.24 48.25, 85.26 57.48 M85.26 19.16 C85.93 31.1, 85.54 42.66, 85.26 57.48 M85.26 57.48 C86.16 70.55, 80.47 75.84, 66.1 76.64 M85.26 57.48 C83.53 71.01, 77.26 76.6, 66.1 76.64 M66.1 76.64 C50.1 76.68, 30.66 77.25, 19.16 76.64 M66.1 76.64 C52.01 76.54, 40.5 75.91, 19.16 76.64 M19.16 76.64 C6.61 75.96, 0.69 70.06, 0 57.48 M19.16 76.64 C5.44 76.72, -1.14 69.13, 0 57.48 M0 57.48 C0.82 47.99, 0.09 38.28, 0 19.16 M0 57.48 C0.07 47.93, 0.05 38.32, 0 19.16 M0 19.16 C0.92 5.22, 7.2 0.8, 19.16 0 M0 19.16 C1.82 4.92, 4.54 0.65, 19.16 0" stroke="#1e1e1e" stroke-width="2" fill="none"></path></g><g stroke-linecap="round" transform="translate(33.86899266098453 104.26087934244242) rotate(0 19.283203125 7.48828125)"><path d="M3.74 0 C12.79 1.08, 25.66 1.96, 34.82 0 C37.83 1.62, 37.33 -0.33, 38.57 3.74 C38.01 4.45, 38.99 6.85, 38.57 11.23 C40.51 12.84, 37.06 12.82, 34.82 14.98 C25.26 14.31, 18.58 16.95, 3.74 14.98 C-0.81 15.45, -1.52 14.11, 0 11.23 C-0.79 9.21, -0.05 6.14, 0 3.74 C-0.64 2.2, 3.65 0.46, 3.74 0" stroke="none" stroke-width="0" fill="#868e96"></path><path d="M3.74 0 C14.24 0.05, 23.22 0.21, 34.82 0 M3.74 0 C12.51 -0.31, 21.54 0.29, 34.82 0 M34.82 0 C37.92 0.2, 39.55 1.48, 38.57 3.74 M34.82 0 C36.86 0.06, 39.22 0.81, 38.57 3.74 M38.57 3.74 C38.43 7.06, 38.6 10.04, 38.57 11.23 M38.57 3.74 C38.57 6.3, 38.66 8.73, 38.57 11.23 M38.57 11.23 C39.37 13.33, 36.56 15.3, 34.82 14.98 M38.57 11.23 C37.76 13.71, 38.21 14.69, 34.82 14.98 M34.82 14.98 C25.97 15.32, 16.95 15.07, 3.74 14.98 M34.82 14.98 C24.68 14.47, 13.74 14.76, 3.74 14.98 M3.74 14.98 C1.59 14.88, -0.41 13.76, 0 11.23 M3.74 14.98 C0.68 14.41, -0.69 13.14, 0 11.23 M0 11.23 C-0.03 9.37, -0.21 8.1, 0 3.74 M0 11.23 C0.05 9.27, 0.07 7.27, 0 3.74 M0 3.74 C0.41 1.65, 2.04 -0.64, 3.74 0 M0 3.74 C-0.92 1.57, 0.34 0.01, 3.74 0" stroke="#1e1e1e" stroke-width="2" fill="none"></path></g><g stroke-linecap="round" transform="translate(34.05486505681802 12.113862296986554) rotate(0 19.283203125 7.48828125)"><path d="M3.74 0 C12.25 1.64, 20.2 1.48, 34.82 0 C36.08 -1.58, 36.05 -0.19, 38.57 3.74 C38.99 6.59, 39.24 8.97, 38.57 11.23 C38.31 11.57, 37.19 15.86, 34.82 14.98 C29.72 17.16, 18.36 15.39, 3.74 14.98 C-0.27 15.36, 1.6 15.47, 0 11.23 C0.09 9.09, -0.17 6.65, 0 3.74 C2.4 1.7, 0.51 -0.6, 3.74 0" stroke="none" stroke-width="0" fill="#868e96"></path><path d="M3.74 0 C15.29 0.31, 27.09 0.02, 34.82 0 M3.74 0 C11.4 0.33, 19.05 0.23, 34.82 0 M34.82 0 C38.31 0.23, 38.17 1.3, 38.57 3.74 M34.82 0 C37.97 -0.44, 39.71 2.1, 38.57 3.74 M38.57 3.74 C38.56 5.58, 38.67 6.91, 38.57 11.23 M38.57 3.74 C38.65 6.31, 38.71 8.74, 38.57 11.23 M38.57 11.23 C37.81 14.06, 36.61 14.96, 34.82 14.98 M38.57 11.23 C39.46 13.44, 37.14 15.96, 34.82 14.98 M34.82 14.98 C25.16 15.11, 16.25 14.17, 3.74 14.98 M34.82 14.98 C26.45 14.66, 18.14 14.78, 3.74 14.98 M3.74 14.98 C0.84 15.01, -0.5 13.24, 0 11.23 M3.74 14.98 C0.56 14.39, -0.83 14.09, 0 11.23 M0 11.23 C-0.19 9.37, -0.16 7.1, 0 3.74 M0 11.23 C0.07 8.92, 0.06 6.9, 0 3.74 M0 3.74 C0.79 0.61, 0.45 0.28, 3.74 0 M0 3.74 C-0.91 1.26, 1.75 0.82, 3.74 0" stroke="#343a40" stroke-width="2" fill="none"></path></g><g stroke-linecap="round" transform="translate(39.397448168828305 13.62604069808549) rotate(269.315648468081 13.974609375 10.47265625)"><path d="M5.24 0 C11.71 1.75, 15.44 -2.12, 22.71 0 C22.71 -1.99, 30.51 -0.11, 27.95 5.24 C29.45 6.85, 27.85 8.2, 27.95 15.71 C27.77 20.43, 23.75 20.41, 22.71 20.95 C15.25 21.79, 10.92 21.68, 5.24 20.95 C3.96 23.35, 1.06 16.5, 0 15.71 C-0.47 12.52, 1.74 8.29, 0 5.24 C-1.02 0.91, -1.63 -2.67, 5.24 0" stroke="none" stroke-width="0" fill="#a5d8ff"></path><path d="M5.24 0 C10.5 0.02, 15.3 -0.25, 22.71 0 M5.24 0 C9.62 0.11, 13.8 0.13, 22.71 0 M22.71 0 C25.41 0.11, 29.08 0.99, 27.95 5.24 M22.71 0 C28.49 1.71, 25.72 0.74, 27.95 5.24 M27.95 5.24 C28.28 9.66, 28.36 13.31, 27.95 15.71 M27.95 5.24 C28.41 8.58, 27.6 12.52, 27.95 15.71 M27.95 15.71 C26.54 19.16, 27.75 20.45, 22.71 20.95 M27.95 15.71 C27.6 21.17, 26.32 20.94, 22.71 20.95 M22.71 20.95 C17.58 19.46, 10.55 22.46, 5.24 20.95 M22.71 20.95 C19.38 20.8, 15.09 20.91, 5.24 20.95 M5.24 20.95 C0.75 19.97, -1.2 18.18, 0 15.71 M5.24 20.95 C0.08 21.66, -0.34 19.07, 0 15.71 M0 15.71 C-0.39 13.37, 0 10.64, 0 5.24 M0 15.71 C0.16 12.96, 0.37 9.47, 0 5.24 M0 5.24 C-1.6 2.31, 0.17 0.02, 5.24 0 M0 5.24 C1.01 3.39, 0.74 -1.45, 5.24 0" stroke="#1e1e1e" stroke-width="2" fill="none"></path></g><g stroke-linecap="round" transform="translate(27.939453125 38.7404721324001) rotate(269.315648468081 25.4296875 23.859375)"><path d="M16.37 1.14 C20.95 -0.72, 28.21 0.26, 33.29 2.07 C38.37 3.88, 43.99 7.69, 46.86 12.01 C49.72 16.34, 51.31 22.97, 50.47 28.03 C49.64 33.09, 46.07 39.04, 41.85 42.39 C37.63 45.74, 30.53 48, 25.18 48.12 C19.83 48.24, 13.97 46.56, 9.74 43.13 C5.51 39.69, 0.84 32.79, -0.19 27.51 C-1.23 22.22, 0.47 15.75, 3.53 11.41 C6.58 7.07, 15.28 3.25, 18.14 1.45 C21 -0.36, 20.69 0.24, 20.7 0.61 M28.97 -0.59 C33.83 -0.69, 39.28 1.83, 42.78 5.8 C46.27 9.76, 49.55 18.08, 49.96 23.21 C50.38 28.34, 48.2 32.61, 45.26 36.59 C42.33 40.57, 37.33 45.73, 32.37 47.1 C27.4 48.47, 20.5 47.27, 15.45 44.81 C10.4 42.36, 4.5 36.86, 2.07 32.37 C-0.36 27.87, -0.45 22.59, 0.9 17.84 C2.24 13.09, 5.66 6.63, 10.14 3.88 C14.63 1.13, 24.62 2.08, 27.81 1.34 C31 0.59, 29.24 -0.63, 29.28 -0.58" stroke="none" stroke-width="0" fill="#a5d8ff"></path><path d="M24.47 0.64 C29.79 0.19, 36.58 2.87, 40.91 5.77 C45.24 8.68, 49.23 13.15, 50.43 18.06 C51.64 22.97, 50.73 30.44, 48.16 35.23 C45.59 40.02, 39.92 45.06, 35.02 46.8 C30.12 48.55, 23.99 47.22, 18.77 45.71 C13.55 44.21, 6.78 41.74, 3.68 37.76 C0.59 33.78, -0.58 26.99, 0.2 21.83 C0.98 16.66, 4 10.42, 8.37 6.77 C12.75 3.13, 23.13 0.92, 26.47 -0.04 C29.81 -0.99, 28.48 0.51, 28.43 1.05 M19.3 0.45 C24.69 -0.96, 33.8 -0.14, 38.73 2.52 C43.65 5.18, 47.04 11.58, 48.86 16.4 C50.68 21.22, 51.23 26.84, 49.62 31.42 C48.02 36.01, 43.86 41.16, 39.22 43.93 C34.58 46.7, 27.48 48.84, 21.8 48.06 C16.11 47.28, 8.51 43.4, 5.09 39.24 C1.68 35.08, 1.19 28.23, 1.29 23.1 C1.39 17.98, 2.43 12.29, 5.69 8.49 C8.96 4.7, 18.52 1.58, 20.87 0.33 C23.23 -0.92, 19.97 0.7, 19.84 1" stroke="#1e1e1e" stroke-width="2" fill="none"></path></g></svg>