<svg version="1.1" xmlns="http://www.w3.org/2000/svg" viewBox="0 0 105.26171875 129.23744184244407" width="105.26171875" height="129.23744184244407">
  <!-- svg-source:excalidraw -->
  
  <defs>
    <style class="style-fonts">
      @font-face {
        font-family: "Virgil";
        src: url("https://excalidraw.com/Virgil.woff2");
      }
      @font-face {
        font-family: "Cascadia";
        src: url("https://excalidraw.com/Cascadia.woff2");
      }
      @font-face {
        font-family: "Assistant";
        src: url("https://excalidraw.com/Assistant-Regular.woff2");
      }
    </style>
    
  </defs>
  <g stroke-linecap="round" transform="translate(10 26.966608509110145) rotate(0 42.630859375 38.322265625)"><path d="M19.16 0 C35.39 2.39, 49.23 2.59, 66.1 0 C81.54 -0.67, 84.47 7.37, 85.26 19.16 C87.97 26.25, 85.25 41.24, 85.26 57.48 C83.1 67.91, 81.45 76.12, 66.1 76.64 C50.25 73.32, 41.15 73.07, 19.16 76.64 C7.18 73.31, -0.86 70.09, 0 57.48 C3.19 50.73, -1.21 41.03, 0 19.16 C-2.71 7.82, 7.96 -2.19, 19.16 0" stroke="none" stroke-width="0" fill="#7950f2"></path><path d="M19.16 0 C31.96 0.38, 46.96 -0.91, 66.1 0 M19.16 0 C36.31 -0.38, 55.15 0.16, 66.1 0 M66.1 0 C77.68 -1.25, 85.97 5.56, 85.26 19.16 M66.1 0 C80.34 1.88, 83.54 7.09, 85.26 19.16 M85.26 19.16 C84.24 25.82, 86.7 35.61, 85.26 57.48 M85.26 19.16 C85.02 34.1, 85.66 48.42, 85.26 57.48 M85.26 57.48 C85.97 71.15, 77.73 75.93, 66.1 76.64 M85.26 57.48 C83.52 71.96, 81.16 75.5, 66.1 76.64 M66.1 76.64 C53.95 78.88, 39.7 78.16, 19.16 76.64 M66.1 76.64 C48.82 77.28, 30.73 75.73, 19.16 76.64 M19.16 76.64 C5.52 76.67, 1.63 69.99, 0 57.48 M19.16 76.64 C5.68 76.48, 0.62 72.12, 0 57.48 M0 57.48 C-0.91 45.86, 1.75 31.27, 0 19.16 M0 57.48 C-0.02 47.39, 0.25 35.98, 0 19.16 M0 19.16 C0.71 7.47, 6.19 -0.77, 19.16 0 M0 19.16 C-2.27 6.54, 4.82 -0.76, 19.16 0" stroke="#1e1e1e" stroke-width="2" fill="none"></path></g><g stroke-linecap="round" transform="translate(33.86899266098453 104.26087934244408) rotate(0 19.283203125 7.48828125)"><path d="M3.74 0 C12.03 1.69, 25.4 -0.77, 34.82 0 C36.74 0.71, 37.12 0.37, 38.57 3.74 C38.7 7.42, 38.06 8.65, 38.57 11.23 C40.43 13.35, 37.16 14.45, 34.82 14.98 C29.74 12.55, 21.42 12.27, 3.74 14.98 C0.62 14.85, -1.61 13.81, 0 11.23 C-0.41 9.41, -0.82 7, 0 3.74 C1.13 -0.34, 1.68 -1.21, 3.74 0" stroke="none" stroke-width="0" fill="#868e96"></path><path d="M3.74 0 C11.74 -0.6, 19.47 -0.43, 34.82 0 M3.74 0 C15.47 0.25, 26.51 -0.3, 34.82 0 M34.82 0 C37.67 -0.41, 39.2 2.07, 38.57 3.74 M34.82 0 C36.46 0.35, 37.44 0.83, 38.57 3.74 M38.57 3.74 C38.84 6.73, 38.86 9.27, 38.57 11.23 M38.57 3.74 C38.66 6.57, 38.63 9.54, 38.57 11.23 M38.57 11.23 C38 13.37, 36.56 15.72, 34.82 14.98 M38.57 11.23 C39.71 13.16, 37.02 16.12, 34.82 14.98 M34.82 14.98 C23.26 15.74, 13.08 15.08, 3.74 14.98 M34.82 14.98 C25.79 14.67, 16.91 15.09, 3.74 14.98 M3.74 14.98 C2.06 14.84, -0.31 13.66, 0 11.23 M3.74 14.98 C1.56 15.91, 0.63 12.98, 0 11.23 M0 11.23 C0.3 8.69, -0.08 6.06, 0 3.74 M0 11.23 C0.09 8.71, 0.06 6.51, 0 3.74 M0 3.74 C-0.1 0.86, 0.26 0.07, 3.74 0 M0 3.74 C-0.78 0.87, 1.75 -0.75, 3.74 0" stroke="#1e1e1e" stroke-width="2" fill="none"></path></g><g stroke-linecap="round" transform="translate(34.05486505681802 12.113862296989183) rotate(0 19.283203125 7.48828125)"><path d="M3.74 0 C17.18 -0.79, 26.2 0.4, 34.82 0 C35.87 -0.87, 40.38 3.37, 38.57 3.74 C37.99 4.88, 39.27 7.15, 38.57 11.23 C38.41 13.2, 35.36 13.49, 34.82 14.98 C28.39 12.24, 20.19 14.52, 3.74 14.98 C-0.36 15.06, 0.22 16.05, 0 11.23 C-0.7 8.88, 0.46 5.16, 0 3.74 C0.43 0.04, 0.42 1.94, 3.74 0" stroke="none" stroke-width="0" fill="#868e96"></path><path d="M3.74 0 C14.02 -0.33, 23.42 -0.56, 34.82 0 M3.74 0 C12.63 -0.39, 22.3 -0.28, 34.82 0 M34.82 0 C37.95 0.82, 37.82 1.55, 38.57 3.74 M34.82 0 C36.2 -0.42, 39.44 0.74, 38.57 3.74 M38.57 3.74 C38.91 5.48, 38.9 7.37, 38.57 11.23 M38.57 3.74 C38.65 6.25, 38.48 8.53, 38.57 11.23 M38.57 11.23 C37.81 14.47, 38.31 14.48, 34.82 14.98 M38.57 11.23 C38.27 14.87, 38.03 15.39, 34.82 14.98 M34.82 14.98 C23.21 15.03, 9.98 15.29, 3.74 14.98 M34.82 14.98 C23.07 14.85, 12.16 14.78, 3.74 14.98 M3.74 14.98 C0.94 14.9, 0.27 14.54, 0 11.23 M3.74 14.98 C1.88 14.23, 0.74 13.06, 0 11.23 M0 11.23 C-0.13 8.53, 0.05 5.37, 0 3.74 M0 11.23 C0.05 8.81, -0.04 6.12, 0 3.74 M0 3.74 C-0.98 1.32, 0.57 -0.33, 3.74 0 M0 3.74 C0.5 0.5, 1.45 0.03, 3.74 0" stroke="#343a40" stroke-width="2" fill="none"></path></g><g stroke-linecap="round" transform="translate(39.397448168828305 13.62604069808539) rotate(269.315648468081 13.974609375 10.47265625)"><path d="M5.24 0 C11.11 0.92, 16.63 -1, 22.71 0 C28.72 2.94, 25.68 1.96, 27.95 5.24 C29.18 9.08, 27.72 13.09, 27.95 15.71 C25.24 17.15, 23.52 23.58, 22.71 20.95 C18.14 20.5, 13.13 20.75, 5.24 20.95 C2.05 24.16, 2.37 18.01, 0 15.71 C0.96 10.9, 0.46 7.51, 0 5.24 C-1.15 4.43, 4.29 -1.44, 5.24 0" stroke="none" stroke-width="0" fill="#a5d8ff"></path><path d="M5.24 0 C10.68 -1.06, 13.57 0.75, 22.71 0 M5.24 0 C11.65 -0.25, 17.99 0.82, 22.71 0 M22.71 0 C24.71 0.61, 26 1.02, 27.95 5.24 M22.71 0 C27.95 -1.02, 26.69 3.56, 27.95 5.24 M27.95 5.24 C28.89 8.73, 28.29 13.03, 27.95 15.71 M27.95 5.24 C27.69 8.04, 27.59 11.6, 27.95 15.71 M27.95 15.71 C29.94 18.21, 25.69 22.93, 22.71 20.95 M27.95 15.71 C29.36 20.03, 28.44 20.2, 22.71 20.95 M22.71 20.95 C16.13 21.32, 11.33 20.28, 5.24 20.95 M22.71 20.95 C19.65 20.83, 14.89 20.88, 5.24 20.95 M5.24 20.95 C2.29 22.56, 1.09 17.89, 0 15.71 M5.24 20.95 C3.22 19.61, 2.26 20.93, 0 15.71 M0 15.71 C0.26 12.34, 0.41 8.97, 0 5.24 M0 15.71 C-0.09 12.98, -0.55 10.68, 0 5.24 M0 5.24 C-1.36 1.08, 2.62 -1.3, 5.24 0 M0 5.24 C0.4 1.81, 3.37 -1.4, 5.24 0" stroke="#1e1e1e" stroke-width="2" fill="none"></path></g><g stroke-linecap="round" transform="translate(27.939453125 38.74047213240176) rotate(269.315648468081 25.4296875 23.859375)"><path d="M34.22 1.71 C39.28 2.92, 44.06 7.81, 46.83 12.13 C49.59 16.45, 51.5 22.6, 50.8 27.63 C50.11 32.65, 46.88 38.85, 42.67 42.25 C38.46 45.66, 30.96 48.03, 25.55 48.06 C20.13 48.1, 14.4 45.85, 10.16 42.45 C5.93 39.05, 1.3 32.77, 0.13 27.66 C-1.04 22.55, 0.53 16.08, 3.13 11.82 C5.74 7.56, 10.48 3.73, 15.75 2.11 C21.02 0.49, 31.2 1.79, 34.75 2.08 C38.3 2.38, 37.21 3.4, 37.05 3.87 M35.03 0.78 C39.93 2.48, 44.44 8.95, 47.21 13.41 C49.97 17.87, 52.56 22.47, 51.6 27.54 C50.65 32.61, 46.06 40.65, 41.46 43.85 C36.86 47.05, 29.29 47.11, 24.01 46.73 C18.72 46.36, 13.73 44.85, 9.76 41.6 C5.79 38.35, 1.41 32.37, 0.21 27.21 C-0.99 22.06, -0.1 14.79, 2.55 10.65 C5.2 6.51, 10.97 3.82, 16.11 2.37 C21.25 0.92, 30.57 2.05, 33.39 1.94 C36.22 1.83, 33 1.54, 33.04 1.7" stroke="none" stroke-width="0" fill="#a5d8ff"></path><path d="M29.71 0.8 C34.71 1.65, 41.15 5.72, 44.81 9.52 C48.47 13.32, 51.66 18.74, 51.67 23.58 C51.69 28.42, 48.67 34.47, 44.89 38.58 C41.11 42.68, 34.5 47.33, 28.99 48.19 C23.48 49.05, 16.31 46.43, 11.84 43.74 C7.37 41.05, 3.7 36.84, 2.15 32.04 C0.61 27.25, 0.58 19.84, 2.55 14.98 C4.51 10.11, 8.87 5.07, 13.96 2.83 C19.06 0.59, 29.6 1.58, 33.1 1.55 C36.6 1.52, 35.06 2.47, 34.97 2.67 M22.39 -0.36 C27.55 -1.46, 33.02 1.88, 37.66 4.63 C42.3 7.38, 48.01 11.67, 50.21 16.14 C52.4 20.61, 52.66 26.53, 50.82 31.43 C48.98 36.34, 44.12 42.94, 39.16 45.56 C34.2 48.18, 26.53 48.01, 21.06 47.14 C15.59 46.28, 9.96 44.42, 6.35 40.34 C2.75 36.27, -0.38 28, -0.57 22.71 C-0.75 17.42, 1.44 12.38, 5.22 8.62 C9 4.87, 19.57 1.5, 22.12 0.18 C24.67 -1.13, 20.59 0.12, 20.53 0.74" stroke="#1e1e1e" stroke-width="2" fill="none"></path></g></svg>