<svg version="1.1" xmlns="http://www.w3.org/2000/svg" viewBox="0 0 106.94327927876338 127.12357954545496" width="106.94327927876338" height="127.12357954545496">
  <!-- svg-source:excalidraw -->
  
  <defs>
    <style class="style-fonts">
      @font-face {
        font-family: "Virgil";
        src: url("https://excalidraw.com/Virgil.woff2");
      }
      @font-face {
        font-family: "Cascadia";
        src: url("https://excalidraw.com/Cascadia.woff2");
      }
      @font-face {
        font-family: "Assistant";
        src: url("https://excalidraw.com/Assistant-Regular.woff2");
      }
    </style>
    
  </defs>
  <g stroke-linecap="round" transform="translate(11.681560528763384 24.85274621212102) rotate(0 42.630859375 38.322265625)"><path d="M19.16 0 C34.18 2.42, 51.91 3.85, 66.1 0 C82.29 -1.04, 83.81 6.99, 85.26 19.16 C86.63 35.08, 87.84 47.83, 85.26 57.48 C83.26 71.81, 81.94 73.28, 66.1 76.64 C52.55 80.47, 36.03 74.83, 19.16 76.64 C8.85 76.64, -2.98 68.39, 0 57.48 C3.75 43.67, 3.21 28.72, 0 19.16 C2.59 8.23, 9.64 0.39, 19.16 0" stroke="none" stroke-width="0" fill="#7950f2"></path><path d="M19.16 0 C28.91 0.47, 40.61 -0.59, 66.1 0 M19.16 0 C31.41 -0.1, 45.43 -1.24, 66.1 0 M66.1 0 C80.83 0.6, 84.97 7.12, 85.26 19.16 M66.1 0 C79.31 0.3, 84.16 7.72, 85.26 19.16 M85.26 19.16 C84.62 30.38, 84.02 45.02, 85.26 57.48 M85.26 19.16 C84.56 30.15, 84.67 42.85, 85.26 57.48 M85.26 57.48 C84.97 71.82, 78.05 74.78, 66.1 76.64 M85.26 57.48 C84.91 71.69, 80.89 75.49, 66.1 76.64 M66.1 76.64 C48.48 76.25, 28.76 75.87, 19.16 76.64 M66.1 76.64 C50.75 76.06, 33.86 76.72, 19.16 76.64 M19.16 76.64 C7.91 76.18, -1.32 70.68, 0 57.48 M19.16 76.64 C8.66 78.02, 2.29 71.93, 0 57.48 M0 57.48 C0.4 49.51, -2.29 40.61, 0 19.16 M0 57.48 C-0.02 46.31, 0.92 33.61, 0 19.16 M0 19.16 C-1.96 7.79, 6.39 -1.61, 19.16 0 M0 19.16 C-1.08 8.62, 6.93 0.61, 19.16 0" stroke="#1e1e1e" stroke-width="2" fill="none"></path></g><g stroke-linecap="round" transform="translate(35.550553189747916 102.14701704545496) rotate(0 19.283203125 7.48828125)"><path d="M3.74 0 C10.48 2.07, 19.52 -0.94, 34.82 0 C36.27 0.43, 40.48 1.24, 38.57 3.74 C39.3 6.65, 38.06 9.96, 38.57 11.23 C40.78 11.3, 37.02 14.85, 34.82 14.98 C20.32 13.4, 11.89 15.31, 3.74 14.98 C-0.91 13.63, 2.32 12.94, 0 11.23 C0.72 9.34, 0.61 7.36, 0 3.74 C2.35 1.53, -0.73 -2.6, 3.74 0" stroke="none" stroke-width="0" fill="#868e96"></path><path d="M3.74 0 C15.25 -0.15, 27.9 0.37, 34.82 0 M3.74 0 C15.94 -0.46, 28.5 0.1, 34.82 0 M34.82 0 C37.17 0.37, 38.76 1.38, 38.57 3.74 M34.82 0 C36.77 0.67, 38.89 0.26, 38.57 3.74 M38.57 3.74 C38.39 6.61, 38.59 9.19, 38.57 11.23 M38.57 3.74 C38.43 6.36, 38.51 9.12, 38.57 11.23 M38.57 11.23 C38.16 12.8, 37.17 15.6, 34.82 14.98 M38.57 11.23 C39.58 13.15, 38.22 15.24, 34.82 14.98 M34.82 14.98 C23.59 14.47, 14.63 14.3, 3.74 14.98 M34.82 14.98 C23.86 14.77, 13.34 14.73, 3.74 14.98 M3.74 14.98 C0.59 15.19, 0.99 14.33, 0 11.23 M3.74 14.98 C2.39 15.81, -0.66 14.83, 0 11.23 M0 11.23 C-0.37 9.34, 0.01 6.77, 0 3.74 M0 11.23 C0.17 8.97, -0.18 6.95, 0 3.74 M0 3.74 C0 0.44, 0.78 0.97, 3.74 0 M0 3.74 C0.27 1.55, 1.8 -0.07, 3.74 0" stroke="#1e1e1e" stroke-width="2" fill="none"></path></g><g stroke-linecap="round" transform="translate(35.7364255855814 10) rotate(0 19.283203125 7.48828125)"><path d="M3.74 0 C17 -1.1, 24.26 0.08, 34.82 0 C39.23 -0.01, 40.84 2.24, 38.57 3.74 C38.09 6.74, 39.46 7.99, 38.57 11.23 C38.27 13.61, 39.86 14.98, 34.82 14.98 C24.69 14.68, 8.84 13.33, 3.74 14.98 C3.57 14.19, -0.21 16.28, 0 11.23 C0.62 9.25, 0.8 6.39, 0 3.74 C-1.98 -1.35, 1.25 0.1, 3.74 0" stroke="none" stroke-width="0" fill="#868e96"></path><path d="M3.74 0 C14.26 0.46, 26.11 -0.81, 34.82 0 M3.74 0 C14.56 0.28, 24.33 0.31, 34.82 0 M34.82 0 C37.51 0.13, 38.09 1.83, 38.57 3.74 M34.82 0 C37.64 -0.99, 39.31 1.07, 38.57 3.74 M38.57 3.74 C38.58 5.46, 38.73 6.96, 38.57 11.23 M38.57 3.74 C38.52 5.5, 38.47 6.8, 38.57 11.23 M38.57 11.23 C38.41 14.35, 38.2 14.47, 34.82 14.98 M38.57 11.23 C39.46 14, 37.68 15.05, 34.82 14.98 M34.82 14.98 C26.77 14.27, 18.38 15.65, 3.74 14.98 M34.82 14.98 C28.46 14.83, 21 15.06, 3.74 14.98 M3.74 14.98 C2.24 15.57, 0.99 14.46, 0 11.23 M3.74 14.98 C0.59 16.08, -0.05 14.17, 0 11.23 M0 11.23 C0.06 8.45, 0.02 5.73, 0 3.74 M0 11.23 C-0.22 8.66, -0.03 5.67, 0 3.74 M0 3.74 C-0.47 2.22, 1.48 0.27, 3.74 0 M0 3.74 C0.55 1.17, 0.26 -0.41, 3.74 0" stroke="#343a40" stroke-width="2" fill="none"></path></g><g stroke-linecap="round" transform="translate(13.186373760761398 77.90604504315706) rotate(312.47556431009303 13.974609375 10.47265625)"><path d="M5.24 0 C10.73 0.62, 21.07 0.08, 22.71 0 C29.35 1.37, 29.55 4.32, 27.95 5.24 C29.45 6.63, 27.63 11.45, 27.95 15.71 C31.47 19.2, 29.2 17.98, 22.71 20.95 C16.15 19.32, 17.6 20, 5.24 20.95 C1.45 24.48, 1.1 22.2, 0 15.71 C1.57 12.46, -1.57 6.92, 0 5.24 C0 1.88, 4.19 -2.96, 5.24 0" stroke="none" stroke-width="0" fill="#a5d8ff"></path><path d="M5.24 0 C11.92 -1.51, 16.01 0.16, 22.71 0 M5.24 0 C8.92 0.27, 13.03 0.06, 22.71 0 M22.71 0 C25.24 1.16, 28.52 0.02, 27.95 5.24 M22.71 0 C27.69 -0.36, 26.38 0.7, 27.95 5.24 M27.95 5.24 C28.48 8.03, 27.07 11.64, 27.95 15.71 M27.95 5.24 C27.72 7.91, 27.85 11.89, 27.95 15.71 M27.95 15.71 C29.7 18.19, 27.76 21.41, 22.71 20.95 M27.95 15.71 C28.68 19.34, 25.58 18.82, 22.71 20.95 M22.71 20.95 C19.19 22.14, 12.4 20.74, 5.24 20.95 M22.71 20.95 C17.18 21.09, 13.67 21.43, 5.24 20.95 M5.24 20.95 C3.73 22.4, -1.15 21.11, 0 15.71 M5.24 20.95 C1.64 21.83, 1.52 16.99, 0 15.71 M0 15.71 C-0.06 11.6, 0.63 8.55, 0 5.24 M0 15.71 C0.1 12.46, -0.14 10.57, 0 5.24 M0 5.24 C0.47 2.28, 2.7 -0.13, 5.24 0 M0 5.24 C-1.98 0.92, 2.83 0.07, 5.24 0" stroke="#1e1e1e" stroke-width="2" fill="none"></path></g><g stroke-linecap="round" transform="translate(28.105044809020228 37.022564965653146) rotate(312.47556431009303 25.4296875 23.859375)"><path d="M23.87 0.86 C28.98 0.31, 36.98 2.07, 41.38 5.11 C45.79 8.14, 49.15 13.92, 50.31 19.1 C51.47 24.27, 51.01 31.83, 48.36 36.17 C45.71 40.5, 39.45 43.38, 34.39 45.1 C29.33 46.82, 23.25 48.02, 18 46.47 C12.76 44.92, 5.7 40.13, 2.91 35.8 C0.12 31.48, 0.26 25.41, 1.26 20.51 C2.26 15.61, 4.21 9.94, 8.89 6.43 C13.57 2.91, 25.27 0.13, 29.34 -0.57 C33.42 -1.26, 33.38 1.59, 33.33 2.27 M37.3 3.74 C42.13 6.01, 46.7 11.28, 48.87 15.92 C51.03 20.56, 51.72 26.91, 50.29 31.58 C48.86 36.25, 45.1 41.16, 40.28 43.93 C35.47 46.69, 26.78 49.05, 21.41 48.18 C16.04 47.3, 11.64 42.54, 8.05 38.67 C4.46 34.8, 0.1 29.83, -0.14 24.96 C-0.37 20.08, 3.11 13.7, 6.64 9.44 C10.17 5.17, 16.16 0.32, 21.04 -0.64 C25.93 -1.61, 33.32 3.25, 35.95 3.67 C38.58 4.08, 36.96 1.41, 36.82 1.82" stroke="none" stroke-width="0" fill="#a5d8ff"></path><path d="M27.43 -0.09 C32.82 -0.2, 39.51 3.35, 43.41 6.84 C47.31 10.32, 50.22 15.72, 50.84 20.82 C51.46 25.92, 50.33 32.99, 47.13 37.43 C43.93 41.86, 37 46.16, 31.65 47.42 C26.29 48.69, 19.91 47.12, 15 45 C10.08 42.88, 4.51 39.21, 2.15 34.73 C-0.21 30.24, -0.63 23.24, 0.83 18.1 C2.29 12.97, 6.18 6.96, 10.92 3.91 C15.65 0.87, 25.58 0.25, 29.23 -0.17 C32.88 -0.6, 32.62 0.96, 32.82 1.38 M15.33 1.79 C20.04 -0.76, 27.29 -0.33, 32.46 0.99 C37.62 2.31, 43.31 5.89, 46.3 9.7 C49.29 13.51, 50.92 18.66, 50.41 23.85 C49.9 29.05, 47.07 36.79, 43.24 40.87 C39.41 44.95, 32.54 48.05, 27.44 48.33 C22.33 48.61, 16.99 45.53, 12.58 42.55 C8.18 39.58, 2.55 35.21, 0.99 30.46 C-0.57 25.72, 1.22 18.67, 3.22 14.07 C5.23 9.46, 10.94 4.56, 13.02 2.86 C15.1 1.16, 15.12 3.38, 15.72 3.86" stroke="#1e1e1e" stroke-width="2" fill="none"></path></g></svg>