<svg version="1.1" xmlns="http://www.w3.org/2000/svg" viewBox="0 0 108.91314535019228 140.8422378015016" width="108.91314535019228" height="140.8422378015016">
  <!-- svg-source:excalidraw -->
  
  <defs>
    <style class="style-fonts">
      @font-face {
        font-family: "Virgil";
        src: url("https://excalidraw.com/Virgil.woff2");
      }
      @font-face {
        font-family: "Cascadia";
        src: url("https://excalidraw.com/Cascadia.woff2");
      }
      @font-face {
        font-family: "Assistant";
        src: url("https://excalidraw.com/Assistant-Regular.woff2");
      }
    </style>
    
  </defs>
  <g stroke-linecap="round" transform="translate(32.64044744318198 109.06643921733757) rotate(337.5387531331347 19.283203125 7.48828125)"><path d="M3.74 0 C13.74 -0.71, 25.55 0.05, 34.82 0 C35.07 0.7, 39.87 1.71, 38.57 3.74 C38.32 7.05, 37.94 9.6, 38.57 11.23 C40.1 15.42, 35.08 13.79, 34.82 14.98 C26.47 15.47, 15.57 16.35, 3.74 14.98 C-0.03 12.78, 2.06 13.37, 0 11.23 C0.45 8.53, -0.18 5.96, 0 3.74 C0.5 2.31, -0.96 -2.45, 3.74 0" stroke="none" stroke-width="0" fill="#868e96"></path><path d="M3.74 0 C11.96 0.68, 22.51 -0.78, 34.82 0 M3.74 0 C13.92 -0.05, 24.39 0.11, 34.82 0 M34.82 0 C36.48 -0.39, 38.52 0.61, 38.57 3.74 M34.82 0 C37.61 0.94, 38.92 2.06, 38.57 3.74 M38.57 3.74 C38.69 6.43, 38.37 9.89, 38.57 11.23 M38.57 3.74 C38.75 6.41, 38.4 9.26, 38.57 11.23 M38.57 11.23 C38.66 14.11, 37.2 15.82, 34.82 14.98 M38.57 11.23 C37.78 12.62, 36.69 15.19, 34.82 14.98 M34.82 14.98 C26.04 15.77, 15.91 15.33, 3.74 14.98 M34.82 14.98 C27.23 14.98, 20.18 14.76, 3.74 14.98 M3.74 14.98 C1.97 15.92, -0.71 13.83, 0 11.23 M3.74 14.98 C1.4 15.35, -0.2 13.83, 0 11.23 M0 11.23 C0.11 8.19, 0.04 5.75, 0 3.74 M0 11.23 C-0.07 9.71, 0.14 7.9, 0 3.74 M0 3.74 C-0.4 2.24, 1.78 0.99, 3.74 0 M0 3.74 C-0.3 1.54, 0.15 0.36, 3.74 0" stroke="#1e1e1e" stroke-width="2" fill="none"></path></g><g stroke-linecap="round" transform="translate(32.82631983901592 16.919422171883525) rotate(337.0766447889431 19.283203125 7.48828125)"><path d="M3.74 0 C16.9 0.43, 25.14 0.75, 34.82 0 C38.62 0.46, 40.81 0.35, 38.57 3.74 C37.96 5.34, 39.12 7.43, 38.57 11.23 C36.33 12.54, 37.35 17.17, 34.82 14.98 C25.59 16.52, 16.12 12.87, 3.74 14.98 C3.31 14.61, 2.08 12.47, 0 11.23 C-0.27 8.97, 0.15 6.26, 0 3.74 C-2.21 -1.2, -0.2 1.13, 3.74 0" stroke="none" stroke-width="0" fill="#868e96"></path><path d="M3.74 0 C11.91 -0.97, 18.56 -0.32, 34.82 0 M3.74 0 C12.64 0.1, 20.4 -0.17, 34.82 0 M34.82 0 C37.28 -0.64, 38.82 2.07, 38.57 3.74 M34.82 0 C37.67 0.81, 39.59 0.2, 38.57 3.74 M38.57 3.74 C38.42 6.17, 38.88 7.92, 38.57 11.23 M38.57 3.74 C38.44 5.72, 38.62 8.11, 38.57 11.23 M38.57 11.23 C38.45 14.57, 36.64 14.02, 34.82 14.98 M38.57 11.23 C37.94 13.94, 37.37 14.05, 34.82 14.98 M34.82 14.98 C28.57 15.62, 21.64 16.07, 3.74 14.98 M34.82 14.98 C23.46 14.62, 12.23 15.41, 3.74 14.98 M3.74 14.98 C0.54 15.08, 0.13 14.05, 0 11.23 M3.74 14.98 C1.04 15.08, 0.92 14.78, 0 11.23 M0 11.23 C0.06 9.33, -0.35 6.87, 0 3.74 M0 11.23 C0.14 9.49, -0.06 8.29, 0 3.74 M0 3.74 C0.53 2.24, 0.99 0.25, 3.74 0 M0 3.74 C-1.1 1.61, 1.59 0.11, 3.74 0" stroke="#1e1e1e" stroke-width="2" fill="none"></path></g><g stroke-linecap="round" transform="translate(10 32.545724255215646) rotate(0 42.630859375 38.322265625)"><path d="M19.16 0 C29.44 0.84, 47.75 0.52, 66.1 0 C81.98 -1.25, 81.79 5.59, 85.26 19.16 C86.96 34.63, 81.75 43.78, 85.26 57.48 C85.31 73.29, 78.16 78.04, 66.1 76.64 C49.2 74.08, 38.7 76.62, 19.16 76.64 C9.27 74.9, 2.12 71.74, 0 57.48 C0.85 46.89, -2.9 29.97, 0 19.16 C-2.01 7.95, 8.77 -1.16, 19.16 0" stroke="none" stroke-width="0" fill="#7950f2"></path><path d="M19.16 0 C36.49 -0.05, 52.25 0.51, 66.1 0 M19.16 0 C31.54 -0.46, 45.55 -0.7, 66.1 0 M66.1 0 C79.39 1.64, 85.87 7.8, 85.26 19.16 M66.1 0 C80.92 -2.09, 84.85 7.38, 85.26 19.16 M85.26 19.16 C86.69 28.05, 84.83 39.47, 85.26 57.48 M85.26 19.16 C85.03 27.36, 84.82 35.64, 85.26 57.48 M85.26 57.48 C83.9 68.34, 77.78 77.02, 66.1 76.64 M85.26 57.48 C85.37 68.4, 76.62 78.22, 66.1 76.64 M66.1 76.64 C46.33 78.77, 30.45 76.05, 19.16 76.64 M66.1 76.64 C53.73 77.28, 39.2 76.44, 19.16 76.64 M19.16 76.64 C6.65 77.29, -0.35 70.43, 0 57.48 M19.16 76.64 C8.23 78.76, -0.39 71.16, 0 57.48 M0 57.48 C-1.86 47.34, -1.89 37.63, 0 19.16 M0 57.48 C-0.66 45.88, 0.27 33.28, 0 19.16 M0 19.16 C-0.52 6.89, 4.48 0.63, 19.16 0 M0 19.16 C0.68 6.6, 8.23 -0.22, 19.16 0" stroke="#1e1e1e" stroke-width="2" fill="none"></path></g><g stroke-linecap="round" transform="translate(67.77755283943043 31.768827916034752) rotate(312.47556431009303 13.974609375 10.47265625)"><path d="M5.24 0 C12.57 0.68, 18.45 -2.6, 22.71 0 C22.82 -2.01, 29.51 4.13, 27.95 5.24 C28.01 9.91, 29.11 9.13, 27.95 15.71 C31.18 19.85, 24.12 22.16, 22.71 20.95 C20.27 20.04, 12.1 23.28, 5.24 20.95 C0.29 23.57, -3.18 22.23, 0 15.71 C-1.16 13.35, -0.92 10.54, 0 5.24 C-3.34 4.32, 1.76 0.25, 5.24 0" stroke="none" stroke-width="0" fill="#eaddd7"></path><path d="M5.24 0 C12.13 -1.17, 14.38 -0.93, 22.71 0 M5.24 0 C9.95 0.74, 17.2 0.16, 22.71 0 M22.71 0 C27.21 -1.25, 29.84 3.13, 27.95 5.24 M22.71 0 C25.25 -0.48, 28.5 0.23, 27.95 5.24 M27.95 5.24 C28.16 9.27, 28.39 12.84, 27.95 15.71 M27.95 5.24 C27.94 8.68, 27.76 11.8, 27.95 15.71 M27.95 15.71 C29.09 17.41, 25.55 19.13, 22.71 20.95 M27.95 15.71 C26.95 19.86, 27.76 18.76, 22.71 20.95 M22.71 20.95 C19.9 20.58, 14.06 19.37, 5.24 20.95 M22.71 20.95 C17.62 20.88, 11 21.41, 5.24 20.95 M5.24 20.95 C2.03 19.22, 0.53 20.2, 0 15.71 M5.24 20.95 C2.15 22.93, -0.8 16.98, 0 15.71 M0 15.71 C0.03 13.42, 0.64 8.99, 0 5.24 M0 15.71 C-0.1 13.25, 0.12 10.27, 0 5.24 M0 5.24 C1.12 0.76, 0.06 1.59, 5.24 0 M0 5.24 C-0.32 3.59, 0.63 1.36, 5.24 0" stroke="#1e1e1e" stroke-width="2" fill="none"></path></g><g stroke-linecap="round" transform="translate(29.94872554117137 46.22262049353867) rotate(312.47556431009303 25.4296875 23.859375)"><path d="M26.71 -0.13 C31.82 -0.05, 39.84 2.65, 43.86 6.4 C47.88 10.16, 50.33 17.35, 50.83 22.4 C51.34 27.45, 50.11 32.62, 46.89 36.71 C43.67 40.8, 36.76 45.5, 31.53 46.93 C26.29 48.35, 20.29 47.4, 15.5 45.27 C10.7 43.14, 5.23 38.65, 2.76 34.14 C0.29 29.63, -0.6 23.33, 0.67 18.22 C1.94 13.1, 4.86 6.33, 10.38 3.45 C15.89 0.57, 29.09 1.01, 33.78 0.94 C38.47 0.87, 38.67 2.55, 38.51 3.03 M27.59 0.68 C32.63 0.39, 38.18 1.78, 41.89 5.35 C45.61 8.92, 48.97 16.87, 49.89 22.11 C50.82 27.35, 50.46 32.67, 47.45 36.8 C44.44 40.93, 37.24 45.19, 31.85 46.9 C26.46 48.62, 19.82 49.44, 15.09 47.1 C10.37 44.76, 5.67 37.67, 3.51 32.87 C1.34 28.06, 1.09 22.91, 2.13 18.26 C3.16 13.62, 5.64 8.06, 9.7 5.01 C13.76 1.95, 23.73 0.54, 26.48 -0.06 C29.23 -0.66, 26.14 1.16, 26.2 1.41" stroke="none" stroke-width="0" fill="#eaddd7"></path><path d="M17.78 -0.1 C22.76 -1.55, 31.51 0.72, 36.61 3.07 C41.71 5.43, 46.25 9.43, 48.38 14.04 C50.52 18.65, 50.68 25.93, 49.44 30.73 C48.2 35.53, 45.29 39.98, 40.93 42.84 C36.57 45.7, 28.94 48.09, 23.28 47.89 C17.62 47.69, 10.69 45.37, 6.99 41.63 C3.28 37.9, 1.47 30.67, 1.06 25.49 C0.66 20.3, 1.42 14.69, 4.55 10.52 C7.67 6.35, 17.15 1.94, 19.83 0.48 C22.51 -0.99, 20.43 1.34, 20.63 1.73 M31.26 -0.88 C36.45 -0.5, 41.63 3.29, 44.79 7.58 C47.94 11.86, 50.07 19.73, 50.2 24.83 C50.33 29.93, 49.14 34.17, 45.55 38.18 C41.97 42.2, 34.11 47.67, 28.68 48.93 C23.26 50.19, 17.64 48.58, 13.02 45.74 C8.4 42.9, 3.07 36.9, 0.95 31.89 C-1.17 26.88, -1.81 20.47, 0.31 15.67 C2.42 10.86, 8.44 5.63, 13.66 3.07 C18.87 0.51, 28.88 0.55, 31.61 0.32 C34.35 0.09, 30.34 1.5, 30.09 1.7" stroke="#1e1e1e" stroke-width="2" fill="none"></path></g></svg>