<svg version="1.1" xmlns="http://www.w3.org/2000/svg" viewBox="0 0 114.98702566964494 140.8422378015016" width="114.98702566964494" height="140.8422378015016">
  <!-- svg-source:excalidraw -->
  
  <defs>
    <style class="style-fonts">
      @font-face {
        font-family: "Virgil";
        src: url("https://excalidraw.com/Virgil.woff2");
      }
      @font-face {
        font-family: "Cascadia";
        src: url("https://excalidraw.com/Cascadia.woff2");
      }
      @font-face {
        font-family: "Assistant";
        src: url("https://excalidraw.com/Assistant-Regular.woff2");
      }
    </style>
    
  </defs>
  <g stroke-linecap="round" transform="translate(42.36575436282692 109.06643921733757) rotate(337.5387531331347 19.283203125 7.48828125)"><path d="M3.74 0 C13.71 0.38, 28.24 -0.17, 34.82 0 C38.32 0.58, 38.04 2.71, 38.57 3.74 C38.35 6.4, 38.01 8.07, 38.57 11.23 C39.64 14.11, 36.72 16.11, 34.82 14.98 C22.46 13.18, 16.11 16.36, 3.74 14.98 C0.41 14.12, 0.14 13.9, 0 11.23 C0.81 8.42, -0.63 5.58, 0 3.74 C-1.43 1.03, -0.61 1.51, 3.74 0" stroke="none" stroke-width="0" fill="#868e96"></path><path d="M3.74 0 C14.57 0.84, 23.07 -0.23, 34.82 0 M3.74 0 C14.83 0.46, 24.99 0, 34.82 0 M34.82 0 C38.3 -0.96, 37.71 0.34, 38.57 3.74 M34.82 0 C37.43 0.44, 38.43 2.22, 38.57 3.74 M38.57 3.74 C38.6 5.5, 38.23 6.85, 38.57 11.23 M38.57 3.74 C38.7 6.39, 38.78 9.39, 38.57 11.23 M38.57 11.23 C38.15 13.52, 37.56 14.32, 34.82 14.98 M38.57 11.23 C39.4 14.81, 36.5 15.1, 34.82 14.98 M34.82 14.98 C25.18 15.75, 16.27 14.78, 3.74 14.98 M34.82 14.98 C24.56 14.56, 13.56 14.55, 3.74 14.98 M3.74 14.98 C0.81 15.26, 0.68 12.78, 0 11.23 M3.74 14.98 C0.79 16.12, 0.61 14.87, 0 11.23 M0 11.23 C0.11 9.29, 0.02 7.43, 0 3.74 M0 11.23 C0.03 8.9, 0.06 6.97, 0 3.74 M0 3.74 C0.18 2.11, 0.9 -0.96, 3.74 0 M0 3.74 C-0.25 1.74, 0.55 0.08, 3.74 0" stroke="#1e1e1e" stroke-width="2" fill="none"></path></g><g stroke-linecap="round" transform="translate(42.55162675865904 16.919422171883525) rotate(337.0766447889431 19.283203125 7.48828125)"><path d="M3.74 0 C12.59 -0.52, 18.06 0.57, 34.82 0 C36.79 1.46, 37.29 -0.95, 38.57 3.74 C38.08 7.16, 38.95 9.57, 38.57 11.23 C37.96 14.86, 37.82 16.04, 34.82 14.98 C29.27 16.47, 20.61 13.9, 3.74 14.98 C1.39 15.15, 2.57 15.42, 0 11.23 C-0.65 10, -0.62 8.02, 0 3.74 C-1.86 2.76, 0.69 -1.69, 3.74 0" stroke="none" stroke-width="0" fill="#868e96"></path><path d="M3.74 0 C13.1 -0.32, 24.7 -0.75, 34.82 0 M3.74 0 C11.65 -0.19, 20.2 -0.6, 34.82 0 M34.82 0 C36.47 -0.9, 38.66 1.63, 38.57 3.74 M34.82 0 C37.18 0.97, 37.78 0.14, 38.57 3.74 M38.57 3.74 C38.27 5.22, 38.83 7.77, 38.57 11.23 M38.57 3.74 C38.76 6.14, 38.51 8.24, 38.57 11.23 M38.57 11.23 C38.81 13.07, 38.04 15.92, 34.82 14.98 M38.57 11.23 C37.75 13.85, 37.47 15.35, 34.82 14.98 M34.82 14.98 C26.97 14.93, 17.67 14.58, 3.74 14.98 M34.82 14.98 C24.74 14.38, 14.77 14.98, 3.74 14.98 M3.74 14.98 C1.93 14.03, -0.4 14.72, 0 11.23 M3.74 14.98 C1.86 16.12, -0.3 14.02, 0 11.23 M0 11.23 C0.02 10, -0.05 8.11, 0 3.74 M0 11.23 C0.04 8.7, 0.03 6.13, 0 3.74 M0 3.74 C-0.35 0.28, 1.03 0.43, 3.74 0 M0 3.74 C-0.69 1.33, 1.92 0.75, 3.74 0" stroke="#1e1e1e" stroke-width="2" fill="none"></path></g><g stroke-linecap="round" transform="translate(19.725306919644936 32.545724255215646) rotate(0 42.630859375 38.322265625)"><path d="M19.16 0 C34.69 0.97, 46.71 2.19, 66.1 0 C77.1 -3.04, 88.11 5.88, 85.26 19.16 C86.41 34.26, 84.09 49.86, 85.26 57.48 C85.95 71.73, 75.82 73.26, 66.1 76.64 C53.47 76.02, 43.37 77.45, 19.16 76.64 C9.95 78.99, -3.28 73.49, 0 57.48 C-1.59 44.99, -2.17 35.21, 0 19.16 C-0.78 4.04, 9.32 -1.45, 19.16 0" stroke="none" stroke-width="0" fill="#7950f2"></path><path d="M19.16 0 C38.28 -1.13, 54.81 1.78, 66.1 0 M19.16 0 C37.96 -0.9, 53.94 -0.84, 66.1 0 M66.1 0 C79.07 0.77, 85.03 8.08, 85.26 19.16 M66.1 0 C77.31 -2.21, 84.01 6.82, 85.26 19.16 M85.26 19.16 C86.32 32.73, 85 43.51, 85.26 57.48 M85.26 19.16 C85.21 28.05, 85.86 36.7, 85.26 57.48 M85.26 57.48 C86.7 72.14, 77.45 76.85, 66.1 76.64 M85.26 57.48 C85.57 71, 78.47 76.85, 66.1 76.64 M66.1 76.64 C49.05 75.52, 30.8 77.7, 19.16 76.64 M66.1 76.64 C55.78 76.51, 47.02 75.27, 19.16 76.64 M19.16 76.64 C5.59 78.63, 1.06 72.24, 0 57.48 M19.16 76.64 C5.79 77.23, -2.19 70.98, 0 57.48 M0 57.48 C-0.22 44.57, 0.99 32.52, 0 19.16 M0 57.48 C0.07 50.16, -0.45 40.14, 0 19.16 M0 19.16 C-0.44 7.24, 5.18 0.14, 19.16 0 M0 19.16 C1.35 7.88, 4.41 -1.05, 19.16 0" stroke="#1e1e1e" stroke-width="2" fill="none"></path></g><g stroke-linecap="round" transform="translate(10 58.64210104360882) rotate(0 13.974609375 10.47265625)"><path d="M5.24 0 C9.5 1.69, 13.48 -2.73, 22.71 0 C29.06 -0.5, 30.83 0, 27.95 5.24 C27.59 9.82, 28.39 13.53, 27.95 15.71 C24.89 15.81, 24.2 22.51, 22.71 20.95 C16.49 21.05, 13.03 22.89, 5.24 20.95 C-1.53 24.17, 0.65 17.11, 0 15.71 C-1.24 13.31, -0.3 7.49, 0 5.24 C2.93 0.29, 4.37 -3.18, 5.24 0" stroke="none" stroke-width="0" fill="#eaddd7"></path><path d="M5.24 0 C9.41 1.59, 16.49 -0.14, 22.71 0 M5.24 0 C9.5 -0.62, 15.34 0.5, 22.71 0 M22.71 0 C25.97 1.69, 26.59 -0.18, 27.95 5.24 M22.71 0 C24.95 0.43, 28.06 -0.11, 27.95 5.24 M27.95 5.24 C28.05 7.88, 27.37 10.46, 27.95 15.71 M27.95 5.24 C28.03 8.76, 28.28 13.46, 27.95 15.71 M27.95 15.71 C26.53 19.41, 26.47 21.59, 22.71 20.95 M27.95 15.71 C27.54 19.4, 28.05 23.06, 22.71 20.95 M22.71 20.95 C18.1 21.85, 11.26 20.29, 5.24 20.95 M22.71 20.95 C19.65 20.17, 15.06 21.86, 5.24 20.95 M5.24 20.95 C2.81 22.93, -0.52 19.71, 0 15.71 M5.24 20.95 C-0.45 21.67, 0.68 19.41, 0 15.71 M0 15.71 C0.55 11.88, -0.89 8.02, 0 5.24 M0 15.71 C-0.2 11.54, -0.13 8.6, 0 5.24 M0 5.24 C-1.21 1.88, 2.92 1.3, 5.24 0 M0 5.24 C-1.98 0.7, 1.77 1.94, 5.24 0" stroke="#1e1e1e" stroke-width="2" fill="none"></path></g><g stroke-linecap="round" transform="translate(36.888671875 44.60303854360882) rotate(0 25.4296875 23.859375)"><path d="M13.86 3.46 C18.24 0.89, 25.54 -0.58, 30.92 0.44 C36.31 1.45, 43 5.41, 46.17 9.54 C49.34 13.68, 50.23 20.14, 49.97 25.25 C49.71 30.36, 48.03 36.56, 44.62 40.22 C41.21 43.87, 35.17 46.6, 29.53 47.18 C23.88 47.76, 15.39 46.52, 10.73 43.72 C6.07 40.91, 3.03 35.1, 1.58 30.35 C0.13 25.61, -0.68 20.23, 2.04 15.24 C4.76 10.25, 14.81 2.81, 17.9 0.41 C20.98 -1.99, 20.38 0.37, 20.55 0.86 M31.16 -0.29 C36.03 0.59, 40.7 5.76, 43.95 10.06 C47.19 14.36, 50.66 20.45, 50.65 25.51 C50.63 30.57, 47.31 36.73, 43.87 40.42 C40.43 44.11, 35.31 46.9, 29.99 47.65 C24.67 48.41, 16.68 47.52, 11.96 44.95 C7.23 42.37, 3.58 37.39, 1.66 32.21 C-0.26 27.03, -1.34 18.63, 0.43 13.87 C2.2 9.1, 7.15 5.95, 12.3 3.63 C17.44 1.31, 28.4 0.4, 31.31 -0.04 C34.21 -0.48, 29.95 0.28, 29.72 1" stroke="none" stroke-width="0" fill="#eaddd7"></path><path d="M22.68 -0.79 C27.69 -1.59, 34.82 1.52, 39.46 4.64 C44.09 7.77, 48.87 13.12, 50.49 17.95 C52.1 22.78, 51.75 29.1, 49.14 33.62 C46.53 38.15, 39.91 42.9, 34.83 45.1 C29.74 47.31, 23.84 48.32, 18.63 46.85 C13.41 45.37, 6.52 40.32, 3.55 36.24 C0.58 32.15, 0.12 27.17, 0.82 22.33 C1.52 17.49, 2.8 10.67, 7.78 7.21 C12.75 3.75, 25.48 2.23, 30.66 1.58 C35.83 0.94, 38.86 3.06, 38.83 3.33 M16.16 1.43 C20.81 -0.58, 29.6 0.25, 34.81 2.1 C40.03 3.94, 44.65 7.86, 47.44 12.49 C50.24 17.12, 52.63 24.77, 51.58 29.86 C50.52 34.95, 45.69 40.02, 41.12 43.04 C36.54 46.06, 29.38 48.43, 24.12 48 C18.86 47.57, 13.59 44.12, 9.54 40.48 C5.49 36.83, 0.9 30.91, -0.19 26.15 C-1.27 21.4, -0.05 16.32, 3.02 11.94 C6.09 7.55, 15.95 1.31, 18.24 -0.15 C20.54 -1.6, 16.69 2.35, 16.79 3.21" stroke="#1e1e1e" stroke-width="2" fill="none"></path></g></svg>