<svg version="1.1" xmlns="http://www.w3.org/2000/svg" viewBox="0 0 108.6787703501941 140.8422378015016" width="108.6787703501941" height="140.8422378015016">
  <!-- svg-source:excalidraw -->
  
  <defs>
    <style class="style-fonts">
      @font-face {
        font-family: "Virgil";
        src: url("https://excalidraw.com/Virgil.woff2");
      }
      @font-face {
        font-family: "Cascadia";
        src: url("https://excalidraw.com/Cascadia.woff2");
      }
      @font-face {
        font-family: "Assistant";
        src: url("https://excalidraw.com/Assistant-Regular.woff2");
      }
    </style>
    
  </defs>
  <g stroke-linecap="round" transform="translate(36.05749904337608 109.06643921733757) rotate(337.5387531331347 19.283203125 7.48828125)"><path d="M3.74 0 C13.1 -1.48, 20.42 1.62, 34.82 0 C39.01 -2.23, 37.38 1.28, 38.57 3.74 C38.76 6.42, 39.09 9.02, 38.57 11.23 C36.37 15.79, 36.96 17.06, 34.82 14.98 C27.39 14.54, 20.32 15.64, 3.74 14.98 C2.31 12.77, -2.45 12.28, 0 11.23 C-0.38 8.71, 0 7.05, 0 3.74 C1.69 -1.12, 3.58 0.47, 3.74 0" stroke="none" stroke-width="0" fill="#868e96"></path><path d="M3.74 0 C14.89 0.09, 26.18 0.39, 34.82 0 M3.74 0 C16.06 -0.56, 27.39 0.11, 34.82 0 M34.82 0 C36.71 -0.43, 39.42 2.04, 38.57 3.74 M34.82 0 C37.16 -0.15, 39.7 0.14, 38.57 3.74 M38.57 3.74 C38.68 5.31, 38.85 6.7, 38.57 11.23 M38.57 3.74 C38.55 5.12, 38.36 6.93, 38.57 11.23 M38.57 11.23 C39.51 13.75, 37.82 14.35, 34.82 14.98 M38.57 11.23 C39.65 14.53, 36.84 14.73, 34.82 14.98 M34.82 14.98 C25.69 14.38, 14.79 15.22, 3.74 14.98 M34.82 14.98 C24.9 15.45, 14.09 15.19, 3.74 14.98 M3.74 14.98 C0.72 15.17, 0.57 12.83, 0 11.23 M3.74 14.98 C0.87 13.93, -0.5 14.06, 0 11.23 M0 11.23 C0.41 8.68, 0.41 5.63, 0 3.74 M0 11.23 C0.09 8.81, 0.19 6.34, 0 3.74 M0 3.74 C-0.15 1.76, 1.39 -0.86, 3.74 0 M0 3.74 C0.31 1.83, 1.45 0.99, 3.74 0" stroke="#1e1e1e" stroke-width="2" fill="none"></path></g><g stroke-linecap="round" transform="translate(36.243371439208204 16.919422171883525) rotate(337.0766447889431 19.283203125 7.48828125)"><path d="M3.74 0 C12.56 1.77, 22.7 -1.99, 34.82 0 C36.13 0.03, 40.76 0.73, 38.57 3.74 C39.13 5.8, 37.77 9.59, 38.57 11.23 C38.2 15.81, 36.06 16.51, 34.82 14.98 C25.35 15.38, 14.68 12.68, 3.74 14.98 C-1.2 13.53, 1.13 15.45, 0 11.23 C0.1 10.19, 0.67 6.34, 0 3.74 C2.33 1.72, -0.26 0.87, 3.74 0" stroke="none" stroke-width="0" fill="#868e96"></path><path d="M3.74 0 C9.83 0.26, 18.01 0.31, 34.82 0 M3.74 0 C15.17 0.36, 26.46 -0.07, 34.82 0 M34.82 0 C38.17 0.8, 38.43 1.12, 38.57 3.74 M34.82 0 C38.45 -1.1, 37.59 0.21, 38.57 3.74 M38.57 3.74 C38.9 5.81, 38.22 8.18, 38.57 11.23 M38.57 3.74 C38.38 6.26, 38.75 8.52, 38.57 11.23 M38.57 11.23 C39.07 13.1, 38.26 15.67, 34.82 14.98 M38.57 11.23 C38.09 13.49, 37.59 14.22, 34.82 14.98 M34.82 14.98 C23.36 15, 12.02 14.69, 3.74 14.98 M34.82 14.98 C25.14 15.32, 15.37 15.21, 3.74 14.98 M3.74 14.98 C1.82 14.08, -0.32 12.82, 0 11.23 M3.74 14.98 C0.75 15.31, 0.78 12.64, 0 11.23 M0 11.23 C0.33 9.19, 0.06 6.98, 0 3.74 M0 11.23 C0.14 8.73, -0.04 6.36, 0 3.74 M0 3.74 C0.14 0.38, 1.52 0.5, 3.74 0 M0 3.74 C0.2 2.24, 0.85 -1.11, 3.74 0" stroke="#1e1e1e" stroke-width="2" fill="none"></path></g><g stroke-linecap="round" transform="translate(13.4170516001941 32.545724255215646) rotate(0 42.630859375 38.322265625)"><path d="M19.16 0 C32.75 -3.59, 40.01 -0.45, 66.1 0 C81.91 -0.71, 86.65 7.19, 85.26 19.16 C82.61 32.73, 85.15 43.49, 85.26 57.48 C83.51 72.38, 80.36 77.18, 66.1 76.64 C54.58 73.75, 36.72 74.8, 19.16 76.64 C7.95 79.03, -1.16 69.07, 0 57.48 C2.3 42.49, 3.18 34.71, 0 19.16 C-2.08 7.6, 4.4 -0.31, 19.16 0" stroke="none" stroke-width="0" fill="#7950f2"></path><path d="M19.16 0 C34.68 0.49, 48.33 1.66, 66.1 0 M19.16 0 C28.37 -0.63, 39.65 0.59, 66.1 0 M66.1 0 C78.59 -0.26, 87.23 4.47, 85.26 19.16 M66.1 0 C76.91 -2.08, 85.48 7.27, 85.26 19.16 M85.26 19.16 C83.67 29.12, 85.96 41.35, 85.26 57.48 M85.26 19.16 C85.83 27.6, 85.39 35.36, 85.26 57.48 M85.26 57.48 C87.15 71.64, 78.04 76.22, 66.1 76.64 M85.26 57.48 C85.81 68.75, 80.53 78.81, 66.1 76.64 M66.1 76.64 C56 76.35, 44.78 78.31, 19.16 76.64 M66.1 76.64 C47.19 77.02, 29.89 75.93, 19.16 76.64 M19.16 76.64 C5.74 74.83, -0.87 70.83, 0 57.48 M19.16 76.64 C7.95 74.46, -0.91 72.54, 0 57.48 M0 57.48 C0.13 42.04, 0.25 31.01, 0 19.16 M0 57.48 C-0.45 46.15, -0.16 32.92, 0 19.16 M0 19.16 C0.53 7.39, 6.74 1.73, 19.16 0 M0 19.16 C-0.8 4.17, 5.88 0.98, 19.16 0" stroke="#1e1e1e" stroke-width="2" fill="none"></path></g><g stroke-linecap="round" transform="translate(13.186373760761853 30.81458684460722) rotate(47.524435689906944 13.974609375 10.47265625)"><path d="M5.24 0 C13.95 -0.17, 20.2 -1.26, 22.71 0 C28.33 1.48, 28.48 0.91, 27.95 5.24 C26.39 7.06, 26.94 13.25, 27.95 15.71 C30.33 18.04, 25.02 21.15, 22.71 20.95 C14.49 23.97, 12.56 19.33, 5.24 20.95 C2.96 18.96, -0.31 16.63, 0 15.71 C1.57 11.2, 1.42 6.54, 0 5.24 C3.03 -1.37, 4.92 1.23, 5.24 0" stroke="none" stroke-width="0" fill="#eaddd7"></path><path d="M5.24 0 C11.73 1.75, 17.01 -1.47, 22.71 0 M5.24 0 C8.8 0.67, 11.97 -0.91, 22.71 0 M22.71 0 C25.11 0.38, 28.04 0.13, 27.95 5.24 M22.71 0 C23.95 1.57, 30.12 1.8, 27.95 5.24 M27.95 5.24 C28.61 8.47, 27.66 12.82, 27.95 15.71 M27.95 5.24 C27.65 7.74, 28.09 10.31, 27.95 15.71 M27.95 15.71 C27.6 19.38, 27.81 22.78, 22.71 20.95 M27.95 15.71 C27.56 20.11, 25 21.38, 22.71 20.95 M22.71 20.95 C14.89 20.13, 10.74 22.07, 5.24 20.95 M22.71 20.95 C19.59 21.99, 15.31 21.34, 5.24 20.95 M5.24 20.95 C-0.16 21.57, 0.59 19.38, 0 15.71 M5.24 20.95 C3.59 20.73, -0.34 20.38, 0 15.71 M0 15.71 C0.62 12.6, 0.99 8.76, 0 5.24 M0 15.71 C-0.29 13.61, 0.33 11.79, 0 5.24 M0 5.24 C-1.72 0.83, 1.77 1.68, 5.24 0 M0 5.24 C-0.45 2.63, 2.26 -0.47, 5.24 0" stroke="#1e1e1e" stroke-width="2" fill="none"></path></g><g stroke-linecap="round" transform="translate(28.10504480902091 45.26837942211296) rotate(47.524435689906944 25.4296875 23.859375)"><path d="M35.88 2.04 C40.65 3.73, 44.76 8.74, 47.23 13.3 C49.7 17.86, 51.65 24.53, 50.71 29.41 C49.77 34.29, 46.19 39.56, 41.59 42.57 C37 45.58, 28.64 47.78, 23.13 47.46 C17.62 47.15, 12.32 44.05, 8.51 40.7 C4.7 37.35, 0.88 32.47, 0.26 27.35 C-0.37 22.23, 1.87 14.38, 4.76 10 C7.64 5.62, 11.68 2.13, 17.54 1.05 C23.41 -0.02, 35.78 2.6, 39.94 3.54 C44.11 4.49, 42.91 6.25, 42.5 6.72 M19.02 1.92 C24.05 0.39, 30.77 1.21, 35.81 3.28 C40.85 5.35, 46.97 9.71, 49.26 14.34 C51.55 18.96, 51.09 26.06, 49.54 31.05 C47.99 36.03, 44.64 41.71, 39.98 44.23 C35.31 46.75, 27.15 46.7, 21.54 46.18 C15.94 45.66, 9.75 44.63, 6.33 41.12 C2.92 37.6, 1.39 30.28, 1.06 25.08 C0.73 19.89, 1.29 13.77, 4.34 9.95 C7.38 6.14, 16.67 3.89, 19.33 2.2 C22 0.51, 20.02 -0.37, 20.33 -0.18" stroke="none" stroke-width="0" fill="#eaddd7"></path><path d="M15.3 2.02 C20.17 -0.4, 28.08 -1.11, 33.1 0.19 C38.13 1.49, 42.47 5.49, 45.44 9.82 C48.42 14.16, 51.43 21.21, 50.93 26.22 C50.42 31.24, 46.23 36.19, 42.43 39.92 C38.62 43.65, 33.37 47.95, 28.08 48.59 C22.78 49.23, 15.31 46.74, 10.66 43.77 C6.01 40.79, 1.42 35.85, 0.18 30.75 C-1.07 25.65, 0.6 17.94, 3.18 13.14 C5.77 8.35, 13.47 3.75, 15.66 1.99 C17.86 0.23, 16.01 2.36, 16.36 2.57 M26.48 0.16 C31.83 0.26, 39.97 4.21, 43.96 7.77 C47.95 11.33, 50.08 16.63, 50.41 21.53 C50.75 26.42, 48.76 33.16, 45.98 37.13 C43.2 41.09, 38.9 44.11, 33.74 45.33 C28.58 46.55, 20.29 46.16, 15.02 44.47 C9.76 42.77, 4.35 39.7, 2.13 35.14 C-0.1 30.58, 0.43 21.89, 1.66 17.09 C2.9 12.28, 5.2 8.9, 9.51 6.3 C13.83 3.71, 24.74 2.42, 27.54 1.52 C30.34 0.62, 26.72 0.66, 26.32 0.89" stroke="#1e1e1e" stroke-width="2" fill="none"></path></g></svg>