<svg version="1.1" xmlns="http://www.w3.org/2000/svg" viewBox="0 0 105.26171875 140.8422378015016" width="105.26171875" height="140.8422378015016">
  <!-- svg-source:excalidraw -->
  
  <defs>
    <style class="style-fonts">
      @font-face {
        font-family: "Virgil";
        src: url("https://excalidraw.com/Virgil.woff2");
      }
      @font-face {
        font-family: "Cascadia";
        src: url("https://excalidraw.com/Cascadia.woff2");
      }
      @font-face {
        font-family: "Assistant";
        src: url("https://excalidraw.com/Assistant-Regular.woff2");
      }
    </style>
    
  </defs>
  <g stroke-linecap="round" transform="translate(32.64044744318198 109.06643921733757) rotate(337.5387531331347 19.283203125 7.48828125)"><path d="M3.74 0 C10.48 -0.98, 16.47 -1.91, 34.82 0 C36.63 -2.22, 38.07 3.26, 38.57 3.74 C39.02 6.49, 38.81 7.85, 38.57 11.23 C36.65 12.58, 35.35 15.94, 34.82 14.98 C25.82 13.38, 12.68 17.36, 3.74 14.98 C3.2 14.15, 1.27 15.24, 0 11.23 C0.45 9.52, 0.47 7.8, 0 3.74 C1.72 2.65, 2.88 2.55, 3.74 0" stroke="none" stroke-width="0" fill="#868e96"></path><path d="M3.74 0 C14.71 0.61, 26.62 0.33, 34.82 0 M3.74 0 C15.68 -0.02, 27.15 0.38, 34.82 0 M34.82 0 C37.06 0.38, 39.49 1.21, 38.57 3.74 M34.82 0 C36.89 0.15, 39.33 0.55, 38.57 3.74 M38.57 3.74 C38.25 6.23, 38.54 8.98, 38.57 11.23 M38.57 3.74 C38.71 5.43, 38.44 7.32, 38.57 11.23 M38.57 11.23 C37.88 14.18, 37.6 15.03, 34.82 14.98 M38.57 11.23 C37.58 13.16, 37.19 16.04, 34.82 14.98 M34.82 14.98 C27.97 14.95, 20.95 14.82, 3.74 14.98 M34.82 14.98 C27.84 15.15, 19.64 15.27, 3.74 14.98 M3.74 14.98 C0.4 15.34, 0.24 13.67, 0 11.23 M3.74 14.98 C2.23 14.52, -0.15 14.8, 0 11.23 M0 11.23 C-0.23 9.35, -0.28 8.21, 0 3.74 M0 11.23 C-0.06 9.54, -0.11 7.53, 0 3.74 M0 3.74 C-0.28 2.02, 1.88 0.3, 3.74 0 M0 3.74 C-0.14 0.99, 1.15 1.13, 3.74 0" stroke="#1e1e1e" stroke-width="2" fill="none"></path></g><g stroke-linecap="round" transform="translate(32.826319839014104 16.919422171883525) rotate(337.0766447889431 19.283203125 7.48828125)"><path d="M3.74 0 C14.52 -1.47, 27.01 -2.12, 34.82 0 C36.82 2.01, 38.71 0.98, 38.57 3.74 C38.86 5.38, 37.9 7.53, 38.57 11.23 C36.6 14.69, 37.72 14.71, 34.82 14.98 C24.11 17.29, 20.41 13.93, 3.74 14.98 C2.52 16.49, -1.04 15.53, 0 11.23 C0.49 8.84, 0.59 6.06, 0 3.74 C1.63 3.8, 0.18 -0.36, 3.74 0" stroke="none" stroke-width="0" fill="#868e96"></path><path d="M3.74 0 C15.05 0.28, 25.29 -0.39, 34.82 0 M3.74 0 C12.51 0.36, 20.82 0.21, 34.82 0 M34.82 0 C38.25 -0.04, 38.19 1.38, 38.57 3.74 M34.82 0 C38.09 -0.7, 39.11 0.15, 38.57 3.74 M38.57 3.74 C38.55 6.39, 38.28 8.62, 38.57 11.23 M38.57 3.74 C38.51 6.08, 38.47 8.24, 38.57 11.23 M38.57 11.23 C38.85 13.79, 36.46 14.48, 34.82 14.98 M38.57 11.23 C38.44 14.79, 36.44 15.7, 34.82 14.98 M34.82 14.98 C28.29 14.97, 21.07 14.06, 3.74 14.98 M34.82 14.98 C27.06 15.45, 19.7 15.24, 3.74 14.98 M3.74 14.98 C1.49 14.91, 0.86 13.33, 0 11.23 M3.74 14.98 C1.1 16.05, -1.12 13.72, 0 11.23 M0 11.23 C-0.25 8.68, -0.21 5.9, 0 3.74 M0 11.23 C-0.12 8.76, -0.04 6.72, 0 3.74 M0 3.74 C0.63 1.55, 1.13 -0.22, 3.74 0 M0 3.74 C-0.09 2.38, 0.37 -0.54, 3.74 0" stroke="#1e1e1e" stroke-width="2" fill="none"></path></g><g stroke-linecap="round" transform="translate(10 32.545724255215646) rotate(0 42.630859375 38.322265625)"><path d="M19.16 0 C31.15 -2.56, 44.34 3.29, 66.1 0 C79.07 -0.36, 84.58 8.1, 85.26 19.16 C82.79 30.87, 82.72 47.08, 85.26 57.48 C85.82 69.88, 77.55 77.76, 66.1 76.64 C57.33 76.33, 44.91 79.56, 19.16 76.64 C4.94 79.13, 2.89 72.16, 0 57.48 C2 47.02, 1.87 36.21, 0 19.16 C-1.47 5.89, 8.27 -0.68, 19.16 0" stroke="none" stroke-width="0" fill="#7950f2"></path><path d="M19.16 0 C37.82 -0.75, 53.06 1.08, 66.1 0 M19.16 0 C32.49 0.06, 47.27 -0.36, 66.1 0 M66.1 0 C78.13 0.26, 86.6 5.17, 85.26 19.16 M66.1 0 C79.95 -2.19, 86.39 4.66, 85.26 19.16 M85.26 19.16 C83.88 27.69, 85.17 41.86, 85.26 57.48 M85.26 19.16 C84.38 30.32, 85.35 40.63, 85.26 57.48 M85.26 57.48 C83.55 69.26, 78.66 78.5, 66.1 76.64 M85.26 57.48 C83.51 71.71, 76.83 76.87, 66.1 76.64 M66.1 76.64 C50.24 74.77, 35.61 78.24, 19.16 76.64 M66.1 76.64 C48.63 77.38, 33.1 76.95, 19.16 76.64 M19.16 76.64 C8.1 75.85, -0.26 72.13, 0 57.48 M19.16 76.64 C4.15 76.63, 0.99 68.84, 0 57.48 M0 57.48 C-0.97 48.69, 0.5 41.15, 0 19.16 M0 57.48 C-0.01 44.9, 0.9 31.07, 0 19.16 M0 19.16 C-0.24 5.94, 6.22 1.96, 19.16 0 M0 19.16 C-1.75 5.3, 8.35 -0.19, 19.16 0" stroke="#1e1e1e" stroke-width="2" fill="none"></path></g><g stroke-linecap="round" transform="translate(38.662819688312084 96.89204723666899) rotate(269.315648468081 13.974609375 10.47265625)"><path d="M5.24 0 C9.55 -2.15, 17.79 0.72, 22.71 0 C25.83 -1.32, 29.06 -0.25, 27.95 5.24 C27.54 8.28, 29.23 8.73, 27.95 15.71 C30.44 22.09, 28.11 21.8, 22.71 20.95 C18.2 23.13, 13.38 19.87, 5.24 20.95 C1.25 22.82, -0.68 18.08, 0 15.71 C0.35 13.29, -0.63 9.76, 0 5.24 C-1.01 4.51, 2.84 -1.13, 5.24 0" stroke="none" stroke-width="0" fill="#eaddd7"></path><path d="M5.24 0 C12.33 1.23, 17.9 0.88, 22.71 0 M5.24 0 C8.56 0.15, 12.47 -0.48, 22.71 0 M22.71 0 C24.34 -0.11, 29.87 1.33, 27.95 5.24 M22.71 0 C25.07 1.55, 26.36 2.79, 27.95 5.24 M27.95 5.24 C27.43 8.56, 28.93 11.31, 27.95 15.71 M27.95 5.24 C27.91 9.06, 27.85 12.52, 27.95 15.71 M27.95 15.71 C26.09 17.93, 27.81 22.03, 22.71 20.95 M27.95 15.71 C26.03 21.01, 24.25 21.79, 22.71 20.95 M22.71 20.95 C16.36 20.87, 13.03 19.39, 5.24 20.95 M22.71 20.95 C16.62 20.19, 12.28 20.29, 5.24 20.95 M5.24 20.95 C0.7 21.16, -0.84 20.17, 0 15.71 M5.24 20.95 C0.12 19.17, -0.64 20.97, 0 15.71 M0 15.71 C-0.27 11.82, 1 7.31, 0 5.24 M0 15.71 C-0.22 12.82, -0.41 10.27, 0 5.24 M0 5.24 C-1.7 1.36, 3.29 0.11, 5.24 0 M0 5.24 C-0.23 1.31, 2.84 1.08, 5.24 0" stroke="#1e1e1e" stroke-width="2" fill="none"></path></g><g stroke-linecap="round" transform="translate(27.402064732141298 45.15652205235074) rotate(269.315648468081 25.4296875 23.859375)"><path d="M17.38 2.11 C22.3 0.17, 29.34 -0.33, 34.31 1.28 C39.27 2.88, 44.3 7.44, 47.16 11.74 C50.03 16.05, 52.44 21.93, 51.48 27.12 C50.51 32.32, 45.74 39.52, 41.4 42.91 C37.07 46.3, 30.92 47.69, 25.47 47.47 C20.03 47.26, 12.94 44.98, 8.72 41.61 C4.5 38.24, 1.07 32.07, 0.15 27.27 C-0.78 22.47, -0.25 17.29, 3.15 12.81 C6.55 8.32, 17 2.33, 20.53 0.36 C24.05 -1.62, 24.13 0.52, 24.29 0.97 M18.19 1.25 C23.36 -0.13, 31.86 0.04, 36.85 2.28 C41.84 4.51, 46.1 10.2, 48.13 14.66 C50.16 19.11, 50.2 24, 49.03 29.02 C47.85 34.04, 45.54 41.57, 41.07 44.79 C36.61 48.01, 27.77 49.15, 22.25 48.32 C16.73 47.49, 11.5 43.41, 7.98 39.8 C4.45 36.19, 1.48 31.63, 1.1 26.69 C0.71 21.75, 2.5 14.37, 5.68 10.16 C8.85 5.94, 17.7 2.77, 20.16 1.41 C22.62 0.04, 20.32 1.46, 20.44 1.97" stroke="none" stroke-width="0" fill="#eaddd7"></path><path d="M30.58 0.36 C35.85 1.13, 42.62 5.74, 45.88 9.74 C49.13 13.74, 50.45 19.1, 50.12 24.35 C49.78 29.6, 47.51 37.43, 43.85 41.22 C40.18 45.01, 33.43 46.76, 28.14 47.07 C22.85 47.38, 16.54 45.77, 12.1 43.08 C7.66 40.4, 3.17 35.88, 1.51 30.95 C-0.15 26.02, 0.15 18.28, 2.15 13.52 C4.16 8.77, 8.17 4.59, 13.55 2.41 C18.93 0.24, 30.69 0.62, 34.44 0.48 C38.19 0.33, 36.33 1.03, 36.06 1.55 M24.41 -0.95 C29.8 -0.89, 39.13 2.92, 43.27 6.62 C47.42 10.32, 48.83 16.25, 49.29 21.25 C49.74 26.25, 48.51 32.47, 45.99 36.65 C43.46 40.82, 38.84 44.82, 34.12 46.31 C29.4 47.79, 22.85 47.13, 17.66 45.56 C12.48 43.99, 6.14 41.25, 3.03 36.88 C-0.09 32.51, -2.17 24.76, -1.01 19.36 C0.16 13.95, 5.8 7.84, 10.02 4.43 C14.25 1.02, 21.7 -0.29, 24.34 -1.11 C26.98 -1.92, 25.75 -1.07, 25.86 -0.46" stroke="#1e1e1e" stroke-width="2" fill="none"></path></g></svg>