<svg version="1.1" xmlns="http://www.w3.org/2000/svg" viewBox="0 0 106.89305606447624 140.8422378015016" width="106.89305606447624" height="140.8422378015016">
  <!-- svg-source:excalidraw -->
  
  <defs>
    <style class="style-fonts">
      @font-face {
        font-family: "Virgil";
        src: url("https://excalidraw.com/Virgil.woff2");
      }
      @font-face {
        font-family: "Cascadia";
        src: url("https://excalidraw.com/Cascadia.woff2");
      }
      @font-face {
        font-family: "Assistant";
        src: url("https://excalidraw.com/Assistant-Regular.woff2");
      }
    </style>
    
  </defs>
  <g stroke-linecap="round" transform="translate(32.64044744318198 109.06643921733757) rotate(337.5387531331347 19.283203125 7.48828125)"><path d="M3.74 0 C10.69 2.36, 18.78 0.08, 34.82 0 C36.83 1.24, 39.78 1.92, 38.57 3.74 C37.76 5.99, 38.65 7.41, 38.57 11.23 C37.61 14.53, 35.87 12.45, 34.82 14.98 C23.74 16.36, 9.07 16.65, 3.74 14.98 C3.34 16.35, 0.62 15.17, 0 11.23 C0.55 9.59, -0.46 5.9, 0 3.74 C1.36 0.75, 0.44 0.12, 3.74 0" stroke="none" stroke-width="0" fill="#868e96"></path><path d="M3.74 0 C14.02 0.67, 24.66 0.38, 34.82 0 M3.74 0 C15.66 -0.08, 26.46 0.01, 34.82 0 M34.82 0 C37.99 -0.61, 39.03 0.29, 38.57 3.74 M34.82 0 C37.88 -0.86, 38.23 1.28, 38.57 3.74 M38.57 3.74 C38.52 6.42, 38.46 8.2, 38.57 11.23 M38.57 3.74 C38.59 6.51, 38.38 9.16, 38.57 11.23 M38.57 11.23 C38.46 14.66, 36.56 15.61, 34.82 14.98 M38.57 11.23 C37.54 13.84, 37.45 15.01, 34.82 14.98 M34.82 14.98 C24.92 15.64, 16.84 14, 3.74 14.98 M34.82 14.98 C23.17 15, 11.71 14.84, 3.74 14.98 M3.74 14.98 C1.12 15.91, -0.97 13.72, 0 11.23 M3.74 14.98 C1.74 14.27, -1.13 12.88, 0 11.23 M0 11.23 C0.06 8.8, 0.21 6.42, 0 3.74 M0 11.23 C0.13 9.62, -0.01 7.85, 0 3.74 M0 3.74 C-0.08 2.23, 0.49 -0.47, 3.74 0 M0 3.74 C0.98 1.15, 0.97 -0.53, 3.74 0" stroke="#1e1e1e" stroke-width="2" fill="none"></path></g><g stroke-linecap="round" transform="translate(32.82631983901592 16.919422171883525) rotate(337.0766447889431 19.283203125 7.48828125)"><path d="M3.74 0 C10.56 -0.58, 16.6 0.93, 34.82 0 C38.54 0.67, 37.31 -0.67, 38.57 3.74 C38.64 5.56, 38.14 7.88, 38.57 11.23 C37.12 11.2, 39.85 16.93, 34.82 14.98 C25.44 17.01, 20.23 16.58, 3.74 14.98 C1.87 16.42, 1.22 15.45, 0 11.23 C-0.46 8.45, 0.45 5.74, 0 3.74 C-0.81 1.36, -1.03 -1.53, 3.74 0" stroke="none" stroke-width="0" fill="#868e96"></path><path d="M3.74 0 C12.07 0.24, 21.3 -0.36, 34.82 0 M3.74 0 C14.07 0.07, 25.11 -0.3, 34.82 0 M34.82 0 C37.79 -0.95, 39.06 0.5, 38.57 3.74 M34.82 0 C36.99 0.03, 38.68 0.45, 38.57 3.74 M38.57 3.74 C38.49 5.11, 38.82 6.58, 38.57 11.23 M38.57 3.74 C38.42 6.24, 38.56 9.09, 38.57 11.23 M38.57 11.23 C37.8 14.36, 36.43 15.08, 34.82 14.98 M38.57 11.23 C38.7 13.76, 37.3 14.26, 34.82 14.98 M34.82 14.98 C28.94 14.27, 22.76 14.25, 3.74 14.98 M34.82 14.98 C24.79 14.77, 13.84 15.43, 3.74 14.98 M3.74 14.98 C0.27 14.97, 0.43 13.11, 0 11.23 M3.74 14.98 C0.12 14.13, 0.04 13.01, 0 11.23 M0 11.23 C0.18 9.11, -0.29 7.42, 0 3.74 M0 11.23 C-0.05 8.37, -0.04 5.77, 0 3.74 M0 3.74 C-0.76 0.78, 2.1 -0.08, 3.74 0 M0 3.74 C-0.28 0.72, 0.55 -0.3, 3.74 0" stroke="#1e1e1e" stroke-width="2" fill="none"></path></g><g stroke-linecap="round" transform="translate(10 32.545724255215646) rotate(0 42.630859375 38.322265625)"><path d="M19.16 0 C36.19 1.8, 56.27 1.02, 66.1 0 C77.13 -2.65, 83.68 3.66, 85.26 19.16 C84.05 33.19, 83.37 41.49, 85.26 57.48 C88.77 72.96, 77.73 78.41, 66.1 76.64 C52.19 79.13, 33.34 79.23, 19.16 76.64 C8.08 79.03, 1.95 72.51, 0 57.48 C2.16 41.54, -0.84 27.12, 0 19.16 C-3.16 4.27, 6.73 1.48, 19.16 0" stroke="none" stroke-width="0" fill="#7950f2"></path><path d="M19.16 0 C37.56 -0.68, 54 1.7, 66.1 0 M19.16 0 C33.72 -0.67, 47.42 -1.02, 66.1 0 M66.1 0 C79.85 -1.5, 84.69 6.44, 85.26 19.16 M66.1 0 C79.1 -1.6, 83.11 6.27, 85.26 19.16 M85.26 19.16 C86.53 32.95, 86.09 50.07, 85.26 57.48 M85.26 19.16 C84.83 31.81, 84.17 43.23, 85.26 57.48 M85.26 57.48 C83.48 70.46, 79.1 76.7, 66.1 76.64 M85.26 57.48 C85.22 68.82, 76.73 75.18, 66.1 76.64 M66.1 76.64 C49.82 74.56, 31.12 76.73, 19.16 76.64 M66.1 76.64 C52.18 77.39, 37.55 76.45, 19.16 76.64 M19.16 76.64 C7.25 75.41, -1.96 68.78, 0 57.48 M19.16 76.64 C6.47 75.21, -1.2 70.5, 0 57.48 M0 57.48 C-1.73 47.03, 1.36 38.95, 0 19.16 M0 57.48 C-0.04 45.82, -0.71 31.73, 0 19.16 M0 19.16 C1.71 6.22, 5.9 -0.92, 19.16 0 M0 19.16 C-1.39 5.78, 4.43 -0.44, 19.16 0" stroke="#1e1e1e" stroke-width="2" fill="none"></path></g><g stroke-linecap="round" transform="translate(65.75746355371484 88.17832059975353) rotate(47.524435689906944 13.974609375 10.47265625)"><path d="M5.24 0 C11.78 0.66, 13.84 -2.47, 22.71 0 C24.62 -2.72, 29.28 2.31, 27.95 5.24 C26.83 6.44, 29.72 12.72, 27.95 15.71 C26.81 20.96, 28.29 19.5, 22.71 20.95 C17.01 22.86, 11.29 23.19, 5.24 20.95 C3.69 23.2, 3.54 17.73, 0 15.71 C-0.69 12.79, -1.75 8.6, 0 5.24 C0.35 3.22, 0.23 0.82, 5.24 0" stroke="none" stroke-width="0" fill="#eaddd7"></path><path d="M5.24 0 C11.73 1.67, 16.82 -0.61, 22.71 0 M5.24 0 C11.12 -0.73, 16.61 -0.55, 22.71 0 M22.71 0 C25.63 0.05, 28.14 0.35, 27.95 5.24 M22.71 0 C24.06 -0.12, 30.16 1.27, 27.95 5.24 M27.95 5.24 C28.5 8.16, 28.08 9.6, 27.95 15.71 M27.95 5.24 C27.54 8.19, 27.47 10.53, 27.95 15.71 M27.95 15.71 C28.17 19.26, 26.17 19.7, 22.71 20.95 M27.95 15.71 C25.81 17.74, 28.05 22.19, 22.71 20.95 M22.71 20.95 C19.56 21.21, 15.03 22.3, 5.24 20.95 M22.71 20.95 C17.31 21.1, 13.99 20.57, 5.24 20.95 M5.24 20.95 C-0.21 19.46, 0.07 17.95, 0 15.71 M5.24 20.95 C0.54 21.19, -0.96 20.32, 0 15.71 M0 15.71 C0.89 13.97, 0.39 10.78, 0 5.24 M0 15.71 C-0.39 12.55, 0.46 9.85, 0 5.24 M0 5.24 C-0.49 0.83, 0.54 -0.53, 5.24 0 M0 5.24 C-1.96 1.3, 3.52 0.13, 5.24 0" stroke="#1e1e1e" stroke-width="2" fill="none"></path></g><g stroke-linecap="round" transform="translate(27.928636255455785 46.951090522249615) rotate(47.524435689906944 25.4296875 23.859375)"><path d="M19.34 0.1 C24.11 -1.42, 30.43 -0.42, 35.42 1.96 C40.4 4.35, 46.77 9.75, 49.25 14.41 C51.73 19.07, 51.87 25.1, 50.29 29.92 C48.71 34.74, 44.13 40.5, 39.78 43.33 C35.43 46.15, 29.65 47.16, 24.18 46.87 C18.71 46.57, 11 45.11, 6.97 41.58 C2.94 38.05, 0.48 31.02, 0.01 25.68 C-0.46 20.35, 0.74 13.92, 4.15 9.56 C7.55 5.21, 17.4 0.92, 20.45 -0.44 C23.51 -1.8, 22.33 0.88, 22.46 1.4 M23.41 -0.62 C28.23 -1.61, 34.52 0.44, 38.76 3.55 C42.99 6.67, 47.14 13.06, 48.81 18.07 C50.48 23.08, 50.96 28.99, 48.79 33.63 C46.62 38.26, 40.89 43.89, 35.8 45.87 C30.7 47.85, 23.13 46.67, 18.2 45.49 C13.26 44.32, 9.27 42.62, 6.17 38.81 C3.07 35.01, -0.73 28.07, -0.39 22.69 C-0.06 17.31, 4.11 10.07, 8.19 6.51 C12.26 2.95, 21.45 2.24, 24.06 1.31 C26.68 0.38, 23.86 0.63, 23.87 0.94" stroke="none" stroke-width="0" fill="#eaddd7"></path><path d="M20.09 0.88 C24.94 -0.35, 32.19 1.17, 36.92 3.54 C41.64 5.91, 46.38 10.42, 48.47 15.13 C50.56 19.85, 51.25 27.12, 49.46 31.84 C47.67 36.56, 42.42 40.68, 37.72 43.44 C33.02 46.19, 26.57 49.12, 21.27 48.37 C15.98 47.61, 9.38 43.08, 5.95 38.93 C2.52 34.78, 0.64 28.45, 0.68 23.46 C0.72 18.48, 2.09 13.09, 6.2 9.03 C10.32 4.98, 21.51 0.53, 25.37 -0.85 C29.22 -2.24, 29.18 0.32, 29.33 0.73 M33.5 1.22 C38.73 2.26, 44.37 6.14, 46.99 10.31 C49.61 14.49, 49.77 20.91, 49.21 26.27 C48.65 31.62, 47.65 38.66, 43.62 42.43 C39.59 46.2, 30.88 48.76, 25.03 48.89 C19.17 49.01, 12.49 46.55, 8.47 43.18 C4.45 39.82, 1.6 33.88, 0.9 28.69 C0.21 23.49, 1.81 16.29, 4.28 12.03 C6.76 7.77, 11.15 4.93, 15.75 3.12 C20.35 1.31, 28.86 1.57, 31.87 1.17 C34.88 0.77, 33.95 0.51, 33.81 0.71" stroke="#1e1e1e" stroke-width="2" fill="none"></path></g></svg>