<svg version="1.1" xmlns="http://www.w3.org/2000/svg" viewBox="0 0 107.08836856447851 140.8422378015016" width="107.08836856447851" height="140.8422378015016">
  <!-- svg-source:excalidraw -->
  
  <defs>
    <style class="style-fonts">
      @font-face {
        font-family: "Virgil";
        src: url("https://excalidraw.com/Virgil.woff2");
      }
      @font-face {
        font-family: "Cascadia";
        src: url("https://excalidraw.com/Cascadia.woff2");
      }
      @font-face {
        font-family: "Assistant";
        src: url("https://excalidraw.com/Assistant-Regular.woff2");
      }
    </style>
    
  </defs>
  <g stroke-linecap="round" transform="translate(34.4670972576605 109.06643921733757) rotate(337.5387531331347 19.283203125 7.48828125)"><path d="M3.74 0 C14.44 -0.17, 28.85 -1.93, 34.82 0 C36.09 2.22, 38.35 0.61, 38.57 3.74 C37.68 5.46, 39.26 7.6, 38.57 11.23 C38.3 13.24, 38.56 16.19, 34.82 14.98 C23.55 12.71, 15.53 15.08, 3.74 14.98 C0.98 14.02, 0.8 12.28, 0 11.23 C-0.4 10.19, 0.47 7.8, 0 3.74 C1.8 3.34, 2.62 0.62, 3.74 0" stroke="none" stroke-width="0" fill="#868e96"></path><path d="M3.74 0 C14.63 0.23, 27.13 0.62, 34.82 0 M3.74 0 C14.22 0.46, 24.22 0.37, 34.82 0 M34.82 0 C37.03 -0.23, 39.2 1.14, 38.57 3.74 M34.82 0 C37.7 0.79, 38.27 1.69, 38.57 3.74 M38.57 3.74 C38.61 6.94, 38.34 9.8, 38.57 11.23 M38.57 3.74 C38.53 5.28, 38.6 6.68, 38.57 11.23 M38.57 11.23 C37.63 13.68, 38.28 14.77, 34.82 14.98 M38.57 11.23 C38 14.51, 36.52 15.5, 34.82 14.98 M34.82 14.98 C24.13 14.73, 15.35 14.08, 3.74 14.98 M34.82 14.98 C23.59 15.01, 12.24 14.68, 3.74 14.98 M3.74 14.98 C0.32 14.34, 0.8 14.27, 0 11.23 M3.74 14.98 C0.29 15.88, -0.98 14.15, 0 11.23 M0 11.23 C-0.15 8.76, 0.35 6.02, 0 3.74 M0 11.23 C-0.2 8.85, -0.01 6.63, 0 3.74 M0 3.74 C-0.52 1.35, 0.83 0.49, 3.74 0 M0 3.74 C-0.81 0.36, 0.93 0.89, 3.74 0" stroke="#1e1e1e" stroke-width="2" fill="none"></path></g><g stroke-linecap="round" transform="translate(34.65296965349444 16.919422171883525) rotate(337.0766447889431 19.283203125 7.48828125)"><path d="M3.74 0 C15.24 -1.95, 20.41 2.25, 34.82 0 C37.1 -0.64, 37.37 -0.32, 38.57 3.74 C39.24 5.85, 38.38 7.66, 38.57 11.23 C39.81 14.95, 37.99 13.72, 34.82 14.98 C28.75 15.08, 20.49 13.72, 3.74 14.98 C2.05 13.53, -2.53 16.26, 0 11.23 C0.6 8.03, 0.7 6.4, 0 3.74 C1.37 1.87, 2.69 1.22, 3.74 0" stroke="none" stroke-width="0" fill="#868e96"></path><path d="M3.74 0 C12.04 0.51, 19.31 0.33, 34.82 0 M3.74 0 C13.18 0.23, 22.09 -0.26, 34.82 0 M34.82 0 C37.95 -0.1, 38.9 1.93, 38.57 3.74 M34.82 0 C37.02 0.44, 39.63 1.2, 38.57 3.74 M38.57 3.74 C38.34 5.89, 38.21 7.86, 38.57 11.23 M38.57 3.74 C38.57 5.3, 38.38 7.1, 38.57 11.23 M38.57 11.23 C39.53 13.52, 36.83 15.65, 34.82 14.98 M38.57 11.23 C37.77 14.25, 37.64 15.04, 34.82 14.98 M34.82 14.98 C29.08 14.2, 22.11 14.07, 3.74 14.98 M34.82 14.98 C25.18 14.67, 15.09 14.66, 3.74 14.98 M3.74 14.98 C2.05 15.52, -0.83 14.52, 0 11.23 M3.74 14.98 C0.27 15.4, 0.27 13.66, 0 11.23 M0 11.23 C0.36 7.98, 0.01 5.62, 0 3.74 M0 11.23 C0.04 9.33, -0.06 7.68, 0 3.74 M0 3.74 C-0.42 1.73, 0.54 -0.77, 3.74 0 M0 3.74 C-0.32 2.13, 1.97 0.34, 3.74 0" stroke="#1e1e1e" stroke-width="2" fill="none"></path></g><g stroke-linecap="round" transform="translate(11.826649814478515 32.545724255215646) rotate(0 42.630859375 38.322265625)"><path d="M19.16 0 C31.16 3.71, 46.25 -0.24, 66.1 0 C77.22 -2.17, 84.31 3.32, 85.26 19.16 C85.43 29.24, 87.51 42.37, 85.26 57.48 C86.19 68.51, 76.22 75.06, 66.1 76.64 C55.2 75.45, 46.16 74.78, 19.16 76.64 C2.89 80.15, 2.7 69.12, 0 57.48 C2.09 47, 1.5 31.59, 0 19.16 C2 8.08, 8.77 1.95, 19.16 0" stroke="none" stroke-width="0" fill="#7950f2"></path><path d="M19.16 0 C34.45 0.44, 48.64 1.07, 66.1 0 M19.16 0 C37.19 -0.58, 56.42 -0.45, 66.1 0 M66.1 0 C79.54 1.37, 84.74 7.15, 85.26 19.16 M66.1 0 C81.01 -0.09, 84.4 6.69, 85.26 19.16 M85.26 19.16 C83.12 34.2, 83.53 46.7, 85.26 57.48 M85.26 19.16 C84.37 30.7, 86.26 42.14, 85.26 57.48 M85.26 57.48 C84.28 71.61, 77.49 77.56, 66.1 76.64 M85.26 57.48 C85.91 70.39, 76.91 75.5, 66.1 76.64 M66.1 76.64 C53.79 74.51, 39.16 76.51, 19.16 76.64 M66.1 76.64 C50.95 75.72, 38.46 76.89, 19.16 76.64 M19.16 76.64 C4.72 78.22, -1.7 70.99, 0 57.48 M19.16 76.64 C6.93 76.5, 1.97 69.35, 0 57.48 M0 57.48 C-0.37 47.34, -1.59 33.52, 0 19.16 M0 57.48 C-0.54 48.93, -0.43 40.65, 0 19.16 M0 19.16 C-1.42 4.84, 5.83 1.54, 19.16 0 M0 19.16 C1.45 7.07, 6.11 -0.51, 19.16 0" stroke="#1e1e1e" stroke-width="2" fill="none"></path></g><g stroke-linecap="round" transform="translate(13.186373760761853 87.12363309975535) rotate(312.47556431009303 13.974609375 10.47265625)"><path d="M5.24 0 C8.83 -1.2, 14.05 -1.8, 22.71 0 C22.7 3.51, 30.65 0.61, 27.95 5.24 C29.36 10.41, 29.05 12.99, 27.95 15.71 C29.95 20.9, 28.59 22.89, 22.71 20.95 C15.94 22.46, 9.44 19.84, 5.24 20.95 C1.91 17.79, -2.12 19.55, 0 15.71 C-0.45 13.59, 0.65 7.97, 0 5.24 C0.83 3.23, 1.66 -2.9, 5.24 0" stroke="none" stroke-width="0" fill="#eaddd7"></path><path d="M5.24 0 C9.98 0.77, 16.75 -0.59, 22.71 0 M5.24 0 C9.71 0.08, 16.65 -0.06, 22.71 0 M22.71 0 C25.22 1.35, 26.57 2.66, 27.95 5.24 M22.71 0 C26.85 0.13, 25.99 0.6, 27.95 5.24 M27.95 5.24 C28.71 7.33, 28.15 11.41, 27.95 15.71 M27.95 5.24 C27.46 8.08, 28.37 11.87, 27.95 15.71 M27.95 15.71 C26.28 20.78, 24.51 21.68, 22.71 20.95 M27.95 15.71 C28.49 19.06, 28.18 20.03, 22.71 20.95 M22.71 20.95 C17.68 21.53, 11.6 19.06, 5.24 20.95 M22.71 20.95 C18.31 20.93, 14.45 21.26, 5.24 20.95 M5.24 20.95 C0.33 19.4, -0.56 20.74, 0 15.71 M5.24 20.95 C3.19 21.63, -0.28 18.69, 0 15.71 M0 15.71 C-0.6 13.55, -0.19 9.34, 0 5.24 M0 15.71 C-0.38 12.95, 0.47 10.42, 0 5.24 M0 5.24 C-0.2 1.37, 2.7 0.94, 5.24 0 M0 5.24 C0.6 0.63, 0.05 -1.01, 5.24 0" stroke="#1e1e1e" stroke-width="2" fill="none"></path></g><g stroke-linecap="round" transform="translate(28.10504480902091 45.896403022249615) rotate(312.47556431009303 25.4296875 23.859375)"><path d="M33.07 1.09 C38.21 2.19, 45.13 5.97, 47.98 10.46 C50.82 14.95, 51.08 22.89, 50.14 28.04 C49.2 33.19, 46.41 38.17, 42.36 41.35 C38.31 44.53, 31.33 47.02, 25.85 47.1 C20.38 47.18, 13.76 44.72, 9.51 41.81 C5.26 38.89, 1.44 34.46, 0.36 29.59 C-0.72 24.71, 0.47 17.12, 3.03 12.55 C5.59 7.99, 9.84 3.76, 15.72 2.21 C21.59 0.67, 34.06 2.77, 38.29 3.28 C42.51 3.8, 41.42 5.11, 41.07 5.29 M29.55 0.87 C34.52 1.25, 40.45 3.19, 44.24 7.25 C48.04 11.31, 52.32 19.75, 52.32 25.23 C52.32 30.71, 47.91 36.52, 44.27 40.12 C40.62 43.71, 35.58 45.88, 30.46 46.8 C25.33 47.71, 18.23 48.04, 13.53 45.6 C8.82 43.16, 4.08 37.05, 2.24 32.14 C0.39 27.24, 0.51 20.88, 2.46 16.17 C4.41 11.46, 9.17 6.27, 13.94 3.89 C18.7 1.5, 28.47 2.42, 31.04 1.88 C33.62 1.34, 29.5 0.57, 29.4 0.67" stroke="none" stroke-width="0" fill="#eaddd7"></path><path d="M21.08 -0.69 C26.14 -1.54, 34.04 1.76, 38.75 4.53 C43.47 7.29, 47.54 11.31, 49.37 15.89 C51.2 20.47, 51.63 27.13, 49.73 32.01 C47.82 36.88, 42.83 42.76, 37.93 45.16 C33.02 47.55, 25.81 47.47, 20.31 46.37 C14.82 45.26, 8.19 42.52, 4.96 38.52 C1.73 34.53, 0.58 27.61, 0.94 22.37 C1.29 17.13, 3.31 10.78, 7.09 7.09 C10.86 3.39, 20.56 1.29, 23.58 0.18 C26.6 -0.92, 25.32 0.24, 25.23 0.46 M16.24 2.38 C20.64 0.53, 28.27 0.57, 33.6 2.25 C38.93 3.94, 45.19 8.17, 48.2 12.49 C51.2 16.8, 52.81 22.89, 51.61 28.14 C50.4 33.4, 45.7 40.75, 40.96 44.01 C36.22 47.27, 28.48 48.25, 23.17 47.7 C17.87 47.15, 13.19 44.31, 9.13 40.72 C5.06 37.13, -0.33 31.22, -1.21 26.15 C-2.08 21.09, 0.89 14.48, 3.87 10.35 C6.86 6.22, 14.51 2.68, 16.7 1.35 C18.89 0.03, 16.93 2.22, 17.02 2.38" stroke="#1e1e1e" stroke-width="2" fill="none"></path></g></svg>