<svg version="1.1" xmlns="http://www.w3.org/2000/svg" viewBox="0 0 116.9010881696413 140.8422378015016" width="116.9010881696413" height="140.8422378015016">
  <!-- svg-source:excalidraw -->
  
  <defs>
    <style class="style-fonts">
      @font-face {
        font-family: "Virgil";
        src: url("https://excalidraw.com/Virgil.woff2");
      }
      @font-face {
        font-family: "Cascadia";
        src: url("https://excalidraw.com/Cascadia.woff2");
      }
      @font-face {
        font-family: "Assistant";
        src: url("https://excalidraw.com/Assistant-Regular.woff2");
      }
    </style>
    
  </defs>
  <g stroke-linecap="round" transform="translate(32.64044744318198 109.06643921733757) rotate(337.5387531331347 19.283203125 7.48828125)"><path d="M3.74 0 C15.38 -2.37, 26.51 0.87, 34.82 0 C37.56 2.09, 38.32 0.87, 38.57 3.74 C38.84 6.86, 38.75 9.85, 38.57 11.23 C37.67 11.22, 36.74 16.09, 34.82 14.98 C29.07 12.98, 18.74 15.25, 3.74 14.98 C3.44 14.46, 1.01 14.31, 0 11.23 C-0.88 9.91, -0.19 7.82, 0 3.74 C-1.26 2.78, 2.32 0.38, 3.74 0" stroke="none" stroke-width="0" fill="#868e96"></path><path d="M3.74 0 C16.46 -0.65, 27.9 -0.22, 34.82 0 M3.74 0 C10.98 0.55, 17.19 0.25, 34.82 0 M34.82 0 C37.08 -0.25, 38.62 1.06, 38.57 3.74 M34.82 0 C38.14 0.16, 37.6 0.8, 38.57 3.74 M38.57 3.74 C38.85 6.07, 38.81 8.51, 38.57 11.23 M38.57 3.74 C38.45 5.23, 38.72 7.03, 38.57 11.23 M38.57 11.23 C38.43 13.6, 38.3 14.02, 34.82 14.98 M38.57 11.23 C37.59 12.69, 37.43 15.42, 34.82 14.98 M34.82 14.98 C24.9 14.33, 17.09 14.92, 3.74 14.98 M34.82 14.98 C28.47 15.1, 21.43 14.77, 3.74 14.98 M3.74 14.98 C2.19 15.67, -0.42 13.52, 0 11.23 M3.74 14.98 C1.52 14.22, 0.83 14.81, 0 11.23 M0 11.23 C0.12 9.45, 0.03 8.1, 0 3.74 M0 11.23 C-0.09 8.33, 0.11 5.2, 0 3.74 M0 3.74 C-0.32 0.34, 0.81 0.29, 3.74 0 M0 3.74 C0.78 0.16, 0.79 1.14, 3.74 0" stroke="#1e1e1e" stroke-width="2" fill="none"></path></g><g stroke-linecap="round" transform="translate(32.826319839014104 16.919422171883525) rotate(337.0766447889431 19.283203125 7.48828125)"><path d="M3.74 0 C13.07 1.15, 21.01 2.47, 34.82 0 C37.07 -0.38, 39.9 1.62, 38.57 3.74 C38.76 6.18, 38.26 6.01, 38.57 11.23 C37.99 14.84, 35.75 15.16, 34.82 14.98 C22.49 14.66, 14.71 14.12, 3.74 14.98 C2.25 15.55, -0.53 15.19, 0 11.23 C-0.05 10.13, -0.39 8.05, 0 3.74 C1.07 1.63, 0.65 1.13, 3.74 0" stroke="none" stroke-width="0" fill="#868e96"></path><path d="M3.74 0 C14.75 -0.04, 25.69 -0.57, 34.82 0 M3.74 0 C10.38 0, 17.77 -0.26, 34.82 0 M34.82 0 C37.37 -0.18, 39.28 1.39, 38.57 3.74 M34.82 0 C36.36 -0.45, 38.52 0.52, 38.57 3.74 M38.57 3.74 C38.86 6.52, 38.26 8.55, 38.57 11.23 M38.57 3.74 C38.7 6.46, 38.52 8.86, 38.57 11.23 M38.57 11.23 C39.55 12.77, 36.47 14.07, 34.82 14.98 M38.57 11.23 C38.68 14.17, 37.18 15.95, 34.82 14.98 M34.82 14.98 C27.81 14.94, 19.61 13.91, 3.74 14.98 M34.82 14.98 C23.63 14.67, 12.4 15.33, 3.74 14.98 M3.74 14.98 C0.83 14.77, 0.24 13.07, 0 11.23 M3.74 14.98 C2.08 16.06, -0.82 13.85, 0 11.23 M0 11.23 C0.02 9.19, 0.33 6.48, 0 3.74 M0 11.23 C0.13 8.52, -0.04 5.98, 0 3.74 M0 3.74 C-0.44 1.54, 1.93 -0.95, 3.74 0 M0 3.74 C-0.46 2.39, 1.86 1.14, 3.74 0" stroke="#1e1e1e" stroke-width="2" fill="none"></path></g><g stroke-linecap="round" transform="translate(10 32.545724255215646) rotate(0 42.630859375 38.322265625)"><path d="M19.16 0 C29.1 2.64, 38.04 -0.78, 66.1 0 C80.72 0.52, 82.15 7.35, 85.26 19.16 C84.14 29.11, 84.59 47.54, 85.26 57.48 C83.09 70.51, 80.99 78.98, 66.1 76.64 C59.09 75.94, 47.4 77.45, 19.16 76.64 C5.66 78.66, -1.77 67.22, 0 57.48 C-1.65 45.07, 1.58 28.95, 0 19.16 C-0.83 7.95, 7.08 1.47, 19.16 0" stroke="none" stroke-width="0" fill="#7950f2"></path><path d="M19.16 0 C29.13 -1.26, 40.71 1.22, 66.1 0 M19.16 0 C37.16 -0.38, 55.67 -0.31, 66.1 0 M66.1 0 C80.3 0.28, 83.59 5.61, 85.26 19.16 M66.1 0 C78.78 -1.46, 85.85 8.27, 85.26 19.16 M85.26 19.16 C83.72 31.46, 86.39 43.26, 85.26 57.48 M85.26 19.16 C85.45 28.87, 86.57 37.88, 85.26 57.48 M85.26 57.48 C83.56 68.45, 79.07 77.42, 66.1 76.64 M85.26 57.48 C84.99 72.2, 77.31 74.44, 66.1 76.64 M66.1 76.64 C52.97 74.71, 44.42 78.56, 19.16 76.64 M66.1 76.64 C52.84 77.04, 37.28 76.14, 19.16 76.64 M19.16 76.64 C6.87 75.33, 1.44 72.14, 0 57.48 M19.16 76.64 C4.75 76.88, 0.3 71, 0 57.48 M0 57.48 C1.8 46.33, 0.75 34.8, 0 19.16 M0 57.48 C-0.54 44.35, -0.65 33.32, 0 19.16 M0 19.16 C1.36 4.49, 5.59 1.98, 19.16 0 M0 19.16 C1.22 8.67, 5.79 0.58, 19.16 0" stroke="#1e1e1e" stroke-width="2" fill="none"></path></g><g stroke-linecap="round" transform="translate(78.9518694196413 59.76933318646752) rotate(0 13.974609375 10.47265625)"><path d="M5.24 0 C7.86 -1.49, 17.76 2.35, 22.71 0 C25.04 -1.18, 28.15 1.99, 27.95 5.24 C29.76 9.75, 26.98 14.23, 27.95 15.71 C25.96 18.89, 23.63 23.04, 22.71 20.95 C16.58 23.5, 10.21 23.85, 5.24 20.95 C-1.37 24.12, 1.23 17.3, 0 15.71 C-1.67 13.99, 0.08 9.7, 0 5.24 C-2.62 -1.17, 1.7 0.85, 5.24 0" stroke="none" stroke-width="0" fill="#eaddd7"></path><path d="M5.24 0 C9.62 0.18, 11.93 -1.62, 22.71 0 M5.24 0 C12.11 -0.55, 18.94 0.6, 22.71 0 M22.71 0 C25.37 -0.42, 28.43 0.43, 27.95 5.24 M22.71 0 C27.86 2.16, 26.32 1.98, 27.95 5.24 M27.95 5.24 C28.07 9.35, 28.94 11.62, 27.95 15.71 M27.95 5.24 C28.19 8.32, 27.72 11.87, 27.95 15.71 M27.95 15.71 C27.08 19.77, 27.56 19.05, 22.71 20.95 M27.95 15.71 C27.03 21.48, 27.43 23.23, 22.71 20.95 M22.71 20.95 C18.48 21.29, 13.3 22.18, 5.24 20.95 M22.71 20.95 C17.76 20.28, 12.79 21.47, 5.24 20.95 M5.24 20.95 C2.1 22.67, -0.69 17.27, 0 15.71 M5.24 20.95 C1.24 21.93, -1.39 19.36, 0 15.71 M0 15.71 C-0.55 11.96, 0.81 7.99, 0 5.24 M0 15.71 C0.27 11.9, -0.47 9.03, 0 5.24 M0 5.24 C-0.28 3.35, 0.77 1.18, 5.24 0 M0 5.24 C0.95 2.09, 1.21 1, 5.24 0" stroke="#1e1e1e" stroke-width="2" fill="none"></path></g><g stroke-linecap="round" transform="translate(29.153041294641298 45.73027068646752) rotate(0 25.4296875 23.859375)"><path d="M22.69 0.73 C27.83 -0.15, 35.72 0.4, 40.17 3.14 C44.62 5.88, 47.81 12.14, 49.38 17.16 C50.94 22.17, 51.61 28.52, 49.57 33.23 C47.52 37.95, 42.16 43.07, 37.1 45.46 C32.05 47.86, 24.67 48.99, 19.23 47.61 C13.78 46.22, 7.52 41.39, 4.46 37.16 C1.39 32.92, 0.28 27.24, 0.84 22.2 C1.41 17.16, 3.94 10.53, 7.83 6.9 C11.72 3.28, 21.36 1.58, 24.17 0.48 C26.98 -0.63, 24.7 -0.1, 24.71 0.26 M29.76 1.15 C35.27 1.99, 42.96 4.68, 46.39 8.6 C49.82 12.52, 50.67 19.22, 50.35 24.66 C50.04 30.1, 47.89 37.65, 44.51 41.23 C41.13 44.8, 35.25 45.57, 30.07 46.1 C24.88 46.64, 18.34 46.8, 13.4 44.42 C8.46 42.05, 2.48 36.77, 0.41 31.84 C-1.66 26.92, -1 19.59, 0.98 14.9 C2.96 10.21, 7.43 6.28, 12.31 3.72 C17.19 1.16, 27.04 0.08, 30.27 -0.48 C33.51 -1.04, 31.57 0.03, 31.72 0.36" stroke="none" stroke-width="0" fill="#eaddd7"></path><path d="M13.49 3.31 C17.69 0.75, 24.62 0.56, 30.06 1.46 C35.51 2.36, 42.72 4.82, 46.14 8.73 C49.57 12.64, 51.04 19.61, 50.63 24.9 C50.23 30.2, 47.14 36.88, 43.69 40.53 C40.24 44.17, 35.21 46.15, 29.94 46.77 C24.67 47.39, 16.81 46.85, 12.08 44.24 C7.35 41.62, 3.27 35.83, 1.58 31.08 C-0.12 26.33, -0.42 20.59, 1.93 15.75 C4.27 10.91, 13.2 4.4, 15.65 2.04 C18.1 -0.31, 16.56 1.12, 16.62 1.61 M13.77 2.78 C18.55 0.39, 27.47 -2.12, 32.76 -0.68 C38.04 0.77, 42.36 6.81, 45.5 11.45 C48.64 16.09, 51.96 22.25, 51.58 27.16 C51.2 32.08, 47.4 37.44, 43.22 40.92 C39.04 44.41, 31.78 47.61, 26.5 48.08 C21.21 48.54, 15.57 46.68, 11.52 43.69 C7.46 40.7, 3.72 34.97, 2.15 30.15 C0.57 25.33, -0.04 19.63, 2.04 14.78 C4.13 9.94, 12.48 2.93, 14.64 1.05 C16.81 -0.82, 14.86 2.74, 15.05 3.53" stroke="#1e1e1e" stroke-width="2" fill="none"></path></g></svg>