<svg version="1.1" xmlns="http://www.w3.org/2000/svg" viewBox="0 0 105.26171875 140.8422378015016" width="105.26171875" height="140.8422378015016">
  <!-- svg-source:excalidraw -->
  
  <defs>
    <style class="style-fonts">
      @font-face {
        font-family: "Virgil";
        src: url("https://excalidraw.com/Virgil.woff2");
      }
      @font-face {
        font-family: "Cascadia";
        src: url("https://excalidraw.com/Cascadia.woff2");
      }
      @font-face {
        font-family: "Assistant";
        src: url("https://excalidraw.com/Assistant-Regular.woff2");
      }
    </style>
    
  </defs>
  <g stroke-linecap="round" transform="translate(32.64044744318198 109.06643921733757) rotate(337.5387531331347 19.283203125 7.48828125)"><path d="M3.74 0 C14.82 0.35, 25.53 -1.01, 34.82 0 C34.81 -0.58, 39.68 -0.32, 38.57 3.74 C37.79 5.6, 38.64 9.16, 38.57 11.23 C38.05 14.73, 37.9 14.45, 34.82 14.98 C25.82 14.27, 14.77 13.37, 3.74 14.98 C2.78 16.05, 0.38 13.13, 0 11.23 C-0.85 7.74, -0.56 6.51, 0 3.74 C1.72 0.41, 0.39 0.14, 3.74 0" stroke="none" stroke-width="0" fill="#868e96"></path><path d="M3.74 0 C10.08 0.09, 16.74 0.75, 34.82 0 M3.74 0 C13.48 -0.26, 23.39 0.47, 34.82 0 M34.82 0 C37.62 0.7, 39.46 0.34, 38.57 3.74 M34.82 0 C37.11 0.49, 37.87 0.75, 38.57 3.74 M38.57 3.74 C38.55 6.99, 38.24 9.19, 38.57 11.23 M38.57 3.74 C38.55 5.47, 38.44 6.7, 38.57 11.23 M38.57 11.23 C38.02 13.92, 37.36 14.17, 34.82 14.98 M38.57 11.23 C37.44 14.51, 38.41 15.01, 34.82 14.98 M34.82 14.98 C24.64 14.71, 12.85 15.36, 3.74 14.98 M34.82 14.98 C27.19 15.17, 20.32 15.28, 3.74 14.98 M3.74 14.98 C1.07 15.06, 0.8 14.65, 0 11.23 M3.74 14.98 C1.05 15.43, -0.6 13.95, 0 11.23 M0 11.23 C-0.31 8.4, 0.14 6.14, 0 3.74 M0 11.23 C0.11 9.88, -0.03 8.21, 0 3.74 M0 3.74 C-0.95 1.56, 1.54 0.09, 3.74 0 M0 3.74 C0.92 1.14, 1.08 0.59, 3.74 0" stroke="#1e1e1e" stroke-width="2" fill="none"></path></g><g stroke-linecap="round" transform="translate(32.82631983901592 16.919422171883525) rotate(337.0766447889431 19.283203125 7.48828125)"><path d="M3.74 0 C16.14 -0.97, 21.55 -0.65, 34.82 0 C38.43 -1.57, 38.75 2.78, 38.57 3.74 C38.49 7.3, 38.29 9.59, 38.57 11.23 C39.14 13.2, 38.78 13.7, 34.82 14.98 C30.21 13.66, 22.96 15.99, 3.74 14.98 C1.63 14.37, 1.13 14.23, 0 11.23 C-0.46 9.1, 0.73 5.81, 0 3.74 C-0.85 1.39, 1.42 2.57, 3.74 0" stroke="none" stroke-width="0" fill="#868e96"></path><path d="M3.74 0 C12.16 0.7, 21.08 -0.84, 34.82 0 M3.74 0 C11.99 0.51, 20.12 0.45, 34.82 0 M34.82 0 C38.21 -0.91, 38.39 1.68, 38.57 3.74 M34.82 0 C36.62 -0.5, 39.54 2.16, 38.57 3.74 M38.57 3.74 C38.2 5.57, 38.22 8.06, 38.57 11.23 M38.57 3.74 C38.43 6.1, 38.46 8.85, 38.57 11.23 M38.57 11.23 C38.61 12.92, 36.34 15.66, 34.82 14.98 M38.57 11.23 C39.65 13.76, 37.89 14.26, 34.82 14.98 M34.82 14.98 C22.35 15.15, 9.65 15.63, 3.74 14.98 M34.82 14.98 C22.64 15.15, 10.24 15.04, 3.74 14.98 M3.74 14.98 C2.05 15.89, -0.17 14.12, 0 11.23 M3.74 14.98 C0.65 15.2, 0.66 12.7, 0 11.23 M0 11.23 C0.14 9.48, -0.32 7.08, 0 3.74 M0 11.23 C-0.07 8.29, -0.2 5.31, 0 3.74 M0 3.74 C0.29 1.34, 2.05 -0.09, 3.74 0 M0 3.74 C-0.17 1.84, 1.41 -0.99, 3.74 0" stroke="#1e1e1e" stroke-width="2" fill="none"></path></g><g stroke-linecap="round" transform="translate(10 32.545724255215646) rotate(0 42.630859375 38.322265625)"><path d="M19.16 0 C30.6 -0.51, 50.52 -1.88, 66.1 0 C79.12 2.12, 87.6 3.29, 85.26 19.16 C84.56 30.3, 86.07 37.93, 85.26 57.48 C87.28 68.48, 75.83 79.5, 66.1 76.64 C54.8 77.72, 39.78 75.4, 19.16 76.64 C7.95 77.34, 1.47 67.2, 0 57.48 C2.77 48.43, -0.8 41.9, 0 19.16 C0.24 9.95, 8.73 -3.28, 19.16 0" stroke="none" stroke-width="0" fill="#7950f2"></path><path d="M19.16 0 C33.76 -2.01, 47.02 -0.42, 66.1 0 M19.16 0 C30.56 0.32, 42.25 -1.29, 66.1 0 M66.1 0 C78.52 0.86, 84.05 5.52, 85.26 19.16 M66.1 0 C80.83 1.83, 84.94 6.08, 85.26 19.16 M85.26 19.16 C83.09 34.63, 85.66 49.47, 85.26 57.48 M85.26 19.16 C84.46 34.08, 85.05 47.83, 85.26 57.48 M85.26 57.48 C83.3 71.62, 80.77 76.7, 66.1 76.64 M85.26 57.48 C86.41 68.82, 81.05 78.24, 66.1 76.64 M66.1 76.64 C52.66 78.2, 43.73 75.34, 19.16 76.64 M66.1 76.64 C51.36 76.88, 37.77 77.71, 19.16 76.64 M19.16 76.64 C6.05 77.43, -1.05 70.64, 0 57.48 M19.16 76.64 C7.7 74.59, -0.75 68.17, 0 57.48 M0 57.48 C-2.01 46.86, 1.87 38.89, 0 19.16 M0 57.48 C-0.85 42.5, 0.39 26.98, 0 19.16 M0 19.16 C1.61 6.2, 6.09 1.02, 19.16 0 M0 19.16 C0.33 4.4, 7 1.16, 19.16 0" stroke="#1e1e1e" stroke-width="2" fill="none"></path></g><g stroke-linecap="round" transform="translate(36.68179290260014 21.99483342197982) rotate(90.684351531919 13.974609375 10.47265625)"><path d="M5.24 0 C12.09 1.45, 15.7 -0.58, 22.71 0 C27.77 0.69, 29.42 -1.31, 27.95 5.24 C29.09 6.79, 27.22 9.65, 27.95 15.71 C28.19 22.76, 28.55 17.67, 22.71 20.95 C16.96 19.03, 8.82 18.51, 5.24 20.95 C3.84 20.17, -2.35 22.13, 0 15.71 C1.45 11.36, 1.53 10.91, 0 5.24 C-1.9 1.5, 0.3 -1.33, 5.24 0" stroke="none" stroke-width="0" fill="#eaddd7"></path><path d="M5.24 0 C10.62 0.32, 19.84 -0.06, 22.71 0 M5.24 0 C11.48 0.33, 18.72 -0.54, 22.71 0 M22.71 0 C24.24 1.37, 29.84 1.8, 27.95 5.24 M22.71 0 C27.36 -1.44, 30.12 3.34, 27.95 5.24 M27.95 5.24 C27.24 8.7, 28.91 9.9, 27.95 15.71 M27.95 5.24 C27.87 8.53, 28.38 12.22, 27.95 15.71 M27.95 15.71 C27.61 19.99, 25.16 21.33, 22.71 20.95 M27.95 15.71 C29.26 17.14, 25.46 18.85, 22.71 20.95 M22.71 20.95 C16.57 20.37, 15.48 21.99, 5.24 20.95 M22.71 20.95 C14.9 21.26, 9.02 21.07, 5.24 20.95 M5.24 20.95 C3.35 20.76, -0.29 20.22, 0 15.71 M5.24 20.95 C2.08 18.96, 0.61 20.36, 0 15.71 M0 15.71 C-1.1 12.15, 0.36 8.42, 0 5.24 M0 15.71 C-0.51 12.26, -0.06 9.72, 0 5.24 M0 5.24 C-0.4 2.52, 2.19 -0.41, 5.24 0 M0 5.24 C1.29 0.61, -0.2 1.82, 5.24 0" stroke="#1e1e1e" stroke-width="2" fill="none"></path></g><g stroke-linecap="round" transform="translate(25.421037946427532 46.95692110629625) rotate(90.684351531919 25.4296875 23.859375)"><path d="M27.76 0.24 C33.23 0.18, 40.33 2.89, 43.99 6.38 C47.66 9.87, 49.27 16.15, 49.76 21.19 C50.25 26.23, 49.79 32.27, 46.91 36.64 C44.03 41, 37.66 46.04, 32.46 47.4 C27.26 48.75, 20.75 46.96, 15.69 44.78 C10.63 42.59, 4.44 38.78, 2.1 34.29 C-0.25 29.8, 0.14 22.77, 1.61 17.84 C3.08 12.92, 5.91 7.51, 10.91 4.75 C15.91 2, 27.51 1.81, 31.6 1.32 C35.69 0.83, 35.38 1.54, 35.44 1.81 M35.97 2.11 C40.93 3.69, 45.31 9.05, 47.73 13.67 C50.16 18.29, 51.88 25.19, 50.5 29.83 C49.12 34.46, 44.01 38.41, 39.47 41.49 C34.94 44.58, 28.34 48.45, 23.28 48.34 C18.22 48.23, 13.02 44.41, 9.09 40.84 C5.16 37.26, 0.51 31.61, -0.3 26.87 C-1.12 22.12, 0.99 16.89, 4.19 12.36 C7.4 7.83, 13.54 1.38, 18.96 -0.32 C24.37 -2.02, 34.14 1.63, 36.7 2.16 C39.25 2.69, 34.81 2.53, 34.28 2.83" stroke="none" stroke-width="0" fill="#eaddd7"></path><path d="M22.97 -0.5 C28.01 -0.97, 36.39 1.78, 40.79 4.76 C45.19 7.74, 48.02 12.24, 49.36 17.36 C50.71 22.49, 51.15 30.68, 48.84 35.5 C46.54 40.32, 40.76 44.23, 35.54 46.26 C30.32 48.29, 22.64 49.28, 17.53 47.67 C12.42 46.05, 7.81 40.95, 4.89 36.57 C1.96 32.18, -0.44 26.23, -0.04 21.34 C0.36 16.46, 2.37 10.88, 7.31 7.24 C12.25 3.59, 25.3 0.4, 29.62 -0.51 C33.95 -1.43, 33.42 1.28, 33.26 1.76 M26.29 0.61 C31.14 0.34, 37.63 3.43, 41.83 6.56 C46.03 9.69, 50.74 14.61, 51.5 19.41 C52.26 24.2, 49.57 30.71, 46.39 35.32 C43.21 39.93, 37.36 45.52, 32.42 47.05 C27.47 48.57, 21.73 46.26, 16.71 44.48 C11.69 42.7, 4.83 40.41, 2.27 36.36 C-0.28 32.31, 0.19 25.35, 1.4 20.18 C2.62 15, 5.61 8.59, 9.56 5.31 C13.51 2.03, 22.21 1.27, 25.11 0.49 C28.01 -0.28, 26.54 0.34, 26.96 0.64" stroke="#1e1e1e" stroke-width="2" fill="none"></path></g></svg>