<svg version="1.1" xmlns="http://www.w3.org/2000/svg" viewBox="0 0 114.98702566964403 140.8422378015016" width="114.98702566964403" height="140.8422378015016">
  <!-- svg-source:excalidraw -->
  
  <defs>
    <style class="style-fonts">
      @font-face {
        font-family: "Virgil";
        src: url("https://excalidraw.com/Virgil.woff2");
      }
      @font-face {
        font-family: "Cascadia";
        src: url("https://excalidraw.com/Cascadia.woff2");
      }
      @font-face {
        font-family: "Assistant";
        src: url("https://excalidraw.com/Assistant-Regular.woff2");
      }
    </style>
    
  </defs>
  <g stroke-linecap="round" transform="translate(42.36575436282601 109.06643921733757) rotate(337.5387531331347 19.283203125 7.48828125)"><path d="M3.74 0 C12.75 -1.32, 25.81 -0.98, 34.82 0 C38.5 -0.98, 39.59 1.19, 38.57 3.74 C38.98 6.31, 38.11 8.77, 38.57 11.23 C40.72 16.29, 34.79 13.77, 34.82 14.98 C21.81 13.22, 11.68 13, 3.74 14.98 C2.09 15.08, -2.33 12.66, 0 11.23 C-0.72 8.82, 0.77 7.82, 0 3.74 C-0.21 -0.83, 1.09 0.42, 3.74 0" stroke="none" stroke-width="0" fill="#868e96"></path><path d="M3.74 0 C13.58 -0.62, 24.2 0.7, 34.82 0 M3.74 0 C10.45 0.16, 16.8 0.27, 34.82 0 M34.82 0 C36.57 -0.07, 37.67 0.74, 38.57 3.74 M34.82 0 C36.35 -0.63, 39.6 0.21, 38.57 3.74 M38.57 3.74 C38.24 5.17, 38.49 6.91, 38.57 11.23 M38.57 3.74 C38.47 5.97, 38.49 7.91, 38.57 11.23 M38.57 11.23 C38.88 13.81, 36.34 15.61, 34.82 14.98 M38.57 11.23 C38.71 13.17, 38.23 15.07, 34.82 14.98 M34.82 14.98 C23.49 15.27, 12.68 15.57, 3.74 14.98 M34.82 14.98 C25.23 14.59, 15.08 15.27, 3.74 14.98 M3.74 14.98 C0.31 14.94, -0.35 14.65, 0 11.23 M3.74 14.98 C1.54 14.93, -0.59 14.05, 0 11.23 M0 11.23 C0.23 8.44, -0.24 5.62, 0 3.74 M0 11.23 C0.15 9.05, -0.1 7.25, 0 3.74 M0 3.74 C-0.23 0.38, 1.94 0.9, 3.74 0 M0 3.74 C0.68 2.28, 1.55 1.13, 3.74 0" stroke="#1e1e1e" stroke-width="2" fill="none"></path></g><g stroke-linecap="round" transform="translate(42.55162675865904 16.919422171883525) rotate(337.0766447889431 19.283203125 7.48828125)"><path d="M3.74 0 C12.48 -1.08, 17.96 -0.72, 34.82 0 C38.34 -0.06, 41 2.06, 38.57 3.74 C38.12 5.63, 39.41 10.22, 38.57 11.23 C36.04 12.52, 38.94 16.39, 34.82 14.98 C26.41 12.95, 20.07 14.83, 3.74 14.98 C-1.08 13.91, -0.39 12.92, 0 11.23 C0.82 10.59, 0 7.46, 0 3.74 C-0.16 1.66, -1.12 0.25, 3.74 0" stroke="none" stroke-width="0" fill="#868e96"></path><path d="M3.74 0 C12.97 0.77, 19.92 0.54, 34.82 0 M3.74 0 C14.27 0.24, 23.48 -0.1, 34.82 0 M34.82 0 C36.42 -0.51, 37.72 0.7, 38.57 3.74 M34.82 0 C38.35 -1.04, 37.48 1.03, 38.57 3.74 M38.57 3.74 C38.46 5.41, 38.45 6.58, 38.57 11.23 M38.57 3.74 C38.51 5.43, 38.61 7.15, 38.57 11.23 M38.57 11.23 C37.59 14.36, 37.44 14.49, 34.82 14.98 M38.57 11.23 C39.48 13.82, 38.07 13.99, 34.82 14.98 M34.82 14.98 C25.47 15.58, 15.18 14.1, 3.74 14.98 M34.82 14.98 C25.91 15.18, 16.53 14.84, 3.74 14.98 M3.74 14.98 C0.9 15.9, 0.25 13.69, 0 11.23 M3.74 14.98 C0.65 15.29, 0.63 14.77, 0 11.23 M0 11.23 C-0.23 8.17, -0.12 5.54, 0 3.74 M0 11.23 C-0.15 8.97, -0.07 6.23, 0 3.74 M0 3.74 C0.69 2.15, 1.84 0.9, 3.74 0 M0 3.74 C0.3 2.38, 1.47 0.19, 3.74 0" stroke="#1e1e1e" stroke-width="2" fill="none"></path></g><g stroke-linecap="round" transform="translate(19.725306919644026 32.545724255215646) rotate(0 42.630859375 38.322265625)"><path d="M19.16 0 C31.84 -0.93, 42.67 0.36, 66.1 0 C82.24 1.12, 87.72 7.82, 85.26 19.16 C87.9 32.71, 81.42 37.49, 85.26 57.48 C87.51 72.22, 77.11 74.23, 66.1 76.64 C56 76.2, 40.34 74.58, 19.16 76.64 C5.85 75.52, -3.6 67.49, 0 57.48 C-0.81 44.22, -0.74 37.29, 0 19.16 C-3.27 6.74, 3.39 -2.78, 19.16 0" stroke="none" stroke-width="0" fill="#7950f2"></path><path d="M19.16 0 C28.2 0.57, 41.62 1.36, 66.1 0 M19.16 0 C34.38 -0.35, 50.19 -0.8, 66.1 0 M66.1 0 C77.19 -1.09, 87.05 4.58, 85.26 19.16 M66.1 0 C76.69 -0.44, 83.19 4.4, 85.26 19.16 M85.26 19.16 C84.77 27.93, 83.72 39.23, 85.26 57.48 M85.26 19.16 C85.48 33.5, 84.19 48.3, 85.26 57.48 M85.26 57.48 C85.5 69.29, 80.47 76.8, 66.1 76.64 M85.26 57.48 C86.76 68.28, 79.31 76.68, 66.1 76.64 M66.1 76.64 C51.14 75.06, 35.21 78.02, 19.16 76.64 M66.1 76.64 C54.56 76.9, 44.53 77.87, 19.16 76.64 M19.16 76.64 C6.89 76.56, -1.03 70.81, 0 57.48 M19.16 76.64 C7.64 78.73, 1.56 71.91, 0 57.48 M0 57.48 C-0.26 46.37, 0.67 38.68, 0 19.16 M0 57.48 C0.02 47.39, 0.93 39.93, 0 19.16 M0 19.16 C1.19 8.19, 6.91 1.96, 19.16 0 M0 19.16 C0.44 6.77, 4.31 -0.81, 19.16 0" stroke="#1e1e1e" stroke-width="2" fill="none"></path></g><g stroke-linecap="round" transform="translate(10 58.64210104360882) rotate(0 13.974609375 10.47265625)"><path d="M5.24 0 C10.82 0.05, 16.86 1.1, 22.71 0 C28.66 1.43, 26.55 -0.06, 27.95 5.24 C26.27 6.56, 29.28 10.67, 27.95 15.71 C26.18 16.78, 24.04 20.1, 22.71 20.95 C15.85 19.66, 14.15 19.97, 5.24 20.95 C-1.85 18.18, -1.04 21.94, 0 15.71 C-0.1 11.94, -1.7 7.76, 0 5.24 C-3 -1.04, 5.14 -1.21, 5.24 0" stroke="none" stroke-width="0" fill="#fcc2d7"></path><path d="M5.24 0 C12.05 1.39, 18.74 1.58, 22.71 0 M5.24 0 C10.75 -0.44, 17.1 -0.46, 22.71 0 M22.71 0 C27.99 -1.8, 26.05 1.37, 27.95 5.24 M22.71 0 C24.13 -1.98, 27.29 1.32, 27.95 5.24 M27.95 5.24 C27.16 8.25, 28.68 11.79, 27.95 15.71 M27.95 5.24 C27.47 8.65, 28.05 11.16, 27.95 15.71 M27.95 15.71 C29.54 19.36, 27.51 19.22, 22.71 20.95 M27.95 15.71 C28.38 19.24, 26.81 22.23, 22.71 20.95 M22.71 20.95 C16.25 21.76, 8.96 20.76, 5.24 20.95 M22.71 20.95 C16.05 21.75, 10.22 20.9, 5.24 20.95 M5.24 20.95 C0.71 21.5, 1.09 21.01, 0 15.71 M5.24 20.95 C3.3 22.6, -0.83 17.94, 0 15.71 M0 15.71 C0.27 14.18, -0.6 10.46, 0 5.24 M0 15.71 C0.38 12.15, 0.33 8.12, 0 5.24 M0 5.24 C0.52 3.71, 2.13 0.33, 5.24 0 M0 5.24 C-2.08 0.94, 0.26 1.97, 5.24 0" stroke="#1e1e1e" stroke-width="2" fill="none"></path></g><g stroke-linecap="round" transform="translate(36.888671875 44.60303854360882) rotate(0 25.4296875 23.859375)"><path d="M33.32 0.54 C38.16 1.84, 44.17 6.55, 47.08 11.21 C49.98 15.87, 51.7 23.45, 50.75 28.47 C49.8 33.49, 45.42 38.15, 41.39 41.32 C37.36 44.49, 32.05 47.21, 26.55 47.49 C21.06 47.77, 12.63 46.1, 8.43 42.99 C4.22 39.88, 2.05 33.94, 1.34 28.85 C0.63 23.75, 1.49 16.93, 4.17 12.41 C6.86 7.89, 11.4 3.18, 17.46 1.72 C23.52 0.26, 35.95 2.43, 40.52 3.64 C45.08 4.84, 44.98 8.58, 44.84 8.97 M31.13 2.02 C36.42 2.89, 42.83 6.78, 46.21 10.53 C49.6 14.29, 51.91 19.83, 51.42 24.54 C50.93 29.25, 46.88 34.72, 43.27 38.8 C39.66 42.88, 35.29 48.29, 29.76 49.02 C24.23 49.75, 14.73 46.06, 10.11 43.17 C5.49 40.27, 3.51 36.58, 2.04 31.64 C0.57 26.7, -0.53 18.42, 1.29 13.52 C3.12 8.62, 8.19 4.31, 13 2.24 C17.81 0.17, 27.12 1.52, 30.14 1.1 C33.16 0.68, 31.13 -0.53, 31.11 -0.27" stroke="none" stroke-width="0" fill="#fcc2d7"></path><path d="M36.95 1.72 C41.52 3.65, 46.31 8.73, 48.35 13.74 C50.39 18.75, 50.86 26.91, 49.19 31.78 C47.52 36.65, 42.85 40.47, 38.33 42.95 C33.82 45.43, 27.49 47.16, 22.09 46.63 C16.69 46.11, 9.64 43.36, 5.93 39.81 C2.22 36.25, 0.01 30.5, -0.16 25.3 C-0.32 20.11, 1.74 12.82, 4.94 8.64 C8.14 4.46, 12.71 0.73, 19.03 0.23 C25.34 -0.27, 38.39 3.87, 42.85 5.63 C47.31 7.38, 46.17 10.58, 45.78 10.75 M34.55 1.3 C39.7 2.43, 45.29 5.65, 48.01 9.98 C50.73 14.31, 51.75 21.85, 50.88 27.27 C50.01 32.69, 46.75 39.02, 42.79 42.47 C38.82 45.92, 32.84 47.98, 27.09 47.97 C21.35 47.96, 12.62 45.81, 8.34 42.42 C4.05 39.03, 2.27 32.46, 1.38 27.65 C0.49 22.84, 0.79 17.89, 2.99 13.55 C5.19 9.22, 9.59 3.49, 14.56 1.66 C19.54 -0.17, 29.66 2.59, 32.83 2.57 C35.99 2.56, 33.74 1.36, 33.57 1.58" stroke="#1e1e1e" stroke-width="2" fill="none"></path></g></svg>