<svg version="1.1" xmlns="http://www.w3.org/2000/svg" viewBox="0 0 107.08836856447851 140.8422378015016" width="107.08836856447851" height="140.8422378015016">
  <!-- svg-source:excalidraw -->
  
  <defs>
    <style class="style-fonts">
      @font-face {
        font-family: "Virgil";
        src: url("https://excalidraw.com/Virgil.woff2");
      }
      @font-face {
        font-family: "Cascadia";
        src: url("https://excalidraw.com/Cascadia.woff2");
      }
      @font-face {
        font-family: "Assistant";
        src: url("https://excalidraw.com/Assistant-Regular.woff2");
      }
    </style>
    
  </defs>
  <g stroke-linecap="round" transform="translate(34.4670972576605 109.06643921733757) rotate(337.5387531331347 19.283203125 7.48828125)"><path d="M3.74 0 C12.57 -0.95, 25.37 0.06, 34.82 0 C35.5 -2.43, 38.43 3.74, 38.57 3.74 C37.85 6.28, 38.79 7.99, 38.57 11.23 C36.35 12.43, 37.03 17.39, 34.82 14.98 C28.13 14.91, 20.99 14.57, 3.74 14.98 C-0.38 12.55, -1.65 15.82, 0 11.23 C-0.75 8.94, 0.31 5.87, 0 3.74 C2.23 0.22, 0.91 2.43, 3.74 0" stroke="none" stroke-width="0" fill="#868e96"></path><path d="M3.74 0 C10.79 -0.35, 18.7 -0.66, 34.82 0 M3.74 0 C11.13 0.23, 18.58 0, 34.82 0 M34.82 0 C36.67 0.01, 38.49 1.94, 38.57 3.74 M34.82 0 C37.71 -0.76, 38.91 1.45, 38.57 3.74 M38.57 3.74 C38.72 5.62, 38.31 7.68, 38.57 11.23 M38.57 3.74 C38.63 6.27, 38.72 8.99, 38.57 11.23 M38.57 11.23 C38.23 13.49, 37.93 15.58, 34.82 14.98 M38.57 11.23 C37.93 12.78, 37.16 15.03, 34.82 14.98 M34.82 14.98 C26.59 14.43, 17.27 15.43, 3.74 14.98 M34.82 14.98 C24.54 14.91, 12.97 15.23, 3.74 14.98 M3.74 14.98 C0.58 15.77, 0.66 14.5, 0 11.23 M3.74 14.98 C0.63 14.41, 0.17 14.47, 0 11.23 M0 11.23 C-0.02 8.83, 0.33 6.08, 0 3.74 M0 11.23 C0.13 8.41, 0.07 5.76, 0 3.74 M0 3.74 C-0.26 1.63, 2.18 -0.04, 3.74 0 M0 3.74 C-0.43 1.4, 2.02 -0.7, 3.74 0" stroke="#1e1e1e" stroke-width="2" fill="none"></path></g><g stroke-linecap="round" transform="translate(34.65296965349444 16.919422171883525) rotate(337.0766447889431 19.283203125 7.48828125)"><path d="M3.74 0 C14.66 0.37, 23.62 -2.31, 34.82 0 C37.18 2.49, 38.03 -0.03, 38.57 3.74 C38.77 6.55, 37.67 8.76, 38.57 11.23 C38.28 16.14, 35.33 16.62, 34.82 14.98 C28.34 14.97, 20.07 12.6, 3.74 14.98 C-0.4 17.07, 1.41 11.56, 0 11.23 C0.31 8.33, 0.92 5.17, 0 3.74 C-0.33 3.68, -1.28 -0.01, 3.74 0" stroke="none" stroke-width="0" fill="#868e96"></path><path d="M3.74 0 C11.91 -0.65, 19.66 -0.34, 34.82 0 M3.74 0 C10.52 -0.15, 17.4 -0.03, 34.82 0 M34.82 0 C37.24 0.69, 38.91 0.58, 38.57 3.74 M34.82 0 C37.66 0.21, 38.11 1.54, 38.57 3.74 M38.57 3.74 C38.31 6.51, 38.76 9.35, 38.57 11.23 M38.57 3.74 C38.71 6.36, 38.51 8.85, 38.57 11.23 M38.57 11.23 C39.18 14.33, 36.76 14.15, 34.82 14.98 M38.57 11.23 C38.41 13.79, 37.11 16, 34.82 14.98 M34.82 14.98 C22.35 15.16, 10.41 14.56, 3.74 14.98 M34.82 14.98 C23.65 15.12, 13.11 15.33, 3.74 14.98 M3.74 14.98 C1.91 15.75, -0.54 13.24, 0 11.23 M3.74 14.98 C1.42 15.71, 0.62 14.03, 0 11.23 M0 11.23 C0.34 8.87, 0.28 6.11, 0 3.74 M0 11.23 C0.04 9.29, -0.07 7.16, 0 3.74 M0 3.74 C0.93 1.21, 0.87 0.13, 3.74 0 M0 3.74 C0.77 0.55, 1.79 -1.1, 3.74 0" stroke="#1e1e1e" stroke-width="2" fill="none"></path></g><g stroke-linecap="round" transform="translate(11.826649814478515 32.545724255215646) rotate(0 42.630859375 38.322265625)"><path d="M19.16 0 C29.38 -3.44, 44.43 3.37, 66.1 0 C78.13 -1.77, 87.69 3.9, 85.26 19.16 C82.38 30.61, 85.06 48.98, 85.26 57.48 C82.52 72.53, 75.67 77, 66.1 76.64 C49.24 73.27, 34.6 79.52, 19.16 76.64 C8.33 73.65, 2.84 67.2, 0 57.48 C2.93 43.16, -0.63 35.05, 0 19.16 C-3.51 6.37, 7.93 -2.22, 19.16 0" stroke="none" stroke-width="0" fill="#7950f2"></path><path d="M19.16 0 C30.17 -0.46, 42 -0.22, 66.1 0 M19.16 0 C33.64 0.11, 49.33 0.8, 66.1 0 M66.1 0 C79.55 -1.33, 85.85 6.75, 85.26 19.16 M66.1 0 C77.95 0.58, 86.71 7.29, 85.26 19.16 M85.26 19.16 C85.94 30.88, 85.86 41.22, 85.26 57.48 M85.26 19.16 C85.21 28.75, 86.15 39.4, 85.26 57.48 M85.26 57.48 C84.15 68.61, 78.6 76.74, 66.1 76.64 M85.26 57.48 C84.84 72.3, 81.17 77.83, 66.1 76.64 M66.1 76.64 C56.17 76.16, 45.37 78.39, 19.16 76.64 M66.1 76.64 C52.63 77.61, 41.16 77.59, 19.16 76.64 M19.16 76.64 C5.31 75.67, 0.29 71.54, 0 57.48 M19.16 76.64 C7.62 77.25, 0.8 70.2, 0 57.48 M0 57.48 C1.13 42.88, -0.81 30.68, 0 19.16 M0 57.48 C-0.39 46.77, 0.8 35.25, 0 19.16 M0 19.16 C-0.75 6.65, 7.72 -1.22, 19.16 0 M0 19.16 C1.08 4.19, 7.51 -1.73, 19.16 0" stroke="#1e1e1e" stroke-width="2" fill="none"></path></g><g stroke-linecap="round" transform="translate(13.186373760761853 87.12363309975535) rotate(312.47556431009303 13.974609375 10.47265625)"><path d="M5.24 0 C8.71 -2.93, 14.12 2.54, 22.71 0 C28.15 -3, 30.79 -1.31, 27.95 5.24 C29.61 8.01, 27.75 14.05, 27.95 15.71 C24.44 19.18, 27.75 18.72, 22.71 20.95 C17.22 19.31, 15.98 19.64, 5.24 20.95 C3.49 18.4, -2.78 18.2, 0 15.71 C-0.35 11.34, -0.27 9.66, 0 5.24 C-2.74 0.05, 4.82 -0.3, 5.24 0" stroke="none" stroke-width="0" fill="#fcc2d7"></path><path d="M5.24 0 C11 0.78, 15.86 0.37, 22.71 0 M5.24 0 C9.42 -0.24, 14.73 0.49, 22.71 0 M22.71 0 C25.1 -1.64, 27.68 1.84, 27.95 5.24 M22.71 0 C25.78 2.04, 30.24 2.94, 27.95 5.24 M27.95 5.24 C28.4 7.32, 28.41 10.9, 27.95 15.71 M27.95 5.24 C27.5 8.51, 28.19 11.35, 27.95 15.71 M27.95 15.71 C26.87 18.22, 26.5 22.23, 22.71 20.95 M27.95 15.71 C29.18 19.81, 27 20.89, 22.71 20.95 M22.71 20.95 C17.61 20.51, 9.51 22.11, 5.24 20.95 M22.71 20.95 C17.43 21.4, 13.4 21.03, 5.24 20.95 M5.24 20.95 C1 21.21, 1.34 17.98, 0 15.71 M5.24 20.95 C2.82 18.75, 1.13 17.47, 0 15.71 M0 15.71 C-0.73 11.89, -0.06 11.03, 0 5.24 M0 15.71 C-0.31 13.02, 0.2 9.89, 0 5.24 M0 5.24 C-1.71 0.75, 1.53 1.85, 5.24 0 M0 5.24 C-1.75 3.2, -0.3 0.23, 5.24 0" stroke="#1e1e1e" stroke-width="2" fill="none"></path></g><g stroke-linecap="round" transform="translate(28.10504480902091 45.896403022249615) rotate(312.47556431009303 25.4296875 23.859375)"><path d="M30.58 0.36 C35.85 1.13, 42.62 5.74, 45.88 9.74 C49.13 13.74, 50.45 19.1, 50.12 24.35 C49.78 29.6, 47.51 37.43, 43.85 41.22 C40.18 45.01, 33.43 46.76, 28.14 47.07 C22.85 47.38, 16.54 45.77, 12.1 43.08 C7.66 40.4, 3.17 35.88, 1.51 30.95 C-0.15 26.02, 0.15 18.28, 2.15 13.52 C4.16 8.77, 8.17 4.59, 13.55 2.41 C18.93 0.24, 30.69 0.62, 34.44 0.48 C38.19 0.33, 36.33 1.03, 36.06 1.55 M24.41 -0.95 C29.8 -0.89, 39.13 2.92, 43.27 6.62 C47.42 10.32, 48.83 16.25, 49.29 21.25 C49.74 26.25, 48.51 32.47, 45.99 36.65 C43.46 40.82, 38.84 44.82, 34.12 46.31 C29.4 47.79, 22.85 47.13, 17.66 45.56 C12.48 43.99, 6.14 41.25, 3.03 36.88 C-0.09 32.51, -2.17 24.76, -1.01 19.36 C0.16 13.95, 5.8 7.84, 10.02 4.43 C14.25 1.02, 21.7 -0.29, 24.34 -1.11 C26.98 -1.92, 25.75 -1.07, 25.86 -0.46" stroke="none" stroke-width="0" fill="#fcc2d7"></path><path d="M28.46 -0.19 C33.68 0.03, 39.77 4.34, 43.6 8 C47.42 11.67, 51.16 16.81, 51.41 21.79 C51.66 26.77, 48.41 33.69, 45.09 37.87 C41.77 42.04, 36.49 45.47, 31.48 46.86 C26.47 48.26, 19.83 48.59, 15.03 46.24 C10.22 43.88, 4.99 37.53, 2.65 32.73 C0.31 27.93, -0.53 22.28, 0.99 17.44 C2.51 12.6, 6.25 6.24, 11.78 3.69 C17.3 1.13, 29.73 2.22, 34.13 2.1 C38.53 1.98, 38.35 2.84, 38.2 2.97 M34.4 1.1 C39.18 2.66, 45.45 9.12, 48.23 13.85 C51 18.57, 52.19 24.64, 51.05 29.47 C49.91 34.29, 45.69 39.51, 41.39 42.78 C37.09 46.04, 30.7 49.09, 25.26 49.05 C19.83 49.01, 13.03 46.27, 8.78 42.53 C4.54 38.78, 0.42 31.86, -0.22 26.58 C-0.86 21.3, 1.86 14.92, 4.95 10.84 C8.05 6.77, 13.36 3.52, 18.33 2.12 C23.31 0.71, 31.81 2.39, 34.82 2.41 C37.83 2.43, 36.6 1.91, 36.41 2.22" stroke="#1e1e1e" stroke-width="2" fill="none"></path></g></svg>