<svg version="1.1" xmlns="http://www.w3.org/2000/svg" viewBox="0 0 106.89305606447624 140.8422378015016" width="106.89305606447624" height="140.8422378015016">
  <!-- svg-source:excalidraw -->
  
  <defs>
    <style class="style-fonts">
      @font-face {
        font-family: "Virgil";
        src: url("https://excalidraw.com/Virgil.woff2");
      }
      @font-face {
        font-family: "Cascadia";
        src: url("https://excalidraw.com/Cascadia.woff2");
      }
      @font-face {
        font-family: "Assistant";
        src: url("https://excalidraw.com/Assistant-Regular.woff2");
      }
    </style>
    
  </defs>
  <g stroke-linecap="round" transform="translate(32.64044744318198 109.06643921733757) rotate(337.5387531331347 19.283203125 7.48828125)"><path d="M3.74 0 C12.73 1.01, 19.49 -1.94, 34.82 0 C36.02 -0.28, 40.98 -0.74, 38.57 3.74 C38.59 6.49, 38.46 8.57, 38.57 11.23 C36.14 12.08, 39.41 16.38, 34.82 14.98 C29.04 15.25, 21.19 16.86, 3.74 14.98 C0.22 14.64, 2.43 11.2, 0 11.23 C-0.99 8.27, -0.01 6.14, 0 3.74 C-1.36 1.53, 0.16 1.26, 3.74 0" stroke="none" stroke-width="0" fill="#868e96"></path><path d="M3.74 0 C11.77 0.02, 20.47 0.44, 34.82 0 M3.74 0 C10.8 0.1, 18.58 0.17, 34.82 0 M34.82 0 C37.14 -0.72, 38.68 1.72, 38.57 3.74 M34.82 0 C37.84 0.5, 38.82 0.75, 38.57 3.74 M38.57 3.74 C38.49 6.76, 38.8 9.12, 38.57 11.23 M38.57 3.74 C38.53 5.54, 38.75 7.1, 38.57 11.23 M38.57 11.23 C37.87 13.69, 37.61 15.41, 34.82 14.98 M38.57 11.23 C38.21 14.23, 38.24 14.66, 34.82 14.98 M34.82 14.98 C29.29 15.53, 22.94 14.34, 3.74 14.98 M34.82 14.98 C27.29 15.21, 19.39 15.06, 3.74 14.98 M3.74 14.98 C1.91 15.88, 0.38 14.47, 0 11.23 M3.74 14.98 C0.92 14.71, 0.72 13.61, 0 11.23 M0 11.23 C0.12 9.08, -0.04 6.1, 0 3.74 M0 11.23 C0.06 8.71, 0.07 6.4, 0 3.74 M0 3.74 C-0.29 1.27, 1.35 -0.7, 3.74 0 M0 3.74 C-1.07 1.19, 2.35 -0.24, 3.74 0" stroke="#1e1e1e" stroke-width="2" fill="none"></path></g><g stroke-linecap="round" transform="translate(32.82631983901592 16.919422171883525) rotate(337.0766447889431 19.283203125 7.48828125)"><path d="M3.74 0 C11.07 -2.33, 16.8 -0.4, 34.82 0 C39.73 -1.98, 40.21 -1.06, 38.57 3.74 C38.56 5.46, 37.67 7.77, 38.57 11.23 C40.66 15.13, 35.15 17.03, 34.82 14.98 C27.97 17.3, 20.42 14.74, 3.74 14.98 C3.68 12.44, -0.01 14.85, 0 11.23 C0.13 8.84, -0.41 7.77, 0 3.74 C-1.09 2.51, -0.59 -2.01, 3.74 0" stroke="none" stroke-width="0" fill="#868e96"></path><path d="M3.74 0 C11.75 0.35, 17.71 0.31, 34.82 0 M3.74 0 C13.94 0.16, 23.42 -0.4, 34.82 0 M34.82 0 C37.44 0.48, 39.02 1.69, 38.57 3.74 M34.82 0 C37.57 -0.5, 39.4 1.5, 38.57 3.74 M38.57 3.74 C38.78 5.53, 38.25 7.69, 38.57 11.23 M38.57 3.74 C38.75 6.12, 38.43 8.3, 38.57 11.23 M38.57 11.23 C38.86 14.17, 37.01 15.42, 34.82 14.98 M38.57 11.23 C39.49 13.41, 36.21 15.4, 34.82 14.98 M34.82 14.98 C28.34 14.54, 19.83 15.22, 3.74 14.98 M34.82 14.98 C23.68 15, 12.52 15.47, 3.74 14.98 M3.74 14.98 C1.63 15.72, -0.29 13.5, 0 11.23 M3.74 14.98 C1.97 14.86, 0.38 14.52, 0 11.23 M0 11.23 C-0.03 9.04, 0.03 7.38, 0 3.74 M0 11.23 C0.07 9.3, -0.07 7.66, 0 3.74 M0 3.74 C0.1 0.55, 0.31 -0.05, 3.74 0 M0 3.74 C1.1 1.01, 0.68 0.78, 3.74 0" stroke="#1e1e1e" stroke-width="2" fill="none"></path></g><g stroke-linecap="round" transform="translate(10 32.545724255215646) rotate(0 42.630859375 38.322265625)"><path d="M19.16 0 C32.77 0.33, 53.3 -2.03, 66.1 0 C81.15 -3.2, 85.62 6.79, 85.26 19.16 C81.89 28.49, 88.14 44.33, 85.26 57.48 C82.26 73.09, 75.82 77.96, 66.1 76.64 C49.48 76.91, 39.07 73.86, 19.16 76.64 C6.37 78.19, -2.22 66.73, 0 57.48 C-1.91 49.21, -1.53 41.91, 0 19.16 C-2.55 3.61, 5.39 2.78, 19.16 0" stroke="none" stroke-width="0" fill="#7950f2"></path><path d="M19.16 0 C31.55 0.43, 46.96 -0.96, 66.1 0 M19.16 0 C34.25 -0.9, 49.81 0.29, 66.1 0 M66.1 0 C79.79 0.88, 85.71 5.51, 85.26 19.16 M66.1 0 C80.54 0.5, 84.5 5.84, 85.26 19.16 M85.26 19.16 C83.85 32.72, 85.59 46.47, 85.26 57.48 M85.26 19.16 C84.95 34.01, 85.94 49.39, 85.26 57.48 M85.26 57.48 C84.64 71.14, 80.48 76.1, 66.1 76.64 M85.26 57.48 C83.04 71.11, 77.34 78.46, 66.1 76.64 M66.1 76.64 C47.95 76.68, 33.04 77.46, 19.16 76.64 M66.1 76.64 C51.44 77.53, 35.85 77.37, 19.16 76.64 M19.16 76.64 C5.81 76.18, 1.26 70.05, 0 57.48 M19.16 76.64 C7.16 78.22, -0.6 71.14, 0 57.48 M0 57.48 C0.28 43.76, -1.21 28.31, 0 19.16 M0 57.48 C-0.48 49.67, -0.09 41.1, 0 19.16 M0 19.16 C-1.87 6.28, 8.31 -0.41, 19.16 0 M0 19.16 C-1.13 7.94, 4.8 1.05, 19.16 0" stroke="#1e1e1e" stroke-width="2" fill="none"></path></g><g stroke-linecap="round" transform="translate(65.75746355371484 88.17832059975535) rotate(47.524435689906944 13.974609375 10.47265625)"><path d="M5.24 0 C11.9 -2.37, 14.73 -2.76, 22.71 0 C26.56 0.4, 28.06 1.68, 27.95 5.24 C29.29 8.74, 26.2 11.7, 27.95 15.71 C24.89 20.52, 27.06 20.72, 22.71 20.95 C18.91 17.84, 9.21 22.26, 5.24 20.95 C-0.48 17.42, -2.67 19.33, 0 15.71 C-0.69 14.14, -1.24 9.28, 0 5.24 C-1 4.52, 4.01 1.08, 5.24 0" stroke="none" stroke-width="0" fill="#fcc2d7"></path><path d="M5.24 0 C11.39 -0.75, 17.35 1.05, 22.71 0 M5.24 0 C11.27 0.54, 17.49 0.51, 22.71 0 M22.71 0 C26.65 -0.87, 29.4 2.18, 27.95 5.24 M22.71 0 C25.44 -0.54, 29.35 3.12, 27.95 5.24 M27.95 5.24 C27.91 7.61, 28.79 11.41, 27.95 15.71 M27.95 5.24 C28.03 9.15, 27.71 12.83, 27.95 15.71 M27.95 15.71 C29.56 18.65, 24.27 21.69, 22.71 20.95 M27.95 15.71 C26.41 21.02, 27.72 22.72, 22.71 20.95 M22.71 20.95 C19.53 21.91, 14.57 21.58, 5.24 20.95 M22.71 20.95 C17.85 21.75, 12.07 20.9, 5.24 20.95 M5.24 20.95 C3 20.74, 0.67 20.57, 0 15.71 M5.24 20.95 C1.15 21.83, 2.14 19.11, 0 15.71 M0 15.71 C-0.65 13.45, -1.01 10.72, 0 5.24 M0 15.71 C0.08 12.99, -0.46 10.97, 0 5.24 M0 5.24 C1.92 1.33, 0.76 1.35, 5.24 0 M0 5.24 C-1.59 2.79, 2.39 0.13, 5.24 0" stroke="#1e1e1e" stroke-width="2" fill="none"></path></g><g stroke-linecap="round" transform="translate(27.928636255455785 46.951090522251434) rotate(47.524435689906944 25.4296875 23.859375)"><path d="M22.09 -0.17 C27.13 -1.15, 34.74 1.52, 39.24 4.41 C43.74 7.3, 47.62 12.32, 49.08 17.17 C50.53 22.01, 50.08 28.9, 47.96 33.49 C45.85 38.09, 41.08 42.45, 36.41 44.74 C31.74 47.03, 25.25 48.46, 19.94 47.25 C14.63 46.03, 7.88 41.35, 4.55 37.44 C1.22 33.52, -0.35 28.8, -0.03 23.76 C0.3 18.73, 1.66 11.29, 6.49 7.24 C11.31 3.19, 24.25 0.3, 28.91 -0.55 C33.57 -1.39, 34.61 1.82, 34.46 2.19 M18.01 1.69 C22.75 -0.02, 30 0.44, 35.13 2.51 C40.26 4.58, 46.32 9.61, 48.78 14.09 C51.24 18.57, 51.62 24.63, 49.88 29.38 C48.14 34.14, 42.65 39.45, 38.36 42.62 C34.06 45.79, 29.5 48.56, 24.1 48.41 C18.71 48.26, 10.19 45.4, 5.98 41.7 C1.76 38, -1.06 31.5, -1.2 26.19 C-1.34 20.88, 1.53 14.18, 5.14 9.84 C8.75 5.5, 18.12 1.35, 20.44 0.14 C22.77 -1.06, 19.44 2.12, 19.09 2.6" stroke="none" stroke-width="0" fill="#fcc2d7"></path><path d="M32.59 1.29 C37.62 2.61, 44.41 7.33, 47.48 11.69 C50.56 16.04, 51.96 22.31, 51.05 27.42 C50.13 32.53, 46.08 39, 41.99 42.33 C37.91 45.65, 31.93 47.22, 26.51 47.37 C21.1 47.53, 13.75 46.45, 9.52 43.26 C5.29 40.07, 2.38 33.37, 1.15 28.25 C-0.08 23.12, -0.31 16.96, 2.16 12.5 C4.63 8.05, 10.08 3.06, 15.97 1.55 C21.86 0.03, 33.49 3.05, 37.48 3.42 C41.47 3.8, 40.24 3.55, 39.9 3.79 M32.15 0.16 C37.11 0.9, 41.22 5.58, 44.17 9.9 C47.11 14.23, 49.67 20.89, 49.83 26.1 C50 31.3, 48.81 37.7, 45.16 41.14 C41.51 44.59, 33.46 46.15, 27.93 46.78 C22.4 47.42, 16.3 47.5, 11.97 44.94 C7.65 42.38, 3.56 36.46, 1.98 31.42 C0.39 26.37, 0.34 19.24, 2.46 14.68 C4.58 10.12, 9.85 6.21, 14.69 4.04 C19.53 1.88, 28.9 2.24, 31.52 1.68 C34.14 1.12, 30.44 0.51, 30.41 0.69" stroke="#1e1e1e" stroke-width="2" fill="none"></path></g></svg>