<svg version="1.1" xmlns="http://www.w3.org/2000/svg" viewBox="0 0 108.91314535019046 140.8422378015016" width="108.91314535019046" height="140.8422378015016">
  <!-- svg-source:excalidraw -->
  
  <defs>
    <style class="style-fonts">
      @font-face {
        font-family: "Virgil";
        src: url("https://excalidraw.com/Virgil.woff2");
      }
      @font-face {
        font-family: "Cascadia";
        src: url("https://excalidraw.com/Cascadia.woff2");
      }
      @font-face {
        font-family: "Assistant";
        src: url("https://excalidraw.com/Assistant-Regular.woff2");
      }
    </style>
    
  </defs>
  <g stroke-linecap="round" transform="translate(32.64044744318198 109.06643921733757) rotate(337.5387531331347 19.283203125 7.48828125)"><path d="M3.74 0 C11.34 -0.96, 20.76 2.2, 34.82 0 C35.78 -1.68, 40.77 0.66, 38.57 3.74 C39.21 6.22, 38.89 7.89, 38.57 11.23 C39.07 14.16, 34.97 14.06, 34.82 14.98 C28.69 13.78, 21.22 14.71, 3.74 14.98 C3.68 15.79, 1.77 14.76, 0 11.23 C0.86 10.24, -0.9 6.87, 0 3.74 C1.62 2.66, -0.03 -1.75, 3.74 0" stroke="none" stroke-width="0" fill="#868e96"></path><path d="M3.74 0 C14.95 0.52, 27.2 0.11, 34.82 0 M3.74 0 C14.36 -0.31, 24.9 -0.54, 34.82 0 M34.82 0 C36.59 -0.68, 38.98 1.5, 38.57 3.74 M34.82 0 C37.53 -0.46, 38.29 1.17, 38.57 3.74 M38.57 3.74 C38.23 5.66, 38.68 7.56, 38.57 11.23 M38.57 3.74 C38.46 6.28, 38.43 8.74, 38.57 11.23 M38.57 11.23 C37.72 13.18, 38.21 14.07, 34.82 14.98 M38.57 11.23 C37.48 13.51, 36.28 13.98, 34.82 14.98 M34.82 14.98 C26.17 14.2, 17.21 14.64, 3.74 14.98 M34.82 14.98 C23.42 15.01, 11.22 15.29, 3.74 14.98 M3.74 14.98 C1.37 14.49, 0.8 13.81, 0 11.23 M3.74 14.98 C2 13.99, 0.22 13.75, 0 11.23 M0 11.23 C0.04 8.44, -0.07 6.55, 0 3.74 M0 11.23 C-0.17 9.53, -0.07 8.02, 0 3.74 M0 3.74 C0.25 1.2, 0.73 0.28, 3.74 0 M0 3.74 C0.63 2.29, 2.03 0.83, 3.74 0" stroke="#1e1e1e" stroke-width="2" fill="none"></path></g><g stroke-linecap="round" transform="translate(32.826319839014104 16.919422171883525) rotate(337.0766447889431 19.283203125 7.48828125)"><path d="M3.74 0 C11.13 2.08, 15.77 -1.48, 34.82 0 C39.52 -0.59, 36.31 3.03, 38.57 3.74 C38.88 7.62, 38.81 9.75, 38.57 11.23 C36.22 12.82, 35.64 17.2, 34.82 14.98 C28.13 14.77, 21.82 15.63, 3.74 14.98 C3.02 16.01, -1.01 12.43, 0 11.23 C-1.03 9.2, 0.53 8.61, 0 3.74 C-1.28 -0.5, -0.31 -0.61, 3.74 0" stroke="none" stroke-width="0" fill="#868e96"></path><path d="M3.74 0 C14.95 0.08, 25.4 -0.22, 34.82 0 M3.74 0 C14.24 -0.39, 25.19 -0.27, 34.82 0 M34.82 0 C37.73 0.25, 38.75 0.85, 38.57 3.74 M34.82 0 C37.04 -0.08, 37.81 1.99, 38.57 3.74 M38.57 3.74 C38.62 6.8, 38.68 9.59, 38.57 11.23 M38.57 3.74 C38.37 6.35, 38.38 9.04, 38.57 11.23 M38.57 11.23 C39.46 12.83, 36.37 14.79, 34.82 14.98 M38.57 11.23 C37.53 12.74, 36.99 14.76, 34.82 14.98 M34.82 14.98 C24 14.48, 15.36 14.61, 3.74 14.98 M34.82 14.98 C25.17 15.31, 16.57 14.75, 3.74 14.98 M3.74 14.98 C2.04 15.05, 0.65 12.87, 0 11.23 M3.74 14.98 C1.46 15, 0.3 14.37, 0 11.23 M0 11.23 C-0.06 8.77, -0.28 5.89, 0 3.74 M0 11.23 C-0.03 8.68, 0.08 5.78, 0 3.74 M0 3.74 C-0.52 1.52, 1.79 0.91, 3.74 0 M0 3.74 C0.78 2.07, 0.84 -0.63, 3.74 0" stroke="#1e1e1e" stroke-width="2" fill="none"></path></g><g stroke-linecap="round" transform="translate(10 32.545724255215646) rotate(0 42.630859375 38.322265625)"><path d="M19.16 0 C28.77 -2.94, 45.7 -1.42, 66.1 0 C75.75 2.47, 88.52 8.52, 85.26 19.16 C86.13 34.7, 82.19 47.8, 85.26 57.48 C82.93 73.34, 77.02 78.28, 66.1 76.64 C57.16 77.75, 43.94 78.06, 19.16 76.64 C4.98 74.84, -3.22 73.24, 0 57.48 C2.92 44.18, -1.1 24.53, 0 19.16 C-2.16 5.54, 3.92 1.17, 19.16 0" stroke="none" stroke-width="0" fill="#7950f2"></path><path d="M19.16 0 C36.94 -0.33, 53.86 -0.77, 66.1 0 M19.16 0 C30.38 -0.24, 43.47 0.68, 66.1 0 M66.1 0 C79.25 -0.8, 84.78 6.25, 85.26 19.16 M66.1 0 C77.36 1.49, 86.79 4.14, 85.26 19.16 M85.26 19.16 C86.16 34.23, 86.56 44.03, 85.26 57.48 M85.26 19.16 C84.07 29.84, 85.81 40.71, 85.26 57.48 M85.26 57.48 C83.37 69.88, 77.08 74.92, 66.1 76.64 M85.26 57.48 C84.61 69.83, 79.44 76.16, 66.1 76.64 M66.1 76.64 C57.29 76, 45.49 77.09, 19.16 76.64 M66.1 76.64 C51.75 76.46, 37.96 77.02, 19.16 76.64 M19.16 76.64 C7.69 74.92, 0.38 70.29, 0 57.48 M19.16 76.64 C6.99 77.93, 1.3 70.66, 0 57.48 M0 57.48 C-1.43 49.5, 1.32 39.69, 0 19.16 M0 57.48 C0.38 46.09, -0.38 35.06, 0 19.16 M0 19.16 C1.09 8.2, 7.74 1.44, 19.16 0 M0 19.16 C-0.83 5.13, 4.51 -0.54, 19.16 0" stroke="#1e1e1e" stroke-width="2" fill="none"></path></g><g stroke-linecap="round" transform="translate(67.77755283942861 31.768827916034752) rotate(312.47556431009303 13.974609375 10.47265625)"><path d="M5.24 0 C10.47 2.27, 20.34 -1.24, 22.71 0 C23.79 -2.16, 27.1 -0.72, 27.95 5.24 C27.18 8.44, 27.37 10.32, 27.95 15.71 C25.19 18.16, 28.94 24.12, 22.71 20.95 C18.11 18.06, 12.81 18.3, 5.24 20.95 C-1.04 24.34, -1.21 21.55, 0 15.71 C-0.13 10.64, -1.14 7.09, 0 5.24 C2.08 4.93, -1.42 0.95, 5.24 0" stroke="none" stroke-width="0" fill="#fcc2d7"></path><path d="M5.24 0 C7.43 -1.81, 12.44 -1.73, 22.71 0 M5.24 0 C9.19 -0.15, 11.99 -0.61, 22.71 0 M22.71 0 C25.46 1.44, 27.47 1.64, 27.95 5.24 M22.71 0 C26.92 0.19, 25.7 3.2, 27.95 5.24 M27.95 5.24 C27.98 9.19, 27 11.97, 27.95 15.71 M27.95 5.24 C28.27 8.49, 27.49 11.49, 27.95 15.71 M27.95 15.71 C29.06 17.72, 26.18 22.22, 22.71 20.95 M27.95 15.71 C25.8 19.11, 25.4 23.07, 22.71 20.95 M22.71 20.95 C17.51 21.81, 12.94 22.04, 5.24 20.95 M22.71 20.95 C15.5 20.64, 9.28 21.05, 5.24 20.95 M5.24 20.95 C3.19 19.76, -1.29 20.89, 0 15.71 M5.24 20.95 C1.23 18.95, 1.58 21.28, 0 15.71 M0 15.71 C0.93 12.15, 0.08 7.24, 0 5.24 M0 15.71 C-0.2 13.17, -0.13 10.37, 0 5.24 M0 5.24 C-0.04 3.62, 2.37 1.36, 5.24 0 M0 5.24 C0.91 0.85, 0.59 -2.06, 5.24 0" stroke="#1e1e1e" stroke-width="2" fill="none"></path></g><g stroke-linecap="round" transform="translate(29.94872554116955 46.22262049353867) rotate(312.47556431009303 25.4296875 23.859375)"><path d="M23.47 0.74 C28.87 -0.18, 35.83 1.47, 40.38 4.23 C44.93 6.99, 49.38 12.58, 50.8 17.29 C52.22 22, 51.31 27.94, 48.91 32.48 C46.51 37.03, 41.17 42.23, 36.41 44.57 C31.65 46.91, 25.5 47.69, 20.33 46.54 C15.17 45.39, 8.75 41.69, 5.43 37.66 C2.12 33.63, 0.03 27.35, 0.44 22.36 C0.86 17.38, 3.43 11.39, 7.93 7.74 C12.43 4.08, 23.71 1.63, 27.46 0.43 C31.21 -0.77, 30.74 0.07, 30.45 0.53 M38.38 3.65 C43.21 5.62, 46.58 9.44, 48.3 13.99 C50.02 18.54, 50.44 25.85, 48.69 30.95 C46.94 36.06, 42.28 42.09, 37.81 44.62 C33.34 47.15, 27.19 46.98, 21.87 46.13 C16.54 45.28, 9.58 43.38, 5.86 39.54 C2.14 35.7, -0.19 28.26, -0.46 23.11 C-0.72 17.97, 0.65 12.22, 4.29 8.67 C7.93 5.13, 15.86 3, 21.37 1.83 C26.87 0.65, 34.7 1.35, 37.32 1.63 C39.95 1.91, 37.52 2.91, 37.11 3.49" stroke="none" stroke-width="0" fill="#fcc2d7"></path><path d="M14.18 2.62 C18.81 0.15, 26.28 -1.24, 31.47 -0.08 C36.66 1.07, 41.98 5.3, 45.32 9.54 C48.66 13.78, 51.8 20.17, 51.51 25.38 C51.22 30.59, 47.51 37.27, 43.6 40.81 C39.69 44.35, 33.38 46.14, 28.07 46.62 C22.76 47.1, 16.36 46.29, 11.76 43.71 C7.16 41.13, 2.05 35.97, 0.47 31.14 C-1.1 26.31, -0.17 19.61, 2.32 14.72 C4.8 9.83, 12.7 3.97, 15.37 1.81 C18.03 -0.36, 17.91 1.29, 18.3 1.72 M28.49 -1.02 C33.91 -0.7, 39.93 4.16, 43.4 7.95 C46.88 11.74, 48.97 16.57, 49.36 21.74 C49.75 26.9, 48.56 34.76, 45.73 38.94 C42.89 43.13, 37.68 45.69, 32.37 46.84 C27.07 48, 18.76 47.82, 13.89 45.89 C9.03 43.97, 5.19 39.81, 3.19 35.29 C1.19 30.77, 0.7 24.05, 1.88 18.75 C3.07 13.45, 6.23 6.66, 10.32 3.49 C14.41 0.32, 23.68 0.17, 26.43 -0.26 C29.19 -0.69, 26.52 0.61, 26.87 0.91" stroke="#1e1e1e" stroke-width="2" fill="none"></path></g></svg>