<svg version="1.1" xmlns="http://www.w3.org/2000/svg" viewBox="0 0 105.26171875 140.8422378015016" width="105.26171875" height="140.8422378015016">
  <!-- svg-source:excalidraw -->
  
  <defs>
    <style class="style-fonts">
      @font-face {
        font-family: "Virgil";
        src: url("https://excalidraw.com/Virgil.woff2");
      }
      @font-face {
        font-family: "Cascadia";
        src: url("https://excalidraw.com/Cascadia.woff2");
      }
      @font-face {
        font-family: "Assistant";
        src: url("https://excalidraw.com/Assistant-Regular.woff2");
      }
    </style>
    
  </defs>
  <g stroke-linecap="round" transform="translate(32.64044744318198 109.06643921733757) rotate(337.5387531331347 19.283203125 7.48828125)"><path d="M3.74 0 C17.51 -0.33, 24.62 2.05, 34.82 0 C39.67 1.54, 40.91 1.92, 38.57 3.74 C37.71 6.38, 37.96 10.54, 38.57 11.23 C37.22 14.91, 36.33 16, 34.82 14.98 C27.34 16.14, 15.3 13.8, 3.74 14.98 C-1.08 17.13, 2.56 11.2, 0 11.23 C-0.54 8.68, -0.64 7.21, 0 3.74 C-1.78 2.09, 1.35 -2.33, 3.74 0" stroke="none" stroke-width="0" fill="#868e96"></path><path d="M3.74 0 C14.1 -0.33, 22.99 -0.8, 34.82 0 M3.74 0 C10.41 0.23, 16.75 -0.1, 34.82 0 M34.82 0 C37.08 -0.07, 37.91 1.9, 38.57 3.74 M34.82 0 C38.08 -1.12, 39.07 1.52, 38.57 3.74 M38.57 3.74 C38.81 6.34, 38.55 9.15, 38.57 11.23 M38.57 3.74 C38.7 5.44, 38.36 7.43, 38.57 11.23 M38.57 11.23 C37.67 12.87, 37.03 14.79, 34.82 14.98 M38.57 11.23 C38.85 13.48, 36.38 14.13, 34.82 14.98 M34.82 14.98 C26.6 15.25, 18.56 13.96, 3.74 14.98 M34.82 14.98 C23.93 14.94, 12.56 14.47, 3.74 14.98 M3.74 14.98 C1.44 14.99, 0.26 14.29, 0 11.23 M3.74 14.98 C1.9 15.18, -1.06 13.58, 0 11.23 M0 11.23 C0.27 8.22, 0.01 5.77, 0 3.74 M0 11.23 C-0.11 8.35, 0.09 5.53, 0 3.74 M0 3.74 C0.68 1.97, 0.89 -0.55, 3.74 0 M0 3.74 C-0.94 0.98, 0.68 0.26, 3.74 0" stroke="#1e1e1e" stroke-width="2" fill="none"></path></g><g stroke-linecap="round" transform="translate(32.826319839014104 16.919422171883525) rotate(337.0766447889431 19.283203125 7.48828125)"><path d="M3.74 0 C8.8 1.88, 20.72 1.63, 34.82 0 C39.66 0.68, 41.12 1.75, 38.57 3.74 C37.85 6.95, 37.98 8.93, 38.57 11.23 C37.58 14.75, 37.26 17.41, 34.82 14.98 C23.52 13.83, 11.91 17.29, 3.74 14.98 C3.81 12.45, -1.21 15.35, 0 11.23 C-0.54 8.35, -0.62 6.24, 0 3.74 C0.1 -1.08, 0.18 -0.39, 3.74 0" stroke="none" stroke-width="0" fill="#868e96"></path><path d="M3.74 0 C12.22 -0.77, 20.68 -0.68, 34.82 0 M3.74 0 C11.06 -0.24, 18.07 -0.07, 34.82 0 M34.82 0 C36.66 0.65, 39.23 0.27, 38.57 3.74 M34.82 0 C37.82 0.27, 39.53 1.71, 38.57 3.74 M38.57 3.74 C38.56 6.36, 38.4 9.34, 38.57 11.23 M38.57 3.74 C38.42 5.55, 38.43 7.26, 38.57 11.23 M38.57 11.23 C38.28 13.54, 37.56 14.76, 34.82 14.98 M38.57 11.23 C37.63 12.88, 36.89 15.8, 34.82 14.98 M34.82 14.98 C26.32 14.05, 18.28 15.15, 3.74 14.98 M34.82 14.98 C27.33 14.56, 19.28 15, 3.74 14.98 M3.74 14.98 C1.51 15.54, 0.56 13.9, 0 11.23 M3.74 14.98 C0.19 14.82, 0.64 12.88, 0 11.23 M0 11.23 C-0.04 8.86, 0.32 6.85, 0 3.74 M0 11.23 C0.12 9.19, 0.15 6.94, 0 3.74 M0 3.74 C-0.36 0.7, 0.43 -0.24, 3.74 0 M0 3.74 C-0.57 1.51, 2.08 -0.68, 3.74 0" stroke="#1e1e1e" stroke-width="2" fill="none"></path></g><g stroke-linecap="round" transform="translate(10 32.545724255215646) rotate(0 42.630859375 38.322265625)"><path d="M19.16 0 C35.44 1.55, 48.45 0.36, 66.1 0 C82.41 0.69, 85.85 3.13, 85.26 19.16 C82.96 30.95, 83.45 40.88, 85.26 57.48 C85.18 73.62, 79.99 79.1, 66.1 76.64 C46.93 79.21, 37.74 72.72, 19.16 76.64 C4.71 78.89, 1.96 68.49, 0 57.48 C-2.05 49.73, 0.55 36.41, 0 19.16 C-1.48 5.85, 5.26 -3.6, 19.16 0" stroke="none" stroke-width="0" fill="#7950f2"></path><path d="M19.16 0 C29.78 -1.07, 42.73 1.21, 66.1 0 M19.16 0 C34.17 0.12, 49.01 0.84, 66.1 0 M66.1 0 C80.2 -1.95, 86.14 6.86, 85.26 19.16 M66.1 0 C80.8 0.92, 87.44 7.78, 85.26 19.16 M85.26 19.16 C84.21 26.11, 84.14 38.22, 85.26 57.48 M85.26 19.16 C84 26.34, 84.61 35.06, 85.26 57.48 M85.26 57.48 C85.75 69.83, 77.24 75.17, 66.1 76.64 M85.26 57.48 C84.41 71.91, 78.33 76.52, 66.1 76.64 M66.1 76.64 C51.82 76.43, 34.04 77.78, 19.16 76.64 M66.1 76.64 C51.84 76.26, 37.47 76.8, 19.16 76.64 M19.16 76.64 C7.51 77, -1.84 69.99, 0 57.48 M19.16 76.64 C7.67 74.94, -0.03 71.72, 0 57.48 M0 57.48 C1.86 50.07, -0.07 40.63, 0 19.16 M0 57.48 C0.47 45.65, -0.57 31.83, 0 19.16 M0 19.16 C-1.63 5.91, 5.39 0.46, 19.16 0 M0 19.16 C1.66 5.02, 4.9 1.95, 19.16 0" stroke="#1e1e1e" stroke-width="2" fill="none"></path></g><g stroke-linecap="round" transform="translate(36.68179290259832 21.99483342197982) rotate(90.684351531919 13.974609375 10.47265625)"><path d="M5.24 0 C8.36 2.77, 20.21 -2.9, 22.71 0 C24.53 2.25, 29.91 -0.02, 27.95 5.24 C26.55 8.29, 27.91 8.42, 27.95 15.71 C26.47 18.66, 25.08 17.35, 22.71 20.95 C21.59 20.94, 12.39 20.99, 5.24 20.95 C2.32 17.67, 0.35 16.2, 0 15.71 C1.05 14.25, -1.22 10.38, 0 5.24 C-0.44 -1.01, -0.62 -2.61, 5.24 0" stroke="none" stroke-width="0" fill="#fcc2d7"></path><path d="M5.24 0 C8.28 -1.32, 12.16 1.72, 22.71 0 M5.24 0 C8.12 -0.72, 12.32 -0.13, 22.71 0 M22.71 0 C26.7 -0.42, 26.32 0.27, 27.95 5.24 M22.71 0 C25.35 1.65, 27.4 1.62, 27.95 5.24 M27.95 5.24 C28.62 8.83, 27.45 13.01, 27.95 15.71 M27.95 5.24 C28.12 8.47, 28.16 11.98, 27.95 15.71 M27.95 15.71 C29.08 19.55, 24.36 20.68, 22.71 20.95 M27.95 15.71 C29.23 17.5, 26.18 22.41, 22.71 20.95 M22.71 20.95 C20.72 21.32, 15.42 19.98, 5.24 20.95 M22.71 20.95 C17.58 21.73, 10.95 20.63, 5.24 20.95 M5.24 20.95 C0.11 20.47, -1 19.66, 0 15.71 M5.24 20.95 C3.4 19.58, -1.49 21.15, 0 15.71 M0 15.71 C1.04 13.42, 1.03 10.17, 0 5.24 M0 15.71 C-0.49 11.35, -0.36 7.82, 0 5.24 M0 5.24 C-1.03 2.66, 0.99 0.79, 5.24 0 M0 5.24 C-0.05 3.9, 2.46 1.57, 5.24 0" stroke="#1e1e1e" stroke-width="2" fill="none"></path></g><g stroke-linecap="round" transform="translate(25.421037946425713 46.95692110629625) rotate(90.684351531919 25.4296875 23.859375)"><path d="M35.25 1.31 C40.16 2.96, 44.05 8.26, 46.73 12.85 C49.41 17.45, 52.04 23.91, 51.32 28.86 C50.61 33.82, 46.65 39.4, 42.45 42.57 C38.25 45.75, 31.69 48.16, 26.12 47.91 C20.55 47.66, 13.38 44.53, 9.03 41.06 C4.67 37.59, 0.76 32.07, -0.01 27.09 C-0.78 22.11, 1.5 15.53, 4.41 11.18 C7.32 6.82, 11.89 2.36, 17.46 0.97 C23.03 -0.43, 33.93 2.11, 37.84 2.81 C41.75 3.51, 41.08 4.77, 40.92 5.19 M21.75 1.93 C26.65 0.8, 31.52 -0.09, 36.24 2.26 C40.96 4.62, 47.99 11.35, 50.08 16.06 C52.17 20.78, 50.83 25.91, 48.76 30.56 C46.7 35.2, 42.4 41.03, 37.69 43.92 C32.98 46.82, 25.72 48.87, 20.5 47.92 C15.27 46.97, 9.86 42.19, 6.34 38.22 C2.82 34.25, -0.41 29.25, -0.61 24.12 C-0.81 18.98, 1.82 11.41, 5.15 7.4 C8.48 3.38, 16.59 0.88, 19.36 0.02 C22.12 -0.84, 21.49 1.98, 21.75 2.24" stroke="none" stroke-width="0" fill="#fcc2d7"></path><path d="M36.24 1.45 C41.05 3.38, 45.48 8.88, 47.73 13.73 C49.98 18.58, 51.09 25.7, 49.73 30.53 C48.37 35.37, 44.16 39.95, 39.57 42.74 C34.98 45.52, 27.46 47.64, 22.2 47.23 C16.93 46.83, 11.67 43.85, 7.97 40.31 C4.27 36.77, 0.54 31.21, 0.02 25.99 C-0.5 20.77, 1.55 13.17, 4.84 8.98 C8.13 4.79, 14.33 1.73, 19.75 0.87 C25.17 0.01, 34.15 3.17, 37.35 3.83 C40.56 4.49, 39.27 4.61, 39 4.85 M26.5 0.26 C31.38 -0.17, 36.42 2.43, 40.56 5.52 C44.7 8.61, 50.22 13.58, 51.34 18.81 C52.47 24.04, 50.46 32.34, 47.32 36.92 C44.18 41.5, 37.74 44.51, 32.52 46.29 C27.29 48.07, 20.81 49.39, 16 47.59 C11.19 45.8, 6.4 40.16, 3.67 35.54 C0.95 30.93, -1.42 24.72, -0.35 19.93 C0.72 15.14, 5.57 9.95, 10.07 6.81 C14.57 3.67, 24.16 2.27, 26.66 1.08 C29.17 -0.11, 25.48 -0.5, 25.11 -0.34" stroke="#1e1e1e" stroke-width="2" fill="none"></path></g></svg>