<svg version="1.1" xmlns="http://www.w3.org/2000/svg" viewBox="0 0 105.26171875 140.8422378015016" width="105.26171875" height="140.8422378015016">
  <!-- svg-source:excalidraw -->
  
  <defs>
    <style class="style-fonts">
      @font-face {
        font-family: "Virgil";
        src: url("https://excalidraw.com/Virgil.woff2");
      }
      @font-face {
        font-family: "Cascadia";
        src: url("https://excalidraw.com/Cascadia.woff2");
      }
      @font-face {
        font-family: "Assistant";
        src: url("https://excalidraw.com/Assistant-Regular.woff2");
      }
    </style>
    
  </defs>
  <g stroke-linecap="round" transform="translate(32.64044744318198 109.06643921733757) rotate(337.5387531331347 19.283203125 7.48828125)"><path d="M3.74 0 C13.23 2.87, 22.46 -0.9, 34.82 0 C39.07 -1.8, 39.75 1.98, 38.57 3.74 C38.38 6.94, 37.74 8.94, 38.57 11.23 C36.26 13.99, 37.61 15.05, 34.82 14.98 C23.91 16.69, 17.7 12.43, 3.74 14.98 C3.3 12.77, 0.95 14.34, 0 11.23 C-0.21 9.94, -1.03 6.83, 0 3.74 C1.12 -0.36, -1.3 -1.93, 3.74 0" stroke="none" stroke-width="0" fill="#868e96"></path><path d="M3.74 0 C10.09 -0.22, 18.16 -0.36, 34.82 0 M3.74 0 C12.33 0.35, 21.17 -0.33, 34.82 0 M34.82 0 C37.61 0.18, 38.17 1.5, 38.57 3.74 M34.82 0 C38.04 0.45, 38.36 0.42, 38.57 3.74 M38.57 3.74 C38.75 6.16, 38.42 8.69, 38.57 11.23 M38.57 3.74 C38.67 6.27, 38.45 8.41, 38.57 11.23 M38.57 11.23 C38.43 13.78, 37.14 15.86, 34.82 14.98 M38.57 11.23 C39.71 14.32, 36.52 14.93, 34.82 14.98 M34.82 14.98 C25.02 15.73, 14.07 13.96, 3.74 14.98 M34.82 14.98 C24.67 15.48, 13.6 14.85, 3.74 14.98 M3.74 14.98 C1.39 15.62, 0.54 13.99, 0 11.23 M3.74 14.98 C1.65 14.95, 0.76 14.77, 0 11.23 M0 11.23 C-0.11 8.94, -0.07 6.29, 0 3.74 M0 11.23 C0.18 8.47, -0.06 5.74, 0 3.74 M0 3.74 C0.67 0.64, 1.72 -0.95, 3.74 0 M0 3.74 C0.56 0.39, 0.92 0.03, 3.74 0" stroke="#1e1e1e" stroke-width="2" fill="none"></path></g><g stroke-linecap="round" transform="translate(32.826319839014104 16.919422171883525) rotate(337.0766447889431 19.283203125 7.48828125)"><path d="M3.74 0 C9.63 -1.66, 18.34 -2.18, 34.82 0 C38.5 0.73, 38.72 -0.97, 38.57 3.74 C37.81 6.23, 37.69 7.59, 38.57 11.23 C38.86 13.81, 37.27 13.35, 34.82 14.98 C29.8 13.14, 24.02 13.1, 3.74 14.98 C2.2 15.59, -0.16 15.96, 0 11.23 C-0.94 9.28, 0.43 6.73, 0 3.74 C-2.54 -0.68, 1.34 -1.62, 3.74 0" stroke="none" stroke-width="0" fill="#868e96"></path><path d="M3.74 0 C12.05 -0.38, 19.69 -0.6, 34.82 0 M3.74 0 C13.26 -0.44, 22.58 -0.02, 34.82 0 M34.82 0 C36.92 0.25, 39.2 1.64, 38.57 3.74 M34.82 0 C37.11 -0.83, 38.7 1.8, 38.57 3.74 M38.57 3.74 C38.42 6.6, 38.66 8.8, 38.57 11.23 M38.57 3.74 C38.49 5.66, 38.56 7.89, 38.57 11.23 M38.57 11.23 C38.38 14.62, 38.32 15.49, 34.82 14.98 M38.57 11.23 C37.76 13.68, 37.66 15.48, 34.82 14.98 M34.82 14.98 C26.19 14.14, 18.48 14.43, 3.74 14.98 M34.82 14.98 C22.78 14.85, 11.34 15.42, 3.74 14.98 M3.74 14.98 C1.78 15.24, 0.35 13.7, 0 11.23 M3.74 14.98 C2.01 16.01, 0.44 14.58, 0 11.23 M0 11.23 C-0.03 9.33, 0.26 7.07, 0 3.74 M0 11.23 C-0.1 8.72, 0.09 6.05, 0 3.74 M0 3.74 C0.47 0.29, 1.74 -0.75, 3.74 0 M0 3.74 C-0.33 1.28, 1.36 -0.8, 3.74 0" stroke="#1e1e1e" stroke-width="2" fill="none"></path></g><g stroke-linecap="round" transform="translate(10 32.545724255215646) rotate(0 42.630859375 38.322265625)"><path d="M19.16 0 C40.18 -2.07, 57.97 1.43, 66.1 0 C79.08 -3.07, 83.47 5.99, 85.26 19.16 C81.54 34.57, 85.14 49.37, 85.26 57.48 C85.19 68.01, 75.52 74.36, 66.1 76.64 C51.08 72.89, 31.7 76.79, 19.16 76.64 C6.16 79.73, -1.43 69.8, 0 57.48 C2.22 40.19, -2.85 24.67, 0 19.16 C0.13 4.14, 4.51 0.38, 19.16 0" stroke="none" stroke-width="0" fill="#7950f2"></path><path d="M19.16 0 C31.48 -1.1, 44.71 0.04, 66.1 0 M19.16 0 C36.8 0.49, 53.44 0.56, 66.1 0 M66.1 0 C80.13 0.78, 84.9 4.95, 85.26 19.16 M66.1 0 C79.15 1.1, 86.31 7.39, 85.26 19.16 M85.26 19.16 C85.53 30.84, 84.62 45.08, 85.26 57.48 M85.26 19.16 C84.91 33, 84.87 47.63, 85.26 57.48 M85.26 57.48 C87.26 71.29, 77.48 76.56, 66.1 76.64 M85.26 57.48 C85.94 71.26, 78.16 77.66, 66.1 76.64 M66.1 76.64 C48.99 74.86, 31.98 77.51, 19.16 76.64 M66.1 76.64 C48.55 77.06, 31.24 76.68, 19.16 76.64 M19.16 76.64 C7.08 76.59, 1.32 72.06, 0 57.48 M19.16 76.64 C7.26 78.34, -0.66 69.72, 0 57.48 M0 57.48 C1.41 43.05, 0.81 31.53, 0 19.16 M0 57.48 C0.81 45.53, 0.61 33.84, 0 19.16 M0 19.16 C0.98 4.89, 5.81 0.05, 19.16 0 M0 19.16 C0.22 4.78, 4.24 -0.12, 19.16 0" stroke="#1e1e1e" stroke-width="2" fill="none"></path></g><g stroke-linecap="round" transform="translate(38.662819688312084 96.89204723666899) rotate(269.315648468081 13.974609375 10.47265625)"><path d="M5.24 0 C9.46 0.63, 13.15 0.22, 22.71 0 C23.95 -3.36, 25.66 4.64, 27.95 5.24 C26.19 9.63, 28.24 12.53, 27.95 15.71 C31.04 17.77, 25.74 24.31, 22.71 20.95 C17.23 18, 13.3 21.2, 5.24 20.95 C-0.5 19.06, 0.38 17.69, 0 15.71 C-0.39 13.51, 1.32 8.97, 0 5.24 C-0.44 0.94, 1.45 3.53, 5.24 0" stroke="none" stroke-width="0" fill="#fcc2d7"></path><path d="M5.24 0 C10.46 -0.42, 13.07 0.1, 22.71 0 M5.24 0 C11.51 -0.46, 18.02 0.11, 22.71 0 M22.71 0 C25.54 -0.47, 29.17 2.94, 27.95 5.24 M22.71 0 C24.93 -1.89, 27.63 1.86, 27.95 5.24 M27.95 5.24 C28.58 7.45, 28 11.45, 27.95 15.71 M27.95 5.24 C28.34 8.69, 27.41 12.63, 27.95 15.71 M27.95 15.71 C26.61 20.78, 27.52 22.49, 22.71 20.95 M27.95 15.71 C26.71 18.08, 26.54 22.42, 22.71 20.95 M22.71 20.95 C16.49 22.16, 11.93 21.67, 5.24 20.95 M22.71 20.95 C16.73 20.81, 9.94 21.5, 5.24 20.95 M5.24 20.95 C1.22 21.71, 1.86 19.12, 0 15.71 M5.24 20.95 C0.89 21.25, 1.54 17.8, 0 15.71 M0 15.71 C-0.69 11.77, 0.13 8.55, 0 5.24 M0 15.71 C0.6 13.19, -0.16 11.24, 0 5.24 M0 5.24 C-1.38 2.66, 2.31 0.12, 5.24 0 M0 5.24 C-1.96 0.6, 1.49 2.13, 5.24 0" stroke="#1e1e1e" stroke-width="2" fill="none"></path></g><g stroke-linecap="round" transform="translate(27.402064732141298 45.15652205235256) rotate(269.315648468081 25.4296875 23.859375)"><path d="M20.09 0.88 C24.94 -0.35, 32.19 1.17, 36.92 3.54 C41.64 5.91, 46.38 10.42, 48.47 15.13 C50.56 19.85, 51.25 27.12, 49.46 31.84 C47.67 36.56, 42.42 40.68, 37.72 43.44 C33.02 46.19, 26.57 49.12, 21.27 48.37 C15.98 47.61, 9.38 43.08, 5.95 38.93 C2.52 34.78, 0.64 28.45, 0.68 23.46 C0.72 18.48, 2.09 13.09, 6.2 9.03 C10.32 4.98, 21.51 0.53, 25.37 -0.85 C29.22 -2.24, 29.18 0.32, 29.33 0.73 M33.5 1.22 C38.73 2.26, 44.37 6.14, 46.99 10.31 C49.61 14.49, 49.77 20.91, 49.21 26.27 C48.65 31.62, 47.65 38.66, 43.62 42.43 C39.59 46.2, 30.88 48.76, 25.03 48.89 C19.17 49.01, 12.49 46.55, 8.47 43.18 C4.45 39.82, 1.6 33.88, 0.9 28.69 C0.21 23.49, 1.81 16.29, 4.28 12.03 C6.76 7.77, 11.15 4.93, 15.75 3.12 C20.35 1.31, 28.86 1.57, 31.87 1.17 C34.88 0.77, 33.95 0.51, 33.81 0.71" stroke="none" stroke-width="0" fill="#fcc2d7"></path><path d="M27.37 0.26 C32.4 0.29, 38.54 3.83, 42.46 7.24 C46.38 10.66, 50.25 15.72, 50.91 20.78 C51.57 25.84, 49.36 33.37, 46.43 37.6 C43.49 41.83, 38.62 44.83, 33.3 46.17 C27.98 47.51, 19.61 47.59, 14.51 45.62 C9.42 43.65, 4.9 38.75, 2.74 34.37 C0.59 29.98, 0.24 24.39, 1.58 19.33 C2.92 14.28, 6.3 7.15, 10.78 4.01 C15.26 0.87, 25.18 1.05, 28.45 0.47 C31.72 -0.11, 30.36 0.08, 30.39 0.56 M20.97 1.41 C26.46 0.54, 35.32 2.42, 39.96 4.82 C44.61 7.23, 47.29 10.99, 48.83 15.83 C50.37 20.66, 50.98 28.91, 49.2 33.83 C47.41 38.75, 42.87 43.14, 38.1 45.36 C33.33 47.58, 25.88 48.06, 20.58 47.14 C15.29 46.22, 9.66 43.69, 6.33 39.84 C3 35.99, 0.62 29.45, 0.59 24.06 C0.56 18.67, 2.44 11.49, 6.16 7.49 C9.88 3.49, 20.18 1.03, 22.92 0.06 C25.65 -0.9, 22.71 1.2, 22.54 1.72" stroke="#1e1e1e" stroke-width="2" fill="none"></path></g></svg>