<svg version="1.1" xmlns="http://www.w3.org/2000/svg" viewBox="0 0 116.9010881696413 140.8422378015016" width="116.9010881696413" height="140.8422378015016">
  <!-- svg-source:excalidraw -->
  
  <defs>
    <style class="style-fonts">
      @font-face {
        font-family: "Virgil";
        src: url("https://excalidraw.com/Virgil.woff2");
      }
      @font-face {
        font-family: "Cascadia";
        src: url("https://excalidraw.com/Cascadia.woff2");
      }
      @font-face {
        font-family: "Assistant";
        src: url("https://excalidraw.com/Assistant-Regular.woff2");
      }
    </style>
    
  </defs>
  <g stroke-linecap="round" transform="translate(32.64044744318198 109.06643921733757) rotate(337.5387531331347 19.283203125 7.48828125)"><path d="M3.74 0 C13.82 1.54, 21.04 -1.15, 34.82 0 C35.9 -2.12, 37.95 -0.05, 38.57 3.74 C38.01 6.99, 38.42 7.74, 38.57 11.23 C40.35 16.08, 38.86 17.32, 34.82 14.98 C25.12 12.7, 13.65 13.37, 3.74 14.98 C3.47 13.63, 1.18 12.75, 0 11.23 C0.31 9.35, 0.39 5.77, 0 3.74 C-1.3 -1.08, 3.41 2.56, 3.74 0" stroke="none" stroke-width="0" fill="#868e96"></path><path d="M3.74 0 C12.96 -0.23, 23.69 0.71, 34.82 0 M3.74 0 C14.78 0.34, 25.32 0.27, 34.82 0 M34.82 0 C37.19 0.51, 38.22 0.79, 38.57 3.74 M34.82 0 C36.37 -1.06, 37.73 0.47, 38.57 3.74 M38.57 3.74 C38.43 6.21, 38.55 8.61, 38.57 11.23 M38.57 3.74 C38.67 6.52, 38.75 9.29, 38.57 11.23 M38.57 11.23 C39.51 14.33, 36.57 14.91, 34.82 14.98 M38.57 11.23 C37.53 13.14, 36.35 14.35, 34.82 14.98 M34.82 14.98 C22.53 13.93, 9.75 14.54, 3.74 14.98 M34.82 14.98 C25.67 14.58, 17.15 15.3, 3.74 14.98 M3.74 14.98 C1.01 14.92, 0.31 13.81, 0 11.23 M3.74 14.98 C0.12 15.71, 0.14 13.17, 0 11.23 M0 11.23 C-0.33 8.46, 0 5.65, 0 3.74 M0 11.23 C-0.19 8.54, 0.08 5.76, 0 3.74 M0 3.74 C-0.01 1.88, 0.31 -0.04, 3.74 0 M0 3.74 C-0.4 2.31, 1.54 -0.05, 3.74 0" stroke="#1e1e1e" stroke-width="2" fill="none"></path></g><g stroke-linecap="round" transform="translate(32.82631983901592 16.919422171883525) rotate(337.0766447889431 19.283203125 7.48828125)"><path d="M3.74 0 C16.62 -1.21, 24.35 -2.4, 34.82 0 C36.7 -1.29, 39.16 3.12, 38.57 3.74 C38.28 4.7, 39.17 8.23, 38.57 11.23 C40.11 16.07, 37.99 17.53, 34.82 14.98 C23.99 12.93, 17.21 13.27, 3.74 14.98 C2.43 13.99, 1.03 13.67, 0 11.23 C0.36 7.91, -0.52 4.47, 0 3.74 C2.16 3.81, -1.28 -1.21, 3.74 0" stroke="none" stroke-width="0" fill="#868e96"></path><path d="M3.74 0 C11.96 0.72, 21.28 0.45, 34.82 0 M3.74 0 C12.5 0.14, 21.02 0.16, 34.82 0 M34.82 0 C36.97 -0.45, 37.74 0.33, 38.57 3.74 M34.82 0 C36.48 -0.78, 39.04 1.53, 38.57 3.74 M38.57 3.74 C38.53 5.88, 38.79 8.76, 38.57 11.23 M38.57 3.74 C38.74 5.33, 38.76 6.89, 38.57 11.23 M38.57 11.23 C37.82 13.66, 36.42 14.46, 34.82 14.98 M38.57 11.23 C37.6 13.1, 38.35 13.94, 34.82 14.98 M34.82 14.98 C27.58 14.55, 21.88 15.08, 3.74 14.98 M34.82 14.98 C25.97 15.22, 17.37 14.84, 3.74 14.98 M3.74 14.98 C1.56 15.06, -0.98 14.36, 0 11.23 M3.74 14.98 C1.39 14.42, 0.92 13.82, 0 11.23 M0 11.23 C0.04 8.6, 0.24 5.97, 0 3.74 M0 11.23 C0.14 8.72, 0.03 6.6, 0 3.74 M0 3.74 C-0.94 1.21, 0.9 0.92, 3.74 0 M0 3.74 C0.29 1.2, 0.65 0.32, 3.74 0" stroke="#1e1e1e" stroke-width="2" fill="none"></path></g><g stroke-linecap="round" transform="translate(10 32.545724255215646) rotate(0 42.630859375 38.322265625)"><path d="M19.16 0 C34.45 -2.64, 52.82 -1.49, 66.1 0 C79.7 2.6, 83.13 4.06, 85.26 19.16 C87.58 37.16, 87.24 51.89, 85.26 57.48 C86.2 73.79, 79.57 77.24, 66.1 76.64 C59.34 74.24, 48.06 74.74, 19.16 76.64 C7.81 76.56, 3.37 71.38, 0 57.48 C-2.08 40.15, 2.71 32.81, 0 19.16 C-3.5 4.71, 8.64 1.96, 19.16 0" stroke="none" stroke-width="0" fill="#7950f2"></path><path d="M19.16 0 C32.89 0.5, 44.37 0.86, 66.1 0 M19.16 0 C36.01 0.29, 52.76 -0.68, 66.1 0 M66.1 0 C77.23 -1.84, 83.8 5.04, 85.26 19.16 M66.1 0 C79.82 0.57, 85.69 5.47, 85.26 19.16 M85.26 19.16 C86.54 31.06, 83.28 41.19, 85.26 57.48 M85.26 19.16 C86.53 32.17, 84.84 43.89, 85.26 57.48 M85.26 57.48 C83.46 69.23, 77.19 75.55, 66.1 76.64 M85.26 57.48 C87.32 68.18, 76.69 76.21, 66.1 76.64 M66.1 76.64 C55.87 77, 45.96 74.88, 19.16 76.64 M66.1 76.64 C55.24 76.93, 45.17 77.06, 19.16 76.64 M19.16 76.64 C4.43 77.91, 0.24 69.29, 0 57.48 M19.16 76.64 C8.22 76.82, 1.5 68.28, 0 57.48 M0 57.48 C1.11 46.39, 0.34 31.2, 0 19.16 M0 57.48 C-0.23 47.13, -1.15 35.47, 0 19.16 M0 19.16 C-0.7 8.23, 6.89 -0.09, 19.16 0 M0 19.16 C-1.19 7.02, 7.64 2.08, 19.16 0" stroke="#1e1e1e" stroke-width="2" fill="none"></path></g><g stroke-linecap="round" transform="translate(78.9518694196413 59.76933318646752) rotate(0 13.974609375 10.47265625)"><path d="M5.24 0 C9.46 -1.73, 17.17 -2, 22.71 0 C27.37 0.14, 24.72 0.26, 27.95 5.24 C26.44 7.67, 29.33 12.87, 27.95 15.71 C27.66 16.32, 25.98 21.52, 22.71 20.95 C16.63 23.65, 14.35 22.74, 5.24 20.95 C3.42 18.96, -1.27 18.76, 0 15.71 C1.21 15.04, -1.53 11.53, 0 5.24 C-0.84 0.84, 1.93 -0.66, 5.24 0" stroke="none" stroke-width="0" fill="#fcc2d7"></path><path d="M5.24 0 C7.32 -0.34, 12.08 0.59, 22.71 0 M5.24 0 C9.79 0.76, 14.77 0.08, 22.71 0 M22.71 0 C26.83 0.16, 25.99 3.01, 27.95 5.24 M22.71 0 C26.48 -1.11, 29.78 1.92, 27.95 5.24 M27.95 5.24 C27.88 9.34, 28.45 13.48, 27.95 15.71 M27.95 5.24 C28.14 8.17, 27.85 12.22, 27.95 15.71 M27.95 15.71 C26.08 19.12, 25.5 22.79, 22.71 20.95 M27.95 15.71 C28.52 19.1, 25.01 21.58, 22.71 20.95 M22.71 20.95 C17.77 20.44, 9.37 19.64, 5.24 20.95 M22.71 20.95 C18.51 20.47, 12.49 21.73, 5.24 20.95 M5.24 20.95 C1.29 19.21, 1.37 21.01, 0 15.71 M5.24 20.95 C3.11 23.02, 0.6 21.46, 0 15.71 M0 15.71 C-0.38 11.69, 0.88 8.48, 0 5.24 M0 15.71 C0.03 12.58, 0.2 8.83, 0 5.24 M0 5.24 C0.8 0.97, 0.74 -1.79, 5.24 0 M0 5.24 C1.91 4.01, -0.49 -1.07, 5.24 0" stroke="#1e1e1e" stroke-width="2" fill="none"></path></g><g stroke-linecap="round" transform="translate(29.153041294641298 45.73027068646752) rotate(0 25.4296875 23.859375)"><path d="M33.84 1.23 C38.76 2.17, 44.17 5.81, 46.92 9.96 C49.66 14.1, 50.87 20.98, 50.32 26.11 C49.77 31.25, 47.48 37.26, 43.63 40.79 C39.78 44.32, 32.74 46.96, 27.22 47.31 C21.7 47.66, 14.8 45.86, 10.52 42.9 C6.25 39.93, 2.77 34.45, 1.59 29.54 C0.41 24.63, 1.2 18.12, 3.45 13.43 C5.7 8.74, 9.19 2.8, 15.1 1.4 C21 -0.01, 33.73 3.82, 38.88 4.99 C44.02 6.15, 46.13 8.1, 45.97 8.39 M31.37 0.53 C36.39 1.79, 42.15 6.82, 45.39 10.87 C48.62 14.92, 51.26 19.87, 50.8 24.84 C50.33 29.81, 46.58 37.13, 42.6 40.68 C38.62 44.23, 32.43 45.79, 26.91 46.15 C21.39 46.51, 13.64 45.33, 9.47 42.82 C5.31 40.32, 3.12 36.19, 1.94 31.12 C0.76 26.04, 0.23 17.14, 2.38 12.35 C4.53 7.56, 10.08 4.26, 14.83 2.37 C19.59 0.48, 28.23 1.39, 30.9 1.03 C33.58 0.66, 30.53 -0.1, 30.88 0.18" stroke="none" stroke-width="0" fill="#fcc2d7"></path><path d="M27.82 -0.19 C33.15 0.2, 40.94 3.51, 44.76 7.37 C48.59 11.22, 50.6 17.96, 50.77 22.94 C50.95 27.93, 48.98 33.21, 45.81 37.26 C42.64 41.31, 37.17 45.79, 31.76 47.23 C26.36 48.67, 18.32 48.14, 13.38 45.9 C8.43 43.67, 4.28 38.62, 2.09 33.81 C-0.1 29, -1.33 22, 0.26 17.05 C1.85 12.1, 6.36 6.74, 11.62 4.1 C16.88 1.46, 28.1 1.73, 31.81 1.2 C35.52 0.66, 34.1 0.5, 33.89 0.89 M14.83 1.56 C19.45 -0.41, 27.64 1.01, 33.1 2.66 C38.55 4.3, 44.77 7.22, 47.55 11.43 C50.34 15.64, 50.54 22.63, 49.78 27.92 C49.03 33.21, 46.8 39.69, 43 43.17 C39.2 46.65, 32.65 49.05, 26.98 48.79 C21.31 48.53, 13.58 45.08, 8.96 41.64 C4.34 38.19, 0.35 32.96, -0.74 28.14 C-1.83 23.32, -0.61 17.28, 2.4 12.71 C5.41 8.14, 15.14 2.29, 17.31 0.73 C19.49 -0.84, 15.53 3.03, 15.45 3.33" stroke="#1e1e1e" stroke-width="2" fill="none"></path></g></svg>