<svg version="1.1" xmlns="http://www.w3.org/2000/svg" viewBox="0 0 108.6787703501941 140.8422378015016" width="108.6787703501941" height="140.8422378015016">
  <!-- svg-source:excalidraw -->
  
  <defs>
    <style class="style-fonts">
      @font-face {
        font-family: "Virgil";
        src: url("https://excalidraw.com/Virgil.woff2");
      }
      @font-face {
        font-family: "Cascadia";
        src: url("https://excalidraw.com/Cascadia.woff2");
      }
      @font-face {
        font-family: "Assistant";
        src: url("https://excalidraw.com/Assistant-Regular.woff2");
      }
    </style>
    
  </defs>
  <g stroke-linecap="round" transform="translate(36.05749904337608 109.06643921733757) rotate(337.5387531331347 19.283203125 7.48828125)"><path d="M3.74 0 C17.55 0.44, 29.22 0.26, 34.82 0 C37.75 -2.35, 37.65 -0.43, 38.57 3.74 C38.15 7.02, 38.49 10.43, 38.57 11.23 C39.38 15.5, 38.35 13.96, 34.82 14.98 C29.61 12.79, 18.08 16.94, 3.74 14.98 C2.66 13.7, -1.75 12.17, 0 11.23 C0.1 8.29, -0.33 6.94, 0 3.74 C-0.81 -1.35, -0.75 -0.75, 3.74 0" stroke="none" stroke-width="0" fill="#868e96"></path><path d="M3.74 0 C9.83 0.52, 17.52 0.3, 34.82 0 M3.74 0 C11.49 0.34, 20.23 -0.48, 34.82 0 M34.82 0 C37.76 0.24, 39.4 1.65, 38.57 3.74 M34.82 0 C38.41 0.7, 37.71 1.17, 38.57 3.74 M38.57 3.74 C38.34 5.65, 38.21 6.53, 38.57 11.23 M38.57 3.74 C38.48 5.81, 38.58 7.91, 38.57 11.23 M38.57 11.23 C37.75 12.99, 36.95 15.7, 34.82 14.98 M38.57 11.23 C38.29 13.67, 37.68 15.07, 34.82 14.98 M34.82 14.98 C28.06 15.79, 22.33 15.65, 3.74 14.98 M34.82 14.98 C28.31 15.26, 21.81 15.07, 3.74 14.98 M3.74 14.98 C0.33 14.84, 0.56 12.99, 0 11.23 M3.74 14.98 C1.23 15.71, -1.08 13.68, 0 11.23 M0 11.23 C-0.05 9.06, 0.07 7.47, 0 3.74 M0 11.23 C-0.09 8.21, -0.18 5.34, 0 3.74 M0 3.74 C-0.5 1.48, 1.97 -0.59, 3.74 0 M0 3.74 C-0.74 2.22, 0.99 -1, 3.74 0" stroke="#1e1e1e" stroke-width="2" fill="none"></path></g><g stroke-linecap="round" transform="translate(36.24337143921002 16.919422171883525) rotate(337.0766447889431 19.283203125 7.48828125)"><path d="M3.74 0 C17.46 0.39, 26.5 -2.46, 34.82 0 C36.41 -1.68, 40.79 -0.09, 38.57 3.74 C38.51 7.24, 38.83 9.58, 38.57 11.23 C39.6 12.72, 36.02 12.65, 34.82 14.98 C21.71 16.21, 12.43 13.31, 3.74 14.98 C-0.5 13.42, -0.61 11.95, 0 11.23 C-0.4 8.6, -0.31 5.28, 0 3.74 C-2 0.49, 3.23 2.29, 3.74 0" stroke="none" stroke-width="0" fill="#868e96"></path><path d="M3.74 0 C11.05 0.12, 17.45 -0.3, 34.82 0 M3.74 0 C13.19 -0.59, 22.19 0.02, 34.82 0 M34.82 0 C38.15 0.4, 39.51 1.85, 38.57 3.74 M34.82 0 C36.46 -0.08, 37.53 0.66, 38.57 3.74 M38.57 3.74 C38.21 5, 38.47 6.64, 38.57 11.23 M38.57 3.74 C38.6 5.3, 38.4 6.81, 38.57 11.23 M38.57 11.23 C38.2 14.45, 37.08 14.92, 34.82 14.98 M38.57 11.23 C38.93 13.82, 36.19 15.71, 34.82 14.98 M34.82 14.98 C25.2 15.75, 14.56 15.29, 3.74 14.98 M34.82 14.98 C25.73 15.15, 15.61 15, 3.74 14.98 M3.74 14.98 C1.8 14.24, -0.01 14.36, 0 11.23 M3.74 14.98 C0.17 14.93, -0.4 14.79, 0 11.23 M0 11.23 C0.1 9, 0.34 6.62, 0 3.74 M0 11.23 C-0.14 8.4, -0.08 5.71, 0 3.74 M0 3.74 C0.72 0.66, 0.6 0.85, 3.74 0 M0 3.74 C-0.26 0.25, 2.04 1.04, 3.74 0" stroke="#1e1e1e" stroke-width="2" fill="none"></path></g><g stroke-linecap="round" transform="translate(13.4170516001941 32.545724255215646) rotate(0 42.630859375 38.322265625)"><path d="M19.16 0 C35.06 -3.42, 48.5 -2.49, 66.1 0 C81.96 -1.86, 86.9 5.03, 85.26 19.16 C86.37 34.62, 86.68 43.77, 85.26 57.48 C83.46 67.03, 81.86 80.19, 66.1 76.64 C58.54 75.41, 44.64 75.01, 19.16 76.64 C5.54 74.18, 1.17 70.4, 0 57.48 C-0.84 45.82, -2.48 40.32, 0 19.16 C2.74 9.56, 6.1 -2.88, 19.16 0" stroke="none" stroke-width="0" fill="#7950f2"></path><path d="M19.16 0 C34.37 -0.57, 51.05 -1.4, 66.1 0 M19.16 0 C36.73 0.69, 54.26 0.86, 66.1 0 M66.1 0 C80.77 1.21, 83.77 6.25, 85.26 19.16 M66.1 0 C76.8 -1.18, 83.32 5.13, 85.26 19.16 M85.26 19.16 C84.54 32.29, 83.19 48.44, 85.26 57.48 M85.26 19.16 C84.54 29.2, 84.99 41.44, 85.26 57.48 M85.26 57.48 C84.79 70.15, 79.5 76.81, 66.1 76.64 M85.26 57.48 C83.01 71.72, 79.15 75.53, 66.1 76.64 M66.1 76.64 C46.56 77.33, 30.5 77.48, 19.16 76.64 M66.1 76.64 C48.47 76.59, 33.24 75.99, 19.16 76.64 M19.16 76.64 C6.36 77.92, -1.87 70.18, 0 57.48 M19.16 76.64 C5.58 78.77, 0.57 70.16, 0 57.48 M0 57.48 C1.71 49.32, 1.33 37.74, 0 19.16 M0 57.48 C-0.18 48.31, 1.03 38.08, 0 19.16 M0 19.16 C-1.29 8.08, 5.94 -1.74, 19.16 0 M0 19.16 C1.58 8.47, 7.75 2.07, 19.16 0" stroke="#1e1e1e" stroke-width="2" fill="none"></path></g><g stroke-linecap="round" transform="translate(13.186373760761853 30.81458684460722) rotate(47.524435689906944 13.974609375 10.47265625)"><path d="M5.24 0 C12.58 1.15, 14.42 -1.67, 22.71 0 C22.98 2.99, 31.49 -1.75, 27.95 5.24 C27.14 6.63, 26.94 10.1, 27.95 15.71 C25.49 20.37, 26.34 17.72, 22.71 20.95 C15.05 18.43, 12.76 23.24, 5.24 20.95 C4.92 20.66, -2.88 18.98, 0 15.71 C-1.4 10.94, 1.95 8.46, 0 5.24 C2.35 3.42, -0.24 -1.27, 5.24 0" stroke="none" stroke-width="0" fill="#fcc2d7"></path><path d="M5.24 0 C13 -1.47, 18.52 -1.74, 22.71 0 M5.24 0 C10.37 -0.69, 13.1 -0.07, 22.71 0 M22.71 0 C24.4 -1.73, 27.38 1.37, 27.95 5.24 M22.71 0 C26.77 -0.49, 26.07 0.05, 27.95 5.24 M27.95 5.24 C27.97 8.32, 28.11 9.72, 27.95 15.71 M27.95 5.24 C28.38 9.08, 28.3 12.4, 27.95 15.71 M27.95 15.71 C28.33 19.23, 26.73 22.06, 22.71 20.95 M27.95 15.71 C29.25 19.6, 24.08 20.64, 22.71 20.95 M22.71 20.95 C17.61 19.31, 10.21 20.33, 5.24 20.95 M22.71 20.95 C15.4 21.18, 9.47 21.73, 5.24 20.95 M5.24 20.95 C3.1 22.38, -0.72 18.11, 0 15.71 M5.24 20.95 C-0.13 20.4, -1.14 19.73, 0 15.71 M0 15.71 C0.95 11.58, -0.85 8.63, 0 5.24 M0 15.71 C0.07 12.13, 0.04 7.62, 0 5.24 M0 5.24 C-1.81 1.04, 0.45 1.71, 5.24 0 M0 5.24 C-1.19 2.79, 0.88 0.91, 5.24 0" stroke="#1e1e1e" stroke-width="2" fill="none"></path></g><g stroke-linecap="round" transform="translate(28.10504480902091 45.26837942211296) rotate(47.524435689906944 25.4296875 23.859375)"><path d="M15.56 2.68 C20.12 0.45, 26.78 -0.95, 32.1 0.35 C37.43 1.65, 44.55 6.01, 47.51 10.5 C50.46 14.99, 50.44 22.07, 49.82 27.29 C49.21 32.5, 47.47 38.35, 43.81 41.79 C40.14 45.23, 33.26 47.7, 27.84 47.94 C22.41 48.17, 15.75 46.45, 11.25 43.21 C6.75 39.96, 2.34 33.6, 0.86 28.48 C-0.63 23.37, -0.51 17.14, 2.34 12.53 C5.19 7.92, 15.08 2.75, 17.94 0.81 C20.79 -1.13, 19.4 0.43, 19.47 0.89 M37.49 1.98 C42.05 3.5, 45.8 8.07, 48.05 13.12 C50.31 18.16, 52.71 27.23, 51.02 32.23 C49.33 37.23, 42.51 40.44, 37.9 43.13 C33.29 45.82, 28.65 49.02, 23.36 48.37 C18.07 47.71, 10.19 43.11, 6.16 39.19 C2.12 35.26, -0.51 29.7, -0.86 24.84 C-1.21 19.99, 0.62 14.32, 4.04 10.06 C7.46 5.8, 14.31 0.57, 19.68 -0.71 C25.05 -2, 33.52 1.97, 36.28 2.34 C39.03 2.7, 36.48 1.17, 36.2 1.49" stroke="none" stroke-width="0" fill="#fcc2d7"></path><path d="M13.81 3.28 C18.26 0.87, 25.42 -1.17, 30.76 -0.22 C36.1 0.73, 42.66 4.74, 45.86 9 C49.06 13.25, 50.33 20.02, 49.93 25.31 C49.53 30.6, 47.17 37.16, 43.48 40.73 C39.79 44.31, 33.31 46.36, 27.8 46.78 C22.28 47.2, 14.76 46, 10.41 43.23 C6.05 40.45, 3.05 34.93, 1.68 30.13 C0.31 25.32, -0.32 19.33, 2.18 14.4 C4.68 9.46, 13.76 2.68, 16.68 0.51 C19.6 -1.66, 19.63 0.71, 19.68 1.38 M26.7 0.04 C31.79 0.28, 38.78 3.56, 42.91 7.03 C47.04 10.51, 51.03 16, 51.47 20.89 C51.91 25.79, 48.47 32.29, 45.56 36.38 C42.65 40.48, 38.99 43.72, 34.03 45.47 C29.07 47.22, 21.21 48.66, 15.79 46.9 C10.38 45.14, 4.15 39.37, 1.53 34.92 C-1.1 30.47, -1.4 25.19, 0.05 20.19 C1.5 15.2, 5.96 8.23, 10.23 4.94 C14.49 1.64, 22.81 0.94, 25.64 0.43 C28.47 -0.08, 26.93 1.35, 27.21 1.85" stroke="#1e1e1e" stroke-width="2" fill="none"></path></g></svg>