<svg version="1.1" xmlns="http://www.w3.org/2000/svg" viewBox="0 0 63.671875 62.34933035714289" width="63.671875" height="62.34933035714289">
  <!-- svg-source:excalidraw -->
  
  <defs>
    <style class="style-fonts">
      @font-face {
        font-family: "Virgil";
        src: url("https://excalidraw.com/Virgil.woff2");
      }
      @font-face {
        font-family: "Cascadia";
        src: url("https://excalidraw.com/Cascadia.woff2");
      }
      @font-face {
        font-family: "Assistant";
        src: url("https://excalidraw.com/Assistant-Regular.woff2");
      }
    </style>
    
  </defs>
  <g stroke-linecap="round" transform="translate(10 10) rotate(0 21.8359375 21.174665178571445)"><path d="M2.82 2.45 C2.82 2.45, 2.82 2.45, 2.82 2.45 M2.82 2.45 C2.82 2.45, 2.82 2.45, 2.82 2.45 M0.33 17.51 C5.78 11.23, 11.24 4.96, 15.42 0.15 M0.33 17.51 C4.04 13.24, 7.75 8.97, 15.42 0.15 M0.46 29.55 C10.09 18.47, 19.72 7.4, 26.05 0.12 M0.46 29.55 C8.06 20.81, 15.66 12.06, 26.05 0.12 M2.56 39.33 C12.19 28.25, 21.81 17.18, 36.02 0.84 M2.56 39.33 C15.16 24.84, 27.75 10.35, 36.02 0.84 M9.91 43.07 C22.76 28.29, 35.61 13.51, 42.71 5.33 M9.91 43.07 C18.06 33.69, 26.22 24.31, 42.71 5.33 M20.54 43.03 C28.13 34.3, 35.72 25.57, 44.16 15.86 M20.54 43.03 C27.63 34.88, 34.71 26.73, 44.16 15.86 M31.17 43 C36.13 37.29, 41.09 31.58, 44.29 27.9 M31.17 43 C35.23 38.33, 39.28 33.67, 44.29 27.9" stroke="#343a40" stroke-width="1" fill="none"></path><path d="M10.59 0 C15.44 0, 20.29 0, 33.08 0 M10.59 0 C17.92 0, 25.25 0, 33.08 0 M33.08 0 C40.14 0, 43.67 3.53, 43.67 10.59 M33.08 0 C40.14 0, 43.67 3.53, 43.67 10.59 M43.67 10.59 C43.67 17.87, 43.67 25.16, 43.67 31.76 M43.67 10.59 C43.67 15.09, 43.67 19.58, 43.67 31.76 M43.67 31.76 C43.67 38.82, 40.14 42.35, 33.08 42.35 M43.67 31.76 C43.67 38.82, 40.14 42.35, 33.08 42.35 M33.08 42.35 C27.18 42.35, 21.27 42.35, 10.59 42.35 M33.08 42.35 C26.67 42.35, 20.26 42.35, 10.59 42.35 M10.59 42.35 C3.53 42.35, 0 38.82, 0 31.76 M10.59 42.35 C3.53 42.35, 0 38.82, 0 31.76 M0 31.76 C0 24.3, 0 16.84, 0 10.59 M0 31.76 C0 27.27, 0 22.77, 0 10.59 M0 10.59 C0 3.53, 3.53 0, 10.59 0 M0 10.59 C0 3.53, 3.53 0, 10.59 0" stroke="#1e1e1e" stroke-width="2" fill="none"></path></g></svg>