<svg version="1.1" xmlns="http://www.w3.org/2000/svg" viewBox="0 0 63.671875 62.34933035714289" width="63.671875" height="62.34933035714289">
  <!-- svg-source:excalidraw -->
  
  <defs>
    <style class="style-fonts">
      @font-face {
        font-family: "Virgil";
        src: url("https://excalidraw.com/Virgil.woff2");
      }
      @font-face {
        font-family: "Cascadia";
        src: url("https://excalidraw.com/Cascadia.woff2");
      }
      @font-face {
        font-family: "Assistant";
        src: url("https://excalidraw.com/Assistant-Regular.woff2");
      }
    </style>
    
  </defs>
  <g stroke-linecap="round" transform="translate(10 10) rotate(0 21.8359375 21.174665178571445)"><path d="M10.59 0 C18.53 0, 26.47 0, 33.08 0 C40.14 0, 43.67 3.53, 43.67 10.59 C43.67 15.01, 43.67 19.43, 43.67 31.76 C43.67 38.82, 40.14 42.35, 33.08 42.35 C27.04 42.35, 20.99 42.35, 10.59 42.35 C3.53 42.35, 0 38.82, 0 31.76 C0 23.91, 0 16.06, 0 10.59 C0 3.53, 3.53 0, 10.59 0" stroke="none" stroke-width="0" fill="#2f9e44"></path><path d="M10.59 0 C15.44 0, 20.29 0, 33.08 0 M10.59 0 C17.92 0, 25.25 0, 33.08 0 M33.08 0 C40.14 0, 43.67 3.53, 43.67 10.59 M33.08 0 C40.14 0, 43.67 3.53, 43.67 10.59 M43.67 10.59 C43.67 17.87, 43.67 25.16, 43.67 31.76 M43.67 10.59 C43.67 15.09, 43.67 19.58, 43.67 31.76 M43.67 31.76 C43.67 38.82, 40.14 42.35, 33.08 42.35 M43.67 31.76 C43.67 38.82, 40.14 42.35, 33.08 42.35 M33.08 42.35 C27.18 42.35, 21.27 42.35, 10.59 42.35 M33.08 42.35 C26.67 42.35, 20.26 42.35, 10.59 42.35 M10.59 42.35 C3.53 42.35, 0 38.82, 0 31.76 M10.59 42.35 C3.53 42.35, 0 38.82, 0 31.76 M0 31.76 C0 24.3, 0 16.84, 0 10.59 M0 31.76 C0 27.27, 0 22.77, 0 10.59 M0 10.59 C0 3.53, 3.53 0, 10.59 0 M0 10.59 C0 3.53, 3.53 0, 10.59 0" stroke="#2f9e44" stroke-width="2" fill="none"></path></g></svg>