<svg version="1.1" xmlns="http://www.w3.org/2000/svg" viewBox="0 0 116.80622209821422 127.12357954545496" width="116.80622209821422" height="127.12357954545496">
  <!-- svg-source:excalidraw -->
  
  <defs>
    <style class="style-fonts">
      @font-face {
        font-family: "Virgil";
        src: url("https://excalidraw.com/Virgil.woff2");
      }
      @font-face {
        font-family: "Cascadia";
        src: url("https://excalidraw.com/Cascadia.woff2");
      }
      @font-face {
        font-family: "Assistant";
        src: url("https://excalidraw.com/Assistant-Regular.woff2");
      }
    </style>
    
  </defs>
  <g stroke-linecap="round" transform="translate(21.54450334821422 24.85274621212102) rotate(0 42.630859375 38.322265625)"><path d="M19.16 0 C30.1 -0.04, 43.73 -0.99, 66.1 0 C75.52 -0.55, 87.5 9.55, 85.26 19.16 C86.95 28.95, 84.82 34.97, 85.26 57.48 C83.59 71.8, 76.58 78.51, 66.1 76.64 C47.92 79.35, 30.08 74.23, 19.16 76.64 C7.14 80.21, 2.15 73.84, 0 57.48 C0.23 44.58, 2.77 25.45, 0 19.16 C3.08 6.66, 5.96 -0.18, 19.16 0" stroke="none" stroke-width="0" fill="#7950f2"></path><path d="M19.16 0 C32.26 -1.59, 42.21 1.54, 66.1 0 M19.16 0 C30.28 -0.4, 41.49 -1.09, 66.1 0 M66.1 0 C77.73 -1.49, 86.73 4.75, 85.26 19.16 M66.1 0 C79.38 -2.13, 84.71 6.28, 85.26 19.16 M85.26 19.16 C87.06 29.6, 84.62 38.4, 85.26 57.48 M85.26 19.16 C84.81 27.94, 84.95 36.07, 85.26 57.48 M85.26 57.48 C86.76 71.67, 78.07 75.97, 66.1 76.64 M85.26 57.48 C85.59 69.87, 80.51 75.61, 66.1 76.64 M66.1 76.64 C47.34 75.11, 29.34 75.56, 19.16 76.64 M66.1 76.64 C51.42 76.96, 35.18 77.2, 19.16 76.64 M19.16 76.64 C8.23 74.99, 0.9 68.9, 0 57.48 M19.16 76.64 C6.2 76.15, 1.02 72.34, 0 57.48 M0 57.48 C-1.76 51.09, 0.48 40.49, 0 19.16 M0 57.48 C-0.55 45.16, 0.21 30.8, 0 19.16 M0 19.16 C1.3 6.07, 5.02 -0.91, 19.16 0 M0 19.16 C0.8 6.59, 6.27 1.14, 19.16 0" stroke="#1e1e1e" stroke-width="2" fill="none"></path></g><g stroke-linecap="round" transform="translate(45.41349600919875 102.14701704545496) rotate(0 19.283203125 7.48828125)"><path d="M3.74 0 C13.32 -1.01, 16.4 -0.34, 34.82 0 C38.94 2.28, 37.26 3.28, 38.57 3.74 C38.33 5.27, 38.15 9, 38.57 11.23 C36.91 15.08, 39.26 12.82, 34.82 14.98 C25.05 13.57, 17.04 17.86, 3.74 14.98 C2.8 17.56, 1.89 12.23, 0 11.23 C0.65 7.33, 0.84 5.38, 0 3.74 C-0.31 1.12, 1.08 1.59, 3.74 0" stroke="none" stroke-width="0" fill="#868e96"></path><path d="M3.74 0 C15.3 1.03, 26.14 -0.55, 34.82 0 M3.74 0 C15.19 -0.37, 26.55 -0.36, 34.82 0 M34.82 0 C38.05 -0.82, 38.79 0.32, 38.57 3.74 M34.82 0 C37.04 -0.05, 37.85 1.29, 38.57 3.74 M38.57 3.74 C38.48 6.24, 38.32 8.51, 38.57 11.23 M38.57 3.74 C38.46 6.26, 38.68 9.02, 38.57 11.23 M38.57 11.23 C38.17 13.39, 37.46 14.81, 34.82 14.98 M38.57 11.23 C39.39 13.21, 38.18 15.44, 34.82 14.98 M34.82 14.98 C25.97 14.43, 18.93 15.11, 3.74 14.98 M34.82 14.98 C22.36 15.02, 10.92 14.55, 3.74 14.98 M3.74 14.98 C1.7 14.3, -0.08 13.51, 0 11.23 M3.74 14.98 C1.76 16.02, -0.94 14.1, 0 11.23 M0 11.23 C0.14 8.83, 0.17 6.61, 0 3.74 M0 11.23 C0.07 8.73, 0.14 6.51, 0 3.74 M0 3.74 C-0.68 0.79, 1.59 0.09, 3.74 0 M0 3.74 C-0.06 1.82, 0.46 -0.97, 3.74 0" stroke="#1e1e1e" stroke-width="2" fill="none"></path></g><g stroke-linecap="round" transform="translate(45.59936840503224 10) rotate(0 19.283203125 7.48828125)"><path d="M3.74 0 C10.19 -0.23, 23.1 2.45, 34.82 0 C36.01 2.03, 39.17 2.08, 38.57 3.74 C38.09 6.45, 37.92 8.83, 38.57 11.23 C40.51 11.57, 37.18 14.55, 34.82 14.98 C23.67 17.28, 12.98 17.3, 3.74 14.98 C3.14 13.48, 2.49 13.61, 0 11.23 C0.77 8.77, -0.18 6.12, 0 3.74 C-0.17 2.84, 3.51 -0.79, 3.74 0" stroke="none" stroke-width="0" fill="#868e96"></path><path d="M3.74 0 C10.51 -0.8, 19.19 -0.29, 34.82 0 M3.74 0 C12.59 -0.26, 22.37 -0.29, 34.82 0 M34.82 0 C37.54 -0.93, 38.33 1.2, 38.57 3.74 M34.82 0 C36.61 0.04, 38.66 2.27, 38.57 3.74 M38.57 3.74 C38.27 6.63, 38.72 9, 38.57 11.23 M38.57 3.74 C38.69 6.25, 38.47 8.42, 38.57 11.23 M38.57 11.23 C38.71 13.56, 38.03 14.53, 34.82 14.98 M38.57 11.23 C39.43 14.2, 36.85 14.3, 34.82 14.98 M34.82 14.98 C27.83 15.14, 21.29 15.4, 3.74 14.98 M34.82 14.98 C26.31 14.58, 17.09 14.66, 3.74 14.98 M3.74 14.98 C1.17 14.76, 0.44 14.63, 0 11.23 M3.74 14.98 C0.3 15.35, 0.15 12.79, 0 11.23 M0 11.23 C0.13 8.33, 0.04 5.1, 0 3.74 M0 11.23 C0.11 8.52, -0.14 5.79, 0 3.74 M0 3.74 C0.35 1.34, 1.2 0.49, 3.74 0 M0 3.74 C-0.79 0.27, 0.59 0.02, 3.74 0" stroke="#343a40" stroke-width="2" fill="none"></path></g><g stroke-linecap="round" transform="translate(10 53.819602272727025) rotate(0 13.974609375 10.47265625)"><path d="M5.24 0 C11.72 2.81, 12.7 2.5, 22.71 0 C27.04 1.15, 28.17 0.77, 27.95 5.24 C26.66 8.39, 29.27 8.02, 27.95 15.71 C27.76 18.61, 28.95 20.1, 22.71 20.95 C20.5 24.38, 16.82 19.45, 5.24 20.95 C5.19 20.77, 1.38 21.58, 0 15.71 C-0.38 13.48, -0.28 12.59, 0 5.24 C3.14 0.65, -1.78 2.53, 5.24 0" stroke="none" stroke-width="0" fill="#ffd8a8"></path><path d="M5.24 0 C13.36 -0.14, 18.88 -0.24, 22.71 0 M5.24 0 C9.8 -0.58, 13.29 -0.68, 22.71 0 M22.71 0 C25.72 -0.1, 26.71 1.81, 27.95 5.24 M22.71 0 C26.4 2.05, 29.47 0.99, 27.95 5.24 M27.95 5.24 C28.33 8.26, 28.05 12.08, 27.95 15.71 M27.95 5.24 C27.82 7.87, 28.1 10.76, 27.95 15.71 M27.95 15.71 C29.37 18.3, 27.7 21.76, 22.71 20.95 M27.95 15.71 C27.02 17.85, 24.65 19.13, 22.71 20.95 M22.71 20.95 C19.86 21.85, 13.59 19.99, 5.24 20.95 M22.71 20.95 C17.65 20.21, 11.72 20.61, 5.24 20.95 M5.24 20.95 C2.63 22.75, -1.64 19.85, 0 15.71 M5.24 20.95 C2.05 19.06, 2.25 19.89, 0 15.71 M0 15.71 C0.1 12.22, 0.57 10.03, 0 5.24 M0 15.71 C-0.43 13.23, 0.11 11.28, 0 5.24 M0 5.24 C-0.1 2.73, 0.38 -1.69, 5.24 0 M0 5.24 C-1.32 1.79, 1.41 1.8, 5.24 0" stroke="#1e1e1e" stroke-width="2" fill="none"></path></g><g stroke-linecap="round" transform="translate(36.888671875 39.780539772727025) rotate(0 25.4296875 23.859375)"><path d="M27.43 -0.09 C32.82 -0.2, 39.51 3.35, 43.41 6.84 C47.31 10.32, 50.22 15.72, 50.84 20.82 C51.46 25.92, 50.33 32.99, 47.13 37.43 C43.93 41.86, 37 46.16, 31.65 47.42 C26.29 48.69, 19.91 47.12, 15 45 C10.08 42.88, 4.51 39.21, 2.15 34.73 C-0.21 30.24, -0.63 23.24, 0.83 18.1 C2.29 12.97, 6.18 6.96, 10.92 3.91 C15.65 0.87, 25.58 0.25, 29.23 -0.17 C32.88 -0.6, 32.62 0.96, 32.82 1.38 M15.33 1.79 C20.04 -0.76, 27.29 -0.33, 32.46 0.99 C37.62 2.31, 43.31 5.89, 46.3 9.7 C49.29 13.51, 50.92 18.66, 50.41 23.85 C49.9 29.05, 47.07 36.79, 43.24 40.87 C39.41 44.95, 32.54 48.05, 27.44 48.33 C22.33 48.61, 16.99 45.53, 12.58 42.55 C8.18 39.58, 2.55 35.21, 0.99 30.46 C-0.57 25.72, 1.22 18.67, 3.22 14.07 C5.23 9.46, 10.94 4.56, 13.02 2.86 C15.1 1.16, 15.12 3.38, 15.72 3.86" stroke="none" stroke-width="0" fill="#ffd8a8"></path><path d="M22.11 0.85 C27.21 0.19, 34.42 1.63, 38.9 4.34 C43.38 7.05, 47.36 12.34, 48.97 17.12 C50.58 21.89, 50.65 28.3, 48.58 33.01 C46.51 37.73, 41.28 42.98, 36.54 45.42 C31.79 47.86, 25.43 48.83, 20.09 47.65 C14.75 46.47, 7.94 42.51, 4.48 38.32 C1.02 34.13, -1.21 27.8, -0.68 22.52 C-0.16 17.24, 3.15 10.45, 7.63 6.62 C12.11 2.79, 22.68 0.4, 26.22 -0.46 C29.76 -1.31, 28.77 1.08, 28.85 1.49 M22.24 -0.34 C27.44 -1.31, 34.98 1.33, 39.41 3.88 C43.83 6.43, 47.3 10.45, 48.77 14.96 C50.25 19.48, 50.16 25.98, 48.26 30.98 C46.35 35.97, 41.84 41.99, 37.33 44.95 C32.83 47.9, 26.33 49.71, 21.21 48.71 C16.08 47.7, 10.27 43.05, 6.59 38.91 C2.91 34.78, -1 29.19, -0.85 23.9 C-0.71 18.6, 3.65 11.26, 7.44 7.17 C11.22 3.07, 19.57 0.43, 21.85 -0.68 C24.14 -1.8, 21.07 -0.3, 21.14 0.48" stroke="#1e1e1e" stroke-width="2" fill="none"></path></g></svg>