<svg version="1.1" xmlns="http://www.w3.org/2000/svg" viewBox="0 0 107.63022124304916 127.12357954545405" width="107.63022124304916" height="127.12357954545405">
  <!-- svg-source:excalidraw -->
  
  <defs>
    <style class="style-fonts">
      @font-face {
        font-family: "Virgil";
        src: url("https://excalidraw.com/Virgil.woff2");
      }
      @font-face {
        font-family: "Cascadia";
        src: url("https://excalidraw.com/Cascadia.woff2");
      }
      @font-face {
        font-family: "Assistant";
        src: url("https://excalidraw.com/Assistant-Regular.woff2");
      }
    </style>
    
  </defs>
  <g stroke-linecap="round" transform="translate(10 24.85274621212011) rotate(0 42.630859375 38.322265625)"><path d="M19.16 0 C36.31 3.59, 51.37 -0.93, 66.1 0 C77.76 -2.13, 88.13 4.92, 85.26 19.16 C84.43 23.91, 85.6 32.39, 85.26 57.48 C82.06 69.17, 81.32 75.63, 66.1 76.64 C56.64 77.49, 46.27 74.74, 19.16 76.64 C3.26 79.32, 1.06 68.44, 0 57.48 C0.15 39.91, 2.66 27.15, 0 19.16 C0.68 7.32, 9 0.28, 19.16 0" stroke="none" stroke-width="0" fill="#a18072"></path><path d="M19.16 0 C37.65 0.07, 53.3 1.27, 66.1 0 M19.16 0 C35.69 -0.75, 53.4 0.14, 66.1 0 M66.1 0 C80.37 0.66, 86.34 6.56, 85.26 19.16 M66.1 0 C77.55 1.98, 85.26 6.7, 85.26 19.16 M85.26 19.16 C83.47 30.3, 83.89 38.89, 85.26 57.48 M85.26 19.16 C85.01 27.78, 84.6 37.84, 85.26 57.48 M85.26 57.48 C85.47 68.53, 80.32 75.74, 66.1 76.64 M85.26 57.48 C86.06 72.28, 81 74.47, 66.1 76.64 M66.1 76.64 C53.27 77.74, 37.37 78.7, 19.16 76.64 M66.1 76.64 C51.74 75.55, 35.45 77.08, 19.16 76.64 M19.16 76.64 C4.97 77.37, 1 71.55, 0 57.48 M19.16 76.64 C8.68 76.6, 0.88 68.91, 0 57.48 M0 57.48 C0.44 43.82, -0.05 25.54, 0 19.16 M0 57.48 C0.59 42.94, -1 28.55, 0 19.16 M0 19.16 C-1.24 5.17, 6.69 -1.83, 19.16 0 M0 19.16 C0.68 5.82, 4.97 0.59, 19.16 0" stroke="#1e1e1e" stroke-width="2" fill="none"></path></g><g stroke-linecap="round" transform="translate(33.868992660984986 102.14701704545405) rotate(0 19.283203125 7.48828125)"><path d="M3.74 0 C10.41 -1.34, 18.33 -1.89, 34.82 0 C39.39 -1.06, 36.13 1.26, 38.57 3.74 C38.63 5.66, 37.68 8.67, 38.57 11.23 C40.33 13, 35.2 13.7, 34.82 14.98 C24.84 13.43, 11.59 16.97, 3.74 14.98 C2.01 13.66, 1.79 14.55, 0 11.23 C0.77 8.99, 0.17 8.11, 0 3.74 C1.89 1.45, 2.11 0.76, 3.74 0" stroke="none" stroke-width="0" fill="#868e96"></path><path d="M3.74 0 C13.06 0.62, 22.91 0.7, 34.82 0 M3.74 0 C14.95 0.3, 27.1 0.23, 34.82 0 M34.82 0 C37.86 0.09, 37.99 2.11, 38.57 3.74 M34.82 0 C37.32 0.16, 38.16 1.2, 38.57 3.74 M38.57 3.74 C38.28 5.4, 38.32 7.14, 38.57 11.23 M38.57 3.74 C38.46 5.68, 38.58 7.4, 38.57 11.23 M38.57 11.23 C39.29 13.27, 37.67 15.86, 34.82 14.98 M38.57 11.23 C39.63 12.64, 37.45 15.68, 34.82 14.98 M34.82 14.98 C25.36 16.05, 15.59 15.31, 3.74 14.98 M34.82 14.98 C26.32 15.12, 17.85 15.01, 3.74 14.98 M3.74 14.98 C1.75 15.62, 1 13.71, 0 11.23 M3.74 14.98 C1.69 14.3, 1.06 14.5, 0 11.23 M0 11.23 C0.02 8.37, 0.3 6.41, 0 3.74 M0 11.23 C-0.18 8.42, -0.15 5.36, 0 3.74 M0 3.74 C0.15 0.33, 1.54 -0.25, 3.74 0 M0 3.74 C-0.71 1.54, 1.92 0.22, 3.74 0" stroke="#1e1e1e" stroke-width="2" fill="none"></path></g><g stroke-linecap="round" transform="translate(34.05486505681802 10) rotate(0 19.283203125 7.48828125)"><path d="M3.74 0 C14.98 -1.39, 29.9 -0.91, 34.82 0 C34.88 0.02, 39.83 0.64, 38.57 3.74 C37.71 5.04, 39.24 6.65, 38.57 11.23 C36.45 12.45, 38.29 15.56, 34.82 14.98 C22.78 16.66, 16.02 13.41, 3.74 14.98 C3.04 15.79, -1.94 14, 0 11.23 C0.11 9.95, 0.63 8.24, 0 3.74 C0.86 2, -0.79 -1.65, 3.74 0" stroke="none" stroke-width="0" fill="#868e96"></path><path d="M3.74 0 C13.86 0.61, 23.26 -0.98, 34.82 0 M3.74 0 C12.11 0.09, 20.01 -0.03, 34.82 0 M34.82 0 C36.74 0.86, 38.56 1.39, 38.57 3.74 M34.82 0 C36.91 -0.05, 37.82 0.23, 38.57 3.74 M38.57 3.74 C38.32 6.25, 38.37 8.94, 38.57 11.23 M38.57 3.74 C38.57 5.34, 38.68 7.18, 38.57 11.23 M38.57 11.23 C38.91 14.61, 38.24 14.03, 34.82 14.98 M38.57 11.23 C38.7 14.43, 37.47 16.01, 34.82 14.98 M34.82 14.98 C24.11 15.38, 12.63 15.9, 3.74 14.98 M34.82 14.98 C28.06 15.25, 22.25 15.39, 3.74 14.98 M3.74 14.98 C2.25 14.96, 0.38 13.14, 0 11.23 M3.74 14.98 C2.31 15.75, 0.4 14.13, 0 11.23 M0 11.23 C0.3 8.66, 0.31 6.01, 0 3.74 M0 11.23 C-0.09 8.79, 0.06 6.4, 0 3.74 M0 3.74 C0.3 1, 0.63 0.26, 3.74 0 M0 3.74 C0.67 1.47, 0.65 0.1, 3.74 0" stroke="#343a40" stroke-width="2" fill="none"></path></g><g stroke-linecap="round" transform="translate(66.49462873228777 79.49309861458823) rotate(47.524435689906944 13.974609375 10.47265625)"><path d="M5.24 0 C12.33 -1.1, 11.44 0.21, 22.71 0 C27.95 -0.84, 24.8 2.08, 27.95 5.24 C29.06 7.1, 26.25 9.09, 27.95 15.71 C29.3 20, 26.74 21.65, 22.71 20.95 C19.48 19.59, 16.56 22.17, 5.24 20.95 C-0.93 21.32, -3.43 22.07, 0 15.71 C1.33 13.31, 0.59 11.17, 0 5.24 C-2.82 -0.54, 4.25 -3.58, 5.24 0" stroke="none" stroke-width="0" fill="#eaddd7"></path><path d="M5.24 0 C12.8 -1.67, 17.17 -1.12, 22.71 0 M5.24 0 C11.77 0.02, 16.86 0.69, 22.71 0 M22.71 0 C26.2 0.27, 27.24 1.66, 27.95 5.24 M22.71 0 C24.7 -2.04, 29.1 0.18, 27.95 5.24 M27.95 5.24 C27.42 7.96, 27.21 10.39, 27.95 15.71 M27.95 5.24 C28.34 8.3, 28.14 12.3, 27.95 15.71 M27.95 15.71 C29.8 17.31, 26.44 22.17, 22.71 20.95 M27.95 15.71 C28.25 21.27, 27.39 21.55, 22.71 20.95 M22.71 20.95 C15.16 22.33, 7.11 20.32, 5.24 20.95 M22.71 20.95 C16.89 21.57, 11.06 20.99, 5.24 20.95 M5.24 20.95 C2.51 19.77, 1.84 20.54, 0 15.71 M5.24 20.95 C2.55 21.75, 1.58 19.43, 0 15.71 M0 15.71 C0.8 14.37, 0.03 10.55, 0 5.24 M0 15.71 C0.14 11.69, 0.22 8.51, 0 5.24 M0 5.24 C-1.23 2.26, 2.91 0.38, 5.24 0 M0 5.24 C-1.2 1.96, 3.76 -0.91, 5.24 0" stroke="#1e1e1e" stroke-width="2" fill="none"></path></g><g stroke-linecap="round" transform="translate(28.665801434028708 38.2658685370825) rotate(47.524435689906944 25.4296875 23.859375)"><path d="M29.93 -0.58 C35.16 -0.07, 42.09 4.81, 45.72 9.02 C49.35 13.22, 51.82 19.73, 51.7 24.63 C51.59 29.52, 48.61 34.69, 45.03 38.38 C41.45 42.06, 35.73 45.68, 30.24 46.73 C24.76 47.78, 17.06 47.08, 12.12 44.68 C7.19 42.28, 2.43 37.26, 0.62 32.33 C-1.18 27.4, -0.77 19.85, 1.28 15.1 C3.34 10.34, 7 5.97, 12.96 3.79 C18.91 1.6, 32.07 1.35, 37.01 2 C41.95 2.66, 42.88 7.32, 42.6 7.7 M20.89 -1.12 C26.1 -2.25, 33.87 1.5, 38.58 4.16 C43.29 6.82, 47.36 10.29, 49.14 14.82 C50.93 19.36, 51.42 26.47, 49.29 31.38 C47.16 36.29, 41.01 41.72, 36.38 44.3 C31.76 46.87, 26.87 47.88, 21.55 46.85 C16.22 45.82, 7.91 41.96, 4.42 38.1 C0.92 34.25, 0.22 28.67, 0.57 23.73 C0.91 18.79, 3.16 12.59, 6.49 8.46 C9.83 4.34, 17.87 0.19, 20.57 -1.02 C23.27 -2.23, 22.6 0.42, 22.69 1.2" stroke="none" stroke-width="0" fill="#eaddd7"></path><path d="M18.58 1.51 C23.39 -0.37, 30.61 -0.54, 35.7 1.42 C40.78 3.38, 46.64 8.63, 49.07 13.25 C51.5 17.86, 51.72 24.25, 50.28 29.11 C48.85 33.97, 45.04 39.23, 40.48 42.41 C35.92 45.59, 28.49 48.43, 22.95 48.17 C17.4 47.92, 11.11 44.53, 7.21 40.87 C3.32 37.2, 0.15 31.26, -0.42 26.2 C-0.99 21.15, 0.51 14.89, 3.8 10.53 C7.08 6.17, 16.27 1.64, 19.29 0.03 C22.3 -1.59, 21.82 0.24, 21.87 0.84 M21.1 -0.81 C26.01 -2.26, 32.49 0.73, 37.15 3.52 C41.81 6.3, 46.8 11.27, 49.03 15.89 C51.26 20.51, 51.9 26.51, 50.52 31.23 C49.15 35.95, 45.41 41.57, 40.77 44.21 C36.14 46.84, 28.17 47.96, 22.71 47.05 C17.24 46.14, 11.86 42.24, 7.98 38.73 C4.11 35.21, 0.11 30.76, -0.54 25.98 C-1.19 21.2, 0.56 14.11, 4.06 10.05 C7.55 5.98, 17.58 3.08, 20.46 1.58 C23.34 0.08, 21.25 0.97, 21.32 1.05" stroke="#1e1e1e" stroke-width="2" fill="none"></path></g></svg>