<svg version="1.1" xmlns="http://www.w3.org/2000/svg" viewBox="0 0 105.26171875 129.25250880672672" width="105.26171875" height="129.25250880672672">
  <!-- svg-source:excalidraw -->
  
  <defs>
    <style class="style-fonts">
      @font-face {
        font-family: "Virgil";
        src: url("https://excalidraw.com/Virgil.woff2");
      }
      @font-face {
        font-family: "Cascadia";
        src: url("https://excalidraw.com/Cascadia.woff2");
      }
      @font-face {
        font-family: "Assistant";
        src: url("https://excalidraw.com/Assistant-Regular.woff2");
      }
    </style>
    
  </defs>
  <g stroke-linecap="round" transform="translate(10 24.85274621212011) rotate(0 42.630859375 38.322265625)"><path d="M19.16 0 C27.27 1.07, 36.45 1.59, 66.1 0 C77.99 -2.22, 86.19 8.48, 85.26 19.16 C88.05 29.97, 83.53 42.51, 85.26 57.48 C83.13 73.13, 77.41 73.27, 66.1 76.64 C48.84 76.78, 35.3 73.25, 19.16 76.64 C5.3 79.09, -1.01 67.33, 0 57.48 C0.27 48.57, -2.48 35.13, 0 19.16 C2.67 7.45, 4.57 2.48, 19.16 0" stroke="none" stroke-width="0" fill="#a18072"></path><path d="M19.16 0 C34.91 -0.52, 54.95 -1.63, 66.1 0 M19.16 0 C29.98 0.04, 39.53 0.92, 66.1 0 M66.1 0 C78.93 0.18, 86.52 7.8, 85.26 19.16 M66.1 0 C80.51 1.6, 83.23 5.4, 85.26 19.16 M85.26 19.16 C86.1 29.54, 85.62 36.62, 85.26 57.48 M85.26 19.16 C84.91 33.92, 84.61 47.87, 85.26 57.48 M85.26 57.48 C86.27 68.9, 78.33 75.48, 66.1 76.64 M85.26 57.48 C84.53 69.22, 78.58 75.16, 66.1 76.64 M66.1 76.64 C52.8 78.14, 42.06 77.39, 19.16 76.64 M66.1 76.64 C48.01 76.81, 29.82 77.1, 19.16 76.64 M19.16 76.64 C7.42 77.17, 1.99 70.71, 0 57.48 M19.16 76.64 C6.97 75.89, 1.76 68.1, 0 57.48 M0 57.48 C0.5 48.46, 1.07 39.42, 0 19.16 M0 57.48 C0.77 46.74, 0.2 35, 0 19.16 M0 19.16 C1.37 6.59, 4.51 1.65, 19.16 0 M0 19.16 C1.16 8.33, 8.19 0.26, 19.16 0" stroke="#1e1e1e" stroke-width="2" fill="none"></path></g><g stroke-linecap="round" transform="translate(33.86899266098453 102.14701704545405) rotate(0 19.283203125 7.48828125)"><path d="M3.74 0 C8.76 0.71, 17.9 -1.67, 34.82 0 C37.99 1.51, 39.07 -0.11, 38.57 3.74 C38.28 5.76, 38.07 9.15, 38.57 11.23 C37.51 11.29, 37.33 16.24, 34.82 14.98 C24.36 12.7, 16.84 16.78, 3.74 14.98 C0.52 12.86, -1.28 14.7, 0 11.23 C-0.62 7.97, 0.71 6.69, 0 3.74 C-1.31 3.04, 2.07 -1.94, 3.74 0" stroke="none" stroke-width="0" fill="#868e96"></path><path d="M3.74 0 C14.92 -0.67, 24.83 0.44, 34.82 0 M3.74 0 C11.96 0.4, 20.22 0.06, 34.82 0 M34.82 0 C37.95 0.71, 39.28 1.95, 38.57 3.74 M34.82 0 C36.3 -0.49, 37.91 1.79, 38.57 3.74 M38.57 3.74 C38.61 6.34, 38.9 9.36, 38.57 11.23 M38.57 3.74 C38.43 5.93, 38.65 8.32, 38.57 11.23 M38.57 11.23 C38.29 13.15, 37 14.53, 34.82 14.98 M38.57 11.23 C38.42 12.98, 36.7 15.15, 34.82 14.98 M34.82 14.98 C24.72 15.44, 16.4 16.01, 3.74 14.98 M34.82 14.98 C28.51 15.52, 22.32 15.2, 3.74 14.98 M3.74 14.98 C2.24 15.2, 0.25 13.4, 0 11.23 M3.74 14.98 C2.13 13.9, -0.44 14.4, 0 11.23 M0 11.23 C0.23 9.89, -0.02 7.95, 0 3.74 M0 11.23 C0.03 9.49, 0.09 7.64, 0 3.74 M0 3.74 C-0.94 2.07, 1.75 0.84, 3.74 0 M0 3.74 C0.9 1.38, 0.32 0.43, 3.74 0" stroke="#1e1e1e" stroke-width="2" fill="none"></path></g><g stroke-linecap="round" transform="translate(34.05486505681802 10) rotate(0 19.283203125 7.48828125)"><path d="M3.74 0 C12.9 -1.72, 24.01 1.39, 34.82 0 C37.82 -1.36, 38.8 3.52, 38.57 3.74 C37.95 6.47, 38.13 6.73, 38.57 11.23 C38.58 14.99, 36.71 12.7, 34.82 14.98 C24.42 16.38, 14.87 12.5, 3.74 14.98 C-0.03 15.95, 0.58 14.11, 0 11.23 C0.78 9.13, -0.43 7.12, 0 3.74 C0.82 -0.69, 1.52 -2.48, 3.74 0" stroke="none" stroke-width="0" fill="#868e96"></path><path d="M3.74 0 C11.82 0.53, 21.2 0.72, 34.82 0 M3.74 0 C12.68 -0.07, 21.9 0.24, 34.82 0 M34.82 0 C38.03 0.7, 37.68 0.82, 38.57 3.74 M34.82 0 C36.66 0.54, 39.43 1.63, 38.57 3.74 M38.57 3.74 C38.89 6.39, 38.62 8.91, 38.57 11.23 M38.57 3.74 C38.64 5.83, 38.49 8.07, 38.57 11.23 M38.57 11.23 C38.25 13.28, 37.19 14.33, 34.82 14.98 M38.57 11.23 C37.95 13.9, 37.44 13.98, 34.82 14.98 M34.82 14.98 C24.13 15.95, 10.74 15.15, 3.74 14.98 M34.82 14.98 C23.86 15.25, 12.87 15.23, 3.74 14.98 M3.74 14.98 C1.5 14.65, 0.77 12.79, 0 11.23 M3.74 14.98 C0.81 15.65, -0.82 14.15, 0 11.23 M0 11.23 C-0.03 8.76, -0.24 6.34, 0 3.74 M0 11.23 C0.12 8.5, -0.19 5.89, 0 3.74 M0 3.74 C0.51 2.09, 2.03 0.11, 3.74 0 M0 3.74 C-0.93 1.68, 0.53 -0.7, 3.74 0" stroke="#343a40" stroke-width="2" fill="none"></path></g><g stroke-linecap="round" transform="translate(39.659724954542526 94.68115560864135) rotate(90.684351531919 13.974609375 10.47265625)"><path d="M5.24 0 C11.81 2.03, 17.37 -1.45, 22.71 0 C26.53 3.15, 26.53 0.38, 27.95 5.24 C27.07 6.29, 27.85 11.78, 27.95 15.71 C27.11 16.05, 26.54 18.37, 22.71 20.95 C18.14 18.6, 13.79 22.34, 5.24 20.95 C2.55 21.48, 0.7 16.98, 0 15.71 C-1.09 14.78, 0.45 9.84, 0 5.24 C0.37 -1.68, 4.62 -2.05, 5.24 0" stroke="none" stroke-width="0" fill="#eaddd7"></path><path d="M5.24 0 C8.66 1, 13.08 -0.13, 22.71 0 M5.24 0 C12.35 0.6, 18.99 0.59, 22.71 0 M22.71 0 C24.44 -0.85, 26.8 2.68, 27.95 5.24 M22.71 0 C27.92 0.76, 29.19 1.95, 27.95 5.24 M27.95 5.24 C28.18 7.4, 28 9.63, 27.95 15.71 M27.95 5.24 C27.86 7.15, 27.84 9.43, 27.95 15.71 M27.95 15.71 C27.69 17.91, 25.13 21.25, 22.71 20.95 M27.95 15.71 C28.19 17.21, 27.87 19.9, 22.71 20.95 M22.71 20.95 C15.21 21.31, 12.08 21.33, 5.24 20.95 M22.71 20.95 C16.76 21.19, 9.3 20.71, 5.24 20.95 M5.24 20.95 C3.28 19.07, -0.77 20.37, 0 15.71 M5.24 20.95 C0.11 21.78, 1.15 20.68, 0 15.71 M0 15.71 C-0.61 12.49, 0.7 7.7, 0 5.24 M0 15.71 C-0.56 12.63, 0.19 9.14, 0 5.24 M0 5.24 C1.57 1.97, 0.13 0.76, 5.24 0 M0 5.24 C-1.43 0.35, 2.1 -2.1, 5.24 0" stroke="#1e1e1e" stroke-width="2" fill="none"></path></g><g stroke-linecap="round" transform="translate(28.01032366071422 42.94563042432492) rotate(90.684351531919 25.4296875 23.859375)"><path d="M17.23 2.49 C21.91 0.49, 29.04 0.07, 33.96 1.77 C38.89 3.48, 43.92 8.32, 46.79 12.73 C49.66 17.13, 51.93 23.21, 51.17 28.21 C50.41 33.21, 46.49 39.63, 42.24 42.73 C37.99 45.82, 31.05 46.78, 25.68 46.78 C20.32 46.78, 14.1 45.71, 10.03 42.73 C5.95 39.76, 2.36 34.18, 1.26 28.93 C0.16 23.68, 0.13 16.1, 3.44 11.25 C6.75 6.39, 17.61 1.56, 21.1 -0.21 C24.59 -1.98, 24.53 0.09, 24.39 0.63 M23.2 0.47 C28.32 -0.47, 33.84 1.35, 38.49 3.98 C43.13 6.62, 49.43 11.49, 51.06 16.28 C52.69 21.07, 50.77 27.7, 48.27 32.71 C45.78 37.71, 40.95 44.15, 36.09 46.31 C31.23 48.48, 24.27 46.93, 19.11 45.7 C13.95 44.48, 8.37 43.02, 5.14 38.95 C1.9 34.89, -0.62 26.71, -0.32 21.3 C-0.01 15.9, 3.41 10.12, 6.96 6.52 C10.51 2.92, 18.25 0.77, 20.99 -0.28 C23.73 -1.32, 23.33 -0.12, 23.4 0.23" stroke="none" stroke-width="0" fill="#eaddd7"></path><path d="M25.12 0.63 C30.29 0.36, 37.85 3.08, 42.18 6.06 C46.51 9.03, 50.26 13.66, 51.1 18.47 C51.94 23.28, 49.91 30.16, 47.22 34.89 C44.53 39.63, 39.93 44.89, 34.97 46.9 C30 48.91, 22.65 48.84, 17.43 46.94 C12.22 45.05, 6.4 40.01, 3.69 35.53 C0.99 31.06, 0.31 25.09, 1.18 20.08 C2.05 15.07, 4.3 8.88, 8.92 5.47 C13.54 2.05, 25.1 0.16, 28.91 -0.42 C32.71 -1, 31.91 1.52, 31.74 1.98 M17.94 0.03 C22.75 -1.5, 29.63 0.21, 34.69 2.18 C39.75 4.14, 45.55 7.43, 48.31 11.85 C51.07 16.26, 52.45 23.26, 51.26 28.67 C50.07 34.08, 45.46 41.38, 41.14 44.31 C36.83 47.24, 30.84 46.62, 25.35 46.26 C19.85 45.9, 12.32 45.18, 8.16 42.14 C4 39.09, 0.9 33.15, 0.37 27.99 C-0.17 22.82, 1.75 15.59, 4.96 11.15 C8.16 6.71, 17.34 3.04, 19.62 1.34 C21.9 -0.36, 18.59 0.88, 18.65 0.97" stroke="#1e1e1e" stroke-width="2" fill="none"></path></g></svg>