<svg version="1.1" xmlns="http://www.w3.org/2000/svg" viewBox="0 0 116.80622209821377 127.12357954545405" width="116.80622209821377" height="127.12357954545405">
  <!-- svg-source:excalidraw -->
  
  <defs>
    <style class="style-fonts">
      @font-face {
        font-family: "Virgil";
        src: url("https://excalidraw.com/Virgil.woff2");
      }
      @font-face {
        font-family: "Cascadia";
        src: url("https://excalidraw.com/Cascadia.woff2");
      }
      @font-face {
        font-family: "Assistant";
        src: url("https://excalidraw.com/Assistant-Regular.woff2");
      }
    </style>
    
  </defs>
  <g stroke-linecap="round" transform="translate(21.544503348213766 24.85274621212011) rotate(0 42.630859375 38.322265625)"><path d="M19.16 0 C32.23 3.17, 40.58 0.96, 66.1 0 C76.76 3.32, 87.67 7.64, 85.26 19.16 C82.35 34.96, 87.55 47.87, 85.26 57.48 C88.08 70.66, 75.97 78, 66.1 76.64 C51.64 77.84, 42.88 74.55, 19.16 76.64 C7.31 78.74, 0.69 68.38, 0 57.48 C-1.97 44.52, -2.74 36.66, 0 19.16 C-1.47 3.01, 6.41 1.74, 19.16 0" stroke="none" stroke-width="0" fill="#a18072"></path><path d="M19.16 0 C30.35 -2.1, 41.36 1.38, 66.1 0 M19.16 0 C30.5 1.1, 42.71 0.07, 66.1 0 M66.1 0 C79.27 0.22, 85.64 6.88, 85.26 19.16 M66.1 0 C79.53 0.91, 87.02 6.84, 85.26 19.16 M85.26 19.16 C85.32 31.29, 83.24 47.03, 85.26 57.48 M85.26 19.16 C85.47 30.07, 85.53 39.55, 85.26 57.48 M85.26 57.48 C86.52 71.67, 80.29 78.04, 66.1 76.64 M85.26 57.48 C83.23 69.27, 77.56 77.72, 66.1 76.64 M66.1 76.64 C48.68 75.75, 32.63 76.89, 19.16 76.64 M66.1 76.64 C50.72 75.74, 37.15 75.95, 19.16 76.64 M19.16 76.64 C5.84 75.48, -0.64 69.35, 0 57.48 M19.16 76.64 C6.09 75.16, -1.23 70.61, 0 57.48 M0 57.48 C-0.58 46.28, 2.09 35.54, 0 19.16 M0 57.48 C0.09 50.52, 0.47 42.01, 0 19.16 M0 19.16 C1.99 6.83, 6.89 -0.65, 19.16 0 M0 19.16 C1.76 4.23, 5.51 1.34, 19.16 0" stroke="#1e1e1e" stroke-width="2" fill="none"></path></g><g stroke-linecap="round" transform="translate(45.41349600919875 102.14701704545405) rotate(0 19.283203125 7.48828125)"><path d="M3.74 0 C14.57 0.6, 23.97 1.99, 34.82 0 C39.06 0.9, 39.47 3.03, 38.57 3.74 C38.97 6.89, 39.24 8.5, 38.57 11.23 C36.47 14.71, 35.7 13.4, 34.82 14.98 C24.39 13.49, 15.9 16.61, 3.74 14.98 C1.75 13.62, 0.24 16, 0 11.23 C-0.54 10.06, -0.36 6.42, 0 3.74 C0.02 2.51, 0.64 -2.28, 3.74 0" stroke="none" stroke-width="0" fill="#868e96"></path><path d="M3.74 0 C16.59 1.02, 27.3 -0.03, 34.82 0 M3.74 0 C11.89 -0.19, 20.34 -0.09, 34.82 0 M34.82 0 C37.51 0.25, 38.85 1.64, 38.57 3.74 M34.82 0 C38.2 0.23, 39.17 0.14, 38.57 3.74 M38.57 3.74 C38.26 6.05, 38.44 8.27, 38.57 11.23 M38.57 3.74 C38.57 5.91, 38.68 8.18, 38.57 11.23 M38.57 11.23 C39.28 14.43, 36.44 14.55, 34.82 14.98 M38.57 11.23 C37.91 14.27, 38.18 15.35, 34.82 14.98 M34.82 14.98 C24.68 14.89, 12.96 14.53, 3.74 14.98 M34.82 14.98 C25.88 14.5, 16.29 14.55, 3.74 14.98 M3.74 14.98 C0.93 14.53, -0.13 13.08, 0 11.23 M3.74 14.98 C0.63 15.15, 0.12 12.73, 0 11.23 M0 11.23 C0.35 8.79, -0.34 5.7, 0 3.74 M0 11.23 C0.09 8.58, 0.18 5.87, 0 3.74 M0 3.74 C0.25 0.92, 2.02 -0.94, 3.74 0 M0 3.74 C-0.44 1.92, 0.43 0.42, 3.74 0" stroke="#1e1e1e" stroke-width="2" fill="none"></path></g><g stroke-linecap="round" transform="translate(45.59936840503178 10) rotate(0 19.283203125 7.48828125)"><path d="M3.74 0 C14.64 2.24, 30.34 0.75, 34.82 0 C38.23 1.78, 38.83 -1.2, 38.57 3.74 C39.38 6.72, 37.83 9.84, 38.57 11.23 C36.95 12.15, 37.72 12.6, 34.82 14.98 C25.25 16.24, 14.83 13.37, 3.74 14.98 C1.49 17.25, -1.03 12.74, 0 11.23 C-0.34 8.31, 0.06 7.68, 0 3.74 C-0.61 -1.03, 1.49 -1.86, 3.74 0" stroke="none" stroke-width="0" fill="#868e96"></path><path d="M3.74 0 C9.97 -0.3, 16.78 -0.67, 34.82 0 M3.74 0 C16.07 0.07, 28.3 0.14, 34.82 0 M34.82 0 C37.6 0.4, 39.33 1.45, 38.57 3.74 M34.82 0 C37.92 -1.11, 38.41 1.5, 38.57 3.74 M38.57 3.74 C38.4 5.7, 38.49 7.19, 38.57 11.23 M38.57 3.74 C38.69 6.69, 38.7 9.5, 38.57 11.23 M38.57 11.23 C37.68 13.3, 36.75 15.45, 34.82 14.98 M38.57 11.23 C39.43 14.11, 37.94 15.08, 34.82 14.98 M34.82 14.98 C27.42 14.62, 19.71 14.32, 3.74 14.98 M34.82 14.98 C28.12 14.58, 21.52 14.65, 3.74 14.98 M3.74 14.98 C1.12 14.33, -0.54 13.88, 0 11.23 M3.74 14.98 C1.37 13.98, 0.83 13.21, 0 11.23 M0 11.23 C-0.39 8.77, 0.2 6.27, 0 3.74 M0 11.23 C0.17 8.35, 0.03 5.33, 0 3.74 M0 3.74 C0.77 0.31, 0.86 0.58, 3.74 0 M0 3.74 C-0.82 1.67, 1.82 0.74, 3.74 0" stroke="#343a40" stroke-width="2" fill="none"></path></g><g stroke-linecap="round" transform="translate(10 53.475852272726115) rotate(0 13.974609375 10.47265625)"><path d="M5.24 0 C13.26 0.8, 18.17 1.87, 22.71 0 C26.57 -3.39, 30.91 3.56, 27.95 5.24 C26.58 9.97, 26.93 12.14, 27.95 15.71 C28.5 15.91, 27.27 20.06, 22.71 20.95 C19.15 19.48, 14.67 23.88, 5.24 20.95 C0.32 19.58, -1.12 17.07, 0 15.71 C0.09 12.65, -0.36 6.1, 0 5.24 C0.33 -0.83, -1.45 -1.09, 5.24 0" stroke="none" stroke-width="0" fill="#eaddd7"></path><path d="M5.24 0 C11.43 -0.9, 20.47 -0.32, 22.71 0 M5.24 0 C10.49 0.2, 15.66 0.33, 22.71 0 M22.71 0 C27.74 0.4, 29 -0.19, 27.95 5.24 M22.71 0 C25.89 0.49, 26.36 -0.16, 27.95 5.24 M27.95 5.24 C27.78 8.79, 28.71 12.43, 27.95 15.71 M27.95 5.24 C28.39 8.84, 27.55 11.48, 27.95 15.71 M27.95 15.71 C26.8 20.14, 27.7 21.6, 22.71 20.95 M27.95 15.71 C29.19 19.4, 24.88 22.93, 22.71 20.95 M22.71 20.95 C17.4 19.74, 10.68 21.76, 5.24 20.95 M22.71 20.95 C18.38 20.45, 14.49 20.28, 5.24 20.95 M5.24 20.95 C0.67 21.25, 0.21 17.47, 0 15.71 M5.24 20.95 C3.41 19.9, 0.8 21.22, 0 15.71 M0 15.71 C0.74 11.74, 1.04 8.03, 0 5.24 M0 15.71 C0.03 12.12, 0.3 8.38, 0 5.24 M0 5.24 C-0.77 2.91, 0.32 0.73, 5.24 0 M0 5.24 C1.15 3.23, 4.04 -0.05, 5.24 0" stroke="#1e1e1e" stroke-width="2" fill="none"></path></g><g stroke-linecap="round" transform="translate(36.888671875 39.436789772726115) rotate(0 25.4296875 23.859375)"><path d="M35.3 2.46 C40.17 3.86, 44.04 7.97, 46.66 12.3 C49.28 16.63, 51.73 23.33, 51.03 28.42 C50.32 33.51, 46.71 39.46, 42.44 42.84 C38.16 46.22, 30.94 48.82, 25.38 48.71 C19.82 48.61, 13.3 45.57, 9.07 42.2 C4.84 38.83, 1.08 33.63, 0.01 28.48 C-1.07 23.33, -0.31 15.94, 2.63 11.29 C5.56 6.65, 12.05 2.1, 17.61 0.63 C23.16 -0.84, 32.7 1.94, 35.95 2.49 C39.21 3.03, 37.39 3.57, 37.15 3.91 M18.59 1.55 C23.39 -0.29, 31.77 -0.05, 36.46 2.08 C41.15 4.21, 44.3 9.58, 46.71 14.32 C49.12 19.07, 51.76 25.76, 50.95 30.56 C50.14 35.36, 46.54 40.17, 41.85 43.12 C37.16 46.07, 28.61 48.71, 22.82 48.25 C17.02 47.79, 10.84 44.17, 7.1 40.35 C3.37 36.53, 0.83 30.31, 0.41 25.33 C-0.01 20.34, 1.8 14.43, 4.59 10.44 C7.38 6.45, 14.72 2.85, 17.14 1.41 C19.56 -0.04, 18.94 1.43, 19.09 1.77" stroke="none" stroke-width="0" fill="#eaddd7"></path><path d="M22.97 0.31 C28.15 -0.47, 35.42 1.44, 39.97 4.41 C44.53 7.38, 48.82 13.17, 50.3 18.13 C51.77 23.09, 51.28 29.65, 48.82 34.17 C46.36 38.68, 40.43 43.18, 35.53 45.21 C30.63 47.23, 24.66 47.46, 19.4 46.3 C14.15 45.14, 7.26 42.17, 3.98 38.24 C0.7 34.31, -0.8 27.9, -0.28 22.73 C0.23 17.55, 2.31 10.96, 7.07 7.19 C11.83 3.42, 24.11 0.99, 28.28 0.11 C32.44 -0.77, 32.11 1.42, 32.07 1.93 M33.26 2.14 C38.64 3.7, 45.57 8.08, 48.57 12.42 C51.57 16.75, 52.56 22.96, 51.28 28.12 C50.01 33.29, 45.23 40.12, 40.92 43.42 C36.61 46.72, 30.83 48.15, 25.44 47.92 C20.04 47.7, 12.9 45.62, 8.56 42.08 C4.22 38.54, 0.14 31.88, -0.59 26.68 C-1.32 21.49, 1.34 15.27, 4.16 10.92 C6.97 6.57, 11.4 2.26, 16.32 0.57 C21.23 -1.13, 30.74 0.7, 33.64 0.76 C36.55 0.82, 33.95 0.39, 33.75 0.91" stroke="#1e1e1e" stroke-width="2" fill="none"></path></g></svg>