<svg version="1.1" xmlns="http://www.w3.org/2000/svg" viewBox="0 0 106.68100249304918 127.12357954545405" width="106.68100249304918" height="127.12357954545405">
  <!-- svg-source:excalidraw -->
  
  <defs>
    <style class="style-fonts">
      @font-face {
        font-family: "Virgil";
        src: url("https://excalidraw.com/Virgil.woff2");
      }
      @font-face {
        font-family: "Cascadia";
        src: url("https://excalidraw.com/Cascadia.woff2");
      }
      @font-face {
        font-family: "Assistant";
        src: url("https://excalidraw.com/Assistant-Regular.woff2");
      }
    </style>
    
  </defs>
  <g stroke-linecap="round" transform="translate(11.419283743049178 24.85274621212011) rotate(0 42.630859375 38.322265625)"><path d="M19.16 0 C35.24 -3.97, 53.55 1.24, 66.1 0 C81.92 2.82, 85.66 3.48, 85.26 19.16 C85.38 28.81, 85.9 44.17, 85.26 57.48 C83.04 71.18, 80.97 77.34, 66.1 76.64 C53.05 76.02, 41.73 75.25, 19.16 76.64 C9.26 75.18, -3.38 70.28, 0 57.48 C0.49 41.55, -3.04 29.69, 0 19.16 C2.45 5.38, 3.46 -1.77, 19.16 0" stroke="none" stroke-width="0" fill="#a18072"></path><path d="M19.16 0 C30.56 0.49, 42.54 0.48, 66.1 0 M19.16 0 C35.17 0.01, 50.17 -1.15, 66.1 0 M66.1 0 C78.6 0.43, 83.88 4.73, 85.26 19.16 M66.1 0 C79.85 -0.81, 86.68 6.09, 85.26 19.16 M85.26 19.16 C85.73 31.8, 86.97 43.33, 85.26 57.48 M85.26 19.16 C84.35 33.8, 85.67 47.83, 85.26 57.48 M85.26 57.48 C86.34 70.43, 77.72 78.37, 66.1 76.64 M85.26 57.48 C85.26 70.57, 78.06 76.55, 66.1 76.64 M66.1 76.64 C53.72 76.34, 42.89 76.24, 19.16 76.64 M66.1 76.64 C53.6 76.49, 42.28 75.48, 19.16 76.64 M19.16 76.64 C7.83 75.74, 0.7 72.01, 0 57.48 M19.16 76.64 C8.51 74.47, 0.27 71.66, 0 57.48 M0 57.48 C0.18 47.48, 0.1 34, 0 19.16 M0 57.48 C-0.68 47.82, -1 37.36, 0 19.16 M0 19.16 C1 7.68, 8.38 -0.04, 19.16 0 M0 19.16 C0.88 5.04, 8.51 1.54, 19.16 0" stroke="#1e1e1e" stroke-width="2" fill="none"></path></g><g stroke-linecap="round" transform="translate(35.288276404034164 102.14701704545405) rotate(0 19.283203125 7.48828125)"><path d="M3.74 0 C17.34 1.69, 28.85 2.42, 34.82 0 C37.61 -2.1, 39.55 -0.37, 38.57 3.74 C38.87 5.3, 37.98 7.58, 38.57 11.23 C40.08 14.23, 35.96 15.21, 34.82 14.98 C21.97 13.28, 12.81 13.76, 3.74 14.98 C-1.19 14.99, 1.26 13.12, 0 11.23 C-0.87 9.35, 0.65 7.78, 0 3.74 C-2.11 -0.03, 2.22 0.58, 3.74 0" stroke="none" stroke-width="0" fill="#868e96"></path><path d="M3.74 0 C12.55 0.16, 21.38 0.25, 34.82 0 M3.74 0 C14.56 -0.51, 24.79 0.08, 34.82 0 M34.82 0 C36.63 -0.83, 38.99 0.9, 38.57 3.74 M34.82 0 C38.03 -0.15, 38.53 2.12, 38.57 3.74 M38.57 3.74 C38.83 6.28, 38.83 7.95, 38.57 11.23 M38.57 3.74 C38.69 5.73, 38.65 7.61, 38.57 11.23 M38.57 11.23 C37.99 14.59, 37.32 15.11, 34.82 14.98 M38.57 11.23 C38.16 13.68, 36.57 13.96, 34.82 14.98 M34.82 14.98 C23.36 14.62, 12.6 14.81, 3.74 14.98 M34.82 14.98 C27.56 14.57, 20.56 14.77, 3.74 14.98 M3.74 14.98 C1.6 15.86, 0.92 12.78, 0 11.23 M3.74 14.98 C1.38 15.68, 0.15 14.76, 0 11.23 M0 11.23 C0.07 8.69, -0.13 6.25, 0 3.74 M0 11.23 C-0.12 9.76, 0.11 8.26, 0 3.74 M0 3.74 C1 1.23, 1.63 -0.59, 3.74 0 M0 3.74 C1.06 2.02, 1.65 0.4, 3.74 0" stroke="#1e1e1e" stroke-width="2" fill="none"></path></g><g stroke-linecap="round" transform="translate(35.474148799867194 10) rotate(0 19.283203125 7.48828125)"><path d="M3.74 0 C12.34 1.83, 16.83 -2.3, 34.82 0 C38.3 -1.61, 36.99 1.64, 38.57 3.74 C37.99 5.56, 39.16 7.05, 38.57 11.23 C37.21 13.97, 39.59 13.95, 34.82 14.98 C28.75 13.68, 16.1 14.75, 3.74 14.98 C2.51 14.37, -2.28 13.97, 0 11.23 C0.75 9.25, -0.71 7.34, 0 3.74 C0.98 1.83, 1.63 0.51, 3.74 0" stroke="none" stroke-width="0" fill="#868e96"></path><path d="M3.74 0 C13.93 0.26, 24.01 0.74, 34.82 0 M3.74 0 C13.62 0.26, 23.28 -0.26, 34.82 0 M34.82 0 C37.74 -0.35, 39.18 1.12, 38.57 3.74 M34.82 0 C37.28 0.87, 38.6 1.35, 38.57 3.74 M38.57 3.74 C38.85 6.13, 38.43 8.96, 38.57 11.23 M38.57 3.74 C38.7 6.36, 38.49 9.1, 38.57 11.23 M38.57 11.23 C38.56 13.87, 36.96 14.94, 34.82 14.98 M38.57 11.23 C37.82 12.71, 37.9 14.2, 34.82 14.98 M34.82 14.98 C25.89 14.8, 17.22 14.39, 3.74 14.98 M34.82 14.98 C25.39 14.62, 15.4 15.28, 3.74 14.98 M3.74 14.98 C2.17 14.03, 0.12 14.34, 0 11.23 M3.74 14.98 C1.4 16.01, 0.6 14.03, 0 11.23 M0 11.23 C-0.13 8.53, -0.36 5.11, 0 3.74 M0 11.23 C0.12 8.67, 0.21 5.86, 0 3.74 M0 3.74 C0.38 0.66, 2.17 0.67, 3.74 0 M0 3.74 C0.4 1.65, 2.04 0.12, 3.74 0" stroke="#343a40" stroke-width="2" fill="none"></path></g><g stroke-linecap="round" transform="translate(13.186373760761413 77.88930397172771) rotate(312.47556431009303 13.974609375000004 10.47265625)"><path d="M5.24 0 C11.71 -2.79, 18.68 -2.2, 22.71 0 C24.02 0.55, 24.66 2.81, 27.95 5.24 C28.93 8.48, 26.85 11.18, 27.95 15.71 C31.1 17.78, 24.84 19.83, 22.71 20.95 C15.56 20.84, 15.82 20.08, 5.24 20.95 C-1.41 21.28, -2.58 16, 0 15.71 C-1.66 11.96, 0.58 10.48, 0 5.24 C0.53 2.45, -0.48 -3.13, 5.24 0" stroke="none" stroke-width="0" fill="#eaddd7"></path><path d="M5.24 0 C11.51 1.29, 16.74 0.87, 22.71 0 M5.24 0 C8.19 -0.76, 12.71 -0.35, 22.71 0 M22.71 0 C27.44 -0.26, 27.89 3.26, 27.95 5.24 M22.71 0 C26.27 0.21, 29.39 3.37, 27.95 5.24 M27.95 5.24 C27.57 8.52, 28.51 13.79, 27.95 15.71 M27.95 5.24 C27.7 9.17, 28 12.28, 27.95 15.71 M27.95 15.71 C27.24 19.12, 24.9 19.17, 22.71 20.95 M27.95 15.71 C29.1 17.64, 25.58 19.61, 22.71 20.95 M22.71 20.95 C16.9 19.99, 13.6 21.11, 5.24 20.95 M22.71 20.95 C19.29 21.63, 16.06 20.04, 5.24 20.95 M5.24 20.95 C1.98 22.17, 0.26 21, 0 15.71 M5.24 20.95 C2.94 21.55, 2.29 19.71, 0 15.71 M0 15.71 C-0.95 11.9, 0.65 8.15, 0 5.24 M0 15.71 C0.47 12.18, 0.15 8.36, 0 5.24 M0 5.24 C1.84 3.09, 2.44 0.7, 5.24 0 M0 5.24 C1.58 1.98, -0.42 1.89, 5.24 0" stroke="#1e1e1e" stroke-width="2" fill="none"></path></g><g stroke-linecap="round" transform="translate(27.84276802330625 37.022564965653146) rotate(312.47556431009303 25.429687500000007 23.859375)"><path d="M32.16 1.05 C37.15 1.96, 42.94 6.81, 45.89 10.88 C48.83 14.95, 50.14 20.63, 49.83 25.48 C49.53 30.33, 47.67 36.2, 44.05 39.97 C40.43 43.74, 33.5 47.38, 28.09 48.12 C22.67 48.87, 16.09 47.38, 11.55 44.44 C7.02 41.51, 2.5 35.44, 0.87 30.49 C-0.77 25.54, -0.64 19.41, 1.76 14.76 C4.16 10.12, 9.23 4.46, 15.28 2.61 C21.34 0.77, 33.55 3.13, 38.1 3.67 C42.64 4.21, 42.69 5.53, 42.56 5.85 M34.64 2.66 C39.14 4.2, 44.78 8.28, 47.39 12.56 C50 16.84, 51.42 23.29, 50.31 28.34 C49.21 33.38, 45.36 39.56, 40.75 42.84 C36.14 46.13, 28.01 48.31, 22.64 48.04 C17.28 47.78, 12.46 44.86, 8.58 41.25 C4.69 37.65, -0.18 31.64, -0.65 26.41 C-1.13 21.18, 2.61 14.19, 5.71 9.86 C8.81 5.53, 13.06 1.53, 17.93 0.44 C22.81 -0.66, 32.11 3.18, 34.96 3.29 C37.81 3.41, 35.06 0.84, 35.03 1.12" stroke="none" stroke-width="0" fill="#eaddd7"></path><path d="M32.25 0.13 C37.36 1.19, 42.42 6.21, 45.45 10.62 C48.48 15.03, 50.77 21.57, 50.41 26.58 C50.04 31.6, 46.93 37.21, 43.26 40.72 C39.59 44.23, 33.77 47.11, 28.38 47.66 C22.98 48.21, 15.38 46.84, 10.91 44.02 C6.44 41.19, 2.87 35.91, 1.57 30.72 C0.26 25.53, 0.97 17.71, 3.09 12.87 C5.21 8.03, 8.55 3.24, 14.28 1.65 C20.01 0.07, 32.92 2.59, 37.45 3.35 C41.97 4.11, 41.69 6.08, 41.43 6.22 M35.51 2.12 C40.19 3.61, 44.89 7.86, 47.44 12.32 C49.98 16.78, 52.07 23.86, 50.78 28.88 C49.5 33.9, 44.38 39.44, 39.73 42.45 C35.08 45.46, 28.28 47.39, 22.88 46.96 C17.49 46.53, 11.29 43.3, 7.36 39.86 C3.43 36.42, -0.25 31.45, -0.69 26.31 C-1.14 21.16, 1.26 13.35, 4.67 8.99 C8.08 4.63, 14.47 1.08, 19.79 0.17 C25.1 -0.75, 33.66 3.32, 36.56 3.49 C39.47 3.67, 37.45 0.9, 37.22 1.19" stroke="#1e1e1e" stroke-width="2" fill="none"></path></g></svg>