<svg version="1.1" xmlns="http://www.w3.org/2000/svg" viewBox="0 0 117.88881138392844 127.12357954545405" width="117.88881138392844" height="127.12357954545405">
  <!-- svg-source:excalidraw -->
  
  <defs>
    <style class="style-fonts">
      @font-face {
        font-family: "Virgil";
        src: url("https://excalidraw.com/Virgil.woff2");
      }
      @font-face {
        font-family: "Cascadia";
        src: url("https://excalidraw.com/Cascadia.woff2");
      }
      @font-face {
        font-family: "Assistant";
        src: url("https://excalidraw.com/Assistant-Regular.woff2");
      }
    </style>
    
  </defs>
  <g stroke-linecap="round" transform="translate(10 24.85274621212011) rotate(0 42.630859375 38.322265625)"><path d="M19.16 0 C31.04 -1.28, 41.78 -2.35, 66.1 0 C75.69 1.81, 82.82 5.41, 85.26 19.16 C84.58 26.1, 83.11 38.24, 85.26 57.48 C85.64 67.14, 81.48 75.01, 66.1 76.64 C46.97 77.85, 36.87 77.89, 19.16 76.64 C9.63 78.51, 0.95 73.84, 0 57.48 C2.59 41.75, -1.55 34.88, 0 19.16 C-2.56 7.69, 8.19 2.32, 19.16 0" stroke="none" stroke-width="0" fill="#a18072"></path><path d="M19.16 0 C34.69 -2.11, 48.56 1.52, 66.1 0 M19.16 0 C30.91 -0.65, 42.96 -0.97, 66.1 0 M66.1 0 C78.17 1.26, 84.92 7.48, 85.26 19.16 M66.1 0 C81.14 -1.7, 85.33 8.46, 85.26 19.16 M85.26 19.16 C84.37 31.29, 84.51 45.74, 85.26 57.48 M85.26 19.16 C85.35 27.24, 85.22 33.89, 85.26 57.48 M85.26 57.48 C85.2 69.31, 77.62 77.08, 66.1 76.64 M85.26 57.48 C83.39 69.65, 80.86 77.71, 66.1 76.64 M66.1 76.64 C55.06 76.74, 45.2 76, 19.16 76.64 M66.1 76.64 C47.82 76.71, 29.35 76.85, 19.16 76.64 M19.16 76.64 C6.96 77.44, 1.53 70.66, 0 57.48 M19.16 76.64 C7.6 74.42, -0.31 70.75, 0 57.48 M0 57.48 C-0.39 49.87, 0.06 39.72, 0 19.16 M0 57.48 C0.62 43.79, 0.7 29.38, 0 19.16 M0 19.16 C-1.76 5.53, 5.24 0.94, 19.16 0 M0 19.16 C1.72 7.14, 7.63 0.2, 19.16 0" stroke="#1e1e1e" stroke-width="2" fill="none"></path></g><g stroke-linecap="round" transform="translate(33.86899266098453 102.14701704545405) rotate(0 19.283203125 7.48828125)"><path d="M3.74 0 C12.96 -1.55, 20.08 1.45, 34.82 0 C35.55 -0.71, 37.05 0.42, 38.57 3.74 C38.03 5.8, 38.66 6.72, 38.57 11.23 C40.45 12.55, 38.22 17.26, 34.82 14.98 C24.22 15.36, 12.77 16.37, 3.74 14.98 C1.93 17.56, 0.58 14.38, 0 11.23 C-0.45 9.8, -0.77 7.58, 0 3.74 C1.3 2.92, 3.84 -0.05, 3.74 0" stroke="none" stroke-width="0" fill="#868e96"></path><path d="M3.74 0 C15.15 1.03, 25.32 0.01, 34.82 0 M3.74 0 C13.64 -0.33, 24.32 0.39, 34.82 0 M34.82 0 C37.15 0.55, 39.55 0.51, 38.57 3.74 M34.82 0 C37.35 1.03, 38.84 0.77, 38.57 3.74 M38.57 3.74 C38.44 6.36, 38.19 8.27, 38.57 11.23 M38.57 3.74 C38.57 5.53, 38.57 7.54, 38.57 11.23 M38.57 11.23 C37.94 13.94, 36.5 14.71, 34.82 14.98 M38.57 11.23 C39.56 14.26, 36.34 15.94, 34.82 14.98 M34.82 14.98 C22.38 14.42, 11.57 14.75, 3.74 14.98 M34.82 14.98 C25.87 15.12, 16.87 15.19, 3.74 14.98 M3.74 14.98 C2.01 15.18, 0.53 12.76, 0 11.23 M3.74 14.98 C1.09 15.22, -0.79 12.78, 0 11.23 M0 11.23 C-0.04 8.66, 0.3 6.12, 0 3.74 M0 11.23 C0.11 9.05, -0.19 6.53, 0 3.74 M0 3.74 C-0.57 1.72, 2 0.33, 3.74 0 M0 3.74 C0.62 1.35, 0.59 0.99, 3.74 0" stroke="#1e1e1e" stroke-width="2" fill="none"></path></g><g stroke-linecap="round" transform="translate(34.05486505681802 10) rotate(0 19.283203125 7.48828125)"><path d="M3.74 0 C9.66 1.57, 18.42 -0.44, 34.82 0 C35.8 -0.83, 37.39 0.91, 38.57 3.74 C38.62 4.66, 39.22 6.83, 38.57 11.23 C39.47 16.01, 39.72 12.51, 34.82 14.98 C27.48 16.37, 16.14 17.62, 3.74 14.98 C1.83 15.63, -0.85 15.72, 0 11.23 C-0.65 10.04, 0.52 8.77, 0 3.74 C2.6 1.19, 2.25 -1.53, 3.74 0" stroke="none" stroke-width="0" fill="#868e96"></path><path d="M3.74 0 C9.82 -0.27, 16.95 -0.77, 34.82 0 M3.74 0 C11.37 0.44, 19.27 0.4, 34.82 0 M34.82 0 C38.3 -0.74, 38.59 2.15, 38.57 3.74 M34.82 0 C37.59 -0.47, 38.62 0.82, 38.57 3.74 M38.57 3.74 C38.19 5.85, 38.4 8.08, 38.57 11.23 M38.57 3.74 C38.56 6.12, 38.45 8.72, 38.57 11.23 M38.57 11.23 C37.75 13.46, 38.18 15.44, 34.82 14.98 M38.57 11.23 C37.59 14.69, 38.34 14.44, 34.82 14.98 M34.82 14.98 C26.94 14.69, 17.1 15.09, 3.74 14.98 M34.82 14.98 C25.29 15.21, 15.86 15.11, 3.74 14.98 M3.74 14.98 C1.77 14.01, -0.14 13.94, 0 11.23 M3.74 14.98 C0.45 14.03, 0.49 13.32, 0 11.23 M0 11.23 C0.29 8.53, 0.04 6.05, 0 3.74 M0 11.23 C-0.19 8.38, -0.13 5.77, 0 3.74 M0 3.74 C0.75 1.58, 1.79 0.09, 3.74 0 M0 3.74 C-0.66 2.24, 1.25 0.16, 3.74 0" stroke="#343a40" stroke-width="2" fill="none"></path></g><g stroke-linecap="round" transform="translate(79.93959263392844 52.35810673701235) rotate(0 13.974609375 10.47265625)"><path d="M5.24 0 C7.2 -1.01, 11.61 -1.16, 22.71 0 C24.58 -0.46, 25.62 -0.18, 27.95 5.24 C29.33 7.68, 28.63 13.49, 27.95 15.71 C31.28 15.79, 26.62 23.15, 22.71 20.95 C18.07 24.24, 12.48 21.9, 5.24 20.95 C0.57 23.71, -3.38 17.82, 0 15.71 C1.08 13.17, 2.02 8.16, 0 5.24 C1.38 -0.37, 5.07 2.41, 5.24 0" stroke="none" stroke-width="0" fill="#eaddd7"></path><path d="M5.24 0 C12.62 -1.08, 17.97 -1.64, 22.71 0 M5.24 0 C8.9 0.37, 13.73 -0.76, 22.71 0 M22.71 0 C26.26 1.8, 28.42 0.92, 27.95 5.24 M22.71 0 C26.31 -0.85, 27.63 1.06, 27.95 5.24 M27.95 5.24 C27.42 9.43, 28.16 13.36, 27.95 15.71 M27.95 5.24 C27.62 7.61, 27.52 9.63, 27.95 15.71 M27.95 15.71 C29.68 20.13, 24.51 22.62, 22.71 20.95 M27.95 15.71 C30 18.12, 25.83 20.15, 22.71 20.95 M22.71 20.95 C18.25 21.25, 14.29 21.24, 5.24 20.95 M22.71 20.95 C17.71 21.19, 11.82 20.17, 5.24 20.95 M5.24 20.95 C1.47 21.38, -1.38 17.55, 0 15.71 M5.24 20.95 C2.72 20.14, 1.42 18.9, 0 15.71 M0 15.71 C0.01 13.26, 0.66 10.23, 0 5.24 M0 15.71 C-0.21 12.08, 0.48 8.14, 0 5.24 M0 5.24 C1.08 1.92, 0.59 1.72, 5.24 0 M0 5.24 C0 2.06, 0.93 -0.09, 5.24 0" stroke="#1e1e1e" stroke-width="2" fill="none"></path></g><g stroke-linecap="round" transform="translate(30.14076450892844 38.31904423701235) rotate(0 25.4296875 23.859375)"><path d="M30.63 0.5 C35.94 1.12, 42.87 5.08, 46.25 9.23 C49.64 13.37, 51.14 20.14, 50.93 25.36 C50.72 30.58, 48.56 37.02, 45.01 40.56 C41.46 44.1, 35.21 46.12, 29.62 46.61 C24.04 47.1, 16.15 45.94, 11.49 43.5 C6.84 41.06, 3.25 36.62, 1.7 31.94 C0.15 27.26, 0.21 20.38, 2.2 15.42 C4.18 10.47, 8.52 4.64, 13.62 2.2 C18.71 -0.24, 29.54 0.95, 32.78 0.79 C36.01 0.62, 33.3 0.92, 33.04 1.2 M14.12 1.43 C18.46 -0.87, 26.07 -1.18, 31.37 0.1 C36.68 1.37, 42.87 4.76, 45.97 9.08 C49.07 13.4, 50.35 20.97, 49.97 26.01 C49.59 31.05, 47.2 35.83, 43.68 39.32 C40.17 42.81, 34.26 46.02, 28.89 46.93 C23.53 47.85, 15.94 47.84, 11.5 44.81 C7.07 41.78, 3.8 33.76, 2.3 28.76 C0.79 23.77, 0.42 19.02, 2.49 14.83 C4.56 10.65, 12.55 5.6, 14.73 3.65 C16.9 1.7, 15.13 2.94, 15.53 3.13" stroke="none" stroke-width="0" fill="#eaddd7"></path><path d="M14.38 2.49 C19.06 0.22, 26.46 0.41, 31.55 1.56 C36.64 2.72, 41.55 5.48, 44.91 9.42 C48.27 13.36, 51.93 20.1, 51.73 25.21 C51.53 30.32, 47.62 36.38, 43.72 40.08 C39.81 43.77, 33.69 46.59, 28.31 47.39 C22.92 48.18, 16.09 47.58, 11.41 44.83 C6.72 42.07, 1.83 35.87, 0.19 30.87 C-1.46 25.86, -1.03 19.62, 1.56 14.79 C4.14 9.97, 13.22 4.1, 15.69 1.93 C18.17 -0.25, 16.38 1.48, 16.42 1.74 M29.46 0.84 C34.63 1.33, 38.72 5.14, 42.5 8.59 C46.28 12.05, 51.61 16.76, 52.14 21.56 C52.67 26.37, 49.28 32.94, 45.71 37.42 C42.14 41.9, 36.01 47.14, 30.71 48.43 C25.41 49.72, 18.62 47.6, 13.91 45.14 C9.2 42.68, 4.57 38.26, 2.46 33.67 C0.36 29.07, -0.25 22.42, 1.29 17.58 C2.83 12.75, 7.03 7.49, 11.7 4.63 C16.37 1.78, 26.45 1.35, 29.31 0.44 C32.18 -0.48, 29.17 -1.24, 28.9 -0.84" stroke="#1e1e1e" stroke-width="2" fill="none"></path></g></svg>