<svg version="1.1" xmlns="http://www.w3.org/2000/svg" viewBox="0 0 106.88189535019183 127.12357954545405" width="106.88189535019183" height="127.12357954545405">
  <!-- svg-source:excalidraw -->
  
  <defs>
    <style class="style-fonts">
      @font-face {
        font-family: "Virgil";
        src: url("https://excalidraw.com/Virgil.woff2");
      }
      @font-face {
        font-family: "Cascadia";
        src: url("https://excalidraw.com/Cascadia.woff2");
      }
      @font-face {
        font-family: "Assistant";
        src: url("https://excalidraw.com/Assistant-Regular.woff2");
      }
    </style>
    
  </defs>
  <g stroke-linecap="round" transform="translate(10 24.85274621212011) rotate(0 42.630859375 38.322265625)"><path d="M19.16 0 C30.34 -0.19, 42.44 -1.66, 66.1 0 C79.42 0.38, 82.14 8.99, 85.26 19.16 C88.83 25.51, 85.92 40.88, 85.26 57.48 C85.73 73.5, 80.74 77.59, 66.1 76.64 C46.17 79.62, 25.22 75.48, 19.16 76.64 C8.49 74.09, 1.31 72.06, 0 57.48 C0.7 41.4, 2.63 31.96, 0 19.16 C1.25 7.64, 8.85 0.37, 19.16 0" stroke="none" stroke-width="0" fill="#a18072"></path><path d="M19.16 0 C28.65 -0.26, 42.65 0.11, 66.1 0 M19.16 0 C35.83 1.25, 52.68 -0.06, 66.1 0 M66.1 0 C78.97 -0.74, 84.99 5.79, 85.26 19.16 M66.1 0 C80.9 -2.23, 85.03 5.45, 85.26 19.16 M85.26 19.16 C83.7 31.08, 84.43 41.87, 85.26 57.48 M85.26 19.16 C85.81 31.95, 84.1 44.64, 85.26 57.48 M85.26 57.48 C87.05 69.32, 78.55 75.95, 66.1 76.64 M85.26 57.48 C84.03 72.41, 78.41 76.44, 66.1 76.64 M66.1 76.64 C51.59 77.3, 36.88 78.27, 19.16 76.64 M66.1 76.64 C50.95 76.41, 35.38 75.36, 19.16 76.64 M19.16 76.64 C7.23 75.94, 1.23 70, 0 57.48 M19.16 76.64 C6.32 78.39, 0.06 70.46, 0 57.48 M0 57.48 C1.12 41.81, -1.13 28.53, 0 19.16 M0 57.48 C0.25 44.27, -0.86 31.75, 0 19.16 M0 19.16 C0 6.66, 5.68 -0.08, 19.16 0 M0 19.16 C-1.5 4.35, 7.54 -1.56, 19.16 0" stroke="#1e1e1e" stroke-width="2" fill="none"></path></g><g stroke-linecap="round" transform="translate(33.86899266098453 102.14701704545405) rotate(0 19.283203125 7.48828125)"><path d="M3.74 0 C10.4 -1.34, 20.81 0.32, 34.82 0 C35.07 1.88, 37.39 2.15, 38.57 3.74 C38.77 7.24, 38.78 10.43, 38.57 11.23 C39.91 14.41, 39.9 15.56, 34.82 14.98 C22.28 14.29, 16.12 13.44, 3.74 14.98 C2.19 16.28, 1.68 16.32, 0 11.23 C0.86 9.65, 0.3 7.11, 0 3.74 C1.78 1.51, -1.2 2.14, 3.74 0" stroke="none" stroke-width="0" fill="#868e96"></path><path d="M3.74 0 C10.73 -0.12, 17.01 1.04, 34.82 0 M3.74 0 C10.88 -0.35, 17.81 -0.32, 34.82 0 M34.82 0 C37.18 -0.3, 39.45 0.28, 38.57 3.74 M34.82 0 C37.2 -0.47, 38.71 1.59, 38.57 3.74 M38.57 3.74 C38.36 5.75, 38.62 7.92, 38.57 11.23 M38.57 3.74 C38.44 5.95, 38.77 7.75, 38.57 11.23 M38.57 11.23 C38.4 13.38, 36.78 15.91, 34.82 14.98 M38.57 11.23 C38.33 13.63, 37.54 15.11, 34.82 14.98 M34.82 14.98 C25.3 15.79, 15.18 15.55, 3.74 14.98 M34.82 14.98 C28.16 14.6, 22.39 14.83, 3.74 14.98 M3.74 14.98 C1.87 14.85, -0.03 14.49, 0 11.23 M3.74 14.98 C1.28 15.08, 0.72 14.54, 0 11.23 M0 11.23 C-0.19 8.24, 0.15 5.96, 0 3.74 M0 11.23 C-0.13 8.9, -0.02 6.27, 0 3.74 M0 3.74 C-0.35 1.21, 0.6 -0.89, 3.74 0 M0 3.74 C0.58 0.47, 0.94 -0.67, 3.74 0" stroke="#1e1e1e" stroke-width="2" fill="none"></path></g><g stroke-linecap="round" transform="translate(34.05486505681802 10) rotate(0 19.283203125 7.48828125)"><path d="M3.74 0 C13.06 0.49, 19.34 2.1, 34.82 0 C36.14 0.91, 40.85 3.65, 38.57 3.74 C38.7 6.16, 39.08 7.08, 38.57 11.23 C41.15 14.31, 37.97 14.13, 34.82 14.98 C24.63 12.98, 12.35 16.12, 3.74 14.98 C2.92 17.57, -0.05 14.73, 0 11.23 C0.25 9.77, 0.58 7.72, 0 3.74 C-2.45 3.39, 2.56 2.2, 3.74 0" stroke="none" stroke-width="0" fill="#868e96"></path><path d="M3.74 0 C12.51 1.01, 19.45 0.05, 34.82 0 M3.74 0 C15.89 -0.12, 27.91 -0.09, 34.82 0 M34.82 0 C38.2 -0.97, 38.47 0.84, 38.57 3.74 M34.82 0 C37.46 0.34, 38.56 0.28, 38.57 3.74 M38.57 3.74 C38.63 5.66, 38.45 8.51, 38.57 11.23 M38.57 3.74 C38.7 6.25, 38.5 8.87, 38.57 11.23 M38.57 11.23 C38.03 14.66, 37.12 14.89, 34.82 14.98 M38.57 11.23 C38.79 13.86, 37.54 15.26, 34.82 14.98 M34.82 14.98 C24.81 15.62, 13.44 14.96, 3.74 14.98 M34.82 14.98 C25.04 14.67, 15.15 14.78, 3.74 14.98 M3.74 14.98 C1.22 15.73, 0.03 13.82, 0 11.23 M3.74 14.98 C1.97 15.79, 0.82 14.53, 0 11.23 M0 11.23 C0.19 9.93, 0.14 8.26, 0 3.74 M0 11.23 C0.02 8.95, -0.04 6.6, 0 3.74 M0 3.74 C-0.65 0.36, 1.75 -0.68, 3.74 0 M0 3.74 C-0.31 0.58, 0.88 -0.52, 3.74 0" stroke="#343a40" stroke-width="2" fill="none"></path></g><g stroke-linecap="round" transform="translate(65.74630283943043 23.860949680865815) rotate(312.47556431009303 13.974609375 10.47265625)"><path d="M5.24 0 C6.82 2.24, 12.42 1.06, 22.71 0 C29.37 3.33, 24.54 2.17, 27.95 5.24 C28.95 9.52, 29.85 13.22, 27.95 15.71 C28.86 18.02, 28.97 17.57, 22.71 20.95 C19.28 22.29, 15.59 23.86, 5.24 20.95 C1.67 22.33, -2.12 22.52, 0 15.71 C1.23 12.06, -1.84 9.57, 0 5.24 C1.82 4.79, 4.57 0.4, 5.24 0" stroke="none" stroke-width="0" fill="#eaddd7"></path><path d="M5.24 0 C8.89 -0.12, 16.7 0.24, 22.71 0 M5.24 0 C9.64 -0.2, 15.05 -0.78, 22.71 0 M22.71 0 C26 -0.81, 28.2 2.34, 27.95 5.24 M22.71 0 C26.19 -1.93, 27.88 0.66, 27.95 5.24 M27.95 5.24 C27.7 8.63, 28.46 9.32, 27.95 15.71 M27.95 5.24 C27.96 9.07, 27.76 13.76, 27.95 15.71 M27.95 15.71 C27.54 19.02, 26.6 21.17, 22.71 20.95 M27.95 15.71 C28.39 19.77, 26.86 21.86, 22.71 20.95 M22.71 20.95 C14.44 20.8, 9.92 19.83, 5.24 20.95 M22.71 20.95 C19.45 20.77, 15.09 21.55, 5.24 20.95 M5.24 20.95 C1.8 21.12, 1.26 20.62, 0 15.71 M5.24 20.95 C3.38 22.55, -2.03 18.22, 0 15.71 M0 15.71 C0.3 13.73, 0.04 10.02, 0 5.24 M0 15.71 C-0.19 11.64, -0.34 7.16, 0 5.24 M0 5.24 C1 0.39, 1.2 -1.16, 5.24 0 M0 5.24 C-0.73 0.71, 1.45 -1.49, 5.24 0" stroke="#1e1e1e" stroke-width="2" fill="none"></path></g><g stroke-linecap="round" transform="translate(27.917475541171825 38.54130475837155) rotate(312.47556431009303 25.4296875 23.859375)"><path d="M33.83 0.91 C38.76 2.58, 45.17 8.17, 47.99 12.79 C50.82 17.42, 51.82 23.86, 50.78 28.67 C49.74 33.48, 45.86 38.47, 41.76 41.65 C37.65 44.82, 31.59 47.71, 26.15 47.72 C20.71 47.73, 13.42 45.11, 9.11 41.7 C4.81 38.28, 1.41 32.12, 0.32 27.22 C-0.77 22.32, -0.05 16.67, 2.59 12.32 C5.24 7.97, 10 2.48, 16.18 1.12 C22.37 -0.23, 35.01 2.86, 39.72 4.19 C44.42 5.52, 44.67 8.81, 44.42 9.1 M28.44 -0.61 C33.69 -0.11, 39.78 4.67, 43.73 8.12 C47.68 11.57, 51.64 15.07, 52.12 20.09 C52.6 25.11, 49.87 33.56, 46.6 38.24 C43.33 42.92, 37.63 46.89, 32.48 48.19 C27.34 49.48, 20.47 48.27, 15.72 45.99 C10.97 43.71, 6.42 39.28, 4 34.52 C1.57 29.77, -0.12 22.7, 1.17 17.45 C2.47 12.21, 7.49 5.82, 11.76 3.06 C16.03 0.31, 24.37 1.27, 26.79 0.94 C29.2 0.62, 26.07 0.68, 26.26 1.09" stroke="none" stroke-width="0" fill="#eaddd7"></path><path d="M28.08 0.03 C33.27 0.44, 40.04 4.68, 43.67 8.41 C47.3 12.15, 49.57 17.45, 49.85 22.43 C50.14 27.41, 48.44 34.17, 45.38 38.28 C42.33 42.39, 36.9 45.94, 31.53 47.08 C26.15 48.22, 18.11 47.53, 13.12 45.12 C8.13 42.71, 3.55 37.46, 1.58 32.63 C-0.39 27.8, -0.31 20.79, 1.3 16.14 C2.91 11.5, 5.67 7.34, 11.25 4.76 C16.82 2.17, 29.92 0.55, 34.75 0.64 C39.57 0.74, 40.48 4.86, 40.18 5.35 M20.74 0.22 C25.97 -1.12, 33.65 0.73, 38.47 3.38 C43.28 6.03, 47.75 11.22, 49.62 16.1 C51.5 20.98, 51.47 27.85, 49.74 32.64 C48.02 37.43, 43.93 42.63, 39.27 44.84 C34.6 47.05, 27.36 46.79, 21.77 45.9 C16.18 45.01, 9.53 43.38, 5.73 39.49 C1.92 35.61, -1.18 27.84, -1.04 22.59 C-0.89 17.34, 2.77 11.71, 6.6 7.97 C10.44 4.23, 19.56 1.17, 21.97 0.16 C24.39 -0.84, 21.16 1.52, 21.09 1.96" stroke="#1e1e1e" stroke-width="2" fill="none"></path></g></svg>