<svg version="1.1" xmlns="http://www.w3.org/2000/svg" viewBox="0 0 105.26171875 129.23744184244413" width="105.26171875" height="129.23744184244413">
  <!-- svg-source:excalidraw -->
  
  <defs>
    <style class="style-fonts">
      @font-face {
        font-family: "Virgil";
        src: url("https://excalidraw.com/Virgil.woff2");
      }
      @font-face {
        font-family: "Cascadia";
        src: url("https://excalidraw.com/Cascadia.woff2");
      }
      @font-face {
        font-family: "Assistant";
        src: url("https://excalidraw.com/Assistant-Regular.woff2");
      }
    </style>
    
  </defs>
  <g stroke-linecap="round" transform="translate(10 26.966608509110188) rotate(0 42.630859375 38.322265625)"><path d="M19.16 0 C39.8 3.03, 50.7 0.13, 66.1 0 C81.08 0.47, 88.51 8.25, 85.26 19.16 C86.86 30.49, 88.71 40.8, 85.26 57.48 C83.88 72.36, 76.32 77.95, 66.1 76.64 C49.6 78.87, 31.13 80.81, 19.16 76.64 C8.8 77.9, 1.26 72.73, 0 57.48 C2.47 48.64, 3.47 34.11, 0 19.16 C-2.91 7.75, 4.15 -2.19, 19.16 0" stroke="none" stroke-width="0" fill="#a18072"></path><path d="M19.16 0 C32.55 -0.02, 46.85 -0.39, 66.1 0 M19.16 0 C31.74 0.05, 44.65 0.75, 66.1 0 M66.1 0 C78.86 -1.68, 85.2 5.44, 85.26 19.16 M66.1 0 C77.43 0.5, 83.39 5.78, 85.26 19.16 M85.26 19.16 C87.12 35.76, 84.5 48.46, 85.26 57.48 M85.26 19.16 C84.85 29.24, 85.25 39.61, 85.26 57.48 M85.26 57.48 C85.64 70.75, 79.44 77.44, 66.1 76.64 M85.26 57.48 C87.02 70.71, 80.08 74.42, 66.1 76.64 M66.1 76.64 C51 77.16, 38.5 77.55, 19.16 76.64 M66.1 76.64 C52.65 77.09, 39.78 77.71, 19.16 76.64 M19.16 76.64 C7.81 78.04, -1.76 69.4, 0 57.48 M19.16 76.64 C5.07 77.72, 1.72 71.01, 0 57.48 M0 57.48 C1.69 43.91, 0.24 29.64, 0 19.16 M0 57.48 C0.75 45.46, -0.02 34.22, 0 19.16 M0 19.16 C-0.64 5.48, 6.13 -1.29, 19.16 0 M0 19.16 C-1.23 6.74, 6.63 -1.99, 19.16 0" stroke="#1e1e1e" stroke-width="2" fill="none"></path></g><g stroke-linecap="round" transform="translate(33.86899266098453 104.26087934244413) rotate(0 19.283203125 7.48828125)"><path d="M3.74 0 C11.69 -0.07, 26.15 -0.04, 34.82 0 C39.66 1.35, 39.25 3.83, 38.57 3.74 C39.34 5.25, 38.22 9.14, 38.57 11.23 C36.72 14.67, 38.62 16.65, 34.82 14.98 C20.87 17.53, 11.71 16.04, 3.74 14.98 C2.16 16.76, 0.26 11.28, 0 11.23 C0.71 8.48, -0.83 5.87, 0 3.74 C-1.61 -0.33, 1.64 -2.38, 3.74 0" stroke="none" stroke-width="0" fill="#868e96"></path><path d="M3.74 0 C13.44 -0.15, 23.57 0.87, 34.82 0 M3.74 0 C10.12 0.21, 16.36 -0.36, 34.82 0 M34.82 0 C37.29 -0.47, 37.94 1.46, 38.57 3.74 M34.82 0 C36.38 -0.3, 39.56 1.78, 38.57 3.74 M38.57 3.74 C38.42 5.29, 38.47 6.77, 38.57 11.23 M38.57 3.74 C38.6 6.71, 38.59 9.68, 38.57 11.23 M38.57 11.23 C38.85 14.13, 38.08 15.18, 34.82 14.98 M38.57 11.23 C39.17 12.62, 37.16 15.22, 34.82 14.98 M34.82 14.98 C27.29 15.66, 20.34 15.01, 3.74 14.98 M34.82 14.98 C23.46 15.34, 11.82 15.34, 3.74 14.98 M3.74 14.98 C0.37 14.55, -0.57 14.2, 0 11.23 M3.74 14.98 C2.11 15.35, 0.62 13.83, 0 11.23 M0 11.23 C0.02 9.28, -0.05 7.36, 0 3.74 M0 11.23 C-0.07 9.54, -0.08 7.98, 0 3.74 M0 3.74 C-0.13 0.6, 0.71 0.15, 3.74 0 M0 3.74 C0.12 0.25, 2.08 -0.52, 3.74 0" stroke="#1e1e1e" stroke-width="2" fill="none"></path></g><g stroke-linecap="round" transform="translate(34.05486505681802 12.113862296990078) rotate(0 19.283203125 7.48828125)"><path d="M3.74 0 C17.53 0.29, 30.48 1.3, 34.82 0 C38 2.59, 39.15 1.9, 38.57 3.74 C38.27 6.31, 37.95 8.1, 38.57 11.23 C39.87 15.4, 39.91 14.92, 34.82 14.98 C26.05 16.25, 14.69 17.13, 3.74 14.98 C1.51 12.53, 2.14 15.04, 0 11.23 C-0.86 8.72, -0.68 4.88, 0 3.74 C0.4 -1.13, 2.02 -0.64, 3.74 0" stroke="none" stroke-width="0" fill="#868e96"></path><path d="M3.74 0 C12.91 0.9, 21.71 -0.08, 34.82 0 M3.74 0 C11.8 -0.46, 19.84 -0.28, 34.82 0 M34.82 0 C36.69 0.22, 37.75 0.98, 38.57 3.74 M34.82 0 C38.31 0.54, 37.59 2.21, 38.57 3.74 M38.57 3.74 C38.42 6.46, 38.9 9.5, 38.57 11.23 M38.57 3.74 C38.61 5.97, 38.63 8.18, 38.57 11.23 M38.57 11.23 C39.33 13.93, 37.84 14.01, 34.82 14.98 M38.57 11.23 C38.41 13.98, 36.52 14.03, 34.82 14.98 M34.82 14.98 C24.06 15.04, 14.31 15.1, 3.74 14.98 M34.82 14.98 C25.58 15.44, 15.18 14.87, 3.74 14.98 M3.74 14.98 C0.68 15.45, 0.75 14.06, 0 11.23 M3.74 14.98 C1.87 15.08, -0.66 14.72, 0 11.23 M0 11.23 C-0.02 8.74, -0.34 6.93, 0 3.74 M0 11.23 C-0.05 9.41, -0.01 7.64, 0 3.74 M0 3.74 C-0.54 1.4, 1.35 -0.87, 3.74 0 M0 3.74 C0.83 0.73, 1.65 1.01, 3.74 0" stroke="#343a40" stroke-width="2" fill="none"></path></g><g stroke-linecap="round" transform="translate(39.397448168828305 13.626040698085376) rotate(269.315648468081 13.974609375 10.47265625)"><path d="M5.24 0 C13.52 1.59, 16.96 3.09, 22.71 0 C27.01 0.91, 26.77 4.51, 27.95 5.24 C26.54 8.08, 28.82 10.77, 27.95 15.71 C31.54 19.13, 27.59 18.83, 22.71 20.95 C16.96 23.21, 9.32 18.1, 5.24 20.95 C4.71 22.76, 3.04 22.02, 0 15.71 C-1.02 11.31, 0.44 7.47, 0 5.24 C1.07 0.86, -0.47 0.93, 5.24 0" stroke="none" stroke-width="0" fill="#eaddd7"></path><path d="M5.24 0 C8.54 -0.33, 14.53 0.07, 22.71 0 M5.24 0 C10.97 -0.27, 16.2 0.33, 22.71 0 M22.71 0 C24.58 -0.53, 29.68 2.68, 27.95 5.24 M22.71 0 C24.26 1.93, 30 0.67, 27.95 5.24 M27.95 5.24 C28.89 7.99, 27.82 11.38, 27.95 15.71 M27.95 5.24 C28.12 8.7, 28.37 11.86, 27.95 15.71 M27.95 15.71 C29 17.27, 25.93 21.38, 22.71 20.95 M27.95 15.71 C26.36 17.3, 27.17 20.14, 22.71 20.95 M22.71 20.95 C17.71 20.99, 10.23 22.04, 5.24 20.95 M22.71 20.95 C15.46 20.69, 9.25 21.48, 5.24 20.95 M5.24 20.95 C3.24 21.6, 1.08 19.37, 0 15.71 M5.24 20.95 C0.42 22.93, 0 19.52, 0 15.71 M0 15.71 C-0.92 13.46, -0.71 9.88, 0 5.24 M0 15.71 C-0.03 12.84, -0.25 10.72, 0 5.24 M0 5.24 C0.21 0.01, 3.19 -0.91, 5.24 0 M0 5.24 C0.8 3.77, 3.87 -2.18, 5.24 0" stroke="#1e1e1e" stroke-width="2" fill="none"></path></g><g stroke-linecap="round" transform="translate(27.939453125 38.740472132401806) rotate(269.315648468081 25.4296875 23.859375)"><path d="M18.35 0.63 C23.07 -1.15, 30.71 -0.85, 35.53 1.33 C40.36 3.51, 44.98 9.08, 47.3 13.72 C49.63 18.36, 50.7 24.33, 49.48 29.16 C48.25 34, 44.31 39.66, 39.97 42.72 C35.63 45.79, 28.87 47.89, 23.42 47.55 C17.97 47.2, 11.13 44.11, 7.27 40.63 C3.42 37.15, 0.97 31.53, 0.31 26.66 C-0.34 21.79, -0.29 15.77, 3.36 11.41 C7.01 7.05, 18.11 2.15, 22.23 0.49 C26.35 -1.17, 28.12 1.1, 28.08 1.46 M33.86 1.5 C39.11 2.5, 45.51 7.22, 48.37 11.38 C51.23 15.55, 51.79 21.71, 51.02 26.49 C50.25 31.27, 47.93 36.37, 43.76 40.05 C39.58 43.73, 31.77 48.03, 25.96 48.57 C20.14 49.12, 12.98 46.43, 8.88 43.33 C4.78 40.23, 2.1 35.07, 1.35 29.98 C0.6 24.9, 1.89 17.65, 4.37 12.81 C6.86 7.96, 11.27 2.71, 16.28 0.93 C21.3 -0.85, 31.6 1.92, 34.47 2.11 C37.33 2.3, 33.64 1.85, 33.45 2.08" stroke="none" stroke-width="0" fill="#eaddd7"></path><path d="M26.2 0.02 C31.26 -0.08, 38.39 2.57, 42.5 5.96 C46.62 9.36, 50.28 15.07, 50.92 20.4 C51.56 25.73, 49.31 33.69, 46.34 37.94 C43.36 42.19, 38.1 44.46, 33.06 45.9 C28.02 47.35, 21.22 48.54, 16.07 46.61 C10.92 44.67, 4.79 39.11, 2.18 34.29 C-0.44 29.47, -1.15 22.68, 0.37 17.7 C1.89 12.73, 6.46 7.31, 11.29 4.44 C16.11 1.58, 25.92 1, 29.33 0.49 C32.73 -0.02, 31.75 1, 31.74 1.4 M31.23 -0.98 C36.14 -0.32, 41.99 5.26, 45.09 9.29 C48.19 13.31, 49.81 18.22, 49.82 23.19 C49.83 28.16, 48.42 35.09, 45.15 39.1 C41.87 43.11, 35.67 46.21, 30.17 47.26 C24.67 48.3, 16.95 47.97, 12.15 45.37 C7.35 42.76, 2.95 36.47, 1.37 31.62 C-0.2 26.76, 0.53 20.84, 2.69 16.23 C4.85 11.62, 9.9 6.7, 14.31 3.96 C18.71 1.23, 26.59 0.21, 29.12 -0.17 C31.65 -0.56, 29.16 1.06, 29.48 1.64" stroke="#1e1e1e" stroke-width="2" fill="none"></path></g></svg>