<svg version="1.1" xmlns="http://www.w3.org/2000/svg" viewBox="0 0 108.08725249304916 127.12357954545405" width="108.08725249304916" height="127.12357954545405">
  <!-- svg-source:excalidraw -->
  
  <defs>
    <style class="style-fonts">
      @font-face {
        font-family: "Virgil";
        src: url("https://excalidraw.com/Virgil.woff2");
      }
      @font-face {
        font-family: "Cascadia";
        src: url("https://excalidraw.com/Cascadia.woff2");
      }
      @font-face {
        font-family: "Assistant";
        src: url("https://excalidraw.com/Assistant-Regular.woff2");
      }
    </style>
    
  </defs>
  <g stroke-linecap="round" transform="translate(12.825533743049164 24.85274621212011) rotate(0 42.630859375 38.322265625)"><path d="M19.16 0 C36.48 0.07, 51.01 1.92, 66.1 0 C75.5 -1.38, 87.36 3.83, 85.26 19.16 C89.2 31.98, 86.99 42.82, 85.26 57.48 C88.58 72.67, 80.13 77.9, 66.1 76.64 C51.77 77.67, 34.54 78.67, 19.16 76.64 C6.79 73.74, 1.36 68.02, 0 57.48 C0.96 47.43, -2.33 40.07, 0 19.16 C2.1 7.08, 4.5 0.33, 19.16 0" stroke="none" stroke-width="0" fill="#a18072"></path><path d="M19.16 0 C33.37 -0.07, 44.71 -0.12, 66.1 0 M19.16 0 C30.21 -0.37, 43.75 0.36, 66.1 0 M66.1 0 C77.18 1.68, 87.05 5.45, 85.26 19.16 M66.1 0 C78.5 -0.8, 84.03 8.54, 85.26 19.16 M85.26 19.16 C85.45 30.27, 85.72 41.17, 85.26 57.48 M85.26 19.16 C86.08 31.21, 85.42 45.41, 85.26 57.48 M85.26 57.48 C83.88 68.6, 79.72 75.94, 66.1 76.64 M85.26 57.48 C86.68 69.96, 78.8 78.39, 66.1 76.64 M66.1 76.64 C53.31 78.36, 39.08 75.18, 19.16 76.64 M66.1 76.64 C54.77 77.19, 42.49 76.95, 19.16 76.64 M19.16 76.64 C5.24 78.37, 0 70.53, 0 57.48 M19.16 76.64 C5.57 76.55, -1.5 68.22, 0 57.48 M0 57.48 C-0.9 43.43, -0.64 30.38, 0 19.16 M0 57.48 C0.31 47.6, 0.93 38.99, 0 19.16 M0 19.16 C0.7 8.14, 8.24 -1.89, 19.16 0 M0 19.16 C0.27 7.79, 6.69 2.07, 19.16 0" stroke="#1e1e1e" stroke-width="2" fill="none"></path></g><g stroke-linecap="round" transform="translate(36.694526404033695 102.14701704545405) rotate(0 19.283203125 7.48828125)"><path d="M3.74 0 C15.31 1.89, 26.14 -1.1, 34.82 0 C38.84 -1.85, 39.51 2.55, 38.57 3.74 C39.04 5.9, 39.56 9.86, 38.57 11.23 C39.47 14.64, 39.1 15.24, 34.82 14.98 C30.62 17.22, 22.31 13.08, 3.74 14.98 C2.23 13.36, -1.58 14.13, 0 11.23 C-0.63 9.92, 0.54 8.3, 0 3.74 C-1.36 1.49, 3.52 -1.03, 3.74 0" stroke="none" stroke-width="0" fill="#868e96"></path><path d="M3.74 0 C12.62 -0.03, 22.71 -0.63, 34.82 0 M3.74 0 C14.17 0.27, 23.31 0.46, 34.82 0 M34.82 0 C38.21 -0.47, 38.4 0.9, 38.57 3.74 M34.82 0 C36.7 1.08, 38.33 1.15, 38.57 3.74 M38.57 3.74 C38.66 6.24, 38.72 8.82, 38.57 11.23 M38.57 3.74 C38.56 6.18, 38.46 8.38, 38.57 11.23 M38.57 11.23 C38.99 13.38, 37.94 14.85, 34.82 14.98 M38.57 11.23 C38.53 14.6, 37.35 15.08, 34.82 14.98 M34.82 14.98 C24.24 14.2, 11.84 14.51, 3.74 14.98 M34.82 14.98 C24.31 15.07, 12.97 15.46, 3.74 14.98 M3.74 14.98 C1.25 15.11, -0.35 13.69, 0 11.23 M3.74 14.98 C0.5 13.96, 0.58 12.95, 0 11.23 M0 11.23 C-0.15 9.14, -0.22 6.95, 0 3.74 M0 11.23 C0.13 8.79, 0.06 6.68, 0 3.74 M0 3.74 C0.92 0.3, 1.36 0.61, 3.74 0 M0 3.74 C0.15 2.28, 1.84 0.3, 3.74 0" stroke="#1e1e1e" stroke-width="2" fill="none"></path></g><g stroke-linecap="round" transform="translate(36.88039879986718 10) rotate(0 19.283203125 7.48828125)"><path d="M3.74 0 C11.41 -1.31, 25.48 -2.16, 34.82 0 C38.26 1.3, 40.24 3.84, 38.57 3.74 C39.5 6.63, 38.94 8.55, 38.57 11.23 C40.35 13.99, 34.87 17.12, 34.82 14.98 C24.22 13.19, 14.02 13.68, 3.74 14.98 C-0.33 15.37, -2.38 14.5, 0 11.23 C0.63 9.36, -0.45 7.2, 0 3.74 C2.27 0.22, 0.26 -0.81, 3.74 0" stroke="none" stroke-width="0" fill="#868e96"></path><path d="M3.74 0 C12.57 -0.62, 22.56 -0.81, 34.82 0 M3.74 0 C11.82 0.35, 21.2 -0.31, 34.82 0 M34.82 0 C37.15 -0.35, 38.03 2.18, 38.57 3.74 M34.82 0 C37.09 -0.1, 38.79 1.38, 38.57 3.74 M38.57 3.74 C38.72 6.42, 38.65 8.72, 38.57 11.23 M38.57 3.74 C38.43 5.11, 38.64 6.72, 38.57 11.23 M38.57 11.23 C39.18 13.6, 37.29 15.73, 34.82 14.98 M38.57 11.23 C38.6 13.83, 38.04 15.79, 34.82 14.98 M34.82 14.98 C22.87 14.27, 12.24 15.59, 3.74 14.98 M34.82 14.98 C24.19 15.42, 14.13 15.06, 3.74 14.98 M3.74 14.98 C0.89 14.94, -0.65 12.84, 0 11.23 M3.74 14.98 C1.83 14.2, -0.31 13.06, 0 11.23 M0 11.23 C-0.23 9.02, 0.07 7.25, 0 3.74 M0 11.23 C0.04 9.8, 0.15 7.86, 0 3.74 M0 3.74 C0.12 1.86, 1.38 0.9, 3.74 0 M0 3.74 C0.6 1.55, 2.39 0.26, 3.74 0" stroke="#343a40" stroke-width="2" fill="none"></path></g><g stroke-linecap="round" transform="translate(13.186373760761398 24.156708609438283) rotate(47.524435689906944 13.974609375 10.47265625)"><path d="M5.24 0 C13.66 -2.11, 19.55 1.69, 22.71 0 C28.52 3.59, 27.87 3.13, 27.95 5.24 C28.78 8.42, 29.42 10.48, 27.95 15.71 C24.56 22.17, 28.02 23.99, 22.71 20.95 C17.29 18.74, 7.58 21.17, 5.24 20.95 C-1.55 22.01, -0.88 16.98, 0 15.71 C-1.1 12.47, 1.54 8.14, 0 5.24 C-1.37 0.63, -0.39 2.87, 5.24 0" stroke="none" stroke-width="0" fill="#eaddd7"></path><path d="M5.24 0 C10.8 -1.31, 15.15 1.62, 22.71 0 M5.24 0 C12.07 -0.56, 17.21 -0.45, 22.71 0 M22.71 0 C25.14 1.87, 27.54 1.57, 27.95 5.24 M22.71 0 C26.66 0.26, 28.39 2.31, 27.95 5.24 M27.95 5.24 C28.2 9.23, 26.98 11.97, 27.95 15.71 M27.95 5.24 C28.1 8.42, 28.2 11.9, 27.95 15.71 M27.95 15.71 C27.89 20.71, 26.26 21.12, 22.71 20.95 M27.95 15.71 C29.39 20.83, 27.83 22.55, 22.71 20.95 M22.71 20.95 C19.83 22.15, 15.89 21.79, 5.24 20.95 M22.71 20.95 C17.32 21.22, 11.61 21.06, 5.24 20.95 M5.24 20.95 C0.44 19.17, 1 17.84, 0 15.71 M5.24 20.95 C1.12 19.61, -0.73 18.16, 0 15.71 M0 15.71 C0.23 12.81, -0.84 10.45, 0 5.24 M0 15.71 C0.45 12.55, 0.02 10.7, 0 5.24 M0 5.24 C0.26 3.55, 2.78 0.53, 5.24 0 M0 5.24 C2.29 2.26, 2.33 -0.75, 5.24 0" stroke="#1e1e1e" stroke-width="2" fill="none"></path></g><g stroke-linecap="round" transform="translate(28.10504480902 38.9230011869422) rotate(47.524435689906944 25.4296875 23.859375)"><path d="M21.53 0.09 C26.6 -0.9, 33.63 0.37, 38.34 3.14 C43.05 5.9, 48.17 11.6, 49.79 16.67 C51.42 21.75, 50.27 28.83, 48.11 33.6 C45.95 38.37, 41.36 42.9, 36.83 45.31 C32.3 47.73, 26.34 49.22, 20.93 48.1 C15.52 46.98, 7.77 42.77, 4.39 38.6 C1 34.43, 0.11 28.11, 0.63 23.07 C1.15 18.03, 3.57 12.02, 7.49 8.35 C11.42 4.68, 21.09 2.31, 24.19 1.04 C27.29 -0.23, 26.17 0.37, 26.1 0.73 M12.87 3.12 C17.57 0.67, 26.23 0.53, 31.96 1.59 C37.69 2.66, 44.03 5.73, 47.27 9.51 C50.51 13.3, 51.72 19.01, 51.4 24.28 C51.08 29.56, 49.1 37.21, 45.37 41.18 C41.64 45.14, 34.46 47.6, 28.99 48.07 C23.52 48.54, 17.44 46.67, 12.56 43.99 C7.67 41.31, 1.31 36.72, -0.32 32.02 C-1.94 27.31, 0.23 20.63, 2.8 15.75 C5.38 10.87, 13.42 4.77, 15.11 2.74 C16.81 0.71, 13.12 3.39, 12.96 3.57" stroke="none" stroke-width="0" fill="#eaddd7"></path><path d="M36.93 3.09 C41.61 4.96, 45.84 9.14, 47.97 13.53 C50.09 17.92, 50.83 24.48, 49.67 29.41 C48.52 34.35, 45.44 40.08, 41.03 43.15 C36.62 46.22, 28.79 48.19, 23.22 47.83 C17.65 47.47, 11.44 44.57, 7.63 40.99 C3.82 37.4, 0.8 31.31, 0.35 26.31 C-0.1 21.32, 1.84 15.17, 4.94 11.01 C8.04 6.86, 13.62 2.71, 18.95 1.36 C24.29 0.02, 33.51 2.53, 36.95 2.94 C40.39 3.34, 39.77 3.35, 39.59 3.79 M20.93 1.5 C25.82 0.41, 33.26 0.78, 38.15 3.31 C43.04 5.85, 48.21 11.77, 50.26 16.73 C52.3 21.68, 52.64 28.51, 50.4 33.03 C48.17 37.55, 41.89 41.36, 36.85 43.86 C31.82 46.37, 25.15 48.76, 20.19 48.07 C15.23 47.38, 10.33 43.72, 7.1 39.72 C3.87 35.71, 1.15 29.01, 0.81 24.03 C0.47 19.05, 1.7 13.75, 5.06 9.84 C8.42 5.93, 18.4 2.09, 20.97 0.57 C23.55 -0.94, 20.62 0.64, 20.53 0.78" stroke="#1e1e1e" stroke-width="2" fill="none"></path></g></svg>