<svg version="1.1" xmlns="http://www.w3.org/2000/svg" viewBox="0 0 108.91314535019092 140.84223780150387" width="108.91314535019092" height="140.84223780150387">
  <!-- svg-source:excalidraw -->
  
  <defs>
    <style class="style-fonts">
      @font-face {
        font-family: "Virgil";
        src: url("https://excalidraw.com/Virgil.woff2");
      }
      @font-face {
        font-family: "Cascadia";
        src: url("https://excalidraw.com/Cascadia.woff2");
      }
      @font-face {
        font-family: "Assistant";
        src: url("https://excalidraw.com/Assistant-Regular.woff2");
      }
    </style>
    
  </defs>
  <g stroke-linecap="round" transform="translate(37.70629165700893 109.0664392173394) rotate(22.461246866865288 19.283203125 7.48828125)"><path d="M3.74 0 C15.44 -1.29, 24.34 1.28, 34.82 0 C38.22 1.98, 41.16 3.08, 38.57 3.74 C39.45 5.4, 38.81 7.54, 38.57 11.23 C37.44 11.55, 35.84 12.91, 34.82 14.98 C27.78 13.46, 18.04 14.3, 3.74 14.98 C1.48 16.19, -1.15 14.36, 0 11.23 C-0.04 9.86, 0.68 5.65, 0 3.74 C-0.22 2.76, 0.2 0.09, 3.74 0" stroke="none" stroke-width="0" fill="#868e96"></path><path d="M3.74 0 C15.48 -0.08, 26.68 0.27, 34.82 0 M3.74 0 C11.04 0.24, 19.78 -0.49, 34.82 0 M34.82 0 C37.69 0.28, 39.07 1.79, 38.57 3.74 M34.82 0 C36.31 0.81, 37.52 2.26, 38.57 3.74 M38.57 3.74 C38.37 5.8, 38.53 7.94, 38.57 11.23 M38.57 3.74 C38.58 5.43, 38.73 7.25, 38.57 11.23 M38.57 11.23 C37.63 14.56, 36.66 14.68, 34.82 14.98 M38.57 11.23 C37.57 13.3, 37.43 14.08, 34.82 14.98 M34.82 14.98 C23.77 14.08, 12.64 14.64, 3.74 14.98 M34.82 14.98 C23.33 14.74, 11.86 15.47, 3.74 14.98 M3.74 14.98 C1.57 14.94, 0.17 13.54, 0 11.23 M3.74 14.98 C0.13 14.02, 0.1 13.62, 0 11.23 M0 11.23 C-0.35 8.76, -0.16 6.25, 0 3.74 M0 11.23 C-0.13 8.41, 0.14 5.89, 0 3.74 M0 3.74 C0.61 0.77, 0.48 0.86, 3.74 0 M0 3.74 C-0.31 0.14, 1.9 1.11, 3.74 0" stroke="#1e1e1e" stroke-width="2" fill="none"></path></g><g stroke-linecap="round" transform="translate(37.5204192611759 16.919422171883525) rotate(22.923355211056883 19.283203125 7.48828125)"><path d="M3.74 0 C15.56 1.68, 26.85 2.14, 34.82 0 C39.91 1.84, 38.17 3.39, 38.57 3.74 C38.81 4.84, 38.22 6.06, 38.57 11.23 C37.09 11.66, 35.62 12.67, 34.82 14.98 C21.63 13.82, 13.08 15.92, 3.74 14.98 C0.1 15.61, 0.22 14.9, 0 11.23 C0.73 7.95, -0.08 7.16, 0 3.74 C-1.05 1.33, -0.79 2.06, 3.74 0" stroke="none" stroke-width="0" fill="#868e96"></path><path d="M3.74 0 C13.48 0.3, 22.66 0.61, 34.82 0 M3.74 0 C14.81 -0.52, 25.12 0.05, 34.82 0 M34.82 0 C37.82 0.54, 37.69 1.95, 38.57 3.74 M34.82 0 C36.27 1.01, 38.37 1.84, 38.57 3.74 M38.57 3.74 C38.49 5.77, 38.34 7.97, 38.57 11.23 M38.57 3.74 C38.73 5.33, 38.39 7.42, 38.57 11.23 M38.57 11.23 C37.91 13.43, 36.45 14.61, 34.82 14.98 M38.57 11.23 C38.68 12.83, 38.04 15.84, 34.82 14.98 M34.82 14.98 C28.14 14.64, 21.45 15.69, 3.74 14.98 M34.82 14.98 C23.75 15.26, 12.17 14.86, 3.74 14.98 M3.74 14.98 C1.42 14.79, -0.97 12.9, 0 11.23 M3.74 14.98 C1.35 14.87, 0.48 14.78, 0 11.23 M0 11.23 C-0.1 9.57, 0.26 8.01, 0 3.74 M0 11.23 C0.2 9.55, 0.13 7.6, 0 3.74 M0 3.74 C-0.77 2.1, 0.98 -0.97, 3.74 0 M0 3.74 C0.65 2.36, 1.48 1.09, 3.74 0" stroke="#1e1e1e" stroke-width="2" fill="none"></path></g><g stroke-linecap="round" transform="translate(13.651426600190916 32.545724255215646) rotate(0 42.630859375 38.322265625)"><path d="M19.16 0 C32.58 2.25, 47.07 2.05, 66.1 0 C78.33 2.97, 81.99 9.34, 85.26 19.16 C83.81 25.77, 83.33 35.55, 85.26 57.48 C82.91 67.06, 80.8 76.99, 66.1 76.64 C55.47 78.04, 42.6 77.23, 19.16 76.64 C6.69 78.26, 0.35 70.27, 0 57.48 C-0.83 44.39, -1.97 27.24, 0 19.16 C-2.82 9.24, 9.97 -2.24, 19.16 0" stroke="none" stroke-width="0" fill="#a18072"></path><path d="M19.16 0 C31.96 1.06, 47.56 -2.08, 66.1 0 M19.16 0 C36.47 0.69, 53.53 0.94, 66.1 0 M66.1 0 C77.11 1.4, 83.44 8.14, 85.26 19.16 M66.1 0 C78.48 1.18, 84.73 5.08, 85.26 19.16 M85.26 19.16 C84.11 30.43, 83.9 40.89, 85.26 57.48 M85.26 19.16 C84.65 28.34, 84.93 35.56, 85.26 57.48 M85.26 57.48 C83.52 69.52, 79.07 75.08, 66.1 76.64 M85.26 57.48 C86.71 71.99, 77.2 77.15, 66.1 76.64 M66.1 76.64 C57.17 78.21, 46.59 77.17, 19.16 76.64 M66.1 76.64 C55.51 76.97, 44.44 76.82, 19.16 76.64 M19.16 76.64 C4.44 74.98, 0.18 70.07, 0 57.48 M19.16 76.64 C7.34 78.74, -1.39 68.3, 0 57.48 M0 57.48 C1.38 47.09, -1.14 31.75, 0 19.16 M0 57.48 C0.23 47.82, -1.14 39.97, 0 19.16 M0 19.16 C-0.54 4.45, 7.52 1.93, 19.16 0 M0 19.16 C0.46 8.57, 7.7 1.55, 19.16 0" stroke="#1e1e1e" stroke-width="2" fill="none"></path></g><g stroke-linecap="round" transform="translate(13.186373760761398 31.76882791603657) rotate(47.524435689906944 13.974609375 10.47265625)"><path d="M5.24 0 C7.38 -0.51, 17.56 -1.51, 22.71 0 C26.32 -2.82, 30.8 5.33, 27.95 5.24 C27.48 9.13, 28.58 10.79, 27.95 15.71 C28.93 20.33, 29.38 21.75, 22.71 20.95 C17.41 20.74, 9.89 23.22, 5.24 20.95 C2.86 20.34, 1.31 16.64, 0 15.71 C-0.97 14.04, 1.92 8.66, 0 5.24 C1.62 3.1, 4 -2.22, 5.24 0" stroke="none" stroke-width="0" fill="#ffd8a8"></path><path d="M5.24 0 C8.31 -1.4, 11.79 0.29, 22.71 0 M5.24 0 C8.48 0.06, 12.31 0.2, 22.71 0 M22.71 0 C25.77 1.5, 29.62 3.09, 27.95 5.24 M22.71 0 C26.93 -1.55, 29.48 3.52, 27.95 5.24 M27.95 5.24 C27.75 7.7, 27.08 12.29, 27.95 15.71 M27.95 5.24 C27.68 7.83, 28.11 11.14, 27.95 15.71 M27.95 15.71 C28.67 20.44, 28.18 19.67, 22.71 20.95 M27.95 15.71 C26.8 17.81, 28.44 21.99, 22.71 20.95 M22.71 20.95 C17.91 20.34, 8.42 21.8, 5.24 20.95 M22.71 20.95 C16.28 21.7, 8.49 21.35, 5.24 20.95 M5.24 20.95 C2.91 21.64, 1.52 21.19, 0 15.71 M5.24 20.95 C3.37 20.59, 1.9 17.11, 0 15.71 M0 15.71 C-0.46 11.25, -0.83 7.11, 0 5.24 M0 15.71 C0.35 13.45, -0.28 10.64, 0 5.24 M0 5.24 C-0.68 1.92, 2.68 -0.88, 5.24 0 M0 5.24 C0.56 1.94, 2.78 0.22, 5.24 0" stroke="#1e1e1e" stroke-width="2" fill="none"></path></g><g stroke-linecap="round" transform="translate(28.105044809020455 46.22262049354049) rotate(47.524435689906944 25.4296875 23.859375)"><path d="M33.31 2.29 C38.23 3.57, 44.24 7.95, 47.01 12.18 C49.79 16.4, 50.99 22.75, 49.97 27.66 C48.94 32.57, 45.1 38.39, 40.86 41.63 C36.62 44.86, 29.99 46.9, 24.54 47.06 C19.08 47.23, 12.13 45.91, 8.12 42.61 C4.11 39.31, 1.38 32.43, 0.46 27.24 C-0.45 22.06, -0.13 15.73, 2.61 11.51 C5.35 7.28, 10.53 2.88, 16.92 1.87 C23.3 0.87, 35.98 3.87, 40.91 5.5 C45.84 7.13, 46.66 11.41, 46.49 11.68 M37.06 3.58 C41.51 5.81, 46.42 10.02, 48.33 14.8 C50.23 19.57, 49.79 27.53, 48.5 32.24 C47.21 36.95, 44.87 40.41, 40.57 43.06 C36.27 45.71, 28.44 48.48, 22.72 48.15 C17 47.83, 9.94 44.88, 6.23 41.08 C2.52 37.28, 0.56 30.55, 0.47 25.34 C0.37 20.12, 2.21 13.87, 5.67 9.79 C9.14 5.72, 16.02 2.14, 21.27 0.89 C26.51 -0.35, 34.42 1.98, 37.15 2.34 C39.89 2.71, 37.9 2.86, 37.68 3.08" stroke="none" stroke-width="0" fill="#ffd8a8"></path><path d="M27.45 -0.7 C32.8 -1, 39.01 2.03, 42.95 5.59 C46.88 9.15, 50.27 15.33, 51.04 20.67 C51.81 26.01, 50.45 33.25, 47.54 37.64 C44.63 42.02, 39.04 45.49, 33.6 46.97 C28.15 48.45, 19.88 48.5, 14.88 46.51 C9.88 44.53, 5.95 39.7, 3.57 35.07 C1.19 30.44, -0.45 23.93, 0.6 18.73 C1.66 13.53, 5.37 6.95, 9.88 3.87 C14.4 0.79, 24.32 0.69, 27.69 0.26 C31.07 -0.16, 29.9 1.05, 30.14 1.33 M15.45 3.07 C20.22 0.71, 28.7 -1.15, 33.73 -0.08 C38.77 0.98, 42.58 4.97, 45.65 9.46 C48.73 13.95, 52.45 21.74, 52.2 26.86 C51.94 31.98, 48.47 36.5, 44.14 40.18 C39.82 43.86, 31.89 48.66, 26.24 48.93 C20.59 49.2, 14.34 44.76, 10.24 41.82 C6.14 38.87, 2.9 35.73, 1.66 31.26 C0.41 26.79, 0.44 19.67, 2.79 14.99 C5.14 10.3, 13.81 5.15, 15.77 3.15 C17.72 1.15, 14.33 2.7, 14.51 2.98" stroke="#1e1e1e" stroke-width="2" fill="none"></path></g></svg>