<svg version="1.1" xmlns="http://www.w3.org/2000/svg" viewBox="0 0 105.26171875 140.84223780150205" width="105.26171875" height="140.84223780150205">
  <!-- svg-source:excalidraw -->
  
  <defs>
    <style class="style-fonts">
      @font-face {
        font-family: "Virgil";
        src: url("https://excalidraw.com/Virgil.woff2");
      }
      @font-face {
        font-family: "Cascadia";
        src: url("https://excalidraw.com/Cascadia.woff2");
      }
      @font-face {
        font-family: "Assistant";
        src: url("https://excalidraw.com/Assistant-Regular.woff2");
      }
    </style>
    
  </defs>
  <g stroke-linecap="round" transform="translate(34.05486505681802 109.06643921733757) rotate(22.461246866865288 19.283203125 7.48828125)"><path d="M3.74 0 C17.47 1.53, 25.61 1.84, 34.82 0 C34.96 2.13, 37.29 1.68, 38.57 3.74 C37.97 4.85, 37.89 6.64, 38.57 11.23 C39.96 13.97, 35.59 12.77, 34.82 14.98 C25.42 15.8, 18.53 16.33, 3.74 14.98 C1.5 14.99, 2.5 15.67, 0 11.23 C-0.38 9.76, -0.75 8.99, 0 3.74 C2.59 -0.37, 2.34 1.11, 3.74 0" stroke="none" stroke-width="0" fill="#868e96"></path><path d="M3.74 0 C14.38 -1.06, 24.8 0.85, 34.82 0 M3.74 0 C10.66 0.23, 16.63 0.31, 34.82 0 M34.82 0 C36.41 0.88, 38.4 1.76, 38.57 3.74 M34.82 0 C37.05 -0.66, 38.37 1.08, 38.57 3.74 M38.57 3.74 C38.3 5.91, 38.24 8.37, 38.57 11.23 M38.57 3.74 C38.41 5.26, 38.37 6.82, 38.57 11.23 M38.57 11.23 C38.67 12.95, 37.95 15.73, 34.82 14.98 M38.57 11.23 C37.73 13.98, 36.42 15.41, 34.82 14.98 M34.82 14.98 C26.85 15.42, 16.86 15.77, 3.74 14.98 M34.82 14.98 C23.19 14.88, 10.9 14.56, 3.74 14.98 M3.74 14.98 C1.34 14.88, 0.41 14.64, 0 11.23 M3.74 14.98 C0.55 14, 0.26 13.34, 0 11.23 M0 11.23 C-0.26 8.53, -0.25 6.56, 0 3.74 M0 11.23 C-0.17 8.8, -0.07 5.88, 0 3.74 M0 3.74 C0.57 2.21, 1.45 0.95, 3.74 0 M0 3.74 C0.66 2.02, 0.78 0.31, 3.74 0" stroke="#1e1e1e" stroke-width="2" fill="none"></path></g><g stroke-linecap="round" transform="translate(33.868992660984986 16.919422171883525) rotate(22.923355211056883 19.283203125 7.48828125)"><path d="M3.74 0 C15.04 1.86, 24.76 1.85, 34.82 0 C36.05 0.43, 37.3 0.12, 38.57 3.74 C37.87 4.5, 39.03 7.08, 38.57 11.23 C36.84 11.52, 36.43 15.21, 34.82 14.98 C24.27 16.24, 13.52 15.08, 3.74 14.98 C3.75 16.92, -2.57 13.5, 0 11.23 C-0.72 9.32, 1.01 5.26, 0 3.74 C1.09 2.36, 0.49 1.93, 3.74 0" stroke="none" stroke-width="0" fill="#868e96"></path><path d="M3.74 0 C15.54 1.09, 25.26 0.52, 34.82 0 M3.74 0 C13.51 0.27, 23.7 0.36, 34.82 0 M34.82 0 C37.15 0.51, 38.34 0.68, 38.57 3.74 M34.82 0 C37.12 -0.17, 38.43 0.62, 38.57 3.74 M38.57 3.74 C38.23 6.47, 38.21 8.21, 38.57 11.23 M38.57 3.74 C38.38 6.55, 38.56 9.34, 38.57 11.23 M38.57 11.23 C39.2 14.48, 36.59 15.2, 34.82 14.98 M38.57 11.23 C37.67 14.16, 37.07 15.84, 34.82 14.98 M34.82 14.98 C22.23 15.69, 11.76 15.35, 3.74 14.98 M34.82 14.98 C25.11 14.53, 16.42 14.9, 3.74 14.98 M3.74 14.98 C1.66 15.89, -0.6 12.88, 0 11.23 M3.74 14.98 C1.51 14.59, 0.41 14.44, 0 11.23 M0 11.23 C-0.2 8.61, 0.19 5.49, 0 3.74 M0 11.23 C-0.02 9.16, 0.14 7.64, 0 3.74 M0 3.74 C0.2 2.2, 1.82 0.67, 3.74 0 M0 3.74 C-0.47 1.56, 1.92 0.4, 3.74 0" stroke="#1e1e1e" stroke-width="2" fill="none"></path></g><g stroke-linecap="round" transform="translate(10 32.545724255215646) rotate(0 42.630859375 38.322265625)"><path d="M19.16 0 C33.29 2.26, 52.19 -0.1, 66.1 0 C77.12 -1.57, 82.25 4.34, 85.26 19.16 C86.74 27.96, 82.41 33.02, 85.26 57.48 C84.03 70.58, 80.56 75.06, 66.1 76.64 C51.23 77.04, 39.11 79.72, 19.16 76.64 C2.83 76.33, 2.09 68.8, 0 57.48 C4.12 43.62, 2.05 35.78, 0 19.16 C-1.04 9.06, 7.45 1.1, 19.16 0" stroke="none" stroke-width="0" fill="#a18072"></path><path d="M19.16 0 C26.98 0.31, 38.78 0.57, 66.1 0 M19.16 0 C34.86 0.55, 52.22 0.18, 66.1 0 M66.1 0 C78.41 -1.14, 84.92 6.1, 85.26 19.16 M66.1 0 C78.6 -1.26, 85.76 4.89, 85.26 19.16 M85.26 19.16 C83.15 28.86, 86.62 41, 85.26 57.48 M85.26 19.16 C85.03 28.72, 85.56 40.6, 85.26 57.48 M85.26 57.48 C83.81 70.7, 77.32 77.4, 66.1 76.64 M85.26 57.48 C84.76 71.98, 80.79 78.19, 66.1 76.64 M66.1 76.64 C52.09 77.6, 34.93 77.31, 19.16 76.64 M66.1 76.64 C52.99 76.16, 40.12 77.17, 19.16 76.64 M19.16 76.64 C5.18 74.94, 0.46 69.58, 0 57.48 M19.16 76.64 C7.22 78.08, 2.27 68.79, 0 57.48 M0 57.48 C1.14 49.11, -0.73 36.77, 0 19.16 M0 57.48 C0.67 43.67, 0.3 28.88, 0 19.16 M0 19.16 C1.14 7.73, 5.57 0.55, 19.16 0 M0 19.16 C1.34 7.19, 8.14 2.29, 19.16 0" stroke="#1e1e1e" stroke-width="2" fill="none"></path></g><g stroke-linecap="round" transform="translate(40.63070709740077 21.99483342197982) rotate(269.315648468081 13.974609375 10.47265625)"><path d="M5.24 0 C11.21 -0.13, 19.6 2.21, 22.71 0 C22.65 -0.31, 30.04 0.29, 27.95 5.24 C29.68 7.24, 28.59 12.4, 27.95 15.71 C26.91 21.87, 27.26 22.04, 22.71 20.95 C17.69 21.15, 10.52 22.75, 5.24 20.95 C1.63 20.54, -2.77 21.63, 0 15.71 C-1.31 12.25, -1.1 7.43, 0 5.24 C-2.08 4.56, 5.2 -1.46, 5.24 0" stroke="none" stroke-width="0" fill="#ffd8a8"></path><path d="M5.24 0 C8.94 -1.79, 17.26 -1.3, 22.71 0 M5.24 0 C10.04 -0.62, 15.22 0.72, 22.71 0 M22.71 0 C24.75 0.44, 26.39 2.5, 27.95 5.24 M22.71 0 C25.7 1.72, 29.87 3.29, 27.95 5.24 M27.95 5.24 C28.69 9.05, 27.84 12.36, 27.95 15.71 M27.95 5.24 C27.89 8.13, 28.06 11.6, 27.95 15.71 M27.95 15.71 C26.74 17.49, 26.66 20.26, 22.71 20.95 M27.95 15.71 C28.78 20.63, 28.47 19.48, 22.71 20.95 M22.71 20.95 C19.14 22.17, 13.14 19.76, 5.24 20.95 M22.71 20.95 C16.47 21.62, 9.41 21.6, 5.24 20.95 M5.24 20.95 C2.89 22.29, -0.82 19.75, 0 15.71 M5.24 20.95 C3.08 21.75, 1.75 21.49, 0 15.71 M0 15.71 C-0.94 12.69, -0.5 8.12, 0 5.24 M0 15.71 C-0.25 12.66, -0.3 9.98, 0 5.24 M0 5.24 C1.07 1.93, 0.41 -1.7, 5.24 0 M0 5.24 C-0.79 1.95, 2.82 -1.01, 5.24 0" stroke="#1e1e1e" stroke-width="2" fill="none"></path></g><g stroke-linecap="round" transform="translate(28.981305803573377 46.95692110629625) rotate(269.315648468081 25.4296875 23.859375)"><path d="M33.72 1.71 C38.68 2.82, 43.84 7.28, 46.52 11.57 C49.2 15.86, 50.47 22.48, 49.78 27.45 C49.09 32.41, 46.29 38.08, 42.39 41.38 C38.5 44.68, 31.92 47.07, 26.43 47.24 C20.93 47.42, 13.83 45.52, 9.41 42.43 C4.99 39.34, 1.16 33.5, -0.11 28.71 C-1.37 23.92, -0.78 18.26, 1.81 13.69 C4.41 9.12, 9.88 3.26, 15.45 1.29 C21.02 -0.69, 31.29 1.28, 35.22 1.85 C39.15 2.41, 39.13 4.22, 39.02 4.68 M26.52 1.46 C31.78 1.1, 39.71 1.42, 43.71 4.77 C47.71 8.13, 50.08 16.27, 50.51 21.59 C50.94 26.92, 49.38 32.34, 46.28 36.71 C43.19 41.08, 36.77 46.42, 31.92 47.8 C27.08 49.17, 21.95 47.02, 17.21 44.98 C12.48 42.93, 6.35 39.73, 3.51 35.54 C0.67 31.35, -0.98 24.85, 0.16 19.83 C1.31 14.81, 5.91 8.62, 10.37 5.4 C14.83 2.18, 24.01 1.25, 26.92 0.49 C29.83 -0.27, 27.91 0.57, 27.82 0.83" stroke="none" stroke-width="0" fill="#ffd8a8"></path><path d="M16.85 1.38 C21.56 -0.23, 28.56 0.53, 33.83 2.24 C39.1 3.95, 45.66 7.38, 48.46 11.62 C51.25 15.87, 51.72 22.6, 50.6 27.7 C49.48 32.8, 45.91 38.75, 41.76 42.22 C37.6 45.7, 31.06 48.56, 25.66 48.55 C20.26 48.53, 13.7 45.53, 9.36 42.14 C5.02 38.74, 0.45 33.24, -0.37 28.19 C-1.19 23.14, 0.95 16.43, 4.44 11.84 C7.93 7.24, 17.31 2.66, 20.54 0.61 C23.78 -1.44, 23.92 -0.83, 23.87 -0.46 M23.31 -1.25 C28.42 -2.1, 36.59 0.89, 41.16 4.36 C45.74 7.82, 49.38 14.62, 50.77 19.53 C52.17 24.44, 52.23 29.59, 49.52 33.83 C46.81 38.07, 39.54 42.71, 34.51 44.96 C29.48 47.21, 24.27 48.81, 19.34 47.33 C14.42 45.84, 8.33 40.25, 4.95 36.05 C1.57 31.85, -1.43 27.32, -0.96 22.13 C-0.49 16.94, 3.43 8.33, 7.77 4.89 C12.1 1.44, 22.27 1.97, 25.06 1.48 C27.86 0.98, 24.51 1.6, 24.53 1.93" stroke="#1e1e1e" stroke-width="2" fill="none"></path></g></svg>