<svg version="1.1" xmlns="http://www.w3.org/2000/svg" viewBox="0 0 105.26171875 140.84223780150205" width="105.26171875" height="140.84223780150205">
  <!-- svg-source:excalidraw -->
  
  <defs>
    <style class="style-fonts">
      @font-face {
        font-family: "Virgil";
        src: url("https://excalidraw.com/Virgil.woff2");
      }
      @font-face {
        font-family: "Cascadia";
        src: url("https://excalidraw.com/Cascadia.woff2");
      }
      @font-face {
        font-family: "Assistant";
        src: url("https://excalidraw.com/Assistant-Regular.woff2");
      }
    </style>
    
  </defs>
  <g stroke-linecap="round" transform="translate(34.05486505681802 109.06643921733757) rotate(22.461246866865288 19.283203125 7.48828125)"><path d="M3.74 0 C15.39 2.42, 22.15 -1.44, 34.82 0 C35.75 2.52, 39.75 2.82, 38.57 3.74 C38.23 4.69, 39.04 8.46, 38.57 11.23 C39.08 16.19, 38.81 16.73, 34.82 14.98 C27.68 17.19, 21.31 17.05, 3.74 14.98 C0.85 17.12, -2.36 15.86, 0 11.23 C-0.44 8.54, -0.57 6.7, 0 3.74 C-1.7 -1.06, 2.64 0.25, 3.74 0" stroke="none" stroke-width="0" fill="#868e96"></path><path d="M3.74 0 C14.2 -0.72, 25.48 0.53, 34.82 0 M3.74 0 C11.43 0.34, 19.08 0.04, 34.82 0 M34.82 0 C38.15 -0.93, 38.83 2.01, 38.57 3.74 M34.82 0 C38.11 0.8, 38.71 1.58, 38.57 3.74 M38.57 3.74 C38.38 6.17, 38.72 7.78, 38.57 11.23 M38.57 3.74 C38.67 6.5, 38.7 9.25, 38.57 11.23 M38.57 11.23 C37.69 14.43, 36.41 15.85, 34.82 14.98 M38.57 11.23 C38.37 14.32, 37.05 14.32, 34.82 14.98 M34.82 14.98 C25.48 15.17, 16.58 14.98, 3.74 14.98 M34.82 14.98 C27.58 15.25, 20.95 14.69, 3.74 14.98 M3.74 14.98 C0.38 14.61, 0.1 12.95, 0 11.23 M3.74 14.98 C1.97 15.84, -0.84 13.98, 0 11.23 M0 11.23 C0.27 9.88, 0.24 8.02, 0 3.74 M0 11.23 C0.04 9.48, 0.01 7.71, 0 3.74 M0 3.74 C-0.97 0.42, 1.34 -0.1, 3.74 0 M0 3.74 C0.48 2.3, 0.55 -0.98, 3.74 0" stroke="#1e1e1e" stroke-width="2" fill="none"></path></g><g stroke-linecap="round" transform="translate(33.868992660985896 16.919422171883525) rotate(22.923355211056883 19.283203125 7.48828125)"><path d="M3.74 0 C12.53 -1.7, 23.06 2.13, 34.82 0 C38.5 1.58, 37.32 -0.76, 38.57 3.74 C39.09 7.57, 38.73 10.44, 38.57 11.23 C40.05 15.48, 36.26 15.69, 34.82 14.98 C26.28 17.12, 12.16 17.43, 3.74 14.98 C-1.11 17.11, -1.27 14.16, 0 11.23 C-0.51 8.58, -0.59 6.6, 0 3.74 C1.39 1.49, -0.48 -2.21, 3.74 0" stroke="none" stroke-width="0" fill="#868e96"></path><path d="M3.74 0 C15.46 0.72, 25.52 -0.66, 34.82 0 M3.74 0 C13.93 -0.02, 25.32 -0.59, 34.82 0 M34.82 0 C37.58 0.76, 39.25 1.94, 38.57 3.74 M34.82 0 C37.46 0.33, 38.5 1.28, 38.57 3.74 M38.57 3.74 C38.7 5.84, 38.78 9.02, 38.57 11.23 M38.57 3.74 C38.67 5.45, 38.42 7.09, 38.57 11.23 M38.57 11.23 C37.66 14.61, 37.15 15.49, 34.82 14.98 M38.57 11.23 C38.3 13.07, 37.12 14.81, 34.82 14.98 M34.82 14.98 C25.22 15.03, 16.1 15.85, 3.74 14.98 M34.82 14.98 C27.97 14.96, 21.33 14.92, 3.74 14.98 M3.74 14.98 C1.35 14.2, 0.63 14.48, 0 11.23 M3.74 14.98 C0.41 15.23, -0.9 14.16, 0 11.23 M0 11.23 C0.22 9.27, -0.28 7.32, 0 3.74 M0 11.23 C0.02 8.37, -0.19 5.43, 0 3.74 M0 3.74 C0.09 1.15, 1.66 0.91, 3.74 0 M0 3.74 C-0.69 0.27, 1.51 -0.39, 3.74 0" stroke="#1e1e1e" stroke-width="2" fill="none"></path></g><g stroke-linecap="round" transform="translate(10 32.545724255215646) rotate(0 42.630859375 38.322265625)"><path d="M19.16 0 C35.7 3.92, 58.23 2.6, 66.1 0 C77.15 -2.78, 88.34 5.42, 85.26 19.16 C86.37 30.36, 87.71 37.16, 85.26 57.48 C83.79 71.24, 80.97 77.9, 66.1 76.64 C47.9 80.21, 27.52 80.19, 19.16 76.64 C4.63 77.24, -1.75 68.69, 0 57.48 C-1.96 46, 2.32 41.25, 0 19.16 C-2.4 3.33, 5.15 0.32, 19.16 0" stroke="none" stroke-width="0" fill="#a18072"></path><path d="M19.16 0 C29.34 -1.81, 42.21 -1.02, 66.1 0 M19.16 0 C37.83 -1.03, 55.1 0.66, 66.1 0 M66.1 0 C80.24 1.39, 85.51 6.96, 85.26 19.16 M66.1 0 C78.73 0.07, 85.93 5.25, 85.26 19.16 M85.26 19.16 C86.63 34.84, 83.71 47.5, 85.26 57.48 M85.26 19.16 C84.57 32.45, 84.54 45.21, 85.26 57.48 M85.26 57.48 C84.92 71.28, 78.41 75.51, 66.1 76.64 M85.26 57.48 C84.87 69.92, 78.6 75.38, 66.1 76.64 M66.1 76.64 C49.37 78.34, 34.12 74.77, 19.16 76.64 M66.1 76.64 C47.23 76.13, 30.19 75.72, 19.16 76.64 M19.16 76.64 C7.65 78.15, -1.46 70.7, 0 57.48 M19.16 76.64 C4.6 77.51, -0.5 71.98, 0 57.48 M0 57.48 C-1.61 44.12, 1.29 28.74, 0 19.16 M0 57.48 C-1.04 45.28, 0.02 34.64, 0 19.16 M0 19.16 C0.83 8.21, 5.18 -1.71, 19.16 0 M0 19.16 C0.52 5.6, 7.22 1.43, 19.16 0" stroke="#1e1e1e" stroke-width="2" fill="none"></path></g><g stroke-linecap="round" transform="translate(38.649680311687916 96.89204723666899) rotate(90.684351531919 13.974609375 10.47265625)"><path d="M5.24 0 C13.55 1.02, 18.14 0.95, 22.71 0 C27.33 3.17, 28.75 1.66, 27.95 5.24 C27.83 6.68, 29.31 11.6, 27.95 15.71 C27.34 20.51, 23.64 20.95, 22.71 20.95 C20.98 23.78, 13.04 22.18, 5.24 20.95 C3.1 23.2, -2.22 22.79, 0 15.71 C0.07 14.64, -0.58 10.85, 0 5.24 C-1.72 1.85, -1.75 2.89, 5.24 0" stroke="none" stroke-width="0" fill="#ffd8a8"></path><path d="M5.24 0 C10.42 1.5, 14.17 0.59, 22.71 0 M5.24 0 C9.58 -0.16, 13.52 -0.3, 22.71 0 M22.71 0 C24.26 -1.66, 28.13 1.55, 27.95 5.24 M22.71 0 C27.16 2.1, 26.56 -0.22, 27.95 5.24 M27.95 5.24 C28.57 9.65, 27.25 11.47, 27.95 15.71 M27.95 5.24 C28.37 7.5, 27.65 10.71, 27.95 15.71 M27.95 15.71 C27.41 17.26, 27.34 22.88, 22.71 20.95 M27.95 15.71 C28.41 21.38, 27.52 22.49, 22.71 20.95 M22.71 20.95 C18.79 22.38, 15.4 22.28, 5.24 20.95 M22.71 20.95 C18.45 20.36, 12.9 20.36, 5.24 20.95 M5.24 20.95 C0.88 19.27, -1.14 17.61, 0 15.71 M5.24 20.95 C0.24 18.9, 1.23 19.42, 0 15.71 M0 15.71 C0.18 13.75, -0.37 11.08, 0 5.24 M0 15.71 C-0.05 12.98, 0.34 8.73, 0 5.24 M0 5.24 C-0.17 2.91, 0.94 0.07, 5.24 0 M0 5.24 C-1.8 3.57, 4.03 -1.43, 5.24 0" stroke="#1e1e1e" stroke-width="2" fill="none"></path></g><g stroke-linecap="round" transform="translate(27.00027901785961 45.15652205235074) rotate(90.684351531919 25.4296875 23.859375)"><path d="M17.35 0.6 C22.16 -1.4, 28.72 -0.76, 33.8 1.28 C38.88 3.32, 45.13 8.27, 47.81 12.85 C50.5 17.43, 50.99 23.75, 49.93 28.76 C48.87 33.77, 45.59 39.76, 41.43 42.92 C37.27 46.08, 30.27 47.78, 24.97 47.72 C19.67 47.65, 13.9 45.93, 9.62 42.54 C5.35 39.16, 0.2 32.65, -0.69 27.4 C-1.58 22.16, 1.07 15.62, 4.27 11.08 C7.47 6.53, 15.79 1.63, 18.51 0.12 C21.24 -1.38, 20.62 1.49, 20.63 2.07 M31.28 1 C36.54 1.63, 42.47 5.71, 45.95 9.73 C49.43 13.75, 52.45 20.17, 52.16 25.14 C51.87 30.11, 47.98 35.83, 44.21 39.55 C40.45 43.27, 35 46.9, 29.58 47.45 C24.16 48.01, 16.24 45.52, 11.68 42.88 C7.12 40.23, 3.89 36.17, 2.22 31.59 C0.55 27, -0.07 20.17, 1.64 15.36 C3.36 10.56, 7.81 5.39, 12.53 2.74 C17.24 0.09, 27.05 -0.44, 29.94 -0.53 C32.83 -0.62, 29.56 1.72, 29.86 2.19" stroke="none" stroke-width="0" fill="#ffd8a8"></path><path d="M30.17 0.62 C35.44 0.99, 41.17 4.74, 44.59 8.38 C48 12.02, 50.7 17.37, 50.67 22.47 C50.63 27.56, 47.78 34.75, 44.36 38.96 C40.95 43.16, 35.25 46.83, 30.19 47.69 C25.13 48.55, 18.91 46.64, 14.02 44.13 C9.12 41.62, 3 37.25, 0.84 32.64 C-1.32 28.03, -0.98 21.16, 1.04 16.46 C3.06 11.75, 7.19 6.84, 12.95 4.4 C18.71 1.95, 30.89 1.29, 35.62 1.77 C40.34 2.25, 41.3 6.74, 41.3 7.29 M19.01 -0.77 C24.29 -2.19, 32.55 1.17, 37.55 3.92 C42.55 6.66, 46.82 11.08, 49.01 15.69 C51.2 20.3, 52.38 26.83, 50.7 31.57 C49.01 36.3, 43.46 41.36, 38.93 44.12 C34.4 46.87, 28.63 48.48, 23.51 48.1 C18.39 47.72, 11.92 45.66, 8.19 41.84 C4.45 38.02, 1.45 30.75, 1.11 25.17 C0.78 19.59, 2.92 12.58, 6.17 8.37 C9.43 4.17, 18.37 1.27, 20.64 -0.05 C22.9 -1.38, 19.99 0.11, 19.77 0.41" stroke="#1e1e1e" stroke-width="2" fill="none"></path></g></svg>