<svg version="1.1" xmlns="http://www.w3.org/2000/svg" viewBox="0 0 109.03033285019364 140.84223780150205" width="109.03033285019364" height="140.84223780150205">
  <!-- svg-source:excalidraw -->
  
  <defs>
    <style class="style-fonts">
      @font-face {
        font-family: "Virgil";
        src: url("https://excalidraw.com/Virgil.woff2");
      }
      @font-face {
        font-family: "Cascadia";
        src: url("https://excalidraw.com/Cascadia.woff2");
      }
      @font-face {
        font-family: "Assistant";
        src: url("https://excalidraw.com/Assistant-Regular.woff2");
      }
    </style>
    
  </defs>
  <g stroke-linecap="round" transform="translate(34.40642755681802 109.06643921733757) rotate(22.461246866865288 19.283203125 7.48828125)"><path d="M3.74 0 C14.36 0.1, 26.25 -1.46, 34.82 0 C35.14 -1.48, 36.5 -0.45, 38.57 3.74 C37.97 4.5, 38.29 6.99, 38.57 11.23 C39.78 12.58, 37.95 15.2, 34.82 14.98 C26.6 16.92, 10.81 14.75, 3.74 14.98 C2.76 13.93, 0.09 11.69, 0 11.23 C0.31 8.81, -0.38 6.28, 0 3.74 C0.77 2.04, 1.95 0.82, 3.74 0" stroke="none" stroke-width="0" fill="#868e96"></path><path d="M3.74 0 C16.28 0.45, 28.78 -0.94, 34.82 0 M3.74 0 C15.16 0.12, 26.64 -0.42, 34.82 0 M34.82 0 C37.15 -0.14, 38.45 0.7, 38.57 3.74 M34.82 0 C37.57 -0.75, 38.59 0.3, 38.57 3.74 M38.57 3.74 C38.85 6.38, 38.42 9.18, 38.57 11.23 M38.57 3.74 C38.69 5.85, 38.43 7.72, 38.57 11.23 M38.57 11.23 C37.79 14.11, 37.1 15.72, 34.82 14.98 M38.57 11.23 C39.53 14.5, 37.68 14.2, 34.82 14.98 M34.82 14.98 C23.4 15.2, 11.85 14.06, 3.74 14.98 M34.82 14.98 C28.29 15.42, 21.04 14.54, 3.74 14.98 M3.74 14.98 C1.48 14.64, 0.36 14.35, 0 11.23 M3.74 14.98 C2.38 14.24, -0.57 13.04, 0 11.23 M0 11.23 C-0.2 7.97, 0.3 5.19, 0 3.74 M0 11.23 C0.02 9.89, 0.09 8.31, 0 3.74 M0 3.74 C-0.41 1.52, 1.83 0.35, 3.74 0 M0 3.74 C0.87 2.39, 2.06 -0.18, 3.74 0" stroke="#1e1e1e" stroke-width="2" fill="none"></path></g><g stroke-linecap="round" transform="translate(34.220555160984986 16.919422171883525) rotate(22.923355211056883 19.283203125 7.48828125)"><path d="M3.74 0 C14.35 -1.2, 25.31 -1.55, 34.82 0 C35.25 -1.7, 36.26 2.64, 38.57 3.74 C38.17 6.15, 38.96 7.95, 38.57 11.23 C39.2 13.95, 38.49 15.23, 34.82 14.98 C22.92 15.05, 17.66 14.23, 3.74 14.98 C1.33 12.94, 2.06 16.32, 0 11.23 C-0.32 10.18, 0.25 7.97, 0 3.74 C0.71 2.06, 3.54 0.58, 3.74 0" stroke="none" stroke-width="0" fill="#868e96"></path><path d="M3.74 0 C14.77 -0.96, 25.42 -0.99, 34.82 0 M3.74 0 C15.68 -0.36, 27.76 -0.15, 34.82 0 M34.82 0 C37.2 -0.55, 38.78 0.6, 38.57 3.74 M34.82 0 C37.34 -0.94, 39.54 0.21, 38.57 3.74 M38.57 3.74 C38.48 4.96, 38.46 6.87, 38.57 11.23 M38.57 3.74 C38.45 5.45, 38.44 7.14, 38.57 11.23 M38.57 11.23 C38.35 14.48, 38.15 15.65, 34.82 14.98 M38.57 11.23 C38.93 12.95, 38.08 15.86, 34.82 14.98 M34.82 14.98 C24.3 14.03, 13.33 15.09, 3.74 14.98 M34.82 14.98 C25.5 14.69, 16.89 14.95, 3.74 14.98 M3.74 14.98 C1.61 15.6, 0.99 13.09, 0 11.23 M3.74 14.98 C0.67 14.28, 1.12 14.25, 0 11.23 M0 11.23 C0.34 8.43, -0.34 6.04, 0 3.74 M0 11.23 C0.1 8.39, -0.08 5.34, 0 3.74 M0 3.74 C0.58 1.6, 2.01 1, 3.74 0 M0 3.74 C0.81 1.07, 2.2 -1.05, 3.74 0" stroke="#1e1e1e" stroke-width="2" fill="none"></path></g><g stroke-linecap="round" transform="translate(10 32.194161755215646) rotate(0 42.630859375 38.322265625)"><path d="M19.16 0 C31 -1.68, 46.02 -1.99, 66.1 0 C75.68 1.93, 85.6 3.99, 85.26 19.16 C86.71 25.82, 85.9 35.96, 85.26 57.48 C86.88 70.61, 78.89 80.11, 66.1 76.64 C50.6 75.12, 31.04 73.75, 19.16 76.64 C9.24 80.23, -2.24 71.77, 0 57.48 C1.26 45.44, 1.18 32.34, 0 19.16 C3.17 7.19, 6.3 -0.87, 19.16 0" stroke="none" stroke-width="0" fill="#a18072"></path><path d="M19.16 0 C37.01 -1.41, 53.81 0.07, 66.1 0 M19.16 0 C35.48 0.12, 52.02 -0.28, 66.1 0 M66.1 0 C79.3 -1.3, 85.3 4.74, 85.26 19.16 M66.1 0 C80.82 -2.07, 83.1 8.31, 85.26 19.16 M85.26 19.16 C84.4 28.34, 83.59 38.37, 85.26 57.48 M85.26 19.16 C84.2 33.92, 84.76 48.66, 85.26 57.48 M85.26 57.48 C86.93 71.6, 79.5 75.3, 66.1 76.64 M85.26 57.48 C86.79 72.03, 79.62 76.57, 66.1 76.64 M66.1 76.64 C49.54 76.36, 36.1 77.02, 19.16 76.64 M66.1 76.64 C47.97 75.9, 29.74 76.87, 19.16 76.64 M19.16 76.64 C8.36 75.37, -1 69.05, 0 57.48 M19.16 76.64 C8.62 77.69, 1.39 69.16, 0 57.48 M0 57.48 C-2.26 50.08, 1.6 40.81, 0 19.16 M0 57.48 C-0.63 42.63, 0.36 27.57, 0 19.16 M0 19.16 C1.52 8.38, 7.8 -0.3, 19.16 0 M0 19.16 C1.9 4.3, 8.27 -1.13, 19.16 0" stroke="#1e1e1e" stroke-width="2" fill="none"></path></g><g stroke-linecap="round" transform="translate(67.89474033943225 30.81458684460722) rotate(312.47556431009303 13.974609375 10.47265625)"><path d="M5.24 0 C8.49 0.62, 14.79 1.27, 22.71 0 C26.55 0.01, 31.41 4.44, 27.95 5.24 C27.17 7.41, 26.46 10.94, 27.95 15.71 C31.53 16.96, 27.71 22.49, 22.71 20.95 C18.93 21.89, 14.23 23.81, 5.24 20.95 C2.55 20.86, -0.87 20.95, 0 15.71 C1.29 13.18, -0.3 10.18, 0 5.24 C-2.56 1.75, -0.41 -2.58, 5.24 0" stroke="none" stroke-width="0" fill="#ffd8a8"></path><path d="M5.24 0 C9.13 0, 13.87 1.44, 22.71 0 M5.24 0 C8.33 -0.41, 11.82 -0.47, 22.71 0 M22.71 0 C26.4 -1.56, 29.21 3.25, 27.95 5.24 M22.71 0 C24.53 0.51, 26.16 2.62, 27.95 5.24 M27.95 5.24 C28.73 8.48, 27.32 11.76, 27.95 15.71 M27.95 5.24 C28.07 9.09, 27.47 12.7, 27.95 15.71 M27.95 15.71 C28.13 19.01, 27.03 22.77, 22.71 20.95 M27.95 15.71 C26.56 17.24, 26.73 20.16, 22.71 20.95 M22.71 20.95 C15.73 20.24, 9.91 22.81, 5.24 20.95 M22.71 20.95 C16 21.61, 10.4 20.02, 5.24 20.95 M5.24 20.95 C2.88 22.88, 0.4 21.1, 0 15.71 M5.24 20.95 C3.06 22.49, -0.94 19.83, 0 15.71 M0 15.71 C1.01 12.7, -0.2 9.07, 0 5.24 M0 15.71 C0 13.26, -0.31 10.89, 0 5.24 M0 5.24 C-1.14 0.16, 0.44 -1.78, 5.24 0 M0 5.24 C1.23 1.96, 0.21 -1.95, 5.24 0" stroke="#1e1e1e" stroke-width="2" fill="none"></path></g><g stroke-linecap="round" transform="translate(30.06591304117319 45.26837942211296) rotate(312.47556431009303 25.4296875 23.859375)"><path d="M32.88 1.55 C37.88 2.82, 43.82 7.13, 46.96 11.41 C50.09 15.69, 52.39 22.13, 51.7 27.22 C51.01 32.31, 47.08 38.41, 42.82 41.96 C38.56 45.5, 31.62 48.28, 26.12 48.49 C20.63 48.7, 14.17 46.47, 9.85 43.23 C5.54 39.99, 1.57 34.13, 0.23 29.04 C-1.11 23.95, -0.56 17.3, 1.81 12.69 C4.18 8.07, 8.46 2.79, 14.45 1.34 C20.44 -0.11, 32.89 3.05, 37.73 3.99 C42.57 4.93, 43.69 6.78, 43.48 6.98 M26.93 0.15 C32.11 0.2, 39.35 2.76, 43.3 6.43 C47.26 10.11, 49.87 17.42, 50.65 22.21 C51.43 27.01, 50.94 31.01, 47.98 35.22 C45.03 39.43, 38.41 45.71, 32.92 47.49 C27.43 49.28, 20.27 47.85, 15.07 45.94 C9.86 44.03, 3.85 40.74, 1.69 36.04 C-0.48 31.34, 0.62 22.82, 2.1 17.74 C3.59 12.65, 6.6 8.32, 10.6 5.56 C14.61 2.79, 23.4 1.9, 26.13 1.14 C28.86 0.37, 26.86 0.67, 26.99 0.96" stroke="none" stroke-width="0" fill="#ffd8a8"></path><path d="M36.68 1.44 C41.64 3.16, 45.85 7.87, 48.02 12.6 C50.19 17.33, 51.13 24.6, 49.71 29.81 C48.3 35.01, 43.76 40.98, 39.53 43.84 C35.3 46.69, 29.59 47.53, 24.32 46.93 C19.06 46.32, 11.9 43.67, 7.93 40.19 C3.96 36.71, 0.97 30.87, 0.51 26.06 C0.04 21.24, 2.03 15.43, 5.14 11.29 C8.25 7.15, 13.96 2.55, 19.17 1.22 C24.38 -0.11, 33.14 2.85, 36.41 3.32 C39.68 3.78, 38.88 3.73, 38.79 4.01 M23.17 -0.04 C28.64 -0.36, 36.18 2.87, 40.49 5.59 C44.8 8.3, 47.64 11.63, 49.04 16.24 C50.44 20.86, 50.92 28.26, 48.89 33.28 C46.87 38.3, 41.61 44.23, 36.88 46.35 C32.15 48.46, 25.99 47.59, 20.5 45.99 C15.01 44.4, 7.11 40.67, 3.95 36.78 C0.79 32.88, 0.82 27.69, 1.54 22.63 C2.25 17.56, 4.84 9.93, 8.23 6.39 C11.62 2.85, 19.47 2.6, 21.88 1.39 C24.29 0.18, 22.31 -1.29, 22.68 -0.87" stroke="#1e1e1e" stroke-width="2" fill="none"></path></g></svg>