<svg version="1.1" xmlns="http://www.w3.org/2000/svg" viewBox="0 0 115.33858816964403 140.84223780150205" width="115.33858816964403" height="140.84223780150205">
  <!-- svg-source:excalidraw -->
  
  <defs>
    <style class="style-fonts">
      @font-face {
        font-family: "Virgil";
        src: url("https://excalidraw.com/Virgil.woff2");
      }
      @font-face {
        font-family: "Cascadia";
        src: url("https://excalidraw.com/Cascadia.woff2");
      }
      @font-face {
        font-family: "Assistant";
        src: url("https://excalidraw.com/Assistant-Regular.woff2");
      }
    </style>
    
  </defs>
  <g stroke-linecap="round" transform="translate(34.40642755681802 109.06643921733757) rotate(22.461246866865288 19.283203125 7.48828125)"><path d="M3.74 0 C9.65 -1.47, 17.38 1.62, 34.82 0 C37.56 -1.73, 36.36 0.36, 38.57 3.74 C38.85 6.14, 39.05 8.47, 38.57 11.23 C38.58 16.23, 39.26 12.41, 34.82 14.98 C25.85 12.78, 18.77 17.4, 3.74 14.98 C-0.37 16.07, 1.11 12.97, 0 11.23 C0.24 8.74, 0.83 5.84, 0 3.74 C-0.06 0.62, 2.51 -0.09, 3.74 0" stroke="none" stroke-width="0" fill="#868e96"></path><path d="M3.74 0 C11.21 -0.03, 17.43 -0.09, 34.82 0 M3.74 0 C11.24 -0.25, 18.96 -0.3, 34.82 0 M34.82 0 C37.34 -0.82, 39.41 0.35, 38.57 3.74 M34.82 0 C36.24 0.96, 37.81 0.9, 38.57 3.74 M38.57 3.74 C38.26 5.57, 38.83 6.66, 38.57 11.23 M38.57 3.74 C38.5 6.3, 38.69 8.69, 38.57 11.23 M38.57 11.23 C38.88 13.05, 37.98 15.75, 34.82 14.98 M38.57 11.23 C38.94 13.69, 37.52 14.76, 34.82 14.98 M34.82 14.98 C28.42 15.4, 23.12 14.39, 3.74 14.98 M34.82 14.98 C28.33 15.23, 21.97 14.61, 3.74 14.98 M3.74 14.98 C0.75 14.37, 0.97 14.18, 0 11.23 M3.74 14.98 C1.95 14.43, -0.89 14.71, 0 11.23 M0 11.23 C0.4 9.26, 0.39 7.35, 0 3.74 M0 11.23 C0.12 8.55, 0.16 5.92, 0 3.74 M0 3.74 C0.71 1.1, 2.07 -0.91, 3.74 0 M0 3.74 C0.94 0.69, 1.44 -0.56, 3.74 0" stroke="#1e1e1e" stroke-width="2" fill="none"></path></g><g stroke-linecap="round" transform="translate(34.220555160984986 16.919422171883525) rotate(22.923355211056883 19.283203125 7.48828125)"><path d="M3.74 0 C8.99 1.66, 19.1 -1.47, 34.82 0 C35.11 -0.89, 38.8 2.46, 38.57 3.74 C39.03 5.76, 38.59 8.51, 38.57 11.23 C40.51 11.16, 37.09 16.49, 34.82 14.98 C28.82 17.25, 17.07 15.75, 3.74 14.98 C2.36 14.22, 1.93 14.49, 0 11.23 C0.83 8.97, -0.05 6.05, 0 3.74 C1.26 1.16, 0.95 -2, 3.74 0" stroke="none" stroke-width="0" fill="#868e96"></path><path d="M3.74 0 C10.75 -0.2, 16.16 -0.14, 34.82 0 M3.74 0 C12.72 -0.24, 21.5 -0.33, 34.82 0 M34.82 0 C38.16 -0.9, 37.63 2.08, 38.57 3.74 M34.82 0 C36.56 -0.35, 37.57 0.82, 38.57 3.74 M38.57 3.74 C38.82 5.79, 38.62 8.09, 38.57 11.23 M38.57 3.74 C38.71 6.4, 38.62 8.68, 38.57 11.23 M38.57 11.23 C39.23 14.5, 37.64 14.94, 34.82 14.98 M38.57 11.23 C38.77 13.51, 36.2 14.02, 34.82 14.98 M34.82 14.98 C26.14 14.44, 14.78 15.27, 3.74 14.98 M34.82 14.98 C27.05 14.75, 18.04 14.77, 3.74 14.98 M3.74 14.98 C2.22 15.43, 0.61 13.25, 0 11.23 M3.74 14.98 C0.36 15.96, -0.31 12.62, 0 11.23 M0 11.23 C0.32 8.77, 0.22 5.74, 0 3.74 M0 11.23 C0.12 8.97, 0.11 6.3, 0 3.74 M0 3.74 C0.82 0.34, 2.07 -0.49, 3.74 0 M0 3.74 C0.19 0.69, 0.75 -0.96, 3.74 0" stroke="#1e1e1e" stroke-width="2" fill="none"></path></g><g stroke-linecap="round" transform="translate(10 32.194161755215646) rotate(0 42.630859375 38.322265625)"><path d="M19.16 0 C30.51 -2.85, 38.13 -1.68, 66.1 0 C79.2 1.68, 83.68 7.26, 85.26 19.16 C85.58 34.45, 88.26 39.25, 85.26 57.48 C84.95 72.35, 77.42 76.76, 66.1 76.64 C53.45 78.99, 46.83 76.44, 19.16 76.64 C9.06 77.7, 1.1 71.24, 0 57.48 C-0.69 43.92, 1.14 31.96, 0 19.16 C-0.41 3.62, 8.82 1.11, 19.16 0" stroke="none" stroke-width="0" fill="#a18072"></path><path d="M19.16 0 C31.3 -0.23, 45.43 -0.13, 66.1 0 M19.16 0 C30.69 -0.52, 43.02 -0.59, 66.1 0 M66.1 0 C77 1.67, 83.95 5.78, 85.26 19.16 M66.1 0 C76.87 -0.85, 85.49 4.59, 85.26 19.16 M85.26 19.16 C85.99 31.51, 86.31 46.54, 85.26 57.48 M85.26 19.16 C85.9 32.85, 86.25 48.66, 85.26 57.48 M85.26 57.48 C85.91 70.19, 79.22 76.27, 66.1 76.64 M85.26 57.48 C83.03 68.35, 79.08 76.42, 66.1 76.64 M66.1 76.64 C48.37 76.82, 33.37 77.08, 19.16 76.64 M66.1 76.64 C48.6 75.74, 33.06 76.8, 19.16 76.64 M19.16 76.64 C7.6 75.69, -1.55 71.97, 0 57.48 M19.16 76.64 C5.77 74.42, 1.31 72.48, 0 57.48 M0 57.48 C0.98 44.41, 0.18 34.13, 0 19.16 M0 57.48 C0.41 44.5, 0.53 30.91, 0 19.16 M0 19.16 C1.64 5.41, 6.72 -0.97, 19.16 0 M0 19.16 C-1 4.46, 5.08 -1.83, 19.16 0" stroke="#1e1e1e" stroke-width="2" fill="none"></path></g><g stroke-linecap="round" transform="translate(77.38936941964403 58.64210104360882) rotate(0 13.974609375 10.47265625)"><path d="M5.24 0 C8.74 -0.87, 17.87 1.68, 22.71 0 C24.62 0.88, 28.26 3.36, 27.95 5.24 C29.36 6.62, 27.79 12.82, 27.95 15.71 C26.5 19.32, 23.38 23.8, 22.71 20.95 C17.08 20.17, 11.09 22, 5.24 20.95 C2.84 21.92, 1.13 22.37, 0 15.71 C0.92 12.27, -0.21 7.51, 0 5.24 C2.43 2.86, 1.14 1.31, 5.24 0" stroke="none" stroke-width="0" fill="#ffd8a8"></path><path d="M5.24 0 C9.82 -0.18, 13.96 0.41, 22.71 0 M5.24 0 C10.08 -0.64, 12.63 0.87, 22.71 0 M22.71 0 C24.89 -0.6, 26.21 1, 27.95 5.24 M22.71 0 C26.43 -1.79, 29.4 3.47, 27.95 5.24 M27.95 5.24 C28.37 7.39, 28.76 10.87, 27.95 15.71 M27.95 5.24 C28.33 9.48, 28.15 12.91, 27.95 15.71 M27.95 15.71 C28.3 18.82, 24.26 19.28, 22.71 20.95 M27.95 15.71 C28.15 18.98, 27.16 23.04, 22.71 20.95 M22.71 20.95 C17.93 21.62, 15.42 22.71, 5.24 20.95 M22.71 20.95 C19.43 21.24, 14.98 20.42, 5.24 20.95 M5.24 20.95 C0.2 22.66, -0.54 17.26, 0 15.71 M5.24 20.95 C3.05 23.17, 0.46 21.38, 0 15.71 M0 15.71 C0.22 12.58, 0.29 9.02, 0 5.24 M0 15.71 C0.36 11.05, 0.36 7.08, 0 5.24 M0 5.24 C0.33 0.77, 0.88 -1.67, 5.24 0 M0 5.24 C-1.31 -0.08, 0.24 -2.04, 5.24 0" stroke="#1e1e1e" stroke-width="2" fill="none"></path></g><g stroke-linecap="round" transform="translate(27.590541294644026 44.60303854360882) rotate(0 25.4296875 23.859375)"><path d="M33.51 1.53 C38.52 2.5, 44.34 5.95, 47.26 10.21 C50.17 14.46, 51.63 21.78, 50.98 27.05 C50.33 32.33, 47.17 38.31, 43.35 41.87 C39.53 45.42, 33.59 48.03, 28.07 48.37 C22.55 48.72, 14.94 46.92, 10.23 43.92 C5.52 40.91, 1.16 35.41, -0.18 30.34 C-1.53 25.26, -0.34 18.25, 2.14 13.46 C4.62 8.67, 9.63 3.71, 14.72 1.58 C19.8 -0.55, 29.52 0.7, 32.64 0.66 C35.76 0.61, 33.55 0.76, 33.41 1.32 M26.12 0.16 C31.59 0.19, 39.23 2.2, 43.38 5.67 C47.53 9.13, 50.33 15.76, 51.02 20.96 C51.71 26.17, 50.5 32.38, 47.5 36.9 C44.5 41.42, 38.12 46.84, 32.99 48.08 C27.86 49.33, 21.78 46.45, 16.73 44.39 C11.68 42.32, 5.49 39.96, 2.7 35.67 C-0.09 31.38, -1.01 23.59, 0.02 18.66 C1.04 13.72, 4.16 9.33, 8.85 6.07 C13.53 2.8, 25.06 -0.09, 28.13 -0.91 C31.19 -1.73, 27.58 0.41, 27.24 1.15" stroke="none" stroke-width="0" fill="#ffd8a8"></path><path d="M27.34 0.98 C32.47 1.04, 38.82 2.96, 42.87 6.39 C46.92 9.83, 51.17 16.49, 51.64 21.6 C52.1 26.71, 49.08 32.81, 45.66 37.07 C42.25 41.32, 36.51 45.65, 31.14 47.13 C25.77 48.6, 18.14 48.3, 13.44 45.9 C8.74 43.51, 4.96 37.69, 2.92 32.78 C0.89 27.87, -0.23 21.27, 1.23 16.44 C2.68 11.62, 6.7 6.36, 11.65 3.82 C16.59 1.29, 27.4 1.62, 30.9 1.25 C34.4 0.88, 32.97 1.25, 32.65 1.61 M35.26 1.47 C39.85 2.81, 43.92 6.91, 46.45 11.45 C48.97 15.99, 51.22 23.28, 50.43 28.72 C49.63 34.15, 46.14 41.1, 41.67 44.05 C37.2 47, 29.09 46.92, 23.6 46.42 C18.1 45.92, 12.53 44.11, 8.72 41.05 C4.92 37.99, 1.34 33.21, 0.78 28.07 C0.22 22.94, 2.69 14.86, 5.37 10.23 C8.05 5.59, 11.68 1.55, 16.86 0.25 C22.04 -1.05, 33.31 2.23, 36.45 2.44 C39.59 2.64, 36.31 1.01, 35.71 1.48" stroke="#1e1e1e" stroke-width="2" fill="none"></path></g></svg>