<svg version="1.1" xmlns="http://www.w3.org/2000/svg" viewBox="0 0 116.9010881696413 140.84223780150205" width="116.9010881696413" height="140.84223780150205">
  <!-- svg-source:excalidraw -->
  
  <defs>
    <style class="style-fonts">
      @font-face {
        font-family: "Virgil";
        src: url("https://excalidraw.com/Virgil.woff2");
      }
      @font-face {
        font-family: "Cascadia";
        src: url("https://excalidraw.com/Cascadia.woff2");
      }
      @font-face {
        font-family: "Assistant";
        src: url("https://excalidraw.com/Assistant-Regular.woff2");
      }
    </style>
    
  </defs>
  <g stroke-linecap="round" transform="translate(45.694234476459314 109.06643921733757) rotate(22.461246866865288 19.283203125 7.48828125)"><path d="M3.74 0 C8.15 1.59, 20.1 0.62, 34.82 0 C39.78 1.49, 40.32 0.18, 38.57 3.74 C39.36 7.17, 39.31 8.5, 38.57 11.23 C40.71 11.37, 39.45 13.7, 34.82 14.98 C22.81 13.32, 13.09 13.1, 3.74 14.98 C-1.06 16.37, 0.25 12, 0 11.23 C0.49 9.19, 0.27 8.09, 0 3.74 C1.17 1.5, 1.26 2.5, 3.74 0" stroke="none" stroke-width="0" fill="#868e96"></path><path d="M3.74 0 C9.69 0.14, 18.27 0.56, 34.82 0 M3.74 0 C15.2 -0.03, 26.85 -0.29, 34.82 0 M34.82 0 C37.92 0.41, 37.6 1.86, 38.57 3.74 M34.82 0 C38.4 -0.98, 39 1.58, 38.57 3.74 M38.57 3.74 C38.85 6.03, 38.92 8.93, 38.57 11.23 M38.57 3.74 C38.53 6.35, 38.54 8.9, 38.57 11.23 M38.57 11.23 C38.78 13.08, 37.34 14.16, 34.82 14.98 M38.57 11.23 C39.54 12.69, 36.24 15.94, 34.82 14.98 M34.82 14.98 C27.17 14.94, 19.48 15.47, 3.74 14.98 M34.82 14.98 C22.77 15.2, 11.4 15.39, 3.74 14.98 M3.74 14.98 C2.08 15.65, 0.31 13.05, 0 11.23 M3.74 14.98 C2.01 15.86, 0.37 13.69, 0 11.23 M0 11.23 C-0.3 8.89, -0.03 6.63, 0 3.74 M0 11.23 C0.07 8.24, 0.09 5.49, 0 3.74 M0 3.74 C0.99 0.61, 0.75 -0.6, 3.74 0 M0 3.74 C1.12 1.77, 1.95 -0.55, 3.74 0" stroke="#1e1e1e" stroke-width="2" fill="none"></path></g><g stroke-linecap="round" transform="translate(45.508362080626284 16.919422171883525) rotate(22.923355211056883 19.283203125 7.48828125)"><path d="M3.74 0 C14.75 0.29, 23.19 1.26, 34.82 0 C39.07 -1.06, 39.28 2.76, 38.57 3.74 C39.33 6.1, 39.44 7.87, 38.57 11.23 C40.7 12.46, 37.75 13.71, 34.82 14.98 C24.79 13.05, 16.57 16.14, 3.74 14.98 C1.49 13.25, -2.21 12.84, 0 11.23 C0.19 9, 0.39 6.7, 0 3.74 C0.01 3.75, 3.19 -2.57, 3.74 0" stroke="none" stroke-width="0" fill="#868e96"></path><path d="M3.74 0 C16.41 0.64, 28.25 0.08, 34.82 0 M3.74 0 C14.11 -0.25, 24.48 0.2, 34.82 0 M34.82 0 C36.35 0.61, 39.51 0.39, 38.57 3.74 M34.82 0 C37.75 0.33, 39.15 1.87, 38.57 3.74 M38.57 3.74 C38.92 5.27, 38.78 6.83, 38.57 11.23 M38.57 3.74 C38.54 5.46, 38.6 7.26, 38.57 11.23 M38.57 11.23 C38.59 12.91, 38.16 14.08, 34.82 14.98 M38.57 11.23 C37.49 14.69, 36.56 14.63, 34.82 14.98 M34.82 14.98 C27.42 15.62, 22.33 14.26, 3.74 14.98 M34.82 14.98 C24.7 15.41, 15.21 15.37, 3.74 14.98 M3.74 14.98 C1.56 14.3, 0.67 14.5, 0 11.23 M3.74 14.98 C1.62 14.94, 0.2 13.51, 0 11.23 M0 11.23 C0 9.87, 0.37 7.97, 0 3.74 M0 11.23 C0.06 9.74, 0.18 7.9, 0 3.74 M0 3.74 C-0.5 0.65, 2.22 0.46, 3.74 0 M0 3.74 C0.7 0.7, 0.36 0.98, 3.74 0" stroke="#1e1e1e" stroke-width="2" fill="none"></path></g><g stroke-linecap="round" transform="translate(21.639369419641298 32.545724255215646) rotate(0 42.630859375 38.322265625)"><path d="M19.16 0 C39.32 1.89, 55.08 -1.64, 66.1 0 C79.86 2.09, 86.52 9.13, 85.26 19.16 C88.72 31.21, 88.7 48.03, 85.26 57.48 C85.86 68.51, 77.31 73.63, 66.1 76.64 C51.49 78.02, 43.62 73.69, 19.16 76.64 C3.33 75.41, 0.32 71.94, 0 57.48 C1.45 48.03, -0.15 41.33, 0 19.16 C2.69 2.83, 6.08 2.09, 19.16 0" stroke="none" stroke-width="0" fill="#a18072"></path><path d="M19.16 0 C35.87 -0.08, 50.38 -0.44, 66.1 0 M19.16 0 C33.99 0.64, 46.65 0.84, 66.1 0 M66.1 0 C80.76 -1.71, 86.01 6.96, 85.26 19.16 M66.1 0 C80.03 1.24, 83.24 8, 85.26 19.16 M85.26 19.16 C86.62 26.71, 84.46 34.84, 85.26 57.48 M85.26 19.16 C85.43 29.45, 85.24 40.22, 85.26 57.48 M85.26 57.48 C86.95 68.46, 77 78.32, 66.1 76.64 M85.26 57.48 C83.75 69.57, 76.87 75.79, 66.1 76.64 M66.1 76.64 C53.05 75.48, 37.45 75.38, 19.16 76.64 M66.1 76.64 C51.08 77.67, 34.7 76.32, 19.16 76.64 M19.16 76.64 C7.72 78.19, 0.65 70.19, 0 57.48 M19.16 76.64 C6.79 76.21, -2.23 68.35, 0 57.48 M0 57.48 C1.86 44.44, -1.67 34.27, 0 19.16 M0 57.48 C0.85 46.65, -0.64 36.5, 0 19.16 M0 19.16 C1.94 7.3, 7.6 -0.96, 19.16 0 M0 19.16 C-1.78 8.36, 5.77 -2.23, 19.16 0" stroke="#1e1e1e" stroke-width="2" fill="none"></path></g><g stroke-linecap="round" transform="translate(10 59.76933318646752) rotate(0 13.974609375 10.47265625)"><path d="M5.24 0 C10.43 -2.34, 17.92 3.26, 22.71 0 C23.96 1.51, 29.49 0.7, 27.95 5.24 C28.52 9.75, 29.67 13.49, 27.95 15.71 C27.86 18.33, 27.95 20.83, 22.71 20.95 C18.64 20.63, 13.77 18.92, 5.24 20.95 C1.75 18.79, -2.58 17.12, 0 15.71 C0.67 12.46, 1 6.62, 0 5.24 C3.59 -0.09, -0.79 0.83, 5.24 0" stroke="none" stroke-width="0" fill="#ffd8a8"></path><path d="M5.24 0 C7.6 1.08, 14 -1.29, 22.71 0 M5.24 0 C10.68 0.59, 17.23 0.52, 22.71 0 M22.71 0 C26.83 -1.35, 29.28 3.29, 27.95 5.24 M22.71 0 C26.95 -0.07, 28.35 1.31, 27.95 5.24 M27.95 5.24 C27.76 7.79, 28.82 8.85, 27.95 15.71 M27.95 5.24 C28.16 7.81, 28.49 9.4, 27.95 15.71 M27.95 15.71 C26.95 17.99, 28.15 21.86, 22.71 20.95 M27.95 15.71 C29.34 18.1, 24.43 22.91, 22.71 20.95 M22.71 20.95 C19.63 21.39, 14.82 22.04, 5.24 20.95 M22.71 20.95 C16.8 21.3, 10.54 21.86, 5.24 20.95 M5.24 20.95 C3.16 20.64, 1.65 17.38, 0 15.71 M5.24 20.95 C3.63 19.82, 0.38 18.08, 0 15.71 M0 15.71 C-0.74 12.34, -0.84 10.9, 0 5.24 M0 15.71 C-0.11 12.51, 0.31 9, 0 5.24 M0 5.24 C0.49 1.92, 2.64 0.19, 5.24 0 M0 5.24 C0.01 3.96, 3.46 -2.27, 5.24 0" stroke="#1e1e1e" stroke-width="2" fill="none"></path></g><g stroke-linecap="round" transform="translate(36.888671875 45.73027068646752) rotate(0 25.4296875 23.859375)"><path d="M35.08 1.54 C39.9 3.08, 44.97 8.11, 47.35 12.64 C49.73 17.18, 50.64 23.62, 49.36 28.78 C48.08 33.93, 43.9 40.54, 39.67 43.57 C35.44 46.61, 29.4 47.47, 23.97 47.01 C18.54 46.55, 11.03 44.15, 7.08 40.82 C3.12 37.49, 0.8 32.01, 0.25 27.03 C-0.3 22.05, 0.78 15.2, 3.78 10.93 C6.79 6.67, 12.79 2.84, 18.29 1.43 C23.79 0.02, 33.42 2.01, 36.78 2.47 C40.15 2.92, 38.86 3.82, 38.49 4.17 M31.54 2.19 C36.94 3.13, 44.87 5.63, 48.17 9.81 C51.46 13.99, 52.27 21.85, 51.32 27.27 C50.36 32.69, 46.44 38.85, 42.45 42.32 C38.46 45.8, 32.65 47.94, 27.36 48.13 C22.06 48.33, 14.88 46.54, 10.66 43.47 C6.43 40.4, 3.34 34.81, 2.01 29.7 C0.68 24.59, 0.32 17.43, 2.67 12.79 C5.01 8.16, 11.1 4.06, 16.08 1.9 C21.06 -0.25, 29.63 -0.16, 32.55 -0.15 C35.47 -0.15, 33.72 1.26, 33.59 1.92" stroke="none" stroke-width="0" fill="#ffd8a8"></path><path d="M16.75 1.34 C21.56 -0.4, 29.32 0.39, 34.51 2.15 C39.71 3.92, 45.37 7.57, 47.93 11.93 C50.49 16.29, 50.71 23.27, 49.86 28.31 C49.01 33.36, 46.85 38.96, 42.84 42.23 C38.82 45.49, 31.39 48.03, 25.78 47.89 C20.17 47.75, 13.55 44.64, 9.19 41.39 C4.83 38.15, 0.64 33.23, -0.38 28.44 C-1.39 23.65, -0.96 17.48, 3.12 12.66 C7.2 7.83, 19.75 1.41, 24.1 -0.51 C28.46 -2.43, 29.4 0.56, 29.23 1.12 M32.47 0.24 C37.49 1.71, 45.23 7.48, 48.41 11.84 C51.59 16.2, 52.71 21.23, 51.53 26.39 C50.35 31.56, 45.6 39.52, 41.34 42.83 C37.09 46.14, 31.1 46.03, 25.99 46.25 C20.88 46.47, 14.87 46.81, 10.69 44.15 C6.5 41.5, 2.02 35.38, 0.87 30.31 C-0.28 25.24, 1.41 18.42, 3.8 13.73 C6.19 9.04, 10.17 4.18, 15.22 2.17 C20.27 0.16, 30.92 1.51, 34.09 1.67 C37.25 1.82, 34.3 2.84, 34.2 3.1" stroke="#1e1e1e" stroke-width="2" fill="none"></path></g></svg>