<svg version="1.1" xmlns="http://www.w3.org/2000/svg" viewBox="0 0 106.89305606447624 140.84223780150205" width="106.89305606447624" height="140.84223780150205">
  <!-- svg-source:excalidraw -->
  
  <defs>
    <style class="style-fonts">
      @font-face {
        font-family: "Virgil";
        src: url("https://excalidraw.com/Virgil.woff2");
      }
      @font-face {
        font-family: "Cascadia";
        src: url("https://excalidraw.com/Cascadia.woff2");
      }
      @font-face {
        font-family: "Assistant";
        src: url("https://excalidraw.com/Assistant-Regular.woff2");
      }
    </style>
    
  </defs>
  <g stroke-linecap="round" transform="translate(35.68620237129426 109.06643921733757) rotate(22.461246866865288 19.283203125 7.48828125)"><path d="M3.74 0 C12.7 1.18, 18.04 -2.4, 34.82 0 C39.54 -0.7, 36.05 2.73, 38.57 3.74 C39.14 7.37, 38.19 9.95, 38.57 11.23 C40.08 14.63, 39.3 17.57, 34.82 14.98 C20.94 17.44, 10.52 15.74, 3.74 14.98 C-0.02 13.85, -2.18 12.25, 0 11.23 C0.58 9.67, -0.58 7.1, 0 3.74 C-0.89 1.48, 2.46 -1.15, 3.74 0" stroke="none" stroke-width="0" fill="#868e96"></path><path d="M3.74 0 C15.4 -0.25, 27.06 -0.67, 34.82 0 M3.74 0 C13.86 0.53, 24.05 0.49, 34.82 0 M34.82 0 C37.44 0.29, 38.5 1.28, 38.57 3.74 M34.82 0 C37.65 -0.57, 39.26 1.72, 38.57 3.74 M38.57 3.74 C38.27 5.4, 38.7 6.97, 38.57 11.23 M38.57 3.74 C38.36 6.56, 38.5 9.14, 38.57 11.23 M38.57 11.23 C38.34 13.16, 37.15 14.83, 34.82 14.98 M38.57 11.23 C38.43 13.1, 37.57 14.23, 34.82 14.98 M34.82 14.98 C24.53 14.17, 16.88 14.45, 3.74 14.98 M34.82 14.98 C26.48 14.53, 18.36 15.29, 3.74 14.98 M3.74 14.98 C0.52 15.2, -0.78 14.11, 0 11.23 M3.74 14.98 C1 15.84, 0.96 14.5, 0 11.23 M0 11.23 C0.31 8.87, 0.01 6.33, 0 3.74 M0 11.23 C0.05 9.11, 0.11 7.19, 0 3.74 M0 3.74 C-0.6 0.4, 1.48 -0.34, 3.74 0 M0 3.74 C0.41 1.96, 2.38 -0.73, 3.74 0" stroke="#1e1e1e" stroke-width="2" fill="none"></path></g><g stroke-linecap="round" transform="translate(35.50032997546032 16.919422171883525) rotate(22.923355211056883 19.283203125 7.48828125)"><path d="M3.74 0 C14.84 -2.25, 30.65 -0.94, 34.82 0 C34.8 1.48, 41.08 1.76, 38.57 3.74 C38.22 6.97, 39.19 10, 38.57 11.23 C40.54 16.32, 39.15 14.58, 34.82 14.98 C21.66 15.74, 9.79 14.18, 3.74 14.98 C-0.93 13.5, -2.06 12.03, 0 11.23 C-0.7 8.83, -0.39 8.16, 0 3.74 C1.22 0.1, 1.88 0.22, 3.74 0" stroke="none" stroke-width="0" fill="#868e96"></path><path d="M3.74 0 C11.5 -0.73, 17.87 0.89, 34.82 0 M3.74 0 C10.51 0.23, 16.65 0.03, 34.82 0 M34.82 0 C37.26 0.03, 38.86 0.75, 38.57 3.74 M34.82 0 C38.01 0.47, 37.45 1.95, 38.57 3.74 M38.57 3.74 C38.64 6.88, 38.74 9.32, 38.57 11.23 M38.57 3.74 C38.5 6.61, 38.49 9.18, 38.57 11.23 M38.57 11.23 C38.4 13.58, 37.2 14.43, 34.82 14.98 M38.57 11.23 C38.81 12.98, 37.34 14.03, 34.82 14.98 M34.82 14.98 C23.71 14.17, 10.63 13.96, 3.74 14.98 M34.82 14.98 C26.97 15.23, 18.12 14.97, 3.74 14.98 M3.74 14.98 C0.47 15.35, -0.22 14.48, 0 11.23 M3.74 14.98 C2.21 15.75, 0.36 12.95, 0 11.23 M0 11.23 C-0.04 8.55, -0.1 5.38, 0 3.74 M0 11.23 C0.07 9.78, -0.12 7.82, 0 3.74 M0 3.74 C0.23 0.91, 1.61 0.62, 3.74 0 M0 3.74 C1.13 0.52, 0.67 -0.69, 3.74 0" stroke="#1e1e1e" stroke-width="2" fill="none"></path></g><g stroke-linecap="round" transform="translate(11.63133731447624 32.545724255215646) rotate(0 42.630859375 38.322265625)"><path d="M19.16 0 C39.17 -0.31, 49.53 2.7, 66.1 0 C82.35 0.72, 88.67 8.45, 85.26 19.16 C87.07 34.49, 87.72 50.9, 85.26 57.48 C87.8 69.71, 81.84 73.37, 66.1 76.64 C46.42 75.22, 27.22 74.73, 19.16 76.64 C3.53 74.29, -3.2 72.18, 0 57.48 C-0.77 45.95, 2.14 32.18, 0 19.16 C0.88 6.69, 8.01 0.35, 19.16 0" stroke="none" stroke-width="0" fill="#a18072"></path><path d="M19.16 0 C31.96 2.03, 42.04 0.9, 66.1 0 M19.16 0 C36.95 -0.04, 54.42 -0.29, 66.1 0 M66.1 0 C79.45 -0.99, 86.46 7.21, 85.26 19.16 M66.1 0 C76.64 1.4, 87.43 4.42, 85.26 19.16 M85.26 19.16 C86.45 30.33, 86.77 43.2, 85.26 57.48 M85.26 19.16 C84.97 33.45, 85.03 48.74, 85.26 57.48 M85.26 57.48 C85.02 69.16, 79.3 75.34, 66.1 76.64 M85.26 57.48 C85.31 68.37, 80.82 74.57, 66.1 76.64 M66.1 76.64 C55.83 74.6, 46.02 76.53, 19.16 76.64 M66.1 76.64 C54.95 77.22, 44.48 77.38, 19.16 76.64 M19.16 76.64 C5.95 78.14, 1.67 71.6, 0 57.48 M19.16 76.64 C7.11 75.09, 1.53 72.03, 0 57.48 M0 57.48 C-0.36 42.8, -1.65 32.19, 0 19.16 M0 57.48 C-0.76 45.5, 0.07 34.88, 0 19.16 M0 19.16 C0.72 7.63, 8.36 -1.27, 19.16 0 M0 19.16 C-1.15 5, 8.62 1.05, 19.16 0" stroke="#1e1e1e" stroke-width="2" fill="none"></path></g><g stroke-linecap="round" transform="translate(13.186373760761398 88.17832059975535) rotate(312.47556431009303 13.974609375 10.47265625)"><path d="M5.24 0 C7.15 1.01, 14.33 -1.23, 22.71 0 C28.88 1.06, 29.05 2.72, 27.95 5.24 C28.07 8.25, 29.03 12.12, 27.95 15.71 C27.54 16.43, 28.64 22.06, 22.71 20.95 C17.77 18.84, 10.57 18.91, 5.24 20.95 C4.56 24.4, -1.46 20.82, 0 15.71 C1.76 11.21, -1.44 9.07, 0 5.24 C-0.12 4.68, 0.39 0.68, 5.24 0" stroke="none" stroke-width="0" fill="#ffd8a8"></path><path d="M5.24 0 C11.97 -1.23, 18.58 -0.26, 22.71 0 M5.24 0 C12.06 -0.71, 18.92 0.56, 22.71 0 M22.71 0 C26.85 -0.07, 28.3 1.37, 27.95 5.24 M22.71 0 C23.97 -1.91, 28.15 1.52, 27.95 5.24 M27.95 5.24 C27.15 9.05, 27.69 12.76, 27.95 15.71 M27.95 5.24 C27.79 8.71, 28.56 13.06, 27.95 15.71 M27.95 15.71 C29.16 18.24, 24.66 22.66, 22.71 20.95 M27.95 15.71 C27.33 16.97, 27.51 23.17, 22.71 20.95 M22.71 20.95 C18.3 20.33, 12.01 22.06, 5.24 20.95 M22.71 20.95 C17.48 20.99, 11.73 20.33, 5.24 20.95 M5.24 20.95 C3.39 19.97, 0.33 18.23, 0 15.71 M5.24 20.95 C0.74 19.02, -1.31 17.37, 0 15.71 M0 15.71 C0.19 12.56, -0.8 10.44, 0 5.24 M0 15.71 C0.08 12.52, 0.19 9.29, 0 5.24 M0 5.24 C0.01 3.67, 3.24 -1.98, 5.24 0 M0 5.24 C-0.2 3.08, 0.82 0.08, 5.24 0" stroke="#1e1e1e" stroke-width="2" fill="none"></path></g><g stroke-linecap="round" transform="translate(28.105044809020455 46.951090522251434) rotate(312.47556431009303 25.4296875 23.859375)"><path d="M19.15 -0.09 C24.12 -1.25, 31.32 0.88, 36.3 3.24 C41.28 5.6, 46.94 9.5, 49.02 14.08 C51.11 18.65, 50.47 25.64, 48.83 30.71 C47.19 35.77, 43.7 41.62, 39.17 44.46 C34.64 47.3, 27.06 48.43, 21.65 47.76 C16.25 47.08, 10.34 44.23, 6.76 40.42 C3.17 36.61, 0.21 29.95, 0.12 24.89 C0.03 19.83, 2.7 14.2, 6.23 10.07 C9.75 5.94, 18.12 1.76, 21.29 0.1 C24.45 -1.57, 25.01 -0.19, 25.23 0.08 M35.88 2.49 C40.46 4.43, 45.13 9.52, 47.59 14.04 C50.06 18.55, 51.74 24.69, 50.68 29.57 C49.62 34.45, 45.43 40.24, 41.24 43.31 C37.05 46.39, 31.06 48.41, 25.55 48.03 C20.03 47.64, 12.25 44.56, 8.14 41.03 C4.04 37.5, 1.65 32.04, 0.93 26.84 C0.22 21.63, 0.87 14.03, 3.86 9.81 C6.86 5.59, 13.7 2.78, 18.89 1.54 C24.08 0.3, 32.48 2.27, 35 2.4 C37.51 2.52, 34.25 2.2, 33.98 2.29" stroke="none" stroke-width="0" fill="#ffd8a8"></path><path d="M23.32 0.46 C28.19 -0.41, 34.32 1.84, 38.87 4.68 C43.42 7.52, 48.98 12.67, 50.61 17.49 C52.25 22.32, 51.03 29.17, 48.68 33.63 C46.33 38.1, 41.52 42.03, 36.5 44.28 C31.48 46.53, 23.84 48.11, 18.57 47.13 C13.29 46.14, 7.77 42.63, 4.83 38.39 C1.9 34.16, 0.74 26.84, 0.97 21.71 C1.19 16.58, 2.12 11.15, 6.2 7.6 C10.28 4.04, 21.56 1.35, 25.43 0.36 C29.3 -0.62, 29.5 1.43, 29.44 1.68 M18.79 0.36 C23.2 -1.27, 29.29 1.28, 34.09 3.14 C38.9 4.99, 44.8 6.9, 47.63 11.47 C50.46 16.04, 52.17 25.1, 51.09 30.56 C50 36.03, 45.46 41.24, 41.13 44.27 C36.79 47.29, 30.67 49.11, 25.08 48.7 C19.48 48.29, 11.56 45.35, 7.56 41.8 C3.56 38.25, 1.47 32.29, 1.08 27.4 C0.68 22.51, 2.2 16.88, 5.18 12.46 C8.15 8.03, 16.59 2.9, 18.94 0.85 C21.28 -1.2, 19.11 -0.13, 19.27 0.17" stroke="#1e1e1e" stroke-width="2" fill="none"></path></g></svg>