<svg version="1.1" xmlns="http://www.w3.org/2000/svg" viewBox="0 0 107.08836856447897 140.84223780150023" width="107.08836856447897" height="140.84223780150023">
  <!-- svg-source:excalidraw -->
  
  <defs>
    <style class="style-fonts">
      @font-face {
        font-family: "Virgil";
        src: url("https://excalidraw.com/Virgil.woff2");
      }
      @font-face {
        font-family: "Cascadia";
        src: url("https://excalidraw.com/Cascadia.woff2");
      }
      @font-face {
        font-family: "Assistant";
        src: url("https://excalidraw.com/Assistant-Regular.woff2");
      }
    </style>
    
  </defs>
  <g stroke-linecap="round" transform="translate(34.05486505681802 109.06643921733576) rotate(22.461246866865288 19.283203125 7.48828125)"><path d="M3.74 0 C15.71 -1.73, 20.72 0.42, 34.82 0 C36.43 0.94, 40.18 3.81, 38.57 3.74 C39.46 5.96, 39.11 6.82, 38.57 11.23 C36.56 15.95, 36.62 12.46, 34.82 14.98 C26.2 16.54, 14.39 13.99, 3.74 14.98 C1.96 16.49, 0.91 15.71, 0 11.23 C0.73 7.35, 0.73 4.77, 0 3.74 C0.43 -0.02, 0.12 -2.18, 3.74 0" stroke="none" stroke-width="0" fill="#868e96"></path><path d="M3.74 0 C15.25 0.58, 28.4 0.42, 34.82 0 M3.74 0 C14.36 0.32, 25.92 -0.22, 34.82 0 M34.82 0 C36.56 0.4, 38.2 2.05, 38.57 3.74 M34.82 0 C36.42 0.24, 39.52 0.17, 38.57 3.74 M38.57 3.74 C38.86 6.23, 38.7 8.61, 38.57 11.23 M38.57 3.74 C38.69 6.09, 38.4 8.4, 38.57 11.23 M38.57 11.23 C39.51 12.87, 37.69 15.26, 34.82 14.98 M38.57 11.23 C39.15 14.35, 36.31 15.78, 34.82 14.98 M34.82 14.98 C28.84 14.72, 21.26 14.78, 3.74 14.98 M34.82 14.98 C26.06 14.57, 17.09 14.48, 3.74 14.98 M3.74 14.98 C2.09 14.08, -0.94 14.56, 0 11.23 M3.74 14.98 C0.49 14.63, -1 13.3, 0 11.23 M0 11.23 C0.31 8.64, 0.11 6.3, 0 3.74 M0 11.23 C0.16 8.83, 0.07 6.05, 0 3.74 M0 3.74 C0.67 2.02, 1.57 -0.03, 3.74 0 M0 3.74 C0.2 1.03, 0.13 -0.96, 3.74 0" stroke="#1e1e1e" stroke-width="2" fill="none"></path></g><g stroke-linecap="round" transform="translate(33.868992660984986 16.919422171883525) rotate(22.923355211056883 19.283203125 7.48828125)"><path d="M3.74 0 C12.14 0.84, 24.08 1.18, 34.82 0 C38.94 2.56, 36.91 -0.05, 38.57 3.74 C39.25 5.07, 37.91 8.17, 38.57 11.23 C37.87 11.21, 38.8 17.49, 34.82 14.98 C26.63 14.14, 15.65 16.72, 3.74 14.98 C2.15 16.95, 2.59 15.56, 0 11.23 C0.72 8.62, 0.08 6.49, 0 3.74 C-1.13 -0.93, -0.23 -2.06, 3.74 0" stroke="none" stroke-width="0" fill="#868e96"></path><path d="M3.74 0 C13.21 0.31, 22.29 0.49, 34.82 0 M3.74 0 C13 -0.33, 21.26 0.11, 34.82 0 M34.82 0 C36.95 0.8, 37.78 1.46, 38.57 3.74 M34.82 0 C38.27 -1.07, 38.87 2.13, 38.57 3.74 M38.57 3.74 C38.7 6.48, 38.6 9.37, 38.57 11.23 M38.57 3.74 C38.41 5.73, 38.77 7.33, 38.57 11.23 M38.57 11.23 C38.94 14.01, 37.82 15.52, 34.82 14.98 M38.57 11.23 C37.55 14.54, 36.27 15.99, 34.82 14.98 M34.82 14.98 C25.46 14.77, 17.09 14.82, 3.74 14.98 M34.82 14.98 C27.22 14.46, 20.01 14.43, 3.74 14.98 M3.74 14.98 C0.31 15.81, -0.66 13.43, 0 11.23 M3.74 14.98 C0.25 14.55, 0.11 12.83, 0 11.23 M0 11.23 C0.05 8.22, 0.11 5.71, 0 3.74 M0 11.23 C0.03 8.3, 0.09 5.76, 0 3.74 M0 3.74 C0.32 1.22, 1.42 -0.19, 3.74 0 M0 3.74 C-1.12 0.29, 1.35 -0.11, 3.74 0" stroke="#1e1e1e" stroke-width="2" fill="none"></path></g><g stroke-linecap="round" transform="translate(10 32.545724255215646) rotate(0 42.630859375 38.322265625)"><path d="M19.16 0 C29.19 1.11, 43.91 3.36, 66.1 0 C76.58 -1.8, 83.09 9.88, 85.26 19.16 C82.9 35.49, 84.72 42.17, 85.26 57.48 C87.31 73.74, 79.59 80.06, 66.1 76.64 C50.32 78.39, 33.82 79.04, 19.16 76.64 C9.98 79.19, -0.55 73.23, 0 57.48 C0.03 47.72, -2.13 38.44, 0 19.16 C-2.05 3.53, 4.03 -3.2, 19.16 0" stroke="none" stroke-width="0" fill="#a18072"></path><path d="M19.16 0 C36.92 0.97, 52.37 -1.45, 66.1 0 M19.16 0 C35.27 0.62, 52.53 1.02, 66.1 0 M66.1 0 C77.3 0.42, 86.92 4.52, 85.26 19.16 M66.1 0 C79.48 1.75, 86.84 7.98, 85.26 19.16 M85.26 19.16 C85.44 31.71, 84.38 44.29, 85.26 57.48 M85.26 19.16 C85.83 31.37, 85.26 45.57, 85.26 57.48 M85.26 57.48 C86.27 71.34, 77.11 78.05, 66.1 76.64 M85.26 57.48 C83.17 72.28, 78.48 77.83, 66.1 76.64 M66.1 76.64 C52.81 76.32, 39 76.99, 19.16 76.64 M66.1 76.64 C55.92 75.36, 43.11 77.09, 19.16 76.64 M19.16 76.64 C5.07 76.04, -1.74 69.52, 0 57.48 M19.16 76.64 C6.62 74.85, 1.45 71.99, 0 57.48 M0 57.48 C0.67 48.34, 1.41 41.74, 0 19.16 M0 57.48 C0.55 44.19, 0.2 29.32, 0 19.16 M0 19.16 C0.35 6.01, 4.44 -1.66, 19.16 0 M0 19.16 C0.2 6.17, 7.34 2.1, 19.16 0" stroke="#1e1e1e" stroke-width="2" fill="none"></path></g><g stroke-linecap="round" transform="translate(65.95277605371757 87.12363309975353) rotate(47.524435689906944 13.974609375 10.47265625)"><path d="M5.24 0 C11.98 2.69, 17.45 -0.16, 22.71 0 C25.34 1.75, 27.83 1.34, 27.95 5.24 C27.76 8.26, 26.73 9.91, 27.95 15.71 C25.8 16.62, 24.13 23.76, 22.71 20.95 C16.98 23.06, 6.94 24.22, 5.24 20.95 C-0.09 18.41, 0.83 19.08, 0 15.71 C-0.83 11.77, -1.76 9.23, 0 5.24 C0.33 4.59, 4.27 0.38, 5.24 0" stroke="none" stroke-width="0" fill="#ffd8a8"></path><path d="M5.24 0 C10.76 1.11, 19.99 0.51, 22.71 0 M5.24 0 C9.57 -0.69, 15.69 -0.05, 22.71 0 M22.71 0 C27.03 1.82, 26.74 0.04, 27.95 5.24 M22.71 0 C26.73 -0.78, 28.78 3.18, 27.95 5.24 M27.95 5.24 C27.25 10.43, 28.36 14.22, 27.95 15.71 M27.95 5.24 C27.73 7.37, 28.17 11.02, 27.95 15.71 M27.95 15.71 C28.35 21.1, 27.35 22.29, 22.71 20.95 M27.95 15.71 C27.01 19.83, 27.54 21.75, 22.71 20.95 M22.71 20.95 C15.87 22.51, 7.98 22.5, 5.24 20.95 M22.71 20.95 C17.94 20.13, 13.44 20.17, 5.24 20.95 M5.24 20.95 C0.44 19.17, 1.07 19.39, 0 15.71 M5.24 20.95 C0.21 18.99, -0.79 19.41, 0 15.71 M0 15.71 C0.14 12.55, 0.15 8.45, 0 5.24 M0 15.71 C-0.12 11.86, -0.29 7.43, 0 5.24 M0 5.24 C-1.57 3.33, 3.74 -1.25, 5.24 0 M0 5.24 C0.96 2.73, 1.08 1.71, 5.24 0" stroke="#1e1e1e" stroke-width="2" fill="none"></path></g><g stroke-linecap="round" transform="translate(28.123948755458514 45.896403022249615) rotate(47.524435689906944 25.4296875 23.859375)"><path d="M17.21 1.78 C22.06 0, 28.98 -0.01, 34.07 1.82 C39.16 3.64, 45 8.29, 47.74 12.71 C50.48 17.14, 51.38 23.32, 50.5 28.39 C49.61 33.45, 46.83 39.92, 42.42 43.13 C38.01 46.34, 29.54 47.9, 24.03 47.63 C18.52 47.36, 13.3 44.95, 9.35 41.48 C5.41 38.02, 1.18 31.65, 0.35 26.84 C-0.47 22.02, 0.98 16.95, 4.41 12.59 C7.84 8.24, 17.25 2.76, 20.94 0.7 C24.63 -1.37, 26.25 -0.18, 26.54 0.2 M30.61 0.61 C35.7 0.91, 41.01 3.98, 44.51 7.76 C48 11.54, 51.48 18.3, 51.58 23.28 C51.68 28.26, 48.46 33.56, 45.1 37.63 C41.74 41.7, 36.77 46.44, 31.42 47.72 C26.06 49, 18.08 47.86, 12.96 45.33 C7.83 42.8, 2.75 37.55, 0.67 32.52 C-1.42 27.49, -1.33 19.77, 0.45 15.13 C2.23 10.48, 6.32 7.22, 11.36 4.64 C16.41 2.07, 27.64 0.22, 30.72 -0.33 C33.81 -0.89, 30.03 0.97, 29.88 1.31" stroke="none" stroke-width="0" fill="#ffd8a8"></path><path d="M29.34 -0.66 C34.37 -0.19, 40.3 4.28, 43.87 8.38 C47.44 12.48, 50.4 18.97, 50.76 23.97 C51.12 28.97, 49.6 34.43, 46.03 38.36 C42.45 42.29, 34.87 46.42, 29.31 47.53 C23.75 48.64, 17.16 47.41, 12.66 45.03 C8.15 42.66, 4.25 38.21, 2.27 33.29 C0.29 28.37, -0.81 20.31, 0.79 15.48 C2.38 10.66, 5.83 6.41, 11.83 4.32 C17.84 2.23, 31.86 2.71, 36.81 2.92 C41.75 3.13, 41.61 5.39, 41.5 5.6 M13.9 4.16 C18.33 1.56, 26.52 0.64, 31.69 1.56 C36.87 2.47, 41.59 5.71, 44.93 9.67 C48.27 13.63, 51.64 20.04, 51.71 25.33 C51.79 30.62, 49.02 37.75, 45.39 41.4 C41.75 45.06, 35.29 47.06, 29.91 47.27 C24.52 47.48, 17.67 45.48, 13.09 42.67 C8.51 39.86, 4.26 35.15, 2.44 30.39 C0.61 25.63, 0.39 18.9, 2.15 14.09 C3.9 9.27, 11.14 3.5, 12.95 1.48 C14.75 -0.54, 12.84 1.63, 12.98 1.97" stroke="#1e1e1e" stroke-width="2" fill="none"></path></g></svg>