<svg version="1.1" xmlns="http://www.w3.org/2000/svg" viewBox="0 0 106.88189535019171 127.12357954545405" width="106.88189535019171" height="127.12357954545405">
  <!-- svg-source:excalidraw -->
  
  <defs>
    <style class="style-fonts">
      @font-face {
        font-family: "Virgil";
        src: url("https://excalidraw.com/Virgil.woff2");
      }
      @font-face {
        font-family: "Cascadia";
        src: url("https://excalidraw.com/Cascadia.woff2");
      }
      @font-face {
        font-family: "Assistant";
        src: url("https://excalidraw.com/Assistant-Regular.woff2");
      }
    </style>
    
  </defs>
  <g stroke-linecap="round" transform="translate(10 24.85274621212102) rotate(0 42.63085937499994 38.322265625)"><path d="M19.16 0 C41.49 2.43, 57.96 3.72, 66.1 0 C77.71 2.21, 87.88 6.22, 85.26 19.16 C84.05 27.05, 83.85 41.02, 85.26 57.48 C88.19 69.78, 77.77 76.39, 66.1 76.64 C48.4 79.42, 33.31 80.65, 19.16 76.64 C9.09 78.4, -0.97 72.99, 0 57.48 C1.77 43.06, 1.08 34.76, 0 19.16 C-0.35 5, 2.84 0.24, 19.16 0" stroke="none" stroke-width="0" fill="#7950f2"></path><path d="M19.16 0 C31.96 -1.27, 43.96 -0.18, 66.1 0 M19.16 0 C28.49 -0.61, 39.04 0.81, 66.1 0 M66.1 0 C77.82 -1.41, 86.23 5.74, 85.26 19.16 M66.1 0 C81.13 0.95, 85.63 8.58, 85.26 19.16 M85.26 19.16 C86.06 32.38, 84.63 48.11, 85.26 57.48 M85.26 19.16 C84.38 28.28, 85.32 36.32, 85.26 57.48 M85.26 57.48 C87.23 68.66, 77.07 75.23, 66.1 76.64 M85.26 57.48 C83.17 68.2, 80.98 74.46, 66.1 76.64 M66.1 76.64 C53.26 75.38, 36.59 76.68, 19.16 76.64 M66.1 76.64 C49.12 77.73, 32.34 76.97, 19.16 76.64 M19.16 76.64 C7.16 77.63, -1.19 69.01, 0 57.48 M19.16 76.64 C7.2 75.69, 1.46 72.14, 0 57.48 M0 57.48 C-0.84 50.37, -1 39.13, 0 19.16 M0 57.48 C-0.46 43.78, -0.31 28.69, 0 19.16 M0 19.16 C1.01 6.09, 7.1 0.89, 19.16 0 M0 19.16 C-1.31 5.56, 4.65 1.7, 19.16 0" stroke="#1e1e1e" stroke-width="2" fill="none"></path></g><g stroke-linecap="round" transform="translate(33.86899266098442 102.14701704545405) rotate(0 19.283203125 7.48828125)"><path d="M3.74 0 C13.21 2.28, 19.95 1.35, 34.82 0 C39.21 -0.12, 38.17 1.82, 38.57 3.74 C38.11 6.54, 39.32 9.17, 38.57 11.23 C37.77 13.54, 38.02 17.08, 34.82 14.98 C22.29 17.79, 14.73 16.51, 3.74 14.98 C0.55 16.95, 0.57 14.43, 0 11.23 C0.29 9.24, -0.15 5.82, 0 3.74 C-2.56 1.42, -0.52 -0.86, 3.74 0" stroke="none" stroke-width="0" fill="#868e96"></path><path d="M3.74 0 C12.97 -0.01, 21.01 -0.17, 34.82 0 M3.74 0 C12.19 0.45, 20.32 -0.24, 34.82 0 M34.82 0 C37.8 -0.32, 39.55 1.66, 38.57 3.74 M34.82 0 C37.5 1.09, 39.41 1.7, 38.57 3.74 M38.57 3.74 C38.43 5.36, 38.28 6.77, 38.57 11.23 M38.57 3.74 C38.57 5.3, 38.72 6.62, 38.57 11.23 M38.57 11.23 C37.67 13.02, 36.41 14.08, 34.82 14.98 M38.57 11.23 C39.62 12.64, 37.41 15.14, 34.82 14.98 M34.82 14.98 C25.68 14.93, 17.64 14.29, 3.74 14.98 M34.82 14.98 C22.71 15.07, 11.45 15.33, 3.74 14.98 M3.74 14.98 C0.65 14.35, 0.36 13.31, 0 11.23 M3.74 14.98 C1.98 15.92, -0.86 14.08, 0 11.23 M0 11.23 C-0.15 9.51, 0.31 8.38, 0 3.74 M0 11.23 C-0.01 8.4, 0.11 5.46, 0 3.74 M0 3.74 C0.36 1.69, 0.68 -0.36, 3.74 0 M0 3.74 C-0.87 2.1, 2.39 -0.57, 3.74 0" stroke="#1e1e1e" stroke-width="2" fill="none"></path></g><g stroke-linecap="round" transform="translate(34.0548650568179 10) rotate(0 19.283203125 7.48828125)"><path d="M3.74 0 C14.13 1.2, 28.1 -0.51, 34.82 0 C36.92 0.57, 40.41 0.27, 38.57 3.74 C39.32 5.23, 38.22 6.91, 38.57 11.23 C39.27 15.83, 38.74 13.28, 34.82 14.98 C25.45 16.64, 11.48 17.35, 3.74 14.98 C1.82 15.68, 0.95 15.14, 0 11.23 C-0.13 9.05, -0.99 7.68, 0 3.74 C-1.77 0.39, 2.38 -1.68, 3.74 0" stroke="none" stroke-width="0" fill="#868e96"></path><path d="M3.74 0 C10.15 -0.26, 18.05 -0.57, 34.82 0 M3.74 0 C10.49 -0.46, 18.01 -0.27, 34.82 0 M34.82 0 C38.3 0.41, 38.73 2.2, 38.57 3.74 M34.82 0 C38.16 0.45, 37.51 1.62, 38.57 3.74 M38.57 3.74 C38.26 5.49, 38.19 7.13, 38.57 11.23 M38.57 3.74 C38.76 6.32, 38.4 9.06, 38.57 11.23 M38.57 11.23 C37.66 12.83, 38.23 14.03, 34.82 14.98 M38.57 11.23 C38.66 13.9, 37.14 15.92, 34.82 14.98 M34.82 14.98 C27.88 14.39, 20.68 14.56, 3.74 14.98 M34.82 14.98 C23.49 15.22, 11.46 14.66, 3.74 14.98 M3.74 14.98 C1.6 14.56, 0.64 14.55, 0 11.23 M3.74 14.98 C0.39 15.33, -1.12 13.31, 0 11.23 M0 11.23 C0.31 8.59, 0.33 5.49, 0 3.74 M0 11.23 C0.1 8.35, 0.07 5.6, 0 3.74 M0 3.74 C-0.57 0.89, 0.49 0.74, 3.74 0 M0 3.74 C1.14 0.68, 0.95 1.14, 3.74 0" stroke="#343a40" stroke-width="2" fill="none"></path></g><g stroke-linecap="round" transform="translate(65.74630283943031 23.86094968086536) rotate(312.47556431009303 13.974609375 10.47265625)"><path d="M5.24 0 C14.47 -0.34, 18.64 0.5, 22.71 0 C28.76 -1.36, 24.93 0.18, 27.95 5.24 C27.52 8.26, 28.61 13.07, 27.95 15.71 C29.92 16.85, 28.52 18.85, 22.71 20.95 C14.9 23.49, 9.47 21.95, 5.24 20.95 C3.06 22.9, -2.09 20.47, 0 15.71 C-1.84 12.13, -1.27 7.67, 0 5.24 C1.57 -0.59, 2.37 0.1, 5.24 0" stroke="none" stroke-width="0" fill="#eaddd7"></path><path d="M5.24 0 C9.78 -0.98, 14.04 0.12, 22.71 0 M5.24 0 C12.08 -0.16, 18.94 0.49, 22.71 0 M22.71 0 C26.53 1.9, 29.42 2.53, 27.95 5.24 M22.71 0 C24.09 0.74, 26.69 0.84, 27.95 5.24 M27.95 5.24 C26.84 7.73, 28.53 12.02, 27.95 15.71 M27.95 5.24 C27.58 8.21, 27.58 11.47, 27.95 15.71 M27.95 15.71 C29.78 17.3, 26.37 21.24, 22.71 20.95 M27.95 15.71 C27.6 21.08, 24.83 20.29, 22.71 20.95 M22.71 20.95 C18.77 20.1, 13.29 19.71, 5.24 20.95 M22.71 20.95 C17.03 20.49, 12.69 20.67, 5.24 20.95 M5.24 20.95 C3.02 22.58, -1.5 19.81, 0 15.71 M5.24 20.95 C-0.5 20.11, 1.75 18.18, 0 15.71 M0 15.71 C0.79 12.84, 0.77 10.43, 0 5.24 M0 15.71 C0.13 12.55, -0.35 8.74, 0 5.24 M0 5.24 C-1.51 3.22, 3.73 -0.99, 5.24 0 M0 5.24 C-0.59 4.03, 3.16 0.83, 5.24 0" stroke="#1e1e1e" stroke-width="2" fill="none"></path></g><g stroke-linecap="round" transform="translate(27.91747554117171 38.5413047583711) rotate(312.47556431009303 25.4296875 23.859375)"><path d="M13.06 2.24 C17.67 -0.36, 25.98 -0.12, 31.52 0.99 C37.06 2.1, 42.96 4.97, 46.31 8.9 C49.67 12.83, 51.95 19.33, 51.66 24.57 C51.36 29.81, 48.36 36.46, 44.56 40.34 C40.75 44.22, 34.17 47.31, 28.81 47.84 C23.45 48.37, 17.04 46.41, 12.39 43.52 C7.73 40.62, 2.51 35.07, 0.88 30.46 C-0.75 25.86, 0.11 20.76, 2.6 15.9 C5.08 11.05, 12.84 3.69, 15.8 1.34 C18.75 -1.01, 20.04 1.23, 20.33 1.8 M21.26 0.08 C26.22 -1.01, 34.14 1.97, 38.75 4.41 C43.35 6.85, 47.23 10.07, 48.87 14.72 C50.5 19.37, 50.19 27.36, 48.56 32.32 C46.93 37.28, 43.81 41.99, 39.09 44.47 C34.37 46.95, 25.73 47.91, 20.24 47.19 C14.75 46.48, 9.39 44.28, 6.15 40.18 C2.92 36.08, 0.66 28.04, 0.82 22.58 C0.98 17.12, 3.46 10.95, 7.12 7.42 C10.78 3.9, 20.3 2.61, 22.8 1.44 C25.31 0.26, 22.13 0.12, 22.14 0.38" stroke="none" stroke-width="0" fill="#eaddd7"></path><path d="M25.25 0.49 C30.27 0.54, 37.56 3.57, 41.85 6.88 C46.14 10.19, 49.93 15.35, 50.97 20.36 C52.02 25.37, 50.96 32.75, 48.14 36.95 C45.31 41.14, 39.29 44.09, 34.03 45.53 C28.76 46.96, 21.78 47.23, 16.56 45.56 C11.35 43.89, 5.57 39.95, 2.76 35.52 C-0.05 31.09, -1.26 24.16, -0.3 18.99 C0.66 13.81, 3.8 7.61, 8.51 4.49 C13.22 1.36, 24.57 0.7, 27.96 0.22 C31.34 -0.25, 29.09 1.43, 28.82 1.65 M17.98 0.06 C22.97 -1.65, 29.26 -0.55, 34.13 1.61 C38.99 3.78, 44.58 8.74, 47.16 13.05 C49.74 17.35, 50.47 22.48, 49.6 27.45 C48.73 32.42, 46.11 39.27, 41.95 42.85 C37.8 46.42, 30.24 48.83, 24.67 48.91 C19.11 48.98, 12.76 46.76, 8.55 43.28 C4.35 39.81, 0.21 33.14, -0.56 28.06 C-1.33 22.98, 1.21 17.36, 3.92 12.78 C6.64 8.19, 13.48 2.46, 15.71 0.55 C17.94 -1.36, 16.86 0.58, 17.32 1.31" stroke="#1e1e1e" stroke-width="2" fill="none"></path></g></svg>