<svg version="1.1" xmlns="http://www.w3.org/2000/svg" viewBox="0 0 108.08725249304894 127.12357954545405" width="108.08725249304894" height="127.12357954545405">
  <!-- svg-source:excalidraw -->
  
  <defs>
    <style class="style-fonts">
      @font-face {
        font-family: "Virgil";
        src: url("https://excalidraw.com/Virgil.woff2");
      }
      @font-face {
        font-family: "Cascadia";
        src: url("https://excalidraw.com/Cascadia.woff2");
      }
      @font-face {
        font-family: "Assistant";
        src: url("https://excalidraw.com/Assistant-Regular.woff2");
      }
    </style>
    
  </defs>
  <g stroke-linecap="round" transform="translate(12.825533743048936 24.85274621212102) rotate(0 42.630859375 38.322265625)"><path d="M19.16 0 C35.14 1.84, 44.28 -1.73, 66.1 0 C76.45 -2.85, 83.65 7.22, 85.26 19.16 C85.5 29.51, 86.35 47.28, 85.26 57.48 C82.29 71.89, 76.43 76.36, 66.1 76.64 C50.08 78.57, 40.45 74.46, 19.16 76.64 C9.91 77.73, -0.53 71.58, 0 57.48 C2 46.28, -3.2 35.37, 0 19.16 C-0.56 3.93, 4.76 1.25, 19.16 0" stroke="none" stroke-width="0" fill="#7950f2"></path><path d="M19.16 0 C34.45 -0.86, 45.22 -0.97, 66.1 0 M19.16 0 C32.99 -0.01, 47.71 0.87, 66.1 0 M66.1 0 C79.97 -1.31, 86.55 5.23, 85.26 19.16 M66.1 0 C81.14 1.73, 86.39 5.77, 85.26 19.16 M85.26 19.16 C86.07 34.66, 84.18 48.69, 85.26 57.48 M85.26 19.16 C84.24 32.8, 84.54 45.96, 85.26 57.48 M85.26 57.48 C86.14 68.96, 79.22 76.7, 66.1 76.64 M85.26 57.48 C86.88 68.86, 80.62 78.34, 66.1 76.64 M66.1 76.64 C51.77 76.1, 41.08 78.41, 19.16 76.64 M66.1 76.64 C54.38 76.43, 44.57 76.94, 19.16 76.64 M19.16 76.64 C6.26 76.24, -1.5 69.12, 0 57.48 M19.16 76.64 C4.67 78.33, -1.88 70.76, 0 57.48 M0 57.48 C-1.15 49.6, 0.26 43.38, 0 19.16 M0 57.48 C-0.63 43.86, 0.56 28.83, 0 19.16 M0 19.16 C0.33 5.46, 5.75 1.49, 19.16 0 M0 19.16 C1.63 5.47, 5.61 0.33, 19.16 0" stroke="#1e1e1e" stroke-width="2" fill="none"></path></g><g stroke-linecap="round" transform="translate(36.69452640403347 102.14701704545405) rotate(0 19.283203125 7.48828125)"><path d="M3.74 0 C10.62 -1.69, 17.85 -2.22, 34.82 0 C36.16 0.6, 39.18 3.64, 38.57 3.74 C38.68 7.26, 37.75 9.42, 38.57 11.23 C36.8 13.52, 36.76 16.13, 34.82 14.98 C23.04 12.98, 13.1 15.89, 3.74 14.98 C0.86 15.93, 0.49 14.07, 0 11.23 C-0.9 9.98, -0.21 6.8, 0 3.74 C-1.18 2.15, 1.48 -0.13, 3.74 0" stroke="none" stroke-width="0" fill="#868e96"></path><path d="M3.74 0 C12.91 -0.38, 23.76 0.87, 34.82 0 M3.74 0 C12.79 0.42, 21.84 -0.32, 34.82 0 M34.82 0 C37.96 -0.58, 39.55 2, 38.57 3.74 M34.82 0 C37.88 -0.31, 39.44 1.5, 38.57 3.74 M38.57 3.74 C38.36 6.32, 38.78 8.6, 38.57 11.23 M38.57 3.74 C38.4 5.64, 38.61 7.54, 38.57 11.23 M38.57 11.23 C38.74 13.76, 38.02 14.37, 34.82 14.98 M38.57 11.23 C39.44 14.58, 37.1 14.72, 34.82 14.98 M34.82 14.98 C25.35 15.74, 13.84 14.98, 3.74 14.98 M34.82 14.98 C22.96 14.8, 10.34 14.77, 3.74 14.98 M3.74 14.98 C0.5 14.41, -0.75 14.46, 0 11.23 M3.74 14.98 C0.31 15.23, -1.07 13.45, 0 11.23 M0 11.23 C0.05 9.36, 0.27 6.69, 0 3.74 M0 11.23 C0.11 8.5, 0.06 5.91, 0 3.74 M0 3.74 C-0.32 2, 1.96 -0.4, 3.74 0 M0 3.74 C-0.39 1.41, 1.05 0.82, 3.74 0" stroke="#1e1e1e" stroke-width="2" fill="none"></path></g><g stroke-linecap="round" transform="translate(36.88039879986695 10) rotate(0 19.283203125 7.48828125)"><path d="M3.74 0 C12.58 -1.82, 23.76 0.84, 34.82 0 C37.93 2.39, 39.86 0.96, 38.57 3.74 C37.77 6, 37.92 7.31, 38.57 11.23 C38.01 14.88, 39.67 12.84, 34.82 14.98 C27.04 15.43, 13.78 15.6, 3.74 14.98 C1.74 15.32, -1.25 15.24, 0 11.23 C-0.07 8.11, -0.36 6.65, 0 3.74 C0.23 1.12, 2.53 -1.78, 3.74 0" stroke="none" stroke-width="0" fill="#868e96"></path><path d="M3.74 0 C11.91 0.88, 19.91 -0.24, 34.82 0 M3.74 0 C13.12 -0.45, 22.26 -0.42, 34.82 0 M34.82 0 C38.3 0.75, 39.06 0.98, 38.57 3.74 M34.82 0 C38.19 0.25, 38.88 1.67, 38.57 3.74 M38.57 3.74 C38.75 6.36, 38.4 8.68, 38.57 11.23 M38.57 3.74 C38.62 5.92, 38.57 8.34, 38.57 11.23 M38.57 11.23 C39.27 13.12, 38.08 15.72, 34.82 14.98 M38.57 11.23 C38.35 13.47, 37.63 14.34, 34.82 14.98 M34.82 14.98 C25.91 15.16, 19.2 14.5, 3.74 14.98 M34.82 14.98 C27.5 14.85, 19.86 14.67, 3.74 14.98 M3.74 14.98 C0.5 15.71, -0.82 13.95, 0 11.23 M3.74 14.98 C0.18 14.7, -0.05 13.02, 0 11.23 M0 11.23 C0.24 8.84, 0.18 6.41, 0 3.74 M0 11.23 C0.01 8.6, -0.08 6.28, 0 3.74 M0 3.74 C0.71 0.85, 0.91 0.14, 3.74 0 M0 3.74 C-0.19 2.07, 0.73 0.86, 3.74 0" stroke="#343a40" stroke-width="2" fill="none"></path></g><g stroke-linecap="round" transform="translate(13.186373760761398 24.156708609438283) rotate(47.524435689906944 13.974609375 10.47265625)"><path d="M5.24 0 C8.05 0.98, 14.42 3.14, 22.71 0 C27.99 -0.4, 25.9 2.2, 27.95 5.24 C26.51 9.19, 27.39 14.28, 27.95 15.71 C31.2 16.24, 27.37 21.43, 22.71 20.95 C18.44 22.2, 15.68 21.45, 5.24 20.95 C0.01 23.03, 1.02 16.09, 0 15.71 C-0.82 12.54, 0.2 7.97, 0 5.24 C1.78 -0.71, -1.3 -2.07, 5.24 0" stroke="none" stroke-width="0" fill="#eaddd7"></path><path d="M5.24 0 C9.49 -0.68, 14.08 0.33, 22.71 0 M5.24 0 C12.45 -0.39, 19.41 0.77, 22.71 0 M22.71 0 C27.18 -0.54, 29.47 2.18, 27.95 5.24 M22.71 0 C26.82 0.84, 29.2 0.41, 27.95 5.24 M27.95 5.24 C27.6 7.72, 28.08 11.55, 27.95 15.71 M27.95 5.24 C28.09 8.05, 28.36 10.51, 27.95 15.71 M27.95 15.71 C29.47 20.68, 25.83 20.5, 22.71 20.95 M27.95 15.71 C28.58 17.92, 25.43 22.55, 22.71 20.95 M22.71 20.95 C17.67 19.91, 8.23 22.21, 5.24 20.95 M22.71 20.95 C17.07 20.41, 12.08 21.55, 5.24 20.95 M5.24 20.95 C0.11 21.39, -1.85 18.72, 0 15.71 M5.24 20.95 C1.64 19.52, 0.07 19.39, 0 15.71 M0 15.71 C0.45 10.84, 0.35 8.01, 0 5.24 M0 15.71 C-0.18 13.6, 0.35 10.49, 0 5.24 M0 5.24 C-0.67 2.03, 1.41 1.43, 5.24 0 M0 5.24 C-1.03 3.46, 2.68 -0.93, 5.24 0" stroke="#1e1e1e" stroke-width="2" fill="none"></path></g><g stroke-linecap="round" transform="translate(28.10504480902 38.92300118694311) rotate(47.524435689906944 25.4296875 23.859375)"><path d="M24.91 0.9 C30.29 0.42, 37.64 1.98, 41.97 4.89 C46.29 7.81, 49.83 13.27, 50.86 18.41 C51.89 23.55, 50.94 31.09, 48.15 35.73 C45.35 40.37, 39.3 44.51, 34.08 46.25 C28.87 47.98, 21.78 47.69, 16.84 46.15 C11.9 44.6, 7.29 41.35, 4.46 36.98 C1.64 32.62, -0.83 25.14, -0.11 19.94 C0.61 14.74, 4.16 9.18, 8.77 5.78 C13.37 2.39, 24.06 0.37, 27.51 -0.41 C30.96 -1.2, 29.65 0.71, 29.44 1.09 M17.37 1.7 C22.57 0.04, 30.78 0.68, 35.79 2.28 C40.8 3.89, 44.97 6.76, 47.44 11.32 C49.91 15.89, 51.8 24.39, 50.61 29.67 C49.42 34.94, 44.72 40.01, 40.3 43 C35.88 45.99, 29.4 47.66, 24.1 47.6 C18.81 47.53, 12.26 46.13, 8.53 42.62 C4.79 39.1, 2.44 31.61, 1.69 26.49 C0.94 21.37, 1.7 15.83, 4.05 11.88 C6.4 7.94, 13.53 4.53, 15.79 2.81 C18.06 1.09, 17.2 1.39, 17.64 1.57" stroke="none" stroke-width="0" fill="#eaddd7"></path><path d="M28.2 0.86 C33.14 1.29, 39.77 5.04, 43.67 8.8 C47.57 12.55, 51.32 18.34, 51.59 23.41 C51.86 28.48, 48.69 35.22, 45.27 39.22 C41.85 43.23, 36.27 46.39, 31.05 47.44 C25.83 48.49, 18.91 47.89, 13.96 45.52 C9 43.15, 3.35 38.09, 1.31 33.25 C-0.72 28.41, 0.06 21.59, 1.75 16.49 C3.44 11.4, 6.46 5.44, 11.47 2.7 C16.49 -0.04, 28.07 0.11, 31.84 0.07 C35.61 0.04, 34.32 1.96, 34.09 2.49 M26.92 1.11 C31.88 0.97, 37.76 2.45, 41.77 5.46 C45.77 8.48, 50.11 13.93, 50.94 19.21 C51.78 24.48, 49.42 32.75, 46.77 37.12 C44.12 41.5, 40.07 43.71, 35.02 45.45 C29.97 47.19, 21.94 49.39, 16.49 47.56 C11.04 45.74, 4.83 39.25, 2.33 34.52 C-0.16 29.79, 0.37 24.08, 1.52 19.17 C2.68 14.26, 5.41 8.4, 9.26 5.07 C13.12 1.73, 22.09 -0.27, 24.65 -0.85 C27.22 -1.43, 24.68 0.98, 24.66 1.58" stroke="#1e1e1e" stroke-width="2" fill="none"></path></g></svg>