<svg version="1.1" xmlns="http://www.w3.org/2000/svg" viewBox="0 0 106.89305606447624 140.8422378015016" width="106.89305606447624" height="140.8422378015016">
  <!-- svg-source:excalidraw -->
  
  <defs>
    <style class="style-fonts">
      @font-face {
        font-family: "Virgil";
        src: url("https://excalidraw.com/Virgil.woff2");
      }
      @font-face {
        font-family: "Cascadia";
        src: url("https://excalidraw.com/Cascadia.woff2");
      }
      @font-face {
        font-family: "Assistant";
        src: url("https://excalidraw.com/Assistant-Regular.woff2");
      }
    </style>
    
  </defs>
  <g stroke-linecap="round" transform="translate(35.68620237129426 109.06643921733757) rotate(22.461246866865288 19.283203125 7.48828125)"><path d="M3.74 0 C8.56 -0.63, 16.73 1.72, 34.82 0 C37.44 0.51, 37.33 1.12, 38.57 3.74 C37.89 5.59, 38.78 8.67, 38.57 11.23 C36.25 16.17, 38.32 17.49, 34.82 14.98 C29.94 16.48, 22.59 16.59, 3.74 14.98 C1.6 15.04, 1.85 15.57, 0 11.23 C0.31 8.55, -0.2 5.37, 0 3.74 C1.52 -0.86, 3.38 -0.03, 3.74 0" stroke="none" stroke-width="0" fill="#868e96"></path><path d="M3.74 0 C9.48 0.45, 16.23 -0.29, 34.82 0 M3.74 0 C10.66 -0.08, 18.56 -0.42, 34.82 0 M34.82 0 C38.24 0.72, 39.11 2.14, 38.57 3.74 M34.82 0 C37.04 0.91, 39.56 2.3, 38.57 3.74 M38.57 3.74 C38.66 5.24, 38.29 7.39, 38.57 11.23 M38.57 3.74 C38.45 6.2, 38.42 8.34, 38.57 11.23 M38.57 11.23 C38.89 13.47, 36.71 14.95, 34.82 14.98 M38.57 11.23 C39.58 14.3, 36.74 14.23, 34.82 14.98 M34.82 14.98 C24.87 15.34, 14.45 15.01, 3.74 14.98 M34.82 14.98 C25.38 14.41, 15.48 15.21, 3.74 14.98 M3.74 14.98 C2.09 15.68, 0.14 14.32, 0 11.23 M3.74 14.98 C1.23 15.03, -0.89 13.04, 0 11.23 M0 11.23 C0.07 9.58, -0.15 7.35, 0 3.74 M0 11.23 C-0.06 8.36, 0.02 5.44, 0 3.74 M0 3.74 C0.42 1.01, 0.81 -0.57, 3.74 0 M0 3.74 C-0.92 0.78, 0.28 0.66, 3.74 0" stroke="#1e1e1e" stroke-width="2" fill="none"></path></g><g stroke-linecap="round" transform="translate(35.50032997546032 16.919422171883525) rotate(22.923355211056883 19.283203125 7.48828125)"><path d="M3.74 0 C14.05 2.11, 28 0.55, 34.82 0 C36.09 -0.13, 37.8 -0.84, 38.57 3.74 C38.79 7.32, 37.64 10.07, 38.57 11.23 C39.56 16.24, 35.07 13.5, 34.82 14.98 C23.95 16.44, 11.36 15.22, 3.74 14.98 C3.1 16.82, 1.9 13.26, 0 11.23 C-0.25 8.7, 0.54 5.92, 0 3.74 C2.13 1.21, 2.16 -2.22, 3.74 0" stroke="none" stroke-width="0" fill="#868e96"></path><path d="M3.74 0 C10.94 -0.44, 18.15 -0.27, 34.82 0 M3.74 0 C12.98 -0.41, 22.07 0.39, 34.82 0 M34.82 0 C37.87 0.89, 38.33 2.04, 38.57 3.74 M34.82 0 C38.31 1.05, 37.65 1.86, 38.57 3.74 M38.57 3.74 C38.28 5.78, 38.59 6.82, 38.57 11.23 M38.57 3.74 C38.43 5.93, 38.61 7.97, 38.57 11.23 M38.57 11.23 C37.95 13.7, 38.2 15.47, 34.82 14.98 M38.57 11.23 C37.99 12.98, 37.72 14.44, 34.82 14.98 M34.82 14.98 C26.05 15.07, 16.54 15.06, 3.74 14.98 M34.82 14.98 C28.62 15.2, 21.9 15.19, 3.74 14.98 M3.74 14.98 C1.39 15.56, -0.02 13.78, 0 11.23 M3.74 14.98 C0.36 14.29, -0.56 12.68, 0 11.23 M0 11.23 C-0.19 9.44, 0.32 7.66, 0 3.74 M0 11.23 C0.02 9.18, 0.09 7.05, 0 3.74 M0 3.74 C-0.44 0.68, 0.45 -0.4, 3.74 0 M0 3.74 C-0.96 1.9, 0.53 1.08, 3.74 0" stroke="#1e1e1e" stroke-width="2" fill="none"></path></g><g stroke-linecap="round" transform="translate(11.63133731447624 32.545724255215646) rotate(0 42.630859375 38.322265625)"><path d="M19.16 0 C32.91 0.04, 44.64 -0.85, 66.1 0 C77.82 -2.89, 87.46 4.16, 85.26 19.16 C82.25 33.31, 86.85 44.19, 85.26 57.48 C82.14 68.21, 81.86 79.07, 66.1 76.64 C50.39 77.15, 36.29 79.61, 19.16 76.64 C9.02 76, 0.06 71.35, 0 57.48 C2.26 42.65, 3.1 33.59, 0 19.16 C1.26 3.32, 5.88 2.73, 19.16 0" stroke="none" stroke-width="0" fill="#7950f2"></path><path d="M19.16 0 C33.61 -0.25, 50.47 -1.17, 66.1 0 M19.16 0 C33.26 1.13, 46.08 1.3, 66.1 0 M66.1 0 C78.4 1.58, 86.98 8.21, 85.26 19.16 M66.1 0 C77.05 1.23, 83.54 6.86, 85.26 19.16 M85.26 19.16 C85.04 27.46, 84.66 38.07, 85.26 57.48 M85.26 19.16 C85.35 34.04, 84.41 49.41, 85.26 57.48 M85.26 57.48 C87.02 71.25, 77.87 75.34, 66.1 76.64 M85.26 57.48 C86.07 69.18, 78.81 77.72, 66.1 76.64 M66.1 76.64 C50.68 76.72, 32.79 78.52, 19.16 76.64 M66.1 76.64 C56.92 77.69, 46.18 77.57, 19.16 76.64 M19.16 76.64 C6.35 76.74, -1.54 69.07, 0 57.48 M19.16 76.64 C5.27 74.54, -1.77 70.49, 0 57.48 M0 57.48 C1.94 42.46, -0.28 29.04, 0 19.16 M0 57.48 C0.42 45.03, -0.44 32.48, 0 19.16 M0 19.16 C-1.6 5.58, 4.71 1.14, 19.16 0 M0 19.16 C-1.44 8.55, 8.42 -2.26, 19.16 0" stroke="#1e1e1e" stroke-width="2" fill="none"></path></g><g stroke-linecap="round" transform="translate(13.186373760761398 88.17832059975444) rotate(312.47556431009303 13.974609375 10.47265625)"><path d="M5.24 0 C13.02 -0.15, 16.77 -1.37, 22.71 0 C24.17 -3.4, 27.84 0.95, 27.95 5.24 C26.05 9.72, 28.83 11.17, 27.95 15.71 C28.82 18.49, 29.13 19.46, 22.71 20.95 C15.14 22.55, 8.68 18.57, 5.24 20.95 C3.13 18.07, 3.06 16.43, 0 15.71 C-0.24 13.57, 0.13 8.9, 0 5.24 C1.96 3.67, 4.94 -1.45, 5.24 0" stroke="none" stroke-width="0" fill="#d0bfff"></path><path d="M5.24 0 C13.34 0.11, 20 -0.18, 22.71 0 M5.24 0 C10.14 -0.69, 15.22 0.19, 22.71 0 M22.71 0 C27.4 -0.98, 27.3 3.5, 27.95 5.24 M22.71 0 C24.79 -0.54, 26.96 2.18, 27.95 5.24 M27.95 5.24 C27.71 7.92, 27.36 10.68, 27.95 15.71 M27.95 5.24 C27.53 8.45, 28.32 10.16, 27.95 15.71 M27.95 15.71 C27.74 17.84, 27.8 21.04, 22.71 20.95 M27.95 15.71 C28.4 18.11, 26.09 20.27, 22.71 20.95 M22.71 20.95 C18.54 21.36, 16.6 19.28, 5.24 20.95 M22.71 20.95 C15.07 20.62, 9.67 21.7, 5.24 20.95 M5.24 20.95 C2.64 21.74, 0.98 19.47, 0 15.71 M5.24 20.95 C1.8 22.58, 1.63 20.88, 0 15.71 M0 15.71 C0.11 12.52, -0.3 10.41, 0 5.24 M0 15.71 C0.1 12.97, -0.16 11.52, 0 5.24 M0 5.24 C1.74 2.6, 3.32 1.48, 5.24 0 M0 5.24 C2.11 1.15, 0.58 0.91, 5.24 0" stroke="#1e1e1e" stroke-width="2" fill="none"></path></g><g stroke-linecap="round" transform="translate(28.105044809020455 46.951090522250524) rotate(312.47556431009303 25.4296875 23.859375)"><path d="M26.48 -0.18 C31.54 -0.49, 38.01 2.75, 42.04 6.08 C46.06 9.41, 49.81 14.7, 50.64 19.79 C51.47 24.88, 49.95 32.06, 47.01 36.63 C44.07 41.2, 38.12 45.55, 33.02 47.2 C27.92 48.85, 21.52 48.49, 16.42 46.52 C11.32 44.56, 4.93 39.76, 2.4 35.39 C-0.14 31.02, -0.02 25.16, 1.2 20.29 C2.43 15.43, 4.77 9.33, 9.76 6.18 C14.74 3.03, 27 2.13, 31.1 1.37 C35.21 0.61, 34.51 1.43, 34.37 1.62 M14 3.53 C18.17 0.68, 25.62 -1.22, 30.69 -0.22 C35.75 0.78, 41.06 5.38, 44.36 9.51 C47.66 13.63, 50.68 19.23, 50.49 24.55 C50.3 29.87, 47.13 37.36, 43.22 41.43 C39.31 45.5, 32.18 48.49, 27.03 48.96 C21.88 49.43, 16.57 47.33, 12.3 44.25 C8.04 41.17, 2.96 35.54, 1.45 30.48 C-0.05 25.42, 1.15 18.45, 3.27 13.86 C5.39 9.26, 12.48 4.89, 14.18 2.91 C15.88 0.94, 13.17 1.96, 13.46 2.02" stroke="none" stroke-width="0" fill="#d0bfff"></path><path d="M24.6 -0.49 C29.61 -0.84, 36.36 1.24, 40.68 4.67 C45.01 8.11, 49.47 15, 50.53 20.1 C51.6 25.2, 49.63 31.03, 47.08 35.27 C44.52 39.52, 40.28 43.82, 35.22 45.59 C30.16 47.37, 21.97 47.53, 16.72 45.92 C11.46 44.32, 6.43 40.24, 3.71 35.98 C1 31.72, -0.4 25.47, 0.43 20.35 C1.25 15.23, 3.74 8.73, 8.67 5.28 C13.6 1.84, 25.6 0.3, 30.01 -0.31 C34.42 -0.91, 35.02 1.23, 35.12 1.64 M36.78 1.56 C41.52 3.75, 47.81 9.82, 50.02 14.57 C52.23 19.32, 51.85 25.28, 50.06 30.09 C48.26 34.89, 44.05 40.35, 39.24 43.41 C34.42 46.47, 26.72 49.05, 21.16 48.46 C15.61 47.87, 9.38 43.54, 5.93 39.88 C2.48 36.21, 0.84 31.31, 0.48 26.49 C0.12 21.67, 0.46 15.01, 3.76 10.94 C7.05 6.87, 14.93 3.6, 20.25 2.07 C25.56 0.53, 32.69 1.4, 35.64 1.73 C38.59 2.05, 37.82 3.42, 37.95 4.02" stroke="#1e1e1e" stroke-width="2" fill="none"></path></g></svg>