<svg version="1.1" xmlns="http://www.w3.org/2000/svg" viewBox="0 0 114.98702566964403 140.8422378015016" width="114.98702566964403" height="140.8422378015016">
  <!-- svg-source:excalidraw -->
  
  <defs>
    <style class="style-fonts">
      @font-face {
        font-family: "Virgil";
        src: url("https://excalidraw.com/Virgil.woff2");
      }
      @font-face {
        font-family: "Cascadia";
        src: url("https://excalidraw.com/Cascadia.woff2");
      }
      @font-face {
        font-family: "Assistant";
        src: url("https://excalidraw.com/Assistant-Regular.woff2");
      }
    </style>
    
  </defs>
  <g stroke-linecap="round" transform="translate(34.05486505681802 109.06643921733757) rotate(22.461246866865288 19.283203125 7.48828125)"><path d="M3.74 0 C15.04 -0.75, 22.59 0.5, 34.82 0 C37.61 -0.58, 37.84 2.77, 38.57 3.74 C38.99 4.55, 38.51 7.76, 38.57 11.23 C40.83 14.84, 39.37 16.9, 34.82 14.98 C23.68 14.06, 8.05 16.92, 3.74 14.98 C3.75 15.07, 1.66 12.81, 0 11.23 C-0.12 9.01, -0.4 8.4, 0 3.74 C-2.48 3.7, 2.6 0.71, 3.74 0" stroke="none" stroke-width="0" fill="#868e96"></path><path d="M3.74 0 C11.55 -0.55, 17.7 0.4, 34.82 0 M3.74 0 C12.72 0.25, 20.56 -0.32, 34.82 0 M34.82 0 C37.67 -0.47, 38.54 1.71, 38.57 3.74 M34.82 0 C37.74 0.53, 38.61 1.46, 38.57 3.74 M38.57 3.74 C38.21 6.36, 38.81 8.6, 38.57 11.23 M38.57 3.74 C38.57 6.53, 38.43 9.18, 38.57 11.23 M38.57 11.23 C38.08 12.81, 36.55 15.08, 34.82 14.98 M38.57 11.23 C39.26 13.16, 36.94 15.98, 34.82 14.98 M34.82 14.98 C27.6 14.91, 20.07 15.33, 3.74 14.98 M34.82 14.98 C25.83 14.69, 17.22 15.17, 3.74 14.98 M3.74 14.98 C0.62 15.92, 0.88 12.74, 0 11.23 M3.74 14.98 C1.13 14.19, 0.92 13.78, 0 11.23 M0 11.23 C-0.09 8.54, 0.25 6.21, 0 3.74 M0 11.23 C-0.18 9.3, 0.06 7.2, 0 3.74 M0 3.74 C-0.87 0.68, 2.08 0.67, 3.74 0 M0 3.74 C0.52 1.7, 1.81 0.15, 3.74 0" stroke="#1e1e1e" stroke-width="2" fill="none"></path></g><g stroke-linecap="round" transform="translate(33.868992660984986 16.919422171883525) rotate(22.923355211056883 19.283203125 7.48828125)"><path d="M3.74 0 C15.31 0.86, 27.08 -0.51, 34.82 0 C36.59 1.52, 36.46 3.38, 38.57 3.74 C38.46 6.72, 39.45 8.63, 38.57 11.23 C40.62 15.65, 39.7 14.3, 34.82 14.98 C24.64 17.02, 21.83 14.96, 3.74 14.98 C2.9 14.06, -1.47 11.27, 0 11.23 C-0.48 9.82, -0.91 7.7, 0 3.74 C1.35 1.96, 1.88 -0.51, 3.74 0" stroke="none" stroke-width="0" fill="#868e96"></path><path d="M3.74 0 C11.95 0.42, 19.4 -0.52, 34.82 0 M3.74 0 C12.74 -0.4, 22.41 -0.31, 34.82 0 M34.82 0 C37.29 0.47, 38.93 1.71, 38.57 3.74 M34.82 0 C37.36 0.22, 38.6 0.27, 38.57 3.74 M38.57 3.74 C38.8 7, 38.8 9.68, 38.57 11.23 M38.57 3.74 C38.42 6.32, 38.47 8.95, 38.57 11.23 M38.57 11.23 C37.8 13.83, 37.92 14.48, 34.82 14.98 M38.57 11.23 C38.19 14.74, 36.61 14.71, 34.82 14.98 M34.82 14.98 C26.91 15.4, 18.61 14.54, 3.74 14.98 M34.82 14.98 C26.85 15.2, 19.4 15.38, 3.74 14.98 M3.74 14.98 C2.13 13.99, -0.1 13.05, 0 11.23 M3.74 14.98 C2.16 15.03, 0.23 13.18, 0 11.23 M0 11.23 C0.24 8.79, -0.06 6.92, 0 3.74 M0 11.23 C0.11 8.5, -0.13 5.29, 0 3.74 M0 3.74 C0.83 1.92, 1.7 0.4, 3.74 0 M0 3.74 C0.57 1.4, 1.28 0.82, 3.74 0" stroke="#1e1e1e" stroke-width="2" fill="none"></path></g><g stroke-linecap="round" transform="translate(10 32.545724255215646) rotate(0 42.630859375 38.322265625)"><path d="M19.16 0 C32.8 -1.06, 44.63 1.85, 66.1 0 C75.96 2.95, 85.21 7.64, 85.26 19.16 C88.3 28.93, 88.01 38.28, 85.26 57.48 C88.56 69.32, 77.04 78.07, 66.1 76.64 C56.76 77.47, 42.8 76.07, 19.16 76.64 C4.36 73.25, -0.11 69.47, 0 57.48 C-3.09 50.97, 2.22 38.64, 0 19.16 C0.87 5.68, 9.32 -1.49, 19.16 0" stroke="none" stroke-width="0" fill="#7950f2"></path><path d="M19.16 0 C29.82 -1.38, 41.44 1.6, 66.1 0 M19.16 0 C35.91 -0.16, 51.94 0.77, 66.1 0 M66.1 0 C79.61 0.92, 85.34 6.76, 85.26 19.16 M66.1 0 C78.94 -1.96, 87.4 4.4, 85.26 19.16 M85.26 19.16 C86.95 34.51, 86.71 49.25, 85.26 57.48 M85.26 19.16 C84.48 29.93, 84.2 42.62, 85.26 57.48 M85.26 57.48 C86.46 69.27, 78.22 78.4, 66.1 76.64 M85.26 57.48 C83.85 69.72, 77.89 77.08, 66.1 76.64 M66.1 76.64 C51.54 75.96, 36.78 75.24, 19.16 76.64 M66.1 76.64 C53.29 77.85, 42.62 75.93, 19.16 76.64 M19.16 76.64 C6.18 75.28, 1.59 70.35, 0 57.48 M19.16 76.64 C6.84 75.55, -0.11 69.58, 0 57.48 M0 57.48 C-0.61 49.66, 1.56 38.86, 0 19.16 M0 57.48 C-1.01 41.82, 0.68 27.97, 0 19.16 M0 19.16 C0.9 7.18, 7.37 0.27, 19.16 0 M0 19.16 C0.06 8.03, 8.01 1.68, 19.16 0" stroke="#1e1e1e" stroke-width="2" fill="none"></path></g><g stroke-linecap="round" transform="translate(77.03780691964403 58.64210104360882) rotate(0 13.974609375 10.47265625)"><path d="M5.24 0 C10.12 1.91, 14.23 2.65, 22.71 0 C26.16 1.26, 24.88 1.24, 27.95 5.24 C29.6 10.57, 29.84 12.62, 27.95 15.71 C26.12 20.62, 25.22 17.57, 22.71 20.95 C18.03 19.84, 7.56 17.99, 5.24 20.95 C1.64 20.15, -1.49 17.36, 0 15.71 C1.16 12.21, 0.63 7.3, 0 5.24 C2.93 0.26, 2.31 0.82, 5.24 0" stroke="none" stroke-width="0" fill="#d0bfff"></path><path d="M5.24 0 C11.01 1.64, 17.73 -0.77, 22.71 0 M5.24 0 C9.31 0.49, 13.76 0.48, 22.71 0 M22.71 0 C26.28 0.37, 28.01 0.04, 27.95 5.24 M22.71 0 C28.34 -1.98, 30.09 3.41, 27.95 5.24 M27.95 5.24 C28.64 9.25, 28.07 12.49, 27.95 15.71 M27.95 5.24 C27.5 7.81, 28.21 10.01, 27.95 15.71 M27.95 15.71 C27.3 20.95, 24.98 20.48, 22.71 20.95 M27.95 15.71 C26.96 19.63, 26.21 21.13, 22.71 20.95 M22.71 20.95 C15.74 19.47, 10.06 19.4, 5.24 20.95 M22.71 20.95 C17.24 20.25, 10.14 20.52, 5.24 20.95 M5.24 20.95 C3.34 21.04, 0.39 18.25, 0 15.71 M5.24 20.95 C1.63 20.27, -1.85 20.6, 0 15.71 M0 15.71 C0.96 12.28, 1 11.12, 0 5.24 M0 15.71 C0.53 11.91, 0.33 7.61, 0 5.24 M0 5.24 C0.98 2.01, 1.8 1.43, 5.24 0 M0 5.24 C1.63 3.43, 1.33 0.04, 5.24 0" stroke="#1e1e1e" stroke-width="2" fill="none"></path></g><g stroke-linecap="round" transform="translate(27.238978794644026 44.60303854360882) rotate(0 25.4296875 23.859375)"><path d="M25.42 -0.61 C30.6 -0.85, 36.8 2.37, 41.11 5.51 C45.41 8.65, 49.99 13.22, 51.25 18.25 C52.52 23.28, 51.29 31.17, 48.7 35.66 C46.1 40.16, 41 43.27, 35.68 45.21 C30.35 47.15, 21.96 48.71, 16.75 47.3 C11.54 45.89, 7.08 41.16, 4.4 36.74 C1.72 32.32, -0.04 25.91, 0.68 20.78 C1.41 15.66, 4.2 9.32, 8.75 5.99 C13.29 2.65, 24.35 1.66, 27.94 0.77 C31.53 -0.13, 30.43 0.29, 30.28 0.62 M27.72 -1.18 C33.17 -1.14, 40.15 2.96, 44.06 6.44 C47.98 9.93, 50.8 14.48, 51.2 19.75 C51.61 25.02, 49.35 33.46, 46.5 38.06 C43.65 42.66, 39.07 45.87, 34.09 47.34 C29.11 48.81, 21.6 49.09, 16.6 46.9 C11.6 44.72, 6.89 38.88, 4.11 34.23 C1.32 29.58, -1.04 24.15, -0.09 19.01 C0.85 13.86, 5.09 6.27, 9.78 3.35 C14.48 0.43, 25.24 1.79, 28.09 1.48 C30.93 1.16, 27.19 1.45, 26.87 1.47" stroke="none" stroke-width="0" fill="#d0bfff"></path><path d="M18.67 0.71 C23.79 -0.78, 31.85 0.49, 36.91 2.72 C41.98 4.95, 46.86 9.47, 49.06 14.07 C51.26 18.67, 51.79 25.26, 50.1 30.33 C48.41 35.4, 43.59 41.46, 38.92 44.49 C34.24 47.53, 27.21 49.05, 22.05 48.53 C16.9 48.01, 11.51 45.17, 7.96 41.38 C4.42 37.59, 1.21 31.05, 0.78 25.81 C0.34 20.56, 1.2 14.36, 5.36 9.93 C9.52 5.5, 21.38 0.75, 25.73 -0.77 C30.09 -2.28, 31.65 0.44, 31.48 0.84 M26.24 1.35 C31.12 1.35, 37.86 2.73, 41.82 6.04 C45.79 9.34, 49.2 16.05, 50.02 21.2 C50.85 26.35, 49.53 32.76, 46.78 36.94 C44.03 41.13, 38.85 44.97, 33.53 46.31 C28.21 47.65, 20.19 47.01, 14.87 44.98 C9.54 42.95, 4.17 38.38, 1.59 34.11 C-1 29.85, -1.88 24.03, -0.61 19.38 C0.65 14.74, 4.38 9.71, 9.16 6.23 C13.94 2.76, 25.15 -0.32, 28.05 -1.45 C30.95 -2.57, 26.59 -1.17, 26.54 -0.51" stroke="#1e1e1e" stroke-width="2" fill="none"></path></g></svg>