<svg version="1.1" xmlns="http://www.w3.org/2000/svg" viewBox="0 0 108.91314535019092 140.8422378015016" width="108.91314535019092" height="140.8422378015016">
  <!-- svg-source:excalidraw -->
  
  <defs>
    <style class="style-fonts">
      @font-face {
        font-family: "Virgil";
        src: url("https://excalidraw.com/Virgil.woff2");
      }
      @font-face {
        font-family: "Cascadia";
        src: url("https://excalidraw.com/Cascadia.woff2");
      }
      @font-face {
        font-family: "Assistant";
        src: url("https://excalidraw.com/Assistant-Regular.woff2");
      }
    </style>
    
  </defs>
  <g stroke-linecap="round" transform="translate(37.70629165700893 109.06643921733757) rotate(22.461246866865288 19.283203125 7.48828125)"><path d="M3.74 0 C10.08 1.02, 19.73 -2.07, 34.82 0 C39.76 1, 41.08 -1, 38.57 3.74 C39.08 5.95, 39.13 7.51, 38.57 11.23 C38.63 15.58, 39.16 16.88, 34.82 14.98 C26.35 14.52, 16.56 16.62, 3.74 14.98 C-0.86 17.11, -0.03 14.64, 0 11.23 C0.86 10.04, 0.78 8.74, 0 3.74 C2.38 0.57, -0.07 1.03, 3.74 0" stroke="none" stroke-width="0" fill="#868e96"></path><path d="M3.74 0 C15.65 0.41, 27.01 -0.38, 34.82 0 M3.74 0 C15.13 0.13, 26.94 -0.04, 34.82 0 M34.82 0 C36.9 -0.79, 39.49 1.29, 38.57 3.74 M34.82 0 C36.4 -0.17, 38.06 2.34, 38.57 3.74 M38.57 3.74 C38.48 5.3, 38.57 7.64, 38.57 11.23 M38.57 3.74 C38.61 6.27, 38.54 9.06, 38.57 11.23 M38.57 11.23 C38.93 14.19, 37.36 15.16, 34.82 14.98 M38.57 11.23 C38.6 12.75, 38.39 13.98, 34.82 14.98 M34.82 14.98 C23.31 15.25, 10.98 15.09, 3.74 14.98 M34.82 14.98 C25.11 14.43, 15.5 14.93, 3.74 14.98 M3.74 14.98 C1.85 14.48, -0.33 14.61, 0 11.23 M3.74 14.98 C0.54 14.71, -0.49 13.95, 0 11.23 M0 11.23 C-0.09 8.82, -0.22 6.44, 0 3.74 M0 11.23 C-0.09 9.46, 0.2 7.16, 0 3.74 M0 3.74 C-0.1 0.57, 2.05 0.05, 3.74 0 M0 3.74 C0.23 0.7, 1.19 -0.34, 3.74 0" stroke="#1e1e1e" stroke-width="2" fill="none"></path></g><g stroke-linecap="round" transform="translate(37.5204192611759 16.919422171883525) rotate(22.923355211056883 19.283203125 7.48828125)"><path d="M3.74 0 C13.47 -2.44, 20.98 0.88, 34.82 0 C39.83 -2.25, 37.09 3.41, 38.57 3.74 C39.09 6.62, 38.63 9.94, 38.57 11.23 C40.41 15.63, 36.85 15.02, 34.82 14.98 C23.83 16.41, 12.19 17.02, 3.74 14.98 C1.21 15.88, -2.22 13.36, 0 11.23 C0.68 9.14, 0.81 5.35, 0 3.74 C-1.32 2.28, 0.54 -2.44, 3.74 0" stroke="none" stroke-width="0" fill="#868e96"></path><path d="M3.74 0 C16.81 -0.32, 28.88 0.78, 34.82 0 M3.74 0 C15.53 0.02, 27.86 -0.48, 34.82 0 M34.82 0 C38.24 0.04, 37.77 1.1, 38.57 3.74 M34.82 0 C36.81 1.09, 37.85 1.54, 38.57 3.74 M38.57 3.74 C38.55 6.56, 38.74 8.54, 38.57 11.23 M38.57 3.74 C38.57 5.59, 38.65 7.35, 38.57 11.23 M38.57 11.23 C38.61 13.92, 37.35 14.12, 34.82 14.98 M38.57 11.23 C39.64 12.74, 38.39 15.81, 34.82 14.98 M34.82 14.98 C23.46 14.98, 10.96 14.23, 3.74 14.98 M34.82 14.98 C26.97 14.89, 20.18 14.59, 3.74 14.98 M3.74 14.98 C0.92 15.85, -0.61 13.49, 0 11.23 M3.74 14.98 C0.75 15.19, 0 13.82, 0 11.23 M0 11.23 C-0.2 8.37, -0.14 5.8, 0 3.74 M0 11.23 C0.19 8.37, 0 5.76, 0 3.74 M0 3.74 C0.8 1.29, 1.44 -0.47, 3.74 0 M0 3.74 C-0.06 0.91, 0.32 0.7, 3.74 0" stroke="#1e1e1e" stroke-width="2" fill="none"></path></g><g stroke-linecap="round" transform="translate(13.651426600190916 32.545724255215646) rotate(0 42.630859375 38.322265625)"><path d="M19.16 0 C38.01 2.14, 53.59 -2.36, 66.1 0 C76.82 2.99, 87.68 8, 85.26 19.16 C85.69 34.74, 88.15 47.83, 85.26 57.48 C84.62 70.32, 79.96 77.05, 66.1 76.64 C50.15 80.09, 39.99 78.4, 19.16 76.64 C3.32 76.13, 2.73 73.4, 0 57.48 C2.75 43.41, -2.37 32.64, 0 19.16 C-0.99 3.01, 9.37 3.46, 19.16 0" stroke="none" stroke-width="0" fill="#7950f2"></path><path d="M19.16 0 C37.4 1.83, 54.29 -1.48, 66.1 0 M19.16 0 C35.34 -0.89, 53.27 -0.06, 66.1 0 M66.1 0 C77.28 -0.3, 84.38 8.29, 85.26 19.16 M66.1 0 C77.45 0.58, 86.02 5.8, 85.26 19.16 M85.26 19.16 C86.24 27.31, 83.95 38.16, 85.26 57.48 M85.26 19.16 C85.62 29.33, 85.29 38.76, 85.26 57.48 M85.26 57.48 C85.32 68.55, 80.73 74.92, 66.1 76.64 M85.26 57.48 C87.4 71.92, 80.82 78.27, 66.1 76.64 M66.1 76.64 C51.43 75.1, 35.39 75.66, 19.16 76.64 M66.1 76.64 C56.91 76.2, 46.19 77.57, 19.16 76.64 M19.16 76.64 C5.16 76.18, -0.86 70.63, 0 57.48 M19.16 76.64 C6.39 76.83, 0.96 69.71, 0 57.48 M0 57.48 C-0.59 45.99, 1.36 36.6, 0 19.16 M0 57.48 C-0.44 41.71, 0.46 27.34, 0 19.16 M0 19.16 C0.39 5.44, 6.29 -0.59, 19.16 0 M0 19.16 C-1.85 7.79, 4.96 -0.43, 19.16 0" stroke="#1e1e1e" stroke-width="2" fill="none"></path></g><g stroke-linecap="round" transform="translate(13.186373760761398 31.768827916034752) rotate(47.524435689906944 13.974609375 10.47265625)"><path d="M5.24 0 C14.33 2.63, 17.95 -1.85, 22.71 0 C27.63 -0.99, 24.58 4.73, 27.95 5.24 C27.29 8.32, 26.18 13.48, 27.95 15.71 C27.16 17.71, 24.37 23.96, 22.71 20.95 C20 21.87, 14.95 23.67, 5.24 20.95 C0.26 21.51, 0.82 17.49, 0 15.71 C-1.44 13.98, -1.61 12.4, 0 5.24 C-2.77 4.65, 4.71 3.59, 5.24 0" stroke="none" stroke-width="0" fill="#d0bfff"></path><path d="M5.24 0 C11.45 0.04, 15.51 1.62, 22.71 0 M5.24 0 C9.71 0.49, 12.83 0.39, 22.71 0 M22.71 0 C26.17 0.09, 26.41 0.55, 27.95 5.24 M22.71 0 C25.08 -2.1, 26.18 1.98, 27.95 5.24 M27.95 5.24 C28.82 8.36, 27.65 12.33, 27.95 15.71 M27.95 5.24 C28.17 8.45, 27.72 11.62, 27.95 15.71 M27.95 15.71 C26.35 18.39, 24.53 22.09, 22.71 20.95 M27.95 15.71 C26.51 21.36, 28.24 18.68, 22.71 20.95 M22.71 20.95 C17.73 21.43, 11.76 21, 5.24 20.95 M22.71 20.95 C17.44 20.89, 13.51 21.83, 5.24 20.95 M5.24 20.95 C-0.04 22.82, 0.77 21.13, 0 15.71 M5.24 20.95 C-0.25 19.64, 1.91 20.75, 0 15.71 M0 15.71 C0.1 12.12, 0.7 9.23, 0 5.24 M0 15.71 C0.18 11.86, -0.1 7.75, 0 5.24 M0 5.24 C1.17 0.13, 3.38 -0.03, 5.24 0 M0 5.24 C0.8 -0.22, 1.42 1.75, 5.24 0" stroke="#1e1e1e" stroke-width="2" fill="none"></path></g><g stroke-linecap="round" transform="translate(28.105044809020455 46.22262049353867) rotate(47.524435689906944 25.4296875 23.859375)"><path d="M15.43 2.65 C20.15 0.28, 27.32 0.06, 32.48 1.32 C37.65 2.59, 43.28 6.03, 46.44 10.26 C49.6 14.49, 51.86 21.66, 51.47 26.72 C51.08 31.78, 48.07 37.07, 44.09 40.6 C40.11 44.14, 33.12 47.51, 27.59 47.94 C22.05 48.36, 15.39 46.04, 10.89 43.14 C6.39 40.24, 2.11 35.32, 0.57 30.55 C-0.98 25.78, -1.89 19.51, 1.61 14.53 C5.1 9.54, 17.19 2.96, 21.54 0.63 C25.9 -1.71, 27.55 0.05, 27.74 0.53 M32.19 0.15 C37 0.8, 41.73 5.97, 44.77 9.84 C47.81 13.71, 50.31 18.13, 50.43 23.38 C50.55 28.63, 49.08 37.16, 45.5 41.34 C41.91 45.52, 34.61 48.15, 28.92 48.46 C23.22 48.77, 16.19 46.09, 11.34 43.2 C6.48 40.3, 1.43 35.93, -0.2 31.09 C-1.83 26.26, -0.61 18.73, 1.56 14.21 C3.73 9.7, 8.18 6.04, 12.82 4 C17.46 1.96, 26.27 2.39, 29.39 1.96 C32.5 1.53, 31.28 1.32, 31.49 1.42" stroke="none" stroke-width="0" fill="#d0bfff"></path><path d="M37.55 3.38 C42.58 5.15, 47.34 9.99, 49.48 14.54 C51.62 19.09, 52.05 25.92, 50.38 30.67 C48.71 35.41, 44.21 40.28, 39.47 43.02 C34.72 45.75, 27.47 47.66, 21.9 47.07 C16.33 46.48, 9.66 43.01, 6.03 39.48 C2.41 35.94, 0.4 30.89, 0.15 25.86 C-0.1 20.83, 1.15 13.6, 4.53 9.3 C7.91 4.99, 14.89 1.14, 20.42 0.03 C25.96 -1.07, 34.63 1.99, 37.73 2.67 C40.82 3.35, 39.13 3.63, 38.98 4.12 M21.23 -0.44 C26.24 -1.03, 33.51 1.62, 38.11 4.76 C42.71 7.9, 46.84 13.88, 48.84 18.39 C50.84 22.89, 52.14 27.5, 50.12 31.8 C48.1 36.09, 41.61 41.58, 36.72 44.14 C31.84 46.7, 26.03 48.27, 20.8 47.15 C15.57 46.03, 8.82 41.61, 5.35 37.43 C1.88 33.25, -0.09 26.9, -0.03 22.07 C0.03 17.24, 2.11 12.13, 5.7 8.43 C9.29 4.73, 18.63 0.96, 21.51 -0.12 C24.38 -1.19, 22.96 1.31, 22.94 1.98" stroke="#1e1e1e" stroke-width="2" fill="none"></path></g></svg>