<svg version="1.1" xmlns="http://www.w3.org/2000/svg" viewBox="0 0 116.9010881696413 140.8422378015016" width="116.9010881696413" height="140.8422378015016">
  <!-- svg-source:excalidraw -->
  
  <defs>
    <style class="style-fonts">
      @font-face {
        font-family: "Virgil";
        src: url("https://excalidraw.com/Virgil.woff2");
      }
      @font-face {
        font-family: "Cascadia";
        src: url("https://excalidraw.com/Cascadia.woff2");
      }
      @font-face {
        font-family: "Assistant";
        src: url("https://excalidraw.com/Assistant-Regular.woff2");
      }
    </style>
    
  </defs>
  <g stroke-linecap="round" transform="translate(45.694234476459314 109.06643921733757) rotate(22.461246866865288 19.283203125 7.48828125)"><path d="M3.74 0 C14.31 -0.21, 26.58 -2.17, 34.82 0 C38.91 -1.61, 38.08 2.02, 38.57 3.74 C38.85 7.6, 37.64 9.02, 38.57 11.23 C40.73 15.48, 38.48 16.01, 34.82 14.98 C25.82 16.83, 15.02 14.52, 3.74 14.98 C1.29 15.76, 0.29 13.15, 0 11.23 C0.74 9.18, 0.28 6.33, 0 3.74 C-0.37 3.22, 3.52 1.11, 3.74 0" stroke="none" stroke-width="0" fill="#868e96"></path><path d="M3.74 0 C11.76 -0.64, 19.84 0.63, 34.82 0 M3.74 0 C10.61 0.33, 16.82 0.28, 34.82 0 M34.82 0 C38.18 0.91, 37.77 1.78, 38.57 3.74 M34.82 0 C36.46 0.24, 38.08 0.34, 38.57 3.74 M38.57 3.74 C38.51 6.52, 38.92 9.39, 38.57 11.23 M38.57 3.74 C38.46 6.17, 38.74 8.71, 38.57 11.23 M38.57 11.23 C38.07 13.08, 37.67 14.51, 34.82 14.98 M38.57 11.23 C38.53 14.26, 37.74 15.51, 34.82 14.98 M34.82 14.98 C24.52 15.91, 15.06 15.91, 3.74 14.98 M34.82 14.98 C23.32 15.38, 11.67 15.11, 3.74 14.98 M3.74 14.98 C0.48 14.38, -0.49 12.81, 0 11.23 M3.74 14.98 C0.36 15.09, 0.69 13.16, 0 11.23 M0 11.23 C-0.12 9.07, 0.04 7.23, 0 3.74 M0 11.23 C-0.1 8.82, -0.17 6.55, 0 3.74 M0 3.74 C-0.84 1.82, 0.62 0.94, 3.74 0 M0 3.74 C1.02 0.12, 1.13 -0.78, 3.74 0" stroke="#1e1e1e" stroke-width="2" fill="none"></path></g><g stroke-linecap="round" transform="translate(45.508362080626284 16.919422171883525) rotate(22.923355211056883 19.283203125 7.48828125)"><path d="M3.74 0 C12.92 -2.07, 25.2 -1.59, 34.82 0 C36.83 0.77, 40.9 -1.07, 38.57 3.74 C37.76 6.14, 39.41 10.3, 38.57 11.23 C39.73 14.76, 38.6 15.32, 34.82 14.98 C27.32 14.8, 16.07 16.05, 3.74 14.98 C1.54 14.4, -0.73 15.25, 0 11.23 C0.26 8.76, -0.22 8.69, 0 3.74 C2.27 2.36, 3.3 1.92, 3.74 0" stroke="none" stroke-width="0" fill="#868e96"></path><path d="M3.74 0 C12.21 0.71, 20.19 1.02, 34.82 0 M3.74 0 C15.18 0.26, 27.28 0.32, 34.82 0 M34.82 0 C36.52 0.54, 37.82 1.45, 38.57 3.74 M34.82 0 C36.84 -0.91, 39.63 1.29, 38.57 3.74 M38.57 3.74 C38.92 5.16, 38.65 7.17, 38.57 11.23 M38.57 3.74 C38.71 5.89, 38.45 7.73, 38.57 11.23 M38.57 11.23 C38.92 13.26, 37.29 15.44, 34.82 14.98 M38.57 11.23 C38.99 14.26, 37.36 15.19, 34.82 14.98 M34.82 14.98 C24.54 16.05, 16.72 15.97, 3.74 14.98 M34.82 14.98 C23.3 15.09, 11.41 14.77, 3.74 14.98 M3.74 14.98 C0.76 14.06, -0.77 13.83, 0 11.23 M3.74 14.98 C1.94 14.41, -0.38 14.74, 0 11.23 M0 11.23 C0.08 9.45, 0.04 7.82, 0 3.74 M0 11.23 C-0.13 9.09, -0.14 7.2, 0 3.74 M0 3.74 C-0.63 2.19, 2.13 -0.98, 3.74 0 M0 3.74 C-0.12 0.47, 2.16 0.05, 3.74 0" stroke="#1e1e1e" stroke-width="2" fill="none"></path></g><g stroke-linecap="round" transform="translate(21.639369419641298 32.545724255215646) rotate(0 42.630859375 38.322265625)"><path d="M19.16 0 C35.21 -1.55, 46.19 1.75, 66.1 0 C82.1 -3.21, 88.64 7.77, 85.26 19.16 C87.65 36.78, 86.28 50.99, 85.26 57.48 C87.03 70.74, 78.96 79.21, 66.1 76.64 C48.76 77.58, 31.7 75.69, 19.16 76.64 C5.38 78.75, -2.91 73.21, 0 57.48 C-0.75 48.77, 2.9 36.13, 0 19.16 C2.84 9.05, 9.68 -0.94, 19.16 0" stroke="none" stroke-width="0" fill="#7950f2"></path><path d="M19.16 0 C28.32 1.55, 42.42 0.81, 66.1 0 M19.16 0 C38.27 0.54, 54.87 0.16, 66.1 0 M66.1 0 C77.38 0.41, 84.42 4.81, 85.26 19.16 M66.1 0 C81 0.09, 83.43 6.04, 85.26 19.16 M85.26 19.16 C86.13 29.63, 85.12 37.56, 85.26 57.48 M85.26 19.16 C85.1 29.91, 85.95 41.49, 85.26 57.48 M85.26 57.48 C85.2 71.19, 79.61 77.57, 66.1 76.64 M85.26 57.48 C85.35 70.69, 78.94 74.68, 66.1 76.64 M66.1 76.64 C49.1 78.77, 30.62 77.37, 19.16 76.64 M66.1 76.64 C48.49 76.07, 31.94 75.75, 19.16 76.64 M19.16 76.64 C4.85 76.85, 1.2 69.27, 0 57.48 M19.16 76.64 C5.64 78.66, -1.41 69.72, 0 57.48 M0 57.48 C0.09 48.47, -0.54 36.9, 0 19.16 M0 57.48 C-0.53 48.74, -0.32 39.79, 0 19.16 M0 19.16 C1.77 4.42, 6.18 -1.36, 19.16 0 M0 19.16 C1.83 6.49, 6.84 -1.09, 19.16 0" stroke="#1e1e1e" stroke-width="2" fill="none"></path></g><g stroke-linecap="round" transform="translate(10 59.76933318646752) rotate(0 13.974609375 10.47265625)"><path d="M5.24 0 C13.32 -0.7, 15.97 2.76, 22.71 0 C29.66 0.13, 30.24 0.47, 27.95 5.24 C27.36 7.01, 26.81 11.92, 27.95 15.71 C24.51 22.6, 28.08 21.93, 22.71 20.95 C15.75 21.69, 12.1 19.71, 5.24 20.95 C-0.61 22.95, -3.44 16.65, 0 15.71 C-1.3 13.69, 1.7 10.5, 0 5.24 C-0.17 5.28, 2.29 2.22, 5.24 0" stroke="none" stroke-width="0" fill="#d0bfff"></path><path d="M5.24 0 C9.02 1.46, 17.09 1.32, 22.71 0 M5.24 0 C11.7 -0.06, 17.51 -0.62, 22.71 0 M22.71 0 C25.23 -1.83, 26.41 1.95, 27.95 5.24 M22.71 0 C27.58 -1.13, 27.2 3.76, 27.95 5.24 M27.95 5.24 C28.12 7.74, 28.01 10.67, 27.95 15.71 M27.95 5.24 C27.48 7.92, 27.46 11.32, 27.95 15.71 M27.95 15.71 C26.7 21.08, 27.97 18.98, 22.71 20.95 M27.95 15.71 C27.71 17.64, 28.04 21.05, 22.71 20.95 M22.71 20.95 C16.61 19.53, 12.61 19.86, 5.24 20.95 M22.71 20.95 C17.02 21.92, 13.22 21.95, 5.24 20.95 M5.24 20.95 C0.01 19.81, 1.66 20.55, 0 15.71 M5.24 20.95 C2.78 21.86, 1.13 19.51, 0 15.71 M0 15.71 C0.69 12.35, -0.06 9.69, 0 5.24 M0 15.71 C0.33 12.03, 0.45 9.19, 0 5.24 M0 5.24 C0.7 0.04, 1.46 1.52, 5.24 0 M0 5.24 C2.01 2.73, 3.56 1.7, 5.24 0" stroke="#1e1e1e" stroke-width="2" fill="none"></path></g><g stroke-linecap="round" transform="translate(36.888671875 45.73027068646752) rotate(0 25.4296875 23.859375)"><path d="M31.22 0.62 C36.39 1.44, 43.02 6.12, 46.41 10.16 C49.8 14.2, 51.94 19.83, 51.56 24.87 C51.17 29.9, 47.9 36.65, 44.09 40.39 C40.28 44.13, 34.16 46.63, 28.71 47.31 C23.25 47.99, 16.09 47.09, 11.35 44.49 C6.62 41.89, 1.88 36.64, 0.32 31.71 C-1.24 26.79, -0.13 19.81, 1.98 14.94 C4.09 10.07, 6.88 4.33, 12.97 2.49 C19.07 0.64, 33.44 2.92, 38.54 3.87 C43.64 4.83, 43.77 7.84, 43.56 8.19 M21.72 -1.2 C27.15 -1.99, 35.69 2.05, 40.36 5.19 C45.02 8.33, 48.4 13.17, 49.74 17.66 C51.08 22.16, 50.72 27.61, 48.38 32.17 C46.05 36.72, 40.54 42.6, 35.73 44.99 C30.93 47.38, 24.78 47.42, 19.57 46.53 C14.36 45.63, 7.97 43.34, 4.48 39.62 C0.98 35.9, -1.91 29.46, -1.41 24.21 C-0.91 18.96, 3.49 12.19, 7.48 8.13 C11.46 4.08, 19.84 1.25, 22.5 -0.09 C25.15 -1.44, 23.39 -0.45, 23.42 0.05" stroke="none" stroke-width="0" fill="#d0bfff"></path><path d="M36.46 2.09 C41.2 3.65, 46.21 8.19, 48.38 12.72 C50.55 17.25, 50.98 24.29, 49.48 29.24 C47.98 34.2, 43.68 39.28, 39.38 42.45 C35.07 45.62, 29.02 48.56, 23.65 48.25 C18.29 47.95, 10.97 44.4, 7.2 40.63 C3.42 36.86, 1.51 30.74, 1.01 25.64 C0.5 20.54, 1.22 14.13, 4.17 10.01 C7.12 5.88, 12.35 1.5, 18.71 0.9 C25.07 0.29, 37.7 4.66, 42.32 6.38 C46.94 8.1, 46.84 11.12, 46.45 11.21 M19.38 1.9 C24.81 0.23, 33.93 -0.63, 38.85 1.4 C43.77 3.42, 46.93 9.05, 48.92 14.06 C50.9 19.07, 52.4 26.56, 50.75 31.46 C49.11 36.36, 43.9 40.88, 39.05 43.47 C34.2 46.06, 27.28 47.5, 21.64 47.02 C16 46.55, 8.97 44.41, 5.21 40.62 C1.45 36.82, -1.04 29.28, -0.92 24.24 C-0.8 19.2, 2.63 14.11, 5.95 10.38 C9.26 6.66, 16.47 3.22, 18.98 1.89 C21.49 0.56, 20.9 2.39, 21 2.4" stroke="#1e1e1e" stroke-width="2" fill="none"></path></g></svg>