<svg version="1.1" xmlns="http://www.w3.org/2000/svg" viewBox="0 0 108.67877035019364 140.8422378015016" width="108.67877035019364" height="140.8422378015016">
  <!-- svg-source:excalidraw -->
  
  <defs>
    <style class="style-fonts">
      @font-face {
        font-family: "Virgil";
        src: url("https://excalidraw.com/Virgil.woff2");
      }
      @font-face {
        font-family: "Cascadia";
        src: url("https://excalidraw.com/Cascadia.woff2");
      }
      @font-face {
        font-family: "Assistant";
        src: url("https://excalidraw.com/Assistant-Regular.woff2");
      }
    </style>
    
  </defs>
  <g stroke-linecap="round" transform="translate(34.05486505681802 109.06643921733757) rotate(22.461246866865288 19.283203125 7.48828125)"><path d="M3.74 0 C16.68 1.1, 27.9 -0.12, 34.82 0 C39.17 1.84, 40.47 0.78, 38.57 3.74 C38.38 5.73, 39.17 7.48, 38.57 11.23 C40.7 13.69, 38.23 12.76, 34.82 14.98 C27.05 17.38, 18.98 17.71, 3.74 14.98 C0.57 13.65, 1.03 13.02, 0 11.23 C-0.05 10.31, -0.42 7.59, 0 3.74 C-2.45 1.17, 0.68 -1.07, 3.74 0" stroke="none" stroke-width="0" fill="#868e96"></path><path d="M3.74 0 C9.96 0.99, 17.79 -0.73, 34.82 0 M3.74 0 C12.29 -0.02, 21.63 -0.27, 34.82 0 M34.82 0 C36.71 -0.03, 39.45 1.74, 38.57 3.74 M34.82 0 C36.74 -0.75, 38.97 0.71, 38.57 3.74 M38.57 3.74 C38.76 5.98, 38.65 8.21, 38.57 11.23 M38.57 3.74 C38.78 5.49, 38.76 7.09, 38.57 11.23 M38.57 11.23 C38.71 14.32, 37.3 15.02, 34.82 14.98 M38.57 11.23 C37.68 13.04, 36.76 13.93, 34.82 14.98 M34.82 14.98 C27.4 14.74, 21.83 14.46, 3.74 14.98 M34.82 14.98 C26.23 15.05, 17.84 14.89, 3.74 14.98 M3.74 14.98 C0.81 14.41, -0.8 13.32, 0 11.23 M3.74 14.98 C0.28 15.63, -0.72 14.81, 0 11.23 M0 11.23 C-0.22 8.62, 0.05 5.49, 0 3.74 M0 11.23 C-0.15 9.46, -0.11 7.41, 0 3.74 M0 3.74 C0.3 2.14, 0.36 0.94, 3.74 0 M0 3.74 C0.44 2.36, 0.25 -0.66, 3.74 0" stroke="#1e1e1e" stroke-width="2" fill="none"></path></g><g stroke-linecap="round" transform="translate(33.868992660984986 16.919422171883525) rotate(22.923355211056883 19.283203125 7.48828125)"><path d="M3.74 0 C14.81 -0.13, 27.03 1.64, 34.82 0 C39.22 -0.47, 38.61 2.03, 38.57 3.74 C39.11 5.29, 39.34 8.39, 38.57 11.23 C39.47 11.51, 36.95 16.95, 34.82 14.98 C24.71 17.68, 10.08 13.97, 3.74 14.98 C2.28 14.27, -2.44 15.88, 0 11.23 C-0.35 7.72, -0.92 5.27, 0 3.74 C-0.57 0.17, -0.08 2.18, 3.74 0" stroke="none" stroke-width="0" fill="#868e96"></path><path d="M3.74 0 C11.8 -0.94, 19.64 -0.58, 34.82 0 M3.74 0 C16.18 -0.17, 27.99 -0.05, 34.82 0 M34.82 0 C38.2 0.49, 38.07 0.6, 38.57 3.74 M34.82 0 C37.72 -0.54, 38.53 1.78, 38.57 3.74 M38.57 3.74 C38.65 6.28, 38.26 9.13, 38.57 11.23 M38.57 3.74 C38.76 5.48, 38.63 7.05, 38.57 11.23 M38.57 11.23 C38.55 13.78, 36.55 14.38, 34.82 14.98 M38.57 11.23 C38.01 12.68, 36.43 15.09, 34.82 14.98 M34.82 14.98 C24.51 14.31, 12.22 14.5, 3.74 14.98 M34.82 14.98 C25.12 14.87, 14.78 14.7, 3.74 14.98 M3.74 14.98 C0.45 14.57, -0.84 14.3, 0 11.23 M3.74 14.98 C0.53 16.06, 1.02 12.6, 0 11.23 M0 11.23 C0.04 9.14, -0.15 6.88, 0 3.74 M0 11.23 C-0.09 9.17, 0.09 7.35, 0 3.74 M0 3.74 C-0.89 2.19, 1.63 0.97, 3.74 0 M0 3.74 C-1 0.59, 2.2 0.77, 3.74 0" stroke="#1e1e1e" stroke-width="2" fill="none"></path></g><g stroke-linecap="round" transform="translate(10 32.545724255215646) rotate(0 42.630859375 38.322265625)"><path d="M19.16 0 C38.12 2.53, 54.57 -0.67, 66.1 0 C78.94 1.09, 85.66 5.58, 85.26 19.16 C88.61 29.53, 86.92 36.93, 85.26 57.48 C84.75 72.99, 82.01 78.18, 66.1 76.64 C47.38 75.59, 31.95 76.43, 19.16 76.64 C3.01 79.63, 3.46 70.38, 0 57.48 C-3.15 43.44, -0.55 28.12, 0 19.16 C-1.84 9.4, 2.95 3.4, 19.16 0" stroke="none" stroke-width="0" fill="#7950f2"></path><path d="M19.16 0 C37.29 -0.51, 57.91 -0.87, 66.1 0 M19.16 0 C33.81 0.09, 50.56 0.61, 66.1 0 M66.1 0 C77.87 -1.3, 85.96 5.45, 85.26 19.16 M66.1 0 C78.81 1.07, 86.1 7.45, 85.26 19.16 M85.26 19.16 C83.63 32.67, 83.61 44.33, 85.26 57.48 M85.26 19.16 C85.73 34.02, 85.57 47.74, 85.26 57.48 M85.26 57.48 C83.72 69.07, 77.9 74.82, 66.1 76.64 M85.26 57.48 C83.49 70.49, 80.25 75.51, 66.1 76.64 M66.1 76.64 C53.08 75.5, 41.38 76.36, 19.16 76.64 M66.1 76.64 C51.21 75.96, 36.39 76.13, 19.16 76.64 M19.16 76.64 C4.71 77.79, -1.25 72.14, 0 57.48 M19.16 76.64 C8.42 74.38, -0.24 68.69, 0 57.48 M0 57.48 C-0.97 42.83, -0.6 26.77, 0 19.16 M0 57.48 C0.53 44.54, -0.66 30.75, 0 19.16 M0 19.16 C0.77 8.32, 4.65 -1.14, 19.16 0 M0 19.16 C1.91 7.94, 7.42 0.91, 19.16 0" stroke="#1e1e1e" stroke-width="2" fill="none"></path></g><g stroke-linecap="round" transform="translate(67.54317783943225 30.81458684460722) rotate(312.47556431009303 13.974609375 10.47265625)"><path d="M5.24 0 C11.46 0.84, 15.09 -0.7, 22.71 0 C28.94 3.14, 29.49 4.59, 27.95 5.24 C27.16 9.9, 27.61 11.3, 27.95 15.71 C30.93 22.66, 26.33 23.24, 22.71 20.95 C18 19.96, 12.16 19.04, 5.24 20.95 C4.76 17.51, 3.4 21.07, 0 15.71 C1.49 11.5, 0.25 9.28, 0 5.24 C-1.71 -0.61, 3.75 -3.44, 5.24 0" stroke="none" stroke-width="0" fill="#d0bfff"></path><path d="M5.24 0 C10.88 0.7, 17.98 0.04, 22.71 0 M5.24 0 C11.33 0.08, 17.38 -0.83, 22.71 0 M22.71 0 C28.06 -1.73, 29.81 3.19, 27.95 5.24 M22.71 0 C28.15 1.62, 28.28 3.1, 27.95 5.24 M27.95 5.24 C27.33 7.85, 27 10.68, 27.95 15.71 M27.95 5.24 C27.84 8.94, 27.69 11.61, 27.95 15.71 M27.95 15.71 C27.09 19.58, 26.21 21.1, 22.71 20.95 M27.95 15.71 C28.91 18.66, 25.19 19.64, 22.71 20.95 M22.71 20.95 C19.87 19.7, 16.67 22.34, 5.24 20.95 M22.71 20.95 C19.89 20.87, 15.84 20.41, 5.24 20.95 M5.24 20.95 C1.65 20.36, -1.61 20.42, 0 15.71 M5.24 20.95 C0.32 20.51, 0.68 21.26, 0 15.71 M0 15.71 C0.91 12.59, -0.69 12.16, 0 5.24 M0 15.71 C0.21 11.93, -0.03 8.39, 0 5.24 M0 5.24 C1.41 3.21, 1.39 0.04, 5.24 0 M0 5.24 C0.7 2, 1.23 -0.65, 5.24 0" stroke="#1e1e1e" stroke-width="2" fill="none"></path></g><g stroke-linecap="round" transform="translate(29.71435054117319 45.26837942211296) rotate(312.47556431009303 25.4296875 23.859375)"><path d="M18.58 0.24 C23.6 -1.51, 30.95 0.22, 36.01 2.16 C41.06 4.11, 46.62 7.29, 48.91 11.89 C51.19 16.49, 50.92 24.55, 49.71 29.76 C48.5 34.98, 45.81 40.11, 41.66 43.18 C37.52 46.25, 30.35 48.46, 24.82 48.19 C19.28 47.92, 12.44 44.94, 8.46 41.54 C4.48 38.14, 1.58 32.88, 0.94 27.78 C0.31 22.68, 1.31 15.46, 4.66 10.94 C8.01 6.42, 17.73 2.44, 21.06 0.66 C24.38 -1.12, 24.58 -0.17, 24.6 0.27 M15.94 0.65 C20.33 -1.35, 27.23 0.36, 32.57 2.16 C37.92 3.96, 44.8 7.17, 48.02 11.44 C51.23 15.71, 52.5 22.89, 51.86 27.8 C51.23 32.7, 48.5 37.45, 44.21 40.87 C39.91 44.28, 31.82 48.16, 26.08 48.27 C20.34 48.39, 13.81 44.48, 9.78 41.56 C5.75 38.63, 3.08 35.33, 1.91 30.74 C0.75 26.16, 0.62 19, 2.79 14.05 C4.95 9.11, 12.98 3.04, 14.89 1.08 C16.79 -0.87, 14 1.92, 14.2 2.32" stroke="none" stroke-width="0" fill="#d0bfff"></path><path d="M25.53 0.04 C30.65 -0.39, 37.68 2.02, 41.68 5.39 C45.69 8.77, 48.71 15.14, 49.55 20.31 C50.4 25.48, 49.16 31.97, 46.77 36.42 C44.37 40.87, 40.02 45.32, 35.19 47.01 C30.36 48.69, 22.95 48.36, 17.78 46.54 C12.61 44.72, 7.08 40.61, 4.18 36.06 C1.28 31.52, -0.3 24.41, 0.37 19.28 C1.05 14.16, 3.82 8.64, 8.21 5.32 C12.6 1.99, 23.05 -0.04, 26.7 -0.68 C30.36 -1.32, 30.12 1.01, 30.15 1.48 M35.58 2.54 C40.56 4.4, 46 9.41, 48.5 13.94 C51.01 18.47, 52.14 24.95, 50.61 29.73 C49.08 34.5, 44.09 39.69, 39.32 42.58 C34.54 45.46, 27.49 47.19, 21.96 47.02 C16.43 46.85, 9.96 44.84, 6.15 41.55 C2.35 38.27, -0.81 32.78, -0.85 27.3 C-0.88 21.82, 2.69 13.25, 5.95 8.66 C9.22 4.07, 13.49 0.84, 18.74 -0.22 C23.98 -1.28, 34.49 1.96, 37.42 2.32 C40.34 2.69, 36.69 1.7, 36.3 1.98" stroke="#1e1e1e" stroke-width="2" fill="none"></path></g></svg>