<svg version="1.1" xmlns="http://www.w3.org/2000/svg" viewBox="0 0 105.26171875 140.8422378015016" width="105.26171875" height="140.8422378015016">
  <!-- svg-source:excalidraw -->
  
  <defs>
    <style class="style-fonts">
      @font-face {
        font-family: "Virgil";
        src: url("https://excalidraw.com/Virgil.woff2");
      }
      @font-face {
        font-family: "Cascadia";
        src: url("https://excalidraw.com/Cascadia.woff2");
      }
      @font-face {
        font-family: "Assistant";
        src: url("https://excalidraw.com/Assistant-Regular.woff2");
      }
    </style>
    
  </defs>
  <g stroke-linecap="round" transform="translate(34.05486505681802 109.06643921733757) rotate(22.461246866865288 19.283203125 7.48828125)"><path d="M3.74 0 C12.81 -2.41, 15.36 2, 34.82 0 C39.07 1.17, 39.6 2.53, 38.57 3.74 C39.26 6.8, 38.39 8.45, 38.57 11.23 C39.35 14.02, 36.74 14.25, 34.82 14.98 C23.65 16.22, 10.32 14.94, 3.74 14.98 C3.22 17.24, 1.11 15.78, 0 11.23 C-0.58 8.82, -0.36 4.72, 0 3.74 C2.15 3.75, 1.34 1.66, 3.74 0" stroke="none" stroke-width="0" fill="#868e96"></path><path d="M3.74 0 C13.24 -0.93, 21.44 -0.88, 34.82 0 M3.74 0 C14.17 0.14, 23.27 0.05, 34.82 0 M34.82 0 C36.88 0.95, 37.95 1.5, 38.57 3.74 M34.82 0 C37.7 -0.29, 37.86 1.22, 38.57 3.74 M38.57 3.74 C38.34 6.78, 38.41 9.54, 38.57 11.23 M38.57 3.74 C38.59 6.37, 38.59 8.78, 38.57 11.23 M38.57 11.23 C39.5 12.87, 38.25 15.7, 34.82 14.98 M38.57 11.23 C39.54 14.54, 37.48 15.65, 34.82 14.98 M34.82 14.98 C24.96 14.37, 15.37 14.09, 3.74 14.98 M34.82 14.98 C25.02 15.34, 15.23 14.78, 3.74 14.98 M3.74 14.98 C0.82 15.17, 0 13.81, 0 11.23 M3.74 14.98 C1.73 14.71, -0.5 13.07, 0 11.23 M0 11.23 C0.23 9.35, 0.37 8.27, 0 3.74 M0 11.23 C0.15 9.73, 0.04 8.12, 0 3.74 M0 3.74 C-0.05 0.95, 0.44 0.61, 3.74 0 M0 3.74 C-0.71 1.03, 1.59 1.03, 3.74 0" stroke="#1e1e1e" stroke-width="2" fill="none"></path></g><g stroke-linecap="round" transform="translate(33.868992660984986 16.919422171883525) rotate(22.923355211056883 19.283203125 7.48828125)"><path d="M3.74 0 C12.78 2.51, 26.53 1.52, 34.82 0 C38.35 1.28, 38.91 1.31, 38.57 3.74 C38.46 6.54, 38.93 9.41, 38.57 11.23 C37.99 13, 38.84 12.87, 34.82 14.98 C20.74 14.75, 13.06 17.38, 3.74 14.98 C2.36 17.03, 1.92 16.11, 0 11.23 C-0.22 8.27, 0.86 8.06, 0 3.74 C0.09 2.9, 0.33 -1.47, 3.74 0" stroke="none" stroke-width="0" fill="#868e96"></path><path d="M3.74 0 C16.28 -0.62, 27.94 -0.3, 34.82 0 M3.74 0 C10.22 -0.08, 17.27 0.47, 34.82 0 M34.82 0 C36.7 0.25, 38.89 0.99, 38.57 3.74 M34.82 0 C36.61 -0.03, 39.58 1.82, 38.57 3.74 M38.57 3.74 C38.37 5.61, 38.72 7.63, 38.57 11.23 M38.57 3.74 C38.57 6.18, 38.74 8.77, 38.57 11.23 M38.57 11.23 C39.5 14.45, 38.16 15.68, 34.82 14.98 M38.57 11.23 C38.73 14.4, 37.3 15.03, 34.82 14.98 M34.82 14.98 C26.98 14.13, 21.06 15.5, 3.74 14.98 M34.82 14.98 C26.72 15, 19.02 15.21, 3.74 14.98 M3.74 14.98 C1.25 15.06, 0.42 13.49, 0 11.23 M3.74 14.98 C0.74 14.32, -0.92 13.26, 0 11.23 M0 11.23 C0.33 9.95, -0.39 7.96, 0 3.74 M0 11.23 C0.01 9.41, -0.04 7.7, 0 3.74 M0 3.74 C-0.8 1.86, 0.63 -0.19, 3.74 0 M0 3.74 C0.34 2.28, 0.22 1.08, 3.74 0" stroke="#1e1e1e" stroke-width="2" fill="none"></path></g><g stroke-linecap="round" transform="translate(10 32.545724255215646) rotate(0 42.630859375 38.322265625)"><path d="M19.16 0 C31.6 0.91, 40.62 1.07, 66.1 0 C79.36 0.09, 87.83 8.93, 85.26 19.16 C86.23 33.86, 84.33 46.74, 85.26 57.48 C87.37 67.34, 81.82 76.6, 66.1 76.64 C53.11 79.66, 36.2 79.37, 19.16 76.64 C9.05 79.94, -0.94 68.43, 0 57.48 C3.17 47.93, 0.31 33.75, 0 19.16 C-1.27 4.36, 2.99 -0.11, 19.16 0" stroke="none" stroke-width="0" fill="#7950f2"></path><path d="M19.16 0 C29.93 -0.49, 38.29 2.2, 66.1 0 M19.16 0 C32.98 1.02, 47.07 0.32, 66.1 0 M66.1 0 C79.53 -0.51, 84.04 6.34, 85.26 19.16 M66.1 0 C80.9 1.14, 84.11 4.89, 85.26 19.16 M85.26 19.16 C86.01 32.74, 86 44.93, 85.26 57.48 M85.26 19.16 C86.2 30.51, 86.2 44.31, 85.26 57.48 M85.26 57.48 C86.95 71.67, 79.16 77.82, 66.1 76.64 M85.26 57.48 C85.22 70.37, 77.1 75.27, 66.1 76.64 M66.1 76.64 C54.51 77.48, 41.53 75.63, 19.16 76.64 M66.1 76.64 C47.48 76.72, 29.71 76.61, 19.16 76.64 M19.16 76.64 C7.22 76.17, -0.88 69.12, 0 57.48 M19.16 76.64 C4.54 75.71, -1.93 71.57, 0 57.48 M0 57.48 C-2.33 48.18, -1.72 40.88, 0 19.16 M0 57.48 C-0.12 45.52, -0.88 34.76, 0 19.16 M0 19.16 C-1.24 6.01, 6.98 1.79, 19.16 0 M0 19.16 C-2.05 8.54, 7.27 2.22, 19.16 0" stroke="#1e1e1e" stroke-width="2" fill="none"></path></g><g stroke-linecap="round" transform="translate(40.63070709740077 21.99483342197982) rotate(269.315648468081 13.974609375 10.47265625)"><path d="M5.24 0 C13.48 2.79, 18.29 2.53, 22.71 0 C28.87 3.3, 27.01 -0.08, 27.95 5.24 C29.46 10.6, 27.96 13.55, 27.95 15.71 C26.68 17.17, 22.81 20.84, 22.71 20.95 C20.49 17.78, 15.96 22.42, 5.24 20.95 C2.73 21.81, -0.71 22.13, 0 15.71 C-0.92 11.77, 1.02 8.49, 0 5.24 C-2.55 3.13, -1.13 3.06, 5.24 0" stroke="none" stroke-width="0" fill="#d0bfff"></path><path d="M5.24 0 C11.91 0.64, 17.76 0.08, 22.71 0 M5.24 0 C11.62 -0.61, 17.19 0.78, 22.71 0 M22.71 0 C27.9 1.41, 28.24 2.92, 27.95 5.24 M22.71 0 C26.16 0.11, 26.18 0.37, 27.95 5.24 M27.95 5.24 C27.96 8.49, 27.34 10.16, 27.95 15.71 M27.95 5.24 C27.66 9.39, 27.89 13.4, 27.95 15.71 M27.95 15.71 C28.79 18.73, 25.33 19.81, 22.71 20.95 M27.95 15.71 C26.1 18.27, 24.27 22.26, 22.71 20.95 M22.71 20.95 C16.84 20.92, 13.23 22.49, 5.24 20.95 M22.71 20.95 C17.35 20.61, 11.37 21.4, 5.24 20.95 M5.24 20.95 C0.51 20.57, 0.59 20.99, 0 15.71 M5.24 20.95 C-0.31 23.1, 0.88 21.42, 0 15.71 M0 15.71 C0.76 13.94, 0.48 11.75, 0 5.24 M0 15.71 C0.37 12.81, -0.1 9.16, 0 5.24 M0 5.24 C0.6 1.97, 1.3 -0.56, 5.24 0 M0 5.24 C1.35 -0.12, 3.63 -0.03, 5.24 0" stroke="#1e1e1e" stroke-width="2" fill="none"></path></g><g stroke-linecap="round" transform="translate(28.981305803573377 46.95692110629625) rotate(269.315648468081 25.4296875 23.859375)"><path d="M15.42 1.47 C19.7 -0.83, 25.97 0.09, 31.19 1.58 C36.42 3.08, 43.46 6.33, 46.79 10.43 C50.12 14.53, 51.69 21.17, 51.18 26.19 C50.67 31.22, 47.49 36.9, 43.72 40.59 C39.96 44.27, 33.94 47.85, 28.61 48.31 C23.29 48.78, 16.39 46.32, 11.78 43.36 C7.17 40.4, 2.52 35.5, 0.95 30.57 C-0.61 25.64, -0.87 18.7, 2.39 13.77 C5.65 8.84, 16.47 3.05, 20.51 0.99 C24.54 -1.08, 26.47 1.02, 26.6 1.37 M16.22 2.78 C21.04 0.49, 28.18 0.78, 33.44 1.99 C38.7 3.19, 45.02 5.85, 47.78 9.98 C50.54 14.11, 50.8 21.85, 49.98 26.77 C49.15 31.69, 46.38 35.77, 42.82 39.49 C39.26 43.21, 33.99 48.3, 28.63 49.09 C23.28 49.88, 15.41 47.58, 10.69 44.22 C5.96 40.86, 1.87 34.07, 0.27 28.96 C-1.33 23.84, -1.31 18.09, 1.08 13.51 C3.46 8.94, 12.37 3.13, 14.59 1.52 C16.8 -0.1, 14.37 3.12, 14.36 3.82" stroke="none" stroke-width="0" fill="#d0bfff"></path><path d="M25.09 0.93 C30.1 0.88, 36.94 3.48, 41.3 6.83 C45.67 10.18, 50.18 16.12, 51.28 21.04 C52.38 25.96, 50.74 32.12, 47.9 36.35 C45.05 40.58, 39.5 44.92, 34.23 46.42 C28.96 47.92, 21.58 47.26, 16.3 45.34 C11.02 43.42, 5.35 39.36, 2.56 34.88 C-0.23 30.4, -1.6 23.31, -0.43 18.47 C0.74 13.64, 4.36 8.9, 9.58 5.88 C14.8 2.85, 26.28 0.95, 30.88 0.34 C35.49 -0.28, 37.25 1.84, 37.19 2.21 M28.45 -0.25 C33.52 -0.26, 39.36 2.65, 42.88 6.25 C46.4 9.85, 49.24 15.96, 49.57 21.34 C49.91 26.72, 48.01 34.03, 44.9 38.54 C41.79 43.04, 35.74 47.46, 30.9 48.36 C26.06 49.26, 20.64 46.53, 15.85 43.94 C11.06 41.34, 4.44 37.16, 2.15 32.77 C-0.14 28.38, 0.59 22.47, 2.11 17.59 C3.63 12.71, 7.01 6.5, 11.28 3.51 C15.56 0.52, 25.2 0, 27.75 -0.33 C30.3 -0.67, 26.75 1.08, 26.57 1.5" stroke="#1e1e1e" stroke-width="2" fill="none"></path></g></svg>