<svg version="1.1" xmlns="http://www.w3.org/2000/svg" viewBox="0 0 107.08836856447897 140.8422378015016" width="107.08836856447897" height="140.8422378015016">
  <!-- svg-source:excalidraw -->
  
  <defs>
    <style class="style-fonts">
      @font-face {
        font-family: "Virgil";
        src: url("https://excalidraw.com/Virgil.woff2");
      }
      @font-face {
        font-family: "Cascadia";
        src: url("https://excalidraw.com/Cascadia.woff2");
      }
      @font-face {
        font-family: "Assistant";
        src: url("https://excalidraw.com/Assistant-Regular.woff2");
      }
    </style>
    
  </defs>
  <g stroke-linecap="round" transform="translate(34.05486505681802 109.06643921733757) rotate(22.461246866865288 19.283203125 7.48828125)"><path d="M3.74 0 C11.94 1.09, 19.11 -1.14, 34.82 0 C35.84 -2.09, 37.51 -0.93, 38.57 3.74 C39.37 5.46, 38.4 8.43, 38.57 11.23 C40.64 13.85, 37.83 13.74, 34.82 14.98 C27.24 13.04, 15.99 15.42, 3.74 14.98 C3.58 12.66, 2.44 14.73, 0 11.23 C0.89 8.92, 0.52 5.68, 0 3.74 C1.28 1.6, 1.31 1.85, 3.74 0" stroke="none" stroke-width="0" fill="#868e96"></path><path d="M3.74 0 C12.61 0.24, 19.21 0.99, 34.82 0 M3.74 0 C15.29 -0.18, 26.02 0.18, 34.82 0 M34.82 0 C36.74 -0.67, 38.93 0.91, 38.57 3.74 M34.82 0 C36.88 -0.76, 38.32 1.1, 38.57 3.74 M38.57 3.74 C38.23 5.83, 38.83 7.43, 38.57 11.23 M38.57 3.74 C38.72 6.83, 38.41 9.67, 38.57 11.23 M38.57 11.23 C37.82 13.93, 36.9 14.19, 34.82 14.98 M38.57 11.23 C39.63 13.77, 36.4 14.8, 34.82 14.98 M34.82 14.98 C27.12 15.21, 18.65 14.27, 3.74 14.98 M34.82 14.98 C25.33 14.73, 16.51 14.82, 3.74 14.98 M3.74 14.98 C1.22 15.44, 0.37 14.19, 0 11.23 M3.74 14.98 C1.29 15.19, 0.03 12.75, 0 11.23 M0 11.23 C0.3 8.61, 0.3 5.4, 0 3.74 M0 11.23 C-0.14 8.43, -0.09 5.69, 0 3.74 M0 3.74 C-0.77 1.35, 1.85 -0.49, 3.74 0 M0 3.74 C-0.38 2.26, 0.54 -0.27, 3.74 0" stroke="#1e1e1e" stroke-width="2" fill="none"></path></g><g stroke-linecap="round" transform="translate(33.868992660984986 16.919422171883525) rotate(22.923355211056883 19.283203125 7.48828125)"><path d="M3.74 0 C12.46 -1.31, 20.92 -2.25, 34.82 0 C36.27 -2.18, 40.05 -0.38, 38.57 3.74 C38.55 6.03, 39.43 9.69, 38.57 11.23 C39.08 12.5, 37.19 14.21, 34.82 14.98 C27.51 15.5, 23.5 12.41, 3.74 14.98 C3.69 15.98, 2.51 11.48, 0 11.23 C0.36 9.8, 0.4 7.72, 0 3.74 C0.07 3.1, 3.09 1.9, 3.74 0" stroke="none" stroke-width="0" fill="#868e96"></path><path d="M3.74 0 C12.16 0.93, 22.21 0.08, 34.82 0 M3.74 0 C11.97 0.21, 20.85 -0.27, 34.82 0 M34.82 0 C37.68 -0.33, 38.19 0.58, 38.57 3.74 M34.82 0 C37.07 -0.15, 37.79 1.03, 38.57 3.74 M38.57 3.74 C38.8 6.65, 38.87 9.05, 38.57 11.23 M38.57 3.74 C38.45 6.68, 38.46 9.46, 38.57 11.23 M38.57 11.23 C38.15 12.94, 38.24 15.02, 34.82 14.98 M38.57 11.23 C37.65 13.56, 36.81 16.07, 34.82 14.98 M34.82 14.98 C27.18 14.41, 20.01 15.91, 3.74 14.98 M34.82 14.98 C24.14 14.64, 13.09 15.11, 3.74 14.98 M3.74 14.98 C1.61 15.44, 0.04 13.92, 0 11.23 M3.74 14.98 C1.28 14, 1.07 12.74, 0 11.23 M0 11.23 C0.24 8.34, 0.19 5.34, 0 3.74 M0 11.23 C-0.06 8.78, -0.12 6.69, 0 3.74 M0 3.74 C0.6 0.76, 0.92 0.88, 3.74 0 M0 3.74 C-0.71 0.98, 0.75 0.22, 3.74 0" stroke="#1e1e1e" stroke-width="2" fill="none"></path></g><g stroke-linecap="round" transform="translate(10 32.545724255215646) rotate(0 42.630859375 38.322265625)"><path d="M19.16 0 C33.16 -2.52, 49.8 -2.65, 66.1 0 C80.93 -2.25, 88.64 9.57, 85.26 19.16 C88.06 27.05, 85.9 32.9, 85.26 57.48 C85.09 69.2, 75.98 78.84, 66.1 76.64 C58.15 73.68, 47.12 78.28, 19.16 76.64 C9.87 73.53, -2.05 73.25, 0 57.48 C1.46 43.89, -0.22 31.9, 0 19.16 C2.55 9.02, 5.74 0.06, 19.16 0" stroke="none" stroke-width="0" fill="#7950f2"></path><path d="M19.16 0 C35.57 -0.23, 48.94 0.23, 66.1 0 M19.16 0 C30.7 -0.81, 43.74 -0.47, 66.1 0 M66.1 0 C78.11 -1.33, 84.84 6.13, 85.26 19.16 M66.1 0 C77.32 -0.44, 86.64 4.37, 85.26 19.16 M85.26 19.16 C87.31 33.7, 87.12 50.91, 85.26 57.48 M85.26 19.16 C84.21 34.36, 84.54 48.37, 85.26 57.48 M85.26 57.48 C87.11 70.33, 77.28 76.35, 66.1 76.64 M85.26 57.48 C84.25 72.44, 77.45 77.22, 66.1 76.64 M66.1 76.64 C50.43 78.11, 35.85 75.36, 19.16 76.64 M66.1 76.64 C55.05 76.89, 44.42 76.89, 19.16 76.64 M19.16 76.64 C6.47 77.02, 0.06 68.55, 0 57.48 M19.16 76.64 C8.52 74.66, 2.14 71.92, 0 57.48 M0 57.48 C0.9 42.71, -0.18 26.47, 0 19.16 M0 57.48 C-0.58 48.37, 0.79 38.57, 0 19.16 M0 19.16 C-0.65 8.14, 5.16 -0.47, 19.16 0 M0 19.16 C-0.99 6.82, 6.39 0.18, 19.16 0" stroke="#1e1e1e" stroke-width="2" fill="none"></path></g><g stroke-linecap="round" transform="translate(65.95277605371757 87.12363309975535) rotate(47.524435689906944 13.974609375 10.47265625)"><path d="M5.24 0 C7.53 -1.54, 15.06 -2.94, 22.71 0 C29.6 1.87, 28.94 2.61, 27.95 5.24 C28.4 8.6, 27.21 9.87, 27.95 15.71 C29.96 15.76, 23.65 22.33, 22.71 20.95 C21.41 23.3, 18.16 20.56, 5.24 20.95 C5.28 21.49, 2.22 21.16, 0 15.71 C-0.95 10.82, 1.2 7.54, 0 5.24 C0.45 4.09, 2.98 -3.49, 5.24 0" stroke="none" stroke-width="0" fill="#d0bfff"></path><path d="M5.24 0 C7.54 -1.26, 13.21 1.13, 22.71 0 M5.24 0 C9.08 -0.36, 13.63 0.01, 22.71 0 M22.71 0 C26.21 0.16, 28.79 1.27, 27.95 5.24 M22.71 0 C25.19 -1.31, 26.1 0.81, 27.95 5.24 M27.95 5.24 C28.99 8.43, 26.98 9.65, 27.95 15.71 M27.95 5.24 C28.14 7.42, 28.01 9.94, 27.95 15.71 M27.95 15.71 C26.34 20.42, 24.97 20.57, 22.71 20.95 M27.95 15.71 C28.63 21.26, 24.15 23.1, 22.71 20.95 M22.71 20.95 C15.8 22.25, 12.06 21.58, 5.24 20.95 M22.71 20.95 C16.8 21.59, 11.46 21.61, 5.24 20.95 M5.24 20.95 C1.39 20.98, 0.6 19.42, 0 15.71 M5.24 20.95 C1.23 20.3, 1.35 17.34, 0 15.71 M0 15.71 C-0.89 11.56, 0.8 8.62, 0 5.24 M0 15.71 C0.4 11.98, -0.35 8.74, 0 5.24 M0 5.24 C-0.55 -0.13, 3.4 1.92, 5.24 0 M0 5.24 C0.08 3.21, 0.93 -1.3, 5.24 0" stroke="#1e1e1e" stroke-width="2" fill="none"></path></g><g stroke-linecap="round" transform="translate(28.123948755458514 45.896403022249615) rotate(47.524435689906944 25.4296875 23.859375)"><path d="M21.78 0.97 C26.94 0.08, 34.96 1.67, 39.49 4.33 C44.02 7, 47.3 11.99, 48.97 16.98 C50.64 21.97, 51.46 29.44, 49.49 34.28 C47.52 39.12, 42.05 43.74, 37.17 46.02 C32.28 48.3, 25.6 49.38, 20.19 47.97 C14.78 46.55, 7.99 41.82, 4.7 37.51 C1.41 33.2, 0.22 26.97, 0.45 22.09 C0.67 17.21, 1.51 11.9, 6.08 8.23 C10.64 4.57, 23.58 1.33, 27.84 0.07 C32.1 -1.18, 31.93 0.48, 31.65 0.72 M24.29 1.26 C29.28 1.22, 35.57 3.69, 40.05 6.77 C44.54 9.86, 49.86 15.05, 51.19 19.78 C52.51 24.52, 50.58 30.9, 48 35.19 C45.42 39.48, 40.81 43.61, 35.7 45.54 C30.58 47.46, 22.79 48.48, 17.32 46.74 C11.85 45, 5.58 39.79, 2.88 35.11 C0.19 30.42, 0.35 23.42, 1.16 18.63 C1.97 13.84, 3.95 9.28, 7.74 6.39 C11.52 3.49, 21.16 2.06, 23.86 1.28 C26.55 0.49, 23.5 1.26, 23.91 1.69" stroke="none" stroke-width="0" fill="#d0bfff"></path><path d="M33.81 0.45 C38.89 1.57, 43.72 6.09, 46.56 10.49 C49.4 14.89, 51.48 21.62, 50.85 26.83 C50.22 32.05, 46.87 38.37, 42.8 41.77 C38.73 45.18, 32 47.2, 26.45 47.25 C20.9 47.3, 13.87 45.23, 9.5 42.07 C5.13 38.92, 1.25 33.28, 0.23 28.32 C-0.79 23.37, 0.66 16.6, 3.38 12.34 C6.09 8.08, 11.31 4.51, 16.5 2.76 C21.68 1, 31.07 1.58, 34.47 1.83 C37.88 2.08, 36.94 3.85, 36.94 4.27 M18.25 1.58 C23.06 0.17, 30.66 -0.14, 35.81 2.21 C40.97 4.55, 47.07 10.69, 49.18 15.66 C51.29 20.62, 50 27.09, 48.48 32.01 C46.97 36.93, 44.61 42.73, 40.07 45.18 C35.54 47.64, 26.59 47.36, 21.29 46.72 C15.99 46.07, 11.68 44.78, 8.26 41.32 C4.83 37.86, 1.15 31.19, 0.72 25.95 C0.3 20.71, 2.57 13.93, 5.7 9.9 C8.83 5.86, 17 3.02, 19.49 1.74 C21.98 0.46, 20.59 2.01, 20.64 2.23" stroke="#1e1e1e" stroke-width="2" fill="none"></path></g></svg>