<svg version="1.1" xmlns="http://www.w3.org/2000/svg" viewBox="0 0 105.26171875 140.8422378015016" width="105.26171875" height="140.8422378015016">
  <!-- svg-source:excalidraw -->
  
  <defs>
    <style class="style-fonts">
      @font-face {
        font-family: "Virgil";
        src: url("https://excalidraw.com/Virgil.woff2");
      }
      @font-face {
        font-family: "Cascadia";
        src: url("https://excalidraw.com/Cascadia.woff2");
      }
      @font-face {
        font-family: "Assistant";
        src: url("https://excalidraw.com/Assistant-Regular.woff2");
      }
    </style>
    
  </defs>
  <g stroke-linecap="round" transform="translate(34.05486505681802 109.06643921733757) rotate(22.461246866865288 19.283203125 7.48828125)"><path d="M3.74 0 C10.65 -1.86, 21.15 -1.3, 34.82 0 C39.76 2.3, 36.01 0.98, 38.57 3.74 C38.84 5.02, 38.6 6.93, 38.57 11.23 C36.48 15.32, 35.71 14.49, 34.82 14.98 C27.02 15.61, 16.84 12.36, 3.74 14.98 C-0.23 17.14, 1.75 14.89, 0 11.23 C-0.02 9.38, 0.64 6.86, 0 3.74 C-0.47 1.29, 2.03 0.29, 3.74 0" stroke="none" stroke-width="0" fill="#868e96"></path><path d="M3.74 0 C15.86 0.33, 27.97 -0.96, 34.82 0 M3.74 0 C14.15 -0.06, 24 -0.23, 34.82 0 M34.82 0 C37.11 -0.13, 37.89 1.06, 38.57 3.74 M34.82 0 C38.01 -1.01, 39.62 2.07, 38.57 3.74 M38.57 3.74 C38.9 6.72, 38.94 8.76, 38.57 11.23 M38.57 3.74 C38.46 6.24, 38.71 9.05, 38.57 11.23 M38.57 11.23 C37.77 13.58, 36.88 15.93, 34.82 14.98 M38.57 11.23 C37.85 14.02, 37.7 14.68, 34.82 14.98 M34.82 14.98 C27.9 14.61, 19.33 15.46, 3.74 14.98 M34.82 14.98 C27.14 15.28, 19.1 15.14, 3.74 14.98 M3.74 14.98 C1.28 14.12, 0.93 12.87, 0 11.23 M3.74 14.98 C2.32 15.81, 0.97 14.54, 0 11.23 M0 11.23 C0 8.59, -0.25 6.34, 0 3.74 M0 11.23 C0.14 9.58, -0.03 8.27, 0 3.74 M0 3.74 C-0.61 1.01, 0.82 0.19, 3.74 0 M0 3.74 C0 1.34, 1.73 -0.27, 3.74 0" stroke="#1e1e1e" stroke-width="2" fill="none"></path></g><g stroke-linecap="round" transform="translate(33.868992660985896 16.919422171883525) rotate(22.923355211056883 19.283203125 7.48828125)"><path d="M3.74 0 C12.06 -1.29, 19.85 2.64, 34.82 0 C34.76 -0.27, 36.8 3.32, 38.57 3.74 C38.54 5.74, 37.8 8.9, 38.57 11.23 C36.96 13.24, 38.09 17.31, 34.82 14.98 C30.79 12.88, 20.24 17.29, 3.74 14.98 C3 16.14, 1.03 15.01, 0 11.23 C0.69 9.6, -0.18 6.56, 0 3.74 C0.79 1.54, 0.67 -0.73, 3.74 0" stroke="none" stroke-width="0" fill="#868e96"></path><path d="M3.74 0 C12.99 -0.99, 23.37 -0.63, 34.82 0 M3.74 0 C10.78 -0.28, 18.1 -0.01, 34.82 0 M34.82 0 C36.64 -0.19, 39.17 0.37, 38.57 3.74 M34.82 0 C38.37 0.82, 39.2 2.27, 38.57 3.74 M38.57 3.74 C38.94 5.51, 38.8 7.6, 38.57 11.23 M38.57 3.74 C38.72 6.15, 38.4 8.52, 38.57 11.23 M38.57 11.23 C38.13 14.68, 36.7 15.23, 34.82 14.98 M38.57 11.23 C38.94 13.44, 36.61 14.95, 34.82 14.98 M34.82 14.98 C22.12 15.25, 10.25 14.87, 3.74 14.98 M34.82 14.98 C24.07 15.14, 13.29 14.62, 3.74 14.98 M3.74 14.98 C2.18 14.11, 0.93 14.45, 0 11.23 M3.74 14.98 C2.22 15.79, 0.17 14.4, 0 11.23 M0 11.23 C-0.22 8.82, -0.34 6.48, 0 3.74 M0 11.23 C-0.08 9.07, -0.14 6.54, 0 3.74 M0 3.74 C-0.43 1.44, 1.25 0.08, 3.74 0 M0 3.74 C0.48 0.98, 0.74 -0.65, 3.74 0" stroke="#1e1e1e" stroke-width="2" fill="none"></path></g><g stroke-linecap="round" transform="translate(10 32.545724255215646) rotate(0 42.630859375 38.322265625)"><path d="M19.16 0 C32.69 3.71, 35.9 0.15, 66.1 0 C76.43 2.87, 85.42 7.1, 85.26 19.16 C82.33 31.04, 83 37.84, 85.26 57.48 C86.33 73.48, 75.66 80.02, 66.1 76.64 C48.17 78.9, 36.75 77.53, 19.16 76.64 C7.82 78.41, 0.48 70.35, 0 57.48 C-1.13 43.32, 0.6 29.43, 0 19.16 C-0.8 5.38, 8.49 -2.91, 19.16 0" stroke="none" stroke-width="0" fill="#7950f2"></path><path d="M19.16 0 C35.43 -0.71, 49.19 1.16, 66.1 0 M19.16 0 C31.46 0.19, 43.52 0.12, 66.1 0 M66.1 0 C80.07 -1.76, 87.1 7.82, 85.26 19.16 M66.1 0 C80.13 2.04, 84.71 8.21, 85.26 19.16 M85.26 19.16 C86.68 32.46, 86.02 47.91, 85.26 57.48 M85.26 19.16 C84.82 27.48, 85.18 37.06, 85.26 57.48 M85.26 57.48 C84.02 70.76, 79.53 76.14, 66.1 76.64 M85.26 57.48 C83.85 70.2, 80.9 77.78, 66.1 76.64 M66.1 76.64 C53.43 76.75, 43.57 77.54, 19.16 76.64 M66.1 76.64 C49.89 75.88, 34.54 75.87, 19.16 76.64 M19.16 76.64 C8.25 78.09, 1.69 71.67, 0 57.48 M19.16 76.64 C6.72 78, -0.04 70.37, 0 57.48 M0 57.48 C-1.6 47.4, 0.43 41.59, 0 19.16 M0 57.48 C-0.49 47.64, -0.3 38.45, 0 19.16 M0 19.16 C0 6.54, 7.22 -0.47, 19.16 0 M0 19.16 C-1.01 5.08, 4.54 -0.93, 19.16 0" stroke="#1e1e1e" stroke-width="2" fill="none"></path></g><g stroke-linecap="round" transform="translate(38.649680311687916 96.89204723666899) rotate(90.684351531919 13.974609375 10.47265625)"><path d="M5.24 0 C8.77 -2.86, 15.75 -0.58, 22.71 0 C24.72 -1.84, 30.96 -1.69, 27.95 5.24 C28.5 9, 29.58 12.72, 27.95 15.71 C28.51 20.02, 24.5 18.59, 22.71 20.95 C17.71 18.21, 12.95 18.3, 5.24 20.95 C4.65 23.91, 3.59 19.03, 0 15.71 C1 12.55, 1.64 6.61, 0 5.24 C-1.5 -0.52, 4.36 -1.46, 5.24 0" stroke="none" stroke-width="0" fill="#d0bfff"></path><path d="M5.24 0 C10.81 -1.34, 15.19 -0.85, 22.71 0 M5.24 0 C9.41 -0.45, 12.24 0.75, 22.71 0 M22.71 0 C24.98 -0.47, 27.09 2.12, 27.95 5.24 M22.71 0 C26.21 0.18, 28.91 1.2, 27.95 5.24 M27.95 5.24 C27.47 7.04, 28.49 9.94, 27.95 15.71 M27.95 5.24 C27.99 9.01, 28.46 13.51, 27.95 15.71 M27.95 15.71 C28.34 18.25, 26.11 20.36, 22.71 20.95 M27.95 15.71 C26.1 20.6, 24.78 20.51, 22.71 20.95 M22.71 20.95 C18.59 21.46, 12.88 19.28, 5.24 20.95 M22.71 20.95 C18.86 21.41, 14.65 21.18, 5.24 20.95 M5.24 20.95 C1.8 22.37, 1.41 20.66, 0 15.71 M5.24 20.95 C1.33 20.99, 0.7 19.46, 0 15.71 M0 15.71 C-0.82 13.66, 0.02 10.26, 0 5.24 M0 15.71 C0.47 13.68, 0.43 11.6, 0 5.24 M0 5.24 C1.83 1.23, 0.73 0.79, 5.24 0 M0 5.24 C-0.63 -0.41, 3.65 2.21, 5.24 0" stroke="#1e1e1e" stroke-width="2" fill="none"></path></g><g stroke-linecap="round" transform="translate(27.00027901785961 45.15652205235165) rotate(90.684351531919 25.4296875 23.859375)"><path d="M23.26 -0.13 C28.34 -0.82, 35.37 1.77, 39.68 4.87 C44 7.96, 47.7 13.55, 49.17 18.45 C50.64 23.34, 50.79 29.76, 48.49 34.24 C46.19 38.72, 40.18 43.06, 35.38 45.32 C30.58 47.58, 24.72 48.95, 19.67 47.79 C14.62 46.64, 8.2 42.56, 5.06 38.38 C1.92 34.21, 0.48 28.06, 0.83 22.75 C1.18 17.44, 2.18 10.29, 7.14 6.52 C12.11 2.76, 25.86 0.6, 30.64 0.16 C35.41 -0.29, 35.78 3.41, 35.79 3.85 M31.98 1.16 C37.03 2.43, 43.75 6.12, 46.72 10.69 C49.7 15.25, 50.8 23.14, 49.83 28.54 C48.87 33.94, 44.74 39.81, 40.93 43.08 C37.12 46.34, 32.13 48.25, 26.99 48.12 C21.84 47.99, 14.25 45.64, 10.05 42.3 C5.84 38.96, 2.88 33, 1.75 28.1 C0.62 23.2, 1.01 17.47, 3.26 12.91 C5.52 8.34, 10.13 2.91, 15.3 0.72 C20.46 -1.47, 31.42 -0.48, 34.23 -0.23 C37.04 0.02, 32.64 1.4, 32.17 2.23" stroke="none" stroke-width="0" fill="#d0bfff"></path><path d="M19.4 1.3 C24.41 -0.09, 31.08 0.05, 36.1 2.1 C41.12 4.14, 47.29 8.9, 49.54 13.55 C51.8 18.21, 51.26 25.01, 49.64 30.02 C48.02 35.04, 44.29 40.65, 39.82 43.65 C35.36 46.65, 28.32 48.62, 22.83 48.01 C17.34 47.39, 10.78 43.87, 6.89 39.98 C3 36.1, -0.1 29.87, -0.51 24.71 C-0.91 19.54, 0.81 13.14, 4.46 8.98 C8.11 4.83, 18.23 1.01, 21.38 -0.23 C24.53 -1.47, 23.52 1.06, 23.34 1.53 M17.24 0.65 C21.8 -1.34, 29.42 -0.99, 34.27 1.07 C39.12 3.14, 43.82 8.56, 46.36 13.03 C48.9 17.51, 50.22 22.83, 49.5 27.93 C48.78 33.03, 46.32 40.09, 42.04 43.62 C37.77 47.15, 29.29 49.15, 23.86 49.13 C18.43 49.1, 13.62 47.14, 9.48 43.45 C5.35 39.75, -0.17 32.05, -0.95 26.94 C-1.74 21.82, 1.67 16.92, 4.77 12.75 C7.86 8.59, 15.44 3.75, 17.62 1.96 C19.8 0.17, 17.82 1.56, 17.86 2.02" stroke="#1e1e1e" stroke-width="2" fill="none"></path></g></svg>