<svg version="1.1" xmlns="http://www.w3.org/2000/svg" viewBox="0 0 105.26171875 140.84223780150023" width="105.26171875" height="140.84223780150023">
  <!-- svg-source:excalidraw -->
  
  <defs>
    <style class="style-fonts">
      @font-face {
        font-family: "Virgil";
        src: url("https://excalidraw.com/Virgil.woff2");
      }
      @font-face {
        font-family: "Cascadia";
        src: url("https://excalidraw.com/Cascadia.woff2");
      }
      @font-face {
        font-family: "Assistant";
        src: url("https://excalidraw.com/Assistant-Regular.woff2");
      }
    </style>
    
  </defs>
  <g stroke-linecap="round" transform="translate(34.05486505681802 109.06643921733576) rotate(22.461246866865288 19.283203125 7.48828125)"><path d="M3.74 0 C13.52 -0.71, 22.64 -2.13, 34.82 0 C37.32 -1.55, 36.71 -0.25, 38.57 3.74 C39.1 6.94, 39.27 8.81, 38.57 11.23 C41.16 12.41, 35.49 15.57, 34.82 14.98 C26.09 13.58, 16.45 12.3, 3.74 14.98 C3.34 15.21, 2.05 15.55, 0 11.23 C0.64 8.52, -0.6 6.11, 0 3.74 C1.09 -0.6, -0.93 -0.71, 3.74 0" stroke="none" stroke-width="0" fill="#868e96"></path><path d="M3.74 0 C9.95 0.4, 17.27 -0.62, 34.82 0 M3.74 0 C10.6 0.36, 17.58 -0.27, 34.82 0 M34.82 0 C36.82 -0.6, 39.54 1.7, 38.57 3.74 M34.82 0 C38.02 -0.55, 37.68 2.23, 38.57 3.74 M38.57 3.74 C38.89 5.86, 38.89 8.05, 38.57 11.23 M38.57 3.74 C38.66 6.56, 38.69 9.43, 38.57 11.23 M38.57 11.23 C39.27 13.58, 38.14 14.07, 34.82 14.98 M38.57 11.23 C39.51 13.17, 37.51 14.42, 34.82 14.98 M34.82 14.98 C26.06 14.23, 17.99 15.42, 3.74 14.98 M34.82 14.98 C25.03 14.89, 15.82 14.62, 3.74 14.98 M3.74 14.98 C1.49 15.06, 0.45 13.83, 0 11.23 M3.74 14.98 C1.25 16.08, 0.86 12.59, 0 11.23 M0 11.23 C-0.01 8.76, 0.28 7.24, 0 3.74 M0 11.23 C-0.07 9.59, 0.04 7.73, 0 3.74 M0 3.74 C0.27 1.56, 2.13 0.22, 3.74 0 M0 3.74 C-0.03 0.97, 1.81 -0.04, 3.74 0" stroke="#1e1e1e" stroke-width="2" fill="none"></path></g><g stroke-linecap="round" transform="translate(33.868992660985896 16.919422171883525) rotate(22.923355211056883 19.283203125 7.48828125)"><path d="M3.74 0 C16.12 -1.78, 26.59 -1.49, 34.82 0 C35.46 -1.5, 40.6 3.74, 38.57 3.74 C39.22 5.09, 39.58 7.13, 38.57 11.23 C36.74 14.32, 37.23 17.1, 34.82 14.98 C26.74 12.26, 20.61 15.02, 3.74 14.98 C3.3 16.8, 0.27 12.09, 0 11.23 C-0.72 8.71, 0.35 6.44, 0 3.74 C-2.18 0.54, 2.99 1.7, 3.74 0" stroke="none" stroke-width="0" fill="#868e96"></path><path d="M3.74 0 C14.25 -0.67, 22.08 0.16, 34.82 0 M3.74 0 C12.5 -0.42, 20.03 -0.4, 34.82 0 M34.82 0 C38.29 0.46, 39.17 0.77, 38.57 3.74 M34.82 0 C36.43 0.98, 38.26 0.14, 38.57 3.74 M38.57 3.74 C38.96 6.63, 38.85 8.94, 38.57 11.23 M38.57 3.74 C38.73 6.38, 38.72 8.62, 38.57 11.23 M38.57 11.23 C39.39 12.82, 38.14 14.49, 34.82 14.98 M38.57 11.23 C38.76 13.17, 36.82 14.01, 34.82 14.98 M34.82 14.98 C26.38 15.41, 19.81 14.21, 3.74 14.98 M34.82 14.98 C28.37 14.77, 21.57 15.03, 3.74 14.98 M3.74 14.98 C1.7 15.07, 0 14.69, 0 11.23 M3.74 14.98 C2.11 13.84, -0.1 14.4, 0 11.23 M0 11.23 C0.3 9.66, -0.23 7.5, 0 3.74 M0 11.23 C0.07 8.72, 0.06 6.16, 0 3.74 M0 3.74 C0.88 1.47, 1.22 -0.24, 3.74 0 M0 3.74 C0.56 1.21, 1.12 -0.89, 3.74 0" stroke="#1e1e1e" stroke-width="2" fill="none"></path></g><g stroke-linecap="round" transform="translate(10 32.545724255215646) rotate(0 42.630859375 38.322265625)"><path d="M19.16 0 C32.45 -1.55, 43.16 -1.47, 66.1 0 C81.69 3.45, 83.8 8, 85.26 19.16 C89.29 30.27, 83.16 45.87, 85.26 57.48 C85.14 73.2, 77.52 77.32, 66.1 76.64 C57.16 76.15, 45.27 78.35, 19.16 76.64 C6.76 74.37, -0.93 72.39, 0 57.48 C1.98 44.96, -2.54 36.56, 0 19.16 C2.41 8.74, 7.81 -0.11, 19.16 0" stroke="none" stroke-width="0" fill="#a18072"></path><path d="M19.16 0 C33.48 0.74, 50.53 1, 66.1 0 M19.16 0 C35.66 -0.3, 54.14 0.75, 66.1 0 M66.1 0 C80.09 -0.96, 83.72 8.1, 85.26 19.16 M66.1 0 C78.26 -2.23, 86.57 8.61, 85.26 19.16 M85.26 19.16 C86.97 30.6, 86.17 44.84, 85.26 57.48 M85.26 19.16 C86.26 31.84, 86.38 43.92, 85.26 57.48 M85.26 57.48 C86.9 69.28, 79.2 75.67, 66.1 76.64 M85.26 57.48 C84.26 68.33, 77.57 74.82, 66.1 76.64 M66.1 76.64 C55.28 75.56, 42.38 76.21, 19.16 76.64 M66.1 76.64 C51.84 76.52, 37.55 76.54, 19.16 76.64 M19.16 76.64 C6.39 78.57, 1.5 68.28, 0 57.48 M19.16 76.64 C6.19 77.98, -0.93 70.33, 0 57.48 M0 57.48 C-1.55 49.83, 0.55 39.91, 0 19.16 M0 57.48 C0.16 43.45, 0.77 29.02, 0 19.16 M0 19.16 C-0.05 5.91, 7.36 -0.07, 19.16 0 M0 19.16 C-0.26 4.62, 7.94 0.71, 19.16 0" stroke="#1e1e1e" stroke-width="2" fill="none"></path></g><g stroke-linecap="round" transform="translate(38.649680311687916 96.89204723666717) rotate(90.684351531919 13.974609375 10.47265625)"><path d="M5.24 0 C10.61 -0.29, 15.27 -1.21, 22.71 0 C23.17 -3.57, 26.28 3.92, 27.95 5.24 C27.68 8.29, 29.31 11.19, 27.95 15.71 C29.01 17.11, 23.47 23.04, 22.71 20.95 C16.46 20.27, 17.57 17.97, 5.24 20.95 C0.92 20.99, -0.14 15.75, 0 15.71 C-1.62 12.69, -1.75 6, 0 5.24 C3 2.97, 4.04 -0.81, 5.24 0" stroke="none" stroke-width="0" fill="#eaddd7"></path><path d="M5.24 0 C10.39 -1.3, 16.81 1.81, 22.71 0 M5.24 0 C9.14 0.57, 13.8 0.19, 22.71 0 M22.71 0 C26.75 0.63, 29.71 2.19, 27.95 5.24 M22.71 0 C26.15 -0.55, 29.07 1.67, 27.95 5.24 M27.95 5.24 C28.19 8.08, 28.25 10.54, 27.95 15.71 M27.95 5.24 C27.58 8.79, 28.39 11.31, 27.95 15.71 M27.95 15.71 C28.85 19.95, 27.46 19.71, 22.71 20.95 M27.95 15.71 C30.24 18.03, 24.59 21.47, 22.71 20.95 M22.71 20.95 C17.86 20.04, 12.39 19.18, 5.24 20.95 M22.71 20.95 C16.68 21.17, 8.87 20.86, 5.24 20.95 M5.24 20.95 C2.93 20.15, -1.36 18.23, 0 15.71 M5.24 20.95 C2.71 19.31, -1.93 18.57, 0 15.71 M0 15.71 C-0.1 11.44, -0.43 7.79, 0 5.24 M0 15.71 C0.15 12.16, -0.4 8.14, 0 5.24 M0 5.24 C0.66 1.03, 2.48 0.82, 5.24 0 M0 5.24 C0.8 3.31, 3.55 0.7, 5.24 0" stroke="#1e1e1e" stroke-width="2" fill="none"></path></g><g stroke-linecap="round" transform="translate(27.00027901785961 45.15652205235074) rotate(90.684351531919 25.4296875 23.859375)"><path d="M30.46 1.2 C35.82 2.12, 42.74 5.73, 46.13 9.58 C49.53 13.43, 51.17 19.3, 50.81 24.3 C50.45 29.31, 47.48 35.71, 43.97 39.61 C40.47 43.51, 35.16 46.89, 29.78 47.69 C24.4 48.49, 16.3 47.27, 11.69 44.41 C7.07 41.54, 3.6 35.36, 2.11 30.49 C0.61 25.63, 0.88 19.79, 2.72 15.24 C4.56 10.68, 8.12 5.48, 13.15 3.15 C18.18 0.83, 29.3 1.36, 32.89 1.28 C36.48 1.21, 34.82 2.33, 34.69 2.69 M31.82 0.23 C36.68 0.97, 42.78 4.65, 45.69 8.79 C48.6 12.94, 49.5 19.96, 49.29 25.1 C49.08 30.24, 47.77 35.96, 44.43 39.64 C41.08 43.31, 34.83 46.43, 29.2 47.16 C23.56 47.88, 15.17 46.65, 10.61 43.96 C6.06 41.27, 3.16 36.17, 1.85 31.01 C0.54 25.86, 0.84 17.68, 2.76 13.04 C4.69 8.39, 8.78 5.1, 13.4 3.17 C18.03 1.24, 27.67 1.98, 30.52 1.45 C33.37 0.93, 30.43 -0.44, 30.51 0.01" stroke="none" stroke-width="0" fill="#eaddd7"></path><path d="M38 2.6 C42.93 4.63, 47.86 10.56, 49.83 15.41 C51.81 20.26, 51.65 26.76, 49.85 31.71 C48.05 36.65, 43.69 42.47, 39.03 45.09 C34.37 47.71, 27.37 48.26, 21.89 47.43 C16.41 46.61, 9.79 44, 6.14 40.15 C2.49 36.31, 0.2 29.44, -0.02 24.37 C-0.25 19.29, 1.31 13.69, 4.76 9.68 C8.21 5.67, 14.61 1.24, 20.67 0.31 C26.73 -0.62, 37.36 3.01, 41.12 4.11 C44.88 5.21, 43.67 6.56, 43.24 6.9 M35.8 2.37 C40.63 3.89, 46.25 7.58, 48.91 11.89 C51.57 16.2, 53.27 23.03, 51.76 28.23 C50.25 33.43, 44.46 39.67, 39.88 43.11 C35.31 46.56, 29.67 49.15, 24.3 48.92 C18.94 48.7, 11.84 45.4, 7.71 41.75 C3.58 38.11, 0.37 31.96, -0.5 27.05 C-1.36 22.13, -0.56 16.4, 2.51 12.27 C5.57 8.15, 12.28 4.02, 17.89 2.3 C23.5 0.58, 33.5 2.03, 36.18 1.96 C38.87 1.89, 34.18 1.62, 33.99 1.86" stroke="#1e1e1e" stroke-width="2" fill="none"></path></g></svg>