<svg version="1.1" xmlns="http://www.w3.org/2000/svg" viewBox="0 0 108.91314535019183 140.84223780150205" width="108.91314535019183" height="140.84223780150205">
  <!-- svg-source:excalidraw -->
  
  <defs>
    <style class="style-fonts">
      @font-face {
        font-family: "Virgil";
        src: url("https://excalidraw.com/Virgil.woff2");
      }
      @font-face {
        font-family: "Cascadia";
        src: url("https://excalidraw.com/Cascadia.woff2");
      }
      @font-face {
        font-family: "Assistant";
        src: url("https://excalidraw.com/Assistant-Regular.woff2");
      }
    </style>
    
  </defs>
  <g stroke-linecap="round" transform="translate(37.70629165700984 109.06643921733757) rotate(22.461246866865288 19.283203125 7.48828125)"><path d="M3.74 0 C16.76 0.2, 30.71 -0.69, 34.82 0 C37.81 -1.24, 38.64 -1.28, 38.57 3.74 C39.26 6.69, 37.96 9.19, 38.57 11.23 C40.11 12.69, 35.55 13.72, 34.82 14.98 C23.48 16.38, 15.26 15.67, 3.74 14.98 C1.17 13.92, -0.89 13.14, 0 11.23 C0.3 9.21, -0.72 6.34, 0 3.74 C0.86 0.31, 2.2 1.07, 3.74 0" stroke="none" stroke-width="0" fill="#868e96"></path><path d="M3.74 0 C15.81 -0.15, 25.19 0.69, 34.82 0 M3.74 0 C16.36 0.19, 28.19 -0.01, 34.82 0 M34.82 0 C37.9 0.35, 39.33 2.24, 38.57 3.74 M34.82 0 C38.13 -0.18, 39.51 0.2, 38.57 3.74 M38.57 3.74 C38.37 6.44, 38.23 9.25, 38.57 11.23 M38.57 3.74 C38.64 5.41, 38.42 6.89, 38.57 11.23 M38.57 11.23 C38.22 13.82, 37.79 14.54, 34.82 14.98 M38.57 11.23 C38.85 13.83, 37.84 15.09, 34.82 14.98 M34.82 14.98 C24.5 15.01, 16.73 14.69, 3.74 14.98 M34.82 14.98 C25.89 14.79, 16.18 15.31, 3.74 14.98 M3.74 14.98 C0.96 15.72, 0.29 14.03, 0 11.23 M3.74 14.98 C1.56 15.34, 1.01 13.98, 0 11.23 M0 11.23 C0 8.96, -0.28 7.03, 0 3.74 M0 11.23 C-0.13 8.76, -0.11 6.14, 0 3.74 M0 3.74 C-0.58 2.03, 2.21 -0.41, 3.74 0 M0 3.74 C0.52 1.68, 1.97 -0.71, 3.74 0" stroke="#1e1e1e" stroke-width="2" fill="none"></path></g><g stroke-linecap="round" transform="translate(37.5204192611759 16.919422171883525) rotate(22.923355211056883 19.283203125 7.48828125)"><path d="M3.74 0 C13.01 -0.97, 18.51 -1.23, 34.82 0 C37.39 -2.52, 40.66 1.48, 38.57 3.74 C38.02 6.33, 39.21 9.03, 38.57 11.23 C36.79 12.47, 38.41 13.13, 34.82 14.98 C29.8 16.28, 21.3 14.19, 3.74 14.98 C0.35 14.39, 2.15 14.25, 0 11.23 C-0.74 10.01, 0.29 6.77, 0 3.74 C0.96 2.32, 2.16 1.77, 3.74 0" stroke="none" stroke-width="0" fill="#868e96"></path><path d="M3.74 0 C9.7 0.61, 18.55 0.24, 34.82 0 M3.74 0 C15.81 0.03, 28.57 0.07, 34.82 0 M34.82 0 C38.08 1, 39.27 1.1, 38.57 3.74 M34.82 0 C38.27 -1.05, 39.51 0.69, 38.57 3.74 M38.57 3.74 C38.23 5.9, 38.25 8.24, 38.57 11.23 M38.57 3.74 C38.46 5.17, 38.52 6.92, 38.57 11.23 M38.57 11.23 C39.03 13.29, 37.56 15.06, 34.82 14.98 M38.57 11.23 C39.08 13.84, 37.32 16.08, 34.82 14.98 M34.82 14.98 C23.76 14.56, 11.56 14.18, 3.74 14.98 M34.82 14.98 C23.24 15.09, 11.1 15.25, 3.74 14.98 M3.74 14.98 C1.54 15.28, 0.27 14.04, 0 11.23 M3.74 14.98 C2.26 15.23, -0.03 13.45, 0 11.23 M0 11.23 C-0.29 8.88, 0.12 5.95, 0 3.74 M0 11.23 C-0.09 8.58, -0.08 6.34, 0 3.74 M0 3.74 C0.96 0.84, 1.7 0.38, 3.74 0 M0 3.74 C0.72 0.54, 2.4 -0.59, 3.74 0" stroke="#1e1e1e" stroke-width="2" fill="none"></path></g><g stroke-linecap="round" transform="translate(13.651426600191826 32.545724255215646) rotate(0 42.630859375 38.322265625)"><path d="M19.16 0 C33.77 -1.4, 47.12 -3.18, 66.1 0 C81.77 0.33, 88.1 8.91, 85.26 19.16 C86.96 29.62, 82.37 41.21, 85.26 57.48 C86.77 67.71, 75.86 75.66, 66.1 76.64 C48.76 75.51, 30.41 76.17, 19.16 76.64 C9.36 77.37, -0.91 71.42, 0 57.48 C1.69 41.37, 1.82 29.32, 0 19.16 C1.26 8.84, 9.21 1.1, 19.16 0" stroke="none" stroke-width="0" fill="#a18072"></path><path d="M19.16 0 C33.92 0.13, 46.71 0.88, 66.1 0 M19.16 0 C36.98 0.22, 54.4 0.87, 66.1 0 M66.1 0 C80.29 -0.3, 86.91 4.57, 85.26 19.16 M66.1 0 C80.76 -1.13, 85.64 5.27, 85.26 19.16 M85.26 19.16 C83.35 27.68, 83.16 39.89, 85.26 57.48 M85.26 19.16 C84.66 31.11, 85.47 42.44, 85.26 57.48 M85.26 57.48 C85.75 70.43, 79.77 76.84, 66.1 76.64 M85.26 57.48 C85.27 72.47, 80.59 74.37, 66.1 76.64 M66.1 76.64 C52.49 74.89, 40.33 78.45, 19.16 76.64 M66.1 76.64 C54.65 77.59, 44.08 77.15, 19.16 76.64 M19.16 76.64 C6.93 77.27, 1.76 70.7, 0 57.48 M19.16 76.64 C6.33 76.09, 1.12 70.18, 0 57.48 M0 57.48 C0.91 46.08, 1.03 33.93, 0 19.16 M0 57.48 C-0.35 46.77, 1.19 34.08, 0 19.16 M0 19.16 C0.9 7.14, 7.64 -1.23, 19.16 0 M0 19.16 C2.29 5.22, 4.77 0.53, 19.16 0" stroke="#1e1e1e" stroke-width="2" fill="none"></path></g><g stroke-linecap="round" transform="translate(13.186373760761398 31.768827916034752) rotate(47.524435689906944 13.974609375 10.47265625)"><path d="M5.24 0 C13.75 1.27, 15.72 1.38, 22.71 0 C27.68 1.26, 30.4 4.57, 27.95 5.24 C29.13 8.57, 27.93 11.47, 27.95 15.71 C26.79 16.16, 22.63 19.28, 22.71 20.95 C15.45 20.5, 11.12 23.21, 5.24 20.95 C3.77 22.01, -2.09 16.46, 0 15.71 C-1.37 10.41, -0.08 9.54, 0 5.24 C-3.12 0.92, 1.79 -0.14, 5.24 0" stroke="none" stroke-width="0" fill="#eaddd7"></path><path d="M5.24 0 C9.11 0.34, 14.67 0.7, 22.71 0 M5.24 0 C11.3 -1.03, 15.99 0.34, 22.71 0 M22.71 0 C25.4 0.07, 26.38 3.33, 27.95 5.24 M22.71 0 C28.49 -1.43, 28.91 2.73, 27.95 5.24 M27.95 5.24 C28.35 8.36, 28.36 11.84, 27.95 15.71 M27.95 5.24 C28.2 8.59, 27.89 11.58, 27.95 15.71 M27.95 15.71 C29.3 19.82, 25.87 21.68, 22.71 20.95 M27.95 15.71 C26.31 19.2, 24.83 19.3, 22.71 20.95 M22.71 20.95 C17.77 21.9, 14.9 22.21, 5.24 20.95 M22.71 20.95 C17.93 21.06, 14.35 21.57, 5.24 20.95 M5.24 20.95 C0.99 21.32, -0.96 19.26, 0 15.71 M5.24 20.95 C-0.49 22.79, 0.21 21.02, 0 15.71 M0 15.71 C-0.28 12.45, -0.43 7.24, 0 5.24 M0 15.71 C-0.48 12.93, 0.31 10.78, 0 5.24 M0 5.24 C0.79 1.68, 0.93 -0.69, 5.24 0 M0 5.24 C-0.52 3.65, 2.21 -0.58, 5.24 0" stroke="#1e1e1e" stroke-width="2" fill="none"></path></g><g stroke-linecap="round" transform="translate(28.105044809020455 46.22262049353867) rotate(47.524435689906944 25.4296875 23.859375)"><path d="M14.35 3.46 C18.66 0.8, 25.75 -1.15, 30.9 -0.09 C36.05 0.97, 42.01 5.79, 45.26 9.82 C48.52 13.85, 50.69 19.01, 50.44 24.09 C50.2 29.17, 47.5 36.54, 43.79 40.3 C40.08 44.06, 33.54 45.92, 28.18 46.66 C22.81 47.4, 15.99 47.24, 11.61 44.72 C7.23 42.2, 3.5 36.6, 1.87 31.55 C0.25 26.51, -0.49 19.47, 1.85 14.44 C4.19 9.41, 12.89 3.55, 15.93 1.38 C18.96 -0.79, 19.89 0.95, 20.05 1.41 M36.61 1.67 C41.72 3.32, 46.68 9.45, 49 14.33 C51.32 19.22, 51.83 26.08, 50.53 30.99 C49.24 35.91, 45.74 40.92, 41.25 43.83 C36.76 46.73, 29.06 48.93, 23.58 48.4 C18.11 47.88, 12.33 44.5, 8.41 40.67 C4.49 36.85, 0.78 30.74, 0.06 25.45 C-0.66 20.17, 1.2 13.18, 4.07 8.96 C6.95 4.74, 11.8 1.43, 17.29 0.13 C22.78 -1.16, 33.69 0.88, 37.02 1.22 C40.35 1.56, 37.69 1.58, 37.3 2.18" stroke="none" stroke-width="0" fill="#eaddd7"></path><path d="M32.06 1.35 C37 2.12, 41.49 5.49, 44.72 9.37 C47.94 13.26, 51.51 19.66, 51.41 24.65 C51.31 29.64, 47.77 35.33, 44.1 39.31 C40.43 43.29, 34.89 47.7, 29.38 48.53 C23.86 49.36, 15.64 47.31, 11 44.32 C6.37 41.33, 2.93 35.5, 1.56 30.59 C0.18 25.69, 0.65 19.5, 2.74 14.88 C4.84 10.26, 8.71 4.93, 14.14 2.9 C19.57 0.86, 31.26 2.48, 35.34 2.65 C39.43 2.81, 38.92 3.59, 38.67 3.9 M26.02 0.47 C31.18 0.36, 37.31 2.73, 41.2 5.88 C45.08 9.02, 48.4 14.58, 49.33 19.33 C50.26 24.08, 49.38 29.71, 46.76 34.37 C44.15 39.04, 38.36 45.41, 33.66 47.32 C28.96 49.22, 23.46 47.57, 18.57 45.8 C13.67 44.03, 7.18 41.13, 4.29 36.7 C1.41 32.26, 0.26 24.45, 1.26 19.18 C2.25 13.91, 6.48 8.21, 10.26 5.08 C14.04 1.94, 21.5 0.91, 23.95 0.35 C26.41 -0.21, 24.88 1.32, 24.97 1.71" stroke="#1e1e1e" stroke-width="2" fill="none"></path></g></svg>