<svg version="1.1" xmlns="http://www.w3.org/2000/svg" viewBox="0 0 106.89305606447624 140.84223780150023" width="106.89305606447624" height="140.84223780150023">
  <!-- svg-source:excalidraw -->
  
  <defs>
    <style class="style-fonts">
      @font-face {
        font-family: "Virgil";
        src: url("https://excalidraw.com/Virgil.woff2");
      }
      @font-face {
        font-family: "Cascadia";
        src: url("https://excalidraw.com/Cascadia.woff2");
      }
      @font-face {
        font-family: "Assistant";
        src: url("https://excalidraw.com/Assistant-Regular.woff2");
      }
    </style>
    
  </defs>
  <g stroke-linecap="round" transform="translate(35.68620237129426 109.06643921733576) rotate(22.461246866865288 19.283203125 7.48828125)"><path d="M3.74 0 C8.99 -1.26, 20 2.74, 34.82 0 C36.26 1.17, 39.55 2.88, 38.57 3.74 C37.98 5.75, 38.63 8.11, 38.57 11.23 C37.59 14.22, 36.08 15.05, 34.82 14.98 C30.57 16.84, 22.48 13.37, 3.74 14.98 C0.58 16.52, -1.04 11.96, 0 11.23 C-0.86 9.08, 0.61 8.1, 0 3.74 C1.03 1.17, 0.19 -0.89, 3.74 0" stroke="none" stroke-width="0" fill="#868e96"></path><path d="M3.74 0 C10.85 0.33, 19.27 0.95, 34.82 0 M3.74 0 C11.57 0.32, 18.74 -0.15, 34.82 0 M34.82 0 C36.55 0.86, 38.3 0.28, 38.57 3.74 M34.82 0 C37.97 1.11, 38.79 2.34, 38.57 3.74 M38.57 3.74 C38.69 6.64, 38.72 9.38, 38.57 11.23 M38.57 3.74 C38.75 6.57, 38.75 9.64, 38.57 11.23 M38.57 11.23 C38.73 13.24, 36.88 14.14, 34.82 14.98 M38.57 11.23 C37.91 12.82, 36.57 13.96, 34.82 14.98 M34.82 14.98 C22.99 14.53, 12.94 15.34, 3.74 14.98 M34.82 14.98 C27.09 15.04, 18.92 15.47, 3.74 14.98 M3.74 14.98 C2 13.99, -0.09 14.31, 0 11.23 M3.74 14.98 C0.78 15.01, -0.9 14.64, 0 11.23 M0 11.23 C0.18 8.13, 0.3 5.36, 0 3.74 M0 11.23 C0.15 8.8, -0.01 6.24, 0 3.74 M0 3.74 C0.49 1.21, 1.14 -0.77, 3.74 0 M0 3.74 C0.78 1.6, 1.05 0.42, 3.74 0" stroke="#1e1e1e" stroke-width="2" fill="none"></path></g><g stroke-linecap="round" transform="translate(35.50032997546032 16.919422171883525) rotate(22.923355211056883 19.283203125 7.48828125)"><path d="M3.74 0 C13.24 2.73, 17.62 1.4, 34.82 0 C38.3 1.63, 36.97 3.84, 38.57 3.74 C38.47 6.4, 38.13 7.66, 38.57 11.23 C37.32 13.8, 34.79 17.07, 34.82 14.98 C25.49 13.62, 14.94 16.8, 3.74 14.98 C0.21 13.2, -1.26 14.82, 0 11.23 C0.73 10.15, 0.47 7.77, 0 3.74 C-1.06 0.35, 0.66 2.15, 3.74 0" stroke="none" stroke-width="0" fill="#868e96"></path><path d="M3.74 0 C14.4 0.93, 23.17 -0.56, 34.82 0 M3.74 0 C11.5 -0.31, 18.26 0.36, 34.82 0 M34.82 0 C37.05 -0.97, 39.13 2.21, 38.57 3.74 M34.82 0 C37.55 1.09, 39.22 2.02, 38.57 3.74 M38.57 3.74 C38.71 5.97, 38.95 7.89, 38.57 11.23 M38.57 3.74 C38.75 5.78, 38.63 7.92, 38.57 11.23 M38.57 11.23 C38.13 12.89, 36.75 14.18, 34.82 14.98 M38.57 11.23 C37.81 12.71, 37.93 15.09, 34.82 14.98 M34.82 14.98 C27.66 15.39, 19.87 15.17, 3.74 14.98 M34.82 14.98 C25.24 15.47, 16.02 14.5, 3.74 14.98 M3.74 14.98 C1.16 15.56, -0.4 13.76, 0 11.23 M3.74 14.98 C0.35 15.89, 1.14 13.01, 0 11.23 M0 11.23 C0.26 8.78, 0.1 6.21, 0 3.74 M0 11.23 C-0.04 8.71, 0.06 6.26, 0 3.74 M0 3.74 C-0.11 0.48, 1.92 0.31, 3.74 0 M0 3.74 C-0.19 1.67, 0.43 0, 3.74 0" stroke="#1e1e1e" stroke-width="2" fill="none"></path></g><g stroke-linecap="round" transform="translate(11.63133731447624 32.545724255215646) rotate(0 42.630859375 38.322265625)"><path d="M19.16 0 C29.07 0.81, 43.27 1.45, 66.1 0 C76.66 3.59, 83.43 3.86, 85.26 19.16 C83.88 32.21, 83.52 44.02, 85.26 57.48 C81.77 73.15, 79.2 79.49, 66.1 76.64 C47.8 78.24, 29.92 73.66, 19.16 76.64 C4.65 78.16, -2.55 67.24, 0 57.48 C0.96 46.92, -1.93 35.35, 0 19.16 C-0.81 9.36, 7.11 -0.91, 19.16 0" stroke="none" stroke-width="0" fill="#a18072"></path><path d="M19.16 0 C33.66 -1.46, 49.5 1.48, 66.1 0 M19.16 0 C34.61 1.08, 51.34 -0.74, 66.1 0 M66.1 0 C80.01 1.93, 85.66 8.28, 85.26 19.16 M66.1 0 C80.19 1.55, 84.32 7.02, 85.26 19.16 M85.26 19.16 C87.39 34.3, 85.09 48.26, 85.26 57.48 M85.26 19.16 C85.74 26.69, 85.14 34.35, 85.26 57.48 M85.26 57.48 C84.12 68.67, 77.57 74.87, 66.1 76.64 M85.26 57.48 C86.49 70.48, 77.34 74.69, 66.1 76.64 M66.1 76.64 C52.74 77.35, 41.32 77.76, 19.16 76.64 M66.1 76.64 C52.31 76.11, 36.94 77.68, 19.16 76.64 M19.16 76.64 C5.58 76.71, -1.57 71.84, 0 57.48 M19.16 76.64 C8.68 75.21, 0.96 71.24, 0 57.48 M0 57.48 C0.32 47.64, 0.34 38.48, 0 19.16 M0 57.48 C0.49 45.1, -0.1 32.02, 0 19.16 M0 19.16 C1.35 7, 6.05 0.73, 19.16 0 M0 19.16 C-1.64 6.39, 5.01 -1.65, 19.16 0" stroke="#1e1e1e" stroke-width="2" fill="none"></path></g><g stroke-linecap="round" transform="translate(13.186373760761398 88.17832059975353) rotate(312.47556431009303 13.974609375 10.47265625)"><path d="M5.24 0 C12.05 0.38, 18.55 1.66, 22.71 0 C25.96 -0.11, 26.63 0.58, 27.95 5.24 C28.9 6.25, 29.52 9.18, 27.95 15.71 C27.1 20.35, 28.46 22.97, 22.71 20.95 C18.78 17.89, 12.61 18.13, 5.24 20.95 C-1.2 20.46, 2.54 16.08, 0 15.71 C-1.81 14.21, -0.47 8.93, 0 5.24 C-3.18 3.46, -1.68 -3.58, 5.24 0" stroke="none" stroke-width="0" fill="#eaddd7"></path><path d="M5.24 0 C8.76 -0.28, 16.75 -0.84, 22.71 0 M5.24 0 C11.41 -0.68, 16.21 0.24, 22.71 0 M22.71 0 C25.62 1.49, 28.54 2.35, 27.95 5.24 M22.71 0 C26.83 0.72, 29.98 2.26, 27.95 5.24 M27.95 5.24 C27.89 8.24, 27.12 12.18, 27.95 15.71 M27.95 5.24 C27.56 8.7, 27.62 11.79, 27.95 15.71 M27.95 15.71 C26.8 20.77, 28.12 20.13, 22.71 20.95 M27.95 15.71 C28.98 20.07, 27.65 19.53, 22.71 20.95 M22.71 20.95 C16.13 20.77, 10.17 20.16, 5.24 20.95 M22.71 20.95 C16.29 21.65, 11.65 21.64, 5.24 20.95 M5.24 20.95 C3.15 21.15, -1.26 18.68, 0 15.71 M5.24 20.95 C3.11 20.03, -1.57 18.09, 0 15.71 M0 15.71 C-0.21 12.83, 0.76 8.96, 0 5.24 M0 15.71 C-0.07 13.03, 0.15 9.36, 0 5.24 M0 5.24 C0.65 3.48, 0.3 1.72, 5.24 0 M0 5.24 C0.76 0.92, 2.59 0.95, 5.24 0" stroke="#1e1e1e" stroke-width="2" fill="none"></path></g><g stroke-linecap="round" transform="translate(28.105044809020455 46.951090522249615) rotate(312.47556431009303 25.4296875 23.859375)"><path d="M32.36 1.46 C37.36 2.56, 43.03 5.69, 46.04 10.01 C49.04 14.34, 50.83 22.14, 50.4 27.42 C49.97 32.7, 47.38 38.38, 43.44 41.69 C39.5 45, 32.36 47.11, 26.75 47.28 C21.14 47.45, 14.01 45.67, 9.8 42.7 C5.59 39.73, 2.7 34.33, 1.48 29.44 C0.27 24.56, 0.03 18.08, 2.51 13.37 C4.99 8.66, 10.79 3.06, 16.34 1.18 C21.89 -0.7, 32.47 1.7, 35.82 2.07 C39.16 2.44, 36.64 3.03, 36.4 3.4 M34.23 2.14 C39.18 3.38, 45.55 7.47, 48.26 11.66 C50.96 15.85, 51.6 22.41, 50.46 27.26 C49.33 32.11, 45.83 37.45, 41.45 40.75 C37.06 44.04, 29.37 46.94, 24.15 47.02 C18.93 47.11, 13.87 44.49, 10.15 41.27 C6.43 38.06, 3.02 32.52, 1.82 27.73 C0.62 22.95, 0.34 16.81, 2.95 12.58 C5.56 8.35, 12.24 4.36, 17.48 2.35 C22.72 0.34, 31.85 0.45, 34.38 0.5 C36.9 0.56, 33.06 2.06, 32.62 2.7" stroke="none" stroke-width="0" fill="#eaddd7"></path><path d="M21.12 1.48 C26.02 0.41, 32.18 1.08, 36.91 3.3 C41.65 5.52, 47.28 10.07, 49.51 14.8 C51.74 19.53, 52.04 26.75, 50.3 31.7 C48.55 36.64, 43.76 41.69, 39.05 44.46 C34.33 47.23, 27.42 49.14, 22.01 48.34 C16.61 47.54, 10.33 43.56, 6.63 39.67 C2.92 35.78, -0.04 30.12, -0.23 25 C-0.42 19.87, 1.36 12.97, 5.48 8.92 C9.59 4.86, 20.3 2.04, 24.44 0.68 C28.58 -0.69, 30.13 0.54, 30.32 0.71 M24.58 1.17 C30.14 0.95, 38.79 1.79, 43.22 4.98 C47.65 8.17, 50.29 15.31, 51.15 20.29 C52.01 25.28, 50.98 30.67, 48.39 34.87 C45.8 39.08, 41.07 43.56, 35.61 45.52 C30.16 47.48, 21.04 48.04, 15.67 46.62 C10.29 45.2, 5.99 41.44, 3.35 37 C0.71 32.57, -1.01 25.22, -0.18 19.99 C0.66 14.76, 4.35 8.75, 8.38 5.62 C12.4 2.49, 21.12 1.87, 23.98 1.21 C26.85 0.55, 25.16 1.44, 25.58 1.66" stroke="#1e1e1e" stroke-width="2" fill="none"></path></g></svg>