<svg version="1.1" xmlns="http://www.w3.org/2000/svg" viewBox="0 0 109.03033285019364 140.84223780150023" width="109.03033285019364" height="140.84223780150023">
  <!-- svg-source:excalidraw -->
  
  <defs>
    <style class="style-fonts">
      @font-face {
        font-family: "Virgil";
        src: url("https://excalidraw.com/Virgil.woff2");
      }
      @font-face {
        font-family: "Cascadia";
        src: url("https://excalidraw.com/Cascadia.woff2");
      }
      @font-face {
        font-family: "Assistant";
        src: url("https://excalidraw.com/Assistant-Regular.woff2");
      }
    </style>
    
  </defs>
  <g stroke-linecap="round" transform="translate(34.40642755681802 109.06643921733576) rotate(22.461246866865288 19.283203125 7.48828125)"><path d="M3.74 0 C13.62 -1.92, 22.29 1.26, 34.82 0 C36.28 -1.77, 37.31 2.34, 38.57 3.74 C39.14 6.1, 38.87 7.15, 38.57 11.23 C37.51 12.84, 36.73 17.13, 34.82 14.98 C27.13 13.23, 17.16 15.97, 3.74 14.98 C0.31 15.93, 1.07 14.64, 0 11.23 C0.12 8.97, 0.51 5.65, 0 3.74 C-0.08 0.3, 0.41 -2.19, 3.74 0" stroke="none" stroke-width="0" fill="#868e96"></path><path d="M3.74 0 C12.14 0.67, 20.85 0.62, 34.82 0 M3.74 0 C13 -0.1, 21.53 -0.1, 34.82 0 M34.82 0 C36.88 -0.84, 38 0.45, 38.57 3.74 M34.82 0 C36.57 -1.02, 39.18 1.36, 38.57 3.74 M38.57 3.74 C38.57 5.67, 38.37 7.33, 38.57 11.23 M38.57 3.74 C38.58 6.23, 38.72 8.18, 38.57 11.23 M38.57 11.23 C38.48 14.31, 36.91 15.01, 34.82 14.98 M38.57 11.23 C37.67 14.64, 38.46 14.26, 34.82 14.98 M34.82 14.98 C24.94 15.23, 13.88 15.2, 3.74 14.98 M34.82 14.98 C24.51 14.89, 14.47 14.99, 3.74 14.98 M3.74 14.98 C1.14 14.21, 0.68 14.04, 0 11.23 M3.74 14.98 C1.05 15.4, -0.82 13.73, 0 11.23 M0 11.23 C0.32 9.79, -0.13 7.8, 0 3.74 M0 11.23 C0.16 8.61, -0.16 6.22, 0 3.74 M0 3.74 C-0.03 2.06, 0.87 0.19, 3.74 0 M0 3.74 C-0.55 1.28, 0.13 0.92, 3.74 0" stroke="#1e1e1e" stroke-width="2" fill="none"></path></g><g stroke-linecap="round" transform="translate(34.220555160985896 16.919422171883525) rotate(22.923355211056883 19.283203125 7.48828125)"><path d="M3.74 0 C14.58 1.79, 25.71 -1.52, 34.82 0 C36.06 1.09, 36.72 -0.93, 38.57 3.74 C39.02 5.76, 38.23 7.49, 38.57 11.23 C37.98 15.88, 37.84 14.32, 34.82 14.98 C26.72 15.54, 13.23 15.64, 3.74 14.98 C2.32 15.88, 1.77 15.77, 0 11.23 C0.57 8.69, -0.05 5.92, 0 3.74 C-0.84 -0.94, -1.33 -1.2, 3.74 0" stroke="none" stroke-width="0" fill="#868e96"></path><path d="M3.74 0 C15.87 0.59, 25.85 0.71, 34.82 0 M3.74 0 C10.33 -0.17, 16.52 -0.34, 34.82 0 M34.82 0 C36.75 -0.79, 37.91 0.36, 38.57 3.74 M34.82 0 C37.93 0.11, 37.8 0.27, 38.57 3.74 M38.57 3.74 C38.4 5.83, 38.6 7.89, 38.57 11.23 M38.57 3.74 C38.71 5.88, 38.55 8.49, 38.57 11.23 M38.57 11.23 C38.16 13.76, 36.53 15.77, 34.82 14.98 M38.57 11.23 C39.71 13.01, 37.8 15.47, 34.82 14.98 M34.82 14.98 C26.7 15.29, 18.29 15.9, 3.74 14.98 M34.82 14.98 C25.05 14.92, 14.74 14.55, 3.74 14.98 M3.74 14.98 C1.92 15.28, -0.17 14.09, 0 11.23 M3.74 14.98 C0.43 14.98, -0.69 12.91, 0 11.23 M0 11.23 C-0.18 9.59, 0.11 7.84, 0 3.74 M0 11.23 C-0.17 9.49, -0.04 7.81, 0 3.74 M0 3.74 C-0.38 1.44, 0.77 0.03, 3.74 0 M0 3.74 C-1.12 2.17, 1.35 0.91, 3.74 0" stroke="#1e1e1e" stroke-width="2" fill="none"></path></g><g stroke-linecap="round" transform="translate(10 32.194161755215646) rotate(0 42.630859375 38.322265625)"><path d="M19.16 0 C28.85 -2.96, 39.67 1.01, 66.1 0 C76.32 -3.01, 84.28 8.8, 85.26 19.16 C84.07 31.93, 84.73 50.15, 85.26 57.48 C85.98 69.35, 80.04 79.77, 66.1 76.64 C54.12 78.25, 46.21 78.18, 19.16 76.64 C8.84 79.47, 1.1 70.98, 0 57.48 C-0.53 42.71, -1.58 27.53, 0 19.16 C-3.57 4.72, 8.56 -2.38, 19.16 0" stroke="none" stroke-width="0" fill="#a18072"></path><path d="M19.16 0 C36.51 1.32, 52.65 1.31, 66.1 0 M19.16 0 C30.51 -0.61, 42.16 -0.57, 66.1 0 M66.1 0 C77.57 -1.78, 86.33 6.58, 85.26 19.16 M66.1 0 C77.34 -1.95, 84.47 6.59, 85.26 19.16 M85.26 19.16 C85.26 33.35, 85.29 45.75, 85.26 57.48 M85.26 19.16 C85.46 34.92, 85.14 49.56, 85.26 57.48 M85.26 57.48 C83.69 71.84, 80.87 75.4, 66.1 76.64 M85.26 57.48 C86.23 71.24, 78.21 78.35, 66.1 76.64 M66.1 76.64 C51.26 78.54, 35.62 76.73, 19.16 76.64 M66.1 76.64 C53.04 75.86, 40.87 76.94, 19.16 76.64 M19.16 76.64 C6.05 77.37, -1.42 70.26, 0 57.48 M19.16 76.64 C5.01 75, -1.33 72.06, 0 57.48 M0 57.48 C0.91 43.57, -1.08 29.13, 0 19.16 M0 57.48 C0.24 48.75, -0.11 38.58, 0 19.16 M0 19.16 C-0.96 6.45, 4.45 1.61, 19.16 0 M0 19.16 C0.21 8.2, 8 0.24, 19.16 0" stroke="#1e1e1e" stroke-width="2" fill="none"></path></g><g stroke-linecap="round" transform="translate(67.89474033943225 30.8145868446054) rotate(312.47556431009303 13.974609375 10.47265625)"><path d="M5.24 0 C10.09 -0.58, 19.71 0.76, 22.71 0 C25.29 1.17, 31.07 -0.86, 27.95 5.24 C28.7 10.05, 28.67 14.6, 27.95 15.71 C30.77 20.3, 26.92 22.79, 22.71 20.95 C15.26 19.92, 7.45 17.82, 5.24 20.95 C0.08 23.12, -2.38 22.56, 0 15.71 C1.23 13.95, 0.6 8.97, 0 5.24 C-2.74 3.84, -1.47 1.62, 5.24 0" stroke="none" stroke-width="0" fill="#eaddd7"></path><path d="M5.24 0 C7.93 1.05, 13.9 -1.05, 22.71 0 M5.24 0 C9.41 -0.4, 12.97 0.06, 22.71 0 M22.71 0 C27.1 0.19, 27.96 3.67, 27.95 5.24 M22.71 0 C27.92 -2.27, 27.75 3.08, 27.95 5.24 M27.95 5.24 C28.78 9, 27.3 11.11, 27.95 15.71 M27.95 5.24 C28.07 8.99, 28.06 12.58, 27.95 15.71 M27.95 15.71 C29.71 19.64, 26.16 20.46, 22.71 20.95 M27.95 15.71 C29.07 19.12, 25.94 19.18, 22.71 20.95 M22.71 20.95 C16.93 19.67, 9.87 19.87, 5.24 20.95 M22.71 20.95 C19.56 20.73, 15.12 21.41, 5.24 20.95 M5.24 20.95 C3 19.71, 2 18.18, 0 15.71 M5.24 20.95 C0.13 21.47, -0.08 21.08, 0 15.71 M0 15.71 C0.01 11.94, 0.82 10.31, 0 5.24 M0 15.71 C-0.4 11.61, 0.24 7.56, 0 5.24 M0 5.24 C-1.36 0.78, 2.59 -1.42, 5.24 0 M0 5.24 C-1.93 1.12, 3.29 1.51, 5.24 0" stroke="#1e1e1e" stroke-width="2" fill="none"></path></g><g stroke-linecap="round" transform="translate(30.06591304117319 45.26837942211296) rotate(312.47556431009303 25.4296875 23.859375)"><path d="M17.49 1.08 C22.23 -0.95, 29.26 -0.7, 34.26 0.94 C39.25 2.58, 44.61 6.39, 47.45 10.91 C50.29 15.42, 52.09 22.72, 51.29 28.04 C50.48 33.35, 46.9 39.62, 42.61 42.8 C38.33 45.98, 31.22 47.09, 25.6 47.09 C19.97 47.08, 13.14 46.05, 8.87 42.77 C4.61 39.48, 1 32.44, 0 27.38 C-1 22.32, -0.22 16.99, 2.89 12.4 C6.01 7.81, 15.5 1.69, 18.69 -0.16 C21.87 -2, 21.66 0.75, 21.99 1.34 M24.7 1.24 C30.02 0.89, 37.41 1.73, 41.77 4.97 C46.14 8.2, 50.09 15.36, 50.89 20.65 C51.69 25.95, 49.21 32.6, 46.56 36.76 C43.91 40.92, 39.81 43.9, 34.99 45.61 C30.17 47.32, 22.8 48.43, 17.65 47.02 C12.51 45.61, 6.82 41.54, 4.13 37.13 C1.44 32.72, 0.67 25.63, 1.5 20.54 C2.32 15.45, 5.01 10.03, 9.08 6.59 C13.16 3.15, 23.29 1.01, 25.95 -0.1 C28.6 -1.21, 25.22 -0.27, 25 -0.07" stroke="none" stroke-width="0" fill="#eaddd7"></path><path d="M17.21 1.78 C22.06 0, 28.98 -0.01, 34.07 1.82 C39.16 3.64, 45 8.29, 47.74 12.71 C50.48 17.14, 51.38 23.32, 50.5 28.39 C49.61 33.45, 46.83 39.92, 42.42 43.13 C38.01 46.34, 29.54 47.9, 24.03 47.63 C18.52 47.36, 13.3 44.95, 9.35 41.48 C5.41 38.02, 1.18 31.65, 0.35 26.84 C-0.47 22.02, 0.98 16.95, 4.41 12.59 C7.84 8.24, 17.25 2.76, 20.94 0.7 C24.63 -1.37, 26.25 -0.18, 26.54 0.2 M30.61 0.61 C35.7 0.91, 41.01 3.98, 44.51 7.76 C48 11.54, 51.48 18.3, 51.58 23.28 C51.68 28.26, 48.46 33.56, 45.1 37.63 C41.74 41.7, 36.77 46.44, 31.42 47.72 C26.06 49, 18.08 47.86, 12.96 45.33 C7.83 42.8, 2.75 37.55, 0.67 32.52 C-1.42 27.49, -1.33 19.77, 0.45 15.13 C2.23 10.48, 6.32 7.22, 11.36 4.64 C16.41 2.07, 27.64 0.22, 30.72 -0.33 C33.81 -0.89, 30.03 0.97, 29.88 1.31" stroke="#1e1e1e" stroke-width="2" fill="none"></path></g></svg>