<svg version="1.1" xmlns="http://www.w3.org/2000/svg" viewBox="0 0 107.08836856447897 140.84223780150205" width="107.08836856447897" height="140.84223780150205">
  <!-- svg-source:excalidraw -->
  
  <defs>
    <style class="style-fonts">
      @font-face {
        font-family: "Virgil";
        src: url("https://excalidraw.com/Virgil.woff2");
      }
      @font-face {
        font-family: "Cascadia";
        src: url("https://excalidraw.com/Cascadia.woff2");
      }
      @font-face {
        font-family: "Assistant";
        src: url("https://excalidraw.com/Assistant-Regular.woff2");
      }
    </style>
    
  </defs>
  <g stroke-linecap="round" transform="translate(34.05486505681802 109.06643921733757) rotate(22.461246866865288 19.283203125 7.48828125)"><path d="M3.74 0 C15.18 1.27, 27.79 -0.28, 34.82 0 C35.32 1.76, 39.37 0.81, 38.57 3.74 C37.92 5.57, 37.94 9.55, 38.57 11.23 C41.06 12.67, 38.49 15.96, 34.82 14.98 C22.23 13.55, 12.87 15.29, 3.74 14.98 C3.37 14, 0.49 12.49, 0 11.23 C0.18 9.73, 0.78 6.8, 0 3.74 C-1.64 0.58, 2.79 -1.04, 3.74 0" stroke="none" stroke-width="0" fill="#868e96"></path><path d="M3.74 0 C15.1 0.12, 26.34 -1.02, 34.82 0 M3.74 0 C10.69 0.47, 16.92 -0.41, 34.82 0 M34.82 0 C37.55 -0.34, 38.93 1.87, 38.57 3.74 M34.82 0 C38.45 -0.73, 37.99 0.55, 38.57 3.74 M38.57 3.74 C38.4 6.43, 38.9 9.59, 38.57 11.23 M38.57 3.74 C38.62 5.44, 38.69 6.91, 38.57 11.23 M38.57 11.23 C38.16 14, 37.9 15.32, 34.82 14.98 M38.57 11.23 C39.44 14.87, 38.13 14.8, 34.82 14.98 M34.82 14.98 C22.45 15.27, 10.56 14.67, 3.74 14.98 M34.82 14.98 C27.77 14.41, 21.65 14.9, 3.74 14.98 M3.74 14.98 C0.58 14.13, -0.34 13.82, 0 11.23 M3.74 14.98 C1.79 14.47, 0.28 13.83, 0 11.23 M0 11.23 C0.36 8.93, -0.37 6.03, 0 3.74 M0 11.23 C-0.13 8.7, 0.2 5.75, 0 3.74 M0 3.74 C0.42 1.68, 0.96 0.74, 3.74 0 M0 3.74 C0.34 1.6, 1.56 0.36, 3.74 0" stroke="#1e1e1e" stroke-width="2" fill="none"></path></g><g stroke-linecap="round" transform="translate(33.868992660984986 16.919422171883525) rotate(22.923355211056883 19.283203125 7.48828125)"><path d="M3.74 0 C12.91 -0.49, 20.24 1.56, 34.82 0 C38.12 -0.44, 39.52 -0.6, 38.57 3.74 C37.95 6.75, 39.44 7.84, 38.57 11.23 C39.73 14.71, 38.95 13.38, 34.82 14.98 C22.99 14.61, 12.1 13.71, 3.74 14.98 C1.74 13.73, 0.08 11.2, 0 11.23 C0.67 8.49, -0.62 5.28, 0 3.74 C1.54 0.21, -0.53 -1.26, 3.74 0" stroke="none" stroke-width="0" fill="#868e96"></path><path d="M3.74 0 C13.89 -1, 23.57 0.06, 34.82 0 M3.74 0 C12.47 -0.57, 21.91 -0.31, 34.82 0 M34.82 0 C37.68 0.62, 39.55 0.61, 38.57 3.74 M34.82 0 C36.74 -0.69, 39.68 1.77, 38.57 3.74 M38.57 3.74 C38.87 6.34, 38.19 9.36, 38.57 11.23 M38.57 3.74 C38.68 6.84, 38.5 9.74, 38.57 11.23 M38.57 11.23 C39.15 14.08, 38.08 15.97, 34.82 14.98 M38.57 11.23 C39.38 13.55, 38.27 13.93, 34.82 14.98 M34.82 14.98 C22.46 14.57, 10.24 14.43, 3.74 14.98 M34.82 14.98 C28.23 14.89, 20.78 14.41, 3.74 14.98 M3.74 14.98 C0.91 15.07, 0.47 13.29, 0 11.23 M3.74 14.98 C1.53 15.07, 0.52 13.84, 0 11.23 M0 11.23 C-0.41 8.95, 0.18 6.58, 0 3.74 M0 11.23 C0.22 8.84, 0.11 6.77, 0 3.74 M0 3.74 C-0.29 1.99, 1.54 0.3, 3.74 0 M0 3.74 C0.31 1.61, 2.26 0.26, 3.74 0" stroke="#1e1e1e" stroke-width="2" fill="none"></path></g><g stroke-linecap="round" transform="translate(10 32.545724255215646) rotate(0 42.630859375 38.322265625)"><path d="M19.16 0 C32.75 2.53, 52.99 -0.51, 66.1 0 C80.19 -2.56, 85.26 4.23, 85.26 19.16 C88.32 26.45, 86.48 38.03, 85.26 57.48 C87.52 68.04, 82.47 74.81, 66.1 76.64 C58.26 75.26, 45.21 74.9, 19.16 76.64 C6.49 73.15, 2.89 70.59, 0 57.48 C-2.75 42.03, 1.65 27, 0 19.16 C-2.46 4.65, 7.9 -2.55, 19.16 0" stroke="none" stroke-width="0" fill="#a18072"></path><path d="M19.16 0 C32.4 0.63, 48.77 1.28, 66.1 0 M19.16 0 C37.75 0.06, 56.24 1.02, 66.1 0 M66.1 0 C80.85 -1.27, 84.26 5.18, 85.26 19.16 M66.1 0 C81.11 1.05, 86.66 5.29, 85.26 19.16 M85.26 19.16 C83.65 28.83, 87.52 36.63, 85.26 57.48 M85.26 19.16 C85.07 34.56, 86.06 49.77, 85.26 57.48 M85.26 57.48 C86.78 72.25, 80.29 76.34, 66.1 76.64 M85.26 57.48 C87.16 68.17, 80.76 75.52, 66.1 76.64 M66.1 76.64 C49.57 75.3, 34.8 75.13, 19.16 76.64 M66.1 76.64 C55.52 75.84, 45.93 76.78, 19.16 76.64 M19.16 76.64 C7.32 75.76, 0.49 70.43, 0 57.48 M19.16 76.64 C7.42 76.87, 0.01 72.47, 0 57.48 M0 57.48 C1.54 42.31, 0.45 27.19, 0 19.16 M0 57.48 C0.04 43.38, -0.67 29.16, 0 19.16 M0 19.16 C0.59 7, 6.93 0.63, 19.16 0 M0 19.16 C2.03 6.9, 6.33 -0.55, 19.16 0" stroke="#1e1e1e" stroke-width="2" fill="none"></path></g><g stroke-linecap="round" transform="translate(65.95277605371757 87.12363309975535) rotate(47.524435689906944 13.974609375 10.47265625)"><path d="M5.24 0 C7.77 -3.02, 14.16 2, 22.71 0 C23.83 3.36, 26.85 0.89, 27.95 5.24 C28.62 7.62, 26.63 13.29, 27.95 15.71 C24.73 20.82, 23.26 18, 22.71 20.95 C16.98 20.71, 12.57 17.66, 5.24 20.95 C4.42 20.05, -1.87 16.02, 0 15.71 C1.75 12.71, 1.38 8, 0 5.24 C-0.23 0.58, -1.79 -1.81, 5.24 0" stroke="none" stroke-width="0" fill="#eaddd7"></path><path d="M5.24 0 C8.02 0.56, 13.73 -0.68, 22.71 0 M5.24 0 C12.02 0.22, 19.09 0.14, 22.71 0 M22.71 0 C26.16 -0.48, 28.92 1.68, 27.95 5.24 M22.71 0 C25.94 -1.77, 29.5 2.45, 27.95 5.24 M27.95 5.24 C27.99 7.58, 27.24 10.56, 27.95 15.71 M27.95 5.24 C28.28 9.4, 28.38 12.84, 27.95 15.71 M27.95 15.71 C29.94 18.18, 24.8 21.4, 22.71 20.95 M27.95 15.71 C27.87 21.08, 25.34 21.38, 22.71 20.95 M22.71 20.95 C19.71 20.93, 15.28 22, 5.24 20.95 M22.71 20.95 C17.8 20.55, 11.27 20.48, 5.24 20.95 M5.24 20.95 C2.59 19.53, -1.67 18.65, 0 15.71 M5.24 20.95 C3.29 22.45, 0.91 19.13, 0 15.71 M0 15.71 C0.9 13.2, -0.23 10.62, 0 5.24 M0 15.71 C0.25 11.47, 0.27 7.82, 0 5.24 M0 5.24 C0.7 3.11, 3.31 0.61, 5.24 0 M0 5.24 C0.46 2.92, 3.14 -0.16, 5.24 0" stroke="#1e1e1e" stroke-width="2" fill="none"></path></g><g stroke-linecap="round" transform="translate(28.123948755458514 45.896403022249615) rotate(47.524435689906944 25.4296875 23.859375)"><path d="M33.76 0.92 C38.59 2.13, 44 6.93, 46.93 11.42 C49.86 15.91, 52.22 22.74, 51.36 27.88 C50.5 33.01, 45.91 39.06, 41.79 42.25 C37.67 45.43, 31.91 46.92, 26.65 46.99 C21.39 47.07, 14.64 45.73, 10.21 42.68 C5.79 39.63, 1.19 33.71, 0.09 28.7 C-1 23.68, 0.81 16.96, 3.64 12.57 C6.48 8.17, 11.7 4.06, 17.08 2.34 C22.47 0.61, 32.53 1.96, 35.97 2.22 C39.42 2.47, 37.98 3.55, 37.75 3.87 M19.31 -0.3 C24.57 -1.43, 33.64 -0.45, 38.86 2.1 C44.08 4.66, 48.95 10.01, 50.65 15.05 C52.35 20.08, 50.94 27.27, 49.05 32.31 C47.15 37.34, 43.84 42.89, 39.28 45.26 C34.71 47.63, 27.39 47.36, 21.67 46.52 C15.95 45.68, 8.79 43.86, 4.95 40.23 C1.11 36.6, -1.28 30.2, -1.34 24.74 C-1.4 19.28, 0.93 11.33, 4.58 7.45 C8.24 3.57, 18.1 2.61, 20.6 1.46 C23.1 0.3, 19.48 0.32, 19.59 0.52" stroke="none" stroke-width="0" fill="#eaddd7"></path><path d="M22.06 0.52 C27.06 -0.38, 34.48 1.8, 39.1 4.44 C43.73 7.08, 48.18 11.55, 49.79 16.34 C51.41 21.13, 50.87 28.43, 48.82 33.16 C46.76 37.9, 42.34 42.3, 37.45 44.75 C32.57 47.21, 24.78 48.94, 19.51 47.9 C14.23 46.85, 8.97 42.72, 5.78 38.48 C2.59 34.24, 0.27 27.62, 0.38 22.44 C0.49 17.26, 2.09 11.22, 6.44 7.39 C10.8 3.56, 22.04 0.32, 26.51 -0.52 C30.98 -1.35, 33.24 1.82, 33.26 2.39 M31.69 -0.34 C36.51 0.48, 40.9 4.83, 44.08 9.13 C47.27 13.42, 50.8 20.32, 50.81 25.42 C50.81 30.52, 47.79 36.06, 44.11 39.73 C40.44 43.41, 34.3 46.48, 28.78 47.46 C23.25 48.43, 15.49 47.99, 10.95 45.56 C6.41 43.13, 2.92 37.89, 1.55 32.89 C0.18 27.89, 0.95 20.58, 2.71 15.54 C4.46 10.5, 7.35 5.26, 12.08 2.64 C16.81 0.02, 28.25 0.24, 31.08 -0.18 C33.92 -0.59, 29.2 -0.15, 29.08 0.17" stroke="#1e1e1e" stroke-width="2" fill="none"></path></g></svg>