<svg version="1.1" xmlns="http://www.w3.org/2000/svg" viewBox="0 0 105.26171875 140.84223780150023" width="105.26171875" height="140.84223780150023">
  <!-- svg-source:excalidraw -->
  
  <defs>
    <style class="style-fonts">
      @font-face {
        font-family: "Virgil";
        src: url("https://excalidraw.com/Virgil.woff2");
      }
      @font-face {
        font-family: "Cascadia";
        src: url("https://excalidraw.com/Cascadia.woff2");
      }
      @font-face {
        font-family: "Assistant";
        src: url("https://excalidraw.com/Assistant-Regular.woff2");
      }
    </style>
    
  </defs>
  <g stroke-linecap="round" transform="translate(34.05486505681802 109.06643921733576) rotate(22.461246866865288 19.283203125 7.48828125)"><path d="M3.74 0 C11.97 -2.33, 22.14 0.43, 34.82 0 C39.37 1.82, 38.84 -0.39, 38.57 3.74 C37.96 5.33, 39.03 7.16, 38.57 11.23 C36.39 13.02, 39.06 16.68, 34.82 14.98 C23.37 14.23, 15.86 15.33, 3.74 14.98 C0.59 15.82, 2.25 11.85, 0 11.23 C0.33 8.74, 0.31 6.12, 0 3.74 C2.04 2.04, 1.77 1.33, 3.74 0" stroke="none" stroke-width="0" fill="#868e96"></path><path d="M3.74 0 C15.78 0.54, 26.6 -0.44, 34.82 0 M3.74 0 C14.3 0.44, 24.44 -0.13, 34.82 0 M34.82 0 C38.14 -0.91, 39.39 0.76, 38.57 3.74 M34.82 0 C37.51 -0.56, 38.07 0.29, 38.57 3.74 M38.57 3.74 C38.2 5.76, 38.57 7.14, 38.57 11.23 M38.57 3.74 C38.64 5.27, 38.6 6.98, 38.57 11.23 M38.57 11.23 C39.02 13.83, 37.32 15.94, 34.82 14.98 M38.57 11.23 C39.43 12.59, 37.22 15.65, 34.82 14.98 M34.82 14.98 C27.55 15.85, 18.06 15.27, 3.74 14.98 M34.82 14.98 C24.31 15.24, 13.65 15.25, 3.74 14.98 M3.74 14.98 C2.13 15.2, -0.02 13.49, 0 11.23 M3.74 14.98 C1.81 14.94, -0.13 12.84, 0 11.23 M0 11.23 C0.13 8.21, -0.01 5.5, 0 3.74 M0 11.23 C0.2 9.45, 0.11 7.88, 0 3.74 M0 3.74 C0.63 0.63, 2.25 -0.51, 3.74 0 M0 3.74 C-0.81 1.51, 1.21 0.94, 3.74 0" stroke="#1e1e1e" stroke-width="2" fill="none"></path></g><g stroke-linecap="round" transform="translate(33.86899266098408 16.919422171883525) rotate(22.923355211056883 19.283203125 7.48828125)"><path d="M3.74 0 C13.67 0.63, 21.47 2.21, 34.82 0 C37.59 -1.64, 37.9 2.79, 38.57 3.74 C38.91 5, 37.69 7.37, 38.57 11.23 C40.31 15.43, 38.35 14.9, 34.82 14.98 C28.92 15.41, 18.05 15.73, 3.74 14.98 C3.5 13.1, 2.23 14.59, 0 11.23 C0.3 9.92, 0.73 7.58, 0 3.74 C0.52 2.58, 2.83 -0.18, 3.74 0" stroke="none" stroke-width="0" fill="#868e96"></path><path d="M3.74 0 C14.36 -0.5, 23.9 0.49, 34.82 0 M3.74 0 C14.5 -0.23, 24.97 -0.61, 34.82 0 M34.82 0 C38.14 -0.49, 38.73 0.76, 38.57 3.74 M34.82 0 C36.82 -0.96, 37.91 0.34, 38.57 3.74 M38.57 3.74 C38.57 5.25, 38.22 7.13, 38.57 11.23 M38.57 3.74 C38.63 6.07, 38.67 8.39, 38.57 11.23 M38.57 11.23 C38.57 14.69, 38.07 13.99, 34.82 14.98 M38.57 11.23 C38.47 14.4, 36.85 15.01, 34.82 14.98 M34.82 14.98 C27.31 15.55, 21.47 14.84, 3.74 14.98 M34.82 14.98 C23.33 15.18, 12 15.13, 3.74 14.98 M3.74 14.98 C1.22 14.74, 0.49 13.7, 0 11.23 M3.74 14.98 C1.12 14.09, 0.78 14.08, 0 11.23 M0 11.23 C-0.01 8.89, -0.28 6.78, 0 3.74 M0 11.23 C0.05 8.47, 0.08 5.45, 0 3.74 M0 3.74 C1 0.74, 0.54 0.23, 3.74 0 M0 3.74 C-0.04 2.19, 0.82 0.22, 3.74 0" stroke="#1e1e1e" stroke-width="2" fill="none"></path></g><g stroke-linecap="round" transform="translate(10 32.545724255215646) rotate(0 42.630859375 38.322265625)"><path d="M19.16 0 C31.53 2.45, 38.59 -2.35, 66.1 0 C77.95 2.13, 83.83 3.93, 85.26 19.16 C82.54 27.82, 87.97 40.81, 85.26 57.48 C86.69 70.15, 77.41 75.41, 66.1 76.64 C52.16 77.98, 43.17 74.21, 19.16 76.64 C9.48 77.83, -1.29 71.58, 0 57.48 C2.58 45.51, 0.48 33.18, 0 19.16 C2.18 6.14, 6.28 -1.32, 19.16 0" stroke="none" stroke-width="0" fill="#a18072"></path><path d="M19.16 0 C36.47 1.35, 53.39 1.71, 66.1 0 M19.16 0 C38.75 -0.84, 57.5 -0.42, 66.1 0 M66.1 0 C79.2 -0.97, 84.39 4.71, 85.26 19.16 M66.1 0 C77.57 -1.83, 83.76 4.34, 85.26 19.16 M85.26 19.16 C83.6 32.02, 85.48 47.19, 85.26 57.48 M85.26 19.16 C85.8 29.07, 85.36 39.74, 85.26 57.48 M85.26 57.48 C86.76 68.28, 78.7 77.81, 66.1 76.64 M85.26 57.48 C84.33 70.33, 77.07 78.47, 66.1 76.64 M66.1 76.64 C48.2 76.26, 30.08 77.43, 19.16 76.64 M66.1 76.64 C51.47 77.01, 35.06 76.55, 19.16 76.64 M19.16 76.64 C7.36 76.58, -0.23 68.72, 0 57.48 M19.16 76.64 C7.94 77.35, -0.39 71.1, 0 57.48 M0 57.48 C-1.43 47.56, 1.57 41.87, 0 19.16 M0 57.48 C0.46 46.93, 0.83 37.09, 0 19.16 M0 19.16 C-1.41 6.85, 6.32 1.63, 19.16 0 M0 19.16 C-0.87 6.82, 5.29 0.07, 19.16 0" stroke="#1e1e1e" stroke-width="2" fill="none"></path></g><g stroke-linecap="round" transform="translate(40.63070709739986 21.994833421978) rotate(269.315648468081 13.974609375 10.47265625)"><path d="M5.24 0 C9.29 0.96, 17.67 -2.34, 22.71 0 C29.3 1.19, 26.65 3.07, 27.95 5.24 C29.49 9.39, 28.39 13.35, 27.95 15.71 C30.13 18.95, 26.09 19.63, 22.71 20.95 C16.58 22.53, 11.28 23.57, 5.24 20.95 C0.64 20.09, 1.15 21.46, 0 15.71 C-1.49 13.08, -1.74 9.1, 0 5.24 C-2.95 -1.2, 1.26 2.54, 5.24 0" stroke="none" stroke-width="0" fill="#eaddd7"></path><path d="M5.24 0 C9.93 -0.48, 17.75 0.93, 22.71 0 M5.24 0 C10.1 0.07, 14.19 0.83, 22.71 0 M22.71 0 C27.7 -1.98, 27.78 2.91, 27.95 5.24 M22.71 0 C25.28 0.08, 26.15 3.57, 27.95 5.24 M27.95 5.24 C28.33 9.12, 28.66 13.91, 27.95 15.71 M27.95 5.24 C28.44 8.81, 27.97 12.03, 27.95 15.71 M27.95 15.71 C28.92 19.13, 25.98 19.41, 22.71 20.95 M27.95 15.71 C29.5 19.91, 25.82 21.78, 22.71 20.95 M22.71 20.95 C17.46 19.83, 16.09 22.52, 5.24 20.95 M22.71 20.95 C18.73 20.47, 14.52 20.57, 5.24 20.95 M5.24 20.95 C0.34 21.4, -0.07 20.83, 0 15.71 M5.24 20.95 C0.88 21.38, -1.1 19.27, 0 15.71 M0 15.71 C0.74 14.32, 0.03 10.8, 0 5.24 M0 15.71 C-0.42 12.58, 0.16 9.59, 0 5.24 M0 5.24 C-1.67 1.2, 3.09 1.31, 5.24 0 M0 5.24 C0.91 1.67, 0.81 -0.79, 5.24 0" stroke="#1e1e1e" stroke-width="2" fill="none"></path></g><g stroke-linecap="round" transform="translate(28.981305803572468 46.95692110629625) rotate(269.315648468081 25.4296875 23.859375)"><path d="M20.7 -0.55 C25.83 -1.66, 33.76 0.35, 38.65 3.13 C43.53 5.9, 48.18 11.43, 49.99 16.09 C51.81 20.75, 51.51 26.27, 49.55 31.08 C47.58 35.89, 42.95 42.34, 38.19 44.95 C33.42 47.56, 26.37 47.58, 20.96 46.73 C15.54 45.88, 9.3 43.76, 5.69 39.86 C2.08 35.97, -0.67 28.42, -0.71 23.35 C-0.75 18.28, 0.85 13.27, 5.45 9.44 C10.06 5.62, 22.57 1.85, 26.94 0.41 C31.32 -1.03, 31.89 0.54, 31.7 0.83 M36.14 3.31 C40.77 5.26, 44.72 10.3, 47.14 14.57 C49.56 18.85, 51.65 24.11, 50.63 28.97 C49.61 33.82, 45.42 40.42, 41.04 43.7 C36.65 46.99, 29.65 49.05, 24.31 48.69 C18.98 48.34, 13.02 45.14, 9.04 41.57 C5.06 38, 1.1 32.42, 0.45 27.25 C-0.19 22.07, 2.22 14.99, 5.18 10.52 C8.15 6.05, 13.25 2.04, 18.24 0.41 C23.24 -1.22, 32.55 0.52, 35.16 0.75 C37.78 0.97, 33.9 1.34, 33.96 1.75" stroke="none" stroke-width="0" fill="#eaddd7"></path><path d="M31.41 1.1 C36.61 1.89, 42.55 5.48, 45.94 9.64 C49.34 13.79, 52.28 20.93, 51.78 26.02 C51.27 31.11, 46.72 36.65, 42.92 40.17 C39.11 43.69, 34.17 46.69, 28.93 47.16 C23.69 47.63, 15.98 45.58, 11.46 42.99 C6.95 40.41, 3.52 36.37, 1.85 31.67 C0.19 26.97, -0.63 19.71, 1.47 14.8 C3.57 9.9, 8.85 4.39, 14.47 2.23 C20.1 0.08, 31.37 1.64, 35.21 1.85 C39.05 2.07, 37.75 3.06, 37.53 3.53 M28.98 0.1 C34.13 0.2, 39.86 2.46, 43.66 6.24 C47.47 10.03, 51.49 17.42, 51.82 22.81 C52.15 28.19, 49.23 34.51, 45.65 38.55 C42.08 42.59, 35.76 46.11, 30.36 47.05 C24.95 47.98, 18.09 46.24, 13.24 44.16 C8.39 42.09, 3.06 39.21, 1.27 34.6 C-0.53 29.99, 0.68 21.53, 2.47 16.53 C4.26 11.52, 7.56 7.44, 12.02 4.56 C16.47 1.68, 26.24 0.01, 29.19 -0.78 C32.14 -1.56, 30.07 -0.75, 29.69 -0.14" stroke="#1e1e1e" stroke-width="2" fill="none"></path></g></svg>