<svg version="1.1" xmlns="http://www.w3.org/2000/svg" viewBox="0 0 116.9010881696413 140.84223780150023" width="116.9010881696413" height="140.84223780150023">
  <!-- svg-source:excalidraw -->
  
  <defs>
    <style class="style-fonts">
      @font-face {
        font-family: "Virgil";
        src: url("https://excalidraw.com/Virgil.woff2");
      }
      @font-face {
        font-family: "Cascadia";
        src: url("https://excalidraw.com/Cascadia.woff2");
      }
      @font-face {
        font-family: "Assistant";
        src: url("https://excalidraw.com/Assistant-Regular.woff2");
      }
    </style>
    
  </defs>
  <g stroke-linecap="round" transform="translate(45.694234476459314 109.06643921733576) rotate(22.461246866865288 19.283203125 7.48828125)"><path d="M3.74 0 C17.03 1.45, 26.75 2.41, 34.82 0 C36 -1.83, 39.16 1.16, 38.57 3.74 C38.06 6.63, 37.58 10.24, 38.57 11.23 C38.8 15.78, 39.14 15.25, 34.82 14.98 C26.42 13.44, 18.84 16.31, 3.74 14.98 C-0.6 12.8, -0.71 15.47, 0 11.23 C-0.44 8.16, -0.26 6.56, 0 3.74 C0.52 0.59, 2.09 2.25, 3.74 0" stroke="none" stroke-width="0" fill="#868e96"></path><path d="M3.74 0 C15.53 1.05, 28.98 0.68, 34.82 0 M3.74 0 C11.45 -0.62, 19.7 0.35, 34.82 0 M34.82 0 C37.52 0.95, 39.14 1.92, 38.57 3.74 M34.82 0 C36.85 0.31, 39.24 1.65, 38.57 3.74 M38.57 3.74 C38.55 6.87, 38.26 9.68, 38.57 11.23 M38.57 3.74 C38.49 5.47, 38.47 7.36, 38.57 11.23 M38.57 11.23 C37.91 12.84, 37.85 15.07, 34.82 14.98 M38.57 11.23 C37.8 12.75, 36.92 15.08, 34.82 14.98 M34.82 14.98 C24.13 15.46, 13.36 15.02, 3.74 14.98 M34.82 14.98 C22.47 15.11, 10 14.84, 3.74 14.98 M3.74 14.98 C0.46 15.77, 1 13.11, 0 11.23 M3.74 14.98 C1.73 15.47, -0.33 14.58, 0 11.23 M0 11.23 C0.11 9.1, 0.07 6.29, 0 3.74 M0 11.23 C-0.04 9.02, 0.11 7.16, 0 3.74 M0 3.74 C-0.17 1.61, 0.54 0, 3.74 0 M0 3.74 C-0.69 0.43, 0.58 0.9, 3.74 0" stroke="#1e1e1e" stroke-width="2" fill="none"></path></g><g stroke-linecap="round" transform="translate(45.508362080627194 16.919422171883525) rotate(22.923355211056883 19.283203125 7.48828125)"><path d="M3.74 0 C12.86 2.34, 23.86 -2.08, 34.82 0 C37.91 -0.08, 40.69 0.27, 38.57 3.74 C37.57 6.91, 38.61 9.29, 38.57 11.23 C40.39 14, 35.68 14.31, 34.82 14.98 C22.4 15.79, 10.65 12.52, 3.74 14.98 C0.54 16.72, 1.7 14.76, 0 11.23 C-0.18 9.81, 0.23 6.54, 0 3.74 C0.84 3.5, -0.63 2.23, 3.74 0" stroke="none" stroke-width="0" fill="#868e96"></path><path d="M3.74 0 C11.97 0.46, 18.81 -0.92, 34.82 0 M3.74 0 C16.01 0.63, 27.81 0.62, 34.82 0 M34.82 0 C37.89 0.67, 38.16 1.52, 38.57 3.74 M34.82 0 C37.99 0.4, 39.44 2.39, 38.57 3.74 M38.57 3.74 C38.22 6.83, 38.38 9.36, 38.57 11.23 M38.57 3.74 C38.44 5.48, 38.43 7.34, 38.57 11.23 M38.57 11.23 C39.1 13.82, 36.65 14.13, 34.82 14.98 M38.57 11.23 C38.17 13.83, 37.86 14.47, 34.82 14.98 M34.82 14.98 C24.84 15.05, 15.62 15.79, 3.74 14.98 M34.82 14.98 C28.37 15.08, 21.93 15.46, 3.74 14.98 M3.74 14.98 C2.24 14.35, 0.42 14.16, 0 11.23 M3.74 14.98 C0.91 15.83, 0.34 14.08, 0 11.23 M0 11.23 C0.07 8.77, -0.1 6.51, 0 3.74 M0 11.23 C0.13 9.07, -0.03 6.86, 0 3.74 M0 3.74 C-0.71 1.25, 0.65 -0.72, 3.74 0 M0 3.74 C-0.66 2.15, 2.35 -0.47, 3.74 0" stroke="#1e1e1e" stroke-width="2" fill="none"></path></g><g stroke-linecap="round" transform="translate(21.639369419641298 32.545724255215646) rotate(0 42.630859375 38.322265625)"><path d="M19.16 0 C34.36 -3.37, 54.04 -0.96, 66.1 0 C81.81 -1.36, 85.94 4.67, 85.26 19.16 C84.92 33.61, 87.12 42.75, 85.26 57.48 C82.99 69.33, 81.01 75.21, 66.1 76.64 C52.67 73.99, 43.35 79.41, 19.16 76.64 C8.74 78.07, -0.11 68.79, 0 57.48 C0.88 46.39, 1.32 40.24, 0 19.16 C-2.6 9.48, 7.58 -1.29, 19.16 0" stroke="none" stroke-width="0" fill="#a18072"></path><path d="M19.16 0 C36.84 -1.83, 58.15 -0.82, 66.1 0 M19.16 0 C28.9 0.49, 38.81 0.22, 66.1 0 M66.1 0 C78.06 0.55, 86.42 7.08, 85.26 19.16 M66.1 0 C80.62 2.29, 86.89 6.04, 85.26 19.16 M85.26 19.16 C83.94 34.15, 83.94 47.6, 85.26 57.48 M85.26 19.16 C84.39 26.56, 85.58 35.83, 85.26 57.48 M85.26 57.48 C83.93 68.56, 78.19 76.82, 66.1 76.64 M85.26 57.48 C86.34 69.24, 79.44 76.84, 66.1 76.64 M66.1 76.64 C51.83 78.14, 31.74 76.47, 19.16 76.64 M66.1 76.64 C48.51 77.45, 33.47 76.04, 19.16 76.64 M19.16 76.64 C7.23 77.5, -0.58 71.74, 0 57.48 M19.16 76.64 C7.06 77.34, 0.62 70.98, 0 57.48 M0 57.48 C-0.57 43.58, -0.15 27.5, 0 19.16 M0 57.48 C-0.43 49.3, -0.97 40.39, 0 19.16 M0 19.16 C-1.2 4.96, 5.23 1.57, 19.16 0 M0 19.16 C2.21 5.45, 7.42 0.87, 19.16 0" stroke="#1e1e1e" stroke-width="2" fill="none"></path></g><g stroke-linecap="round" transform="translate(10 59.7693331864657) rotate(0 13.974609375 10.47265625)"><path d="M5.24 0 C12.35 0.98, 19.02 2.35, 22.71 0 C27.31 0.72, 29.79 3.93, 27.95 5.24 C27.33 6.72, 26.07 10.5, 27.95 15.71 C30.12 16.82, 29.57 19.84, 22.71 20.95 C19.65 22.07, 11.23 18.75, 5.24 20.95 C3.84 17.73, 1.62 16.25, 0 15.71 C-1.61 12.99, 0.05 11.07, 0 5.24 C-3.45 4.42, 0.85 -1.87, 5.24 0" stroke="none" stroke-width="0" fill="#eaddd7"></path><path d="M5.24 0 C11.08 -0.07, 18.25 1.23, 22.71 0 M5.24 0 C8.4 -0.07, 11.58 0.59, 22.71 0 M22.71 0 C28.19 -1.25, 28.79 2.6, 27.95 5.24 M22.71 0 C25.54 1.71, 28.63 2.45, 27.95 5.24 M27.95 5.24 C28.21 8.64, 27.73 12.6, 27.95 15.71 M27.95 5.24 C28.29 8.5, 27.85 11.64, 27.95 15.71 M27.95 15.71 C26.52 19.2, 25.01 19.51, 22.71 20.95 M27.95 15.71 C26.62 21, 28.41 20.01, 22.71 20.95 M22.71 20.95 C15.61 22.8, 9.77 19.83, 5.24 20.95 M22.71 20.95 C16.74 21.25, 11.01 21.11, 5.24 20.95 M5.24 20.95 C-0.2 22.55, 0.18 20.78, 0 15.71 M5.24 20.95 C3.36 21.19, -1.45 18.61, 0 15.71 M0 15.71 C-0.46 12.39, -0.7 7.31, 0 5.24 M0 15.71 C0.14 12.84, -0.28 9.82, 0 5.24 M0 5.24 C-0.45 3.4, 2.15 -0.51, 5.24 0 M0 5.24 C0.75 3.74, 0.08 1.98, 5.24 0" stroke="#1e1e1e" stroke-width="2" fill="none"></path></g><g stroke-linecap="round" transform="translate(36.888671875 45.7302706864657) rotate(0 25.4296875 23.859375)"><path d="M33.9 2.04 C38.79 3.42, 44.39 6.87, 47.07 11.28 C49.75 15.68, 50.99 23.45, 49.98 28.46 C48.98 33.46, 45.18 38, 41.04 41.32 C36.89 44.64, 30.34 48.19, 25.12 48.39 C19.9 48.59, 13.84 45.98, 9.71 42.51 C5.58 39.04, 1.45 32.7, 0.35 27.56 C-0.76 22.42, 0.21 16, 3.08 11.68 C5.96 7.35, 11.58 2.87, 17.59 1.63 C23.6 0.39, 34.68 3.34, 39.14 4.24 C43.61 5.15, 44.43 6.72, 44.38 7.05 M21.4 1.41 C26.54 0.21, 34.51 1.1, 39.2 3.59 C43.9 6.08, 47.73 11.65, 49.58 16.35 C51.43 21.05, 52.18 27.2, 50.28 31.8 C48.39 36.39, 43.15 41.52, 38.22 43.91 C33.28 46.3, 26.27 47, 20.66 46.11 C15.05 45.23, 7.84 42.45, 4.55 38.6 C1.26 34.74, 0.45 28.07, 0.91 23 C1.36 17.92, 3.99 11.85, 7.26 8.16 C10.53 4.47, 18.08 1.94, 20.53 0.86 C22.97 -0.21, 21.71 1.53, 21.91 1.7" stroke="none" stroke-width="0" fill="#eaddd7"></path><path d="M35.3 1.24 C40.4 2.62, 45.15 6.94, 47.79 11.66 C50.44 16.38, 52.34 24.37, 51.15 29.58 C49.96 34.79, 44.99 39.96, 40.67 42.93 C36.35 45.9, 30.45 47.57, 25.23 47.42 C20.01 47.27, 13.46 45.33, 9.35 42.05 C5.24 38.76, 1.47 32.65, 0.59 27.69 C-0.3 22.74, 1.22 16.72, 4.04 12.3 C6.87 7.89, 11.58 2.46, 17.55 1.22 C23.52 -0.02, 35.41 3.65, 39.85 4.85 C44.29 6.05, 44.54 8.05, 44.2 8.41 M28.27 0.28 C33.32 0.46, 40.06 3.04, 43.68 7.08 C47.3 11.13, 49.49 19.36, 49.99 24.55 C50.49 29.74, 49.84 34.33, 46.68 38.21 C43.52 42.09, 36.46 46.9, 31.03 47.83 C25.6 48.77, 18.74 46.52, 14.11 43.84 C9.47 41.15, 5.51 36.27, 3.21 31.71 C0.91 27.15, -1.19 21.01, 0.31 16.5 C1.81 11.99, 7.48 7.32, 12.22 4.67 C16.96 2.01, 26.05 1.21, 28.77 0.57 C31.49 -0.08, 28.75 0.25, 28.54 0.8" stroke="#1e1e1e" stroke-width="2" fill="none"></path></g></svg>