<svg version="1.1" xmlns="http://www.w3.org/2000/svg" viewBox="0 0 115.33858816964494 140.84223780150023" width="115.33858816964494" height="140.84223780150023">
  <!-- svg-source:excalidraw -->
  
  <defs>
    <style class="style-fonts">
      @font-face {
        font-family: "Virgil";
        src: url("https://excalidraw.com/Virgil.woff2");
      }
      @font-face {
        font-family: "Cascadia";
        src: url("https://excalidraw.com/Cascadia.woff2");
      }
      @font-face {
        font-family: "Assistant";
        src: url("https://excalidraw.com/Assistant-Regular.woff2");
      }
    </style>
    
  </defs>
  <g stroke-linecap="round" transform="translate(34.40642755681802 109.06643921733576) rotate(22.461246866865288 19.283203125 7.48828125)"><path d="M3.74 0 C13.65 1.37, 24.23 -1.9, 34.82 0 C36.61 1.74, 40.27 2.28, 38.57 3.74 C38.31 6.77, 38.72 7.94, 38.57 11.23 C39.41 15.98, 35.44 17.21, 34.82 14.98 C25.54 16.03, 15.9 17.17, 3.74 14.98 C2.04 15.5, 1.33 15.31, 0 11.23 C-0.31 8.22, -0.96 6.39, 0 3.74 C1.57 -0.47, 3.68 -0.8, 3.74 0" stroke="none" stroke-width="0" fill="#868e96"></path><path d="M3.74 0 C14.35 0.69, 26.29 0.04, 34.82 0 M3.74 0 C11.27 -0.27, 19.04 -0.31, 34.82 0 M34.82 0 C37.85 0.09, 37.9 0.4, 38.57 3.74 M34.82 0 C36.92 0.1, 39.1 0.74, 38.57 3.74 M38.57 3.74 C38.61 6.17, 38.93 8.88, 38.57 11.23 M38.57 3.74 C38.49 5.26, 38.42 6.91, 38.57 11.23 M38.57 11.23 C39.56 13.11, 37.74 15.4, 34.82 14.98 M38.57 11.23 C38.23 14.58, 37.66 15.33, 34.82 14.98 M34.82 14.98 C24.88 15.09, 14.25 15.6, 3.74 14.98 M34.82 14.98 C25.94 15.01, 16.3 15.04, 3.74 14.98 M3.74 14.98 C0.54 14.98, -0.6 13.01, 0 11.23 M3.74 14.98 C0.58 15.88, 1.1 13.26, 0 11.23 M0 11.23 C-0.24 9.02, -0.2 5.8, 0 3.74 M0 11.23 C-0.07 8.85, -0.09 6.4, 0 3.74 M0 3.74 C-0.97 2.05, 1.34 0.79, 3.74 0 M0 3.74 C0.81 1.37, 0.52 -0.3, 3.74 0" stroke="#1e1e1e" stroke-width="2" fill="none"></path></g><g stroke-linecap="round" transform="translate(34.220555160985896 16.919422171883525) rotate(22.923355211056883 19.283203125 7.48828125)"><path d="M3.74 0 C9.1 -2.35, 17.44 1.57, 34.82 0 C39.02 1.03, 38.49 0.19, 38.57 3.74 C38.74 5.49, 38.86 8.57, 38.57 11.23 C36.69 15.96, 38.18 14.04, 34.82 14.98 C26.13 17.16, 14.69 15.64, 3.74 14.98 C2.58 16.55, -0.18 13.65, 0 11.23 C-0.93 8.81, 0.62 6.65, 0 3.74 C2.43 0.45, 0.63 0.83, 3.74 0" stroke="none" stroke-width="0" fill="#868e96"></path><path d="M3.74 0 C15.14 0.04, 27.03 -0.56, 34.82 0 M3.74 0 C10.14 -0.32, 17.45 0.17, 34.82 0 M34.82 0 C36.65 -0.85, 38.22 1.34, 38.57 3.74 M34.82 0 C37.86 -0.51, 38.85 1.35, 38.57 3.74 M38.57 3.74 C38.93 6.61, 38.2 8.88, 38.57 11.23 M38.57 3.74 C38.4 6.57, 38.74 8.99, 38.57 11.23 M38.57 11.23 C38.99 14.16, 37.03 15.72, 34.82 14.98 M38.57 11.23 C38.91 14.08, 37.63 15.34, 34.82 14.98 M34.82 14.98 C22.52 15.46, 10.66 14.86, 3.74 14.98 M34.82 14.98 C27.81 15.21, 20.6 15.02, 3.74 14.98 M3.74 14.98 C0.65 14.26, -0.58 14.51, 0 11.23 M3.74 14.98 C2.35 14.51, 0.52 14.16, 0 11.23 M0 11.23 C-0.17 8.25, 0.11 5.79, 0 3.74 M0 11.23 C-0.08 8.38, -0.17 5.67, 0 3.74 M0 3.74 C0.09 2.04, 1.95 0.1, 3.74 0 M0 3.74 C-0.73 0.95, 1.93 -0.46, 3.74 0" stroke="#1e1e1e" stroke-width="2" fill="none"></path></g><g stroke-linecap="round" transform="translate(10 32.194161755215646) rotate(0 42.630859375 38.322265625)"><path d="M19.16 0 C34.23 3.12, 53.63 2.13, 66.1 0 C78.76 -1.47, 84.03 5.58, 85.26 19.16 C86.57 36.95, 82.8 51.59, 85.26 57.48 C86.45 68.96, 80.2 78.12, 66.1 76.64 C51.48 78.03, 36.5 79.49, 19.16 76.64 C6.14 76.54, -1.32 69.09, 0 57.48 C2.86 46.84, 4.05 39.85, 0 19.16 C-0.85 7.54, 8.65 2.02, 19.16 0" stroke="none" stroke-width="0" fill="#a18072"></path><path d="M19.16 0 C36.12 -0.95, 53.35 -1.22, 66.1 0 M19.16 0 C30.05 0.51, 39.21 -0.43, 66.1 0 M66.1 0 C78.19 0.18, 86.2 5.51, 85.26 19.16 M66.1 0 C79.44 0.2, 86.3 6.61, 85.26 19.16 M85.26 19.16 C83.65 30.5, 86.79 41.38, 85.26 57.48 M85.26 19.16 C85.96 30.16, 85.38 42.84, 85.26 57.48 M85.26 57.48 C84.68 71.74, 79.46 77.25, 66.1 76.64 M85.26 57.48 C85.89 70.98, 80.9 77.16, 66.1 76.64 M66.1 76.64 C52.06 76.65, 36.62 78.22, 19.16 76.64 M66.1 76.64 C49.86 76.82, 34.44 76.1, 19.16 76.64 M19.16 76.64 C5.23 78.21, 1.92 69.45, 0 57.48 M19.16 76.64 C7.42 77.51, 1.44 68.84, 0 57.48 M0 57.48 C0.65 42.1, 1.83 26.09, 0 19.16 M0 57.48 C-0.79 46.07, 0.27 33.84, 0 19.16 M0 19.16 C1.4 6.6, 5.13 -0.52, 19.16 0 M0 19.16 C1.36 5.47, 4.82 -1.11, 19.16 0" stroke="#1e1e1e" stroke-width="2" fill="none"></path></g><g stroke-linecap="round" transform="translate(77.38936941964494 58.642101043607) rotate(0 13.974609375 10.47265625)"><path d="M5.24 0 C11.08 1.04, 12.7 -1.49, 22.71 0 C24.97 -0.81, 30.93 2.47, 27.95 5.24 C26.65 9.73, 28.63 10.31, 27.95 15.71 C29.27 20.68, 27.46 23.4, 22.71 20.95 C17.71 22.92, 9.27 20.91, 5.24 20.95 C0.43 19.78, -3.04 15.63, 0 15.71 C1.65 12.47, -0.56 11, 0 5.24 C2.26 3.77, 2.81 -2.09, 5.24 0" stroke="none" stroke-width="0" fill="#eaddd7"></path><path d="M5.24 0 C9.3 -0.92, 14.91 -1.07, 22.71 0 M5.24 0 C8.35 -0.76, 12.32 0.06, 22.71 0 M22.71 0 C27.14 -0.88, 28.44 1.92, 27.95 5.24 M22.71 0 C27.24 0.22, 27.96 3.96, 27.95 5.24 M27.95 5.24 C28.45 8.74, 27.88 12.27, 27.95 15.71 M27.95 5.24 C28.27 9.43, 27.9 13.57, 27.95 15.71 M27.95 15.71 C28.54 19.81, 26.75 21.57, 22.71 20.95 M27.95 15.71 C29.98 19.71, 26.15 20.39, 22.71 20.95 M22.71 20.95 C15.28 22.11, 11.07 20.63, 5.24 20.95 M22.71 20.95 C16.31 20.32, 10.45 21.63, 5.24 20.95 M5.24 20.95 C3.66 20.13, 0.9 19.95, 0 15.71 M5.24 20.95 C3.19 19.53, 2.29 18.03, 0 15.71 M0 15.71 C0.83 12.91, 0.17 10.4, 0 5.24 M0 15.71 C0.15 12.95, 0.47 9.42, 0 5.24 M0 5.24 C-1.26 1.23, 2.93 -0.8, 5.24 0 M0 5.24 C-1.57 0.63, 2.71 -1.63, 5.24 0" stroke="#1e1e1e" stroke-width="2" fill="none"></path></g><g stroke-linecap="round" transform="translate(27.590541294644936 44.603038543607) rotate(0 25.4296875 23.859375)"><path d="M32.77 0.46 C37.93 1.5, 44.11 6.79, 47.22 11.17 C50.33 15.56, 52.19 21.81, 51.43 26.79 C50.67 31.78, 46.82 37.78, 42.64 41.11 C38.46 44.43, 31.7 46.46, 26.36 46.73 C21.01 47.01, 14.75 45.62, 10.59 42.76 C6.42 39.89, 2.6 34.65, 1.35 29.53 C0.1 24.41, 0.69 16.57, 3.08 12.04 C5.46 7.5, 9.85 3.92, 15.64 2.33 C21.42 0.75, 33.44 1.76, 37.78 2.53 C42.12 3.31, 41.95 6.64, 41.69 6.96 M22.55 0.18 C27.37 -1.04, 33.9 0.21, 38.35 3.15 C42.81 6.08, 47.48 12.9, 49.3 17.79 C51.12 22.68, 51.2 27.73, 49.28 32.48 C47.36 37.22, 42.84 43.59, 37.79 46.26 C32.74 48.92, 24.31 49.86, 18.99 48.47 C13.66 47.09, 8.91 42.11, 5.84 37.96 C2.77 33.81, 0.36 28.43, 0.57 23.58 C0.78 18.73, 3.34 12.68, 7.1 8.87 C10.86 5.05, 20.6 1.92, 23.14 0.68 C25.68 -0.55, 22.32 1.16, 22.33 1.46" stroke="none" stroke-width="0" fill="#eaddd7"></path><path d="M17.35 0.6 C22.16 -1.4, 28.72 -0.76, 33.8 1.28 C38.88 3.32, 45.13 8.27, 47.81 12.85 C50.5 17.43, 50.99 23.75, 49.93 28.76 C48.87 33.77, 45.59 39.76, 41.43 42.92 C37.27 46.08, 30.27 47.78, 24.97 47.72 C19.67 47.65, 13.9 45.93, 9.62 42.54 C5.35 39.16, 0.2 32.65, -0.69 27.4 C-1.58 22.16, 1.07 15.62, 4.27 11.08 C7.47 6.53, 15.79 1.63, 18.51 0.12 C21.24 -1.38, 20.62 1.49, 20.63 2.07 M31.28 1 C36.54 1.63, 42.47 5.71, 45.95 9.73 C49.43 13.75, 52.45 20.17, 52.16 25.14 C51.87 30.11, 47.98 35.83, 44.21 39.55 C40.45 43.27, 35 46.9, 29.58 47.45 C24.16 48.01, 16.24 45.52, 11.68 42.88 C7.12 40.23, 3.89 36.17, 2.22 31.59 C0.55 27, -0.07 20.17, 1.64 15.36 C3.36 10.56, 7.81 5.39, 12.53 2.74 C17.24 0.09, 27.05 -0.44, 29.94 -0.53 C32.83 -0.62, 29.56 1.72, 29.86 2.19" stroke="#1e1e1e" stroke-width="2" fill="none"></path></g></svg>