<svg version="1.1" xmlns="http://www.w3.org/2000/svg" viewBox="0 0 56.45297142259301 56.864933776953876" width="56.45297142259301" height="56.864933776953876">
  <!-- svg-source:excalidraw -->
  
  <defs>
    <style class="style-fonts">
      @font-face {
        font-family: "Virgil";
        src: url("https://excalidraw.com/Virgil.woff2");
      }
      @font-face {
        font-family: "Cascadia";
        src: url("https://excalidraw.com/Cascadia.woff2");
      }
      @font-face {
        font-family: "Assistant";
        src: url("https://excalidraw.com/Assistant-Regular.woff2");
      }
    </style>
    
  </defs>
  <g stroke-linecap="round" transform="translate(30.303401574277586 13.07401930848755) rotate(133.238494289057 9.166015625 4.195845170454504)"><path d="M8.21 0.28 C10.11 0.16, 12.78 -0.06, 14.41 0.45 C16.05 0.97, 17.52 2.41, 18.02 3.38 C18.52 4.34, 18.25 5.54, 17.41 6.25 C16.56 6.96, 14.72 7.21, 12.95 7.63 C11.17 8.05, 8.64 8.93, 6.75 8.77 C4.85 8.6, 2.64 7.48, 1.57 6.65 C0.49 5.82, 0.11 4.65, 0.29 3.79 C0.47 2.93, 1.21 2.14, 2.63 1.49 C4.04 0.84, 7.88 0.05, 8.81 -0.11 C9.73 -0.26, 8.29 0.51, 8.18 0.53 M9.07 -0.38 C11.02 -0.5, 14.24 0.39, 15.73 0.99 C17.22 1.58, 17.78 2.3, 18.01 3.19 C18.23 4.07, 18.11 5.4, 17.09 6.3 C16.08 7.19, 13.79 8.23, 11.91 8.57 C10.03 8.91, 7.71 8.82, 5.81 8.32 C3.92 7.83, 1.46 6.42, 0.54 5.59 C-0.39 4.77, -0.32 4.15, 0.28 3.39 C0.89 2.64, 2.55 1.73, 4.18 1.06 C5.81 0.39, 9.29 -0.51, 10.06 -0.62 C10.84 -0.73, 8.83 0.12, 8.83 0.41" stroke="none" stroke-width="0" fill="#343a40"></path><path d="M9.79 0.13 C11.58 0.01, 13.47 0.17, 14.94 0.85 C16.42 1.52, 18.24 3.17, 18.63 4.16 C19.02 5.15, 18.43 6.04, 17.31 6.77 C16.18 7.51, 13.89 8.39, 11.86 8.56 C9.84 8.73, 7.01 8.18, 5.16 7.79 C3.31 7.4, 1.55 6.91, 0.76 6.21 C-0.03 5.52, -0.1 4.47, 0.44 3.63 C0.97 2.78, 2.35 1.71, 3.97 1.14 C5.6 0.58, 9.22 0.46, 10.18 0.22 C11.14 -0.02, 9.78 -0.29, 9.75 -0.28 M9.68 0.55 C11.64 0.67, 14.72 1.11, 16.12 1.67 C17.51 2.23, 17.98 2.99, 18.04 3.91 C18.1 4.83, 17.63 6.39, 16.48 7.2 C15.32 8.01, 12.95 8.63, 11.12 8.76 C9.29 8.9, 7.22 8.36, 5.5 8.01 C3.77 7.66, 1.7 7.59, 0.76 6.65 C-0.17 5.72, -0.76 3.46, -0.12 2.41 C0.51 1.36, 2.84 0.74, 4.58 0.33 C6.31 -0.09, 9.43 -0.15, 10.29 -0.08 C11.15 -0.01, 9.65 0.76, 9.72 0.76" stroke="#1e1e1e" stroke-width="2" fill="none"></path></g><g stroke-linecap="round" transform="translate(28.127485683435907 35.39922412755732) rotate(133.238494289057 9.166015625 4.195845170454504)"><path d="M7.48 -0.16 C9.28 -0.37, 11.9 0.33, 13.58 0.86 C15.25 1.39, 16.87 2.29, 17.54 3.01 C18.2 3.73, 18.22 4.32, 17.58 5.19 C16.95 6.07, 15.39 7.74, 13.72 8.26 C12.06 8.78, 9.48 8.55, 7.62 8.32 C5.76 8.08, 3.84 7.48, 2.59 6.85 C1.33 6.21, 0.12 5.4, 0.09 4.51 C0.05 3.61, 1.21 2.14, 2.38 1.47 C3.54 0.8, 6.22 0.79, 7.09 0.5 C7.95 0.22, 7.44 -0.26, 7.56 -0.26 M11.09 -0.01 C12.97 0.07, 14.63 0.39, 15.85 1.06 C17.08 1.74, 18.39 3.01, 18.43 4.04 C18.47 5.06, 17.36 6.48, 16.11 7.23 C14.85 7.98, 12.9 8.53, 10.91 8.53 C8.92 8.54, 5.85 7.72, 4.15 7.25 C2.45 6.79, 1.2 6.44, 0.72 5.73 C0.23 5.02, 0.5 3.93, 1.24 2.97 C1.97 2.02, 3.65 0.42, 5.12 -0.02 C6.58 -0.45, 9.01 0.23, 10.04 0.38 C11.06 0.52, 11.23 0.71, 11.25 0.85" stroke="none" stroke-width="0" fill="#343a40"></path><path d="M10.37 -0.21 C12.26 -0.05, 15.21 1.21, 16.61 2 C18.01 2.79, 18.86 3.65, 18.79 4.53 C18.71 5.41, 17.58 6.68, 16.15 7.27 C14.73 7.86, 12.23 7.96, 10.25 8.07 C8.27 8.18, 5.86 8.27, 4.27 7.92 C2.68 7.57, 1.28 6.79, 0.72 5.97 C0.16 5.15, 0.21 3.89, 0.91 3.02 C1.6 2.15, 3.24 1.3, 4.88 0.75 C6.52 0.19, 9.61 -0.18, 10.74 -0.28 C11.88 -0.39, 11.61 0, 11.7 0.12 M9.21 0.41 C11.09 0.25, 13.05 0.34, 14.51 0.92 C15.97 1.5, 17.57 2.92, 17.97 3.87 C18.38 4.83, 17.79 5.95, 16.94 6.65 C16.1 7.36, 14.69 7.73, 12.92 8.11 C11.15 8.48, 8.31 9.3, 6.32 8.91 C4.32 8.52, 1.9 6.72, 0.96 5.77 C0.02 4.83, 0.3 4.02, 0.68 3.22 C1.06 2.43, 1.94 1.42, 3.24 0.99 C4.54 0.56, 7.44 0.89, 8.49 0.66 C9.55 0.42, 9.62 -0.39, 9.56 -0.42" stroke="#1e1e1e" stroke-width="2" fill="none"></path></g><g stroke-linecap="round" transform="translate(7.817538598315423 21.22936915665855) rotate(133.238494289057 9.166015625 4.195845170454504)"><path d="M10.41 0.39 C12.22 0.55, 14.49 1.17, 15.77 1.72 C17.04 2.27, 17.97 2.76, 18.04 3.68 C18.11 4.6, 17.38 6.48, 16.2 7.24 C15.01 8, 12.78 8.17, 10.95 8.26 C9.12 8.35, 6.91 8.16, 5.21 7.79 C3.52 7.41, 1.52 6.82, 0.79 6 C0.05 5.17, 0.33 3.63, 0.82 2.82 C1.31 2, 2.16 1.63, 3.74 1.1 C5.33 0.57, 9.13 -0.18, 10.32 -0.34 C11.51 -0.49, 10.83 0.06, 10.9 0.16 M7.79 -0.34 C9.56 -0.51, 12.57 -0.03, 14.22 0.59 C15.88 1.2, 17.16 2.44, 17.73 3.35 C18.29 4.26, 18.42 5.38, 17.6 6.04 C16.77 6.7, 14.5 6.93, 12.77 7.31 C11.05 7.69, 8.94 8.38, 7.25 8.31 C5.55 8.24, 3.7 7.69, 2.61 6.87 C1.52 6.05, 0.82 4.24, 0.7 3.38 C0.58 2.51, 0.55 2.11, 1.89 1.67 C3.22 1.23, 7.73 0.88, 8.71 0.75 C9.68 0.61, 7.94 0.94, 7.73 0.86" stroke="none" stroke-width="0" fill="#343a40"></path><path d="M10.08 0.48 C12.1 0.57, 14.55 0.84, 15.92 1.44 C17.29 2.04, 18.21 3.26, 18.29 4.06 C18.37 4.86, 17.52 5.53, 16.39 6.24 C15.27 6.95, 13.32 7.97, 11.55 8.33 C9.77 8.69, 7.43 8.75, 5.72 8.42 C4.01 8.1, 2.17 7.21, 1.29 6.37 C0.42 5.54, 0.15 4.42, 0.47 3.43 C0.79 2.44, 1.56 1.02, 3.21 0.43 C4.85 -0.15, 9.07 -0.02, 10.35 -0.09 C11.64 -0.15, 10.98 0.02, 10.93 0.06 M10.52 0.11 C12.28 0.23, 14.8 1.31, 16.05 2.07 C17.3 2.84, 17.93 3.9, 18 4.71 C18.06 5.52, 17.67 6.21, 16.45 6.93 C15.23 7.65, 12.73 9.01, 10.68 9.05 C8.62 9.09, 5.69 7.8, 4.11 7.16 C2.52 6.52, 1.7 5.96, 1.15 5.21 C0.6 4.46, 0.28 3.32, 0.8 2.65 C1.33 1.98, 2.51 1.73, 4.29 1.21 C6.08 0.7, 10.57 -0.27, 11.53 -0.44 C12.48 -0.6, 10.22 0.1, 10.02 0.21" stroke="#1e1e1e" stroke-width="2" fill="none"></path></g></svg>