<svg version="1.1" xmlns="http://www.w3.org/2000/svg" viewBox="0 0 51.14013671875 49.88525390625" width="51.14013671875" height="49.88525390625">
  <!-- svg-source:excalidraw -->
  
  <defs>
    <style class="style-fonts">
      @font-face {
        font-family: "Virgil";
        src: url("https://excalidraw.com/Virgil.woff2");
      }
      @font-face {
        font-family: "Cascadia";
        src: url("https://excalidraw.com/Cascadia.woff2");
      }
      @font-face {
        font-family: "Assistant";
        src: url("https://excalidraw.com/Assistant-Regular.woff2");
      }
    </style>
    
  </defs>
  <g stroke-linecap="round" transform="translate(10 10) rotate(0 15.570068359375 14.942626953125)"><path d="M16.69 -0.28 C19.89 -0.33, 23.29 1.99, 25.74 4.19 C28.19 6.39, 30.96 9.75, 31.38 12.91 C31.8 16.07, 30.07 20.41, 28.23 23.14 C26.4 25.88, 23.54 28.46, 20.38 29.33 C17.21 30.19, 12.28 29.57, 9.26 28.33 C6.24 27.1, 3.68 24.68, 2.26 21.92 C0.84 19.16, 0.16 14.92, 0.75 11.77 C1.34 8.61, 3.13 4.94, 5.8 3.01 C8.47 1.07, 14.8 0.55, 16.76 0.17 C18.71 -0.2, 17.62 0.44, 17.51 0.74 M15.94 -0.32 C19.24 -0.46, 22.95 1.32, 25.55 3.42 C28.15 5.52, 30.95 9.16, 31.55 12.3 C32.15 15.44, 30.88 19.6, 29.14 22.26 C27.4 24.93, 24.29 27.22, 21.11 28.3 C17.93 29.38, 13.11 29.65, 10.05 28.75 C7 27.85, 4.35 25.5, 2.78 22.89 C1.2 20.27, 0.2 16.23, 0.61 13.06 C1.02 9.89, 2.77 5.95, 5.23 3.87 C7.69 1.8, 13.73 1.21, 15.36 0.62 C16.99 0.04, 15.05 0.32, 15 0.36" stroke="none" stroke-width="0" fill="#868e96"></path><path d="M16.37 -0.47 C19.64 -0.4, 24.3 1.98, 26.75 4.2 C29.19 6.43, 30.72 9.69, 31.03 12.87 C31.34 16.05, 30.45 20.63, 28.59 23.29 C26.73 25.94, 23.09 27.92, 19.87 28.8 C16.66 29.69, 12.32 29.89, 9.31 28.63 C6.3 27.37, 3.22 24.11, 1.81 21.24 C0.4 18.37, 0.12 14.5, 0.86 11.4 C1.59 8.31, 3.55 4.51, 6.22 2.66 C8.9 0.8, 15.01 0.63, 16.9 0.3 C18.79 -0.03, 17.47 0.46, 17.56 0.67 M18.57 0.07 C21.7 0.7, 25.93 4.24, 27.96 6.77 C29.98 9.3, 30.9 12.28, 30.71 15.25 C30.52 18.23, 29.11 22.12, 26.8 24.62 C24.5 27.12, 20.11 29.69, 16.88 30.26 C13.66 30.83, 10.28 29.93, 7.47 28.04 C4.66 26.15, 1.14 22.09, 0.02 18.9 C-1.1 15.71, -0.74 11.71, 0.75 8.9 C2.25 6.09, 5.97 3.5, 8.99 2.04 C12.01 0.58, 17.09 0.32, 18.89 0.13 C20.7 -0.07, 19.78 0.52, 19.84 0.87" stroke="#1e1e1e" stroke-width="2" fill="none"></path></g><g stroke-linecap="round" transform="translate(19.973144531250227 20.886230468750114) rotate(0 5.8740234375 5.205078125)"><path d="M6.06 0.31 C7.24 0.38, 9.54 0.7, 10.4 1.47 C11.26 2.24, 11.17 3.8, 11.24 4.94 C11.3 6.09, 11.48 7.52, 10.78 8.33 C10.08 9.14, 8.17 9.53, 7.02 9.8 C5.87 10.08, 4.9 10.37, 3.88 9.98 C2.87 9.58, 1.6 8.47, 0.94 7.43 C0.29 6.4, -0.33 4.82, -0.07 3.76 C0.2 2.7, 1.39 1.64, 2.53 1.08 C3.67 0.52, 6.2 0.47, 6.79 0.38 C7.39 0.3, 6.17 0.62, 6.1 0.57 M5.04 0.13 C6.22 -0.03, 8.48 0.32, 9.54 0.88 C10.6 1.44, 11.08 2.58, 11.39 3.5 C11.7 4.42, 11.89 5.43, 11.39 6.41 C10.88 7.4, 9.37 8.73, 8.37 9.43 C7.37 10.13, 6.49 10.68, 5.38 10.61 C4.28 10.55, 2.68 9.89, 1.75 9.02 C0.83 8.15, -0.11 6.5, -0.16 5.4 C-0.22 4.31, 0.63 3.33, 1.41 2.45 C2.2 1.57, 4.02 0.61, 4.55 0.13 C5.08 -0.34, 4.46 -0.41, 4.58 -0.42" stroke="none" stroke-width="0" fill="#fa5252"></path><path d="M5.28 0.21 C6.46 -0.02, 7.73 -0.22, 8.75 0.32 C9.77 0.87, 10.96 2.47, 11.38 3.5 C11.8 4.52, 11.7 5.45, 11.26 6.48 C10.83 7.5, 9.81 9.07, 8.78 9.65 C7.75 10.23, 6.23 10.13, 5.08 9.94 C3.92 9.75, 2.71 9.34, 1.85 8.51 C1 7.68, 0.1 6.03, -0.06 4.97 C-0.21 3.9, 0.18 2.9, 0.95 2.11 C1.71 1.32, 3.76 0.56, 4.52 0.24 C5.28 -0.09, 5.34 0.13, 5.51 0.16 M5.89 0.63 C7.15 0.55, 8.45 0.11, 9.42 0.63 C10.39 1.16, 11.53 2.5, 11.71 3.8 C11.89 5.1, 11.08 7.25, 10.51 8.43 C9.94 9.6, 9.51 10.62, 8.27 10.86 C7.03 11.09, 4.43 10.38, 3.07 9.85 C1.71 9.31, 0.55 8.52, 0.1 7.66 C-0.34 6.79, 0.11 5.78, 0.4 4.63 C0.69 3.49, 0.8 1.53, 1.85 0.79 C2.9 0.04, 5.93 0.2, 6.69 0.14 C7.45 0.08, 6.49 0.43, 6.42 0.44" stroke="#1e1e1e" stroke-width="2" fill="none"></path></g></svg>