<svg version="1.1" xmlns="http://www.w3.org/2000/svg" viewBox="0 0 155.9476474168821 151.96198780996406" width="155.9476474168821" height="151.96198780996406">
  <!-- svg-source:excalidraw -->
  
  <defs>
    <style class="style-fonts">
      @font-face {
        font-family: "Virgil";
        src: url("https://excalidraw.com/Virgil.woff2");
      }
      @font-face {
        font-family: "Cascadia";
        src: url("https://excalidraw.com/Cascadia.woff2");
      }
      @font-face {
        font-family: "Assistant";
        src: url("https://excalidraw.com/Assistant-Regular.woff2");
      }
    </style>
    
  </defs>
  <g stroke-linecap="round" transform="translate(-11.13124864560973 71.07257855663875) rotate(135.69166217748204 74.298828125 18.990234375)"><path d="M93.75 4.75 C106.79 8.18, 119.83 11.61, 129.85 14.25 C148.6 19, 148.6 19, 129.85 23.75 C118.9 26.62, 107.96 29.5, 93.75 33.23 C75 37.98, 75 37.98, 56.25 33.23 C43.14 29.92, 30.02 26.6, 18.75 23.75 C0 19, 0 19, 18.75 14.25 C31.27 11.08, 43.78 7.91, 56.25 4.75 C75 0, 75 0, 93.75 4.75" stroke="none" stroke-width="0" fill="#868e96"></path><path d="M93.75 4.75 C104.62 7.61, 115.48 10.47, 129.85 14.25 M93.75 4.75 C104.05 7.46, 114.35 10.17, 129.85 14.25 M129.85 14.25 C148.6 19, 148.6 19, 129.85 23.75 M129.85 14.25 C148.6 19, 148.6 19, 129.85 23.75 M129.85 23.75 C117.38 27.03, 104.91 30.3, 93.75 33.23 M129.85 23.75 C121.51 25.94, 113.16 28.13, 93.75 33.23 M93.75 33.23 C75 37.98, 75 37.98, 56.25 33.23 M93.75 33.23 C75 37.98, 75 37.98, 56.25 33.23 M56.25 33.23 C48.13 31.18, 40.01 29.13, 18.75 23.75 M56.25 33.23 C44.46 30.25, 32.68 27.27, 18.75 23.75 M18.75 23.75 C0 19, 0 19, 18.75 14.25 M18.75 23.75 C0 19, 0 19, 18.75 14.25 M18.75 14.25 C32.13 10.86, 45.5 7.47, 56.25 4.75 M18.75 14.25 C31.3 11.07, 43.85 7.89, 56.25 4.75 M56.25 4.75 C75 0, 75 0, 93.75 4.75 M56.25 4.75 C75 0, 75 0, 93.75 4.75" stroke="#1e1e1e" stroke-width="2" fill="none"></path></g><g stroke-linecap="round" transform="translate(82.56410634950385 30.634471457108475) rotate(135.69166217748204 24.453125 16.728515625)"><path d="M31.25 4.25 C35.72 7.58, 40.19 10.91, 42.66 12.75 C48.91 17, 48.91 17, 42.66 21.25 C40.08 23.05, 37.51 24.84, 31.25 29.21 C25 33.46, 25 33.46, 18.75 29.21 C15.34 27.04, 11.93 24.86, 6.25 21.25 C0 17, 0 17, 6.25 12.75 C9.82 10.32, 13.39 7.89, 18.75 4.25 C25 0, 25 0, 31.25 4.25" stroke="none" stroke-width="0" fill="#e9ecef"></path><path d="M31.25 4.25 C35.4 7.34, 39.55 10.44, 42.66 12.75 M31.25 4.25 C35.53 7.44, 39.82 10.63, 42.66 12.75 M42.66 12.75 C48.91 17, 48.91 17, 42.66 21.25 M42.66 12.75 C48.91 17, 48.91 17, 42.66 21.25 M42.66 21.25 C40.14 23, 37.63 24.76, 31.25 29.21 M42.66 21.25 C38.35 24.25, 34.04 27.26, 31.25 29.21 M31.25 29.21 C25 33.46, 25 33.46, 18.75 29.21 M31.25 29.21 C25 33.46, 25 33.46, 18.75 29.21 M18.75 29.21 C14.46 26.47, 10.16 23.74, 6.25 21.25 M18.75 29.21 C14.48 26.49, 10.2 23.77, 6.25 21.25 M6.25 21.25 C0 17, 0 17, 6.25 12.75 M6.25 21.25 C0 17, 0 17, 6.25 12.75 M6.25 12.75 C9.07 10.83, 11.9 8.91, 18.75 4.25 M6.25 12.75 C11.18 9.4, 16.12 6.04, 18.75 4.25 M18.75 4.25 C25 0, 25 0, 31.25 4.25 M18.75 4.25 C25 0, 25 0, 31.25 4.25" stroke="#1e1e1e" stroke-width="2" fill="none"></path></g><g stroke-linecap="round" transform="translate(95.93079543321346 20.17148338435868) rotate(135.69166217748204 29.154296875 10.193359375)"><path d="M37.5 2.75 C41.07 4.23, 44.64 5.7, 50.81 8.25 C58.31 11, 58.31 11, 50.81 13.75 C48.04 14.56, 45.26 15.37, 37.5 17.64 C30 20.39, 30 20.39, 22.5 17.64 C17.19 16.26, 11.87 14.88, 7.5 13.75 C0 11, 0 11, 7.5 8.25 C12.03 6.59, 16.56 4.93, 22.5 2.75 C30 0, 30 0, 37.5 2.75" stroke="none" stroke-width="0" fill="#a5d8ff"></path><path d="M37.5 2.75 C41.99 4.61, 46.48 6.46, 50.81 8.25 M37.5 2.75 C41.17 4.27, 44.83 5.78, 50.81 8.25 M50.81 8.25 C58.31 11, 58.31 11, 50.81 13.75 M50.81 8.25 C58.31 11, 58.31 11, 50.81 13.75 M50.81 13.75 C47.98 14.58, 45.15 15.4, 37.5 17.64 M50.81 13.75 C46.22 15.09, 41.62 16.43, 37.5 17.64 M37.5 17.64 C30 20.39, 30 20.39, 22.5 17.64 M37.5 17.64 C30 20.39, 30 20.39, 22.5 17.64 M22.5 17.64 C17.98 16.47, 13.46 15.29, 7.5 13.75 M22.5 17.64 C18.44 16.59, 14.39 15.53, 7.5 13.75 M7.5 13.75 C0 11, 0 11, 7.5 8.25 M7.5 13.75 C0 11, 0 11, 7.5 8.25 M7.5 8.25 C11.48 6.79, 15.46 5.33, 22.5 2.75 M7.5 8.25 C12.63 6.37, 17.76 4.49, 22.5 2.75 M22.5 2.75 C30 0, 30 0, 37.5 2.75 M22.5 2.75 C30 0, 30 0, 37.5 2.75" stroke="#1e1e1e" stroke-width="2" fill="none"></path></g><g stroke-linecap="round" transform="translate(103.00103097576925 31.786234252291024) rotate(135.69166217748204 14.93359375 6.142578125)"><path d="M18.75 1.75 C21.24 2.93, 23.73 4.12, 26.12 5.25 C29.87 7, 29.87 7, 26.12 8.75 C24.6 9.12, 23.08 9.49, 18.75 10.54 C15 12.29, 15 12.29, 11.25 10.54 C8.88 9.97, 6.51 9.41, 3.75 8.75 C0 7, 0 7, 3.75 5.25 C6.46 3.99, 9.16 2.72, 11.25 1.75 C15 0, 15 0, 18.75 1.75" stroke="none" stroke-width="0" fill="#228be6"></path><path d="M18.75 1.75 C20.3 2.49, 21.85 3.22, 26.12 5.25 M18.75 1.75 C20.73 2.69, 22.72 3.63, 26.12 5.25 M26.12 5.25 C29.87 7, 29.87 7, 26.12 8.75 M26.12 5.25 C29.87 7, 29.87 7, 26.12 8.75 M26.12 8.75 C24.14 9.23, 22.17 9.71, 18.75 10.54 M26.12 8.75 C24.51 9.14, 22.91 9.53, 18.75 10.54 M18.75 10.54 C15 12.29, 15 12.29, 11.25 10.54 M18.75 10.54 C15 12.29, 15 12.29, 11.25 10.54 M11.25 10.54 C9.52 10.12, 7.79 9.71, 3.75 8.75 M11.25 10.54 C9.65 10.15, 8.05 9.77, 3.75 8.75 M3.75 8.75 C0 7, 0 7, 3.75 5.25 M3.75 8.75 C0 7, 0 7, 3.75 5.25 M3.75 5.25 C6.02 4.19, 8.3 3.13, 11.25 1.75 M3.75 5.25 C6.37 4.03, 8.99 2.8, 11.25 1.75 M11.25 1.75 C15 0, 15 0, 18.75 1.75 M11.25 1.75 C15 0, 15 0, 18.75 1.75" stroke="#1e1e1e" stroke-width="2" fill="none"></path></g></svg>