<svg version="1.1" xmlns="http://www.w3.org/2000/svg" viewBox="0 0 38.33203125 38.28515625" width="38.33203125" height="38.28515625">
  <!-- svg-source:excalidraw -->
  
  <defs>
    <style class="style-fonts">
      @font-face {
        font-family: "Virgil";
        src: url("https://excalidraw.com/Virgil.woff2");
      }
      @font-face {
        font-family: "Cascadia";
        src: url("https://excalidraw.com/Cascadia.woff2");
      }
      @font-face {
        font-family: "Assistant";
        src: url("https://excalidraw.com/Assistant-Regular.woff2");
      }
    </style>
    
  </defs>
  <g stroke-linecap="round" transform="translate(10 10) rotate(0 9.166015625 9.142578125)"><path d="M9.56 -0.32 C11.45 -0.29, 13.58 1.15, 15.09 2.53 C16.59 3.91, 18.26 6.13, 18.59 7.95 C18.93 9.77, 18.11 11.8, 17.09 13.45 C16.07 15.1, 14.42 17.09, 12.48 17.87 C10.54 18.65, 7.29 18.86, 5.44 18.14 C3.58 17.42, 2.25 15.38, 1.38 13.54 C0.51 11.7, -0.12 9.01, 0.23 7.09 C0.57 5.18, 1.94 3.23, 3.45 2.04 C4.96 0.84, 8.24 0.14, 9.27 -0.09 C10.3 -0.31, 9.63 0.46, 9.65 0.69 M9.9 0.31 C11.89 0.29, 14.58 0.66, 16.06 1.89 C17.54 3.12, 18.65 5.73, 18.79 7.69 C18.94 9.65, 18.21 12.04, 16.96 13.64 C15.71 15.24, 13.08 16.59, 11.29 17.29 C9.5 17.98, 8.04 18.36, 6.21 17.8 C4.38 17.24, 1.25 15.72, 0.33 13.91 C-0.6 12.11, 0.01 9.01, 0.67 6.98 C1.34 4.95, 2.88 2.8, 4.32 1.71 C5.76 0.62, 8.33 0.74, 9.32 0.42 C10.32 0.1, 10.17 -0.28, 10.29 -0.22" stroke="none" stroke-width="0" fill="#343a40"></path><path d="M9.72 -0.18 C11.56 -0.33, 14.01 0.5, 15.46 1.93 C16.91 3.37, 18.24 6.48, 18.43 8.45 C18.62 10.42, 17.63 12.12, 16.59 13.75 C15.55 15.38, 14.02 17.69, 12.19 18.25 C10.36 18.8, 7.42 17.89, 5.59 17.09 C3.76 16.29, 2.1 15.16, 1.23 13.43 C0.35 11.71, 0.04 8.6, 0.37 6.76 C0.69 4.91, 1.56 3.41, 3.17 2.36 C4.79 1.31, 8.86 0.82, 10.07 0.43 C11.28 0.04, 10.48 -0.09, 10.44 0.01 M9.07 0.66 C10.85 0.47, 14.02 0.54, 15.47 1.89 C16.92 3.23, 17.62 6.67, 17.78 8.75 C17.95 10.83, 17.46 12.73, 16.46 14.37 C15.46 16.01, 13.58 18.09, 11.78 18.61 C9.97 19.12, 7.42 18.39, 5.62 17.49 C3.82 16.58, 1.97 15.01, 0.97 13.18 C-0.02 11.36, -0.76 8.37, -0.35 6.56 C0.07 4.75, 1.71 3.36, 3.45 2.34 C5.18 1.32, 8.93 0.82, 10.07 0.43 C11.2 0.05, 10.29 -0.05, 10.27 0.04" stroke="#1e1e1e" stroke-width="2" fill="none"></path></g></svg>