<svg version="1.1" xmlns="http://www.w3.org/2000/svg" viewBox="0 0 55.930056764029814 57.704940982460585" width="55.930056764029814" height="57.704940982460585">
  <!-- svg-source:excalidraw -->
  
  <defs>
    <style class="style-fonts">
      @font-face {
        font-family: "Virgil";
        src: url("https://excalidraw.com/Virgil.woff2");
      }
      @font-face {
        font-family: "Cascadia";
        src: url("https://excalidraw.com/Cascadia.woff2");
      }
      @font-face {
        font-family: "Assistant";
        src: url("https://excalidraw.com/Assistant-Regular.woff2");
      }
    </style>
    
  </defs>
  <g stroke-linecap="round" transform="translate(29.847604642546003 36.17534743056581) rotate(227.56872590591385 9.166015625 4.195845170454504)"><path d="M11.53 -0.36 C13.27 -0.22, 15.19 0.41, 16.3 1.29 C17.4 2.17, 18.19 3.86, 18.15 4.91 C18.1 5.96, 17.44 7.1, 16.04 7.59 C14.63 8.09, 11.72 7.81, 9.71 7.89 C7.7 7.98, 5.54 8.55, 3.98 8.09 C2.42 7.62, 0.93 5.94, 0.36 5.09 C-0.2 4.23, -0.29 3.8, 0.58 2.96 C1.45 2.12, 3.68 0.53, 5.58 0.07 C7.48 -0.4, 10.89 0.19, 11.98 0.16 C13.06 0.13, 12.11 -0.25, 12.07 -0.1 M10.51 0.58 C12.24 0.58, 15.01 0.5, 16.38 1.16 C17.74 1.81, 18.68 3.5, 18.72 4.51 C18.76 5.51, 17.9 6.58, 16.62 7.2 C15.34 7.82, 13.17 8.12, 11.06 8.23 C8.95 8.34, 5.65 8.2, 3.95 7.87 C2.24 7.54, 1.48 7.06, 0.84 6.24 C0.2 5.41, -0.59 3.83, 0.12 2.91 C0.83 1.99, 3.2 1.14, 5.12 0.72 C7.04 0.3, 10.74 0.53, 11.64 0.39 C12.54 0.24, 10.67 -0.14, 10.54 -0.14" stroke="none" stroke-width="0" fill="#343a40"></path><path d="M9.42 0.39 C11.25 0.42, 14.22 0.77, 15.72 1.37 C17.22 1.96, 18.29 3.18, 18.44 3.97 C18.59 4.76, 17.78 5.33, 16.62 6.12 C15.46 6.91, 13.27 8.43, 11.48 8.71 C9.69 8.99, 7.61 8.3, 5.88 7.81 C4.14 7.33, 2.02 6.61, 1.08 5.77 C0.14 4.93, -0.29 3.55, 0.23 2.76 C0.75 1.97, 2.46 1.5, 4.19 1.02 C5.91 0.55, 9.5 0.1, 10.58 -0.08 C11.67 -0.27, 10.77 -0.13, 10.69 -0.07 M8.65 -0.46 C10.54 -0.57, 13.83 0.16, 15.33 0.75 C16.84 1.34, 17.38 2.22, 17.66 3.08 C17.94 3.93, 18.02 5, 17.01 5.88 C15.99 6.76, 13.39 7.93, 11.59 8.34 C9.79 8.75, 7.86 8.8, 6.2 8.35 C4.53 7.89, 2.61 6.51, 1.6 5.64 C0.6 4.76, -0.03 3.76, 0.17 3.07 C0.38 2.38, 1.22 1.94, 2.83 1.47 C4.43 1.01, 8.77 0.48, 9.78 0.29 C10.8 0.11, 9.06 0.32, 8.91 0.37" stroke="#1e1e1e" stroke-width="2" fill="none"></path></g><g stroke-linecap="round" transform="translate(7.750420871483811 32.319981097091386) rotate(227.56872590591385 9.166015625 4.195845170454504)"><path d="M7.34 -0.36 C9.1 -0.41, 11.82 0.41, 13.61 1.01 C15.39 1.62, 17.42 2.57, 18.04 3.27 C18.65 3.96, 18.05 4.34, 17.31 5.17 C16.58 6, 15.26 7.76, 13.63 8.24 C12 8.72, 9.49 8.19, 7.54 8.04 C5.59 7.89, 3.11 8.04, 1.93 7.34 C0.75 6.63, 0.41 4.8, 0.47 3.82 C0.53 2.84, 1.02 2.17, 2.29 1.47 C3.56 0.76, 6.95 -0.27, 8.09 -0.42 C9.23 -0.57, 9.02 0.34, 9.13 0.56 M10.07 -0.43 C12.1 -0.46, 14.65 0.68, 16.13 1.43 C17.61 2.19, 18.77 3.23, 18.95 4.08 C19.13 4.93, 18.54 5.81, 17.22 6.53 C15.91 7.24, 13 8.02, 11.06 8.38 C9.12 8.75, 7.37 9.08, 5.57 8.72 C3.77 8.36, 1.09 7.11, 0.26 6.2 C-0.57 5.3, -0.12 4.15, 0.6 3.29 C1.32 2.42, 3.08 1.62, 4.58 1.02 C6.08 0.42, 8.68 -0.12, 9.59 -0.3 C10.5 -0.47, 9.86 -0.13, 10.04 -0.04" stroke="none" stroke-width="0" fill="#343a40"></path><path d="M9.52 0.18 C11.48 0.12, 13.92 0.75, 15.35 1.24 C16.78 1.73, 17.85 2.19, 18.09 3.12 C18.34 4.06, 17.74 6.04, 16.82 6.84 C15.9 7.65, 14.39 7.79, 12.59 7.96 C10.79 8.13, 7.94 8.21, 6.02 7.86 C4.1 7.5, 2 6.52, 1.09 5.81 C0.18 5.1, 0.1 4.44, 0.56 3.61 C1.02 2.78, 2.24 1.45, 3.84 0.82 C5.45 0.19, 9.06 -0.04, 10.18 -0.19 C11.29 -0.34, 10.6 -0.18, 10.55 -0.08 M9.68 -0.27 C11.57 -0.29, 13.34 0.06, 14.76 0.63 C16.19 1.2, 17.96 2.16, 18.22 3.15 C18.48 4.15, 17.34 5.73, 16.35 6.61 C15.36 7.49, 13.97 8.27, 12.27 8.42 C10.57 8.56, 8.02 7.91, 6.15 7.48 C4.28 7.05, 2.15 6.43, 1.07 5.82 C-0.01 5.22, -0.84 4.62, -0.35 3.85 C0.14 3.07, 2.44 1.77, 4.02 1.18 C5.6 0.58, 8.28 0.44, 9.12 0.29 C9.97 0.14, 9.05 0.13, 9.09 0.27" stroke="#1e1e1e" stroke-width="2" fill="none"></path></g><g stroke-linecap="round" transform="translate(23.41332700247176 13.137903210985769) rotate(227.56872590591385 9.166015625 4.195845170454504)"><path d="M6.82 0.56 C8.68 0.46, 11.75 0.68, 13.46 0.93 C15.18 1.17, 16.36 1.22, 17.09 2.03 C17.83 2.84, 18.34 4.87, 17.87 5.77 C17.4 6.66, 15.91 6.89, 14.26 7.4 C12.61 7.91, 9.85 8.93, 7.98 8.82 C6.1 8.71, 4.32 7.46, 3.02 6.73 C1.71 6, 0.39 5.36, 0.15 4.45 C-0.09 3.54, 0.35 1.93, 1.57 1.28 C2.78 0.63, 6.36 0.68, 7.45 0.57 C8.53 0.45, 8.02 0.69, 8.06 0.62 M11.06 0.22 C13.03 0.42, 15.45 1.03, 16.77 1.66 C18.08 2.3, 19.1 3.15, 18.95 4.03 C18.81 4.92, 17.17 6.14, 15.89 6.98 C14.6 7.82, 13.2 8.87, 11.24 9.06 C9.28 9.26, 5.85 8.66, 4.12 8.14 C2.38 7.61, 1.34 6.74, 0.84 5.9 C0.33 5.06, 0.56 4.04, 1.09 3.1 C1.62 2.16, 2.41 0.8, 4 0.27 C5.6 -0.27, 9.42 -0.03, 10.64 -0.09 C11.86 -0.14, 11.32 -0.2, 11.33 -0.06" stroke="none" stroke-width="0" fill="#343a40"></path><path d="M11.04 0.28 C12.85 0.28, 14.96 0.38, 16.15 1.12 C17.33 1.86, 18.07 3.8, 18.14 4.74 C18.21 5.67, 17.79 6.17, 16.56 6.73 C15.33 7.29, 12.81 7.98, 10.79 8.09 C8.76 8.2, 6.06 7.77, 4.41 7.39 C2.77 7.01, 1.46 6.6, 0.89 5.8 C0.33 5, 0.35 3.51, 1.03 2.59 C1.7 1.68, 3.25 0.78, 4.94 0.33 C6.62 -0.12, 10.08 -0.09, 11.14 -0.11 C12.19 -0.13, 11.3 0.18, 11.27 0.21 M7.2 -0.4 C8.99 -0.62, 12.2 -0.44, 13.88 0.13 C15.56 0.7, 16.57 2.05, 17.26 3.02 C17.95 3.99, 18.55 5.23, 18.02 5.94 C17.48 6.65, 15.81 6.93, 14.04 7.27 C12.27 7.61, 9.5 7.96, 7.41 7.98 C5.31 7.99, 2.63 7.96, 1.47 7.36 C0.32 6.77, 0.41 5.35, 0.48 4.41 C0.55 3.47, 0.73 2.42, 1.87 1.72 C3.01 1.03, 6.37 0.38, 7.34 0.23 C8.3 0.09, 7.45 0.73, 7.67 0.86" stroke="#1e1e1e" stroke-width="2" fill="none"></path></g></svg>