<svg version="1.1" xmlns="http://www.w3.org/2000/svg" viewBox="0 0 59.67691493620214 52.89453124999977" width="59.67691493620214" height="52.89453124999977">
  <!-- svg-source:excalidraw -->
  
  <defs>
    <style class="style-fonts">
      @font-face {
        font-family: "Virgil";
        src: url("https://excalidraw.com/Virgil.woff2");
      }
      @font-face {
        font-family: "Cascadia";
        src: url("https://excalidraw.com/Cascadia.woff2");
      }
      @font-face {
        font-family: "Assistant";
        src: url("https://excalidraw.com/Assistant-Regular.woff2");
      }
    </style>
    
  </defs>
  <g stroke-linecap="round" transform="translate(10 23.708411542871772) rotate(0 9.166015625 4.195845170454504)"><path d="M8.5 -0.45 C10.26 -0.66, 12.56 0.06, 14.12 0.66 C15.68 1.26, 17.32 2.27, 17.86 3.16 C18.4 4.05, 18.23 5.25, 17.35 5.99 C16.48 6.74, 14.44 7.23, 12.61 7.63 C10.79 8.03, 8.28 8.64, 6.39 8.41 C4.5 8.18, 2.37 6.91, 1.27 6.23 C0.17 5.55, -0.39 5.17, -0.22 4.33 C-0.05 3.49, 0.86 1.98, 2.3 1.19 C3.74 0.41, 7.34 -0.14, 8.44 -0.36 C9.54 -0.58, 8.79 -0.27, 8.88 -0.12 M6.68 0.53 C8.52 0.27, 11.47 0.38, 13.4 0.69 C15.33 1.01, 17.5 1.7, 18.26 2.42 C19.03 3.14, 18.61 4.14, 18.02 4.99 C17.42 5.83, 16.26 6.86, 14.69 7.5 C13.11 8.14, 10.51 8.98, 8.55 8.83 C6.59 8.67, 4.31 7.37, 2.91 6.58 C1.5 5.79, 0.35 4.99, 0.1 4.07 C-0.15 3.16, 0.29 1.76, 1.4 1.07 C2.52 0.39, 5.82 0.07, 6.79 -0.02 C7.77 -0.12, 7.24 0.37, 7.25 0.51" stroke="none" stroke-width="0" fill="#343a40"></path><path d="M7.86 0.03 C9.78 -0.14, 12.26 -0.13, 13.97 0.31 C15.67 0.75, 17.38 1.71, 18.08 2.66 C18.79 3.62, 18.85 5.1, 18.21 6.02 C17.56 6.95, 16.01 7.83, 14.19 8.21 C12.37 8.59, 9.27 8.45, 7.28 8.29 C5.29 8.13, 3.54 7.99, 2.25 7.27 C0.97 6.56, -0.42 4.87, -0.43 3.99 C-0.44 3.11, 0.81 2.7, 2.2 1.98 C3.58 1.26, 6.94 -0.1, 7.88 -0.33 C8.82 -0.57, 7.75 0.43, 7.83 0.59 M10.53 0.74 C12.42 0.85, 14.15 1.11, 15.48 1.74 C16.8 2.37, 18.31 3.61, 18.48 4.53 C18.65 5.45, 17.73 6.75, 16.51 7.25 C15.29 7.75, 12.98 7.35, 11.16 7.54 C9.35 7.73, 7.45 8.56, 5.62 8.39 C3.78 8.23, 1.07 7.33, 0.14 6.55 C-0.79 5.76, -0.58 4.77, 0.03 3.68 C0.65 2.6, 2.25 0.56, 3.81 0.03 C5.38 -0.51, 8.32 0.56, 9.43 0.46 C10.53 0.36, 10.3 -0.55, 10.47 -0.58" stroke="#1e1e1e" stroke-width="2" fill="none"></path></g><g stroke-linecap="round" transform="translate(27.754684822565423 10) rotate(0 9.166015625 4.195845170454504)"><path d="M11.32 -0.41 C13.15 -0.29, 15.11 0.95, 16.36 1.77 C17.61 2.58, 18.92 3.63, 18.82 4.48 C18.71 5.33, 17.08 6.17, 15.71 6.84 C14.34 7.52, 12.38 8.42, 10.58 8.51 C8.79 8.6, 6.55 7.97, 4.92 7.4 C3.28 6.83, 1.53 5.85, 0.77 5.1 C0.01 4.35, -0.35 3.68, 0.35 2.9 C1.05 2.11, 3.15 0.88, 4.97 0.41 C6.79 -0.06, 10.14 0.09, 11.27 0.09 C12.4 0.09, 11.83 0.41, 11.75 0.43 M8.14 -0.34 C9.97 -0.44, 12.21 0.17, 13.77 0.63 C15.33 1.09, 16.9 1.58, 17.51 2.4 C18.12 3.22, 18.06 4.78, 17.43 5.56 C16.8 6.34, 15.4 6.63, 13.73 7.07 C12.07 7.5, 9.27 8.14, 7.42 8.17 C5.56 8.19, 3.94 7.89, 2.59 7.2 C1.24 6.52, -0.52 5.07, -0.67 4.05 C-0.83 3.02, 0.16 1.85, 1.65 1.08 C3.13 0.31, 7.35 -0.52, 8.22 -0.56 C9.1 -0.6, 7.07 0.61, 6.9 0.83" stroke="none" stroke-width="0" fill="#343a40"></path><path d="M10.22 0.5 C12.06 0.56, 14.67 0.54, 16.01 1.2 C17.36 1.86, 18.27 3.58, 18.3 4.44 C18.33 5.29, 17.43 5.74, 16.18 6.34 C14.93 6.93, 12.7 7.69, 10.81 8.01 C8.92 8.34, 6.44 8.59, 4.82 8.29 C3.2 7.98, 1.86 7.07, 1.09 6.16 C0.32 5.25, -0.35 3.8, 0.21 2.85 C0.76 1.89, 2.65 0.84, 4.45 0.44 C6.25 0.05, 9.93 0.51, 10.99 0.45 C12.05 0.39, 10.93 0, 10.81 0.07 M9.29 -0.07 C11.12 -0.19, 13.57 -0.13, 14.96 0.4 C16.34 0.94, 17.33 2.21, 17.59 3.13 C17.84 4.05, 17.34 5.05, 16.47 5.94 C15.6 6.83, 14.13 8.12, 12.36 8.47 C10.6 8.82, 7.76 8.46, 5.9 8.04 C4.04 7.62, 2.15 6.58, 1.21 5.92 C0.28 5.27, -0.11 5.06, 0.27 4.1 C0.65 3.15, 1.91 0.85, 3.49 0.18 C5.07 -0.49, 8.68 0.13, 9.75 0.08 C10.82 0.02, 10.09 -0.21, 9.92 -0.16" stroke="#1e1e1e" stroke-width="2" fill="none"></path></g><g stroke-linecap="round" transform="translate(31.344883686202138 34.502840909090764) rotate(0 9.166015625 4.195845170454504)"><path d="M7.34 -0.39 C9.29 -0.7, 12.58 -0.2, 14.36 0.29 C16.14 0.77, 17.39 1.67, 18.02 2.52 C18.65 3.38, 18.79 4.47, 18.12 5.41 C17.45 6.35, 15.79 7.58, 14.02 8.14 C12.25 8.71, 9.55 9, 7.5 8.78 C5.44 8.56, 3 7.55, 1.69 6.83 C0.38 6.11, -0.4 5.38, -0.35 4.48 C-0.3 3.58, 0.68 2.11, 2.02 1.4 C3.35 0.7, 6.63 0.53, 7.69 0.26 C8.75 0, 8.22 -0.26, 8.37 -0.17 M8.85 0.64 C10.62 0.56, 12.73 0.34, 14.33 0.76 C15.94 1.18, 18.08 2.28, 18.5 3.14 C18.92 4, 17.8 5.05, 16.86 5.94 C15.93 6.82, 14.69 8.02, 12.91 8.45 C11.13 8.88, 8.01 8.96, 6.18 8.54 C4.36 8.11, 3.05 6.75, 1.96 5.89 C0.86 5.04, -0.43 4.29, -0.41 3.4 C-0.39 2.51, 0.6 1.09, 2.07 0.57 C3.54 0.05, 7.36 0.4, 8.38 0.27 C9.41 0.13, 8.19 -0.19, 8.23 -0.25" stroke="none" stroke-width="0" fill="#343a40"></path><path d="M9.45 0.38 C11.37 0.24, 13.61 0.15, 15.07 0.63 C16.53 1.11, 17.91 2.26, 18.22 3.28 C18.53 4.3, 17.89 5.93, 16.9 6.77 C15.91 7.61, 14.05 8.17, 12.26 8.31 C10.48 8.45, 8.05 7.93, 6.21 7.61 C4.36 7.29, 2.1 7.08, 1.17 6.41 C0.25 5.73, 0.35 4.5, 0.67 3.57 C0.99 2.64, 1.54 1.37, 3.09 0.81 C4.64 0.24, 8.65 0.36, 9.97 0.19 C11.29 0.01, 10.97 -0.23, 11.01 -0.26 M7.77 0.15 C9.55 0.01, 12.3 0.76, 14.05 1.16 C15.79 1.56, 17.7 1.89, 18.22 2.57 C18.74 3.26, 17.95 4.45, 17.15 5.25 C16.34 6.05, 14.94 6.92, 13.39 7.36 C11.83 7.8, 9.73 7.98, 7.83 7.89 C5.93 7.8, 3.33 7.54, 1.98 6.84 C0.64 6.14, -0.25 4.61, -0.25 3.69 C-0.24 2.77, 0.67 2.06, 2.02 1.33 C3.37 0.59, 6.92 -0.48, 7.88 -0.71 C8.83 -0.94, 7.65 -0.29, 7.75 -0.05" stroke="#1e1e1e" stroke-width="2" fill="none"></path></g></svg>