<svg version="1.1" xmlns="http://www.w3.org/2000/svg" viewBox="0 0 106.89305606447624 140.84223780150023" width="106.89305606447624" height="140.84223780150023">
  <!-- svg-source:excalidraw -->
  
  <defs>
    <style class="style-fonts">
      @font-face {
        font-family: "Virgil";
        src: url("https://excalidraw.com/Virgil.woff2");
      }
      @font-face {
        font-family: "Cascadia";
        src: url("https://excalidraw.com/Cascadia.woff2");
      }
      @font-face {
        font-family: "Assistant";
        src: url("https://excalidraw.com/Assistant-Regular.woff2");
      }
    </style>
    
  </defs>
  <g stroke-linecap="round" transform="translate(32.64044744318198 109.06643921733576) rotate(337.5387531331347 19.283203125 7.48828125)"><path d="M3.74 0 C17.27 0.6, 27.62 -1.91, 34.82 0 C36.44 -0.45, 36.84 1.52, 38.57 3.74 C39.3 6.16, 37.96 10.09, 38.57 11.23 C36.43 11.72, 36.12 14.1, 34.82 14.98 C27.82 17.04, 19.13 15.59, 3.74 14.98 C-0.11 15.78, -0.43 13.26, 0 11.23 C0.39 8.69, -0.21 6.22, 0 3.74 C0.35 -0.72, 1.58 -1.45, 3.74 0" stroke="none" stroke-width="0" fill="#868e96"></path><path d="M3.74 0 C14.21 -0.29, 22.88 0.08, 34.82 0 M3.74 0 C14.7 -0.04, 25.91 -0.05, 34.82 0 M34.82 0 C38.03 -0.88, 37.93 0.53, 38.57 3.74 M34.82 0 C37.81 0.43, 38.15 0.74, 38.57 3.74 M38.57 3.74 C38.2 5.44, 38.31 7.47, 38.57 11.23 M38.57 3.74 C38.4 5.72, 38.61 7.54, 38.57 11.23 M38.57 11.23 C37.96 14.31, 36.33 15.06, 34.82 14.98 M38.57 11.23 C37.52 14.41, 36.85 15.51, 34.82 14.98 M34.82 14.98 C27.96 15.97, 18.97 15.35, 3.74 14.98 M34.82 14.98 C25.56 14.74, 16.62 14.73, 3.74 14.98 M3.74 14.98 C1.2 15.4, 0.88 13.3, 0 11.23 M3.74 14.98 C2.21 14.67, 0.95 13.97, 0 11.23 M0 11.23 C0.07 9.08, 0.18 6.48, 0 3.74 M0 11.23 C-0.1 8.65, -0.08 5.62, 0 3.74 M0 3.74 C0.55 1.92, 0.25 0.7, 3.74 0 M0 3.74 C-0.93 0.82, 2.32 0.45, 3.74 0" stroke="#1e1e1e" stroke-width="2" fill="none"></path></g><g stroke-linecap="round" transform="translate(32.82631983901592 16.919422171883525) rotate(337.0766447889431 19.283203125 7.48828125)"><path d="M3.74 0 C12.54 -2.18, 18.24 -0.51, 34.82 0 C35.59 0.28, 40.73 0.88, 38.57 3.74 C38.04 6.28, 37.84 6.86, 38.57 11.23 C37.37 12.85, 36.9 16.63, 34.82 14.98 C26.1 15.71, 12.11 16.07, 3.74 14.98 C0.82 14.51, 1.33 15.11, 0 11.23 C-0.21 8.93, 0.09 5.39, 0 3.74 C0.33 -0.2, 3.55 2.08, 3.74 0" stroke="none" stroke-width="0" fill="#868e96"></path><path d="M3.74 0 C11.85 0.12, 22.47 0.93, 34.82 0 M3.74 0 C14.31 0.02, 25.96 -0.45, 34.82 0 M34.82 0 C36.69 -0.72, 38.99 1.63, 38.57 3.74 M34.82 0 C36.9 -0.51, 37.82 0.94, 38.57 3.74 M38.57 3.74 C38.28 5.84, 38.39 7.8, 38.57 11.23 M38.57 3.74 C38.55 6.29, 38.41 9.24, 38.57 11.23 M38.57 11.23 C37.58 13.81, 36.41 15.56, 34.82 14.98 M38.57 11.23 C38.1 14.26, 36.71 16.1, 34.82 14.98 M34.82 14.98 C23.11 15.39, 12.29 14.84, 3.74 14.98 M34.82 14.98 C26.33 14.74, 18.53 15.14, 3.74 14.98 M3.74 14.98 C2.13 14.54, 0.83 13.46, 0 11.23 M3.74 14.98 C2.2 15.22, 0.17 13.01, 0 11.23 M0 11.23 C0.15 9.39, 0.24 7.69, 0 3.74 M0 11.23 C-0.06 8.7, 0.12 6.54, 0 3.74 M0 3.74 C-1 1.95, 0.44 -0.37, 3.74 0 M0 3.74 C1.07 1.7, 2.01 0.19, 3.74 0" stroke="#1e1e1e" stroke-width="2" fill="none"></path></g><g stroke-linecap="round" transform="translate(10 32.545724255215646) rotate(0 42.630859375 38.322265625)"><path d="M19.16 0 C32.72 0.07, 46.33 1.07, 66.1 0 C81.87 -0.51, 83.76 9.15, 85.26 19.16 C81.88 26.09, 83.19 37.37, 85.26 57.48 C84.68 72.54, 80.44 79.16, 66.1 76.64 C46.73 77.89, 30.52 76.14, 19.16 76.64 C8.23 78.56, 1.47 71.91, 0 57.48 C0.6 42.94, 0.58 31.82, 0 19.16 C3.18 9.26, 5.74 -2.6, 19.16 0" stroke="none" stroke-width="0" fill="#a18072"></path><path d="M19.16 0 C33.08 1.72, 45.54 -1.27, 66.1 0 M19.16 0 C34.29 -0.91, 47.37 -0.75, 66.1 0 M66.1 0 C79.72 0.76, 84.54 5.51, 85.26 19.16 M66.1 0 C77.39 -0.61, 84.21 4.19, 85.26 19.16 M85.26 19.16 C84.28 31.3, 86.2 38.83, 85.26 57.48 M85.26 19.16 C84.7 31.25, 84.33 42.26, 85.26 57.48 M85.26 57.48 C83.44 71.43, 78.06 77.57, 66.1 76.64 M85.26 57.48 C84.04 72.5, 80.26 78.51, 66.1 76.64 M66.1 76.64 C47.55 76.22, 28.74 75.42, 19.16 76.64 M66.1 76.64 C53.6 76.9, 42.08 76.04, 19.16 76.64 M19.16 76.64 C8.05 76.11, 1.65 70.69, 0 57.48 M19.16 76.64 C6.72 75.21, -1.38 70.57, 0 57.48 M0 57.48 C1.16 44.22, 0.28 29.38, 0 19.16 M0 57.48 C0.7 43.25, -0.85 28.38, 0 19.16 M0 19.16 C-1.62 5.65, 8.25 0.79, 19.16 0 M0 19.16 C1.52 6.77, 5.18 1.9, 19.16 0" stroke="#1e1e1e" stroke-width="2" fill="none"></path></g><g stroke-linecap="round" transform="translate(65.75746355371484 88.17832059975353) rotate(47.524435689906944 13.974609375 10.47265625)"><path d="M5.24 0 C6.97 0.39, 15.49 -0.39, 22.71 0 C24.7 2.76, 26.27 -0.46, 27.95 5.24 C26.93 8.39, 27.49 14.01, 27.95 15.71 C29.52 21.72, 28.82 23.65, 22.71 20.95 C16.66 20.47, 13.25 22.71, 5.24 20.95 C3.21 22.6, 0.31 18.6, 0 15.71 C0.22 11.24, 1.64 10.39, 0 5.24 C-0.64 -0.85, 0.76 1.18, 5.24 0" stroke="none" stroke-width="0" fill="#ffd8a8"></path><path d="M5.24 0 C11.51 -1.24, 16.1 -1.43, 22.71 0 M5.24 0 C10.02 -0.48, 16.28 0.48, 22.71 0 M22.71 0 C25.48 -0.88, 26.66 1.21, 27.95 5.24 M22.71 0 C25.15 -2.2, 27.55 0.22, 27.95 5.24 M27.95 5.24 C28.54 7.88, 27.91 12.74, 27.95 15.71 M27.95 5.24 C27.37 7.58, 27.41 10.15, 27.95 15.71 M27.95 15.71 C27.14 20.12, 25.14 22.9, 22.71 20.95 M27.95 15.71 C29.34 21.06, 28.27 19.76, 22.71 20.95 M22.71 20.95 C16.32 19.71, 10.66 19.64, 5.24 20.95 M22.71 20.95 C18.88 20.64, 14.24 20.79, 5.24 20.95 M5.24 20.95 C3.39 21.37, 0.29 17.95, 0 15.71 M5.24 20.95 C0.37 21.26, 1.24 20.18, 0 15.71 M0 15.71 C0.16 12.18, 0.86 9.26, 0 5.24 M0 15.71 C-0.58 13.61, -0.48 10.58, 0 5.24 M0 5.24 C1.87 2.53, 3.07 0.33, 5.24 0 M0 5.24 C-1.21 3.64, 2.09 0.98, 5.24 0" stroke="#1e1e1e" stroke-width="2" fill="none"></path></g><g stroke-linecap="round" transform="translate(27.928636255455785 46.951090522249615) rotate(47.524435689906944 25.4296875 23.859375)"><path d="M18.37 0.94 C23.31 -0.85, 30.99 0.1, 35.98 2.03 C40.96 3.95, 45.76 8.04, 48.28 12.5 C50.8 16.95, 52.47 23.62, 51.11 28.78 C49.75 33.93, 44.52 40.44, 40.14 43.43 C35.75 46.41, 30.04 47.17, 24.83 46.69 C19.61 46.21, 13 43.69, 8.83 40.54 C4.67 37.38, 0.56 32.58, -0.17 27.75 C-0.9 22.93, 1.1 16.19, 4.46 11.57 C7.83 6.96, 16.97 1.84, 20 0.06 C23.04 -1.73, 22.53 0.53, 22.67 0.87 M21.31 1.59 C26.36 0.53, 33.18 0.38, 38.05 2.64 C42.92 4.89, 48.8 10.05, 50.52 15.12 C52.24 20.19, 50.65 28.35, 48.36 33.07 C46.07 37.79, 41.49 41.13, 36.79 43.42 C32.1 45.72, 25.39 47.39, 20.19 46.83 C15 46.27, 8.88 43.72, 5.62 40.05 C2.36 36.37, 0.4 29.86, 0.65 24.78 C0.9 19.7, 3.67 13.76, 7.13 9.55 C10.58 5.35, 18.97 1.06, 21.4 -0.44 C23.83 -1.94, 21.71 -0.09, 21.7 0.56" stroke="none" stroke-width="0" fill="#ffd8a8"></path><path d="M15.49 0.93 C20.08 -1.13, 27.68 0.02, 33.04 1.74 C38.4 3.46, 44.79 7.04, 47.63 11.25 C50.48 15.46, 51.07 21.97, 50.1 27 C49.13 32.03, 46.01 38.02, 41.81 41.44 C37.6 44.87, 30.38 47.3, 24.86 47.54 C19.35 47.78, 12.85 45.98, 8.72 42.89 C4.59 39.8, 0.91 34.29, 0.09 29.01 C-0.73 23.74, 0.65 15.94, 3.81 11.25 C6.98 6.56, 16.2 2.74, 19.09 0.88 C21.98 -0.98, 20.96 -0.11, 21.16 0.1 M25.87 0.71 C31.15 0.7, 37.49 4.16, 41.77 7.69 C46.04 11.23, 50.46 17.21, 51.54 21.9 C52.62 26.59, 51.26 31.78, 48.26 35.86 C45.26 39.94, 39.04 44.82, 33.55 46.4 C28.06 47.98, 20.62 47.35, 15.34 45.35 C10.06 43.35, 4.53 38.93, 1.89 34.41 C-0.75 29.88, -1.82 23, -0.49 18.2 C0.83 13.4, 5.11 8.75, 9.82 5.61 C14.54 2.47, 24.81 0.29, 27.79 -0.63 C30.77 -1.55, 27.73 -0.46, 27.7 0.1" stroke="#1e1e1e" stroke-width="2" fill="none"></path></g></svg>