<svg version="1.1" xmlns="http://www.w3.org/2000/svg" viewBox="0 0 109.0303328501941 140.84223780150023" width="109.0303328501941" height="140.84223780150023">
  <!-- svg-source:excalidraw -->
  
  <defs>
    <style class="style-fonts">
      @font-face {
        font-family: "Virgil";
        src: url("https://excalidraw.com/Virgil.woff2");
      }
      @font-face {
        font-family: "Cascadia";
        src: url("https://excalidraw.com/Cascadia.woff2");
      }
      @font-face {
        font-family: "Assistant";
        src: url("https://excalidraw.com/Assistant-Regular.woff2");
      }
    </style>
    
  </defs>
  <g stroke-linecap="round" transform="translate(36.05749904337608 109.06643921733576) rotate(337.5387531331347 19.283203125 7.48828125)"><path d="M3.74 0 C14.53 2.51, 19.95 -0.23, 34.82 0 C35.72 -1.22, 40.71 2.37, 38.57 3.74 C38.71 5.38, 38.47 8.13, 38.57 11.23 C38.12 13.55, 35.31 14.23, 34.82 14.98 C20.49 17.19, 12.61 15.09, 3.74 14.98 C-1.09 15.33, -0.54 15.54, 0 11.23 C0.74 9.85, 0.27 6.92, 0 3.74 C-1.77 -0.2, 0.96 0.19, 3.74 0" stroke="none" stroke-width="0" fill="#868e96"></path><path d="M3.74 0 C10.53 0.1, 19.61 -0.1, 34.82 0 M3.74 0 C12.1 -0.37, 21.45 0.53, 34.82 0 M34.82 0 C38.16 0.53, 37.58 0.38, 38.57 3.74 M34.82 0 C37.29 1.07, 37.57 0.84, 38.57 3.74 M38.57 3.74 C38.64 5.48, 38.29 8.26, 38.57 11.23 M38.57 3.74 C38.69 5.68, 38.52 7.99, 38.57 11.23 M38.57 11.23 C38.95 13.72, 37.17 15.1, 34.82 14.98 M38.57 11.23 C38.27 13.75, 38.24 13.84, 34.82 14.98 M34.82 14.98 C23.36 14.77, 9.18 15.63, 3.74 14.98 M34.82 14.98 C22.99 15.26, 11.14 14.99, 3.74 14.98 M3.74 14.98 C0.61 14.85, -0.88 14.28, 0 11.23 M3.74 14.98 C1.83 16.09, -0.73 14.64, 0 11.23 M0 11.23 C-0.22 9.61, -0.03 8.38, 0 3.74 M0 11.23 C-0.04 9.64, -0.03 7.76, 0 3.74 M0 3.74 C0.88 0.98, 1.39 0.07, 3.74 0 M0 3.74 C0.45 1.75, 0.54 0.65, 3.74 0" stroke="#1e1e1e" stroke-width="2" fill="none"></path></g><g stroke-linecap="round" transform="translate(36.24337143920911 16.919422171883525) rotate(337.0766447889431 19.283203125 7.48828125)"><path d="M3.74 0 C12.45 -0.59, 21.49 -1.62, 34.82 0 C39.46 1.13, 39.72 -0.38, 38.57 3.74 C38.55 4.48, 38.42 6.69, 38.57 11.23 C36.56 12.98, 39.48 16.76, 34.82 14.98 C25.27 15.16, 10.18 15.64, 3.74 14.98 C0.7 16.79, -0.27 12.32, 0 11.23 C0.14 8.97, -0.73 6.11, 0 3.74 C-0.29 1.44, 2.27 1.81, 3.74 0" stroke="none" stroke-width="0" fill="#868e96"></path><path d="M3.74 0 C15.1 -0.07, 24.43 0.54, 34.82 0 M3.74 0 C12.19 0.6, 20.15 0.4, 34.82 0 M34.82 0 C36.33 -0.87, 38.54 2.18, 38.57 3.74 M34.82 0 C36.33 -0.4, 38.3 1.26, 38.57 3.74 M38.57 3.74 C38.3 5.65, 38.47 6.74, 38.57 11.23 M38.57 3.74 C38.55 6.84, 38.66 9.58, 38.57 11.23 M38.57 11.23 C38.42 13.86, 37.06 14.99, 34.82 14.98 M38.57 11.23 C39.49 12.59, 38.44 14.52, 34.82 14.98 M34.82 14.98 C23.13 15.52, 14.17 15.1, 3.74 14.98 M34.82 14.98 C25.73 15.1, 16.4 15.01, 3.74 14.98 M3.74 14.98 C0.37 15.53, 0.5 14.7, 0 11.23 M3.74 14.98 C0.52 15.89, -1.02 13.75, 0 11.23 M0 11.23 C-0.01 8.74, -0.25 5.45, 0 3.74 M0 11.23 C-0.04 9.43, 0.18 7.71, 0 3.74 M0 3.74 C0.14 1.32, 1.64 0.44, 3.74 0 M0 3.74 C-0.71 1.9, 0.98 0.76, 3.74 0" stroke="#1e1e1e" stroke-width="2" fill="none"></path></g><g stroke-linecap="round" transform="translate(13.7686141001941 32.194161755215646) rotate(0 42.630859375 38.322265625)"><path d="M19.16 0 C35.64 -1.63, 59.51 1.62, 66.1 0 C80.47 -2.26, 81.7 7.15, 85.26 19.16 C84.61 26.69, 82.45 33.69, 85.26 57.48 C88.26 72.73, 81 73.29, 66.1 76.64 C45.21 77.09, 30.04 79.12, 19.16 76.64 C6.02 74.69, 0.21 72.79, 0 57.48 C-2.6 40.9, -0.55 28.58, 0 19.16 C1.41 8.89, 9.72 -2.4, 19.16 0" stroke="none" stroke-width="0" fill="#a18072"></path><path d="M19.16 0 C33.55 1.14, 47.98 -1.03, 66.1 0 M19.16 0 C29.99 0.1, 38.15 -1.3, 66.1 0 M66.1 0 C78.83 1.85, 83.54 5.69, 85.26 19.16 M66.1 0 C78.34 0.03, 83.07 6.81, 85.26 19.16 M85.26 19.16 C84.41 26.83, 86.77 36.61, 85.26 57.48 M85.26 19.16 C85.57 28.66, 85.03 38.31, 85.26 57.48 M85.26 57.48 C84.75 70.29, 80.48 74.67, 66.1 76.64 M85.26 57.48 C87.5 69.34, 79.92 78.67, 66.1 76.64 M66.1 76.64 C54.91 77.25, 40.33 76.86, 19.16 76.64 M66.1 76.64 C48.56 76.54, 31.41 77.22, 19.16 76.64 M19.16 76.64 C7.39 78.58, -1.27 71.85, 0 57.48 M19.16 76.64 C4.34 76.7, 1.72 68.88, 0 57.48 M0 57.48 C-1.43 45.48, -1.33 34.7, 0 19.16 M0 57.48 C0.98 43.53, 0.24 30.19, 0 19.16 M0 19.16 C0.79 7.27, 5.16 1.14, 19.16 0 M0 19.16 C-0.54 7.91, 6.64 1.94, 19.16 0" stroke="#1e1e1e" stroke-width="2" fill="none"></path></g><g stroke-linecap="round" transform="translate(13.186373760761853 30.8145868446054) rotate(47.524435689906944 13.974609375 10.47265625)"><path d="M5.24 0 C10.19 -2.38, 14.68 2.67, 22.71 0 C28.68 2.12, 24.6 4.49, 27.95 5.24 C28.2 8.63, 29.26 12.61, 27.95 15.71 C26 19.41, 28.73 23.85, 22.71 20.95 C15.34 20.38, 11.69 21.96, 5.24 20.95 C4.25 24.28, -2.4 16.46, 0 15.71 C-0.57 14.56, -0.23 9.83, 0 5.24 C3.56 5.12, 3.83 1.08, 5.24 0" stroke="none" stroke-width="0" fill="#ffd8a8"></path><path d="M5.24 0 C10.38 -1.5, 11.66 -0.4, 22.71 0 M5.24 0 C9.71 -0.68, 16.63 -0.28, 22.71 0 M22.71 0 C25.85 1.8, 29.35 0.71, 27.95 5.24 M22.71 0 C25.74 2.15, 28.83 1.72, 27.95 5.24 M27.95 5.24 C27.98 9.06, 26.93 12.23, 27.95 15.71 M27.95 5.24 C27.85 7.46, 28.3 11.1, 27.95 15.71 M27.95 15.71 C28.28 19.03, 26.15 22.15, 22.71 20.95 M27.95 15.71 C27.77 19.32, 24.74 20.65, 22.71 20.95 M22.71 20.95 C20.7 19.92, 16.69 19.48, 5.24 20.95 M22.71 20.95 C17.34 20.77, 12.88 20.2, 5.24 20.95 M5.24 20.95 C0.84 19.59, -0.6 20.34, 0 15.71 M5.24 20.95 C1.15 20.12, 2.02 18.58, 0 15.71 M0 15.71 C0.45 11.78, 0.59 8.89, 0 5.24 M0 15.71 C0.5 11.68, -0.05 7.71, 0 5.24 M0 5.24 C-0.94 3.4, 2.61 0.89, 5.24 0 M0 5.24 C-1.44 -0.53, 2.23 -2.23, 5.24 0" stroke="#1e1e1e" stroke-width="2" fill="none"></path></g><g stroke-linecap="round" transform="translate(28.10504480902091 45.26837942211296) rotate(47.524435689906944 25.4296875 23.859375)"><path d="M21.86 0.34 C27.02 -0.67, 34.47 1.52, 39.19 4.14 C43.9 6.77, 48.41 11.32, 50.13 16.09 C51.84 20.86, 51.54 27.93, 49.48 32.77 C47.43 37.61, 42.61 42.58, 37.82 45.14 C33.03 47.7, 26.24 49.27, 20.75 48.13 C15.26 46.99, 8.43 42.6, 4.87 38.3 C1.31 34, -1.03 27.35, -0.59 22.33 C-0.15 17.31, 2.92 11.98, 7.52 8.16 C12.12 4.34, 23.29 0.55, 27.01 -0.6 C30.74 -1.75, 30.13 0.75, 29.87 1.25 M14.49 1.4 C19.4 -0.56, 28.74 0.75, 34.28 2.12 C39.82 3.49, 44.81 5.31, 47.73 9.6 C50.65 13.89, 52.65 22.77, 51.79 27.85 C50.93 32.93, 46.74 36.82, 42.57 40.07 C38.41 43.33, 32.05 46.95, 26.79 47.38 C21.54 47.81, 15.54 45.7, 11.04 42.66 C6.54 39.63, 0.99 33.92, -0.2 29.16 C-1.39 24.4, 1.21 18.64, 3.9 14.09 C6.6 9.55, 14.16 3.98, 15.98 1.88 C17.8 -0.23, 14.75 1.06, 14.83 1.44" stroke="none" stroke-width="0" fill="#ffd8a8"></path><path d="M22.67 -0.74 C27.65 -1.29, 34.2 1.99, 38.67 4.92 C43.14 7.85, 47.67 12, 49.51 16.84 C51.34 21.69, 51.87 29.33, 49.68 34.01 C47.48 38.7, 41.18 42.74, 36.32 44.98 C31.45 47.22, 25.71 48.63, 20.49 47.46 C15.27 46.29, 8.4 42.16, 5.02 37.95 C1.63 33.74, -0.15 27.16, 0.17 22.21 C0.49 17.27, 3.09 11.82, 6.96 8.28 C10.82 4.75, 20.22 2.22, 23.36 0.99 C26.5 -0.23, 25.47 0.75, 25.8 0.94 M13.95 2.56 C18.24 0, 25.65 0.33, 30.9 1.47 C36.16 2.61, 42.33 5.55, 45.5 9.42 C48.66 13.3, 50.32 19.49, 49.88 24.72 C49.44 29.95, 46.25 36.78, 42.85 40.82 C39.45 44.86, 34.83 48.25, 29.49 48.97 C24.15 49.69, 15.74 48.15, 10.8 45.17 C5.86 42.18, 1.13 36.28, -0.16 31.05 C-1.45 25.83, 0.78 18.57, 3.06 13.82 C5.34 9.07, 11.52 4.54, 13.54 2.57 C15.56 0.6, 15.08 1.82, 15.19 2.02" stroke="#1e1e1e" stroke-width="2" fill="none"></path></g></svg>