<svg version="1.1" xmlns="http://www.w3.org/2000/svg" viewBox="0 0 107.08836856447851 140.84223780150023" width="107.08836856447851" height="140.84223780150023">
  <!-- svg-source:excalidraw -->
  
  <defs>
    <style class="style-fonts">
      @font-face {
        font-family: "Virgil";
        src: url("https://excalidraw.com/Virgil.woff2");
      }
      @font-face {
        font-family: "Cascadia";
        src: url("https://excalidraw.com/Cascadia.woff2");
      }
      @font-face {
        font-family: "Assistant";
        src: url("https://excalidraw.com/Assistant-Regular.woff2");
      }
    </style>
    
  </defs>
  <g stroke-linecap="round" transform="translate(34.4670972576605 109.06643921733576) rotate(337.5387531331347 19.283203125 7.48828125)"><path d="M3.74 0 C9.89 1.58, 21.13 -2.44, 34.82 0 C39.15 -2.1, 37.61 3.67, 38.57 3.74 C38.12 7.09, 38.78 9.24, 38.57 11.23 C36.45 12.85, 36.87 13.25, 34.82 14.98 C24.09 16.91, 14.31 13.32, 3.74 14.98 C2.86 12.84, -2.01 12.54, 0 11.23 C0.44 9.92, 0.72 7.97, 0 3.74 C0.44 -0.11, 2.05 -0.43, 3.74 0" stroke="none" stroke-width="0" fill="#868e96"></path><path d="M3.74 0 C16.35 -0.81, 27.95 0.85, 34.82 0 M3.74 0 C12.34 0.07, 20.53 0.3, 34.82 0 M34.82 0 C37.23 0.42, 38.27 0.3, 38.57 3.74 M34.82 0 C37.4 0.72, 39.58 1.84, 38.57 3.74 M38.57 3.74 C38.59 5.79, 38.24 7.07, 38.57 11.23 M38.57 3.74 C38.51 5.37, 38.46 7.11, 38.57 11.23 M38.57 11.23 C38.11 12.77, 37.15 14.31, 34.82 14.98 M38.57 11.23 C39.17 13.31, 38.07 15.66, 34.82 14.98 M34.82 14.98 C27.8 14.39, 22.97 14.01, 3.74 14.98 M34.82 14.98 C25.04 15.3, 15.4 15.56, 3.74 14.98 M3.74 14.98 C1.85 15.79, 0.9 13.22, 0 11.23 M3.74 14.98 C1.56 14.83, -0.32 13.29, 0 11.23 M0 11.23 C-0.12 9.47, 0.17 8.08, 0 3.74 M0 11.23 C0.12 9.35, 0 7.27, 0 3.74 M0 3.74 C-0.6 1.39, 1.79 0.43, 3.74 0 M0 3.74 C-0.14 2.01, 1.42 0.25, 3.74 0" stroke="#1e1e1e" stroke-width="2" fill="none"></path></g><g stroke-linecap="round" transform="translate(34.65296965349444 16.919422171883525) rotate(337.0766447889431 19.283203125 7.48828125)"><path d="M3.74 0 C13.58 -2.82, 21.76 -2.32, 34.82 0 C36.36 2.43, 39.59 2.97, 38.57 3.74 C38.66 6.53, 37.72 8.15, 38.57 11.23 C38.12 12, 37.59 17.14, 34.82 14.98 C24.73 13.69, 18.67 13.15, 3.74 14.98 C-0.76 13.78, -0.87 13.31, 0 11.23 C0.66 9.24, 0.12 5.28, 0 3.74 C0.8 0.82, 0.78 1.33, 3.74 0" stroke="none" stroke-width="0" fill="#868e96"></path><path d="M3.74 0 C16.39 1.09, 27.67 1.06, 34.82 0 M3.74 0 C15.52 0.35, 27.02 0.15, 34.82 0 M34.82 0 C37.02 -0.94, 38.64 1.87, 38.57 3.74 M34.82 0 C38.33 0.59, 37.85 1.33, 38.57 3.74 M38.57 3.74 C38.24 5.21, 38.3 7.3, 38.57 11.23 M38.57 3.74 C38.43 6.22, 38.47 8.62, 38.57 11.23 M38.57 11.23 C38.39 13.07, 37.84 14.61, 34.82 14.98 M38.57 11.23 C39.32 14.42, 36.17 14.98, 34.82 14.98 M34.82 14.98 C25.7 13.9, 15.49 13.97, 3.74 14.98 M34.82 14.98 C23.4 15.54, 12.82 15.45, 3.74 14.98 M3.74 14.98 C2.15 14.46, 0.28 13.6, 0 11.23 M3.74 14.98 C0.93 14.54, -0.78 13.33, 0 11.23 M0 11.23 C0.17 9.86, -0.15 8.13, 0 3.74 M0 11.23 C0 9.07, -0.14 7.16, 0 3.74 M0 3.74 C0.54 1.68, 1.13 0.66, 3.74 0 M0 3.74 C0.18 1.5, 0.69 1.02, 3.74 0" stroke="#1e1e1e" stroke-width="2" fill="none"></path></g><g stroke-linecap="round" transform="translate(11.826649814478515 32.545724255215646) rotate(0 42.630859375 38.322265625)"><path d="M19.16 0 C38.34 -2.07, 51.12 4.2, 66.1 0 C80.29 2.38, 85.85 4.49, 85.26 19.16 C82.43 32.6, 84.74 46.09, 85.26 57.48 C85.64 73.26, 78.36 75.14, 66.1 76.64 C50.65 73.17, 27.95 74.47, 19.16 76.64 C5.18 76.06, 2.28 71.82, 0 57.48 C0.1 41.42, 0.61 28.53, 0 19.16 C-0.65 8.23, 8.3 1.47, 19.16 0" stroke="none" stroke-width="0" fill="#a18072"></path><path d="M19.16 0 C29.46 1.44, 42.54 0.58, 66.1 0 M19.16 0 C34.95 0.03, 50.61 -1.33, 66.1 0 M66.1 0 C79.02 1.25, 87.02 7.42, 85.26 19.16 M66.1 0 C77.45 0.17, 83.59 6.51, 85.26 19.16 M85.26 19.16 C83.48 34.24, 85.68 46.9, 85.26 57.48 M85.26 19.16 C84.56 28.02, 84.84 38.12, 85.26 57.48 M85.26 57.48 C86.3 69.53, 80.18 77.84, 66.1 76.64 M85.26 57.48 C82.96 70.26, 79.16 74.8, 66.1 76.64 M66.1 76.64 C55.04 74.36, 44.83 75.37, 19.16 76.64 M66.1 76.64 C50.46 77.91, 34.51 76.59, 19.16 76.64 M19.16 76.64 C6.94 76.39, -0.55 69.49, 0 57.48 M19.16 76.64 C4.83 75.84, -1.66 69.41, 0 57.48 M0 57.48 C-1.03 47.85, -0.7 36.54, 0 19.16 M0 57.48 C-0.65 45.3, 0.48 33.28, 0 19.16 M0 19.16 C-0.24 7.72, 6.69 0.44, 19.16 0 M0 19.16 C-1.11 8.43, 5.48 -1.48, 19.16 0" stroke="#1e1e1e" stroke-width="2" fill="none"></path></g><g stroke-linecap="round" transform="translate(13.186373760761853 87.12363309975353) rotate(312.47556431009303 13.974609375 10.47265625)"><path d="M5.24 0 C13.77 -2.39, 15.97 -1.25, 22.71 0 C24.99 -0.58, 30.23 3.31, 27.95 5.24 C28.4 8.13, 28.67 12.67, 27.95 15.71 C27.3 21.05, 28.12 22.41, 22.71 20.95 C17.48 21.32, 8.25 21.3, 5.24 20.95 C-0.26 24.13, 2.88 18.56, 0 15.71 C1.56 12.1, -0.58 9.39, 0 5.24 C-2.05 3.61, 4.24 -1.97, 5.24 0" stroke="none" stroke-width="0" fill="#ffd8a8"></path><path d="M5.24 0 C10.46 0.85, 18.87 -0.52, 22.71 0 M5.24 0 C9.31 -0.79, 14.04 -0.53, 22.71 0 M22.71 0 C27.25 -0.73, 29.25 2.94, 27.95 5.24 M22.71 0 C23.9 0.01, 28.23 -0.1, 27.95 5.24 M27.95 5.24 C28.1 6.78, 28.63 9.82, 27.95 15.71 M27.95 5.24 C28.21 9.28, 28.36 12.22, 27.95 15.71 M27.95 15.71 C28.5 18.94, 25.65 20.18, 22.71 20.95 M27.95 15.71 C26.39 18.4, 24.54 20.1, 22.71 20.95 M22.71 20.95 C16.8 22.55, 11.94 22.54, 5.24 20.95 M22.71 20.95 C16.57 20.96, 11.95 21.21, 5.24 20.95 M5.24 20.95 C1.51 22.27, 0.3 19.64, 0 15.71 M5.24 20.95 C0.63 22.99, -0.91 17.72, 0 15.71 M0 15.71 C0.67 11.15, -0.46 9.26, 0 5.24 M0 15.71 C-0.34 12.59, 0.01 8.82, 0 5.24 M0 5.24 C-1.63 1.07, 1.4 -1.33, 5.24 0 M0 5.24 C0.24 3.66, 1.42 -0.96, 5.24 0" stroke="#1e1e1e" stroke-width="2" fill="none"></path></g><g stroke-linecap="round" transform="translate(28.10504480902091 45.896403022249615) rotate(312.47556431009303 25.4296875 23.859375)"><path d="M18.7 1.24 C23.61 -0.32, 32.19 -0.58, 37.3 1.44 C42.42 3.47, 47.36 8.4, 49.39 13.4 C51.42 18.4, 51.05 26.27, 49.49 31.43 C47.92 36.58, 44.43 41.73, 39.99 44.34 C35.55 46.94, 28.22 47.69, 22.87 47.06 C17.53 46.42, 11.65 44.27, 7.92 40.54 C4.19 36.8, 1.04 29.8, 0.48 24.65 C-0.08 19.49, 0.8 13.69, 4.56 9.61 C8.31 5.53, 18.96 1.69, 23 0.16 C27.05 -1.36, 28.75 -0.05, 28.83 0.46 M18.33 -0.52 C23.33 -2.17, 31.12 -0.61, 36.15 2.03 C41.18 4.68, 46.15 10.4, 48.54 15.36 C50.92 20.31, 51.79 26.82, 50.45 31.75 C49.11 36.67, 45.12 42.41, 40.5 44.92 C35.88 47.42, 28.25 47.6, 22.73 46.77 C17.22 45.95, 11.22 43.45, 7.4 39.99 C3.57 36.53, 0.03 30.98, -0.23 26.02 C-0.49 21.06, 2.41 14.43, 5.83 10.23 C9.24 6.02, 17.98 2.23, 20.25 0.77 C22.52 -0.68, 19.41 1.32, 19.43 1.5" stroke="none" stroke-width="0" fill="#ffd8a8"></path><path d="M20.59 -0.07 C25.54 -1.16, 32.38 0.26, 37.05 2.95 C41.72 5.64, 46.61 11.15, 48.61 16.08 C50.6 21.01, 50.64 27.97, 49.02 32.53 C47.39 37.09, 43.52 40.95, 38.88 43.45 C34.24 45.94, 26.78 48.3, 21.18 47.51 C15.57 46.71, 8.68 42.78, 5.25 38.7 C1.82 34.62, 0.47 28.19, 0.59 23.03 C0.7 17.87, 1.57 11.63, 5.93 7.73 C10.29 3.82, 22.44 0.79, 26.75 -0.4 C31.06 -1.58, 31.73 0.04, 31.78 0.61 M35.85 1.73 C40.44 3.4, 45.49 8.01, 47.71 12.52 C49.93 17.03, 50.53 23.79, 49.17 28.78 C47.82 33.76, 43.79 39.15, 39.59 42.41 C35.38 45.67, 28.98 48.62, 23.94 48.32 C18.9 48.02, 13.1 44.28, 9.35 40.61 C5.59 36.94, 2.09 31.21, 1.43 26.29 C0.77 21.38, 2.57 15.49, 5.38 11.12 C8.19 6.76, 13.43 1.59, 18.29 0.09 C23.15 -1.41, 31.58 1.65, 34.54 2.13 C37.5 2.62, 36.1 2.51, 36.05 3.01" stroke="#1e1e1e" stroke-width="2" fill="none"></path></g></svg>