<svg version="1.1" xmlns="http://www.w3.org/2000/svg" viewBox="0 0 115.33858816964403 140.84223780150023" width="115.33858816964403" height="140.84223780150023">
  <!-- svg-source:excalidraw -->
  
  <defs>
    <style class="style-fonts">
      @font-face {
        font-family: "Virgil";
        src: url("https://excalidraw.com/Virgil.woff2");
      }
      @font-face {
        font-family: "Cascadia";
        src: url("https://excalidraw.com/Cascadia.woff2");
      }
      @font-face {
        font-family: "Assistant";
        src: url("https://excalidraw.com/Assistant-Regular.woff2");
      }
    </style>
    
  </defs>
  <g stroke-linecap="round" transform="translate(42.36575436282601 109.06643921733576) rotate(337.5387531331347 19.283203125 7.48828125)"><path d="M3.74 0 C14.99 1.32, 23.09 -1.44, 34.82 0 C34.75 0.55, 36.05 1.15, 38.57 3.74 C37.8 5.12, 39.36 7.72, 38.57 11.23 C40.1 11.31, 39.3 16.58, 34.82 14.98 C25.11 16.85, 16.21 13.62, 3.74 14.98 C1.4 16.8, 2.1 14.3, 0 11.23 C-0.04 9.04, 0.45 7.38, 0 3.74 C2.41 -0.49, -0.73 -0.76, 3.74 0" stroke="none" stroke-width="0" fill="#868e96"></path><path d="M3.74 0 C12.5 -0.61, 21.25 0.83, 34.82 0 M3.74 0 C15.43 -0.52, 28.1 0.38, 34.82 0 M34.82 0 C36.46 -0.35, 38.33 1.26, 38.57 3.74 M34.82 0 C36.22 0.21, 37.53 0.4, 38.57 3.74 M38.57 3.74 C38.89 6.99, 38.36 9.65, 38.57 11.23 M38.57 3.74 C38.55 6.71, 38.53 9.64, 38.57 11.23 M38.57 11.23 C39.37 12.74, 38.29 14.58, 34.82 14.98 M38.57 11.23 C39.09 14.74, 37 13.87, 34.82 14.98 M34.82 14.98 C23.59 14.97, 13.14 14.92, 3.74 14.98 M34.82 14.98 C24.9 15.23, 16.11 15.44, 3.74 14.98 M3.74 14.98 C0.61 15.77, -0.89 13.75, 0 11.23 M3.74 14.98 C2.11 14.29, -0.12 13.64, 0 11.23 M0 11.23 C-0.23 8.25, 0.24 5.39, 0 3.74 M0 11.23 C-0.01 9.27, 0.04 7.36, 0 3.74 M0 3.74 C-0.61 1.82, 1.01 0.66, 3.74 0 M0 3.74 C0.13 2.22, 2.38 -0.43, 3.74 0" stroke="#1e1e1e" stroke-width="2" fill="none"></path></g><g stroke-linecap="round" transform="translate(42.55162675865904 16.919422171883525) rotate(337.0766447889431 19.283203125 7.48828125)"><path d="M3.74 0 C12.76 -1.8, 16.9 0.37, 34.82 0 C34.8 -0.1, 36.51 0.8, 38.57 3.74 C39.3 6.61, 39.07 7.23, 38.57 11.23 C40.55 15.33, 37.19 12.64, 34.82 14.98 C24.81 13.85, 15.49 17.09, 3.74 14.98 C3.34 15.54, 0.07 11.96, 0 11.23 C0.39 10.08, 0.91 6.92, 0 3.74 C-1.98 0.49, 0.65 1.86, 3.74 0" stroke="none" stroke-width="0" fill="#868e96"></path><path d="M3.74 0 C13.94 1, 26.8 0.93, 34.82 0 M3.74 0 C14.71 0.6, 25.27 -0.04, 34.82 0 M34.82 0 C37.09 0.01, 37.61 1.43, 38.57 3.74 M34.82 0 C36.28 -0.85, 39.71 0.92, 38.57 3.74 M38.57 3.74 C38.41 5.78, 38.95 8.11, 38.57 11.23 M38.57 3.74 C38.51 5.99, 38.71 8.04, 38.57 11.23 M38.57 11.23 C39.54 13.33, 37.77 15.86, 34.82 14.98 M38.57 11.23 C38.25 12.63, 37.99 15.9, 34.82 14.98 M34.82 14.98 C25.59 14.89, 15.21 14.34, 3.74 14.98 M34.82 14.98 C26.15 15.55, 16.66 15.46, 3.74 14.98 M3.74 14.98 C0.36 15, 0.75 13.13, 0 11.23 M3.74 14.98 C1.13 14.89, 0.96 12.89, 0 11.23 M0 11.23 C0.24 9.23, -0.11 7.75, 0 3.74 M0 11.23 C0.07 9.27, -0.12 7.25, 0 3.74 M0 3.74 C-0.24 1.91, 1.36 0.85, 3.74 0 M0 3.74 C1.13 0.82, 1.16 -0.71, 3.74 0" stroke="#1e1e1e" stroke-width="2" fill="none"></path></g><g stroke-linecap="round" transform="translate(20.076869419644026 32.194161755215646) rotate(0 42.630859375 38.322265625)"><path d="M19.16 0 C31.72 1.29, 47.9 0.39, 66.1 0 C76.03 -0.62, 85.01 3.6, 85.26 19.16 C87.96 26.2, 88.58 42.16, 85.26 57.48 C85.08 67.02, 79.36 75.89, 66.1 76.64 C48.95 78.72, 34.28 76.97, 19.16 76.64 C6.49 74.2, -2 69.86, 0 57.48 C3.06 43.31, -3.01 32.88, 0 19.16 C-0.82 8.97, 5.22 3.22, 19.16 0" stroke="none" stroke-width="0" fill="#a18072"></path><path d="M19.16 0 C32.62 1.26, 43.46 -2.4, 66.1 0 M19.16 0 C28.3 -0.79, 38.94 -0.42, 66.1 0 M66.1 0 C76.97 0.37, 83.45 4.9, 85.26 19.16 M66.1 0 C81.15 -0.65, 84.85 8.45, 85.26 19.16 M85.26 19.16 C86.93 34.1, 85.04 47.21, 85.26 57.48 M85.26 19.16 C85.97 30.15, 86.14 42.73, 85.26 57.48 M85.26 57.48 C86.17 72.02, 78.33 74.73, 66.1 76.64 M85.26 57.48 C86.61 72.1, 79.25 76.45, 66.1 76.64 M66.1 76.64 C52.26 75.34, 37.95 74.85, 19.16 76.64 M66.1 76.64 C48.77 77.89, 31.82 77.12, 19.16 76.64 M19.16 76.64 C7.88 75.45, -0.21 70.1, 0 57.48 M19.16 76.64 C8.32 74.97, -1.05 68.69, 0 57.48 M0 57.48 C-0.93 48.89, -0.76 37.06, 0 19.16 M0 57.48 C-0.77 46.27, -0.39 34.58, 0 19.16 M0 19.16 C0.22 8.08, 8.35 -0.74, 19.16 0 M0 19.16 C-0.17 4.98, 5.31 1.9, 19.16 0" stroke="#1e1e1e" stroke-width="2" fill="none"></path></g><g stroke-linecap="round" transform="translate(10 58.642101043607) rotate(0 13.974609375 10.47265625)"><path d="M5.24 0 C6.34 -0.19, 11.05 -0.61, 22.71 0 C25.95 -2.78, 26.91 4.74, 27.95 5.24 C29.5 10.26, 27.97 11.27, 27.95 15.71 C28.44 18.45, 28.72 20.58, 22.71 20.95 C20.95 21.85, 14.21 19.03, 5.24 20.95 C-0.25 20.54, 0.26 20.61, 0 15.71 C-1.61 11.29, -0.6 9.32, 0 5.24 C-1.17 4.97, 1.22 -0.39, 5.24 0" stroke="none" stroke-width="0" fill="#ffd8a8"></path><path d="M5.24 0 C13.01 -1.87, 17.4 -0.19, 22.71 0 M5.24 0 C11.9 0.07, 18.13 0.22, 22.71 0 M22.71 0 C24.39 -1.48, 29.93 1.18, 27.95 5.24 M22.71 0 C25.79 2.07, 29.55 0.55, 27.95 5.24 M27.95 5.24 C28.04 8.01, 28.18 10.83, 27.95 15.71 M27.95 5.24 C28.54 8.19, 28.27 12.02, 27.95 15.71 M27.95 15.71 C27.4 17.28, 27.37 22.55, 22.71 20.95 M27.95 15.71 C28.33 19, 26.14 22.33, 22.71 20.95 M22.71 20.95 C17.38 19.3, 13.47 21.71, 5.24 20.95 M22.71 20.95 C15 21.1, 9.49 20.56, 5.24 20.95 M5.24 20.95 C1.53 20.79, 1.68 17.74, 0 15.71 M5.24 20.95 C0.7 19.38, -0.69 20.51, 0 15.71 M0 15.71 C-0.25 12.98, 0.12 10.38, 0 5.24 M0 15.71 C-0.06 12.45, 0.12 8.95, 0 5.24 M0 5.24 C1.96 1, 1.6 -1.23, 5.24 0 M0 5.24 C-1.08 3.64, 2.74 1.02, 5.24 0" stroke="#1e1e1e" stroke-width="2" fill="none"></path></g><g stroke-linecap="round" transform="translate(36.888671875 44.603038543607) rotate(0 25.4296875 23.859375)"><path d="M20.27 0.35 C25.29 -0.84, 31.89 1.09, 36.61 3.47 C41.32 5.86, 46.36 10.04, 48.56 14.67 C50.77 19.29, 51.3 26.45, 49.83 31.22 C48.35 35.98, 44.21 40.57, 39.73 43.25 C35.24 45.93, 28.28 47.81, 22.91 47.31 C17.54 46.81, 11.17 43.78, 7.5 40.25 C3.83 36.72, 1.34 31.24, 0.88 26.1 C0.42 20.96, 1.39 13.82, 4.74 9.44 C8.09 5.05, 17.7 1.21, 20.97 -0.19 C24.23 -1.6, 24.11 0.61, 24.35 0.98 M13.31 1.67 C17.61 -0.68, 25.16 -0.77, 30.32 0.39 C35.47 1.55, 40.59 4.43, 44.22 8.63 C47.85 12.83, 51.91 20.64, 52.1 25.59 C52.28 30.54, 48.95 34.53, 45.31 38.33 C41.67 42.13, 35.8 47.64, 30.25 48.39 C24.7 49.14, 16.8 45.71, 12 42.82 C7.21 39.93, 3.02 35.7, 1.49 31.05 C-0.03 26.39, 1 19.58, 2.85 14.89 C4.69 10.21, 10.58 4.68, 12.55 2.94 C14.52 1.21, 14.27 4.14, 14.66 4.49" stroke="none" stroke-width="0" fill="#ffd8a8"></path><path d="M24.79 -0.23 C29.81 -0.6, 37.27 1.33, 41.57 4.46 C45.87 7.59, 49.73 13.2, 50.61 18.55 C51.49 23.9, 49.6 31.97, 46.85 36.55 C44.1 41.13, 38.93 44.26, 34.11 46.01 C29.28 47.76, 23.08 48.77, 17.9 47.07 C12.72 45.37, 5.8 40.27, 3.03 35.82 C0.26 31.37, 0.3 25.4, 1.27 20.36 C2.24 15.33, 4.68 9.04, 8.86 5.61 C13.03 2.17, 23.27 0.47, 26.34 -0.24 C29.4 -0.95, 27.45 0.74, 27.25 1.34 M19.96 -0.96 C25 -2.25, 33.55 1.44, 38.45 4.1 C43.35 6.76, 47.5 10.28, 49.34 14.99 C51.18 19.7, 51.29 27.46, 49.5 32.34 C47.71 37.22, 43.39 41.8, 38.59 44.28 C33.79 46.77, 26.3 47.89, 20.71 47.26 C15.12 46.63, 8.38 44.05, 5.06 40.5 C1.73 36.94, 0.84 30.98, 0.76 25.93 C0.68 20.88, 1.53 14.43, 4.58 10.19 C7.62 5.96, 16.2 2.2, 19.03 0.51 C21.87 -1.18, 21.31 -0.32, 21.59 0.05" stroke="#1e1e1e" stroke-width="2" fill="none"></path></g></svg>