<svg version="1.1" xmlns="http://www.w3.org/2000/svg" viewBox="0 0 105.26171875 140.84223780150023" width="105.26171875" height="140.84223780150023">
  <!-- svg-source:excalidraw -->
  
  <defs>
    <style class="style-fonts">
      @font-face {
        font-family: "Virgil";
        src: url("https://excalidraw.com/Virgil.woff2");
      }
      @font-face {
        font-family: "Cascadia";
        src: url("https://excalidraw.com/Cascadia.woff2");
      }
      @font-face {
        font-family: "Assistant";
        src: url("https://excalidraw.com/Assistant-Regular.woff2");
      }
    </style>
    
  </defs>
  <g stroke-linecap="round" transform="translate(32.64044744318198 109.06643921733576) rotate(337.5387531331347 19.283203125 7.48828125)"><path d="M3.74 0 C14.64 -1.76, 24.73 -0.78, 34.82 0 C39.04 0.29, 40.76 3.8, 38.57 3.74 C38.1 6.52, 38.98 8.11, 38.57 11.23 C36.94 11.16, 37.87 12.46, 34.82 14.98 C25.44 12.9, 15.67 17.07, 3.74 14.98 C3.04 16.51, -2.42 15.71, 0 11.23 C0.14 8.32, 0.68 5.72, 0 3.74 C-1.41 1.4, 3.08 2.1, 3.74 0" stroke="none" stroke-width="0" fill="#868e96"></path><path d="M3.74 0 C9.74 -0.32, 16.57 -0.67, 34.82 0 M3.74 0 C10.06 0.56, 16.2 0, 34.82 0 M34.82 0 C37.88 -0.43, 38.04 0.38, 38.57 3.74 M34.82 0 C38.37 1.06, 39.54 1.86, 38.57 3.74 M38.57 3.74 C38.88 4.93, 38.4 6.67, 38.57 11.23 M38.57 3.74 C38.36 5.86, 38.72 8.2, 38.57 11.23 M38.57 11.23 C38.39 14.63, 38.02 14.46, 34.82 14.98 M38.57 11.23 C38.33 14.8, 37.76 14.97, 34.82 14.98 M34.82 14.98 C25.98 15.74, 16.11 15.91, 3.74 14.98 M34.82 14.98 C26.61 14.63, 18.96 15.52, 3.74 14.98 M3.74 14.98 C1.41 14.89, -0.03 14.33, 0 11.23 M3.74 14.98 C1.16 15.04, -0.73 13.58, 0 11.23 M0 11.23 C0.34 9.41, 0.28 7.73, 0 3.74 M0 11.23 C-0.05 8.95, 0.13 6.57, 0 3.74 M0 3.74 C-0.45 0.57, 0.95 0.57, 3.74 0 M0 3.74 C-0.3 0.84, 2.26 -0.31, 3.74 0" stroke="#1e1e1e" stroke-width="2" fill="none"></path></g><g stroke-linecap="round" transform="translate(32.826319839014104 16.919422171883525) rotate(337.0766447889431 19.283203125 7.48828125)"><path d="M3.74 0 C15.77 -0.37, 26.56 0.54, 34.82 0 C39.52 2.55, 37.6 1.06, 38.57 3.74 C38.94 5.96, 37.91 6.36, 38.57 11.23 C39.11 11.21, 37.22 12.92, 34.82 14.98 C25.29 16.83, 19.04 16.2, 3.74 14.98 C-1.17 16.96, 1.6 13.6, 0 11.23 C0.67 9.56, -0.54 8.14, 0 3.74 C1.83 3.34, 1.82 0.07, 3.74 0" stroke="none" stroke-width="0" fill="#868e96"></path><path d="M3.74 0 C13.84 -0.56, 24.34 0.4, 34.82 0 M3.74 0 C10.87 -0.25, 18.33 -0.35, 34.82 0 M34.82 0 C36.79 -0.87, 39.48 2.17, 38.57 3.74 M34.82 0 C38.29 0.61, 37.43 0.25, 38.57 3.74 M38.57 3.74 C38.47 5.89, 38.61 7.85, 38.57 11.23 M38.57 3.74 C38.72 6.08, 38.5 8.68, 38.57 11.23 M38.57 11.23 C39.26 13.21, 37.11 15.91, 34.82 14.98 M38.57 11.23 C39.01 13.72, 37.15 15.12, 34.82 14.98 M34.82 14.98 C25.3 16.07, 17.35 15.55, 3.74 14.98 M34.82 14.98 C23.05 15.23, 10.77 14.78, 3.74 14.98 M3.74 14.98 C1.22 15.58, -0.08 13.78, 0 11.23 M3.74 14.98 C0.52 14.83, -1.01 14.37, 0 11.23 M0 11.23 C0.26 8.28, -0.03 6.26, 0 3.74 M0 11.23 C0.16 9.3, -0.08 7.51, 0 3.74 M0 3.74 C-0.3 1.82, 0.99 -0.36, 3.74 0 M0 3.74 C1.01 0.94, 1.41 0.09, 3.74 0" stroke="#1e1e1e" stroke-width="2" fill="none"></path></g><g stroke-linecap="round" transform="translate(10 32.545724255215646) rotate(0 42.630859375 38.322265625)"><path d="M19.16 0 C32.75 0.6, 44.6 3.73, 66.1 0 C77.54 -0.26, 83.05 4.7, 85.26 19.16 C83.3 30.26, 86.32 44.99, 85.26 57.48 C85.12 67.42, 78.25 76.39, 66.1 76.64 C58.12 79.47, 41.84 80.09, 19.16 76.64 C8.6 76.47, -3.23 70.75, 0 57.48 C-2.43 47, 2.05 38.99, 0 19.16 C0.79 6.49, 3.94 -2, 19.16 0" stroke="none" stroke-width="0" fill="#a18072"></path><path d="M19.16 0 C30.11 1.01, 43.64 0.6, 66.1 0 M19.16 0 C38.05 -0.32, 55.29 -0.77, 66.1 0 M66.1 0 C80.7 1.84, 86.95 7.45, 85.26 19.16 M66.1 0 C76.61 -2, 85.21 8.52, 85.26 19.16 M85.26 19.16 C85.15 25.45, 85.5 33.73, 85.26 57.48 M85.26 19.16 C85.46 28.71, 86.34 35.95, 85.26 57.48 M85.26 57.48 C84.85 72.12, 79.64 76.63, 66.1 76.64 M85.26 57.48 C84.92 70.55, 78.29 76.68, 66.1 76.64 M66.1 76.64 C47.45 78.01, 32.16 76.55, 19.16 76.64 M66.1 76.64 C56.68 76.93, 46.91 77.62, 19.16 76.64 M19.16 76.64 C6.23 76.75, -1.27 70, 0 57.48 M19.16 76.64 C4.36 77.92, 1.16 72.49, 0 57.48 M0 57.48 C-0.26 49.91, -1.5 39.15, 0 19.16 M0 57.48 C-0.78 45.61, -0.62 35.67, 0 19.16 M0 19.16 C-0.52 5.67, 8.14 -0.54, 19.16 0 M0 19.16 C0.32 6.56, 7.29 1.01, 19.16 0" stroke="#1e1e1e" stroke-width="2" fill="none"></path></g><g stroke-linecap="round" transform="translate(36.68179290259832 21.994833421978) rotate(90.684351531919 13.974609375 10.47265625)"><path d="M5.24 0 C11.29 1.59, 10.09 2.13, 22.71 0 C28.42 -0.18, 24.72 2.23, 27.95 5.24 C27.06 8.27, 29.41 12.6, 27.95 15.71 C28.73 19.3, 23.76 18.95, 22.71 20.95 C19.85 23.98, 10.52 18.68, 5.24 20.95 C0.69 20.12, 2.58 18.03, 0 15.71 C1.89 13.39, 1.12 8.12, 0 5.24 C3.46 0.94, 2.99 0.51, 5.24 0" stroke="none" stroke-width="0" fill="#ffd8a8"></path><path d="M5.24 0 C8.99 -1.62, 13.03 -1.54, 22.71 0 M5.24 0 C9.03 0.84, 13.74 -0.4, 22.71 0 M22.71 0 C25.8 1.87, 28.72 1.73, 27.95 5.24 M22.71 0 C25.86 0.29, 27.37 1.78, 27.95 5.24 M27.95 5.24 C27.43 9.69, 28.77 12.92, 27.95 15.71 M27.95 5.24 C28.1 7.33, 28 9.83, 27.95 15.71 M27.95 15.71 C27.79 19.3, 24.93 20.69, 22.71 20.95 M27.95 15.71 C25.92 20.48, 27.36 23.17, 22.71 20.95 M22.71 20.95 C18.62 22.09, 13.4 20.61, 5.24 20.95 M22.71 20.95 C17.21 20.22, 12.24 21.32, 5.24 20.95 M5.24 20.95 C1.23 20.23, 1.75 18.66, 0 15.71 M5.24 20.95 C2.06 21.12, 0.91 20.21, 0 15.71 M0 15.71 C0.64 13.33, 0.83 11.74, 0 5.24 M0 15.71 C-0.24 13.39, 0.23 10.44, 0 5.24 M0 5.24 C-1.25 -0.23, 2.17 -1.94, 5.24 0 M0 5.24 C-0.09 -0.07, 1.35 -0.16, 5.24 0" stroke="#1e1e1e" stroke-width="2" fill="none"></path></g><g stroke-linecap="round" transform="translate(25.421037946425713 46.95692110629625) rotate(90.684351531919 25.4296875 23.859375)"><path d="M27.63 -0.56 C32.9 -0.63, 39.69 2.78, 43.65 6.45 C47.61 10.12, 50.76 16.17, 51.38 21.46 C52 26.75, 50.58 33.96, 47.37 38.17 C44.15 42.38, 37.56 45.55, 32.08 46.72 C26.6 47.89, 19.27 47.18, 14.49 45.19 C9.71 43.2, 5.62 39.38, 3.41 34.77 C1.19 30.15, 0.18 22.47, 1.2 17.48 C2.21 12.48, 4.7 7.6, 9.48 4.78 C14.26 1.95, 25.87 1, 29.86 0.5 C33.84 0.01, 33.33 1.52, 33.39 1.79 M22.66 -1.15 C27.72 -2.17, 35.47 1.79, 39.95 4.49 C44.42 7.19, 47.95 10.39, 49.5 15.04 C51.06 19.68, 51.09 27.44, 49.25 32.38 C47.42 37.33, 43.49 42.23, 38.52 44.72 C33.55 47.21, 24.78 48.12, 19.44 47.31 C14.11 46.5, 9.7 43.86, 6.52 39.84 C3.33 35.82, 0.52 28.63, 0.34 23.18 C0.16 17.73, 1.89 10.95, 5.44 7.14 C8.98 3.34, 18.77 1.25, 21.61 0.36 C24.44 -0.54, 22.12 1.55, 22.44 1.76" stroke="none" stroke-width="0" fill="#ffd8a8"></path><path d="M14.02 2.22 C18.81 -0.22, 27.26 0.18, 32.51 1.41 C37.75 2.65, 42.3 5.57, 45.5 9.65 C48.7 13.74, 52.03 20.83, 51.73 25.93 C51.43 31.04, 47.62 36.74, 43.69 40.3 C39.77 43.87, 33.6 46.65, 28.19 47.34 C22.77 48.02, 15.9 47.09, 11.2 44.43 C6.5 41.77, 1.55 36.36, -0.01 31.38 C-1.58 26.41, -1.11 19.61, 1.81 14.58 C4.73 9.55, 14.79 3.32, 17.53 1.2 C20.27 -0.93, 18.11 1.36, 18.24 1.81 M24.21 0.1 C29.22 -0.6, 35.84 1.5, 39.96 4.74 C44.08 7.98, 47.47 14.27, 48.94 19.54 C50.4 24.8, 51.19 31.74, 48.74 36.34 C46.28 40.93, 39.58 45.38, 34.2 47.1 C28.82 48.82, 21.29 48.53, 16.44 46.65 C11.59 44.76, 7.83 40.11, 5.1 35.78 C2.37 31.44, -0.68 25.72, 0.06 20.62 C0.8 15.52, 5.58 8.77, 9.51 5.17 C13.44 1.57, 21.25 -0.36, 23.65 -1 C26.04 -1.63, 23.83 0.88, 23.9 1.36" stroke="#1e1e1e" stroke-width="2" fill="none"></path></g></svg>