<svg version="1.1" xmlns="http://www.w3.org/2000/svg" viewBox="0 0 105.26171875000045 140.84223780150023" width="105.26171875000045" height="140.84223780150023">
  <!-- svg-source:excalidraw -->
  
  <defs>
    <style class="style-fonts">
      @font-face {
        font-family: "Virgil";
        src: url("https://excalidraw.com/Virgil.woff2");
      }
      @font-face {
        font-family: "Cascadia";
        src: url("https://excalidraw.com/Cascadia.woff2");
      }
      @font-face {
        font-family: "Assistant";
        src: url("https://excalidraw.com/Assistant-Regular.woff2");
      }
    </style>
    
  </defs>
  <g stroke-linecap="round" transform="translate(32.64044744318153 109.06643921733576) rotate(337.5387531331347 19.283203125 7.48828125)"><path d="M3.74 0 C9 2.75, 17.2 2.05, 34.82 0 C37.75 -1.37, 40.71 1.64, 38.57 3.74 C38.32 5.66, 38.59 9.69, 38.57 11.23 C38.2 12.64, 39.31 13.77, 34.82 14.98 C25.39 13.45, 19.11 14.22, 3.74 14.98 C2.9 16.11, 1.82 15.62, 0 11.23 C0.28 8.26, -0.19 6.11, 0 3.74 C1.38 2.31, 2.44 0.22, 3.74 0" stroke="none" stroke-width="0" fill="#868e96"></path><path d="M3.74 0 C16.89 0.37, 28.91 0.08, 34.82 0 M3.74 0 C15.49 -0.54, 27.56 0.25, 34.82 0 M34.82 0 C38.2 0.52, 37.95 1.32, 38.57 3.74 M34.82 0 C36.48 0.06, 39.39 0.23, 38.57 3.74 M38.57 3.74 C38.68 5.38, 38.37 7.05, 38.57 11.23 M38.57 3.74 C38.52 5.67, 38.65 7.77, 38.57 11.23 M38.57 11.23 C39.22 14.33, 36.32 14.98, 34.82 14.98 M38.57 11.23 C38.71 12.81, 36.62 15.65, 34.82 14.98 M34.82 14.98 C29.14 14.43, 22.75 14.3, 3.74 14.98 M34.82 14.98 C22.91 14.85, 10.24 15.04, 3.74 14.98 M3.74 14.98 C0.97 14.59, -0.68 13.38, 0 11.23 M3.74 14.98 C0.42 14.56, -0.06 14.22, 0 11.23 M0 11.23 C-0.08 8.64, 0.1 5.48, 0 3.74 M0 11.23 C0.12 9.53, 0 7.8, 0 3.74 M0 3.74 C0.15 1.47, 0.76 0.89, 3.74 0 M0 3.74 C-0.46 0.51, 1.88 0.77, 3.74 0" stroke="#1e1e1e" stroke-width="2" fill="none"></path></g><g stroke-linecap="round" transform="translate(32.82631983901365 16.919422171883525) rotate(337.0766447889431 19.283203125 7.48828125)"><path d="M3.74 0 C11.58 1.35, 17.8 -1.74, 34.82 0 C39.46 0.39, 39.67 -0.87, 38.57 3.74 C38.65 6.55, 38.41 7.32, 38.57 11.23 C40.56 12.52, 35.72 16.59, 34.82 14.98 C27.18 14.37, 22.93 15.92, 3.74 14.98 C3.07 16.86, 1.95 14.16, 0 11.23 C-0.21 9.88, 0.49 7.92, 0 3.74 C1.19 1.47, 0.81 0.67, 3.74 0" stroke="none" stroke-width="0" fill="#868e96"></path><path d="M3.74 0 C16.41 0.15, 29.14 -0.17, 34.82 0 M3.74 0 C14.42 0.46, 25.46 0.41, 34.82 0 M34.82 0 C36.7 0.07, 37.84 1.3, 38.57 3.74 M34.82 0 C38.14 -1.01, 37.84 0.42, 38.57 3.74 M38.57 3.74 C38.42 6.07, 38.48 8.7, 38.57 11.23 M38.57 3.74 C38.66 5.21, 38.68 6.92, 38.57 11.23 M38.57 11.23 C37.57 13.73, 37.44 14.18, 34.82 14.98 M38.57 11.23 C37.87 14.4, 36.19 15.07, 34.82 14.98 M34.82 14.98 C28.8 14.38, 22.83 15.52, 3.74 14.98 M34.82 14.98 C23.12 14.83, 11.01 14.71, 3.74 14.98 M3.74 14.98 C0.57 14.63, -0.72 13.36, 0 11.23 M3.74 14.98 C1.19 15.47, 1.01 13.23, 0 11.23 M0 11.23 C0.09 8.42, -0.22 5.27, 0 3.74 M0 11.23 C-0.04 9.01, 0.01 6.57, 0 3.74 M0 3.74 C-0.48 2.14, 0.85 -0.64, 3.74 0 M0 3.74 C0.63 2.02, 0.1 0.81, 3.74 0" stroke="#1e1e1e" stroke-width="2" fill="none"></path></g><g stroke-linecap="round" transform="translate(10 32.545724255215646) rotate(0 42.63085937500023 38.322265625)"><path d="M19.16 0 C38.21 -2.45, 59.05 -0.02, 66.1 0 C80.41 -2.94, 84.04 5.77, 85.26 19.16 C84.82 26.61, 88.09 35.39, 85.26 57.48 C83.05 72.49, 75.92 73.86, 66.1 76.64 C56.46 78.08, 44.77 79.12, 19.16 76.64 C9.09 77.25, -1.88 71.36, 0 57.48 C2.04 48.09, 1.77 36.07, 0 19.16 C-0.6 7.32, 6.87 -2.72, 19.16 0" stroke="none" stroke-width="0" fill="#a18072"></path><path d="M19.16 0 C37.33 -0.28, 53.05 -0.71, 66.1 0 M19.16 0 C29.69 0.22, 37.83 -0.22, 66.1 0 M66.1 0 C77.42 0.11, 86.69 4.62, 85.26 19.16 M66.1 0 C77.42 -1.66, 86.24 7.26, 85.26 19.16 M85.26 19.16 C84.56 28.36, 83.18 39.04, 85.26 57.48 M85.26 19.16 C86.11 28.72, 84.46 37.08, 85.26 57.48 M85.26 57.48 C85.51 68.65, 77.66 77.82, 66.1 76.64 M85.26 57.48 C83 70.45, 76.77 78, 66.1 76.64 M66.1 76.64 C55.88 77.6, 43.36 78.19, 19.16 76.64 M66.1 76.64 C54.15 76.2, 42.08 76.24, 19.16 76.64 M19.16 76.64 C4.94 75.91, -0.1 71.11, 0 57.48 M19.16 76.64 C8.41 75.65, 1.92 69.64, 0 57.48 M0 57.48 C-1.33 41.63, 0.19 29.25, 0 19.16 M0 57.48 C0.2 44.57, -0.44 32.1, 0 19.16 M0 19.16 C-0.79 5.1, 7.48 1.34, 19.16 0 M0 19.16 C-2.3 8, 4.53 -0.85, 19.16 0" stroke="#1e1e1e" stroke-width="2" fill="none"></path></g><g stroke-linecap="round" transform="translate(38.66281968831163 96.89204723666717) rotate(269.315648468081 13.974609375 10.47265625)"><path d="M5.24 0 C9.35 2.46, 14.63 -1.89, 22.71 0 C28.43 -2.96, 25.16 0.09, 27.95 5.24 C28.74 9.34, 29.29 12.23, 27.95 15.71 C28.55 17.32, 27.31 20.35, 22.71 20.95 C19.07 22.55, 13.13 20.59, 5.24 20.95 C2.67 21.43, -2.72 19.66, 0 15.71 C-0.5 11.79, -0.68 11.21, 0 5.24 C2.87 -0.58, 0.55 -2.96, 5.24 0" stroke="none" stroke-width="0" fill="#ffd8a8"></path><path d="M5.24 0 C9.49 1.37, 12.01 -0.98, 22.71 0 M5.24 0 C8.9 -0.45, 12.63 -0.3, 22.71 0 M22.71 0 C25.29 -1.91, 27.6 0.42, 27.95 5.24 M22.71 0 C27.4 -0.84, 29.45 3.12, 27.95 5.24 M27.95 5.24 C27.11 6.69, 28.56 8.4, 27.95 15.71 M27.95 5.24 C27.64 8.71, 27.58 12.2, 27.95 15.71 M27.95 15.71 C29.16 20.82, 28 19.92, 22.71 20.95 M27.95 15.71 C28.58 18.9, 25.57 20.06, 22.71 20.95 M22.71 20.95 C18.01 20.73, 15.34 22.35, 5.24 20.95 M22.71 20.95 C18.95 21.09, 13.87 20.35, 5.24 20.95 M5.24 20.95 C0.55 21.22, 1.08 20.05, 0 15.71 M5.24 20.95 C1.47 22.47, 0.35 19.71, 0 15.71 M0 15.71 C-0.77 13.64, 0.61 9.39, 0 5.24 M0 15.71 C0.57 12.04, 0.43 8.04, 0 5.24 M0 5.24 C-1.05 3.4, 2.04 0.85, 5.24 0 M0 5.24 C-1.88 0.97, 1.35 -1.53, 5.24 0" stroke="#1e1e1e" stroke-width="2" fill="none"></path></g><g stroke-linecap="round" transform="translate(27.402064732140843 45.15652205234892) rotate(269.315648468081 25.4296875 23.859375)"><path d="M24.14 -0.44 C29.33 -1.12, 37.25 1.09, 41.48 4.31 C45.71 7.53, 48.3 14, 49.52 18.88 C50.75 23.75, 51.05 29.2, 48.84 33.54 C46.62 37.89, 41.4 42.6, 36.23 44.95 C31.06 47.3, 23.07 48.87, 17.79 47.66 C12.52 46.44, 7.5 42.17, 4.59 37.65 C1.68 33.14, -0.37 25.75, 0.33 20.59 C1.03 15.43, 3.83 10.18, 8.78 6.67 C13.73 3.16, 25.75 0.28, 30.04 -0.49 C34.34 -1.26, 34.82 1.52, 34.57 2.06 M36.87 1.34 C41.62 3.29, 45.34 9.77, 47.34 14.28 C49.34 18.79, 50.15 23.69, 48.89 28.42 C47.62 33.14, 43.97 39.26, 39.74 42.62 C35.5 45.99, 28.69 48.7, 23.47 48.62 C18.26 48.53, 12.17 45.62, 8.46 42.11 C4.75 38.6, 1.88 32.92, 1.24 27.54 C0.59 22.15, 1.63 14.25, 4.57 9.78 C7.5 5.31, 13.68 1.85, 18.82 0.69 C23.97 -0.47, 32.53 2.41, 35.45 2.81 C38.36 3.21, 36.32 2.83, 36.31 3.09" stroke="none" stroke-width="0" fill="#ffd8a8"></path><path d="M17.89 0.82 C22.76 -1.16, 29.51 -0.82, 34.46 1.07 C39.41 2.96, 45.11 7.56, 47.59 12.15 C50.07 16.74, 50.55 23.43, 49.36 28.59 C48.17 33.76, 44.66 39.85, 40.47 43.15 C36.28 46.44, 29.47 48.78, 24.24 48.36 C19 47.94, 13.05 44.13, 9.06 40.63 C5.06 37.13, 1.26 32.36, 0.26 27.36 C-0.75 22.36, -0.15 15.24, 3.03 10.66 C6.21 6.07, 16.49 1.61, 19.36 -0.15 C22.22 -1.91, 20.12 -0.39, 20.24 0.09 M32.14 1.84 C37.61 2.28, 43.95 4.94, 47.14 8.79 C50.32 12.65, 51.83 19.85, 51.23 24.99 C50.64 30.13, 47.52 35.94, 43.56 39.61 C39.59 43.29, 32.95 46.42, 27.43 47.03 C21.91 47.64, 14.83 45.88, 10.43 43.28 C6.02 40.67, 2.18 36.31, 1.01 31.4 C-0.17 26.49, 1 18.69, 3.37 13.82 C5.74 8.94, 10.36 4.31, 15.21 2.17 C20.06 0.02, 29.78 1.28, 32.47 0.95 C35.16 0.62, 31.79 -0.21, 31.33 0.16" stroke="#1e1e1e" stroke-width="2" fill="none"></path></g></svg>