<svg version="1.1" xmlns="http://www.w3.org/2000/svg" viewBox="0 0 116.9010881696413 140.84223780150023" width="116.9010881696413" height="140.84223780150023">
  <!-- svg-source:excalidraw -->
  
  <defs>
    <style class="style-fonts">
      @font-face {
        font-family: "Virgil";
        src: url("https://excalidraw.com/Virgil.woff2");
      }
      @font-face {
        font-family: "Cascadia";
        src: url("https://excalidraw.com/Cascadia.woff2");
      }
      @font-face {
        font-family: "Assistant";
        src: url("https://excalidraw.com/Assistant-Regular.woff2");
      }
    </style>
    
  </defs>
  <g stroke-linecap="round" transform="translate(32.64044744318198 109.06643921733576) rotate(337.5387531331347 19.283203125 7.48828125)"><path d="M3.74 0 C10.85 -1.52, 19.97 -1.12, 34.82 0 C38.8 -0.68, 37.64 3.53, 38.57 3.74 C38.96 6.22, 37.98 8.38, 38.57 11.23 C37.95 15.45, 37.61 17.17, 34.82 14.98 C20.85 13.73, 12.22 16.07, 3.74 14.98 C2.4 13.35, -2.57 14.28, 0 11.23 C-0.17 9.64, -0.75 7.91, 0 3.74 C2.16 3.04, 2.78 -2.42, 3.74 0" stroke="none" stroke-width="0" fill="#868e96"></path><path d="M3.74 0 C15.65 0.09, 27.88 -0.91, 34.82 0 M3.74 0 C11.87 -0.55, 20.56 -0.58, 34.82 0 M34.82 0 C37.79 -0.77, 38.32 0.55, 38.57 3.74 M34.82 0 C36.64 -1.14, 38.99 0.44, 38.57 3.74 M38.57 3.74 C38.52 6.32, 38.44 8.28, 38.57 11.23 M38.57 3.74 C38.76 5.44, 38.42 6.77, 38.57 11.23 M38.57 11.23 C38.54 14.66, 36.46 14.63, 34.82 14.98 M38.57 11.23 C38.3 13.74, 36.22 15.19, 34.82 14.98 M34.82 14.98 C28.03 14.95, 22.7 15.83, 3.74 14.98 M34.82 14.98 C27.3 15.12, 19.33 15.18, 3.74 14.98 M3.74 14.98 C0.99 14.99, 0.8 12.74, 0 11.23 M3.74 14.98 C2.37 14.52, 0.52 14.74, 0 11.23 M0 11.23 C0.34 9.25, 0 7.14, 0 3.74 M0 11.23 C-0.12 8.51, -0.16 5.94, 0 3.74 M0 3.74 C0.5 2.22, 0.61 0.8, 3.74 0 M0 3.74 C-1.02 1.27, 2.11 -0.69, 3.74 0" stroke="#1e1e1e" stroke-width="2" fill="none"></path></g><g stroke-linecap="round" transform="translate(32.82631983901592 16.919422171883525) rotate(337.0766447889431 19.283203125 7.48828125)"><path d="M3.74 0 C13.91 -0.59, 29.09 -0.49, 34.82 0 C36.39 2.28, 37.86 1.61, 38.57 3.74 C38.01 6.6, 38.37 8.99, 38.57 11.23 C38.85 15.93, 39.87 14.01, 34.82 14.98 C27.87 15.91, 17.78 13.16, 3.74 14.98 C-1.32 15.52, -2.52 13.63, 0 11.23 C-0.74 9.3, 0.83 8.59, 0 3.74 C1.53 -1.17, 3.23 1.6, 3.74 0" stroke="none" stroke-width="0" fill="#868e96"></path><path d="M3.74 0 C15.54 -0.84, 25.97 0.62, 34.82 0 M3.74 0 C15.54 -0.31, 28.4 -0.26, 34.82 0 M34.82 0 C37.07 -0.7, 37.97 0.26, 38.57 3.74 M34.82 0 C37.74 -0.8, 38.75 2.29, 38.57 3.74 M38.57 3.74 C38.4 5.76, 38.23 8.51, 38.57 11.23 M38.57 3.74 C38.41 6.52, 38.59 9.79, 38.57 11.23 M38.57 11.23 C37.7 13.38, 37.09 14.99, 34.82 14.98 M38.57 11.23 C37.47 13.94, 36.28 14.12, 34.82 14.98 M34.82 14.98 C23.32 15.65, 9.49 14.75, 3.74 14.98 M34.82 14.98 C22.52 15.04, 10.25 14.98, 3.74 14.98 M3.74 14.98 C2.05 13.99, 0.97 13.33, 0 11.23 M3.74 14.98 C1.77 15.99, -0.31 12.63, 0 11.23 M0 11.23 C-0.06 8.54, 0.2 5.83, 0 3.74 M0 11.23 C-0.14 9.05, 0.12 6.84, 0 3.74 M0 3.74 C-0.64 2.04, 0.36 0.02, 3.74 0 M0 3.74 C0.86 0.56, 1.13 -0.09, 3.74 0" stroke="#1e1e1e" stroke-width="2" fill="none"></path></g><g stroke-linecap="round" transform="translate(10 32.545724255215646) rotate(0 42.630859375 38.322265625)"><path d="M19.16 0 C33.17 -0.68, 41.77 3.41, 66.1 0 C77.9 0.5, 85.53 7.8, 85.26 19.16 C83.98 34.73, 85.24 48.56, 85.26 57.48 C88.8 68.92, 78.61 74.44, 66.1 76.64 C55.82 74.76, 38.79 77.77, 19.16 76.64 C2.9 76.5, -2.84 69.63, 0 57.48 C3.53 48.73, 2.66 31.67, 0 19.16 C2.74 8.6, 6.21 -3.23, 19.16 0" stroke="none" stroke-width="0" fill="#a18072"></path><path d="M19.16 0 C33.68 1.68, 50.96 -1.58, 66.1 0 M19.16 0 C29.92 -0.36, 39.48 -0.29, 66.1 0 M66.1 0 C77.69 -1.99, 85.99 4.99, 85.26 19.16 M66.1 0 C79.25 2.08, 85.16 5.87, 85.26 19.16 M85.26 19.16 C83.35 34.63, 86.94 48.14, 85.26 57.48 M85.26 19.16 C84.86 33.63, 84.02 45.89, 85.26 57.48 M85.26 57.48 C84.8 70.28, 76.97 77.02, 66.1 76.64 M85.26 57.48 C83.18 68.55, 81.15 75.99, 66.1 76.64 M66.1 76.64 C51.82 76.56, 41.48 77.74, 19.16 76.64 M66.1 76.64 C51.81 76.72, 38.83 75.72, 19.16 76.64 M19.16 76.64 C8.33 75.84, 0.91 72.02, 0 57.48 M19.16 76.64 C5.76 74.44, 1.35 72.1, 0 57.48 M0 57.48 C1.24 45.2, 0.14 31.96, 0 19.16 M0 57.48 C0.84 47.45, -0.3 36.28, 0 19.16 M0 19.16 C-1.78 6.43, 7.88 -1.2, 19.16 0 M0 19.16 C-0.24 6.2, 8.32 -1.67, 19.16 0" stroke="#1e1e1e" stroke-width="2" fill="none"></path></g><g stroke-linecap="round" transform="translate(78.9518694196413 59.7693331864657) rotate(0 13.974609375 10.47265625)"><path d="M5.24 0 C9.74 2.15, 15.23 -1.75, 22.71 0 C26.42 2.53, 30.85 2.53, 27.95 5.24 C27.61 8.54, 28.56 12.89, 27.95 15.71 C31.28 16.8, 23.47 19.89, 22.71 20.95 C20.68 20.38, 12.69 23.96, 5.24 20.95 C5.12 23.03, 1.08 22.66, 0 15.71 C1.54 12.1, -0.95 8.74, 0 5.24 C1.47 1.62, -0.05 2.76, 5.24 0" stroke="none" stroke-width="0" fill="#ffd8a8"></path><path d="M5.24 0 C13.78 1.25, 18.28 -0.32, 22.71 0 M5.24 0 C11.98 0.11, 18.76 0.02, 22.71 0 M22.71 0 C27.81 -1.98, 29.89 0.94, 27.95 5.24 M22.71 0 C27.24 2.03, 27.32 -0.46, 27.95 5.24 M27.95 5.24 C27.94 8.96, 28.66 12.66, 27.95 15.71 M27.95 5.24 C27.42 8.72, 28.15 12.13, 27.95 15.71 M27.95 15.71 C26.68 20.79, 24.43 20.99, 22.71 20.95 M27.95 15.71 C29.66 17.82, 25.96 20.76, 22.71 20.95 M22.71 20.95 C14.82 20.34, 10.3 20.41, 5.24 20.95 M22.71 20.95 C18.22 20.96, 13.82 21.28, 5.24 20.95 M5.24 20.95 C0.52 22.08, -0.47 20.53, 0 15.71 M5.24 20.95 C2 22.89, 2.26 18.34, 0 15.71 M0 15.71 C0.93 13.1, 0.53 8.92, 0 5.24 M0 15.71 C-0.04 13.19, -0.11 11.46, 0 5.24 M0 5.24 C-1.55 1.17, 3.41 1.37, 5.24 0 M0 5.24 C1.36 -0.4, 3.5 1.41, 5.24 0" stroke="#1e1e1e" stroke-width="2" fill="none"></path></g><g stroke-linecap="round" transform="translate(29.153041294641298 45.7302706864657) rotate(0 25.4296875 23.859375)"><path d="M26.47 -0.04 C31.41 -0.31, 38.04 2.41, 42.22 5.99 C46.39 9.57, 50.68 16.41, 51.5 21.46 C52.33 26.51, 50.44 32.05, 47.16 36.29 C43.87 40.53, 37.25 45.33, 31.8 46.91 C26.35 48.49, 19.43 47.83, 14.45 45.75 C9.48 43.68, 4.26 39.14, 1.95 34.45 C-0.36 29.77, -0.73 22.46, 0.6 17.65 C1.92 12.84, 4.62 8.32, 9.9 5.59 C15.18 2.87, 28.08 1.66, 32.26 1.3 C36.43 0.93, 35.06 3.11, 34.94 3.39 M15.44 2.21 C19.79 -0.1, 25.61 -0.66, 30.89 0.83 C36.17 2.31, 43.76 6.99, 47.13 11.14 C50.5 15.28, 51.87 20.92, 51.12 25.68 C50.36 30.44, 46.5 36.01, 42.62 39.68 C38.73 43.35, 32.95 46.89, 27.8 47.71 C22.64 48.53, 15.94 47.68, 11.7 44.62 C7.45 41.55, 4.1 34.49, 2.34 29.33 C0.58 24.16, -0.84 17.93, 1.11 13.61 C3.06 9.3, 11.88 5.02, 14.05 3.44 C16.22 1.86, 13.92 3.98, 14.13 4.14" stroke="none" stroke-width="0" fill="#ffd8a8"></path><path d="M22.83 -0.03 C27.82 -0.93, 35.32 0.83, 39.84 3.86 C44.35 6.89, 48.61 13.03, 49.91 18.15 C51.21 23.27, 49.94 29.99, 47.64 34.6 C45.34 39.2, 40.7 43.77, 36.11 45.79 C31.52 47.81, 25.47 47.95, 20.09 46.72 C14.71 45.49, 7.06 42.49, 3.86 38.41 C0.65 34.34, 0.33 27.49, 0.87 22.29 C1.41 17.09, 2.9 10.94, 7.1 7.21 C11.3 3.48, 22.56 1.13, 26.06 -0.08 C29.55 -1.29, 28.19 -0.3, 28.07 -0.03 M31.46 2.11 C36.18 2.91, 41.77 6.64, 45.16 10.53 C48.56 14.42, 52.21 20.37, 51.84 25.43 C51.47 30.49, 46.85 37.36, 42.96 40.89 C39.06 44.41, 34.01 46.35, 28.49 46.57 C22.97 46.78, 14.52 44.83, 9.82 42.16 C5.13 39.48, 1.59 35.39, 0.31 30.51 C-0.96 25.63, -0.51 17.69, 2.17 12.89 C4.85 8.08, 11.3 3.64, 16.38 1.67 C21.45 -0.31, 29.87 0.97, 32.62 1.03 C35.37 1.09, 33.17 1.53, 32.86 2.03" stroke="#1e1e1e" stroke-width="2" fill="none"></path></g></svg>