<svg version="1.1" xmlns="http://www.w3.org/2000/svg" viewBox="0 0 108.91314535019046 140.84223780150387" width="108.91314535019046" height="140.84223780150387">
  <!-- svg-source:excalidraw -->
  
  <defs>
    <style class="style-fonts">
      @font-face {
        font-family: "Virgil";
        src: url("https://excalidraw.com/Virgil.woff2");
      }
      @font-face {
        font-family: "Cascadia";
        src: url("https://excalidraw.com/Cascadia.woff2");
      }
      @font-face {
        font-family: "Assistant";
        src: url("https://excalidraw.com/Assistant-Regular.woff2");
      }
    </style>
    
  </defs>
  <g stroke-linecap="round" transform="translate(32.64044744318198 109.0664392173394) rotate(337.5387531331347 19.283203125 7.48828125)"><path d="M3.74 0 C11.21 2.38, 19.83 0.46, 34.82 0 C37.51 1.02, 39.71 -0.35, 38.57 3.74 C38.65 7.24, 39.5 8.73, 38.57 11.23 C38.38 12.13, 36.1 17.12, 34.82 14.98 C21.58 15.27, 10.96 14.62, 3.74 14.98 C-0.8 14.53, -0.18 11.72, 0 11.23 C0.49 8.3, 0.66 7.77, 0 3.74 C-0.13 -1.09, 1.6 -0.54, 3.74 0" stroke="none" stroke-width="0" fill="#868e96"></path><path d="M3.74 0 C11.48 -1.08, 16.54 -0.92, 34.82 0 M3.74 0 C10.26 -0.23, 16.72 -0.38, 34.82 0 M34.82 0 C37.68 -0.7, 38.73 2.15, 38.57 3.74 M34.82 0 C37.27 -0.26, 39.21 0.75, 38.57 3.74 M38.57 3.74 C38.88 5.91, 38.73 7.08, 38.57 11.23 M38.57 3.74 C38.4 5.27, 38.52 6.94, 38.57 11.23 M38.57 11.23 C37.61 13.91, 36.41 14.24, 34.82 14.98 M38.57 11.23 C39.71 13.4, 37.11 16.01, 34.82 14.98 M34.82 14.98 C24.26 15.33, 11.83 14.8, 3.74 14.98 M34.82 14.98 C25.51 14.48, 15.87 14.78, 3.74 14.98 M3.74 14.98 C1.7 15.86, -0.27 12.77, 0 11.23 M3.74 14.98 C1.92 15.9, 0.19 13.63, 0 11.23 M0 11.23 C0 8.77, -0.07 6.45, 0 3.74 M0 11.23 C-0.14 8.72, -0.19 5.91, 0 3.74 M0 3.74 C0.75 0.65, 1.14 -0.08, 3.74 0 M0 3.74 C0.96 0.41, 0.73 -0.78, 3.74 0" stroke="#1e1e1e" stroke-width="2" fill="none"></path></g><g stroke-linecap="round" transform="translate(32.826319839014104 16.919422171883525) rotate(337.0766447889431 19.283203125 7.48828125)"><path d="M3.74 0 C11.55 0.01, 20.97 0.67, 34.82 0 C38.46 -1.6, 40.05 0.63, 38.57 3.74 C39.53 6.13, 38.51 8.63, 38.57 11.23 C37.34 15.87, 38.44 16.13, 34.82 14.98 C24.93 14.96, 18.02 14.61, 3.74 14.98 C1.07 12.97, -0.75 15.89, 0 11.23 C0.68 9.07, -0.11 4.84, 0 3.74 C0.35 0.7, 3.06 -0.27, 3.74 0" stroke="none" stroke-width="0" fill="#868e96"></path><path d="M3.74 0 C14.28 -0.67, 25.57 0.63, 34.82 0 M3.74 0 C10.38 -0.39, 17.79 -0.24, 34.82 0 M34.82 0 C37.48 0.9, 38.52 1.02, 38.57 3.74 M34.82 0 C37.96 -0.49, 37.96 0.25, 38.57 3.74 M38.57 3.74 C38.8 6.31, 38.28 9.6, 38.57 11.23 M38.57 3.74 C38.49 6.69, 38.36 9.66, 38.57 11.23 M38.57 11.23 C37.66 12.99, 38.31 14.69, 34.82 14.98 M38.57 11.23 C38.36 14.76, 38.12 14.38, 34.82 14.98 M34.82 14.98 C26.12 14.89, 17.57 14.78, 3.74 14.98 M34.82 14.98 C25.93 14.62, 16.29 15.26, 3.74 14.98 M3.74 14.98 C0.97 14.02, 0.59 14.53, 0 11.23 M3.74 14.98 C1.44 14.88, -0.03 14.42, 0 11.23 M0 11.23 C-0.05 8.72, 0.21 7.05, 0 3.74 M0 11.23 C-0.14 8.26, 0.16 5.18, 0 3.74 M0 3.74 C-0.11 1.17, 2.09 -0.73, 3.74 0 M0 3.74 C-0.52 0.47, 0.9 0.66, 3.74 0" stroke="#1e1e1e" stroke-width="2" fill="none"></path></g><g stroke-linecap="round" transform="translate(10 32.545724255215646) rotate(0 42.630859375 38.322265625)"><path d="M19.16 0 C37.63 1.3, 57.14 -2.33, 66.1 0 C80.92 -0.85, 87.65 6.79, 85.26 19.16 C85.68 31.69, 84.25 51.6, 85.26 57.48 C86.82 71.85, 76.62 73.09, 66.1 76.64 C48.19 75.99, 35.71 73.83, 19.16 76.64 C5.35 79.64, 2.47 72.38, 0 57.48 C-0.7 46.32, -0.04 40.88, 0 19.16 C2.51 6.02, 4.44 0.21, 19.16 0" stroke="none" stroke-width="0" fill="#a18072"></path><path d="M19.16 0 C26.91 1.33, 36.57 -0.1, 66.1 0 M19.16 0 C30.33 -0.23, 40.93 1.37, 66.1 0 M66.1 0 C78.79 -0.45, 86.38 5.53, 85.26 19.16 M66.1 0 C77.67 -2.01, 87.36 8.5, 85.26 19.16 M85.26 19.16 C83.73 33.85, 87.32 46.9, 85.26 57.48 M85.26 19.16 C84.22 29.5, 84.27 38.73, 85.26 57.48 M85.26 57.48 C87.24 69.69, 78.52 78.44, 66.1 76.64 M85.26 57.48 C86.87 69.06, 78.41 78.79, 66.1 76.64 M66.1 76.64 C50.47 76.07, 34.37 78.18, 19.16 76.64 M66.1 76.64 C57.11 77.34, 46.95 75.5, 19.16 76.64 M19.16 76.64 C7.56 78.25, 0.33 70.08, 0 57.48 M19.16 76.64 C6.32 78.03, -0.18 70.38, 0 57.48 M0 57.48 C1.16 49.43, 1.99 38.09, 0 19.16 M0 57.48 C1.09 42.34, 0.24 28.31, 0 19.16 M0 19.16 C1.68 4.93, 5.48 -1.36, 19.16 0 M0 19.16 C-0.69 7.7, 5.79 -0.82, 19.16 0" stroke="#1e1e1e" stroke-width="2" fill="none"></path></g><g stroke-linecap="round" transform="translate(67.77755283942861 31.76882791603657) rotate(312.47556431009303 13.974609375 10.47265625)"><path d="M5.24 0 C13.44 -0.39, 14.96 0.19, 22.71 0 C25.45 2.51, 27.58 -0.2, 27.95 5.24 C28.49 8.49, 26.8 10.6, 27.95 15.71 C27.55 19.46, 27.61 23.45, 22.71 20.95 C14.93 19.99, 11.25 19.68, 5.24 20.95 C4.97 20.42, -0.39 22.76, 0 15.71 C1.7 11.17, 0.54 7.73, 0 5.24 C3.07 0.4, 0.06 -2.21, 5.24 0" stroke="none" stroke-width="0" fill="#ffd8a8"></path><path d="M5.24 0 C7.52 1.89, 11.9 -0.15, 22.71 0 M5.24 0 C11.87 0.91, 19.2 0.08, 22.71 0 M22.71 0 C25.91 0.25, 27.44 1.78, 27.95 5.24 M22.71 0 C28.05 -2.27, 30.18 0.82, 27.95 5.24 M27.95 5.24 C27.04 9.47, 28.88 12.64, 27.95 15.71 M27.95 5.24 C27.91 8.31, 27.61 11.27, 27.95 15.71 M27.95 15.71 C26.19 20.31, 27.21 22.88, 22.71 20.95 M27.95 15.71 C26.49 21.03, 24.16 21, 22.71 20.95 M22.71 20.95 C16.03 22.39, 8.35 20.13, 5.24 20.95 M22.71 20.95 C18.43 20.73, 15.37 20.81, 5.24 20.95 M5.24 20.95 C2.02 21.09, 0.79 20.08, 0 15.71 M5.24 20.95 C0.33 22.25, -0.54 20.73, 0 15.71 M0 15.71 C-0.48 12.38, -0.73 8.7, 0 5.24 M0 15.71 C-0.37 11.19, 0.07 7.19, 0 5.24 M0 5.24 C-0.08 0.17, 1.4 -0.14, 5.24 0 M0 5.24 C-1.78 1.08, 3.66 1.58, 5.24 0" stroke="#1e1e1e" stroke-width="2" fill="none"></path></g><g stroke-linecap="round" transform="translate(29.94872554116955 46.22262049354049) rotate(312.47556431009303 25.4296875 23.859375)"><path d="M18.4 1.23 C23.29 -0.33, 31.1 0.86, 35.97 2.78 C40.83 4.7, 45.31 8.44, 47.59 12.73 C49.88 17.02, 50.62 23.44, 49.65 28.51 C48.68 33.59, 45.91 40.1, 41.77 43.2 C37.63 46.29, 30.55 47.32, 24.81 47.07 C19.06 46.82, 11.55 45.04, 7.29 41.69 C3.03 38.34, -0.06 32.11, -0.75 26.98 C-1.43 21.84, -0.79 15.51, 3.17 10.9 C7.13 6.29, 18.85 0.9, 23.03 -0.67 C27.2 -2.24, 28.04 0.86, 28.21 1.49 M13.94 1.19 C18.26 -1.47, 26 -1.05, 31.49 0.33 C36.98 1.71, 43.79 5.29, 46.87 9.45 C49.96 13.62, 50.32 20, 50 25.33 C49.69 30.66, 48.53 37.73, 44.98 41.44 C41.44 45.15, 34.47 47.34, 28.71 47.6 C22.96 47.85, 15.08 45.76, 10.44 42.96 C5.81 40.17, 2.2 35.4, 0.9 30.82 C-0.39 26.23, 0.25 20.34, 2.66 15.46 C5.08 10.58, 13.66 3.69, 15.4 1.54 C17.14 -0.61, 13.2 1.83, 13.1 2.53" stroke="none" stroke-width="0" fill="#ffd8a8"></path><path d="M22.64 -0.11 C27.78 -0.9, 36.35 1.74, 40.91 4.67 C45.46 7.6, 48.68 12.66, 49.97 17.49 C51.26 22.32, 50.91 28.85, 48.62 33.65 C46.34 38.44, 41.36 43.89, 36.24 46.27 C31.12 48.64, 23.24 49.26, 17.91 47.89 C12.57 46.52, 7.05 42.43, 4.23 38.04 C1.4 33.65, 0.6 26.63, 0.97 21.55 C1.35 16.48, 2 11.17, 6.45 7.61 C10.91 4.05, 23.71 1.32, 27.7 0.2 C31.69 -0.91, 30.46 0.58, 30.41 0.94 M24.76 0.84 C30.23 0.94, 38.88 3.99, 43.02 7.43 C47.17 10.88, 49.16 16.69, 49.62 21.51 C50.08 26.33, 48.28 32.34, 45.79 36.35 C43.29 40.36, 39.6 43.98, 34.63 45.58 C29.66 47.18, 21.01 47.85, 15.96 45.94 C10.92 44.04, 7.04 38.8, 4.35 34.16 C1.66 29.52, -0.97 22.78, -0.17 18.1 C0.62 13.41, 4.83 9.16, 9.14 6.05 C13.45 2.95, 22.65 0.47, 25.69 -0.53 C28.73 -1.52, 27.3 -0.43, 27.38 0.08" stroke="#1e1e1e" stroke-width="2" fill="none"></path></g></svg>