<svg version="1.1" xmlns="http://www.w3.org/2000/svg" viewBox="0 0 105.26171875 140.8422378015016" width="105.26171875" height="140.8422378015016">
  <!-- svg-source:excalidraw -->
  
  <defs>
    <style class="style-fonts">
      @font-face {
        font-family: "Virgil";
        src: url("https://excalidraw.com/Virgil.woff2");
      }
      @font-face {
        font-family: "Cascadia";
        src: url("https://excalidraw.com/Cascadia.woff2");
      }
      @font-face {
        font-family: "Assistant";
        src: url("https://excalidraw.com/Assistant-Regular.woff2");
      }
    </style>
    
  </defs>
  <g stroke-linecap="round" transform="translate(32.64044744318198 109.06643921733757) rotate(337.5387531331347 19.283203125 7.48828125)"><path d="M3.74 0 C14.21 0.69, 23.23 1.5, 34.82 0 C39.66 0.99, 40.49 0.5, 38.57 3.74 C38.95 6.48, 38.37 8.26, 38.57 11.23 C40.98 13.63, 36.35 15.32, 34.82 14.98 C20.94 16.44, 10.07 14.42, 3.74 14.98 C1.31 15.23, -1.81 11.3, 0 11.23 C-0.57 9.68, -0.77 7.26, 0 3.74 C0.73 1.4, -0.97 -1.3, 3.74 0" stroke="none" stroke-width="0" fill="#868e96"></path><path d="M3.74 0 C16.25 0.13, 28.87 -0.38, 34.82 0 M3.74 0 C9.64 0.19, 16.13 -0.46, 34.82 0 M34.82 0 C36.5 0.84, 37.94 2.23, 38.57 3.74 M34.82 0 C37.41 0.69, 38.81 0.12, 38.57 3.74 M38.57 3.74 C38.78 5.26, 38.39 6.89, 38.57 11.23 M38.57 3.74 C38.46 5.79, 38.49 8.16, 38.57 11.23 M38.57 11.23 C38.15 13.5, 36.67 14.98, 34.82 14.98 M38.57 11.23 C38.48 14.53, 37.71 14.21, 34.82 14.98 M34.82 14.98 C24.83 15.54, 14.73 14.73, 3.74 14.98 M34.82 14.98 C27.96 15.27, 20.75 14.83, 3.74 14.98 M3.74 14.98 C1.97 15.19, -0.33 13.49, 0 11.23 M3.74 14.98 C1.95 15.67, -0.64 12.78, 0 11.23 M0 11.23 C0.33 9.46, 0.19 6.68, 0 3.74 M0 11.23 C-0.07 9.1, 0.14 6.75, 0 3.74 M0 3.74 C-0.96 1.62, 0.58 0.79, 3.74 0 M0 3.74 C0.76 2.13, 0.63 -0.56, 3.74 0" stroke="#1e1e1e" stroke-width="2" fill="none"></path></g><g stroke-linecap="round" transform="translate(32.826319839014104 16.919422171883525) rotate(337.0766447889431 19.283203125 7.48828125)"><path d="M3.74 0 C14.66 1.58, 28.06 0.85, 34.82 0 C39.24 -0.74, 37.96 2.88, 38.57 3.74 C38.35 6.29, 39.5 8.04, 38.57 11.23 C37.59 14.07, 39.05 13.39, 34.82 14.98 C22.09 14.42, 13.33 15.43, 3.74 14.98 C-0.57 12.55, -0.14 16.22, 0 11.23 C-0.62 9.58, 0.32 7.1, 0 3.74 C-2.22 -0.05, 0.96 2.41, 3.74 0" stroke="none" stroke-width="0" fill="#868e96"></path><path d="M3.74 0 C11.67 -0.48, 17.75 -0.28, 34.82 0 M3.74 0 C14.32 -0.47, 24.91 0.34, 34.82 0 M34.82 0 C36.7 0.98, 38.64 1.85, 38.57 3.74 M34.82 0 C37.56 -1.13, 37.65 1.2, 38.57 3.74 M38.57 3.74 C38.41 5.4, 38.56 7.1, 38.57 11.23 M38.57 3.74 C38.5 5.6, 38.47 7.33, 38.57 11.23 M38.57 11.23 C37.92 13.74, 37.24 15.67, 34.82 14.98 M38.57 11.23 C38.96 12.97, 37.66 15.18, 34.82 14.98 M34.82 14.98 C27.14 14.89, 17.95 15.19, 3.74 14.98 M34.82 14.98 C24.13 14.83, 13.57 15.15, 3.74 14.98 M3.74 14.98 C0.92 14.74, 0.61 14.33, 0 11.23 M3.74 14.98 C0.61 14.03, -0.16 13.79, 0 11.23 M0 11.23 C0.16 8.86, -0.05 7.12, 0 3.74 M0 11.23 C0.16 8.61, -0.17 6.15, 0 3.74 M0 3.74 C-0.67 2.04, 1.91 0.77, 3.74 0 M0 3.74 C-0.62 0.69, 1.42 0.74, 3.74 0" stroke="#1e1e1e" stroke-width="2" fill="none"></path></g><g stroke-linecap="round" transform="translate(10 32.545724255215646) rotate(0 42.630859375 38.322265625)"><path d="M19.16 0 C38.12 0.81, 53.25 -1.59, 66.1 0 C78.04 2.26, 84.88 7.59, 85.26 19.16 C88.42 33.14, 83.74 47.87, 85.26 57.48 C87.67 68.06, 80.56 73.21, 66.1 76.64 C49.81 76.75, 30.83 73.04, 19.16 76.64 C6.2 80.1, -0.74 68.49, 0 57.48 C1.49 43.61, -2.6 27.52, 0 19.16 C-0.39 9.72, 3.64 2.27, 19.16 0" stroke="none" stroke-width="0" fill="#7950f2"></path><path d="M19.16 0 C31.49 -0.32, 48.64 -1.41, 66.1 0 M19.16 0 C34.92 1.2, 51.69 1.35, 66.1 0 M66.1 0 C79.03 1.2, 85.69 4.42, 85.26 19.16 M66.1 0 C77.04 -0.09, 83.93 7.73, 85.26 19.16 M85.26 19.16 C84.92 27.9, 83.92 38.7, 85.26 57.48 M85.26 19.16 C84.73 27.56, 84.51 36.41, 85.26 57.48 M85.26 57.48 C85.11 71.65, 79.55 75.32, 66.1 76.64 M85.26 57.48 C85.94 70.67, 77.95 77.22, 66.1 76.64 M66.1 76.64 C47.63 76.8, 32.98 77.47, 19.16 76.64 M66.1 76.64 C50.69 76.66, 33.49 76.2, 19.16 76.64 M19.16 76.64 C7.61 77.84, -1.11 68.61, 0 57.48 M19.16 76.64 C6.07 76.76, -0.42 72.3, 0 57.48 M0 57.48 C-0.28 42.75, 0.68 26.22, 0 19.16 M0 57.48 C-1.27 44.67, -0.97 31.91, 0 19.16 M0 19.16 C1.32 7.93, 5.31 -0.98, 19.16 0 M0 19.16 C0.34 7.86, 7.62 0.61, 19.16 0" stroke="#1e1e1e" stroke-width="2" fill="none"></path></g><g stroke-linecap="round" transform="translate(38.662819688312084 96.89204723666899) rotate(269.315648468081 13.974609375 10.47265625)"><path d="M5.24 0 C9.9 -1.47, 15.22 1.81, 22.71 0 C24.01 1.69, 24.52 3.51, 27.95 5.24 C28.08 6.28, 26.13 9.85, 27.95 15.71 C31.4 18.46, 24.44 23.38, 22.71 20.95 C18.86 18.35, 13.07 20.69, 5.24 20.95 C5.08 18.2, 2.27 16, 0 15.71 C-0.06 11.29, -1.78 8.02, 0 5.24 C2.89 3.69, -1.25 2.84, 5.24 0" stroke="none" stroke-width="0" fill="#d0bfff"></path><path d="M5.24 0 C10.44 0.36, 11.83 -1.4, 22.71 0 M5.24 0 C10.1 -0.51, 15.22 -0.17, 22.71 0 M22.71 0 C24.77 -1.16, 27.15 0.24, 27.95 5.24 M22.71 0 C25.56 0.51, 26.98 1.23, 27.95 5.24 M27.95 5.24 C28.68 8.06, 27.25 10.48, 27.95 15.71 M27.95 5.24 C28.24 8.77, 27.81 11.52, 27.95 15.71 M27.95 15.71 C28.19 20.15, 27.12 21.82, 22.71 20.95 M27.95 15.71 C28.46 18.19, 27.87 21.44, 22.71 20.95 M22.71 20.95 C19.1 20.08, 11.95 20.81, 5.24 20.95 M22.71 20.95 C18.26 21.55, 11.44 21.06, 5.24 20.95 M5.24 20.95 C2.34 21.82, -0.62 20.08, 0 15.71 M5.24 20.95 C3.59 20.32, -2.22 20.05, 0 15.71 M0 15.71 C0.72 12.7, -0.59 10.98, 0 5.24 M0 15.71 C0.13 11.88, 0.29 8.55, 0 5.24 M0 5.24 C0.76 3.22, 1.17 -0.46, 5.24 0 M0 5.24 C1.45 1.5, 2.51 1.57, 5.24 0" stroke="#1e1e1e" stroke-width="2" fill="none"></path></g><g stroke-linecap="round" transform="translate(27.402064732141298 45.15652205235074) rotate(269.315648468081 25.4296875 23.859375)"><path d="M35.74 1.23 C40.81 3.12, 46.34 9.11, 48.88 13.69 C51.42 18.27, 52.42 23.8, 50.98 28.69 C49.54 33.59, 44.61 39.81, 40.24 43.06 C35.87 46.32, 30.05 48.46, 24.74 48.22 C19.42 47.99, 12.44 45.12, 8.35 41.65 C4.25 38.19, 0.72 32.49, 0.16 27.42 C-0.39 22.36, 1.91 15.69, 5.01 11.24 C8.1 6.8, 13.11 1.91, 18.74 0.75 C24.37 -0.4, 34.93 3.33, 38.79 4.32 C42.65 5.32, 41.95 6.52, 41.87 6.71 M29.72 0.63 C34.79 1.12, 42.55 4.22, 46.19 7.93 C49.83 11.63, 51.7 17.76, 51.56 22.84 C51.42 27.92, 49.12 34.28, 45.36 38.38 C41.6 42.49, 34.46 46.65, 28.98 47.46 C23.5 48.28, 17.32 45.92, 12.48 43.27 C7.65 40.62, 1.55 36.26, -0.01 31.55 C-1.57 26.84, 1.06 19.6, 3.13 15 C5.19 10.41, 8.01 6.32, 12.36 4.01 C16.71 1.69, 26.2 1.62, 29.24 1.12 C32.28 0.62, 30.72 0.84, 30.6 0.99" stroke="none" stroke-width="0" fill="#d0bfff"></path><path d="M16.16 1.52 C20.74 -0.62, 27.39 -0.79, 32.48 0.66 C37.57 2.11, 43.79 5.92, 46.73 10.22 C49.66 14.52, 50.87 21.31, 50.08 26.45 C49.28 31.6, 45.82 37.62, 41.96 41.09 C38.09 44.56, 32.25 47.08, 26.89 47.27 C21.54 47.46, 14.21 45.25, 9.83 42.22 C5.45 39.18, 1.69 33.89, 0.64 29.07 C-0.42 24.25, 0.98 17.83, 3.51 13.29 C6.03 8.75, 13.43 3.83, 15.79 1.83 C18.15 -0.17, 17.38 0.86, 17.68 1.29 M30.56 1.17 C35.86 2.11, 42.5 5.82, 45.94 9.58 C49.38 13.33, 51.24 18.66, 51.19 23.72 C51.14 28.77, 49.37 36.02, 45.64 39.91 C41.91 43.81, 34.22 46.21, 28.81 47.09 C23.39 47.96, 17.87 47.96, 13.16 45.16 C8.45 42.36, 2.46 35.28, 0.52 30.3 C-1.42 25.32, -0.54 19.63, 1.52 15.29 C3.59 10.95, 7.86 6.62, 12.92 4.27 C17.98 1.93, 29.16 1.8, 31.88 1.23 C34.6 0.66, 29.49 0.49, 29.24 0.86" stroke="#1e1e1e" stroke-width="2" fill="none"></path></g></svg>