<svg version="1.1" xmlns="http://www.w3.org/2000/svg" viewBox="0 0 108.91314535019046 140.8422378015016" width="108.91314535019046" height="140.8422378015016">
  <!-- svg-source:excalidraw -->
  
  <defs>
    <style class="style-fonts">
      @font-face {
        font-family: "Virgil";
        src: url("https://excalidraw.com/Virgil.woff2");
      }
      @font-face {
        font-family: "Cascadia";
        src: url("https://excalidraw.com/Cascadia.woff2");
      }
      @font-face {
        font-family: "Assistant";
        src: url("https://excalidraw.com/Assistant-Regular.woff2");
      }
    </style>
    
  </defs>
  <g stroke-linecap="round" transform="translate(32.64044744318198 109.06643921733757) rotate(337.5387531331347 19.283203125 7.48828125)"><path d="M3.74 0 C11.49 -2, 19.2 -1.76, 34.82 0 C35.56 1.07, 39.21 1.73, 38.57 3.74 C37.9 6.32, 39.19 6.69, 38.57 11.23 C39.71 14.34, 39.49 16.02, 34.82 14.98 C22.37 12.33, 8.96 12.48, 3.74 14.98 C-0.17 17.3, -2.34 11.26, 0 11.23 C-0.19 8.95, 0.33 6.82, 0 3.74 C-2.12 -0.67, 0.28 1.87, 3.74 0" stroke="none" stroke-width="0" fill="#868e96"></path><path d="M3.74 0 C9.89 -0.27, 17.12 0.12, 34.82 0 M3.74 0 C14.52 0.45, 24.71 0.46, 34.82 0 M34.82 0 C36.58 0.16, 37.65 2.11, 38.57 3.74 M34.82 0 C38.4 0.02, 39.11 1.35, 38.57 3.74 M38.57 3.74 C38.48 5.53, 38.38 7.26, 38.57 11.23 M38.57 3.74 C38.58 5.65, 38.35 7.3, 38.57 11.23 M38.57 11.23 C39.15 13.97, 37.4 15.87, 34.82 14.98 M38.57 11.23 C37.69 14.81, 36.99 15.07, 34.82 14.98 M34.82 14.98 C26.81 15.42, 17.79 15.16, 3.74 14.98 M34.82 14.98 C27.06 14.83, 19.84 14.52, 3.74 14.98 M3.74 14.98 C1.02 14.71, -0.43 13.36, 0 11.23 M3.74 14.98 C2.22 14.29, 0.07 14.64, 0 11.23 M0 11.23 C0.25 9.49, 0.08 8.08, 0 3.74 M0 11.23 C-0.06 8.44, -0.06 5.93, 0 3.74 M0 3.74 C0.67 1.71, 1.66 -0.21, 3.74 0 M0 3.74 C0.68 1.96, 1.44 0.54, 3.74 0" stroke="#1e1e1e" stroke-width="2" fill="none"></path></g><g stroke-linecap="round" transform="translate(32.826319839014104 16.919422171883525) rotate(337.0766447889431 19.283203125 7.48828125)"><path d="M3.74 0 C9.6 -1.57, 18.48 1.4, 34.82 0 C37.97 0.48, 37.53 0.62, 38.57 3.74 C39.15 4.99, 38.93 8.37, 38.57 11.23 C40.74 14.77, 39.78 16.55, 34.82 14.98 C26.49 12.42, 19.4 16.94, 3.74 14.98 C-1.1 12.51, -0.49 11.39, 0 11.23 C0.27 9.43, -0.77 7.31, 0 3.74 C-0.96 3.12, 0.63 -0.14, 3.74 0" stroke="none" stroke-width="0" fill="#868e96"></path><path d="M3.74 0 C12.04 0.1, 20.03 0.46, 34.82 0 M3.74 0 C14.06 0.34, 23.32 -0.07, 34.82 0 M34.82 0 C36.4 0.87, 39.51 1.27, 38.57 3.74 M34.82 0 C37.86 0.1, 38.09 0.25, 38.57 3.74 M38.57 3.74 C38.4 6.36, 38.32 9.37, 38.57 11.23 M38.57 3.74 C38.39 5.96, 38.69 8.15, 38.57 11.23 M38.57 11.23 C38.65 14.62, 36.55 15.91, 34.82 14.98 M38.57 11.23 C38.24 13.82, 36.92 14.95, 34.82 14.98 M34.82 14.98 C27.69 15.38, 20.95 16.05, 3.74 14.98 M34.82 14.98 C26.51 14.57, 18.95 14.82, 3.74 14.98 M3.74 14.98 C0.82 14.61, 0.84 13.14, 0 11.23 M3.74 14.98 C1.31 15.88, -0.83 14.64, 0 11.23 M0 11.23 C0.08 8.75, 0.16 5.85, 0 3.74 M0 11.23 C-0.04 9.08, 0.14 7.12, 0 3.74 M0 3.74 C0.41 1.04, 1.84 0.62, 3.74 0 M0 3.74 C0.19 1.79, 1.1 0.59, 3.74 0" stroke="#1e1e1e" stroke-width="2" fill="none"></path></g><g stroke-linecap="round" transform="translate(10 32.545724255215646) rotate(0 42.630859375 38.322265625)"><path d="M19.16 0 C26.94 2.1, 40.48 1.29, 66.1 0 C77.43 -0.87, 85.02 4.02, 85.26 19.16 C87.3 34, 88.73 48.58, 85.26 57.48 C88.67 72.44, 76.19 76.39, 66.1 76.64 C54.29 79.15, 43.15 72.52, 19.16 76.64 C5.7 73.41, -3.11 69.23, 0 57.48 C-3.11 44.05, -1.5 38.51, 0 19.16 C-0.85 6.2, 7.51 0.3, 19.16 0" stroke="none" stroke-width="0" fill="#7950f2"></path><path d="M19.16 0 C32.3 0.8, 44.58 1.81, 66.1 0 M19.16 0 C37 -0.3, 55.41 0.41, 66.1 0 M66.1 0 C80.76 0.04, 86.21 6.56, 85.26 19.16 M66.1 0 C77.93 -1.99, 87.53 6.04, 85.26 19.16 M85.26 19.16 C83.8 27.26, 84.92 39.48, 85.26 57.48 M85.26 19.16 C85.47 33.81, 84.98 48.87, 85.26 57.48 M85.26 57.48 C83.73 72.13, 78.3 76.81, 66.1 76.64 M85.26 57.48 C84.47 70.21, 76.87 77.19, 66.1 76.64 M66.1 76.64 C48 78.76, 31.6 74.84, 19.16 76.64 M66.1 76.64 C52.46 76.02, 38.85 75.92, 19.16 76.64 M19.16 76.64 C8.07 75.46, 0.11 71.84, 0 57.48 M19.16 76.64 C4.73 78.47, 1.51 71.96, 0 57.48 M0 57.48 C0.89 46.92, -0.51 34.82, 0 19.16 M0 57.48 C0.78 49.98, 0.51 41.36, 0 19.16 M0 19.16 C1.18 7.62, 6.73 0.94, 19.16 0 M0 19.16 C-0.29 7.56, 5.59 -1.05, 19.16 0" stroke="#1e1e1e" stroke-width="2" fill="none"></path></g><g stroke-linecap="round" transform="translate(67.77755283942861 31.768827916034752) rotate(312.47556431009303 13.974609375 10.47265625)"><path d="M5.24 0 C9.32 -2.64, 12.41 -1.24, 22.71 0 C28.79 -0.85, 27.76 2.87, 27.95 5.24 C27.99 7.55, 29.27 11.84, 27.95 15.71 C30.3 16.1, 26.88 21.01, 22.71 20.95 C17.56 18.22, 10.89 22.87, 5.24 20.95 C-0.92 20.9, 2.29 15.83, 0 15.71 C0.54 12.53, -0.91 10.03, 0 5.24 C1.96 5.01, 4.18 2.58, 5.24 0" stroke="none" stroke-width="0" fill="#d0bfff"></path><path d="M5.24 0 C13.06 -1.35, 19.4 -0.52, 22.71 0 M5.24 0 C9.86 0.21, 16.51 -0.45, 22.71 0 M22.71 0 C26.83 -1.32, 29.92 0.82, 27.95 5.24 M22.71 0 C23.96 -0.33, 25.98 -0.02, 27.95 5.24 M27.95 5.24 C27.54 9.03, 27.3 11.11, 27.95 15.71 M27.95 5.24 C28.22 9.59, 27.82 13.33, 27.95 15.71 M27.95 15.71 C29.34 20.2, 26.73 20.55, 22.71 20.95 M27.95 15.71 C27.37 17.08, 25.58 20.21, 22.71 20.95 M22.71 20.95 C15.92 22.04, 10.95 21.31, 5.24 20.95 M22.71 20.95 C16.35 20.64, 9.86 20.23, 5.24 20.95 M5.24 20.95 C0.28 19.59, 0.82 19.7, 0 15.71 M5.24 20.95 C2.17 20.02, -0.55 19.05, 0 15.71 M0 15.71 C-1.09 13.72, 0.18 11.68, 0 5.24 M0 15.71 C-0.49 12.11, -0.57 8.32, 0 5.24 M0 5.24 C-1.69 0.65, 3.53 -1.8, 5.24 0 M0 5.24 C-2.18 1.31, -0.32 -1.98, 5.24 0" stroke="#1e1e1e" stroke-width="2" fill="none"></path></g><g stroke-linecap="round" transform="translate(29.94872554116955 46.22262049353867) rotate(312.47556431009303 25.4296875 23.859375)"><path d="M27.73 -0.55 C33.09 -0.26, 40.49 3.93, 44.17 7.75 C47.84 11.57, 49.43 17.23, 49.8 22.36 C50.17 27.48, 49.33 34.24, 46.41 38.5 C43.49 42.75, 37.48 46.86, 32.27 47.89 C27.06 48.92, 20.16 47.17, 15.15 44.68 C10.15 42.18, 4.71 37.58, 2.25 32.91 C-0.21 28.25, -0.97 21.34, 0.39 16.7 C1.75 12.07, 5.2 7.91, 10.42 5.13 C15.64 2.35, 27.31 0.51, 31.7 0.02 C36.08 -0.47, 36.82 1.71, 36.71 2.2 M21.83 -1 C26.8 -1.53, 34.7 2.23, 39.33 5.31 C43.96 8.38, 47.98 12.69, 49.59 17.46 C51.21 22.23, 51.47 29.11, 49.01 33.93 C46.56 38.75, 39.83 44.32, 34.85 46.37 C29.88 48.42, 24.01 47.65, 19.19 46.22 C14.36 44.79, 8.91 42.05, 5.89 37.78 C2.86 33.52, 0.77 25.75, 1.06 20.64 C1.35 15.53, 3.89 10.4, 7.62 7.12 C11.35 3.84, 20.73 1.99, 23.45 0.94 C26.17 -0.1, 24.2 0.62, 23.95 0.84" stroke="none" stroke-width="0" fill="#d0bfff"></path><path d="M21.76 -0.63 C26.86 -1.47, 34.5 1.26, 39.05 4.15 C43.6 7.03, 47.5 11.78, 49.06 16.7 C50.62 21.62, 50.4 29.15, 48.39 33.68 C46.38 38.22, 41.72 41.79, 37 43.9 C32.29 46.01, 25.5 47.28, 20.11 46.36 C14.72 45.45, 8.09 42.35, 4.69 38.41 C1.3 34.46, -0.49 27.63, -0.25 22.7 C-0.02 17.77, 1.84 12.59, 6.09 8.82 C10.34 5.04, 21.16 1.51, 25.24 0.06 C29.33 -1.39, 30.36 -0.38, 30.58 0.12 M35.65 2.36 C40.69 3.71, 45.71 7.93, 48.1 12.05 C50.49 16.17, 51.19 22.11, 50 27.09 C48.81 32.08, 44.98 38.41, 40.97 41.96 C36.96 45.52, 31.2 48.48, 25.92 48.4 C20.65 48.32, 13.43 44.83, 9.3 41.51 C5.18 38.18, 2.08 33.33, 1.18 28.45 C0.29 23.57, 1.28 16.62, 3.92 12.22 C6.56 7.82, 12 3.92, 17.03 2.04 C22.06 0.16, 31.4 1.16, 34.09 0.93 C36.79 0.7, 33.44 0.36, 33.19 0.67" stroke="#1e1e1e" stroke-width="2" fill="none"></path></g></svg>