<svg version="1.1" xmlns="http://www.w3.org/2000/svg" viewBox="0 0 108.6787703501941 140.8422378015016" width="108.6787703501941" height="140.8422378015016">
  <!-- svg-source:excalidraw -->
  
  <defs>
    <style class="style-fonts">
      @font-face {
        font-family: "Virgil";
        src: url("https://excalidraw.com/Virgil.woff2");
      }
      @font-face {
        font-family: "Cascadia";
        src: url("https://excalidraw.com/Cascadia.woff2");
      }
      @font-face {
        font-family: "Assistant";
        src: url("https://excalidraw.com/Assistant-Regular.woff2");
      }
    </style>
    
  </defs>
  <g stroke-linecap="round" transform="translate(36.05749904337608 109.06643921733757) rotate(337.5387531331347 19.283203125 7.48828125)"><path d="M3.74 0 C14.01 1.99, 18.36 1.41, 34.82 0 C37.93 2.17, 39.61 3.71, 38.57 3.74 C37.62 5.94, 37.67 8.61, 38.57 11.23 C40.89 11.38, 34.85 14.48, 34.82 14.98 C27.81 15.5, 21.22 12.74, 3.74 14.98 C-0.67 14.01, 1.87 13.11, 0 11.23 C-0.98 9.64, 0.09 6.35, 0 3.74 C2.07 1.45, 2.94 -2.24, 3.74 0" stroke="none" stroke-width="0" fill="#868e96"></path><path d="M3.74 0 C15.35 -0.8, 27.52 1.06, 34.82 0 M3.74 0 C12.92 -0.45, 23 -0.09, 34.82 0 M34.82 0 C36.91 -0.42, 37.59 0.6, 38.57 3.74 M34.82 0 C36.28 -0.1, 38.85 2.12, 38.57 3.74 M38.57 3.74 C38.66 5.3, 38.91 6.5, 38.57 11.23 M38.57 3.74 C38.49 6.69, 38.39 9.68, 38.57 11.23 M38.57 11.23 C39.14 13.21, 37.63 14.32, 34.82 14.98 M38.57 11.23 C39.7 13.19, 36.2 14.81, 34.82 14.98 M34.82 14.98 C27.9 14.51, 21.14 15.79, 3.74 14.98 M34.82 14.98 C26.98 15.5, 20.19 15.47, 3.74 14.98 M3.74 14.98 C1.14 15.27, 0.69 14.23, 0 11.23 M3.74 14.98 C1.55 14.75, -0.29 12.67, 0 11.23 M0 11.23 C0.18 9.34, -0.07 7.36, 0 3.74 M0 11.23 C-0.03 8.62, -0.07 5.73, 0 3.74 M0 3.74 C-0.82 0.33, 0.52 -0.68, 3.74 0 M0 3.74 C0.47 1.53, 1.46 -0.46, 3.74 0" stroke="#1e1e1e" stroke-width="2" fill="none"></path></g><g stroke-linecap="round" transform="translate(36.24337143921002 16.919422171883525) rotate(337.0766447889431 19.283203125 7.48828125)"><path d="M3.74 0 C8.48 0.87, 18.91 1.91, 34.82 0 C38.36 2.46, 40.14 -0.69, 38.57 3.74 C37.66 5.41, 39.35 7.25, 38.57 11.23 C36.1 13.24, 34.98 12.73, 34.82 14.98 C25.83 12.95, 16.03 14.11, 3.74 14.98 C3.12 14.36, -0.14 14.54, 0 11.23 C0.21 8.45, 0.87 6.69, 0 3.74 C1.7 -0.99, 1.74 0.05, 3.74 0" stroke="none" stroke-width="0" fill="#868e96"></path><path d="M3.74 0 C11.64 1.09, 17.82 0.61, 34.82 0 M3.74 0 C13.83 0.06, 22.73 -0.08, 34.82 0 M34.82 0 C36.34 -0.65, 37.66 1.16, 38.57 3.74 M34.82 0 C37.6 0.87, 37.45 1.45, 38.57 3.74 M38.57 3.74 C38.91 6.14, 38.93 9, 38.57 11.23 M38.57 3.74 C38.39 6.1, 38.66 8.26, 38.57 11.23 M38.57 11.23 C38.88 13.07, 38.3 14.51, 34.82 14.98 M38.57 11.23 C37.45 13.56, 36.33 14.09, 34.82 14.98 M34.82 14.98 C25.83 15.75, 16.98 14.97, 3.74 14.98 M34.82 14.98 C23.37 15.47, 11.21 15.25, 3.74 14.98 M3.74 14.98 C1.94 15.48, 0.26 13.53, 0 11.23 M3.74 14.98 C0.96 13.91, -0.31 13.36, 0 11.23 M0 11.23 C-0.1 8.7, 0.21 5.79, 0 3.74 M0 11.23 C-0.06 8.55, -0.15 5.86, 0 3.74 M0 3.74 C-0.73 0.57, 1.66 0.25, 3.74 0 M0 3.74 C0.21 0.79, 0.97 -0.08, 3.74 0" stroke="#1e1e1e" stroke-width="2" fill="none"></path></g><g stroke-linecap="round" transform="translate(13.4170516001941 32.545724255215646) rotate(0 42.630859375 38.322265625)"><path d="M19.16 0 C37.21 2.64, 55 3.04, 66.1 0 C81.05 -2.69, 85.01 3.14, 85.26 19.16 C87.9 25.45, 81.27 37.54, 85.26 57.48 C82.02 67.15, 77.85 75.97, 66.1 76.64 C48.21 74.62, 38.21 75.1, 19.16 76.64 C6.2 77.77, 0.3 66.74, 0 57.48 C2.78 43.84, 2.26 26.53, 0 19.16 C0.68 6.45, 7.33 2.02, 19.16 0" stroke="none" stroke-width="0" fill="#7950f2"></path><path d="M19.16 0 C28.98 0.5, 38.89 -1.26, 66.1 0 M19.16 0 C28.77 -0.35, 38.23 -0.58, 66.1 0 M66.1 0 C77.06 -0.18, 85.75 7.91, 85.26 19.16 M66.1 0 C76.65 0.4, 86.61 6.94, 85.26 19.16 M85.26 19.16 C87.48 30.41, 85.77 42.13, 85.26 57.48 M85.26 19.16 C85.5 30.05, 85.24 41.33, 85.26 57.48 M85.26 57.48 C87.23 69.33, 76.93 76.36, 66.1 76.64 M85.26 57.48 C83.29 68.49, 78.36 76.03, 66.1 76.64 M66.1 76.64 C52.85 77.15, 43.56 75.6, 19.16 76.64 M66.1 76.64 C48.19 77.29, 31.19 77.49, 19.16 76.64 M19.16 76.64 C6.91 76.24, -0.5 68.41, 0 57.48 M19.16 76.64 C5.77 75.91, 1.55 71.31, 0 57.48 M0 57.48 C1.31 44.76, 1.02 31.11, 0 19.16 M0 57.48 C-0.69 43.11, -0.6 29.91, 0 19.16 M0 19.16 C0.82 6.89, 6.76 -0.8, 19.16 0 M0 19.16 C-0.55 6.23, 4.87 1.49, 19.16 0" stroke="#1e1e1e" stroke-width="2" fill="none"></path></g><g stroke-linecap="round" transform="translate(13.186373760761853 30.81458684460722) rotate(47.524435689906944 13.974609375 10.47265625)"><path d="M5.24 0 C6.17 -3.26, 12.17 -3.11, 22.71 0 C23.1 -1.03, 27.28 2.63, 27.95 5.24 C27.1 9.51, 27.35 10.98, 27.95 15.71 C29.07 19.5, 22.68 23.23, 22.71 20.95 C17.5 23.25, 9.09 21.79, 5.24 20.95 C1.81 21.89, 2.02 21.23, 0 15.71 C1.22 10.99, 0.15 10.26, 0 5.24 C-3.37 1.61, 0.48 3.33, 5.24 0" stroke="none" stroke-width="0" fill="#d0bfff"></path><path d="M5.24 0 C8.62 0.59, 13.63 -1.53, 22.71 0 M5.24 0 C10.86 0.74, 15.66 0.78, 22.71 0 M22.71 0 C25.63 0.16, 27.26 1.7, 27.95 5.24 M22.71 0 C24.19 0.55, 29.27 0.55, 27.95 5.24 M27.95 5.24 C27.39 7.69, 27.73 11.28, 27.95 15.71 M27.95 5.24 C27.7 7.38, 28.37 9.6, 27.95 15.71 M27.95 15.71 C28.06 20.78, 24.76 22.53, 22.71 20.95 M27.95 15.71 C29.46 20.9, 25.95 21.62, 22.71 20.95 M22.71 20.95 C15.91 20.55, 8.19 20.52, 5.24 20.95 M22.71 20.95 C18.39 20.84, 13.86 21.56, 5.24 20.95 M5.24 20.95 C2.08 21.89, -0.26 20.22, 0 15.71 M5.24 20.95 C0.95 19.9, -1.9 17.08, 0 15.71 M0 15.71 C0.33 13.53, -0.35 10.7, 0 5.24 M0 15.71 C0.42 12.13, 0.3 9.69, 0 5.24 M0 5.24 C1.67 2.55, 3.64 1.21, 5.24 0 M0 5.24 C-1.72 1.58, -0.33 -1.18, 5.24 0" stroke="#1e1e1e" stroke-width="2" fill="none"></path></g><g stroke-linecap="round" transform="translate(28.10504480902091 45.26837942211296) rotate(47.524435689906944 25.4296875 23.859375)"><path d="M20.13 -0.37 C25.14 -1.3, 32.6 0.91, 37.51 3.63 C42.41 6.34, 47.69 11.22, 49.59 15.92 C51.49 20.62, 50.84 27.16, 48.91 31.82 C46.99 36.48, 42.59 41.18, 38.04 43.88 C33.49 46.58, 27.14 48.73, 21.62 48.01 C16.11 47.3, 8.51 43.5, 4.95 39.6 C1.38 35.71, 0 29.68, 0.24 24.66 C0.47 19.63, 2.04 13.67, 6.38 9.44 C10.72 5.21, 22.33 0.83, 26.29 -0.75 C30.25 -2.32, 30.32 -0.37, 30.13 0.01 M17.16 0.6 C21.61 -0.99, 29.45 -1.28, 34.58 0.83 C39.7 2.94, 45.29 8.49, 47.93 13.26 C50.57 18.03, 51.92 24.65, 50.43 29.47 C48.95 34.28, 43.6 38.94, 39.02 42.15 C34.43 45.36, 28.22 48.95, 22.93 48.73 C17.65 48.51, 11.01 44.57, 7.29 40.83 C3.57 37.1, 1.31 31.24, 0.59 26.32 C-0.13 21.41, -0.06 15.7, 2.97 11.34 C6 6.98, 15.94 1.8, 18.76 0.15 C21.59 -1.49, 19.67 1.17, 19.91 1.46" stroke="none" stroke-width="0" fill="#d0bfff"></path><path d="M13.83 2.83 C18.38 0.07, 26.28 -1.24, 31.72 -0.22 C37.16 0.8, 43.27 4.85, 46.47 8.96 C49.67 13.08, 51.3 19.44, 50.92 24.45 C50.55 29.46, 47.87 35.09, 44.23 39.03 C40.59 42.97, 34.58 47.19, 29.1 48.08 C23.62 48.96, 16.1 47.01, 11.34 44.35 C6.58 41.69, 2.2 37.2, 0.55 32.12 C-1.1 27.04, -1.68 19.23, 1.43 13.85 C4.53 8.47, 15.31 2.11, 19.18 -0.16 C23.05 -2.43, 24.56 -0.21, 24.64 0.25 M20.86 1.59 C25.5 0.75, 31.96 1.77, 36.85 4.27 C41.75 6.77, 48.16 11.93, 50.23 16.59 C52.29 21.26, 51.05 27.49, 49.24 32.25 C47.44 37.01, 43.99 42.68, 39.39 45.16 C34.79 47.63, 27.25 48.29, 21.64 47.09 C16.03 45.9, 9.4 41.9, 5.73 37.98 C2.05 34.07, -0.58 28.37, -0.4 23.61 C-0.22 18.84, 3.17 13.3, 6.81 9.38 C10.44 5.46, 18.9 1.35, 21.39 0.09 C23.88 -1.18, 21.73 1.24, 21.75 1.8" stroke="#1e1e1e" stroke-width="2" fill="none"></path></g></svg>