<svg version="1.1" xmlns="http://www.w3.org/2000/svg" viewBox="0 0 105.26171875 140.8422378015016" width="105.26171875" height="140.8422378015016">
  <!-- svg-source:excalidraw -->
  
  <defs>
    <style class="style-fonts">
      @font-face {
        font-family: "Virgil";
        src: url("https://excalidraw.com/Virgil.woff2");
      }
      @font-face {
        font-family: "Cascadia";
        src: url("https://excalidraw.com/Cascadia.woff2");
      }
      @font-face {
        font-family: "Assistant";
        src: url("https://excalidraw.com/Assistant-Regular.woff2");
      }
    </style>
    
  </defs>
  <g stroke-linecap="round" transform="translate(32.64044744318198 109.06643921733757) rotate(337.5387531331347 19.283203125 7.48828125)"><path d="M3.74 0 C11.45 0.32, 16.81 -0.79, 34.82 0 C37.14 -1.71, 40.26 2.97, 38.57 3.74 C39.42 5.65, 39.53 7.36, 38.57 11.23 C36.62 13.54, 34.97 13.64, 34.82 14.98 C25.78 12.87, 20.93 13, 3.74 14.98 C-0.99 14.24, -0.49 14.37, 0 11.23 C-0.28 9.84, -0.15 7.01, 0 3.74 C0.81 1.46, -1.3 1.65, 3.74 0" stroke="none" stroke-width="0" fill="#868e96"></path><path d="M3.74 0 C13.43 0.85, 23.66 0.62, 34.82 0 M3.74 0 C15.66 0.41, 28.96 -0.01, 34.82 0 M34.82 0 C37.79 0.09, 38.16 0.38, 38.57 3.74 M34.82 0 C38.45 -0.17, 38.09 0.76, 38.57 3.74 M38.57 3.74 C38.51 5.35, 38.83 6.41, 38.57 11.23 M38.57 3.74 C38.6 6.29, 38.44 8.67, 38.57 11.23 M38.57 11.23 C38.28 13.81, 36.97 14.95, 34.82 14.98 M38.57 11.23 C37.56 14, 37.98 14.38, 34.82 14.98 M34.82 14.98 C24.06 14.16, 14.08 14.27, 3.74 14.98 M34.82 14.98 C27.67 14.75, 21.38 14.64, 3.74 14.98 M3.74 14.98 C1.3 15.77, -0.72 14.52, 0 11.23 M3.74 14.98 C2 15.83, -0.12 14.07, 0 11.23 M0 11.23 C-0.09 8.37, -0.36 5.6, 0 3.74 M0 11.23 C0.05 9.19, 0.08 7.33, 0 3.74 M0 3.74 C0.17 1.72, 1.12 0.51, 3.74 0 M0 3.74 C-0.4 0.73, 0.3 -1.06, 3.74 0" stroke="#1e1e1e" stroke-width="2" fill="none"></path></g><g stroke-linecap="round" transform="translate(32.826319839014104 16.919422171883525) rotate(337.0766447889431 19.283203125 7.48828125)"><path d="M3.74 0 C13.3 -0.7, 24.77 -1.79, 34.82 0 C39.01 1.73, 36.03 2.39, 38.57 3.74 C39.57 6.76, 37.92 8.52, 38.57 11.23 C36.22 12.4, 35.12 13.56, 34.82 14.98 C22.22 12.25, 8.37 13.85, 3.74 14.98 C0.76 15.62, -0.55 11.61, 0 11.23 C-0.19 9.49, 0.34 7.92, 0 3.74 C-2.54 2.9, 1.56 -1.26, 3.74 0" stroke="none" stroke-width="0" fill="#868e96"></path><path d="M3.74 0 C15.31 0.54, 25.94 -0.88, 34.82 0 M3.74 0 C14.03 -0.13, 23.6 -0.09, 34.82 0 M34.82 0 C36.91 -0.87, 39.55 1.1, 38.57 3.74 M34.82 0 C36.84 -0.48, 37.44 0.5, 38.57 3.74 M38.57 3.74 C38.85 4.95, 38.63 7.1, 38.57 11.23 M38.57 3.74 C38.43 6.35, 38.52 8.61, 38.57 11.23 M38.57 11.23 C38.22 13.71, 36.44 15.22, 34.82 14.98 M38.57 11.23 C39.23 13.13, 37.68 14.22, 34.82 14.98 M34.82 14.98 C22.3 13.97, 9.28 14.6, 3.74 14.98 M34.82 14.98 C26.75 14.62, 17.86 15.31, 3.74 14.98 M3.74 14.98 C0.53 15.77, 0.66 14.47, 0 11.23 M3.74 14.98 C1.12 15.32, 0.8 14.3, 0 11.23 M0 11.23 C-0.34 8.69, -0.11 6.6, 0 3.74 M0 11.23 C0.09 8.76, 0.02 6.14, 0 3.74 M0 3.74 C-0.13 1.76, 0.9 -0.45, 3.74 0 M0 3.74 C-0.95 0.19, 0.41 -0.78, 3.74 0" stroke="#1e1e1e" stroke-width="2" fill="none"></path></g><g stroke-linecap="round" transform="translate(10 32.545724255215646) rotate(0 42.630859375 38.322265625)"><path d="M19.16 0 C33.88 -2.17, 51.41 2.59, 66.1 0 C75.36 1.58, 86.11 9.4, 85.26 19.16 C83.23 31.94, 82.67 43.39, 85.26 57.48 C82.22 68.29, 82.1 73.4, 66.1 76.64 C53.36 74.86, 46.16 76.77, 19.16 76.64 C5.62 73.71, -2.65 68.92, 0 57.48 C1.29 43.53, -3.36 31.26, 0 19.16 C0.44 4.64, 9.25 0.28, 19.16 0" stroke="none" stroke-width="0" fill="#7950f2"></path><path d="M19.16 0 C39.51 -1.8, 56.25 -2.16, 66.1 0 M19.16 0 C37.78 0.08, 55.04 -0.87, 66.1 0 M66.1 0 C80.85 -0.3, 84.44 5.55, 85.26 19.16 M66.1 0 C76.63 -1.5, 83.18 6.18, 85.26 19.16 M85.26 19.16 C85.9 32.77, 86.03 44.21, 85.26 57.48 M85.26 19.16 C84.68 34.16, 84.62 48.97, 85.26 57.48 M85.26 57.48 C83.51 70.73, 80.03 75.6, 66.1 76.64 M85.26 57.48 C85.99 68.74, 81.14 75.58, 66.1 76.64 M66.1 76.64 C55.05 75.79, 46.55 75.38, 19.16 76.64 M66.1 76.64 C53.8 77.16, 40.67 77.16, 19.16 76.64 M19.16 76.64 C7.7 78.12, -0.22 70.85, 0 57.48 M19.16 76.64 C7.98 77.79, 0.6 69.8, 0 57.48 M0 57.48 C-0.29 48.3, 1.27 37.24, 0 19.16 M0 57.48 C-0.06 47.26, -0.35 36.61, 0 19.16 M0 19.16 C-0.69 5.48, 4.74 -1.84, 19.16 0 M0 19.16 C-1.68 4.83, 7.33 0.57, 19.16 0" stroke="#1e1e1e" stroke-width="2" fill="none"></path></g><g stroke-linecap="round" transform="translate(36.68179290259832 21.99483342197982) rotate(90.684351531919 13.974609375 10.47265625)"><path d="M5.24 0 C6.11 -0.61, 11.82 1.06, 22.71 0 C25.44 -2.94, 25.3 0.41, 27.95 5.24 C28.49 9.29, 26.06 14.22, 27.95 15.71 C28.39 17.45, 29.07 21.22, 22.71 20.95 C16.38 21.83, 11.71 22.78, 5.24 20.95 C2.38 17.63, -0.48 21.2, 0 15.71 C-1.76 13.27, -0.66 12.72, 0 5.24 C0.9 1.59, -0.12 0.99, 5.24 0" stroke="none" stroke-width="0" fill="#d0bfff"></path><path d="M5.24 0 C11.21 1.19, 17 0.32, 22.71 0 M5.24 0 C11.79 -0.09, 18.54 -0.18, 22.71 0 M22.71 0 C24.46 0.48, 29.1 0.7, 27.95 5.24 M22.71 0 C26.93 -1.51, 30.21 0.68, 27.95 5.24 M27.95 5.24 C27.13 7.12, 27.66 9.03, 27.95 15.71 M27.95 5.24 C28.07 8.41, 27.66 11.16, 27.95 15.71 M27.95 15.71 C29.27 20.68, 25.99 21.53, 22.71 20.95 M27.95 15.71 C29.54 20.35, 26.8 20.49, 22.71 20.95 M22.71 20.95 C17.35 22.08, 13.91 21.61, 5.24 20.95 M22.71 20.95 C17.98 21.46, 12.85 21.5, 5.24 20.95 M5.24 20.95 C1.05 20.04, -1.65 17.36, 0 15.71 M5.24 20.95 C0.07 19.39, 0.95 19.77, 0 15.71 M0 15.71 C-0.03 11.68, 0.72 9.73, 0 5.24 M0 15.71 C0.39 13.8, 0.45 11.79, 0 5.24 M0 5.24 C-1.49 1.6, -0.06 -1.03, 5.24 0 M0 5.24 C-1.94 0.49, 3.8 -2.07, 5.24 0" stroke="#1e1e1e" stroke-width="2" fill="none"></path></g><g stroke-linecap="round" transform="translate(25.421037946425713 46.95692110629625) rotate(90.684351531919 25.4296875 23.859375)"><path d="M16.6 1.76 C21.36 -0.37, 28.24 -0.46, 33.34 1.07 C38.44 2.6, 44.2 6.4, 47.18 10.94 C50.15 15.47, 52.2 23.05, 51.19 28.29 C50.18 33.52, 45.3 38.95, 41.11 42.33 C36.93 45.7, 31.3 48.38, 26.08 48.55 C20.86 48.72, 13.97 46.82, 9.8 43.33 C5.63 39.84, 2.18 32.96, 1.07 27.64 C-0.05 22.31, 0.51 15.9, 3.13 11.36 C5.75 6.83, 14.33 1.92, 16.78 0.41 C19.24 -1.1, 17.79 1.96, 17.86 2.32 M22.59 -0.17 C28 -0.77, 35.87 1.13, 40.23 3.89 C44.58 6.66, 47.42 11.24, 48.72 16.4 C50.01 21.56, 50.12 30.04, 48 34.86 C45.88 39.68, 40.75 43.29, 36 45.33 C31.25 47.36, 24.96 48.19, 19.5 47.08 C14.04 45.96, 6.45 42.95, 3.24 38.64 C0.04 34.34, -0.61 26.47, 0.26 21.23 C1.14 16, 4.55 10.97, 8.51 7.23 C12.46 3.5, 21.53 -0.08, 24 -1.18 C26.47 -2.29, 23.41 -0.14, 23.35 0.61" stroke="none" stroke-width="0" fill="#d0bfff"></path><path d="M27.46 -0.27 C32.51 -0.29, 38.82 2.56, 42.68 5.92 C46.54 9.27, 49.88 14.64, 50.62 19.86 C51.36 25.08, 50.13 32.73, 47.12 37.24 C44.11 41.76, 37.91 45.32, 32.57 46.93 C27.22 48.53, 20.08 49.06, 15.05 46.89 C10.03 44.72, 4.85 38.75, 2.41 33.91 C-0.02 29.07, -0.67 22.72, 0.46 17.85 C1.58 12.98, 4.02 7.64, 9.17 4.71 C14.32 1.79, 26.9 0.47, 31.35 0.29 C35.8 0.11, 36.03 3.17, 35.87 3.63 M36.2 2.94 C41.25 4.4, 45.33 8.85, 47.85 13.33 C50.36 17.81, 52.38 24.96, 51.29 29.82 C50.19 34.69, 45.83 39.77, 41.26 42.52 C36.7 45.27, 29.47 46.57, 23.89 46.31 C18.32 46.05, 11.58 44.05, 7.81 40.94 C4.03 37.82, 1.75 32.65, 1.22 27.61 C0.69 22.57, 1.71 14.95, 4.62 10.68 C7.54 6.42, 13.57 3.37, 18.71 2.01 C23.85 0.66, 32.78 2.37, 35.46 2.54 C38.15 2.71, 35.11 2.9, 34.82 3.04" stroke="#1e1e1e" stroke-width="2" fill="none"></path></g></svg>