<svg version="1.1" xmlns="http://www.w3.org/2000/svg" viewBox="0 0 107.08836856447851 140.8422378015016" width="107.08836856447851" height="140.8422378015016">
  <!-- svg-source:excalidraw -->
  
  <defs>
    <style class="style-fonts">
      @font-face {
        font-family: "Virgil";
        src: url("https://excalidraw.com/Virgil.woff2");
      }
      @font-face {
        font-family: "Cascadia";
        src: url("https://excalidraw.com/Cascadia.woff2");
      }
      @font-face {
        font-family: "Assistant";
        src: url("https://excalidraw.com/Assistant-Regular.woff2");
      }
    </style>
    
  </defs>
  <g stroke-linecap="round" transform="translate(34.4670972576605 109.06643921733757) rotate(337.5387531331347 19.283203125 7.48828125)"><path d="M3.74 0 C13 -1.66, 16.97 0.11, 34.82 0 C38.99 1.39, 39.25 2.15, 38.57 3.74 C39 6.69, 38.35 7.97, 38.57 11.23 C40.2 13.46, 38.19 16.76, 34.82 14.98 C26.21 14.38, 18.13 17.09, 3.74 14.98 C-0.34 16.19, -2.48 15, 0 11.23 C0.12 8.87, -0.88 7.81, 0 3.74 C2.49 0.71, -0.03 1.76, 3.74 0" stroke="none" stroke-width="0" fill="#868e96"></path><path d="M3.74 0 C11.66 0.77, 18.18 0.93, 34.82 0 M3.74 0 C15.66 0.19, 27.3 -0.51, 34.82 0 M34.82 0 C37.05 0.47, 37.75 1.78, 38.57 3.74 M34.82 0 C36.83 -0.89, 37.62 2.21, 38.57 3.74 M38.57 3.74 C38.83 5.6, 38.24 7.01, 38.57 11.23 M38.57 3.74 C38.48 5.87, 38.47 8.16, 38.57 11.23 M38.57 11.23 C37.85 13.15, 36.92 14.23, 34.82 14.98 M38.57 11.23 C38.24 13.98, 36.83 14.72, 34.82 14.98 M34.82 14.98 C28.2 15.3, 19.53 15.26, 3.74 14.98 M34.82 14.98 C25.26 15.21, 14.97 14.66, 3.74 14.98 M3.74 14.98 C1.37 15.45, 0.46 14.17, 0 11.23 M3.74 14.98 C1.5 14.47, 0.83 13.98, 0 11.23 M0 11.23 C0.23 9.03, -0.3 7.19, 0 3.74 M0 11.23 C0.19 9.05, -0.12 6.66, 0 3.74 M0 3.74 C0.3 1.69, 0.94 0.44, 3.74 0 M0 3.74 C0.92 0.93, 0.14 0.43, 3.74 0" stroke="#1e1e1e" stroke-width="2" fill="none"></path></g><g stroke-linecap="round" transform="translate(34.65296965349444 16.919422171883525) rotate(337.0766447889431 19.283203125 7.48828125)"><path d="M3.74 0 C13.84 0.6, 28.16 1.61, 34.82 0 C38 0.9, 38.5 2.97, 38.57 3.74 C38.32 6.44, 39.22 9.49, 38.57 11.23 C39.44 15.51, 36.64 15.97, 34.82 14.98 C22.95 16.56, 8.82 16.04, 3.74 14.98 C-1.23 16.25, -1.95 12.98, 0 11.23 C-0.92 8.92, 0.92 6.5, 0 3.74 C-1.28 3, -0.55 1.18, 3.74 0" stroke="none" stroke-width="0" fill="#868e96"></path><path d="M3.74 0 C13.08 0.85, 24.76 -0.72, 34.82 0 M3.74 0 C13.32 -0.55, 23.24 0.17, 34.82 0 M34.82 0 C36.5 0.53, 38.14 0.47, 38.57 3.74 M34.82 0 C36.38 0.96, 37.85 2.38, 38.57 3.74 M38.57 3.74 C38.22 5.75, 38.57 8.14, 38.57 11.23 M38.57 3.74 C38.48 6.41, 38.42 9.01, 38.57 11.23 M38.57 11.23 C38.17 12.98, 37.04 15.2, 34.82 14.98 M38.57 11.23 C38.08 13.47, 36.57 14.98, 34.82 14.98 M34.82 14.98 C25.08 15.33, 16.84 14.63, 3.74 14.98 M34.82 14.98 C24.63 14.68, 14.67 15.28, 3.74 14.98 M3.74 14.98 C1.7 15.41, 0.22 13.29, 0 11.23 M3.74 14.98 C2.08 15.23, -0.38 13.46, 0 11.23 M0 11.23 C-0.33 8.48, 0 5.76, 0 3.74 M0 11.23 C-0.17 8.31, 0.02 5.49, 0 3.74 M0 3.74 C-0.31 1.69, 2.05 -0.27, 3.74 0 M0 3.74 C-1.11 1.68, 0.48 0.91, 3.74 0" stroke="#1e1e1e" stroke-width="2" fill="none"></path></g><g stroke-linecap="round" transform="translate(11.826649814478515 32.545724255215646) rotate(0 42.630859375 38.322265625)"><path d="M19.16 0 C33.03 1.8, 43.23 1.13, 66.1 0 C78.78 2.38, 88.51 7.76, 85.26 19.16 C87.33 33.11, 86.27 50.28, 85.26 57.48 C84.32 71.64, 82.22 76.5, 66.1 76.64 C51.58 78.9, 38.01 78.97, 19.16 76.64 C3.69 75.61, 0.09 70.61, 0 57.48 C4.1 47.92, -1.12 42.27, 0 19.16 C-2.49 8.03, 7.4 0.21, 19.16 0" stroke="none" stroke-width="0" fill="#7950f2"></path><path d="M19.16 0 C38.67 -1.64, 55.19 -0.38, 66.1 0 M19.16 0 C35.03 0.93, 50.63 0.99, 66.1 0 M66.1 0 C78.02 -1.55, 83.62 8.06, 85.26 19.16 M66.1 0 C77.44 2.26, 85.44 7.77, 85.26 19.16 M85.26 19.16 C84.8 30.32, 86.06 43.1, 85.26 57.48 M85.26 19.16 C84.39 28.28, 84.71 37.8, 85.26 57.48 M85.26 57.48 C84.7 70.7, 78.03 76.2, 66.1 76.64 M85.26 57.48 C83.77 70.27, 78.7 78.24, 66.1 76.64 M66.1 76.64 C50.79 75.98, 35.26 78.04, 19.16 76.64 M66.1 76.64 C50.3 76.78, 34.71 76.75, 19.16 76.64 M19.16 76.64 C6.83 75.77, 1.45 70.69, 0 57.48 M19.16 76.64 C5.62 76.1, 1.4 71.64, 0 57.48 M0 57.48 C0.41 47.74, 2.09 40.73, 0 19.16 M0 57.48 C0.56 44.44, -0.04 30.96, 0 19.16 M0 19.16 C1.61 5.84, 4.46 0.74, 19.16 0 M0 19.16 C-1.53 8.2, 7.9 1.77, 19.16 0" stroke="#1e1e1e" stroke-width="2" fill="none"></path></g><g stroke-linecap="round" transform="translate(13.186373760761853 87.12363309975535) rotate(312.47556431009303 13.974609375 10.47265625)"><path d="M5.24 0 C7.91 1.26, 11.41 1.33, 22.71 0 C23.5 -1.04, 28.04 2.1, 27.95 5.24 C29.58 7.26, 26.85 11.33, 27.95 15.71 C25.46 20.84, 27.22 21.15, 22.71 20.95 C21.88 18.51, 17.2 18.12, 5.24 20.95 C2.1 21.35, 0.11 19.13, 0 15.71 C1.69 14.24, -1.39 12.22, 0 5.24 C-3.06 3.06, 2.6 -0.23, 5.24 0" stroke="none" stroke-width="0" fill="#d0bfff"></path><path d="M5.24 0 C10.78 -0.88, 17.49 -0.47, 22.71 0 M5.24 0 C9.03 -0.49, 13.73 -0.64, 22.71 0 M22.71 0 C25.64 0.44, 27.11 1.3, 27.95 5.24 M22.71 0 C24.72 0.02, 27.77 3.34, 27.95 5.24 M27.95 5.24 C28.07 8.31, 28.14 12.89, 27.95 15.71 M27.95 5.24 C27.99 9.04, 28.17 12.57, 27.95 15.71 M27.95 15.71 C28.39 18.33, 27.65 21.38, 22.71 20.95 M27.95 15.71 C27.18 18.66, 27.61 22.32, 22.71 20.95 M22.71 20.95 C18.52 20.6, 15.71 22.67, 5.24 20.95 M22.71 20.95 C16.82 21.32, 10.15 21.32, 5.24 20.95 M5.24 20.95 C3.35 20.4, -1.93 19.94, 0 15.71 M5.24 20.95 C0.21 22.76, 1.52 20.97, 0 15.71 M0 15.71 C0.72 13.69, 0.33 10.92, 0 5.24 M0 15.71 C0.13 12.98, -0.22 9.36, 0 5.24 M0 5.24 C1.26 1.54, 2.41 1.37, 5.24 0 M0 5.24 C-0.6 2.63, 3.88 -0.09, 5.24 0" stroke="#1e1e1e" stroke-width="2" fill="none"></path></g><g stroke-linecap="round" transform="translate(28.10504480902091 45.896403022249615) rotate(312.47556431009303 25.4296875 23.859375)"><path d="M17.87 0.78 C22.45 -1.19, 28.94 -0.29, 34.01 1.71 C39.08 3.72, 45.51 8.29, 48.29 12.79 C51.06 17.29, 51.81 23.67, 50.67 28.71 C49.52 33.75, 45.57 39.8, 41.45 43.03 C37.32 46.26, 31.26 48.33, 25.94 48.1 C20.62 47.86, 13.83 44.92, 9.52 41.61 C5.22 38.31, 1.09 33.21, 0.09 28.27 C-0.91 23.32, 0.11 16.6, 3.5 11.95 C6.9 7.29, 17.22 2.07, 20.46 0.34 C23.7 -1.39, 22.98 1.19, 22.95 1.56 M27.79 -1.38 C32.93 -1.4, 40 1.72, 43.75 5.49 C47.49 9.27, 49.78 16.2, 50.28 21.29 C50.77 26.39, 49.91 31.83, 46.72 36.06 C43.54 40.3, 36.17 45.13, 31.15 46.68 C26.14 48.24, 21.51 47.27, 16.63 45.39 C11.76 43.52, 4.71 39.85, 1.89 35.43 C-0.93 31.01, -1.8 24, -0.31 18.88 C1.18 13.76, 6.46 7.97, 10.81 4.71 C15.16 1.45, 23.13 -0.23, 25.81 -0.7 C28.49 -1.16, 26.89 1.24, 26.89 1.92" stroke="none" stroke-width="0" fill="#d0bfff"></path><path d="M20.96 -0.36 C25.99 -1.5, 32.99 0.18, 37.59 2.81 C42.19 5.44, 46.59 10.64, 48.58 15.44 C50.58 20.25, 51.32 26.88, 49.54 31.62 C47.76 36.36, 42.65 41.28, 37.9 43.89 C33.14 46.5, 26.21 48, 20.99 47.27 C15.78 46.55, 10.24 43.37, 6.63 39.51 C3.02 35.66, -0.58 29.37, -0.66 24.13 C-0.74 18.89, 1.84 12.02, 6.15 8.1 C10.45 4.19, 21.33 1.9, 25.15 0.64 C28.98 -0.63, 29.25 0.19, 29.1 0.5 M31.77 0.02 C36.94 0.82, 43.91 5.88, 47 10.05 C50.09 14.22, 50.68 19.83, 50.31 25.03 C49.93 30.23, 48.56 37.68, 44.74 41.23 C40.93 44.78, 33.01 45.91, 27.41 46.34 C21.8 46.77, 15.57 46.2, 11.13 43.79 C6.69 41.39, 2 36.69, 0.75 31.9 C-0.5 27.11, 1.58 19.97, 3.63 15.06 C5.69 10.15, 8.39 4.7, 13.1 2.41 C17.81 0.12, 28.92 1.43, 31.88 1.33 C34.84 1.23, 30.82 1.59, 30.85 1.8" stroke="#1e1e1e" stroke-width="2" fill="none"></path></g></svg>