<svg version="1.1" xmlns="http://www.w3.org/2000/svg" viewBox="0 0 106.89305606447624 140.8422378015016" width="106.89305606447624" height="140.8422378015016">
  <!-- svg-source:excalidraw -->
  
  <defs>
    <style class="style-fonts">
      @font-face {
        font-family: "Virgil";
        src: url("https://excalidraw.com/Virgil.woff2");
      }
      @font-face {
        font-family: "Cascadia";
        src: url("https://excalidraw.com/Cascadia.woff2");
      }
      @font-face {
        font-family: "Assistant";
        src: url("https://excalidraw.com/Assistant-Regular.woff2");
      }
    </style>
    
  </defs>
  <g stroke-linecap="round" transform="translate(32.64044744318198 109.06643921733757) rotate(337.5387531331347 19.283203125 7.48828125)"><path d="M3.74 0 C17.04 -0.9, 25.89 1.48, 34.82 0 C37.05 0.87, 40.35 0.57, 38.57 3.74 C38.29 6.4, 39.31 8.22, 38.57 11.23 C39.78 11.25, 38.59 13.03, 34.82 14.98 C24.58 12.59, 17.83 17.51, 3.74 14.98 C0.71 13.7, 1.76 11.93, 0 11.23 C-0.86 8.16, -0.13 6.96, 0 3.74 C-1.98 2.89, -1.06 0.26, 3.74 0" stroke="none" stroke-width="0" fill="#868e96"></path><path d="M3.74 0 C12.06 -0.77, 19.97 -0.39, 34.82 0 M3.74 0 C10.34 0.36, 17.6 0.17, 34.82 0 M34.82 0 C37.53 -0.98, 37.77 1.21, 38.57 3.74 M34.82 0 C36.65 0.67, 38.17 0.71, 38.57 3.74 M38.57 3.74 C38.35 5.54, 38.28 7.52, 38.57 11.23 M38.57 3.74 C38.43 6.16, 38.54 8.7, 38.57 11.23 M38.57 11.23 C38.91 13.06, 37.61 15.16, 34.82 14.98 M38.57 11.23 C38.11 14.02, 38.04 15.43, 34.82 14.98 M34.82 14.98 C26.53 15.45, 17.73 15.22, 3.74 14.98 M34.82 14.98 C26.69 14.89, 19.2 15.31, 3.74 14.98 M3.74 14.98 C0.69 14.15, -0.14 13.78, 0 11.23 M3.74 14.98 C1.04 16, 1.15 14.32, 0 11.23 M0 11.23 C0.17 9.39, 0.17 8.09, 0 3.74 M0 11.23 C-0.09 9.34, 0.16 7.29, 0 3.74 M0 3.74 C-0.54 0.76, 1.39 0.64, 3.74 0 M0 3.74 C0.62 1.55, 1.65 -0.03, 3.74 0" stroke="#1e1e1e" stroke-width="2" fill="none"></path></g><g stroke-linecap="round" transform="translate(32.82631983901592 16.919422171883525) rotate(337.0766447889431 19.283203125 7.48828125)"><path d="M3.74 0 C13.65 1.75, 24.49 0.98, 34.82 0 C39.1 -0.68, 39.56 3.66, 38.57 3.74 C39.18 5.37, 38.99 7.25, 38.57 11.23 C39.84 11.78, 36.57 15.04, 34.82 14.98 C25.06 17.09, 15.03 13.32, 3.74 14.98 C3 13.18, 1.18 14.46, 0 11.23 C-0.02 9.84, -0.66 7.27, 0 3.74 C-2.31 1.51, 1.54 0.08, 3.74 0" stroke="none" stroke-width="0" fill="#868e96"></path><path d="M3.74 0 C12.75 -0.3, 19.92 -0.69, 34.82 0 M3.74 0 C15.71 0.15, 27.71 -0.64, 34.82 0 M34.82 0 C36.52 -0.04, 37.99 1.83, 38.57 3.74 M34.82 0 C36.92 -0.54, 38.1 1.16, 38.57 3.74 M38.57 3.74 C38.26 5.35, 38.63 7.01, 38.57 11.23 M38.57 3.74 C38.53 5.95, 38.61 7.78, 38.57 11.23 M38.57 11.23 C38.86 13.91, 36.92 15.23, 34.82 14.98 M38.57 11.23 C39.29 14.18, 37.11 14.15, 34.82 14.98 M34.82 14.98 C25.57 15.27, 15 15.77, 3.74 14.98 M34.82 14.98 C25.13 15.24, 14.55 14.53, 3.74 14.98 M3.74 14.98 C1.11 15.03, -0.18 14.62, 0 11.23 M3.74 14.98 C2.4 15.57, -0.8 13.68, 0 11.23 M0 11.23 C0.15 9.07, -0.12 5.94, 0 3.74 M0 11.23 C0.15 8.85, -0.08 6.09, 0 3.74 M0 3.74 C0.15 1.89, 1.78 0.26, 3.74 0 M0 3.74 C0.4 1.22, 2.01 1.04, 3.74 0" stroke="#1e1e1e" stroke-width="2" fill="none"></path></g><g stroke-linecap="round" transform="translate(10 32.545724255215646) rotate(0 42.630859375 38.322265625)"><path d="M19.16 0 C31.52 0.67, 47.1 -1.47, 66.1 0 C80.26 3.34, 85.12 5.04, 85.26 19.16 C87.41 27.72, 87.49 40.45, 85.26 57.48 C84.22 70.35, 79.23 74.13, 66.1 76.64 C55.66 75.69, 49.13 74.97, 19.16 76.64 C8.03 77.66, 0.21 67.18, 0 57.48 C-2.67 50.17, -3.12 38.67, 0 19.16 C0.4 6.49, 6.32 -2.25, 19.16 0" stroke="none" stroke-width="0" fill="#7950f2"></path><path d="M19.16 0 C27.86 -1.44, 41.33 -1.04, 66.1 0 M19.16 0 C38.07 -1.26, 55.75 -0.32, 66.1 0 M66.1 0 C77.71 1.17, 84.57 5.45, 85.26 19.16 M66.1 0 C77.94 -0.18, 83.61 5.05, 85.26 19.16 M85.26 19.16 C85.42 28.29, 84.53 37.81, 85.26 57.48 M85.26 19.16 C85.57 30.02, 85.53 42.39, 85.26 57.48 M85.26 57.48 C84.46 70.76, 80.13 77.43, 66.1 76.64 M85.26 57.48 C84.85 68.61, 79.15 77.74, 66.1 76.64 M66.1 76.64 C49 78.2, 34.09 76.08, 19.16 76.64 M66.1 76.64 C52.57 76.1, 40.02 76.98, 19.16 76.64 M19.16 76.64 C6.02 78.42, 2 71.29, 0 57.48 M19.16 76.64 C4.78 76.55, 0.68 71.26, 0 57.48 M0 57.48 C-0.71 45.25, 0.57 35.53, 0 19.16 M0 57.48 C-0.79 42.47, -0.11 29.08, 0 19.16 M0 19.16 C1.07 6.91, 7.08 -0.05, 19.16 0 M0 19.16 C1.52 8.46, 7.26 1.7, 19.16 0" stroke="#1e1e1e" stroke-width="2" fill="none"></path></g><g stroke-linecap="round" transform="translate(65.75746355371484 88.17832059975353) rotate(47.524435689906944 13.974609375 10.47265625)"><path d="M5.24 0 C13.73 -0.92, 19.13 2.82, 22.71 0 C26.06 -1.35, 28.42 4.15, 27.95 5.24 C28.96 6.32, 27.49 10.29, 27.95 15.71 C28.3 16.69, 22.84 20.76, 22.71 20.95 C17.92 18.62, 10.31 21.68, 5.24 20.95 C1.95 17.87, -1.8 18.81, 0 15.71 C-1.53 11.78, 0.36 7.54, 0 5.24 C-0.07 -0.5, -1.61 -2.29, 5.24 0" stroke="none" stroke-width="0" fill="#d0bfff"></path><path d="M5.24 0 C11.2 -0.95, 15.94 0.28, 22.71 0 M5.24 0 C10.84 0.14, 17.32 0.68, 22.71 0 M22.71 0 C25.51 -0.94, 27.13 1.59, 27.95 5.24 M22.71 0 C24.56 -1.33, 27.03 0.02, 27.95 5.24 M27.95 5.24 C27.74 7.41, 27.98 10.85, 27.95 15.71 M27.95 5.24 C28.14 9.2, 27.77 13.11, 27.95 15.71 M27.95 15.71 C29.21 19.98, 25.84 19.51, 22.71 20.95 M27.95 15.71 C28.22 20.3, 27.25 21.95, 22.71 20.95 M22.71 20.95 C17.46 20.49, 11.04 22.14, 5.24 20.95 M22.71 20.95 C16.3 20.84, 9.97 21.58, 5.24 20.95 M5.24 20.95 C3.74 21.98, -1.4 19.11, 0 15.71 M5.24 20.95 C2.43 21.95, -0.71 20.21, 0 15.71 M0 15.71 C0.42 11.03, 0.86 8.43, 0 5.24 M0 15.71 C0.13 12.1, 0.34 7.95, 0 5.24 M0 5.24 C0.7 1.69, 3.07 1.8, 5.24 0 M0 5.24 C0.88 3.45, 1.09 -0.53, 5.24 0" stroke="#1e1e1e" stroke-width="2" fill="none"></path></g><g stroke-linecap="round" transform="translate(27.928636255455785 46.951090522249615) rotate(47.524435689906944 25.4296875 23.859375)"><path d="M29.62 1.06 C34.66 1.37, 40.59 3.49, 44.19 7.08 C47.79 10.66, 50.9 17.17, 51.22 22.55 C51.54 27.94, 49.45 35.34, 46.13 39.36 C42.81 43.39, 36.84 45.76, 31.28 46.7 C25.73 47.64, 17.63 47.24, 12.82 44.98 C8.01 42.72, 4.29 37.87, 2.42 33.15 C0.54 28.43, -0.04 21.48, 1.57 16.65 C3.19 11.82, 6.94 6.77, 12.1 4.18 C17.27 1.59, 28.81 1.54, 32.57 1.11 C36.33 0.68, 34.96 1.17, 34.67 1.59 M23.71 0.61 C29.01 -0.13, 37.8 1.73, 42.12 4.74 C46.45 7.76, 48.49 13.85, 49.65 18.69 C50.81 23.52, 51.35 29.49, 49.09 33.77 C46.83 38.06, 41.13 42.43, 36.07 44.39 C31.01 46.35, 24.13 46.8, 18.73 45.55 C13.33 44.3, 6.74 41.17, 3.67 36.89 C0.61 32.62, -0.17 25, 0.34 19.91 C0.84 14.81, 2.48 9.7, 6.68 6.33 C10.88 2.97, 22.75 0.53, 25.54 -0.28 C28.32 -1.08, 23.78 0.96, 23.39 1.52" stroke="none" stroke-width="0" fill="#d0bfff"></path><path d="M25.44 -0.78 C30.51 -1.03, 38.18 2.1, 42.48 5.61 C46.77 9.12, 50.55 15.19, 51.21 20.29 C51.88 25.38, 49.49 31.91, 46.47 36.18 C43.46 40.44, 38.32 44.3, 33.11 45.86 C27.91 47.43, 20.39 47.41, 15.23 45.55 C10.08 43.69, 4.58 39.22, 2.18 34.7 C-0.23 30.17, -0.44 23.44, 0.8 18.39 C2.04 13.33, 4.61 7.34, 9.63 4.35 C14.65 1.37, 26.56 0.77, 30.9 0.48 C35.25 0.19, 35.91 2.16, 35.7 2.61 M28.65 0.68 C33.89 0.57, 39.47 2.31, 43.19 5.95 C46.9 9.6, 50.32 17.17, 50.95 22.55 C51.57 27.94, 50.02 34.3, 46.91 38.25 C43.8 42.2, 37.48 45.01, 32.28 46.27 C27.08 47.52, 20.78 47.91, 15.71 45.78 C10.64 43.66, 4.18 38.08, 1.86 33.53 C-0.46 28.99, 0.43 23.61, 1.8 18.53 C3.17 13.44, 5.78 6.11, 10.07 3.05 C14.35 -0.01, 24.62 0.36, 27.5 0.17 C30.39 -0.02, 27.14 1.39, 27.39 1.9" stroke="#1e1e1e" stroke-width="2" fill="none"></path></g></svg>