<svg version="1.1" xmlns="http://www.w3.org/2000/svg" viewBox="0 0 116.9010881696413 140.8422378015016" width="116.9010881696413" height="140.8422378015016">
  <!-- svg-source:excalidraw -->
  
  <defs>
    <style class="style-fonts">
      @font-face {
        font-family: "Virgil";
        src: url("https://excalidraw.com/Virgil.woff2");
      }
      @font-face {
        font-family: "Cascadia";
        src: url("https://excalidraw.com/Cascadia.woff2");
      }
      @font-face {
        font-family: "Assistant";
        src: url("https://excalidraw.com/Assistant-Regular.woff2");
      }
    </style>
    
  </defs>
  <g stroke-linecap="round" transform="translate(32.64044744318198 109.06643921733757) rotate(337.5387531331347 19.283203125 7.48828125)"><path d="M3.74 0 C15.94 0.2, 26.15 -0.57, 34.82 0 C38.64 -0.9, 37.38 -0.9, 38.57 3.74 C38.9 5.54, 38.68 6.47, 38.57 11.23 C37.94 13.55, 35.61 16.67, 34.82 14.98 C24.05 17.33, 13.09 17.62, 3.74 14.98 C2.82 13.03, -0.18 11.39, 0 11.23 C0.95 8.49, -0.84 7.32, 0 3.74 C-2.34 -0.99, 0.51 -0.49, 3.74 0" stroke="none" stroke-width="0" fill="#868e96"></path><path d="M3.74 0 C10.74 0.2, 18.23 -0.84, 34.82 0 M3.74 0 C13 0.22, 22.62 0.22, 34.82 0 M34.82 0 C37.73 0.21, 39.48 2.21, 38.57 3.74 M34.82 0 C38.11 1.13, 37.72 1.43, 38.57 3.74 M38.57 3.74 C38.61 5.48, 38.63 6.71, 38.57 11.23 M38.57 3.74 C38.53 5.26, 38.42 6.82, 38.57 11.23 M38.57 11.23 C37.66 13.64, 37.56 15.74, 34.82 14.98 M38.57 11.23 C37.45 13.93, 37.99 15.25, 34.82 14.98 M34.82 14.98 C26.17 14.57, 15.72 14.51, 3.74 14.98 M34.82 14.98 C25.85 14.75, 16.47 14.68, 3.74 14.98 M3.74 14.98 C2.23 14.51, -0.97 13.59, 0 11.23 M3.74 14.98 C0.26 14.09, -0.26 13.42, 0 11.23 M0 11.23 C-0.21 9.33, 0.31 7.11, 0 3.74 M0 11.23 C-0.04 8.45, 0.11 5.65, 0 3.74 M0 3.74 C0.26 1.05, 1 -0.92, 3.74 0 M0 3.74 C-0.31 0.88, 2.02 0.53, 3.74 0" stroke="#1e1e1e" stroke-width="2" fill="none"></path></g><g stroke-linecap="round" transform="translate(32.82631983901592 16.919422171883525) rotate(337.0766447889431 19.283203125 7.48828125)"><path d="M3.74 0 C16.12 -0.4, 27.37 -0.97, 34.82 0 C36.14 -2.14, 36.17 -0.65, 38.57 3.74 C38.79 5.09, 38.37 7.16, 38.57 11.23 C36.86 15.42, 39.04 12.44, 34.82 14.98 C25.18 17.78, 15.02 13.37, 3.74 14.98 C1.06 12.63, -1.33 11.53, 0 11.23 C-1.01 9.21, -0.96 6.72, 0 3.74 C-0.74 0.76, 1.89 -0.55, 3.74 0" stroke="none" stroke-width="0" fill="#868e96"></path><path d="M3.74 0 C12.72 -0.92, 20.31 -0.45, 34.82 0 M3.74 0 C11.9 0.11, 20.2 0.06, 34.82 0 M34.82 0 C38.24 0.96, 39.25 2.23, 38.57 3.74 M34.82 0 C36.47 0.18, 37.51 2.24, 38.57 3.74 M38.57 3.74 C38.6 6.54, 38.24 10.02, 38.57 11.23 M38.57 3.74 C38.37 5.76, 38.38 8, 38.57 11.23 M38.57 11.23 C38.81 14.49, 36.35 15.15, 34.82 14.98 M38.57 11.23 C39.24 14, 37.42 16, 34.82 14.98 M34.82 14.98 C27.96 14.59, 20.91 14.06, 3.74 14.98 M34.82 14.98 C24.91 14.57, 15.18 14.66, 3.74 14.98 M3.74 14.98 C0.27 14.83, -0.86 12.96, 0 11.23 M3.74 14.98 C0.99 14.67, -0.49 13.31, 0 11.23 M0 11.23 C0.32 8.08, 0.32 5.72, 0 3.74 M0 11.23 C0.13 8.53, 0.05 5.6, 0 3.74 M0 3.74 C-0.25 0.32, 0.98 -0.32, 3.74 0 M0 3.74 C0.78 1.77, 1.72 -0.24, 3.74 0" stroke="#1e1e1e" stroke-width="2" fill="none"></path></g><g stroke-linecap="round" transform="translate(10 32.545724255215646) rotate(0 42.630859375 38.322265625)"><path d="M19.16 0 C35.87 -1.14, 47.27 -2.86, 66.1 0 C75.56 -2.63, 82.83 7.87, 85.26 19.16 C84.52 31.37, 83.02 46.4, 85.26 57.48 C87.65 66.74, 80.46 77.49, 66.1 76.64 C50.27 74.76, 29.83 74.2, 19.16 76.64 C4.54 73.61, -1.96 73.48, 0 57.48 C-2.59 46.34, -0.37 40.73, 0 19.16 C0.89 5.62, 3.45 -2.65, 19.16 0" stroke="none" stroke-width="0" fill="#7950f2"></path><path d="M19.16 0 C33.99 -0.44, 47.92 -0.25, 66.1 0 M19.16 0 C35.12 0.06, 51.16 0.81, 66.1 0 M66.1 0 C80.25 1.96, 83.79 6.7, 85.26 19.16 M66.1 0 C76.76 1.99, 87.43 6.43, 85.26 19.16 M85.26 19.16 C83.56 34.44, 85 44.95, 85.26 57.48 M85.26 19.16 C83.98 28.96, 85.13 39.69, 85.26 57.48 M85.26 57.48 C83.32 70.6, 80.04 77.12, 66.1 76.64 M85.26 57.48 C85.46 72.31, 77.11 78.8, 66.1 76.64 M66.1 76.64 C53.33 74.74, 41.12 77.63, 19.16 76.64 M66.1 76.64 C55.45 75.87, 41.86 76.19, 19.16 76.64 M19.16 76.64 C4.67 75.11, -0.45 69.73, 0 57.48 M19.16 76.64 C5.4 75.8, 1.94 68.89, 0 57.48 M0 57.48 C1.28 47.08, 1.18 33.84, 0 19.16 M0 57.48 C0 44.66, -0.52 31.31, 0 19.16 M0 19.16 C-0.54 5.75, 7.73 0.92, 19.16 0 M0 19.16 C0.94 5.9, 7.74 1.42, 19.16 0" stroke="#1e1e1e" stroke-width="2" fill="none"></path></g><g stroke-linecap="round" transform="translate(78.9518694196413 59.76933318646752) rotate(0 13.974609375 10.47265625)"><path d="M5.24 0 C11.31 -0.63, 12.7 1.1, 22.71 0 C26.5 -3.52, 30.23 2.18, 27.95 5.24 C29.33 6.25, 28.45 10.54, 27.95 15.71 C28.89 21.21, 28.23 21.58, 22.71 20.95 C16.75 21.08, 17.45 18.18, 5.24 20.95 C1.61 19.68, 3.33 20.1, 0 15.71 C1.12 14.32, 1.37 10.87, 0 5.24 C-1.29 -0.22, -1.2 -0.85, 5.24 0" stroke="none" stroke-width="0" fill="#d0bfff"></path><path d="M5.24 0 C9.29 -0.55, 13.01 -1.48, 22.71 0 M5.24 0 C11.17 -0.48, 17.42 -0.31, 22.71 0 M22.71 0 C24.25 -0.29, 26.23 0.21, 27.95 5.24 M22.71 0 C25.69 -0.61, 26.96 0.9, 27.95 5.24 M27.95 5.24 C28.71 8.51, 28.72 13.98, 27.95 15.71 M27.95 5.24 C28.3 9.41, 28.07 12.96, 27.95 15.71 M27.95 15.71 C27.45 17.35, 25.66 20.3, 22.71 20.95 M27.95 15.71 C29.5 20.25, 27.14 20.46, 22.71 20.95 M22.71 20.95 C17.26 20.75, 11.06 20.37, 5.24 20.95 M22.71 20.95 C17.63 20.19, 14.18 21, 5.24 20.95 M5.24 20.95 C2.12 20.14, -0.48 19.07, 0 15.71 M5.24 20.95 C0.23 22.44, 1.53 16.95, 0 15.71 M0 15.71 C0.4 13.1, 0.61 7.72, 0 5.24 M0 15.71 C-0.35 12.36, 0.56 9.1, 0 5.24 M0 5.24 C-1.9 1.37, -0.05 -1.73, 5.24 0 M0 5.24 C-0.65 1.32, 2.31 -0.49, 5.24 0" stroke="#1e1e1e" stroke-width="2" fill="none"></path></g><g stroke-linecap="round" transform="translate(29.153041294641298 45.73027068646752) rotate(0 25.4296875 23.859375)"><path d="M16.24 1.72 C20.96 -0.11, 29.53 0.51, 34.84 2.44 C40.15 4.37, 45.41 9.08, 48.1 13.29 C50.79 17.51, 52.12 23.02, 50.98 27.73 C49.85 32.43, 45.74 38.35, 41.31 41.54 C36.88 44.73, 29.93 46.67, 24.41 46.87 C18.88 47.07, 12.32 46.1, 8.15 42.72 C3.98 39.34, 0.18 31.93, -0.6 26.58 C-1.38 21.23, 0.16 15.01, 3.48 10.62 C6.79 6.23, 16.04 1.86, 19.31 0.23 C22.58 -1.4, 22.87 0.51, 23.07 0.81 M15.92 1.52 C20.8 -0.67, 29.16 -0.42, 34.13 1.41 C39.1 3.24, 42.97 8.25, 45.74 12.48 C48.5 16.72, 51.13 21.91, 50.74 26.82 C50.34 31.73, 47.32 38.69, 43.34 41.95 C39.37 45.22, 32.5 46.34, 26.9 46.42 C21.3 46.51, 14.08 45.31, 9.74 42.46 C5.41 39.6, 1.83 34.27, 0.87 29.29 C-0.09 24.32, 1.68 17.24, 4.01 12.59 C6.35 7.95, 12.68 3.34, 14.89 1.4 C17.1 -0.54, 16.91 0.37, 17.29 0.94" stroke="none" stroke-width="0" fill="#d0bfff"></path><path d="M14.15 2.55 C18.56 0.29, 26.07 0.69, 31.34 1.8 C36.62 2.9, 42.58 5.31, 45.79 9.19 C49 13.07, 51.14 19.85, 50.62 25.07 C50.1 30.29, 46.52 36.81, 42.65 40.5 C38.78 44.19, 32.75 46.57, 27.39 47.2 C22.03 47.82, 15 47.1, 10.48 44.25 C5.96 41.4, 1.49 35.3, 0.28 30.1 C-0.94 24.9, 0.16 17.77, 3.17 13.06 C6.17 8.35, 15.28 3.89, 18.3 1.85 C21.32 -0.19, 21.24 0.44, 21.28 0.82 M31.34 -0.64 C36.3 0.23, 42.27 4.96, 45.68 9.46 C49.09 13.96, 52.04 21.22, 51.8 26.34 C51.56 31.47, 48.06 36.52, 44.23 40.21 C40.41 43.91, 34.31 47.85, 28.83 48.53 C23.35 49.2, 16.02 47.18, 11.35 44.27 C6.67 41.36, 2.36 36.22, 0.75 31.07 C-0.85 25.92, -0.33 18.37, 1.74 13.35 C3.81 8.34, 8.36 3.24, 13.17 0.97 C17.99 -1.3, 27.45 -0.37, 30.62 -0.27 C33.8 -0.17, 32.09 1.12, 32.21 1.58" stroke="#1e1e1e" stroke-width="2" fill="none"></path></g></svg>