<svg version="1.1" xmlns="http://www.w3.org/2000/svg" viewBox="0 0 114.98702566964312 140.8422378015016" width="114.98702566964312" height="140.8422378015016">
  <!-- svg-source:excalidraw -->
  
  <defs>
    <style class="style-fonts">
      @font-face {
        font-family: "Virgil";
        src: url("https://excalidraw.com/Virgil.woff2");
      }
      @font-face {
        font-family: "Cascadia";
        src: url("https://excalidraw.com/Cascadia.woff2");
      }
      @font-face {
        font-family: "Assistant";
        src: url("https://excalidraw.com/Assistant-Regular.woff2");
      }
    </style>
    
  </defs>
  <g stroke-linecap="round" transform="translate(42.3657543628251 109.06643921733757) rotate(337.5387531331347 19.283203125 7.48828125)"><path d="M3.74 0 C15.48 2.12, 26.69 -2.28, 34.82 0 C37.13 -2.34, 37.23 -0.95, 38.57 3.74 C37.73 5.4, 37.78 6.58, 38.57 11.23 C37.83 13.24, 37.96 14.43, 34.82 14.98 C29.9 14.21, 21.11 15.64, 3.74 14.98 C1.46 12.43, 1.65 14.04, 0 11.23 C0.56 8.51, 0.11 7.48, 0 3.74 C0.68 2.7, 2.71 0.46, 3.74 0" stroke="none" stroke-width="0" fill="#868e96"></path><path d="M3.74 0 C16.09 -0.48, 27.4 0.91, 34.82 0 M3.74 0 C12.12 -0.26, 21.01 0.02, 34.82 0 M34.82 0 C37.56 0.76, 37.6 1.42, 38.57 3.74 M34.82 0 C37.99 0.28, 38.67 2.27, 38.57 3.74 M38.57 3.74 C38.63 5.29, 38.59 6.76, 38.57 11.23 M38.57 3.74 C38.65 6.05, 38.77 8.51, 38.57 11.23 M38.57 11.23 C37.59 13.59, 36.46 14.21, 34.82 14.98 M38.57 11.23 C38.31 13.42, 36.82 14.55, 34.82 14.98 M34.82 14.98 C23.67 14.26, 11.72 15.64, 3.74 14.98 M34.82 14.98 C23.55 15.27, 11.71 14.92, 3.74 14.98 M3.74 14.98 C1 14.05, -0.27 13.41, 0 11.23 M3.74 14.98 C2.02 15.5, 0.47 13.49, 0 11.23 M0 11.23 C0.15 8.5, 0.17 5.73, 0 3.74 M0 11.23 C-0.11 9.2, 0.11 7.47, 0 3.74 M0 3.74 C0.19 0.85, 1.01 -0.07, 3.74 0 M0 3.74 C-0.76 1.99, 2.01 -1.12, 3.74 0" stroke="#1e1e1e" stroke-width="2" fill="none"></path></g><g stroke-linecap="round" transform="translate(42.55162675865904 16.919422171883525) rotate(337.0766447889431 19.283203125 7.48828125)"><path d="M3.74 0 C17.24 -2.32, 27.41 -2.73, 34.82 0 C35.99 -2.19, 37.15 3.57, 38.57 3.74 C37.6 4.48, 38.2 6.7, 38.57 11.23 C39.21 13.18, 35.2 13.06, 34.82 14.98 C26.51 15.69, 18.69 12.34, 3.74 14.98 C2.9 15.29, -1.26 15.8, 0 11.23 C0.12 8.94, 0.19 7.17, 0 3.74 C1.47 1.7, -1.15 -0.35, 3.74 0" stroke="none" stroke-width="0" fill="#868e96"></path><path d="M3.74 0 C13.67 1.05, 25.18 -0.35, 34.82 0 M3.74 0 C11.31 0.06, 19.9 0.48, 34.82 0 M34.82 0 C36.35 0.17, 39.15 1.49, 38.57 3.74 M34.82 0 C37.42 1.03, 37.69 2.32, 38.57 3.74 M38.57 3.74 C38.56 5.45, 38.66 8.02, 38.57 11.23 M38.57 3.74 C38.76 5.51, 38.4 7.43, 38.57 11.23 M38.57 11.23 C37.71 12.96, 37.09 14.71, 34.82 14.98 M38.57 11.23 C38.07 13.31, 38.29 14.29, 34.82 14.98 M34.82 14.98 C26.11 15.52, 16.56 14.76, 3.74 14.98 M34.82 14.98 C24.71 14.95, 14.22 14.59, 3.74 14.98 M3.74 14.98 C0.98 14.66, 0.67 14.19, 0 11.23 M3.74 14.98 C1.72 14.73, 0.68 14.44, 0 11.23 M0 11.23 C0.17 8.73, -0.19 6.18, 0 3.74 M0 11.23 C0.1 9.72, 0.06 8.05, 0 3.74 M0 3.74 C-0.24 1.18, 0.59 0.65, 3.74 0 M0 3.74 C0.76 0.13, 1.75 0.27, 3.74 0" stroke="#1e1e1e" stroke-width="2" fill="none"></path></g><g stroke-linecap="round" transform="translate(19.725306919643117 32.545724255215646) rotate(0 42.630859375 38.322265625)"><path d="M19.16 0 C37.43 -2.61, 54.37 -2.41, 66.1 0 C76.91 3.22, 82.02 2.97, 85.26 19.16 C83.62 29.26, 85.53 39.94, 85.26 57.48 C82.32 67.61, 77.54 79.23, 66.1 76.64 C53.43 73.39, 42.45 77.35, 19.16 76.64 C4.64 79.51, 0.28 72.61, 0 57.48 C0.82 51.3, 1.9 41.72, 0 19.16 C-3.32 5.91, 8.39 -2.66, 19.16 0" stroke="none" stroke-width="0" fill="#7950f2"></path><path d="M19.16 0 C31.02 -1.29, 42.63 -2.42, 66.1 0 M19.16 0 C30.44 0.8, 40.25 0.21, 66.1 0 M66.1 0 C80.04 0.48, 85.43 8.17, 85.26 19.16 M66.1 0 C77.11 2.15, 84.6 6.58, 85.26 19.16 M85.26 19.16 C85.73 30.49, 84.21 40.15, 85.26 57.48 M85.26 19.16 C84.66 27.99, 84.78 36.34, 85.26 57.48 M85.26 57.48 C84.81 69.73, 78.01 75.91, 66.1 76.64 M85.26 57.48 C87.2 68.89, 79.01 78.46, 66.1 76.64 M66.1 76.64 C56.88 76.74, 45.3 78.34, 19.16 76.64 M66.1 76.64 C49.42 75.63, 32.97 76.23, 19.16 76.64 M19.16 76.64 C7.73 77.56, 0.82 69.84, 0 57.48 M19.16 76.64 C7.74 78.06, 0.39 71.34, 0 57.48 M0 57.48 C-1.1 44.83, -2.04 34.01, 0 19.16 M0 57.48 C0.03 48.18, -0.4 39.6, 0 19.16 M0 19.16 C-1.32 7.69, 7.71 -1.95, 19.16 0 M0 19.16 C1.01 6.93, 8.31 0.92, 19.16 0" stroke="#1e1e1e" stroke-width="2" fill="none"></path></g><g stroke-linecap="round" transform="translate(10 58.64210104360882) rotate(0 13.974609375 10.47265625)"><path d="M5.24 0 C7.56 -2.37, 11.4 3.1, 22.71 0 C22.96 -3.41, 27.27 -1.49, 27.95 5.24 C28.36 7.08, 26.36 8.32, 27.95 15.71 C26.61 21.79, 25.35 20.75, 22.71 20.95 C18.92 21.02, 9.61 23.14, 5.24 20.95 C2.03 23.29, -3.1 19.88, 0 15.71 C1.01 12.88, -1.79 9.14, 0 5.24 C2 -0.92, 1.7 2.29, 5.24 0" stroke="none" stroke-width="0" fill="#d0bfff"></path><path d="M5.24 0 C11.47 -1.64, 18.03 -1.51, 22.71 0 M5.24 0 C9.48 0.02, 15.92 0.08, 22.71 0 M22.71 0 C26.38 1.79, 26.42 3.62, 27.95 5.24 M22.71 0 C25.54 0.19, 27.16 1.7, 27.95 5.24 M27.95 5.24 C27.43 7.79, 27.29 10.72, 27.95 15.71 M27.95 5.24 C27.4 7.49, 27.73 10.41, 27.95 15.71 M27.95 15.71 C27.09 18.46, 27.89 19.76, 22.71 20.95 M27.95 15.71 C28.08 21.02, 24.54 22.77, 22.71 20.95 M22.71 20.95 C16.83 22.14, 10.8 21.38, 5.24 20.95 M22.71 20.95 C17.58 20.5, 13.52 21.18, 5.24 20.95 M5.24 20.95 C2.56 20.52, 1.18 20.43, 0 15.71 M5.24 20.95 C2.13 22.03, -0.29 20.37, 0 15.71 M0 15.71 C-0.92 12.16, -0.66 10.58, 0 5.24 M0 15.71 C-0.15 12.27, -0.36 9.24, 0 5.24 M0 5.24 C1.33 -0.21, 2.62 0.47, 5.24 0 M0 5.24 C1.92 2.67, 3.92 1.39, 5.24 0" stroke="#1e1e1e" stroke-width="2" fill="none"></path></g><g stroke-linecap="round" transform="translate(36.888671875 44.60303854360882) rotate(0 25.4296875 23.859375)"><path d="M28.09 -0.26 C33.12 -0.27, 39.28 2.58, 42.91 6.12 C46.53 9.66, 49.38 15.69, 49.83 20.98 C50.29 26.28, 48.54 33.55, 45.62 37.9 C42.71 42.25, 37.54 45.85, 32.33 47.07 C27.12 48.3, 19.34 47.56, 14.35 45.27 C9.35 42.98, 4.49 37.82, 2.35 33.34 C0.2 28.87, 0.25 23.17, 1.5 18.41 C2.74 13.65, 4.38 7.5, 9.81 4.79 C15.25 2.09, 29.12 2.09, 34.11 2.19 C39.1 2.29, 39.82 5.3, 39.74 5.41 M23.26 -0.8 C28.87 -1.38, 38.15 0.46, 42.42 3.7 C46.69 6.93, 48.19 13.59, 48.88 18.6 C49.57 23.61, 48.93 29.24, 46.54 33.76 C44.15 38.27, 39.31 43.62, 34.54 45.7 C29.78 47.78, 23.27 47.95, 17.95 46.24 C12.64 44.52, 5.69 39.51, 2.65 35.41 C-0.4 31.31, -1.21 26.52, -0.31 21.63 C0.59 16.74, 3.83 9.64, 8.05 6.06 C12.27 2.48, 22.49 0.91, 25 0.14 C27.5 -0.63, 23.11 1.19, 23.08 1.44" stroke="none" stroke-width="0" fill="#d0bfff"></path><path d="M15.06 1.44 C19.62 -0.91, 26.58 -0.12, 31.77 1.3 C36.97 2.71, 42.94 6.02, 46.25 9.94 C49.57 13.85, 51.96 19.74, 51.69 24.78 C51.42 29.81, 48.57 36.41, 44.64 40.16 C40.72 43.9, 33.73 46.81, 28.15 47.25 C22.57 47.68, 15.66 45.46, 11.17 42.76 C6.68 40.05, 2.8 35.71, 1.22 30.99 C-0.36 26.28, -0.59 19.14, 1.69 14.45 C3.96 9.76, 12.41 5.12, 14.88 2.86 C17.36 0.6, 16.27 0.83, 16.52 0.89 M15.24 1.19 C20.19 -1, 29.23 -1.59, 34.54 0.27 C39.84 2.14, 44.57 7.71, 47.07 12.39 C49.57 17.07, 50.14 23.3, 49.53 28.35 C48.93 33.4, 47.34 39.39, 43.44 42.69 C39.55 45.99, 31.61 48.02, 26.17 48.15 C20.73 48.27, 15.03 46.69, 10.83 43.42 C6.62 40.15, 2.32 33.89, 0.95 28.53 C-0.42 23.18, 0.17 15.83, 2.59 11.29 C5.01 6.74, 13.07 2.66, 15.48 1.26 C17.9 -0.14, 16.76 2.48, 17.09 2.87" stroke="#1e1e1e" stroke-width="2" fill="none"></path></g></svg>