<svg version="1.1" xmlns="http://www.w3.org/2000/svg" viewBox="0 0 108.91314535019 140.8422378015016" width="108.91314535019" height="140.8422378015016">
  <!-- svg-source:excalidraw -->
  
  <defs>
    <style class="style-fonts">
      @font-face {
        font-family: "Virgil";
        src: url("https://excalidraw.com/Virgil.woff2");
      }
      @font-face {
        font-family: "Cascadia";
        src: url("https://excalidraw.com/Cascadia.woff2");
      }
      @font-face {
        font-family: "Assistant";
        src: url("https://excalidraw.com/Assistant-Regular.woff2");
      }
    </style>
    
  </defs>
  <g stroke-linecap="round" transform="translate(37.70629165700802 109.06643921733757) rotate(22.461246866865288 19.283203125 7.48828125)"><path d="M3.74 0 C12.31 1.79, 23.94 -1.94, 34.82 0 C36.58 0.2, 36.45 3.76, 38.57 3.74 C39.18 6.76, 39.24 10.69, 38.57 11.23 C39.28 12.85, 37.81 16.28, 34.82 14.98 C24.21 12.76, 13.31 14.2, 3.74 14.98 C0.31 13.67, -0.86 13.93, 0 11.23 C-0.87 9.19, 0.7 8.46, 0 3.74 C1.47 -0.24, -0.14 -0.84, 3.74 0" stroke="none" stroke-width="0" fill="#868e96"></path><path d="M3.74 0 C12.72 -0.49, 22.09 0.98, 34.82 0 M3.74 0 C11.05 -0.45, 17.43 -0.65, 34.82 0 M34.82 0 C37.88 -0.84, 37.77 1.98, 38.57 3.74 M34.82 0 C37.23 -0.57, 38.68 1.97, 38.57 3.74 M38.57 3.74 C38.35 5.55, 38.8 6.57, 38.57 11.23 M38.57 3.74 C38.54 5.33, 38.42 6.88, 38.57 11.23 M38.57 11.23 C38.53 13.33, 37.64 14.28, 34.82 14.98 M38.57 11.23 C37.66 13.42, 38.18 15.32, 34.82 14.98 M34.82 14.98 C24.46 14.5, 14.02 15.95, 3.74 14.98 M34.82 14.98 C26.39 14.61, 17.63 15.45, 3.74 14.98 M3.74 14.98 C1.29 14.95, -0.11 13.69, 0 11.23 M3.74 14.98 C0.59 15.57, -0.86 13.73, 0 11.23 M0 11.23 C0.2 9.58, 0.07 7.27, 0 3.74 M0 11.23 C0 9.27, 0.01 7.23, 0 3.74 M0 3.74 C0.34 1.95, 1.29 0.89, 3.74 0 M0 3.74 C-0.14 2, 0.92 -1.08, 3.74 0" stroke="#1e1e1e" stroke-width="2" fill="none"></path></g><g stroke-linecap="round" transform="translate(37.5204192611759 16.919422171883525) rotate(22.923355211056883 19.283203125 7.48828125)"><path d="M3.74 0 C8.82 -2.54, 15.72 -0.01, 34.82 0 C35.2 2.52, 41.13 -0.03, 38.57 3.74 C39.36 7.21, 38.9 8.4, 38.57 11.23 C39.06 15.03, 39.34 13.56, 34.82 14.98 C28.29 13.98, 16.91 13.34, 3.74 14.98 C0.39 15.18, -1.97 12.89, 0 11.23 C0.76 9.52, 0.64 6.08, 0 3.74 C-1.39 0.4, 3.46 1.49, 3.74 0" stroke="none" stroke-width="0" fill="#868e96"></path><path d="M3.74 0 C12.31 1.05, 21.38 0.49, 34.82 0 M3.74 0 C15.8 -0.41, 28.56 -0.33, 34.82 0 M34.82 0 C36.53 0.73, 38.49 0.75, 38.57 3.74 M34.82 0 C37.43 0.72, 37.57 1.42, 38.57 3.74 M38.57 3.74 C38.77 5.96, 38.22 8.74, 38.57 11.23 M38.57 3.74 C38.44 5.3, 38.56 6.86, 38.57 11.23 M38.57 11.23 C38.89 13.03, 36.53 14.7, 34.82 14.98 M38.57 11.23 C39.42 14.07, 37.73 14.34, 34.82 14.98 M34.82 14.98 C25.96 15.9, 16.66 14.27, 3.74 14.98 M34.82 14.98 C24.62 15.28, 14.48 14.83, 3.74 14.98 M3.74 14.98 C1.14 14.94, -0.57 14.24, 0 11.23 M3.74 14.98 C0.38 14.98, -0.42 14.85, 0 11.23 M0 11.23 C0.08 8.53, -0.1 5.57, 0 3.74 M0 11.23 C-0.01 9.83, 0.07 8.22, 0 3.74 M0 3.74 C0.04 2.14, 1.12 0.66, 3.74 0 M0 3.74 C-0.33 0.17, 1.77 -0.57, 3.74 0" stroke="#1e1e1e" stroke-width="2" fill="none"></path></g><g stroke-linecap="round" transform="translate(13.651426600190007 32.545724255215646) rotate(0 42.630859375 38.322265625)"><path d="M19.16 0 C34.75 1.04, 49.45 4.24, 66.1 0 C82.43 -1.77, 86.45 8.83, 85.26 19.16 C86.76 29.57, 86.46 44.21, 85.26 57.48 C88.06 68.3, 77.91 78.2, 66.1 76.64 C54.54 74.62, 44.37 76.71, 19.16 76.64 C3.66 75.48, 0.26 66.94, 0 57.48 C1.56 45.37, -2.4 36.21, 0 19.16 C3.06 8.44, 6.17 1.63, 19.16 0" stroke="none" stroke-width="0" fill="#7950f2"></path><path d="M19.16 0 C29.41 0.38, 44.6 0.96, 66.1 0 M19.16 0 C30.98 -0.37, 40.87 1.2, 66.1 0 M66.1 0 C78.71 -1, 85.45 7.64, 85.26 19.16 M66.1 0 C76.88 0.34, 86.31 5.05, 85.26 19.16 M85.26 19.16 C83.73 31.82, 83.76 46.31, 85.26 57.48 M85.26 19.16 C84.97 30.27, 85.33 41.47, 85.26 57.48 M85.26 57.48 C83.69 69.71, 80.37 77.24, 66.1 76.64 M85.26 57.48 C86.09 68.99, 78.61 76.85, 66.1 76.64 M66.1 76.64 C53.71 75.85, 42.81 77.72, 19.16 76.64 M66.1 76.64 C55.91 77.01, 45.51 77.01, 19.16 76.64 M19.16 76.64 C5.24 77.67, -1.5 70.26, 0 57.48 M19.16 76.64 C5.55 78.89, 1.35 71.71, 0 57.48 M0 57.48 C-0.53 41.19, -1.91 27.72, 0 19.16 M0 57.48 C0.37 44.18, 0.07 30.36, 0 19.16 M0 19.16 C-0.25 7.7, 5.82 -1.87, 19.16 0 M0 19.16 C1.05 5.25, 4.19 -1.92, 19.16 0" stroke="#1e1e1e" stroke-width="2" fill="none"></path></g><g stroke-linecap="round" transform="translate(13.186373760761398 31.768827916034752) rotate(47.524435689906944 13.974609375 10.47265625)"><path d="M5.24 0 C10.77 1.56, 10.7 -1.9, 22.71 0 C25.03 3.06, 30.01 1.53, 27.95 5.24 C27.93 8.62, 26.9 14.09, 27.95 15.71 C30.11 17.93, 25.64 17.91, 22.71 20.95 C13.67 19.94, 13 23.66, 5.24 20.95 C1.56 21.19, 2.01 17.87, 0 15.71 C1.52 13.51, -1.47 10.75, 0 5.24 C2.67 -1.02, 4.46 -2.13, 5.24 0" stroke="none" stroke-width="0" fill="#a5d8ff"></path><path d="M5.24 0 C9.19 -1.43, 15.11 1.25, 22.71 0 M5.24 0 C10.9 0.17, 16.36 0.18, 22.71 0 M22.71 0 C28.19 -0.47, 26.69 2.3, 27.95 5.24 M22.71 0 C26.9 -1.88, 27.85 3.71, 27.95 5.24 M27.95 5.24 C27.91 7.83, 28.49 10.83, 27.95 15.71 M27.95 5.24 C28.22 8.71, 28.35 11.67, 27.95 15.71 M27.95 15.71 C27.84 18.77, 24.65 19.14, 22.71 20.95 M27.95 15.71 C27.63 20.71, 26 23, 22.71 20.95 M22.71 20.95 C18.43 20.74, 12.19 20.46, 5.24 20.95 M22.71 20.95 C18.27 20.13, 15.97 20.43, 5.24 20.95 M5.24 20.95 C-0.04 20.37, 0.16 17.57, 0 15.71 M5.24 20.95 C3.97 23.22, -1.13 19.96, 0 15.71 M0 15.71 C1.04 12.14, -0.36 8.2, 0 5.24 M0 15.71 C-0.22 12.27, -0.51 8.77, 0 5.24 M0 5.24 C-0.51 1.03, 0.74 -0.66, 5.24 0 M0 5.24 C0.18 0.01, 1 0.16, 5.24 0" stroke="#1e1e1e" stroke-width="2" fill="none"></path></g><g stroke-linecap="round" transform="translate(28.105044809020455 46.22262049353867) rotate(47.524435689906944 25.4296875 23.859375)"><path d="M37.59 3.42 C42.17 5.61, 46.82 10.9, 49 15.56 C51.17 20.22, 52.37 26.62, 50.65 31.4 C48.93 36.18, 43.36 41.41, 38.67 44.22 C33.98 47.04, 27.94 49.04, 22.51 48.28 C17.08 47.52, 9.75 43.69, 6.07 39.64 C2.39 35.59, 0.45 29.1, 0.45 23.99 C0.45 18.89, 2.87 12.99, 6.07 9 C9.27 5.01, 14.32 0.97, 19.67 0.04 C25.01 -0.88, 34.99 2.78, 38.15 3.46 C41.31 4.15, 38.77 3.99, 38.62 4.16 M21.52 -0.44 C26.24 -1.88, 32.21 -0.23, 37.04 2.55 C41.86 5.33, 48.43 11.27, 50.48 16.25 C52.53 21.22, 51.43 27.9, 49.35 32.39 C47.28 36.88, 42.7 40.73, 38.04 43.21 C33.38 45.68, 26.83 47.64, 21.39 47.22 C15.95 46.81, 8.8 44.66, 5.38 40.73 C1.97 36.81, 0.89 29.19, 0.9 23.66 C0.92 18.12, 2.06 11.58, 5.49 7.51 C8.93 3.45, 19.2 0.6, 21.51 -0.73 C23.83 -2.06, 19.53 -1.25, 19.41 -0.45" stroke="none" stroke-width="0" fill="#a5d8ff"></path><path d="M34.14 1.52 C39.04 2.87, 45.12 7.29, 47.84 11.96 C50.56 16.63, 51.58 24.57, 50.46 29.55 C49.33 34.53, 45.3 38.79, 41.07 41.86 C36.85 44.94, 30.65 48.04, 25.1 48.02 C19.56 47.99, 11.8 45.14, 7.81 41.72 C3.81 38.3, 1.83 32.56, 1.14 27.49 C0.46 22.43, 1 15.8, 3.68 11.33 C6.37 6.87, 11.7 2.29, 17.26 0.68 C22.83 -0.93, 33.62 1.21, 37.1 1.66 C40.58 2.11, 38.25 2.8, 38.14 3.38 M33.26 0.86 C37.87 1.79, 43 5.34, 45.86 9.9 C48.72 14.46, 50.99 22.7, 50.4 28.21 C49.8 33.72, 46.21 39.54, 42.28 42.97 C38.34 46.39, 32.19 48.59, 26.77 48.76 C21.36 48.93, 14.19 47.13, 9.79 43.97 C5.39 40.8, 1.56 35.21, 0.36 29.76 C-0.84 24.3, -0.14 16.01, 2.58 11.21 C5.29 6.41, 11.75 2.85, 16.63 0.98 C21.52 -0.9, 29.01 -0.05, 31.91 -0.07 C34.8 -0.08, 34.1 0.38, 33.99 0.9" stroke="#1e1e1e" stroke-width="2" fill="none"></path></g></svg>