<svg version="1.1" xmlns="http://www.w3.org/2000/svg" viewBox="0 0 108.67877035019364 140.8422378015016" width="108.67877035019364" height="140.8422378015016">
  <!-- svg-source:excalidraw -->
  
  <defs>
    <style class="style-fonts">
      @font-face {
        font-family: "Virgil";
        src: url("https://excalidraw.com/Virgil.woff2");
      }
      @font-face {
        font-family: "Cascadia";
        src: url("https://excalidraw.com/Cascadia.woff2");
      }
      @font-face {
        font-family: "Assistant";
        src: url("https://excalidraw.com/Assistant-Regular.woff2");
      }
    </style>
    
  </defs>
  <g stroke-linecap="round" transform="translate(34.05486505681802 109.06643921733757) rotate(22.461246866865288 19.283203125 7.48828125)"><path d="M3.74 0 C11.62 1.66, 21.92 0.44, 34.82 0 C36.44 0.49, 39.87 3.27, 38.57 3.74 C37.75 6.32, 38.29 7.07, 38.57 11.23 C37.26 12.87, 37.52 13.01, 34.82 14.98 C25.52 16.39, 19.75 16.07, 3.74 14.98 C-0.24 13.58, -0.84 15.94, 0 11.23 C-0.26 7.81, 0.03 5.76, 0 3.74 C-1.38 3.48, 2.81 -0.92, 3.74 0" stroke="none" stroke-width="0" fill="#868e96"></path><path d="M3.74 0 C10.88 -0.88, 20.42 -0.17, 34.82 0 M3.74 0 C11.08 -0.02, 19.51 -0.39, 34.82 0 M34.82 0 C37.87 0.6, 37.57 0.37, 38.57 3.74 M34.82 0 C36.77 -1, 38.51 1.25, 38.57 3.74 M38.57 3.74 C38.41 5.62, 38.3 6.96, 38.57 11.23 M38.57 3.74 C38.66 5.68, 38.57 7.85, 38.57 11.23 M38.57 11.23 C38.11 13.82, 38.31 14.74, 34.82 14.98 M38.57 11.23 C37.84 14.05, 37.67 14.04, 34.82 14.98 M34.82 14.98 C25.6 14.87, 16.41 14.41, 3.74 14.98 M34.82 14.98 C23.72 15.46, 13.27 15.29, 3.74 14.98 M3.74 14.98 C2.1 15.25, -0.05 13.51, 0 11.23 M3.74 14.98 C0.36 13.94, -0.16 14.48, 0 11.23 M0 11.23 C0.23 9.07, 0.3 6.82, 0 3.74 M0 11.23 C0.1 8.4, -0.17 5.6, 0 3.74 M0 3.74 C0.54 0.75, 0.36 -0.29, 3.74 0 M0 3.74 C0.09 0.31, 2.36 1.14, 3.74 0" stroke="#1e1e1e" stroke-width="2" fill="none"></path></g><g stroke-linecap="round" transform="translate(33.86899266098408 16.919422171883525) rotate(22.923355211056883 19.283203125 7.48828125)"><path d="M3.74 0 C17.76 0.41, 25.73 0.19, 34.82 0 C38.62 2.02, 37.15 0.55, 38.57 3.74 C38.24 5.96, 38 8.56, 38.57 11.23 C38.77 11.76, 36.48 15.16, 34.82 14.98 C29.94 16.72, 20.42 13.86, 3.74 14.98 C0.4 17.19, 1.49 13.57, 0 11.23 C0.05 8.53, -0.49 6.9, 0 3.74 C1.56 0.33, 0.84 -2.19, 3.74 0" stroke="none" stroke-width="0" fill="#868e96"></path><path d="M3.74 0 C15.56 0.04, 25.41 0.22, 34.82 0 M3.74 0 C15.25 -0.31, 26.57 0.28, 34.82 0 M34.82 0 C36.33 -0.88, 38.09 0.38, 38.57 3.74 M34.82 0 C37.26 0, 37.81 0.98, 38.57 3.74 M38.57 3.74 C38.29 5.67, 38.45 8.46, 38.57 11.23 M38.57 3.74 C38.56 6.23, 38.49 8.7, 38.57 11.23 M38.57 11.23 C39.56 13.49, 36.69 15.25, 34.82 14.98 M38.57 11.23 C38.92 12.79, 37.27 15.96, 34.82 14.98 M34.82 14.98 C25.32 14.39, 16.4 14.21, 3.74 14.98 M34.82 14.98 C25.79 15.44, 16.59 15.27, 3.74 14.98 M3.74 14.98 C1.2 14.76, -0.77 12.82, 0 11.23 M3.74 14.98 C1.09 15.73, -0.1 14.76, 0 11.23 M0 11.23 C0.31 8.69, 0.22 6.13, 0 3.74 M0 11.23 C-0.2 9.53, 0.08 8.05, 0 3.74 M0 3.74 C-0.89 0.96, 1.33 -0.81, 3.74 0 M0 3.74 C1.11 2.38, 0.68 0.38, 3.74 0" stroke="#1e1e1e" stroke-width="2" fill="none"></path></g><g stroke-linecap="round" transform="translate(10 32.545724255215646) rotate(0 42.630859375 38.322265625)"><path d="M19.16 0 C35.52 0.45, 56.11 2.56, 66.1 0 C76.92 -0.96, 86.82 3.46, 85.26 19.16 C83.28 32.36, 85.37 45.22, 85.26 57.48 C84.1 70.52, 75.55 75.29, 66.1 76.64 C46.74 75.2, 30.32 80.18, 19.16 76.64 C8.44 76.43, 1.63 69.27, 0 57.48 C-1.92 52.01, 2.15 39.09, 0 19.16 C-0.56 3.35, 8.42 -2.76, 19.16 0" stroke="none" stroke-width="0" fill="#7950f2"></path><path d="M19.16 0 C28.53 0.23, 41.15 -1.7, 66.1 0 M19.16 0 C34.49 0.88, 47.72 -0.61, 66.1 0 M66.1 0 C77.91 -1.74, 85.16 6.39, 85.26 19.16 M66.1 0 C77.36 -0.54, 85.17 5.47, 85.26 19.16 M85.26 19.16 C84.45 33.38, 85.59 45.34, 85.26 57.48 M85.26 19.16 C84.76 28.63, 86.21 37.68, 85.26 57.48 M85.26 57.48 C84 70.81, 79.48 75.01, 66.1 76.64 M85.26 57.48 C85.16 72.22, 78.98 76.57, 66.1 76.64 M66.1 76.64 C53.56 74.87, 38.96 75.65, 19.16 76.64 M66.1 76.64 C48.28 77.22, 28.72 76.73, 19.16 76.64 M19.16 76.64 C4.84 74.84, -0.28 71.57, 0 57.48 M19.16 76.64 C6.19 78.7, 0.78 71.88, 0 57.48 M0 57.48 C0.97 45.27, -2.21 35.1, 0 19.16 M0 57.48 C0.9 47.39, -0.53 38.01, 0 19.16 M0 19.16 C0.16 4.76, 8.32 1.98, 19.16 0 M0 19.16 C-1.13 7.15, 7.95 0.08, 19.16 0" stroke="#1e1e1e" stroke-width="2" fill="none"></path></g><g stroke-linecap="round" transform="translate(67.54317783943225 30.81458684460722) rotate(312.47556431009303 13.974609375 10.47265625)"><path d="M5.24 0 C8.99 0.41, 12.45 -0.86, 22.71 0 C26.46 -3.32, 26.59 4.22, 27.95 5.24 C27.05 8.4, 29.66 13.87, 27.95 15.71 C27.73 20.83, 25.22 18.18, 22.71 20.95 C20.14 22.67, 11.04 20.29, 5.24 20.95 C-1.29 22.97, -2.76 15.94, 0 15.71 C1.84 13.41, 0.17 12.35, 0 5.24 C-1.33 2.43, 2.78 -3.37, 5.24 0" stroke="none" stroke-width="0" fill="#a5d8ff"></path><path d="M5.24 0 C7.23 -0.01, 12.26 -1.07, 22.71 0 M5.24 0 C10.35 -0.54, 14.22 -0.17, 22.71 0 M22.71 0 C27.69 0.6, 28.67 0.64, 27.95 5.24 M22.71 0 C25.94 0.2, 26.89 1.97, 27.95 5.24 M27.95 5.24 C28.21 9.73, 27.07 13.55, 27.95 15.71 M27.95 5.24 C27.9 9.25, 27.65 13.58, 27.95 15.71 M27.95 15.71 C26.44 19.2, 25.47 22.9, 22.71 20.95 M27.95 15.71 C29.3 20.65, 28.15 21.58, 22.71 20.95 M22.71 20.95 C15.98 20.57, 13.55 20.66, 5.24 20.95 M22.71 20.95 C15.94 21.85, 8.99 21.64, 5.24 20.95 M5.24 20.95 C1.18 19.07, 0.91 18.21, 0 15.71 M5.24 20.95 C-0.45 19.03, 1.24 18.06, 0 15.71 M0 15.71 C-0.82 14.52, 1.06 10.78, 0 5.24 M0 15.71 C0.32 12.74, 0.07 8.56, 0 5.24 M0 5.24 C0.38 2.75, 3.3 -1.09, 5.24 0 M0 5.24 C-0.62 2.74, -0.12 1.74, 5.24 0" stroke="#1e1e1e" stroke-width="2" fill="none"></path></g><g stroke-linecap="round" transform="translate(29.71435054117319 45.26837942211296) rotate(312.47556431009303 25.4296875 23.859375)"><path d="M13.26 1.77 C17.8 -0.81, 25.46 -0.77, 30.72 0.66 C35.98 2.09, 41.32 6.39, 44.84 10.36 C48.35 14.33, 51.88 19.42, 51.82 24.48 C51.76 29.54, 48.31 36.74, 44.46 40.71 C40.61 44.67, 34 47.68, 28.71 48.27 C23.41 48.85, 17.35 47.07, 12.7 44.22 C8.05 41.37, 2.52 35.95, 0.82 31.16 C-0.89 26.36, 0.02 20.4, 2.47 15.44 C4.92 10.48, 12.76 3.89, 15.52 1.41 C18.28 -1.07, 18.66 0.19, 19.03 0.56 M21.01 -0.75 C26.09 -1.82, 33.07 0.62, 37.55 3.24 C42.03 5.87, 45.76 10.09, 47.9 15.02 C50.04 19.95, 51.86 28.05, 50.4 32.81 C48.93 37.58, 44.11 41.26, 39.1 43.6 C34.09 45.95, 25.64 47.47, 20.34 46.89 C15.04 46.31, 10.71 43.85, 7.31 40.15 C3.9 36.44, 0.22 30.11, -0.09 24.66 C-0.4 19.21, 1.96 11.54, 5.46 7.47 C8.96 3.39, 18.46 1.08, 20.92 0.2 C23.37 -0.69, 19.96 1.81, 20.18 2.14" stroke="none" stroke-width="0" fill="#a5d8ff"></path><path d="M16.8 1.61 C21.52 -0.38, 28.79 -1.1, 33.89 0.82 C38.99 2.73, 44.62 8.41, 47.42 13.08 C50.22 17.75, 51.78 23.95, 50.68 28.82 C49.58 33.69, 45.12 39.24, 40.84 42.31 C36.57 45.39, 30.36 47.17, 25.02 47.25 C19.69 47.34, 12.96 46.22, 8.8 42.83 C4.65 39.44, 0.88 32.08, 0.07 26.91 C-0.74 21.75, 0.65 16.25, 3.93 11.84 C7.21 7.42, 16.25 2.28, 19.74 0.4 C23.24 -1.48, 24.69 0.18, 24.9 0.56 M23.84 0.01 C29.06 -0.27, 36.3 3.4, 40.87 6.77 C45.44 10.14, 49.92 15.4, 51.27 20.24 C52.61 25.08, 51.75 31.56, 48.95 35.82 C46.15 40.08, 39.97 44.27, 34.48 45.81 C28.99 47.35, 21.18 46.51, 16.01 45.07 C10.83 43.63, 6.07 41.08, 3.43 37.15 C0.8 33.21, -0.79 26.52, 0.18 21.49 C1.15 16.45, 5.1 10.28, 9.24 6.92 C13.38 3.56, 22.43 2.25, 25.03 1.34 C27.62 0.43, 24.86 1.52, 24.79 1.46" stroke="#1e1e1e" stroke-width="2" fill="none"></path></g></svg>