<svg version="1.1" xmlns="http://www.w3.org/2000/svg" viewBox="0 0 107.08836856447897 140.8422378015016" width="107.08836856447897" height="140.8422378015016">
  <!-- svg-source:excalidraw -->
  
  <defs>
    <style class="style-fonts">
      @font-face {
        font-family: "Virgil";
        src: url("https://excalidraw.com/Virgil.woff2");
      }
      @font-face {
        font-family: "Cascadia";
        src: url("https://excalidraw.com/Cascadia.woff2");
      }
      @font-face {
        font-family: "Assistant";
        src: url("https://excalidraw.com/Assistant-Regular.woff2");
      }
    </style>
    
  </defs>
  <g stroke-linecap="round" transform="translate(34.05486505681802 109.06643921733757) rotate(22.461246866865288 19.283203125 7.48828125)"><path d="M3.74 0 C13.27 1.67, 19.36 2.35, 34.82 0 C38.03 -0.14, 38.01 -0.77, 38.57 3.74 C38.47 6.19, 38.88 7.57, 38.57 11.23 C38.67 16.04, 37 16.68, 34.82 14.98 C25.09 12.68, 15.77 16.56, 3.74 14.98 C-0.04 12.66, -0.74 13.93, 0 11.23 C-0.57 9.92, 0.57 7.99, 0 3.74 C1.93 3.84, 1.96 -0.87, 3.74 0" stroke="none" stroke-width="0" fill="#868e96"></path><path d="M3.74 0 C11.82 -0.81, 18.32 -0.32, 34.82 0 M3.74 0 C14.16 0, 23.83 -0.2, 34.82 0 M34.82 0 C37.4 0.09, 38.4 0.57, 38.57 3.74 M34.82 0 C37.83 -0.93, 38.3 0.22, 38.57 3.74 M38.57 3.74 C38.3 5.42, 38.36 6.94, 38.57 11.23 M38.57 3.74 C38.68 5.69, 38.74 7.17, 38.57 11.23 M38.57 11.23 C38.13 12.73, 37.88 14.14, 34.82 14.98 M38.57 11.23 C37.66 14.57, 37.23 14.4, 34.82 14.98 M34.82 14.98 C25.35 15.3, 15 15.4, 3.74 14.98 M34.82 14.98 C23.38 14.41, 12.4 14.84, 3.74 14.98 M3.74 14.98 C0.59 14.74, -0.04 13.33, 0 11.23 M3.74 14.98 C1.62 14.17, -0.9 13.42, 0 11.23 M0 11.23 C-0.22 8.38, 0.02 5.45, 0 3.74 M0 11.23 C-0.16 8.97, 0.02 6.44, 0 3.74 M0 3.74 C-0.04 2.1, 1.29 -0.03, 3.74 0 M0 3.74 C-0.13 1.21, 0.59 0.59, 3.74 0" stroke="#1e1e1e" stroke-width="2" fill="none"></path></g><g stroke-linecap="round" transform="translate(33.868992660984986 16.919422171883525) rotate(22.923355211056883 19.283203125 7.48828125)"><path d="M3.74 0 C13.58 1.97, 20.83 -0.37, 34.82 0 C36.76 -2.01, 36.22 0.89, 38.57 3.74 C38.89 7.17, 38.6 10.08, 38.57 11.23 C38.25 15.43, 36.58 12.54, 34.82 14.98 C21.92 15.99, 12.06 12.27, 3.74 14.98 C0.51 15.18, -2.12 16.25, 0 11.23 C0.71 8.28, 0.77 6.23, 0 3.74 C0.71 0.37, 1.74 1.3, 3.74 0" stroke="none" stroke-width="0" fill="#868e96"></path><path d="M3.74 0 C15.6 -0.06, 28.82 -0.68, 34.82 0 M3.74 0 C15.35 -0.12, 27.06 0.01, 34.82 0 M34.82 0 C37.15 -0.67, 39.01 0.44, 38.57 3.74 M34.82 0 C37.05 -1.03, 37.72 0.89, 38.57 3.74 M38.57 3.74 C38.35 5.85, 38.3 8.68, 38.57 11.23 M38.57 3.74 C38.72 5.31, 38.5 6.91, 38.57 11.23 M38.57 11.23 C39.13 12.89, 36.53 15.71, 34.82 14.98 M38.57 11.23 C38.47 13.15, 37.43 15.7, 34.82 14.98 M34.82 14.98 C27.61 15.6, 22.17 14.06, 3.74 14.98 M34.82 14.98 C28.21 14.84, 21.31 14.72, 3.74 14.98 M3.74 14.98 C1.21 14.58, 0.32 13.03, 0 11.23 M3.74 14.98 C0.34 14.66, 0.86 14.07, 0 11.23 M0 11.23 C0.05 8.54, 0.06 6.57, 0 3.74 M0 11.23 C0.08 9.01, 0.02 7.25, 0 3.74 M0 3.74 C0.05 1.22, 1.14 -0.04, 3.74 0 M0 3.74 C-0.66 1.84, 0.38 0, 3.74 0" stroke="#1e1e1e" stroke-width="2" fill="none"></path></g><g stroke-linecap="round" transform="translate(10 32.545724255215646) rotate(0 42.630859375 38.322265625)"><path d="M19.16 0 C36.98 -0.9, 52.05 -3.51, 66.1 0 C75.62 -0.5, 87.62 6.07, 85.26 19.16 C85.64 37.29, 85.05 51.38, 85.26 57.48 C84.24 66.89, 80.51 74.86, 66.1 76.64 C54.72 73.89, 45.86 77.38, 19.16 76.64 C3.45 80.13, 3.56 68.48, 0 57.48 C2.21 48.3, 0.52 30.75, 0 19.16 C0.68 8.19, 9.18 -1.96, 19.16 0" stroke="none" stroke-width="0" fill="#7950f2"></path><path d="M19.16 0 C30.65 -1.48, 42.67 1.48, 66.1 0 M19.16 0 C34.38 0.16, 49.28 -0.6, 66.1 0 M66.1 0 C79.77 -1.61, 84.79 4.59, 85.26 19.16 M66.1 0 C77.17 -0.71, 85.39 4.8, 85.26 19.16 M85.26 19.16 C83.8 32.45, 83.54 42.69, 85.26 57.48 M85.26 19.16 C85.1 33.29, 86.1 48.58, 85.26 57.48 M85.26 57.48 C83.68 71.73, 78.71 75.64, 66.1 76.64 M85.26 57.48 C85.48 71.7, 76.88 76.98, 66.1 76.64 M66.1 76.64 C51.08 74.92, 31.89 75.94, 19.16 76.64 M66.1 76.64 C55.43 76.41, 46.04 76.25, 19.16 76.64 M19.16 76.64 C7.03 75.25, -1.57 69.71, 0 57.48 M19.16 76.64 C8.1 77.33, 0.83 68.99, 0 57.48 M0 57.48 C0.16 48.41, -0.51 34.12, 0 19.16 M0 57.48 C-0.16 45.78, -0.07 32.34, 0 19.16 M0 19.16 C-0.22 6.31, 5.24 1.03, 19.16 0 M0 19.16 C-1.73 6.39, 5.55 2.25, 19.16 0" stroke="#1e1e1e" stroke-width="2" fill="none"></path></g><g stroke-linecap="round" transform="translate(65.95277605371757 87.12363309975535) rotate(47.524435689906944 13.974609375 10.47265625)"><path d="M5.24 0 C8.44 -0.68, 11.22 1.58, 22.71 0 C23.44 -3.26, 24.73 0.92, 27.95 5.24 C28.25 10.34, 27.43 13.7, 27.95 15.71 C28.99 15.83, 29.2 23.12, 22.71 20.95 C16.36 23.55, 12.98 18.1, 5.24 20.95 C3.09 23.05, -1.41 18.58, 0 15.71 C1.6 14.4, 0.64 10.64, 0 5.24 C0.2 5.09, 4.12 1.97, 5.24 0" stroke="none" stroke-width="0" fill="#a5d8ff"></path><path d="M5.24 0 C7.95 -0.13, 15.01 0.03, 22.71 0 M5.24 0 C9.92 0.46, 14.96 0.01, 22.71 0 M22.71 0 C25.47 1.95, 29.12 3.01, 27.95 5.24 M22.71 0 C28.15 0.63, 27.83 1.25, 27.95 5.24 M27.95 5.24 C28.54 7.48, 28.79 10.25, 27.95 15.71 M27.95 5.24 C27.89 9.46, 27.81 12.5, 27.95 15.71 M27.95 15.71 C28.86 18.21, 24.3 19.28, 22.71 20.95 M27.95 15.71 C29.19 18.06, 24.15 20.29, 22.71 20.95 M22.71 20.95 C19.06 20.25, 12.53 22.3, 5.24 20.95 M22.71 20.95 C17.65 20.83, 12.28 21.56, 5.24 20.95 M5.24 20.95 C3.3 19.86, -0.54 20.06, 0 15.71 M5.24 20.95 C-0.12 22.68, -0.59 18.37, 0 15.71 M0 15.71 C-0.76 12.76, 0.11 9.51, 0 5.24 M0 15.71 C0.22 12.66, -0.35 10.04, 0 5.24 M0 5.24 C1.7 2.89, 1.62 0.91, 5.24 0 M0 5.24 C-0.63 -0.02, 1.79 -0.29, 5.24 0" stroke="#1e1e1e" stroke-width="2" fill="none"></path></g><g stroke-linecap="round" transform="translate(28.123948755458514 45.896403022249615) rotate(47.524435689906944 25.4296875 23.859375)"><path d="M15.03 1.44 C19.47 -0.71, 27.27 -0.41, 32.42 1.09 C37.57 2.59, 42.88 6.34, 45.94 10.45 C48.99 14.56, 51.33 20.49, 50.76 25.74 C50.18 30.98, 46.36 38.17, 42.48 41.92 C38.6 45.67, 32.95 48.16, 27.48 48.25 C22.01 48.33, 14.17 45.45, 9.65 42.44 C5.13 39.43, 1.41 35.08, 0.35 30.18 C-0.71 25.29, 0.05 18.02, 3.29 13.06 C6.53 8.1, 16.56 2.5, 19.81 0.42 C23.05 -1.67, 22.76 0.22, 22.76 0.57 M35.78 0.9 C40.61 2.54, 47.09 7.87, 49.24 12.47 C51.4 17.08, 50.25 23.17, 48.68 28.53 C47.11 33.89, 43.8 41.44, 39.82 44.61 C35.84 47.78, 30.18 48.05, 24.82 47.56 C19.47 47.08, 11.89 45.22, 7.68 41.69 C3.47 38.16, 0.02 31.86, -0.44 26.39 C-0.9 20.93, 1.53 13.01, 4.93 8.91 C8.32 4.8, 14.93 2.66, 19.92 1.76 C24.91 0.87, 32.06 3.59, 34.89 3.53 C37.72 3.48, 36.71 1.46, 36.91 1.44" stroke="none" stroke-width="0" fill="#a5d8ff"></path><path d="M25.99 -0.57 C31.26 -0.86, 38.65 1.78, 42.74 5.19 C46.84 8.61, 49.67 14.63, 50.57 19.9 C51.47 25.18, 50.85 32.29, 48.12 36.86 C45.4 41.42, 39.48 45.78, 34.2 47.31 C28.92 48.84, 21.66 48.16, 16.45 46.03 C11.23 43.9, 5.71 39.03, 2.9 34.53 C0.09 30.03, -1.62 23.93, -0.41 19.03 C0.81 14.13, 4.7 8.13, 10.2 5.14 C15.7 2.15, 28.03 1.41, 32.58 1.07 C37.12 0.73, 37.6 2.78, 37.49 3.09 M34.3 0.53 C39.14 1.83, 42.9 5.87, 45.75 10.24 C48.59 14.62, 52.19 21.57, 51.37 26.76 C50.55 31.95, 45.06 38.09, 40.85 41.38 C36.63 44.67, 31.07 46.06, 26.09 46.49 C21.11 46.92, 15.34 46.86, 10.95 43.94 C6.56 41.02, 0.88 34.25, -0.25 29 C-1.39 23.74, 1.23 16.74, 4.16 12.42 C7.09 8.11, 12.36 5.05, 17.34 3.11 C22.32 1.17, 31.3 0.87, 34.03 0.77 C36.76 0.66, 33.75 2.15, 33.74 2.47" stroke="#1e1e1e" stroke-width="2" fill="none"></path></g></svg>