<svg version="1.1" xmlns="http://www.w3.org/2000/svg" viewBox="0 0 114.98702566964312 140.8422378015016" width="114.98702566964312" height="140.8422378015016">
  <!-- svg-source:excalidraw -->
  
  <defs>
    <style class="style-fonts">
      @font-face {
        font-family: "Virgil";
        src: url("https://excalidraw.com/Virgil.woff2");
      }
      @font-face {
        font-family: "Cascadia";
        src: url("https://excalidraw.com/Cascadia.woff2");
      }
      @font-face {
        font-family: "Assistant";
        src: url("https://excalidraw.com/Assistant-Regular.woff2");
      }
    </style>
    
  </defs>
  <g stroke-linecap="round" transform="translate(34.05486505681802 109.06643921733757) rotate(22.461246866865288 19.283203125 7.48828125)"><path d="M3.74 0 C15.22 1.94, 22.69 -0.77, 34.82 0 C38.44 -2.11, 40.53 0.58, 38.57 3.74 C38.59 4.99, 38.2 7.77, 38.57 11.23 C36.17 12.75, 39.1 16.55, 34.82 14.98 C22.9 16.97, 14.15 14.6, 3.74 14.98 C2.43 14.26, -1.99 13.78, 0 11.23 C0.64 8.73, -0.1 6.11, 0 3.74 C1.47 -0.75, -1.11 -2.32, 3.74 0" stroke="none" stroke-width="0" fill="#868e96"></path><path d="M3.74 0 C13.44 -0.88, 22.04 0.44, 34.82 0 M3.74 0 C10.77 -0.53, 18.55 -0.53, 34.82 0 M34.82 0 C37.27 0, 37.91 1.01, 38.57 3.74 M34.82 0 C37.27 -0.46, 38.94 0.44, 38.57 3.74 M38.57 3.74 C38.67 5.54, 38.35 7.02, 38.57 11.23 M38.57 3.74 C38.73 6.01, 38.43 8.42, 38.57 11.23 M38.57 11.23 C38.87 12.91, 37.27 15.83, 34.82 14.98 M38.57 11.23 C38.62 13.69, 37.19 14.93, 34.82 14.98 M34.82 14.98 C27.28 14.49, 20.72 15.45, 3.74 14.98 M34.82 14.98 C23.51 14.91, 11.86 14.57, 3.74 14.98 M3.74 14.98 C1.11 15.63, -0.09 14.62, 0 11.23 M3.74 14.98 C1.64 15.79, 0.04 14.75, 0 11.23 M0 11.23 C-0.38 9.25, -0.21 6.57, 0 3.74 M0 11.23 C-0.19 9.56, -0.01 7.84, 0 3.74 M0 3.74 C0.97 2.24, 0.76 0.33, 3.74 0 M0 3.74 C0.78 1.29, 2.1 1.14, 3.74 0" stroke="#1e1e1e" stroke-width="2" fill="none"></path></g><g stroke-linecap="round" transform="translate(33.86899266098408 16.919422171883525) rotate(22.923355211056883 19.283203125 7.48828125)"><path d="M3.74 0 C12.24 -1.01, 24.69 -2.42, 34.82 0 C39.28 -0.67, 37.63 -0.06, 38.57 3.74 C38.26 5.81, 37.68 7.37, 38.57 11.23 C40.35 15.3, 38.79 13.49, 34.82 14.98 C28.65 15.16, 20.68 14.61, 3.74 14.98 C-0.75 15.03, -0.32 12.35, 0 11.23 C-0.21 7.52, 0.49 4.71, 0 3.74 C-2.35 -1.07, 0.65 2.26, 3.74 0" stroke="none" stroke-width="0" fill="#868e96"></path><path d="M3.74 0 C13.51 0.59, 22.4 0.69, 34.82 0 M3.74 0 C14.7 -0.3, 26.11 0.14, 34.82 0 M34.82 0 C36.66 -0.23, 38.53 0.85, 38.57 3.74 M34.82 0 C37.69 -0.8, 37.66 0.93, 38.57 3.74 M38.57 3.74 C38.37 6.51, 38.61 9.18, 38.57 11.23 M38.57 3.74 C38.49 6.11, 38.66 8.23, 38.57 11.23 M38.57 11.23 C38.52 14.58, 37.37 14.95, 34.82 14.98 M38.57 11.23 C38.44 13.69, 36.66 15.57, 34.82 14.98 M34.82 14.98 C28.81 15.51, 21.48 15.77, 3.74 14.98 M34.82 14.98 C24.26 14.49, 14.4 15.27, 3.74 14.98 M3.74 14.98 C1.16 15.87, 0.34 14.43, 0 11.23 M3.74 14.98 C1.29 16, -0.14 14.48, 0 11.23 M0 11.23 C-0.15 8.84, -0.28 7.36, 0 3.74 M0 11.23 C0.05 9.2, 0.21 7.66, 0 3.74 M0 3.74 C-0.49 1.58, 1.93 0.03, 3.74 0 M0 3.74 C0.85 2.39, 1.56 -0.39, 3.74 0" stroke="#1e1e1e" stroke-width="2" fill="none"></path></g><g stroke-linecap="round" transform="translate(10 32.545724255215646) rotate(0 42.630859375 38.322265625)"><path d="M19.16 0 C38.44 -2.7, 57.33 -0.7, 66.1 0 C77.58 -1.81, 84.07 6.67, 85.26 19.16 C81.72 26.4, 87.51 38.54, 85.26 57.48 C87.3 68.2, 76.95 75.47, 66.1 76.64 C49.66 75.61, 27.19 76.66, 19.16 76.64 C5.94 74.74, 3.09 72.42, 0 57.48 C2.14 44.58, -3.15 33.99, 0 19.16 C-0.83 9.52, 9.81 -0.19, 19.16 0" stroke="none" stroke-width="0" fill="#7950f2"></path><path d="M19.16 0 C28.01 0.9, 40.39 -2.2, 66.1 0 M19.16 0 C29.06 0.41, 38.41 0.17, 66.1 0 M66.1 0 C78.8 -0.79, 85.9 4.99, 85.26 19.16 M66.1 0 C77.07 -0.63, 86.98 7.07, 85.26 19.16 M85.26 19.16 C85.23 31.12, 85.24 46.91, 85.26 57.48 M85.26 19.16 C85.32 28.93, 84.98 41.19, 85.26 57.48 M85.26 57.48 C85.36 70.19, 78.66 76.57, 66.1 76.64 M85.26 57.48 C83.94 71.44, 77.14 76.65, 66.1 76.64 M66.1 76.64 C55 78.61, 41.91 76.82, 19.16 76.64 M66.1 76.64 C52.89 76.88, 39.87 77.12, 19.16 76.64 M19.16 76.64 C7.07 78.05, 0.08 72.04, 0 57.48 M19.16 76.64 C6.1 78.15, -0.65 68.1, 0 57.48 M0 57.48 C-1.48 45.32, -0.8 29.22, 0 19.16 M0 57.48 C0.94 48.07, -0.52 37.01, 0 19.16 M0 19.16 C1.36 6.45, 7.87 1.99, 19.16 0 M0 19.16 C0.63 5.61, 6.82 1.15, 19.16 0" stroke="#1e1e1e" stroke-width="2" fill="none"></path></g><g stroke-linecap="round" transform="translate(77.03780691964312 58.64210104360882) rotate(0 13.974609375 10.47265625)"><path d="M5.24 0 C12.39 -0.55, 13.66 -1.33, 22.71 0 C25.01 0.28, 25.23 0.59, 27.95 5.24 C29.07 9.59, 28.84 10.59, 27.95 15.71 C26.02 18.03, 29.27 23, 22.71 20.95 C15.16 20.92, 12.05 19.19, 5.24 20.95 C4.84 23.11, -1.27 18.64, 0 15.71 C-1.81 11.77, -0.54 12.83, 0 5.24 C3.43 1.56, 1.99 2.01, 5.24 0" stroke="none" stroke-width="0" fill="#a5d8ff"></path><path d="M5.24 0 C12.33 -1.83, 15.78 -0.94, 22.71 0 M5.24 0 C8.39 -0.2, 12.65 -0.35, 22.71 0 M22.71 0 C26.85 -1.4, 26.38 1.2, 27.95 5.24 M22.71 0 C27.92 0.69, 28.78 0.47, 27.95 5.24 M27.95 5.24 C28.06 9.29, 27.71 10.62, 27.95 15.71 M27.95 5.24 C27.96 9.11, 28.01 12.08, 27.95 15.71 M27.95 15.71 C27.73 19.13, 25.06 21.98, 22.71 20.95 M27.95 15.71 C26.22 19.2, 25.36 23.19, 22.71 20.95 M22.71 20.95 C16.93 21, 9.8 19.74, 5.24 20.95 M22.71 20.95 C18.97 21.84, 15.68 21.67, 5.24 20.95 M5.24 20.95 C1.82 22.72, -0.25 20.51, 0 15.71 M5.24 20.95 C1.1 18.79, 1.05 18.06, 0 15.71 M0 15.71 C-0.43 12.63, -0.21 11.51, 0 5.24 M0 15.71 C-0.36 13.59, 0.25 11.15, 0 5.24 M0 5.24 C1.49 3.74, 2.3 -0.67, 5.24 0 M0 5.24 C0.44 2.9, 3.53 -1.25, 5.24 0" stroke="#1e1e1e" stroke-width="2" fill="none"></path></g><g stroke-linecap="round" transform="translate(27.238978794643117 44.60303854360882) rotate(0 25.4296875 23.859375)"><path d="M21.35 -0.72 C26.45 -1.69, 33.41 1.43, 38.03 4.14 C42.66 6.85, 47.32 10.77, 49.11 15.55 C50.89 20.34, 50.82 27.78, 48.74 32.84 C46.65 37.89, 41.19 43.56, 36.59 45.87 C32 48.19, 26.31 47.82, 21.17 46.71 C16.03 45.61, 9.27 43.08, 5.75 39.26 C2.23 35.44, -0.24 28.99, 0.05 23.81 C0.34 18.64, 3.08 12.13, 7.5 8.2 C11.91 4.27, 22.41 1.26, 26.52 0.23 C30.64 -0.81, 32.25 1.68, 32.19 2 M30.5 0.02 C35.7 0.49, 41.41 4.85, 44.82 8.8 C48.23 12.75, 51.14 18.51, 50.96 23.72 C50.77 28.93, 47.65 36.18, 43.73 40.05 C39.81 43.92, 32.57 46.13, 27.42 46.94 C22.27 47.75, 17.07 47.7, 12.84 44.92 C8.61 42.13, 4 35.33, 2.04 30.22 C0.09 25.12, -1.03 18.73, 1.11 14.29 C3.26 9.85, 9.97 5.75, 14.92 3.58 C19.86 1.4, 28.22 1.85, 30.79 1.23 C33.37 0.62, 30.43 -0.37, 30.36 -0.13" stroke="none" stroke-width="0" fill="#a5d8ff"></path><path d="M19.38 0.03 C24.43 -1.42, 31.61 -0.01, 36.43 2.42 C41.25 4.84, 46.18 10.01, 48.3 14.56 C50.42 19.12, 50.65 24.76, 49.15 29.74 C47.65 34.72, 43.66 41.4, 39.29 44.44 C34.93 47.47, 28.43 48.64, 22.97 47.94 C17.51 47.24, 10.32 44.08, 6.51 40.25 C2.71 36.42, 0.39 29.89, 0.14 24.97 C-0.11 20.05, 1.68 14.94, 5.01 10.75 C8.35 6.56, 17.37 1.45, 20.16 -0.16 C22.96 -1.77, 21.8 0.58, 21.79 1.07 M35.8 2.09 C40.49 3.96, 45.33 9.73, 47.52 14.35 C49.71 18.98, 50.23 24.76, 48.92 29.83 C47.61 34.89, 43.76 41.62, 39.66 44.74 C35.56 47.87, 29.45 49.17, 24.32 48.59 C19.19 48.02, 12.93 45.09, 8.88 41.29 C4.84 37.5, 0.97 31.21, 0.04 25.83 C-0.89 20.45, 0.24 12.99, 3.31 9 C6.37 5, 13 2.77, 18.42 1.85 C23.84 0.93, 32.86 3.19, 35.84 3.49 C38.81 3.79, 36.41 3.27, 36.27 3.63" stroke="#1e1e1e" stroke-width="2" fill="none"></path></g></svg>