<svg version="1.1" xmlns="http://www.w3.org/2000/svg" viewBox="0 0 105.26171875 140.8422378015016" width="105.26171875" height="140.8422378015016">
  <!-- svg-source:excalidraw -->
  
  <defs>
    <style class="style-fonts">
      @font-face {
        font-family: "Virgil";
        src: url("https://excalidraw.com/Virgil.woff2");
      }
      @font-face {
        font-family: "Cascadia";
        src: url("https://excalidraw.com/Cascadia.woff2");
      }
      @font-face {
        font-family: "Assistant";
        src: url("https://excalidraw.com/Assistant-Regular.woff2");
      }
    </style>
    
  </defs>
  <g stroke-linecap="round" transform="translate(34.05486505681802 109.06643921733757) rotate(22.461246866865288 19.283203125 7.48828125)"><path d="M3.74 0 C15.14 -1.99, 25.31 -0.34, 34.82 0 C39.02 -0.23, 40.89 2.13, 38.57 3.74 C38.45 7.16, 38.29 8.38, 38.57 11.23 C39.75 12.44, 34.84 12.81, 34.82 14.98 C23.08 14.82, 10.71 17.13, 3.74 14.98 C3.82 13.7, 0.86 15.49, 0 11.23 C0.2 8.63, 0.11 7.18, 0 3.74 C2.02 -0.17, 0.55 1.12, 3.74 0" stroke="none" stroke-width="0" fill="#868e96"></path><path d="M3.74 0 C13.3 0.82, 21.59 0.05, 34.82 0 M3.74 0 C12.47 -0.35, 21.58 -0.42, 34.82 0 M34.82 0 C37.08 -0.9, 37.83 0.94, 38.57 3.74 M34.82 0 C37.38 -0.79, 38.52 0.65, 38.57 3.74 M38.57 3.74 C38.26 5.78, 38.9 7.77, 38.57 11.23 M38.57 3.74 C38.66 5.38, 38.4 7.47, 38.57 11.23 M38.57 11.23 C38.49 13.23, 37.41 15.6, 34.82 14.98 M38.57 11.23 C37.57 13.9, 37.84 14.31, 34.82 14.98 M34.82 14.98 C22.89 14.34, 11.86 14.77, 3.74 14.98 M34.82 14.98 C25.47 14.74, 16.32 14.59, 3.74 14.98 M3.74 14.98 C0.46 14.7, 0.75 14.03, 0 11.23 M3.74 14.98 C1.66 14.34, -0.13 13.83, 0 11.23 M0 11.23 C-0.09 9.09, 0.1 7.54, 0 3.74 M0 11.23 C0.01 9.59, -0.02 7.96, 0 3.74 M0 3.74 C-0.57 1.76, 0.5 0, 3.74 0 M0 3.74 C-0.42 2.37, 1.92 0.73, 3.74 0" stroke="#1e1e1e" stroke-width="2" fill="none"></path></g><g stroke-linecap="round" transform="translate(33.868992660985896 16.919422171883525) rotate(22.923355211056883 19.283203125 7.48828125)"><path d="M3.74 0 C10.56 -0.05, 23.77 0.09, 34.82 0 C39.65 0.88, 40.4 1.35, 38.57 3.74 C38.28 5.75, 39 9.09, 38.57 11.23 C36.09 11.56, 38.72 13.69, 34.82 14.98 C26.16 17.52, 24.29 13.73, 3.74 14.98 C2.11 16.74, 0.09 15.66, 0 11.23 C0.16 8.73, 0.73 4.72, 0 3.74 C-0.7 2.37, -0.86 1.96, 3.74 0" stroke="none" stroke-width="0" fill="#868e96"></path><path d="M3.74 0 C10.87 -0.18, 17.38 -0.03, 34.82 0 M3.74 0 C13.56 -0.3, 22.81 -0.34, 34.82 0 M34.82 0 C36.58 -0.31, 38.62 0.56, 38.57 3.74 M34.82 0 C37.27 -0.6, 38 0.52, 38.57 3.74 M38.57 3.74 C38.89 6.99, 38.31 9.53, 38.57 11.23 M38.57 3.74 C38.44 5.38, 38.57 6.65, 38.57 11.23 M38.57 11.23 C38.66 14.36, 36.45 15.12, 34.82 14.98 M38.57 11.23 C39.09 13.06, 37.96 15.67, 34.82 14.98 M34.82 14.98 C27.71 14.85, 22.34 14.24, 3.74 14.98 M34.82 14.98 C26.39 14.57, 17.24 14.78, 3.74 14.98 M3.74 14.98 C1.99 15.28, 0.36 13.18, 0 11.23 M3.74 14.98 C1.11 15.08, -0.53 13.84, 0 11.23 M0 11.23 C0.11 8.36, -0.3 5.24, 0 3.74 M0 11.23 C-0.02 8.34, -0.11 5.56, 0 3.74 M0 3.74 C-0.75 1.25, 0.88 0.98, 3.74 0 M0 3.74 C0.67 1.98, 2.22 0.32, 3.74 0" stroke="#1e1e1e" stroke-width="2" fill="none"></path></g><g stroke-linecap="round" transform="translate(10 32.545724255215646) rotate(0 42.630859375 38.322265625)"><path d="M19.16 0 C31.97 -0.2, 43.27 1.34, 66.1 0 C81.41 0.14, 88.46 5.94, 85.26 19.16 C86.7 31.39, 81.63 44.18, 85.26 57.48 C87.2 68.48, 75.66 75.62, 66.1 76.64 C55.2 75.69, 38.39 79.91, 19.16 76.64 C6.51 79.32, 3.58 71.25, 0 57.48 C2.67 45.32, -1.09 38.62, 0 19.16 C-2.92 9.1, 5.46 -1.29, 19.16 0" stroke="none" stroke-width="0" fill="#7950f2"></path><path d="M19.16 0 C36.19 0.19, 54.06 -0.3, 66.1 0 M19.16 0 C29.84 -0.52, 40.26 0.07, 66.1 0 M66.1 0 C78.98 -1.38, 85.18 5.35, 85.26 19.16 M66.1 0 C77.74 -1.46, 87.5 4.63, 85.26 19.16 M85.26 19.16 C84.42 31.39, 83.63 46.49, 85.26 57.48 M85.26 19.16 C84.88 26.94, 85.05 36.35, 85.26 57.48 M85.26 57.48 C83.53 70.55, 79.79 75.48, 66.1 76.64 M85.26 57.48 C86.54 71.64, 76.59 74.62, 66.1 76.64 M66.1 76.64 C54.28 75.3, 41.98 76.54, 19.16 76.64 M66.1 76.64 C53.1 76.04, 42.41 76.62, 19.16 76.64 M19.16 76.64 C7.11 75.54, -0.23 70.43, 0 57.48 M19.16 76.64 C5.33 76.87, 2.28 69.71, 0 57.48 M0 57.48 C-1.74 48.32, 1.6 39.42, 0 19.16 M0 57.48 C-0.53 46.62, -0.71 34.73, 0 19.16 M0 19.16 C-0.73 8.34, 7.56 1.26, 19.16 0 M0 19.16 C1.95 7.02, 6.27 -0.49, 19.16 0" stroke="#1e1e1e" stroke-width="2" fill="none"></path></g><g stroke-linecap="round" transform="translate(38.649680311687916 96.89204723666899) rotate(90.684351531919 13.974609375 10.47265625)"><path d="M5.24 0 C9.61 -1.67, 17.47 1.89, 22.71 0 C24.93 -0.56, 24.92 3.77, 27.95 5.24 C27.34 9.22, 29.57 9.82, 27.95 15.71 C28.19 21.21, 24.88 21.63, 22.71 20.95 C18.87 18.85, 14.09 23.54, 5.24 20.95 C-1.02 23.66, -2.13 15.68, 0 15.71 C-0.43 11.43, -1.03 7.4, 0 5.24 C2.88 4.46, 2.79 0.72, 5.24 0" stroke="none" stroke-width="0" fill="#a5d8ff"></path><path d="M5.24 0 C9.26 -1.28, 14.6 0.36, 22.71 0 M5.24 0 C9.09 -0.18, 12.77 -0.18, 22.71 0 M22.71 0 C25.06 1.03, 26.44 1.75, 27.95 5.24 M22.71 0 C25.36 2.25, 29.3 3.2, 27.95 5.24 M27.95 5.24 C27.75 8.45, 27.03 13.15, 27.95 15.71 M27.95 5.24 C28.12 9.43, 27.96 13.36, 27.95 15.71 M27.95 15.71 C27.7 20.51, 25.64 19.07, 22.71 20.95 M27.95 15.71 C29 18.06, 24.01 19.03, 22.71 20.95 M22.71 20.95 C16.03 20.93, 8.92 22.48, 5.24 20.95 M22.71 20.95 C16.34 21.03, 9.42 21.87, 5.24 20.95 M5.24 20.95 C2.3 20.27, 0.38 20.2, 0 15.71 M5.24 20.95 C3.53 19.69, -0.62 20.19, 0 15.71 M0 15.71 C-0.46 12.89, -0.43 11.21, 0 5.24 M0 15.71 C-0.45 13.16, 0.39 11.33, 0 5.24 M0 5.24 C1.13 0.6, 0.67 -0.65, 5.24 0 M0 5.24 C1.96 3.06, 1.61 1.04, 5.24 0" stroke="#1e1e1e" stroke-width="2" fill="none"></path></g><g stroke-linecap="round" transform="translate(27.00027901785961 45.15652205235165) rotate(90.684351531919 25.4296875 23.859375)"><path d="M35.49 0.96 C40.62 2.52, 46.28 7.92, 48.69 12.49 C51.09 17.07, 51.26 23.37, 49.92 28.42 C48.58 33.47, 45.04 39.64, 40.67 42.8 C36.29 45.96, 29.05 47.75, 23.67 47.38 C18.3 47.01, 12.37 43.87, 8.4 40.6 C4.43 37.33, 0.5 32.58, -0.14 27.76 C-0.79 22.94, 1.65 16.22, 4.53 11.69 C7.4 7.17, 11.3 1.72, 17.11 0.6 C22.91 -0.52, 34.9 3.8, 39.37 4.96 C43.83 6.11, 44.03 7.4, 43.92 7.55 M15.12 3.02 C19.95 0.86, 28.93 -0.52, 34.2 0.64 C39.48 1.8, 43.89 5.73, 46.77 9.96 C49.64 14.2, 52.4 20.99, 51.46 26.04 C50.51 31.09, 45.33 36.43, 41.08 40.26 C36.83 44.09, 30.94 48.63, 25.96 49.01 C20.98 49.4, 15.41 45.8, 11.19 42.57 C6.97 39.35, 2.11 34.59, 0.65 29.64 C-0.81 24.7, -0.18 17.82, 2.43 12.93 C5.05 8.04, 13.86 1.97, 16.35 0.33 C18.84 -1.32, 17.46 2.25, 17.36 3.08" stroke="none" stroke-width="0" fill="#a5d8ff"></path><path d="M30.14 0.32 C35.43 0.75, 41.06 4.27, 44.51 8.01 C47.95 11.74, 50.6 17.75, 50.82 22.75 C51.03 27.75, 49.19 34, 45.79 38.03 C42.39 42.05, 35.68 45.67, 30.41 46.89 C25.14 48.12, 18.86 47.62, 14.19 45.37 C9.52 43.12, 4.46 38.24, 2.37 33.37 C0.27 28.5, 0.01 21.27, 1.62 16.15 C3.22 11.04, 7.03 5.26, 12.01 2.7 C16.99 0.13, 27.53 0.85, 31.51 0.78 C35.5 0.71, 35.72 1.82, 35.9 2.28 M34.01 2.44 C38.9 3.37, 44.21 6.43, 47.06 10.58 C49.92 14.73, 52.27 22.26, 51.14 27.32 C50.02 32.38, 44.46 37.65, 40.29 40.93 C36.13 44.2, 31.6 46.85, 26.17 46.98 C20.74 47.1, 11.97 45.04, 7.69 41.67 C3.41 38.29, 0.96 31.44, 0.49 26.72 C0.03 22, 2.3 17.49, 4.89 13.36 C7.49 9.22, 11 3.89, 16.06 1.91 C21.11 -0.06, 32.03 1.26, 35.21 1.51 C38.39 1.76, 35.38 3.12, 35.13 3.4" stroke="#1e1e1e" stroke-width="2" fill="none"></path></g></svg>