<svg version="1.1" xmlns="http://www.w3.org/2000/svg" viewBox="0 0 105.26171875 140.8422378015016" width="105.26171875" height="140.8422378015016">
  <!-- svg-source:excalidraw -->
  
  <defs>
    <style class="style-fonts">
      @font-face {
        font-family: "Virgil";
        src: url("https://excalidraw.com/Virgil.woff2");
      }
      @font-face {
        font-family: "Cascadia";
        src: url("https://excalidraw.com/Cascadia.woff2");
      }
      @font-face {
        font-family: "Assistant";
        src: url("https://excalidraw.com/Assistant-Regular.woff2");
      }
    </style>
    
  </defs>
  <g stroke-linecap="round" transform="translate(34.05486505681802 109.06643921733757) rotate(22.461246866865288 19.283203125 7.48828125)"><path d="M3.74 0 C8.18 2.48, 19.41 -1.31, 34.82 0 C38.18 1.76, 38.65 3.18, 38.57 3.74 C38.78 7.22, 39.35 9.2, 38.57 11.23 C37.87 14.85, 35.21 16.94, 34.82 14.98 C25.43 14.98, 15.8 13.94, 3.74 14.98 C1.43 12.58, -0.98 15.51, 0 11.23 C-0.58 8.22, 0.77 6.39, 0 3.74 C-0.16 2.43, 0.54 -1.99, 3.74 0" stroke="none" stroke-width="0" fill="#868e96"></path><path d="M3.74 0 C17.04 0.65, 27.84 -0.5, 34.82 0 M3.74 0 C9.56 0.5, 16.14 -0.12, 34.82 0 M34.82 0 C37.41 0.63, 37.7 1.4, 38.57 3.74 M34.82 0 C37.84 -0.67, 39.21 1.94, 38.57 3.74 M38.57 3.74 C38.21 5.23, 38.53 6.5, 38.57 11.23 M38.57 3.74 C38.63 5.68, 38.42 7.84, 38.57 11.23 M38.57 11.23 C39.31 14.03, 37.68 14.42, 34.82 14.98 M38.57 11.23 C38.43 13.83, 36.79 15.09, 34.82 14.98 M34.82 14.98 C22.7 15.18, 9.2 14.83, 3.74 14.98 M34.82 14.98 C22.79 14.95, 10.58 15.23, 3.74 14.98 M3.74 14.98 C0.5 14.98, -0.37 14.7, 0 11.23 M3.74 14.98 C1.92 15.7, 0.97 14.04, 0 11.23 M0 11.23 C-0.33 8.97, 0.25 6.78, 0 3.74 M0 11.23 C-0.01 8.48, -0.04 5.52, 0 3.74 M0 3.74 C-0.28 0.31, 1.7 -0.5, 3.74 0 M0 3.74 C-1.1 0.29, 1.87 -0.57, 3.74 0" stroke="#1e1e1e" stroke-width="2" fill="none"></path></g><g stroke-linecap="round" transform="translate(33.868992660985896 16.919422171883525) rotate(22.923355211056883 19.283203125 7.48828125)"><path d="M3.74 0 C15.88 -1.67, 23.74 1.37, 34.82 0 C37.41 1.93, 41.15 1.96, 38.57 3.74 C39.34 5.21, 38.32 8.15, 38.57 11.23 C36.46 15.69, 36.65 14.04, 34.82 14.98 C25.09 14.17, 19.49 12.61, 3.74 14.98 C0.27 16.76, 1.57 15.2, 0 11.23 C0.88 9.97, -0.01 8.04, 0 3.74 C-0.71 -0.75, 1.3 -0.32, 3.74 0" stroke="none" stroke-width="0" fill="#868e96"></path><path d="M3.74 0 C13.76 -0.55, 23.99 0.46, 34.82 0 M3.74 0 C10.42 -0.36, 17.22 0.2, 34.82 0 M34.82 0 C36.45 0.15, 39.02 0.67, 38.57 3.74 M34.82 0 C37.96 0.69, 37.43 0.24, 38.57 3.74 M38.57 3.74 C38.53 5.38, 38.45 7.5, 38.57 11.23 M38.57 3.74 C38.43 5.64, 38.72 7.7, 38.57 11.23 M38.57 11.23 C38.93 13.18, 37.2 15.07, 34.82 14.98 M38.57 11.23 C38.04 13.84, 38.46 14.7, 34.82 14.98 M34.82 14.98 C26.64 14.98, 20.95 15.07, 3.74 14.98 M34.82 14.98 C25.31 15.23, 15.99 14.97, 3.74 14.98 M3.74 14.98 C0.88 15.95, 0.59 14.36, 0 11.23 M3.74 14.98 C2.22 15.29, -0.06 13.48, 0 11.23 M0 11.23 C0.28 9.53, 0.37 8.03, 0 3.74 M0 11.23 C-0.02 8.58, -0.05 5.51, 0 3.74 M0 3.74 C0.46 0.75, 0.29 -0.83, 3.74 0 M0 3.74 C0.62 0.68, 0.22 -0.33, 3.74 0" stroke="#1e1e1e" stroke-width="2" fill="none"></path></g><g stroke-linecap="round" transform="translate(10 32.545724255215646) rotate(0 42.630859375 38.322265625)"><path d="M19.16 0 C38.98 2.86, 56.53 3.09, 66.1 0 C82.46 0.99, 84.05 7.07, 85.26 19.16 C84.83 34.13, 82.87 48.71, 85.26 57.48 C84.34 68.96, 77.07 75.45, 66.1 76.64 C51.91 73.05, 35.84 78.84, 19.16 76.64 C8.57 78.68, -2.06 68.33, 0 57.48 C-0.81 48.86, -1.57 34.22, 0 19.16 C0.07 5.94, 4.48 3.09, 19.16 0" stroke="none" stroke-width="0" fill="#7950f2"></path><path d="M19.16 0 C34.58 1.34, 52.32 -1.38, 66.1 0 M19.16 0 C36.79 0.86, 53.36 0.38, 66.1 0 M66.1 0 C79.79 -1.16, 86.37 7.59, 85.26 19.16 M66.1 0 C76.59 -2.02, 84.16 4.39, 85.26 19.16 M85.26 19.16 C84.79 30.38, 84.47 42.4, 85.26 57.48 M85.26 19.16 C85.71 28.28, 85.32 36.24, 85.26 57.48 M85.26 57.48 C85.03 70.43, 77.95 76.84, 66.1 76.64 M85.26 57.48 C87.54 69.71, 77.42 77.28, 66.1 76.64 M66.1 76.64 C52.3 76.72, 35.02 76.41, 19.16 76.64 M66.1 76.64 C51.44 76.89, 37.91 77.86, 19.16 76.64 M19.16 76.64 C7.56 77.91, 1.7 70.81, 0 57.48 M19.16 76.64 C6.27 76.15, -1.78 68.18, 0 57.48 M0 57.48 C1.54 47.2, 1.16 35.63, 0 19.16 M0 57.48 C-0.24 41.64, 0.5 27.18, 0 19.16 M0 19.16 C-1.91 4.72, 7.47 -0.99, 19.16 0 M0 19.16 C-2.05 5.73, 6.57 -1.87, 19.16 0" stroke="#1e1e1e" stroke-width="2" fill="none"></path></g><g stroke-linecap="round" transform="translate(40.63070709740168 21.99483342197982) rotate(269.315648468081 13.974609375 10.47265625)"><path d="M5.24 0 C10.84 -2.8, 14.81 2.26, 22.71 0 C28.38 2.04, 25.89 -0.18, 27.95 5.24 C27.99 8.89, 27.59 9.39, 27.95 15.71 C28.02 18.75, 24.3 24.04, 22.71 20.95 C13.77 22.67, 7.71 18.05, 5.24 20.95 C-1.47 20.12, 3.14 22.63, 0 15.71 C-0.71 12.98, 0.53 7.77, 0 5.24 C3 3.92, -0.95 3.29, 5.24 0" stroke="none" stroke-width="0" fill="#a5d8ff"></path><path d="M5.24 0 C9.98 0.05, 14.85 0.68, 22.71 0 M5.24 0 C9.91 0.31, 13.59 -0.44, 22.71 0 M22.71 0 C25.97 0.18, 27.03 1.94, 27.95 5.24 M22.71 0 C28.48 -0.54, 26.5 2.38, 27.95 5.24 M27.95 5.24 C28.76 8.75, 27.83 12.04, 27.95 15.71 M27.95 5.24 C27.5 8.34, 27.7 11.96, 27.95 15.71 M27.95 15.71 C29.12 20.46, 27.9 21.49, 22.71 20.95 M27.95 15.71 C27.83 18.71, 24.42 18.87, 22.71 20.95 M22.71 20.95 C19.28 21.52, 13.94 21, 5.24 20.95 M22.71 20.95 C15.67 20.24, 9.51 20.63, 5.24 20.95 M5.24 20.95 C-0.16 19.28, 1.08 18.21, 0 15.71 M5.24 20.95 C-0.31 20.29, 0.18 17.33, 0 15.71 M0 15.71 C0.24 12.26, -0.07 8.18, 0 5.24 M0 15.71 C0.07 11.79, 0.38 7.06, 0 5.24 M0 5.24 C-0.54 2.61, 0.12 1.51, 5.24 0 M0 5.24 C-0.59 0.92, 0.59 -0.76, 5.24 0" stroke="#1e1e1e" stroke-width="2" fill="none"></path></g><g stroke-linecap="round" transform="translate(28.981305803574287 46.95692110629625) rotate(269.315648468081 25.4296875 23.859375)"><path d="M13.64 3.31 C18.38 0.84, 27.29 -0.97, 32.75 0.26 C38.22 1.49, 43.43 6.29, 46.44 10.66 C49.45 15.02, 51.13 21.42, 50.82 26.44 C50.51 31.47, 48.46 37.28, 44.59 40.84 C40.71 44.39, 33.07 47.22, 27.56 47.8 C22.06 48.38, 16.08 47.28, 11.55 44.32 C7.02 41.35, 1.86 35.19, 0.39 30 C-1.08 24.81, -0.16 17.99, 2.71 13.18 C5.58 8.37, 14.87 3.23, 17.61 1.14 C20.34 -0.95, 19.14 0.22, 19.1 0.66 M14.66 1.12 C19.6 -0.82, 28.91 0.56, 34.46 2.12 C40 3.68, 45.37 6.36, 47.92 10.48 C50.48 14.59, 50.51 21.49, 49.79 26.83 C49.07 32.17, 47.56 38.95, 43.61 42.54 C39.66 46.13, 31.8 48.57, 26.08 48.39 C20.35 48.2, 13.5 44.74, 9.25 41.42 C4.99 38.11, 1.72 33.1, 0.55 28.5 C-0.61 23.9, -0.48 18.38, 2.25 13.82 C4.98 9.27, 14.65 3.31, 16.94 1.15 C19.23 -1, 15.85 0.6, 16 0.87" stroke="none" stroke-width="0" fill="#a5d8ff"></path><path d="M29.22 1.05 C34.55 1.72, 41.46 4.9, 44.98 8.63 C48.49 12.36, 50.26 18.43, 50.3 23.41 C50.35 28.38, 48.56 34.33, 45.23 38.48 C41.89 42.62, 35.7 47.36, 30.29 48.29 C24.89 49.22, 17.51 46.66, 12.79 44.06 C8.06 41.45, 3.97 37.32, 1.93 32.64 C-0.1 27.96, -1.29 20.84, 0.6 15.97 C2.48 11.1, 8.05 5.96, 13.26 3.41 C18.47 0.86, 28.41 1.02, 31.87 0.68 C35.33 0.33, 34.05 1.08, 34.03 1.35 M26.33 0.95 C31.81 0.47, 39.05 2.93, 43.06 6.01 C47.07 9.08, 49.86 14.67, 50.4 19.41 C50.93 24.15, 49.03 29.81, 46.28 34.45 C43.53 39.09, 38.85 45.08, 33.9 47.27 C28.95 49.46, 21.58 49.36, 16.58 47.62 C11.58 45.88, 6.59 41.26, 3.9 36.83 C1.22 32.4, -0.39 26.08, 0.45 21.03 C1.28 15.99, 4.82 10.29, 8.92 6.55 C13.01 2.81, 22.16 -0.27, 25.03 -1.4 C27.9 -2.54, 26.3 -0.69, 26.13 -0.27" stroke="#1e1e1e" stroke-width="2" fill="none"></path></g></svg>