<svg version="1.1" xmlns="http://www.w3.org/2000/svg" viewBox="0 0 116.9010881696413 140.8422378015016" width="116.9010881696413" height="140.8422378015016">
  <!-- svg-source:excalidraw -->
  
  <defs>
    <style class="style-fonts">
      @font-face {
        font-family: "Virgil";
        src: url("https://excalidraw.com/Virgil.woff2");
      }
      @font-face {
        font-family: "Cascadia";
        src: url("https://excalidraw.com/Cascadia.woff2");
      }
      @font-face {
        font-family: "Assistant";
        src: url("https://excalidraw.com/Assistant-Regular.woff2");
      }
    </style>
    
  </defs>
  <g stroke-linecap="round" transform="translate(45.694234476459314 109.06643921733757) rotate(22.461246866865288 19.283203125 7.48828125)"><path d="M3.74 0 C14.89 -0.69, 20.2 1.23, 34.82 0 C36.03 -2.48, 36.4 2.65, 38.57 3.74 C38.56 4.83, 39.42 8.46, 38.57 11.23 C37.29 14.59, 39.08 15.06, 34.82 14.98 C22.31 15.58, 12.86 17.11, 3.74 14.98 C-0.17 14.28, 1.12 11.62, 0 11.23 C-0.46 8.1, 0.1 4.87, 0 3.74 C-0.84 1.43, -1.15 -0.98, 3.74 0" stroke="none" stroke-width="0" fill="#868e96"></path><path d="M3.74 0 C13.56 -0.7, 24.86 0.09, 34.82 0 M3.74 0 C10.68 -0.24, 18.59 -0.3, 34.82 0 M34.82 0 C37.74 0.95, 39.28 0.64, 38.57 3.74 M34.82 0 C36.82 -1.15, 39.22 0.28, 38.57 3.74 M38.57 3.74 C38.41 5.43, 38.83 6.73, 38.57 11.23 M38.57 3.74 C38.69 6.21, 38.4 8.29, 38.57 11.23 M38.57 11.23 C38.09 12.86, 37.27 14.98, 34.82 14.98 M38.57 11.23 C37.81 13.46, 37.27 14.52, 34.82 14.98 M34.82 14.98 C24.23 15.6, 14.48 15.22, 3.74 14.98 M34.82 14.98 C26.99 15.04, 20.11 14.87, 3.74 14.98 M3.74 14.98 C0.62 15.25, 0.3 12.91, 0 11.23 M3.74 14.98 C1.2 15.96, 0.05 13.69, 0 11.23 M0 11.23 C0.19 8.79, 0 6.77, 0 3.74 M0 11.23 C0.14 8.31, -0.03 5.24, 0 3.74 M0 3.74 C-0.77 0.34, 1.11 0.66, 3.74 0 M0 3.74 C-0.1 2.28, 1.64 0.81, 3.74 0" stroke="#1e1e1e" stroke-width="2" fill="none"></path></g><g stroke-linecap="round" transform="translate(45.508362080625375 16.919422171883525) rotate(22.923355211056883 19.283203125 7.48828125)"><path d="M3.74 0 C10.25 1.3, 20.34 -2.37, 34.82 0 C35.15 1.4, 37.28 -1.07, 38.57 3.74 C39.52 6.74, 38.09 8.13, 38.57 11.23 C40.33 13.82, 39.25 17.56, 34.82 14.98 C25.95 17.07, 13.05 14.36, 3.74 14.98 C2.37 12.87, 1.96 13.06, 0 11.23 C0.13 8.52, -0.26 7.35, 0 3.74 C-2.4 0.27, 3.03 1.57, 3.74 0" stroke="none" stroke-width="0" fill="#868e96"></path><path d="M3.74 0 C12.03 0.17, 20.24 0.08, 34.82 0 M3.74 0 C11.94 -0.28, 19.38 0.57, 34.82 0 M34.82 0 C38.03 -0.6, 38.13 0.25, 38.57 3.74 M34.82 0 C37.97 -0.96, 37.66 2.09, 38.57 3.74 M38.57 3.74 C38.78 5.61, 38.6 8.29, 38.57 11.23 M38.57 3.74 C38.4 5.39, 38.5 7.21, 38.57 11.23 M38.57 11.23 C38.51 13.73, 36.66 14.74, 34.82 14.98 M38.57 11.23 C38.52 13.27, 37.69 14.17, 34.82 14.98 M34.82 14.98 C28.24 15.45, 20.51 14.98, 3.74 14.98 M34.82 14.98 C25.72 14.87, 15.31 15.13, 3.74 14.98 M3.74 14.98 C1.55 14.16, -0.04 14.58, 0 11.23 M3.74 14.98 C1.3 14.94, -0.13 13.69, 0 11.23 M0 11.23 C-0.02 9.28, 0.35 7.82, 0 3.74 M0 11.23 C-0.04 8.47, -0.18 5.62, 0 3.74 M0 3.74 C-0.14 1.9, 1.16 0.9, 3.74 0 M0 3.74 C0.39 2.06, 1.29 1.02, 3.74 0" stroke="#1e1e1e" stroke-width="2" fill="none"></path></g><g stroke-linecap="round" transform="translate(21.639369419641298 32.545724255215646) rotate(0 42.630859375 38.322265625)"><path d="M19.16 0 C30.13 -3.82, 41.67 1.56, 66.1 0 C77.1 -3.21, 84.23 6.67, 85.26 19.16 C84.16 28.73, 88.37 36.03, 85.26 57.48 C87.94 73.84, 79.86 75.43, 66.1 76.64 C49.17 76.34, 37.71 74.38, 19.16 76.64 C9.1 75.72, -1.29 68.45, 0 57.48 C-1.21 47.52, -3.37 35.68, 0 19.16 C2.47 8.57, 8.42 -2.06, 19.16 0" stroke="none" stroke-width="0" fill="#7950f2"></path><path d="M19.16 0 C28.39 -0.1, 39.34 -1.01, 66.1 0 M19.16 0 C30.69 1.31, 42.09 -0.25, 66.1 0 M66.1 0 C78 -2, 86.39 4.71, 85.26 19.16 M66.1 0 C77.05 1.69, 85.08 5.24, 85.26 19.16 M85.26 19.16 C85.8 31.94, 84.34 44, 85.26 57.48 M85.26 19.16 C84.4 32.1, 84.83 46.78, 85.26 57.48 M85.26 57.48 C83.94 69.79, 78.8 75.85, 66.1 76.64 M85.26 57.48 C86 68.65, 77.07 76.02, 66.1 76.64 M66.1 76.64 C47.41 76.58, 31.12 75.89, 19.16 76.64 M66.1 76.64 C50.94 76.81, 37.34 75.71, 19.16 76.64 M19.16 76.64 C6.3 78.35, 0.09 70.19, 0 57.48 M19.16 76.64 C6.14 76.56, -1.32 71.44, 0 57.48 M0 57.48 C1.95 50.04, 1.26 41.95, 0 19.16 M0 57.48 C-0.75 44.03, -0.12 33.04, 0 19.16 M0 19.16 C-0.17 8.18, 7.07 1.41, 19.16 0 M0 19.16 C0.09 8.43, 6.1 1.51, 19.16 0" stroke="#1e1e1e" stroke-width="2" fill="none"></path></g><g stroke-linecap="round" transform="translate(10 59.76933318646752) rotate(0 13.974609375 10.47265625)"><path d="M5.24 0 C10.45 2.84, 19.5 -0.02, 22.71 0 C27.83 -0.99, 25.19 1.82, 27.95 5.24 C28.98 7.58, 27.56 9.67, 27.95 15.71 C29.98 16.44, 22.94 17.73, 22.71 20.95 C17.71 21.46, 14.79 20.09, 5.24 20.95 C2.43 21.98, -3.37 22.2, 0 15.71 C1.54 10.48, 1.56 7.04, 0 5.24 C-3.52 3.09, 3.85 -1.41, 5.24 0" stroke="none" stroke-width="0" fill="#a5d8ff"></path><path d="M5.24 0 C9.63 0.5, 12.01 -0.33, 22.71 0 M5.24 0 C11.5 -0.22, 15.48 0.22, 22.71 0 M22.71 0 C26.81 -1.64, 27.86 3.45, 27.95 5.24 M22.71 0 C26.31 -0.07, 27.7 1.66, 27.95 5.24 M27.95 5.24 C28 7.4, 29.03 10.93, 27.95 15.71 M27.95 5.24 C28.01 8.93, 27.63 12.37, 27.95 15.71 M27.95 15.71 C27.67 20.51, 26.03 22.74, 22.71 20.95 M27.95 15.71 C28.73 20.82, 26.29 22.99, 22.71 20.95 M22.71 20.95 C16.05 21.69, 11.79 19.23, 5.24 20.95 M22.71 20.95 C18.15 20.61, 15.21 20.15, 5.24 20.95 M5.24 20.95 C3.68 22.92, -0.99 19.86, 0 15.71 M5.24 20.95 C3.31 21.02, 1.71 21.49, 0 15.71 M0 15.71 C0.56 13.09, -0.53 8.57, 0 5.24 M0 15.71 C-0.05 11.93, -0.18 8.35, 0 5.24 M0 5.24 C0.16 0.23, 1.1 0.14, 5.24 0 M0 5.24 C-2.12 0.88, 3.32 1.39, 5.24 0" stroke="#1e1e1e" stroke-width="2" fill="none"></path></g><g stroke-linecap="round" transform="translate(36.888671875 45.73027068646752) rotate(0 25.4296875 23.859375)"><path d="M34.89 1.64 C39.82 2.87, 44.3 7.43, 46.99 11.92 C49.68 16.4, 51.94 23.58, 51.02 28.55 C50.09 33.52, 45.57 38.66, 41.42 41.72 C37.27 44.78, 31.34 46.85, 26.11 46.91 C20.88 46.96, 14.37 45.23, 10.03 42.03 C5.69 38.83, 1.25 32.7, 0.07 27.73 C-1.11 22.76, 0.34 16.63, 2.95 12.21 C5.56 7.79, 10.03 2.94, 15.74 1.2 C21.46 -0.54, 33.26 1.05, 37.23 1.77 C41.19 2.48, 39.62 4.9, 39.52 5.5 M19.53 1.83 C24.53 0.36, 30.81 0.96, 35.53 2.68 C40.24 4.39, 45.36 7.67, 47.8 12.11 C50.24 16.54, 51.52 23.91, 50.17 29.29 C48.83 34.66, 43.96 41.38, 39.72 44.35 C35.48 47.33, 30.07 47.89, 24.73 47.14 C19.38 46.39, 11.61 43.5, 7.65 39.87 C3.7 36.24, 1.8 30.46, 1 25.36 C0.21 20.27, 0.08 13.16, 2.89 9.31 C5.71 5.46, 15.09 3.6, 17.91 2.28 C20.73 0.95, 19.63 1.05, 19.83 1.35" stroke="none" stroke-width="0" fill="#a5d8ff"></path><path d="M24.05 1.03 C29.15 0.42, 35.98 1.15, 40.38 4.09 C44.78 7.03, 49.29 13.59, 50.45 18.67 C51.61 23.74, 49.68 30, 47.33 34.53 C44.98 39.05, 41.22 43.8, 36.35 45.82 C31.48 47.83, 23.47 48.18, 18.1 46.61 C12.73 45.04, 7.05 40.77, 4.14 36.39 C1.24 32.01, 0.05 25.38, 0.69 20.33 C1.33 15.29, 3.56 9.43, 7.98 6.14 C12.41 2.85, 23.7 1.37, 27.22 0.6 C30.74 -0.17, 29.23 1.21, 29.1 1.5 M22.5 1.12 C27.78 0.75, 34.82 2.53, 39.46 5.39 C44.11 8.25, 48.82 13.37, 50.36 18.28 C51.91 23.19, 51.06 30.18, 48.75 34.84 C46.43 39.5, 41.42 44.46, 36.45 46.26 C31.48 48.06, 24.06 47.13, 18.92 45.62 C13.77 44.11, 8.96 41.29, 5.58 37.19 C2.2 33.09, -1.76 26.11, -1.37 21.01 C-0.99 15.91, 4.11 10.14, 7.9 6.59 C11.69 3.04, 18.87 0.91, 21.37 -0.29 C23.86 -1.49, 22.37 -1.32, 22.88 -0.61" stroke="#1e1e1e" stroke-width="2" fill="none"></path></g></svg>