<svg version="1.1" xmlns="http://www.w3.org/2000/svg" viewBox="0 0 106.89305606447624 140.8422378015016" width="106.89305606447624" height="140.8422378015016">
  <!-- svg-source:excalidraw -->
  
  <defs>
    <style class="style-fonts">
      @font-face {
        font-family: "Virgil";
        src: url("https://excalidraw.com/Virgil.woff2");
      }
      @font-face {
        font-family: "Cascadia";
        src: url("https://excalidraw.com/Cascadia.woff2");
      }
      @font-face {
        font-family: "Assistant";
        src: url("https://excalidraw.com/Assistant-Regular.woff2");
      }
    </style>
    
  </defs>
  <g stroke-linecap="round" transform="translate(35.68620237129426 109.06643921733757) rotate(22.461246866865288 19.283203125 7.48828125)"><path d="M3.74 0 C14.97 0.92, 23.36 0.14, 34.82 0 C39.63 -0.32, 40.27 0.51, 38.57 3.74 C37.68 4.48, 39.14 6.35, 38.57 11.23 C36.25 12.99, 37.52 12.86, 34.82 14.98 C23.35 16.54, 10.25 16.71, 3.74 14.98 C3.84 15.69, -0.87 14.22, 0 11.23 C-0.34 9.03, -0.87 6.72, 0 3.74 C-0.67 0.31, -0.06 -0.86, 3.74 0" stroke="none" stroke-width="0" fill="#868e96"></path><path d="M3.74 0 C12.94 -0.18, 21.29 0.43, 34.82 0 M3.74 0 C10.19 -0.01, 17.41 -0.21, 34.82 0 M34.82 0 C37.28 -0.52, 38.07 0.61, 38.57 3.74 M34.82 0 C38.44 -0.88, 39.05 2.34, 38.57 3.74 M38.57 3.74 C38.17 6.74, 38.23 9.01, 38.57 11.23 M38.57 3.74 C38.58 6.66, 38.4 9.37, 38.57 11.23 M38.57 11.23 C39.02 13.15, 37.87 15.58, 34.82 14.98 M38.57 11.23 C37.43 12.72, 36.77 13.98, 34.82 14.98 M34.82 14.98 C25.43 14.83, 16.1 15.2, 3.74 14.98 M34.82 14.98 C28.04 15.08, 20.7 14.66, 3.74 14.98 M3.74 14.98 C1.13 15.07, -0.46 13.82, 0 11.23 M3.74 14.98 C2.39 14.7, -0.73 14.05, 0 11.23 M0 11.23 C0.35 8.78, 0.02 6.24, 0 3.74 M0 11.23 C-0.12 9.01, -0.05 6.98, 0 3.74 M0 3.74 C0.59 1.88, 2.1 0.27, 3.74 0 M0 3.74 C-0.06 1, 0.36 -1.04, 3.74 0" stroke="#1e1e1e" stroke-width="2" fill="none"></path></g><g stroke-linecap="round" transform="translate(35.50032997546032 16.919422171883525) rotate(22.923355211056883 19.283203125 7.48828125)"><path d="M3.74 0 C14.62 -0.04, 24.16 -0.46, 34.82 0 C39.02 -0.74, 36.13 2.43, 38.57 3.74 C39 5.14, 37.6 7.22, 38.57 11.23 C38.77 11.61, 39.83 17.54, 34.82 14.98 C27.12 17.18, 21.83 15.97, 3.74 14.98 C0.37 15.47, 1.3 15.75, 0 11.23 C-0.76 10.13, -0.22 7.2, 0 3.74 C-1.31 0.39, 1.45 -1.97, 3.74 0" stroke="none" stroke-width="0" fill="#868e96"></path><path d="M3.74 0 C12.64 0.47, 22.07 -0.21, 34.82 0 M3.74 0 C10.3 -0.3, 16.79 -0.21, 34.82 0 M34.82 0 C36.83 -0.63, 39.54 0.49, 38.57 3.74 M34.82 0 C37.8 1.09, 39.38 0.55, 38.57 3.74 M38.57 3.74 C38.21 5.37, 38.8 7.55, 38.57 11.23 M38.57 3.74 C38.41 5.64, 38.66 7.38, 38.57 11.23 M38.57 11.23 C39.12 14.33, 36.33 14.1, 34.82 14.98 M38.57 11.23 C38.01 12.73, 37.26 14.98, 34.82 14.98 M34.82 14.98 C27.15 15.29, 19.57 14.18, 3.74 14.98 M34.82 14.98 C26.53 14.75, 17.81 15.07, 3.74 14.98 M3.74 14.98 C0.79 15.07, 0.99 13.49, 0 11.23 M3.74 14.98 C0.52 15.29, 0.35 12.79, 0 11.23 M0 11.23 C-0.04 8.98, -0.05 6.59, 0 3.74 M0 11.23 C-0.04 8.78, 0.14 6.09, 0 3.74 M0 3.74 C0.85 1.52, 1.2 -0.21, 3.74 0 M0 3.74 C-0.89 0.21, 1.09 0.75, 3.74 0" stroke="#1e1e1e" stroke-width="2" fill="none"></path></g><g stroke-linecap="round" transform="translate(11.63133731447624 32.545724255215646) rotate(0 42.630859375 38.322265625)"><path d="M19.16 0 C38.04 -0.48, 52.87 -1.05, 66.1 0 C75.5 1.64, 83.48 2.95, 85.26 19.16 C82.42 26.44, 85.92 32.83, 85.26 57.48 C88.75 73.81, 77.1 77.83, 66.1 76.64 C52.42 78.26, 30.35 77.95, 19.16 76.64 C8.19 79.44, -1.96 69.29, 0 57.48 C-0.36 43.04, -1.25 29.98, 0 19.16 C0.28 3.66, 5.23 0.26, 19.16 0" stroke="none" stroke-width="0" fill="#7950f2"></path><path d="M19.16 0 C30.85 -0.68, 43.96 -1.69, 66.1 0 M19.16 0 C31.75 -0.19, 43.93 -0.31, 66.1 0 M66.1 0 C80.82 -1.52, 86.1 8.28, 85.26 19.16 M66.1 0 C80.51 -1.39, 84.26 4.09, 85.26 19.16 M85.26 19.16 C86.41 32.67, 83.94 46.69, 85.26 57.48 M85.26 19.16 C85.39 32.48, 85.48 47.57, 85.26 57.48 M85.26 57.48 C83.28 68.5, 77.91 74.91, 66.1 76.64 M85.26 57.48 C85.14 70.26, 77.36 76.11, 66.1 76.64 M66.1 76.64 C50.8 75.22, 37.76 78.29, 19.16 76.64 M66.1 76.64 C50.5 76.47, 34.67 76.48, 19.16 76.64 M19.16 76.64 C8.37 76.17, -1.26 70.81, 0 57.48 M19.16 76.64 C7.09 74.76, -0.1 72.22, 0 57.48 M0 57.48 C-0.06 44.66, 1.04 32.63, 0 19.16 M0 57.48 C0.73 46.61, 0.99 34.75, 0 19.16 M0 19.16 C-0.1 5.96, 4.84 -1.81, 19.16 0 M0 19.16 C-0.32 7.89, 6.19 2.06, 19.16 0" stroke="#1e1e1e" stroke-width="2" fill="none"></path></g><g stroke-linecap="round" transform="translate(13.186373760761398 88.17832059975444) rotate(312.47556431009303 13.974609375 10.47265625)"><path d="M5.24 0 C13.39 -0.84, 16.28 0.08, 22.71 0 C25.76 -1.91, 31.04 3.91, 27.95 5.24 C28.98 6.56, 26.21 9.09, 27.95 15.71 C27.12 22.34, 29.63 20.76, 22.71 20.95 C17.95 21.74, 9.05 23.45, 5.24 20.95 C3.92 18.25, 3.29 21.87, 0 15.71 C-1.99 14.08, 0.96 10.3, 0 5.24 C-0.62 0.32, -0.01 -2.38, 5.24 0" stroke="none" stroke-width="0" fill="#a5d8ff"></path><path d="M5.24 0 C11.27 -0.78, 17.15 1.75, 22.71 0 M5.24 0 C10.33 -0.76, 14.86 0.7, 22.71 0 M22.71 0 C26.3 -0.06, 27.73 1.67, 27.95 5.24 M22.71 0 C24.89 1.18, 26.22 1.75, 27.95 5.24 M27.95 5.24 C28.71 8.88, 28.34 10.7, 27.95 15.71 M27.95 5.24 C27.8 8.5, 27.82 11.54, 27.95 15.71 M27.95 15.71 C28.63 20.61, 26.28 22.72, 22.71 20.95 M27.95 15.71 C27.67 20.71, 25.55 18.79, 22.71 20.95 M22.71 20.95 C15.22 21.72, 9.77 19.22, 5.24 20.95 M22.71 20.95 C18.82 21.67, 12.8 21.09, 5.24 20.95 M5.24 20.95 C3.1 21.01, 1.49 21.19, 0 15.71 M5.24 20.95 C2.38 20.17, 0.44 20.35, 0 15.71 M0 15.71 C0.51 10.9, 0.85 7.53, 0 5.24 M0 15.71 C0.09 12.55, -0.12 10.22, 0 5.24 M0 5.24 C-1.84 0.99, 3.12 1.21, 5.24 0 M0 5.24 C1.3 0.43, 0.51 -0.75, 5.24 0" stroke="#1e1e1e" stroke-width="2" fill="none"></path></g><g stroke-linecap="round" transform="translate(28.105044809020455 46.951090522250524) rotate(312.47556431009303 25.4296875 23.859375)"><path d="M29.42 1 C34.55 1.29, 40.1 4.06, 43.75 7.59 C47.39 11.12, 50.86 17.05, 51.27 22.16 C51.69 27.27, 49.73 34.17, 46.26 38.25 C42.78 42.34, 35.92 45.55, 30.41 46.68 C24.9 47.81, 18.09 47.39, 13.21 45.03 C8.32 42.67, 3.1 37.42, 1.12 32.52 C-0.87 27.62, -0.44 20.31, 1.3 15.61 C3.04 10.92, 5.53 6.43, 11.53 4.34 C17.53 2.24, 32.16 2.64, 37.3 3.04 C42.45 3.43, 42.74 6.31, 42.39 6.71 M32.19 -0.18 C37.27 0.75, 43.68 5.8, 46.63 10.46 C49.59 15.12, 50.37 22.77, 49.91 27.8 C49.45 32.82, 47.73 37.5, 43.88 40.6 C40.03 43.7, 32.25 46.19, 26.8 46.41 C21.36 46.63, 15.77 44.96, 11.19 41.92 C6.62 38.88, 0.84 32.7, -0.64 28.14 C-2.12 23.58, -0.58 18.94, 2.3 14.57 C5.19 10.2, 11.6 4.05, 16.67 1.92 C21.73 -0.2, 30.16 1.84, 32.7 1.81 C35.24 1.77, 31.97 1.7, 31.9 1.71" stroke="none" stroke-width="0" fill="#a5d8ff"></path><path d="M37.79 3.17 C42.41 5.31, 46.15 10.32, 48.25 15.03 C50.36 19.74, 52 26.59, 50.42 31.43 C48.83 36.27, 43.52 41.49, 38.73 44.07 C33.94 46.64, 26.99 47.74, 21.69 46.89 C16.39 46.04, 10.55 42.74, 6.93 38.95 C3.32 35.17, 0.09 29.05, 0.01 24.17 C-0.07 19.28, 2.98 13.44, 6.47 9.63 C9.96 5.83, 15.28 2.21, 20.94 1.34 C26.6 0.46, 36.93 3.62, 40.45 4.37 C43.97 5.12, 42.5 5.54, 42.05 5.85 M34.12 2.32 C39.16 3.6, 44.52 8.47, 47.23 12.83 C49.94 17.18, 51.29 23.89, 50.38 28.48 C49.47 33.08, 45.72 37.32, 41.76 40.4 C37.81 43.48, 32.27 46.83, 26.66 46.97 C21.04 47.1, 12.3 44.41, 8.07 41.21 C3.85 38.01, 2.34 32.64, 1.3 27.76 C0.25 22.89, -0.71 16.51, 1.8 11.95 C4.31 7.38, 10.8 1.93, 16.34 0.4 C21.89 -1.14, 32.34 2.45, 35.07 2.75 C37.79 3.05, 32.92 2.08, 32.71 2.22" stroke="#1e1e1e" stroke-width="2" fill="none"></path></g></svg>