<svg version="1.1" xmlns="http://www.w3.org/2000/svg" viewBox="0 0 105.26171875 128.99023202101387" width="105.26171875" height="128.99023202101387">
  <!-- svg-source:excalidraw -->
  
  <defs>
    <style class="style-fonts">
      @font-face {
        font-family: "Virgil";
        src: url("https://excalidraw.com/Virgil.woff2");
      }
      @font-face {
        font-family: "Cascadia";
        src: url("https://excalidraw.com/Cascadia.woff2");
      }
      @font-face {
        font-family: "Assistant";
        src: url("https://excalidraw.com/Assistant-Regular.woff2");
      }
    </style>
    
  </defs>
  <g stroke-linecap="round" transform="translate(10 24.85274621212102) rotate(0 42.630859375 38.322265625)"><path d="M19.16 0 C32.61 -2.51, 50.07 1.62, 66.1 0 C79.72 -2.75, 84.44 4.3, 85.26 19.16 C84.99 25.72, 88.59 38, 85.26 57.48 C82.45 69.97, 76.58 73.24, 66.1 76.64 C47.1 72.5, 33 76.2, 19.16 76.64 C8.19 74.89, -2.75 72.73, 0 57.48 C3.83 50.51, 1.84 37.28, 0 19.16 C2.68 5.36, 7.24 -2.37, 19.16 0" stroke="none" stroke-width="0" fill="#e64980"></path><path d="M19.16 0 C36.17 1.08, 52.56 1.79, 66.1 0 M19.16 0 C37.19 0.28, 54.08 -0.08, 66.1 0 M66.1 0 C80 -0.95, 84.37 6, 85.26 19.16 M66.1 0 C79.14 0.73, 84.34 5.15, 85.26 19.16 M85.26 19.16 C87.14 31.92, 85.01 43.32, 85.26 57.48 M85.26 19.16 C85.82 32.15, 85.03 45.54, 85.26 57.48 M85.26 57.48 C84.96 72.06, 77.88 76.87, 66.1 76.64 M85.26 57.48 C87.37 70.63, 80.32 78.86, 66.1 76.64 M66.1 76.64 C53.35 74.73, 38.14 75.73, 19.16 76.64 M66.1 76.64 C55.61 76.32, 44.13 76.81, 19.16 76.64 M19.16 76.64 C4.94 76.08, -1.53 69.14, 0 57.48 M19.16 76.64 C5.53 74.39, 1.99 70.78, 0 57.48 M0 57.48 C-0.94 46.6, 1.1 30.36, 0 19.16 M0 57.48 C0.17 42.91, 0.75 30.29, 0 19.16 M0 19.16 C1.41 7.2, 5.77 0.21, 19.16 0 M0 19.16 C-0.41 7.67, 6.56 -0.74, 19.16 0" stroke="#1e1e1e" stroke-width="2" fill="none"></path></g><g stroke-linecap="round" transform="translate(33.86899266098408 102.14701704545496) rotate(0 19.283203125 7.48828125)"><path d="M3.74 0 C12.21 1.44, 22.86 -1.7, 34.82 0 C36.73 -1.51, 37 3.51, 38.57 3.74 C39.28 5.54, 37.78 7.02, 38.57 11.23 C36.91 11.27, 38.53 12.44, 34.82 14.98 C28.04 14.86, 23.38 13.34, 3.74 14.98 C-0.74 16.77, -1.99 11.59, 0 11.23 C0.26 8.41, 0.64 6.98, 0 3.74 C0.62 -0.46, 1.52 -1.97, 3.74 0" stroke="none" stroke-width="0" fill="#868e96"></path><path d="M3.74 0 C13.41 0.83, 23.62 -0.48, 34.82 0 M3.74 0 C11.31 -0.18, 18.77 -0.23, 34.82 0 M34.82 0 C36.87 -0.2, 38.68 1.57, 38.57 3.74 M34.82 0 C36.86 -0.62, 38.75 2.37, 38.57 3.74 M38.57 3.74 C38.48 6.7, 38.76 9.35, 38.57 11.23 M38.57 3.74 C38.62 6.2, 38.57 8.79, 38.57 11.23 M38.57 11.23 C38.07 13.84, 38.23 15.14, 34.82 14.98 M38.57 11.23 C39.29 14.84, 37.38 15.82, 34.82 14.98 M34.82 14.98 C26.94 14.46, 17.72 14.75, 3.74 14.98 M34.82 14.98 C27.74 15.22, 20.21 14.84, 3.74 14.98 M3.74 14.98 C0.49 14.42, -0.37 12.75, 0 11.23 M3.74 14.98 C2.24 15.24, 0.33 13.8, 0 11.23 M0 11.23 C0.23 8.35, 0.26 6.14, 0 3.74 M0 11.23 C0.13 9.25, 0.13 7.03, 0 3.74 M0 3.74 C-0.31 1.35, 1.07 0.56, 3.74 0 M0 3.74 C0.09 0.88, 1.72 -0.49, 3.74 0" stroke="#1e1e1e" stroke-width="2" fill="none"></path></g><g stroke-linecap="round" transform="translate(34.05486505681802 10) rotate(0 19.283203125 7.48828125)"><path d="M3.74 0 C11.5 -2.17, 17.44 -1.69, 34.82 0 C35.76 2.26, 36.59 0.62, 38.57 3.74 C37.88 5.37, 38.02 6.22, 38.57 11.23 C39.78 11.19, 34.85 13, 34.82 14.98 C29.68 13.75, 19.96 16.81, 3.74 14.98 C-0.74 12.84, -0.9 16.08, 0 11.23 C0.69 8.38, 0.2 5.44, 0 3.74 C0.27 -0.72, 3.67 -1.34, 3.74 0" stroke="none" stroke-width="0" fill="#868e96"></path><path d="M3.74 0 C15.49 -0.53, 25.25 0.63, 34.82 0 M3.74 0 C13.29 -0.18, 22.06 -0.04, 34.82 0 M34.82 0 C37.43 0.32, 38.16 0.71, 38.57 3.74 M34.82 0 C37.5 1.12, 39.67 2.12, 38.57 3.74 M38.57 3.74 C38.72 5.92, 38.65 9.06, 38.57 11.23 M38.57 3.74 C38.54 6.04, 38.48 8.01, 38.57 11.23 M38.57 11.23 C39.48 13.89, 37.95 15.94, 34.82 14.98 M38.57 11.23 C38.63 14.57, 36.91 15.88, 34.82 14.98 M34.82 14.98 C27.57 14.82, 20.92 15.46, 3.74 14.98 M34.82 14.98 C25.11 14.91, 15.74 14.77, 3.74 14.98 M3.74 14.98 C0.88 14, 0.87 13.96, 0 11.23 M3.74 14.98 C1.58 15.04, 0.42 13.2, 0 11.23 M0 11.23 C0.23 8.29, -0.07 5.49, 0 3.74 M0 11.23 C0.11 9.47, -0.08 7.57, 0 3.74 M0 3.74 C-0.18 1.8, 1.32 -0.32, 3.74 0 M0 3.74 C0.47 0.75, 1.22 -0.82, 3.74 0" stroke="#343a40" stroke-width="2" fill="none"></path></g><g stroke-linecap="round" transform="translate(39.397448168828305 94.41887882292849) rotate(90.684351531919 13.974609375 10.47265625)"><path d="M5.24 0 C10.54 -1.58, 15.39 2.98, 22.71 0 C23.47 -0.87, 25.32 4.47, 27.95 5.24 C26.6 6.72, 28.68 9.94, 27.95 15.71 C24.53 16.47, 22.86 20.38, 22.71 20.95 C14.89 22.96, 9.47 18.2, 5.24 20.95 C0.5 24.2, 1.59 20.47, 0 15.71 C0.31 12.23, 0.06 9.79, 0 5.24 C3.36 -0.11, 4.6 -0.72, 5.24 0" stroke="none" stroke-width="0" fill="#a5d8ff"></path><path d="M5.24 0 C10.98 1.41, 18.9 0.77, 22.71 0 M5.24 0 C9.44 -0.09, 14.52 0.36, 22.71 0 M22.71 0 C25.4 -1.08, 28.27 3.69, 27.95 5.24 M22.71 0 C28.4 1.74, 28.7 1.02, 27.95 5.24 M27.95 5.24 C28.26 9.27, 27.82 11.56, 27.95 15.71 M27.95 5.24 C27.67 8.51, 28.41 11.75, 27.95 15.71 M27.95 15.71 C29.21 21.13, 26.31 22.41, 22.71 20.95 M27.95 15.71 C27.14 21.01, 24.19 21.73, 22.71 20.95 M22.71 20.95 C16.89 21.87, 13.56 21.07, 5.24 20.95 M22.71 20.95 C15.94 20.41, 10.18 20.04, 5.24 20.95 M5.24 20.95 C3.48 21.4, 0.58 19.32, 0 15.71 M5.24 20.95 C2.59 19.89, 1.99 20.49, 0 15.71 M0 15.71 C-0.22 13.69, -0.64 12.15, 0 5.24 M0 15.71 C-0.24 11.71, -0.17 7.9, 0 5.24 M0 5.24 C0.15 1.11, 2.56 -0.86, 5.24 0 M0 5.24 C-0.05 0.11, 0.13 -0.7, 5.24 0" stroke="#1e1e1e" stroke-width="2" fill="none"></path></g><g stroke-linecap="round" transform="translate(27.748046875 42.68335363861115) rotate(90.684351531919 25.4296875 23.859375)"><path d="M30.64 -0.55 C35.97 -0.13, 42.37 4.43, 45.72 8.55 C49.07 12.68, 50.97 18.95, 50.72 24.2 C50.47 29.45, 47.59 36.08, 44.22 40.06 C40.85 44.04, 35.7 47.42, 30.49 48.1 C25.27 48.77, 17.74 46.85, 12.92 44.1 C8.1 41.36, 3.35 36.39, 1.56 31.64 C-0.23 26.88, 0.33 20.26, 2.17 15.57 C4.01 10.88, 7.36 5.86, 12.6 3.5 C17.84 1.13, 29.57 1.52, 33.61 1.39 C37.65 1.26, 36.95 2.27, 36.83 2.72 M27.53 -0.74 C33.12 -0.61, 41.42 2.67, 45.24 6.36 C49.06 10.05, 50.17 16.07, 50.46 21.39 C50.74 26.72, 50.35 34.05, 46.95 38.31 C43.56 42.57, 35.76 46.05, 30.11 46.96 C24.45 47.87, 17.6 46.28, 13.04 43.75 C8.49 41.23, 5 36.48, 2.77 31.83 C0.54 27.18, -1.57 20.55, -0.35 15.86 C0.87 11.17, 5.26 6.17, 10.08 3.68 C14.89 1.19, 25.62 1.61, 28.55 0.91 C31.47 0.21, 27.51 -0.59, 27.61 -0.51" stroke="none" stroke-width="0" fill="#a5d8ff"></path><path d="M30.03 0.04 C35.2 0.63, 41.62 5.12, 45.14 9.13 C48.66 13.14, 51.37 18.97, 51.17 24.09 C50.97 29.2, 47.44 35.78, 43.93 39.83 C40.43 43.89, 35.33 47.63, 30.16 48.41 C24.98 49.2, 17.75 47.36, 12.89 44.53 C8.03 41.69, 2.78 36.44, 1 31.4 C-0.78 26.35, 0.11 18.87, 2.2 14.27 C4.3 9.66, 8.15 5.85, 13.56 3.77 C18.97 1.69, 30.48 1.77, 34.66 1.78 C38.84 1.8, 38.63 3.57, 38.65 3.84 M27.83 1.48 C32.8 1.6, 39.22 4.13, 42.94 7.59 C46.66 11.05, 49.75 17.27, 50.15 22.25 C50.56 27.23, 48.37 33.55, 45.37 37.47 C42.38 41.38, 37.2 44.53, 32.18 45.73 C27.15 46.94, 20.01 46.57, 15.24 44.71 C10.46 42.86, 5.93 38.86, 3.52 34.6 C1.12 30.33, -0.13 24.16, 0.8 19.12 C1.74 14.07, 4.99 7.63, 9.14 4.31 C13.3 0.99, 22.88 0.08, 25.74 -0.8 C28.6 -1.68, 25.92 -1.55, 26.3 -0.95" stroke="#1e1e1e" stroke-width="2" fill="none"></path></g></svg>