<svg version="1.1" xmlns="http://www.w3.org/2000/svg" viewBox="0 0 106.9432792787634 127.12357954545405" width="106.9432792787634" height="127.12357954545405">
  <!-- svg-source:excalidraw -->
  
  <defs>
    <style class="style-fonts">
      @font-face {
        font-family: "Virgil";
        src: url("https://excalidraw.com/Virgil.woff2");
      }
      @font-face {
        font-family: "Cascadia";
        src: url("https://excalidraw.com/Cascadia.woff2");
      }
      @font-face {
        font-family: "Assistant";
        src: url("https://excalidraw.com/Assistant-Regular.woff2");
      }
    </style>
    
  </defs>
  <g stroke-linecap="round" transform="translate(11.681560528763399 24.85274621212011) rotate(0 42.630859375 38.322265625)"><path d="M19.16 0 C37.97 -1.71, 54.25 -1.23, 66.1 0 C80.88 0.27, 84.11 7.86, 85.26 19.16 C82.72 27.91, 86.85 39.7, 85.26 57.48 C82.51 69.44, 76.79 74.48, 66.1 76.64 C45.3 79.17, 30.22 73.63, 19.16 76.64 C6.1 74.35, -3.41 71.93, 0 57.48 C-2.69 49.16, 1.01 43.77, 0 19.16 C-1.75 3.63, 8.86 -2.76, 19.16 0" stroke="none" stroke-width="0" fill="#e64980"></path><path d="M19.16 0 C32.31 0.61, 48.94 1.37, 66.1 0 M19.16 0 C31.05 -0.98, 41.93 -0.14, 66.1 0 M66.1 0 C80 0.13, 87.1 7.74, 85.26 19.16 M66.1 0 C77.98 -1.45, 87.03 6.35, 85.26 19.16 M85.26 19.16 C84.17 31.31, 84.73 45.47, 85.26 57.48 M85.26 19.16 C85.27 32.86, 86.06 45.36, 85.26 57.48 M85.26 57.48 C85.91 69.63, 78.82 77.51, 66.1 76.64 M85.26 57.48 C83.32 70.85, 80.91 76.27, 66.1 76.64 M66.1 76.64 C53.37 75.58, 37.26 78.4, 19.16 76.64 M66.1 76.64 C51.32 77.83, 36.08 77.88, 19.16 76.64 M19.16 76.64 C4.63 77.33, -0.75 68.96, 0 57.48 M19.16 76.64 C6.17 75.02, 1.24 70.28, 0 57.48 M0 57.48 C-0.75 44.15, -1.31 33.12, 0 19.16 M0 57.48 C-0.04 49.79, 0.04 41.53, 0 19.16 M0 19.16 C1.73 7.51, 4.48 1.32, 19.16 0 M0 19.16 C-0.32 6.06, 6.67 -1.24, 19.16 0" stroke="#1e1e1e" stroke-width="2" fill="none"></path></g><g stroke-linecap="round" transform="translate(35.550553189748385 102.14701704545405) rotate(0 19.283203125 7.48828125)"><path d="M3.74 0 C15.54 -0.33, 28.22 0.32, 34.82 0 C36.49 1.06, 37.45 1.19, 38.57 3.74 C38.93 5.69, 37.75 6.95, 38.57 11.23 C37.06 12.17, 39.58 13, 34.82 14.98 C26.57 13.25, 17.47 13.62, 3.74 14.98 C-1.21 16.19, -2.54 11.26, 0 11.23 C0.19 10.04, -0.38 7.13, 0 3.74 C1.79 -0.74, -0.89 -0.9, 3.74 0" stroke="none" stroke-width="0" fill="#868e96"></path><path d="M3.74 0 C13.89 0.69, 23.56 0.22, 34.82 0 M3.74 0 C15.25 0.2, 26.95 0.14, 34.82 0 M34.82 0 C38.24 0.68, 38.18 0.62, 38.57 3.74 M34.82 0 C38.2 -0.02, 39.03 0.82, 38.57 3.74 M38.57 3.74 C38.48 6.46, 38.67 8.93, 38.57 11.23 M38.57 3.74 C38.75 5.73, 38.63 7.37, 38.57 11.23 M38.57 11.23 C38.54 14.16, 36.47 15.23, 34.82 14.98 M38.57 11.23 C39.58 13.54, 37.43 15.06, 34.82 14.98 M34.82 14.98 C26.09 15.81, 17.28 15.53, 3.74 14.98 M34.82 14.98 C22.33 15.48, 9.75 15.26, 3.74 14.98 M3.74 14.98 C0.87 14.33, -0.09 13.02, 0 11.23 M3.74 14.98 C1.87 14.99, 0.09 14.3, 0 11.23 M0 11.23 C-0.2 9.39, -0.36 8.15, 0 3.74 M0 11.23 C0.06 8.73, 0.15 6.5, 0 3.74 M0 3.74 C-0.95 1.91, 1.11 -0.14, 3.74 0 M0 3.74 C0.14 0.63, 2.05 1, 3.74 0" stroke="#1e1e1e" stroke-width="2" fill="none"></path></g><g stroke-linecap="round" transform="translate(35.736425585581415 10) rotate(0 19.283203125 7.48828125)"><path d="M3.74 0 C13.55 0.26, 19.64 1.14, 34.82 0 C36.2 -0.06, 36.72 -0.58, 38.57 3.74 C37.87 5.54, 38.05 7.2, 38.57 11.23 C40.83 11.75, 36.69 13.08, 34.82 14.98 C22.94 13, 9 15.87, 3.74 14.98 C-1.29 12.51, -1.97 11.31, 0 11.23 C-0.48 8.36, 0.66 6.23, 0 3.74 C-2.14 0.35, 3.6 1.15, 3.74 0" stroke="none" stroke-width="0" fill="#868e96"></path><path d="M3.74 0 C13.64 0.16, 25.39 0.43, 34.82 0 M3.74 0 C11.3 0, 18.76 0.31, 34.82 0 M34.82 0 C36.93 -0.63, 39.34 1.23, 38.57 3.74 M34.82 0 C37.78 -0.43, 39.21 0.7, 38.57 3.74 M38.57 3.74 C38.68 5.51, 38.36 7.63, 38.57 11.23 M38.57 3.74 C38.66 6.66, 38.6 9.77, 38.57 11.23 M38.57 11.23 C37.72 13.98, 38.2 14.81, 34.82 14.98 M38.57 11.23 C38.68 13.81, 37.14 16.01, 34.82 14.98 M34.82 14.98 C27.21 15.75, 20.24 15.17, 3.74 14.98 M34.82 14.98 C22.78 15.27, 11.42 14.77, 3.74 14.98 M3.74 14.98 C1.15 14.27, 0.54 13.74, 0 11.23 M3.74 14.98 C1.34 15.54, -0.83 13.4, 0 11.23 M0 11.23 C-0.35 9.88, 0.11 7.99, 0 3.74 M0 11.23 C0.15 9.05, -0.19 6.78, 0 3.74 M0 3.74 C-0.14 1.11, 1.37 -0.54, 3.74 0 M0 3.74 C0.8 2.25, 2.06 0.46, 3.74 0" stroke="#343a40" stroke-width="2" fill="none"></path></g><g stroke-linecap="round" transform="translate(13.186373760761413 77.62702718601486) rotate(312.47556431009303 13.974609375 10.47265625)"><path d="M5.24 0 C9.17 1.26, 13.75 -0.09, 22.71 0 C23.65 -2.53, 26.85 3.35, 27.95 5.24 C26.71 7.49, 29.44 10.58, 27.95 15.71 C27.08 16.57, 28.93 21.4, 22.71 20.95 C15.86 22.21, 11.89 17.76, 5.24 20.95 C-0.99 17.6, -0.57 19.56, 0 15.71 C1.39 10.6, -1.46 7.73, 0 5.24 C3.26 3.34, 3.02 -3.08, 5.24 0" stroke="none" stroke-width="0" fill="#a5d8ff"></path><path d="M5.24 0 C12.99 0.9, 17.2 0.11, 22.71 0 M5.24 0 C11.61 0.58, 16.04 -0.56, 22.71 0 M22.71 0 C27.74 -0.03, 28.75 1, 27.95 5.24 M22.71 0 C27.5 -1.09, 26.93 1.3, 27.95 5.24 M27.95 5.24 C27.42 8.67, 29 12.76, 27.95 15.71 M27.95 5.24 C27.97 9.39, 27.54 13.24, 27.95 15.71 M27.95 15.71 C29.72 18.87, 26.4 21.09, 22.71 20.95 M27.95 15.71 C27.6 21.27, 25.06 21.21, 22.71 20.95 M22.71 20.95 C17.55 21.15, 10.31 20.44, 5.24 20.95 M22.71 20.95 C15.77 20.44, 9.4 20.39, 5.24 20.95 M5.24 20.95 C2.82 20.96, 0.16 20.19, 0 15.71 M5.24 20.95 C0.08 20.3, -1.75 17.92, 0 15.71 M0 15.71 C0.34 13.26, 0.16 10.59, 0 5.24 M0 15.71 C-0.59 13.39, -0.16 10.31, 0 5.24 M0 5.24 C0.24 0.66, 3.14 1.74, 5.24 0 M0 5.24 C1.62 2.67, 1.04 0.25, 5.24 0" stroke="#1e1e1e" stroke-width="2" fill="none"></path></g><g stroke-linecap="round" transform="translate(28.10504480902047 37.022564965653146) rotate(312.47556431009303 25.4296875 23.859375)"><path d="M15.88 1.17 C20.49 -0.56, 27.58 0.41, 32.86 2.21 C38.13 4.01, 44.57 7.66, 47.52 11.97 C50.48 16.28, 51.58 22.94, 50.58 28.08 C49.59 33.22, 45.6 39.7, 41.56 42.81 C37.51 45.93, 31.56 46.87, 26.3 46.77 C21.04 46.66, 14.32 45.24, 9.98 42.19 C5.65 39.13, 1.51 33.3, 0.3 28.41 C-0.91 23.53, -0.93 17.45, 2.71 12.88 C6.36 8.32, 18.16 3.14, 22.16 1.02 C26.15 -1.09, 26.74 -0.06, 26.69 0.18 M33.02 0.27 C38.06 1.21, 43.69 5.16, 46.46 9.43 C49.24 13.69, 50.12 20.54, 49.67 25.86 C49.23 31.19, 47.72 37.78, 43.79 41.35 C39.86 44.93, 31.78 47.16, 26.09 47.32 C20.4 47.47, 13.64 45.41, 9.64 42.28 C5.64 39.15, 3.31 33.51, 2.07 28.52 C0.83 23.53, -0.16 16.71, 2.2 12.33 C4.55 7.96, 11.35 4.19, 16.19 2.26 C21.03 0.34, 28.72 1.18, 31.24 0.8 C33.75 0.41, 31.12 -0.2, 31.31 -0.05" stroke="none" stroke-width="0" fill="#a5d8ff"></path><path d="M26.62 0.94 C31.89 0.69, 39.4 2.46, 43.3 5.89 C47.2 9.32, 49.42 16.33, 50.02 21.53 C50.61 26.73, 49.74 32.82, 46.85 37.1 C43.96 41.37, 37.96 45.79, 32.69 47.18 C27.41 48.58, 20.21 47.49, 15.21 45.45 C10.2 43.42, 5.05 39.51, 2.67 34.98 C0.29 30.45, -0.2 23.26, 0.93 18.28 C2.05 13.29, 4.65 7.93, 9.43 5.08 C14.2 2.22, 25.93 1.77, 29.57 1.14 C33.21 0.51, 31.53 1.06, 31.26 1.29 M32.21 0.31 C37.57 1.01, 42.65 5.09, 45.72 9.4 C48.78 13.72, 50.98 21.08, 50.61 26.2 C50.23 31.32, 46.87 36.52, 43.47 40.11 C40.06 43.7, 35.29 46.86, 30.18 47.75 C25.06 48.64, 17.57 48.05, 12.76 45.45 C7.94 42.86, 3.17 37.1, 1.27 32.18 C-0.62 27.27, -0.46 20.78, 1.38 15.96 C3.23 11.13, 7.5 5.96, 12.32 3.23 C17.15 0.5, 27.27 0.12, 30.32 -0.42 C33.37 -0.97, 30.49 -0.59, 30.63 -0.04" stroke="#1e1e1e" stroke-width="2" fill="none"></path></g></svg>