<svg version="1.1" xmlns="http://www.w3.org/2000/svg" viewBox="0 0 117.88881138392833 127.12357954545405" width="117.88881138392833" height="127.12357954545405">
  <!-- svg-source:excalidraw -->
  
  <defs>
    <style class="style-fonts">
      @font-face {
        font-family: "Virgil";
        src: url("https://excalidraw.com/Virgil.woff2");
      }
      @font-face {
        font-family: "Cascadia";
        src: url("https://excalidraw.com/Cascadia.woff2");
      }
      @font-face {
        font-family: "Assistant";
        src: url("https://excalidraw.com/Assistant-Regular.woff2");
      }
    </style>
    
  </defs>
  <g stroke-linecap="round" transform="translate(10 24.85274621212011) rotate(0 42.63085937499994 38.322265625)"><path d="M19.16 0 C34.03 3.9, 46.46 1.06, 66.1 0 C79.13 -0.55, 88.51 4.59, 85.26 19.16 C88.16 34.56, 86.08 45.68, 85.26 57.48 C83.99 73.09, 75.72 77.88, 66.1 76.64 C51.24 78.51, 41.5 76.86, 19.16 76.64 C8.16 74.04, -1.01 67.51, 0 57.48 C3.37 48.95, 1.3 38.98, 0 19.16 C1.32 4.74, 9.5 2.02, 19.16 0" stroke="none" stroke-width="0" fill="#e64980"></path><path d="M19.16 0 C36.12 1.38, 53.63 0.77, 66.1 0 M19.16 0 C36.15 0.81, 54 0.65, 66.1 0 M66.1 0 C78.44 0.89, 86.87 4.57, 85.26 19.16 M66.1 0 C78.56 -0.45, 83.67 7.05, 85.26 19.16 M85.26 19.16 C83.26 33.68, 83.1 45.44, 85.26 57.48 M85.26 19.16 C84.83 28.52, 85.44 39.31, 85.26 57.48 M85.26 57.48 C86.02 68.35, 77.94 75.98, 66.1 76.64 M85.26 57.48 C86.23 72.31, 80.48 76.27, 66.1 76.64 M66.1 76.64 C55.06 77.13, 44.57 77.21, 19.16 76.64 M66.1 76.64 C55.58 76.17, 45.07 75.64, 19.16 76.64 M19.16 76.64 C6.94 78.02, 1.09 68.94, 0 57.48 M19.16 76.64 C6.59 77.08, 1.29 70.41, 0 57.48 M0 57.48 C-1.52 44.01, -0.29 28.26, 0 19.16 M0 57.48 C-0.66 47.22, -0.1 37.66, 0 19.16 M0 19.16 C-0.81 5.31, 6.71 1.95, 19.16 0 M0 19.16 C2.2 8.12, 7.14 -0.72, 19.16 0" stroke="#1e1e1e" stroke-width="2" fill="none"></path></g><g stroke-linecap="round" transform="translate(33.86899266098453 102.14701704545405) rotate(0 19.283203124999943 7.48828125)"><path d="M3.74 0 C10.02 -0.11, 17.33 -0.75, 34.82 0 C39.66 -1.3, 38.86 3.63, 38.57 3.74 C38.68 6.83, 38.28 9.24, 38.57 11.23 C36.29 14.62, 36.34 13.28, 34.82 14.98 C25.81 15.41, 18.04 13.32, 3.74 14.98 C0.52 12.99, -1.45 12.76, 0 11.23 C0.2 9.78, 0.27 7.76, 0 3.74 C2.25 2.71, -1.23 1.72, 3.74 0" stroke="none" stroke-width="0" fill="#868e96"></path><path d="M3.74 0 C10.17 0.1, 17.5 -0.71, 34.82 0 M3.74 0 C10.53 0.08, 17.75 0.15, 34.82 0 M34.82 0 C38.12 -0.91, 38.43 1.05, 38.57 3.74 M34.82 0 C36.52 0.33, 39.33 0.38, 38.57 3.74 M38.57 3.74 C38.18 6.27, 38.35 9.29, 38.57 11.23 M38.57 3.74 C38.63 5.55, 38.63 6.79, 38.57 11.23 M38.57 11.23 C38.1 13.4, 37.74 15.87, 34.82 14.98 M38.57 11.23 C39.37 13.54, 36.46 14.45, 34.82 14.98 M34.82 14.98 C24 15.18, 12.88 15.28, 3.74 14.98 M34.82 14.98 C28.66 14.68, 21.88 15.31, 3.74 14.98 M3.74 14.98 C1.79 14.32, 0.09 13.92, 0 11.23 M3.74 14.98 C1.89 15.05, 1.06 14.51, 0 11.23 M0 11.23 C0.02 9.43, -0.12 7.53, 0 3.74 M0 11.23 C0.04 9.4, -0.06 7.35, 0 3.74 M0 3.74 C0.16 2.22, 2.2 0.75, 3.74 0 M0 3.74 C0.37 0.89, 1.21 0.5, 3.74 0" stroke="#1e1e1e" stroke-width="2" fill="none"></path></g><g stroke-linecap="round" transform="translate(34.05486505681802 10) rotate(0 19.283203124999943 7.48828125)"><path d="M3.74 0 C16 -0.43, 30.24 -1.33, 34.82 0 C37.62 2.38, 38.98 2.89, 38.57 3.74 C38.23 7.48, 37.72 10.01, 38.57 11.23 C37.59 12.04, 37.08 13.14, 34.82 14.98 C25.11 13.13, 12.09 13.03, 3.74 14.98 C-0.2 14.01, -2.54 15.98, 0 11.23 C0.33 8.37, 0.81 6.94, 0 3.74 C-2.47 2.97, 0.89 -0.37, 3.74 0" stroke="none" stroke-width="0" fill="#868e96"></path><path d="M3.74 0 C15.32 -0.66, 24.63 -0.73, 34.82 0 M3.74 0 C14.42 0.17, 25.71 -0.5, 34.82 0 M34.82 0 C37.18 -0.2, 37.88 1.54, 38.57 3.74 M34.82 0 C38.08 -0.87, 39.52 0.26, 38.57 3.74 M38.57 3.74 C38.34 5.99, 38.22 8.5, 38.57 11.23 M38.57 3.74 C38.65 5.65, 38.49 7.86, 38.57 11.23 M38.57 11.23 C38.99 14.62, 38.01 14.81, 34.82 14.98 M38.57 11.23 C37.71 13.2, 37.8 14.71, 34.82 14.98 M34.82 14.98 C24.37 15.29, 14.37 15.38, 3.74 14.98 M34.82 14.98 C25.81 15.23, 16.79 14.56, 3.74 14.98 M3.74 14.98 C1.34 15.16, 0.56 13.8, 0 11.23 M3.74 14.98 C2.3 15.75, -0.45 13.01, 0 11.23 M0 11.23 C-0.14 8.62, -0.18 5.42, 0 3.74 M0 11.23 C-0.08 9.03, 0.03 7.21, 0 3.74 M0 3.74 C0.96 2, 1.57 -0.31, 3.74 0 M0 3.74 C-0.03 1.74, 0.28 0.29, 3.74 0" stroke="#343a40" stroke-width="2" fill="none"></path></g><g stroke-linecap="round" transform="translate(79.93959263392833 52.35810673701235) rotate(0 13.974609375 10.47265625)"><path d="M5.24 0 C13.49 -1.52, 16.42 2.93, 22.71 0 C26.78 2.27, 31.42 1.93, 27.95 5.24 C26.23 9.79, 27.17 11.83, 27.95 15.71 C27.61 16.66, 28.14 20.98, 22.71 20.95 C16.44 18.32, 10.18 19.55, 5.24 20.95 C-1.78 24.06, 0.83 20.25, 0 15.71 C1.56 13.57, -1.86 10.55, 0 5.24 C-0.5 1.24, 2.18 -1.95, 5.24 0" stroke="none" stroke-width="0" fill="#a5d8ff"></path><path d="M5.24 0 C9.51 -1.12, 17.15 -0.83, 22.71 0 M5.24 0 C11.71 -0.87, 16.67 -0.25, 22.71 0 M22.71 0 C24.82 0.58, 29.28 0.23, 27.95 5.24 M22.71 0 C28.1 -1.97, 28.49 -0.4, 27.95 5.24 M27.95 5.24 C27.01 7.17, 27.68 10, 27.95 15.71 M27.95 5.24 C27.75 9.25, 28.21 14.08, 27.95 15.71 M27.95 15.71 C29.34 18.87, 24.71 20.03, 22.71 20.95 M27.95 15.71 C28.92 18.67, 26.54 20.51, 22.71 20.95 M22.71 20.95 C15.58 21.64, 11.49 22.31, 5.24 20.95 M22.71 20.95 C18.96 20.49, 14.34 21.23, 5.24 20.95 M5.24 20.95 C2.87 21.08, 1.84 20.55, 0 15.71 M5.24 20.95 C0.85 19.5, 1.77 19.16, 0 15.71 M0 15.71 C-0.46 11.68, -0.17 8.71, 0 5.24 M0 15.71 C0.13 12.74, 0.54 9.15, 0 5.24 M0 5.24 C0.65 1.12, 1.69 0.86, 5.24 0 M0 5.24 C-1.94 2.33, 3.78 -0.38, 5.24 0" stroke="#1e1e1e" stroke-width="2" fill="none"></path></g><g stroke-linecap="round" transform="translate(30.14076450892844 38.31904423701235) rotate(0 25.429687499999943 23.859375)"><path d="M20.48 0.85 C25.54 -0.42, 32.62 1.19, 37.32 3.52 C42.01 5.84, 46.67 10.1, 48.67 14.8 C50.67 19.49, 50.93 26.83, 49.3 31.67 C47.68 36.52, 43.63 41.22, 38.91 43.87 C34.2 46.52, 26.27 48.15, 20.99 47.6 C15.72 47.04, 10.63 44.35, 7.26 40.53 C3.89 36.71, 1.09 29.95, 0.76 24.68 C0.43 19.4, 0.71 13.11, 5.3 8.87 C9.89 4.64, 23.33 0.23, 28.3 -0.73 C33.26 -1.7, 35.23 2.54, 35.09 3.09 M25.59 0.19 C31.04 -0.13, 39.51 2.75, 43.83 6.38 C48.16 10.02, 51.02 16.8, 51.56 22 C52.1 27.21, 50.2 33.33, 47.06 37.62 C43.92 41.91, 38.15 46.26, 32.74 47.74 C27.32 49.21, 19.63 48.77, 14.57 46.49 C9.51 44.21, 4.76 38.84, 2.4 34.07 C0.04 29.29, -0.95 22.65, 0.42 17.82 C1.79 12.98, 6.26 7.9, 10.6 5.06 C14.94 2.22, 24.02 1.59, 26.46 0.76 C28.9 -0.08, 25.46 -0.06, 25.24 0.07" stroke="none" stroke-width="0" fill="#a5d8ff"></path><path d="M19.14 1.65 C23.84 0.09, 30.28 0.15, 35.12 2.04 C39.97 3.92, 45.68 8.2, 48.21 12.95 C50.74 17.7, 51.79 25.36, 50.32 30.56 C48.85 35.75, 44.03 41.26, 39.39 44.14 C34.76 47.03, 27.98 48.58, 22.52 47.88 C17.06 47.17, 10.45 43.64, 6.63 39.93 C2.81 36.22, 0.1 30.58, -0.39 25.61 C-0.88 20.63, -0.04 14.23, 3.66 10.06 C7.37 5.88, 18.04 2.11, 21.84 0.58 C25.64 -0.96, 26.53 0.6, 26.46 0.86 M22.27 0.08 C27.03 -1.36, 32.58 0.03, 37.21 2.61 C41.83 5.19, 47.98 10.65, 50.03 15.54 C52.07 20.43, 51.44 27.25, 49.47 31.93 C47.5 36.6, 42.94 41.26, 38.23 43.6 C33.53 45.94, 26.54 46.75, 21.23 45.98 C15.92 45.2, 9.72 42.82, 6.37 38.96 C3.02 35.09, 1.11 27.71, 1.13 22.78 C1.15 17.86, 3.01 13.31, 6.5 9.4 C9.98 5.49, 19.55 0.73, 22.04 -0.66 C24.53 -2.05, 21.37 0.51, 21.44 1.08" stroke="#1e1e1e" stroke-width="2" fill="none"></path></g></svg>