<svg version="1.1" xmlns="http://www.w3.org/2000/svg" viewBox="0 0 116.80622209821377 127.12357954545405" width="116.80622209821377" height="127.12357954545405">
  <!-- svg-source:excalidraw -->
  
  <defs>
    <style class="style-fonts">
      @font-face {
        font-family: "Virgil";
        src: url("https://excalidraw.com/Virgil.woff2");
      }
      @font-face {
        font-family: "Cascadia";
        src: url("https://excalidraw.com/Cascadia.woff2");
      }
      @font-face {
        font-family: "Assistant";
        src: url("https://excalidraw.com/Assistant-Regular.woff2");
      }
    </style>
    
  </defs>
  <g stroke-linecap="round" transform="translate(21.544503348213766 24.85274621212011) rotate(0 42.630859375 38.322265625)"><path d="M19.16 0 C36.99 -4.16, 53.15 -1.23, 66.1 0 C78.37 0.44, 83.32 8.9, 85.26 19.16 C84.64 34.37, 85.11 50.82, 85.26 57.48 C85.53 69.11, 80.35 75.1, 66.1 76.64 C51.02 77.65, 38.98 73.3, 19.16 76.64 C5.57 74.56, -2.16 73.39, 0 57.48 C2.89 49.35, -2.65 40.03, 0 19.16 C-2.3 2.98, 8.06 -3.52, 19.16 0" stroke="none" stroke-width="0" fill="#e64980"></path><path d="M19.16 0 C34.9 -1.82, 50.38 0.51, 66.1 0 M19.16 0 C32.34 -0.59, 45.43 -0.81, 66.1 0 M66.1 0 C79.62 -0.11, 86.76 5.22, 85.26 19.16 M66.1 0 C79.51 1.58, 86.51 4.87, 85.26 19.16 M85.26 19.16 C85.47 32.83, 86.69 42.05, 85.26 57.48 M85.26 19.16 C85.96 27.88, 86.12 36.86, 85.26 57.48 M85.26 57.48 C84.37 69.87, 79.11 77.28, 66.1 76.64 M85.26 57.48 C84.34 69.02, 79.24 78.88, 66.1 76.64 M66.1 76.64 C46.9 76.74, 29.82 75.11, 19.16 76.64 M66.1 76.64 C50.91 76.64, 35.38 77.47, 19.16 76.64 M19.16 76.64 C5.39 76.87, 1.83 70.58, 0 57.48 M19.16 76.64 C7.84 78.86, 0.12 71.95, 0 57.48 M0 57.48 C0.38 46.59, -1.6 37.01, 0 19.16 M0 57.48 C-0.12 49.19, -0.93 39.62, 0 19.16 M0 19.16 C-1.53 5.27, 5.65 -1.96, 19.16 0 M0 19.16 C1.99 6.91, 7.06 0.14, 19.16 0" stroke="#1e1e1e" stroke-width="2" fill="none"></path></g><g stroke-linecap="round" transform="translate(45.41349600919875 102.14701704545405) rotate(0 19.283203125 7.48828125)"><path d="M3.74 0 C17.48 0.03, 27.4 0.7, 34.82 0 C35.91 1.81, 40.83 3.08, 38.57 3.74 C38.36 6.83, 38.61 8.53, 38.57 11.23 C39.63 12.61, 37.26 13.13, 34.82 14.98 C28.29 13.17, 19.94 13.65, 3.74 14.98 C-0.31 17.24, -1.98 13.1, 0 11.23 C-0.83 9.46, -0.69 6.91, 0 3.74 C1.21 -1.29, -1.22 -1.97, 3.74 0" stroke="none" stroke-width="0" fill="#868e96"></path><path d="M3.74 0 C14.77 0.54, 26.49 0.26, 34.82 0 M3.74 0 C12.62 -0.34, 21.41 0.08, 34.82 0 M34.82 0 C38.07 -0.58, 38.84 1.94, 38.57 3.74 M34.82 0 C37.94 -0.76, 38.67 1.46, 38.57 3.74 M38.57 3.74 C38.82 6.26, 38.33 9.37, 38.57 11.23 M38.57 3.74 C38.69 5.89, 38.5 8.17, 38.57 11.23 M38.57 11.23 C38.68 14.05, 36.92 14.44, 34.82 14.98 M38.57 11.23 C38.75 14.85, 38.42 15.84, 34.82 14.98 M34.82 14.98 C24.92 14.13, 14.41 15.86, 3.74 14.98 M34.82 14.98 C25.93 15.44, 16.95 15.05, 3.74 14.98 M3.74 14.98 C2.16 15.14, 0.63 14.69, 0 11.23 M3.74 14.98 C1.31 15.82, -0.41 14.63, 0 11.23 M0 11.23 C-0.26 9.61, -0.28 8.25, 0 3.74 M0 11.23 C-0.14 8.93, -0.15 6.62, 0 3.74 M0 3.74 C-0.37 0.27, 2.11 0.23, 3.74 0 M0 3.74 C0.33 1.32, 1.67 -0.53, 3.74 0" stroke="#1e1e1e" stroke-width="2" fill="none"></path></g><g stroke-linecap="round" transform="translate(45.59936840503178 10) rotate(0 19.283203125 7.48828125)"><path d="M3.74 0 C9.74 0.37, 15.07 1.87, 34.82 0 C39.58 1.83, 39.62 0.45, 38.57 3.74 C38.62 5.76, 38.95 7.98, 38.57 11.23 C38.51 11.88, 35.49 14.18, 34.82 14.98 C23.53 13.16, 11.85 16.93, 3.74 14.98 C-0.73 14.35, -1.9 15.7, 0 11.23 C-0.55 7.97, 0.53 5.6, 0 3.74 C-2.47 -0.72, -1.17 -0.41, 3.74 0" stroke="none" stroke-width="0" fill="#868e96"></path><path d="M3.74 0 C10.51 0.08, 17.56 0.12, 34.82 0 M3.74 0 C11.14 0.11, 18.54 -0.15, 34.82 0 M34.82 0 C37.59 0.69, 39.11 0.59, 38.57 3.74 M34.82 0 C37.42 0.22, 39.21 1.33, 38.57 3.74 M38.57 3.74 C38.36 6.97, 38.59 9.76, 38.57 11.23 M38.57 3.74 C38.5 5.68, 38.61 7.74, 38.57 11.23 M38.57 11.23 C38.16 13.19, 37.48 15.95, 34.82 14.98 M38.57 11.23 C39.67 14.6, 37.69 14.62, 34.82 14.98 M34.82 14.98 C25.85 15.73, 16.19 14.94, 3.74 14.98 M34.82 14.98 C25.03 15.17, 16.19 15.2, 3.74 14.98 M3.74 14.98 C1.88 15.94, 0.05 14.46, 0 11.23 M3.74 14.98 C0.84 15.88, -1.01 14.12, 0 11.23 M0 11.23 C-0.24 9.47, 0.03 7.33, 0 3.74 M0 11.23 C-0.12 8.51, -0.04 5.82, 0 3.74 M0 3.74 C0.87 1.48, 1.54 0.06, 3.74 0 M0 3.74 C0.42 0.72, 2.24 0.65, 3.74 0" stroke="#343a40" stroke-width="2" fill="none"></path></g><g stroke-linecap="round" transform="translate(10 53.475852272726115) rotate(0 13.974609375 10.47265625)"><path d="M5.24 0 C8.54 2.16, 17.97 2.18, 22.71 0 C27.66 -1.11, 28.33 1.11, 27.95 5.24 C28.73 8.15, 27.92 11.35, 27.95 15.71 C25.42 18.1, 27.8 21.79, 22.71 20.95 C16.92 23.5, 12.51 20, 5.24 20.95 C-0.89 23.67, 0.45 16.39, 0 15.71 C1 10.81, -1.67 8.16, 0 5.24 C-3.34 1.18, 2.1 1.8, 5.24 0" stroke="none" stroke-width="0" fill="#a5d8ff"></path><path d="M5.24 0 C10.88 0.3, 16 0.47, 22.71 0 M5.24 0 C9.57 -0.5, 12.83 0.61, 22.71 0 M22.71 0 C27.29 -1.32, 28.13 2.12, 27.95 5.24 M22.71 0 C27.49 0.15, 30.06 3.3, 27.95 5.24 M27.95 5.24 C27.87 8.39, 27.49 11.29, 27.95 15.71 M27.95 5.24 C27.96 8.05, 27.69 10.24, 27.95 15.71 M27.95 15.71 C28.27 21.15, 28.12 22.46, 22.71 20.95 M27.95 15.71 C28.7 18.48, 26.14 21.94, 22.71 20.95 M22.71 20.95 C18.66 21.27, 15.3 20.83, 5.24 20.95 M22.71 20.95 C16.69 21.11, 9.62 21.81, 5.24 20.95 M5.24 20.95 C1.85 22.41, -0.71 20.77, 0 15.71 M5.24 20.95 C-0.27 21.73, -0.87 17.7, 0 15.71 M0 15.71 C0.08 12.75, 0.59 8.86, 0 5.24 M0 15.71 C-0.11 12.35, 0.53 10.14, 0 5.24 M0 5.24 C0.58 1.86, 2.48 -0.91, 5.24 0 M0 5.24 C1.99 3.04, -0.44 1.52, 5.24 0" stroke="#1e1e1e" stroke-width="2" fill="none"></path></g><g stroke-linecap="round" transform="translate(36.888671875 39.436789772726115) rotate(0 25.4296875 23.859375)"><path d="M13.99 2.16 C18.36 -0.02, 25.88 0, 31.26 1.34 C36.63 2.68, 42.91 6.25, 46.24 10.22 C49.58 14.19, 51.77 20.22, 51.26 25.17 C50.75 30.12, 47.19 36.25, 43.16 39.93 C39.14 43.61, 32.68 46.53, 27.14 47.25 C21.59 47.98, 14.24 47.11, 9.91 44.3 C5.57 41.48, 2.36 35.39, 1.11 30.37 C-0.14 25.35, -0.51 18.98, 2.42 14.19 C5.35 9.39, 15.02 4.04, 18.7 1.6 C22.37 -0.83, 24.19 -0.65, 24.48 -0.43 M24.68 1.36 C29.97 0.95, 37.26 2.34, 41.42 5.15 C45.58 7.96, 48.53 13.23, 49.64 18.23 C50.74 23.23, 50.32 30.65, 48.03 35.14 C45.74 39.63, 40.73 43.33, 35.9 45.17 C31.07 47.01, 24.32 47.66, 19.05 46.15 C13.79 44.65, 7.65 40.36, 4.33 36.15 C1 31.95, -1.6 25.77, -0.91 20.93 C-0.23 16.08, 4.52 10.59, 8.42 7.06 C12.32 3.53, 20.09 0.96, 22.49 -0.28 C24.89 -1.52, 22.36 -0.63, 22.8 -0.37" stroke="none" stroke-width="0" fill="#a5d8ff"></path><path d="M28.95 0.99 C34.18 1.35, 40.01 4.43, 43.77 8.2 C47.53 11.97, 51.36 18.53, 51.53 23.61 C51.7 28.69, 48.23 34.64, 44.79 38.67 C41.34 42.69, 36.08 46.57, 30.86 47.77 C25.65 48.96, 18.25 48.39, 13.52 45.83 C8.8 43.26, 4.66 37.14, 2.51 32.37 C0.36 27.6, -0.95 21.95, 0.63 17.22 C2.2 12.49, 7 6.69, 11.97 4.01 C16.94 1.32, 27.1 1.61, 30.43 1.1 C33.76 0.59, 32 0.66, 31.94 0.97 M29.71 1.76 C35.22 2.56, 42.5 5.84, 46.1 9.39 C49.71 12.93, 51.51 18.01, 51.34 23.04 C51.18 28.07, 48.84 35.47, 45.11 39.57 C41.37 43.68, 34.07 46.86, 28.95 47.68 C23.82 48.49, 18.89 46.99, 14.37 44.45 C9.85 41.91, 4.01 36.97, 1.81 32.46 C-0.39 27.95, -0.46 22.2, 1.18 17.38 C2.82 12.57, 6.7 6.35, 11.64 3.55 C16.59 0.74, 27.73 0.77, 30.85 0.54 C33.97 0.32, 30.62 1.68, 30.34 2.22" stroke="#1e1e1e" stroke-width="2" fill="none"></path></g></svg>