<svg version="1.1" xmlns="http://www.w3.org/2000/svg" viewBox="0 0 108.08725249304916 127.12357954545405" width="108.08725249304916" height="127.12357954545405">
  <!-- svg-source:excalidraw -->
  
  <defs>
    <style class="style-fonts">
      @font-face {
        font-family: "Virgil";
        src: url("https://excalidraw.com/Virgil.woff2");
      }
      @font-face {
        font-family: "Cascadia";
        src: url("https://excalidraw.com/Cascadia.woff2");
      }
      @font-face {
        font-family: "Assistant";
        src: url("https://excalidraw.com/Assistant-Regular.woff2");
      }
    </style>
    
  </defs>
  <g stroke-linecap="round" transform="translate(12.825533743049164 24.85274621212102) rotate(0 42.630859375 38.322265625)"><path d="M19.16 0 C27.84 -0.69, 37.02 3.76, 66.1 0 C79.7 1.05, 85.47 7.71, 85.26 19.16 C82.43 31.29, 85.36 38.14, 85.26 57.48 C85.7 68.31, 81.38 79.77, 66.1 76.64 C49.09 75.75, 33.32 76.65, 19.16 76.64 C5.24 78.12, -1.55 70.18, 0 57.48 C2.08 49.55, -2.27 39.11, 0 19.16 C-2.09 4.22, 9.52 -2.74, 19.16 0" stroke="none" stroke-width="0" fill="#e64980"></path><path d="M19.16 0 C30.55 0.84, 44.78 0.87, 66.1 0 M19.16 0 C29.18 1.05, 39.06 -0.01, 66.1 0 M66.1 0 C77.38 -0.92, 86.1 5.92, 85.26 19.16 M66.1 0 C79.21 -0.43, 85.68 4.82, 85.26 19.16 M85.26 19.16 C84.81 33.24, 83.75 44.87, 85.26 57.48 M85.26 19.16 C85.56 33.48, 86.03 47.49, 85.26 57.48 M85.26 57.48 C87.1 71.61, 78.09 75.39, 66.1 76.64 M85.26 57.48 C87.03 70.22, 79.8 75.79, 66.1 76.64 M66.1 76.64 C48.99 76.67, 33.29 75.63, 19.16 76.64 M66.1 76.64 C55.5 77.86, 43.31 76.79, 19.16 76.64 M19.16 76.64 C6.33 77.51, -1.69 70.77, 0 57.48 M19.16 76.64 C8.42 76.27, 0.22 70.42, 0 57.48 M0 57.48 C-0.12 48.4, -0.03 36.92, 0 19.16 M0 57.48 C-0.37 43.08, -0.9 27.45, 0 19.16 M0 19.16 C-0.75 5.09, 6.2 -1.41, 19.16 0 M0 19.16 C1.24 6.41, 6.58 1.14, 19.16 0" stroke="#1e1e1e" stroke-width="2" fill="none"></path></g><g stroke-linecap="round" transform="translate(36.694526404033695 102.14701704545405) rotate(0 19.283203125 7.48828125)"><path d="M3.74 0 C8.15 2.4, 18.24 0.91, 34.82 0 C37.47 0.95, 37.38 3.5, 38.57 3.74 C38.34 6.27, 38.59 8.55, 38.57 11.23 C40.38 15.99, 39.15 16.03, 34.82 14.98 C27.9 15.1, 17.26 15.97, 3.74 14.98 C0.13 14.92, -1.84 11.9, 0 11.23 C-0.79 8.99, -0.61 6.61, 0 3.74 C2.26 -0.73, 0.62 -1.9, 3.74 0" stroke="none" stroke-width="0" fill="#868e96"></path><path d="M3.74 0 C13.31 0.32, 19.93 -0.52, 34.82 0 M3.74 0 C12.38 -0.22, 19.95 -0.37, 34.82 0 M34.82 0 C37.74 -0.23, 38.71 1.06, 38.57 3.74 M34.82 0 C37.53 -0.78, 38.89 0.22, 38.57 3.74 M38.57 3.74 C38.35 6.37, 38.82 9, 38.57 11.23 M38.57 3.74 C38.67 5.51, 38.74 7.38, 38.57 11.23 M38.57 11.23 C38.18 13.1, 38.09 14.96, 34.82 14.98 M38.57 11.23 C39.03 13.3, 37.97 14.43, 34.82 14.98 M34.82 14.98 C27.2 14.59, 18.4 15.15, 3.74 14.98 M34.82 14.98 C22.64 14.94, 10.12 15.31, 3.74 14.98 M3.74 14.98 C0.4 15.23, 0.88 13.56, 0 11.23 M3.74 14.98 C1.36 15.06, -0.18 14.77, 0 11.23 M0 11.23 C0.06 9.59, 0.36 7.51, 0 3.74 M0 11.23 C-0.15 8.5, -0.06 5.52, 0 3.74 M0 3.74 C-0.09 0.54, 1.79 0.01, 3.74 0 M0 3.74 C0.09 1.82, 0.42 -0.32, 3.74 0" stroke="#1e1e1e" stroke-width="2" fill="none"></path></g><g stroke-linecap="round" transform="translate(36.88039879986718 10) rotate(0 19.283203125 7.48828125)"><path d="M3.74 0 C12.51 0.41, 20.24 0.61, 34.82 0 C36.13 2.25, 40.03 -1.23, 38.57 3.74 C38.67 5.96, 39.23 10.07, 38.57 11.23 C40.4 14.78, 36.52 15.25, 34.82 14.98 C25.21 16.07, 16.15 14.95, 3.74 14.98 C-0.6 13.15, -0.79 14.88, 0 11.23 C-0.49 8.23, 0.92 5.65, 0 3.74 C-0.63 -0.65, 3.22 0.33, 3.74 0" stroke="none" stroke-width="0" fill="#868e96"></path><path d="M3.74 0 C13.24 -0.52, 24.32 0.36, 34.82 0 M3.74 0 C15.46 -0.2, 28.13 -0.09, 34.82 0 M34.82 0 C37.46 -0.19, 38.75 0.57, 38.57 3.74 M34.82 0 C37.64 -1.03, 38.99 1.18, 38.57 3.74 M38.57 3.74 C38.8 6.76, 38.3 9.39, 38.57 11.23 M38.57 3.74 C38.76 6.26, 38.51 8.4, 38.57 11.23 M38.57 11.23 C39.34 13.71, 37.72 14.6, 34.82 14.98 M38.57 11.23 C39.21 13.18, 36.81 14.75, 34.82 14.98 M34.82 14.98 C24.6 15.07, 16.43 15.87, 3.74 14.98 M34.82 14.98 C23.14 15.14, 11.06 15.06, 3.74 14.98 M3.74 14.98 C2.13 14.81, 0.1 13.8, 0 11.23 M3.74 14.98 C1.07 16.01, -0.57 13.86, 0 11.23 M0 11.23 C0.35 8.32, 0.27 5.24, 0 3.74 M0 11.23 C-0.04 8.28, 0.02 5.43, 0 3.74 M0 3.74 C0.54 1.26, 1.33 0.49, 3.74 0 M0 3.74 C-0.83 0.92, 0.37 -0.64, 3.74 0" stroke="#343a40" stroke-width="2" fill="none"></path></g><g stroke-linecap="round" transform="translate(13.186373760761398 24.156708609438283) rotate(47.524435689906944 13.974609375 10.47265625)"><path d="M5.24 0 C12.18 1.06, 17.31 2.63, 22.71 0 C28.23 -3.43, 30.33 1.25, 27.95 5.24 C29.29 9.87, 29.3 11.99, 27.95 15.71 C26.84 19.58, 25.57 22.95, 22.71 20.95 C15.99 21.01, 9.74 18.87, 5.24 20.95 C0.65 22.55, 0.84 16.45, 0 15.71 C1.75 11.37, -0.35 8.52, 0 5.24 C2.73 2.2, -1.07 -0.29, 5.24 0" stroke="none" stroke-width="0" fill="#a5d8ff"></path><path d="M5.24 0 C10.56 0.82, 18.61 1.3, 22.71 0 M5.24 0 C10.56 -0.12, 15.28 -0.08, 22.71 0 M22.71 0 C26.57 -1.36, 28.51 -0.05, 27.95 5.24 M22.71 0 C27.06 -0.13, 29.68 0.4, 27.95 5.24 M27.95 5.24 C27.33 8.76, 28.22 12.68, 27.95 15.71 M27.95 5.24 C27.84 8.12, 28.45 11.65, 27.95 15.71 M27.95 15.71 C28.75 18.46, 27.33 20, 22.71 20.95 M27.95 15.71 C26.93 18.75, 26.47 21.68, 22.71 20.95 M22.71 20.95 C19.87 22.64, 14.95 21.54, 5.24 20.95 M22.71 20.95 C17.28 21.24, 14.1 20.88, 5.24 20.95 M5.24 20.95 C1.94 21.09, -0.3 21, 0 15.71 M5.24 20.95 C0.6 21.21, 2.11 19.57, 0 15.71 M0 15.71 C0.67 11.54, 0.72 7.19, 0 5.24 M0 15.71 C-0.01 11.84, 0.32 8.71, 0 5.24 M0 5.24 C0.16 2.73, 0.3 -0.56, 5.24 0 M0 5.24 C-1.75 0.46, 0.89 -2.25, 5.24 0" stroke="#1e1e1e" stroke-width="2" fill="none"></path></g><g stroke-linecap="round" transform="translate(28.10504480902 38.92300118694311) rotate(47.524435689906944 25.4296875 23.859375)"><path d="M19.32 1.37 C24.4 -0.27, 32.42 0.36, 37.43 2.42 C42.43 4.47, 47.13 9.19, 49.34 13.7 C51.56 18.2, 52.24 24.53, 50.69 29.45 C49.15 34.36, 44.84 40.19, 40.09 43.2 C35.35 46.21, 27.84 47.86, 22.24 47.51 C16.65 47.15, 10.21 44.69, 6.52 41.06 C2.82 37.43, 0.29 31.03, 0.08 25.72 C-0.13 20.41, 1.23 13.62, 5.28 9.21 C9.33 4.79, 20.33 0.7, 24.38 -0.75 C28.42 -2.2, 29.65 -0.15, 29.54 0.52 M28.89 -0.53 C34.21 -0.15, 41.78 4.31, 45.19 8.3 C48.61 12.29, 49.31 18.5, 49.39 23.42 C49.46 28.35, 48.63 34.06, 45.65 37.86 C42.67 41.67, 36.61 44.82, 31.52 46.26 C26.43 47.7, 19.83 48.55, 15.1 46.5 C10.37 44.45, 5.57 38.84, 3.15 33.95 C0.74 29.07, -0.74 22.08, 0.59 17.22 C1.93 12.35, 6.51 7.71, 11.15 4.78 C15.8 1.86, 25.49 0.48, 28.45 -0.32 C31.41 -1.12, 28.97 -0.31, 28.89 -0.01" stroke="none" stroke-width="0" fill="#a5d8ff"></path><path d="M33.65 1.85 C38.61 3.37, 44.44 7.67, 47.21 12.06 C49.98 16.44, 51.3 23.11, 50.29 28.17 C49.27 33.22, 45.4 39.09, 41.11 42.41 C36.82 45.73, 29.9 48.01, 24.55 48.09 C19.21 48.17, 13.17 46.2, 9.04 42.9 C4.92 39.6, 0.63 33.36, -0.19 28.3 C-1.02 23.23, 1.38 16.95, 4.08 12.49 C6.79 8.03, 9.99 2.78, 16.05 1.53 C22.12 0.29, 35.63 3.6, 40.45 5.04 C45.27 6.49, 45.15 10.03, 44.98 10.2 M18.17 0.61 C22.94 -1.29, 30.96 -0.93, 35.8 1.02 C40.64 2.98, 44.77 7.65, 47.22 12.36 C49.66 17.07, 51.6 24.38, 50.48 29.3 C49.36 34.21, 44.77 38.54, 40.48 41.85 C36.2 45.16, 29.89 49.02, 24.78 49.16 C19.68 49.31, 13.86 46.47, 9.85 42.72 C5.84 38.98, 1.74 31.86, 0.74 26.71 C-0.27 21.57, 1.22 16.06, 3.82 11.87 C6.41 7.67, 13.76 3.3, 16.3 1.55 C18.84 -0.2, 18.69 1.04, 19.05 1.38" stroke="#1e1e1e" stroke-width="2" fill="none"></path></g></svg>