<svg version="1.1" xmlns="http://www.w3.org/2000/svg" viewBox="0 0 106.88189535019183 127.12357954545405" width="106.88189535019183" height="127.12357954545405">
  <!-- svg-source:excalidraw -->
  
  <defs>
    <style class="style-fonts">
      @font-face {
        font-family: "Virgil";
        src: url("https://excalidraw.com/Virgil.woff2");
      }
      @font-face {
        font-family: "Cascadia";
        src: url("https://excalidraw.com/Cascadia.woff2");
      }
      @font-face {
        font-family: "Assistant";
        src: url("https://excalidraw.com/Assistant-Regular.woff2");
      }
    </style>
    
  </defs>
  <g stroke-linecap="round" transform="translate(10 24.85274621212102) rotate(0 42.630859375 38.322265625)"><path d="M19.16 0 C31.48 1.49, 46.11 -0.59, 66.1 0 C81.52 -1.27, 88.09 3.23, 85.26 19.16 C84.67 29.42, 86.94 44.81, 85.26 57.48 C85.56 72.03, 76.27 75.63, 66.1 76.64 C52.08 79.45, 45.92 77.38, 19.16 76.64 C6.6 77.97, -1.65 73.37, 0 57.48 C0.16 43.32, 1.09 28.24, 0 19.16 C2.51 9.52, 8.92 1.45, 19.16 0" stroke="none" stroke-width="0" fill="#e64980"></path><path d="M19.16 0 C30.55 -0.18, 41.62 1.86, 66.1 0 M19.16 0 C28.29 0.38, 39.47 -0.66, 66.1 0 M66.1 0 C80.52 -1.71, 85.73 4.52, 85.26 19.16 M66.1 0 C76.78 -1.15, 84.15 4.45, 85.26 19.16 M85.26 19.16 C87.18 30.49, 83.27 39.36, 85.26 57.48 M85.26 19.16 C86.12 29.22, 84.68 39.15, 85.26 57.48 M85.26 57.48 C86.1 69.79, 79.17 76.27, 66.1 76.64 M85.26 57.48 C85.68 68.69, 79.52 74.58, 66.1 76.64 M66.1 76.64 C49.11 77.55, 35.82 78.08, 19.16 76.64 M66.1 76.64 C55.67 76.8, 45.03 77.41, 19.16 76.64 M19.16 76.64 C5.61 75.39, 1.54 70.22, 0 57.48 M19.16 76.64 C7.31 75.79, 1.29 69.17, 0 57.48 M0 57.48 C0.71 46.88, -1 38.21, 0 19.16 M0 57.48 C-0.04 41.95, -0.4 27.47, 0 19.16 M0 19.16 C-1.69 6.9, 8.16 -0.33, 19.16 0 M0 19.16 C0.22 6.55, 6.04 2.07, 19.16 0" stroke="#1e1e1e" stroke-width="2" fill="none"></path></g><g stroke-linecap="round" transform="translate(33.86899266098453 102.14701704545405) rotate(0 19.283203125 7.48828125)"><path d="M3.74 0 C18.42 -0.12, 29.99 -1.17, 34.82 0 C39.36 -2.28, 39.46 0.27, 38.57 3.74 C39.08 5.51, 38.64 7.74, 38.57 11.23 C36.69 13, 35.33 13.52, 34.82 14.98 C27.25 16.08, 18.63 16.28, 3.74 14.98 C0.06 17.23, 1.46 11.25, 0 11.23 C0.13 7.96, 0.69 6.59, 0 3.74 C1.83 2.3, 0.45 0.28, 3.74 0" stroke="none" stroke-width="0" fill="#868e96"></path><path d="M3.74 0 C11.85 0.84, 18.15 -0.1, 34.82 0 M3.74 0 C12.79 -0.42, 21.57 -0.47, 34.82 0 M34.82 0 C37.55 -0.93, 37.66 0.75, 38.57 3.74 M34.82 0 C36.76 -0.97, 38.29 1.01, 38.57 3.74 M38.57 3.74 C38.25 6.09, 38.48 8.94, 38.57 11.23 M38.57 3.74 C38.45 6.57, 38.67 9.53, 38.57 11.23 M38.57 11.23 C38.71 13.54, 37.5 14.3, 34.82 14.98 M38.57 11.23 C38.89 12.7, 37.75 14.91, 34.82 14.98 M34.82 14.98 C23.85 15.56, 10.85 15.11, 3.74 14.98 M34.82 14.98 C25.38 15.33, 14.82 14.67, 3.74 14.98 M3.74 14.98 C2.02 14.96, 0.4 13.36, 0 11.23 M3.74 14.98 C1.9 14.43, -0.51 13.5, 0 11.23 M0 11.23 C-0.21 8.96, 0.35 6.92, 0 3.74 M0 11.23 C-0.02 8.5, -0.17 5.66, 0 3.74 M0 3.74 C0.88 1.08, 1.34 0.07, 3.74 0 M0 3.74 C-0.18 2.29, 0.67 0.13, 3.74 0" stroke="#1e1e1e" stroke-width="2" fill="none"></path></g><g stroke-linecap="round" transform="translate(34.05486505681802 10) rotate(0 19.283203125 7.48828125)"><path d="M3.74 0 C16.93 -0.94, 28.35 -2.3, 34.82 0 C38.21 -0.98, 36.87 1, 38.57 3.74 C38.7 5.94, 37.92 6.9, 38.57 11.23 C36.58 12.28, 36.35 12.43, 34.82 14.98 C22.96 16.05, 9.61 17.34, 3.74 14.98 C2.71 12.5, 1.72 13.37, 0 11.23 C0.67 9.94, 0.67 7.34, 0 3.74 C-0.8 1.53, 0.79 1.45, 3.74 0" stroke="none" stroke-width="0" fill="#868e96"></path><path d="M3.74 0 C11.49 -0.26, 20.86 -0.81, 34.82 0 M3.74 0 C14.38 -0.31, 24.31 -0.35, 34.82 0 M34.82 0 C36.41 -0.5, 38.08 0.4, 38.57 3.74 M34.82 0 C37.04 -0.24, 38.98 2.4, 38.57 3.74 M38.57 3.74 C38.41 6.43, 38.86 9.07, 38.57 11.23 M38.57 3.74 C38.62 5.82, 38.57 7.96, 38.57 11.23 M38.57 11.23 C38.75 13.05, 37.6 14.08, 34.82 14.98 M38.57 11.23 C38.99 13.67, 38.18 14.31, 34.82 14.98 M34.82 14.98 C23.99 15.15, 14.66 15.62, 3.74 14.98 M34.82 14.98 C25.09 14.77, 16.14 15.07, 3.74 14.98 M3.74 14.98 C1.65 14.6, 0.56 13.25, 0 11.23 M3.74 14.98 C0.74 14.75, 0.13 14.1, 0 11.23 M0 11.23 C0.38 9.65, 0.3 7.46, 0 3.74 M0 11.23 C-0.16 9.27, 0.17 7.18, 0 3.74 M0 3.74 C0.1 1.32, 1.1 0.9, 3.74 0 M0 3.74 C-0.57 1.38, 2.3 0.18, 3.74 0" stroke="#343a40" stroke-width="2" fill="none"></path></g><g stroke-linecap="round" transform="translate(65.74630283943043 23.860949680865815) rotate(312.47556431009303 13.974609375 10.47265625)"><path d="M5.24 0 C13.04 -2.65, 16.98 -1.07, 22.71 0 C23.86 -0.34, 25.41 3.69, 27.95 5.24 C26.6 7.86, 26.53 10.49, 27.95 15.71 C26.61 15.68, 29.32 21.77, 22.71 20.95 C15.52 23.78, 12.98 18.07, 5.24 20.95 C4.13 20.45, -0.51 19.64, 0 15.71 C1.2 13.89, -0.71 10.76, 0 5.24 C-0.63 3.75, 2.01 -1.15, 5.24 0" stroke="none" stroke-width="0" fill="#a5d8ff"></path><path d="M5.24 0 C11.54 -1.18, 19.03 1.19, 22.71 0 M5.24 0 C9.36 -0.67, 12.29 -0.29, 22.71 0 M22.71 0 C25.24 -1.69, 27.46 1.32, 27.95 5.24 M22.71 0 C27.04 2.29, 28.82 -0.45, 27.95 5.24 M27.95 5.24 C28.85 8.62, 27.74 9.76, 27.95 15.71 M27.95 5.24 C28.07 7.8, 28.09 10.21, 27.95 15.71 M27.95 15.71 C28.51 17.41, 26.95 20.84, 22.71 20.95 M27.95 15.71 C29.68 17.86, 26.83 22.53, 22.71 20.95 M22.71 20.95 C16.85 21.94, 10.45 22.56, 5.24 20.95 M22.71 20.95 C16.96 20.82, 10.21 20.51, 5.24 20.95 M5.24 20.95 C2.87 20, -0.89 18.81, 0 15.71 M5.24 20.95 C2.01 21.68, -0.93 17.96, 0 15.71 M0 15.71 C0.69 12.74, -0.43 9.06, 0 5.24 M0 15.71 C0.55 12.03, 0.14 8.56, 0 5.24 M0 5.24 C-0.3 3.55, 0.75 0.23, 5.24 0 M0 5.24 C2.11 2.11, 3.19 2.21, 5.24 0" stroke="#1e1e1e" stroke-width="2" fill="none"></path></g><g stroke-linecap="round" transform="translate(27.917475541171825 38.54130475837155) rotate(312.47556431009303 25.4296875 23.859375)"><path d="M26.37 0.2 C31.66 0.4, 39.67 3.92, 43.85 7.46 C48.03 11, 51.02 16.5, 51.44 21.41 C51.86 26.33, 49.41 32.86, 46.36 36.94 C43.32 41.02, 38.28 44.25, 33.16 45.87 C28.03 47.49, 20.72 48.52, 15.61 46.65 C10.51 44.78, 5.02 39.41, 2.54 34.67 C0.06 29.92, -0.68 23.28, 0.76 18.21 C2.19 13.13, 6.34 7.06, 11.15 4.22 C15.95 1.39, 26.09 1.6, 29.56 1.22 C33.03 0.83, 31.9 1.64, 31.97 1.89 M33.25 2.1 C38.19 3.2, 44.28 7.12, 47.12 11.33 C49.95 15.54, 51.06 22.19, 50.25 27.37 C49.43 32.55, 46.42 38.91, 42.23 42.43 C38.03 45.94, 30.85 48.62, 25.09 48.46 C19.33 48.29, 11.97 45.05, 7.65 41.43 C3.33 37.81, -0.07 31.96, -0.83 26.74 C-1.59 21.51, -0.13 14.27, 3.09 10.09 C6.3 5.91, 13.15 3.04, 18.47 1.64 C23.79 0.24, 32.25 1.73, 35 1.68 C37.74 1.63, 34.94 0.85, 34.93 1.35" stroke="none" stroke-width="0" fill="#a5d8ff"></path><path d="M32.89 1.55 C37.86 2.56, 43.46 6.43, 46.31 10.7 C49.17 14.96, 50.88 21.99, 50.04 27.15 C49.19 32.31, 45.31 38.16, 41.24 41.65 C37.17 45.14, 30.76 47.89, 25.62 48.08 C20.48 48.26, 14.74 46.12, 10.39 42.76 C6.04 39.4, 0.76 32.92, -0.5 27.91 C-1.75 22.9, -0.08 16.95, 2.88 12.68 C5.83 8.41, 11.65 4.1, 17.25 2.27 C22.85 0.44, 32.91 1.29, 36.48 1.7 C40.04 2.11, 38.83 4.22, 38.63 4.72 M23.46 -1.24 C28.63 -1.84, 35.83 1.16, 40.43 4.14 C45.03 7.12, 49.65 11.54, 51.07 16.65 C52.49 21.76, 51.28 30.2, 48.96 34.82 C46.64 39.45, 42.12 42.36, 37.15 44.43 C32.18 46.49, 24.42 48.34, 19.15 47.23 C13.88 46.12, 8.49 41.83, 5.54 37.78 C2.59 33.74, 1.26 28.23, 1.46 22.96 C1.66 17.69, 2.95 9.98, 6.74 6.16 C10.53 2.35, 21.37 1.1, 24.19 0.08 C27.02 -0.94, 23.7 -0.26, 23.69 0.02" stroke="#1e1e1e" stroke-width="2" fill="none"></path></g></svg>