<svg version="1.1" xmlns="http://www.w3.org/2000/svg" viewBox="0 0 105.26171875 129.23744184244413" width="105.26171875" height="129.23744184244413">
  <!-- svg-source:excalidraw -->
  
  <defs>
    <style class="style-fonts">
      @font-face {
        font-family: "Virgil";
        src: url("https://excalidraw.com/Virgil.woff2");
      }
      @font-face {
        font-family: "Cascadia";
        src: url("https://excalidraw.com/Cascadia.woff2");
      }
      @font-face {
        font-family: "Assistant";
        src: url("https://excalidraw.com/Assistant-Regular.woff2");
      }
    </style>
    
  </defs>
  <g stroke-linecap="round" transform="translate(10 26.966608509110188) rotate(0 42.630859375 38.322265625)"><path d="M19.16 0 C26.79 -0.02, 36.55 2.26, 66.1 0 C78.91 0.29, 87.04 3.79, 85.26 19.16 C83.4 26.06, 87.85 40.82, 85.26 57.48 C86.31 70.47, 80.2 75, 66.1 76.64 C50.34 75.34, 29.31 76.28, 19.16 76.64 C4.44 79.15, 3.13 72.8, 0 57.48 C-0.42 46.44, 0.48 30.24, 0 19.16 C1.47 4.84, 6.31 -2.55, 19.16 0" stroke="none" stroke-width="0" fill="#e64980"></path><path d="M19.16 0 C28.49 1.34, 39.14 0.16, 66.1 0 M19.16 0 C28.37 -0.61, 38.31 0.02, 66.1 0 M66.1 0 C79.6 2, 86.02 4.48, 85.26 19.16 M66.1 0 C77.8 -0.76, 86.23 8.43, 85.26 19.16 M85.26 19.16 C84.28 34.17, 84.74 47.78, 85.26 57.48 M85.26 19.16 C85.61 29.04, 85.7 40.66, 85.26 57.48 M85.26 57.48 C86.76 69.09, 79.42 78.02, 66.1 76.64 M85.26 57.48 C86.51 68.74, 79.08 77.08, 66.1 76.64 M66.1 76.64 C50.74 76.29, 31.41 78.62, 19.16 76.64 M66.1 76.64 C52.66 76, 37.66 76.27, 19.16 76.64 M19.16 76.64 C6.62 77.28, -0.81 69.18, 0 57.48 M19.16 76.64 C6.75 78.88, 2.2 71.99, 0 57.48 M0 57.48 C0.98 43.05, 0.63 33.77, 0 19.16 M0 57.48 C-0.19 47.52, -0.54 35.86, 0 19.16 M0 19.16 C1.83 6.71, 7.65 1.93, 19.16 0 M0 19.16 C0.12 8.08, 5.57 1.81, 19.16 0" stroke="#1e1e1e" stroke-width="2" fill="none"></path></g><g stroke-linecap="round" transform="translate(33.86899266098453 104.26087934244413) rotate(0 19.283203125 7.48828125)"><path d="M3.74 0 C10.06 1.44, 20.07 0.25, 34.82 0 C38.6 -1.88, 37.83 -0.74, 38.57 3.74 C39.37 5.8, 38.81 7.46, 38.57 11.23 C39.52 12.54, 39.57 16.44, 34.82 14.98 C28.09 15.24, 20.68 16.73, 3.74 14.98 C3.51 16.81, 1.05 12.93, 0 11.23 C0.09 8.59, 0.42 6.16, 0 3.74 C-0.06 -0.6, -0.58 -0.79, 3.74 0" stroke="none" stroke-width="0" fill="#868e96"></path><path d="M3.74 0 C14.28 0.11, 25.6 -1.04, 34.82 0 M3.74 0 C11.39 0.03, 19.46 0.63, 34.82 0 M34.82 0 C37.7 -0.96, 38.1 0.92, 38.57 3.74 M34.82 0 C37.8 1.02, 39.37 1.06, 38.57 3.74 M38.57 3.74 C38.46 5.49, 38.48 7.19, 38.57 11.23 M38.57 3.74 C38.65 5.47, 38.72 7.11, 38.57 11.23 M38.57 11.23 C38.84 14.42, 37.86 14.32, 34.82 14.98 M38.57 11.23 C38.67 13.94, 37.96 15.05, 34.82 14.98 M34.82 14.98 C22.02 15.69, 10.45 15.32, 3.74 14.98 M34.82 14.98 C26.43 14.81, 18.55 15.06, 3.74 14.98 M3.74 14.98 C0.85 14.44, 0.16 14.7, 0 11.23 M3.74 14.98 C2.35 15.84, 0.37 13.37, 0 11.23 M0 11.23 C0.08 9.34, -0.08 6.82, 0 3.74 M0 11.23 C-0.09 8.95, 0.18 6.66, 0 3.74 M0 3.74 C0.63 2.21, 1.3 0.73, 3.74 0 M0 3.74 C-0.41 2.15, 0.24 0.39, 3.74 0" stroke="#1e1e1e" stroke-width="2" fill="none"></path></g><g stroke-linecap="round" transform="translate(34.05486505681802 12.113862296989168) rotate(0 19.283203125 7.48828125)"><path d="M3.74 0 C12.8 0, 23.09 -2.1, 34.82 0 C36.59 -1.98, 37.11 0.28, 38.57 3.74 C38.93 5.32, 39.01 6.33, 38.57 11.23 C40.82 15.19, 34.84 16.7, 34.82 14.98 C24.52 16.84, 19.29 16.86, 3.74 14.98 C2.3 14.18, 0.28 13.27, 0 11.23 C0.39 8.15, -0.03 5.22, 0 3.74 C-1.82 0.45, 2.4 0.61, 3.74 0" stroke="none" stroke-width="0" fill="#868e96"></path><path d="M3.74 0 C14.7 -0.95, 27.02 -0.52, 34.82 0 M3.74 0 C10.63 0.53, 17.33 -0.44, 34.82 0 M34.82 0 C36.85 -0.33, 38.99 2.14, 38.57 3.74 M34.82 0 C38.12 -0.19, 37.71 0.72, 38.57 3.74 M38.57 3.74 C38.49 6.37, 38.3 8.97, 38.57 11.23 M38.57 3.74 C38.72 5.21, 38.63 7.02, 38.57 11.23 M38.57 11.23 C39.11 13.07, 37.41 15.16, 34.82 14.98 M38.57 11.23 C39.21 13.81, 38.37 15.75, 34.82 14.98 M34.82 14.98 C26.69 15.5, 18.23 15.66, 3.74 14.98 M34.82 14.98 C27.03 15.11, 18.92 14.68, 3.74 14.98 M3.74 14.98 C1.41 15.95, 0.96 14.48, 0 11.23 M3.74 14.98 C1.62 14.62, -0.03 14.23, 0 11.23 M0 11.23 C-0.07 9.65, 0.02 7.95, 0 3.74 M0 11.23 C0.19 8.34, 0.14 5.57, 0 3.74 M0 3.74 C0.05 1.98, 0.89 0.79, 3.74 0 M0 3.74 C-1.01 1.64, 0.82 -0.75, 3.74 0" stroke="#343a40" stroke-width="2" fill="none"></path></g><g stroke-linecap="round" transform="translate(39.397448168828305 13.626040698085376) rotate(269.315648468081 13.974609375 10.47265625)"><path d="M5.24 0 C12.97 -2.3, 16.72 -2.43, 22.71 0 C24.19 -1.34, 24.43 4.86, 27.95 5.24 C28.7 7.76, 29.64 13.06, 27.95 15.71 C24.52 21.58, 25.71 20.44, 22.71 20.95 C19.99 23.38, 13.07 20.19, 5.24 20.95 C2.13 20.31, 2 19.47, 0 15.71 C-0.12 11.57, -1.4 9.52, 0 5.24 C1.6 2.59, -1.01 -0.82, 5.24 0" stroke="none" stroke-width="0" fill="#a5d8ff"></path><path d="M5.24 0 C10.01 -0.69, 15.07 -0.27, 22.71 0 M5.24 0 C10.44 -1.01, 14.58 -0.46, 22.71 0 M22.71 0 C27.05 1.78, 29.34 1.42, 27.95 5.24 M22.71 0 C24.49 -1.05, 28.92 1.21, 27.95 5.24 M27.95 5.24 C27.22 8.83, 26.99 12.21, 27.95 15.71 M27.95 5.24 C28.17 8.68, 28.31 11.06, 27.95 15.71 M27.95 15.71 C28.13 19.57, 27.33 21.08, 22.71 20.95 M27.95 15.71 C30.06 20.76, 25.31 19.5, 22.71 20.95 M22.71 20.95 C15.47 22, 8.7 20.24, 5.24 20.95 M22.71 20.95 C17.46 20.53, 13.05 21.85, 5.24 20.95 M5.24 20.95 C3.66 22.46, 0.65 18.57, 0 15.71 M5.24 20.95 C1.68 21.94, -1.94 19.79, 0 15.71 M0 15.71 C0.09 11.48, 0.96 7.05, 0 5.24 M0 15.71 C0.23 12.95, -0.07 9.57, 0 5.24 M0 5.24 C-0.71 3.32, -0.01 0.68, 5.24 0 M0 5.24 C-0.87 0.25, 1.53 -1.63, 5.24 0" stroke="#1e1e1e" stroke-width="2" fill="none"></path></g><g stroke-linecap="round" transform="translate(27.939453125 38.740472132401806) rotate(269.315648468081 25.4296875 23.859375)"><path d="M25.32 0.89 C30.39 0.67, 37.13 2.4, 41.33 5.46 C45.52 8.51, 49.28 14.3, 50.48 19.22 C51.68 24.15, 51.18 30.35, 48.54 34.99 C45.89 39.63, 39.8 45.07, 34.59 47.07 C29.37 49.08, 22.24 48.85, 17.24 47.03 C12.23 45.2, 7.25 40.69, 4.56 36.14 C1.86 31.59, 0.22 24.91, 1.06 19.7 C1.9 14.5, 5.03 8.25, 9.59 4.93 C14.15 1.6, 24.96 0.41, 28.41 -0.25 C31.86 -0.91, 30.5 0.41, 30.28 0.96 M24.46 -0.42 C29.43 -0.97, 36.48 1.69, 40.72 4.82 C44.97 7.95, 48.61 13.12, 49.94 18.36 C51.27 23.59, 51.27 31.55, 48.69 36.23 C46.11 40.9, 39.71 44.85, 34.45 46.41 C29.2 47.96, 22.14 47.2, 17.17 45.56 C12.21 43.91, 7.68 40.7, 4.65 36.54 C1.61 32.38, -1.74 25.81, -1.02 20.6 C-0.3 15.39, 4.51 8.87, 8.97 5.3 C13.43 1.73, 22.79 -0.22, 25.73 -0.81 C28.67 -1.4, 26.45 1.15, 26.59 1.78" stroke="none" stroke-width="0" fill="#a5d8ff"></path><path d="M23.35 0.56 C28.32 -0.47, 34 0.6, 38.34 3.39 C42.69 6.19, 47.53 12.24, 49.42 17.32 C51.32 22.41, 51.82 29.39, 49.72 33.9 C47.62 38.41, 41.87 42.11, 36.79 44.38 C31.71 46.65, 24.55 48.53, 19.23 47.52 C13.91 46.52, 8.11 42.47, 4.88 38.35 C1.65 34.22, -0.37 27.86, -0.15 22.77 C0.06 17.69, 2.37 11.58, 6.17 7.86 C9.97 4.13, 19.56 1.54, 22.65 0.44 C25.74 -0.67, 24.62 0.86, 24.71 1.24 M34.13 1.68 C39.12 3.21, 45.27 7.39, 48.23 11.92 C51.18 16.46, 53.03 24.03, 51.87 28.89 C50.72 33.76, 45.48 37.98, 41.29 41.11 C37.1 44.25, 31.97 47.6, 26.72 47.69 C21.47 47.78, 14.03 45.04, 9.79 41.66 C5.55 38.28, 2.44 32.4, 1.25 27.41 C0.07 22.43, 0.09 15.99, 2.67 11.75 C5.26 7.5, 11.66 3.82, 16.78 1.96 C21.9 0.1, 30.52 0.37, 33.4 0.59 C36.28 0.81, 33.87 2.61, 34.07 3.3" stroke="#1e1e1e" stroke-width="2" fill="none"></path></g></svg>