<svg version="1.1" xmlns="http://www.w3.org/2000/svg" viewBox="0 0 107.36794445733497 127.12357954545405" width="107.36794445733497" height="127.12357954545405">
  <!-- svg-source:excalidraw -->
  
  <defs>
    <style class="style-fonts">
      @font-face {
        font-family: "Virgil";
        src: url("https://excalidraw.com/Virgil.woff2");
      }
      @font-face {
        font-family: "Cascadia";
        src: url("https://excalidraw.com/Cascadia.woff2");
      }
      @font-face {
        font-family: "Assistant";
        src: url("https://excalidraw.com/Assistant-Regular.woff2");
      }
    </style>
    
  </defs>
  <g stroke-linecap="round" transform="translate(10 24.85274621212102) rotate(0 42.630859375 38.322265625)"><path d="M19.16 0 C27.79 -1.6, 39.25 1.99, 66.1 0 C79.33 -2.81, 84.97 4.09, 85.26 19.16 C82.17 24.3, 82.24 34.33, 85.26 57.48 C85.62 72.06, 77.12 73.89, 66.1 76.64 C47.54 79.21, 33.07 77.22, 19.16 76.64 C3.3 79.32, -1.02 71.11, 0 57.48 C3.28 46.65, 2.79 38.81, 0 19.16 C-1.99 7.82, 8.27 2.76, 19.16 0" stroke="none" stroke-width="0" fill="#e64980"></path><path d="M19.16 0 C36.12 0.94, 53.61 -1.08, 66.1 0 M19.16 0 C31.92 -0.69, 45.65 0.82, 66.1 0 M66.1 0 C80.79 1.51, 85.91 5.76, 85.26 19.16 M66.1 0 C78.81 0.99, 83.32 6.98, 85.26 19.16 M85.26 19.16 C85.34 33.74, 87 47.94, 85.26 57.48 M85.26 19.16 C86.24 32.06, 85.66 43.77, 85.26 57.48 M85.26 57.48 C84.55 71.83, 77.12 77.33, 66.1 76.64 M85.26 57.48 C84.4 68.76, 78.66 75.02, 66.1 76.64 M66.1 76.64 C50.48 75.24, 32.31 75.16, 19.16 76.64 M66.1 76.64 C55.51 76.41, 43.47 76.24, 19.16 76.64 M19.16 76.64 C7.12 75.73, 1.73 71.38, 0 57.48 M19.16 76.64 C4.2 78.17, -0.32 69.93, 0 57.48 M0 57.48 C1.94 46.93, 1.02 32.94, 0 19.16 M0 57.48 C0.14 45.26, 0.48 33.24, 0 19.16 M0 19.16 C-0.04 4.97, 4.98 -0.61, 19.16 0 M0 19.16 C1.02 6.93, 4.63 -0.52, 19.16 0" stroke="#1e1e1e" stroke-width="2" fill="none"></path></g><g stroke-linecap="round" transform="translate(33.868992660984986 102.14701704545405) rotate(0 19.283203125 7.48828125)"><path d="M3.74 0 C13.87 2.07, 28.12 -1.93, 34.82 0 C37.11 -1.66, 36.11 2.46, 38.57 3.74 C37.57 5.11, 38.57 7.26, 38.57 11.23 C37.3 11.74, 39.11 12.98, 34.82 14.98 C29.2 16.26, 19.06 17.28, 3.74 14.98 C0.51 15.59, -1.71 14, 0 11.23 C0.68 9.36, -0.63 8.26, 0 3.74 C1.36 3.24, 0.47 1.3, 3.74 0" stroke="none" stroke-width="0" fill="#868e96"></path><path d="M3.74 0 C13.84 -0.53, 24.69 0.03, 34.82 0 M3.74 0 C14.14 0.57, 24.86 0.46, 34.82 0 M34.82 0 C37.64 -0.31, 38.54 1.68, 38.57 3.74 M34.82 0 C36.35 0.29, 39.58 1.06, 38.57 3.74 M38.57 3.74 C38.91 5.88, 38.61 8.72, 38.57 11.23 M38.57 3.74 C38.6 6.25, 38.52 8.62, 38.57 11.23 M38.57 11.23 C37.69 14.07, 36.94 14.33, 34.82 14.98 M38.57 11.23 C38.46 12.92, 37.94 14.99, 34.82 14.98 M34.82 14.98 C24.96 14.1, 15.11 14.49, 3.74 14.98 M34.82 14.98 C28.68 15.04, 22.44 14.78, 3.74 14.98 M3.74 14.98 C2.11 15.54, -0.95 14.39, 0 11.23 M3.74 14.98 C1.09 14.81, 0.14 13.11, 0 11.23 M0 11.23 C0.12 8.35, 0.01 5.63, 0 3.74 M0 11.23 C0.07 8.49, -0.01 5.77, 0 3.74 M0 3.74 C-0.7 0.94, 1.69 0.23, 3.74 0 M0 3.74 C-0.88 0.99, 0.58 -0.69, 3.74 0" stroke="#1e1e1e" stroke-width="2" fill="none"></path></g><g stroke-linecap="round" transform="translate(34.05486505681802 10) rotate(0 19.283203125 7.48828125)"><path d="M3.74 0 C12.64 -2.34, 20.68 -1.97, 34.82 0 C34.86 1.21, 36.03 -1.22, 38.57 3.74 C38.57 5.91, 38 6.36, 38.57 11.23 C40.36 11.74, 35.18 14.08, 34.82 14.98 C20.46 17.05, 9.81 15.73, 3.74 14.98 C-0.46 15.25, -1.97 16.15, 0 11.23 C-0.61 9.76, 0.43 8.26, 0 3.74 C-0.78 2.55, 3.62 0.27, 3.74 0" stroke="none" stroke-width="0" fill="#868e96"></path><path d="M3.74 0 C14.62 0.19, 26.21 -0.33, 34.82 0 M3.74 0 C11.87 0.23, 19.21 -0.31, 34.82 0 M34.82 0 C37.29 0.43, 37.72 1.5, 38.57 3.74 M34.82 0 C38.34 -0.19, 38.68 1.33, 38.57 3.74 M38.57 3.74 C38.64 6.22, 38.66 8.24, 38.57 11.23 M38.57 3.74 C38.5 6.86, 38.4 9.74, 38.57 11.23 M38.57 11.23 C38.19 13.08, 37.22 14.27, 34.82 14.98 M38.57 11.23 C39.19 13.74, 37.41 15.54, 34.82 14.98 M34.82 14.98 C27.19 14.49, 19.69 15.72, 3.74 14.98 M34.82 14.98 C24.97 14.76, 15.18 15.27, 3.74 14.98 M3.74 14.98 C0.3 15.64, -0.14 13.59, 0 11.23 M3.74 14.98 C1.39 14.36, 0.8 14.73, 0 11.23 M0 11.23 C0.02 8.39, 0.19 5.71, 0 3.74 M0 11.23 C-0.02 9.09, -0.15 7.16, 0 3.74 M0 3.74 C0.44 1.48, 0.48 -0.23, 3.74 0 M0 3.74 C-0.67 0.56, 2.25 -0.87, 3.74 0" stroke="#343a40" stroke-width="2" fill="none"></path></g><g stroke-linecap="round" transform="translate(66.23235194657354 79.23082182887447) rotate(47.524435689906944 13.974609375 10.47265625)"><path d="M5.24 0 C11.55 -1.76, 15.39 1.71, 22.71 0 C22.69 -3.42, 25.22 -1.6, 27.95 5.24 C27.05 6.77, 29.27 9.74, 27.95 15.71 C24.99 17.95, 29.46 22.54, 22.71 20.95 C15.96 21.92, 8.93 21.51, 5.24 20.95 C-0.98 24.3, -1.85 22.06, 0 15.71 C1.09 14.22, -0.46 10.78, 0 5.24 C3.28 2.12, 3.59 -0.7, 5.24 0" stroke="none" stroke-width="0" fill="#a5d8ff"></path><path d="M5.24 0 C10.26 -0.72, 13.23 0.26, 22.71 0 M5.24 0 C12.46 -0.41, 19.1 0.25, 22.71 0 M22.71 0 C24.51 0.51, 29.72 1.42, 27.95 5.24 M22.71 0 C26.43 0.16, 27.6 3.82, 27.95 5.24 M27.95 5.24 C28.13 8.52, 28.97 10.53, 27.95 15.71 M27.95 5.24 C27.45 9.33, 27.72 12.72, 27.95 15.71 M27.95 15.71 C27.76 17.79, 27.28 20.96, 22.71 20.95 M27.95 15.71 C28.14 20.34, 24.54 20.3, 22.71 20.95 M22.71 20.95 C17.09 22.39, 15.29 21.39, 5.24 20.95 M22.71 20.95 C18.12 21.36, 11.19 21.44, 5.24 20.95 M5.24 20.95 C1.47 20.66, 0.24 18.12, 0 15.71 M5.24 20.95 C3.35 22.94, 1.62 20.13, 0 15.71 M0 15.71 C0.57 12.97, -0.35 10.5, 0 5.24 M0 15.71 C-0.37 12.86, 0.24 10.45, 0 5.24 M0 5.24 C-1.53 1.29, 0.59 -1.2, 5.24 0 M0 5.24 C2 0, 1.19 -1.68, 5.24 0" stroke="#1e1e1e" stroke-width="2" fill="none"></path></g><g stroke-linecap="round" transform="translate(28.403524648314487 38.00359175136873) rotate(47.524435689906944 25.4296875 23.859375)"><path d="M34.52 1.13 C39.37 2.35, 44.8 7.25, 47.55 11.74 C50.31 16.23, 52.05 22.93, 51.03 28.07 C50.02 33.2, 45.8 39.27, 41.46 42.54 C37.13 45.81, 30.52 47.88, 25.01 47.7 C19.5 47.51, 12.54 44.65, 8.38 41.44 C4.23 38.24, 0.87 33.5, 0.08 28.46 C-0.71 23.41, 0.9 15.77, 3.64 11.17 C6.37 6.58, 11.18 2.21, 16.49 0.86 C21.81 -0.48, 32.11 2.68, 35.54 3.09 C38.96 3.5, 37.26 2.99, 37.06 3.33 M26.06 -1.37 C31.56 -1.6, 39.79 1.54, 43.66 5.11 C47.53 8.68, 49.02 14.77, 49.28 20.06 C49.54 25.34, 47.97 32.25, 45.22 36.82 C42.47 41.4, 37.88 46.2, 32.76 47.5 C27.65 48.79, 19.37 46.94, 14.52 44.58 C9.68 42.22, 6.19 37.8, 3.69 33.32 C1.18 28.85, -1.86 22.4, -0.52 17.73 C0.81 13.07, 7.01 8.48, 11.69 5.32 C16.37 2.16, 24.81 -0.37, 27.55 -1.24 C30.29 -2.11, 28.16 -0.35, 28.11 0.1" stroke="none" stroke-width="0" fill="#a5d8ff"></path><path d="M28.2 0.4 C33.18 0.32, 39.13 3.44, 42.96 6.83 C46.79 10.22, 50.56 15.51, 51.18 20.75 C51.79 25.99, 49.82 33.91, 46.63 38.28 C43.44 42.64, 37.32 45.77, 32.04 46.95 C26.76 48.14, 19.71 47.63, 14.93 45.41 C10.16 43.19, 5.7 38.05, 3.37 33.61 C1.03 29.17, -0.31 23.54, 0.93 18.78 C2.18 14.02, 5.95 8.13, 10.84 5.05 C15.73 1.98, 26.78 1.05, 30.27 0.33 C33.76 -0.39, 31.86 0.48, 31.76 0.72 M29.61 -0.71 C35 -0.02, 42.1 4.27, 45.66 8.47 C49.22 12.68, 51.28 19.47, 50.98 24.51 C50.69 29.55, 47.58 35.04, 43.88 38.71 C40.19 42.37, 34.07 45.77, 28.79 46.5 C23.52 47.24, 16.56 45.44, 12.24 43.1 C7.92 40.75, 4.58 36.98, 2.86 32.44 C1.15 27.91, 0.22 20.85, 1.94 15.87 C3.66 10.89, 8.33 5, 13.19 2.55 C18.04 0.11, 28.54 1.31, 31.05 1.19 C33.56 1.07, 28.56 1.59, 28.24 1.81" stroke="#1e1e1e" stroke-width="2" fill="none"></path></g></svg>