<svg version="1.1" xmlns="http://www.w3.org/2000/svg" viewBox="0 0 107.36794445733494 127.12357954545405" width="107.36794445733494" height="127.12357954545405">
  <!-- svg-source:excalidraw -->
  
  <defs>
    <style class="style-fonts">
      @font-face {
        font-family: "Virgil";
        src: url("https://excalidraw.com/Virgil.woff2");
      }
      @font-face {
        font-family: "Cascadia";
        src: url("https://excalidraw.com/Cascadia.woff2");
      }
      @font-face {
        font-family: "Assistant";
        src: url("https://excalidraw.com/Assistant-Regular.woff2");
      }
    </style>
    
  </defs>
  <g stroke-linecap="round" transform="translate(10 24.85274621212102) rotate(0 42.630859375 38.322265625)"><path d="M19.16 0 C37.2 1.88, 51.69 -3.38, 66.1 0 C80.44 3.19, 83.95 5.9, 85.26 19.16 C81.39 29.02, 83.55 47.01, 85.26 57.48 C84.65 72.22, 82.41 73.98, 66.1 76.64 C50.4 77.01, 36.34 76.35, 19.16 76.64 C5.31 79.82, -3.49 69.9, 0 57.48 C-0.11 44.53, -0.2 35.91, 0 19.16 C-2.26 7.16, 3.46 -0.95, 19.16 0" stroke="none" stroke-width="0" fill="#a18072"></path><path d="M19.16 0 C31.6 0.66, 40.84 0.79, 66.1 0 M19.16 0 C34.33 0.58, 47.49 -0.12, 66.1 0 M66.1 0 C77.49 1.58, 85.59 4.84, 85.26 19.16 M66.1 0 C78.03 0.63, 84.88 7.28, 85.26 19.16 M85.26 19.16 C84.31 32.92, 85.4 47.76, 85.26 57.48 M85.26 19.16 C84.82 27.63, 86.23 34.1, 85.26 57.48 M85.26 57.48 C86.01 71.49, 78.75 75.7, 66.1 76.64 M85.26 57.48 C84.96 71.67, 80.35 76.1, 66.1 76.64 M66.1 76.64 C54.77 77.14, 42.89 76.22, 19.16 76.64 M66.1 76.64 C53.95 76.33, 43.86 76.48, 19.16 76.64 M19.16 76.64 C7.09 74.67, -0.66 71.93, 0 57.48 M19.16 76.64 C7.49 75.78, -0.21 68.84, 0 57.48 M0 57.48 C1.03 41.2, 2.07 28.13, 0 19.16 M0 57.48 C0.79 49.59, 0.25 40.87, 0 19.16 M0 19.16 C-1.17 5.92, 5.86 0.53, 19.16 0 M0 19.16 C-1.2 4.78, 8.09 -0.68, 19.16 0" stroke="#1e1e1e" stroke-width="2" fill="none"></path></g><g stroke-linecap="round" transform="translate(33.868992660984986 102.14701704545405) rotate(0 19.283203125 7.48828125)"><path d="M3.74 0 C14.84 -2.63, 23.77 2.09, 34.82 0 C36.37 -0.35, 39.45 -0.39, 38.57 3.74 C38.13 6.24, 38.31 8.04, 38.57 11.23 C41.12 11.8, 37.39 17.31, 34.82 14.98 C23.8 14.64, 13.92 17.29, 3.74 14.98 C-1.27 14.72, -1.06 14.06, 0 11.23 C-0.03 8.3, -0.61 6.51, 0 3.74 C-2.12 0.56, 3.5 1.21, 3.74 0" stroke="none" stroke-width="0" fill="#868e96"></path><path d="M3.74 0 C12.79 0.38, 23.52 0.78, 34.82 0 M3.74 0 C13.03 -0.15, 22.07 0.3, 34.82 0 M34.82 0 C37.48 -0.77, 38.2 1.52, 38.57 3.74 M34.82 0 C37.13 0.45, 39.36 0.76, 38.57 3.74 M38.57 3.74 C38.61 6.58, 38.19 9.65, 38.57 11.23 M38.57 3.74 C38.65 6.14, 38.61 8.87, 38.57 11.23 M38.57 11.23 C38.5 13.26, 37.19 15.59, 34.82 14.98 M38.57 11.23 C39.3 13.45, 36.69 15.53, 34.82 14.98 M34.82 14.98 C28.4 15.07, 21.58 14.94, 3.74 14.98 M34.82 14.98 C24.23 14.71, 13.57 14.4, 3.74 14.98 M3.74 14.98 C0.92 15.81, 0.48 13.35, 0 11.23 M3.74 14.98 C1.15 14.27, 0.87 13.51, 0 11.23 M0 11.23 C0.36 8.67, -0.3 6.25, 0 3.74 M0 11.23 C0.01 9.46, -0.14 7.45, 0 3.74 M0 3.74 C-0.26 1.51, 0.73 -0.7, 3.74 0 M0 3.74 C0.85 0.91, 1.5 0.05, 3.74 0" stroke="#1e1e1e" stroke-width="2" fill="none"></path></g><g stroke-linecap="round" transform="translate(34.05486505681802 10) rotate(0 19.283203125 7.48828125)"><path d="M3.74 0 C15.85 2.68, 24.74 0.03, 34.82 0 C38.2 -1.64, 37.3 -1.23, 38.57 3.74 C38.37 5.91, 39.49 6.29, 38.57 11.23 C38.64 16.07, 37.94 13.91, 34.82 14.98 C24.58 17.21, 13.37 14.66, 3.74 14.98 C0.19 15.31, 0.77 13.71, 0 11.23 C-0.61 9.82, -0.79 7.74, 0 3.74 C2.25 2.46, -0.95 2.18, 3.74 0" stroke="none" stroke-width="0" fill="#868e96"></path><path d="M3.74 0 C14.25 0.77, 24.71 0.89, 34.82 0 M3.74 0 C14.54 0.41, 26.12 -0.37, 34.82 0 M34.82 0 C36.95 0.27, 38.4 1.64, 38.57 3.74 M34.82 0 C38.11 -0.48, 39.38 0.79, 38.57 3.74 M38.57 3.74 C38.21 6.2, 38.7 7.66, 38.57 11.23 M38.57 3.74 C38.66 6.64, 38.58 9.21, 38.57 11.23 M38.57 11.23 C38.44 14.34, 37.96 14.74, 34.82 14.98 M38.57 11.23 C37.93 14.28, 36.21 15.08, 34.82 14.98 M34.82 14.98 C23.42 14.87, 13.68 14.07, 3.74 14.98 M34.82 14.98 C27.32 14.43, 19.3 15.34, 3.74 14.98 M3.74 14.98 C1.73 14.6, -0.09 13.11, 0 11.23 M3.74 14.98 C2.12 14.76, 0.33 14.28, 0 11.23 M0 11.23 C-0.32 9.63, -0.23 8.42, 0 3.74 M0 11.23 C-0.12 8.42, -0.06 5.75, 0 3.74 M0 3.74 C-0.52 0.55, 1.99 -0.3, 3.74 0 M0 3.74 C0.26 1.3, 1.29 0.93, 3.74 0" stroke="#343a40" stroke-width="2" fill="none"></path></g><g stroke-linecap="round" transform="translate(66.23235194657354 79.23082182887356) rotate(47.524435689906944 13.974609375 10.47265625)"><path d="M5.24 0 C7.71 -0.7, 13.54 -2.27, 22.71 0 C24.45 -3.43, 25.01 0.47, 27.95 5.24 C29.77 7.64, 27.97 14.53, 27.95 15.71 C28.81 17.72, 26.37 19.62, 22.71 20.95 C14.66 20.91, 11.43 21.62, 5.24 20.95 C2.81 20.92, -3.02 19.09, 0 15.71 C-1.42 12.56, 1.75 11.29, 0 5.24 C-3.05 4.76, 4.96 -1.69, 5.24 0" stroke="none" stroke-width="0" fill="#fcc2d7"></path><path d="M5.24 0 C11.25 1.53, 18.27 -0.32, 22.71 0 M5.24 0 C10.41 -0.81, 14.98 0.1, 22.71 0 M22.71 0 C25.88 0.78, 29.33 0.9, 27.95 5.24 M22.71 0 C27.83 -0.91, 27.52 2.09, 27.95 5.24 M27.95 5.24 C28.21 7.7, 28.59 12.5, 27.95 15.71 M27.95 5.24 C27.96 7.52, 27.92 10.61, 27.95 15.71 M27.95 15.71 C29.23 18.72, 25.11 21.91, 22.71 20.95 M27.95 15.71 C25.72 19.4, 27.29 20.71, 22.71 20.95 M22.71 20.95 C18.22 19.34, 11.24 21.35, 5.24 20.95 M22.71 20.95 C17.83 21.51, 13.95 20.44, 5.24 20.95 M5.24 20.95 C1.57 19.71, 1.51 18.83, 0 15.71 M5.24 20.95 C2.41 22.05, -2.17 21.5, 0 15.71 M0 15.71 C-0.45 13.62, 0.8 10.21, 0 5.24 M0 15.71 C-0.08 12.14, -0.21 7.93, 0 5.24 M0 5.24 C1.48 1.15, 2.19 0.08, 5.24 0 M0 5.24 C0.09 3.61, 2.96 1.46, 5.24 0" stroke="#1e1e1e" stroke-width="2" fill="none"></path></g><g stroke-linecap="round" transform="translate(28.403524648314487 38.00359175136782) rotate(47.524435689906944 25.4296875 23.859375000000004)"><path d="M30.07 -0.03 C35.04 0.49, 40.26 3.84, 43.64 7.82 C47.02 11.8, 49.94 18.69, 50.35 23.85 C50.75 29.02, 49.29 35.02, 46.09 38.82 C42.9 42.61, 36.64 45.66, 31.15 46.63 C25.67 47.6, 18.01 47.02, 13.16 44.62 C8.32 42.21, 4.17 36.76, 2.08 32.18 C-0.02 27.6, -1.03 21.86, 0.58 17.13 C2.19 12.4, 6.36 6.47, 11.75 3.79 C17.13 1.12, 28.68 1.16, 32.89 1.08 C37.11 1, 37.08 3.1, 37.05 3.32 M30.72 1.07 C35.47 1.79, 41.54 4.83, 44.65 8.6 C47.77 12.36, 49.57 18.28, 49.4 23.67 C49.24 29.05, 47.14 36.8, 43.65 40.91 C40.17 45.02, 33.57 48, 28.5 48.33 C23.44 48.66, 17.8 45.53, 13.25 42.88 C8.7 40.22, 3.05 37.18, 1.22 32.39 C-0.6 27.6, 0.2 19.16, 2.29 14.12 C4.38 9.08, 9.01 4.48, 13.75 2.15 C18.49 -0.19, 27.65 0.54, 30.72 0.12 C33.78 -0.31, 32.22 -0.79, 32.14 -0.42" stroke="none" stroke-width="0" fill="#fcc2d7"></path><path d="M24.97 0.2 C30.02 -0.29, 35.77 1.45, 40.03 4.48 C44.28 7.52, 49.1 13.24, 50.5 18.4 C51.9 23.56, 51.04 30.76, 48.44 35.45 C45.83 40.14, 40.02 44.72, 34.87 46.56 C29.72 48.39, 22.63 48.07, 17.52 46.47 C12.41 44.87, 7.26 41.06, 4.21 36.95 C1.16 32.85, -1.49 27.05, -0.77 21.82 C-0.06 16.59, 3.03 8.98, 8.49 5.55 C13.95 2.12, 27.21 1.53, 31.98 1.25 C36.74 0.97, 37.17 3.58, 37.06 3.85 M20.46 0.3 C25.31 -1.16, 31.48 0.87, 35.96 3.23 C40.43 5.59, 44.87 9.94, 47.3 14.48 C49.73 19.03, 51.82 25.76, 50.52 30.49 C49.22 35.21, 44.18 39.89, 39.49 42.85 C34.8 45.81, 28.02 48.8, 22.38 48.24 C16.73 47.67, 9.28 43.4, 5.62 39.49 C1.96 35.57, 0.42 29.97, 0.41 24.75 C0.39 19.54, 2.42 11.99, 5.52 8.18 C8.62 4.38, 16.53 3.19, 19 1.92 C21.47 0.64, 20.18 0.54, 20.34 0.56" stroke="#1e1e1e" stroke-width="2" fill="none"></path></g></svg>