<svg version="1.1" xmlns="http://www.w3.org/2000/svg" viewBox="0 0 117.88881138392844 127.12357954545405" width="117.88881138392844" height="127.12357954545405">
  <!-- svg-source:excalidraw -->
  
  <defs>
    <style class="style-fonts">
      @font-face {
        font-family: "Virgil";
        src: url("https://excalidraw.com/Virgil.woff2");
      }
      @font-face {
        font-family: "Cascadia";
        src: url("https://excalidraw.com/Cascadia.woff2");
      }
      @font-face {
        font-family: "Assistant";
        src: url("https://excalidraw.com/Assistant-Regular.woff2");
      }
    </style>
    
  </defs>
  <g stroke-linecap="round" transform="translate(10 24.85274621212011) rotate(0 42.630859375 38.322265625)"><path d="M19.16 0 C32.92 2.62, 42.37 2.68, 66.1 0 C77.45 -0.67, 85.8 6.98, 85.26 19.16 C83.01 29.47, 88.11 32.58, 85.26 57.48 C86.6 72.47, 78.65 74.95, 66.1 76.64 C51.77 75.21, 40.89 73.71, 19.16 76.64 C6.71 78.35, -0.37 70.32, 0 57.48 C-3.19 46.4, 0.94 37.79, 0 19.16 C1.26 2.83, 5.2 3.02, 19.16 0" stroke="none" stroke-width="0" fill="#a18072"></path><path d="M19.16 0 C36.02 0.7, 53.3 0.54, 66.1 0 M19.16 0 C35.37 0.81, 52.64 0.18, 66.1 0 M66.1 0 C79.36 -0.35, 83.6 8.23, 85.26 19.16 M66.1 0 C81.15 1.14, 83.3 7.9, 85.26 19.16 M85.26 19.16 C86.01 31.12, 84.76 46.88, 85.26 57.48 M85.26 19.16 C84.44 30.22, 85.46 41.15, 85.26 57.48 M85.26 57.48 C85.35 68.99, 77.95 74.82, 66.1 76.64 M85.26 57.48 C85.74 70.22, 76.66 75.27, 66.1 76.64 M66.1 76.64 C56.6 75.46, 42.91 78.02, 19.16 76.64 M66.1 76.64 C50.63 75.61, 36.01 76.75, 19.16 76.64 M19.16 76.64 C6.54 77.39, 0.56 68.82, 0 57.48 M19.16 76.64 C7.23 74.85, -1.9 69.05, 0 57.48 M0 57.48 C-0.49 42.05, 1.55 29.02, 0 19.16 M0 57.48 C0.29 44.53, 0.7 31.53, 0 19.16 M0 19.16 C1.92 7.56, 6.19 -0.24, 19.16 0 M0 19.16 C-1.59 8.21, 6.77 -1.78, 19.16 0" stroke="#1e1e1e" stroke-width="2" fill="none"></path></g><g stroke-linecap="round" transform="translate(33.86899266098453 102.14701704545405) rotate(0 19.283203125 7.48828125)"><path d="M3.74 0 C11.46 1.56, 20.34 -0.76, 34.82 0 C37.71 0.42, 36.03 3.7, 38.57 3.74 C39.08 5.68, 38.85 9.35, 38.57 11.23 C38.41 12.5, 36.98 16.57, 34.82 14.98 C24.76 12.24, 12.42 15.98, 3.74 14.98 C0.98 15.02, -1.57 13.44, 0 11.23 C0.32 8.29, 0.43 5.11, 0 3.74 C-0.86 3.43, 2.49 -0.98, 3.74 0" stroke="none" stroke-width="0" fill="#868e96"></path><path d="M3.74 0 C10.95 0.07, 18.44 -0.58, 34.82 0 M3.74 0 C11.01 -0.12, 19.11 -0.17, 34.82 0 M34.82 0 C36.49 0.92, 39.55 1.75, 38.57 3.74 M34.82 0 C36.34 0.76, 39.09 1.82, 38.57 3.74 M38.57 3.74 C38.45 6.13, 38.51 8.05, 38.57 11.23 M38.57 3.74 C38.58 5.85, 38.54 7.71, 38.57 11.23 M38.57 11.23 C38.1 12.82, 37.53 14.96, 34.82 14.98 M38.57 11.23 C37.46 13.04, 36.52 14.68, 34.82 14.98 M34.82 14.98 C26.65 15.74, 20.16 14.67, 3.74 14.98 M34.82 14.98 C25.49 14.9, 16.85 15.01, 3.74 14.98 M3.74 14.98 C1.53 14.26, 0.37 12.95, 0 11.23 M3.74 14.98 C0.3 14.37, 0.87 14.24, 0 11.23 M0 11.23 C0.33 9.64, 0.15 8.05, 0 3.74 M0 11.23 C0.14 9.61, 0.16 8.09, 0 3.74 M0 3.74 C-0.1 1.13, 0.56 0.79, 3.74 0 M0 3.74 C0.19 0.36, 0.83 0.32, 3.74 0" stroke="#1e1e1e" stroke-width="2" fill="none"></path></g><g stroke-linecap="round" transform="translate(34.05486505681802 10) rotate(0 19.283203125 7.48828125)"><path d="M3.74 0 C14.18 -0.77, 27.06 0.14, 34.82 0 C34.79 2.45, 39.46 -0.85, 38.57 3.74 C38.99 7.12, 38.57 8.84, 38.57 11.23 C38.23 15.33, 38.99 14.36, 34.82 14.98 C27.44 15.81, 19.32 14.63, 3.74 14.98 C-0.32 14.68, 1.16 11.37, 0 11.23 C0.32 8.42, -0.34 8.35, 0 3.74 C1.25 0.27, 1.02 -1.6, 3.74 0" stroke="none" stroke-width="0" fill="#868e96"></path><path d="M3.74 0 C14.25 -0.57, 22.93 -0.9, 34.82 0 M3.74 0 C14.9 -0.08, 25.39 0.47, 34.82 0 M34.82 0 C38.31 0.5, 37.71 1.91, 38.57 3.74 M34.82 0 C37.84 0.57, 38.43 1.57, 38.57 3.74 M38.57 3.74 C38.49 5.5, 38.45 6.97, 38.57 11.23 M38.57 3.74 C38.58 6.05, 38.49 8.42, 38.57 11.23 M38.57 11.23 C38.77 13.71, 36.36 14.38, 34.82 14.98 M38.57 11.23 C37.77 13.43, 36.61 15.73, 34.82 14.98 M34.82 14.98 C27.02 14.87, 18.85 14.35, 3.74 14.98 M34.82 14.98 C28.61 15.19, 22.46 14.64, 3.74 14.98 M3.74 14.98 C1.61 14.2, -0.83 13.2, 0 11.23 M3.74 14.98 C2.12 15.49, -0.9 13.55, 0 11.23 M0 11.23 C0.11 9.51, -0.34 7.67, 0 3.74 M0 11.23 C0.15 9.08, -0.05 6.68, 0 3.74 M0 3.74 C-0.69 2.04, 1.41 -0.77, 3.74 0 M0 3.74 C-0.42 1.56, 1.06 0.45, 3.74 0" stroke="#343a40" stroke-width="2" fill="none"></path></g><g stroke-linecap="round" transform="translate(79.93959263392844 52.35810673701235) rotate(0 13.974609375 10.47265625)"><path d="M5.24 0 C12.19 0.57, 15.12 3.03, 22.71 0 C27.44 -2.9, 30.5 3.95, 27.95 5.24 C27.9 6.88, 27.77 11.45, 27.95 15.71 C30.26 18.34, 24.23 22.68, 22.71 20.95 C18.83 21.15, 13.7 20.74, 5.24 20.95 C3.36 17.68, -1.91 20.06, 0 15.71 C-0.69 14.54, 0.84 9.5, 0 5.24 C-0.32 -0.47, 4.47 -0.67, 5.24 0" stroke="none" stroke-width="0" fill="#fcc2d7"></path><path d="M5.24 0 C9.69 -1.44, 17.02 -1.14, 22.71 0 M5.24 0 C9.63 0.83, 16.33 0.47, 22.71 0 M22.71 0 C24.5 1.32, 28.86 2.74, 27.95 5.24 M22.71 0 C25.93 0.64, 26.46 0.96, 27.95 5.24 M27.95 5.24 C27.64 8.17, 28.18 13.02, 27.95 15.71 M27.95 5.24 C27.71 8.27, 28.06 12.24, 27.95 15.71 M27.95 15.71 C26.03 18, 24.81 20.43, 22.71 20.95 M27.95 15.71 C26.53 20.71, 25.18 19.16, 22.71 20.95 M22.71 20.95 C15.84 19.58, 7.59 19.75, 5.24 20.95 M22.71 20.95 C17.44 20.38, 12.01 20.33, 5.24 20.95 M5.24 20.95 C0.1 19.9, 1.52 20.09, 0 15.71 M5.24 20.95 C-0.06 20.58, -1.18 21.18, 0 15.71 M0 15.71 C-0.91 12.84, -0.01 9.93, 0 5.24 M0 15.71 C-0.15 12.5, -0.46 9.83, 0 5.24 M0 5.24 C0.33 0.2, 1.01 0.55, 5.24 0 M0 5.24 C-0.38 2.64, 3.33 -0.97, 5.24 0" stroke="#1e1e1e" stroke-width="2" fill="none"></path></g><g stroke-linecap="round" transform="translate(30.14076450892844 38.31904423701235) rotate(0 25.4296875 23.859375)"><path d="M16.56 1.99 C21.31 0, 28.55 -0.1, 33.47 1.48 C38.38 3.06, 43.19 7.09, 46.05 11.48 C48.92 15.87, 51.24 22.66, 50.67 27.82 C50.09 32.97, 46.53 39.12, 42.61 42.41 C38.68 45.71, 32.58 47.65, 27.12 47.6 C21.66 47.54, 14.11 45.16, 9.82 42.09 C5.54 39.02, 2.68 34.12, 1.39 29.18 C0.11 24.25, -1.32 17.32, 2.1 12.47 C5.53 7.62, 17.59 1.97, 21.94 0.1 C26.29 -1.77, 28.24 0.73, 28.19 1.27 M20.68 -1 C25.97 -2.2, 34.51 0.56, 39.04 3.44 C43.58 6.31, 46.01 11.71, 47.91 16.24 C49.81 20.77, 51.89 25.8, 50.44 30.62 C48.99 35.44, 44.03 42.47, 39.21 45.16 C34.39 47.85, 27.02 47.51, 21.51 46.74 C15.99 45.97, 9.56 44.32, 6.14 40.54 C2.72 36.76, 1.2 29.2, 0.97 24.06 C0.74 18.91, 1.75 13.58, 4.75 9.67 C7.75 5.76, 16.23 2.08, 18.98 0.6 C21.73 -0.88, 20.91 0.56, 21.24 0.78" stroke="none" stroke-width="0" fill="#fcc2d7"></path><path d="M16.43 0.65 C21.34 -1.19, 29.67 0.66, 34.92 2.38 C40.16 4.1, 45.17 6.64, 47.88 10.97 C50.59 15.29, 52.07 23.17, 51.16 28.33 C50.24 33.49, 46.59 38.81, 42.38 41.93 C38.16 45.06, 31.44 46.92, 25.85 47.07 C20.26 47.22, 13.12 45.99, 8.85 42.83 C4.58 39.67, 1.2 33.37, 0.23 28.11 C-0.73 22.84, -0.21 15.77, 3.06 11.23 C6.34 6.68, 16.54 2.59, 19.9 0.83 C23.25 -0.93, 23.26 0.37, 23.21 0.64 M12.78 1.54 C17.06 -0.93, 25.1 -1.23, 30.47 0.31 C35.85 1.85, 41.76 6.77, 45.04 10.77 C48.31 14.77, 50.13 19.33, 50.13 24.3 C50.13 29.27, 48.74 36.73, 45.01 40.59 C41.29 44.45, 33.61 47.16, 27.8 47.43 C21.98 47.69, 14.76 44.97, 10.13 42.19 C5.5 39.41, 1.32 35.29, 0.01 30.73 C-1.3 26.16, -0.15 19.67, 2.28 14.77 C4.72 9.88, 12.52 3.54, 14.64 1.36 C16.76 -0.82, 15.09 1.29, 15 1.7" stroke="#1e1e1e" stroke-width="2" fill="none"></path></g></svg>