<svg version="1.1" xmlns="http://www.w3.org/2000/svg" viewBox="0 0 108.08725249304916 127.12357954545405" width="108.08725249304916" height="127.12357954545405">
  <!-- svg-source:excalidraw -->
  
  <defs>
    <style class="style-fonts">
      @font-face {
        font-family: "Virgil";
        src: url("https://excalidraw.com/Virgil.woff2");
      }
      @font-face {
        font-family: "Cascadia";
        src: url("https://excalidraw.com/Cascadia.woff2");
      }
      @font-face {
        font-family: "Assistant";
        src: url("https://excalidraw.com/Assistant-Regular.woff2");
      }
    </style>
    
  </defs>
  <g stroke-linecap="round" transform="translate(12.825533743049164 24.85274621212102) rotate(0 42.630859375 38.322265625)"><path d="M19.16 0 C33.28 -0.42, 53.37 -3.28, 66.1 0 C76.97 0.86, 83.92 7.65, 85.26 19.16 C86.76 25.52, 84.71 32.37, 85.26 57.48 C87.99 69.59, 79.91 78.37, 66.1 76.64 C53.7 75.86, 44.98 79.03, 19.16 76.64 C8.88 77.33, 1.95 68.14, 0 57.48 C-1.69 44.37, 2.84 35.22, 0 19.16 C0.8 6.53, 6.53 2.92, 19.16 0" stroke="none" stroke-width="0" fill="#a18072"></path><path d="M19.16 0 C33.6 0.8, 47.79 0.47, 66.1 0 M19.16 0 C30.49 0.41, 40.43 -0.17, 66.1 0 M66.1 0 C77.48 -0.51, 84.02 7.7, 85.26 19.16 M66.1 0 C77.85 -1.79, 87.17 6.7, 85.26 19.16 M85.26 19.16 C83.24 28.42, 85.53 40.48, 85.26 57.48 M85.26 19.16 C85.74 31.31, 84.54 44.5, 85.26 57.48 M85.26 57.48 C86.78 71.15, 77.3 76.33, 66.1 76.64 M85.26 57.48 C84.08 72.23, 79.28 77.53, 66.1 76.64 M66.1 76.64 C50.33 78.53, 34.45 78.77, 19.16 76.64 M66.1 76.64 C48.57 77.38, 32.6 75.82, 19.16 76.64 M19.16 76.64 C5.65 77.19, -0.33 71.03, 0 57.48 M19.16 76.64 C7.97 75.68, 1.62 69.35, 0 57.48 M0 57.48 C-2.01 48.59, 0.63 34.31, 0 19.16 M0 57.48 C0.14 43.89, -0.3 28.59, 0 19.16 M0 19.16 C-0.26 7.62, 7.67 -0.48, 19.16 0 M0 19.16 C-1.26 7.49, 4.16 0.2, 19.16 0" stroke="#1e1e1e" stroke-width="2" fill="none"></path></g><g stroke-linecap="round" transform="translate(36.694526404033695 102.14701704545405) rotate(0 19.283203125 7.48828125)"><path d="M3.74 0 C14.28 -2.31, 21.12 0.67, 34.82 0 C36.35 0.91, 36 0.39, 38.57 3.74 C38.53 6.02, 39.35 9.31, 38.57 11.23 C39.31 14.97, 34.87 17.57, 34.82 14.98 C25.06 16.81, 19.7 15.41, 3.74 14.98 C2.66 13.45, -0.61 13.05, 0 11.23 C0.77 8.5, 0.27 6.38, 0 3.74 C0.1 3.36, 2.63 1.65, 3.74 0" stroke="none" stroke-width="0" fill="#868e96"></path><path d="M3.74 0 C10.89 0.01, 16.7 -0.5, 34.82 0 M3.74 0 C9.75 -0.3, 16.37 -0.13, 34.82 0 M34.82 0 C36.7 0.66, 38.12 0.47, 38.57 3.74 M34.82 0 C38.27 0.15, 38.29 1.13, 38.57 3.74 M38.57 3.74 C38.59 5.45, 38.67 7.21, 38.57 11.23 M38.57 3.74 C38.43 5.35, 38.72 7.24, 38.57 11.23 M38.57 11.23 C37.78 13.57, 36.8 15.84, 34.82 14.98 M38.57 11.23 C38.77 14.17, 37.75 14.03, 34.82 14.98 M34.82 14.98 C24.14 16.07, 14.05 15.01, 3.74 14.98 M34.82 14.98 C25.96 14.71, 16.75 15.24, 3.74 14.98 M3.74 14.98 C1.08 15.36, 0.69 13.31, 0 11.23 M3.74 14.98 C2.06 14.52, -0.21 13.9, 0 11.23 M0 11.23 C0.16 8.56, 0.3 6.72, 0 3.74 M0 11.23 C-0.03 9.34, -0.04 7.73, 0 3.74 M0 3.74 C0.64 1.01, 0.7 0.48, 3.74 0 M0 3.74 C-1.11 1.35, 1.79 -0.12, 3.74 0" stroke="#1e1e1e" stroke-width="2" fill="none"></path></g><g stroke-linecap="round" transform="translate(36.88039879986718 10) rotate(0 19.283203125 7.48828125)"><path d="M3.74 0 C11.34 0.99, 20.72 1.28, 34.82 0 C34.75 -0.86, 40.75 2.49, 38.57 3.74 C39.29 5.53, 38.84 8.14, 38.57 11.23 C36.12 16.32, 36.6 13, 34.82 14.98 C27.77 15.76, 18.53 13.74, 3.74 14.98 C0.64 14.29, 0.69 12.37, 0 11.23 C0.14 9.55, -0.03 8.57, 0 3.74 C1.38 2.9, -1.17 1.13, 3.74 0" stroke="none" stroke-width="0" fill="#868e96"></path><path d="M3.74 0 C13.08 -0.47, 22.78 0.2, 34.82 0 M3.74 0 C12.67 -0.04, 21.97 0.42, 34.82 0 M34.82 0 C36.87 -0.78, 39.4 1.38, 38.57 3.74 M34.82 0 C37.04 -0.12, 37.7 0.11, 38.57 3.74 M38.57 3.74 C38.71 5.6, 38.3 7.38, 38.57 11.23 M38.57 3.74 C38.68 5.49, 38.39 7.04, 38.57 11.23 M38.57 11.23 C38.05 14.59, 37.5 15.36, 34.82 14.98 M38.57 11.23 C38.99 12.78, 37.82 15.01, 34.82 14.98 M34.82 14.98 C23.48 15.03, 10.84 14.43, 3.74 14.98 M34.82 14.98 C22.86 14.99, 11.18 15.05, 3.74 14.98 M3.74 14.98 C1.94 14.56, 0.71 13.33, 0 11.23 M3.74 14.98 C1.03 15.15, 0.19 12.61, 0 11.23 M0 11.23 C0.25 8.51, -0.23 5.46, 0 3.74 M0 11.23 C-0.02 8.64, 0.12 5.77, 0 3.74 M0 3.74 C-0.55 1.73, 0.28 0.09, 3.74 0 M0 3.74 C0.54 1.13, 1.27 -0.7, 3.74 0" stroke="#343a40" stroke-width="2" fill="none"></path></g><g stroke-linecap="round" transform="translate(13.186373760761398 24.156708609438283) rotate(47.524435689906944 13.974609375 10.47265625)"><path d="M5.24 0 C7.72 1.03, 9.44 -1.11, 22.71 0 C29.22 1.73, 26.6 1.42, 27.95 5.24 C28.63 8.63, 26.32 12.11, 27.95 15.71 C26.95 16.46, 25.66 19.14, 22.71 20.95 C17.9 19.16, 8.95 20.18, 5.24 20.95 C2.7 19.07, -2.51 21.86, 0 15.71 C0.03 14.41, 0.96 11.24, 0 5.24 C-3.34 3.31, 4.94 -1.31, 5.24 0" stroke="none" stroke-width="0" fill="#fcc2d7"></path><path d="M5.24 0 C8.96 0.44, 15.84 -1.6, 22.71 0 M5.24 0 C8.89 0.62, 13.24 -0.63, 22.71 0 M22.71 0 C27.86 0.27, 27.47 1.54, 27.95 5.24 M22.71 0 C24.47 -2.28, 26.43 2.1, 27.95 5.24 M27.95 5.24 C27.23 8.84, 27.17 10.81, 27.95 15.71 M27.95 5.24 C27.62 7.74, 27.76 10.87, 27.95 15.71 M27.95 15.71 C28.3 19.97, 26.95 19.29, 22.71 20.95 M27.95 15.71 C28.95 19.26, 28.13 20.95, 22.71 20.95 M22.71 20.95 C15.58 19.72, 10.25 21.22, 5.24 20.95 M22.71 20.95 C18.68 21.33, 15.53 20.63, 5.24 20.95 M5.24 20.95 C3.16 20.15, -0.37 19.5, 0 15.71 M5.24 20.95 C2.12 18.7, 2.17 19.99, 0 15.71 M0 15.71 C-0.69 13.8, 0.57 11.05, 0 5.24 M0 15.71 C0.35 12.94, -0.27 10.66, 0 5.24 M0 5.24 C-1.93 1.92, 2.69 -0.21, 5.24 0 M0 5.24 C0.04 0.35, 1.49 1.03, 5.24 0" stroke="#1e1e1e" stroke-width="2" fill="none"></path></g><g stroke-linecap="round" transform="translate(28.10504480902 38.92300118694311) rotate(47.524435689906944 25.4296875 23.859375)"><path d="M27.85 -0.73 C33.31 -0.69, 40.3 3.71, 44.02 7.51 C47.74 11.3, 49.67 17.04, 50.16 22.02 C50.65 27, 50.04 33.25, 46.96 37.37 C43.88 41.49, 36.93 45.27, 31.68 46.74 C26.42 48.21, 20.34 48.39, 15.43 46.18 C10.51 43.98, 4.56 38.4, 2.2 33.51 C-0.15 28.63, -0.12 21.62, 1.31 16.85 C2.75 12.07, 5.86 7.57, 10.82 4.86 C15.77 2.16, 27.18 1.11, 31.02 0.62 C34.86 0.14, 33.84 1.71, 33.84 1.95 M19.31 -0.65 C24.07 -1.91, 30.64 1.16, 35.62 3.46 C40.59 5.77, 46.79 8.89, 49.17 13.15 C51.54 17.42, 51.2 24.06, 49.88 29.05 C48.55 34.04, 45.57 39.87, 41.21 43.09 C36.85 46.3, 29.57 48.49, 23.72 48.35 C17.86 48.22, 10.09 46.19, 6.08 42.27 C2.08 38.36, -0.02 30.33, -0.31 24.86 C-0.61 19.4, 0.97 13.31, 4.33 9.48 C7.69 5.64, 17.39 3.1, 19.87 1.87 C22.35 0.64, 19.42 1.95, 19.2 2.1" stroke="none" stroke-width="0" fill="#fcc2d7"></path><path d="M13.41 2.09 C18.05 -0.39, 26.33 -1.23, 31.56 0.11 C36.8 1.46, 41.58 6.06, 44.81 10.14 C48.04 14.23, 51.09 19.79, 50.97 24.64 C50.85 29.48, 47.96 35.5, 44.09 39.2 C40.23 42.91, 33.15 46.04, 27.79 46.85 C22.43 47.66, 16.31 46.66, 11.94 44.07 C7.57 41.49, 3.35 36.16, 1.56 31.34 C-0.23 26.51, -1.26 20.26, 1.21 15.12 C3.67 9.98, 13.16 2.73, 16.35 0.48 C19.54 -1.77, 20 1.25, 20.34 1.63 M23.67 0.66 C29.03 -0.46, 36.23 0.3, 40.73 3.18 C45.23 6.05, 49.21 12.74, 50.7 17.9 C52.18 23.05, 51.86 29.35, 49.65 34.11 C47.45 38.87, 42.63 44.34, 37.44 46.44 C32.25 48.53, 24.18 47.99, 18.52 46.68 C12.85 45.37, 6.48 42.96, 3.45 38.58 C0.42 34.21, -0.23 25.66, 0.36 20.44 C0.96 15.22, 3.24 10.57, 7.03 7.27 C10.83 3.98, 20.25 1.88, 23.16 0.66 C26.06 -0.57, 24.23 -0.28, 24.48 -0.08" stroke="#1e1e1e" stroke-width="2" fill="none"></path></g></svg>