<svg version="1.1" xmlns="http://www.w3.org/2000/svg" viewBox="0 0 106.9432792787634 127.12357954545405" width="106.9432792787634" height="127.12357954545405">
  <!-- svg-source:excalidraw -->
  
  <defs>
    <style class="style-fonts">
      @font-face {
        font-family: "Virgil";
        src: url("https://excalidraw.com/Virgil.woff2");
      }
      @font-face {
        font-family: "Cascadia";
        src: url("https://excalidraw.com/Cascadia.woff2");
      }
      @font-face {
        font-family: "Assistant";
        src: url("https://excalidraw.com/Assistant-Regular.woff2");
      }
    </style>
    
  </defs>
  <g stroke-linecap="round" transform="translate(11.681560528763399 24.85274621212011) rotate(0 42.630859375 38.322265625)"><path d="M19.16 0 C38.19 -0.2, 47.29 0.25, 66.1 0 C77.07 2.62, 87.75 7.07, 85.26 19.16 C83.91 33.68, 82.98 43.79, 85.26 57.48 C87.93 69.19, 79.67 76.79, 66.1 76.64 C54.12 73.75, 39.14 80.28, 19.16 76.64 C5.08 76.16, 1.22 67.98, 0 57.48 C-0.62 50.12, 0.05 40.2, 0 19.16 C3.54 3.72, 6.49 3.24, 19.16 0" stroke="none" stroke-width="0" fill="#a18072"></path><path d="M19.16 0 C36.94 -1.4, 53.14 -1.21, 66.1 0 M19.16 0 C34.24 -0.9, 49.13 -0.96, 66.1 0 M66.1 0 C77.22 -1.05, 86.78 7.28, 85.26 19.16 M66.1 0 C77.07 -0.37, 84.08 8.36, 85.26 19.16 M85.26 19.16 C83.76 32.21, 85.47 45.2, 85.26 57.48 M85.26 19.16 C85.53 30.55, 84.94 42.98, 85.26 57.48 M85.26 57.48 C85.59 68.71, 78.14 77.19, 66.1 76.64 M85.26 57.48 C84.88 71.15, 80.46 75.68, 66.1 76.64 M66.1 76.64 C49.01 76.88, 29.37 78.45, 19.16 76.64 M66.1 76.64 C51.02 76.39, 35.09 77.59, 19.16 76.64 M19.16 76.64 C6.26 75.7, -0.26 71.49, 0 57.48 M19.16 76.64 C7.86 76.1, -1.26 71.36, 0 57.48 M0 57.48 C-0.24 49.73, -1.24 41.68, 0 19.16 M0 57.48 C0.59 43.9, 0.7 30.07, 0 19.16 M0 19.16 C-0.66 8.06, 7.35 -0.75, 19.16 0 M0 19.16 C-0.21 4.97, 8.13 -0.43, 19.16 0" stroke="#1e1e1e" stroke-width="2" fill="none"></path></g><g stroke-linecap="round" transform="translate(35.550553189748385 102.14701704545405) rotate(0 19.283203125 7.48828125)"><path d="M3.74 0 C8.16 -0.28, 15.23 2, 34.82 0 C39.12 0.49, 39.97 -0.28, 38.57 3.74 C38.03 5.14, 39.26 7.6, 38.57 11.23 C39.14 13.83, 37.42 17.08, 34.82 14.98 C24.98 16.91, 11.94 14.25, 3.74 14.98 C2.13 13.33, -1.27 11.25, 0 11.23 C-0.13 10.13, 0.99 7.24, 0 3.74 C0.07 3.59, 1.87 -1.07, 3.74 0" stroke="none" stroke-width="0" fill="#868e96"></path><path d="M3.74 0 C11.34 -0.54, 21.07 0.19, 34.82 0 M3.74 0 C14.42 -0.28, 24.31 -0.15, 34.82 0 M34.82 0 C38.08 0.45, 37.78 1.09, 38.57 3.74 M34.82 0 C36.73 0.99, 38.77 1.69, 38.57 3.74 M38.57 3.74 C38.55 6.58, 38.54 9.15, 38.57 11.23 M38.57 3.74 C38.43 6.58, 38.59 8.97, 38.57 11.23 M38.57 11.23 C38.2 14, 37.15 15.36, 34.82 14.98 M38.57 11.23 C39.36 13.24, 38.13 14.52, 34.82 14.98 M34.82 14.98 C25.11 15.95, 17.68 14.2, 3.74 14.98 M34.82 14.98 C23.48 15.19, 11.74 14.65, 3.74 14.98 M3.74 14.98 C1.12 15.59, 0.64 13.49, 0 11.23 M3.74 14.98 C0.62 15.53, -1.11 13.83, 0 11.23 M0 11.23 C-0.22 8.59, 0.17 5.69, 0 3.74 M0 11.23 C0.06 9.2, -0.07 7.69, 0 3.74 M0 3.74 C0.48 0.87, 1.16 -0.62, 3.74 0 M0 3.74 C0.87 1.03, 1.58 0.55, 3.74 0" stroke="#1e1e1e" stroke-width="2" fill="none"></path></g><g stroke-linecap="round" transform="translate(35.736425585581415 10) rotate(0 19.283203125 7.48828125)"><path d="M3.74 0 C10.9 1.95, 22.46 0.56, 34.82 0 C38.73 -1.53, 37.96 0.57, 38.57 3.74 C39.24 5.9, 38.73 8.67, 38.57 11.23 C38.67 15.84, 38.7 16.62, 34.82 14.98 C27.44 14.98, 22.83 13.69, 3.74 14.98 C-0.02 12.5, -2.12 12.81, 0 11.23 C0.97 7.8, 0.04 6.68, 0 3.74 C0.62 0.18, 1.37 -0.96, 3.74 0" stroke="none" stroke-width="0" fill="#868e96"></path><path d="M3.74 0 C10.87 0.18, 18.07 0.38, 34.82 0 M3.74 0 C10.42 -0.14, 18.3 0.34, 34.82 0 M34.82 0 C36.53 -0.16, 38.05 2.11, 38.57 3.74 M34.82 0 C37.52 0.44, 38.99 0.3, 38.57 3.74 M38.57 3.74 C38.57 6.68, 38.79 8.85, 38.57 11.23 M38.57 3.74 C38.57 5.76, 38.47 8.11, 38.57 11.23 M38.57 11.23 C38.4 14.12, 38.01 14.56, 34.82 14.98 M38.57 11.23 C39.38 13.27, 37.1 15.15, 34.82 14.98 M34.82 14.98 C25.33 14.32, 15.87 15.73, 3.74 14.98 M34.82 14.98 C27.29 14.84, 19.76 15.38, 3.74 14.98 M3.74 14.98 C1.89 14.74, -0.55 14.21, 0 11.23 M3.74 14.98 C0.14 15.08, 0.54 13.61, 0 11.23 M0 11.23 C0.19 8.63, -0.18 6.8, 0 3.74 M0 11.23 C-0.07 9.42, 0.08 7.23, 0 3.74 M0 3.74 C-0.09 0.63, 2.01 -0.19, 3.74 0 M0 3.74 C0.33 1.8, 0.16 1.15, 3.74 0" stroke="#343a40" stroke-width="2" fill="none"></path></g><g stroke-linecap="round" transform="translate(13.186373760761413 77.90604504315706) rotate(312.47556431009303 13.974609375000004 10.47265625)"><path d="M5.24 0 C12.39 0.37, 16.9 -2.08, 22.71 0 C25.36 -0.94, 28.9 -0.13, 27.95 5.24 C28.51 7.72, 28.16 11.59, 27.95 15.71 C29.86 21.48, 22.86 22.51, 22.71 20.95 C16.98 18.92, 7.59 17.9, 5.24 20.95 C-1.19 19.67, 2.26 18.59, 0 15.71 C-0.13 13.69, 0.26 7.51, 0 5.24 C0.17 0.42, 1.25 -1.07, 5.24 0" stroke="none" stroke-width="0" fill="#fcc2d7"></path><path d="M5.24 0 C9.98 0.47, 12.15 0.63, 22.71 0 M5.24 0 C9.78 0.48, 12.31 -0.05, 22.71 0 M22.71 0 C25.18 1.72, 28.3 2.52, 27.95 5.24 M22.71 0 C27.06 -1.9, 28.95 1.81, 27.95 5.24 M27.95 5.24 C28.56 9.15, 27.82 12.55, 27.95 15.71 M27.95 5.24 C27.77 9.35, 27.88 13.38, 27.95 15.71 M27.95 15.71 C29.33 18.36, 27.61 20.15, 22.71 20.95 M27.95 15.71 C27.52 19.55, 26.58 18.7, 22.71 20.95 M22.71 20.95 C17.06 21.87, 7.9 21.45, 5.24 20.95 M22.71 20.95 C16.28 21.4, 10.64 20.65, 5.24 20.95 M5.24 20.95 C0.65 21.91, -1.93 19.38, 0 15.71 M5.24 20.95 C2.83 20.71, 0.04 17.81, 0 15.71 M0 15.71 C-0.6 12.94, -0.44 10.03, 0 5.24 M0 15.71 C0.29 13.4, -0.01 11.17, 0 5.24 M0 5.24 C1.51 1.37, 2.32 0.96, 5.24 0 M0 5.24 C-2.17 4.04, 1.11 -1.75, 5.24 0" stroke="#1e1e1e" stroke-width="2" fill="none"></path></g><g stroke-linecap="round" transform="translate(28.10504480902047 37.022564965653146) rotate(312.47556431009303 25.429687500000007 23.859375000000004)"><path d="M30.78 0.55 C35.98 1.24, 43.08 4.6, 46.33 8.77 C49.58 12.94, 50.75 20.26, 50.28 25.57 C49.81 30.89, 47.32 37.04, 43.49 40.65 C39.66 44.26, 32.52 46.64, 27.3 47.24 C22.09 47.83, 16.66 47.01, 12.22 44.23 C7.78 41.44, 2.45 35.39, 0.67 30.53 C-1.12 25.67, -0.71 19.71, 1.5 15.09 C3.71 10.46, 8.47 5.24, 13.91 2.79 C19.36 0.33, 30.36 0.43, 34.15 0.35 C37.95 0.26, 37.02 1.76, 36.68 2.27 M19.4 1.56 C24 -0.17, 30.74 -0.15, 35.54 1.99 C40.34 4.14, 45.93 9.87, 48.2 14.41 C50.46 18.95, 50.36 24.45, 49.14 29.23 C47.92 34.02, 45.21 40.04, 40.9 43.11 C36.59 46.18, 28.87 47.89, 23.27 47.67 C17.68 47.44, 11.05 45.27, 7.31 41.76 C3.58 38.26, 1.53 31.82, 0.87 26.63 C0.21 21.44, 0.1 15.02, 3.36 10.62 C6.63 6.21, 17.83 1.69, 20.44 0.2 C23.06 -1.28, 19.31 1.36, 19.04 1.72" stroke="none" stroke-width="0" fill="#fcc2d7"></path><path d="M29.54 1.16 C34.9 1.75, 41.98 4.17, 45.5 7.9 C49.03 11.63, 50.68 18.29, 50.7 23.56 C50.72 28.83, 49.07 35.5, 45.62 39.54 C42.17 43.57, 35.66 46.88, 30.01 47.76 C24.35 48.65, 16.45 47.37, 11.69 44.85 C6.94 42.33, 3.16 37.39, 1.48 32.66 C-0.19 27.93, -0.39 21.4, 1.62 16.46 C3.62 11.51, 8.49 5.73, 13.5 2.99 C18.5 0.26, 28.22 0.25, 31.64 0.06 C35.07 -0.13, 34.28 1.39, 34.06 1.83 M29.95 -0.41 C35.34 -0.24, 41.91 3.33, 45.35 7.26 C48.78 11.2, 50.5 18.24, 50.56 23.2 C50.63 28.17, 48.81 32.96, 45.75 37.05 C42.68 41.13, 37.76 46.21, 32.19 47.7 C26.62 49.19, 17.23 48.64, 12.33 46.01 C7.43 43.39, 4.55 36.72, 2.79 31.96 C1.03 27.21, 0.28 22.29, 1.79 17.46 C3.29 12.62, 7.33 5.66, 11.81 2.95 C16.3 0.23, 25.72 1.58, 28.72 1.15 C31.72 0.71, 29.97 -0.02, 29.81 0.34" stroke="#1e1e1e" stroke-width="2" fill="none"></path></g></svg>