<svg version="1.1" xmlns="http://www.w3.org/2000/svg" viewBox="0 0 106.88189535019183 127.12357954545405" width="106.88189535019183" height="127.12357954545405">
  <!-- svg-source:excalidraw -->
  
  <defs>
    <style class="style-fonts">
      @font-face {
        font-family: "Virgil";
        src: url("https://excalidraw.com/Virgil.woff2");
      }
      @font-face {
        font-family: "Cascadia";
        src: url("https://excalidraw.com/Cascadia.woff2");
      }
      @font-face {
        font-family: "Assistant";
        src: url("https://excalidraw.com/Assistant-Regular.woff2");
      }
    </style>
    
  </defs>
  <g stroke-linecap="round" transform="translate(10 24.85274621212102) rotate(0 42.630859375 38.322265625)"><path d="M19.16 0 C35.24 -3.7, 51.41 1.4, 66.1 0 C76.76 1.34, 87.48 6.16, 85.26 19.16 C87.48 28, 83.19 40.28, 85.26 57.48 C81.78 70.58, 80.58 76.27, 66.1 76.64 C53.55 73.28, 35.87 77.41, 19.16 76.64 C5.05 77.91, -3.55 69.07, 0 57.48 C-0.65 40.56, 2.39 27.4, 0 19.16 C1.04 8.11, 2.99 3.59, 19.16 0" stroke="none" stroke-width="0" fill="#a18072"></path><path d="M19.16 0 C28.96 0.82, 38.71 -1.33, 66.1 0 M19.16 0 C36.71 0.43, 56.41 0.26, 66.1 0 M66.1 0 C78.63 0.56, 83.97 5.7, 85.26 19.16 M66.1 0 C80.28 -0.41, 85.21 5.75, 85.26 19.16 M85.26 19.16 C86.05 27.63, 84.09 35, 85.26 57.48 M85.26 19.16 C84.38 26.56, 84.65 34.9, 85.26 57.48 M85.26 57.48 C84.02 71.57, 77.98 75.09, 66.1 76.64 M85.26 57.48 C87.17 70.57, 78.33 76.41, 66.1 76.64 M66.1 76.64 C55.87 76.48, 45.78 76.89, 19.16 76.64 M66.1 76.64 C54.57 75.75, 45.45 76.72, 19.16 76.64 M19.16 76.64 C4.82 76.33, -1.03 71.98, 0 57.48 M19.16 76.64 C6.8 77.53, 0.86 68.35, 0 57.48 M0 57.48 C0 46.23, 1.16 30.94, 0 19.16 M0 57.48 C0.43 45.68, -0.1 35.69, 0 19.16 M0 19.16 C-0.33 7.16, 7.76 -0.84, 19.16 0 M0 19.16 C1.62 5.48, 5.96 0.35, 19.16 0" stroke="#1e1e1e" stroke-width="2" fill="none"></path></g><g stroke-linecap="round" transform="translate(33.86899266098453 102.14701704545405) rotate(0 19.283203125 7.48828125)"><path d="M3.74 0 C17.84 1.92, 26.73 1.29, 34.82 0 C38.92 -0.16, 37.34 0.91, 38.57 3.74 C38.09 6.92, 37.69 9.24, 38.57 11.23 C39.8 13.46, 37.36 13.4, 34.82 14.98 C24.47 15.23, 15.91 15.52, 3.74 14.98 C-1.32 14.12, 2.18 14.98, 0 11.23 C0.75 9.09, 0.29 7.77, 0 3.74 C-2.45 3.84, 0.53 -1.98, 3.74 0" stroke="none" stroke-width="0" fill="#868e96"></path><path d="M3.74 0 C10.69 -0.87, 18.9 0.95, 34.82 0 M3.74 0 C14.84 0.15, 25.42 0.04, 34.82 0 M34.82 0 C36.67 -0.34, 39.18 1.07, 38.57 3.74 M34.82 0 C37.29 -0.32, 37.63 1.52, 38.57 3.74 M38.57 3.74 C38.34 5.97, 38.24 8.63, 38.57 11.23 M38.57 3.74 C38.4 5.93, 38.41 8.33, 38.57 11.23 M38.57 11.23 C38.12 12.95, 38.15 15.11, 34.82 14.98 M38.57 11.23 C38.29 13.61, 36.45 13.84, 34.82 14.98 M34.82 14.98 C27.93 15.27, 19.57 15.36, 3.74 14.98 M34.82 14.98 C28.3 15.12, 20.63 14.82, 3.74 14.98 M3.74 14.98 C0.73 15.84, 0.18 14.11, 0 11.23 M3.74 14.98 C1.68 14.03, 0.5 13.76, 0 11.23 M0 11.23 C0.22 8.32, -0.05 5.22, 0 3.74 M0 11.23 C-0.07 8.45, -0.04 5.63, 0 3.74 M0 3.74 C0.69 0.83, 1.95 -0.4, 3.74 0 M0 3.74 C-0.21 1.42, 1.44 -1.12, 3.74 0" stroke="#1e1e1e" stroke-width="2" fill="none"></path></g><g stroke-linecap="round" transform="translate(34.05486505681802 10) rotate(0 19.283203125 7.48828125)"><path d="M3.74 0 C9.04 0.72, 18.98 -0.41, 34.82 0 C36.09 -0.34, 40.16 2.92, 38.57 3.74 C37.57 5.9, 38.97 7.78, 38.57 11.23 C38.61 12.16, 37.03 16.14, 34.82 14.98 C27.35 15.99, 19.25 14.22, 3.74 14.98 C3.43 16.22, -0.98 13.5, 0 11.23 C0.21 9.91, -0.99 8.63, 0 3.74 C-0.72 -0.73, 0.85 -1.31, 3.74 0" stroke="none" stroke-width="0" fill="#868e96"></path><path d="M3.74 0 C14.75 1.12, 24.41 -0.72, 34.82 0 M3.74 0 C15.06 0.06, 26.17 -0.25, 34.82 0 M34.82 0 C37.93 -0.18, 38.54 0.97, 38.57 3.74 M34.82 0 C36.38 0.27, 38.81 1.65, 38.57 3.74 M38.57 3.74 C38.2 6.1, 38.54 7.94, 38.57 11.23 M38.57 3.74 C38.42 5.66, 38.46 7.19, 38.57 11.23 M38.57 11.23 C39.4 13.86, 37.08 14.87, 34.82 14.98 M38.57 11.23 C37.7 12.59, 36.56 15.15, 34.82 14.98 M34.82 14.98 C24.55 15.39, 14.93 14.19, 3.74 14.98 M34.82 14.98 C26.74 14.97, 19.18 15.48, 3.74 14.98 M3.74 14.98 C1.43 15.36, 0.37 12.9, 0 11.23 M3.74 14.98 C1.75 15.01, 0.97 13.73, 0 11.23 M0 11.23 C-0.07 8.01, 0.27 5.36, 0 3.74 M0 11.23 C-0.02 9.64, 0.14 7.82, 0 3.74 M0 3.74 C0.71 0.85, 1.06 0.15, 3.74 0 M0 3.74 C0.19 0.13, 2.33 0.39, 3.74 0" stroke="#343a40" stroke-width="2" fill="none"></path></g><g stroke-linecap="round" transform="translate(65.74630283943043 23.860949680865815) rotate(312.47556431009303 13.974609375 10.47265625)"><path d="M5.24 0 C13.48 -0.31, 16.38 -0.53, 22.71 0 C28.42 2.31, 27.09 -0.23, 27.95 5.24 C28.66 8.69, 27.8 11.39, 27.95 15.71 C27.54 20.81, 22.94 19.04, 22.71 20.95 C13.94 20.02, 14.02 22.56, 5.24 20.95 C0.39 20.62, -2.22 21.93, 0 15.71 C-1.83 14.64, -0.58 8.38, 0 5.24 C-0.55 -0.06, 4.37 2.49, 5.24 0" stroke="none" stroke-width="0" fill="#fcc2d7"></path><path d="M5.24 0 C9.9 -1.66, 13.98 0.63, 22.71 0 M5.24 0 C10.78 -0.35, 17.99 -0.2, 22.71 0 M22.71 0 C26.15 -0.55, 26.32 2.22, 27.95 5.24 M22.71 0 C26.68 0.8, 28.05 0.29, 27.95 5.24 M27.95 5.24 C27.84 6.89, 27.23 9.82, 27.95 15.71 M27.95 5.24 C27.65 7.7, 28.32 11.05, 27.95 15.71 M27.95 15.71 C27.47 19, 24.69 18.97, 22.71 20.95 M27.95 15.71 C26.43 19.55, 26.38 21.81, 22.71 20.95 M22.71 20.95 C15.62 19.57, 10.34 22.34, 5.24 20.95 M22.71 20.95 C16.24 21.67, 10.82 21.25, 5.24 20.95 M5.24 20.95 C2.49 19.29, 0.87 19.26, 0 15.71 M5.24 20.95 C3.68 20.95, 2.21 20.55, 0 15.71 M0 15.71 C0.84 12.84, -0.8 9.25, 0 5.24 M0 15.71 C0.38 12.06, 0.39 8.64, 0 5.24 M0 5.24 C-0.37 2.05, 2.07 -1.95, 5.24 0 M0 5.24 C2.17 2.53, -0.11 1.63, 5.24 0" stroke="#1e1e1e" stroke-width="2" fill="none"></path></g><g stroke-linecap="round" transform="translate(27.917475541171825 38.54130475837155) rotate(312.47556431009303 25.4296875 23.859375)"><path d="M36.38 1.97 C41.22 3.4, 45.76 8.09, 48.17 12.73 C50.59 17.37, 52.32 24.81, 50.89 29.82 C49.46 34.83, 44.08 39.86, 39.59 42.81 C35.09 45.75, 29.15 47.68, 23.91 47.5 C18.67 47.31, 12.17 45.11, 8.14 41.7 C4.1 38.29, 0.41 32.27, -0.28 27.04 C-0.98 21.81, 0.82 14.64, 3.96 10.31 C7.11 5.99, 12.83 1.98, 18.59 1.08 C24.35 0.18, 34.48 4.11, 38.51 4.92 C42.55 5.74, 42.75 5.7, 42.79 5.97 M17.98 0.31 C22.72 -1.38, 30.07 0.78, 35.25 2.85 C40.43 4.92, 46.74 8.21, 49.09 12.74 C51.44 17.27, 51.01 24.97, 49.36 30.03 C47.72 35.09, 43.32 40.18, 39.21 43.1 C35.11 46.01, 29.92 47.98, 24.72 47.53 C19.53 47.07, 12.17 43.71, 8.05 40.35 C3.93 36.99, 0.89 32.42, 0.01 27.36 C-0.87 22.3, -0.28 14.49, 2.79 10 C5.86 5.52, 15.78 2.13, 18.44 0.46 C21.1 -1.21, 18.77 -0.69, 18.75 0" stroke="none" stroke-width="0" fill="#fcc2d7"></path><path d="M31.47 -0.02 C36.45 0.9, 42.23 5.95, 45.42 10.14 C48.62 14.34, 50.93 20.26, 50.65 25.12 C50.36 29.99, 47.38 35.58, 43.72 39.35 C40.07 43.12, 34.03 47, 28.72 47.75 C23.42 48.51, 16.6 46.79, 11.89 43.89 C7.18 40.99, 2.26 35.2, 0.47 30.33 C-1.33 25.47, -1.11 19.49, 1.13 14.71 C3.37 9.92, 8.45 3.93, 13.91 1.62 C19.36 -0.69, 30 0.68, 33.87 0.86 C37.73 1.04, 37.02 2.28, 37.08 2.7 M15.43 1.63 C19.7 -0.78, 26.95 -1.97, 32.04 -0.35 C37.12 1.27, 42.82 6.68, 45.94 11.35 C49.05 16.01, 51.24 22.78, 50.74 27.63 C50.24 32.47, 46.91 37.28, 42.95 40.43 C39 43.58, 32.71 46.28, 26.99 46.53 C21.27 46.78, 12.84 44.77, 8.63 41.94 C4.42 39.12, 2.87 34.51, 1.72 29.6 C0.57 24.7, -0.47 16.94, 1.74 12.52 C3.96 8.1, 12.6 4.69, 15.02 3.07 C17.44 1.45, 15.87 2.86, 16.25 2.8" stroke="#1e1e1e" stroke-width="2" fill="none"></path></g></svg>