<svg version="1.1" xmlns="http://www.w3.org/2000/svg" viewBox="0 0 116.80622209821377 127.12357954545405" width="116.80622209821377" height="127.12357954545405">
  <!-- svg-source:excalidraw -->
  
  <defs>
    <style class="style-fonts">
      @font-face {
        font-family: "Virgil";
        src: url("https://excalidraw.com/Virgil.woff2");
      }
      @font-face {
        font-family: "Cascadia";
        src: url("https://excalidraw.com/Cascadia.woff2");
      }
      @font-face {
        font-family: "Assistant";
        src: url("https://excalidraw.com/Assistant-Regular.woff2");
      }
    </style>
    
  </defs>
  <g stroke-linecap="round" transform="translate(21.544503348213766 24.85274621212011) rotate(0 42.630859375 38.322265625)"><path d="M19.16 0 C37.91 2, 49.27 -0.04, 66.1 0 C76.66 2.73, 84.59 7.42, 85.26 19.16 C83.61 29.75, 84.07 44.01, 85.26 57.48 C87.88 72.75, 79.56 78.59, 66.1 76.64 C55.72 74.55, 40.93 79.09, 19.16 76.64 C5.32 77.44, 0.15 70.4, 0 57.48 C-3.71 44.45, 2.83 26.97, 0 19.16 C-0.48 7.6, 4.11 -1.76, 19.16 0" stroke="none" stroke-width="0" fill="#a18072"></path><path d="M19.16 0 C33.02 -0.94, 48.75 -0.79, 66.1 0 M19.16 0 C37.16 0.5, 53.26 0.26, 66.1 0 M66.1 0 C77.36 -1.98, 83.94 6.69, 85.26 19.16 M66.1 0 C79.05 0.86, 85.9 4.73, 85.26 19.16 M85.26 19.16 C83.91 33.58, 85.85 43.4, 85.26 57.48 M85.26 19.16 C85.24 30.43, 85.44 40.1, 85.26 57.48 M85.26 57.48 C86.14 70.31, 80.55 76.65, 66.1 76.64 M85.26 57.48 C87.47 71.61, 78.65 76.37, 66.1 76.64 M66.1 76.64 C53.73 75.99, 44.99 76.39, 19.16 76.64 M66.1 76.64 C50.9 76.05, 34.1 76.6, 19.16 76.64 M19.16 76.64 C6.71 74.7, 1.89 70.94, 0 57.48 M19.16 76.64 C4.53 78.27, 1.41 68.91, 0 57.48 M0 57.48 C-1.18 44.3, 0.99 32.92, 0 19.16 M0 57.48 C-0.76 46.99, 0.68 36.21, 0 19.16 M0 19.16 C0.03 5.18, 6.16 0.89, 19.16 0 M0 19.16 C-2.09 5.17, 6.94 -0.86, 19.16 0" stroke="#1e1e1e" stroke-width="2" fill="none"></path></g><g stroke-linecap="round" transform="translate(45.41349600919875 102.14701704545405) rotate(0 19.283203125 7.48828125)"><path d="M3.74 0 C11.07 -0.43, 18.74 1.77, 34.82 0 C36.83 0.75, 39.81 -1.2, 38.57 3.74 C38.39 6.25, 39.25 10.4, 38.57 11.23 C39.06 15.14, 35.79 14.37, 34.82 14.98 C24.5 16.69, 17.04 15.34, 3.74 14.98 C1.35 15.08, 2.11 15.11, 0 11.23 C0.95 8.16, -0.04 6.12, 0 3.74 C-1.64 -0.02, -1.23 -2.12, 3.74 0" stroke="none" stroke-width="0" fill="#868e96"></path><path d="M3.74 0 C9.82 -0.51, 17.07 -0.34, 34.82 0 M3.74 0 C10.53 -0.07, 17.18 -0.52, 34.82 0 M34.82 0 C36.66 0.15, 38.64 1.62, 38.57 3.74 M34.82 0 C37.64 -0.83, 38.99 0.35, 38.57 3.74 M38.57 3.74 C38.71 5.08, 38.49 6.81, 38.57 11.23 M38.57 3.74 C38.64 6.48, 38.65 9.53, 38.57 11.23 M38.57 11.23 C39.41 13.73, 38.28 15.56, 34.82 14.98 M38.57 11.23 C38.45 13.59, 36.52 15.89, 34.82 14.98 M34.82 14.98 C25.26 14.76, 15.53 15.61, 3.74 14.98 M34.82 14.98 C26.71 14.99, 18.87 14.43, 3.74 14.98 M3.74 14.98 C2.19 15.32, -0.81 14.44, 0 11.23 M3.74 14.98 C1.95 14.3, 0.43 14.44, 0 11.23 M0 11.23 C0.25 9.27, -0.07 6.63, 0 3.74 M0 11.23 C0.12 8.61, 0.04 5.91, 0 3.74 M0 3.74 C-0.11 1.7, 0.34 -0.53, 3.74 0 M0 3.74 C0.28 0.82, 1.65 -1.14, 3.74 0" stroke="#1e1e1e" stroke-width="2" fill="none"></path></g><g stroke-linecap="round" transform="translate(45.59936840503178 10) rotate(0 19.283203125 7.48828125)"><path d="M3.74 0 C12.96 2, 24.89 0.78, 34.82 0 C38.56 -2.45, 41.16 0.53, 38.57 3.74 C39.26 6.09, 38.74 7.62, 38.57 11.23 C37.04 13.12, 36.64 15.66, 34.82 14.98 C26.35 15.85, 19.52 15.38, 3.74 14.98 C3.36 16.35, 1.65 11.31, 0 11.23 C-0.22 8.99, -0.7 5.61, 0 3.74 C-2.48 -0.87, 0.33 1.63, 3.74 0" stroke="none" stroke-width="0" fill="#868e96"></path><path d="M3.74 0 C11.56 -0.35, 17.29 0.93, 34.82 0 M3.74 0 C13.11 -0.48, 22.89 0.09, 34.82 0 M34.82 0 C37.39 0.37, 38.84 0.53, 38.57 3.74 M34.82 0 C37.74 -0.9, 37.62 0.64, 38.57 3.74 M38.57 3.74 C38.52 6.37, 38.9 9.44, 38.57 11.23 M38.57 3.74 C38.66 6.29, 38.74 8.82, 38.57 11.23 M38.57 11.23 C39.53 14.32, 37.22 14.86, 34.82 14.98 M38.57 11.23 C37.77 14.64, 37.51 14.09, 34.82 14.98 M34.82 14.98 C27.03 15.64, 18.03 15.66, 3.74 14.98 M34.82 14.98 C26.81 14.51, 19.11 15.17, 3.74 14.98 M3.74 14.98 C0.44 15.69, 0.61 13.14, 0 11.23 M3.74 14.98 C1.68 15.68, -0.07 13.19, 0 11.23 M0 11.23 C-0.11 8.88, 0.16 6.57, 0 3.74 M0 11.23 C-0.01 8.81, -0.04 6.69, 0 3.74 M0 3.74 C-0.91 0.72, 1.49 -0.37, 3.74 0 M0 3.74 C0.4 0.11, 0.87 0.96, 3.74 0" stroke="#343a40" stroke-width="2" fill="none"></path></g><g stroke-linecap="round" transform="translate(10 53.475852272726115) rotate(0 13.974609375 10.47265625)"><path d="M5.24 0 C9.74 0.67, 16.91 -3.2, 22.71 0 C29.8 -1, 25.21 1.2, 27.95 5.24 C28.44 8.87, 26.98 10.03, 27.95 15.71 C27.01 20.15, 24.33 18.43, 22.71 20.95 C16.31 21.14, 12.19 22.68, 5.24 20.95 C4.03 17.6, 1.57 22.39, 0 15.71 C-1.16 12.03, -1.77 8.65, 0 5.24 C-1.27 4, 1.13 1.96, 5.24 0" stroke="none" stroke-width="0" fill="#fcc2d7"></path><path d="M5.24 0 C8.04 1.53, 13.79 -0.34, 22.71 0 M5.24 0 C9.72 0.31, 15.43 0.5, 22.71 0 M22.71 0 C26.76 -1.44, 28.68 0.19, 27.95 5.24 M22.71 0 C24.31 -1.21, 29.7 2.77, 27.95 5.24 M27.95 5.24 C28.83 7.74, 28.34 10.27, 27.95 15.71 M27.95 5.24 C28.43 7.51, 28.5 10.09, 27.95 15.71 M27.95 15.71 C27.75 18.96, 24.82 22.53, 22.71 20.95 M27.95 15.71 C28.33 17.42, 25.36 21.58, 22.71 20.95 M22.71 20.95 C17.02 22.3, 12.11 20.74, 5.24 20.95 M22.71 20.95 C18.03 21.07, 10.99 21.39, 5.24 20.95 M5.24 20.95 C2.97 19.77, 0.74 20.43, 0 15.71 M5.24 20.95 C1.6 19.86, -0.3 20.61, 0 15.71 M0 15.71 C0.53 10.88, 0.12 8.58, 0 5.24 M0 15.71 C-0.06 12.91, -0.48 9.37, 0 5.24 M0 5.24 C0.48 1, 2.45 -1.97, 5.24 0 M0 5.24 C-0.76 3.67, 2.85 -0.86, 5.24 0" stroke="#1e1e1e" stroke-width="2" fill="none"></path></g><g stroke-linecap="round" transform="translate(36.888671875 39.436789772726115) rotate(0 25.4296875 23.859375)"><path d="M25.26 0.65 C30.46 0.13, 36.67 1.67, 40.93 4.57 C45.18 7.46, 49.64 12.85, 50.81 18.02 C51.97 23.2, 50.6 30.95, 47.93 35.62 C45.25 40.28, 39.94 44.23, 34.76 46.03 C29.58 47.83, 21.96 48.16, 16.87 46.41 C11.79 44.66, 7.12 39.8, 4.26 35.52 C1.4 31.23, -0.91 25.54, -0.27 20.69 C0.37 15.84, 3.14 9.84, 8.12 6.42 C13.09 3, 24.81 0.71, 29.61 0.17 C34.4 -0.37, 36.87 2.75, 36.88 3.18 M18.15 1.84 C22.56 0.37, 28.79 1.66, 33.69 3.29 C38.59 4.93, 44.81 7.49, 47.54 11.65 C50.27 15.8, 50.96 22.86, 50.04 28.21 C49.13 33.57, 46.28 40.41, 42.05 43.79 C37.82 47.17, 30.44 48.95, 24.67 48.51 C18.9 48.07, 11.55 44.65, 7.42 41.14 C3.28 37.63, 0.54 32.61, -0.17 27.43 C-0.88 22.24, 0 14.5, 3.17 10.04 C6.33 5.58, 16.33 2.08, 18.83 0.68 C21.34 -0.72, 18.26 0.98, 18.21 1.64" stroke="none" stroke-width="0" fill="#fcc2d7"></path><path d="M21.42 -0.49 C26.57 -1.23, 34.72 1.01, 39.5 3.97 C44.29 6.92, 48.72 12.29, 50.15 17.24 C51.58 22.18, 50.42 29.11, 48.09 33.62 C45.75 38.14, 40.95 41.96, 36.12 44.33 C31.29 46.7, 24.2 49.01, 19.1 47.85 C14 46.69, 8.72 41.68, 5.52 37.37 C2.31 33.07, -0.49 26.96, -0.12 22.02 C0.25 17.07, 3.07 11.3, 7.75 7.71 C12.43 4.11, 23.97 1.43, 27.95 0.46 C31.94 -0.52, 31.75 1.4, 31.66 1.87 M25.33 -0.18 C30.1 -0.43, 36.54 3.67, 40.78 6.8 C45.01 9.93, 49.72 13.7, 50.73 18.61 C51.75 23.51, 49.69 31.53, 46.88 36.24 C44.06 40.96, 38.69 45.31, 33.83 46.88 C28.97 48.44, 22.61 47.59, 17.72 45.63 C12.82 43.68, 7.37 39.44, 4.44 35.15 C1.51 30.86, -0.71 25.07, 0.12 19.89 C0.94 14.72, 4.9 7.32, 9.37 4.09 C13.83 0.86, 24.41 0.94, 26.9 0.51 C29.38 0.09, 24.35 1.37, 24.27 1.54" stroke="#1e1e1e" stroke-width="2" fill="none"></path></g></svg>