<svg version="1.1" xmlns="http://www.w3.org/2000/svg" viewBox="0 0 105.26171875 127.84067844958453" width="105.26171875" height="127.84067844958453">
  <!-- svg-source:excalidraw -->
  
  <defs>
    <style class="style-fonts">
      @font-face {
        font-family: "Virgil";
        src: url("https://excalidraw.com/Virgil.woff2");
      }
      @font-face {
        font-family: "Cascadia";
        src: url("https://excalidraw.com/Cascadia.woff2");
      }
      @font-face {
        font-family: "Assistant";
        src: url("https://excalidraw.com/Assistant-Regular.woff2");
      }
    </style>
    
  </defs>
  <g stroke-linecap="round" transform="translate(10 24.85274621212102) rotate(0 42.630859375 38.322265625)"><path d="M19.16 0 C33.29 -0.45, 50.06 -1.38, 66.1 0 C76.36 2.66, 84.2 7.19, 85.26 19.16 C87.2 33.1, 81.94 44.04, 85.26 57.48 C88.45 68.95, 78.39 77.86, 66.1 76.64 C52.05 74.56, 46.12 75.23, 19.16 76.64 C8.35 80.18, -2.67 70.36, 0 57.48 C0 41.21, -0.66 26.52, 0 19.16 C3.17 2.9, 6.03 -1.47, 19.16 0" stroke="none" stroke-width="0" fill="#a18072"></path><path d="M19.16 0 C32.99 -1.82, 48.88 1.35, 66.1 0 M19.16 0 C34.82 0.93, 51.69 0.46, 66.1 0 M66.1 0 C79.62 -1.65, 86.14 6.44, 85.26 19.16 M66.1 0 C80.81 0.01, 87.47 7.74, 85.26 19.16 M85.26 19.16 C86.8 30.61, 83.67 40.67, 85.26 57.48 M85.26 19.16 C85.89 31.29, 85.9 43.87, 85.26 57.48 M85.26 57.48 C84.89 70.56, 79.2 74.7, 66.1 76.64 M85.26 57.48 C87.43 71.05, 77.02 78.27, 66.1 76.64 M66.1 76.64 C50.38 76.7, 31.26 76.56, 19.16 76.64 M66.1 76.64 C48.59 77.01, 31.2 76.62, 19.16 76.64 M19.16 76.64 C7.33 76.44, 0.03 69.05, 0 57.48 M19.16 76.64 C6.13 77.67, -2.09 69.04, 0 57.48 M0 57.48 C-1.83 44.41, 1.82 33.61, 0 19.16 M0 57.48 C0.79 47.24, 0.32 37.85, 0 19.16 M0 19.16 C-1.88 8.38, 5.83 -1.52, 19.16 0 M0 19.16 C-0.35 5.23, 8.06 1.59, 19.16 0" stroke="#1e1e1e" stroke-width="2" fill="none"></path></g><g stroke-linecap="round" transform="translate(33.86899266098453 102.14701704545496) rotate(0 19.283203125 7.48828125)"><path d="M3.74 0 C11.93 -1.25, 16.93 2.03, 34.82 0 C36.55 0.58, 38.67 1.35, 38.57 3.74 C37.71 7.02, 39.48 9.1, 38.57 11.23 C38.22 14.61, 35.68 13.71, 34.82 14.98 C30.1 14.39, 23.52 17.39, 3.74 14.98 C-0.68 15.05, 2.34 14.35, 0 11.23 C-0.14 9, 0.85 6.41, 0 3.74 C-0.26 0.19, 1.58 0.77, 3.74 0" stroke="none" stroke-width="0" fill="#868e96"></path><path d="M3.74 0 C13.68 0.89, 25.12 -0.66, 34.82 0 M3.74 0 C12.66 0.06, 21.59 -0.55, 34.82 0 M34.82 0 C37.76 0.03, 39.41 1.25, 38.57 3.74 M34.82 0 C38.42 0.67, 38.45 1.11, 38.57 3.74 M38.57 3.74 C38.31 5.33, 38.7 7.14, 38.57 11.23 M38.57 3.74 C38.72 6.21, 38.56 8.85, 38.57 11.23 M38.57 11.23 C38.73 12.75, 38.26 15.32, 34.82 14.98 M38.57 11.23 C37.64 14.54, 38.02 14.3, 34.82 14.98 M34.82 14.98 C23.87 14.84, 14.48 15.61, 3.74 14.98 M34.82 14.98 C25.76 15.1, 17.89 15, 3.74 14.98 M3.74 14.98 C1.27 14.37, -0.11 14.18, 0 11.23 M3.74 14.98 C0.2 14.37, 0.28 13.3, 0 11.23 M0 11.23 C0.35 8.9, -0.1 6.18, 0 3.74 M0 11.23 C0.03 9.54, -0.2 7.85, 0 3.74 M0 3.74 C-0.28 0.49, 1.1 -0.5, 3.74 0 M0 3.74 C0.84 2.04, 1.47 0.62, 3.74 0" stroke="#1e1e1e" stroke-width="2" fill="none"></path></g><g stroke-linecap="round" transform="translate(34.05486505681802 10) rotate(0 19.283203125 7.48828125)"><path d="M3.74 0 C10.44 2.13, 19.99 0.79, 34.82 0 C37.42 0.1, 40.67 2.63, 38.57 3.74 C39.34 6.11, 38.34 9.52, 38.57 11.23 C36.92 12.46, 34.84 12.86, 34.82 14.98 C28.02 17.46, 16.45 14.98, 3.74 14.98 C3.59 15.59, -1.07 13.85, 0 11.23 C0.87 8.32, -0.08 6.9, 0 3.74 C0.33 2.01, 1.23 -2.18, 3.74 0" stroke="none" stroke-width="0" fill="#868e96"></path><path d="M3.74 0 C10.95 -0.9, 17.1 -0.63, 34.82 0 M3.74 0 C15.93 -0.47, 27.95 -0.05, 34.82 0 M34.82 0 C38.16 0, 39.53 1.83, 38.57 3.74 M34.82 0 C37.21 -0.14, 37.77 2.16, 38.57 3.74 M38.57 3.74 C38.64 6.05, 38.68 8.74, 38.57 11.23 M38.57 3.74 C38.56 5.7, 38.62 7.42, 38.57 11.23 M38.57 11.23 C39.51 14.07, 36.51 15.69, 34.82 14.98 M38.57 11.23 C39.27 13.05, 37.75 15.68, 34.82 14.98 M34.82 14.98 C26.31 15.6, 16.32 14.41, 3.74 14.98 M34.82 14.98 C24.24 14.94, 13.19 14.69, 3.74 14.98 M3.74 14.98 C1.14 15.42, -0.91 13.2, 0 11.23 M3.74 14.98 C1.52 14.55, 0.4 12.59, 0 11.23 M0 11.23 C-0.17 9.2, -0.26 7.52, 0 3.74 M0 11.23 C-0.19 9.31, -0.06 6.88, 0 3.74 M0 3.74 C-0.15 0.75, 1.98 0.69, 3.74 0 M0 3.74 C0.22 1.87, 0.57 -0.27, 3.74 0" stroke="#343a40" stroke-width="2" fill="none"></path></g><g stroke-linecap="round" transform="translate(39.397448168828305 93.26932525149914) rotate(90.684351531919 13.974609375 10.47265625)"><path d="M5.24 0 C8.64 0.47, 14.03 -0.11, 22.71 0 C29.12 1.91, 30.23 -1.6, 27.95 5.24 C27.86 9.47, 26.93 11.51, 27.95 15.71 C24.51 16.26, 24.93 23.2, 22.71 20.95 C15.44 21.34, 15.65 22, 5.24 20.95 C0.26 21.11, -1.33 18.7, 0 15.71 C-0.35 12.11, 0.07 10.61, 0 5.24 C-0.03 -1.27, 1.63 -1.7, 5.24 0" stroke="none" stroke-width="0" fill="#fcc2d7"></path><path d="M5.24 0 C11.53 -0.76, 19.88 0.45, 22.71 0 M5.24 0 C11.54 0.17, 17.81 0.15, 22.71 0 M22.71 0 C28.12 1.17, 27.75 1.5, 27.95 5.24 M22.71 0 C24.61 1.82, 28.33 -0.03, 27.95 5.24 M27.95 5.24 C28.38 8.72, 27.54 11.49, 27.95 15.71 M27.95 5.24 C28.02 7.45, 28.42 10.87, 27.95 15.71 M27.95 15.71 C26.34 20.62, 27.43 19.77, 22.71 20.95 M27.95 15.71 C28.81 20.61, 26.06 19.86, 22.71 20.95 M22.71 20.95 C17.28 20.1, 13.52 19.37, 5.24 20.95 M22.71 20.95 C17.33 20.4, 11.82 21.32, 5.24 20.95 M5.24 20.95 C-0.07 19.89, 0.48 18.46, 0 15.71 M5.24 20.95 C2.55 18.67, -0.76 21.13, 0 15.71 M0 15.71 C-0.61 12.86, -0.16 8.72, 0 5.24 M0 15.71 C-0.05 11.67, 0.02 8.16, 0 5.24 M0 5.24 C1.46 3.13, 2.13 1.08, 5.24 0 M0 5.24 C-1.35 1.21, 1.14 0.61, 5.24 0" stroke="#1e1e1e" stroke-width="2" fill="none"></path></g><g stroke-linecap="round" transform="translate(27.748046875 41.53380006718271) rotate(90.684351531919 25.4296875 23.859375)"><path d="M30.71 0.85 C35.96 1.43, 41.3 4.49, 44.55 8.45 C47.81 12.42, 50.22 19.47, 50.24 24.64 C50.27 29.82, 48.03 35.87, 44.71 39.5 C41.38 43.13, 35.47 45.63, 30.3 46.42 C25.13 47.21, 18.61 46.66, 13.69 44.23 C8.77 41.8, 2.87 36.48, 0.76 31.84 C-1.34 27.21, -1.07 21.15, 1.04 16.4 C3.15 11.66, 8.09 6.05, 13.43 3.37 C18.77 0.7, 29.55 0.6, 33.1 0.37 C36.65 0.14, 34.9 1.6, 34.73 1.99 M17.06 1.5 C21.64 -0.17, 28.99 0.76, 34.18 2.65 C39.38 4.55, 45.76 8.55, 48.25 12.88 C50.73 17.21, 49.94 23.87, 49.08 28.65 C48.22 33.44, 47.08 38.33, 43.11 41.59 C39.13 44.85, 31.06 48.26, 25.23 48.23 C19.4 48.2, 12.52 44.98, 8.14 41.41 C3.76 37.83, -0.17 31.54, -1.04 26.78 C-1.92 22.03, -0.05 16.96, 2.87 12.87 C5.79 8.79, 13.89 4.27, 16.48 2.26 C19.06 0.24, 18.18 0.31, 18.38 0.78" stroke="none" stroke-width="0" fill="#fcc2d7"></path><path d="M26.86 0.53 C31.99 0.74, 39.48 4.15, 43.47 7.86 C47.45 11.56, 50.21 17.84, 50.77 22.78 C51.33 27.72, 49.98 33.57, 46.82 37.48 C43.67 41.39, 37.08 44.86, 31.85 46.22 C26.62 47.58, 20.48 47.75, 15.43 45.63 C10.39 43.52, 3.97 38.23, 1.59 33.54 C-0.79 28.85, -0.46 22.24, 1.15 17.48 C2.76 12.72, 6.17 7.63, 11.27 4.98 C16.37 2.33, 27.66 1.96, 31.76 1.56 C35.85 1.16, 35.85 2.31, 35.83 2.6 M12.32 3.84 C16.66 1.06, 26.05 -1.4, 31.67 -0.35 C37.29 0.7, 42.87 6.06, 46.05 10.12 C49.23 14.18, 51.07 18.91, 50.75 24.02 C50.43 29.13, 47.58 36.92, 44.11 40.77 C40.63 44.63, 35.39 46.46, 29.89 47.13 C24.39 47.8, 16.11 47.43, 11.1 44.8 C6.08 42.16, 1.2 36.34, -0.22 31.33 C-1.64 26.32, 0.28 19.64, 2.58 14.73 C4.87 9.82, 11.72 3.68, 13.55 1.87 C15.39 0.06, 13.63 3.5, 13.6 3.87" stroke="#1e1e1e" stroke-width="2" fill="none"></path></g></svg>