<svg version="1.1" xmlns="http://www.w3.org/2000/svg" viewBox="0 0 105.26171875 129.23744184244413" width="105.26171875" height="129.23744184244413">
  <!-- svg-source:excalidraw -->
  
  <defs>
    <style class="style-fonts">
      @font-face {
        font-family: "Virgil";
        src: url("https://excalidraw.com/Virgil.woff2");
      }
      @font-face {
        font-family: "Cascadia";
        src: url("https://excalidraw.com/Cascadia.woff2");
      }
      @font-face {
        font-family: "Assistant";
        src: url("https://excalidraw.com/Assistant-Regular.woff2");
      }
    </style>
    
  </defs>
  <g stroke-linecap="round" transform="translate(10 26.966608509110202) rotate(0 42.630859375 38.322265625)"><path d="M19.16 0 C35.16 2.42, 45.88 -1.87, 66.1 0 C80.61 -3.48, 85.58 8.09, 85.26 19.16 C84.87 31.87, 82.01 39.45, 85.26 57.48 C86.13 68.92, 80.14 73.09, 66.1 76.64 C52.21 76.73, 38.82 79.78, 19.16 76.64 C5.72 77.68, 1.72 66.86, 0 57.48 C-0.35 40.35, 2.81 29.33, 0 19.16 C0.68 8.34, 4.27 -0.84, 19.16 0" stroke="none" stroke-width="0" fill="#a18072"></path><path d="M19.16 0 C30.24 -0.46, 39.89 -1.51, 66.1 0 M19.16 0 C31.61 -0.19, 43.29 0.32, 66.1 0 M66.1 0 C79.29 0.7, 85.35 5.12, 85.26 19.16 M66.1 0 C77.81 -2.1, 85.74 6.35, 85.26 19.16 M85.26 19.16 C84.52 25.73, 86.35 33.89, 85.26 57.48 M85.26 19.16 C85.34 27.58, 84.82 35.21, 85.26 57.48 M85.26 57.48 C83.94 70.56, 79.02 77.39, 66.1 76.64 M85.26 57.48 C85.9 68.6, 79.72 74.85, 66.1 76.64 M66.1 76.64 C56.78 75.43, 45.36 75.97, 19.16 76.64 M66.1 76.64 C48.36 76, 30.3 76.85, 19.16 76.64 M19.16 76.64 C8.07 76.65, 1.92 71.43, 0 57.48 M19.16 76.64 C6.16 76.37, -1.59 72.08, 0 57.48 M0 57.48 C0.85 45.02, 1.07 34.59, 0 19.16 M0 57.48 C-0.46 47.75, -0.11 36.74, 0 19.16 M0 19.16 C1.89 7.07, 4.77 1.42, 19.16 0 M0 19.16 C1.41 5.04, 7.24 1.42, 19.16 0" stroke="#1e1e1e" stroke-width="2" fill="none"></path></g><g stroke-linecap="round" transform="translate(33.86899266098453 104.26087934244414) rotate(0 19.283203125 7.48828125)"><path d="M3.74 0 C12.04 -1.69, 22.83 -2.77, 34.82 0 C37.55 1.23, 38.3 1.29, 38.57 3.74 C37.67 5.02, 38.79 6.97, 38.57 11.23 C39.48 11.16, 36.46 17.16, 34.82 14.98 C22.41 16.91, 12.71 15.69, 3.74 14.98 C2.49 12.53, 2.59 13.01, 0 11.23 C0.72 10.23, 0.2 8.41, 0 3.74 C-1.53 0.64, 0.57 0.69, 3.74 0" stroke="none" stroke-width="0" fill="#868e96"></path><path d="M3.74 0 C14.77 -0.63, 24.89 0.63, 34.82 0 M3.74 0 C12.11 0.16, 21.4 0.22, 34.82 0 M34.82 0 C37.36 -0.63, 38.1 0.34, 38.57 3.74 M34.82 0 C37.56 -0.02, 37.46 0.56, 38.57 3.74 M38.57 3.74 C38.8 5.3, 38.27 7.51, 38.57 11.23 M38.57 3.74 C38.42 5.91, 38.43 8.47, 38.57 11.23 M38.57 11.23 C38.64 14.1, 37.6 14.26, 34.82 14.98 M38.57 11.23 C38.99 12.83, 36.37 14.37, 34.82 14.98 M34.82 14.98 C22.98 14.34, 12.31 15.03, 3.74 14.98 M34.82 14.98 C24.52 14.86, 14.19 14.85, 3.74 14.98 M3.74 14.98 C2.21 15.56, -0.1 13.61, 0 11.23 M3.74 14.98 C0.45 15.89, 0.19 12.84, 0 11.23 M0 11.23 C0.14 9.52, -0.17 7.55, 0 3.74 M0 11.23 C0.04 9.1, 0.18 7.4, 0 3.74 M0 3.74 C-0.81 1.96, 1.86 -0.59, 3.74 0 M0 3.74 C0.43 1.96, 1.18 -0.54, 3.74 0" stroke="#1e1e1e" stroke-width="2" fill="none"></path></g><g stroke-linecap="round" transform="translate(34.05486505681802 12.113862296989183) rotate(0 19.283203125 7.48828125)"><path d="M3.74 0 C16.31 -2.29, 26.61 1.45, 34.82 0 C37.05 0.04, 36.99 0.96, 38.57 3.74 C38.71 5.96, 38.82 7.95, 38.57 11.23 C37.71 15.91, 38.56 14, 34.82 14.98 C25.29 16.03, 17.98 12.83, 3.74 14.98 C3.84 14.25, -1.98 13.33, 0 11.23 C0.11 9.89, -0.64 7.26, 0 3.74 C-0.68 1.93, -0.11 -1.82, 3.74 0" stroke="none" stroke-width="0" fill="#868e96"></path><path d="M3.74 0 C12.35 0.71, 21.46 0.08, 34.82 0 M3.74 0 C12.32 0.14, 20.7 -0.35, 34.82 0 M34.82 0 C36.86 -0.91, 38.77 1.23, 38.57 3.74 M34.82 0 C36.21 -0.69, 37.77 0.95, 38.57 3.74 M38.57 3.74 C38.3 5.84, 38.64 7.22, 38.57 11.23 M38.57 3.74 C38.41 5.94, 38.55 8.15, 38.57 11.23 M38.57 11.23 C38.84 13.01, 37.69 14.2, 34.82 14.98 M38.57 11.23 C37.62 13.12, 38.19 15.49, 34.82 14.98 M34.82 14.98 C28.8 15.07, 21.44 15.27, 3.74 14.98 M34.82 14.98 C28.49 14.98, 21.8 15.27, 3.74 14.98 M3.74 14.98 C1.15 14.86, -0.69 14.52, 0 11.23 M3.74 14.98 C1.44 14.09, -0.42 14.04, 0 11.23 M0 11.23 C-0.17 9.37, -0.16 6.92, 0 3.74 M0 11.23 C0.17 8.94, -0.16 6.65, 0 3.74 M0 3.74 C0.61 0.66, 1.62 0.62, 3.74 0 M0 3.74 C-0.07 0.71, 1.1 0.71, 3.74 0" stroke="#343a40" stroke-width="2" fill="none"></path></g><g stroke-linecap="round" transform="translate(39.397448168828305 13.62604069808539) rotate(269.315648468081 13.974609375 10.47265625)"><path d="M5.24 0 C9.8 1.79, 13.48 0.36, 22.71 0 C24.03 -0.41, 29.56 -1.52, 27.95 5.24 C28.66 5.96, 27.37 11.99, 27.95 15.71 C29.68 17.85, 25.88 18.73, 22.71 20.95 C17.65 18.07, 12.72 20.16, 5.24 20.95 C-0.99 20.4, -1.81 21.82, 0 15.71 C-1.14 11.4, -0.53 8.47, 0 5.24 C-1.87 -0.77, 4.41 -1.06, 5.24 0" stroke="none" stroke-width="0" fill="#fcc2d7"></path><path d="M5.24 0 C9.04 -0.15, 12.99 -1.53, 22.71 0 M5.24 0 C10.93 -0.61, 16.14 -0.86, 22.71 0 M22.71 0 C26.62 -0.03, 26.03 0.55, 27.95 5.24 M22.71 0 C24.6 -0.59, 26.53 3.26, 27.95 5.24 M27.95 5.24 C28.01 7.66, 27.76 9.79, 27.95 15.71 M27.95 5.24 C27.92 7.54, 28.03 9.07, 27.95 15.71 M27.95 15.71 C28.68 17.64, 24.55 19.9, 22.71 20.95 M27.95 15.71 C29.7 20.23, 24.4 20.58, 22.71 20.95 M22.71 20.95 C19.04 21.63, 12.58 21.74, 5.24 20.95 M22.71 20.95 C18.26 21.46, 12.04 20.84, 5.24 20.95 M5.24 20.95 C0.36 22.53, 0.33 17.66, 0 15.71 M5.24 20.95 C0.9 21.58, -0.38 20.09, 0 15.71 M0 15.71 C-0.37 11.65, 0.2 8.15, 0 5.24 M0 15.71 C-0.52 13.96, 0.22 11.16, 0 5.24 M0 5.24 C0.74 2.98, 1.62 -0.94, 5.24 0 M0 5.24 C-0.3 3.16, 3.22 -0.55, 5.24 0" stroke="#1e1e1e" stroke-width="2" fill="none"></path></g><g stroke-linecap="round" transform="translate(27.939453125 38.74047213240182) rotate(269.315648468081 25.4296875 23.859375)"><path d="M21.19 1.09 C26.1 0.05, 32.92 1.43, 37.53 3.8 C42.14 6.17, 46.85 10.62, 48.85 15.32 C50.86 20.02, 51.47 26.98, 49.55 31.99 C47.64 37, 42.02 42.93, 37.36 45.36 C32.7 47.8, 26.67 47.48, 21.57 46.58 C16.48 45.68, 10.49 43.66, 6.8 39.96 C3.11 36.27, -0.52 29.66, -0.59 24.44 C-0.65 19.21, 2.68 12.68, 6.42 8.62 C10.16 4.55, 18.84 1.29, 21.85 0.05 C24.87 -1.19, 24.42 0.84, 24.51 1.16 M32.2 0.53 C37.55 1.22, 42.9 4.59, 45.97 8.85 C49.04 13.12, 51.23 20.98, 50.64 26.1 C50.04 31.22, 46.11 36.09, 42.43 39.57 C38.75 43.06, 33.65 46.58, 28.55 47.02 C23.44 47.46, 16.49 44.75, 11.82 42.21 C7.15 39.67, 2.01 36.54, 0.52 31.78 C-0.97 27.03, 0.62 18.72, 2.88 13.67 C5.14 8.63, 9.1 3.74, 14.06 1.53 C19.02 -0.68, 29.67 0.35, 32.62 0.41 C35.58 0.46, 32.32 1.19, 31.8 1.87" stroke="none" stroke-width="0" fill="#fcc2d7"></path><path d="M15.72 1.99 C20.2 -0.32, 27.1 -0.95, 32.11 0.54 C37.12 2.04, 42.68 6.78, 45.77 10.97 C48.87 15.16, 51.25 20.76, 50.67 25.68 C50.08 30.61, 46.27 36.97, 42.27 40.53 C38.26 44.09, 31.87 46.72, 26.64 47.06 C21.41 47.4, 15.34 45.36, 10.89 42.54 C6.43 39.73, 1.24 35.12, -0.1 30.18 C-1.44 25.24, -0.15 17.88, 2.85 12.9 C5.84 7.92, 15.06 2.4, 17.89 0.29 C20.72 -1.83, 19.64 -0.3, 19.81 0.22 M30.72 -0.75 C35.59 -0.1, 40.33 3.71, 43.88 7.97 C47.43 12.24, 52.06 19.63, 52 24.83 C51.94 30.04, 47.4 35.21, 43.52 39.19 C39.65 43.17, 33.89 47.74, 28.75 48.7 C23.62 49.66, 17.16 47.98, 12.7 44.95 C8.24 41.91, 3.72 35.41, 1.98 30.49 C0.25 25.58, 0.26 20.03, 2.3 15.45 C4.35 10.88, 9.37 5.41, 14.26 3.05 C19.14 0.69, 28.99 1.69, 31.61 1.3 C34.22 0.91, 30.42 0.26, 29.92 0.7" stroke="#1e1e1e" stroke-width="2" fill="none"></path></g></svg>