<svg version="1.1" xmlns="http://www.w3.org/2000/svg" viewBox="0 0 116.9010881696413 140.84223780150023" width="116.9010881696413" height="140.84223780150023">
  <!-- svg-source:excalidraw -->
  
  <defs>
    <style class="style-fonts">
      @font-face {
        font-family: "Virgil";
        src: url("https://excalidraw.com/Virgil.woff2");
      }
      @font-face {
        font-family: "Cascadia";
        src: url("https://excalidraw.com/Cascadia.woff2");
      }
      @font-face {
        font-family: "Assistant";
        src: url("https://excalidraw.com/Assistant-Regular.woff2");
      }
    </style>
    
  </defs>
  <g stroke-linecap="round" transform="translate(32.64044744318198 109.06643921733576) rotate(337.5387531331347 19.283203125 7.48828125)"><path d="M3.74 0 C13.17 -1.56, 22.95 0.72, 34.82 0 C37.22 -1.3, 40.56 3.49, 38.57 3.74 C38.45 6.71, 38.69 9.71, 38.57 11.23 C40.65 15.39, 36.03 13.82, 34.82 14.98 C25.83 15.88, 19.28 14.62, 3.74 14.98 C-1.34 13.8, 0.88 14.1, 0 11.23 C0.41 10.05, 0.18 8.44, 0 3.74 C-0.26 -0.11, 1.97 -0.12, 3.74 0" stroke="none" stroke-width="0" fill="#868e96"></path><path d="M3.74 0 C15.43 -0.79, 25.54 0.84, 34.82 0 M3.74 0 C11.63 -0.35, 18.44 -0.33, 34.82 0 M34.82 0 C37.02 0.57, 38.31 0.89, 38.57 3.74 M34.82 0 C38.33 -0.31, 38.73 1.33, 38.57 3.74 M38.57 3.74 C38.8 6.2, 38.83 8.87, 38.57 11.23 M38.57 3.74 C38.59 6.51, 38.52 9.66, 38.57 11.23 M38.57 11.23 C39 14.17, 36.69 13.99, 34.82 14.98 M38.57 11.23 C38.81 12.61, 37.27 14.07, 34.82 14.98 M34.82 14.98 C25.75 15.69, 17.94 15.45, 3.74 14.98 M34.82 14.98 C28.37 14.62, 22.03 14.97, 3.74 14.98 M3.74 14.98 C1.95 14.87, -0.54 13.79, 0 11.23 M3.74 14.98 C2.06 15.9, 0.25 13.76, 0 11.23 M0 11.23 C0.05 9.64, 0.28 8.1, 0 3.74 M0 11.23 C-0.01 9.62, -0.03 7.91, 0 3.74 M0 3.74 C-0.15 1.14, 2.24 0.94, 3.74 0 M0 3.74 C0.67 1.59, 2.35 -0.26, 3.74 0" stroke="#1e1e1e" stroke-width="2" fill="none"></path></g><g stroke-linecap="round" transform="translate(32.826319839014104 16.919422171883525) rotate(337.0766447889431 19.283203125 7.48828125)"><path d="M3.74 0 C14.12 1.25, 27.59 -1.11, 34.82 0 C39.31 2.24, 39.94 0.21, 38.57 3.74 C38.72 7.26, 39.34 10.03, 38.57 11.23 C37.28 12.57, 35.16 14.97, 34.82 14.98 C20.55 14.32, 7.82 13.89, 3.74 14.98 C2.13 15.35, -1.31 14.64, 0 11.23 C0.17 10.14, -0.14 6.64, 0 3.74 C0.72 1.13, 0.46 1.17, 3.74 0" stroke="none" stroke-width="0" fill="#868e96"></path><path d="M3.74 0 C11.11 0.88, 17.84 0.03, 34.82 0 M3.74 0 C12.59 -0.23, 21.75 0.4, 34.82 0 M34.82 0 C37.06 -0.36, 39.44 0.98, 38.57 3.74 M34.82 0 C37.48 0.09, 39.02 1.75, 38.57 3.74 M38.57 3.74 C38.84 5.57, 38.9 7.68, 38.57 11.23 M38.57 3.74 C38.48 5.87, 38.64 7.76, 38.57 11.23 M38.57 11.23 C37.94 12.74, 37.53 14.01, 34.82 14.98 M38.57 11.23 C38.52 12.82, 37.12 14.9, 34.82 14.98 M34.82 14.98 C28.59 15.7, 20.05 15.87, 3.74 14.98 M34.82 14.98 C23.66 14.73, 12.7 14.79, 3.74 14.98 M3.74 14.98 C0.71 15.04, 0.7 14.53, 0 11.23 M3.74 14.98 C1.5 15.01, -0.78 13.09, 0 11.23 M0 11.23 C0.26 9.42, -0.25 6.62, 0 3.74 M0 11.23 C-0.05 9.37, -0.02 7.16, 0 3.74 M0 3.74 C0.99 2.18, 1.83 0.3, 3.74 0 M0 3.74 C1.11 0.99, 1.65 0.16, 3.74 0" stroke="#1e1e1e" stroke-width="2" fill="none"></path></g><g stroke-linecap="round" transform="translate(10 32.545724255215646) rotate(0 42.630859375 38.322265625)"><path d="M19.16 0 C30.92 -2.14, 45.69 2.75, 66.1 0 C80.78 -1.44, 88.08 6.12, 85.26 19.16 C88.25 34.22, 83.59 43.07, 85.26 57.48 C82.27 70.25, 82.22 73.53, 66.1 76.64 C47.49 74.78, 37.26 76.92, 19.16 76.64 C4.58 77.9, -0.98 71.9, 0 57.48 C-0.51 41.42, 0.84 28.94, 0 19.16 C-1.1 8.01, 6.74 -0.76, 19.16 0" stroke="none" stroke-width="0" fill="#a18072"></path><path d="M19.16 0 C27.87 -0.56, 38.82 1.33, 66.1 0 M19.16 0 C29.53 0.89, 40.23 -0.04, 66.1 0 M66.1 0 C80.63 -0.54, 85.54 6.54, 85.26 19.16 M66.1 0 C79.78 1.01, 83.85 7.7, 85.26 19.16 M85.26 19.16 C87.21 31.71, 84.77 40.19, 85.26 57.48 M85.26 19.16 C85.51 28.75, 84.46 36.47, 85.26 57.48 M85.26 57.48 C85.68 68.32, 78.8 75.07, 66.1 76.64 M85.26 57.48 C84.86 70.1, 77.1 75.98, 66.1 76.64 M66.1 76.64 C46.25 78.44, 31.36 76.82, 19.16 76.64 M66.1 76.64 C56.93 76.44, 45.82 76.61, 19.16 76.64 M19.16 76.64 C7.79 78.26, 0.44 70.31, 0 57.48 M19.16 76.64 C4.82 75.37, -0.26 70.42, 0 57.48 M0 57.48 C-1.6 42.97, -0.85 31.03, 0 19.16 M0 57.48 C-0.02 43.13, 1.11 29.94, 0 19.16 M0 19.16 C1.16 6.99, 8.31 -0.45, 19.16 0 M0 19.16 C0.8 6.71, 8.35 -0.86, 19.16 0" stroke="#1e1e1e" stroke-width="2" fill="none"></path></g><g stroke-linecap="round" transform="translate(78.9518694196413 59.7693331864657) rotate(0 13.974609375 10.47265625)"><path d="M5.24 0 C7.55 2.39, 15.69 -2.68, 22.71 0 C27.34 -0.59, 31.16 2.41, 27.95 5.24 C28.58 9.82, 27.71 13.37, 27.95 15.71 C26.69 18.23, 23.74 21.22, 22.71 20.95 C15.97 19.59, 11.09 20.06, 5.24 20.95 C0.28 22.02, 3.43 15.74, 0 15.71 C-1.52 10.26, 1.45 9.1, 0 5.24 C-0.73 -0.22, 0.82 -2.8, 5.24 0" stroke="none" stroke-width="0" fill="#eaddd7"></path><path d="M5.24 0 C10.33 0.88, 11.39 1.19, 22.71 0 M5.24 0 C11.67 -0.03, 18.48 0.07, 22.71 0 M22.71 0 C25.12 0.12, 29.36 3.36, 27.95 5.24 M22.71 0 C26.71 0.06, 26.39 0.47, 27.95 5.24 M27.95 5.24 C28.69 9.23, 27.26 10.49, 27.95 15.71 M27.95 5.24 C27.76 8.54, 27.85 10.85, 27.95 15.71 M27.95 15.71 C29.93 21.07, 27.36 21.55, 22.71 20.95 M27.95 15.71 C30.16 18.69, 27 21.27, 22.71 20.95 M22.71 20.95 C14.91 21.58, 9.19 19.99, 5.24 20.95 M22.71 20.95 C15.78 21.72, 9.48 21.33, 5.24 20.95 M5.24 20.95 C2.07 22.35, 1.6 20.48, 0 15.71 M5.24 20.95 C0.61 19.92, -1.91 19.19, 0 15.71 M0 15.71 C-0.74 11.3, -0.95 7.01, 0 5.24 M0 15.71 C0.17 12.07, 0.22 9.08, 0 5.24 M0 5.24 C0.45 3.7, 1.55 -1.04, 5.24 0 M0 5.24 C0.64 1.64, 1.05 1.04, 5.24 0" stroke="#1e1e1e" stroke-width="2" fill="none"></path></g><g stroke-linecap="round" transform="translate(29.153041294641298 45.7302706864657) rotate(0 25.4296875 23.859375)"><path d="M19.2 1.65 C24.07 0.34, 30.87 0.56, 35.65 2.59 C40.42 4.61, 45.63 9.25, 47.84 13.81 C50.05 18.37, 50.2 24.93, 48.9 29.92 C47.6 34.91, 44.48 40.74, 40.05 43.74 C35.62 46.75, 27.86 48.41, 22.34 47.94 C16.82 47.48, 10.51 44.63, 6.92 40.94 C3.32 37.25, 0.96 31.01, 0.77 25.81 C0.58 20.62, 1.65 14.05, 5.79 9.79 C9.93 5.54, 21.12 1.71, 25.62 0.29 C30.13 -1.14, 32.68 0.87, 32.83 1.24 M23.89 -0.05 C28.78 -0.54, 34.07 1.43, 38.35 4.54 C42.64 7.64, 47.85 13.69, 49.62 18.59 C51.38 23.5, 51.03 29.58, 48.95 33.96 C46.87 38.35, 42 42.6, 37.13 44.92 C32.27 47.25, 25.18 48.93, 19.76 47.93 C14.34 46.92, 8.01 43.25, 4.64 38.9 C1.26 34.55, -0.71 27.07, -0.47 21.82 C-0.22 16.58, 2.13 11.07, 6.09 7.42 C10.05 3.78, 20.43 1.16, 23.28 -0.04 C26.13 -1.25, 23.36 -0.24, 23.2 0.19" stroke="none" stroke-width="0" fill="#eaddd7"></path><path d="M33.98 1.84 C38.77 3.49, 44.93 8.89, 47.63 13.29 C50.34 17.68, 51.29 23.2, 50.22 28.2 C49.15 33.21, 45.34 40.03, 41.21 43.32 C37.08 46.6, 30.88 48.32, 25.43 47.93 C19.98 47.53, 12.79 44.43, 8.5 40.96 C4.22 37.5, 0.47 32.03, -0.3 27.15 C-1.06 22.26, 0.81 15.85, 3.89 11.67 C6.97 7.5, 12.96 3.84, 18.19 2.12 C23.41 0.4, 32.21 1.25, 35.25 1.36 C38.28 1.47, 36.35 2.34, 36.41 2.78 M37.92 3.75 C42.91 5.68, 47.23 10.1, 49.47 14.47 C51.71 18.84, 52.89 25.08, 51.36 29.96 C49.83 34.84, 44.83 40.92, 40.3 43.77 C35.77 46.62, 29.83 47.74, 24.21 47.04 C18.58 46.35, 10.47 43.19, 6.55 39.62 C2.63 36.05, 1.11 30.37, 0.69 25.62 C0.26 20.87, 0.73 15.12, 4.02 11.11 C7.3 7.09, 15.11 2.8, 20.42 1.54 C25.72 0.28, 33.22 3.24, 35.84 3.53 C38.45 3.81, 36.15 2.94, 36.1 3.27" stroke="#1e1e1e" stroke-width="2" fill="none"></path></g></svg>