<svg version="1.1" xmlns="http://www.w3.org/2000/svg" viewBox="0 0 105.26171875 140.84223780150023" width="105.26171875" height="140.84223780150023">
  <!-- svg-source:excalidraw -->
  
  <defs>
    <style class="style-fonts">
      @font-face {
        font-family: "Virgil";
        src: url("https://excalidraw.com/Virgil.woff2");
      }
      @font-face {
        font-family: "Cascadia";
        src: url("https://excalidraw.com/Cascadia.woff2");
      }
      @font-face {
        font-family: "Assistant";
        src: url("https://excalidraw.com/Assistant-Regular.woff2");
      }
    </style>
    
  </defs>
  <g stroke-linecap="round" transform="translate(32.64044744318198 109.06643921733576) rotate(337.5387531331347 19.283203125 7.48828125)"><path d="M3.74 0 C12.68 0.45, 21.73 2.11, 34.82 0 C38.98 -1.29, 37.4 -0.91, 38.57 3.74 C38.85 5.22, 38.38 7.26, 38.57 11.23 C37.39 14.61, 37.69 13.67, 34.82 14.98 C26.24 15.74, 16.55 14.9, 3.74 14.98 C-0.11 15.69, -0.12 12.94, 0 11.23 C0.04 7.69, 0.74 5.95, 0 3.74 C-2.2 2.07, 0.82 2.32, 3.74 0" stroke="none" stroke-width="0" fill="#868e96"></path><path d="M3.74 0 C12.23 -0.21, 19.21 0.92, 34.82 0 M3.74 0 C12.42 0.21, 20.4 0.27, 34.82 0 M34.82 0 C37.08 0.66, 38.68 2.09, 38.57 3.74 M34.82 0 C38.45 -0.43, 38.48 0.54, 38.57 3.74 M38.57 3.74 C38.76 5.4, 38.23 7.61, 38.57 11.23 M38.57 3.74 C38.53 5.25, 38.42 6.73, 38.57 11.23 M38.57 11.23 C39.4 14.42, 37.91 14.05, 34.82 14.98 M38.57 11.23 C39.44 14.44, 37.26 13.94, 34.82 14.98 M34.82 14.98 C24.97 14.54, 15.39 15.79, 3.74 14.98 M34.82 14.98 C22.65 14.7, 11.11 15.02, 3.74 14.98 M3.74 14.98 C1.64 15.67, 0.93 13.06, 0 11.23 M3.74 14.98 C0.37 14.64, -0.26 14.55, 0 11.23 M0 11.23 C-0.07 9.6, 0.32 7.44, 0 3.74 M0 11.23 C0.03 8.79, 0.12 6.22, 0 3.74 M0 3.74 C-0.47 0.63, 1.66 -0.04, 3.74 0 M0 3.74 C-0.57 2.13, 2.24 0.61, 3.74 0" stroke="#1e1e1e" stroke-width="2" fill="none"></path></g><g stroke-linecap="round" transform="translate(32.82631983901592 16.919422171883525) rotate(337.0766447889431 19.283203125 7.48828125)"><path d="M3.74 0 C14.66 2.01, 23.59 -1.35, 34.82 0 C36.16 -2.16, 38.56 3.66, 38.57 3.74 C38.31 4.37, 38.15 7.27, 38.57 11.23 C38.94 12.42, 38.23 14.27, 34.82 14.98 C26.62 14.81, 11.98 15.78, 3.74 14.98 C1.13 14.19, 1.17 13.99, 0 11.23 C0.74 9.03, -0.83 7.36, 0 3.74 C-0.43 3.57, 1.73 0.74, 3.74 0" stroke="none" stroke-width="0" fill="#868e96"></path><path d="M3.74 0 C11.78 0.92, 20.26 0.18, 34.82 0 M3.74 0 C12.99 0.22, 22.73 0.26, 34.82 0 M34.82 0 C37.43 0.85, 39.55 0.88, 38.57 3.74 M34.82 0 C37.23 -0.71, 38.03 2.2, 38.57 3.74 M38.57 3.74 C38.21 6.39, 38.22 8.87, 38.57 11.23 M38.57 3.74 C38.42 5.35, 38.72 7.18, 38.57 11.23 M38.57 11.23 C39.16 12.8, 38.08 15.59, 34.82 14.98 M38.57 11.23 C38.51 12.7, 37.47 14.74, 34.82 14.98 M34.82 14.98 C23.39 15.6, 12.64 15.11, 3.74 14.98 M34.82 14.98 C25.36 14.93, 16.2 15.24, 3.74 14.98 M3.74 14.98 C2.17 14.31, -0.76 13.44, 0 11.23 M3.74 14.98 C0.99 15.8, -0.37 14.76, 0 11.23 M0 11.23 C0.35 9.31, 0.12 7.32, 0 3.74 M0 11.23 C0.15 9.08, -0.1 6.96, 0 3.74 M0 3.74 C0.41 1.21, 0.75 0.77, 3.74 0 M0 3.74 C0.99 1.86, 0.79 0.9, 3.74 0" stroke="#1e1e1e" stroke-width="2" fill="none"></path></g><g stroke-linecap="round" transform="translate(10 32.545724255215646) rotate(0 42.630859375 38.322265625)"><path d="M19.16 0 C36.31 -2.46, 47.25 -3.67, 66.1 0 C78.86 3.34, 82.14 7.11, 85.26 19.16 C83.44 28.84, 85.58 34.26, 85.26 57.48 C86.52 69.28, 80.52 79.17, 66.1 76.64 C49.09 77.56, 35.68 75.47, 19.16 76.64 C8.01 77, -0.76 70.44, 0 57.48 C-3.58 50.91, -1.12 45.27, 0 19.16 C0.66 7.41, 7.65 -0.88, 19.16 0" stroke="none" stroke-width="0" fill="#a18072"></path><path d="M19.16 0 C31.48 -0.13, 45.03 0.38, 66.1 0 M19.16 0 C35.07 0.4, 51.56 0.58, 66.1 0 M66.1 0 C80.84 -0.74, 85.12 5.16, 85.26 19.16 M66.1 0 C77.79 1.9, 86.26 7.41, 85.26 19.16 M85.26 19.16 C82.95 28.18, 83.3 37.01, 85.26 57.48 M85.26 19.16 C85.8 31.08, 85.56 40.69, 85.26 57.48 M85.26 57.48 C86.78 71.49, 78.78 74.85, 66.1 76.64 M85.26 57.48 C85.57 69.78, 80.48 76.41, 66.1 76.64 M66.1 76.64 C56.17 77.41, 43.08 75.62, 19.16 76.64 M66.1 76.64 C55.02 77.37, 44.08 76.01, 19.16 76.64 M19.16 76.64 C4.87 76.06, -0.46 71.69, 0 57.48 M19.16 76.64 C5.64 78.7, -0.34 70.01, 0 57.48 M0 57.48 C0.24 44.12, -0.81 27.6, 0 19.16 M0 57.48 C-0.79 44.83, 0.08 33.36, 0 19.16 M0 19.16 C-1 7.92, 8.11 1.06, 19.16 0 M0 19.16 C-0.92 8.19, 6.21 0.76, 19.16 0" stroke="#1e1e1e" stroke-width="2" fill="none"></path></g><g stroke-linecap="round" transform="translate(36.68179290260014 21.994833421978) rotate(90.684351531919 13.974609375 10.47265625)"><path d="M5.24 0 C9.23 0.9, 16.36 -0.93, 22.71 0 C27.83 0.36, 27.19 1.92, 27.95 5.24 C26.5 7.94, 27.78 11.13, 27.95 15.71 C28.61 20.23, 27.47 20.06, 22.71 20.95 C19.03 19.79, 10.33 18.74, 5.24 20.95 C2.02 22.24, -0.43 20.18, 0 15.71 C-0.5 12.09, 0.65 11.8, 0 5.24 C-3.46 5.15, 4.3 0.5, 5.24 0" stroke="none" stroke-width="0" fill="#eaddd7"></path><path d="M5.24 0 C7.69 -0.1, 12.15 -0.34, 22.71 0 M5.24 0 C11.08 0.65, 15.99 -0.76, 22.71 0 M22.71 0 C27.73 1.23, 27.85 -0.05, 27.95 5.24 M22.71 0 C26.52 -0.48, 29.56 1.51, 27.95 5.24 M27.95 5.24 C28.8 8.04, 27.98 9.67, 27.95 15.71 M27.95 5.24 C28.14 8.16, 28.42 10.01, 27.95 15.71 M27.95 15.71 C26.43 18.62, 25.75 22.38, 22.71 20.95 M27.95 15.71 C27.2 21.26, 25.87 20.7, 22.71 20.95 M22.71 20.95 C16.27 22.73, 8.38 21.65, 5.24 20.95 M22.71 20.95 C16.81 20.34, 12.09 20.85, 5.24 20.95 M5.24 20.95 C0.75 22.48, 1.72 20.26, 0 15.71 M5.24 20.95 C0.83 22.75, -0.17 19.96, 0 15.71 M0 15.71 C0.6 11.88, -0.54 8.21, 0 5.24 M0 15.71 C0.01 12.15, -0.25 8.91, 0 5.24 M0 5.24 C-0.9 2.42, 2.03 -1.01, 5.24 0 M0 5.24 C0.8 1.12, 2.8 1.61, 5.24 0" stroke="#1e1e1e" stroke-width="2" fill="none"></path></g><g stroke-linecap="round" transform="translate(25.421037946427532 46.95692110629625) rotate(90.684351531919 25.4296875 23.859375)"><path d="M20.72 0.64 C25.71 -0.48, 33.45 1.37, 38.29 3.7 C43.13 6.04, 47.94 10.16, 49.74 14.64 C51.54 19.13, 50.93 25.54, 49.09 30.62 C47.25 35.71, 43.41 42.31, 38.69 45.14 C33.97 47.98, 26.3 48.62, 20.78 47.65 C15.26 46.69, 9.2 43.31, 5.57 39.37 C1.95 35.43, -1.04 29.05, -0.99 24.01 C-0.93 18.97, 1.29 13.06, 5.88 9.13 C10.47 5.19, 22.01 1.56, 26.56 0.4 C31.11 -0.76, 33.02 1.81, 33.19 2.18 M37.79 2.73 C42.46 4.98, 46.56 10.91, 48.55 15.61 C50.55 20.31, 51.36 26.42, 49.76 30.92 C48.16 35.42, 43.43 39.89, 38.97 42.62 C34.52 45.35, 28.65 47.69, 23.03 47.3 C17.41 46.92, 9.13 43.84, 5.26 40.29 C1.38 36.75, -0.3 31.14, -0.23 26.02 C-0.16 20.9, 2.19 13.9, 5.67 9.59 C9.16 5.28, 15.32 1.13, 20.68 0.15 C26.04 -0.83, 35.12 3.03, 37.83 3.71 C40.53 4.38, 37.26 4.08, 36.9 4.21" stroke="none" stroke-width="0" fill="#eaddd7"></path><path d="M22.94 0.92 C28.19 0.42, 36.36 1.99, 40.71 4.91 C45.07 7.84, 47.67 13.63, 49.07 18.46 C50.46 23.29, 51.39 29.38, 49.09 33.91 C46.79 38.43, 40.34 43.34, 35.27 45.62 C30.19 47.91, 23.75 49.04, 18.63 47.6 C13.5 46.16, 7.57 41.18, 4.49 36.99 C1.41 32.8, -0.47 27.44, 0.16 22.47 C0.79 17.5, 4.18 11.05, 8.26 7.2 C12.35 3.34, 21.81 0.47, 24.69 -0.67 C27.57 -1.81, 25.51 -0.2, 25.53 0.37 M32.96 0.99 C37.65 2.71, 44.26 8.26, 47.1 12.98 C49.93 17.7, 50.91 24.49, 49.99 29.32 C49.07 34.15, 45.42 38.66, 41.58 41.96 C37.74 45.26, 32.21 49.02, 26.94 49.12 C21.68 49.23, 14.16 46.18, 9.98 42.61 C5.79 39.03, 2.84 32.77, 1.83 27.7 C0.82 22.62, 1.22 16.63, 3.91 12.17 C6.6 7.7, 13.07 2.83, 17.98 0.89 C22.9 -1.05, 30.64 0.35, 33.4 0.51 C36.16 0.66, 34.69 1.11, 34.54 1.82" stroke="#1e1e1e" stroke-width="2" fill="none"></path></g></svg>