<svg version="1.1" xmlns="http://www.w3.org/2000/svg" viewBox="0 0 107.08836856448033 140.84223780150387" width="107.08836856448033" height="140.84223780150387">
  <!-- svg-source:excalidraw -->
  
  <defs>
    <style class="style-fonts">
      @font-face {
        font-family: "Virgil";
        src: url("https://excalidraw.com/Virgil.woff2");
      }
      @font-face {
        font-family: "Cascadia";
        src: url("https://excalidraw.com/Cascadia.woff2");
      }
      @font-face {
        font-family: "Assistant";
        src: url("https://excalidraw.com/Assistant-Regular.woff2");
      }
    </style>
    
  </defs>
  <g stroke-linecap="round" transform="translate(34.46709725766232 109.0664392173394) rotate(337.5387531331347 19.283203125 7.48828125)"><path d="M3.74 0 C9.64 -0.23, 18.94 1.32, 34.82 0 C39.14 1.89, 40.52 1.68, 38.57 3.74 C38.42 6.1, 39.11 7.85, 38.57 11.23 C39.76 13.95, 36.88 15.65, 34.82 14.98 C23.63 17.33, 17.41 14.56, 3.74 14.98 C-0.63 14.27, 0.85 15.8, 0 11.23 C-0.52 9.97, 0.71 7.18, 0 3.74 C-1.1 0.96, 3.26 -2.52, 3.74 0" stroke="none" stroke-width="0" fill="#868e96"></path><path d="M3.74 0 C13.95 -0.59, 24.76 -0.4, 34.82 0 M3.74 0 C10.36 -0.08, 16.78 0.4, 34.82 0 M34.82 0 C36.32 0, 38.69 0.45, 38.57 3.74 M34.82 0 C36.62 0.67, 37.44 1.34, 38.57 3.74 M38.57 3.74 C38.76 5.11, 38.95 7.1, 38.57 11.23 M38.57 3.74 C38.65 6.57, 38.55 9.38, 38.57 11.23 M38.57 11.23 C37.89 13.38, 36.6 14.61, 34.82 14.98 M38.57 11.23 C38.51 14.22, 38.33 14.48, 34.82 14.98 M34.82 14.98 C23.13 15.25, 10.38 14.51, 3.74 14.98 M34.82 14.98 C25.01 15.38, 15.4 15.15, 3.74 14.98 M3.74 14.98 C0.76 15.87, -0.4 13.08, 0 11.23 M3.74 14.98 C1.88 15.75, -1.15 14.54, 0 11.23 M0 11.23 C0.16 9.84, 0.08 7.75, 0 3.74 M0 11.23 C-0.16 8.3, -0.04 5.38, 0 3.74 M0 3.74 C0.11 2.08, 1.11 -0.42, 3.74 0 M0 3.74 C0.88 0.71, 0.54 0.71, 3.74 0" stroke="#1e1e1e" stroke-width="2" fill="none"></path></g><g stroke-linecap="round" transform="translate(34.65296965349444 16.919422171883525) rotate(337.0766447889431 19.283203125 7.48828125)"><path d="M3.74 0 C13.29 1.2, 21.36 1.95, 34.82 0 C39.27 0.44, 37.21 2.05, 38.57 3.74 C39.07 6.26, 39 8.07, 38.57 11.23 C38.13 14.4, 37.67 13.01, 34.82 14.98 C27.18 14.87, 13.5 14.62, 3.74 14.98 C2.1 17.05, -1.68 12.86, 0 11.23 C0.73 9.07, -0.36 7.86, 0 3.74 C2.02 -1.27, 0.14 -0.39, 3.74 0" stroke="none" stroke-width="0" fill="#868e96"></path><path d="M3.74 0 C11.68 -0.36, 19.19 -0.07, 34.82 0 M3.74 0 C11.33 0.36, 17.77 0.06, 34.82 0 M34.82 0 C37.44 -0.8, 37.96 1.83, 38.57 3.74 M34.82 0 C36.19 0.09, 37.52 1.92, 38.57 3.74 M38.57 3.74 C38.95 5.91, 38.89 7.97, 38.57 11.23 M38.57 3.74 C38.52 5.53, 38.45 7.4, 38.57 11.23 M38.57 11.23 C37.84 13.36, 37.27 15.4, 34.82 14.98 M38.57 11.23 C39.58 13.23, 38.28 14.67, 34.82 14.98 M34.82 14.98 C22.31 14.4, 11.19 15.54, 3.74 14.98 M34.82 14.98 C24.25 15.19, 13.28 15.52, 3.74 14.98 M3.74 14.98 C0.85 14.33, 0.55 14.4, 0 11.23 M3.74 14.98 C0.1 15.79, -0.93 13.3, 0 11.23 M0 11.23 C0.05 8.09, 0.29 5.4, 0 3.74 M0 11.23 C0 8.54, 0.05 6.26, 0 3.74 M0 3.74 C-0.14 0.83, 2.01 -0.47, 3.74 0 M0 3.74 C-0.71 1.96, 0.3 -0.89, 3.74 0" stroke="#1e1e1e" stroke-width="2" fill="none"></path></g><g stroke-linecap="round" transform="translate(11.826649814480334 32.545724255215646) rotate(0 42.630859375 38.322265625)"><path d="M19.16 0 C35 2.25, 48.51 0.23, 66.1 0 C76.99 1.11, 84.67 5.74, 85.26 19.16 C87.28 32.93, 85.02 47.01, 85.26 57.48 C85.75 67.53, 79.34 74.63, 66.1 76.64 C45.27 75.51, 30.82 79.37, 19.16 76.64 C4.06 75.45, -2.96 68.21, 0 57.48 C-2 43.6, 2.31 27.03, 0 19.16 C-1.54 5.85, 9.54 1.99, 19.16 0" stroke="none" stroke-width="0" fill="#a18072"></path><path d="M19.16 0 C28.3 -0.13, 39.94 1.26, 66.1 0 M19.16 0 C30.53 -0.28, 44.01 -1.08, 66.1 0 M66.1 0 C77.66 1.17, 83.29 6.55, 85.26 19.16 M66.1 0 C76.77 1.35, 84.33 7.45, 85.26 19.16 M85.26 19.16 C87.25 30.42, 84.61 38.63, 85.26 57.48 M85.26 19.16 C84.48 29.81, 84.43 40.79, 85.26 57.48 M85.26 57.48 C85.16 71.11, 80.63 75.78, 66.1 76.64 M85.26 57.48 C87.18 69.64, 80.77 77.14, 66.1 76.64 M66.1 76.64 C51.61 77.44, 37.42 76.13, 19.16 76.64 M66.1 76.64 C48.42 77.64, 31.3 76.1, 19.16 76.64 M19.16 76.64 C7.48 77.98, -2 71.66, 0 57.48 M19.16 76.64 C4.53 75.8, 2.15 71.16, 0 57.48 M0 57.48 C1.59 43.75, 0.79 27.78, 0 19.16 M0 57.48 C0.17 48.12, -0.08 36.67, 0 19.16 M0 19.16 C1.53 5.46, 5.16 1.24, 19.16 0 M0 19.16 C-1.89 4.61, 5.33 -0.77, 19.16 0" stroke="#1e1e1e" stroke-width="2" fill="none"></path></g><g stroke-linecap="round" transform="translate(13.186373760761853 87.12363309975717) rotate(312.47556431009303 13.974609375 10.47265625)"><path d="M5.24 0 C9.75 -0.8, 19.85 2.57, 22.71 0 C23.87 -1.2, 24.99 -0.3, 27.95 5.24 C27.28 8.71, 29.54 10.78, 27.95 15.71 C26.41 18.66, 29.35 22.93, 22.71 20.95 C20.12 23.76, 12.97 20.52, 5.24 20.95 C1.07 22.16, -3.32 21.38, 0 15.71 C-1.8 12.3, -1.59 11.04, 0 5.24 C0.07 -0.76, 3.58 3.18, 5.24 0" stroke="none" stroke-width="0" fill="#eaddd7"></path><path d="M5.24 0 C10.96 1.46, 12.97 0.38, 22.71 0 M5.24 0 C9.66 -0.24, 14.64 -0.25, 22.71 0 M22.71 0 C26.1 0.85, 29.71 0.88, 27.95 5.24 M22.71 0 C28.12 -0.61, 29.84 2.24, 27.95 5.24 M27.95 5.24 C28.03 9.1, 28.33 11.7, 27.95 15.71 M27.95 5.24 C27.71 9.54, 27.76 12.57, 27.95 15.71 M27.95 15.71 C29.04 20.54, 24.21 22.35, 22.71 20.95 M27.95 15.71 C26.09 18.35, 28.35 21.85, 22.71 20.95 M22.71 20.95 C17.75 21.11, 10.66 19.43, 5.24 20.95 M22.71 20.95 C18.15 21.56, 13.29 20.47, 5.24 20.95 M5.24 20.95 C3.28 20.01, -1.23 20.44, 0 15.71 M5.24 20.95 C-0.14 19.16, -1.06 18.43, 0 15.71 M0 15.71 C0.67 13.5, 0.72 9.94, 0 5.24 M0 15.71 C-0.13 13.38, 0.25 10.73, 0 5.24 M0 5.24 C0.92 1.92, 1.41 0.52, 5.24 0 M0 5.24 C0.31 0.01, 2.04 -1.28, 5.24 0" stroke="#1e1e1e" stroke-width="2" fill="none"></path></g><g stroke-linecap="round" transform="translate(28.10504480902091 45.896403022249615) rotate(312.47556431009303 25.4296875 23.859375)"><path d="M14.94 1.82 C19.79 -0.25, 27.88 -0.18, 33.27 1.41 C38.67 3.01, 44.3 7.19, 47.33 11.41 C50.36 15.62, 52.27 21.71, 51.45 26.72 C50.63 31.73, 46.52 38, 42.42 41.47 C38.32 44.93, 32.09 47.14, 26.83 47.49 C21.56 47.84, 15.11 46.51, 10.83 43.58 C6.54 40.64, 2.46 34.99, 1.11 29.9 C-0.23 24.81, -0.26 17.88, 2.75 13.06 C5.77 8.23, 15.98 2.98, 19.2 0.93 C22.41 -1.13, 22.07 0.23, 22.04 0.74 M34.91 2.37 C40.05 4, 46.79 7.75, 49.26 12.01 C51.73 16.28, 51.28 22.67, 49.72 27.94 C48.16 33.22, 44.01 40.51, 39.92 43.66 C35.83 46.82, 30.59 47.28, 25.19 46.87 C19.78 46.45, 11.46 44.76, 7.49 41.18 C3.52 37.59, 2.04 30.45, 1.36 25.36 C0.68 20.28, 0.45 14.59, 3.43 10.68 C6.42 6.77, 14.13 3.59, 19.26 1.88 C24.38 0.18, 31.56 0.27, 34.19 0.45 C36.81 0.63, 34.77 2.5, 35.02 2.95" stroke="none" stroke-width="0" fill="#eaddd7"></path><path d="M28.53 -0.45 C33.67 -0.16, 40.29 3.24, 43.94 7.14 C47.6 11.03, 50.15 17.55, 50.48 22.93 C50.81 28.3, 49.28 35.21, 45.93 39.39 C42.57 43.57, 35.78 46.96, 30.33 48.02 C24.89 49.08, 17.98 48.28, 13.27 45.77 C8.56 43.27, 4.2 37.96, 2.09 32.99 C-0.03 28.01, -1.05 20.73, 0.61 15.93 C2.27 11.14, 6.81 6.75, 12.05 4.19 C17.29 1.64, 28.27 0.95, 32.06 0.6 C35.84 0.25, 34.9 1.76, 34.76 2.09 M37.18 3.32 C41.84 5.47, 45.14 10.61, 47.06 15 C48.99 19.39, 49.7 24.81, 48.73 29.66 C47.76 34.51, 45.37 41.07, 41.25 44.1 C37.13 47.13, 29.79 48.24, 24.01 47.86 C18.22 47.48, 10.47 45.41, 6.52 41.83 C2.57 38.26, 0.81 31.78, 0.3 26.39 C-0.2 21, 0.41 13.95, 3.49 9.51 C6.57 5.08, 13.28 0.76, 18.78 -0.23 C24.29 -1.22, 33.66 3.17, 36.52 3.57 C39.38 3.96, 35.95 2.09, 35.93 2.12" stroke="#1e1e1e" stroke-width="2" fill="none"></path></g></svg>