<svg version="1.1" xmlns="http://www.w3.org/2000/svg" viewBox="0 0 108.91314535019228 140.84223780150023" width="108.91314535019228" height="140.84223780150023">
  <!-- svg-source:excalidraw -->
  
  <defs>
    <style class="style-fonts">
      @font-face {
        font-family: "Virgil";
        src: url("https://excalidraw.com/Virgil.woff2");
      }
      @font-face {
        font-family: "Cascadia";
        src: url("https://excalidraw.com/Cascadia.woff2");
      }
      @font-face {
        font-family: "Assistant";
        src: url("https://excalidraw.com/Assistant-Regular.woff2");
      }
    </style>
    
  </defs>
  <g stroke-linecap="round" transform="translate(32.64044744318198 109.06643921733576) rotate(337.5387531331347 19.283203125 7.48828125)"><path d="M3.74 0 C16.33 2.44, 26.3 -0.84, 34.82 0 C39.36 -0.19, 39.42 1.67, 38.57 3.74 C38.16 6.08, 37.84 9.29, 38.57 11.23 C40.98 11.48, 37.84 12.91, 34.82 14.98 C27.26 15.16, 16.62 15.7, 3.74 14.98 C0.54 16.17, 1.82 14.31, 0 11.23 C0.28 8.21, -0.29 5.71, 0 3.74 C0.26 0.7, 1.38 -2.57, 3.74 0" stroke="none" stroke-width="0" fill="#868e96"></path><path d="M3.74 0 C15.31 0.85, 26.3 -0.44, 34.82 0 M3.74 0 C10.82 -0.27, 18.6 -0.22, 34.82 0 M34.82 0 C37.46 0.07, 38.96 1.69, 38.57 3.74 M34.82 0 C36.61 0.65, 38.29 2.01, 38.57 3.74 M38.57 3.74 C38.46 6.05, 38.37 8.23, 38.57 11.23 M38.57 3.74 C38.47 6.42, 38.62 9.29, 38.57 11.23 M38.57 11.23 C38.53 12.94, 37.14 14.91, 34.82 14.98 M38.57 11.23 C37.68 13.4, 38.27 15.77, 34.82 14.98 M34.82 14.98 C24.28 15.05, 11.61 15.23, 3.74 14.98 M34.82 14.98 C25.88 14.99, 17.83 15.36, 3.74 14.98 M3.74 14.98 C1.47 15, -0.68 13.17, 0 11.23 M3.74 14.98 C1.12 15.06, 0.45 14.53, 0 11.23 M0 11.23 C-0.08 8.21, 0.29 5.23, 0 3.74 M0 11.23 C0.19 8.49, 0.11 5.46, 0 3.74 M0 3.74 C0.96 1.02, 1.59 0.14, 3.74 0 M0 3.74 C0.98 0.82, 0.71 -0.71, 3.74 0" stroke="#1e1e1e" stroke-width="2" fill="none"></path></g><g stroke-linecap="round" transform="translate(32.82631983901592 16.919422171883525) rotate(337.0766447889431 19.283203125 7.48828125)"><path d="M3.74 0 C12.89 -1.39, 21.33 -0.54, 34.82 0 C38.18 0.42, 40.39 3.33, 38.57 3.74 C37.71 6.47, 39.42 8.35, 38.57 11.23 C39.09 11.67, 36.58 12.39, 34.82 14.98 C25.59 15.94, 18.27 16.22, 3.74 14.98 C3.07 15.56, 2.54 13.47, 0 11.23 C-0.32 9.82, 0.07 7.31, 0 3.74 C0.13 -1.32, 3.24 -0.31, 3.74 0" stroke="none" stroke-width="0" fill="#868e96"></path><path d="M3.74 0 C12.01 -0.58, 21.05 -0.43, 34.82 0 M3.74 0 C15.28 -0.08, 26.01 0.09, 34.82 0 M34.82 0 C37.71 0.44, 37.95 1.82, 38.57 3.74 M34.82 0 C37.05 0.76, 38.69 2.22, 38.57 3.74 M38.57 3.74 C38.32 6.55, 38.86 9.87, 38.57 11.23 M38.57 3.74 C38.58 6.14, 38.54 8.75, 38.57 11.23 M38.57 11.23 C38.39 13.66, 36.55 14.69, 34.82 14.98 M38.57 11.23 C39.52 14.52, 38 13.91, 34.82 14.98 M34.82 14.98 C22.23 15.1, 11.23 15.67, 3.74 14.98 M34.82 14.98 C26.17 15.39, 16.92 15, 3.74 14.98 M3.74 14.98 C0.57 14.42, -0.11 13.8, 0 11.23 M3.74 14.98 C1.7 15.78, 1.06 12.96, 0 11.23 M0 11.23 C0.28 9.43, 0.35 7.82, 0 3.74 M0 11.23 C0.07 9.12, 0.14 6.86, 0 3.74 M0 3.74 C0.35 1.39, 2.1 -0.37, 3.74 0 M0 3.74 C-0.54 0.54, 1.72 -0.04, 3.74 0" stroke="#1e1e1e" stroke-width="2" fill="none"></path></g><g stroke-linecap="round" transform="translate(10 32.545724255215646) rotate(0 42.630859375 38.322265625)"><path d="M19.16 0 C40.11 0.07, 56.6 0.93, 66.1 0 C81.4 2.88, 87.56 4.61, 85.26 19.16 C88.03 25.83, 85.41 35.87, 85.26 57.48 C84.24 66.68, 77.25 77.86, 66.1 76.64 C50.37 78.59, 39.13 77.74, 19.16 76.64 C9.91 76.29, -1.88 71.25, 0 57.48 C0.57 45.4, 0.39 31.29, 0 19.16 C2.76 5.95, 3.34 1.14, 19.16 0" stroke="none" stroke-width="0" fill="#a18072"></path><path d="M19.16 0 C35.82 -0.38, 56.34 -0.31, 66.1 0 M19.16 0 C31.7 0.2, 44.36 0.57, 66.1 0 M66.1 0 C77.65 1.14, 84.79 7.71, 85.26 19.16 M66.1 0 C79.13 1.94, 87.52 5.53, 85.26 19.16 M85.26 19.16 C86.68 31.25, 85.91 40.34, 85.26 57.48 M85.26 19.16 C85.3 26.08, 85.17 34.51, 85.26 57.48 M85.26 57.48 C83.72 69.68, 80.54 78.02, 66.1 76.64 M85.26 57.48 C86.62 68.12, 80.63 78.06, 66.1 76.64 M66.1 76.64 C51.83 78.1, 38.19 75.62, 19.16 76.64 M66.1 76.64 C51.96 77.05, 36.7 76.47, 19.16 76.64 M19.16 76.64 C6.16 76.79, 0.78 71.65, 0 57.48 M19.16 76.64 C8.52 75.11, -1.75 69.59, 0 57.48 M0 57.48 C1.52 46.57, -0.49 38.22, 0 19.16 M0 57.48 C0.74 42.18, 0.12 27.46, 0 19.16 M0 19.16 C1.7 5.64, 5.45 -1.23, 19.16 0 M0 19.16 C0.94 6.3, 5.24 1.76, 19.16 0" stroke="#1e1e1e" stroke-width="2" fill="none"></path></g><g stroke-linecap="round" transform="translate(67.77755283943043 31.768827916032933) rotate(312.47556431009303 13.974609375 10.47265625)"><path d="M5.24 0 C12.38 0.41, 16.02 0.25, 22.71 0 C22.65 2.76, 27.52 -1.3, 27.95 5.24 C28.26 9.25, 28.58 11.72, 27.95 15.71 C29.03 21.38, 25.63 23.33, 22.71 20.95 C18.32 21.86, 13.08 21.58, 5.24 20.95 C0.75 19.3, 0.14 18.09, 0 15.71 C-1.87 14.78, 1.28 10.54, 0 5.24 C-2.65 -0.76, 4.77 3.17, 5.24 0" stroke="none" stroke-width="0" fill="#eaddd7"></path><path d="M5.24 0 C10.29 -1.32, 15.08 1.48, 22.71 0 M5.24 0 C12.35 0.7, 18.08 -0.62, 22.71 0 M22.71 0 C26.47 -0.42, 29.35 1.54, 27.95 5.24 M22.71 0 C24.96 0.14, 29.57 3.6, 27.95 5.24 M27.95 5.24 C27.37 8.49, 28.03 12.39, 27.95 15.71 M27.95 5.24 C27.65 8.95, 27.93 13.35, 27.95 15.71 M27.95 15.71 C27.3 20.99, 25.91 20.73, 22.71 20.95 M27.95 15.71 C30.22 21.35, 27.54 21.64, 22.71 20.95 M22.71 20.95 C16.04 22.49, 8.22 20.19, 5.24 20.95 M22.71 20.95 C18.11 21.61, 15.12 21.4, 5.24 20.95 M5.24 20.95 C0.95 22.51, -0.15 19.86, 0 15.71 M5.24 20.95 C2.12 22.56, 1.84 20.67, 0 15.71 M0 15.71 C0.04 14.06, -0.86 10.67, 0 5.24 M0 15.71 C-0.21 13.58, 0.1 10.82, 0 5.24 M0 5.24 C0.7 1.2, 2.66 1.4, 5.24 0 M0 5.24 C0.51 3.99, 1.52 -1.2, 5.24 0" stroke="#1e1e1e" stroke-width="2" fill="none"></path></g><g stroke-linecap="round" transform="translate(29.94872554117137 46.22262049353685) rotate(312.47556431009303 25.4296875 23.859375)"><path d="M28.14 -0.41 C33.14 -0.59, 39.1 2.23, 42.86 6.06 C46.63 9.89, 50.31 17.31, 50.75 22.57 C51.18 27.84, 48.71 33.63, 45.48 37.64 C42.24 41.64, 36.63 45.35, 31.36 46.59 C26.08 47.83, 18.58 47.15, 13.82 45.09 C9.06 43.03, 5.03 38.69, 2.78 34.21 C0.53 29.72, -0.95 23.06, 0.33 18.16 C1.61 13.27, 5.1 7.72, 10.46 4.85 C15.81 1.98, 28.09 1.38, 32.44 0.97 C36.79 0.56, 36.87 2.01, 36.56 2.41 M24.99 -0.31 C30.24 -1.09, 36.97 0.53, 41.39 3.75 C45.81 6.97, 50.67 13.65, 51.51 18.99 C52.36 24.33, 49.32 31.04, 46.47 35.78 C43.62 40.52, 39.25 45.57, 34.43 47.42 C29.61 49.27, 22.6 48.81, 17.56 46.89 C12.53 44.97, 7.04 40.18, 4.23 35.9 C1.43 31.61, 0.05 26, 0.74 21.17 C1.44 16.34, 4.47 10.53, 8.4 6.94 C12.33 3.34, 21.74 0.66, 24.31 -0.4 C26.89 -1.45, 23.64 0.16, 23.82 0.6" stroke="none" stroke-width="0" fill="#eaddd7"></path><path d="M34.77 2.79 C39.62 4.37, 46.46 8.8, 48.87 13.29 C51.28 17.77, 50.66 24.61, 49.22 29.7 C47.79 34.78, 44.5 40.91, 40.23 43.82 C35.96 46.72, 29.02 47.46, 23.63 47.12 C18.24 46.78, 11.66 45.19, 7.88 41.78 C4.1 38.36, 1.54 31.96, 0.95 26.64 C0.36 21.33, 1.53 14.2, 4.33 9.9 C7.14 5.6, 12.24 1.94, 17.79 0.83 C23.34 -0.27, 33.96 2.55, 37.61 3.27 C41.27 4, 40.05 5.03, 39.72 5.19 M21.24 1.6 C26.34 0.38, 33.58 0.69, 38.55 3.39 C43.52 6.08, 49.15 12.79, 51.05 17.75 C52.95 22.7, 51.95 28.65, 49.94 33.11 C47.92 37.57, 43.8 42.13, 38.95 44.52 C34.1 46.91, 26.18 48.51, 20.82 47.44 C15.46 46.37, 10.35 42.31, 6.77 38.11 C3.18 33.91, -0.74 27.28, -0.69 22.26 C-0.65 17.23, 3.42 11.43, 7.04 7.95 C10.65 4.48, 18.31 2.48, 20.98 1.4 C23.66 0.33, 23.01 1.12, 23.1 1.52" stroke="#1e1e1e" stroke-width="2" fill="none"></path></g></svg>