<svg version="1.1" xmlns="http://www.w3.org/2000/svg" viewBox="0 0 105.26171875000045 140.84223780150023" width="105.26171875000045" height="140.84223780150023">
  <!-- svg-source:excalidraw -->
  
  <defs>
    <style class="style-fonts">
      @font-face {
        font-family: "Virgil";
        src: url("https://excalidraw.com/Virgil.woff2");
      }
      @font-face {
        font-family: "Cascadia";
        src: url("https://excalidraw.com/Cascadia.woff2");
      }
      @font-face {
        font-family: "Assistant";
        src: url("https://excalidraw.com/Assistant-Regular.woff2");
      }
    </style>
    
  </defs>
  <g stroke-linecap="round" transform="translate(32.64044744318153 109.06643921733576) rotate(337.5387531331347 19.283203125 7.48828125)"><path d="M3.74 0 C16.37 0.14, 23.74 0.51, 34.82 0 C36.89 -0.47, 39.9 2.63, 38.57 3.74 C38.45 6.55, 38.74 8.11, 38.57 11.23 C38.9 12.28, 39.62 17.05, 34.82 14.98 C26.91 16.94, 15.61 14, 3.74 14.98 C-0.89 13.5, 1.35 15.53, 0 11.23 C0.8 8.45, -0.37 7.41, 0 3.74 C2.28 2.68, -0.71 -2.47, 3.74 0" stroke="none" stroke-width="0" fill="#868e96"></path><path d="M3.74 0 C10.98 0.55, 19.18 0.68, 34.82 0 M3.74 0 C14.99 -0.4, 25.81 0.29, 34.82 0 M34.82 0 C36.33 0.08, 37.65 1.84, 38.57 3.74 M34.82 0 C36.85 0.53, 37.95 2.37, 38.57 3.74 M38.57 3.74 C38.4 6.55, 38.55 9.04, 38.57 11.23 M38.57 3.74 C38.41 5.64, 38.53 7.74, 38.57 11.23 M38.57 11.23 C39.44 13.3, 38.15 14.71, 34.82 14.98 M38.57 11.23 C39.51 13.97, 37.49 14.26, 34.82 14.98 M34.82 14.98 C27.78 14.94, 20.56 15.21, 3.74 14.98 M34.82 14.98 C24.62 14.79, 15.08 15.45, 3.74 14.98 M3.74 14.98 C0.25 15.68, -0.81 13.36, 0 11.23 M3.74 14.98 C2.32 15.43, 0.76 13.92, 0 11.23 M0 11.23 C0.13 9.07, -0.16 7.46, 0 3.74 M0 11.23 C-0.03 9.4, 0.14 7.65, 0 3.74 M0 3.74 C-0.61 1.87, 0.43 -0.77, 3.74 0 M0 3.74 C-0.53 0.86, 1.06 0.73, 3.74 0" stroke="#1e1e1e" stroke-width="2" fill="none"></path></g><g stroke-linecap="round" transform="translate(32.82631983901365 16.919422171883525) rotate(337.0766447889431 19.283203125 7.48828125)"><path d="M3.74 0 C13.97 0.73, 26.47 -0.54, 34.82 0 C38.65 1.38, 39.62 2.44, 38.57 3.74 C38.68 5.32, 38.67 7.82, 38.57 11.23 C40.87 15.81, 36.85 13.1, 34.82 14.98 C24.66 14.43, 15.73 13.82, 3.74 14.98 C2.59 16.78, -1.42 12.63, 0 11.23 C-0.49 8.92, 0.78 7.44, 0 3.74 C-1.96 -1.23, 1.07 1.1, 3.74 0" stroke="none" stroke-width="0" fill="#868e96"></path><path d="M3.74 0 C12.17 0.57, 21.92 -1.08, 34.82 0 M3.74 0 C12.77 0.42, 21.92 0.17, 34.82 0 M34.82 0 C36.41 0.59, 38.16 1.71, 38.57 3.74 M34.82 0 C36.71 1.12, 39.26 2.18, 38.57 3.74 M38.57 3.74 C38.5 6.56, 38.4 9.33, 38.57 11.23 M38.57 3.74 C38.53 5.81, 38.7 7.63, 38.57 11.23 M38.57 11.23 C39.4 13.46, 38.14 15.19, 34.82 14.98 M38.57 11.23 C38.73 13.01, 36.63 15.13, 34.82 14.98 M34.82 14.98 C24.48 15.11, 13.04 14.47, 3.74 14.98 M34.82 14.98 C23.01 15.21, 10.15 15.23, 3.74 14.98 M3.74 14.98 C0.44 14.61, 0.93 14.12, 0 11.23 M3.74 14.98 C2.01 15.17, -0.6 14.68, 0 11.23 M0 11.23 C-0.14 8.81, -0.26 6.56, 0 3.74 M0 11.23 C0.15 8.27, -0.11 5.61, 0 3.74 M0 3.74 C-0.82 0.47, 0.79 -0.34, 3.74 0 M0 3.74 C-0.19 1.98, 1.75 0.8, 3.74 0" stroke="#1e1e1e" stroke-width="2" fill="none"></path></g><g stroke-linecap="round" transform="translate(10 32.545724255215646) rotate(0 42.63085937500023 38.322265625)"><path d="M19.16 0 C33.43 -0.91, 50.74 1.65, 66.1 0 C80.34 1.65, 85.57 5.78, 85.26 19.16 C85.82 29.64, 88.54 47.01, 85.26 57.48 C84.62 67.66, 77.89 77.83, 66.1 76.64 C45.31 74.32, 32.3 78.85, 19.16 76.64 C4.42 75.12, -0.4 73.05, 0 57.48 C3.44 51.69, -2.42 38.49, 0 19.16 C-0.25 7.9, 9.63 -2.17, 19.16 0" stroke="none" stroke-width="0" fill="#a18072"></path><path d="M19.16 0 C36.89 -2.31, 52.22 -0.06, 66.1 0 M19.16 0 C28.5 -0.19, 38.89 0.31, 66.1 0 M66.1 0 C78.06 0.92, 84.2 8.34, 85.26 19.16 M66.1 0 C80.26 1.86, 87.33 5.21, 85.26 19.16 M85.26 19.16 C84.45 30.36, 84.52 42.82, 85.26 57.48 M85.26 19.16 C86.12 28.82, 86.07 39.08, 85.26 57.48 M85.26 57.48 C86.91 70.69, 79.17 75.4, 66.1 76.64 M85.26 57.48 C83.89 70.57, 80.12 77.63, 66.1 76.64 M66.1 76.64 C53.02 75.75, 40.83 75.92, 19.16 76.64 M66.1 76.64 C54.04 77.66, 43.17 76.59, 19.16 76.64 M19.16 76.64 C8.25 77.43, 1.32 70.59, 0 57.48 M19.16 76.64 C5.18 78.54, 0.34 71.24, 0 57.48 M0 57.48 C-1.2 49.32, 1.8 40.46, 0 19.16 M0 57.48 C-0.91 48.2, -1.12 36.91, 0 19.16 M0 19.16 C-0.92 5.71, 6.06 1.27, 19.16 0 M0 19.16 C1 8, 8.06 1.73, 19.16 0" stroke="#1e1e1e" stroke-width="2" fill="none"></path></g><g stroke-linecap="round" transform="translate(38.66281968831163 96.89204723666717) rotate(269.315648468081 13.974609375 10.47265625)"><path d="M5.24 0 C8.96 2.74, 18.71 -0.6, 22.71 0 C23.61 -0.98, 29.13 4.62, 27.95 5.24 C26.82 8.68, 29.19 9.13, 27.95 15.71 C26.42 18.8, 29 17.46, 22.71 20.95 C19.95 18.85, 10.73 21.01, 5.24 20.95 C3.26 24.19, -2.17 18.74, 0 15.71 C1.08 12.12, -0.39 8.94, 0 5.24 C-3.5 0.55, -1.36 1.72, 5.24 0" stroke="none" stroke-width="0" fill="#eaddd7"></path><path d="M5.24 0 C9.69 -0.86, 14.24 1.13, 22.71 0 M5.24 0 C12.13 -0.02, 18.31 -0.24, 22.71 0 M22.71 0 C24.85 -0.7, 26.51 1.01, 27.95 5.24 M22.71 0 C26.08 0.98, 29.97 0.75, 27.95 5.24 M27.95 5.24 C28.15 9.4, 27.27 12.64, 27.95 15.71 M27.95 5.24 C27.94 8.87, 28.09 11.92, 27.95 15.71 M27.95 15.71 C26.98 20.98, 25.41 19.66, 22.71 20.95 M27.95 15.71 C29.2 20.74, 23.91 22.56, 22.71 20.95 M22.71 20.95 C19.57 22.27, 15.34 20.19, 5.24 20.95 M22.71 20.95 C15.32 20.72, 9.19 20.44, 5.24 20.95 M5.24 20.95 C1.96 22.61, -0.28 18.37, 0 15.71 M5.24 20.95 C3.51 19.87, -1.41 20.62, 0 15.71 M0 15.71 C-0.27 13.26, 0.75 11.6, 0 5.24 M0 15.71 C0.01 11.56, 0.08 7.87, 0 5.24 M0 5.24 C-0.36 2.77, 2.81 0.81, 5.24 0 M0 5.24 C1.05 1.94, 1.36 0.59, 5.24 0" stroke="#1e1e1e" stroke-width="2" fill="none"></path></g><g stroke-linecap="round" transform="translate(27.402064732139024 45.15652205235256) rotate(269.315648468081 25.4296875 23.859375)"><path d="M35.56 0.91 C40.43 2.47, 44.7 7.56, 47.1 12.19 C49.5 16.81, 50.87 23.49, 49.97 28.64 C49.08 33.79, 45.85 39.79, 41.73 43.09 C37.61 46.38, 30.68 48.65, 25.26 48.43 C19.83 48.21, 13.43 45.26, 9.18 41.77 C4.92 38.28, 0.64 32.62, -0.27 27.5 C-1.19 22.38, 0.63 15.35, 3.69 11.05 C6.75 6.75, 12.44 3.03, 18.07 1.7 C23.7 0.38, 34 2.72, 37.47 3.1 C40.94 3.48, 39.11 3.66, 38.89 3.96 M17.37 2.88 C21.98 0.77, 28.28 -1.36, 33.16 0.13 C38.04 1.62, 43.56 7.46, 46.66 11.83 C49.77 16.2, 52.59 21.58, 51.79 26.35 C50.98 31.12, 46.25 36.76, 41.84 40.45 C37.42 44.14, 30.51 48.27, 25.32 48.49 C20.13 48.7, 14.93 45.08, 10.69 41.75 C6.46 38.43, 0.97 33.63, -0.11 28.52 C-1.19 23.41, 1.63 15.59, 4.21 11.08 C6.8 6.57, 13.18 2.81, 15.4 1.46 C17.62 0.11, 17.47 2.79, 17.54 2.96" stroke="none" stroke-width="0" fill="#eaddd7"></path><path d="M32.48 1.36 C37.36 2.31, 43.74 6.55, 46.7 10.69 C49.67 14.84, 51 21.22, 50.27 26.22 C49.54 31.21, 46.33 37.1, 42.33 40.67 C38.32 44.24, 31.57 47.13, 26.26 47.64 C20.95 48.15, 14.79 46.67, 10.44 43.72 C6.1 40.77, 1.5 34.93, 0.19 29.94 C-1.12 24.94, -0.04 18.4, 2.57 13.74 C5.17 9.08, 10.13 3.92, 15.83 1.99 C21.53 0.07, 32.53 1.5, 36.75 2.2 C40.97 2.89, 41.18 5.73, 41.16 6.16 M33 2.64 C37.86 3.72, 43.58 6.29, 46.64 10.62 C49.7 14.94, 52.37 23.22, 51.36 28.61 C50.36 33.99, 45.06 39.84, 40.6 42.93 C36.15 46.02, 29.61 47.15, 24.65 47.16 C19.68 47.17, 14.68 46.07, 10.81 42.98 C6.95 39.9, 2.86 33.56, 1.46 28.65 C0.06 23.74, -0.11 17.92, 2.41 13.52 C4.92 9.11, 11.54 4.34, 16.55 2.22 C21.57 0.1, 29.71 1.04, 32.5 0.8 C35.29 0.55, 33.2 0.09, 33.3 0.76" stroke="#1e1e1e" stroke-width="2" fill="none"></path></g></svg>