<svg version="1.1" xmlns="http://www.w3.org/2000/svg" viewBox="0 0 109.0303328501941 140.84223780150023" width="109.0303328501941" height="140.84223780150023">
  <!-- svg-source:excalidraw -->
  
  <defs>
    <style class="style-fonts">
      @font-face {
        font-family: "Virgil";
        src: url("https://excalidraw.com/Virgil.woff2");
      }
      @font-face {
        font-family: "Cascadia";
        src: url("https://excalidraw.com/Cascadia.woff2");
      }
      @font-face {
        font-family: "Assistant";
        src: url("https://excalidraw.com/Assistant-Regular.woff2");
      }
    </style>
    
  </defs>
  <g stroke-linecap="round" transform="translate(36.05749904337608 109.06643921733576) rotate(337.5387531331347 19.283203125 7.48828125)"><path d="M3.74 0 C14.39 -1.96, 27.35 2.61, 34.82 0 C35.07 0.52, 36.5 0.51, 38.57 3.74 C38.66 4.76, 38.86 6.48, 38.57 11.23 C39.76 15.55, 37.9 17.52, 34.82 14.98 C25.69 14.3, 17.97 15.35, 3.74 14.98 C0.7 15.1, -2.57 15.72, 0 11.23 C-0.08 9.94, 0.26 7.2, 0 3.74 C0.91 0.61, 2.03 1.58, 3.74 0" stroke="none" stroke-width="0" fill="#868e96"></path><path d="M3.74 0 C15.87 0.37, 28.28 -0.64, 34.82 0 M3.74 0 C14.89 0.32, 26.42 -0.29, 34.82 0 M34.82 0 C37.25 -0.61, 38.1 2.07, 38.57 3.74 M34.82 0 C37.82 0.51, 37.85 0.11, 38.57 3.74 M38.57 3.74 C38.23 6.08, 38.5 8.26, 38.57 11.23 M38.57 3.74 C38.71 5.6, 38.74 7.92, 38.57 11.23 M38.57 11.23 C38.52 12.83, 37.45 14.77, 34.82 14.98 M38.57 11.23 C39.37 13.61, 36.7 15.04, 34.82 14.98 M34.82 14.98 C23.34 14.33, 11.25 14.9, 3.74 14.98 M34.82 14.98 C25.74 14.75, 15.34 14.94, 3.74 14.98 M3.74 14.98 C1.02 15.69, -0.33 14.62, 0 11.23 M3.74 14.98 C1.08 14.85, 1.14 14.81, 0 11.23 M0 11.23 C-0.09 8.68, 0.04 6.19, 0 3.74 M0 11.23 C0.09 9.26, -0.08 7.44, 0 3.74 M0 3.74 C0.86 1.78, 0.85 0.78, 3.74 0 M0 3.74 C-0.09 1.63, 1.44 0.81, 3.74 0" stroke="#1e1e1e" stroke-width="2" fill="none"></path></g><g stroke-linecap="round" transform="translate(36.243371439208204 16.919422171883525) rotate(337.0766447889431 19.283203125 7.48828125)"><path d="M3.74 0 C11.52 2.75, 17.07 0.86, 34.82 0 C35.26 -0.73, 35.98 0.08, 38.57 3.74 C38.92 5.98, 39.03 9.43, 38.57 11.23 C39.15 16.27, 37.06 13.62, 34.82 14.98 C25.82 15.11, 13.91 14.98, 3.74 14.98 C-1.32 16.97, -0.31 11.53, 0 11.23 C0.19 9.03, 0.36 6.03, 0 3.74 C0.78 2.82, 0.83 1.72, 3.74 0" stroke="none" stroke-width="0" fill="#868e96"></path><path d="M3.74 0 C13.94 -0.68, 23.82 -0.3, 34.82 0 M3.74 0 C15.62 -0.32, 26.48 -0.44, 34.82 0 M34.82 0 C36.85 0.82, 39 1.69, 38.57 3.74 M34.82 0 C36.6 -1.14, 38.81 0.13, 38.57 3.74 M38.57 3.74 C38.51 5.67, 38.43 8.49, 38.57 11.23 M38.57 3.74 C38.73 6.62, 38.58 9.1, 38.57 11.23 M38.57 11.23 C38.7 13.52, 38.02 14.87, 34.82 14.98 M38.57 11.23 C37.94 13.8, 38.13 15.9, 34.82 14.98 M34.82 14.98 C24.26 14.76, 14.89 15.26, 3.74 14.98 M34.82 14.98 C22.96 14.73, 11.74 15.23, 3.74 14.98 M3.74 14.98 C0.92 15.87, -0.15 13.62, 0 11.23 M3.74 14.98 C2.39 16.05, 0.67 14.07, 0 11.23 M0 11.23 C0.06 8.59, -0.13 5.12, 0 3.74 M0 11.23 C-0.11 9.59, 0.15 7.76, 0 3.74 M0 3.74 C-0.4 2.03, 1.17 0.33, 3.74 0 M0 3.74 C0.19 2.06, 2.17 0.74, 3.74 0" stroke="#1e1e1e" stroke-width="2" fill="none"></path></g><g stroke-linecap="round" transform="translate(13.7686141001941 32.194161755215646) rotate(0 42.630859375 38.322265625)"><path d="M19.16 0 C26.23 -0.06, 36.67 -1.8, 66.1 0 C75.3 -1.62, 86.48 6.9, 85.26 19.16 C87.15 31.26, 86.31 41.82, 85.26 57.48 C84.9 68.38, 79.87 76.48, 66.1 76.64 C52.68 76.91, 37.24 79.48, 19.16 76.64 C5.95 73.6, 1.14 69.66, 0 57.48 C1.14 41.68, 0.96 29.84, 0 19.16 C-0.58 8.77, 5.13 -0.97, 19.16 0" stroke="none" stroke-width="0" fill="#a18072"></path><path d="M19.16 0 C36.23 -0.19, 52.35 0.51, 66.1 0 M19.16 0 C37.14 -0.44, 54.79 1, 66.1 0 M66.1 0 C79.74 0.89, 84.01 4.41, 85.26 19.16 M66.1 0 C79.36 -2.23, 85.17 4.57, 85.26 19.16 M85.26 19.16 C84.66 31.66, 86.61 42, 85.26 57.48 M85.26 19.16 C85.5 26.19, 85.69 34.81, 85.26 57.48 M85.26 57.48 C86.66 70.05, 77.79 76.76, 66.1 76.64 M85.26 57.48 C86.88 72.11, 79.38 76.71, 66.1 76.64 M66.1 76.64 C55.35 77.38, 45.71 78.44, 19.16 76.64 M66.1 76.64 C54.92 77.22, 43.87 77.4, 19.16 76.64 M19.16 76.64 C6.09 76.43, 1.98 72.13, 0 57.48 M19.16 76.64 C7.72 77.34, 2.21 69.74, 0 57.48 M0 57.48 C-0.8 43.72, -1.28 32.65, 0 19.16 M0 57.48 C1.05 46.65, -0.21 35.55, 0 19.16 M0 19.16 C-0.15 7.05, 6.71 1.4, 19.16 0 M0 19.16 C1.84 7.86, 5.25 -1.03, 19.16 0" stroke="#1e1e1e" stroke-width="2" fill="none"></path></g><g stroke-linecap="round" transform="translate(13.186373760761853 30.8145868446054) rotate(47.524435689906944 13.974609375 10.47265625)"><path d="M5.24 0 C13.3 0.56, 20.02 -0.46, 22.71 0 C24.33 0.99, 27.78 0.65, 27.95 5.24 C28.06 6.99, 29.41 12.24, 27.95 15.71 C24.9 20.34, 25.61 24.16, 22.71 20.95 C16.38 22, 13.49 20.55, 5.24 20.95 C4.13 19.68, -0.97 16.73, 0 15.71 C0.44 11.96, -0.93 9.34, 0 5.24 C-1.11 0.28, 2.82 3.43, 5.24 0" stroke="none" stroke-width="0" fill="#eaddd7"></path><path d="M5.24 0 C10.43 -1.17, 12.35 0.29, 22.71 0 M5.24 0 C8.63 0.08, 11.66 -0.11, 22.71 0 M22.71 0 C27.87 1.37, 29.13 -0.12, 27.95 5.24 M22.71 0 C27.95 1.41, 27.84 -0.32, 27.95 5.24 M27.95 5.24 C27.82 7.95, 27.99 12.54, 27.95 15.71 M27.95 5.24 C27.62 8.93, 27.91 13.25, 27.95 15.71 M27.95 15.71 C28.73 20.59, 28.05 19.61, 22.71 20.95 M27.95 15.71 C26.2 18.53, 25.68 22.59, 22.71 20.95 M22.71 20.95 C17.85 22.65, 15 21.93, 5.24 20.95 M22.71 20.95 C17.25 21.03, 11.92 20.58, 5.24 20.95 M5.24 20.95 C0.81 19.72, 0.82 19.13, 0 15.71 M5.24 20.95 C0.6 22.71, 1.98 20.42, 0 15.71 M0 15.71 C0.26 13.16, 0.65 11.1, 0 5.24 M0 15.71 C-0.38 11.9, 0.54 7.63, 0 5.24 M0 5.24 C0.4 0.16, 1.18 -1.99, 5.24 0 M0 5.24 C-1.04 2.52, 2.07 -1.16, 5.24 0" stroke="#1e1e1e" stroke-width="2" fill="none"></path></g><g stroke-linecap="round" transform="translate(28.10504480902091 45.26837942211296) rotate(47.524435689906944 25.4296875 23.859375)"><path d="M19.68 0.34 C24.62 -1.31, 32.37 -0.02, 37.24 2.29 C42.12 4.6, 46.71 9.4, 48.94 14.21 C51.17 19.01, 52.04 26.31, 50.61 31.12 C49.19 35.93, 45.09 40.47, 40.4 43.08 C35.7 45.69, 27.98 47.04, 22.45 46.77 C16.93 46.5, 11.1 44.94, 7.22 41.45 C3.35 37.96, -0.26 31.15, -0.79 25.85 C-1.33 20.55, 0.18 14.02, 3.99 9.65 C7.8 5.29, 18.18 1.15, 22.07 -0.35 C25.97 -1.85, 27.23 0.14, 27.35 0.67 M22.33 1.69 C27.27 0.42, 34.22 0.42, 38.84 2.89 C43.46 5.36, 48.45 11.4, 50.06 16.51 C51.67 21.62, 50.62 28.87, 48.51 33.56 C46.41 38.25, 42.16 42.63, 37.43 44.65 C32.69 46.67, 25.28 46.76, 20.12 45.7 C14.96 44.64, 10.04 42.01, 6.48 38.29 C2.92 34.58, -1.23 28.26, -1.25 23.41 C-1.27 18.55, 2.43 12.95, 6.35 9.16 C10.27 5.37, 19.56 2.12, 22.27 0.65 C24.97 -0.83, 22.5 -0.15, 22.59 0.32" stroke="none" stroke-width="0" fill="#eaddd7"></path><path d="M27.32 -0.04 C32.65 0.04, 39.8 2.68, 43.66 6.52 C47.53 10.37, 50.01 17.72, 50.51 23.04 C51.01 28.37, 49.99 34.36, 46.68 38.49 C43.37 42.61, 35.93 46.65, 30.63 47.78 C25.33 48.9, 19.77 47.6, 14.88 45.25 C9.99 42.9, 3.64 38.23, 1.29 33.68 C-1.06 29.14, -0.86 22.99, 0.78 17.97 C2.42 12.94, 6.41 6.37, 11.12 3.53 C15.84 0.69, 25.82 1.35, 29.07 0.94 C32.32 0.53, 30.68 0.9, 30.62 1.06 M19.04 1.96 C24.19 0.15, 32.51 -0.76, 37.2 1.08 C41.88 2.92, 45.07 8.05, 47.16 12.99 C49.25 17.94, 50.97 25.48, 49.75 30.74 C48.54 35.99, 44.25 41.73, 39.86 44.53 C35.47 47.32, 28.5 47.85, 23.4 47.5 C18.29 47.14, 12.95 45.86, 9.22 42.4 C5.49 38.95, 1.57 32.14, 1 26.77 C0.44 21.39, 2.81 14.43, 5.81 10.15 C8.81 5.88, 16.63 2.68, 18.98 1.13 C21.32 -0.43, 19.96 0.62, 19.87 0.81" stroke="#1e1e1e" stroke-width="2" fill="none"></path></g></svg>