<svg version="1.1" xmlns="http://www.w3.org/2000/svg" viewBox="0 0 115.33858816964494 140.84223780150023" width="115.33858816964494" height="140.84223780150023">
  <!-- svg-source:excalidraw -->
  
  <defs>
    <style class="style-fonts">
      @font-face {
        font-family: "Virgil";
        src: url("https://excalidraw.com/Virgil.woff2");
      }
      @font-face {
        font-family: "Cascadia";
        src: url("https://excalidraw.com/Cascadia.woff2");
      }
      @font-face {
        font-family: "Assistant";
        src: url("https://excalidraw.com/Assistant-Regular.woff2");
      }
    </style>
    
  </defs>
  <g stroke-linecap="round" transform="translate(42.36575436282692 109.06643921733576) rotate(337.5387531331347 19.283203125 7.48828125)"><path d="M3.74 0 C13.89 -0.82, 25.58 -1.25, 34.82 0 C38.2 0.37, 37.26 2.16, 38.57 3.74 C38.83 6.74, 38.51 7.32, 38.57 11.23 C39.28 13.61, 36.53 16.15, 34.82 14.98 C22.62 16.99, 15.25 12.8, 3.74 14.98 C2.07 14.55, 2.32 14.21, 0 11.23 C0.26 9.36, -0.19 6.96, 0 3.74 C-0.91 0.55, -0.53 0.2, 3.74 0" stroke="none" stroke-width="0" fill="#868e96"></path><path d="M3.74 0 C11.82 0.15, 19.42 1.02, 34.82 0 M3.74 0 C11.68 0.51, 20.3 0.32, 34.82 0 M34.82 0 C36.69 -0.99, 38.78 0.28, 38.57 3.74 M34.82 0 C37.27 -0.91, 38.37 1.17, 38.57 3.74 M38.57 3.74 C38.81 5.63, 38.21 7.36, 38.57 11.23 M38.57 3.74 C38.59 6.41, 38.7 9.14, 38.57 11.23 M38.57 11.23 C38.02 13.79, 38.02 15.78, 34.82 14.98 M38.57 11.23 C38.82 13.76, 36.54 14.34, 34.82 14.98 M34.82 14.98 C26.54 15.96, 16.2 14.28, 3.74 14.98 M34.82 14.98 C26.24 15.54, 17.92 15.03, 3.74 14.98 M3.74 14.98 C2.24 15.91, 0.58 14.03, 0 11.23 M3.74 14.98 C2.35 14.72, 0.4 13.89, 0 11.23 M0 11.23 C-0.22 8.5, 0 5.28, 0 3.74 M0 11.23 C-0.11 8.56, -0.05 5.65, 0 3.74 M0 3.74 C0.16 1.95, 2.05 0.64, 3.74 0 M0 3.74 C-0.57 0.73, 0.29 0, 3.74 0" stroke="#1e1e1e" stroke-width="2" fill="none"></path></g><g stroke-linecap="round" transform="translate(42.55162675865904 16.919422171883525) rotate(337.0766447889431 19.283203125 7.48828125)"><path d="M3.74 0 C11.11 -1.06, 24.52 0.48, 34.82 0 C36.01 0.91, 37.86 2.44, 38.57 3.74 C38.49 6.01, 38.86 9.24, 38.57 11.23 C37.78 14.9, 37.58 14.43, 34.82 14.98 C25.03 13.08, 16.69 14.86, 3.74 14.98 C3.57 15.45, 0.74 14.64, 0 11.23 C-0.18 9.81, -0.37 6.85, 0 3.74 C-1.78 1.45, 2.18 -0.31, 3.74 0" stroke="none" stroke-width="0" fill="#868e96"></path><path d="M3.74 0 C13.18 0.96, 20.55 -0.09, 34.82 0 M3.74 0 C11.38 0.09, 18.27 -0.62, 34.82 0 M34.82 0 C37.53 -0.97, 38.53 0.46, 38.57 3.74 M34.82 0 C37.12 -0.08, 37.68 0.92, 38.57 3.74 M38.57 3.74 C38.24 6.9, 38.82 9.46, 38.57 11.23 M38.57 3.74 C38.7 5.3, 38.47 6.9, 38.57 11.23 M38.57 11.23 C39.27 14.53, 37.54 15, 34.82 14.98 M38.57 11.23 C37.79 13.09, 37.19 15.06, 34.82 14.98 M34.82 14.98 C23.62 14.36, 13.45 14.89, 3.74 14.98 M34.82 14.98 C23.2 15.06, 12.22 15.58, 3.74 14.98 M3.74 14.98 C1.83 15.28, 0.96 13.51, 0 11.23 M3.74 14.98 C1.65 15.14, 0.98 13.3, 0 11.23 M0 11.23 C0.01 9.15, 0.31 7.76, 0 3.74 M0 11.23 C0 8.65, 0.05 6.08, 0 3.74 M0 3.74 C0.8 1.89, 0.75 -0.45, 3.74 0 M0 3.74 C-0.96 1.24, 2.32 -1, 3.74 0" stroke="#1e1e1e" stroke-width="2" fill="none"></path></g><g stroke-linecap="round" transform="translate(20.076869419644936 32.194161755215646) rotate(0 42.630859375 38.322265625)"><path d="M19.16 0 C33.14 0.89, 42.86 1.64, 66.1 0 C77.9 1.65, 87.79 7.19, 85.26 19.16 C86.19 34.24, 84.1 51.28, 85.26 57.48 C85.62 69.49, 79.05 73.09, 66.1 76.64 C49.56 75.34, 33.96 76.59, 19.16 76.64 C7.41 77.91, -0.88 71.34, 0 57.48 C-1.15 42.7, -2.36 30.12, 0 19.16 C1.29 5.96, 7.37 -1, 19.16 0" stroke="none" stroke-width="0" fill="#a18072"></path><path d="M19.16 0 C33.02 -0.61, 47.14 -1.4, 66.1 0 M19.16 0 C36.49 -1.2, 55.28 -1.18, 66.1 0 M66.1 0 C78.8 -1.58, 84.91 6.25, 85.26 19.16 M66.1 0 C77.1 -0.66, 87.17 7.97, 85.26 19.16 M85.26 19.16 C86.13 32.82, 83.11 46.94, 85.26 57.48 M85.26 19.16 C84.99 29.92, 86.23 41.36, 85.26 57.48 M85.26 57.48 C85.7 70.31, 77.52 75.53, 66.1 76.64 M85.26 57.48 C85 70.42, 79.78 78.24, 66.1 76.64 M66.1 76.64 C47.09 75.83, 30.68 75.64, 19.16 76.64 M66.1 76.64 C48.81 77.53, 30.11 76.89, 19.16 76.64 M19.16 76.64 C8.31 76.2, 0.69 70.54, 0 57.48 M19.16 76.64 C8.35 75.79, -1.08 68.85, 0 57.48 M0 57.48 C1.55 46.14, 1.07 30.56, 0 19.16 M0 57.48 C0.19 43.69, 0.83 29.12, 0 19.16 M0 19.16 C-0.99 5.49, 4.73 -0.01, 19.16 0 M0 19.16 C2.14 4.39, 6.85 -1.82, 19.16 0" stroke="#1e1e1e" stroke-width="2" fill="none"></path></g><g stroke-linecap="round" transform="translate(10 58.642101043607) rotate(0 13.974609375 10.47265625)"><path d="M5.24 0 C8.11 1.05, 13.29 1.39, 22.71 0 C28.73 0.8, 31.47 1.39, 27.95 5.24 C27.43 8.68, 28.19 10.03, 27.95 15.71 C28.13 15.65, 28.96 20.51, 22.71 20.95 C21.76 21.47, 16.08 22, 5.24 20.95 C0.86 22.03, 2.18 18.62, 0 15.71 C-1.23 12.02, 0.74 7.81, 0 5.24 C0.98 0.75, 0.1 0.14, 5.24 0" stroke="none" stroke-width="0" fill="#eaddd7"></path><path d="M5.24 0 C11.12 -0.81, 20.6 0.77, 22.71 0 M5.24 0 C11.44 -0.67, 17.24 -0.52, 22.71 0 M22.71 0 C25.86 -0.14, 26.4 1.17, 27.95 5.24 M22.71 0 C28.12 1.58, 29.31 -0.4, 27.95 5.24 M27.95 5.24 C27.07 9.32, 27.79 13.85, 27.95 15.71 M27.95 5.24 C28.26 8.69, 28.01 11.32, 27.95 15.71 M27.95 15.71 C26.59 18.09, 25.98 21.09, 22.71 20.95 M27.95 15.71 C28.85 20.8, 28.33 19.41, 22.71 20.95 M22.71 20.95 C20.05 20.34, 16.45 20.65, 5.24 20.95 M22.71 20.95 C18.16 21.37, 13.44 20.91, 5.24 20.95 M5.24 20.95 C2.44 21.23, 1.7 18.45, 0 15.71 M5.24 20.95 C0.67 19.53, 0.94 19.12, 0 15.71 M0 15.71 C0.47 12.67, 0.74 10.39, 0 5.24 M0 15.71 C0.4 12.56, -0.28 8.5, 0 5.24 M0 5.24 C-1.66 1.74, 3.6 -1.73, 5.24 0 M0 5.24 C0.46 -0.08, 1.1 -2.29, 5.24 0" stroke="#1e1e1e" stroke-width="2" fill="none"></path></g><g stroke-linecap="round" transform="translate(36.888671875 44.603038543607) rotate(0 25.4296875 23.859375)"><path d="M19.5 0.15 C24.69 -1.2, 32.62 1.08, 37.58 3.39 C42.55 5.69, 47.13 9.45, 49.3 13.98 C51.46 18.52, 52.17 25.61, 50.58 30.6 C48.99 35.59, 44.32 40.98, 39.76 43.94 C35.2 46.9, 28.57 49.06, 23.21 48.36 C17.85 47.66, 11.53 43.74, 7.59 39.76 C3.66 35.77, 0.03 29.31, -0.4 24.44 C-0.83 19.58, 1.3 14.58, 5.01 10.56 C8.73 6.54, 18.52 2.06, 21.89 0.33 C25.26 -1.39, 25.19 -0.09, 25.22 0.2 M30.24 -0.07 C35.47 0.75, 42.02 5.27, 45.51 9.48 C49 13.69, 51.3 20.4, 51.19 25.2 C51.08 30.01, 48.31 34.64, 44.85 38.32 C41.38 42, 35.8 46.11, 30.39 47.26 C24.98 48.42, 17.15 47.84, 12.37 45.26 C7.6 42.69, 3.53 36.97, 1.73 31.82 C-0.07 26.66, -0.44 19.12, 1.56 14.33 C3.57 9.54, 9.27 5.33, 13.75 3.08 C18.23 0.83, 25.84 0.97, 28.45 0.82 C31.05 0.66, 29.2 1.77, 29.38 2.15" stroke="none" stroke-width="0" fill="#eaddd7"></path><path d="M29.91 0.77 C34.8 1.61, 41.26 5.28, 44.61 9.27 C47.97 13.25, 50.13 19.71, 50.05 24.69 C49.97 29.68, 47.73 35.24, 44.13 39.18 C40.54 43.12, 33.77 47.44, 28.5 48.34 C23.22 49.24, 17.19 47.34, 12.49 44.59 C7.78 41.84, 1.92 36.81, 0.26 31.83 C-1.4 26.85, 0.45 19.54, 2.54 14.71 C4.62 9.88, 7.33 4.87, 12.76 2.85 C18.18 0.82, 30.7 2.41, 35.07 2.56 C39.44 2.71, 39.08 3.38, 38.96 3.75 M34.38 1.08 C39.19 2.71, 45.2 8.3, 47.94 13.17 C50.67 18.04, 51.76 25.51, 50.79 30.3 C49.81 35.1, 46.74 39.11, 42.09 41.94 C37.45 44.76, 28.65 47.18, 22.92 47.25 C17.19 47.32, 11.59 45.55, 7.72 42.36 C3.85 39.16, 0.33 33.36, -0.3 28.08 C-0.94 22.79, 0.6 14.95, 3.9 10.67 C7.21 6.4, 14.12 3.82, 19.51 2.44 C24.91 1.05, 33.41 2.43, 36.27 2.36 C39.12 2.29, 36.87 1.69, 36.64 2.01" stroke="#1e1e1e" stroke-width="2" fill="none"></path></g></svg>