<svg version="1.1" xmlns="http://www.w3.org/2000/svg" viewBox="0 0 106.89305606447624 140.84223780150023" width="106.89305606447624" height="140.84223780150023">
  <!-- svg-source:excalidraw -->
  
  <defs>
    <style class="style-fonts">
      @font-face {
        font-family: "Virgil";
        src: url("https://excalidraw.com/Virgil.woff2");
      }
      @font-face {
        font-family: "Cascadia";
        src: url("https://excalidraw.com/Cascadia.woff2");
      }
      @font-face {
        font-family: "Assistant";
        src: url("https://excalidraw.com/Assistant-Regular.woff2");
      }
    </style>
    
  </defs>
  <g stroke-linecap="round" transform="translate(32.64044744318198 109.06643921733576) rotate(337.5387531331347 19.283203125 7.48828125)"><path d="M3.74 0 C15.36 1.46, 25.36 1.26, 34.82 0 C37.54 -0.44, 39.24 1.6, 38.57 3.74 C39.44 6.2, 38.4 6.4, 38.57 11.23 C37.86 14.58, 39.39 13.29, 34.82 14.98 C27.88 16.55, 16.82 13.65, 3.74 14.98 C0.96 16.99, -2.52 12.62, 0 11.23 C-0.82 8.17, -0.15 7.37, 0 3.74 C2.35 -0.32, 0.92 -0.49, 3.74 0" stroke="none" stroke-width="0" fill="#868e96"></path><path d="M3.74 0 C15.1 0.28, 25.65 -0.45, 34.82 0 M3.74 0 C14.43 0.28, 25.83 0.22, 34.82 0 M34.82 0 C36.79 0.98, 39.17 2.06, 38.57 3.74 M34.82 0 C38.35 -0.59, 38.88 1.1, 38.57 3.74 M38.57 3.74 C38.42 5.51, 38.41 7.8, 38.57 11.23 M38.57 3.74 C38.76 6.26, 38.75 8.92, 38.57 11.23 M38.57 11.23 C38.71 13.11, 36.72 15.11, 34.82 14.98 M38.57 11.23 C39.19 14.22, 37.18 15.74, 34.82 14.98 M34.82 14.98 C25.91 14.51, 14.58 15.45, 3.74 14.98 M34.82 14.98 C23.01 14.9, 12.48 15.28, 3.74 14.98 M3.74 14.98 C1.91 15.14, -0.53 14.55, 0 11.23 M3.74 14.98 C1.42 15.47, -0.94 13.34, 0 11.23 M0 11.23 C0.34 9.06, -0.13 7.29, 0 3.74 M0 11.23 C-0.13 9.19, -0.06 7.37, 0 3.74 M0 3.74 C-0.16 1.88, 1.68 0.7, 3.74 0 M0 3.74 C0.84 2.11, 1.44 -0.6, 3.74 0" stroke="#1e1e1e" stroke-width="2" fill="none"></path></g><g stroke-linecap="round" transform="translate(32.82631983901592 16.919422171883525) rotate(337.0766447889431 19.283203125 7.48828125)"><path d="M3.74 0 C13.57 0.98, 21.49 -0.65, 34.82 0 C37.99 0.35, 36.6 1.58, 38.57 3.74 C38.48 4.87, 38.39 7.72, 38.57 11.23 C40.64 12.05, 36.45 12.84, 34.82 14.98 C25.84 14.15, 19.42 17.27, 3.74 14.98 C-1.27 13.87, -0.39 16, 0 11.23 C0.01 8.98, 0.95 5.33, 0 3.74 C-0.33 0.76, 2.13 -2.4, 3.74 0" stroke="none" stroke-width="0" fill="#868e96"></path><path d="M3.74 0 C9.16 -0.63, 16.76 -1, 34.82 0 M3.74 0 C13.12 0.14, 22.64 0.4, 34.82 0 M34.82 0 C37.92 0.81, 39.46 0.73, 38.57 3.74 M34.82 0 C37.63 -0.15, 38.25 0.81, 38.57 3.74 M38.57 3.74 C38.42 5.46, 38.71 7.55, 38.57 11.23 M38.57 3.74 C38.75 5.71, 38.62 7.47, 38.57 11.23 M38.57 11.23 C37.97 13.87, 37.86 15.4, 34.82 14.98 M38.57 11.23 C38.43 14.49, 37.49 15.23, 34.82 14.98 M34.82 14.98 C26.36 15.46, 19.85 13.92, 3.74 14.98 M34.82 14.98 C23.78 15.12, 12.14 15, 3.74 14.98 M3.74 14.98 C0.72 15.8, 0.15 14.15, 0 11.23 M3.74 14.98 C0.31 14.59, -0.2 12.97, 0 11.23 M0 11.23 C-0.19 9.19, -0.21 6.35, 0 3.74 M0 11.23 C-0.06 8.46, 0 5.93, 0 3.74 M0 3.74 C0.44 1.95, 1.97 0.75, 3.74 0 M0 3.74 C0.19 0.65, 1.6 -0.19, 3.74 0" stroke="#1e1e1e" stroke-width="2" fill="none"></path></g><g stroke-linecap="round" transform="translate(10 32.545724255215646) rotate(0 42.630859375 38.322265625)"><path d="M19.16 0 C36.05 -0.99, 53.24 0.1, 66.1 0 C76.15 0.46, 83.25 9.57, 85.26 19.16 C84.16 34.9, 88.01 45.95, 85.26 57.48 C84.06 67.29, 76.83 78.51, 66.1 76.64 C48.37 79.08, 27.95 74.75, 19.16 76.64 C5.85 79.79, 1.99 67.54, 0 57.48 C3.29 47.47, -0.41 41.11, 0 19.16 C1.21 3.07, 8.57 -1.23, 19.16 0" stroke="none" stroke-width="0" fill="#a18072"></path><path d="M19.16 0 C34.99 -1.68, 48.65 -1.54, 66.1 0 M19.16 0 C35.47 0.76, 53.45 0.59, 66.1 0 M66.1 0 C80.67 -1.03, 85.81 6.13, 85.26 19.16 M66.1 0 C78.24 -0.88, 83.71 5.59, 85.26 19.16 M85.26 19.16 C85.97 29.65, 84.26 38.29, 85.26 57.48 M85.26 19.16 C85.72 29.01, 84.98 40.25, 85.26 57.48 M85.26 57.48 C86.34 71.11, 78.64 77.97, 66.1 76.64 M85.26 57.48 C85.61 70.76, 77.76 78.69, 66.1 76.64 M66.1 76.64 C55.22 74.9, 43.06 75.28, 19.16 76.64 M66.1 76.64 C54.41 76.99, 40.87 77.65, 19.16 76.64 M19.16 76.64 C6.68 77.5, -1.63 69.58, 0 57.48 M19.16 76.64 C5.99 75.12, 0.24 72.17, 0 57.48 M0 57.48 C-0.77 45.3, 1.4 33.93, 0 19.16 M0 57.48 C0.01 49.59, 0.61 41.12, 0 19.16 M0 19.16 C1.45 7.89, 6.72 -1.04, 19.16 0 M0 19.16 C0.71 6.01, 5.97 1.18, 19.16 0" stroke="#1e1e1e" stroke-width="2" fill="none"></path></g><g stroke-linecap="round" transform="translate(65.75746355371484 88.17832059975353) rotate(47.524435689906944 13.974609375 10.47265625)"><path d="M5.24 0 C12.09 0.48, 14.95 0.46, 22.71 0 C24.19 3.18, 30.82 1.1, 27.95 5.24 C29.4 6.4, 27.27 8.46, 27.95 15.71 C25.9 21.06, 28.69 18.98, 22.71 20.95 C15.16 19.85, 13.24 23.94, 5.24 20.95 C3.73 18.23, -3.43 18.95, 0 15.71 C-0.41 11.77, 0.47 6.8, 0 5.24 C2.18 0.52, 1.13 -1.68, 5.24 0" stroke="none" stroke-width="0" fill="#eaddd7"></path><path d="M5.24 0 C9.56 -1.42, 14.62 -0.54, 22.71 0 M5.24 0 C11.81 0.54, 18.12 -0.62, 22.71 0 M22.71 0 C26.75 -0.26, 27.4 0.98, 27.95 5.24 M22.71 0 C24.65 -0.8, 26.29 0.9, 27.95 5.24 M27.95 5.24 C27.54 9.2, 27.71 12.27, 27.95 15.71 M27.95 5.24 C27.65 8.67, 28.25 12.19, 27.95 15.71 M27.95 15.71 C27.71 20.53, 26.51 21.39, 22.71 20.95 M27.95 15.71 C26.84 21.24, 25.29 19.46, 22.71 20.95 M22.71 20.95 C17.75 19.36, 9.68 22.4, 5.24 20.95 M22.71 20.95 C16.32 21.69, 10.98 21.35, 5.24 20.95 M5.24 20.95 C0.11 20.27, -0.35 17.87, 0 15.71 M5.24 20.95 C1.99 22.86, -0.33 18.24, 0 15.71 M0 15.71 C0.7 10.9, -0.76 7.34, 0 5.24 M0 15.71 C0.24 13.29, 0.4 10.52, 0 5.24 M0 5.24 C0.33 0.7, 2.36 -0.33, 5.24 0 M0 5.24 C-0.41 2.92, 2.97 0.94, 5.24 0" stroke="#1e1e1e" stroke-width="2" fill="none"></path></g><g stroke-linecap="round" transform="translate(27.928636255455785 46.951090522249615) rotate(47.524435689906944 25.4296875 23.859375)"><path d="M26.36 0.8 C31.33 0.67, 38.16 2.58, 42.32 5.8 C46.47 9.03, 50.68 15.04, 51.29 20.14 C51.9 25.24, 49.1 32.01, 45.98 36.41 C42.85 40.8, 37.49 44.88, 32.52 46.52 C27.54 48.16, 20.96 48.1, 16.12 46.25 C11.27 44.4, 5.92 40.01, 3.47 35.41 C1.01 30.81, 0.38 23.7, 1.41 18.65 C2.43 13.6, 5.13 8.21, 9.61 5.1 C14.1 1.99, 24.81 0.61, 28.31 -0.01 C31.8 -0.62, 30.53 0.92, 30.58 1.42 M26.72 -1.11 C31.98 -1.41, 38.58 1.58, 42.79 5.42 C46.99 9.26, 51.33 16.9, 51.97 21.93 C52.6 26.95, 49.83 31.38, 46.62 35.58 C43.41 39.78, 37.64 45.54, 32.69 47.1 C27.73 48.66, 21.96 47.18, 16.91 44.94 C11.86 42.7, 5.24 37.9, 2.38 33.66 C-0.48 29.42, -1.69 24.41, -0.25 19.49 C1.18 14.57, 6.62 7.39, 10.97 4.12 C15.33 0.85, 23.1 0.7, 25.88 -0.14 C28.67 -0.99, 27.68 -1.34, 27.66 -0.95" stroke="none" stroke-width="0" fill="#eaddd7"></path><path d="M21.29 1.09 C26.35 0.05, 33.78 1.39, 38.33 3.77 C42.87 6.14, 46.71 10.79, 48.56 15.35 C50.41 19.9, 51.13 26.42, 49.43 31.11 C47.73 35.8, 43.05 40.9, 38.38 43.5 C33.7 46.11, 26.76 47.38, 21.37 46.74 C15.98 46.1, 9.54 43.21, 6.05 39.65 C2.56 36.1, 0.6 30.37, 0.44 25.41 C0.27 20.45, 1.27 13.96, 5.06 9.88 C8.86 5.79, 19.57 2.43, 23.2 0.9 C26.83 -0.64, 26.87 0.49, 26.84 0.65 M27 1.05 C32.09 1.03, 39.47 3.4, 43.3 7.01 C47.14 10.61, 49.55 17.8, 49.99 22.67 C50.43 27.54, 48.72 32.03, 45.93 36.21 C43.15 40.4, 38.67 46.04, 33.29 47.79 C27.9 49.54, 18.93 49.06, 13.61 46.72 C8.3 44.39, 3.29 38.46, 1.37 33.79 C-0.54 29.12, 0.47 23.53, 2.15 18.7 C3.83 13.88, 7.41 7.72, 11.45 4.82 C15.49 1.92, 23.73 1.9, 26.39 1.29 C29.04 0.69, 27.46 1.07, 27.36 1.17" stroke="#1e1e1e" stroke-width="2" fill="none"></path></g></svg>