<svg version="1.1" xmlns="http://www.w3.org/2000/svg" viewBox="0 0 106.88189535019183 127.12357954545405" width="106.88189535019183" height="127.12357954545405">
  <!-- svg-source:excalidraw -->
  
  <defs>
    <style class="style-fonts">
      @font-face {
        font-family: "Virgil";
        src: url("https://excalidraw.com/Virgil.woff2");
      }
      @font-face {
        font-family: "Cascadia";
        src: url("https://excalidraw.com/Cascadia.woff2");
      }
      @font-face {
        font-family: "Assistant";
        src: url("https://excalidraw.com/Assistant-Regular.woff2");
      }
    </style>
    
  </defs>
  <g stroke-linecap="round" transform="translate(10 24.85274621212102) rotate(0 42.630859375 38.322265625)"><path d="M19.16 0 C40.25 2.37, 58.38 0.28, 66.1 0 C79.88 -2.32, 84.03 8.59, 85.26 19.16 C82.32 30.83, 86 42.06, 85.26 57.48 C85.41 67.98, 77.21 73.36, 66.1 76.64 C48.89 73.33, 35.07 73.6, 19.16 76.64 C8.76 75.03, -2.8 73.25, 0 57.48 C-2.55 41.91, -2.22 34.01, 0 19.16 C0.27 7.74, 7.39 -2.59, 19.16 0" stroke="none" stroke-width="0" fill="#a18072"></path><path d="M19.16 0 C35.65 0.16, 54.27 1.44, 66.1 0 M19.16 0 C30.87 0.89, 43.61 0.99, 66.1 0 M66.1 0 C80.01 -1.97, 86.32 7.6, 85.26 19.16 M66.1 0 C78 1.6, 85.11 8.01, 85.26 19.16 M85.26 19.16 C86.55 31.93, 85.74 46.41, 85.26 57.48 M85.26 19.16 C85.48 28.12, 85.95 39.29, 85.26 57.48 M85.26 57.48 C85.33 71.06, 79.19 74.77, 66.1 76.64 M85.26 57.48 C86.79 71.65, 79.71 75.53, 66.1 76.64 M66.1 76.64 C52.49 75.68, 38.44 75.24, 19.16 76.64 M66.1 76.64 C53.4 77.93, 38.69 77.22, 19.16 76.64 M19.16 76.64 C6.82 77.3, 1.11 72.12, 0 57.48 M19.16 76.64 C6.41 76.43, 0.98 69.07, 0 57.48 M0 57.48 C0.56 45.5, -0.81 29.65, 0 19.16 M0 57.48 C0.03 46.68, -0.62 34.05, 0 19.16 M0 19.16 C-1.76 7.48, 4.97 -0.15, 19.16 0 M0 19.16 C0.56 5.99, 4.48 2.11, 19.16 0" stroke="#1e1e1e" stroke-width="2" fill="none"></path></g><g stroke-linecap="round" transform="translate(33.86899266098453 102.14701704545405) rotate(0 19.283203125 7.48828125)"><path d="M3.74 0 C11.71 -0.5, 17.83 -1.86, 34.82 0 C36.43 1.59, 38.11 1.18, 38.57 3.74 C38.69 6.12, 38.53 7.21, 38.57 11.23 C37.36 11.36, 37.86 14.93, 34.82 14.98 C27.82 13.09, 23.87 13.53, 3.74 14.98 C-0.77 17.14, 0.35 13.11, 0 11.23 C-0.57 9.21, 0.15 7.26, 0 3.74 C0.72 -0.62, 2.2 -2.03, 3.74 0" stroke="none" stroke-width="0" fill="#868e96"></path><path d="M3.74 0 C10.81 0.62, 19.37 -0.82, 34.82 0 M3.74 0 C11.25 0.27, 19.3 -0.59, 34.82 0 M34.82 0 C37.85 0.61, 38.19 1.94, 38.57 3.74 M34.82 0 C37.24 0.81, 39.12 1.82, 38.57 3.74 M38.57 3.74 C38.64 6.09, 38.43 8.39, 38.57 11.23 M38.57 3.74 C38.66 6.28, 38.57 8.73, 38.57 11.23 M38.57 11.23 C38.73 12.79, 37.98 15.58, 34.82 14.98 M38.57 11.23 C38.99 13.17, 37.22 15.87, 34.82 14.98 M34.82 14.98 C23.34 14.02, 11.95 15.06, 3.74 14.98 M34.82 14.98 C22.7 15.23, 11.57 15.28, 3.74 14.98 M3.74 14.98 C1.8 15.91, 0.01 13.63, 0 11.23 M3.74 14.98 C1.74 14.38, 0.5 14.26, 0 11.23 M0 11.23 C-0.13 8.5, -0.02 6.38, 0 3.74 M0 11.23 C-0.11 8.75, -0.17 6.58, 0 3.74 M0 3.74 C-0.71 1.17, 1.49 -0.17, 3.74 0 M0 3.74 C-0.95 2.31, 2.38 0.57, 3.74 0" stroke="#1e1e1e" stroke-width="2" fill="none"></path></g><g stroke-linecap="round" transform="translate(34.05486505681802 10) rotate(0 19.283203125 7.48828125)"><path d="M3.74 0 C15.22 -1.63, 24.34 1.64, 34.82 0 C36.86 -0.06, 37.85 -0.87, 38.57 3.74 C38.63 5.55, 38.14 7.7, 38.57 11.23 C39.1 13.68, 34.82 13.42, 34.82 14.98 C29.37 13.56, 18.48 16.89, 3.74 14.98 C1.6 14.36, -0.27 11.76, 0 11.23 C0.14 10.09, 0.33 7.52, 0 3.74 C0.95 -0.78, -0.9 -1.37, 3.74 0" stroke="none" stroke-width="0" fill="#868e96"></path><path d="M3.74 0 C12.64 -0.92, 21.73 -0.74, 34.82 0 M3.74 0 C15.31 -0.61, 26.58 0.19, 34.82 0 M34.82 0 C36.94 0.69, 38.5 1.95, 38.57 3.74 M34.82 0 C37.87 0.57, 38.55 1.88, 38.57 3.74 M38.57 3.74 C38.41 5.95, 38.68 7.82, 38.57 11.23 M38.57 3.74 C38.59 5.4, 38.62 6.72, 38.57 11.23 M38.57 11.23 C39.23 14.33, 37.68 14.49, 34.82 14.98 M38.57 11.23 C38.47 14.62, 38.07 15.03, 34.82 14.98 M34.82 14.98 C27.3 15.02, 20.88 15.41, 3.74 14.98 M34.82 14.98 C22.73 15.17, 10.69 15.48, 3.74 14.98 M3.74 14.98 C1.26 14.88, 0.42 13.21, 0 11.23 M3.74 14.98 C1.75 15.5, 0.32 14.15, 0 11.23 M0 11.23 C0.01 8.6, 0.08 5.88, 0 3.74 M0 11.23 C-0.14 8.61, -0.11 5.76, 0 3.74 M0 3.74 C0.24 1.07, 0.42 0.92, 3.74 0 M0 3.74 C1.14 1.82, 0.27 0.76, 3.74 0" stroke="#343a40" stroke-width="2" fill="none"></path></g><g stroke-linecap="round" transform="translate(65.74630283943043 23.860949680865815) rotate(312.47556431009303 13.974609375 10.47265625)"><path d="M5.24 0 C9.19 2.13, 14.74 0.13, 22.71 0 C25.21 -2.93, 28.8 2.5, 27.95 5.24 C27.08 7.02, 28.35 12.22, 27.95 15.71 C24.49 17.04, 23.7 20.02, 22.71 20.95 C16.11 23.42, 14.81 20.06, 5.24 20.95 C1.38 18.23, -3.56 16.82, 0 15.71 C0.51 11.05, 0.68 7.63, 0 5.24 C-2.97 -0.14, 4.48 1.61, 5.24 0" stroke="none" stroke-width="0" fill="#d0bfff"></path><path d="M5.24 0 C10.62 -0.97, 19 -0.3, 22.71 0 M5.24 0 C12.22 0.7, 17.94 0.78, 22.71 0 M22.71 0 C26.08 1.41, 28.91 2.74, 27.95 5.24 M22.71 0 C26.17 1.26, 27.29 2.08, 27.95 5.24 M27.95 5.24 C28.2 8.71, 26.97 12.65, 27.95 15.71 M27.95 5.24 C28.04 8.34, 28.3 12.75, 27.95 15.71 M27.95 15.71 C28.68 18.23, 26.04 22.49, 22.71 20.95 M27.95 15.71 C29.45 19.31, 24.74 20.64, 22.71 20.95 M22.71 20.95 C20.29 21.96, 16.83 19.44, 5.24 20.95 M22.71 20.95 C17.57 21.82, 11.47 20.92, 5.24 20.95 M5.24 20.95 C2.6 19.91, 0.88 20.12, 0 15.71 M5.24 20.95 C2.39 21.79, 1.38 18.47, 0 15.71 M0 15.71 C0.19 13.44, 0.67 10.4, 0 5.24 M0 15.71 C-0.28 13.1, 0.22 10.48, 0 5.24 M0 5.24 C-1.66 3.58, 3.72 1, 5.24 0 M0 5.24 C-1.96 3.26, 2.8 1.14, 5.24 0" stroke="#1e1e1e" stroke-width="2" fill="none"></path></g><g stroke-linecap="round" transform="translate(27.917475541171825 38.54130475837155) rotate(312.47556431009303 25.4296875 23.859375)"><path d="M28.67 -0.5 C33.78 -0.2, 40.6 4.14, 44.33 8.08 C48.05 12.02, 50.73 18.16, 51.02 23.14 C51.32 28.13, 49.58 34.15, 46.1 38.01 C42.62 41.87, 35.5 45.29, 30.15 46.32 C24.8 47.35, 18.75 46.42, 14.02 44.21 C9.29 41.99, 3.93 37.79, 1.77 33.02 C-0.39 28.26, -0.78 20.38, 1.08 15.64 C2.93 10.9, 7.25 7.09, 12.89 4.6 C18.53 2.11, 30.44 0.66, 34.92 0.69 C39.41 0.72, 39.95 4.3, 39.8 4.79 M29.9 -0.03 C35.22 0.36, 41.01 3.59, 44.3 7.49 C47.59 11.39, 49.38 18.13, 49.62 23.39 C49.87 28.66, 48.92 35.27, 45.77 39.08 C42.63 42.89, 36.26 45.51, 30.77 46.25 C25.27 47, 17.55 45.8, 12.79 43.55 C8.02 41.3, 4.32 37.42, 2.16 32.76 C-0.01 28.1, -1.66 20.5, -0.19 15.58 C1.27 10.65, 6.21 5.63, 10.92 3.23 C15.63 0.84, 25.17 1.84, 28.05 1.22 C30.94 0.61, 27.94 -0.72, 28.24 -0.46" stroke="none" stroke-width="0" fill="#d0bfff"></path><path d="M21.24 0.72 C26.32 -0.35, 34.94 0.75, 39.8 3.42 C44.66 6.09, 48.78 11.7, 50.41 16.73 C52.04 21.75, 51.72 28.85, 49.58 33.57 C47.44 38.3, 42.43 42.85, 37.56 45.06 C32.69 47.27, 25.73 47.92, 20.36 46.84 C14.99 45.76, 8.79 42.52, 5.33 38.58 C1.87 34.64, -0.69 28.33, -0.4 23.18 C-0.11 18.03, 2.78 11.47, 7.04 7.69 C11.3 3.92, 21.3 1.65, 25.17 0.52 C29.03 -0.62, 30.02 0.53, 30.23 0.87 M14.5 1.84 C18.78 -0.58, 25.72 0.49, 31.1 1.79 C36.48 3.08, 43.63 5.76, 46.76 9.63 C49.89 13.49, 50.55 19.93, 49.87 24.98 C49.19 30.03, 46.22 35.97, 42.7 39.92 C39.17 43.87, 33.78 47.8, 28.72 48.69 C23.67 49.57, 17.19 48.15, 12.36 45.22 C7.54 42.29, 1.44 36.14, -0.23 31.1 C-1.89 26.05, -0.13 19.48, 2.37 14.96 C4.88 10.44, 12.81 5.98, 14.78 3.97 C16.75 1.95, 14.03 2.86, 14.19 2.85" stroke="#1e1e1e" stroke-width="2" fill="none"></path></g></svg>