<svg version="1.1" xmlns="http://www.w3.org/2000/svg" viewBox="0 0 107.36794445733494 127.12357954545405" width="107.36794445733494" height="127.12357954545405">
  <!-- svg-source:excalidraw -->
  
  <defs>
    <style class="style-fonts">
      @font-face {
        font-family: "Virgil";
        src: url("https://excalidraw.com/Virgil.woff2");
      }
      @font-face {
        font-family: "Cascadia";
        src: url("https://excalidraw.com/Cascadia.woff2");
      }
      @font-face {
        font-family: "Assistant";
        src: url("https://excalidraw.com/Assistant-Regular.woff2");
      }
    </style>
    
  </defs>
  <g stroke-linecap="round" transform="translate(10 23.42417478355037) rotate(0 42.630859375 38.322265625)"><path d="M19.16 0 C39.3 -1.16, 54.77 -3.31, 66.1 0 C81.72 0.6, 82.48 5.07, 85.26 19.16 C87.63 30.2, 87.69 42.84, 85.26 57.48 C84.59 70.8, 79.46 73.14, 66.1 76.64 C50.14 78.16, 26.96 77.3, 19.16 76.64 C8.6 76.42, -1.69 69.79, 0 57.48 C-2.42 45.36, -3.92 30.1, 0 19.16 C1.7 6.01, 6.45 -2.18, 19.16 0" stroke="none" stroke-width="0" fill="#a18072"></path><path d="M19.16 0 C35.65 0.85, 51.49 0.87, 66.1 0 M19.16 0 C35.99 -0.49, 50.89 -0.19, 66.1 0 M66.1 0 C79.23 0.35, 85.46 7.67, 85.26 19.16 M66.1 0 C77.61 -1.26, 83.24 7.65, 85.26 19.16 M85.26 19.16 C84.89 26.28, 87.07 38.7, 85.26 57.48 M85.26 19.16 C85.39 33.06, 84.81 46.25, 85.26 57.48 M85.26 57.48 C83.97 69.57, 80.1 76.29, 66.1 76.64 M85.26 57.48 C85.21 69.62, 77 77.19, 66.1 76.64 M66.1 76.64 C49.78 75.74, 34.15 77.08, 19.16 76.64 M66.1 76.64 C51.4 76.11, 37.48 77.02, 19.16 76.64 M19.16 76.64 C5.49 75.09, 1.66 70.53, 0 57.48 M19.16 76.64 C5.84 76.41, -1.74 67.98, 0 57.48 M0 57.48 C0.69 49.08, -1.5 40.3, 0 19.16 M0 57.48 C1.08 49.42, -0.47 40.31, 0 19.16 M0 19.16 C-1.03 8.11, 6.74 0.77, 19.16 0 M0 19.16 C0.86 4.48, 7.39 0.06, 19.16 0" stroke="#1e1e1e" stroke-width="2" fill="none"></path></g><g stroke-linecap="round" transform="translate(33.868992660984986 102.14701704545405) rotate(0 19.283203125 7.48828125)"><path d="M3.74 0 C15.73 -1.76, 30.41 0.47, 34.82 0 C35.31 -0.95, 39.28 0.82, 38.57 3.74 C39.32 5.9, 38.45 8.97, 38.57 11.23 C38.99 11.2, 39.77 15.87, 34.82 14.98 C26.48 16.19, 22.79 15.06, 3.74 14.98 C0.02 14.64, 1.6 15.4, 0 11.23 C-0.89 9.25, 0.51 7, 0 3.74 C0.04 -0.32, 0.96 1.16, 3.74 0" stroke="none" stroke-width="0" fill="#868e96"></path><path d="M3.74 0 C12.58 0.37, 22.9 0.21, 34.82 0 M3.74 0 C13.84 0.04, 24.77 0.14, 34.82 0 M34.82 0 C37.42 0.64, 38.01 0.7, 38.57 3.74 M34.82 0 C36.31 0.63, 37.75 1.16, 38.57 3.74 M38.57 3.74 C38.9 6.54, 38.75 8.28, 38.57 11.23 M38.57 3.74 C38.56 6.54, 38.46 9.16, 38.57 11.23 M38.57 11.23 C39.18 13.55, 37.29 14.7, 34.82 14.98 M38.57 11.23 C37.63 14, 37.56 15.38, 34.82 14.98 M34.82 14.98 C24.46 15.11, 15.9 13.94, 3.74 14.98 M34.82 14.98 C27.05 15.27, 19.68 14.55, 3.74 14.98 M3.74 14.98 C2.08 15.11, -0.24 13.63, 0 11.23 M3.74 14.98 C0.38 13.84, -0.76 13.9, 0 11.23 M0 11.23 C-0.28 9.07, -0.31 6.32, 0 3.74 M0 11.23 C-0.18 9.35, -0.12 7.69, 0 3.74 M0 3.74 C0.18 1.63, 1.62 -0.83, 3.74 0 M0 3.74 C0.5 1.28, 2.21 0, 3.74 0" stroke="#1e1e1e" stroke-width="2" fill="none"></path></g><g stroke-linecap="round" transform="translate(34.05486505681802 10) rotate(0 19.283203125 7.48828125)"><path d="M3.74 0 C14.82 0.71, 19.77 -0.67, 34.82 0 C38.03 -0.43, 39.58 3.04, 38.57 3.74 C38.45 5.82, 38.79 6.66, 38.57 11.23 C41.02 14.62, 35.22 16.82, 34.82 14.98 C25.2 14.97, 11.15 14.79, 3.74 14.98 C2.85 16.64, -0.62 12.3, 0 11.23 C0.55 8.52, 0.11 5.43, 0 3.74 C-0.29 2.41, -1.11 -1.38, 3.74 0" stroke="none" stroke-width="0" fill="#868e96"></path><path d="M3.74 0 C14.85 0.21, 25.4 0.53, 34.82 0 M3.74 0 C12.16 0.09, 20.46 0.32, 34.82 0 M34.82 0 C36.77 -0.55, 37.69 1.8, 38.57 3.74 M34.82 0 C36.5 -0.08, 38.85 1.05, 38.57 3.74 M38.57 3.74 C38.79 5.05, 38.85 7.17, 38.57 11.23 M38.57 3.74 C38.44 6.3, 38.68 8.95, 38.57 11.23 M38.57 11.23 C38.54 13.45, 36.51 15.21, 34.82 14.98 M38.57 11.23 C38.81 14.13, 37.37 14.25, 34.82 14.98 M34.82 14.98 C26.92 14.05, 18.45 14.31, 3.74 14.98 M34.82 14.98 C26.07 14.69, 18.19 15.15, 3.74 14.98 M3.74 14.98 C1.01 14.87, -0.76 12.74, 0 11.23 M3.74 14.98 C0.49 15.15, 0.09 14.16, 0 11.23 M0 11.23 C-0.27 8.47, -0.17 6.61, 0 3.74 M0 11.23 C-0.07 8.81, 0.06 6.14, 0 3.74 M0 3.74 C0.37 0.42, 1.69 0.03, 3.74 0 M0 3.74 C0.97 1.25, 2.35 0.67, 3.74 0" stroke="#343a40" stroke-width="2" fill="none"></path></g><g stroke-linecap="round" transform="translate(66.23235194657354 80.65939325744512) rotate(47.524435689906944 13.974609375 10.47265625)"><path d="M5.24 0 C6.84 -1.2, 14.16 -0.57, 22.71 0 C27.6 2.48, 26.44 4.28, 27.95 5.24 C28.22 6.13, 29.69 11.34, 27.95 15.71 C25.05 21.75, 28.4 18.83, 22.71 20.95 C15.34 20.52, 12.86 22.94, 5.24 20.95 C0.89 18.97, 1.73 15.72, 0 15.71 C-0.06 11.33, -0.3 10.08, 0 5.24 C-3.27 -0.16, 2.61 -1.34, 5.24 0" stroke="none" stroke-width="0" fill="#d0bfff"></path><path d="M5.24 0 C11.89 1, 16.7 -1.34, 22.71 0 M5.24 0 C10.54 0.53, 15.19 -0.51, 22.71 0 M22.71 0 C24.44 1.1, 26.53 1.6, 27.95 5.24 M22.71 0 C26.77 -0.4, 26.04 3.86, 27.95 5.24 M27.95 5.24 C28.69 9.89, 28.52 13.46, 27.95 15.71 M27.95 5.24 C28.2 8.58, 27.87 11.96, 27.95 15.71 M27.95 15.71 C26.32 19.67, 26.62 21.64, 22.71 20.95 M27.95 15.71 C28.05 17.75, 25.14 18.85, 22.71 20.95 M22.71 20.95 C16.06 19.56, 11.06 19.7, 5.24 20.95 M22.71 20.95 C17.05 20.93, 9.72 20.72, 5.24 20.95 M5.24 20.95 C0.23 18.97, -1.32 19.51, 0 15.71 M5.24 20.95 C1.92 21.81, 0.64 17.54, 0 15.71 M0 15.71 C-0.47 12.98, 0.55 7.83, 0 5.24 M0 15.71 C0.15 12.94, 0.25 9.33, 0 5.24 M0 5.24 C0.87 1.8, 3.42 0.01, 5.24 0 M0 5.24 C2.21 3.09, 1.52 -0.28, 5.24 0" stroke="#1e1e1e" stroke-width="2" fill="none"></path></g><g stroke-linecap="round" transform="translate(28.403524648314487 38.00359175136782) rotate(47.524435689906944 25.4296875 23.859375)"><path d="M25.66 0.38 C30.66 0.08, 37.64 1.85, 41.71 5.35 C45.79 8.84, 49.15 16.29, 50.1 21.36 C51.04 26.43, 50.24 31.65, 47.41 35.77 C44.57 39.89, 38.18 44.33, 33.07 46.06 C27.95 47.78, 21.66 47.92, 16.7 46.14 C11.75 44.36, 6.16 39.85, 3.33 35.38 C0.51 30.9, -1.34 24.19, -0.26 19.27 C0.83 14.35, 4.92 8.87, 9.85 5.86 C14.78 2.85, 25.52 2.01, 29.31 1.24 C33.11 0.47, 32.72 1.1, 32.64 1.22 M34.68 2.25 C39.5 4.13, 45.01 9.12, 47.77 13.48 C50.54 17.85, 52.25 23.66, 51.27 28.46 C50.3 33.25, 46.46 38.99, 41.91 42.23 C37.36 45.48, 29.55 48.3, 23.97 47.92 C18.39 47.54, 12.17 43.36, 8.44 39.94 C4.72 36.53, 2.56 32.07, 1.62 27.42 C0.69 22.77, -0.05 16.58, 2.81 12.05 C5.67 7.51, 13.27 1.75, 18.77 0.2 C24.26 -1.34, 33.09 2.54, 35.78 2.76 C38.48 2.99, 35.23 1.21, 34.94 1.58" stroke="none" stroke-width="0" fill="#d0bfff"></path><path d="M16.42 1.71 C21.24 -0.45, 29.24 -0.76, 34.28 0.72 C39.31 2.21, 43.84 6.28, 46.64 10.63 C49.45 14.98, 51.86 21.57, 51.11 26.81 C50.35 32.05, 46.32 38.72, 42.1 42.06 C37.88 45.41, 31.06 46.66, 25.78 46.88 C20.49 47.11, 14.54 46.64, 10.41 43.43 C6.27 40.23, 2.08 32.73, 0.98 27.63 C-0.12 22.53, 0.67 17.32, 3.81 12.81 C6.95 8.3, 16.66 2.71, 19.83 0.57 C23.01 -1.56, 22.9 -0.52, 22.87 -0.02 M21.97 0.45 C27.15 -0.13, 35.63 2.11, 40.31 4.82 C44.99 7.54, 48.8 12.09, 50.05 16.71 C51.3 21.33, 50.05 27.76, 47.79 32.55 C45.54 37.34, 41.57 43.2, 36.51 45.45 C31.45 47.69, 22.92 47.39, 17.43 46.01 C11.94 44.64, 6.62 41.05, 3.57 37.18 C0.53 33.31, -1.37 28.02, -0.83 22.79 C-0.3 17.57, 2.55 9.59, 6.76 5.84 C10.97 2.09, 21.75 1.2, 24.43 0.29 C27.12 -0.61, 23.23 0.3, 22.87 0.41" stroke="#1e1e1e" stroke-width="2" fill="none"></path></g></svg>