<svg version="1.1" xmlns="http://www.w3.org/2000/svg" viewBox="0 0 117.88881138392844 127.12357954545405" width="117.88881138392844" height="127.12357954545405">
  <!-- svg-source:excalidraw -->
  
  <defs>
    <style class="style-fonts">
      @font-face {
        font-family: "Virgil";
        src: url("https://excalidraw.com/Virgil.woff2");
      }
      @font-face {
        font-family: "Cascadia";
        src: url("https://excalidraw.com/Cascadia.woff2");
      }
      @font-face {
        font-family: "Assistant";
        src: url("https://excalidraw.com/Assistant-Regular.woff2");
      }
    </style>
    
  </defs>
  <g stroke-linecap="round" transform="translate(10 24.85274621212011) rotate(0 42.630859375 38.322265625)"><path d="M19.16 0 C32.63 -1.81, 41.88 1.62, 66.1 0 C78.25 -2.99, 88.57 9.94, 85.26 19.16 C86.32 34.35, 84.24 46.98, 85.26 57.48 C82.94 69.02, 81.07 76.01, 66.1 76.64 C52.98 76.71, 39.42 76.11, 19.16 76.64 C4.11 74.98, -3.29 71, 0 57.48 C-1.84 45.13, -1.56 36.99, 0 19.16 C-1.61 3.59, 9.38 0.48, 19.16 0" stroke="none" stroke-width="0" fill="#a18072"></path><path d="M19.16 0 C33.18 0.64, 43.01 0.65, 66.1 0 M19.16 0 C32.58 -0.53, 43.7 -1.3, 66.1 0 M66.1 0 C78.84 -1.85, 86.5 5.65, 85.26 19.16 M66.1 0 C76.98 -1.25, 83.79 7.84, 85.26 19.16 M85.26 19.16 C83.57 30.75, 86.75 39.46, 85.26 57.48 M85.26 19.16 C85.72 33.81, 85.22 48.02, 85.26 57.48 M85.26 57.48 C84.69 70.55, 79.44 75.78, 66.1 76.64 M85.26 57.48 C86.35 70.9, 78.96 74.59, 66.1 76.64 M66.1 76.64 C50.43 76.98, 31.29 77.99, 19.16 76.64 M66.1 76.64 C49.1 77.19, 32.91 76.46, 19.16 76.64 M19.16 76.64 C5.12 76.38, -1.71 69.91, 0 57.48 M19.16 76.64 C6.8 78.39, 1.3 72.39, 0 57.48 M0 57.48 C0.57 50.46, 1.78 41.23, 0 19.16 M0 57.48 C0.28 46.81, 0.12 35.58, 0 19.16 M0 19.16 C1.2 5.75, 4.91 -0.03, 19.16 0 M0 19.16 C0.4 6.79, 6.61 1.48, 19.16 0" stroke="#1e1e1e" stroke-width="2" fill="none"></path></g><g stroke-linecap="round" transform="translate(33.86899266098453 102.14701704545405) rotate(0 19.283203125 7.48828125)"><path d="M3.74 0 C10.14 0.92, 16.46 -1.87, 34.82 0 C39.71 2.57, 39.86 -0.97, 38.57 3.74 C38.49 6.76, 37.98 8.89, 38.57 11.23 C40.16 13.27, 37.25 14.26, 34.82 14.98 C28.93 15.17, 19.59 13.86, 3.74 14.98 C-1.13 15.51, -0.05 11.23, 0 11.23 C-0.53 10.08, -0.37 6.88, 0 3.74 C2.16 1.6, 0.63 -0.27, 3.74 0" stroke="none" stroke-width="0" fill="#868e96"></path><path d="M3.74 0 C13.45 0.34, 24.08 -0.03, 34.82 0 M3.74 0 C14.88 -0.46, 26.44 -0.43, 34.82 0 M34.82 0 C37.94 -0.37, 37.74 0.7, 38.57 3.74 M34.82 0 C36.58 0.73, 38.28 2.09, 38.57 3.74 M38.57 3.74 C38.76 6.27, 38.79 9.06, 38.57 11.23 M38.57 3.74 C38.58 6.62, 38.53 9.32, 38.57 11.23 M38.57 11.23 C38.85 13.3, 37.79 15.26, 34.82 14.98 M38.57 11.23 C38.61 12.7, 37.9 15.48, 34.82 14.98 M34.82 14.98 C24.46 15.67, 16.58 15.37, 3.74 14.98 M34.82 14.98 C27.34 15.12, 18.88 15.03, 3.74 14.98 M3.74 14.98 C0.39 14.8, 0.18 14.49, 0 11.23 M3.74 14.98 C1.9 16.04, -1.01 13.98, 0 11.23 M0 11.23 C0.34 8.83, -0.05 6.57, 0 3.74 M0 11.23 C0.04 9.44, 0.1 7.45, 0 3.74 M0 3.74 C-0.74 1.23, 1.42 0.18, 3.74 0 M0 3.74 C0.11 1.99, 0.61 -0.63, 3.74 0" stroke="#1e1e1e" stroke-width="2" fill="none"></path></g><g stroke-linecap="round" transform="translate(34.05486505681802 10) rotate(0 19.283203125 7.48828125)"><path d="M3.74 0 C10.41 -2.25, 20.37 2.47, 34.82 0 C38.61 -2.21, 40.28 2.44, 38.57 3.74 C37.93 6.03, 39.15 8.81, 38.57 11.23 C38.5 13.01, 35.2 15.59, 34.82 14.98 C23.21 13.79, 12.5 15.53, 3.74 14.98 C1.2 12.48, -1.56 11.92, 0 11.23 C-0.38 8.42, 0.87 7.25, 0 3.74 C-0.62 0.98, -0.72 -2.57, 3.74 0" stroke="none" stroke-width="0" fill="#868e96"></path><path d="M3.74 0 C13.95 -0.03, 25.5 0.87, 34.82 0 M3.74 0 C12.36 -0.31, 21.3 -0.03, 34.82 0 M34.82 0 C36.49 -0.54, 37.93 1.88, 38.57 3.74 M34.82 0 C37.03 0.84, 39.22 0.11, 38.57 3.74 M38.57 3.74 C38.85 6.36, 38.85 9.21, 38.57 11.23 M38.57 3.74 C38.51 6.39, 38.62 8.9, 38.57 11.23 M38.57 11.23 C39.04 14.01, 37.35 14.08, 34.82 14.98 M38.57 11.23 C39.15 14.23, 37.36 15.44, 34.82 14.98 M34.82 14.98 C25.61 15.44, 14.69 15, 3.74 14.98 M34.82 14.98 C22.78 14.92, 10.95 14.9, 3.74 14.98 M3.74 14.98 C1.43 15.73, 0.56 14.66, 0 11.23 M3.74 14.98 C0.24 15.23, 0.25 14.1, 0 11.23 M0 11.23 C-0.07 8.73, -0.23 6.07, 0 3.74 M0 11.23 C0.1 8.58, -0.15 6.05, 0 3.74 M0 3.74 C0.18 1.42, 1.35 0.64, 3.74 0 M0 3.74 C-0.63 0.62, 0.23 0.63, 3.74 0" stroke="#343a40" stroke-width="2" fill="none"></path></g><g stroke-linecap="round" transform="translate(79.93959263392844 52.35810673701235) rotate(0 13.974609375 10.47265625)"><path d="M5.24 0 C13.8 3.37, 18.14 -2.42, 22.71 0 C28.58 1.65, 29.73 1.31, 27.95 5.24 C28.98 8.34, 27.78 11.59, 27.95 15.71 C25.02 20.05, 26.96 22.2, 22.71 20.95 C14.53 21.45, 12.03 17.77, 5.24 20.95 C-0.41 18.44, -0.92 16.97, 0 15.71 C1.65 12.13, -0.36 7.85, 0 5.24 C-2.72 -1.82, -0.64 0.55, 5.24 0" stroke="none" stroke-width="0" fill="#d0bfff"></path><path d="M5.24 0 C12.32 1.63, 16.73 -0.75, 22.71 0 M5.24 0 C9.29 -0.16, 11.53 -0.31, 22.71 0 M22.71 0 C24.92 1.26, 27.44 3.21, 27.95 5.24 M22.71 0 C27.51 -2.27, 29.16 3.14, 27.95 5.24 M27.95 5.24 C28.76 8.48, 28.54 10.71, 27.95 15.71 M27.95 5.24 C28.07 8.73, 28.17 12.82, 27.95 15.71 M27.95 15.71 C28.02 17.41, 27.22 21.82, 22.71 20.95 M27.95 15.71 C28.02 20.12, 26.57 18.79, 22.71 20.95 M22.71 20.95 C15.46 20.87, 11.25 22.15, 5.24 20.95 M22.71 20.95 C16.64 20.77, 12.22 21.58, 5.24 20.95 M5.24 20.95 C2.87 22.8, -1.75 19.64, 0 15.71 M5.24 20.95 C2.24 21.69, 1.27 21.34, 0 15.71 M0 15.71 C-0.53 13.02, 0.49 9.7, 0 5.24 M0 15.71 C-0.45 12.17, 0.03 8.75, 0 5.24 M0 5.24 C0.2 3.03, 0.64 -1.09, 5.24 0 M0 5.24 C-2.03 3.01, 0.11 -0.17, 5.24 0" stroke="#1e1e1e" stroke-width="2" fill="none"></path></g><g stroke-linecap="round" transform="translate(30.14076450892844 38.31904423701235) rotate(0 25.4296875 23.859375)"><path d="M29.1 0.15 C34.21 0.35, 40.16 4.01, 43.69 7.77 C47.22 11.53, 49.83 17.63, 50.29 22.71 C50.74 27.79, 49.48 34.08, 46.41 38.23 C43.34 42.38, 37.29 46.58, 31.87 47.63 C26.45 48.68, 18.84 46.86, 13.89 44.53 C8.93 42.2, 4.27 38.2, 2.15 33.67 C0.03 29.13, -0.44 22.34, 1.18 17.31 C2.81 12.27, 7.07 6.42, 11.92 3.48 C16.77 0.54, 26.64 0.09, 30.3 -0.33 C33.95 -0.75, 33.86 0.39, 33.84 0.96 M24.7 0.84 C29.82 0.05, 34.41 2.37, 38.74 5.31 C43.07 8.24, 49.09 13.59, 50.68 18.43 C52.27 23.28, 50.87 29.94, 48.29 34.37 C45.71 38.79, 39.96 42.92, 35.2 44.97 C30.45 47.02, 24.87 47.95, 19.76 46.64 C14.65 45.33, 8.04 41.21, 4.56 37.13 C1.08 33.04, -1.66 27.06, -1.12 22.13 C-0.59 17.19, 3.7 11.34, 7.76 7.51 C11.83 3.68, 20.81 0.53, 23.28 -0.86 C25.75 -2.24, 22.49 -1.35, 22.57 -0.8" stroke="none" stroke-width="0" fill="#d0bfff"></path><path d="M19.11 1.16 C24.21 -0.3, 32.02 -0.25, 36.91 1.92 C41.79 4.09, 46.2 9.36, 48.42 14.19 C50.65 19.02, 51.73 25.82, 50.28 30.89 C48.83 35.96, 44.6 41.75, 39.73 44.61 C34.85 47.47, 26.43 48.88, 21.01 48.03 C15.59 47.18, 10.59 43.4, 7.21 39.52 C3.83 35.63, 0.91 29.69, 0.71 24.73 C0.52 19.76, 2.08 13.85, 6.03 9.73 C9.98 5.61, 20.69 1.6, 24.41 0.03 C28.13 -1.54, 28.36 -0.15, 28.33 0.3 M20.06 -0.79 C25.05 -2.09, 33.18 0.69, 38.01 3.39 C42.83 6.08, 47.02 11.01, 49 15.4 C50.99 19.79, 51.39 24.78, 49.9 29.7 C48.4 34.62, 44.58 42.08, 40.02 44.93 C35.47 47.77, 28.17 47.42, 22.58 46.77 C16.99 46.13, 10.1 44.73, 6.5 41.08 C2.91 37.44, 1.36 30.23, 1 24.89 C0.64 19.56, 1.4 13.18, 4.35 9.08 C7.31 4.98, 16.05 1.44, 18.72 0.29 C21.39 -0.86, 19.94 1.49, 20.38 2.15" stroke="#1e1e1e" stroke-width="2" fill="none"></path></g></svg>