<svg version="1.1" xmlns="http://www.w3.org/2000/svg" viewBox="0 0 108.08725249304916 127.12357954545405" width="108.08725249304916" height="127.12357954545405">
  <!-- svg-source:excalidraw -->
  
  <defs>
    <style class="style-fonts">
      @font-face {
        font-family: "Virgil";
        src: url("https://excalidraw.com/Virgil.woff2");
      }
      @font-face {
        font-family: "Cascadia";
        src: url("https://excalidraw.com/Cascadia.woff2");
      }
      @font-face {
        font-family: "Assistant";
        src: url("https://excalidraw.com/Assistant-Regular.woff2");
      }
    </style>
    
  </defs>
  <g stroke-linecap="round" transform="translate(12.825533743049164 24.85274621212102) rotate(0 42.630859375 38.322265625)"><path d="M19.16 0 C31.01 -3.64, 40.82 -2.68, 66.1 0 C77.95 -2.23, 87.63 4.78, 85.26 19.16 C84.98 27.31, 83.12 32.63, 85.26 57.48 C82.88 70.81, 79.14 77.99, 66.1 76.64 C47.91 73.98, 33.44 79.69, 19.16 76.64 C7.99 73.82, -0.57 68.41, 0 57.48 C1.22 39.71, 1.45 28, 0 19.16 C3.02 6.4, 9.84 2.11, 19.16 0" stroke="none" stroke-width="0" fill="#a18072"></path><path d="M19.16 0 C33.93 -0.25, 47.82 -0.8, 66.1 0 M19.16 0 C34.4 0.48, 48.74 -0.69, 66.1 0 M66.1 0 C79.89 0.87, 85.33 7.19, 85.26 19.16 M66.1 0 C79.24 -2.15, 86.79 7.78, 85.26 19.16 M85.26 19.16 C86.62 33.36, 85.17 43.68, 85.26 57.48 M85.26 19.16 C85.11 30.91, 85.5 42.07, 85.26 57.48 M85.26 57.48 C83.51 70.7, 79.31 77.3, 66.1 76.64 M85.26 57.48 C86.54 72.4, 78.89 76.43, 66.1 76.64 M66.1 76.64 C50.94 77.41, 34.69 78.05, 19.16 76.64 M66.1 76.64 C53.69 76.81, 41.03 77.28, 19.16 76.64 M19.16 76.64 C5.28 75.55, -1.76 71.36, 0 57.48 M19.16 76.64 C4.76 76.48, 0.56 69.86, 0 57.48 M0 57.48 C0.64 47.46, 0.97 41.76, 0 19.16 M0 57.48 C-0.6 43.74, 0.66 30.52, 0 19.16 M0 19.16 C-0.05 5.84, 4.76 0.47, 19.16 0 M0 19.16 C0.48 7.19, 6.48 -1.45, 19.16 0" stroke="#1e1e1e" stroke-width="2" fill="none"></path></g><g stroke-linecap="round" transform="translate(36.694526404033695 102.14701704545405) rotate(0 19.283203125 7.48828125)"><path d="M3.74 0 C12.15 -1.42, 23.01 -1.22, 34.82 0 C39.03 -1.16, 36.54 3.41, 38.57 3.74 C37.81 5.13, 37.9 8.59, 38.57 11.23 C38.76 14.7, 38.04 13.11, 34.82 14.98 C22.99 16.62, 15.05 12.6, 3.74 14.98 C0.83 13.64, 2.23 14.19, 0 11.23 C0.39 8.72, 0.78 6.16, 0 3.74 C2.5 2.77, 0.99 -0.32, 3.74 0" stroke="none" stroke-width="0" fill="#868e96"></path><path d="M3.74 0 C15.11 -0.28, 25.53 0.29, 34.82 0 M3.74 0 C11.75 -0.49, 19.97 0.17, 34.82 0 M34.82 0 C37.35 0.4, 38.73 0.31, 38.57 3.74 M34.82 0 C38.08 0.7, 38.99 0.69, 38.57 3.74 M38.57 3.74 C38.61 5.69, 38.55 7.79, 38.57 11.23 M38.57 3.74 C38.68 6.03, 38.41 8.02, 38.57 11.23 M38.57 11.23 C38.78 14.05, 37.87 15.91, 34.82 14.98 M38.57 11.23 C38.58 13.62, 37.81 14.38, 34.82 14.98 M34.82 14.98 C24.51 15.62, 13.13 14.28, 3.74 14.98 M34.82 14.98 C25.59 15.32, 15.99 14.73, 3.74 14.98 M3.74 14.98 C0.37 15.53, -0.71 13.65, 0 11.23 M3.74 14.98 C1.53 14.78, -0.95 14.79, 0 11.23 M0 11.23 C0.23 8.42, 0.17 5.22, 0 3.74 M0 11.23 C0.14 8.74, 0.02 6.27, 0 3.74 M0 3.74 C-0.81 1.48, 1.46 0.35, 3.74 0 M0 3.74 C0.05 0.52, 0.72 -1.05, 3.74 0" stroke="#1e1e1e" stroke-width="2" fill="none"></path></g><g stroke-linecap="round" transform="translate(36.88039879986718 10) rotate(0 19.283203125 7.48828125)"><path d="M3.74 0 C9.41 -1.33, 18.12 -0.88, 34.82 0 C35.3 2.16, 38.92 0.63, 38.57 3.74 C37.85 6.06, 38.57 8.45, 38.57 11.23 C39.29 11.86, 38.27 12.95, 34.82 14.98 C29.22 13.24, 20.89 13.95, 3.74 14.98 C3.48 15.44, 1 14.7, 0 11.23 C0.77 9.61, 0.89 8.55, 0 3.74 C-0.26 0.93, -0.55 2.06, 3.74 0" stroke="none" stroke-width="0" fill="#868e96"></path><path d="M3.74 0 C13.17 0.33, 21.87 0.52, 34.82 0 M3.74 0 C14.19 0.36, 24.15 0.34, 34.82 0 M34.82 0 C37.48 -0.94, 39.23 1.85, 38.57 3.74 M34.82 0 C37.74 -0.56, 38.47 2.14, 38.57 3.74 M38.57 3.74 C38.52 6.16, 38.5 9.28, 38.57 11.23 M38.57 3.74 C38.42 6.6, 38.63 9.43, 38.57 11.23 M38.57 11.23 C39.12 14.66, 37.33 14.88, 34.82 14.98 M38.57 11.23 C39.05 13.13, 37.82 15.5, 34.82 14.98 M34.82 14.98 C24.31 14.33, 14.42 15.24, 3.74 14.98 M34.82 14.98 C24.68 14.8, 14.64 15.35, 3.74 14.98 M3.74 14.98 C0.54 14.9, 0.24 13.55, 0 11.23 M3.74 14.98 C0.29 16.03, 1.14 14.3, 0 11.23 M0 11.23 C0.16 9.58, 0.08 7.77, 0 3.74 M0 11.23 C-0.03 9.19, -0.18 7.3, 0 3.74 M0 3.74 C0.21 1.6, 1.29 -0.63, 3.74 0 M0 3.74 C-0.53 0.2, 1.49 -0.02, 3.74 0" stroke="#343a40" stroke-width="2" fill="none"></path></g><g stroke-linecap="round" transform="translate(13.186373760761398 24.156708609438283) rotate(47.524435689906944 13.974609375 10.47265625)"><path d="M5.24 0 C11.33 -1.21, 10.85 2.81, 22.71 0 C26.69 -0.86, 27.58 -0.97, 27.95 5.24 C27.97 8.05, 28.35 8.09, 27.95 15.71 C29.27 16.39, 23.23 19.06, 22.71 20.95 C15.64 19.08, 12.28 21.26, 5.24 20.95 C3.14 22.29, -2.98 20.77, 0 15.71 C1.65 13.64, -0.34 9.14, 0 5.24 C-2.49 4.59, 2.35 -2.78, 5.24 0" stroke="none" stroke-width="0" fill="#d0bfff"></path><path d="M5.24 0 C9.23 0.78, 15.21 0.01, 22.71 0 M5.24 0 C8.95 0.27, 12.74 -0.89, 22.71 0 M22.71 0 C27.54 1.21, 28.68 0.77, 27.95 5.24 M22.71 0 C26.02 1.78, 29.45 1.85, 27.95 5.24 M27.95 5.24 C27.75 7.9, 28.73 10.78, 27.95 15.71 M27.95 5.24 C27.97 9.52, 28.15 13.95, 27.95 15.71 M27.95 15.71 C27.97 19.01, 27.05 19.91, 22.71 20.95 M27.95 15.71 C28.96 20.26, 26.85 21.79, 22.71 20.95 M22.71 20.95 C16.4 21.12, 10.44 20.99, 5.24 20.95 M22.71 20.95 C15.58 21.33, 9.36 20.79, 5.24 20.95 M5.24 20.95 C2.23 20.6, -1.66 21.04, 0 15.71 M5.24 20.95 C4.02 22.09, -1.96 20.72, 0 15.71 M0 15.71 C0.24 11.41, -0.41 9.11, 0 5.24 M0 15.71 C-0.42 12.88, 0.11 9.98, 0 5.24 M0 5.24 C0.08 0.48, 0.82 -1.83, 5.24 0 M0 5.24 C0.48 1.71, -0.47 -1.38, 5.24 0" stroke="#1e1e1e" stroke-width="2" fill="none"></path></g><g stroke-linecap="round" transform="translate(28.10504480902 38.92300118694311) rotate(47.524435689906944 25.4296875 23.859375)"><path d="M38.14 3.31 C42.85 5.46, 47.6 10.35, 49.55 14.91 C51.5 19.48, 51.7 25.73, 49.85 30.7 C48 35.68, 43.16 41.98, 38.45 44.77 C33.74 47.56, 26.97 48.42, 21.59 47.44 C16.21 46.47, 9.73 42.7, 6.17 38.92 C2.61 35.14, 0.3 29.75, 0.25 24.78 C0.19 19.81, 2.59 13.24, 5.82 9.12 C9.05 4.99, 13.97 0.72, 19.64 0.03 C25.31 -0.65, 35.89 3.93, 39.83 5.02 C43.77 6.11, 43.47 6.42, 43.27 6.59 M21.51 -0.97 C26.96 -2.02, 35.75 1.04, 40.39 3.97 C45.03 6.9, 48.12 11.99, 49.35 16.59 C50.57 21.19, 49.97 26.78, 47.77 31.56 C45.56 36.35, 40.75 42.59, 36.12 45.28 C31.49 47.97, 25.06 49.04, 19.97 47.7 C14.89 46.36, 8.86 41.61, 5.63 37.26 C2.4 32.9, 0.6 26.64, 0.58 21.59 C0.55 16.53, 1.7 10.36, 5.49 6.91 C9.28 3.45, 20.72 1.94, 23.32 0.87 C25.91 -0.21, 21.33 -0.07, 21.06 0.43" stroke="none" stroke-width="0" fill="#d0bfff"></path><path d="M26.32 0.04 C31.71 -0.24, 38.64 2.56, 42.52 6.02 C46.4 9.48, 48.73 15.72, 49.61 20.8 C50.5 25.88, 50.56 32.26, 47.83 36.52 C45.1 40.78, 38.34 44.63, 33.21 46.34 C28.09 48.05, 22.08 48.71, 17.08 46.78 C12.08 44.86, 6.02 39.51, 3.23 34.79 C0.44 30.06, -0.67 23.33, 0.34 18.45 C1.34 13.56, 4.03 8.38, 9.26 5.49 C14.49 2.61, 27.16 1.78, 31.7 1.13 C36.24 0.49, 36.68 1.29, 36.5 1.62 M29.56 0.17 C34.69 0.3, 41.69 3.52, 45.35 7.53 C49.01 11.55, 51.49 18.93, 51.51 24.27 C51.54 29.6, 48.94 35.77, 45.52 39.53 C42.11 43.29, 36.65 45.98, 31.04 46.83 C25.43 47.68, 16.72 47.02, 11.87 44.64 C7.01 42.26, 3.62 37.17, 1.9 32.55 C0.19 27.93, -0.04 21.93, 1.58 16.93 C3.2 11.92, 7.19 5.15, 11.63 2.52 C16.07 -0.11, 25.43 1.45, 28.23 1.14 C31.02 0.83, 28.19 0.46, 28.4 0.68" stroke="#1e1e1e" stroke-width="2" fill="none"></path></g></svg>