<svg version="1.1" xmlns="http://www.w3.org/2000/svg" viewBox="0 0 105.26171875 127.84067844958452" width="105.26171875" height="127.84067844958452">
  <!-- svg-source:excalidraw -->
  
  <defs>
    <style class="style-fonts">
      @font-face {
        font-family: "Virgil";
        src: url("https://excalidraw.com/Virgil.woff2");
      }
      @font-face {
        font-family: "Cascadia";
        src: url("https://excalidraw.com/Cascadia.woff2");
      }
      @font-face {
        font-family: "Assistant";
        src: url("https://excalidraw.com/Assistant-Regular.woff2");
      }
    </style>
    
  </defs>
  <g stroke-linecap="round" transform="translate(10 24.85274621212102) rotate(0 42.630859375 38.322265625)"><path d="M19.16 0 C32.65 1.07, 41.35 1.77, 66.1 0 C75.9 1.57, 85.36 9.41, 85.26 19.16 C85.57 30.24, 83.43 45.03, 85.26 57.48 C85.86 67.48, 77.56 77.63, 66.1 76.64 C51.27 79.76, 38.05 76.55, 19.16 76.64 C6.93 77.23, -3.51 73.66, 0 57.48 C2.76 42.56, 1.9 34.08, 0 19.16 C-0.22 4.69, 5.92 2.21, 19.16 0" stroke="none" stroke-width="0" fill="#a18072"></path><path d="M19.16 0 C30.75 1.04, 41.16 -1.84, 66.1 0 M19.16 0 C34.83 0.78, 49.39 -0.25, 66.1 0 M66.1 0 C79.72 -1.03, 86.14 7.3, 85.26 19.16 M66.1 0 C79.52 0.85, 86.64 5.65, 85.26 19.16 M85.26 19.16 C85.61 28.02, 86.54 35.39, 85.26 57.48 M85.26 19.16 C84.22 28.49, 85.17 37.78, 85.26 57.48 M85.26 57.48 C83.6 72.1, 80.85 77.64, 66.1 76.64 M85.26 57.48 C83.3 71.77, 79.93 77.78, 66.1 76.64 M66.1 76.64 C51.9 77.56, 38.72 76.29, 19.16 76.64 M66.1 76.64 C53.52 77.1, 40.57 76.12, 19.16 76.64 M19.16 76.64 C5.46 74.82, 0.41 70.22, 0 57.48 M19.16 76.64 C4.17 75.27, -1.6 69.67, 0 57.48 M0 57.48 C-1.81 50.02, 0.02 38.76, 0 19.16 M0 57.48 C-0.37 46.53, 0.36 35.65, 0 19.16 M0 19.16 C0.56 4.95, 7.12 -1.56, 19.16 0 M0 19.16 C-1.9 5.18, 8.13 1.03, 19.16 0" stroke="#1e1e1e" stroke-width="2" fill="none"></path></g><g stroke-linecap="round" transform="translate(33.86899266098453 102.14701704545496) rotate(0 19.283203125 7.48828125)"><path d="M3.74 0 C12.47 0.9, 17.04 1.06, 34.82 0 C37.39 2.18, 38.58 3.74, 38.57 3.74 C37.88 7.2, 38.72 8.36, 38.57 11.23 C37.61 14.44, 36.89 15.99, 34.82 14.98 C22.33 14.78, 12.29 15.69, 3.74 14.98 C-1.29 17.43, 0.89 11.63, 0 11.23 C0.3 9.05, -0.12 5.22, 0 3.74 C-0.34 2.85, 2.92 -0.62, 3.74 0" stroke="none" stroke-width="0" fill="#868e96"></path><path d="M3.74 0 C14.55 -0.97, 23.72 0.13, 34.82 0 M3.74 0 C14.08 -0.19, 24.63 -0.4, 34.82 0 M34.82 0 C37.76 0.46, 38.85 1.62, 38.57 3.74 M34.82 0 C38.01 -0.37, 37.72 1.23, 38.57 3.74 M38.57 3.74 C38.81 5.92, 38.37 8.17, 38.57 11.23 M38.57 3.74 C38.59 6.37, 38.38 9.23, 38.57 11.23 M38.57 11.23 C39.55 14.23, 36.47 15.64, 34.82 14.98 M38.57 11.23 C39.09 14.3, 37.18 15.3, 34.82 14.98 M34.82 14.98 C27.33 15.05, 19.91 14.26, 3.74 14.98 M34.82 14.98 C24.79 14.72, 14.48 14.57, 3.74 14.98 M3.74 14.98 C1.45 14.96, -0.96 13.13, 0 11.23 M3.74 14.98 C0.45 14.68, -0.71 14.49, 0 11.23 M0 11.23 C0.08 9.23, -0.01 7.13, 0 3.74 M0 11.23 C0.04 9.8, 0.08 8.09, 0 3.74 M0 3.74 C0.37 0.47, 0.42 -0.53, 3.74 0 M0 3.74 C0.87 1.76, 0.35 -0.18, 3.74 0" stroke="#1e1e1e" stroke-width="2" fill="none"></path></g><g stroke-linecap="round" transform="translate(34.05486505681802 10) rotate(0 19.283203125 7.48828125)"><path d="M3.74 0 C11.47 0.99, 23.57 2.03, 34.82 0 C37.33 2.5, 40.09 0.99, 38.57 3.74 C38.66 5.15, 38.14 8.32, 38.57 11.23 C38.14 14.74, 39.11 13.88, 34.82 14.98 C23.7 15.33, 9.26 17.36, 3.74 14.98 C2.14 12.88, 1.84 15.32, 0 11.23 C-0.1 8.97, -0.16 8.22, 0 3.74 C1.67 0.63, -0.18 1.25, 3.74 0" stroke="none" stroke-width="0" fill="#868e96"></path><path d="M3.74 0 C15.04 0.35, 26.22 0.69, 34.82 0 M3.74 0 C16.18 -0.24, 28.4 0.24, 34.82 0 M34.82 0 C37.6 0.37, 39.16 0.93, 38.57 3.74 M34.82 0 C36.47 -0.02, 38.77 1.45, 38.57 3.74 M38.57 3.74 C38.39 5.73, 38.8 8.12, 38.57 11.23 M38.57 3.74 C38.42 6.11, 38.76 8.22, 38.57 11.23 M38.57 11.23 C37.71 14.39, 37.78 15.47, 34.82 14.98 M38.57 11.23 C38.43 14.05, 36.58 14.58, 34.82 14.98 M34.82 14.98 C23.32 14.16, 12.61 15.18, 3.74 14.98 M34.82 14.98 C24.18 14.42, 14.11 14.87, 3.74 14.98 M3.74 14.98 C0.29 14.38, -0.7 13.47, 0 11.23 M3.74 14.98 C0.54 15.73, -0.51 12.83, 0 11.23 M0 11.23 C-0.04 8.08, -0.38 5.25, 0 3.74 M0 11.23 C0.05 8.74, 0.07 6.36, 0 3.74 M0 3.74 C-0.83 0.72, 2.01 0.45, 3.74 0 M0 3.74 C-0.9 1.06, 0.66 0.99, 3.74 0" stroke="#343a40" stroke-width="2" fill="none"></path></g><g stroke-linecap="round" transform="translate(39.397448168828305 93.26932525149914) rotate(90.684351531919 13.974609375 10.47265625)"><path d="M5.24 0 C11.22 2.5, 17.04 2.88, 22.71 0 C28.32 -0.35, 27.51 -0.75, 27.95 5.24 C27.29 9.72, 27.67 13.91, 27.95 15.71 C30.43 17.69, 28.74 19.52, 22.71 20.95 C14.73 23.97, 13.96 18.46, 5.24 20.95 C4.3 23.15, -2.11 20.54, 0 15.71 C-0.23 13.08, 1.22 7.69, 0 5.24 C-1.98 3.48, -1.74 0.32, 5.24 0" stroke="none" stroke-width="0" fill="#d0bfff"></path><path d="M5.24 0 C9.51 0.93, 14.28 -0.02, 22.71 0 M5.24 0 C10.7 0.49, 15.64 0.41, 22.71 0 M22.71 0 C27.4 -0.64, 26.47 1.72, 27.95 5.24 M22.71 0 C26.61 0.4, 28.17 3.22, 27.95 5.24 M27.95 5.24 C28.47 7.06, 27.81 10.62, 27.95 15.71 M27.95 5.24 C28.38 8.46, 27.42 11.5, 27.95 15.71 M27.95 15.71 C28.86 20.19, 25.96 21.51, 22.71 20.95 M27.95 15.71 C26.46 18.41, 27.61 20.54, 22.71 20.95 M22.71 20.95 C17.92 21.17, 12.92 20.88, 5.24 20.95 M22.71 20.95 C18.75 20.77, 13.59 20.26, 5.24 20.95 M5.24 20.95 C0.35 20.43, -1.24 20.52, 0 15.71 M5.24 20.95 C0.72 19.16, 1.91 19.51, 0 15.71 M0 15.71 C-1.03 12.12, 0.17 10, 0 5.24 M0 15.71 C0.16 11.77, -0.46 8.37, 0 5.24 M0 5.24 C1.52 2.64, 0.18 -0.32, 5.24 0 M0 5.24 C-1.18 3.72, 2.15 0.89, 5.24 0" stroke="#1e1e1e" stroke-width="2" fill="none"></path></g><g stroke-linecap="round" transform="translate(27.748046875 41.53380006718271) rotate(90.684351531919 25.4296875 23.859375)"><path d="M19.92 0.36 C25.01 -1.28, 32.29 -0.38, 36.95 1.88 C41.61 4.15, 45.73 9.1, 47.88 13.95 C50.04 18.8, 51.26 25.94, 49.88 30.98 C48.49 36.03, 44.31 41.37, 39.58 44.19 C34.86 47.01, 27.13 48.72, 21.53 47.9 C15.93 47.07, 9.67 42.93, 5.99 39.25 C2.32 35.56, -0.43 30.89, -0.49 25.79 C-0.56 20.69, 1.61 13.03, 5.62 8.65 C9.62 4.28, 19.72 0.86, 23.52 -0.46 C27.32 -1.78, 28.31 0.2, 28.43 0.74 M16.47 2.02 C21.21 -0.07, 29.01 0.44, 34.01 1.84 C39 3.24, 43.83 6.13, 46.44 10.44 C49.05 14.74, 50.2 22.74, 49.67 27.66 C49.13 32.58, 47.11 36.55, 43.25 39.95 C39.39 43.35, 32.04 47.46, 26.52 48.08 C21 48.7, 14.26 46.87, 10.13 43.67 C6 40.47, 2.83 34.04, 1.76 28.88 C0.68 23.72, 1.49 17.14, 3.69 12.69 C5.89 8.25, 12.93 4.19, 14.93 2.24 C16.92 0.29, 15.2 0.58, 15.66 0.99" stroke="none" stroke-width="0" fill="#d0bfff"></path><path d="M25.02 0.44 C30.28 0.13, 38 2.6, 42.31 5.92 C46.62 9.25, 50.06 15.54, 50.86 20.41 C51.65 25.28, 49.89 30.79, 47.08 35.13 C44.28 39.48, 39.06 44.62, 34.02 46.49 C28.97 48.36, 21.82 48.23, 16.81 46.35 C11.81 44.46, 6.82 39.76, 4 35.15 C1.17 30.55, -1.1 23.8, -0.14 18.74 C0.81 13.68, 4.22 7.72, 9.71 4.81 C15.2 1.9, 27.9 1.49, 32.8 1.29 C37.71 1.09, 39.09 3.1, 39.13 3.61 M32.38 1.48 C37.66 2.28, 42.98 6.4, 45.89 10.34 C48.8 14.28, 50.04 20.13, 49.82 25.12 C49.6 30.1, 48.21 36.57, 44.56 40.25 C40.91 43.92, 33.71 46.57, 27.94 47.19 C22.16 47.8, 14.34 46.65, 9.89 43.93 C5.45 41.21, 2.53 35.99, 1.27 30.86 C0 25.72, 0.24 18.09, 2.31 13.11 C4.38 8.13, 8.74 3.07, 13.69 1 C18.64 -1.07, 29.26 0.83, 32 0.71 C34.74 0.59, 30.45 -0.03, 30.12 0.3" stroke="#1e1e1e" stroke-width="2" fill="none"></path></g></svg>