<svg version="1.1" xmlns="http://www.w3.org/2000/svg" viewBox="0 0 106.9432792787634 127.12357954545405" width="106.9432792787634" height="127.12357954545405">
  <!-- svg-source:excalidraw -->
  
  <defs>
    <style class="style-fonts">
      @font-face {
        font-family: "Virgil";
        src: url("https://excalidraw.com/Virgil.woff2");
      }
      @font-face {
        font-family: "Cascadia";
        src: url("https://excalidraw.com/Cascadia.woff2");
      }
      @font-face {
        font-family: "Assistant";
        src: url("https://excalidraw.com/Assistant-Regular.woff2");
      }
    </style>
    
  </defs>
  <g stroke-linecap="round" transform="translate(11.681560528763399 24.85274621212011) rotate(0 42.630859375 38.322265625)"><path d="M19.16 0 C31 1.09, 45.22 -3.2, 66.1 0 C76.98 2.73, 86.87 3.56, 85.26 19.16 C85.55 31.44, 86.25 37.95, 85.26 57.48 C86.83 70.36, 81.9 76.66, 66.1 76.64 C47.08 74.07, 31.77 77.16, 19.16 76.64 C3.61 75.33, 0.99 69.67, 0 57.48 C2.06 43.07, -1.15 32.06, 0 19.16 C0.59 2.88, 9.79 1.23, 19.16 0" stroke="none" stroke-width="0" fill="#a18072"></path><path d="M19.16 0 C35.4 -0.33, 55.12 1.13, 66.1 0 M19.16 0 C32.61 -0.11, 47.94 0.82, 66.1 0 M66.1 0 C80 1.85, 83.51 6.83, 85.26 19.16 M66.1 0 C79.37 0.75, 86.54 8.53, 85.26 19.16 M85.26 19.16 C84.19 31.56, 86.14 42.78, 85.26 57.48 M85.26 19.16 C84.75 32.05, 85.67 45.15, 85.26 57.48 M85.26 57.48 C85.46 71.54, 77.77 75.55, 66.1 76.64 M85.26 57.48 C83.24 71.52, 77.24 76.48, 66.1 76.64 M66.1 76.64 C52.71 78.23, 36.64 74.55, 19.16 76.64 M66.1 76.64 C48.8 77.16, 31.1 76.53, 19.16 76.64 M19.16 76.64 C7.61 76.29, -0.05 69.71, 0 57.48 M19.16 76.64 C4.52 77.19, 0.48 71.06, 0 57.48 M0 57.48 C-1.58 46.24, 0.21 32.24, 0 19.16 M0 57.48 C-0.35 48.94, -0.18 38.31, 0 19.16 M0 19.16 C1.66 6.66, 5.91 -0.2, 19.16 0 M0 19.16 C-1.74 4.11, 4.86 0.35, 19.16 0" stroke="#1e1e1e" stroke-width="2" fill="none"></path></g><g stroke-linecap="round" transform="translate(35.550553189748385 102.14701704545405) rotate(0 19.283203125 7.48828125)"><path d="M3.74 0 C11.9 -2.29, 22.75 1.83, 34.82 0 C38.48 -2.04, 38.15 -0.09, 38.57 3.74 C38.95 5.83, 39.01 9.55, 38.57 11.23 C40.75 13.74, 39.81 16.5, 34.82 14.98 C27.86 15.13, 14.78 13.74, 3.74 14.98 C1.96 14.55, 1.01 15.52, 0 11.23 C-0.25 9.45, 0.09 6.42, 0 3.74 C2.45 2.14, -0.85 1.84, 3.74 0" stroke="none" stroke-width="0" fill="#868e96"></path><path d="M3.74 0 C14.97 0.66, 24.7 -0.62, 34.82 0 M3.74 0 C12.75 0.41, 21.85 0.49, 34.82 0 M34.82 0 C36.44 0.22, 38.78 1.57, 38.57 3.74 M34.82 0 C37.96 1.07, 38.58 1.14, 38.57 3.74 M38.57 3.74 C38.72 6.41, 38.68 9.1, 38.57 11.23 M38.57 3.74 C38.57 5.78, 38.56 7.88, 38.57 11.23 M38.57 11.23 C38.01 13.18, 36.44 15.53, 34.82 14.98 M38.57 11.23 C37.75 13.64, 37.6 14.78, 34.82 14.98 M34.82 14.98 C28.57 14.28, 21.99 15.59, 3.74 14.98 M34.82 14.98 C23.64 14.85, 13.4 14.93, 3.74 14.98 M3.74 14.98 C1.22 14.7, -0.81 13.96, 0 11.23 M3.74 14.98 C1.49 15.38, 0.05 13, 0 11.23 M0 11.23 C0.03 8.97, -0.19 7.17, 0 3.74 M0 11.23 C-0.06 9.03, 0.18 7.15, 0 3.74 M0 3.74 C-0.24 1.15, 0.49 -0.99, 3.74 0 M0 3.74 C-0.76 1.42, 1.33 0.43, 3.74 0" stroke="#1e1e1e" stroke-width="2" fill="none"></path></g><g stroke-linecap="round" transform="translate(35.736425585581415 10) rotate(0 19.283203125 7.48828125)"><path d="M3.74 0 C12.84 2.31, 25.83 -1.71, 34.82 0 C36.9 -1.34, 40.8 1.71, 38.57 3.74 C39.03 6.31, 39.42 8.82, 38.57 11.23 C41.06 15.25, 37.06 14.66, 34.82 14.98 C25.64 14.09, 21.2 14.62, 3.74 14.98 C2.26 16.77, -1.09 15.56, 0 11.23 C0.18 8.33, 0.94 7.67, 0 3.74 C-2.1 3.09, 2.84 -1.53, 3.74 0" stroke="none" stroke-width="0" fill="#868e96"></path><path d="M3.74 0 C12.86 -0.74, 21.75 -0.96, 34.82 0 M3.74 0 C12.81 0.35, 20.88 -0.01, 34.82 0 M34.82 0 C37.53 0.33, 39.12 2.18, 38.57 3.74 M34.82 0 C37.33 -0.11, 39.05 0.65, 38.57 3.74 M38.57 3.74 C38.72 6.54, 38.46 8.62, 38.57 11.23 M38.57 3.74 C38.59 6.1, 38.47 8.11, 38.57 11.23 M38.57 11.23 C37.69 14.28, 36.61 14.9, 34.82 14.98 M38.57 11.23 C38.85 13.53, 36.36 16.03, 34.82 14.98 M34.82 14.98 C23.09 15.3, 10.53 14.72, 3.74 14.98 M34.82 14.98 C24.93 14.83, 14.42 14.79, 3.74 14.98 M3.74 14.98 C0.43 15.21, 0.21 14.08, 0 11.23 M3.74 14.98 C1.3 14.25, -0.53 12.68, 0 11.23 M0 11.23 C-0.22 8.57, -0.1 6.2, 0 3.74 M0 11.23 C0.17 8.52, -0.03 5.73, 0 3.74 M0 3.74 C-0.76 0.26, 0.59 0.15, 3.74 0 M0 3.74 C0.09 1.68, 1.57 -0.83, 3.74 0" stroke="#343a40" stroke-width="2" fill="none"></path></g><g stroke-linecap="round" transform="translate(13.186373760761413 77.90604504315706) rotate(312.47556431009303 13.974609375000004 10.47265625)"><path d="M5.24 0 C10.44 -2.71, 12.34 -1.86, 22.71 0 C29.3 0.64, 29.34 3.09, 27.95 5.24 C29.61 7.52, 29.84 10.89, 27.95 15.71 C27.6 18.76, 23.71 23.79, 22.71 20.95 C18.04 20.31, 12.87 23, 5.24 20.95 C0.23 23.48, -1.42 18.53, 0 15.71 C1.75 13.05, -1.55 10.45, 0 5.24 C2.2 -0.37, 3.09 2.21, 5.24 0" stroke="none" stroke-width="0" fill="#d0bfff"></path><path d="M5.24 0 C11.39 -1.38, 17.7 0.42, 22.71 0 M5.24 0 C11.04 0.03, 18.56 0.12, 22.71 0 M22.71 0 C27.31 1.86, 27.97 1.56, 27.95 5.24 M22.71 0 C27.18 -1.19, 28.96 2.8, 27.95 5.24 M27.95 5.24 C27.65 7.9, 27.97 12.29, 27.95 15.71 M27.95 5.24 C27.67 8.28, 27.5 12.18, 27.95 15.71 M27.95 15.71 C26.53 19.05, 26.69 20.6, 22.71 20.95 M27.95 15.71 C26.04 21.31, 28.48 22.09, 22.71 20.95 M22.71 20.95 C19.82 20.81, 15.69 19.9, 5.24 20.95 M22.71 20.95 C18.05 20.67, 12.72 21.12, 5.24 20.95 M5.24 20.95 C2.16 21.64, 0.08 17.94, 0 15.71 M5.24 20.95 C0.68 18.85, 0.48 19.16, 0 15.71 M0 15.71 C-0.21 12.93, 0.75 10.97, 0 5.24 M0 15.71 C-0.21 13.33, -0.48 10.54, 0 5.24 M0 5.24 C-1.32 2.05, 1.9 0.75, 5.24 0 M0 5.24 C0.64 0.09, 2.59 -1.79, 5.24 0" stroke="#1e1e1e" stroke-width="2" fill="none"></path></g><g stroke-linecap="round" transform="translate(28.10504480902047 37.022564965653146) rotate(312.47556431009303 25.429687500000007 23.859375)"><path d="M19.58 -0.33 C24.6 -1.89, 31.45 -0.5, 36.27 1.86 C41.1 4.21, 46.18 9.08, 48.54 13.82 C50.9 18.56, 52.1 25.15, 50.44 30.29 C48.78 35.42, 43.24 41.8, 38.6 44.64 C33.95 47.48, 27.88 48.18, 22.58 47.32 C17.28 46.45, 10.73 43.25, 6.81 39.45 C2.89 35.66, -0.68 29.52, -0.95 24.55 C-1.22 19.59, 1.41 13.66, 5.21 9.66 C9 5.66, 18.92 2.03, 21.83 0.57 C24.73 -0.88, 22.78 0.72, 22.65 0.92 M17.65 0.58 C22.25 -0.87, 30.21 1.22, 35.39 3.52 C40.57 5.81, 46.21 10.13, 48.74 14.34 C51.26 18.55, 51.9 23.93, 50.56 28.78 C49.21 33.63, 45.03 40.29, 40.69 43.44 C36.34 46.58, 29.79 47.94, 24.49 47.64 C19.19 47.33, 12.99 45.27, 8.9 41.62 C4.81 37.98, 0.84 30.82, -0.05 25.77 C-0.94 20.73, 0.36 15.73, 3.55 11.37 C6.74 7.02, 16.6 1.27, 19.08 -0.34 C21.56 -1.96, 18.39 1.02, 18.41 1.69" stroke="none" stroke-width="0" fill="#d0bfff"></path><path d="M28.63 -0.78 C33.73 -0.71, 39.93 3.38, 43.67 7.24 C47.42 11.1, 50.51 17.33, 51.09 22.39 C51.67 27.45, 50.36 33.44, 47.16 37.6 C43.95 41.76, 37.37 45.96, 31.86 47.34 C26.35 48.73, 18.95 48.09, 14.11 45.9 C9.27 43.7, 4.96 38.79, 2.82 34.17 C0.67 29.56, -0.04 23.33, 1.25 18.23 C2.54 13.12, 5.81 6.49, 10.57 3.54 C15.33 0.6, 26.25 0.9, 29.82 0.54 C33.39 0.17, 31.94 1.08, 31.98 1.35 M17.49 0.78 C22.67 -1.01, 31.33 -0.5, 36.27 1.86 C41.2 4.21, 44.56 10.12, 47.1 14.9 C49.65 19.67, 52.9 25.62, 51.55 30.51 C50.2 35.4, 43.54 41.25, 38.99 44.23 C34.43 47.21, 29.45 48.87, 24.2 48.39 C18.95 47.91, 11.66 45.13, 7.48 41.35 C3.31 37.57, -0.49 30.91, -0.84 25.71 C-1.2 20.5, 2.12 14.35, 5.34 10.14 C8.57 5.94, 16.5 1.88, 18.52 0.47 C20.54 -0.93, 17.3 1.16, 17.47 1.7" stroke="#1e1e1e" stroke-width="2" fill="none"></path></g></svg>