<svg version="1.1" xmlns="http://www.w3.org/2000/svg" viewBox="0 0 116.80622209821377 127.12357954545405" width="116.80622209821377" height="127.12357954545405">
  <!-- svg-source:excalidraw -->
  
  <defs>
    <style class="style-fonts">
      @font-face {
        font-family: "Virgil";
        src: url("https://excalidraw.com/Virgil.woff2");
      }
      @font-face {
        font-family: "Cascadia";
        src: url("https://excalidraw.com/Cascadia.woff2");
      }
      @font-face {
        font-family: "Assistant";
        src: url("https://excalidraw.com/Assistant-Regular.woff2");
      }
    </style>
    
  </defs>
  <g stroke-linecap="round" transform="translate(21.544503348213766 24.85274621212011) rotate(0 42.630859375 38.322265625)"><path d="M19.16 0 C31.63 -1.56, 42.76 -3.42, 66.1 0 C75.31 -2.38, 85.81 6.66, 85.26 19.16 C86.77 29.29, 82.48 43.14, 85.26 57.48 C88 71.86, 76.05 76.07, 66.1 76.64 C55.82 78.14, 39.79 78.37, 19.16 76.64 C6.49 79.67, 0.01 73.71, 0 57.48 C-2.43 46.59, 0.67 27.21, 0 19.16 C-1.32 7.38, 5.8 1.4, 19.16 0" stroke="none" stroke-width="0" fill="#a18072"></path><path d="M19.16 0 C33.68 1, 52.65 0.05, 66.1 0 M19.16 0 C35.79 1.04, 51.46 -0.05, 66.1 0 M66.1 0 C78.71 1.55, 86.57 6.48, 85.26 19.16 M66.1 0 C77.42 -0.3, 83.3 5.99, 85.26 19.16 M85.26 19.16 C87.41 29.59, 85.99 43.96, 85.26 57.48 M85.26 19.16 C85.48 31.81, 85.9 44.13, 85.26 57.48 M85.26 57.48 C86.14 71.18, 79.44 77.38, 66.1 76.64 M85.26 57.48 C86.64 69.52, 77.17 76.61, 66.1 76.64 M66.1 76.64 C52.48 75.59, 35.2 74.93, 19.16 76.64 M66.1 76.64 C49.69 76.44, 31.96 77.53, 19.16 76.64 M19.16 76.64 C8.36 77.64, -1.7 71.58, 0 57.48 M19.16 76.64 C7.44 77.78, -0.28 70.9, 0 57.48 M0 57.48 C-0.22 48.41, -0.42 37.81, 0 19.16 M0 57.48 C-0.04 44.45, -0.54 31.78, 0 19.16 M0 19.16 C0.41 6.35, 4.46 -1.2, 19.16 0 M0 19.16 C-1.6 5.8, 4.96 1.51, 19.16 0" stroke="#1e1e1e" stroke-width="2" fill="none"></path></g><g stroke-linecap="round" transform="translate(45.41349600919875 102.14701704545405) rotate(0 19.283203125 7.48828125)"><path d="M3.74 0 C15.38 -1.87, 24.98 -1.63, 34.82 0 C37.72 0.2, 39.54 1.97, 38.57 3.74 C37.8 4.94, 39.34 7.59, 38.57 11.23 C36.53 13.31, 35.98 17.21, 34.82 14.98 C22.79 16.26, 15.14 17.31, 3.74 14.98 C1.26 17.47, 1.52 13.47, 0 11.23 C0.23 8.32, -0.29 7.19, 0 3.74 C-0.43 2.26, 3.04 -1.09, 3.74 0" stroke="none" stroke-width="0" fill="#868e96"></path><path d="M3.74 0 C13.61 -0.05, 23.01 0.08, 34.82 0 M3.74 0 C10.34 -0.34, 16.53 0.29, 34.82 0 M34.82 0 C37.97 0.05, 37.93 1.12, 38.57 3.74 M34.82 0 C36.34 -0.2, 38.77 2.12, 38.57 3.74 M38.57 3.74 C38.68 6.49, 38.72 9.29, 38.57 11.23 M38.57 3.74 C38.65 6.59, 38.65 9.72, 38.57 11.23 M38.57 11.23 C38.85 14.1, 37.92 14.66, 34.82 14.98 M38.57 11.23 C37.72 13.71, 37.52 15.18, 34.82 14.98 M34.82 14.98 C24.65 14.01, 16.11 14.18, 3.74 14.98 M34.82 14.98 C25.31 15.41, 17.13 15.2, 3.74 14.98 M3.74 14.98 C0.4 15.64, 0.46 14.22, 0 11.23 M3.74 14.98 C1.11 15.3, -0.74 13.33, 0 11.23 M0 11.23 C-0.1 8.22, 0.09 5.9, 0 3.74 M0 11.23 C-0.09 8.55, 0.04 6.21, 0 3.74 M0 3.74 C-0.96 0.65, 0.55 -0.26, 3.74 0 M0 3.74 C-0.71 2, 0.73 -0.89, 3.74 0" stroke="#1e1e1e" stroke-width="2" fill="none"></path></g><g stroke-linecap="round" transform="translate(45.59936840503178 10) rotate(0 19.283203125 7.48828125)"><path d="M3.74 0 C9.76 -1.42, 21.31 0.5, 34.82 0 C38.29 0.72, 36.7 2.2, 38.57 3.74 C39.23 5.84, 37.72 6.91, 38.57 11.23 C37.23 15.96, 37.78 15.98, 34.82 14.98 C24.41 17.34, 13.87 17.65, 3.74 14.98 C2.77 14.72, -0.32 11.93, 0 11.23 C-0.37 8.66, -0.18 5.93, 0 3.74 C1.79 0.15, 3.08 -1.03, 3.74 0" stroke="none" stroke-width="0" fill="#868e96"></path><path d="M3.74 0 C15.05 0.15, 24.62 0.66, 34.82 0 M3.74 0 C14.91 0.46, 26.48 0.1, 34.82 0 M34.82 0 C36.68 -0.13, 37.71 1.07, 38.57 3.74 M34.82 0 C37.52 0.87, 39.21 2.31, 38.57 3.74 M38.57 3.74 C38.7 5.54, 38.92 6.93, 38.57 11.23 M38.57 3.74 C38.66 6.01, 38.63 8.16, 38.57 11.23 M38.57 11.23 C39.16 13.41, 36.58 14.96, 34.82 14.98 M38.57 11.23 C38.77 13.93, 37.43 15.71, 34.82 14.98 M34.82 14.98 C27.76 14.13, 19.53 15.08, 3.74 14.98 M34.82 14.98 C26.53 15.37, 16.83 15.45, 3.74 14.98 M3.74 14.98 C1.71 15.47, -0.12 14.01, 0 11.23 M3.74 14.98 C0.51 14.58, 0.7 13.53, 0 11.23 M0 11.23 C0.1 9.08, 0.14 6.79, 0 3.74 M0 11.23 C0.06 9.46, -0.16 7.57, 0 3.74 M0 3.74 C-0.7 0.99, 0.63 0.66, 3.74 0 M0 3.74 C-0.51 0.35, 2.2 0.15, 3.74 0" stroke="#343a40" stroke-width="2" fill="none"></path></g><g stroke-linecap="round" transform="translate(10 53.475852272726115) rotate(0 13.974609375 10.47265625)"><path d="M5.24 0 C9.64 0.44, 14.26 1.08, 22.71 0 C23.61 1.32, 25.14 -1.22, 27.95 5.24 C26.61 7.53, 27.12 12.04, 27.95 15.71 C28.59 20.59, 27.54 17.97, 22.71 20.95 C16.72 24.23, 12.54 20.9, 5.24 20.95 C1.31 18.45, 2.85 19.8, 0 15.71 C-0.24 14.11, 1.37 10.25, 0 5.24 C2.54 0.32, 1.07 0.54, 5.24 0" stroke="none" stroke-width="0" fill="#d0bfff"></path><path d="M5.24 0 C8.9 1.14, 16.89 0.61, 22.71 0 M5.24 0 C10.2 -0.09, 13.47 -0.25, 22.71 0 M22.71 0 C24.5 -0.35, 28.31 3.26, 27.95 5.24 M22.71 0 C27.5 2.13, 25.93 2.25, 27.95 5.24 M27.95 5.24 C28.96 8.61, 27.88 12.42, 27.95 15.71 M27.95 5.24 C28.14 8.03, 28.31 10.27, 27.95 15.71 M27.95 15.71 C26.47 19.17, 26.55 21.3, 22.71 20.95 M27.95 15.71 C28.17 20.68, 24.93 19.69, 22.71 20.95 M22.71 20.95 C18.88 21.25, 15 19.37, 5.24 20.95 M22.71 20.95 C15.12 21.61, 9.41 21.47, 5.24 20.95 M5.24 20.95 C1.5 21.51, -1.29 18.51, 0 15.71 M5.24 20.95 C3.15 20.54, -0.06 18.57, 0 15.71 M0 15.71 C0.34 13.46, -0.69 10.64, 0 5.24 M0 15.71 C-0.53 13.21, -0.39 11.2, 0 5.24 M0 5.24 C-1.24 3.06, 0.85 -1.56, 5.24 0 M0 5.24 C1.91 2.05, 1.2 -0.24, 5.24 0" stroke="#1e1e1e" stroke-width="2" fill="none"></path></g><g stroke-linecap="round" transform="translate(36.888671875 39.436789772726115) rotate(0 25.4296875 23.859375)"><path d="M32.8 0.29 C37.91 1.5, 44.08 6.8, 47.11 11.25 C50.14 15.71, 51.85 22.06, 50.99 27.02 C50.13 31.98, 46.2 37.51, 41.98 40.99 C37.75 44.47, 30.96 47.76, 25.62 47.9 C20.28 48.04, 14.2 45.09, 9.93 41.82 C5.66 38.56, 1.22 33.26, 0 28.33 C-1.22 23.39, -0.11 16.71, 2.62 12.22 C5.34 7.73, 11.09 2.97, 16.36 1.37 C21.63 -0.24, 30.84 2.36, 34.25 2.6 C37.66 2.83, 36.86 2.66, 36.82 2.76 M13.47 3.42 C18.11 0.63, 25.58 -1.33, 30.99 -0.59 C36.39 0.16, 42.82 3.83, 45.93 7.89 C49.03 11.95, 49.67 18.35, 49.61 23.76 C49.55 29.18, 49.18 36.48, 45.57 40.39 C41.96 44.3, 33.65 46.38, 27.94 47.23 C22.23 48.07, 15.71 48, 11.31 45.46 C6.91 42.91, 3.05 37.22, 1.56 31.95 C0.07 26.67, 0.28 18.65, 2.35 13.81 C4.43 8.97, 11.93 4.66, 14.01 2.9 C16.1 1.15, 14.53 2.8, 14.86 3.29" stroke="none" stroke-width="0" fill="#d0bfff"></path><path d="M30.81 1.05 C36.05 1.54, 41.76 4.34, 45.08 8.03 C48.4 11.72, 50.8 17.94, 50.73 23.19 C50.65 28.44, 48 35.39, 44.61 39.52 C41.22 43.64, 35.6 47.28, 30.41 47.95 C25.22 48.62, 18.26 46.2, 13.47 43.55 C8.68 40.9, 3.61 36.64, 1.69 32.06 C-0.24 27.48, -0.09 20.9, 1.93 16.08 C3.95 11.25, 8.11 5.34, 13.82 3.11 C19.53 0.88, 31.67 2.16, 36.19 2.71 C40.72 3.26, 41.06 6.08, 40.97 6.42 M28.98 0.38 C34.02 1.1, 41.66 4.85, 45.33 8.96 C49 13.08, 51.24 20.12, 51.01 25.05 C50.77 29.98, 47.71 34.69, 43.92 38.55 C40.14 42.41, 33.7 47.26, 28.28 48.22 C22.87 49.18, 15.85 47.08, 11.44 44.3 C7.03 41.52, 3.66 36.11, 1.82 31.54 C-0.03 26.97, -1.72 21.48, 0.37 16.86 C2.47 12.24, 9.67 6.41, 14.41 3.83 C19.15 1.25, 26.1 1.76, 28.81 1.39 C31.52 1.02, 30.57 1.32, 30.68 1.62" stroke="#1e1e1e" stroke-width="2" fill="none"></path></g></svg>