<svg version="1.1" xmlns="http://www.w3.org/2000/svg" viewBox="0 0 105.26171875 129.23744184244413" width="105.26171875" height="129.23744184244413">
  <!-- svg-source:excalidraw -->
  
  <defs>
    <style class="style-fonts">
      @font-face {
        font-family: "Virgil";
        src: url("https://excalidraw.com/Virgil.woff2");
      }
      @font-face {
        font-family: "Cascadia";
        src: url("https://excalidraw.com/Cascadia.woff2");
      }
      @font-face {
        font-family: "Assistant";
        src: url("https://excalidraw.com/Assistant-Regular.woff2");
      }
    </style>
    
  </defs>
  <g stroke-linecap="round" transform="translate(10 26.966608509110202) rotate(0 42.630859375 38.322265625)"><path d="M19.16 0 C35.12 -2.91, 53.91 0.77, 66.1 0 C80.13 0.15, 82.99 4.72, 85.26 19.16 C81.94 25, 82.9 34.23, 85.26 57.48 C83.03 72.63, 77.26 73.85, 66.1 76.64 C47.75 73.72, 26.58 74.06, 19.16 76.64 C6.94 76.91, 1.35 71.26, 0 57.48 C-3.22 46.85, 2.48 41.61, 0 19.16 C-2.83 5.81, 4.54 3.09, 19.16 0" stroke="none" stroke-width="0" fill="#a18072"></path><path d="M19.16 0 C31.7 1.26, 39.34 1.17, 66.1 0 M19.16 0 C36.03 0.38, 53.5 0.17, 66.1 0 M66.1 0 C78.85 1.1, 84.69 6.68, 85.26 19.16 M66.1 0 C79.53 -0.99, 86.35 7.03, 85.26 19.16 M85.26 19.16 C85.79 30.86, 85.72 42.75, 85.26 57.48 M85.26 19.16 C85.88 26.58, 85.44 35.75, 85.26 57.48 M85.26 57.48 C86.57 70.35, 77.61 76.38, 66.1 76.64 M85.26 57.48 C83.3 69.86, 79.29 78.39, 66.1 76.64 M66.1 76.64 C49.81 76.66, 33.3 77.34, 19.16 76.64 M66.1 76.64 C48.07 76.08, 29.63 77.06, 19.16 76.64 M19.16 76.64 C6.95 77.38, 1.2 69.62, 0 57.48 M19.16 76.64 C4.69 76.61, 0.4 70.66, 0 57.48 M0 57.48 C-1.34 43.85, 0.85 32.32, 0 19.16 M0 57.48 C-0.92 47.19, 0.89 35.55, 0 19.16 M0 19.16 C-1.7 7.71, 7.3 0.99, 19.16 0 M0 19.16 C-0.28 7.03, 4.9 -0.79, 19.16 0" stroke="#1e1e1e" stroke-width="2" fill="none"></path></g><g stroke-linecap="round" transform="translate(33.86899266098453 104.26087934244414) rotate(0 19.283203125 7.48828125)"><path d="M3.74 0 C13.6 0.87, 23.15 0.44, 34.82 0 C35.68 -1.2, 36.19 1.79, 38.57 3.74 C37.8 5.73, 37.87 8.85, 38.57 11.23 C37.4 11.71, 39.48 15.33, 34.82 14.98 C23.67 12.95, 18.05 14.87, 3.74 14.98 C2.22 15.7, -1.87 14.68, 0 11.23 C0.82 10, -0.68 7.75, 0 3.74 C-1.34 3.48, 1.71 1, 3.74 0" stroke="none" stroke-width="0" fill="#868e96"></path><path d="M3.74 0 C11.3 0.44, 21.43 -0.47, 34.82 0 M3.74 0 C15.47 0.14, 26.7 0.16, 34.82 0 M34.82 0 C37.03 0.15, 38.85 0.82, 38.57 3.74 M34.82 0 C37.86 0.32, 38.61 0.22, 38.57 3.74 M38.57 3.74 C38.73 6.43, 38.23 9.25, 38.57 11.23 M38.57 3.74 C38.56 6.59, 38.7 9.15, 38.57 11.23 M38.57 11.23 C37.93 13.6, 36.46 14.8, 34.82 14.98 M38.57 11.23 C38.77 14.6, 37.97 16.04, 34.82 14.98 M34.82 14.98 C28.55 15.56, 22.56 15.02, 3.74 14.98 M34.82 14.98 C26.01 15.13, 16.9 15.08, 3.74 14.98 M3.74 14.98 C1.85 14.66, -0.74 13.71, 0 11.23 M3.74 14.98 C1.45 15.18, 0.11 14.47, 0 11.23 M0 11.23 C0.23 9.13, -0.01 7.66, 0 3.74 M0 11.23 C0.22 9.21, -0.13 7.12, 0 3.74 M0 3.74 C0.46 1.74, 1.13 0.28, 3.74 0 M0 3.74 C-0.74 0.85, 1.95 -0.2, 3.74 0" stroke="#1e1e1e" stroke-width="2" fill="none"></path></g><g stroke-linecap="round" transform="translate(34.05486505681802 12.113862296989183) rotate(0 19.283203125 7.48828125)"><path d="M3.74 0 C11.45 0.03, 15.69 -1.29, 34.82 0 C34.95 0.54, 38.52 -1.25, 38.57 3.74 C37.9 6.18, 38.06 6.58, 38.57 11.23 C40.73 14.08, 36.7 14.71, 34.82 14.98 C28.24 14.9, 21.84 15.43, 3.74 14.98 C-0.62 15.93, -2.03 11.58, 0 11.23 C-0.84 9.22, -0.57 8.36, 0 3.74 C0.46 2.25, 2.22 -2.15, 3.74 0" stroke="none" stroke-width="0" fill="#868e96"></path><path d="M3.74 0 C15.44 -0.46, 26.62 -0.15, 34.82 0 M3.74 0 C15.25 0.2, 26.63 0, 34.82 0 M34.82 0 C37.6 -0.43, 39.04 1.53, 38.57 3.74 M34.82 0 C37.36 -1.03, 39.15 1.75, 38.57 3.74 M38.57 3.74 C38.23 6.26, 38.81 8.42, 38.57 11.23 M38.57 3.74 C38.69 5.63, 38.44 7.48, 38.57 11.23 M38.57 11.23 C37.71 13.56, 37.5 15.73, 34.82 14.98 M38.57 11.23 C39.21 14.79, 36.31 15.23, 34.82 14.98 M34.82 14.98 C25.76 15.07, 14.74 15.49, 3.74 14.98 M34.82 14.98 C27.24 15.23, 19.68 14.89, 3.74 14.98 M3.74 14.98 C0.51 14.96, 0.18 13.9, 0 11.23 M3.74 14.98 C1.36 15.71, -0.63 13.1, 0 11.23 M0 11.23 C-0.05 9.74, -0.09 7.75, 0 3.74 M0 11.23 C-0.2 8.42, 0.05 5.46, 0 3.74 M0 3.74 C-0.12 1.53, 0.6 -0.34, 3.74 0 M0 3.74 C0.7 1.04, 1.22 -0.32, 3.74 0" stroke="#343a40" stroke-width="2" fill="none"></path></g><g stroke-linecap="round" transform="translate(39.397448168828305 13.62604069808539) rotate(269.315648468081 13.974609375 10.47265625)"><path d="M5.24 0 C8.86 -1.47, 13.58 0.64, 22.71 0 C26.14 -3.46, 25.79 -0.76, 27.95 5.24 C26.99 6.64, 29.4 11.24, 27.95 15.71 C27.09 18.83, 23.48 17.38, 22.71 20.95 C19.81 21.84, 12.28 22.12, 5.24 20.95 C-1.06 17.98, -1.89 21.93, 0 15.71 C-0.82 13.72, 0.48 9.22, 0 5.24 C1.34 -1.23, 3.32 0.1, 5.24 0" stroke="none" stroke-width="0" fill="#d0bfff"></path><path d="M5.24 0 C12.62 -0.05, 18.8 0.91, 22.71 0 M5.24 0 C11.1 0.03, 17.71 -0.47, 22.71 0 M22.71 0 C27.15 0.56, 28.02 -0.04, 27.95 5.24 M22.71 0 C27.37 1, 28.02 2.67, 27.95 5.24 M27.95 5.24 C28.48 8.93, 27.34 11.77, 27.95 15.71 M27.95 5.24 C27.69 9.12, 27.57 13.05, 27.95 15.71 M27.95 15.71 C28.31 20.72, 27.33 22.8, 22.71 20.95 M27.95 15.71 C25.93 19.7, 26.7 21.69, 22.71 20.95 M22.71 20.95 C16.34 21.69, 9.39 21.71, 5.24 20.95 M22.71 20.95 C17.19 20.73, 9.98 21, 5.24 20.95 M5.24 20.95 C2.1 21.3, 0.2 20.48, 0 15.71 M5.24 20.95 C0.48 19.69, -2.03 20.46, 0 15.71 M0 15.71 C-0.17 12.44, 0.97 11.94, 0 5.24 M0 15.71 C0.33 12.31, 0.03 8.53, 0 5.24 M0 5.24 C-1.29 1.06, 2.97 -0.35, 5.24 0 M0 5.24 C-0.06 1.11, -0.13 0.54, 5.24 0" stroke="#1e1e1e" stroke-width="2" fill="none"></path></g><g stroke-linecap="round" transform="translate(27.939453125 38.74047213240182) rotate(269.315648468081 25.4296875 23.859375)"><path d="M19.05 0.19 C24.02 -1.24, 30.93 0.26, 35.78 2.34 C40.63 4.41, 45.61 7.92, 48.15 12.64 C50.69 17.37, 52.23 25.75, 51 30.7 C49.78 35.65, 45.27 39.46, 40.8 42.36 C36.34 45.26, 29.66 48.36, 24.23 48.11 C18.79 47.86, 12.17 44.59, 8.2 40.85 C4.23 37.1, 1.1 30.59, 0.41 25.63 C-0.28 20.66, 0.17 15.33, 4.05 11.06 C7.94 6.79, 19.56 1.87, 23.71 0.02 C27.87 -1.83, 28.9 -0.49, 28.99 -0.06 M29.16 -1.01 C34.35 -0.31, 41.85 4.5, 45.22 8.5 C48.6 12.49, 49.64 17.91, 49.42 22.96 C49.19 28.02, 47.28 34.58, 43.86 38.81 C40.45 43.04, 34.22 47.59, 28.91 48.34 C23.61 49.1, 16.4 46.04, 12.04 43.35 C7.68 40.67, 4.59 36.85, 2.78 32.22 C0.97 27.58, -0.29 20.63, 1.18 15.54 C2.65 10.46, 6.97 4.2, 11.59 1.71 C16.2 -0.78, 25.81 0.65, 28.86 0.59 C31.9 0.54, 29.71 1.22, 29.87 1.4" stroke="none" stroke-width="0" fill="#d0bfff"></path><path d="M32.04 0.4 C37.09 1.31, 43.04 5.8, 46.09 10.05 C49.15 14.3, 50.71 20.85, 50.37 25.91 C50.04 30.97, 47.91 36.71, 44.07 40.41 C40.22 44.1, 32.68 47.53, 27.29 48.09 C21.9 48.64, 16.04 46.62, 11.72 43.72 C7.41 40.82, 3.16 35.48, 1.41 30.68 C-0.34 25.88, -1.01 19.54, 1.22 14.9 C3.46 10.26, 9.01 4.92, 14.8 2.82 C20.59 0.71, 31.53 1.75, 35.97 2.28 C40.4 2.8, 41.5 5.72, 41.4 5.98 M24.01 1.19 C29.51 0.84, 37.16 3.11, 41.3 6 C45.43 8.88, 47.6 13.68, 48.81 18.5 C50.02 23.31, 50.62 30.12, 48.57 34.88 C46.52 39.65, 41.56 45.13, 36.52 47.09 C31.48 49.05, 23.61 48.42, 18.35 46.63 C13.08 44.84, 7.86 40.47, 4.93 36.36 C2.01 32.25, 0.25 26.83, 0.81 21.97 C1.36 17.11, 4.28 10.92, 8.25 7.19 C12.22 3.46, 22.24 0.69, 24.64 -0.43 C27.05 -1.54, 22.75 -0.01, 22.67 0.51" stroke="#1e1e1e" stroke-width="2" fill="none"></path></g></svg>