<svg version="1.1" xmlns="http://www.w3.org/2000/svg" viewBox="0 0 107.08836856447806 140.84223780150205" width="107.08836856447806" height="140.84223780150205">
  <!-- svg-source:excalidraw -->
  
  <defs>
    <style class="style-fonts">
      @font-face {
        font-family: "Virgil";
        src: url("https://excalidraw.com/Virgil.woff2");
      }
      @font-face {
        font-family: "Cascadia";
        src: url("https://excalidraw.com/Cascadia.woff2");
      }
      @font-face {
        font-family: "Assistant";
        src: url("https://excalidraw.com/Assistant-Regular.woff2");
      }
    </style>
    
  </defs>
  <g stroke-linecap="round" transform="translate(34.05486505681802 109.06643921733757) rotate(22.461246866865288 19.283203125 7.48828125)"><path d="M3.74 0 C15.6 -2.43, 22.8 -1.75, 34.82 0 C37.99 1.18, 38.93 1.17, 38.57 3.74 C38.33 5.55, 38.21 8.9, 38.57 11.23 C36.22 12.92, 37.37 14.12, 34.82 14.98 C22.59 15.36, 14.22 17.57, 3.74 14.98 C0.54 13.56, 2.06 15.56, 0 11.23 C-0.13 9.46, 0.2 6.72, 0 3.74 C0.36 3.3, 3.43 -1.36, 3.74 0" stroke="none" stroke-width="0" fill="#868e96"></path><path d="M3.74 0 C10.37 0.72, 17.14 0.85, 34.82 0 M3.74 0 C13.04 0.38, 21.61 -0.44, 34.82 0 M34.82 0 C36.4 0.02, 39.34 1.18, 38.57 3.74 M34.82 0 C38.13 0.74, 39.32 1.73, 38.57 3.74 M38.57 3.74 C38.39 5.72, 38.88 8.35, 38.57 11.23 M38.57 3.74 C38.75 6.28, 38.47 8.64, 38.57 11.23 M38.57 11.23 C39.2 14.05, 37.59 15.65, 34.82 14.98 M38.57 11.23 C37.78 14.34, 37.28 13.86, 34.82 14.98 M34.82 14.98 C25.91 14.25, 16.89 15.07, 3.74 14.98 M34.82 14.98 C25.85 15.23, 16.86 15.44, 3.74 14.98 M3.74 14.98 C1.46 15.52, 0.1 13.12, 0 11.23 M3.74 14.98 C2.28 14.83, -0.03 14.6, 0 11.23 M0 11.23 C0.19 9.16, -0.41 7.92, 0 3.74 M0 11.23 C-0.01 9.36, -0.01 6.97, 0 3.74 M0 3.74 C-0.94 1.17, 1.14 0.84, 3.74 0 M0 3.74 C0.48 1.85, 2.22 -0.97, 3.74 0" stroke="#1e1e1e" stroke-width="2" fill="none"></path></g><g stroke-linecap="round" transform="translate(33.86899266098408 16.919422171883525) rotate(22.923355211056883 19.283203125 7.48828125)"><path d="M3.74 0 C12.46 -1.27, 24.9 1.54, 34.82 0 C37.68 -0.08, 40.4 1.85, 38.57 3.74 C38.16 5.08, 37.66 6.9, 38.57 11.23 C38.62 12.87, 37.95 14.44, 34.82 14.98 C24.58 17.56, 14.51 13.61, 3.74 14.98 C3.31 16.81, -0.12 13.01, 0 11.23 C0.19 9.52, 0.15 8.76, 0 3.74 C2.18 -0.11, 0.26 1.42, 3.74 0" stroke="none" stroke-width="0" fill="#868e96"></path><path d="M3.74 0 C12.63 0.7, 20.77 -0.87, 34.82 0 M3.74 0 C12.66 -0.57, 21.3 -0.1, 34.82 0 M34.82 0 C38.09 -0.07, 39.27 1.89, 38.57 3.74 M34.82 0 C38.08 0.48, 38.38 1.21, 38.57 3.74 M38.57 3.74 C38.87 5.84, 38.64 7.58, 38.57 11.23 M38.57 3.74 C38.47 6.49, 38.72 9.24, 38.57 11.23 M38.57 11.23 C38.84 14.4, 36.63 15.51, 34.82 14.98 M38.57 11.23 C38.53 12.61, 37.35 15.08, 34.82 14.98 M34.82 14.98 C25.37 14.9, 13.97 14.46, 3.74 14.98 M34.82 14.98 C22.61 15.36, 11.35 15.29, 3.74 14.98 M3.74 14.98 C1.35 14.37, 0.9 13.6, 0 11.23 M3.74 14.98 C1.22 15.85, -0.67 14.84, 0 11.23 M0 11.23 C-0.4 8.89, -0.12 6.26, 0 3.74 M0 11.23 C0.01 8.33, -0.18 5.76, 0 3.74 M0 3.74 C-0.11 2.09, 1.66 0.52, 3.74 0 M0 3.74 C0.97 0.28, 1.6 -0.64, 3.74 0" stroke="#1e1e1e" stroke-width="2" fill="none"></path></g><g stroke-linecap="round" transform="translate(10 32.545724255215646) rotate(0 42.630859375 38.322265625)"><path d="M19.16 0 C30.01 2.17, 39.5 0.42, 66.1 0 C81.42 0.84, 82.77 5.44, 85.26 19.16 C81.75 25.71, 85.06 33.32, 85.26 57.48 C86.14 69.51, 79.43 73.66, 66.1 76.64 C50.47 75.5, 39.65 80, 19.16 76.64 C6.22 75.65, -3.01 69.68, 0 57.48 C0.37 47.12, 2.9 29.18, 0 19.16 C-1.37 8.36, 4.52 2.88, 19.16 0" stroke="none" stroke-width="0" fill="#a18072"></path><path d="M19.16 0 C36.2 -1.91, 53.48 0.91, 66.1 0 M19.16 0 C35.77 0.45, 54.99 0.36, 66.1 0 M66.1 0 C80.28 1.29, 86.58 7.22, 85.26 19.16 M66.1 0 C78.51 -0.07, 83.74 5.31, 85.26 19.16 M85.26 19.16 C86.09 30.92, 86.85 40.78, 85.26 57.48 M85.26 19.16 C85.63 33.02, 85.27 46.9, 85.26 57.48 M85.26 57.48 C83.89 71.33, 78.82 74.71, 66.1 76.64 M85.26 57.48 C85.33 70.47, 79.63 77.78, 66.1 76.64 M66.1 76.64 C55.33 75.87, 46.85 75.86, 19.16 76.64 M66.1 76.64 C51.01 77.5, 35.6 76.35, 19.16 76.64 M19.16 76.64 C8.19 76.4, -0.06 71.78, 0 57.48 M19.16 76.64 C5.04 78.87, 1.22 71.65, 0 57.48 M0 57.48 C-0.16 50.36, 1.67 40.18, 0 19.16 M0 57.48 C-0.98 42.42, -0.14 28.36, 0 19.16 M0 19.16 C0.83 7.43, 8.08 -1.68, 19.16 0 M0 19.16 C0.71 5.11, 7.07 1.38, 19.16 0" stroke="#1e1e1e" stroke-width="2" fill="none"></path></g><g stroke-linecap="round" transform="translate(65.95277605371666 87.12363309975535) rotate(47.524435689906944 13.974609375 10.47265625)"><path d="M5.24 0 C13.09 1.7, 17.31 -2.11, 22.71 0 C28.34 2.24, 26.26 -0.99, 27.95 5.24 C26.4 9.2, 29.45 10.61, 27.95 15.71 C28.9 21.95, 28.67 23.45, 22.71 20.95 C17.35 21.84, 10.24 22.81, 5.24 20.95 C3.22 17.45, 2.19 22.59, 0 15.71 C0.88 14.48, -1.73 12.54, 0 5.24 C-3.28 4.91, 1.13 1.85, 5.24 0" stroke="none" stroke-width="0" fill="#d0bfff"></path><path d="M5.24 0 C9.04 -1.67, 16.06 -0.2, 22.71 0 M5.24 0 C12.69 -0.83, 18.93 -0.58, 22.71 0 M22.71 0 C26.79 1.2, 26.18 0.57, 27.95 5.24 M22.71 0 C24.76 0.6, 28.99 2.06, 27.95 5.24 M27.95 5.24 C27.3 8.07, 26.98 11.05, 27.95 15.71 M27.95 5.24 C27.87 7.79, 27.98 10.57, 27.95 15.71 M27.95 15.71 C28.26 17.54, 26.45 20.6, 22.71 20.95 M27.95 15.71 C30.19 18.57, 24.95 22.77, 22.71 20.95 M22.71 20.95 C14.78 20.62, 10.54 21.21, 5.24 20.95 M22.71 20.95 C18.36 20.63, 12.21 21.56, 5.24 20.95 M5.24 20.95 C0.71 22.54, -0.85 19.75, 0 15.71 M5.24 20.95 C3.25 21.63, -1.02 20.36, 0 15.71 M0 15.71 C0.7 12.5, 0.86 7.14, 0 5.24 M0 15.71 C0.18 12.18, 0.27 8.49, 0 5.24 M0 5.24 C0.31 2.97, 0.13 1.9, 5.24 0 M0 5.24 C2.05 3.67, 1.52 -1.38, 5.24 0" stroke="#1e1e1e" stroke-width="2" fill="none"></path></g><g stroke-linecap="round" transform="translate(28.123948755457604 45.896403022249615) rotate(47.524435689906944 25.4296875 23.859375)"><path d="M34.1 1.93 C39.2 3.34, 45.17 7.5, 48.04 11.86 C50.91 16.22, 52.14 23.24, 51.32 28.08 C50.5 32.93, 47.25 37.79, 43.12 40.95 C38.98 44.1, 32.25 46.73, 26.53 47.02 C20.81 47.3, 13.09 45.7, 8.81 42.68 C4.52 39.66, 1.71 33.92, 0.82 28.9 C-0.07 23.88, 0.82 17.23, 3.48 12.55 C6.15 7.87, 11.09 2.34, 16.81 0.82 C22.54 -0.7, 33.88 2.82, 37.82 3.45 C41.77 4.07, 40.92 4.25, 40.48 4.55 M32 0.43 C36.86 1.24, 41.48 6.38, 44.78 10.37 C48.07 14.37, 52.07 19.32, 51.76 24.38 C51.45 29.44, 46.86 36.66, 42.9 40.72 C38.94 44.78, 33.42 48.16, 28.01 48.74 C22.59 49.32, 14.7 47.41, 10.42 44.2 C6.15 40.99, 3.7 34.21, 2.36 29.46 C1.03 24.71, 0.32 20, 2.41 15.7 C4.5 11.4, 10.07 6.1, 14.89 3.65 C19.71 1.21, 28.64 1.46, 31.31 1.04 C33.98 0.62, 30.97 0.93, 30.92 1.12" stroke="none" stroke-width="0" fill="#d0bfff"></path><path d="M24.61 0.88 C29.48 0.3, 35.71 2.12, 39.88 5.11 C44.06 8.09, 48.18 14, 49.65 18.78 C51.12 23.56, 51.17 29.39, 48.7 33.79 C46.22 38.2, 39.86 42.97, 34.79 45.19 C29.72 47.41, 23.36 48.53, 18.27 47.13 C13.18 45.74, 7.14 41.16, 4.25 36.83 C1.35 32.51, 0.37 26.31, 0.89 21.2 C1.42 16.08, 3.32 9.75, 7.39 6.15 C11.45 2.56, 21.84 0.69, 25.27 -0.38 C28.71 -1.44, 27.89 -0.72, 27.99 -0.26 M21.5 -0.92 C26.53 -2.01, 33.66 0.32, 38.55 3.07 C43.45 5.81, 49.23 10.46, 50.87 15.52 C52.52 20.59, 50.4 28.6, 48.42 33.44 C46.43 38.28, 43.65 42.47, 38.97 44.57 C34.29 46.68, 25.91 46.88, 20.34 46.06 C14.77 45.24, 8.89 43.44, 5.54 39.68 C2.2 35.91, 0.14 28.5, 0.27 23.48 C0.4 18.45, 2.61 13.51, 6.32 9.52 C10.03 5.53, 20.12 0.85, 22.53 -0.47 C24.94 -1.78, 21.05 0.89, 20.78 1.61" stroke="#1e1e1e" stroke-width="2" fill="none"></path></g></svg>