<svg version="1.1" xmlns="http://www.w3.org/2000/svg" viewBox="0 0 116.9010881696413 140.84223780150023" width="116.9010881696413" height="140.84223780150023">
  <!-- svg-source:excalidraw -->
  
  <defs>
    <style class="style-fonts">
      @font-face {
        font-family: "Virgil";
        src: url("https://excalidraw.com/Virgil.woff2");
      }
      @font-face {
        font-family: "Cascadia";
        src: url("https://excalidraw.com/Cascadia.woff2");
      }
      @font-face {
        font-family: "Assistant";
        src: url("https://excalidraw.com/Assistant-Regular.woff2");
      }
    </style>
    
  </defs>
  <g stroke-linecap="round" transform="translate(45.694234476459314 109.06643921733576) rotate(22.461246866865288 19.283203125 7.48828125)"><path d="M3.74 0 C9.41 0.62, 16.25 0.39, 34.82 0 C35.16 0.32, 38.12 3.78, 38.57 3.74 C39.2 5.74, 38.24 7.02, 38.57 11.23 C38.15 14.89, 37.79 14.74, 34.82 14.98 C23.71 14.32, 16.75 13.97, 3.74 14.98 C3.33 13.87, 0.71 15.43, 0 11.23 C0.69 9.61, 0.42 7.03, 0 3.74 C1.57 3.62, -0.95 1.39, 3.74 0" stroke="none" stroke-width="0" fill="#868e96"></path><path d="M3.74 0 C15.66 -0.26, 26.72 -0.76, 34.82 0 M3.74 0 C12.07 -0.01, 19.91 0.18, 34.82 0 M34.82 0 C38.13 0.53, 37.87 1.38, 38.57 3.74 M34.82 0 C38.05 0.37, 38.88 2.02, 38.57 3.74 M38.57 3.74 C38.22 5.49, 38.62 7.33, 38.57 11.23 M38.57 3.74 C38.55 6.33, 38.46 9.13, 38.57 11.23 M38.57 11.23 C38.16 13.99, 36.47 15.66, 34.82 14.98 M38.57 11.23 C38.81 14.35, 37.44 14.28, 34.82 14.98 M34.82 14.98 C23.46 14.39, 11.55 15.5, 3.74 14.98 M34.82 14.98 C24.02 14.68, 12.82 15.14, 3.74 14.98 M3.74 14.98 C1.38 15.89, 0.09 12.77, 0 11.23 M3.74 14.98 C0.16 14.89, -0.12 14.7, 0 11.23 M0 11.23 C-0.33 8.79, -0.23 6.23, 0 3.74 M0 11.23 C-0.08 8.58, 0.12 5.86, 0 3.74 M0 3.74 C-0.03 1.95, 1.48 -0.69, 3.74 0 M0 3.74 C-0.3 0.1, 0.8 -0.46, 3.74 0" stroke="#1e1e1e" stroke-width="2" fill="none"></path></g><g stroke-linecap="round" transform="translate(45.508362080625375 16.919422171883525) rotate(22.923355211056883 19.283203125 7.48828125)"><path d="M3.74 0 C12.59 0.3, 20.36 0.22, 34.82 0 C36.88 2.53, 37.86 -0.17, 38.57 3.74 C38.37 5.77, 38.48 9.86, 38.57 11.23 C39.03 13.49, 37.67 17.03, 34.82 14.98 C24.32 13.47, 13.04 13.71, 3.74 14.98 C1.96 16.68, 0.77 12.58, 0 11.23 C0.31 9.34, 0.52 6.87, 0 3.74 C-2.2 2.64, -0.57 -1.86, 3.74 0" stroke="none" stroke-width="0" fill="#868e96"></path><path d="M3.74 0 C15.08 -0.64, 26.01 -0.37, 34.82 0 M3.74 0 C16.16 0.28, 28.09 0.23, 34.82 0 M34.82 0 C36.62 0.14, 39.2 1.57, 38.57 3.74 M34.82 0 C37.63 0.77, 37.78 1.86, 38.57 3.74 M38.57 3.74 C38.56 6.09, 38.72 7.9, 38.57 11.23 M38.57 3.74 C38.49 6.8, 38.49 9.61, 38.57 11.23 M38.57 11.23 C37.71 14.41, 37.53 15.52, 34.82 14.98 M38.57 11.23 C38.68 13.03, 38.35 14.83, 34.82 14.98 M34.82 14.98 C26.56 15.42, 16.96 14.18, 3.74 14.98 M34.82 14.98 C29.02 15.25, 22.45 15.39, 3.74 14.98 M3.74 14.98 C1.34 14.02, -0.94 13.65, 0 11.23 M3.74 14.98 C1.13 15.94, 0.48 14.33, 0 11.23 M0 11.23 C-0.18 8.46, 0.26 5.14, 0 3.74 M0 11.23 C0.11 9.45, 0.02 7.75, 0 3.74 M0 3.74 C0.23 0.56, 0.98 -1, 3.74 0 M0 3.74 C-0.45 0.79, 0.21 -0.36, 3.74 0" stroke="#1e1e1e" stroke-width="2" fill="none"></path></g><g stroke-linecap="round" transform="translate(21.639369419641298 32.545724255215646) rotate(0 42.630859375 38.322265625)"><path d="M19.16 0 C31.4 0.31, 48.99 3.37, 66.1 0 C77.89 -1.97, 88.12 8.92, 85.26 19.16 C84.49 32.08, 85.72 41.47, 85.26 57.48 C85.75 73.1, 81.89 74.76, 66.1 76.64 C56.69 74.67, 42.51 78.56, 19.16 76.64 C7.46 75.05, 1.81 72.66, 0 57.48 C1.9 45.93, -3.31 29.73, 0 19.16 C-2.51 3.82, 7.12 1.18, 19.16 0" stroke="none" stroke-width="0" fill="#a18072"></path><path d="M19.16 0 C31.55 -0.47, 47.52 2.17, 66.1 0 M19.16 0 C35.23 0.24, 48.97 -0.16, 66.1 0 M66.1 0 C80.15 0.64, 85.81 7.73, 85.26 19.16 M66.1 0 C77.3 1.23, 85.19 4.16, 85.26 19.16 M85.26 19.16 C86.29 29.2, 87.07 42.46, 85.26 57.48 M85.26 19.16 C84.71 30.23, 84.26 41.47, 85.26 57.48 M85.26 57.48 C85.69 71.34, 79.08 75.43, 66.1 76.64 M85.26 57.48 C87.33 69.97, 78.81 78.39, 66.1 76.64 M66.1 76.64 C55.98 75.48, 41.43 78.53, 19.16 76.64 M66.1 76.64 C53.43 77.86, 40.58 75.99, 19.16 76.64 M19.16 76.64 C4.5 76.49, -0.21 71.94, 0 57.48 M19.16 76.64 C7.34 77.85, 1.94 68.32, 0 57.48 M0 57.48 C1.42 43.02, -0.96 30.86, 0 19.16 M0 57.48 C-0.21 45.7, 0.06 31.81, 0 19.16 M0 19.16 C-0.53 4.39, 5.61 -0.8, 19.16 0 M0 19.16 C-2.07 5.67, 6.43 -0.76, 19.16 0" stroke="#1e1e1e" stroke-width="2" fill="none"></path></g><g stroke-linecap="round" transform="translate(10 59.7693331864657) rotate(0 13.974609375 10.47265625)"><path d="M5.24 0 C11.94 0.37, 18.35 -2.66, 22.71 0 C29.62 3.22, 30.96 1.39, 27.95 5.24 C28.81 8.73, 29.15 10.04, 27.95 15.71 C25.68 21.34, 28.44 19.26, 22.71 20.95 C21.32 18.36, 15.55 23.45, 5.24 20.95 C-1.61 21.9, 2.75 21.66, 0 15.71 C-0.14 11.9, 0.52 7.03, 0 5.24 C2.16 3.22, -1.75 2.19, 5.24 0" stroke="none" stroke-width="0" fill="#d0bfff"></path><path d="M5.24 0 C12.12 1.03, 16.68 -1.13, 22.71 0 M5.24 0 C9.46 0.61, 12.35 0.84, 22.71 0 M22.71 0 C26.38 -1.92, 26.06 1.59, 27.95 5.24 M22.71 0 C25.96 1.94, 28.9 2.95, 27.95 5.24 M27.95 5.24 C27.28 9.57, 28.49 12.36, 27.95 15.71 M27.95 5.24 C28.12 7.84, 27.87 10.66, 27.95 15.71 M27.95 15.71 C28.41 17.82, 25.68 18.95, 22.71 20.95 M27.95 15.71 C27.06 18.28, 24.13 20.23, 22.71 20.95 M22.71 20.95 C17.07 21.26, 10.71 21.2, 5.24 20.95 M22.71 20.95 C17.29 21.59, 13.44 20.86, 5.24 20.95 M5.24 20.95 C1.19 19.27, -0.32 20.09, 0 15.71 M5.24 20.95 C2.16 20.74, 0.31 21.01, 0 15.71 M0 15.71 C0.63 11.15, 0.89 7.22, 0 5.24 M0 15.71 C-0.3 12.54, 0.28 9.31, 0 5.24 M0 5.24 C0.78 3.26, 2.95 1.82, 5.24 0 M0 5.24 C-1.95 2.97, 0.14 -1.64, 5.24 0" stroke="#1e1e1e" stroke-width="2" fill="none"></path></g><g stroke-linecap="round" transform="translate(36.888671875 45.7302706864657) rotate(0 25.4296875 23.859375)"><path d="M28.5 0.94 C33.61 0.98, 39.13 3.25, 42.93 6.65 C46.74 10.05, 50.64 16.24, 51.32 21.32 C52 26.41, 50.2 32.8, 47.02 37.17 C43.84 41.55, 37.57 46.27, 32.22 47.58 C26.87 48.88, 19.81 47.18, 14.92 45.01 C10.02 42.84, 5.05 39.05, 2.86 34.55 C0.66 30.05, 0.29 22.96, 1.76 18.01 C3.22 13.07, 6.45 7.89, 11.65 4.88 C16.86 1.88, 28.83 0.46, 32.98 -0.02 C37.13 -0.5, 36.92 1.43, 36.54 1.99 M29.82 1.23 C34.68 1.88, 39.8 5.82, 43.53 9.75 C47.26 13.69, 51.96 20.14, 52.2 24.86 C52.43 29.59, 48.47 34.25, 44.93 38.1 C41.39 41.96, 36.19 46.77, 30.96 47.99 C25.72 49.21, 18.29 48.08, 13.55 45.43 C8.81 42.77, 4.67 36.84, 2.5 32.08 C0.32 27.31, -1.32 21.74, 0.5 16.83 C2.32 11.92, 8.76 5.27, 13.42 2.62 C18.07 -0.03, 25.85 1.03, 28.44 0.93 C31.03 0.82, 29.03 1.65, 28.95 1.99" stroke="none" stroke-width="0" fill="#d0bfff"></path><path d="M16.35 2.31 C21.37 0.22, 29.33 -0.07, 34.66 1.54 C39.98 3.14, 45.82 7.69, 48.3 11.92 C50.78 16.16, 50.62 21.94, 49.54 26.95 C48.45 31.96, 45.65 38.43, 41.79 41.96 C37.93 45.49, 31.74 47.95, 26.39 48.13 C21.04 48.31, 14.17 46.34, 9.7 43.05 C5.23 39.77, 0.72 33.54, -0.43 28.42 C-1.58 23.3, -1.17 17.18, 2.79 12.32 C6.76 7.46, 19.08 1.29, 23.34 -0.75 C27.6 -2.79, 28.38 -0.53, 28.36 0.09 M27.54 -0.98 C32.66 -1.38, 38.92 1.57, 42.69 5.19 C46.45 8.81, 49.72 15.49, 50.14 20.75 C50.55 26, 48.11 32.46, 45.17 36.72 C42.23 40.98, 37.44 44.86, 32.49 46.3 C27.53 47.74, 20.41 47.55, 15.47 45.35 C10.52 43.15, 5.23 37.67, 2.81 33.09 C0.39 28.51, -0.59 22.67, 0.93 17.85 C2.45 13.02, 7.69 6.92, 11.93 4.16 C16.17 1.39, 23.65 1.86, 26.37 1.25 C29.08 0.63, 28.17 0.47, 28.21 0.46" stroke="#1e1e1e" stroke-width="2" fill="none"></path></g></svg>