<svg version="1.1" xmlns="http://www.w3.org/2000/svg" viewBox="0 0 108.56158285019 140.84223780150205" width="108.56158285019" height="140.84223780150205">
  <!-- svg-source:excalidraw -->
  
  <defs>
    <style class="style-fonts">
      @font-face {
        font-family: "Virgil";
        src: url("https://excalidraw.com/Virgil.woff2");
      }
      @font-face {
        font-family: "Cascadia";
        src: url("https://excalidraw.com/Cascadia.woff2");
      }
      @font-face {
        font-family: "Assistant";
        src: url("https://excalidraw.com/Assistant-Regular.woff2");
      }
    </style>
    
  </defs>
  <g stroke-linecap="round" transform="translate(37.70629165700802 109.06643921733757) rotate(22.461246866865288 19.283203125 7.48828125)"><path d="M3.74 0 C13.1 2.48, 22.64 -1.47, 34.82 0 C39.38 1.83, 38.44 0.53, 38.57 3.74 C38.73 5.28, 38.68 7.75, 38.57 11.23 C40.75 12.37, 36.33 16.4, 34.82 14.98 C27.82 16.5, 20.17 13.65, 3.74 14.98 C2.56 16.71, 2.27 14.74, 0 11.23 C-0.88 8.94, -0.74 4.91, 0 3.74 C0.53 2.1, 2.22 0.91, 3.74 0" stroke="none" stroke-width="0" fill="#868e96"></path><path d="M3.74 0 C11.87 0.99, 18.53 0.94, 34.82 0 M3.74 0 C14.68 -0.01, 26.64 0.08, 34.82 0 M34.82 0 C37.59 0.67, 37.88 1.78, 38.57 3.74 M34.82 0 C37.28 -1.11, 38.6 1.35, 38.57 3.74 M38.57 3.74 C38.92 6.25, 38.52 8.58, 38.57 11.23 M38.57 3.74 C38.39 6.71, 38.59 9.53, 38.57 11.23 M38.57 11.23 C38.67 13.12, 38.22 14.85, 34.82 14.98 M38.57 11.23 C38.53 14.6, 36.65 16.09, 34.82 14.98 M34.82 14.98 C22.85 15.68, 12.61 15.7, 3.74 14.98 M34.82 14.98 C23.55 14.64, 11.72 15.08, 3.74 14.98 M3.74 14.98 C1.14 15.82, 0.41 14.25, 0 11.23 M3.74 14.98 C2.22 14.01, 0.36 13.09, 0 11.23 M0 11.23 C-0.24 8.53, 0.07 6.47, 0 3.74 M0 11.23 C0.04 8.75, -0.05 6.35, 0 3.74 M0 3.74 C-0.39 0.85, 0.35 -0.31, 3.74 0 M0 3.74 C0.02 0.87, 1.53 -0.24, 3.74 0" stroke="#1e1e1e" stroke-width="2" fill="none"></path></g><g stroke-linecap="round" transform="translate(37.5204192611759 16.919422171883525) rotate(22.923355211056883 19.283203125 7.48828125)"><path d="M3.74 0 C12.74 -1.81, 25.21 1.44, 34.82 0 C37.2 -0.72, 36.39 0.83, 38.57 3.74 C38.72 7.09, 39.4 8.39, 38.57 11.23 C37.57 15.15, 35.97 17.05, 34.82 14.98 C27.6 14.09, 20.13 16.98, 3.74 14.98 C3.52 15.99, 1.96 15.3, 0 11.23 C-0.6 7.61, 0.28 5.69, 0 3.74 C0.97 2.16, 1.65 1.59, 3.74 0" stroke="none" stroke-width="0" fill="#868e96"></path><path d="M3.74 0 C12.1 0.74, 20.59 0.67, 34.82 0 M3.74 0 C15.04 0.14, 25.84 0.31, 34.82 0 M34.82 0 C36.63 0.54, 38.54 0.28, 38.57 3.74 M34.82 0 C37.35 0.11, 38.94 1.82, 38.57 3.74 M38.57 3.74 C38.53 5.26, 38.9 6.92, 38.57 11.23 M38.57 3.74 C38.57 6.29, 38.55 8.51, 38.57 11.23 M38.57 11.23 C39.47 13.6, 37.29 15.74, 34.82 14.98 M38.57 11.23 C37.89 14.84, 37.93 15.67, 34.82 14.98 M34.82 14.98 C27.42 15.93, 21.21 15.24, 3.74 14.98 M34.82 14.98 C22.2 14.79, 10.47 15.25, 3.74 14.98 M3.74 14.98 C1.66 15.5, 0.84 12.89, 0 11.23 M3.74 14.98 C1.6 14.34, 0.34 14.42, 0 11.23 M0 11.23 C0.12 9.82, 0.07 8.06, 0 3.74 M0 11.23 C-0.06 8.27, -0.08 5.61, 0 3.74 M0 3.74 C-0.9 0.94, 1.27 -0.33, 3.74 0 M0 3.74 C0.28 1.01, 1.42 -0.95, 3.74 0" stroke="#1e1e1e" stroke-width="2" fill="none"></path></g><g stroke-linecap="round" transform="translate(13.299864100190007 32.194161755215646) rotate(0 42.630859375 38.322265625)"><path d="M19.16 0 C40.66 3, 56.29 -0.53, 66.1 0 C75.87 -0.58, 86.87 7.03, 85.26 19.16 C88.38 28.42, 83.98 43.43, 85.26 57.48 C83.39 73.13, 77.34 77.63, 66.1 76.64 C50.76 78.68, 34.94 77.67, 19.16 76.64 C9.11 78.82, 3.28 67.21, 0 57.48 C1.22 45.12, 1.83 31.66, 0 19.16 C0.56 8.58, 3.48 3.41, 19.16 0" stroke="none" stroke-width="0" fill="#a18072"></path><path d="M19.16 0 C38.87 1.21, 57.12 -1.81, 66.1 0 M19.16 0 C34.16 0.52, 47.92 0.39, 66.1 0 M66.1 0 C78.82 -1.94, 85.32 6.57, 85.26 19.16 M66.1 0 C79.63 1.14, 83.47 8.42, 85.26 19.16 M85.26 19.16 C86.78 30.03, 85.71 40.8, 85.26 57.48 M85.26 19.16 C85.45 32.65, 86.24 47.24, 85.26 57.48 M85.26 57.48 C85.21 71.78, 77.7 78.58, 66.1 76.64 M85.26 57.48 C86.48 71.65, 77.25 74.35, 66.1 76.64 M66.1 76.64 C49.47 77.3, 32.09 77.21, 19.16 76.64 M66.1 76.64 C56.41 77.45, 47.34 77.13, 19.16 76.64 M19.16 76.64 C8.08 74.96, 0.62 69.15, 0 57.48 M19.16 76.64 C7.07 78.03, -2.04 68.91, 0 57.48 M0 57.48 C0.18 48.32, 1.31 39.76, 0 19.16 M0 57.48 C-0.29 48.24, -0.8 39.49, 0 19.16 M0 19.16 C0.04 5.73, 6.87 -0.41, 19.16 0 M0 19.16 C0.35 4.48, 6.67 -0.39, 19.16 0" stroke="#1e1e1e" stroke-width="2" fill="none"></path></g><g stroke-linecap="round" transform="translate(13.186373760761398 31.768827916034752) rotate(47.524435689906944 13.974609375 10.47265625)"><path d="M5.24 0 C6.75 0.86, 13.8 1.4, 22.71 0 C27.47 0.56, 30.14 -1.16, 27.95 5.24 C27.93 8.24, 29.18 14.36, 27.95 15.71 C29.4 21.07, 28.29 20.51, 22.71 20.95 C17.1 18.75, 15.7 19.99, 5.24 20.95 C4.63 18.12, 0.76 22.19, 0 15.71 C1.24 14.85, 0.18 11.92, 0 5.24 C-0.22 1.86, 2.79 -1.79, 5.24 0" stroke="none" stroke-width="0" fill="#d0bfff"></path><path d="M5.24 0 C10.44 -0.21, 17.41 -1.18, 22.71 0 M5.24 0 C11.55 -0.98, 19.82 -0.34, 22.71 0 M22.71 0 C27.86 1.28, 28.22 3.56, 27.95 5.24 M22.71 0 C26.4 -2.2, 25.78 1.57, 27.95 5.24 M27.95 5.24 C28.58 9.15, 27.16 11.62, 27.95 15.71 M27.95 5.24 C27.52 7.49, 27.65 10.49, 27.95 15.71 M27.95 15.71 C28.86 19.48, 26.14 22.36, 22.71 20.95 M27.95 15.71 C28.48 17.61, 25.6 18.65, 22.71 20.95 M22.71 20.95 C17.6 20.82, 13.01 21.21, 5.24 20.95 M22.71 20.95 C17.94 20.65, 13.8 20.56, 5.24 20.95 M5.24 20.95 C0.65 22.53, 1.41 19.11, 0 15.71 M5.24 20.95 C1.11 19.02, -0.37 20.23, 0 15.71 M0 15.71 C0.84 13.26, -0.54 8.65, 0 5.24 M0 15.71 C-0.17 12.14, 0.4 8.43, 0 5.24 M0 5.24 C-0.89 2.75, 3.08 1.74, 5.24 0 M0 5.24 C0.89 3.48, 3.13 2.1, 5.24 0" stroke="#1e1e1e" stroke-width="2" fill="none"></path></g><g stroke-linecap="round" transform="translate(28.105044809020455 46.22262049353867) rotate(47.524435689906944 25.4296875 23.859375)"><path d="M22.37 0.41 C27.58 -0.51, 34.17 0.95, 38.84 3.78 C43.52 6.6, 48.81 12.58, 50.41 17.36 C52.02 22.13, 50.56 27.93, 48.47 32.44 C46.38 36.96, 42.48 42.04, 37.89 44.42 C33.29 46.81, 26.28 47.64, 20.91 46.76 C15.54 45.89, 9.08 43.21, 5.64 39.18 C2.21 35.14, 0.08 27.66, 0.31 22.55 C0.55 17.45, 2.59 12.23, 7.06 8.54 C11.52 4.85, 23.09 1.56, 27.1 0.4 C31.12 -0.76, 31.18 1.36, 31.17 1.55 M32.45 1.34 C37.79 2.59, 43.81 6.53, 46.9 10.8 C49.99 15.08, 51.78 21.74, 50.99 26.98 C50.19 32.22, 45.8 38.59, 42.11 42.24 C38.42 45.89, 34.11 48.86, 28.85 48.89 C23.6 48.93, 15.12 45.48, 10.59 42.43 C6.06 39.38, 2.93 35.26, 1.68 30.59 C0.42 25.93, 0.71 19.21, 3.04 14.44 C5.37 9.68, 10.98 4.12, 15.67 2 C20.36 -0.12, 28.32 1.97, 31.19 1.74 C34.07 1.5, 33.08 0.27, 32.94 0.6" stroke="none" stroke-width="0" fill="#d0bfff"></path><path d="M18.7 0.31 C23.24 -1.34, 29.6 0.48, 34.46 2.75 C39.32 5.03, 45.14 9.49, 47.86 13.95 C50.59 18.4, 51.88 24.61, 50.82 29.46 C49.77 34.31, 46.19 40.18, 41.56 43.06 C36.93 45.94, 28.64 47.06, 23.04 46.74 C17.43 46.42, 11.6 44.41, 7.93 41.14 C4.26 37.86, 1.56 32, 1.02 27.08 C0.48 22.16, 1.08 16.08, 4.68 11.63 C8.29 7.18, 18.71 2.15, 22.66 0.38 C26.61 -1.39, 28.1 0.81, 28.37 1 M18.78 1.22 C23.79 -0.36, 30.46 1.19, 35.41 2.99 C40.36 4.8, 46.09 7.94, 48.48 12.08 C50.88 16.21, 51.19 22.77, 49.79 27.82 C48.39 32.87, 44.59 39.14, 40.07 42.37 C35.54 45.6, 27.98 47.48, 22.64 47.21 C17.31 46.94, 11.72 44.23, 8.04 40.75 C4.36 37.27, 1.15 31.56, 0.54 26.36 C-0.07 21.16, 1.43 13.81, 4.39 9.54 C7.34 5.27, 15.72 2.17, 18.28 0.76 C20.83 -0.65, 19.74 0.44, 19.7 1.06" stroke="#1e1e1e" stroke-width="2" fill="none"></path></g></svg>