<svg version="1.1" xmlns="http://www.w3.org/2000/svg" viewBox="0 0 106.89305606447624 140.84223780150023" width="106.89305606447624" height="140.84223780150023">
  <!-- svg-source:excalidraw -->
  
  <defs>
    <style class="style-fonts">
      @font-face {
        font-family: "Virgil";
        src: url("https://excalidraw.com/Virgil.woff2");
      }
      @font-face {
        font-family: "Cascadia";
        src: url("https://excalidraw.com/Cascadia.woff2");
      }
      @font-face {
        font-family: "Assistant";
        src: url("https://excalidraw.com/Assistant-Regular.woff2");
      }
    </style>
    
  </defs>
  <g stroke-linecap="round" transform="translate(35.68620237129426 109.06643921733576) rotate(22.461246866865288 19.283203125 7.48828125)"><path d="M3.74 0 C11.19 -0.9, 22.79 -2.24, 34.82 0 C36.51 0.05, 37.71 1.88, 38.57 3.74 C38.7 5.67, 39.53 7.66, 38.57 11.23 C37.15 15.79, 39.15 14.85, 34.82 14.98 C27.52 15.38, 17.66 15.27, 3.74 14.98 C3.3 17.16, -1.36 12.74, 0 11.23 C-0.36 8.84, 0.69 6.21, 0 3.74 C-1.15 2.56, 2.99 2.27, 3.74 0" stroke="none" stroke-width="0" fill="#868e96"></path><path d="M3.74 0 C12.54 0.91, 21.23 0.84, 34.82 0 M3.74 0 C14.99 -0.08, 26.07 -0.3, 34.82 0 M34.82 0 C36.93 0.85, 39.5 1.5, 38.57 3.74 M34.82 0 C38.33 0.73, 39.5 1.86, 38.57 3.74 M38.57 3.74 C38.69 5.57, 38.82 6.94, 38.57 11.23 M38.57 3.74 C38.57 6.41, 38.63 9.13, 38.57 11.23 M38.57 11.23 C37.79 14.61, 37.36 14.8, 34.82 14.98 M38.57 11.23 C38.11 14.64, 36.86 15.28, 34.82 14.98 M34.82 14.98 C28.69 15.11, 20.87 15.91, 3.74 14.98 M34.82 14.98 C25.59 15.58, 17.21 15.4, 3.74 14.98 M3.74 14.98 C0.54 13.98, 0.82 13.46, 0 11.23 M3.74 14.98 C2.2 15.71, 0.16 14.77, 0 11.23 M0 11.23 C0.01 8.88, 0.35 6.76, 0 3.74 M0 11.23 C0.03 8.49, 0.02 6.07, 0 3.74 M0 3.74 C-0.89 0.66, 0.62 0.26, 3.74 0 M0 3.74 C0.52 1.41, 1.21 0.81, 3.74 0" stroke="#1e1e1e" stroke-width="2" fill="none"></path></g><g stroke-linecap="round" transform="translate(35.50032997546032 16.919422171883525) rotate(22.923355211056883 19.283203125 7.48828125)"><path d="M3.74 0 C11.2 -2.19, 19.94 0.21, 34.82 0 C36.46 0.63, 38.03 1.65, 38.57 3.74 C39.53 5.11, 38.05 7.77, 38.57 11.23 C40.4 13.61, 36.6 12.8, 34.82 14.98 C25.76 15.4, 19.22 17.23, 3.74 14.98 C-0.11 13.98, 1.42 12.38, 0 11.23 C0.68 8.68, -0.39 6.03, 0 3.74 C1.74 3.52, 2.26 1.96, 3.74 0" stroke="none" stroke-width="0" fill="#868e96"></path><path d="M3.74 0 C10.16 0.58, 17.35 0.54, 34.82 0 M3.74 0 C14.03 -0.23, 24.78 0.43, 34.82 0 M34.82 0 C38.25 0.25, 39.45 1.88, 38.57 3.74 M34.82 0 C38.25 0.61, 37.76 1.4, 38.57 3.74 M38.57 3.74 C38.83 6.21, 38.78 9.18, 38.57 11.23 M38.57 3.74 C38.63 5.36, 38.42 6.95, 38.57 11.23 M38.57 11.23 C38.61 13.55, 36.92 15.77, 34.82 14.98 M38.57 11.23 C38.1 14.03, 36.34 15.76, 34.82 14.98 M34.82 14.98 C24.22 15.89, 14.71 14.96, 3.74 14.98 M34.82 14.98 C23.4 15.43, 11.09 14.63, 3.74 14.98 M3.74 14.98 C2.06 14.7, 0.83 14.37, 0 11.23 M3.74 14.98 C1.4 16.02, 0.1 12.63, 0 11.23 M0 11.23 C0.32 9.85, 0.2 8.47, 0 3.74 M0 11.23 C0.04 9.73, -0.18 7.89, 0 3.74 M0 3.74 C-0.63 1.51, 1.7 0.14, 3.74 0 M0 3.74 C-0.04 2.06, 1.52 -0.8, 3.74 0" stroke="#1e1e1e" stroke-width="2" fill="none"></path></g><g stroke-linecap="round" transform="translate(11.63133731447624 32.545724255215646) rotate(0 42.630859375 38.322265625)"><path d="M19.16 0 C30.3 0.83, 42.49 1.64, 66.1 0 C78.13 0.55, 82.28 6.83, 85.26 19.16 C83.97 32.86, 88.47 40.68, 85.26 57.48 C84.27 67.25, 78.3 78.25, 66.1 76.64 C54.01 79.78, 34.36 75.39, 19.16 76.64 C8.36 74.78, 2.88 68.72, 0 57.48 C-2.05 46.75, 1.96 35.53, 0 19.16 C1.4 9.11, 8.56 3.28, 19.16 0" stroke="none" stroke-width="0" fill="#a18072"></path><path d="M19.16 0 C38.15 0.99, 55.38 -0.65, 66.1 0 M19.16 0 C32.71 1.07, 47.97 0.47, 66.1 0 M66.1 0 C80.64 1.26, 86.89 7.45, 85.26 19.16 M66.1 0 C77.27 0.31, 86.73 7.12, 85.26 19.16 M85.26 19.16 C86.59 31.65, 83.58 44.32, 85.26 57.48 M85.26 19.16 C84.61 31.9, 85.43 42.69, 85.26 57.48 M85.26 57.48 C84.46 71.84, 78.07 77.16, 66.1 76.64 M85.26 57.48 C83.3 71.82, 79.37 77.89, 66.1 76.64 M66.1 76.64 C51.29 77.01, 38.51 75.9, 19.16 76.64 M66.1 76.64 C46.77 75.93, 29.66 76.66, 19.16 76.64 M19.16 76.64 C8.05 77.93, 0.27 72.08, 0 57.48 M19.16 76.64 C6.59 74.44, -2.17 70.08, 0 57.48 M0 57.48 C0.72 48.08, -2 35.92, 0 19.16 M0 57.48 C-1 47.53, -0.74 39, 0 19.16 M0 19.16 C0.91 6.66, 6.32 1.41, 19.16 0 M0 19.16 C0.53 4.79, 5.78 -2.3, 19.16 0" stroke="#1e1e1e" stroke-width="2" fill="none"></path></g><g stroke-linecap="round" transform="translate(13.186373760761398 88.17832059975353) rotate(312.47556431009303 13.974609375 10.47265625)"><path d="M5.24 0 C13.74 3.06, 18.9 -0.06, 22.71 0 C24.05 2.03, 29.58 3.19, 27.95 5.24 C26.87 10.04, 29.23 11.72, 27.95 15.71 C25.21 20.65, 24.89 23.83, 22.71 20.95 C15.91 22.04, 17.37 23.36, 5.24 20.95 C4.25 21.39, 1.04 18.98, 0 15.71 C1.08 13.31, -1.88 10.51, 0 5.24 C3.39 -1.33, 3.09 1.02, 5.24 0" stroke="none" stroke-width="0" fill="#d0bfff"></path><path d="M5.24 0 C9.66 1.55, 17.1 1.57, 22.71 0 M5.24 0 C11.68 -1, 17.14 -0.23, 22.71 0 M22.71 0 C25.99 1.68, 28.78 2.79, 27.95 5.24 M22.71 0 C28.15 -1.93, 28.66 0.47, 27.95 5.24 M27.95 5.24 C27.4 8.03, 28.28 12.61, 27.95 15.71 M27.95 5.24 C28.07 8.16, 27.81 11.29, 27.95 15.71 M27.95 15.71 C27.17 18.4, 24.4 20.32, 22.71 20.95 M27.95 15.71 C27.99 18.44, 26.76 20.47, 22.71 20.95 M22.71 20.95 C16.9 22.67, 11.21 20.01, 5.24 20.95 M22.71 20.95 C15.84 20.21, 9.31 21.33, 5.24 20.95 M5.24 20.95 C2.11 20.76, 0.27 20.78, 0 15.71 M5.24 20.95 C3.67 19.74, -0.88 20.46, 0 15.71 M0 15.71 C0.2 13.8, 0.23 10.05, 0 5.24 M0 15.71 C0.13 12.44, 0.25 8.85, 0 5.24 M0 5.24 C-1.69 2.81, 0.35 -1.43, 5.24 0 M0 5.24 C0.47 2.5, 2.61 0.81, 5.24 0" stroke="#1e1e1e" stroke-width="2" fill="none"></path></g><g stroke-linecap="round" transform="translate(28.105044809020455 46.951090522249615) rotate(312.47556431009303 25.4296875 23.859375)"><path d="M36.33 1.55 C41.41 3.24, 46.75 8.19, 49.09 12.99 C51.43 17.78, 51.78 25.34, 50.38 30.3 C48.97 35.25, 45.03 39.72, 40.66 42.73 C36.29 45.73, 29.49 48.55, 24.15 48.33 C18.81 48.11, 12.5 44.97, 8.63 41.4 C4.75 37.84, 1.45 32.23, 0.89 26.94 C0.33 21.65, 2.25 14.11, 5.27 9.66 C8.28 5.21, 13.15 0.98, 18.97 0.22 C24.79 -0.53, 35.84 3.59, 40.19 5.13 C44.55 6.68, 45.19 9.2, 45.11 9.51 M34.41 2.36 C39.62 3.14, 43.87 5.92, 46.72 10.13 C49.57 14.35, 52.07 22.29, 51.49 27.64 C50.9 32.99, 47.23 38.91, 43.22 42.22 C39.21 45.53, 33.12 47.27, 27.42 47.51 C21.72 47.76, 13.33 46.88, 9.01 43.69 C4.7 40.49, 2.75 33.37, 1.54 28.33 C0.32 23.29, -0.54 17.68, 1.73 13.46 C3.99 9.24, 10.11 5.03, 15.14 3.02 C20.17 1.01, 28.72 1.9, 31.89 1.42 C35.06 0.94, 34.02 -0.36, 34.16 0.16" stroke="none" stroke-width="0" fill="#d0bfff"></path><path d="M36.58 2.11 C41.19 3.61, 45.04 7.81, 47.28 12.36 C49.53 16.92, 51.05 24.24, 50.05 29.43 C49.06 34.62, 45.6 40.34, 41.31 43.52 C37.01 46.7, 30 48.86, 24.29 48.51 C18.57 48.16, 11.12 45.03, 7 41.4 C2.89 37.78, -0.05 32.03, -0.4 26.75 C-0.76 21.47, 1.87 14.12, 4.89 9.71 C7.91 5.31, 12.03 1.27, 17.73 0.33 C23.44 -0.62, 35.15 3.12, 39.13 4.06 C43.11 4.99, 41.75 5.63, 41.6 5.93 M16.22 0.81 C20.82 -0.95, 27.63 -0.79, 32.84 0.99 C38.06 2.77, 44.52 7.04, 47.52 11.5 C50.52 15.96, 51.75 22.85, 50.82 27.76 C49.9 32.67, 46.16 37.65, 41.95 40.94 C37.74 44.22, 30.78 47.34, 25.54 47.46 C20.3 47.59, 14.82 44.74, 10.49 41.68 C6.16 38.63, 0.55 34.11, -0.45 29.13 C-1.44 24.14, 1.69 16.63, 4.5 11.8 C7.3 6.97, 14.35 1.71, 16.39 0.16 C18.42 -1.38, 16.47 1.97, 16.73 2.53" stroke="#1e1e1e" stroke-width="2" fill="none"></path></g></svg>