<svg version="1.1" xmlns="http://www.w3.org/2000/svg" viewBox="0 0 105.26171875 140.84223780150023" width="105.26171875" height="140.84223780150023">
  <!-- svg-source:excalidraw -->
  
  <defs>
    <style class="style-fonts">
      @font-face {
        font-family: "Virgil";
        src: url("https://excalidraw.com/Virgil.woff2");
      }
      @font-face {
        font-family: "Cascadia";
        src: url("https://excalidraw.com/Cascadia.woff2");
      }
      @font-face {
        font-family: "Assistant";
        src: url("https://excalidraw.com/Assistant-Regular.woff2");
      }
    </style>
    
  </defs>
  <g stroke-linecap="round" transform="translate(34.05486505681802 109.06643921733576) rotate(22.461246866865288 19.283203125 7.48828125)"><path d="M3.74 0 C11.48 -0.27, 20.33 0.42, 34.82 0 C35.52 -0.69, 35.97 0.24, 38.57 3.74 C38.5 5.37, 38.72 7.43, 38.57 11.23 C38.97 11.57, 37.64 14.53, 34.82 14.98 C24.54 16.59, 10.01 14.04, 3.74 14.98 C-0.92 14.56, 1.16 14.2, 0 11.23 C0.8 8.54, -0.38 7.41, 0 3.74 C-1.35 3.33, 0.14 0.71, 3.74 0" stroke="none" stroke-width="0" fill="#868e96"></path><path d="M3.74 0 C15.48 0.77, 28.15 -0.06, 34.82 0 M3.74 0 C10.64 -0.04, 17.12 0.32, 34.82 0 M34.82 0 C37.98 0.42, 38.41 1.22, 38.57 3.74 M34.82 0 C36.56 -0.54, 38.12 2.23, 38.57 3.74 M38.57 3.74 C38.81 6.99, 38.77 9.37, 38.57 11.23 M38.57 3.74 C38.64 6.22, 38.46 8.54, 38.57 11.23 M38.57 11.23 C38.54 12.76, 37.35 15.07, 34.82 14.98 M38.57 11.23 C38.94 14.3, 36.42 16, 34.82 14.98 M34.82 14.98 C26.15 14.51, 16.15 14.06, 3.74 14.98 M34.82 14.98 C23.44 14.76, 12.4 15, 3.74 14.98 M3.74 14.98 C1.22 15.74, -0.59 14.7, 0 11.23 M3.74 14.98 C1.86 15.67, -0.81 12.58, 0 11.23 M0 11.23 C0.25 8.42, 0.35 5.55, 0 3.74 M0 11.23 C0.02 9.86, 0.11 8.27, 0 3.74 M0 3.74 C0.84 0.41, 1.56 -0.55, 3.74 0 M0 3.74 C0.34 1.94, 0.23 -0.67, 3.74 0" stroke="#1e1e1e" stroke-width="2" fill="none"></path></g><g stroke-linecap="round" transform="translate(33.868992660985896 16.919422171883525) rotate(22.923355211056883 19.283203125 7.48828125)"><path d="M3.74 0 C16.32 0.62, 23.42 -0.67, 34.82 0 C34.72 -1.01, 37.52 -1.1, 38.57 3.74 C38.8 5.56, 38.72 6.96, 38.57 11.23 C38.88 13.29, 39.85 14.27, 34.82 14.98 C27.07 14.54, 17.4 14.84, 3.74 14.98 C2.41 15.44, -0.24 14.08, 0 11.23 C-0.45 8.93, -0.59 6.34, 0 3.74 C-1.11 1.96, 2.95 0.77, 3.74 0" stroke="none" stroke-width="0" fill="#868e96"></path><path d="M3.74 0 C11.42 -0.28, 16.72 -1.02, 34.82 0 M3.74 0 C13.49 0.33, 22.87 0.22, 34.82 0 M34.82 0 C37.16 -0.03, 37.91 0.78, 38.57 3.74 M34.82 0 C36.87 0.98, 39.64 1.54, 38.57 3.74 M38.57 3.74 C38.79 6.39, 38.64 9.8, 38.57 11.23 M38.57 3.74 C38.45 6.33, 38.57 8.53, 38.57 11.23 M38.57 11.23 C38.59 13.82, 37.64 15.47, 34.82 14.98 M38.57 11.23 C37.67 14.75, 37.37 14.77, 34.82 14.98 M34.82 14.98 C27 14.06, 19.34 15.13, 3.74 14.98 M34.82 14.98 C24.27 14.82, 12.81 15.26, 3.74 14.98 M3.74 14.98 C0.66 15.94, 0.53 14.33, 0 11.23 M3.74 14.98 C0.43 13.83, 0.94 13.41, 0 11.23 M0 11.23 C0.32 8.4, -0.38 5.14, 0 3.74 M0 11.23 C0.08 9.14, 0.16 6.7, 0 3.74 M0 3.74 C0.31 0.69, 1.54 0.6, 3.74 0 M0 3.74 C-1.02 0.57, 0.53 0.3, 3.74 0" stroke="#1e1e1e" stroke-width="2" fill="none"></path></g><g stroke-linecap="round" transform="translate(10 32.545724255215646) rotate(0 42.630859375 38.322265625)"><path d="M19.16 0 C30.6 -1.15, 43.44 -1.6, 66.1 0 C77.43 -3.24, 84.14 6.46, 85.26 19.16 C85.98 26.42, 85.87 39.02, 85.26 57.48 C88.76 69.28, 76.91 79.5, 66.1 76.64 C45.7 75.83, 32.93 77.06, 19.16 76.64 C6.06 77.14, 2.84 73.28, 0 57.48 C-1.6 50.87, -1.27 39.49, 0 19.16 C2.35 7.46, 4.79 1.81, 19.16 0" stroke="none" stroke-width="0" fill="#a18072"></path><path d="M19.16 0 C34.47 -1.75, 53.44 1.62, 66.1 0 M19.16 0 C33.59 0.11, 46.55 -0.33, 66.1 0 M66.1 0 C77.55 -0.94, 84.48 8.09, 85.26 19.16 M66.1 0 C81.01 0.57, 87.29 7.84, 85.26 19.16 M85.26 19.16 C85.74 35.05, 86.1 48.94, 85.26 57.48 M85.26 19.16 C84.97 32.26, 85.03 47.39, 85.26 57.48 M85.26 57.48 C85.91 71.25, 77.31 78.42, 66.1 76.64 M85.26 57.48 C85.37 69.85, 77.95 78.47, 66.1 76.64 M66.1 76.64 C55.27 76.68, 42.79 76.45, 19.16 76.64 M66.1 76.64 C54.85 77.35, 43.07 77.55, 19.16 76.64 M19.16 76.64 C7.45 77.86, -1.41 68.26, 0 57.48 M19.16 76.64 C8.27 76.02, 1.91 71.73, 0 57.48 M0 57.48 C-2.26 43.58, -0.5 33.24, 0 19.16 M0 57.48 C0.69 41.92, 0.15 27.49, 0 19.16 M0 19.16 C0.59 7.59, 4.61 -1.17, 19.16 0 M0 19.16 C-1.44 6.98, 7.43 0.32, 19.16 0" stroke="#1e1e1e" stroke-width="2" fill="none"></path></g><g stroke-linecap="round" transform="translate(38.649680311687916 96.89204723666717) rotate(90.684351531919 13.974609375 10.47265625)"><path d="M5.24 0 C10.16 1.8, 20.27 1.3, 22.71 0 C28.07 2.09, 27.52 -0.53, 27.95 5.24 C26.63 9.76, 27.38 14.27, 27.95 15.71 C25.12 19.96, 29.2 17.59, 22.71 20.95 C19.19 21.55, 12.21 20.97, 5.24 20.95 C1.86 21.99, -1.79 21.36, 0 15.71 C1.96 10.53, 0.89 9.1, 0 5.24 C1.81 3.69, -1.42 2.53, 5.24 0" stroke="none" stroke-width="0" fill="#d0bfff"></path><path d="M5.24 0 C13.03 0.09, 20.17 0.01, 22.71 0 M5.24 0 C8.71 0.75, 12.74 0.47, 22.71 0 M22.71 0 C27.89 -1.68, 28.57 0.64, 27.95 5.24 M22.71 0 C26.88 1.38, 25.91 0.4, 27.95 5.24 M27.95 5.24 C28.12 7.69, 28.72 10.45, 27.95 15.71 M27.95 5.24 C27.72 7.44, 27.45 9.91, 27.95 15.71 M27.95 15.71 C27.99 18.54, 26.69 20.53, 22.71 20.95 M27.95 15.71 C28.3 17.29, 26.48 20.55, 22.71 20.95 M22.71 20.95 C17.16 22.08, 8.74 20.37, 5.24 20.95 M22.71 20.95 C19.09 20.94, 15.27 21.71, 5.24 20.95 M5.24 20.95 C3.42 19.9, -0.76 20.3, 0 15.71 M5.24 20.95 C0.55 22.78, -0.98 19.83, 0 15.71 M0 15.71 C0.5 12.58, 0.88 8.46, 0 5.24 M0 15.71 C-0.51 12.06, -0.43 7.47, 0 5.24 M0 5.24 C0.41 2.4, 2.49 0.7, 5.24 0 M0 5.24 C0.36 3.15, -0.11 2.18, 5.24 0" stroke="#1e1e1e" stroke-width="2" fill="none"></path></g><g stroke-linecap="round" transform="translate(27.000279017858702 45.15652205235074) rotate(90.684351531919 25.4296875 23.859375)"><path d="M19.18 1.45 C24.02 -0.09, 31.56 -0.36, 36.53 1.82 C41.5 3.99, 46.62 9.72, 49.01 14.5 C51.39 19.27, 52.23 25.55, 50.85 30.48 C49.47 35.4, 45.19 41.32, 40.72 44.04 C36.26 46.76, 29.53 47.45, 24.06 46.78 C18.6 46.1, 12.05 43.44, 7.94 39.99 C3.82 36.54, -0.13 31, -0.62 26.09 C-1.12 21.17, 0.96 14.81, 4.96 10.5 C8.97 6.2, 19.6 2.06, 23.41 0.26 C27.23 -1.53, 27.71 -0.79, 27.85 -0.27 M36.61 2.74 C41.6 4.71, 46.49 9.72, 48.89 14.17 C51.28 18.62, 52.55 24.47, 50.97 29.45 C49.4 34.43, 43.83 41.13, 39.43 44.05 C35.04 46.97, 30.06 47.36, 24.59 46.96 C19.13 46.55, 10.79 44.86, 6.63 41.63 C2.46 38.4, 0.17 32.69, -0.41 27.56 C-0.98 22.43, -0.18 15.51, 3.17 10.84 C6.51 6.17, 14.16 0.8, 19.66 -0.47 C25.16 -1.75, 33.34 2.54, 36.16 3.2 C38.99 3.87, 36.8 3.29, 36.59 3.54" stroke="none" stroke-width="0" fill="#d0bfff"></path><path d="M26.46 -0.08 C31.95 0.05, 39.33 3.07, 43.45 6.68 C47.57 10.29, 50.73 16.54, 51.16 21.59 C51.6 26.64, 49.14 32.77, 46.04 36.99 C42.93 41.21, 37.48 45.57, 32.52 46.91 C27.57 48.25, 21.34 47.13, 16.3 45.02 C11.26 42.91, 4.86 38.56, 2.29 34.25 C-0.28 29.94, -0.44 24.04, 0.86 19.15 C2.16 14.26, 4.65 7.88, 10.09 4.9 C15.52 1.91, 28.88 1.47, 33.46 1.24 C38.04 1.02, 37.97 3.27, 37.56 3.55 M20.39 -0.01 C25.68 -1.25, 33.11 0.27, 37.93 2.58 C42.75 4.9, 47.35 9.11, 49.32 13.87 C51.29 18.64, 51.25 26.19, 49.73 31.17 C48.2 36.16, 44.99 40.88, 40.18 43.79 C35.36 46.71, 26.31 49.35, 20.85 48.65 C15.4 47.95, 10.98 43.83, 7.44 39.6 C3.9 35.36, -0.05 28.22, -0.41 23.23 C-0.77 18.24, 1.78 13.49, 5.29 9.68 C8.79 5.86, 18.07 1.6, 20.63 0.34 C23.19 -0.92, 20.42 1.85, 20.67 2.13" stroke="#1e1e1e" stroke-width="2" fill="none"></path></g></svg>