<svg version="1.1" xmlns="http://www.w3.org/2000/svg" viewBox="0 0 109.03033285019364 140.84223780150023" width="109.03033285019364" height="140.84223780150023">
  <!-- svg-source:excalidraw -->
  
  <defs>
    <style class="style-fonts">
      @font-face {
        font-family: "Virgil";
        src: url("https://excalidraw.com/Virgil.woff2");
      }
      @font-face {
        font-family: "Cascadia";
        src: url("https://excalidraw.com/Cascadia.woff2");
      }
      @font-face {
        font-family: "Assistant";
        src: url("https://excalidraw.com/Assistant-Regular.woff2");
      }
    </style>
    
  </defs>
  <g stroke-linecap="round" transform="translate(34.40642755681802 109.06643921733576) rotate(22.461246866865288 19.283203125 7.48828125)"><path d="M3.74 0 C12.33 0.28, 23.45 2.11, 34.82 0 C35.96 -0.99, 39.99 -0.1, 38.57 3.74 C39.16 6.88, 38.09 9.92, 38.57 11.23 C40.3 16, 38.33 16.94, 34.82 14.98 C25.01 12.82, 10.57 15.17, 3.74 14.98 C2.1 15.95, 0.91 14.14, 0 11.23 C0.95 9.34, -0.02 5.24, 0 3.74 C1.46 2.42, 2.29 1.35, 3.74 0" stroke="none" stroke-width="0" fill="#868e96"></path><path d="M3.74 0 C15.72 -0.73, 26.89 -0.07, 34.82 0 M3.74 0 C10.22 0.23, 15.98 0.43, 34.82 0 M34.82 0 C37.36 -0.18, 38.17 2.04, 38.57 3.74 M34.82 0 C36.86 0.3, 37.59 2.03, 38.57 3.74 M38.57 3.74 C38.36 6.49, 38.54 8.55, 38.57 11.23 M38.57 3.74 C38.64 6.67, 38.41 9.19, 38.57 11.23 M38.57 11.23 C39.38 13.46, 38.15 15.62, 34.82 14.98 M38.57 11.23 C38.72 14.77, 37.42 13.88, 34.82 14.98 M34.82 14.98 C29.28 15.37, 22.57 15.8, 3.74 14.98 M34.82 14.98 C28.26 15.19, 20.96 14.6, 3.74 14.98 M3.74 14.98 C0.62 15.24, 0.45 13.87, 0 11.23 M3.74 14.98 C1.21 15.79, 0.27 12.93, 0 11.23 M0 11.23 C-0.11 8.85, -0.08 7.14, 0 3.74 M0 11.23 C0.02 9.08, 0.01 7.2, 0 3.74 M0 3.74 C0.97 0.98, 0.7 0.79, 3.74 0 M0 3.74 C0.81 1.19, 0.93 -0.96, 3.74 0" stroke="#1e1e1e" stroke-width="2" fill="none"></path></g><g stroke-linecap="round" transform="translate(34.22055516098408 16.919422171883525) rotate(22.923355211056883 19.283203125 7.48828125)"><path d="M3.74 0 C15.68 2.13, 22.15 -1.05, 34.82 0 C38.74 -1.35, 40.64 0.14, 38.57 3.74 C38.2 6.69, 39.28 9.5, 38.57 11.23 C39.58 15.69, 38.89 17.35, 34.82 14.98 C26.27 15.23, 22.29 15.67, 3.74 14.98 C2.16 15.38, 1.59 11.63, 0 11.23 C-0.18 7.69, 0.46 5.76, 0 3.74 C1.05 2.6, 2.76 -0.31, 3.74 0" stroke="none" stroke-width="0" fill="#868e96"></path><path d="M3.74 0 C14.46 0.08, 23.13 0.13, 34.82 0 M3.74 0 C12.97 0.37, 22.99 -0.17, 34.82 0 M34.82 0 C36.92 0.79, 38.16 1.51, 38.57 3.74 M34.82 0 C36.34 0.78, 38.81 1.87, 38.57 3.74 M38.57 3.74 C38.5 6.06, 38.83 8.17, 38.57 11.23 M38.57 3.74 C38.45 6.53, 38.74 9.64, 38.57 11.23 M38.57 11.23 C39.4 14.37, 37.45 15.89, 34.82 14.98 M38.57 11.23 C38.67 12.63, 36.23 14.89, 34.82 14.98 M34.82 14.98 C26.35 15.88, 15.99 15.35, 3.74 14.98 M34.82 14.98 C26.78 14.78, 19.31 15.2, 3.74 14.98 M3.74 14.98 C1.7 15.11, -0.03 14.44, 0 11.23 M3.74 14.98 C1.52 14.18, -0.3 12.58, 0 11.23 M0 11.23 C-0.1 9.28, -0.11 7.41, 0 3.74 M0 11.23 C0.02 9.11, 0.18 7, 0 3.74 M0 3.74 C-0.55 2.04, 1.95 -0.05, 3.74 0 M0 3.74 C-0.32 0.29, 1.06 0.51, 3.74 0" stroke="#1e1e1e" stroke-width="2" fill="none"></path></g><g stroke-linecap="round" transform="translate(10 32.194161755215646) rotate(0 42.630859375 38.322265625)"><path d="M19.16 0 C32 -2.08, 50.58 -2.58, 66.1 0 C81.75 -1.53, 86.25 8.74, 85.26 19.16 C87.36 34.94, 86.36 47.15, 85.26 57.48 C87.43 73.54, 75.83 78.57, 66.1 76.64 C56.47 78.16, 45.75 77.38, 19.16 76.64 C8.58 73.74, 3.41 73.47, 0 57.48 C2.1 44.4, 1.52 29.94, 0 19.16 C2.09 5.95, 4.12 2.14, 19.16 0" stroke="none" stroke-width="0" fill="#a18072"></path><path d="M19.16 0 C28.09 0.07, 41.09 0.67, 66.1 0 M19.16 0 C35.61 -0.59, 51.57 0.38, 66.1 0 M66.1 0 C78.07 0.52, 83.56 7.75, 85.26 19.16 M66.1 0 C79.37 1.24, 85.5 4.99, 85.26 19.16 M85.26 19.16 C86.74 32.94, 87.15 50.11, 85.26 57.48 M85.26 19.16 C85.81 32.71, 85.82 47.44, 85.26 57.48 M85.26 57.48 C85.53 72.08, 79.05 74.73, 66.1 76.64 M85.26 57.48 C83.09 70.08, 78.63 78.58, 66.1 76.64 M66.1 76.64 C48.4 77.66, 32.95 77.63, 19.16 76.64 M66.1 76.64 C48.57 76.63, 32.74 76.51, 19.16 76.64 M19.16 76.64 C6.32 78.06, 0.47 68.87, 0 57.48 M19.16 76.64 C5.78 74.35, -0.89 69.33, 0 57.48 M0 57.48 C-0.54 49.93, -0.29 41.7, 0 19.16 M0 57.48 C0.93 48.89, -0.59 41.63, 0 19.16 M0 19.16 C1.41 6.29, 5.83 -1.67, 19.16 0 M0 19.16 C-0.37 7.41, 6.8 -0.21, 19.16 0" stroke="#1e1e1e" stroke-width="2" fill="none"></path></g><g stroke-linecap="round" transform="translate(67.89474033943225 30.8145868446054) rotate(312.47556431009303 13.974609375 10.47265625)"><path d="M5.24 0 C12.45 1.01, 16.55 1.69, 22.71 0 C29.48 -3.05, 29.87 -0.77, 27.95 5.24 C28.69 8.29, 28.28 11.17, 27.95 15.71 C25.05 22.61, 29.42 23.96, 22.71 20.95 C19.06 22.39, 14.21 22.95, 5.24 20.95 C1.31 18.67, 2.14 21.44, 0 15.71 C-0.54 14.57, -1.34 10.81, 0 5.24 C2.99 -1.61, 2.7 2.75, 5.24 0" stroke="none" stroke-width="0" fill="#d0bfff"></path><path d="M5.24 0 C10.23 -1.42, 15.51 0.45, 22.71 0 M5.24 0 C12.21 0, 17.58 0.77, 22.71 0 M22.71 0 C25.03 1.94, 29.01 2.96, 27.95 5.24 M22.71 0 C24.58 -2.3, 29.83 1.12, 27.95 5.24 M27.95 5.24 C28.97 9.34, 27.01 12.27, 27.95 15.71 M27.95 5.24 C28.15 8.57, 28.38 10.92, 27.95 15.71 M27.95 15.71 C28.57 18.09, 26.79 22.15, 22.71 20.95 M27.95 15.71 C25.91 17.85, 24.76 21.54, 22.71 20.95 M22.71 20.95 C17.91 21.35, 9.43 20.48, 5.24 20.95 M22.71 20.95 C18.43 20.6, 15.73 20.59, 5.24 20.95 M5.24 20.95 C2.23 20.53, 0.31 17.54, 0 15.71 M5.24 20.95 C2.03 20.55, 2.24 18.57, 0 15.71 M0 15.71 C-0.13 12.85, -0.96 10.4, 0 5.24 M0 15.71 C0.05 12.51, 0.42 8.22, 0 5.24 M0 5.24 C-0.76 2.84, 0.71 1.6, 5.24 0 M0 5.24 C-0.98 2.38, 3.25 0.68, 5.24 0" stroke="#1e1e1e" stroke-width="2" fill="none"></path></g><g stroke-linecap="round" transform="translate(30.06591304117319 45.26837942211296) rotate(312.47556431009303 25.4296875 23.859375)"><path d="M26.71 -0.5 C32.05 -0.55, 39.73 3.69, 43.72 7.25 C47.72 10.82, 50.3 15.94, 50.65 20.88 C50.99 25.81, 48.73 32.53, 45.8 36.87 C42.88 41.2, 38.2 45.41, 33.1 46.92 C28 48.42, 20.14 47.81, 15.2 45.88 C10.26 43.95, 5.97 40.01, 3.46 35.35 C0.96 30.69, -1.05 23.11, 0.18 17.91 C1.41 12.71, 6.02 7.19, 10.85 4.16 C15.68 1.13, 25.98 0.18, 29.15 -0.27 C32.33 -0.72, 30.04 1.07, 29.91 1.47 M32.35 1.89 C37.43 2.81, 44.16 7.24, 47.02 11.35 C49.88 15.45, 50.26 21.81, 49.51 26.5 C48.77 31.19, 46.1 35.89, 42.54 39.49 C38.99 43.09, 33.36 47.33, 28.21 48.1 C23.05 48.86, 16.12 46.89, 11.61 44.07 C7.11 41.25, 2.93 35.96, 1.17 31.18 C-0.59 26.4, -1.37 20.01, 1.07 15.42 C3.5 10.82, 10.7 6.19, 15.79 3.59 C20.88 1, 28.83 0.14, 31.62 -0.15 C34.4 -0.43, 32.46 1.23, 32.48 1.89" stroke="none" stroke-width="0" fill="#d0bfff"></path><path d="M27.56 1.04 C32.63 1.24, 39.65 3.87, 43.65 7.31 C47.65 10.75, 51.02 16.49, 51.56 21.68 C52.11 26.88, 50.17 34.37, 46.92 38.47 C43.68 42.58, 37.73 45.05, 32.11 46.32 C26.49 47.59, 18.25 48.09, 13.21 46.09 C8.18 44.09, 3.82 39.12, 1.89 34.33 C-0.03 29.54, -0.07 22.38, 1.65 17.35 C3.36 12.31, 7.36 7.06, 12.18 4.13 C17.01 1.19, 26.87 0.11, 30.6 -0.24 C34.34 -0.59, 34.38 1.42, 34.58 2.03 M32.46 -0.02 C37.41 1.3, 43.87 6.89, 46.69 11.06 C49.52 15.24, 50.14 20.04, 49.43 25.05 C48.73 30.05, 46 37.31, 42.48 41.11 C38.97 44.91, 33.62 47.27, 28.34 47.83 C23.07 48.39, 15.33 47.61, 10.81 44.47 C6.29 41.34, 2.69 34.37, 1.22 29.01 C-0.25 23.65, -0.16 16.85, 1.98 12.29 C4.12 7.73, 9.31 3.63, 14.08 1.64 C18.86 -0.35, 27.68 0.48, 30.64 0.34 C33.61 0.2, 31.72 0.37, 31.89 0.78" stroke="#1e1e1e" stroke-width="2" fill="none"></path></g></svg>