<svg version="1.1" xmlns="http://www.w3.org/2000/svg" viewBox="0 0 105.26171875 140.84223780150023" width="105.26171875" height="140.84223780150023">
  <!-- svg-source:excalidraw -->
  
  <defs>
    <style class="style-fonts">
      @font-face {
        font-family: "Virgil";
        src: url("https://excalidraw.com/Virgil.woff2");
      }
      @font-face {
        font-family: "Cascadia";
        src: url("https://excalidraw.com/Cascadia.woff2");
      }
      @font-face {
        font-family: "Assistant";
        src: url("https://excalidraw.com/Assistant-Regular.woff2");
      }
    </style>
    
  </defs>
  <g stroke-linecap="round" transform="translate(34.40642755681802 109.06643921733576) rotate(22.461246866865288 19.283203125 7.48828125)"><path d="M3.74 0 C11.25 -1, 16.82 -0.7, 34.82 0 C38.48 0.47, 38.33 1.6, 38.57 3.74 C38.28 7.11, 38.14 10.2, 38.57 11.23 C37.46 14.44, 39.02 15.75, 34.82 14.98 C29.14 16.26, 20.89 16.82, 3.74 14.98 C3.62 12.78, 1.39 11.91, 0 11.23 C0.34 9.86, 0.13 8.4, 0 3.74 C-2.1 3.71, 3.57 2.18, 3.74 0" stroke="none" stroke-width="0" fill="#868e96"></path><path d="M3.74 0 C16.34 -0.82, 28.01 0.51, 34.82 0 M3.74 0 C13.72 0.16, 24.36 -0.59, 34.82 0 M34.82 0 C37.35 0.09, 38.89 1.74, 38.57 3.74 M34.82 0 C36.42 1.02, 38.62 1.04, 38.57 3.74 M38.57 3.74 C38.69 5.37, 38.85 7.72, 38.57 11.23 M38.57 3.74 C38.74 6.37, 38.56 9.19, 38.57 11.23 M38.57 11.23 C37.98 14.7, 37.85 15.58, 34.82 14.98 M38.57 11.23 C37.75 12.58, 38.26 14.66, 34.82 14.98 M34.82 14.98 C23.83 15.08, 10.06 14.05, 3.74 14.98 M34.82 14.98 C25.94 15.37, 17.07 14.69, 3.74 14.98 M3.74 14.98 C1.56 14.42, 0.3 14.33, 0 11.23 M3.74 14.98 C0.23 14.3, -0.72 14.03, 0 11.23 M0 11.23 C0.26 8.73, -0.26 5.96, 0 3.74 M0 11.23 C-0.15 9.68, 0.02 8.17, 0 3.74 M0 3.74 C0.24 1.04, 1.4 -0.83, 3.74 0 M0 3.74 C0.14 1.05, 2.37 -0.31, 3.74 0" stroke="#1e1e1e" stroke-width="2" fill="none"></path></g><g stroke-linecap="round" transform="translate(34.220555160985896 16.919422171883525) rotate(22.923355211056883 19.283203125 7.48828125)"><path d="M3.74 0 C13.08 -0.3, 27.93 0.58, 34.82 0 C37.08 0.36, 40.62 3.43, 38.57 3.74 C38.02 6.38, 38.11 7.72, 38.57 11.23 C40.27 14.5, 36.17 16.29, 34.82 14.98 C25.39 16.7, 14.39 12.93, 3.74 14.98 C2.64 13.16, -1.86 14.26, 0 11.23 C0.12 9.33, -0.82 7.17, 0 3.74 C2.32 3.43, 0.99 -1.56, 3.74 0" stroke="none" stroke-width="0" fill="#868e96"></path><path d="M3.74 0 C15.73 0.75, 27.76 0.38, 34.82 0 M3.74 0 C15.14 -0.57, 26.58 -0.04, 34.82 0 M34.82 0 C37.64 0.49, 37.79 2.13, 38.57 3.74 M34.82 0 C37.37 -0.2, 38.11 2.16, 38.57 3.74 M38.57 3.74 C38.83 5.77, 38.78 7.67, 38.57 11.23 M38.57 3.74 C38.59 5.68, 38.49 7.51, 38.57 11.23 M38.57 11.23 C39.1 14.33, 36.61 13.98, 34.82 14.98 M38.57 11.23 C39.51 13.41, 38.27 15.71, 34.82 14.98 M34.82 14.98 C24.12 14.05, 15.26 14.88, 3.74 14.98 M34.82 14.98 C23.31 14.64, 11.1 14.78, 3.74 14.98 M3.74 14.98 C1.54 15.58, -0.89 13.14, 0 11.23 M3.74 14.98 C0.53 15.28, 0.52 13.89, 0 11.23 M0 11.23 C-0.29 8.91, -0.4 6.64, 0 3.74 M0 11.23 C0.04 9.23, 0.08 7.3, 0 3.74 M0 3.74 C0.15 0.42, 1.37 -0.17, 3.74 0 M0 3.74 C1.12 0.93, 0.62 0.91, 3.74 0" stroke="#1e1e1e" stroke-width="2" fill="none"></path></g><g stroke-linecap="round" transform="translate(10 32.194161755215646) rotate(0 42.630859375 38.322265625)"><path d="M19.16 0 C33.55 0.78, 44.4 0.63, 66.1 0 C81.71 3.02, 83.38 5.01, 85.26 19.16 C83.37 33.74, 87.26 47.42, 85.26 57.48 C83.67 72.07, 81.28 79.78, 66.1 76.64 C53.48 74.11, 36.21 74.64, 19.16 76.64 C3.82 77.38, 1.18 71.6, 0 57.48 C-3.01 48.05, 3.11 34.81, 0 19.16 C-0.36 4.23, 8.41 1.63, 19.16 0" stroke="none" stroke-width="0" fill="#a18072"></path><path d="M19.16 0 C30.61 0.25, 42.12 -1.67, 66.1 0 M19.16 0 C35.78 0.55, 52.68 0.95, 66.1 0 M66.1 0 C77.31 1.77, 85.35 6.03, 85.26 19.16 M66.1 0 C77.95 1.82, 84.34 6.98, 85.26 19.16 M85.26 19.16 C86.6 27.59, 84.3 37.41, 85.26 57.48 M85.26 19.16 C84.67 31.15, 85.78 41.81, 85.26 57.48 M85.26 57.48 C83.85 68.26, 80.51 76.1, 66.1 76.64 M85.26 57.48 C87.17 71.73, 79.19 78.74, 66.1 76.64 M66.1 76.64 C51.46 75.99, 38.8 77.03, 19.16 76.64 M66.1 76.64 C49.88 75.7, 33.33 76.85, 19.16 76.64 M19.16 76.64 C4.61 75.47, -1.25 70.78, 0 57.48 M19.16 76.64 C7.43 76.96, -0.07 71.88, 0 57.48 M0 57.48 C-1.73 44.32, -0.54 30.9, 0 19.16 M0 57.48 C0.24 46.98, 0.15 36.05, 0 19.16 M0 19.16 C0.24 6.05, 8.33 -0.54, 19.16 0 M0 19.16 C-1.26 8.21, 8.01 -0.11, 19.16 0" stroke="#1e1e1e" stroke-width="2" fill="none"></path></g><g stroke-linecap="round" transform="translate(40.98226959740168 21.994833421978) rotate(269.315648468081 13.974609375 10.47265625)"><path d="M5.24 0 C14.03 -2.85, 18.76 -2.38, 22.71 0 C23.63 0.73, 29.13 3.09, 27.95 5.24 C26.46 10.53, 29.66 13.83, 27.95 15.71 C27.59 17.04, 28.23 22.57, 22.71 20.95 C16.39 19.14, 12.69 23.08, 5.24 20.95 C0.06 18.21, 1.45 17.89, 0 15.71 C1.71 9.97, 0.65 9.19, 0 5.24 C2.46 4.25, 2.19 1.04, 5.24 0" stroke="none" stroke-width="0" fill="#d0bfff"></path><path d="M5.24 0 C9.93 0.14, 11.68 1.53, 22.71 0 M5.24 0 C9.75 0.71, 15.75 0.4, 22.71 0 M22.71 0 C24.79 -2, 29.58 1.2, 27.95 5.24 M22.71 0 C28.11 1.47, 28.26 3.84, 27.95 5.24 M27.95 5.24 C27.77 8.36, 28.73 12.14, 27.95 15.71 M27.95 5.24 C28.2 8.63, 28.19 12.93, 27.95 15.71 M27.95 15.71 C26.18 18.03, 24.95 21.46, 22.71 20.95 M27.95 15.71 C28.99 19.52, 26.13 22.57, 22.71 20.95 M22.71 20.95 C15.32 20.22, 10.71 19.32, 5.24 20.95 M22.71 20.95 C18.23 20.71, 13.45 20.16, 5.24 20.95 M5.24 20.95 C1.99 20.6, 1.95 18.65, 0 15.71 M5.24 20.95 C0.49 22.77, 1.62 19.09, 0 15.71 M0 15.71 C0.55 13.05, -0.01 10.15, 0 5.24 M0 15.71 C-0.29 12.03, -0.36 8.19, 0 5.24 M0 5.24 C-0.85 2.29, 3.05 0.59, 5.24 0 M0 5.24 C-1.02 2.9, 3.28 2.01, 5.24 0" stroke="#1e1e1e" stroke-width="2" fill="none"></path></g><g stroke-linecap="round" transform="translate(29.332868303574287 46.95692110629625) rotate(269.315648468081 25.4296875 23.859375)"><path d="M18.53 0.61 C23.15 -1.14, 30.04 -0.22, 35.08 1.96 C40.13 4.15, 46.32 9.06, 48.8 13.71 C51.28 18.37, 51.27 24.85, 49.97 29.91 C48.68 34.97, 45.54 41.2, 41.04 44.09 C36.54 46.98, 28.45 47.88, 22.97 47.27 C17.5 46.65, 11.87 43.98, 8.2 40.4 C4.52 36.82, 1.5 30.67, 0.92 25.78 C0.34 20.89, 1.1 15.39, 4.71 11.05 C8.32 6.71, 18.93 1.39, 22.56 -0.26 C26.19 -1.91, 26.37 0.62, 26.51 1.15 M33.54 2.48 C38.14 3.58, 43.91 7.01, 46.76 11.46 C49.61 15.9, 51.47 23.89, 50.64 29.17 C49.81 34.44, 46.06 39.85, 41.77 43.1 C37.49 46.34, 30.68 48.62, 24.94 48.62 C19.19 48.63, 11.21 46.45, 7.32 43.11 C3.43 39.77, 2.23 34.03, 1.61 28.58 C1 23.14, 0.86 14.89, 3.63 10.44 C6.41 6, 12.97 3.22, 18.27 1.89 C23.56 0.56, 32.54 2.45, 35.41 2.46 C38.28 2.47, 35.9 1.56, 35.49 1.94" stroke="none" stroke-width="0" fill="#d0bfff"></path><path d="M37.25 1.79 C42.23 3.72, 47.38 9.96, 49.59 14.6 C51.8 19.24, 52.32 24.67, 50.51 29.64 C48.7 34.6, 43.39 41.27, 38.73 44.4 C34.08 47.53, 27.75 49.05, 22.6 48.43 C17.45 47.8, 11.45 44.42, 7.85 40.64 C4.25 36.85, 1.65 30.98, 0.98 25.71 C0.31 20.43, 0.82 13.15, 3.84 8.97 C6.86 4.79, 13.23 1.51, 19.1 0.63 C24.98 -0.26, 35.57 2.85, 39.08 3.66 C42.58 4.47, 40.63 5.15, 40.14 5.48 M17.13 0.03 C21.79 -1.67, 29.57 0.2, 34.88 2.47 C40.18 4.74, 46.46 8.94, 48.99 13.65 C51.52 18.36, 51.43 25.98, 50.05 30.73 C48.66 35.48, 45.16 39.58, 40.69 42.15 C36.22 44.72, 28.8 46.45, 23.21 46.16 C17.62 45.87, 11.22 43.78, 7.15 40.39 C3.08 37, -0.76 30.91, -1.22 25.84 C-1.67 20.78, 1.06 14.2, 4.4 9.99 C7.74 5.78, 16.42 2.25, 18.83 0.6 C21.23 -1.04, 18.75 -0.26, 18.83 0.13" stroke="#1e1e1e" stroke-width="2" fill="none"></path></g></svg>