<svg version="1.1" xmlns="http://www.w3.org/2000/svg" viewBox="0 0 115.33858816964312 140.84223780150023" width="115.33858816964312" height="140.84223780150023">
  <!-- svg-source:excalidraw -->
  
  <defs>
    <style class="style-fonts">
      @font-face {
        font-family: "Virgil";
        src: url("https://excalidraw.com/Virgil.woff2");
      }
      @font-face {
        font-family: "Cascadia";
        src: url("https://excalidraw.com/Cascadia.woff2");
      }
      @font-face {
        font-family: "Assistant";
        src: url("https://excalidraw.com/Assistant-Regular.woff2");
      }
    </style>
    
  </defs>
  <g stroke-linecap="round" transform="translate(34.40642755681802 109.06643921733576) rotate(22.461246866865288 19.283203125 7.48828125)"><path d="M3.74 0 C17.1 -1.19, 29.68 -0.95, 34.82 0 C38.03 1.7, 39.34 0.1, 38.57 3.74 C39.01 7.1, 39.22 9.88, 38.57 11.23 C36.37 15.12, 35.5 13.12, 34.82 14.98 C25.78 15.53, 16.49 13.03, 3.74 14.98 C3.71 17.3, 2.18 13.47, 0 11.23 C0.34 9.94, 0.51 7.52, 0 3.74 C-1.64 2.79, 2.87 -1.22, 3.74 0" stroke="none" stroke-width="0" fill="#868e96"></path><path d="M3.74 0 C13.07 0.32, 22.7 -0.79, 34.82 0 M3.74 0 C15.62 0.42, 27.7 0.16, 34.82 0 M34.82 0 C36.47 0.68, 38.78 1.79, 38.57 3.74 M34.82 0 C37.44 -0.7, 39.6 1.11, 38.57 3.74 M38.57 3.74 C38.96 6.17, 38.82 7.93, 38.57 11.23 M38.57 3.74 C38.75 5.36, 38.62 6.91, 38.57 11.23 M38.57 11.23 C38.65 12.77, 36.37 14.9, 34.82 14.98 M38.57 11.23 C38.44 14.7, 37.79 15.58, 34.82 14.98 M34.82 14.98 C22.32 15.32, 11.53 14.14, 3.74 14.98 M34.82 14.98 C27.55 15.09, 19.8 15.37, 3.74 14.98 M3.74 14.98 C1.48 14.28, -0.26 12.73, 0 11.23 M3.74 14.98 C0.8 14.51, -1.04 13.37, 0 11.23 M0 11.23 C-0.07 9.03, -0.3 6.76, 0 3.74 M0 11.23 C-0.14 9.26, 0.1 6.99, 0 3.74 M0 3.74 C-0.28 0.41, 1.09 0.45, 3.74 0 M0 3.74 C0.21 1.14, 1.41 0.91, 3.74 0" stroke="#1e1e1e" stroke-width="2" fill="none"></path></g><g stroke-linecap="round" transform="translate(34.22055516098408 16.919422171883525) rotate(22.923355211056883 19.283203125 7.48828125)"><path d="M3.74 0 C13.96 -0.9, 20.73 1.91, 34.82 0 C38.09 -1.15, 39.88 2.99, 38.57 3.74 C39.19 7.53, 37.78 10.06, 38.57 11.23 C36.75 11.87, 37.85 15.83, 34.82 14.98 C25.92 12.94, 16.32 17.36, 3.74 14.98 C3.43 14.72, -1.56 15.19, 0 11.23 C0.53 8.53, -0.65 6.64, 0 3.74 C1.62 0.03, -0.73 1.05, 3.74 0" stroke="none" stroke-width="0" fill="#868e96"></path><path d="M3.74 0 C13.65 -0.83, 23.45 0, 34.82 0 M3.74 0 C12.31 0.01, 20.86 0.22, 34.82 0 M34.82 0 C37.53 0.54, 38.67 0.64, 38.57 3.74 M34.82 0 C38.35 -0.14, 38.53 2.12, 38.57 3.74 M38.57 3.74 C38.83 5.29, 38.23 7.67, 38.57 11.23 M38.57 3.74 C38.62 5.96, 38.61 7.65, 38.57 11.23 M38.57 11.23 C37.62 13.65, 37.21 15.82, 34.82 14.98 M38.57 11.23 C39.04 14.33, 38.29 14.01, 34.82 14.98 M34.82 14.98 C25.14 14.14, 13.66 14.4, 3.74 14.98 M34.82 14.98 C24.68 15.35, 14.68 14.65, 3.74 14.98 M3.74 14.98 C0.98 13.98, -0.39 13.33, 0 11.23 M3.74 14.98 C0.21 14.62, 0.02 13.35, 0 11.23 M0 11.23 C-0.3 8.85, -0.06 6.74, 0 3.74 M0 11.23 C0.15 9.18, -0.03 6.99, 0 3.74 M0 3.74 C-0.16 1.69, 1.43 -0.09, 3.74 0 M0 3.74 C0.16 2.16, 2.21 -0.6, 3.74 0" stroke="#1e1e1e" stroke-width="2" fill="none"></path></g><g stroke-linecap="round" transform="translate(10 32.194161755215646) rotate(0 42.630859375 38.322265625)"><path d="M19.16 0 C31.8 2.71, 43.52 -1.23, 66.1 0 C80.69 2.41, 88.4 7.79, 85.26 19.16 C82.63 35.48, 83.17 45.37, 85.26 57.48 C86 71.44, 80.22 77.91, 66.1 76.64 C54.7 79.18, 39.48 75.61, 19.16 76.64 C4.23 78.67, 1.63 71.7, 0 57.48 C-2.67 46.14, 1.84 28.83, 0 19.16 C-2.74 7.84, 5.08 2.88, 19.16 0" stroke="none" stroke-width="0" fill="#a18072"></path><path d="M19.16 0 C36.55 0.46, 50.03 -0.43, 66.1 0 M19.16 0 C36.11 0.56, 54.99 0.42, 66.1 0 M66.1 0 C79.08 -1.22, 87.06 6.14, 85.26 19.16 M66.1 0 C78.81 1.75, 83.92 8.61, 85.26 19.16 M85.26 19.16 C83.5 34.32, 84.95 47.88, 85.26 57.48 M85.26 19.16 C85.4 32.16, 84.37 46.99, 85.26 57.48 M85.26 57.48 C85.05 71.94, 79.7 77.69, 66.1 76.64 M85.26 57.48 C87.2 68.32, 79.59 75.37, 66.1 76.64 M66.1 76.64 C49.46 74.98, 35.68 77.14, 19.16 76.64 M66.1 76.64 C51.6 76.28, 36.37 75.98, 19.16 76.64 M19.16 76.64 C5.61 75.84, -1.8 69.63, 0 57.48 M19.16 76.64 C6.43 75.89, 0.56 69.78, 0 57.48 M0 57.48 C-0.02 47.34, -0.23 32.22, 0 19.16 M0 57.48 C-0.55 42.11, -0.43 28.86, 0 19.16 M0 19.16 C0.36 6.2, 6.66 1.58, 19.16 0 M0 19.16 C1.93 5.18, 5.51 1.26, 19.16 0" stroke="#1e1e1e" stroke-width="2" fill="none"></path></g><g stroke-linecap="round" transform="translate(77.38936941964312 58.642101043607) rotate(0 13.974609375 10.47265625)"><path d="M5.24 0 C10.67 -1.6, 15.82 1.9, 22.71 0 C29.34 1.4, 30.67 3.92, 27.95 5.24 C26.47 7.99, 28.17 14.05, 27.95 15.71 C29.3 20.47, 26.77 23.14, 22.71 20.95 C21.51 20.91, 13.16 23, 5.24 20.95 C3.37 22.39, 1.87 21.29, 0 15.71 C1.29 11.81, -1.32 10.44, 0 5.24 C-1.31 4.63, -1.08 0.76, 5.24 0" stroke="none" stroke-width="0" fill="#d0bfff"></path><path d="M5.24 0 C8.8 -0.71, 14.38 -0.71, 22.71 0 M5.24 0 C11.12 0.35, 16.72 -0.65, 22.71 0 M22.71 0 C28 -0.25, 27.89 3.27, 27.95 5.24 M22.71 0 C24.86 2.23, 29.17 3.14, 27.95 5.24 M27.95 5.24 C27.56 8.51, 28.52 10.18, 27.95 15.71 M27.95 5.24 C27.46 9.29, 27.9 13.87, 27.95 15.71 M27.95 15.71 C28.78 20.24, 27.89 19.26, 22.71 20.95 M27.95 15.71 C28.66 17.92, 26.88 22.33, 22.71 20.95 M22.71 20.95 C19.47 21.63, 15.57 20.78, 5.24 20.95 M22.71 20.95 C16 19.95, 9.42 20.47, 5.24 20.95 M5.24 20.95 C-0.06 20.32, 0.04 18.54, 0 15.71 M5.24 20.95 C2.3 20.47, 0.35 17.29, 0 15.71 M0 15.71 C-0.27 11.87, 0.85 9.91, 0 5.24 M0 15.71 C-0.05 12.85, 0.12 9.48, 0 5.24 M0 5.24 C0.27 3.32, 3.42 -1.05, 5.24 0 M0 5.24 C-0.88 3.01, 0.55 1.84, 5.24 0" stroke="#1e1e1e" stroke-width="2" fill="none"></path></g><g stroke-linecap="round" transform="translate(27.590541294643117 44.603038543607) rotate(0 25.4296875 23.859375)"><path d="M27.68 0.3 C32.87 0.72, 40.03 4.92, 43.85 8.55 C47.66 12.17, 50.1 16.99, 50.55 22.05 C51 27.11, 49.78 34.78, 46.54 38.91 C43.3 43.04, 36.7 45.82, 31.12 46.83 C25.54 47.84, 17.84 47.21, 13.06 44.97 C8.29 42.72, 4.48 38.03, 2.47 33.38 C0.47 28.72, -0.63 21.82, 1.02 17.04 C2.66 12.26, 7.42 7.5, 12.35 4.7 C17.29 1.9, 27.01 0.81, 30.64 0.23 C34.27 -0.34, 34.01 0.87, 34.13 1.25 M28.24 0.98 C33.42 1.49, 41.42 5.31, 45.29 9.16 C49.15 13.01, 51.24 18.98, 51.42 24.1 C51.61 29.22, 50.07 35.89, 46.41 39.87 C42.76 43.85, 35.16 47.32, 29.51 47.99 C23.86 48.65, 17.06 46.32, 12.5 43.88 C7.95 41.44, 3.97 37.81, 2.18 33.34 C0.4 28.88, 0.13 21.87, 1.79 17.07 C3.45 12.27, 7.82 7.14, 12.14 4.57 C16.45 2, 24.69 2.08, 27.7 1.65 C30.7 1.21, 30.06 1.95, 30.18 1.95" stroke="none" stroke-width="0" fill="#d0bfff"></path><path d="M21.03 0.7 C26.08 -0.41, 33.52 0.44, 38.09 2.99 C42.67 5.54, 46.59 11.27, 48.48 16 C50.37 20.74, 50.92 26.79, 49.42 31.39 C47.93 35.99, 43.95 40.85, 39.49 43.61 C35.03 46.38, 28.07 48.76, 22.65 47.99 C17.24 47.22, 10.94 42.75, 7 38.97 C3.06 35.19, -0.7 30.17, -0.99 25.31 C-1.28 20.46, 0.81 14.04, 5.25 9.84 C9.69 5.65, 21.45 1.63, 25.66 0.14 C29.88 -1.35, 30.79 0.68, 30.53 0.9 M25.08 0.8 C30.47 -0.11, 38 0.88, 42.28 3.75 C46.56 6.61, 49.74 12.63, 50.75 17.99 C51.76 23.34, 51.21 31.38, 48.37 35.89 C45.53 40.41, 38.98 43.23, 33.71 45.07 C28.43 46.92, 21.57 48.35, 16.71 46.97 C11.86 45.58, 7.35 40.99, 4.59 36.78 C1.84 32.57, -0.5 26.95, 0.19 21.68 C0.87 16.41, 4.72 9, 8.7 5.14 C12.68 1.28, 21.53 -0.6, 24.06 -1.48 C26.59 -2.36, 24.03 -0.68, 23.89 -0.11" stroke="#1e1e1e" stroke-width="2" fill="none"></path></g></svg>